# Blender v2.79 (sub 0) OBJ File: ''
# www.blender.org
mtllib 991_link_1_97.mtl
o Shape_IndexedFaceSet.097_Shape_IndexedFaceSet.9387
v -0.085356 -0.057961 0.855156
v -0.080770 -0.053374 0.919366
v -0.080770 -0.057961 0.919366
v -0.085356 -0.053374 0.919366
v -0.080947 -0.053552 0.857640
vn 0.0000 1.0000 -0.0029
vn 0.0000 0.0000 1.0000
vn -0.7063 -0.7061 0.0504
vn -0.6915 0.7205 -0.0515
vn 0.7205 -0.6915 -0.0515
vn 1.0000 0.0000 -0.0029
usemtl Shape.9392
s off
f 4//1 2//1 5//1
f 3//2 2//2 4//2
f 1//3 3//3 4//3
f 1//4 4//4 5//4
f 3//5 1//5 5//5
f 2//6 3//6 5//6
