# Blender v2.79 (sub 0) OBJ File: ''
# www.blender.org
mtllib 991_link_0_1.mtl
o Shape_IndexedFaceSet.001_Shape_IndexedFaceSet.8734
v -0.089252 0.554812 -0.145184
v 0.087722 0.557667 -0.142333
v 0.053029 0.590848 -0.148282
v 0.010651 0.554812 -0.242218
v 0.007793 0.554812 -0.062407
v -0.054970 0.591916 -0.162275
v -0.024755 0.590712 -0.105620
v 0.020739 0.590837 -0.202011
v -0.063545 0.557667 -0.219355
v 0.073448 0.554812 -0.205080
v -0.069244 0.557667 -0.093807
v 0.033701 0.590596 -0.111228
v 0.067714 0.554812 -0.090956
v -0.032138 0.591916 -0.199378
v -0.049270 0.591916 -0.125207
v -0.032138 0.554812 -0.068127
v -0.083518 0.554812 -0.187955
v -0.009305 0.557667 -0.242218
v 0.084864 0.557667 -0.185103
v 0.039182 0.557667 -0.233629
v 0.039323 0.590738 -0.188379
v -0.006091 0.590753 -0.100147
v 0.039182 0.557667 -0.070979
v 0.084864 0.557667 -0.119505
v -0.089252 0.557667 -0.145184
v 0.064873 0.557667 -0.216503
v -0.046429 0.591916 -0.185103
v -0.032138 0.557667 -0.068127
v -0.083518 0.557667 -0.187955
v -0.080677 0.557667 -0.110933
v -0.032138 0.554812 -0.236480
v 0.018038 0.590829 -0.102621
v 0.007793 0.557667 -0.062407
v 0.087722 0.554812 -0.142333
v 0.067714 0.557667 -0.090956
v 0.049622 0.590604 -0.132424
v 0.009955 0.590786 -0.204560
v 0.010651 0.557667 -0.242218
v -0.032138 0.557667 -0.236480
v -0.060686 0.557667 -0.085253
v 0.046952 0.590599 -0.177478
vn 0.5508 0.7452 -0.3759
vn 0.0000 -1.0000 0.0000
vn 0.0110 0.9999 0.0025
vn 0.0000 1.0000 -0.0000
vn -0.1550 -0.9812 0.1149
vn 0.6946 0.7179 -0.0464
vn 0.1892 -0.9284 -0.3199
vn 0.0178 0.9998 -0.0088
vn 0.0194 0.9996 -0.0192
vn -0.0318 0.9944 0.1009
vn 0.1909 -0.8961 0.4008
vn 0.6810 0.7273 0.0853
vn -0.6765 0.7291 0.1040
vn -0.9911 0.0000 -0.1329
vn 0.7873 0.3592 -0.5012
vn 0.3728 0.7404 -0.5593
vn 0.2858 -0.8570 -0.4288
vn 0.3920 0.7527 -0.5290
vn -0.4848 0.7276 -0.4853
vn -0.1418 0.0000 0.9899
vn -0.1860 0.7550 0.6288
vn -0.8438 0.0000 -0.5367
vn -0.7273 0.6794 -0.0975
vn -0.6480 0.7220 -0.2425
vn -0.6092 0.6919 -0.3875
vn -0.1943 -0.9723 0.1297
vn -0.5898 0.7050 0.3938
vn -0.9701 0.0000 0.2429
vn -0.6891 0.7038 0.1725
vn -0.2052 -0.9543 -0.2173
vn -0.0974 -0.6806 -0.7261
vn 0.0261 0.9995 0.0204
vn 0.0127 0.9999 0.0102
vn 0.0014 0.9990 0.0440
vn 0.3254 0.7531 0.5718
vn 0.1782 0.7364 0.6527
vn 0.2634 0.0000 0.9647
vn -0.0968 0.7305 0.6760
vn 0.0637 0.7619 0.6445
vn 0.9978 0.0000 -0.0667
vn 0.3822 -0.9200 -0.0870
vn 0.9923 0.0000 0.1242
vn 0.4220 -0.8916 0.1643
vn 0.5736 0.0000 0.8192
vn 0.3864 0.7389 0.5519
vn 0.8572 0.0000 0.5150
vn 0.5712 0.7457 0.3431
vn 0.0280 0.9994 0.0214
vn 0.6451 0.7492 0.1501
vn 0.5128 0.7671 0.3855
vn 0.0160 0.9960 -0.0875
vn -0.0585 0.7643 -0.6422
vn 0.0000 0.0000 -1.0000
vn 0.2883 0.0000 -0.9576
vn 0.1965 0.7316 -0.6528
vn 0.1504 0.7437 -0.6513
vn 0.0000 0.7509 -0.6604
vn -0.3469 0.6892 -0.6362
vn -0.1680 0.7243 -0.6686
vn -0.4787 0.0000 -0.8780
vn -0.2437 0.0000 -0.9698
vn -0.4849 0.7276 0.4852
vn -0.3889 0.7514 0.5330
vn -0.2358 -0.9427 0.2359
vn -0.3481 0.7362 0.5803
vn -0.5144 0.0000 0.8575
vn 0.6335 0.7613 -0.1383
vn 0.0432 0.9989 -0.0175
vn 0.5687 0.7386 -0.3621
usemtl Shape.8740
s off
f 26//1 21//1 41//1
f 1//2 4//2 5//2
f 5//2 4//2 10//2
f 5//2 10//2 13//2
f 3//3 14//3 15//3
f 14//4 6//4 15//4
f 1//2 5//2 16//2
f 11//5 1//5 16//5
f 4//2 1//2 17//2
f 3//6 2//6 19//6
f 10//7 4//7 20//7
f 14//8 3//8 21//8
f 8//9 14//9 21//9
f 15//10 7//10 22//10
f 5//11 13//11 23//11
f 2//12 3//12 24//12
f 15//13 6//13 25//13
f 17//14 1//14 25//14
f 19//15 10//15 26//15
f 20//16 8//16 26//16
f 10//17 20//17 26//17
f 8//18 21//18 26//18
f 6//4 14//4 27//4
f 14//19 9//19 27//19
f 16//20 5//20 28//20
f 22//21 7//21 28//21
f 9//22 17//22 29//22
f 25//23 6//23 29//23
f 17//14 25//14 29//14
f 6//24 27//24 29//24
f 27//25 9//25 29//25
f 1//26 11//26 30//26
f 11//27 15//27 30//27
f 25//28 1//28 30//28
f 15//29 25//29 30//29
f 4//2 17//2 31//2
f 17//30 9//30 31//30
f 18//31 4//31 31//31
f 12//32 3//32 32//32
f 3//33 15//33 32//33
f 15//34 22//34 32//34
f 23//35 12//35 32//35
f 23//36 32//36 33//36
f 5//37 23//37 33//37
f 28//20 5//20 33//20
f 22//38 28//38 33//38
f 32//39 22//39 33//39
f 13//2 10//2 34//2
f 19//40 2//40 34//40
f 10//41 19//41 34//41
f 2//42 24//42 34//42
f 24//43 13//43 34//43
f 23//44 13//44 35//44
f 12//45 23//45 35//45
f 13//46 24//46 35//46
f 35//47 24//47 36//47
f 3//48 12//48 36//48
f 24//49 3//49 36//49
f 12//50 35//50 36//50
f 14//51 8//51 37//51
f 18//52 14//52 37//52
f 4//53 18//53 38//53
f 20//54 4//54 38//54
f 8//55 20//55 38//55
f 37//56 8//56 38//56
f 18//57 37//57 38//57
f 9//58 14//58 39//58
f 14//59 18//59 39//59
f 31//60 9//60 39//60
f 18//61 31//61 39//61
f 15//62 11//62 40//62
f 7//63 15//63 40//63
f 11//64 16//64 40//64
f 28//65 7//65 40//65
f 16//66 28//66 40//66
f 3//67 19//67 41//67
f 21//68 3//68 41//68
f 19//69 26//69 41//69
