# Blender v2.79 (sub 0) OBJ File: ''
# www.blender.org
mtllib 991_link_1_87.mtl
o Shape_IndexedFaceSet.087_Shape_IndexedFaceSet.9377
v 0.024427 -0.400535 -0.337512
v 0.033104 -0.408485 -0.338036
v 0.098092 -0.397354 -0.291449
v 0.024453 0.371478 -0.314388
v 0.098153 0.369206 -0.286816
v 0.038486 0.354780 -0.337303
v 0.024018 -0.404806 -0.314416
v 0.088921 -0.397354 -0.323541
v 0.098092 0.368575 -0.314371
v 0.084331 0.143804 -0.328128
v 0.089556 0.372664 -0.286275
v 0.024732 0.368575 -0.337303
v 0.098092 -0.250556 -0.318958
v 0.088921 -0.397354 -0.291449
v 0.065987 -0.264276 -0.332715
v 0.075159 0.368575 -0.328128
v 0.033233 0.373145 -0.309738
vn 0.0570 0.9916 -0.1165
vn -0.6731 -0.7250 -0.1460
vn 0.0460 -0.9842 0.1710
vn 0.2102 -0.9758 -0.0601
vn 0.0604 -0.0060 0.9982
vn 0.3719 0.9280 -0.0221
vn -0.0600 0.0003 -0.9982
vn 0.0010 0.0010 -1.0000
vn -0.9998 0.0004 -0.0176
vn -0.9999 0.0006 -0.0122
vn 1.0000 -0.0001 -0.0004
vn 0.9602 -0.0514 -0.2744
vn 1.0000 0.0000 -0.0022
vn 0.4882 -0.0033 -0.8727
vn 0.6601 0.0056 -0.7512
vn 0.0000 -0.9512 0.3086
vn 0.0000 -0.0067 1.0000
vn -0.3330 -0.0061 0.9429
vn 0.1605 -0.0002 -0.9870
vn 0.2555 -0.0226 -0.9665
vn 0.2043 0.0018 -0.9789
vn 0.3462 -0.0050 -0.9382
vn 0.2392 0.0098 -0.9709
vn 0.5143 0.0210 -0.8573
vn 0.0731 0.9899 -0.1219
vn 0.1762 0.1757 -0.9685
vn 0.0315 0.9844 -0.1729
vn -0.4681 0.0002 0.8837
vn -0.3846 -0.0010 0.9231
vn -0.1201 0.9847 -0.1262
usemtl Shape.9382
s off
f 11//1 16//1 17//1
f 1//2 2//2 7//2
f 2//3 3//3 7//3
f 3//4 2//4 8//4
f 3//5 5//5 11//5
f 5//6 9//6 11//6
f 2//7 1//7 12//7
f 6//8 2//8 12//8
f 1//9 7//9 12//9
f 7//10 4//10 12//10
f 5//11 3//11 13//11
f 3//12 8//12 13//12
f 9//13 5//13 13//13
f 8//14 10//14 13//14
f 10//15 9//15 13//15
f 7//16 3//16 14//16
f 3//17 11//17 14//17
f 11//18 7//18 14//18
f 2//19 6//19 15//19
f 8//20 2//20 15//20
f 6//21 10//21 15//21
f 10//22 8//22 15//22
f 10//23 6//23 16//23
f 9//24 10//24 16//24
f 11//25 9//25 16//25
f 6//26 12//26 16//26
f 16//27 12//27 17//27
f 4//28 7//28 17//28
f 7//29 11//29 17//29
f 12//30 4//30 17//30
