# Blender v2.79 (sub 0) OBJ File: ''
# www.blender.org
mtllib 991_link_1_6.mtl
o Shape_IndexedFaceSet.006_Shape_IndexedFaceSet.9296
v 0.042745 -0.422827 -0.337308
v -0.048665 -0.457007 -0.341894
v -0.034891 -0.617465 -0.337308
v -0.041826 -0.417069 -0.332958
v 0.033875 -0.654167 -0.332721
v 0.015538 -0.654167 -0.341894
v 0.047649 -0.461583 -0.341894
v -0.030309 -0.654167 -0.332721
v 0.047649 -0.466183 -0.332721
v -0.024381 -0.404188 -0.341651
v 0.036635 -0.403414 -0.332937
vn 0.1334 0.2575 -0.9570
vn -0.1183 -0.0385 -0.9922
vn 0.4461 -0.0744 -0.8919
vn 0.0000 0.0000 -1.0000
vn -0.9248 -0.0687 0.3742
vn -0.7145 -0.0340 0.6988
vn -0.1941 -0.1455 -0.9701
vn 0.0000 -1.0000 -0.0000
vn 0.9912 0.1184 0.0594
vn 0.9967 -0.0730 -0.0366
vn -0.0022 0.0009 1.0000
vn 0.0000 0.0000 1.0000
vn -0.5822 0.2712 -0.7665
vn 0.0002 0.0045 -1.0000
vn 0.0998 0.1294 -0.9866
vn 0.8443 0.1499 0.5144
vn -0.0008 0.0033 1.0000
vn -0.1147 0.6577 0.7445
usemtl Shape.9301
s off
f 1//1 10//1 11//1
f 3//2 2//2 6//2
f 5//3 6//3 7//3
f 6//4 2//4 7//4
f 2//5 3//5 8//5
f 4//6 2//6 8//6
f 3//7 6//7 8//7
f 6//8 5//8 8//8
f 7//9 1//9 9//9
f 5//10 7//10 9//10
f 4//11 8//11 9//11
f 8//12 5//12 9//12
f 2//13 4//13 10//13
f 7//14 2//14 10//14
f 1//15 7//15 10//15
f 9//16 1//16 11//16
f 4//17 9//17 11//17
f 10//18 4//18 11//18
