# Blender v2.79 (sub 0) OBJ File: ''
# www.blender.org
mtllib 991_link_1_82.mtl
o Shape_IndexedFaceSet.082_Shape_IndexedFaceSet.9372
v -0.076170 0.400686 -0.286854
v 0.024717 0.469462 -0.286854
v 0.024717 0.464876 -0.282260
v -0.094518 0.464876 -0.245580
v 0.030396 0.397410 -0.282915
v -0.011989 0.460291 -0.305203
v -0.097086 0.399205 -0.244295
v -0.094518 0.460291 -0.273109
v 0.015532 0.400686 -0.305203
v -0.057823 0.469462 -0.291441
v 0.020119 0.460291 -0.305203
v -0.057823 0.400686 -0.296028
vn -0.4464 0.0595 -0.8928
vn 0.2124 0.6916 0.6904
vn 0.9931 0.0828 0.0827
vn 0.2940 0.0155 0.9557
vn -0.0289 -0.9984 -0.0489
vn 0.2900 0.0074 0.9570
vn -0.8820 -0.1702 -0.4394
vn -0.9992 0.0389 -0.0065
vn -0.0053 0.9954 0.0953
vn -0.3122 0.9371 -0.1561
vn -0.4586 0.0632 -0.8864
vn 0.9606 0.0609 -0.2711
vn 0.8259 -0.0636 -0.5602
vn 0.0000 0.0000 -1.0000
vn 0.0251 0.8917 -0.4520
vn 0.0000 0.8322 -0.5545
vn -0.0286 -0.9980 -0.0571
vn -0.0168 -0.9908 -0.1344
vn -0.1239 -0.0572 -0.9906
vn -0.2752 0.0640 -0.9592
usemtl Shape.9377
s off
f 1//1 10//1 12//1
f 3//2 2//2 4//2
f 2//3 3//3 5//3
f 3//4 4//4 5//4
f 1//5 5//5 7//5
f 5//6 4//6 7//6
f 1//7 7//7 8//7
f 7//8 4//8 8//8
f 4//9 2//9 10//9
f 8//10 4//10 10//10
f 1//11 8//11 10//11
f 2//12 5//12 11//12
f 5//13 9//13 11//13
f 9//14 6//14 11//14
f 10//15 2//15 11//15
f 6//16 10//16 11//16
f 5//17 1//17 12//17
f 9//18 5//18 12//18
f 6//19 9//19 12//19
f 10//20 6//20 12//20
