# Blender v2.79 (sub 0) OBJ File: ''
# www.blender.org
mtllib 991_link_1_108.mtl
o Shape_IndexedFaceSet.108_Shape_IndexedFaceSet.9398
v 0.038480 -0.044201 0.034191
v 0.078091 0.009662 0.079081
v 0.079746 0.001655 0.080055
v 0.002206 -0.043910 0.079812
v 0.056817 0.010830 0.034191
v 0.001793 -0.025852 0.034191
v 0.001793 -0.025852 0.080055
v 0.079746 0.001655 0.034191
v 0.056817 -0.030442 0.080055
v 0.056817 0.010830 0.080055
vn -0.5547 0.8321 0.0000
vn -0.4222 -0.8442 -0.3303
vn 0.0000 0.0000 -1.0000
vn -0.9997 -0.0229 0.0000
vn 0.9793 0.2024 0.0000
vn 0.3673 0.9179 -0.1502
vn 0.2342 -0.9530 0.1923
vn 0.0000 0.0000 1.0000
vn -0.0011 -0.0135 0.9999
vn 0.7399 -0.6658 -0.0961
vn 0.8137 -0.5813 0.0000
vn 0.0525 0.1313 0.9900
vn 0.0548 0.9985 0.0000
usemtl Shape.9403
s off
f 5//1 7//1 10//1
f 1//2 4//2 6//2
f 5//3 1//3 6//3
f 5//1 6//1 7//1
f 6//4 4//4 7//4
f 2//5 3//5 8//5
f 1//3 5//3 8//3
f 5//6 2//6 8//6
f 4//7 1//7 9//7
f 3//8 7//8 9//8
f 7//9 4//9 9//9
f 1//10 8//10 9//10
f 8//11 3//11 9//11
f 3//12 2//12 10//12
f 2//13 5//13 10//13
f 7//8 3//8 10//8
