# Blender v2.79 (sub 0) OBJ File: ''
# www.blender.org
mtllib 991_link_1_120.mtl
o Shape_IndexedFaceSet.120_Shape_IndexedFaceSet.9410
v 0.064723 -0.053418 0.804092
v -0.011965 -0.057961 0.740496
v -0.025726 -0.057961 0.745085
v 0.061480 -0.057805 0.802526
v -0.063808 -0.053485 0.803160
vn -0.0341 -0.9979 0.0545
vn 0.0006 -1.0000 0.0018
vn 0.6324 -0.2004 -0.7483
vn -0.0067 -0.3318 0.9433
vn -0.0000 0.9975 -0.0712
vn -0.0327 0.9946 -0.0981
usemtl Shape.9415
s off
f 3//1 4//1 5//1
f 3//2 2//2 4//2
f 2//3 1//3 4//3
f 4//4 1//4 5//4
f 1//5 2//5 5//5
f 2//6 3//6 5//6
