# Blender v2.79 (sub 0) OBJ File: ''
# www.blender.org
mtllib 991_link_1_115.mtl
o Shape_IndexedFaceSet.115_Shape_IndexedFaceSet.9405
v 0.130195 -0.681715 -0.332709
v -0.057838 -0.695467 -0.341894
v -0.057838 -0.695467 -0.332709
v -0.065208 -0.651848 -0.306861
v 0.147844 -0.667252 -0.220367
v 0.139714 -0.720130 -0.311254
v 0.072547 -0.656808 -0.324386
v 0.150475 -0.652121 -0.223695
v 0.094483 -0.719045 -0.343088
v -0.003742 -0.656512 -0.337586
v -0.065170 -0.666624 -0.301932
v 0.116407 -0.681715 -0.341894
v 0.154929 -0.686297 -0.246692
v 0.143964 -0.686297 -0.328122
v -0.053235 -0.667957 -0.341894
v 0.136844 -0.656458 -0.278024
v 0.140948 -0.717442 -0.331201
v -0.057838 -0.690879 -0.323535
vn -0.1575 -0.8590 0.4872
vn 0.0273 0.9973 -0.0676
vn -0.1530 -0.9882 0.0000
vn -0.1398 -0.9763 0.1654
vn 0.0223 0.9941 -0.1064
vn -0.9692 -0.2464 0.0000
vn -0.9882 -0.0508 -0.1446
vn -0.3433 0.2964 0.8912
vn -0.3448 0.2584 0.9024
vn 0.2990 0.8421 -0.4489
vn 0.1233 0.7068 -0.6966
vn 0.9424 -0.0932 0.3211
vn 0.9681 0.2139 -0.1304
vn 0.4260 0.6400 -0.6395
vn -0.9116 0.1525 -0.3817
vn -0.0076 0.0013 -1.0000
vn -0.1623 0.8743 -0.4575
vn 0.0025 0.0305 -0.9995
vn 0.0218 0.2684 -0.9631
vn 0.3052 0.8499 -0.4296
vn 0.0632 0.9935 -0.0952
vn 0.7720 0.5883 -0.2407
vn 0.4099 0.8081 -0.4231
vn 0.0672 -0.9893 -0.1292
vn 0.2499 -0.1160 -0.9613
vn 0.9114 -0.4116 0.0009
vn 0.9877 -0.0825 -0.1330
vn 0.4525 0.0442 -0.8907
vn -0.1582 -0.8831 0.4416
vn -0.8539 -0.4655 0.2328
vn -0.2623 -0.6848 0.6799
vn -0.1790 -0.8194 0.5446
usemtl Shape.9410
s off
f 6//1 13//1 18//1
f 7//2 4//2 8//2
f 3//3 2//3 9//3
f 6//4 3//4 9//4
f 4//5 7//5 10//5
f 2//6 3//6 11//6
f 4//7 2//7 11//7
f 8//8 4//8 11//8
f 5//9 8//9 11//9
f 7//10 1//10 12//10
f 10//11 7//11 12//11
f 8//12 5//12 13//12
f 8//13 13//13 14//13
f 12//14 1//14 14//14
f 2//15 4//15 15//15
f 9//16 2//16 15//16
f 4//17 10//17 15//17
f 12//18 9//18 15//18
f 10//19 12//19 15//19
f 1//20 7//20 16//20
f 7//21 8//21 16//21
f 8//22 14//22 16//22
f 14//23 1//23 16//23
f 6//24 9//24 17//24
f 9//25 12//25 17//25
f 13//26 6//26 17//26
f 14//27 13//27 17//27
f 12//28 14//28 17//28
f 3//29 6//29 18//29
f 11//30 3//30 18//30
f 5//31 11//31 18//31
f 13//32 5//32 18//32
