# Blender v2.79 (sub 0) OBJ File: ''
# www.blender.org
mtllib 991_link_1_39.mtl
o Shape_IndexedFaceSet.039_Shape_IndexedFaceSet.9329
v 0.088935 -0.415730 -0.323541
v 0.122772 -0.656843 -0.262051
v 0.116439 -0.649567 -0.263938
v 0.075175 -0.654167 -0.328128
v 0.061408 -0.397379 -0.309784
v 0.121020 -0.397379 -0.300608
v 0.116439 -0.397379 -0.268519
v 0.060177 -0.659472 -0.305575
v 0.121020 -0.654167 -0.296033
v 0.061939 -0.399665 -0.327557
v 0.062211 -0.650710 -0.327264
v 0.121020 -0.576188 -0.300608
v 0.121020 -0.397379 -0.268519
vn 0.0000 1.0000 0.0000
vn -0.2670 0.0175 0.9635
vn -0.5428 -0.2658 0.7967
vn -0.5965 0.0146 0.8025
vn -0.5998 0.0157 0.8000
vn 0.0995 -0.9916 -0.0832
vn 0.1103 -0.9813 -0.1575
vn 0.1531 0.0102 -0.9882
vn 0.0195 0.9917 -0.1270
vn 0.3662 0.4061 -0.8373
vn -0.9995 0.0042 -0.0304
vn -0.9956 -0.0012 -0.0938
vn -0.2618 -0.8861 -0.3825
vn -0.0668 -0.0012 -0.9978
vn 0.5326 -0.0145 -0.8463
vn 0.9990 0.0000 -0.0454
vn 0.5815 0.0000 -0.8136
vn 0.5728 -0.0480 -0.8183
vn 0.9987 -0.0030 -0.0517
vn 1.0000 0.0068 0.0000
vn 0.0000 0.0249 0.9997
usemtl Shape.9334
s off
f 6//1 7//1 13//1
f 3//2 2//2 7//2
f 6//1 5//1 7//1
f 2//3 3//3 8//3
f 3//4 7//4 8//4
f 7//5 5//5 8//5
f 2//6 8//6 9//6
f 8//7 4//7 9//7
f 1//8 4//8 10//8
f 5//9 6//9 10//9
f 6//10 1//10 10//10
f 8//11 5//11 10//11
f 8//12 10//12 11//12
f 4//13 8//13 11//13
f 10//14 4//14 11//14
f 4//15 1//15 12//15
f 6//16 2//16 12//16
f 1//17 6//17 12//17
f 9//18 4//18 12//18
f 2//19 9//19 12//19
f 2//20 6//20 13//20
f 7//21 2//21 13//21
