# Blender v2.79 (sub 0) OBJ File: ''
# www.blender.org
mtllib 991_link_1_96.mtl
o Shape_IndexedFaceSet.096_Shape_IndexedFaceSet.9386
v 0.069027 -0.058147 0.822304
v -0.057813 -0.062547 0.790951
v -0.053774 -0.058122 0.792567
v -0.073535 -0.058041 0.836008
v 0.072734 -0.062473 0.836073
vn -0.0302 -0.9956 0.0890
vn 0.2331 0.1387 -0.9625
vn -0.6490 0.7007 -0.2965
vn 0.0006 1.0000 -0.0016
vn 0.0288 0.9558 0.2925
vn 0.1130 -0.9388 -0.3254
usemtl Shape.9391
s off
f 4//1 2//1 5//1
f 1//2 2//2 3//2
f 3//3 2//3 4//3
f 1//4 3//4 4//4
f 1//5 4//5 5//5
f 2//6 1//6 5//6
