# Blender v2.79 (sub 0) OBJ File: ''
# www.blender.org
mtllib 991_link_1_59.mtl
o Shape_IndexedFaceSet.059_Shape_IndexedFaceSet.9349
v -0.080770 -0.062547 0.923941
v -0.085356 -0.080891 0.873514
v -0.085356 -0.076303 0.868928
v -0.080770 -0.080891 0.873514
v -0.085356 -0.080891 0.933125
vn 0.0000 -1.0000 0.0000
vn 0.0000 -0.7070 -0.7073
vn 0.7885 0.5780 -0.2103
vn 0.9756 -0.2063 0.0751
vn -0.9678 0.2509 0.0179
vn -1.0000 0.0000 0.0000
usemtl Shape.9354
s off
f 2//1 4//1 5//1
f 2//2 3//2 4//2
f 3//3 1//3 4//3
f 4//4 1//4 5//4
f 1//5 3//5 5//5
f 3//6 2//6 5//6
