# Blender v2.79 (sub 0) OBJ File: ''
# www.blender.org
mtllib 991_link_1_55.mtl
o Shape_IndexedFaceSet.055_Shape_IndexedFaceSet.9345
v -0.021153 -0.113006 1.024853
v -0.030317 -0.204716 0.901020
v -0.003687 -0.202748 0.903679
v -0.040801 -0.163811 0.895940
v -0.002801 -0.122182 0.960646
v -0.044739 -0.111539 0.988956
v -0.044079 -0.195541 0.928548
v -0.002801 -0.131357 1.015677
v -0.044079 -0.126770 1.015677
v -0.002801 -0.177199 0.901020
v -0.002801 -0.204716 0.914802
vn 0.9953 -0.0436 -0.0870
vn 0.1906 0.9780 -0.0853
vn -0.1117 0.8643 -0.4904
vn -0.8937 -0.2732 -0.3557
vn -0.9973 0.0378 -0.0635
vn 0.7301 0.6740 0.1124
vn -0.0869 -0.7820 0.6172
vn -0.5846 0.6986 0.4126
vn -0.9997 -0.0182 0.0143
vn -0.0544 -0.4896 0.8703
vn 0.1066 -0.1066 -0.9886
vn 0.0979 -0.0979 -0.9904
vn 0.3300 0.6938 -0.6401
vn 1.0000 0.0000 -0.0000
vn 0.0904 -0.9794 -0.1805
vn -0.1279 -0.9583 0.2554
vn 0.0161 -0.8086 0.5881
usemtl Shape.9350
s off
f 3//1 10//1 11//1
f 1//2 5//2 6//2
f 5//3 4//3 6//3
f 4//4 2//4 7//4
f 6//5 4//5 7//5
f 5//6 1//6 8//6
f 7//7 8//7 9//7
f 1//8 6//8 9//8
f 6//9 7//9 9//9
f 8//10 1//10 9//10
f 3//11 2//11 10//11
f 2//12 4//12 10//12
f 4//13 5//13 10//13
f 5//14 8//14 10//14
f 10//14 8//14 11//14
f 2//15 3//15 11//15
f 7//16 2//16 11//16
f 8//17 7//17 11//17
