# Blender v2.79 (sub 0) OBJ File: ''
# www.blender.org
mtllib 991_link_1_92.mtl
o Shape_IndexedFaceSet.092_Shape_IndexedFaceSet.9382
v 0.153131 0.451124 -0.167620
v 0.102691 0.396100 -0.236407
v 0.102691 0.464879 -0.236407
v 0.130200 0.396100 -0.153862
v 0.139370 0.396100 -0.222632
v 0.134787 0.469475 -0.149274
v 0.125622 0.464879 -0.236407
v 0.153131 0.396100 -0.149274
v 0.139370 0.464879 -0.218052
vn 0.0815 0.9948 -0.0610
vn -0.9487 0.0000 0.3162
vn 0.0000 -1.0000 0.0000
vn -0.9383 0.0372 0.3437
vn 0.0000 0.0000 -1.0000
vn 0.3492 -0.1164 -0.9298
vn 0.0000 0.9986 -0.0527
vn 0.9810 -0.0614 -0.1840
vn 0.7845 0.1961 0.5883
vn -0.1960 -0.0490 0.9794
vn 0.9658 0.0172 -0.2588
vn 0.7072 0.7070 -0.0001
vn 0.7997 0.0399 -0.5990
usemtl Shape.9387
s off
f 7//1 6//1 9//1
f 3//2 2//2 4//2
f 4//3 2//3 5//3
f 3//4 4//4 6//4
f 2//5 3//5 7//5
f 5//6 2//6 7//6
f 3//7 6//7 7//7
f 5//8 1//8 8//8
f 4//3 5//3 8//3
f 1//9 6//9 8//9
f 6//10 4//10 8//10
f 1//11 5//11 9//11
f 6//12 1//12 9//12
f 5//13 7//13 9//13
