# Blender v2.79 (sub 0) OBJ File: ''
# www.blender.org
mtllib 991_link_1_20.mtl
o Shape_IndexedFaceSet.020_Shape_IndexedFaceSet.9310
v 0.097335 -0.737880 0.040716
v 0.012845 -0.675120 0.042810
v -0.122048 -0.736737 0.043371
v 0.012749 -0.726580 0.075878
v -0.089926 -0.690892 0.061707
v 0.079750 -0.686303 0.061707
v -0.103671 -0.681720 0.038777
v 0.093496 -0.677131 0.038777
v -0.053246 -0.736737 0.070879
v 0.093496 -0.736737 0.061707
v -0.048664 -0.690892 0.070879
v 0.125618 -0.700064 0.043371
v -0.089926 -0.741327 0.057125
v 0.056817 -0.695475 0.070879
v -0.114363 -0.734746 0.040058
v -0.057828 -0.677131 0.052543
vn -0.1419 0.7564 0.6386
vn -0.7596 0.3018 0.5761
vn 0.0426 0.9186 0.3929
vn -0.0168 0.7198 -0.6940
vn 0.0464 -0.6675 0.7431
vn -0.0767 0.0077 0.9970
vn -0.2169 0.0217 0.9759
vn 0.1249 -0.0238 -0.9919
vn 0.4334 0.7166 0.5465
vn 0.3968 0.1082 0.9115
vn 0.7824 -0.5975 0.1756
vn -0.0086 -0.9544 -0.2984
vn -0.4022 -0.0828 0.9118
vn -0.3405 -0.0851 0.9364
vn 0.0235 -0.9980 0.0586
vn 0.0172 -0.9613 0.2750
vn 0.1634 -0.0734 0.9838
vn 0.3378 0.0921 0.9367
vn 0.0291 0.6695 0.7422
vn 0.0065 0.1497 0.9887
vn -0.0109 -0.8457 -0.5335
vn -0.4083 0.0603 -0.9109
vn 0.0026 -0.0317 -0.9995
vn 0.0006 -0.0243 -0.9997
vn 0.0323 0.9061 0.4218
vn -0.0503 0.9856 -0.1612
vn -0.2280 0.8492 0.4764
vn 0.0139 0.8030 0.5958
usemtl Shape.9315
s off
f 5//1 11//1 16//1
f 3//2 5//2 7//2
f 2//3 6//3 8//3
f 7//4 2//4 8//4
f 4//5 9//5 10//5
f 9//6 4//6 11//6
f 5//7 9//7 11//7
f 1//8 8//8 12//8
f 8//9 6//9 12//9
f 6//10 10//10 12//10
f 10//11 1//11 12//11
f 3//12 1//12 13//12
f 5//13 3//13 13//13
f 9//14 5//14 13//14
f 1//15 10//15 13//15
f 10//16 9//16 13//16
f 4//17 10//17 14//17
f 10//18 6//18 14//18
f 6//19 11//19 14//19
f 11//20 4//20 14//20
f 1//21 3//21 15//21
f 3//22 7//22 15//22
f 8//23 1//23 15//23
f 7//24 8//24 15//24
f 6//25 2//25 16//25
f 2//26 7//26 16//26
f 7//27 5//27 16//27
f 11//28 6//28 16//28
