# Blender v2.79 (sub 0) OBJ File: ''
# www.blender.org
mtllib 991_link_1_35.mtl
o Shape_IndexedFaceSet.035_Shape_IndexedFaceSet.9325
v 0.024723 -0.021268 0.667131
v 0.088927 0.006249 0.841380
v 0.088927 -0.021268 0.841380
v 0.084327 0.010831 0.667131
v 0.061488 0.024903 0.842444
v 0.065984 0.024595 0.667131
v 0.061404 -0.025856 0.667131
v 0.061404 -0.025856 0.841380
v 0.017168 -0.028028 0.699480
v 0.088927 0.024595 0.813848
v 0.084327 -0.025856 0.813848
v 0.020131 -0.021268 0.680897
vn -0.8637 -0.4134 -0.2881
vn 0.0387 0.0000 0.9992
vn -0.0000 0.0000 -1.0000
vn 0.0035 -0.0210 0.9998
vn -0.1208 -0.9657 -0.2300
vn -0.9547 -0.0047 0.2977
vn 1.0000 0.0000 0.0000
vn 0.9994 -0.0178 -0.0297
vn 0.5064 0.7176 0.4782
vn 0.0097 1.0000 -0.0015
vn 0.5976 0.7964 -0.0934
vn 0.9242 -0.3706 -0.0927
vn 0.8407 -0.5253 -0.1314
vn 0.1629 -0.9773 0.1356
vn 0.0440 -0.9990 -0.0069
vn 0.0134 -0.9998 0.0111
vn -0.7100 0.7040 -0.0194
vn -0.7216 0.6492 -0.2407
vn -0.8408 0.5378 0.0616
usemtl Shape.9330
s off
f 1//1 9//1 12//1
f 3//2 2//2 5//2
f 4//3 1//3 6//3
f 1//3 4//3 7//3
f 3//4 5//4 8//4
f 1//5 7//5 9//5
f 8//6 5//6 9//6
f 2//7 3//7 10//7
f 3//8 4//8 10//8
f 5//9 2//9 10//9
f 6//10 5//10 10//10
f 4//11 6//11 10//11
f 4//12 3//12 11//12
f 7//13 4//13 11//13
f 3//14 8//14 11//14
f 9//15 7//15 11//15
f 8//16 9//16 11//16
f 5//17 6//17 12//17
f 6//18 1//18 12//18
f 9//19 5//19 12//19
