# Blender v2.79 (sub 0) OBJ File: ''
# www.blender.org
mtllib 991_link_1_114.mtl
o Shape_IndexedFaceSet.114_Shape_IndexedFaceSet.9404
v -0.165091 -0.716338 -0.313485
v -0.057838 -0.654193 -0.300584
v -0.161855 -0.651270 -0.116521
v -0.171351 -0.657681 -0.223910
v -0.197409 -0.696373 -0.115694
v -0.057838 -0.695467 -0.328096
v -0.122062 -0.681715 -0.337273
v -0.093322 -0.719714 -0.341488
v -0.191923 -0.718923 -0.241093
v -0.161631 -0.671376 -0.117223
v -0.185084 -0.694673 -0.278080
v -0.058808 -0.654661 -0.326724
v -0.182685 -0.656040 -0.132535
v -0.167891 -0.681715 -0.300584
v -0.130517 -0.657451 -0.285610
v -0.051794 -0.666290 -0.306626
v -0.056157 -0.695699 -0.344597
v -0.177082 -0.690879 -0.126333
vn 0.6269 -0.6769 0.3859
vn -0.3650 -0.1746 -0.9145
vn -0.0710 -0.9956 -0.0619
vn 0.1772 -0.9673 0.1817
vn 0.0664 -0.0341 0.9972
vn -0.8998 -0.2696 -0.3431
vn -0.9834 0.1661 -0.0729
vn -0.0034 0.9998 -0.0178
vn -0.1926 0.9804 -0.0415
vn -0.6002 0.4848 0.6363
vn -0.8637 0.4904 -0.1159
vn -0.9460 0.3168 -0.0685
vn -0.6077 0.2337 -0.7590
vn -0.7575 0.6124 -0.2261
vn -0.8238 0.1382 -0.5498
vn -0.0841 0.9951 -0.0520
vn -0.0668 0.9966 -0.0488
vn -0.2883 0.8477 -0.4453
vn -0.3557 0.8222 -0.4444
vn -0.4382 0.8519 -0.2868
vn 0.8564 0.1876 0.4810
vn 0.8651 -0.0079 0.5015
vn 0.7662 -0.4762 0.4315
vn 0.8854 0.4629 -0.0411
vn 0.9570 0.1656 -0.2382
vn 0.5455 -0.8354 0.0673
vn -0.1037 0.0318 -0.9941
vn -0.0174 0.3983 -0.9171
vn 0.9567 -0.2727 0.1013
vn 0.3789 -0.8863 0.2663
vn 0.4620 -0.8374 0.2921
vn 0.4819 -0.6541 0.5830
usemtl Shape.9409
s off
f 6//1 10//1 18//1
f 1//2 7//2 8//2
f 1//3 8//3 9//3
f 8//4 5//4 9//4
f 3//5 5//5 10//5
f 1//6 9//6 11//6
f 9//7 5//7 11//7
f 3//8 2//8 12//8
f 3//9 4//9 13//9
f 5//10 3//10 13//10
f 4//11 11//11 13//11
f 11//12 5//12 13//12
f 7//13 1//13 14//13
f 11//14 4//14 14//14
f 1//15 11//15 14//15
f 4//16 3//16 15//16
f 3//17 12//17 15//17
f 12//18 7//18 15//18
f 7//19 14//19 15//19
f 14//20 4//20 15//20
f 2//21 3//21 16//21
f 3//22 10//22 16//22
f 10//23 6//23 16//23
f 12//24 2//24 16//24
f 12//25 16//25 17//25
f 6//26 8//26 17//26
f 8//27 7//27 17//27
f 7//28 12//28 17//28
f 16//29 6//29 17//29
f 5//30 8//30 18//30
f 8//31 6//31 18//31
f 10//32 5//32 18//32
