# Blender v2.79 (sub 0) OBJ File: ''
# www.blender.org
mtllib 991_link_1_85.mtl
o Shape_IndexedFaceSet.085_Shape_IndexedFaceSet.9375
v -0.149332 0.364977 -0.047005
v -0.145804 0.365701 -0.041850
v 0.024717 0.368575 -0.002502
v 0.024717 0.400679 -0.025426
v -0.080738 0.391507 0.002086
v -0.112867 0.400679 -0.048364
v -0.062184 0.361910 0.004944
v -0.085343 0.373161 -0.048364
v 0.024717 0.396093 0.002086
v -0.131198 0.377747 -0.016260
v -0.034918 0.400679 -0.002502
v 0.024717 0.382334 -0.025426
vn 0.2040 0.0000 -0.9790
vn -0.1900 -0.9459 0.2629
vn 0.0617 -0.9849 -0.1616
vn 0.1109 -0.9268 -0.3588
vn 0.1623 0.1623 -0.9733
vn -0.0188 -0.0188 -0.9996
vn 1.0000 -0.0000 0.0000
vn 0.0967 -0.1637 0.9818
vn -0.0041 0.0936 0.9956
vn -0.7773 -0.2674 0.5695
vn -0.3715 0.8426 0.3898
vn -0.6930 0.7121 0.1130
vn -0.3441 -0.7585 0.5534
vn -0.3142 -0.1058 0.9435
vn 0.0000 1.0000 0.0000
vn -0.1621 0.9475 0.2755
vn 0.0631 0.9844 0.1641
vn -0.0234 0.5383 0.8424
vn 0.1759 -0.8440 -0.5066
usemtl Shape.9380
s off
f 8//1 4//1 12//1
f 2//2 1//2 7//2
f 1//3 3//3 7//3
f 3//4 1//4 8//4
f 6//5 4//5 8//5
f 1//6 6//6 8//6
f 3//7 4//7 9//7
f 7//8 3//8 9//8
f 5//9 7//9 9//9
f 1//10 2//10 10//10
f 5//11 6//11 10//11
f 6//12 1//12 10//12
f 2//13 7//13 10//13
f 7//14 5//14 10//14
f 4//15 6//15 11//15
f 6//16 5//16 11//16
f 9//17 4//17 11//17
f 5//18 9//18 11//18
f 4//7 3//7 12//7
f 3//19 8//19 12//19
