# Blender v2.79 (sub 0) OBJ File: ''
# www.blender.org
mtllib 991_link_0_4.mtl
o Shape_IndexedFaceSet.004_Shape_IndexedFaceSet.8737
v -0.054999 0.771764 -0.062390
v 0.053469 0.791715 0.325812
v 0.050613 0.797427 0.325812
v -0.049287 0.751772 0.325812
v 0.024919 0.723221 -0.059464
v 0.010638 0.828833 -0.059464
v -0.032161 0.820265 0.325812
v 0.019206 0.723221 0.325812
v 0.053469 0.760340 -0.062390
v -0.029305 0.726077 -0.059464
v -0.035017 0.817409 -0.062390
v 0.013494 0.828833 0.325812
v 0.044901 0.808841 -0.062390
v 0.044901 0.743203 0.325812
v -0.052143 0.794571 0.325812
v -0.020737 0.723221 0.320036
v -0.012179 0.720365 -0.062390
v -0.009323 0.828833 -0.062390
v 0.036343 0.817409 0.325812
v -0.046431 0.805984 -0.062390
v -0.046431 0.743214 -0.059464
v -0.035017 0.731790 0.325812
v -0.012179 0.828833 0.325812
v 0.053469 0.786002 -0.062390
v 0.053469 0.766052 0.325812
v 0.027775 0.823111 -0.062390
v 0.039188 0.734646 -0.062390
v 0.007793 0.720365 0.325812
v -0.054999 0.771764 0.274361
v 0.027775 0.726088 0.317225
v -0.020737 0.825977 -0.062390
v -0.052143 0.794571 -0.062390
v 0.016350 0.720365 -0.059464
v -0.046431 0.805984 0.325812
v -0.040719 0.814553 -0.022376
v 0.050613 0.751772 0.268699
v -0.049287 0.748916 0.248712
v 0.047757 0.746070 -0.062390
v -0.052143 0.757484 -0.062390
v 0.044901 0.808841 0.325812
v -0.054999 0.780301 0.274361
v -0.006467 0.720365 0.317225
v -0.043575 0.740358 0.325812
v 0.050613 0.797427 -0.062390
v 0.022062 0.825977 0.325812
v 0.036343 0.817409 -0.062390
v 0.022062 0.825977 -0.059464
v 0.022062 0.723221 0.317225
v -0.054999 0.780301 -0.062390
v -0.052143 0.760340 0.325812
v -0.020737 0.825977 0.325812
v -0.023593 0.723221 -0.059464
vn -0.2423 -0.9702 0.0018
vn 0.0000 0.0000 1.0000
vn 0.0000 0.0000 -1.0000
vn 0.0000 1.0000 -0.0000
vn -0.5130 -0.8584 0.0051
vn -0.7073 -0.7069 -0.0000
vn 1.0000 0.0000 0.0000
vn 0.1057 0.6850 -0.7208
vn -0.2018 -0.7560 0.6227
vn 0.5796 -0.7453 0.3295
vn 0.6252 -0.7805 0.0012
vn 0.7056 -0.7086 0.0052
vn -0.2427 0.9701 -0.0018
vn -0.8943 0.4476 0.0000
vn 0.1327 -0.3982 -0.9076
vn 0.0958 -0.3445 -0.9339
vn 0.0000 -1.0000 0.0000
vn -0.8321 0.5547 0.0000
vn -0.7066 0.7059 -0.0503
vn -0.4993 0.8665 -0.0019
vn -0.5145 0.8574 -0.0121
vn -0.7074 0.7068 0.0058
vn 0.9782 -0.2079 0.0031
vn 0.9355 -0.3508 0.0409
vn 0.8000 -0.6000 0.0015
vn 0.9284 -0.3716 -0.0016
vn 0.8386 -0.5447 0.0021
vn -0.2482 -0.2672 -0.9311
vn -0.3081 -0.3079 -0.9002
vn -0.9806 -0.1961 0.0000
vn -0.9283 -0.3719 -0.0017
vn 0.8943 0.4475 0.0000
vn 0.7075 0.7067 0.0000
vn -1.0000 0.0000 0.0000
vn -0.9985 0.0000 0.0554
vn -0.9806 0.1962 0.0000
vn -0.1957 -0.9807 0.0029
vn -0.1447 -0.9598 0.2404
vn -0.7075 -0.7067 0.0000
vn -0.8409 -0.5412 0.0022
vn -0.8941 -0.4475 0.0166
vn 0.8944 0.4472 0.0000
vn 0.9701 0.2425 -0.0036
vn 0.5145 0.8575 0.0012
vn 0.5540 0.8325 0.0000
vn 0.2425 0.9701 -0.0018
vn 0.2189 0.8757 -0.4303
vn 0.3162 0.9487 0.0000
vn 0.4484 0.8938 0.0000
vn 0.2420 -0.9669 0.0805
vn 0.4485 -0.8938 0.0034
vn 0.4436 -0.8840 0.1475
vn 0.3162 -0.9487 0.0024
vn 0.1988 -0.9800 0.0044
vn -0.9486 -0.3162 0.0117
vn -0.9719 -0.2352 0.0017
vn -0.9671 -0.2544 0.0019
vn -0.4472 0.8944 0.0000
vn -0.3166 0.9486 0.0000
vn -0.4472 -0.8944 0.0034
vn -0.3372 -0.6743 -0.6570
usemtl Shape.8743
s off
f 17//1 16//1 52//1
f 2//2 3//2 4//2
f 4//2 3//2 7//2
f 2//2 4//2 8//2
f 9//3 1//3 11//3
f 7//2 3//2 12//2
f 9//3 11//3 13//3
f 2//2 8//2 14//2
f 4//2 7//2 15//2
f 1//3 9//3 17//3
f 12//4 6//4 18//4
f 13//3 11//3 18//3
f 12//2 3//2 19//2
f 11//3 1//3 20//3
f 8//2 4//2 22//2
f 10//5 16//5 22//5
f 21//6 10//6 22//6
f 7//2 12//2 23//2
f 12//4 18//4 23//4
f 2//7 9//7 24//7
f 9//3 13//3 24//3
f 9//7 2//7 25//7
f 2//2 14//2 25//2
f 18//8 6//8 26//8
f 13//3 18//3 26//3
f 17//3 9//3 27//3
f 8//2 22//2 28//2
f 22//9 16//9 28//9
f 14//10 8//10 30//10
f 5//11 27//11 30//11
f 27//12 14//12 30//12
f 18//3 11//3 31//3
f 23//13 18//13 31//13
f 20//3 1//3 32//3
f 15//14 20//14 32//14
f 27//15 5//15 33//15
f 17//16 27//16 33//16
f 28//17 17//17 33//17
f 15//2 7//2 34//2
f 20//14 15//14 34//14
f 20//18 34//18 35//18
f 11//19 20//19 35//19
f 7//20 31//20 35//20
f 31//21 11//21 35//21
f 34//22 7//22 35//22
f 9//23 25//23 36//23
f 25//24 14//24 36//24
f 14//25 27//25 38//25
f 27//3 9//3 38//3
f 9//26 36//26 38//26
f 36//27 14//27 38//27
f 17//28 10//28 39//28
f 1//3 17//3 39//3
f 10//29 21//29 39//29
f 29//30 1//30 39//30
f 21//31 37//31 39//31
f 3//32 13//32 40//32
f 19//2 3//2 40//2
f 13//33 19//33 40//33
f 1//34 29//34 41//34
f 29//35 15//35 41//35
f 15//36 32//36 41//36
f 16//37 17//37 42//37
f 28//38 16//38 42//38
f 17//17 28//17 42//17
f 22//2 4//2 43//2
f 21//39 22//39 43//39
f 37//40 21//40 43//40
f 4//41 37//41 43//41
f 3//42 2//42 44//42
f 13//32 3//32 44//32
f 2//43 24//43 44//43
f 24//3 13//3 44//3
f 12//2 19//2 45//2
f 19//44 26//44 45//44
f 19//33 13//33 46//33
f 13//3 26//3 46//3
f 26//45 19//45 46//45
f 6//46 12//46 47//46
f 26//47 6//47 47//47
f 12//48 45//48 47//48
f 45//49 26//49 47//49
f 8//50 28//50 48//50
f 5//51 30//51 48//51
f 30//52 8//52 48//52
f 33//53 5//53 48//53
f 28//54 33//54 48//54
f 32//3 1//3 49//3
f 1//34 41//34 49//34
f 41//36 32//36 49//36
f 4//2 15//2 50//2
f 15//35 29//35 50//35
f 37//55 4//55 50//55
f 29//56 39//56 50//56
f 39//57 37//57 50//57
f 7//2 23//2 51//2
f 31//58 7//58 51//58
f 23//59 31//59 51//59
f 16//60 10//60 52//60
f 10//61 17//61 52//61
