# Blender v2.79 (sub 0) OBJ File: ''
# www.blender.org
mtllib 991_link_1_95.mtl
o Shape_IndexedFaceSet.095_Shape_IndexedFaceSet.9385
v -0.021147 -0.080892 1.006508
v 0.020131 -0.076306 1.011093
v 0.020131 -0.076306 1.006508
v -0.021147 -0.076306 1.011093
v 0.020131 -0.080892 1.011093
vn 0.0000 0.0000 1.0000
vn 0.0000 1.0000 0.0000
vn -0.0783 0.7049 -0.7050
vn -0.0783 -0.7049 0.7050
vn 0.0783 -0.7049 -0.7050
vn 1.0000 0.0000 0.0000
usemtl Shape.9390
s off
f 2//1 4//1 5//1
f 2//2 3//2 4//2
f 3//3 1//3 4//3
f 4//4 1//4 5//4
f 1//5 3//5 5//5
f 3//6 2//6 5//6
