# Blender v2.79 (sub 0) OBJ File: ''
# www.blender.org
mtllib 991_link_1_33.mtl
o Shape_IndexedFaceSet.033_Shape_IndexedFaceSet.9323
v -0.048673 0.097972 0.800103
v -0.084443 0.049049 0.672029
v -0.085356 0.065877 0.667157
v -0.044079 0.088800 0.667157
v -0.048673 0.047527 0.887261
v -0.080766 0.052126 0.813850
v -0.062427 0.107137 0.694673
v -0.067009 0.047527 0.667157
v -0.044079 0.047527 0.823029
v -0.044079 0.116323 0.676315
v -0.076180 0.075049 0.790924
v -0.044079 0.056705 0.882650
v -0.067009 0.047527 0.864292
vn -0.5923 0.7070 0.3864
vn -0.9986 -0.0464 0.0269
vn -0.2810 -0.2809 -0.9177
vn -0.0000 0.0000 -1.0000
vn 0.0000 -1.0000 0.0000
vn 0.8670 -0.4817 -0.1275
vn 1.0000 0.0000 0.0000
vn -0.1727 0.3110 -0.9346
vn -0.6848 0.6276 -0.3704
vn -0.3409 0.9317 0.1255
vn -0.9675 0.2470 0.0534
vn -0.8822 0.4699 0.0306
vn -0.6620 0.7343 0.1502
vn 0.9050 -0.4205 0.0647
vn 0.9643 0.2544 0.0735
vn -0.4157 -0.9090 0.0305
vn -0.0870 -0.9962 0.0000
vn -0.6667 0.6666 0.3334
vn -0.8534 0.4440 0.2732
vn -0.6389 0.5760 0.5100
usemtl Shape.9328
s off
f 12//1 1//1 13//1
f 3//2 2//2 6//2
f 2//3 3//3 8//3
f 3//4 4//4 8//4
f 5//5 8//5 9//5
f 8//6 4//6 9//6
f 9//7 4//7 10//7
f 4//8 3//8 10//8
f 3//9 7//9 10//9
f 7//10 1//10 10//10
f 3//11 6//11 11//11
f 7//12 3//12 11//12
f 1//13 7//13 11//13
f 5//14 9//14 12//14
f 9//7 10//7 12//7
f 10//15 1//15 12//15
f 6//16 2//16 13//16
f 2//17 8//17 13//17
f 8//5 5//5 13//5
f 1//18 11//18 13//18
f 11//19 6//19 13//19
f 5//20 12//20 13//20
