# Blender v2.79 (sub 0) OBJ File: ''
# www.blender.org
mtllib 103234_link_2_30.mtl
o Shape_IndexedFaceSet.030_Shape_IndexedFaceSet.4784
v 0.111777 -0.096596 0.719131
v 0.127450 -0.221951 0.491940
v 0.136211 -0.222985 0.490145
v 0.002082 -0.221951 0.640777
v 0.002082 -0.073076 0.695619
v 0.135286 -0.221951 0.593830
v 0.135286 -0.073076 0.656468
v -0.004118 -0.228880 0.582705
v 0.002082 -0.073076 0.750487
v 0.135286 -0.080916 0.719131
v 0.127450 -0.214111 0.491940
v 0.088268 -0.221951 0.625111
v 0.072583 -0.080916 0.742642
v 0.002082 -0.198431 0.593830
vn -0.5533 0.3829 -0.7397
vn -0.1765 -0.9285 -0.3268
vn 0.0488 -0.9988 0.0104
vn -0.0000 1.0000 0.0000
vn -0.9896 -0.0854 0.1158
vn -0.9992 0.0398 0.0000
vn 0.9999 -0.0080 0.0090
vn 1.0000 0.0054 0.0007
vn 0.0873 0.9885 0.1237
vn -0.2007 0.0000 -0.9796
vn 0.5253 0.6335 -0.5681
vn -0.1864 0.7503 -0.6343
vn -0.5679 0.0000 -0.8231
vn 0.0211 -0.9930 0.1162
vn 0.0442 -0.9968 0.0665
vn 0.3982 -0.5970 0.6964
vn 0.4453 -0.5947 0.6694
vn 0.0236 -0.5931 0.8048
vn 0.3107 -0.4658 0.8286
vn 0.1442 0.9118 0.3845
vn 0.2126 -0.6115 0.7622
vn 0.1396 -0.6247 0.7683
vn -0.8623 0.3192 -0.3931
vn -0.4833 0.5518 -0.6796
usemtl Shape.4784
s off
f 11//1 8//1 14//1
f 2//2 3//2 8//2
f 3//3 6//3 8//3
f 7//4 5//4 9//4
f 8//5 4//5 9//5
f 5//6 8//6 9//6
f 6//7 3//7 10//7
f 3//8 7//8 10//8
f 7//9 9//9 10//9
f 3//10 2//10 11//10
f 7//11 3//11 11//11
f 5//12 7//12 11//12
f 2//13 8//13 11//13
f 4//14 8//14 12//14
f 8//15 6//15 12//15
f 10//16 1//16 12//16
f 6//17 10//17 12//17
f 9//18 4//18 13//18
f 1//19 10//19 13//19
f 10//20 9//20 13//20
f 12//21 1//21 13//21
f 4//22 12//22 13//22
f 8//23 5//23 14//23
f 5//24 11//24 14//24
