# Blender v2.79 (sub 0) OBJ File: ''
# www.blender.org
mtllib 103234_link_2_24.mtl
o Shape_IndexedFaceSet.024_Shape_IndexedFaceSet.4778
v -0.040460 -0.237623 0.611389
v 0.127173 -0.222906 0.579487
v 0.118892 -0.223017 0.586072
v -0.131123 -0.229787 0.327393
v 0.135286 -0.253294 0.327393
v -0.131123 -0.253294 0.327393
v 0.059469 -0.251980 0.598630
v 0.135286 -0.229787 0.327393
v -0.140541 -0.220843 0.467631
v -0.120666 -0.252063 0.548739
v -0.093244 -0.222957 0.601175
v 0.147669 -0.220495 0.467370
v 0.126449 -0.252254 0.549643
v 0.039088 -0.222817 0.624543
v -0.019549 -0.252050 0.606393
vn 0.0763 -0.6319 0.7712
vn 0.0000 0.0000 -1.0000
vn -0.9978 0.0000 -0.0670
vn -0.8912 -0.4514 0.0446
vn -0.9068 0.2681 0.3254
vn 0.0000 0.9978 -0.0662
vn 0.9961 0.0000 -0.0881
vn -0.0013 0.9980 -0.0637
vn 0.4897 -0.6276 0.6053
vn 0.4468 -0.6502 0.6145
vn 0.9648 -0.1988 0.1721
vn 0.8725 -0.4872 0.0370
vn 0.0270 0.9983 0.0507
vn 0.3878 -0.4458 0.8068
vn -0.0041 0.9998 0.0173
vn -0.1736 0.0596 0.9830
vn 0.0132 0.9996 0.0239
vn -0.0012 0.9999 0.0139
vn 0.0000 -1.0000 0.0045
vn -0.0031 -1.0000 0.0057
vn -0.3333 -0.7395 0.5848
vn -0.3173 -0.6865 0.6542
vn 0.0004 -1.0000 0.0047
vn 0.0017 -1.0000 0.0079
vn -0.0720 -0.4179 0.9056
usemtl Shape.4778
s off
f 7//1 14//1 15//1
f 4//2 5//2 6//2
f 5//2 4//2 8//2
f 4//3 6//3 9//3
f 9//4 6//4 10//4
f 9//5 10//5 11//5
f 8//6 4//6 12//6
f 5//7 8//7 12//7
f 4//8 9//8 12//8
f 2//9 3//9 13//9
f 3//10 7//10 13//10
f 12//11 2//11 13//11
f 5//12 12//12 13//12
f 3//13 2//13 14//13
f 7//14 3//14 14//14
f 9//15 11//15 14//15
f 11//16 1//16 14//16
f 2//17 12//17 14//17
f 12//18 9//18 14//18
f 6//19 5//19 15//19
f 10//20 6//20 15//20
f 11//21 10//21 15//21
f 1//22 11//22 15//22
f 5//23 13//23 15//23
f 13//24 7//24 15//24
f 14//25 1//25 15//25
