# Blender v2.79 (sub 0) OBJ File: ''
# www.blender.org
mtllib 103234_link_2_17.mtl
o Shape_IndexedFaceSet.017_Shape_IndexedFaceSet.4771
v 0.221463 -0.073076 0.664259
v 0.135286 -0.253294 0.327431
v 0.135286 -0.229779 0.327431
v 0.135286 -0.080926 0.719132
v 0.143136 -0.253294 0.546730
v 0.230295 -0.143191 0.323301
v 0.229304 -0.206263 0.413632
v 0.135286 -0.073076 0.648614
v 0.197958 -0.253294 0.327431
v 0.229304 -0.073076 0.546730
v 0.229304 -0.143604 0.570236
v 0.182295 -0.253294 0.460644
v 0.135286 -0.237611 0.570236
v 0.229304 -0.080926 0.656437
v 0.221463 -0.143604 0.327431
v 0.229304 -0.214114 0.327431
v 0.143136 -0.135771 0.672120
vn 0.4686 -0.5353 0.7027
vn -1.0000 0.0000 -0.0000
vn -0.0434 0.0000 -0.9991
vn -0.0201 0.9937 0.1106
vn 0.0000 -1.0000 0.0000
vn 0.0000 -0.0375 -0.9993
vn 0.0000 1.0000 0.0000
vn 0.9999 -0.0100 0.0040
vn 0.7471 -0.6589 0.0878
vn 0.7095 -0.6265 0.3227
vn 0.7927 -0.5660 0.2265
vn -0.8742 -0.4845 0.0313
vn 0.5077 -0.6287 0.5890
vn 0.5350 -0.2650 0.8022
vn 0.7305 0.6811 0.0487
vn 0.9999 0.0115 0.0008
vn 0.6560 -0.6104 0.4439
vn 1.0000 -0.0055 0.0040
vn -0.4031 0.4031 -0.8216
vn -0.6684 0.6685 -0.3261
vn -0.1819 0.9380 -0.2952
vn -0.3052 0.9097 -0.2816
vn 0.9999 -0.0139 0.0013
vn 0.0737 -0.0590 -0.9955
vn 0.7796 -0.6237 0.0568
vn -0.4265 -0.6231 0.6557
vn 0.5074 -0.6287 0.5893
usemtl Shape.4771
s off
f 14//1 4//1 17//1
f 3//2 2//2 4//2
f 2//3 3//3 6//3
f 3//2 4//2 8//2
f 4//4 1//4 8//4
f 5//5 2//5 9//5
f 2//6 6//6 9//6
f 8//7 1//7 10//7
f 7//8 6//8 11//8
f 5//5 9//5 12//5
f 9//9 7//9 12//9
f 11//10 5//10 12//10
f 7//11 11//11 12//11
f 4//2 2//2 13//2
f 2//12 5//12 13//12
f 13//13 5//13 14//13
f 1//14 4//14 14//14
f 10//15 1//15 14//15
f 6//16 10//16 14//16
f 5//17 11//17 14//17
f 11//18 6//18 14//18
f 6//19 3//19 15//19
f 3//20 8//20 15//20
f 10//21 6//21 15//21
f 8//22 10//22 15//22
f 6//23 7//23 16//23
f 9//24 6//24 16//24
f 7//25 9//25 16//25
f 4//26 13//26 17//26
f 13//27 14//27 17//27
