# Blender v2.79 (sub 0) OBJ File: ''
# www.blender.org
mtllib 103234_link_2_6.mtl
o Shape_IndexedFaceSet.006_Shape_IndexedFaceSet.4760
v 0.335882 0.104022 -0.220396
v -0.295620 0.060110 -0.542293
v -0.313803 -0.000517 -0.150935
v 0.293572 0.001003 -0.360992
v -0.374136 0.105965 -0.239012
v 0.313115 0.105278 -0.543729
v 0.321517 -0.001058 -0.148767
v -0.279974 -0.010392 -0.362077
v -0.325434 0.075017 -0.148488
v 0.331124 0.060110 -0.534476
v -0.302026 0.105409 -0.544183
v 0.326315 0.082304 -0.150458
v 0.385931 0.105952 -0.246733
v -0.369663 0.074912 -0.316171
v 0.385960 0.060110 -0.244672
v 0.307579 0.052287 -0.526620
v -0.288701 0.087385 -0.162090
v -0.319088 0.060110 -0.534476
v 0.281748 -0.004079 -0.164699
v -0.327713 0.105904 -0.522826
v 0.277233 -0.004554 -0.332407
v -0.279195 -0.004377 -0.163665
v 0.338535 0.105738 -0.507019
v 0.315401 0.060110 -0.542293
v -0.357436 0.105747 -0.224119
v 0.304808 0.088015 -0.159111
v 0.383260 0.097918 -0.308383
v 0.330822 0.006329 -0.147733
v -0.272075 0.052287 -0.526620
v -0.381096 0.098184 -0.262186
v -0.323417 0.006747 -0.157260
v 0.307735 -0.000077 -0.294309
v -0.295679 -0.000013 -0.346485
v 0.261766 -0.002891 -0.353271
vn 0.0153 -0.9958 -0.0907
vn 0.1268 0.9423 0.3099
vn 0.2207 -0.9368 -0.2714
vn -0.0064 0.7483 0.6633
vn -0.1176 -0.9282 -0.3529
vn -0.3149 -0.0840 -0.9454
vn 0.0002 0.9997 -0.0229
vn 0.0000 1.0000 -0.0002
vn -0.6366 0.0753 -0.7675
vn -0.9681 -0.1275 -0.2156
vn 0.0754 -0.9972 0.0008
vn 0.0103 -0.9999 0.0026
vn -0.0018 -0.9583 0.2857
vn -0.0997 -0.9945 0.0305
vn 0.0009 -0.9829 0.1842
vn 0.0006 -0.9995 0.0303
vn 0.8033 0.2058 -0.5588
vn 0.0006 0.9999 -0.0129
vn 0.0003 1.0000 -0.0009
vn 0.4452 -0.0059 -0.8954
vn 0.0000 -0.0417 -0.9991
vn 0.0007 -0.0317 -0.9995
vn 0.0000 -0.8947 -0.4466
vn 0.1815 -0.9131 -0.3651
vn -0.4266 0.7605 0.4895
vn 0.0021 0.9970 0.0770
vn 0.0002 0.9999 0.0145
vn -0.1440 0.8941 0.4242
vn -0.0025 0.9581 0.2863
vn 0.1256 0.9425 0.3098
vn -0.0037 0.8304 0.5572
vn 0.0010 0.9674 0.2532
vn 0.9548 -0.2362 -0.1807
vn 0.9991 -0.0013 -0.0431
vn 0.9750 -0.0257 -0.2205
vn 0.6770 0.7255 -0.1239
vn -0.0035 -0.1343 0.9909
vn -0.0046 -0.0331 0.9994
vn 0.0026 0.0360 0.9993
vn 0.8405 0.0691 0.5374
vn 0.8634 0.0232 0.5040
vn -0.0710 -0.9310 -0.3581
vn 0.0000 -0.9345 -0.3560
vn -0.5834 0.8065 -0.0956
vn -0.9795 -0.0148 -0.2010
vn -0.5788 -0.8136 -0.0547
vn -0.8892 -0.0840 0.4497
vn -0.6069 -0.1189 0.7859
vn -0.9208 -0.1902 0.3404
vn -0.8628 -0.5044 0.0347
vn 0.5975 -0.7896 -0.1397
vn 0.6532 -0.7470 -0.1236
vn 0.2212 -0.9732 -0.0627
vn 0.1733 -0.9846 -0.0230
vn 0.6249 -0.7781 -0.0644
vn 0.6345 -0.7700 -0.0663
vn -0.6485 -0.7448 -0.1574
vn -0.7307 -0.6714 -0.1237
vn -0.5896 -0.8056 -0.0577
vn -0.7255 -0.6833 -0.0819
vn 0.0181 -0.9541 -0.2989
vn 0.0461 -0.9553 -0.2919
vn 0.0861 -0.9860 -0.1425
usemtl Shape.4760
s off
f 21//1 8//1 34//1
f 1//2 12//2 13//2
f 10//3 4//3 16//3
f 9//4 12//4 17//4
f 2//5 8//5 18//5
f 11//6 2//6 18//6
f 6//7 11//7 20//7
f 5//8 13//8 20//8
f 11//9 18//9 20//9
f 18//10 14//10 20//10
f 7//11 19//11 21//11
f 19//12 8//12 21//12
f 7//13 3//13 22//13
f 3//14 8//14 22//14
f 19//15 7//15 22//15
f 8//16 19//16 22//16
f 10//17 6//17 23//17
f 6//18 20//18 23//18
f 20//19 13//19 23//19
f 6//20 10//20 24//20
f 2//21 11//21 24//21
f 11//22 6//22 24//22
f 16//23 2//23 24//23
f 10//24 16//24 24//24
f 5//25 9//25 25//25
f 1//26 13//26 25//26
f 13//27 5//27 25//27
f 9//28 17//28 25//28
f 25//29 17//29 26//29
f 12//30 1//30 26//30
f 17//31 12//31 26//31
f 1//32 25//32 26//32
f 15//33 10//33 27//33
f 13//34 15//34 27//34
f 10//35 23//35 27//35
f 23//36 13//36 27//36
f 3//37 7//37 28//37
f 9//38 3//38 28//38
f 12//39 9//39 28//39
f 13//40 12//40 28//40
f 15//41 13//41 28//41
f 8//42 2//42 29//42
f 2//23 16//23 29//23
f 16//43 8//43 29//43
f 5//44 20//44 30//44
f 20//45 14//45 30//45
f 8//46 3//46 31//46
f 9//47 5//47 31//47
f 3//48 9//48 31//48
f 5//49 30//49 31//49
f 30//50 14//50 31//50
f 4//51 10//51 32//51
f 10//52 15//52 32//52
f 21//53 4//53 32//53
f 7//54 21//54 32//54
f 28//55 7//55 32//55
f 15//56 28//56 32//56
f 18//57 8//57 33//57
f 14//58 18//58 33//58
f 8//59 31//59 33//59
f 31//60 14//60 33//60
f 8//61 16//61 34//61
f 16//62 4//62 34//62
f 4//63 21//63 34//63
