# Blender v2.79 (sub 0) OBJ File: ''
# www.blender.org
mtllib 103234_link_2_28.mtl
o Shape_IndexedFaceSet.028_Shape_IndexedFaceSet.4782
v 0.234862 -0.137135 0.320082
v 0.134175 -0.184151 0.002340
v 0.190127 -0.182762 0.006135
v 0.235281 -0.057769 0.047562
v 0.233941 -0.188558 0.343238
v 0.197958 -0.167083 0.327393
v 0.190127 -0.080931 0.013997
v 0.229304 -0.120102 0.006135
v 0.135286 -0.167083 0.013997
v 0.205790 -0.065240 0.029657
v 0.229304 -0.143581 0.045318
v 0.198481 -0.184723 0.332753
v 0.229304 -0.065240 0.006135
vn -0.4088 0.8160 -0.4087
vn 0.9998 -0.0198 -0.0042
vn 0.0262 -0.9994 -0.0206
vn -0.1528 0.4080 0.9001
vn 0.0687 -0.0429 -0.9967
vn -0.6892 0.4387 -0.5767
vn -0.8318 0.5295 0.1663
vn -0.3815 0.8877 0.2579
vn -0.5798 0.7755 0.2500
vn -0.7812 0.5967 0.1835
vn 0.9973 -0.0688 -0.0259
vn 0.7554 -0.6461 -0.1093
vn 0.8081 -0.5053 -0.3028
vn 0.9968 -0.0684 -0.0410
vn -0.1134 -0.9933 0.0204
vn -0.2451 0.2752 0.9296
vn -0.9794 -0.0664 0.1905
vn -0.9801 0.0305 0.1960
vn -0.2893 0.2608 -0.9210
vn 0.0399 0.0000 -0.9992
vn 0.9898 0.0000 -0.1428
vn -0.1539 0.9760 -0.1538
usemtl Shape.4782
s off
f 7//1 10//1 13//1
f 4//2 1//2 5//2
f 2//3 3//3 5//3
f 5//4 1//4 6//4
f 3//5 2//5 8//5
f 7//6 2//6 9//6
f 6//7 7//7 9//7
f 1//8 4//8 10//8
f 6//9 1//9 10//9
f 7//10 6//10 10//10
f 4//11 5//11 11//11
f 5//12 3//12 11//12
f 3//13 8//13 11//13
f 8//14 4//14 11//14
f 2//15 5//15 12//15
f 5//16 6//16 12//16
f 9//17 2//17 12//17
f 6//18 9//18 12//18
f 2//19 7//19 13//19
f 8//20 2//20 13//20
f 4//21 8//21 13//21
f 10//22 4//22 13//22
