# SSTK version 0.8.0
# 1
mtllib original-1.mtl
o mesh1/mesh1-geometry#mesh1-geometry
v 0.286865 0.729218 -0.219080
v 0.407040 0.729169 -0.553270
v 0.233331 0.729722 -0.557589
v 0.427872 0.727554 -0.389147
v 0.370819 0.728457 -0.568673
v 0.163328 0.729668 -0.221055
v 0.400453 0.727564 -0.321754
v 0.460206 0.727581 -0.527574
v 0.445511 0.727250 -0.560184
v -0.241365 0.729714 -0.563174
v 0.155420 0.726151 -0.205831
v 0.338047 0.727845 -0.231700
v 0.437587 0.718518 -0.389830
v 0.465615 0.722112 -0.502102
v 0.453229 0.721382 -0.563087
v -0.377216 0.727364 -0.571696
v -0.169725 0.729690 -0.222206
v 0.279609 0.720290 -0.205967
v -0.261857 0.727610 -0.210283
v 0.338649 0.721093 -0.223420
v 0.381700 0.720763 -0.272726
v 0.408603 0.717372 -0.317485
v 0.468143 0.720453 -0.528572
v 0.387635 0.720109 -0.575789
v 0.213575 0.721394 -0.579192
v -0.413056 0.729168 -0.553273
v -0.306423 0.729272 -0.235535
v 0.154521 0.719611 -0.200424
v -0.158997 0.722284 -0.201669
v 0.362081 0.720452 -0.247116
v 0.450110 0.659298 -0.375354
v 0.464600 0.706923 -0.470766
v 0.484148 0.661775 -0.506809
v 0.463670 0.720096 -0.546079
v 0.401022 0.662683 -0.577174
v -0.225281 0.722326 -0.578646
v -0.451519 0.727250 -0.560184
v 0.155633 0.699750 -0.194891
v 0.289346 0.661745 -0.193979
v -0.285617 0.720290 -0.205967
v 0.382082 0.642348 -0.237617
v 0.421660 0.659682 -0.307548
v 0.476332 0.659768 -0.464993
v 0.489862 0.642494 -0.526025
v 0.485071 0.644168 -0.545178
v 0.474766 0.638891 -0.563060
v 0.219318 0.706416 -0.581200
v -0.224604 0.699199 -0.581638
v -0.393894 0.717431 -0.576109
v -0.433887 0.727554 -0.389169
v -0.459237 0.721382 -0.563087
v -0.466213 0.727581 -0.527575
v -0.344053 0.727845 -0.231700
v -0.161857 0.706671 -0.196570
v 0.351720 0.657298 -0.211717
v -0.344656 0.721093 -0.223420
v 0.396554 0.657998 -0.263249
v 0.452175 0.641290 -0.372682
v 0.479142 0.641408 -0.463797
v 0.404578 0.641694 -0.575698
v 0.224857 0.659071 -0.581643
v -0.406470 0.727564 -0.321771
v -0.166070 0.658228 -0.187268
v 0.162600 0.644509 -0.185510
v 0.292370 0.638215 -0.192417
v -0.295355 0.661742 -0.193979
v 0.352652 0.638001 -0.210236
v 0.423212 0.641165 -0.304226
v 0.486925 0.637457 -0.527360
v 0.420528 0.636309 -0.568270
v -0.407029 0.662682 -0.577174
v -0.471622 0.722111 -0.502102
v -0.443594 0.718518 -0.389826
v -0.469677 0.720096 -0.546079
v -0.387708 0.720765 -0.272727
v -0.368088 0.720453 -0.247116
v -0.357728 0.657297 -0.211717
v 0.396549 0.637208 -0.261699
v 0.454293 0.637421 -0.389016
v 0.227410 0.639539 -0.579113
v -0.235929 0.644676 -0.580869
v -0.480774 0.638891 -0.563060
v -0.474150 0.720453 -0.528572
v -0.414610 0.717369 -0.317483
v -0.491079 0.644167 -0.545178
v -0.388090 0.642348 -0.237618
v -0.297785 0.641560 -0.191912
v -0.166326 0.641263 -0.185952
v 0.162040 0.638144 -0.188282
v 0.330696 0.636213 -0.221178
v 0.240027 0.635898 -0.567208
v -0.410586 0.641693 -0.575698
v -0.490155 0.661777 -0.506809
v -0.470608 0.706923 -0.470769
v -0.456117 0.659297 -0.375351
v -0.427670 0.659678 -0.307551
v 0.178958 0.635905 -0.202036
v -0.358659 0.638001 -0.210236
v -0.240215 0.637998 -0.576853
v -0.426545 0.636309 -0.568270
v -0.492932 0.637456 -0.527362
v -0.495869 0.642493 -0.526025
v -0.482340 0.659760 -0.464986
v -0.402563 0.657993 -0.263248
v -0.275205 0.637405 -0.191205
v -0.402558 0.637207 -0.261702
v -0.251327 0.635922 -0.566668
v -0.485150 0.641408 -0.463799
v -0.458185 0.641291 -0.372689
v -0.429221 0.641165 -0.304229
v -0.187196 0.635904 -0.200987
v -0.336702 0.636212 -0.221162
v -0.460301 0.637421 -0.389017
vn 0.013626002352461378 0.9989471724632495 0.04380500756271618
vn 0.021425998262822984 0.9992859189798995 -0.03112199747669079
vn 0.00250499925200483 0.9995207015421637 -0.030855990786371676
vn -0.00250499925200483 -0.9995207015421637 0.030855990786371676
vn -0.021425998262822984 -0.9992859189798995 0.03112199747669079
vn -0.013626002352461378 -0.9989471724632495 -0.04380500756271618
vn 0.023356007012069933 0.9996983001349671 0.007603002282615505
vn -0.023356007012069933 -0.9996983001349671 -0.007603002282615505
vn 0.008629999577678037 0.991061951500898 -0.13312299348542678
vn -0.008629999577678037 -0.991061951500898 0.13312299348542678
vn 0.000688999703550707 0.9945935720657645 0.103841955320918
vn -0.000688999703550707 -0.9945935720657645 -0.103841955320918
vn 0.02711199567460678 0.9995358405360637 0.013893997783379559
vn -0.02711199567460678 -0.9995358405360637 -0.013893997783379559
vn 0.0355689945300226 0.9992968463231464 -0.011859998176110323
vn -0.0355689945300226 -0.9992968463231464 0.011859998176110323
vn 0.036740004394600775 0.9967131192203517 -0.07220200863633547
vn -0.036740004394600775 -0.9967131192203517 0.07220200863633547
vn -0.002194999044074832 0.9976765655104538 -0.06809297034541573
vn 0.002194999044074832 -0.9976765655104538 0.06809297034541573
vn 0.00047499983657039687 0.9742976647807674 0.22526392249514499
vn -0.00047499983657039687 -0.9742976647807674 -0.22526392249514499
vn 0.03140299639928553 0.9993328854149989 0.0186449978621367
vn -0.03140299639928553 -0.9993328854149989 -0.0186449978621367
vn 0.6703970126540789 0.6784320128057436 0.3004960056720124
vn 0.6766967547397644 0.6926787489472914 0.24955490955195886
vn 0.6712567806353337 0.7042117698657437 0.23130092441156416
vn -0.6712567806353337 -0.7042117698657437 -0.23130092441156416
vn -0.6766967547397644 -0.6926787489472914 -0.24955490955195886
vn -0.6703970126540789 -0.6784320128057436 -0.3004960056720124
vn 0.4313158885529489 0.8965387683447223 0.10091997392344268
vn 0.5564070004220347 0.8287550006286108 0.059803000045360585
vn 0.5631020119070738 0.8187840173135976 -0.11184300236497623
vn -0.5631020119070738 -0.8187840173135976 0.11184300236497623
vn -0.5564070004220347 -0.8287550006286108 -0.059803000045360585
vn -0.4313158885529489 -0.8965387683447223 -0.10091997392344268
vn 0.10710598596322596 0.6617249132776473 -0.742056902749739
vn 0.05880596876460053 0.7090106234016628 -0.7027416267315053
vn 0.10326398516303167 0.5469199214185513 -0.8307918806318312
vn -0.10326398516303167 -0.5469199214185513 0.8307918806318312
vn -0.05880596876460053 -0.7090106234016628 0.7027416267315053
vn -0.10710598596322596 -0.6617249132776473 0.742056902749739
vn -0.011323003762980127 0.9847393272589674 -0.1736670577148697
vn 0.011323003762980127 -0.9847393272589674 0.1736670577148697
vn -0.003752999651550887 0.9979589073440106 0.06374899408119304
vn 0.003752999651550887 -0.9979589073440106 -0.06374899408119304
vn 0.0391380004788143 0.8157620099800325 0.5770620070597766
vn 0.105936997328216 0.7937059799823386 0.5990059848927698
vn 0.1281640264437018 0.7860851621906101 0.6046851247628806
vn -0.1281640264437018 -0.7860851621906101 -0.6046851247628806
vn -0.105936997328216 -0.7937059799823386 -0.5990059848927698
vn -0.0391380004788143 -0.8157620099800325 -0.5770620070597766
vn -0.009311998131096132 0.9889528015186762 0.14793797030907424
vn 0.009311998131096132 -0.9889528015186762 -0.14793797030907424
vn 0.17221695781916402 0.7684278117901517 0.6163278490437629
vn 0.17227294274845634 0.7695137442671552 0.614955795631467
vn -0.17227294274845634 -0.7695137442671552 -0.614955795631467
vn -0.17221695781916402 -0.7684278117901517 -0.6163278490437629
vn 0.4782910085362988 0.7854500140183192 0.3928180070108194
vn 0.44475214155751314 0.8328582650855022 0.3294581048612601
vn 0.39960287246396636 0.8747207208268034 0.2741919124897457
vn -0.39960287246396636 -0.8747207208268034 -0.2741919124897457
vn -0.44475214155751314 -0.8328582650855022 -0.3294581048612601
vn -0.4782910085362988 -0.7854500140183192 -0.3928180070108194
vn 0.672420080404636 0.6696850800775982 0.3152350376942319
vn -0.672420080404636 -0.6696850800775982 -0.3152350376942319
vn 0.6756402105791819 0.7119382218923118 0.19145305967085446
vn -0.6756402105791819 -0.7119382218923118 -0.19145305967085446
vn 0.8903321865130384 0.445839093397504 -0.09239101935471951
vn -0.8903321865130384 -0.445839093397504 0.09239101935471951
vn 0.7199616677604458 0.5612867409839093 -0.40818181163699513
vn 0.5264481498219002 0.8139902316535129 -0.24550406986801318
vn -0.5264481498219002 -0.8139902316535129 0.24550406986801318
vn -0.7199616677604458 -0.5612867409839093 0.40818181163699513
vn 0.06428399817944504 0.7192489796305095 -0.6917719804086718
vn -0.06428399817944504 -0.7192489796305095 0.6917719804086718
vn 0.007231999037504161 0.7757678967542212 -0.6309769160242343
vn 0.0010630000784807672 0.8213760606417861 -0.5703860421113178
vn -0.0010630000784807672 -0.8213760606417861 0.5703860421113178
vn -0.007231999037504161 -0.7757678967542212 0.6309769160242343
vn -0.021671005802520932 0.9987072674089 -0.04598001231137984
vn 0.021671005802520932 -0.9987072674089 0.04598001231137984
vn -0.018257002635453292 0.9992541442453439 0.034027004911900596
vn 0.018257002635453292 -0.9992541442453439 -0.034027004911900596
vn 0.10167501947346248 0.34554106618027736 0.9328791786711012
vn 0.016579004213629064 0.6357011615663314 0.7717571961455892
vn 0.015084006062255711 0.4325841738553981 0.9014673622993549
vn -0.015084006062255711 -0.4325841738553981 -0.9014673622993549
vn -0.016579004213629064 -0.6357011615663314 -0.7717571961455892
vn -0.10167501947346248 -0.34554106618027736 -0.9328791786711012
vn -0.02011400316025208 0.7249411139005818 0.6885171081777509
vn -0.0029660002266617457 0.8342700637549206 0.5513480421340189
vn -0.08868396492789328 0.7639026978971681 0.6392087472102492
vn 0.08868396492789328 -0.7639026978971681 -0.6392087472102492
vn 0.0029660002266617457 -0.8342700637549206 -0.5513480421340189
vn 0.02011400316025208 -0.7249411139005818 -0.6885171081777509
vn 0.5345623212832774 0.6735854048390952 0.5104173067716123
vn 0.5127078377869564 0.7322947683129564 0.44819085819915777
vn -0.5127078377869564 -0.7322947683129564 -0.44819085819915777
vn -0.5345623212832774 -0.6735854048390952 -0.5104173067716123
vn 0.6575563001344087 0.6700453058348792 0.3444691572291936
vn -0.6575563001344087 -0.6700453058348792 -0.3444691572291936
vn 0.9079836282170997 0.3069098743327086 0.28525788319833106
vn 0.8729102672162049 0.2716570831599507 0.4052531240565106
vn 0.9212184066341853 0.2137170943366697 0.3250871434964226
vn -0.9212184066341853 -0.2137170943366697 -0.3250871434964226
vn -0.8729102672162049 -0.2716570831599507 -0.4052531240565106
vn -0.9079836282170997 -0.3069098743327086 -0.28525788319833106
vn 0.9305891630401663 0.33034605787696475 0.1577190276325338
vn 0.9272557655295004 0.3063129225441926 0.21533494554933588
vn -0.9272557655295004 -0.3063129225441926 -0.21533494554933588
vn -0.9305891630401663 -0.33034605787696475 -0.1577190276325338
vn 0.9623501959768631 0.24030604893688998 0.12702402586768333
vn -0.9623501959768631 -0.24030604893688998 -0.12702402586768333
vn 0.7757841774788818 0.5497741257737654 -0.30968907084866076
vn -0.7757841774788818 -0.5497741257737654 0.30968907084866076
vn 0.19631489994126572 0.060275969278250435 -0.9786865011782978
vn 0.10874204243300184 0.009831003836225571 -0.9940213878841195
vn 0.07979201805653678 0.0800110181060954 -0.993595224845657
vn -0.07979201805653678 -0.0800110181060954 0.993595224845657
vn -0.10874204243300184 -0.009831003836225571 0.9940213878841195
vn -0.19631489994126572 -0.060275969278250435 0.9786865011782978
vn 0.001028999761871475 0.8201868101944408 -0.5720948676072514
vn -0.001028999761871475 -0.8201868101944408 0.5720948676072514
vn -0.03408701503411539 0.9956524391336009 -0.08668503823253124
vn 0.03408701503411539 -0.9956524391336009 0.08668503823253124
vn 0.0023669987375627435 0.6369486602838411 0.7709025888395993
vn -0.0023669987375627435 -0.6369486602838411 -0.7709025888395993
vn 0.022949001722609507 0.21294301598403573 0.9767950733206829
vn -0.022949001722609507 -0.21294301598403573 -0.9767950733206829
vn 0.2769270736677345 0.23246506184001525 0.9323472480216494
vn 0.16546691543302502 0.1712829124605802 0.9712275036242031
vn -0.16546691543302502 -0.1712829124605802 -0.9712275036242031
vn -0.2769270736677345 -0.23246506184001525 -0.9323472480216494
vn -0.0959480215735313 0.7179021614174477 0.6895001550313694
vn 0.0959480215735313 -0.7179021614174477 -0.6895001550313694
vn 0.6941603829961553 0.2619981445548962 0.6704463699121822
vn 0.7445829585680547 0.20506998858898332 0.6352499646518343
vn 0.7280630841648255 0.2634020304495399 0.6328850731621516
vn -0.7280630841648255 -0.2634020304495399 -0.6328850731621516
vn -0.7445829585680547 -0.20506998858898332 -0.6352499646518343
vn -0.6941603829961553 -0.2619981445548962 -0.6704463699121822
vn 0.7990909151884902 0.27000997134249316 0.5371669429877894
vn -0.7990909151884902 -0.27000997134249316 -0.5371669429877894
vn 0.875517170999902 0.21298304159836087 0.43371408471000733
vn -0.875517170999902 -0.21298304159836087 -0.43371408471000733
vn 0.9522048788057512 0.2023509742452755 0.2288229708759862
vn -0.9522048788057512 -0.2023509742452755 -0.2288229708759862
vn 0.9789728734633589 0.19985597416771766 0.04086199471840365
vn -0.9789728734633589 -0.19985597416771766 -0.04086199471840365
vn 0.8939484963079904 0.24285586316375243 -0.37666578776904
vn -0.8939484963079904 -0.24285586316375243 0.37666578776904
vn 0.19008504466571385 0.006778001592678057 -0.9817442306878321
vn -0.19008504466571385 -0.006778001592678057 0.9817442306878321
vn 0.014977004264096004 0.06525401857844165 -0.9977562840707332
vn -0.014977004264096004 -0.06525401857844165 0.9977562840707332
vn 0.006085001736531958 0.13375103816974296 -0.9909962828095685
vn -0.006085001736531958 -0.13375103816974296 0.9909962828095685
vn -0.01052699491079923 0.05743897223153766 -0.9982935173821038
vn -0.015495997910938173 0.23567296822822226 -0.971708869001021
vn 0.015495997910938173 -0.23567296822822226 0.971708869001021
vn 0.01052699491079923 -0.05743897223153766 0.9982935173821038
vn -0.08094003897992277 0.25436812250117363 -0.9637144641153607
vn -0.07689097605688423 0.5097498412687668 -0.8568797331758328
vn 0.07689097605688423 -0.5097498412687668 0.8568797331758328
vn 0.08094003897992277 -0.25436812250117363 0.9637144641153607
vn -0.02493400481009414 0.9996571928468868 0.007987001540796578
vn 0.02493400481009414 -0.9996571928468868 -0.007987001540796578
vn -0.12678594687765027 0.5688047616751207 -0.8126416595093107
vn 0.12678594687765027 -0.5688047616751207 0.8126416595093107
vn -0.03557399073295883 0.9992967396827335 -0.01185399691202828
vn 0.03557399073295883 -0.9992967396827335 0.01185399691202828
vn -0.031009995923581255 0.9972888689014004 0.06673299122761522
vn 0.031009995923581255 -0.9972888689014004 -0.06673299122761522
vn -0.019144996558246842 0.3135949436241013 0.9493638293300316
vn -0.022620009197919663 0.2479161008095248 0.9685173938258868
vn 0.022620009197919663 -0.2479161008095248 -0.9685173938258868
vn 0.019144996558246842 -0.3135949436241013 -0.9493638293300316
vn 0.2815079343792413 0.1385559677019842 0.9495027786666552
vn -0.2815079343792413 -0.1385559677019842 -0.9495027786666552
vn -0.15549296997765347 0.7958278463427679 0.5852178870070192
vn 0.15549296997765347 -0.7958278463427679 -0.5852178870070192
vn -0.12114603146162846 0.25554006636376386 0.9591782490986236
vn 0.12114603146162846 -0.25554006636376386 -0.9591782490986236
vn 0.6878680621984088 0.17778401607558703 0.703726063632321
vn -0.6878680621984088 -0.17778401607558703 -0.703726063632321
vn 0.8286819710553823 0.1936369932365504 0.5251579816570198
vn -0.8286819710553823 -0.1936369932365504 -0.5251579816570198
vn 0.9243850488884156 0.15248000806428663 0.3496600184926447
vn -0.9243850488884156 -0.15248000806428663 -0.3496600184926447
vn 0.9570067132798746 0.15795295267714451 0.24328792711070465
vn -0.9570067132798746 -0.15795295267714451 -0.24328792711070465
vn 0.8179102186744605 0.21336805704555792 -0.5343191428542493
vn -0.8179102186744605 -0.21336805704555792 0.5343191428542493
vn 0.07452100193016852 -0.07720900199979039 -0.9942260257514488
vn -0.07452100193016852 0.07720900199979039 0.9942260257514488
vn 0.012410997186991958 -0.05204198820445052 -0.9985677736701463
vn -0.012410997186991958 0.05204198820445052 0.9985677736701463
vn -0.18013092137998518 0.2382078960316853 -0.9543635834580841
vn 0.18013092137998518 -0.2382078960316853 0.9543635834580841
vn -0.0308900014657306 0.9993940474212486 0.016042000761192953
vn 0.0308900014657306 -0.9993940474212486 -0.016042000761192953
vn -0.5631059175948046 0.8187818801790591 -0.11183898363342841
vn -0.5264858545285563 0.8139637750965493 -0.24551093216374298
vn -0.7199641004371589 0.5612870783012367 -0.4081770569419279
vn 0.7199641004371589 -0.5612870783012367 0.4081770569419279
vn 0.5264858545285563 -0.8139637750965493 0.24551093216374298
vn 0.5631059175948046 -0.8187818801790591 0.11183898363342841
vn -0.1585699741305001 0.7708028742493024 0.6170238993371868
vn 0.1585699741305001 -0.7708028742493024 -0.6170238993371868
vn -0.023487005121846996 0.13543202953386904 0.990508216001636
vn 0.023487005121846996 -0.13543202953386904 -0.990508216001636
vn 0.02465700471948676 0.1228880235214458 0.9921141898961305
vn -0.02465700471948676 -0.1228880235214458 -0.9921141898961305
vn 0.20719502213205543 0.08701600929483307 0.9744221040853386
vn -0.20719502213205543 -0.08701600929483307 -0.9744221040853386
vn -0.276924968852312 0.2324649738530386 0.9323478951323116
vn -0.16451804221878993 0.18554704761527502 0.9687652486055388
vn 0.16451804221878993 -0.18554704761527502 -0.9687652486055388
vn 0.276924968852312 -0.2324649738530386 -0.9323478951323116
vn 0.6714030638433847 0.08887400845098542 0.7357440699615391
vn -0.6714030638433847 -0.08887400845098542 -0.7357440699615391
vn 0.874667235893412 0.12600003398158374 0.4680611262337625
vn -0.874667235893412 -0.12600003398158374 -0.4680611262337625
vn 0.8253767773571205 -0.49465686656781216 -0.27215392658730464
vn 0.8691733248496796 -0.49079418343215175 -0.06048802260713047
vn 0.7771887617955671 -0.624512808589976 -0.07720997633553194
vn -0.7771887617955671 0.624512808589976 0.07720997633553194
vn -0.8691733248496796 0.49079418343215175 0.06048802260713047
vn -0.8253767773571205 0.49465686656781216 0.27215392658730464
vn 0.7831637521623878 -0.5506528257420863 -0.2888529085904896
vn -0.7831637521623878 0.5506528257420863 0.2888529085904896
vn 0.10174499695690895 -0.6887719793995193 -0.717802978531231
vn 0.061804012547420996 -0.740323150300051 -0.6694041359021068
vn -0.061804012547420996 0.740323150300051 0.6694041359021068
vn -0.10174499695690895 0.6887719793995193 0.717802978531231
vn -0.1091209511324845 0.005068997729956323 -0.9940155548511077
vn 0.1091209511324845 -0.005068997729956323 0.9940155548511077
vn -0.43134786615946374 0.8965237218226283 0.10091696868703369
vn -0.5564151906106282 0.8287492839038622 0.059806020487692145
vn 0.5564151906106282 -0.8287492839038622 -0.059806020487692145
vn 0.43134786615946374 -0.8965237218226283 -0.10091696868703369
vn -0.6704219911893142 0.678409991084336 0.3004899960509605
vn -0.6712520871255059 0.7042240914051239 0.2312770300187197
vn -0.6767243461063566 0.6926513542521235 0.249556127633892
vn 0.6767243461063566 -0.6926513542521235 -0.249556127633892
vn 0.6712520871255059 -0.7042240914051239 -0.2312770300187197
vn 0.6704219911893142 -0.678409991084336 -0.3004899960509605
vn -0.7757808801352692 0.5497839150537186 -0.3096799521518188
vn 0.7757808801352692 -0.5497839150537186 0.3096799521518188
vn -0.47823792351302385 0.7854988743712477 0.39278493717994617
vn -0.3994950804465322 0.8747971761583626 0.2741050551966776
vn -0.44468704428349454 0.8329080829439063 0.3294200328048015
vn 0.44468704428349454 -0.8329080829439063 -0.3294200328048015
vn 0.3994950804465322 -0.8747971761583626 -0.2741050551966776
vn 0.47823792351302385 -0.7854988743712477 -0.39278493717994617
vn -0.5345299952047314 0.6736309939568564 0.5103909954212824
vn -0.5126777384285521 0.7323226263643312 0.44817977133582587
vn 0.5126777384285521 -0.7323226263643312 -0.44817977133582587
vn 0.5345299952047314 -0.6736309939568564 -0.5103909954212824
vn 0.28267604580186206 0.08695301408895453 0.9552661547813098
vn -0.28267604580186206 -0.08695301408895453 -0.9552661547813098
vn -0.2848358841421732 0.1492329392990666 0.9468886148502936
vn 0.2848358841421732 -0.1492329392990666 -0.9468886148502936
vn 0.543619210149365 -0.6924192676716839 0.47437718338215795
vn 0.6736006622233695 -0.5944627019070501 0.4391767797750786
vn 0.741703987116231 -0.4076889929182384 0.5326019907484372
vn -0.741703987116231 0.4076889929182384 -0.5326019907484372
vn -0.6736006622233695 0.5944627019070501 -0.4391767797750786
vn -0.543619210149365 0.6924192676716839 -0.47437718338215795
vn 0.6995211533721283 -0.6168871352543699 0.3607220790894067
vn -0.6995211533721283 0.6168871352543699 -0.3607220790894067
vn 0.5968699924579509 -0.7753259902029809 0.20643599739147478
vn 0.7099290425595376 -0.6590940395120298 0.24818501487844394
vn -0.7099290425595376 0.6590940395120298 -0.24818501487844394
vn -0.5968699924579509 0.7753259902029809 -0.20643599739147478
vn 0.724757159313962 -0.6688091470156364 0.1655940364003883
vn -0.724757159313962 0.6688091470156364 -0.1655940364003883
vn 0.03415501310956749 -0.9990403834572481 -0.02741801052373361
vn 0.0172179988696298 -0.9974489345169808 -0.0692759954519964
vn 0.053043977612979624 -0.9968985792625324 -0.0581339754647643
vn -0.053043977612979624 0.9968985792625324 0.0581339754647643
vn -0.0172179988696298 0.9974489345169808 0.0692759954519964
vn -0.03415501310956749 0.9990403834572481 0.02741801052373361
vn 0.021455000502165016 -0.7869920184199418 -0.6165900144315977
vn -0.021455000502165016 0.7869920184199418 0.6165900144315977
vn 0.011493998089255157 -0.12697097889253667 -0.9918398351180472
vn -0.011493998089255157 0.12697097889253667 0.9918398351180472
vn -0.011846996244627178 -0.21198693280237882 -0.9772006902376908
vn 0.011846996244627178 0.21198693280237882 0.9772006902376908
vn -0.19008390319770602 0.006770996551796403 -0.9817445000359414
vn 0.19008390319770602 -0.006770996551796403 0.9817445000359414
vn -0.8903308706238048 0.44584193521359855 -0.09238998657458106
vn 0.8903308706238048 -0.44584193521359855 0.09238998657458106
vn -0.6756929926464331 0.7118859922525447 0.19146099791632995
vn 0.6756929926464331 -0.7118859922525447 -0.19146099791632995
vn -0.6724849828307861 0.6696109829041621 0.31525399195125037
vn 0.6724849828307861 -0.6696109829041621 -0.31525399195125037
vn -0.8939502611367656 0.2428550709417408 -0.37666211002885663
vn 0.8939502611367656 -0.2428550709417408 0.37666211002885663
vn -0.6575988455464894 0.6700098426314567 0.34445691909569065
vn 0.6575988455464894 -0.6700098426314567 -0.34445691909569065
vn -0.6941650385855118 0.2620020145635134 0.6704400372667457
vn -0.7280629696215732 0.26340498900942705 0.6328839735929167
vn -0.7445870461889698 0.2050580127203641 0.6352490394064049
vn 0.7445870461889698 -0.2050580127203641 -0.6352490394064049
vn 0.7280629696215732 -0.26340498900942705 -0.6328839735929167
vn 0.6941650385855118 -0.2620020145635134 -0.6704400372667457
vn -0.167582959820063 0.10171497561266779 0.9805967648906769
vn 0.167582959820063 -0.10171497561266779 -0.9805967648906769
vn -0.023544009289373106 0.07766603064341028 0.9967013932521008
vn 0.023544009289373106 -0.07766603064341028 -0.9967013932521008
vn 0.02926499368025456 -0.4013279133336478 0.9154668023058808
vn 0.015988995204949022 -0.4004668799012021 0.9161717252428893
vn -0.015988995204949022 0.4004668799012021 -0.9161717252428893
vn -0.02926499368025456 0.4013279133336478 -0.9154668023058808
vn 0.01559000205578355 -0.9926121308913036 0.12032501586671943
vn 0.018714999413069557 -0.9991129686663193 0.037722998816950196
vn 0.03979099645535851 -0.9957589112963064 0.08295099261060147
vn -0.03979099645535851 0.9957589112963064 -0.08295099261060147
vn -0.018714999413069557 0.9991129686663193 -0.037722998816950196
vn -0.01559000205578355 0.9926121308913036 -0.12032501586671943
vn -0.6878738983043864 0.17777397371780876 0.7037228959612628
vn 0.6878738983043864 -0.17777397371780876 -0.7037228959612628
vn 0.035590009170033965 -0.9988112573512447 0.03330800858205932
vn -0.035590009170033965 0.9988112573512447 -0.03330800858205932
vn 0.0164140067711403 -0.999854412462027 0.004662001923178755
vn -0.0164140067711403 0.999854412462027 -0.004662001923178755
vn 0.0008980003378960388 -0.9935503738492308 -0.11338804266520718
vn 0.001093000042261394 -0.955932036961591 -0.2935860113516502
vn -0.001093000042261394 0.955932036961591 0.2935860113516502
vn -0.0008980003378960388 0.9935503738492308 0.11338804266520718
vn -0.07571401419634112 -0.20990303935671858 -0.9747861827719388
vn 0.07571401419634112 0.20990303935671858 0.9747861827719388
vn -0.817915787495282 0.21336494456512756 -0.5343118611791177
vn 0.817915787495282 -0.21336494456512756 0.5343118611791177
vn -0.9305854983805852 0.33035882192458493 0.15771391498646617
vn -0.9623486651287063 0.24031591637656421 0.12701695580153655
vn 0.9623486651287063 -0.24031591637656421 -0.12701695580153655
vn 0.9305854983805852 -0.33035882192458493 -0.15771391498646617
vn -0.9272540649703764 0.3063180214629387 0.2153350150879867
vn -0.9079816443799787 0.30691387979413337 0.28525988827513404
vn 0.9079816443799787 -0.30691387979413337 -0.28525988827513404
vn 0.9272540649703764 -0.3063180214629387 -0.2153350150879867
vn -0.9212191403003038 0.21371103254787216 0.3250890495105784
vn -0.8729102749886026 0.2716510855768967 0.40525712766614674
vn 0.8729102749886026 -0.2716510855768967 -0.40525712766614674
vn 0.9212191403003038 -0.21371103254787216 -0.3250890495105784
vn -0.7990921374102975 0.2700080464300476 0.5371660923700148
vn -0.8755207357735727 0.21297493572555842 0.43371086910889856
vn 0.8755207357735727 -0.21297493572555842 -0.43371086910889856
vn 0.7990921374102975 -0.2700080464300476 -0.5371660923700148
vn 0.002709998757205695 -0.3995358167745146 0.9167135795989156
vn -0.002709998757205695 0.3995358167745146 -0.9167135795989156
vn 0.003223999397490989 -0.9863668156653208 0.1645299692522309
vn 0.0036629989634996453 -0.9954197183310992 0.09553097296808206
vn -0.0036629989634996453 0.9954197183310992 -0.09553097296808206
vn -0.003223999397490989 0.9863668156653208 -0.1645299692522309
vn -0.6714072462389884 0.0888490325854331 0.7357432698342616
vn 0.6714072462389884 -0.0888490325854331 -0.7357432698342616
vn -0.29182110553858104 0.08716003152186691 0.9524933444740429
vn 0.29182110553858104 -0.08716003152186691 -0.9524933444740429
vn 0.00037499992366183576 -0.9727958019694378 -0.23166395284052138
vn -0.00037499992366183576 0.9727958019694378 0.23166395284052138
vn -0.0024499991681102735 -0.5141868254094356 -0.8576747087791751
vn -0.009649001833397364 -0.5107650970499746 -0.8596661633443237
vn 0.009649001833397364 0.5107650970499746 0.8596661633443237
vn 0.0024499991681102735 0.5141868254094356 0.8576747087791751
vn -0.06170602075133717 -0.7404442490066299 -0.6692792250742908
vn -0.10174702770073382 -0.6887401875102304 -0.717833195430832
vn 0.10174702770073382 0.6887401875102304 0.717833195430832
vn 0.06170602075133717 0.7404442490066299 0.6692792250742908
vn -0.8254131337606854 -0.49459008014981276 -0.27216504410516545
vn -0.7831816905630173 -0.5506157824503708 -0.28887488586483295
vn -0.7771871296682431 -0.6245131041956485 -0.07722401288428707
vn 0.7771871296682431 0.6245131041956485 0.07722401288428707
vn 0.7831816905630173 0.5506157824503708 0.28887488586483295
vn 0.8254131337606854 0.49459008014981276 0.27216504410516545
vn -0.9789716665701389 0.19986393192795532 0.040851986086142725
vn 0.9789716665701389 -0.19986393192795532 -0.040851986086142725
vn -0.9522060777428685 0.20234301652029626 0.22882501868241945
vn 0.9522060777428685 -0.20234301652029626 -0.22882501868241945
vn -0.8286887929943942 0.19361895163418558 0.5251538688171052
vn 0.8286887929943942 -0.19361895163418558 -0.5251538688171052
vn -0.02624999293873972 -0.46445087506249916 0.8852097618781635
vn -0.10842193975352274 -0.43738075696201445 0.8927165039470362
vn -0.07310703407596415 -0.5688272651364228 0.8192013818384547
vn 0.07310703407596415 0.5688272651364228 -0.8192013818384547
vn 0.10842193975352274 0.43738075696201445 -0.8927165039470362
vn 0.02624999293873972 0.46445087506249916 -0.8852097618781635
vn -0.0029010010396638393 -0.7763062782134701 0.6303492259052264
vn 0.0029010010396638393 0.7763062782134701 -0.6303492259052264
vn -0.009895998784073757 -0.9927228780236511 0.12001398525382252
vn 0.009895998784073757 0.9927228780236511 -0.12001398525382252
vn -0.5436367422993925 -0.6924016717802208 0.474382775127912
vn -0.741714021294239 -0.40767201170405976 0.532601015290709
vn -0.6736158724734128 -0.5944438874619744 0.4391789168561925
vn 0.6736158724734128 0.5944438874619744 -0.4391789168561925
vn 0.741714021294239 0.40767201170405976 -0.532601015290709
vn 0.5436367422993925 0.6924016717802208 -0.474382775127912
vn -0.15584900058614806 -0.7345460027626275 0.6604190024838358
vn 0.15584900058614806 0.7345460027626275 -0.6604190024838358
vn -0.0007209998897933727 -0.9949418479206629 -0.1004499846459699
vn 0.0007209998897933727 0.9949418479206629 0.1004499846459699
vn -0.021254992257689814 -0.7872357132427522 -0.6162857755127087
vn 0.021254992257689814 0.7872357132427522 0.6162857755127087
vn -0.034152984130563474 -0.9990405357884302 -0.02741498726142352
vn -0.05304199557457389 -0.9968989168262347 -0.05812999515006939
vn -0.014610001500907448 -0.9990141026302226 -0.04192100430660788
vn 0.014610001500907448 0.9990141026302226 0.04192100430660788
vn 0.05304199557457389 0.9968989168262347 0.05812999515006939
vn 0.034152984130563474 0.9990405357884302 0.02741498726142352
vn -0.8691791689832229 -0.4907830954165864 -0.060494011761065426
vn 0.8691791689832229 0.4907830954165864 0.060494011761065426
vn -0.9570074593478802 0.1579439107711133 0.24329086255517735
vn 0.9570074593478802 -0.1579439107711133 -0.24329086255517735
vn -0.924386188331688 0.15248903106766087 0.34965307123727496
vn 0.924386188331688 -0.15248903106766087 -0.34965307123727496
vn -0.8746734934531104 0.12597292704569782 0.46805672893578926
vn 0.8746734934531104 -0.12597292704569782 -0.46805672893578926
vn -0.002365999665374325 -0.999340858662233 0.036224994876663114
vn 0.002365999665374325 0.999340858662233 -0.036224994876663114
vn -0.6995551252084862 -0.6168451104047982 0.3607280645641969
vn 0.6995551252084862 0.6168451104047982 -0.3607280645641969
vn -0.040990992508281934 -0.9958998179843863 0.08064298526128615
vn -0.035597995478236104 -0.9988108731280545 0.03331099576873765
vn -0.021408008382810415 -0.99901539118803 0.038858015215772
vn 0.021408008382810415 0.99901539118803 -0.038858015215772
vn 0.035597995478236104 0.9988108731280545 -0.03331099576873765
vn 0.040990992508281934 0.9958998179843863 -0.08064298526128615
vn -0.01641300711663219 -0.9998544335339768 0.004661002020996932
vn 0.01641300711663219 0.9998544335339768 -0.004661002020996932
vn -0.7247101103034237 -0.668863101803313 0.16558202520216572
vn 0.7247101103034237 0.668863101803313 -0.16558202520216572
vn -0.5968720822701675 -0.7753241068671933 0.20643702845435302
vn 0.5968720822701675 0.7753241068671933 -0.20643702845435302
vn -0.7099459515490302 -0.6590739550208404 0.24818998306202697
vn 0.7099459515490302 0.6590739550208404 -0.24818998306202697
usemtl material_0_0
f 1//1 2//2 3//3
f 3//4 2//5 1//6
f 1//1 4//7 2//2
f 2//5 4//8 1//6
f 2//2 5//9 3//3
f 3//4 5//10 2//5
f 1//1 3//3 6//11
f 6//12 3//4 1//6
f 1//1 7//13 4//7
f 4//8 7//14 1//6
f 4//7 8//15 2//2
f 2//5 8//16 4//8
f 2//2 9//17 5//9
f 5//10 9//18 2//5
f 3//3 5//9 10//19
f 10//20 5//10 3//4
f 6//11 3//3 10//19
f 10//20 3//4 6//12
f 11//21 1//1 6//11
f 6//12 1//6 11//22
f 1//1 12//23 7//13
f 7//14 12//24 1//6
f 7//25 13//26 4//27
f 4//28 13//29 7//30
f 4//31 14//32 8//33
f 8//34 14//35 4//36
f 8//15 9//17 2//2
f 2//5 9//18 8//16
f 15//37 5//38 9//39
f 9//40 5//41 15//42
f 10//19 5//9 16//43
f 16//44 5//10 10//20
f 6//11 10//19 17//45
f 17//46 10//20 6//12
f 11//47 18//48 1//49
f 1//50 18//51 11//52
f 11//21 6//11 19//53
f 19//54 6//12 11//22
f 1//49 20//55 12//56
f 12//57 20//58 1//50
f 12//59 21//60 7//61
f 7//62 21//63 12//64
f 7//25 22//65 13//26
f 13//29 22//66 7//30
f 4//27 13//26 14//67
f 14//68 13//29 4//28
f 14//32 23//69 8//33
f 8//34 23//70 14//35
f 8//33 15//71 9//72
f 9//73 15//74 8//34
f 15//37 24//75 5//38
f 5//41 24//76 15//42
f 5//38 25//77 16//78
f 16//79 25//80 5//41
f 26//81 10//19 16//43
f 16//44 10//20 26//82
f 17//45 10//19 27//83
f 27//84 10//20 17//46
f 19//53 6//11 17//45
f 17//46 6//12 19//54
f 18//85 11//86 28//87
f 28//88 11//89 18//90
f 18//48 20//55 1//49
f 1//50 20//58 18//51
f 29//91 11//92 19//93
f 19//94 11//95 29//96
f 20//97 30//98 12//59
f 12//64 30//99 20//100
f 12//59 30//98 21//60
f 21//63 30//99 12//64
f 21//101 22//65 7//25
f 7//30 22//66 21//102
f 13//103 22//104 31//105
f 31//106 22//107 13//108
f 14//109 13//103 32//110
f 32//111 13//108 14//112
f 14//109 33//113 23//69
f 23//70 33//114 14//112
f 8//33 23//69 34//115
f 34//116 23//70 8//34
f 8//33 34//115 15//71
f 15//74 34//116 8//34
f 15//117 35//118 24//119
f 24//120 35//121 15//122
f 24//75 25//77 5//38
f 5//41 25//80 24//76
f 16//78 25//77 36//123
f 36//124 25//80 16//79
f 27//83 10//19 26//81
f 26//82 10//20 27//84
f 26//81 16//43 37//125
f 37//126 16//44 26//82
f 19//53 17//45 27//83
f 27//84 17//46 19//54
f 11//86 29//127 28//87
f 28//88 29//128 11//89
f 18//85 28//87 38//129
f 38//130 28//88 18//90
f 20//131 18//85 39//132
f 39//133 18//90 20//134
f 29//91 19//93 40//135
f 40//136 19//94 29//96
f 20//137 41//138 30//139
f 30//140 41//141 20//142
f 21//143 30//139 41//138
f 41//141 30//140 21//144
f 21//143 42//145 22//104
f 22//107 42//146 21//144
f 22//104 42//145 31//105
f 31//106 42//146 22//107
f 13//103 31//105 43//147
f 43//148 31//106 13//108
f 13//103 43//147 32//110
f 32//111 43//148 13//108
f 14//109 32//110 33//113
f 33//114 32//111 14//112
f 23//69 33//113 44//149
f 44//150 33//114 23//70
f 23//69 45//151 34//115
f 34//116 45//152 23//70
f 15//71 34//115 45//151
f 45//152 34//116 15//74
f 46//153 35//118 15//117
f 15//122 35//121 46//154
f 35//118 47//155 24//119
f 24//120 47//156 35//121
f 24//119 47//155 25//157
f 25//158 47//156 24//120
f 25//157 48//159 36//160
f 36//161 48//162 25//158
f 36//160 49//163 16//164
f 16//165 49//166 36//161
f 27//83 26//81 50//167
f 50//168 26//82 27//84
f 16//169 51//169 37//169
f 37//170 51//170 16//170
f 52//171 26//81 37//125
f 37//126 26//82 52//172
f 19//53 27//83 53//173
f 53//174 27//84 19//54
f 28//87 29//175 54//176
f 54//177 29//178 28//88
f 38//129 28//87 54//176
f 54//177 28//88 38//130
f 39//132 18//85 38//129
f 38//130 18//90 39//133
f 55//179 20//131 39//132
f 39//133 20//134 55//180
f 40//135 19//93 56//181
f 56//182 19//94 40//136
f 29//175 40//183 54//176
f 54//177 40//184 29//178
f 20//137 55//185 41//138
f 41//141 55//186 20//142
f 21//143 41//138 57//187
f 57//188 41//141 21//144
f 21//143 57//187 42//145
f 42//146 57//188 21//144
f 42//145 58//189 31//105
f 31//106 58//190 42//146
f 43//147 31//105 59//191
f 59//192 31//106 43//148
f 32//110 43//147 33//113
f 33//114 43//148 32//111
f 33//113 43//147 44//149
f 44//150 43//148 33//114
f 23//69 44//149 45//151
f 45//152 44//150 23//70
f 15//71 45//151 46//193
f 46//194 45//152 15//74
f 46//153 60//195 35//118
f 35//121 60//196 46//154
f 35//118 61//197 47//155
f 47//156 61//198 35//121
f 47//155 48//159 25//157
f 25//158 48//162 47//156
f 48//159 49//163 36//160
f 36//161 49//166 48//162
f 16//164 49//163 51//199
f 51//200 49//166 16//165
f 50//167 26//81 52//171
f 52//172 26//82 50//168
f 27//83 50//167 62//201
f 62//202 50//168 27//84
f 52//203 37//204 51//205
f 51//206 37//207 52//208
f 53//173 27//83 62//201
f 62//202 27//84 53//174
f 19//93 53//209 56//181
f 56//182 53//210 19//94
f 38//129 54//176 63//211
f 63//212 54//177 38//130
f 39//132 38//129 64//213
f 64//214 38//130 39//133
f 55//179 39//132 65//215
f 65//216 39//133 55//180
f 40//183 56//217 66//218
f 66//219 56//220 40//184
f 54//176 40//183 66//218
f 66//219 40//184 54//177
f 41//138 55//185 67//221
f 67//222 55//186 41//141
f 57//187 41//138 68//223
f 68//224 41//141 57//188
f 42//145 57//187 68//223
f 68//224 57//188 42//146
f 42//145 68//223 58//189
f 58//190 68//224 42//146
f 31//105 58//189 59//191
f 59//192 58//190 31//106
f 43//147 59//191 44//149
f 44//150 59//192 43//148
f 45//225 44//226 69//227
f 69//228 44//229 45//230
f 45//225 69//227 46//231
f 46//232 69//228 45//230
f 46//233 70//234 60//234
f 60//235 70//235 46//236
f 60//195 61//197 35//118
f 35//121 61//198 60//196
f 61//197 48//159 47//155
f 47//156 48//162 61//198
f 48//159 71//237 49//163
f 49//166 71//238 48//162
f 49//163 71//237 51//199
f 51//200 71//238 49//166
f 50//239 52//203 72//240
f 72//241 52//208 50//242
f 62//243 50//244 73//245
f 73//246 50//247 62//248
f 52//203 51//205 74//249
f 74//250 51//206 52//208
f 53//251 62//252 75//253
f 75//254 62//255 53//256
f 56//257 53//251 76//258
f 76//259 53//256 56//260
f 54//176 66//218 63//211
f 63//212 66//219 54//177
f 64//213 38//129 63//211
f 63//212 38//130 64//214
f 65//215 39//132 64//213
f 64//214 39//133 65//216
f 67//261 55//179 65//215
f 65//216 55//180 67//262
f 66//218 56//217 77//263
f 77//264 56//220 66//219
f 67//265 78//266 41//267
f 41//268 78//269 67//270
f 41//267 78//266 68//271
f 68//272 78//269 41//268
f 68//271 79//273 58//274
f 58//275 79//276 68//272
f 59//277 58//274 79//273
f 79//276 58//275 59//278
f 44//226 59//277 69//227
f 69//228 59//278 44//229
f 69//279 70//280 46//281
f 46//282 70//283 69//284
f 70//234 80//285 60//234
f 60//235 80//286 70//235
f 60//195 80//287 61//197
f 61//198 80//288 60//196
f 61//197 81//289 48//159
f 48//162 81//290 61//198
f 48//159 81//289 71//237
f 71//238 81//290 48//162
f 71//237 82//291 51//199
f 51//200 82//292 71//238
f 72//240 52//203 83//293
f 83//294 52//208 72//241
f 50//244 72//295 73//245
f 73//246 72//296 50//247
f 62//243 73//245 84//297
f 84//298 73//246 62//248
f 51//205 85//299 74//249
f 74//250 85//300 51//206
f 52//203 74//249 83//293
f 83//294 74//250 52//208
f 75//301 62//243 84//297
f 84//298 62//248 75//302
f 53//251 75//253 76//258
f 76//259 75//254 53//256
f 56//303 76//304 86//305
f 86//306 76//307 56//308
f 63//211 66//218 87//309
f 87//310 66//219 63//212
f 64//213 63//211 88//311
f 88//312 63//212 64//214
f 65//313 64//314 89//314
f 89//315 64//315 65//316
f 65//317 90//318 67//319
f 67//320 90//321 65//322
f 56//303 86//305 77//323
f 77//324 86//306 56//308
f 66//218 77//263 87//309
f 87//310 77//264 66//219
f 67//319 90//318 78//325
f 78//326 90//321 67//320
f 78//266 79//273 68//271
f 68//272 79//276 78//269
f 79//273 69//227 59//277
f 59//278 69//228 79//276
f 79//327 70//280 69//279
f 69//284 70//283 79//328
f 91//329 80//330 70//280
f 70//283 80//331 91//332
f 80//287 81//289 61//197
f 61//198 81//290 80//288
f 81//289 92//333 71//237
f 71//238 92//334 81//290
f 71//237 92//333 82//291
f 82//292 92//334 71//238
f 51//205 82//335 85//299
f 85//300 82//336 51//206
f 72//337 83//293 93//338
f 93//339 83//294 72//340
f 72//337 94//341 73//342
f 73//343 94//344 72//340
f 73//342 95//345 84//346
f 84//347 95//348 73//343
f 83//293 74//249 85//299
f 85//300 74//250 83//294
f 75//349 84//346 96//350
f 96//351 84//347 75//352
f 75//349 86//305 76//304
f 76//307 86//306 75//352
f 63//211 87//309 88//311
f 88//312 87//310 63//212
f 64//314 88//353 89//314
f 89//315 88//354 64//315
f 89//355 97//356 65//317
f 65//322 97//357 89//358
f 65//317 97//356 90//318
f 90//321 97//357 65//322
f 77//323 86//305 98//359
f 98//360 86//306 77//324
f 87//309 77//263 98//361
f 98//362 77//264 87//310
f 90//318 79//327 78//325
f 78//326 79//328 90//321
f 90//318 70//280 79//327
f 79//328 70//283 90//321
f 91//329 99//363 80//330
f 80//331 99//364 91//332
f 90//318 91//329 70//280
f 70//283 91//332 90//321
f 80//365 99//366 81//289
f 81//290 99//367 80//368
f 81//289 99//366 92//333
f 92//334 99//367 81//290
f 92//369 100//369 82//370
f 82//371 100//372 92//372
f 85//373 82//374 101//375
f 101//376 82//377 85//378
f 83//293 102//379 93//338
f 93//339 102//380 83//294
f 72//337 93//338 94//341
f 94//344 93//339 72//340
f 73//342 94//341 103//381
f 103//382 94//344 73//343
f 73//342 103//381 95//345
f 95//348 103//382 73//343
f 84//346 95//345 96//350
f 96//351 95//348 84//347
f 83//293 85//299 102//379
f 102//380 85//300 83//294
f 75//349 96//350 104//383
f 104//384 96//351 75//352
f 75//349 104//383 86//305
f 86//306 104//384 75//352
f 88//385 87//386 105//387
f 105//388 87//389 88//390
f 88//385 105//387 89//391
f 89//392 105//388 88//390
f 89//355 105//393 97//356
f 97//357 105//394 89//358
f 97//356 91//329 90//318
f 90//321 91//332 97//357
f 98//395 86//396 106//397
f 106//398 86//399 98//400
f 105//387 87//386 98//401
f 98//402 87//389 105//388
f 107//403 99//363 91//329
f 91//332 99//364 107//404
f 100//369 92//369 99//405
f 99//406 92//372 100//372
f 101//407 82//408 100//409
f 100//410 82//411 101//412
f 85//373 101//375 102//413
f 102//414 101//376 85//378
f 93//338 102//379 103//381
f 103//382 102//380 93//339
f 94//341 93//338 103//381
f 103//382 93//339 94//344
f 103//381 108//415 95//345
f 95//348 108//416 103//382
f 96//350 95//345 109//417
f 109//418 95//348 96//351
f 96//350 110//419 104//383
f 104//384 110//420 96//351
f 104//383 110//419 86//305
f 86//306 110//420 104//384
f 105//393 111//421 97//356
f 97//357 111//422 105//394
f 111//421 91//329 97//356
f 97//357 91//332 111//422
f 86//396 110//423 106//397
f 106//398 110//424 86//399
f 98//425 106//426 112//427
f 112//428 106//429 98//430
f 105//393 98//425 112//427
f 112//428 98//430 105//394
f 107//403 100//409 99//363
f 99//364 100//410 107//404
f 111//421 107//403 91//329
f 91//332 107//404 111//422
f 113//431 101//407 100//409
f 100//410 101//412 113//432
f 102//413 101//375 108//433
f 108//434 101//376 102//414
f 103//381 102//379 108//415
f 108//416 102//380 103//382
f 95//345 108//415 109//417
f 109//418 108//416 95//348
f 96//350 109//417 110//419
f 110//420 109//418 96//351
f 105//393 112//427 111//421
f 111//422 112//428 105//394
f 106//397 110//423 113//435
f 113//436 110//424 106//398
f 112//427 106//426 113//431
f 113//432 106//429 112//428
f 111//421 100//409 107//403
f 107//404 100//410 111//422
f 113//435 108//433 101//375
f 101//376 108//434 113//436
f 112//427 113//431 100//409
f 100//410 113//432 112//428
f 108//433 113//435 109//437
f 109//438 113//436 108//434
f 110//423 109//437 113//435
f 113//436 109//438 110//424
f 111//421 112//427 100//409
f 100//410 112//428 111//422
