# SSTK version 0.8.0
# 9
mtllib original-9.mtl
o Component_3_2/Component_3/mesh6/mesh6-geometry#mesh6-geometry
v -0.294021 -0.42459 -0.671439
v -0.294716 -0.426135 -0.674791
v -0.293313 -0.426495 -0.674363
v -0.295376 -0.424359 -0.672065
v -0.29432 -0.427187 -0.677914
v -0.292568 -0.424514 -0.671044
v -0.294965 -0.422038 -0.669141
v -0.295944 -0.425445 -0.675346
v -0.292888 -0.427624 -0.677714
v -0.295585 -0.426398 -0.678174
v -0.291829 -0.426501 -0.674093
v -0.296256 -0.42198 -0.669922
v -0.296542 -0.423837 -0.672879
v -0.294215 -0.427445 -0.681223
v -0.29549 -0.426631 -0.681169
v -0.291116 -0.424138 -0.670906
v -0.293552 -0.421854 -0.668647
v -0.296079 -0.419015 -0.667625
v -0.297438 -0.42306 -0.673825
v -0.296913 -0.424472 -0.675992
v -0.292775 -0.4279 -0.681263
v -0.291386 -0.427678 -0.677586
v -0.296514 -0.425514 -0.681104
v -0.290367 -0.426152 -0.673997
v -0.297295 -0.419162 -0.668509
v -0.297338 -0.421684 -0.670939
v -0.298137 -0.42117 -0.672122
v -0.296598 -0.425309 -0.678475
v -0.292982 -0.427305 -0.684767
v -0.294408 -0.42689 -0.68449
v -0.296668 -0.425072 -0.683702
v -0.288409 -0.423144 -0.670897
v -0.292114 -0.421441 -0.668476
v -0.294714 -0.418702 -0.667067
v -0.298422 -0.416095 -0.667921
v -0.298279 -0.419133 -0.66966
v -0.298003 -0.422082 -0.674839
v -0.298598 -0.420473 -0.67339
v -0.297556 -0.423283 -0.676683
v -0.291485 -0.427345 -0.68494
v -0.291269 -0.427966 -0.681286
v -0.295665 -0.426128 -0.684126
v -0.289918 -0.427346 -0.677539
v -0.297217 -0.424169 -0.681034
v -0.297348 -0.423794 -0.683244
v -0.28766 -0.425158 -0.673989
v -0.297288 -0.415725 -0.666994
v -0.299299 -0.416356 -0.669128
v -0.298963 -0.418929 -0.670998
v -0.299301 -0.418566 -0.672434
v -0.297288 -0.423995 -0.678796
v -0.293496 -0.425878 -0.68799
v -0.29202 -0.425858 -0.6883
v -0.294887 -0.42556 -0.687494
v -0.297049 -0.424015 -0.686089
v -0.297672 -0.422894 -0.685276
v -0.296259 -0.401736 -0.672813
v -0.289406 -0.420447 -0.668468
v -0.293292 -0.418244 -0.666874
v -0.295974 -0.415272 -0.66641
v -0.299561 -0.412989 -0.668199
v -0.299859 -0.416492 -0.670531
v -0.302686 -0.409311 -0.675982
v -0.302192 -0.410673 -0.674267
v -0.30156 -0.412406 -0.672985
v -0.30301 -0.408411 -0.678014
v -0.290018 -0.427008 -0.684996
v -0.290561 -0.4255 -0.688402
v -0.289799 -0.427638 -0.681291
v -0.296099 -0.424925 -0.686846
v -0.28721 -0.426352 -0.677531
v -0.303141 -0.408036 -0.680225
v -0.30307 -0.40821 -0.682462
v -0.302802 -0.408922 -0.684575
v -0.296802 -0.400228 -0.67622
v -0.29543 -0.40402 -0.669938
v -0.29851 -0.412394 -0.667292
v -0.30033 -0.413545 -0.669379
v -0.300064 -0.416491 -0.672036
v -0.300834 -0.41439 -0.672224
v -0.29428 -0.423718 -0.69071
v -0.292838 -0.423605 -0.691136
v -0.29139 -0.423216 -0.691278
v -0.295618 -0.423546 -0.69003
v -0.29763 -0.422414 -0.688105
v -0.298167 -0.421532 -0.686992
v -0.302355 -0.410124 -0.686419
v -0.298967 -0.40273 -0.672822
v -0.298138 -0.405014 -0.669946
v -0.294371 -0.406925 -0.667789
v -0.290584 -0.417251 -0.666865
v -0.29457 -0.414767 -0.666207
v -0.297248 -0.411799 -0.66672
v -0.300634 -0.410056 -0.669324
v -0.300764 -0.414023 -0.670752
v -0.303321 -0.406997 -0.677556
v -0.302941 -0.408054 -0.675168
v -0.30236 -0.409655 -0.673152
v -0.301617 -0.411691 -0.671646
v -0.303475 -0.406556 -0.680153
v -0.287311 -0.426014 -0.684987
v -0.287853 -0.424506 -0.688394
v -0.288682 -0.422222 -0.691269
v -0.287091 -0.426644 -0.681282
v -0.29676 -0.423101 -0.689141
v -0.297021 -0.399599 -0.679925
v -0.303391 -0.406761 -0.682783
v -0.303077 -0.407597 -0.685266
v -0.29951 -0.401222 -0.676228
v -0.299661 -0.409247 -0.668499
v -0.301301 -0.410889 -0.670398
v -0.295282 -0.420971 -0.692742
v -0.293883 -0.420741 -0.693255
v -0.292449 -0.420312 -0.693427
v -0.297606 -0.420783 -0.690856
v -0.298372 -0.420379 -0.689611
v -0.298798 -0.419799 -0.688274
v -0.30176 -0.411732 -0.687869
v -0.302552 -0.409009 -0.687432
v -0.300311 -0.403401 -0.672934
v -0.299493 -0.405654 -0.670098
v -0.297079 -0.407918 -0.667798
v -0.293154 -0.410251 -0.666514
v -0.291863 -0.413773 -0.666198
v -0.295862 -0.411245 -0.666522
v -0.298448 -0.408518 -0.667978
v -0.300663 -0.4065 -0.670531
v -0.301568 -0.407495 -0.671219
v -0.303242 -0.405544 -0.677128
v -0.303417 -0.405042 -0.680085
v -0.302809 -0.406748 -0.674408
v -0.302147 -0.408571 -0.672113
v -0.296552 -0.420985 -0.691924
v -0.296902 -0.399891 -0.683677
v -0.296453 -0.401085 -0.687219
v -0.295704 -0.403099 -0.69031
v -0.289741 -0.419318 -0.693418
v -0.299729 -0.400593 -0.679934
v -0.303322 -0.405275 -0.68308
v -0.302963 -0.406228 -0.685908
v -0.300846 -0.401914 -0.676293
v -0.297625 -0.418052 -0.693049
v -0.296433 -0.417824 -0.693949
v -0.295083 -0.41746 -0.694513
v -0.294706 -0.405796 -0.69274
v -0.293666 -0.416986 -0.694702
v -0.29961 -0.400885 -0.683685
v -0.298577 -0.418128 -0.691875
v -0.299225 -0.418047 -0.690505
v -0.299524 -0.417815 -0.689035
v -0.301057 -0.413639 -0.688825
v -0.301852 -0.4109 -0.689136
v -0.302365 -0.407835 -0.688375
v -0.301447 -0.404339 -0.673252
v -0.302299 -0.405481 -0.673755
v -0.302778 -0.404151 -0.676759
v -0.302971 -0.403596 -0.680026
v -0.29916 -0.402078 -0.687227
v -0.298412 -0.404092 -0.690318
v -0.290958 -0.415992 -0.694693
v -0.293528 -0.408992 -0.694342
v -0.300945 -0.401581 -0.683647
v -0.301062 -0.401293 -0.679947
v -0.302866 -0.403853 -0.683334
v -0.30247 -0.404906 -0.686458
v -0.301961 -0.402913 -0.676474
v -0.298764 -0.414946 -0.693327
v -0.299608 -0.415316 -0.692126
v -0.297655 -0.414492 -0.694247
v -0.296356 -0.413987 -0.694824
v -0.297414 -0.406789 -0.692748
v -0.294958 -0.413463 -0.695017
v -0.300502 -0.402758 -0.687141
v -0.30013 -0.415578 -0.690726
v -0.300295 -0.415714 -0.689223
v -0.301027 -0.41314 -0.690259
v -0.301569 -0.409988 -0.690315
v -0.30181 -0.406682 -0.689183
v -0.302168 -0.402317 -0.679979
v -0.299763 -0.404745 -0.690189
v -0.29225 -0.41247 -0.695009
v -0.296236 -0.409986 -0.694351
v -0.302055 -0.402594 -0.683528
v -0.30163 -0.403723 -0.686878
v -0.299891 -0.411879 -0.692739
v -0.300629 -0.41254 -0.691594
v -0.298864 -0.411203 -0.693617
v -0.297617 -0.410557 -0.694166
v -0.298779 -0.407405 -0.692586
v -0.300922 -0.405628 -0.689802
v -0.30093 -0.40906 -0.691326
v -0.299978 -0.408179 -0.692101
vt -0.008009 0.027249
vt -0.008812 0.023376
vt -0.00719 0.02387
vt -0.009575 0.026526
vt -0.008354 0.019766
vt -0.006329 0.027706
vt -0.009099 0.029906
vt -0.010231 0.022734
vt -0.006699 0.019998
vt -0.009817 0.019466
vt -0.005476 0.024183
vt -0.010592 0.029002
vt -0.010922 0.025586
vt -0.008233 0.015943
vt -0.009707 0.016005
vt -0.004652 0.027866
vt -0.007466 0.030476
vt -0.010387 0.031658
vt -0.011957 0.024492
vt -0.011351 0.021988
vt -0.006569 0.015896
vt -0.004964 0.020146
vt -0.01089 0.016079
vt -0.003786 0.024293
vt -0.011792 0.030636
vt -0.011842 0.027827
vt -0.012766 0.026461
vt -0.010987 0.019118
vt -0.006808 0.011846
vt -0.008456 0.012167
vt -0.011068 0.013078
vt -0.001522 0.027876
vt -0.005804 0.030674
vt -0.008809 0.032303
vt -0.013095 0.031315
vt -0.012929 0.029306
vt -0.012611 0.02332
vt -0.013299 0.024995
vt -0.012095 0.021189
vt -0.005078 0.011646
vt -0.004828 0.01587
vt -0.009909 0.012587
vt -0.003267 0.0202
vt -0.011703 0.016161
vt -0.011854 0.013606
vt -0.000657 0.024303
vt -0.011785 0.032387
vt -0.014109 0.029921
vt -0.01372 0.027759
vt -0.014111 0.0261
vt -0.011785 0.018747
vt -0.007402 0.008122
vt -0.005696 0.007764
vt -0.009009 0.008695
vt -0.011508 0.010318
vt -0.012228 0.011258
vt -0.010595 0.025661
vt -0.002675 0.030684
vt -0.007166 0.032526
vt -0.010266 0.033062
vt -0.014412 0.030994
vt -0.014756 0.028299
vt -0.018023 0.021999
vt -0.017452 0.023982
vt -0.016722 0.025463
vt -0.018398 0.019651
vt -0.003383 0.011582
vt -0.00401 0.007645
vt -0.003129 0.015864
vt -0.01041 0.009444
vt -0.000138 0.020209
vt -0.018549 0.017096
vt -0.018467 0.01451
vt -0.018157 0.012068
vt -0.011223 0.021724
vt -0.009637 0.028985
vt -0.013197 0.032042
vt -0.0153 0.02963
vt -0.014992 0.02656
vt -0.015883 0.026342
vt -0.008308 0.004978
vt -0.006642 0.004486
vt -0.004968 0.004322
vt -0.009854 0.005764
vt -0.012179 0.007989
vt -0.0128 0.009275
vt -0.017641 0.009937
vt -0.013725 0.025651
vt -0.012766 0.028975
vt -0.008413 0.031468
vt -0.004037 0.032536
vt -0.008643 0.033296
vt -0.011739 0.032703
vt -0.015652 0.029694
vt -0.015802 0.028043
vt -0.018757 0.02018
vt -0.018317 0.02294
vt -0.017646 0.02527
vt -0.016788 0.02701
vt -0.018935 0.017179
vt -0.000253 0.011592
vt -0.000881 0.007655
vt -0.001839 0.004332
vt 0 0.015874
vt -0.011175 0.006791
vt -0.011476 0.017442
vt -0.018838 0.01414
vt -0.018474 0.01127
vt -0.014352 0.021714
vt -0.014527 0.030648
vt -0.016423 0.028453
vt -0.009466 0.002629
vt -0.007849 0.002037
vt -0.006192 0.001838
vt -0.012152 0.004809
vt -0.013037 0.006248
vt -0.01353 0.007794
vt -0.016953 0.008261
vt -0.017868 0.008766
vt -0.015278 0.025522
vt -0.014333 0.0288
vt -0.011542 0.031458
vt -0.007007 0.032942
vt -0.005514 0.033306
vt -0.010136 0.032932
vt -0.013125 0.031249
vt -0.015685 0.028298
vt -0.016731 0.027504
vt -0.018665 0.020675
vt -0.018868 0.017257
vt -0.018165 0.023818
vt -0.0174 0.026471
vt -0.010934 0.003574
vt -0.011338 0.013107
vt -0.010819 0.009013
vt -0.009954 0.00544
vt -0.003063 0.001848
vt -0.014605 0.017432
vt -0.018758 0.013796
vt -0.018343 0.010528
vt -0.015896 0.02164
vt -0.012174 0.002275
vt -0.010796 0.001235
vt -0.009236 0.000583
vt -0.008801 0.002632
vt -0.007598 0.000364
vt -0.014468 0.013097
vt -0.013274 0.003632
vt -0.014023 0.005215
vt -0.014369 0.006914
vt -0.016141 0.007156
vt -0.017059 0.006797
vt -0.017653 0.007676
vt -0.016591 0.025155
vt -0.017576 0.024573
vt -0.018129 0.021102
vt -0.018353 0.017326
vt -0.013948 0.009003
vt -0.013083 0.005431
vt -0.004469 0.000374
vt -0.007439 0.00078
vt -0.016011 0.01314
vt -0.016146 0.017416
vt -0.018231 0.013502
vt -0.017773 0.009893
vt -0.017185 0.021431
vt -0.01349 0.001953
vt -0.014466 0.003341
vt -0.012208 0.00089
vt -0.010708 0.000224
vt -0.01193 0.002623
vt -0.009091 0
vt -0.015498 0.009103
vt -0.015069 0.004959
vt -0.015259 0.006697
vt -0.016105 0.005499
vt -0.016732 0.005435
vt -0.01701 0.006742
vt -0.017424 0.01738
vt -0.014645 0.00558
vt -0.005962 0.00001
vt -0.010569 0.00077
vt -0.017294 0.013279
vt -0.016803 0.009407
vt -0.014793 0.002633
vt -0.015645 0.003956
vt -0.013606 0.001619
vt -0.012165 0.000983
vt -0.013508 0.00281
vt -0.015984 0.006027
vt -0.015994 0.004266
vt -0.014894 0.003371
vn -0.25383398964788867 -0.7739629684354689 0.5801289763406007
vn -0.45200800398309454 -0.832314007334351 0.32084600282729514
vn -0.20895706864355756 -0.8946482938969333 0.394894129724915
vn -0.48857081594685825 -0.7339867234944083 0.4717648222779692
vn -0.43007289490611 -0.8905937823718582 0.14791896385408282
vn -0.0007470001079587044 -0.7608161099554345 0.6489670937906782
vn -0.3136069487599216 -0.6123488999486275 0.7257268814238576
vn -0.6632818671028685 -0.7136508570107876 0.22529895485843018
vn -0.18203402449522813 -0.9661801300130717 0.18264602457758153
vn -0.6478041029898479 -0.7547731199961045 0.10328301642024529
vn 0.04938598975398855 -0.8956358141842482 0.44203790829128903
vn -0.5372702218416067 -0.6023132486982032 0.5903892437747211
vn -0.689080135686783 -0.6442721268636369 0.3317860653320007
vn -0.42426073251005636 -0.9048544295030349 -0.03523197778677329
vn -0.6437032007572201 -0.7648352385357042 -0.02594700809231506
vn 0.190462969962754 -0.7162118870487388 0.6713898941174583
vn -0.06752001745888948 -0.5802731500432786 0.8116182098629884
vn -0.38420199847087594 -0.4208199983251362 0.8217659967293715
vn -0.8423578194936894 -0.5114228904087348 0.16994096358386473
vn -0.8290242694325167 -0.5472801778658131 0.11490503734408586
vn -0.17489992616111458 -0.9836835847105192 -0.04214998220520835
vn 0.07946204087409242 -0.975545501806102 0.204931105413514
vn -0.8189055403861187 -0.5737336779897686 -0.01494599161150465
vn 0.24228103015514688 -0.8555641064865096 0.45750405694255997
vn -0.5947872918559505 -0.4462662189782014 0.6686363280929062
vn -0.7234419873292754 -0.5513639903431353 0.41548699272295314
vn -0.8601171343012802 -0.46340507235746387 0.21320003328969553
vn -0.8210251547427306 -0.5685331071542874 0.05184400977130079
vn -0.18804099531655705 -0.9459659764392988 -0.2641759934203005
vn -0.4349672013702873 -0.8741244046803575 -0.2161251000562187
vn -0.8228100677180943 -0.5625270462965403 -0.0809130066592215
vn 0.25294001791978915 -0.6949980492378333 0.6730520476830472
vn 0.12144405422368931 -0.5295992364613454 0.8395093748334641
vn -0.1463829487023736 -0.36631187163170476 0.9189056779838046
vn -0.6572016088202463 -0.27648083543298774 0.701173582647234
vn -0.7640252400892392 -0.4412591386623966 0.4706971479130718
vn -0.9133913444773899 -0.403319152108217 0.05522602082800074
vn -0.9193708387216833 -0.38715193208484616 0.06978998775726705
vn -0.9089023643363126 -0.4153911665108287 0.036697014710111484
vn 0.07275198499384973 -0.9529638034374179 -0.29422293931225857
vn 0.08743199266996435 -0.9950989165738956 -0.04619299612731773
vn -0.651258025163308 -0.7431520287139086 -0.15358400593417876
vn 0.27336812923481363 -0.9381604435154545 0.21242610042446294
vn -0.905495498670745 -0.42429776508675876 -0.007021996112258791
vn -0.9068099532602958 -0.42052497832488156 -0.029230998493346587
vn 0.30487112943763855 -0.8346553543655256 0.45869819474724066
vn -0.4608080967704017 -0.21242704461000247 0.8617021809587695
vn -0.8080649224536494 -0.3214589691510306 0.4936549526261579
vn -0.8810916963670428 -0.40649985991610726 0.24173391669608943
vn -0.9264324714236208 -0.36799318725669294 0.07939704040190894
vn -0.9062090520549151 -0.4225470242721582 0.015465000888348436
vn -0.2205619533017459 -0.8555978188494265 -0.468299900849682
vn 0.03642199543370188 -0.8520118931815718 -0.5222539345239836
vn -0.461462789404813 -0.8004976346813807 -0.38243382547081817
vn -0.8324719720335207 -0.5356779820041664 -0.1415609952443291
vn -0.9100631402889741 -0.41148506343166186 -0.049650007653698126
vn 0.9387702252969017 0.3445310826845413 0.0029660007118149693
vn 0.18377094024449944 -0.5079788348241048 0.841537726363113
vn 0.039930002610384076 -0.30844402016421985 0.9504040621317172
vn -0.2319621128569022 -0.13351306495832738 0.9635184687822
vn -0.7202599798381228 -0.10452699707402793 0.6857839808031921
vn -0.9038523950224192 -0.3445837693589613 0.2535998302574485
vn -0.9604495250341984 -0.27499715032847083 0.04374102391123416
vn -0.9554794705555955 -0.28868784003407055 0.06097796621126467
vn -0.9491312749913695 -0.30609608868507954 0.07385802139885077
vn -0.9637024961490013 -0.2659578609496869 0.023321987806603342
vn 0.2664319240475962 -0.9148197392100873 -0.3035109134773973
vn 0.22888107535098118 -0.8104732668195954 -0.5392091775155089
vn 0.28160610123163865 -0.9583713445149137 -0.047142016946591515
vn -0.6699529022160264 -0.6912018991145974 -0.27092996045601403
vn 0.33602597235766457 -0.9174319245297594 0.21308498247109756
vn -0.9650169898393363 -0.2621849972394542 0.0011119999882918102
vn -0.9643035747684956 -0.2639351573172777 -0.021374012739877164
vn -0.9616102915521108 -0.2710910821925243 -0.04260601291778286
vn -0.5382060932022336 -0.0013740002379382028 0.8428121459514777
vn -0.8525586406478874 -0.20012991564555843 0.4827957965023389
vn -0.9340955911435159 -0.3471472196925346 0.08339205277476075
vn -0.9418378217675692 -0.32603493830148017 0.08150298457645824
vn -0.2702451392116847 -0.7187373702439959 -0.640612329999355
vn -0.019079996939683215 -0.6991218878650531 -0.7147478853587368
vn 0.17151304873595424 -0.6524431853937149 -0.7381742097544458
vn -0.5019420911634838 -0.6889921251357947 -0.5228230949559232
vn -0.847233761914638 -0.4950148608934184 -0.1927569458324144
vn -0.9150329433214887 -0.39779497535998326 -0.06688699585691919
vn -0.9571212960209131 -0.2831630875774012 -0.06113501890799435
vn -0.3290750174814527 0.8940400474940907 0.3039770161481713
vn -0.352733967858706 0.7650189302910958 0.5388179509026411
vn -0.29144196493661934 0.7894659050193628 0.5401899350097527
vn -0.2953650170669296 0.6069890350733451 0.7377830426309497
vn -0.23394806949358252 0.6310911874637719 0.7395892196927915
vn 0.10207796212959347 -0.28634089376897964 0.9526746465625352
vn -0.04852599550918621 -0.06781799372381775 0.9965169077778453
vn -0.31842511132748846 0.10225903575170828 0.9424163294867124
vn -0.7796660881373578 0.05787700654270671 0.6235150704852651
vn -0.9268482732339844 -0.2818770830970944 0.24798707310635204
vn -0.9917908912471592 -0.10343498865804378 0.07517999175628882
vn -0.982128607418721 -0.1302849479218596 0.1358279457061853
vn -0.9673669477771805 -0.1709479907714584 0.18702398990360375
vn -0.9485117861329064 -0.2226529497969978 0.22527994920467134
vn -0.9956951895495155 -0.09222901755754752 0.009214001754060487
vn 0.3290750174814527 -0.8940400474940907 -0.3039770161481713
vn 0.29144196493661934 -0.7894659050193628 -0.5401899350097527
vn 0.23394806949358252 -0.6310911874637719 -0.7395892196927915
vn 0.3442818943237216 -0.937686712179921 -0.04704898555845703
vn -0.6985150084013894 -0.6125240073671326 -0.36998800445003066
vn -0.9935756653672498 -0.09742896718627041 -0.0575759806086145
vn -0.9855764947871208 -0.11868205958173199 -0.12063806056369945
vn -0.3902838874007731 0.8693657491828014 0.30311991254809895
vn -0.16051103186513474 0.4297080853069469 0.8885871764050093
vn -0.6111196967658429 0.19795790177440242 0.7663846197242611
vn -0.8944747559220233 -0.08553897665872592 0.43885988024700423
vn -0.33370689450358754 -0.5447108277978697 -0.7693697567753303
vn -0.08997401148531825 -0.5047140644275117 -0.858585109599684
vn 0.09823504599194019 -0.4514992113840792 -0.8868474152065371
vn -0.7349968274837699 -0.5124808797120395 -0.44400789578381095
vn -0.3442818943237216 0.937686712179921 0.04704898555845703
vn -0.8660891864057975 -0.443309095412097 -0.23101204972003572
vn -0.9213813545264217 -0.38038614636386836 -0.07976703069252458
vn -0.951141979520011 -0.2993299935548266 -0.07569999837002758
vn -0.972243118371093 -0.15453901881520402 -0.17567302138827945
vn -0.5262740004868035 0.6722350006218176 0.5207070004816539
vn -0.4707720600213231 0.5193450662141633 0.7132000909298079
vn -0.22208801535683162 0.4060450280769997 0.8864560612962226
vn 0.013429002549456089 -0.0451890085789983 0.9988881896359442
vn -0.13789605033192964 0.17588106419642446 0.9747053557665449
vn -0.39987787957739457 0.3249369021457542 0.8570377419044084
vn -0.6745806329604402 0.3719837976034849 0.6376276530665694
vn -0.8313708243600456 0.19966295781810997 0.5186108904354225
vn -0.9782142623663933 0.14513303892606502 0.14843603981196132
vn -0.9857686561550808 0.1668159418131083 0.020798992745125373
vn -0.9595191592758757 0.09318201546779659 0.265782044118627
vn -0.930957219954961 0.014504003426825113 0.36484008619986524
vn -0.553646835684841 -0.5472058375964454 -0.6277268136988698
vn 0.16051103186513474 -0.4297080853069469 -0.8885871764050093
vn -0.4054581429941649 0.9129173219613473 0.04675101648782393
vn -0.981667584266811 0.1567529336156169 -0.10843095407982602
vn -0.9661902589052074 0.11563103098507334 -0.23044706175175522
vn -0.5626039849756609 0.7731869793520421 0.2926749921841143
vn -0.07613500293766914 0.19904200768003624 0.9770290376986662
vn -0.6130520570371399 -0.3848020358012136 -0.6899960641958568
vn -0.406620194516982 -0.3453791652207978 -0.8457974046084301
vn -0.1714280087620286 -0.28203601441542536 -0.9439640482478916
vn 0.014042996155849696 -0.22133493941145022 -0.9750967330755942
vn -0.397219882474968 0.8927067358757899 -0.21281693703407517
vn -0.33602597235766457 0.9174319245297594 -0.21308498247109756
vn -0.7769131519622852 -0.39789007782631225 -0.4879440954406544
vn -0.8877527715661495 -0.3840849011684383 -0.2537199347135559
vn -0.9286749288737186 -0.3604469723937279 -0.08741199330520302
vn -0.9440802011976736 -0.3184890678748049 -0.08530701818020704
vn -0.9544838734693308 -0.20255697314813795 -0.21893197097739459
vn -0.9403915855112154 0.04625197961388938 -0.3369338514923945
vn -0.7242645043573349 0.5088443543448297 0.4653153240324429
vn -0.8718501334358013 0.3111690476241153 0.378221057886359
vn -0.8983457229048554 0.38479588130953635 0.21191293463535935
vn -0.9090521937458603 0.41552608856087697 0.031019006611065984
vn -0.3661331067618666 0.8101102362225084 -0.4578951335190354
vn -0.30487112943763855 0.8346553543655256 -0.45869819474724066
vn -0.31431480051813215 0.6707575742994805 -0.6717815736495931
vn -0.25294001791978915 0.6949980492378333 -0.6730520476830472
vn -0.18377094024449944 0.5079788348241048 -0.841537726363113
vn 0.07613500293766914 -0.19904200768003624 -0.9770290376986662
vn -0.5693139119277139 0.79576887689536 -0.20647896805791272
vn -0.5772839868217613 0.81532198138783 0.04464599898082096
vn -0.9032398901439066 0.40126495119635386 -0.15213198149702503
vn -0.8813050367442518 0.3429850143000744 -0.32505801355264413
vn -0.7567848130457949 0.5992128519719735 0.2611909354760521
vn -0.6761110796387908 -0.21284802507126413 -0.705386083087079
vn -0.821407049621612 -0.2765610167071899 -0.4988030301329412
vn -0.48401787740578955 -0.13432596597731938 -0.8646867809882688
vn -0.25789000075407037 -0.046264000135276144 -0.9650660028218528
vn -0.24529597566148917 0.4841449519626559 -0.8399009166641954
vn -0.07532601072506882 0.022364003184231505 -0.9969081419417852
vn -0.10207796212959347 0.28634089376897964 -0.9526746465625352
vn -0.5392381669616433 0.7158592216479457 -0.4435851373450695
vn -0.9107482425464059 -0.32137908558824335 -0.25933206906415873
vn -0.9364170527586747 -0.33933501911847486 -0.08930200503136435
vn -0.9335089918135929 -0.25946299772463927 -0.2474669978298381
vn -0.9060299523464499 -0.046655997546081324 -0.4206339778763359
vn -0.8447417093848268 0.24465791583071858 -0.47597683625043125
vn -0.7699260894650318 0.6369300740109604 0.03916500455095406
vn -0.489105052390246 0.5810390622377117 -0.6505150696796003
vn -0.013429002549456089 0.0451890085789983 -0.9988881896359442
vn -0.16378204785310876 0.2629900768392683 -0.9507952777991264
vn -0.7627918810982992 0.6194269034456 -0.1856309710644035
vn -0.7358690681315447 0.5478950507276874 -0.3978790368382292
vn -0.7385256855926964 -0.043062981667102304 -0.6728487135528881
vn -0.8654463227847098 -0.15676105846702626 -0.4758451774755332
vn -0.5606242091877124 0.07406602763652109 -0.8247513077423995
vn -0.34346900250818246 0.18653500136217166 -0.9204530067216081
vn -0.4223317658616566 0.4004967779668503 -0.8131655491856169
vn -0.6909919083882989 0.4272099433605094 -0.5831139226907613
vn -0.7960420842117045 0.11298401195235318 -0.5946020629017664
vn -0.6312190504593372 0.26559602123161385 -0.7287120582528801
vn 0.20895706864355756 0.8946482938969333 -0.394894129724915
vn 0.45200800398309454 0.832314007334351 -0.32084600282729514
vn 0.25383398964788867 0.7739629684354689 -0.5801289763406007
vn 0.48857081594685825 0.7339867234944083 -0.4717648222779692
vn 0.43007289490611 0.8905937823718582 -0.14791896385408282
vn 0.0007470001079587044 0.7608161099554345 -0.6489670937906782
vn 0.3136069487599216 0.6123488999486275 -0.7257268814238576
vn 0.6632818671028685 0.7136508570107876 -0.22529895485843018
vn 0.18203402449522813 0.9661801300130717 -0.18264602457758153
vn 0.6478041029898479 0.7547731199961045 -0.10328301642024529
vn -0.04938598975398855 0.8956358141842482 -0.44203790829128903
vn 0.5372702218416067 0.6023132486982032 -0.5903892437747211
vn 0.689080135686783 0.6442721268636369 -0.3317860653320007
vn 0.42426073251005636 0.9048544295030349 0.03523197778677329
vn 0.6437032007572201 0.7648352385357042 0.02594700809231506
vn -0.190462969962754 0.7162118870487388 -0.6713898941174583
vn 0.06752001745888948 0.5802731500432786 -0.8116182098629884
vn 0.38420199847087594 0.4208199983251362 -0.8217659967293715
vn 0.8423578194936894 0.5114228904087348 -0.16994096358386473
vn 0.8290242694325167 0.5472801778658131 -0.11490503734408586
vn 0.17489992616111458 0.9836835847105192 0.04214998220520835
vn -0.07946204087409242 0.975545501806102 -0.204931105413514
vn 0.8189055403861187 0.5737336779897686 0.01494599161150465
vn -0.24228103015514688 0.8555641064865096 -0.45750405694255997
vn 0.5947872918559505 0.4462662189782014 -0.6686363280929062
vn 0.7234419873292754 0.5513639903431353 -0.41548699272295314
vn 0.8601171343012802 0.46340507235746387 -0.21320003328969553
vn 0.8210251547427306 0.5685331071542874 -0.05184400977130079
vn 0.18804099531655705 0.9459659764392988 0.2641759934203005
vn 0.4349672013702873 0.8741244046803575 0.2161251000562187
vn 0.8228100677180943 0.5625270462965403 0.0809130066592215
vn -0.12144405422368931 0.5295992364613454 -0.8395093748334641
vn 0.1463829487023736 0.36631187163170476 -0.9189056779838046
vn 0.6572016088202463 0.27648083543298774 -0.701173582647234
vn 0.7640252400892392 0.4412591386623966 -0.4706971479130718
vn 0.9133913444773899 0.403319152108217 -0.05522602082800074
vn 0.9193708387216833 0.38715193208484616 -0.06978998775726705
vn 0.9089023643363126 0.4153911665108287 -0.036697014710111484
vn -0.07275198499384973 0.9529638034374179 0.29422293931225857
vn -0.08743199266996435 0.9950989165738956 0.04619299612731773
vn 0.651258025163308 0.7431520287139086 0.15358400593417876
vn -0.27336812923481363 0.9381604435154545 -0.21242610042446294
vn 0.905495498670745 0.42429776508675876 0.007021996112258791
vn 0.9068099532602958 0.42052497832488156 0.029230998493346587
vn 0.4608080967704017 0.21242704461000247 -0.8617021809587695
vn 0.8080649224536494 0.3214589691510306 -0.4936549526261579
vn 0.8810916963670428 0.40649985991610726 -0.24173391669608943
vn 0.9264324714236208 0.36799318725669294 -0.07939704040190894
vn 0.9062090520549151 0.4225470242721582 -0.015465000888348436
vn 0.2205619533017459 0.8555978188494265 0.468299900849682
vn -0.03642199543370188 0.8520118931815718 0.5222539345239836
vn 0.461462789404813 0.8004976346813807 0.38243382547081817
vn 0.8324719720335207 0.5356779820041664 0.1415609952443291
vn 0.9100631402889741 0.41148506343166186 0.049650007653698126
vn -0.9387702252969017 -0.3445310826845413 -0.0029660007118149693
vn -0.039930002610384076 0.30844402016421985 -0.9504040621317172
vn 0.2319621128569022 0.13351306495832738 -0.9635184687822
vn 0.7202599798381228 0.10452699707402793 -0.6857839808031921
vn 0.9038523950224192 0.3445837693589613 -0.2535998302574485
vn 0.9604495250341984 0.27499715032847083 -0.04374102391123416
vn 0.9554794705555955 0.28868784003407055 -0.06097796621126467
vn 0.9491312749913695 0.30609608868507954 -0.07385802139885077
vn 0.9637024961490013 0.2659578609496869 -0.023321987806603342
vn -0.2664319240475962 0.9148197392100873 0.3035109134773973
vn -0.22888107535098118 0.8104732668195954 0.5392091775155089
vn -0.28160610123163865 0.9583713445149137 0.047142016946591515
vn 0.6699529022160264 0.6912018991145974 0.27092996045601403
vn 0.9650169898393363 0.2621849972394542 -0.0011119999882918102
vn 0.9643035747684956 0.2639351573172777 0.021374012739877164
vn 0.9616102915521108 0.2710910821925243 0.04260601291778286
vn 0.5382060932022336 0.0013740002379382028 -0.8428121459514777
vn 0.8525586406478874 0.20012991564555843 -0.4827957965023389
vn 0.9340955911435159 0.3471472196925346 -0.08339205277476075
vn 0.9418378217675692 0.32603493830148017 -0.08150298457645824
vn 0.2702451392116847 0.7187373702439959 0.640612329999355
vn 0.019079996939683215 0.6991218878650531 0.7147478853587368
vn -0.17151304873595424 0.6524431853937149 0.7381742097544458
vn 0.5019420911634838 0.6889921251357947 0.5228230949559232
vn 0.847233761914638 0.4950148608934184 0.1927569458324144
vn 0.9150329433214887 0.39779497535998326 0.06688699585691919
vn 0.9571212960209131 0.2831630875774012 0.06113501890799435
vn 0.352733967858706 -0.7650189302910958 -0.5388179509026411
vn 0.2953650170669296 -0.6069890350733451 -0.7377830426309497
vn 0.04852599550918621 0.06781799372381775 -0.9965169077778453
vn 0.31842511132748846 -0.10225903575170828 -0.9424163294867124
vn 0.7796660881373578 -0.05787700654270671 -0.6235150704852651
vn 0.9268482732339844 0.2818770830970944 -0.24798707310635204
vn 0.9917908912471592 0.10343498865804378 -0.07517999175628882
vn 0.982128607418721 0.1302849479218596 -0.1358279457061853
vn 0.9673669477771805 0.1709479907714584 -0.18702398990360375
vn 0.9485117861329064 0.2226529497969978 -0.22527994920467134
vn 0.9956951895495155 0.09222901755754752 -0.009214001754060487
vn 0.6985150084013894 0.6125240073671326 0.36998800445003066
vn 0.9935756653672498 0.09742896718627041 0.0575759806086145
vn 0.9855764947871208 0.11868205958173199 0.12063806056369945
vn 0.3902838874007731 -0.8693657491828014 -0.30311991254809895
vn 0.6111196967658429 -0.19795790177440242 -0.7663846197242611
vn 0.8944747559220233 0.08553897665872592 -0.43885988024700423
vn 0.33370689450358754 0.5447108277978697 0.7693697567753303
vn 0.08997401148531825 0.5047140644275117 0.858585109599684
vn -0.09823504599194019 0.4514992113840792 0.8868474152065371
vn 0.7349968274837699 0.5124808797120395 0.44400789578381095
vn 0.8660891864057975 0.443309095412097 0.23101204972003572
vn 0.9213813545264217 0.38038614636386836 0.07976703069252458
vn 0.951141979520011 0.2993299935548266 0.07569999837002758
vn 0.972243118371093 0.15453901881520402 0.17567302138827945
vn 0.5262740004868035 -0.6722350006218176 -0.5207070004816539
vn 0.4707720600213231 -0.5193450662141633 -0.7132000909298079
vn 0.22208801535683162 -0.4060450280769997 -0.8864560612962226
vn 0.13789605033192964 -0.17588106419642446 -0.9747053557665449
vn 0.39987787957739457 -0.3249369021457542 -0.8570377419044084
vn 0.6745806329604402 -0.3719837976034849 -0.6376276530665694
vn 0.8313708243600456 -0.19966295781810997 -0.5186108904354225
vn 0.9782142623663933 -0.14513303892606502 -0.14843603981196132
vn 0.9857686561550808 -0.1668159418131083 -0.020798992745125373
vn 0.9595191592758757 -0.09318201546779659 -0.265782044118627
vn 0.930957219954961 -0.014504003426825113 -0.36484008619986524
vn 0.553646835684841 0.5472058375964454 0.6277268136988698
vn 0.4054581429941649 -0.9129173219613473 -0.04675101648782393
vn 0.981667584266811 -0.1567529336156169 0.10843095407982602
vn 0.9661902589052074 -0.11563103098507334 0.23044706175175522
vn 0.5626039849756609 -0.7731869793520421 -0.2926749921841143
vn 0.6130520570371399 0.3848020358012136 0.6899960641958568
vn 0.406620194516982 0.3453791652207978 0.8457974046084301
vn 0.1714280087620286 0.28203601441542536 0.9439640482478916
vn -0.014042996155849696 0.22133493941145022 0.9750967330755942
vn 0.397219882474968 -0.8927067358757899 0.21281693703407517
vn 0.7769131519622852 0.39789007782631225 0.4879440954406544
vn 0.8877527715661495 0.3840849011684383 0.2537199347135559
vn 0.9286749288737186 0.3604469723937279 0.08741199330520302
vn 0.9440802011976736 0.3184890678748049 0.08530701818020704
vn 0.9544838734693308 0.20255697314813795 0.21893197097739459
vn 0.9403915855112154 -0.04625197961388938 0.3369338514923945
vn 0.7242645043573349 -0.5088443543448297 -0.4653153240324429
vn 0.8718501334358013 -0.3111690476241153 -0.378221057886359
vn 0.8983457229048554 -0.38479588130953635 -0.21191293463535935
vn 0.9090521937458603 -0.41552608856087697 -0.031019006611065984
vn 0.3661331067618666 -0.8101102362225084 0.4578951335190354
vn 0.31431480051813215 -0.6707575742994805 0.6717815736495931
vn 0.5693139119277139 -0.79576887689536 0.20647896805791272
vn 0.5772839868217613 -0.81532198138783 -0.04464599898082096
vn 0.9032398901439066 -0.40126495119635386 0.15213198149702503
vn 0.8813050367442518 -0.3429850143000744 0.32505801355264413
vn 0.7567848130457949 -0.5992128519719735 -0.2611909354760521
vn 0.6761110796387908 0.21284802507126413 0.705386083087079
vn 0.821407049621612 0.2765610167071899 0.4988030301329412
vn 0.48401787740578955 0.13432596597731938 0.8646867809882688
vn 0.25789000075407037 0.046264000135276144 0.9650660028218528
vn 0.24529597566148917 -0.4841449519626559 0.8399009166641954
vn 0.07532601072506882 -0.022364003184231505 0.9969081419417852
vn 0.5392381669616433 -0.7158592216479457 0.4435851373450695
vn 0.9107482425464059 0.32137908558824335 0.25933206906415873
vn 0.9364170527586747 0.33933501911847486 0.08930200503136435
vn 0.9335089918135929 0.25946299772463927 0.2474669978298381
vn 0.9060299523464499 0.046655997546081324 0.4206339778763359
vn 0.8447417093848268 -0.24465791583071858 0.47597683625043125
vn 0.7699260894650318 -0.6369300740109604 -0.03916500455095406
vn 0.489105052390246 -0.5810390622377117 0.6505150696796003
vn 0.16378204785310876 -0.2629900768392683 0.9507952777991264
vn 0.7627918810982992 -0.6194269034456 0.1856309710644035
vn 0.7358690681315447 -0.5478950507276874 0.3978790368382292
vn 0.7385256855926964 0.043062981667102304 0.6728487135528881
vn 0.8654463227847098 0.15676105846702626 0.4758451774755332
vn 0.5606242091877124 -0.07406602763652109 0.8247513077423995
vn 0.34346900250818246 -0.18653500136217166 0.9204530067216081
vn 0.4223317658616566 -0.4004967779668503 0.8131655491856169
vn 0.6909919083882989 -0.4272099433605094 0.5831139226907613
vn 0.7960420842117045 -0.11298401195235318 0.5946020629017664
vn 0.6312190504593372 -0.26559602123161385 0.7287120582528801
usemtl material_0_0
f 1/1/1 2/2/2 3/3/3
f 2/2/2 1/1/1 4/4/4
f 5/5/5 3/3/3 2/2/2
f 3/3/3 6/6/6 1/1/1
f 7/7/7 4/4/4 1/1/1
f 4/4/4 8/8/8 2/2/2
f 3/3/3 5/5/5 9/9/9
f 2/2/2 10/10/10 5/5/5
f 6/6/6 3/3/3 11/11/11
f 6/6/6 7/7/7 1/1/1
f 4/4/4 7/7/7 12/12/12
f 8/8/8 4/4/4 13/13/13
f 10/10/10 2/2/2 8/8/8
f 14/14/14 9/9/9 5/5/5
f 9/9/9 11/11/11 3/3/3
f 15/15/15 5/5/5 10/10/10
f 11/11/11 16/16/16 6/6/6
f 7/7/7 6/6/6 17/17/17
f 18/18/18 12/12/12 7/7/7
f 12/12/12 13/13/13 4/4/4
f 19/19/19 8/8/8 13/13/13
f 20/20/20 10/10/10 8/8/8
f 9/9/9 14/14/14 21/21/21
f 5/5/5 15/15/15 14/14/14
f 11/11/11 9/9/9 22/22/22
f 10/10/10 23/23/23 15/15/15
f 16/16/16 11/11/11 24/24/24
f 16/16/16 17/17/17 6/6/6
f 17/17/17 18/18/18 7/7/7
f 12/12/12 18/18/18 25/25/25
f 13/13/13 12/12/12 26/26/26
f 8/8/8 19/19/19 20/20/20
f 13/13/13 27/27/27 19/19/19
f 10/10/10 20/20/20 28/28/28
f 14/14/14 29/29/29 21/21/21
f 21/21/21 22/22/22 9/9/9
f 15/15/15 30/30/30 14/14/14
f 22/22/22 24/24/24 11/11/11
f 23/23/23 10/10/10 28/28/28
f 31/31/31 15/15/15 23/23/23
f 24/24/24 32/32/32 16/16/16
f 17/17/17 16/16/16 33/33/33
f 18/18/18 17/17/17 34/34/34
f 18/18/18 35/35/35 25/25/25
f 36/36/36 12/12/12 25/25/25
f 12/12/12 36/36/36 26/26/26
f 27/27/27 13/13/13 26/26/26
f 37/37/37 20/20/20 19/19/19
f 38/38/38 19/19/19 27/27/27
f 39/39/39 28/28/28 20/20/20
f 29/29/29 14/14/14 30/30/30
f 40/40/40 21/21/21 29/29/29
f 22/22/22 21/21/21 41/41/41
f 30/30/30 15/15/15 42/42/42
f 24/24/24 22/22/22 43/43/43
f 28/28/28 44/44/44 23/23/23
f 15/15/15 31/31/31 42/42/42
f 23/23/23 45/45/45 31/31/31
f 32/32/32 24/24/24 46/46/46
f 32/32/32 33/33/33 16/16/16
f 33/33/33 34/34/34 17/17/17
f 34/34/34 47/47/47 18/18/18
f 35/35/35 18/18/18 47/47/47
f 48/48/48 25/25/25 35/35/35
f 25/25/25 48/48/48 36/36/36
f 49/49/49 26/26/26 36/36/36
f 26/26/26 49/49/49 27/27/27
f 20/20/20 37/37/37 39/39/39
f 19/19/19 38/38/38 37/37/37
f 27/27/27 50/50/50 38/38/38
f 28/28/28 39/39/39 51/51/51
f 30/30/30 52/52/52 29/29/29
f 21/21/21 40/40/40 41/41/41
f 29/29/29 53/53/53 40/40/40
f 41/41/41 43/43/43 22/22/22
f 42/42/42 54/54/54 30/30/30
f 43/43/43 46/46/46 24/24/24
f 44/44/44 28/28/28 51/51/51
f 45/45/45 23/23/23 44/44/44
f 55/55/55 42/42/42 31/31/31
f 56/56/56 31/31/31 45/45/45
f 46/46/57 57/57/57 32/32/57
f 33/33/33 32/32/32 58/58/58
f 34/34/34 33/33/33 59/59/59
f 47/47/47 34/34/34 60/60/60
f 47/47/47 61/61/61 35/35/35
f 61/61/61 48/48/48 35/35/35
f 62/62/62 36/36/36 48/48/48
f 36/36/36 62/62/62 49/49/49
f 50/50/50 27/27/27 49/49/49
f 63/63/63 39/39/39 37/37/37
f 64/64/64 37/37/37 38/38/38
f 65/65/65 38/38/38 50/50/50
f 66/66/66 51/51/51 39/39/39
f 52/52/52 30/30/30 54/54/54
f 53/53/53 29/29/29 52/52/52
f 67/67/67 41/41/41 40/40/40
f 68/68/68 40/40/40 53/53/53
f 43/43/43 41/41/41 69/69/69
f 54/54/54 42/42/42 70/70/70
f 46/46/46 43/43/43 71/71/71
f 72/72/72 44/44/44 51/51/51
f 73/73/73 45/45/45 44/44/44
f 42/42/42 55/55/55 70/70/70
f 31/31/31 56/56/56 55/55/55
f 74/74/74 56/56/56 45/45/45
f 46/46/57 75/75/57 57/57/57
f 32/32/57 57/57/57 76/76/57
f 32/32/57 76/76/57 58/58/57
f 58/58/58 59/59/59 33/33/33
f 59/59/59 60/60/60 34/34/34
f 60/60/60 77/77/75 47/47/47
f 61/61/61 47/47/47 77/77/75
f 48/48/48 61/61/61 78/78/76
f 78/78/76 62/62/62 48/48/48
f 79/79/77 49/49/49 62/62/62
f 49/49/49 79/79/77 50/50/50
f 66/66/66 39/39/39 63/63/63
f 63/63/63 37/37/37 64/64/64
f 64/64/64 38/38/38 65/65/65
f 65/65/65 50/50/50 80/80/78
f 72/72/72 51/51/51 66/66/66
f 54/54/54 81/81/79 52/52/52
f 52/52/52 82/82/80 53/53/53
f 41/41/41 67/67/67 69/69/69
f 40/40/40 68/68/68 67/67/67
f 53/53/53 83/83/81 68/68/68
f 69/69/69 71/71/71 43/43/43
f 70/70/70 84/84/82 54/54/54
f 71/71/57 75/75/57 46/46/57
f 73/73/73 44/44/44 72/72/72
f 74/74/74 45/45/45 73/73/73
f 85/85/83 70/70/70 55/55/55
f 86/86/84 55/55/55 56/56/56
f 87/87/85 56/56/56 74/74/74
f 75/75/86 88/88/87 57/57/88
f 57/57/88 89/89/89 76/76/90
f 58/58/57 76/76/57 90/90/57
f 59/59/59 58/58/58 91/91/91
f 60/60/60 59/59/59 92/92/92
f 77/77/75 60/60/60 93/93/93
f 77/77/75 94/94/94 61/61/61
f 94/94/94 78/78/76 61/61/61
f 62/62/62 78/78/76 95/95/95
f 95/95/95 79/79/77 62/62/62
f 80/80/78 50/50/50 79/79/77
f 63/63/63 96/96/96 66/66/66
f 64/64/64 97/97/97 63/63/63
f 65/65/65 98/98/98 64/64/64
f 80/80/78 99/99/99 65/65/65
f 66/66/66 100/100/100 72/72/72
f 81/81/79 54/54/54 84/84/82
f 82/82/80 52/52/52 81/81/79
f 83/83/81 53/53/53 82/82/80
f 101/101/101 69/69/69 67/67/67
f 102/102/102 67/67/67 68/68/68
f 103/103/103 68/68/68 83/83/81
f 71/71/71 69/69/69 104/104/104
f 84/84/82 70/70/70 105/105/105
f 71/71/57 106/106/57 75/75/57
f 100/100/100 73/73/73 72/72/72
f 107/107/106 74/74/74 73/73/73
f 70/70/70 85/85/83 105/105/105
f 55/55/55 86/86/84 85/85/83
f 87/87/85 86/86/84 56/56/56
f 108/108/107 87/87/85 74/74/74
f 88/88/87 75/75/86 109/109/108
f 89/89/89 57/57/88 88/88/87
f 89/89/89 90/90/109 76/76/90
f 58/58/57 90/90/57 91/91/57
f 91/91/91 92/92/92 59/59/59
f 92/92/92 93/93/93 60/60/60
f 93/93/93 110/110/110 77/77/75
f 94/94/94 77/77/75 110/110/110
f 78/78/76 94/94/94 111/111/111
f 111/111/111 95/95/95 78/78/76
f 79/79/77 95/95/95 80/80/78
f 96/96/96 63/63/63 97/97/97
f 100/100/100 66/66/66 96/96/96
f 97/97/97 64/64/64 98/98/98
f 98/98/98 65/65/65 99/99/99
f 99/99/99 80/80/78 95/95/95
f 84/84/82 112/112/112 81/81/79
f 112/112/112 82/82/80 81/81/79
f 113/113/113 83/83/81 82/82/80
f 69/69/69 101/101/101 104/104/104
f 67/67/67 102/102/102 101/101/101
f 68/68/68 103/103/103 102/102/102
f 114/114/114 103/103/103 83/83/81
f 104/104/57 106/106/57 71/71/57
f 115/115/115 84/84/82 105/105/105
f 106/106/116 109/109/108 75/75/86
f 73/73/73 100/100/100 107/107/106
f 74/74/74 107/107/106 108/108/107
f 116/116/117 105/105/105 85/85/83
f 117/117/118 85/85/83 86/86/84
f 118/118/119 86/86/84 87/87/85
f 87/87/85 108/108/107 119/119/120
f 109/109/108 120/120/121 88/88/87
f 88/88/87 121/121/122 89/89/89
f 90/90/109 89/89/89 122/122/123
f 91/91/57 90/90/57 123/123/57
f 92/92/92 91/91/91 124/124/124
f 93/93/93 92/92/92 125/125/125
f 110/110/110 93/93/93 126/126/126
f 127/127/127 94/94/94 110/110/110
f 128/128/128 111/111/111 94/94/94
f 95/95/95 111/111/111 99/99/99
f 97/97/97 129/129/129 96/96/96
f 96/96/96 130/130/130 100/100/100
f 98/98/98 131/131/131 97/97/97
f 99/99/99 132/132/132 98/98/98
f 112/112/112 84/84/82 133/133/133
f 82/82/80 112/112/112 113/113/113
f 83/83/81 113/113/113 114/114/114
f 101/101/57 134/134/57 104/104/57
f 102/102/57 135/135/57 101/101/57
f 103/103/57 136/136/57 102/102/57
f 103/103/103 114/114/114 137/137/134
f 104/104/57 134/134/57 106/106/57
f 84/84/82 115/115/115 133/133/133
f 105/105/105 116/116/117 115/115/115
f 109/109/108 106/106/116 138/138/135
f 130/130/130 107/107/106 100/100/100
f 139/139/136 108/108/107 107/107/106
f 85/85/83 117/117/118 116/116/117
f 118/118/119 117/117/118 86/86/84
f 119/119/120 118/118/119 87/87/85
f 140/140/137 119/119/120 108/108/107
f 120/120/121 109/109/108 141/141/138
f 121/121/122 88/88/87 120/120/121
f 121/121/122 122/122/123 89/89/89
f 122/122/123 123/123/139 90/90/109
f 91/91/57 123/123/57 124/124/57
f 124/124/124 125/125/125 92/92/92
f 125/125/125 126/126/126 93/93/93
f 126/126/126 127/127/127 110/110/110
f 94/94/94 127/127/127 128/128/128
f 111/111/111 128/128/128 132/132/132
f 132/132/132 99/99/99 111/111/111
f 129/129/129 97/97/97 131/131/131
f 130/130/130 96/96/96 129/129/129
f 131/131/131 98/98/98 132/132/132
f 142/142/140 112/112/112 133/133/133
f 143/143/141 113/113/113 112/112/112
f 144/144/142 114/114/114 113/113/113
f 101/101/57 135/135/57 134/134/57
f 102/102/57 136/136/57 135/135/57
f 103/103/57 145/145/57 136/136/57
f 146/146/143 137/137/134 114/114/114
f 137/137/57 145/145/57 103/103/57
f 147/147/144 106/106/116 134/134/145
f 148/148/146 133/133/133 115/115/115
f 149/149/147 115/115/115 116/116/117
f 106/106/116 147/147/144 138/138/135
f 138/138/135 141/141/138 109/109/108
f 107/107/106 130/130/130 139/139/136
f 108/108/107 139/139/136 140/140/137
f 150/150/148 116/116/117 117/117/118
f 151/151/149 117/117/118 118/118/119
f 118/118/119 119/119/120 152/152/150
f 119/119/120 140/140/137 153/153/151
f 141/141/138 154/154/152 120/120/121
f 120/120/121 127/127/127 121/121/122
f 122/122/123 121/121/122 126/126/126
f 123/123/139 122/122/123 125/125/125
f 125/125/125 124/124/124 123/123/139
f 126/126/126 125/125/125 122/122/123
f 127/127/127 126/126/126 121/121/122
f 154/154/152 128/128/128 127/127/127
f 155/155/153 132/132/132 128/128/128
f 131/131/131 156/156/154 129/129/129
f 129/129/129 157/157/155 130/130/130
f 132/132/132 155/155/153 131/131/131
f 112/112/112 142/142/140 143/143/141
f 133/133/133 148/148/146 142/142/140
f 113/113/113 143/143/141 144/144/142
f 114/114/114 144/144/142 146/146/143
f 158/158/156 134/134/145 135/135/157
f 159/159/158 135/135/157 136/136/159
f 145/145/160 159/159/158 136/136/159
f 137/137/134 146/146/143 160/160/161
f 137/137/57 161/161/57 145/145/57
f 134/134/145 158/158/156 147/147/144
f 115/115/115 149/149/147 148/148/146
f 116/116/117 150/150/148 149/149/147
f 162/162/162 138/138/135 147/147/144
f 141/141/138 138/138/135 163/163/163
f 157/157/155 139/139/136 130/130/130
f 164/164/164 140/140/137 139/139/136
f 151/151/149 150/150/148 117/117/118
f 152/152/150 151/151/149 118/118/119
f 153/153/151 152/152/150 119/119/120
f 165/165/165 153/153/151 140/140/137
f 154/154/152 141/141/138 166/166/166
f 127/127/127 120/120/121 154/154/152
f 128/128/128 154/154/152 155/155/153
f 156/156/154 131/131/131 155/155/153
f 157/157/155 129/129/129 156/156/154
f 167/167/167 143/143/141 142/142/140
f 168/168/168 142/142/140 148/148/146
f 169/169/169 144/144/142 143/143/141
f 170/170/170 146/146/143 144/144/142
f 135/135/157 159/159/158 158/158/156
f 159/159/158 145/145/160 171/171/171
f 172/172/172 160/160/161 146/146/143
f 160/160/57 161/161/57 137/137/57
f 161/161/173 171/171/171 145/145/160
f 173/173/174 147/147/144 158/158/156
f 174/174/175 148/148/146 149/149/147
f 175/175/176 149/149/147 150/150/148
f 138/138/135 162/162/162 163/163/163
f 147/147/144 173/173/174 162/162/162
f 163/163/163 166/166/166 141/141/138
f 139/139/136 157/157/155 164/164/164
f 140/140/137 164/164/164 165/165/165
f 150/150/148 151/151/149 175/175/176
f 151/151/149 152/152/150 176/176/177
f 152/152/150 153/153/151 177/177/178
f 153/153/151 165/165/165 178/178/179
f 166/166/166 155/155/153 154/154/152
f 155/155/153 166/166/166 156/156/154
f 156/156/154 179/179/180 157/157/155
f 143/143/141 167/167/167 169/169/169
f 142/142/140 168/168/168 167/167/167
f 148/148/146 174/174/175 168/168/168
f 144/144/142 169/169/169 170/170/170
f 146/146/143 170/170/170 172/172/172
f 180/180/181 158/158/156 159/159/158
f 171/171/171 180/180/181 159/159/158
f 160/160/161 172/172/172 181/181/182
f 161/161/57 160/160/57 181/181/57
f 171/171/171 161/161/173 182/182/183
f 158/158/156 180/180/181 173/173/174
f 149/149/147 175/175/176 174/174/175
f 183/183/184 163/163/163 162/162/162
f 184/184/185 162/162/162 173/173/174
f 166/166/166 163/163/163 179/179/180
f 179/179/180 164/164/164 157/157/155
f 183/183/184 165/165/165 164/164/164
f 176/176/177 175/175/176 151/151/149
f 177/177/178 176/176/177 152/152/150
f 178/178/179 177/177/178 153/153/151
f 184/184/185 178/178/179 165/165/165
f 179/179/180 156/156/154 166/166/166
f 185/185/186 169/169/169 167/167/167
f 168/168/168 185/185/186 167/167/167
f 174/174/175 186/186/187 168/168/168
f 187/187/188 170/170/170 169/169/169
f 188/188/189 172/172/172 170/170/170
f 180/180/181 171/171/171 189/189/190
f 182/182/183 181/181/182 172/172/172
f 181/181/182 182/182/183 161/161/173
f 182/182/183 189/189/190 171/171/171
f 190/190/191 173/173/174 180/180/181
f 175/175/176 176/176/177 174/174/175
f 163/163/163 183/183/184 179/179/180
f 162/162/162 184/184/185 183/183/184
f 173/173/174 190/190/191 184/184/185
f 164/164/164 179/179/180 183/183/184
f 165/165/165 183/183/184 184/184/185
f 176/176/177 177/177/178 186/186/187
f 177/177/178 178/178/179 191/191/192
f 178/178/179 184/184/185 190/190/191
f 169/169/169 185/185/186 187/187/188
f 185/185/186 168/168/168 186/186/187
f 186/186/187 174/174/175 176/176/177
f 170/170/170 187/187/188 188/188/189
f 172/172/172 188/188/189 182/182/183
f 189/189/190 190/190/191 180/180/181
f 189/189/190 182/182/183 188/188/189
f 191/191/192 186/186/187 177/177/178
f 190/190/191 191/191/192 178/178/179
f 191/191/192 187/187/188 185/185/186
f 186/186/187 191/191/192 185/185/186
f 192/192/193 188/188/189 187/187/188
f 190/190/191 189/189/190 192/192/193
f 188/188/189 192/192/193 189/189/190
f 191/191/192 190/190/191 192/192/193
f 187/187/188 191/191/192 192/192/193
usemtl material_1_0
f 3//194 2//195 1//196
f 4//197 1//196 2//195
f 2//195 3//194 5//198
f 1//196 6//199 3//194
f 1//196 4//197 7//200
f 2//195 8//201 4//197
f 9//202 5//198 3//194
f 5//198 10//203 2//195
f 11//204 3//194 6//199
f 1//196 7//200 6//199
f 12//205 7//200 4//197
f 13//206 4//197 8//201
f 8//201 2//195 10//203
f 5//198 9//202 14//207
f 3//194 11//204 9//202
f 10//203 5//198 15//208
f 6//199 16//209 11//204
f 17//210 6//199 7//200
f 7//200 12//205 18//211
f 4//197 13//206 12//205
f 13//206 8//201 19//212
f 8//201 10//203 20//213
f 21//214 14//207 9//202
f 14//207 15//208 5//198
f 22//215 9//202 11//204
f 15//208 23//216 10//203
f 24//217 11//204 16//209
f 6//199 17//210 16//209
f 7//200 18//211 17//210
f 25//218 18//211 12//205
f 26//219 12//205 13//206
f 20//213 19//212 8//201
f 19//212 27//220 13//206
f 28//221 20//213 10//203
f 21//214 29//222 14//207
f 9//202 22//215 21//214
f 14//207 30//223 15//208
f 11//204 24//217 22//215
f 28//221 10//203 23//216
f 23//216 15//208 31//224
f 16//209 32//159 24//217
f 33//225 16//209 17//210
f 34//226 17//210 18//211
f 25//218 35//227 18//211
f 25//218 12//205 36//228
f 26//219 36//228 12//205
f 26//219 13//206 27//220
f 19//212 20//213 37//229
f 27//220 19//212 38//230
f 20//213 28//221 39//231
f 30//223 14//207 29//222
f 29//222 21//214 40//232
f 41//233 21//214 22//215
f 42//234 15//208 30//223
f 43//235 22//215 24//217
f 23//216 44//236 28//221
f 42//234 31//224 15//208
f 31//224 45//237 23//216
f 46//157 24//217 32//159
f 16//209 33//225 32//159
f 17//210 34//226 33//225
f 18//211 47//238 34//226
f 47//238 18//211 35//227
f 35//227 25//218 48//239
f 36//228 48//239 25//218
f 36//228 26//219 49//240
f 27//220 49//240 26//219
f 39//231 37//229 20//213
f 37//229 38//230 19//212
f 38//230 50//241 27//220
f 51//242 39//231 28//221
f 29//222 52//243 30//223
f 41//233 40//232 21//214
f 40//232 53//244 29//222
f 22//215 43//235 41//233
f 30//223 54//245 42//234
f 24//217 46//157 43//235
f 51//242 28//221 44//236
f 44//236 23//216 45//237
f 31//224 42//234 55//246
f 45//237 31//224 56//247
f 32//248 57//248 46//248
f 58//160 32//159 33//225
f 59//249 33//225 34//226
f 60//250 34//226 47//238
f 35//227 61//251 47//238
f 35//227 48//239 61//251
f 48//239 36//228 62//252
f 49//240 62//252 36//228
f 49//240 27//220 50//241
f 37//229 39//231 63//253
f 38//230 37//229 64//254
f 50//241 38//230 65//255
f 39//231 51//242 66//256
f 54//245 30//223 52//243
f 52//243 29//222 53//244
f 40//232 41//233 67//257
f 53//244 40//232 68//258
f 69//259 41//233 43//235
f 70//260 42//234 54//245
f 71//145 43//235 46//157
f 51//242 44//236 72//261
f 44//236 45//237 73//262
f 70//260 55//246 42//234
f 55//246 56//247 31//224
f 45//237 56//247 74//263
f 57//248 75//248 46//248
f 76//248 57//248 32//248
f 58//248 76//248 32//248
f 33//225 59//249 58//160
f 34//226 60//250 59//249
f 47//238 77//264 60//250
f 77//264 47//238 61//251
f 78//265 61//251 48//239
f 48//239 62//252 78//265
f 62//252 49//240 79//266
f 50//241 79//266 49//240
f 63//253 39//231 66//256
f 64//254 37//229 63//253
f 65//255 38//230 64//254
f 80//267 50//241 65//255
f 66//256 51//242 72//261
f 52//243 81//268 54//245
f 53//244 82//269 52//243
f 69//259 67//257 41//233
f 67//257 68//258 40//232
f 68//258 83//270 53//244
f 43//235 71//145 69//259
f 54//245 84//271 70//260
f 46//248 75//248 71//248
f 72//261 44//236 73//262
f 73//262 45//237 74//263
f 55//246 70//260 85//272
f 56//247 55//246 86//273
f 74//263 56//247 87//274
f 57//102 88//275 75//101
f 76//103 89//276 57//102
f 90//248 76//248 58//248
f 91//173 58//160 59//249
f 92//277 59//249 60//250
f 93//278 60//250 77//264
f 61//251 94//279 77//264
f 61//251 78//265 94//279
f 95//280 78//265 62//252
f 62//252 79//266 95//280
f 79//266 50//241 80//267
f 66//256 96//281 63//253
f 63//253 97//282 64//254
f 64//254 98//283 65//255
f 65//255 99//284 80//267
f 72//261 100//285 66//256
f 84//271 54//245 81//268
f 81//268 52//243 82//269
f 82//269 53//244 83//270
f 67//257 69//259 101//86
f 68//258 67//257 102//88
f 83//270 68//258 103//90
f 104//116 69//259 71//145
f 105//286 70//260 84//271
f 75//248 106//248 71//248
f 72//261 73//262 100//285
f 73//262 74//263 107//287
f 105//286 85//272 70//260
f 85//272 86//273 55//246
f 56//247 86//273 87//274
f 74//263 87//274 108//288
f 109//289 75//101 88//275
f 88//275 57//102 89//276
f 76//103 90//134 89//276
f 91//248 90//248 58//248
f 59//249 92//277 91//173
f 60//250 93//278 92//277
f 77//264 110//290 93//278
f 110//290 77//264 94//279
f 111//291 94//279 78//265
f 78//265 95//280 111//291
f 80//267 95//280 79//266
f 97//282 63//253 96//281
f 96//281 66//256 100//285
f 98//283 64//254 97//282
f 99//284 65//255 98//283
f 95//280 80//267 99//284
f 81//268 112//292 84//271
f 81//268 82//269 112//292
f 82//269 83//270 113//293
f 104//116 101//86 69//259
f 101//86 102//88 67//257
f 102//88 103//90 68//258
f 83//270 103//90 114//294
f 71//248 106//248 104//248
f 105//286 84//271 115//295
f 75//101 109//289 106//104
f 107//287 100//285 73//262
f 108//288 107//287 74//263
f 85//272 105//286 116//296
f 86//273 85//272 117//297
f 87//274 86//273 118//298
f 119//299 108//288 87//274
f 88//275 120//300 109//289
f 89//276 121//301 88//275
f 122//302 89//276 90//134
f 123//248 90//248 91//248
f 124//182 91//173 92//277
f 125//303 92//277 93//278
f 126//304 93//278 110//290
f 110//290 94//279 127//305
f 94//279 111//291 128//306
f 99//284 111//291 95//280
f 96//281 129//307 97//282
f 100//285 130//308 96//281
f 97//282 131//309 98//283
f 98//283 132//310 99//284
f 133//311 84//271 112//292
f 113//293 112//292 82//269
f 114//294 113//293 83//270
f 104//248 134//248 101//248
f 101//248 135//248 102//248
f 102//248 136//248 103//248
f 137//109 114//294 103//90
f 106//248 134//248 104//248
f 133//311 115//295 84//271
f 115//295 116//296 105//286
f 138//312 106//104 109//289
f 100//285 107//287 130//308
f 107//287 108//288 139//313
f 116//296 117//297 85//272
f 86//273 117//297 118//298
f 87//274 118//298 119//299
f 108//288 119//299 140//314
f 141//315 109//289 120//300
f 120//300 88//275 121//301
f 89//276 122//302 121//301
f 90//134 123//161 122//302
f 124//248 123//248 91//248
f 92//277 125//303 124//182
f 93//278 126//304 125//303
f 110//290 127//305 126//304
f 128//306 127//305 94//279
f 132//310 128//306 111//291
f 111//291 99//284 132//310
f 131//309 97//282 129//307
f 129//307 96//281 130//308
f 132//310 98//283 131//309
f 133//311 112//292 142//316
f 112//292 113//293 143//317
f 113//293 114//294 144//318
f 134//248 135//248 101//248
f 135//248 136//248 102//248
f 136//248 145//248 103//248
f 114//294 137//109 146//319
f 103//248 145//248 137//248
f 134//71 106//104 147//320
f 115//295 133//311 148//321
f 116//296 115//295 149//322
f 138//312 147//320 106//104
f 109//289 141//315 138//312
f 139//313 130//308 107//287
f 140//314 139//313 108//288
f 117//297 116//296 150//323
f 118//298 117//297 151//324
f 152//325 119//299 118//298
f 153//326 140//314 119//299
f 120//300 154//327 141//315
f 121//301 127//305 120//300
f 126//304 121//301 122//302
f 125//303 122//302 123//161
f 123//161 124//182 125//303
f 122//302 125//303 126//304
f 121//301 126//304 127//305
f 127//305 128//306 154//327
f 128//306 132//310 155//328
f 129//307 156//329 131//309
f 130//308 157//330 129//307
f 131//309 155//328 132//310
f 143//317 142//316 112//292
f 142//316 148//321 133//311
f 144//318 143//317 113//293
f 146//319 144//318 114//294
f 135//46 134//71 158//331
f 136//32 135//46 159//332
f 136//32 159//332 145//58
f 160//139 146//319 137//109
f 145//248 161//248 137//248
f 147//320 158//331 134//71
f 148//321 149//322 115//295
f 149//322 150//323 116//296
f 147//320 138//312 162//333
f 163//334 138//312 141//315
f 130//308 139//313 157//330
f 139//313 140//314 164//335
f 117//297 150//323 151//324
f 118//298 151//324 152//325
f 119//299 152//325 153//326
f 140//314 153//326 165//336
f 166//337 141//315 154//327
f 154//327 120//300 127//305
f 155//328 154//327 128//306
f 155//328 131//309 156//329
f 156//329 129//307 157//330
f 142//316 143//317 167//338
f 148//321 142//316 168//339
f 143//317 144//318 169//340
f 144//318 146//319 170//341
f 158//331 159//332 135//46
f 171//342 145//58 159//332
f 146//319 160//139 172//343
f 137//248 161//248 160//248
f 145//58 171//342 161//91
f 158//331 147//320 173//344
f 149//322 148//321 174//345
f 150//323 149//322 175//346
f 163//334 162//333 138//312
f 162//333 173//344 147//320
f 141//315 166//337 163//334
f 164//335 157//330 139//313
f 165//336 164//335 140//314
f 175//346 151//324 150//323
f 176//347 152//325 151//324
f 177//348 153//326 152//325
f 178//349 165//336 153//326
f 154//327 155//328 166//337
f 156//329 166//337 155//328
f 157//330 179//350 156//329
f 169//340 167//338 143//317
f 167//338 168//339 142//316
f 168//339 174//345 148//321
f 170//341 169//340 144//318
f 172//343 170//341 146//319
f 159//332 158//331 180//351
f 159//332 180//351 171//342
f 181//124 172//343 160//139
f 181//248 160//248 161//248
f 182//352 161//91 171//342
f 173//344 180//351 158//331
f 174//345 175//346 149//322
f 162//333 163//334 183//353
f 173//344 162//333 184//354
f 179//350 163//334 166//337
f 157//330 164//335 179//350
f 164//335 165//336 183//353
f 151//324 175//346 176//347
f 152//325 176//347 177//348
f 153//326 177//348 178//349
f 165//336 178//349 184//354
f 166//337 156//329 179//350
f 167//338 169//340 185//355
f 167//338 185//355 168//339
f 168//339 186//356 174//345
f 169//340 170//341 187//357
f 170//341 172//343 188//358
f 189//359 171//342 180//351
f 172//343 181//124 182//352
f 161//91 182//352 181//124
f 171//342 189//359 182//352
f 180//351 173//344 190//360
f 174//345 176//347 175//346
f 179//350 183//353 163//334
f 183//353 184//354 162//333
f 184//354 190//360 173//344
f 183//353 179//350 164//335
f 184//354 183//353 165//336
f 186//356 177//348 176//347
f 191//361 178//349 177//348
f 190//360 184//354 178//349
f 187//357 185//355 169//340
f 186//356 168//339 185//355
f 176//347 174//345 186//356
f 188//358 187//357 170//341
f 182//352 188//358 172//343
f 180//351 190//360 189//359
f 188//358 182//352 189//359
f 177//348 186//356 191//361
f 178//349 191//361 190//360
f 185//355 187//357 191//361
f 185//355 191//361 186//356
f 187//357 188//358 192//362
f 192//362 189//359 190//360
f 189//359 192//362 188//358
f 192//362 190//360 191//361
f 192//362 191//361 187//357
