# Blender v2.79 (sub 0) OBJ File: ''
# www.blender.org
mtllib 100431_link_1_24.mtl
o Shape_IndexedFaceSet.024_Shape_IndexedFaceSet.8303
v 0.488783 0.434313 -0.053118
v 0.310453 -0.412660 0.061251
v 0.310916 -0.410536 0.105822
v 0.419413 -0.404284 -0.015289
v 0.469865 0.434313 0.104506
v 0.331179 -0.278117 -0.072041
v 0.432048 0.427910 0.098181
v 0.400531 -0.397881 0.104506
v 0.438348 0.421590 -0.072041
v 0.406813 -0.404284 -0.072041
v 0.495101 0.427910 0.003634
v 0.318002 -0.407039 -0.072621
v 0.324879 -0.271796 0.104506
v 0.482483 0.396389 -0.072041
v 0.476183 0.402710 0.091873
v 0.419413 -0.404284 0.009942
v 0.438348 0.434313 0.104506
v 0.350096 -0.101548 0.098181
v 0.488783 0.364950 -0.027905
v 0.318561 -0.366360 -0.072041
v 0.444648 0.434313 -0.072041
v 0.419413 0.301825 -0.072041
v 0.488783 0.383830 0.022505
v 0.312279 -0.360039 0.104506
vn -0.9892 0.1412 -0.0403
vn 0.0149 -0.0012 0.9999
vn 0.0663 -0.9977 -0.0147
vn 0.4377 0.8976 0.0525
vn 0.0312 -0.9987 -0.0402
vn 0.9721 -0.0919 -0.2158
vn 0.0065 -0.0006 -1.0000
vn 0.8141 -0.0678 0.5768
vn 0.9668 0.0991 0.2356
vn 0.0982 -0.9941 0.0464
vn 0.0766 -0.9971 0.0000
vn 0.1406 -0.9855 0.0948
vn 0.9959 -0.0906 0.0000
vn 0.0000 1.0000 0.0000
vn 0.0000 0.0016 1.0000
vn -0.1560 0.0251 0.9874
vn -0.7624 0.1225 0.6354
vn -0.9886 0.1449 -0.0405
vn -0.9731 0.1506 0.1746
vn 0.9925 -0.0419 -0.1152
vn 0.9957 -0.0901 -0.0196
vn 0.9796 -0.0686 -0.1887
vn 0.9747 -0.0912 -0.2041
vn -0.9983 0.0145 -0.0557
vn -0.1096 0.0157 -0.9938
vn -0.9891 0.1414 -0.0404
vn -0.8950 0.4432 -0.0496
vn -0.0020 0.0010 -1.0000
vn 0.3667 0.3659 -0.8554
vn 0.0006 0.0006 -1.0000
vn -0.7001 0.7136 -0.0250
vn -0.9868 0.1560 -0.0423
vn -0.0897 0.0137 -0.9959
vn -0.0543 0.0086 -0.9985
vn -0.9876 0.1503 -0.0461
vn -0.9874 0.1528 -0.0399
vn 0.9755 -0.0890 0.2014
vn 0.9794 -0.0575 0.1936
vn 0.9884 -0.0890 0.1231
vn 0.9756 -0.0891 0.2008
vn -0.9996 0.0272 0.0091
vn -0.2195 0.0313 0.9751
vn -0.9971 0.0657 -0.0378
usemtl Shape.8310
s off
f 13//1 20//1 24//1
f 5//2 3//2 8//2
f 4//3 2//3 10//3
f 1//4 5//4 11//4
f 10//5 2//5 12//5
f 4//6 10//6 14//6
f 10//7 12//7 14//7
f 5//8 8//8 15//8
f 11//9 5//9 15//9
f 3//10 2//10 16//10
f 2//11 4//11 16//11
f 8//12 3//12 16//12
f 4//13 11//13 16//13
f 5//14 1//14 17//14
f 3//15 5//15 17//15
f 13//16 3//16 17//16
f 7//17 13//17 17//17
f 6//18 13//18 18//18
f 13//19 7//19 18//19
f 1//20 11//20 19//20
f 11//21 4//21 19//21
f 14//22 1//22 19//22
f 4//23 14//23 19//23
f 12//24 2//24 20//24
f 6//25 12//25 20//25
f 13//26 6//26 20//26
f 9//27 7//27 21//27
f 12//28 9//28 21//28
f 1//29 14//29 21//29
f 14//30 12//30 21//30
f 17//14 1//14 21//14
f 7//31 17//31 21//31
f 7//32 9//32 22//32
f 12//33 6//33 22//33
f 9//34 12//34 22//34
f 6//35 18//35 22//35
f 18//36 7//36 22//36
f 15//37 8//37 23//37
f 11//38 15//38 23//38
f 16//39 11//39 23//39
f 8//40 16//40 23//40
f 2//41 3//41 24//41
f 3//42 13//42 24//42
f 20//43 2//43 24//43
