# Blender v2.79 (sub 0) OBJ File: ''
# www.blender.org
mtllib 100431_link_1_0.mtl
o Shape_IndexedFaceSet_Shape_IndexedFaceSet.8279
v -0.349180 -0.435810 -0.274308
v -0.021929 -0.410605 0.079285
v -0.354627 -0.389725 0.090783
v -0.411067 -0.476537 0.059024
v -0.028595 -0.466365 -0.429874
v -0.027146 -0.392732 -0.437775
v -0.040177 -0.476244 0.057333
v -0.416929 -0.393692 -0.173339
v -0.305278 -0.475889 -0.299700
v -0.188028 -0.393404 -0.403420
v -0.415998 -0.465732 -0.155492
v -0.450815 -0.392926 -0.001708
v -0.017200 -0.390714 -0.359504
v -0.039856 -0.476309 -0.405094
v -0.188345 -0.465908 -0.396091
v -0.430196 -0.466086 0.068901
v -0.326153 -0.393942 -0.310914
v -0.435856 -0.392159 0.076356
v -0.319436 -0.465438 -0.309740
v -0.431828 -0.471320 -0.055163
v -0.395939 -0.475647 -0.162547
v -0.440956 -0.453857 -0.047092
v -0.151317 -0.447960 -0.410394
v -0.444077 -0.460231 0.016153
v -0.402543 -0.459520 -0.191249
vn -0.5339 -0.7760 -0.3357
vn 0.9618 -0.2732 0.0173
vn -0.0244 0.9997 -0.0093
vn 0.0641 0.9969 0.0459
vn 0.9883 -0.1524 0.0037
vn 0.9916 -0.0329 -0.1252
vn -0.0094 0.9997 -0.0246
vn 0.0008 -1.0000 0.0001
vn 0.6626 -0.7490 0.0006
vn -0.0026 -1.0000 -0.0026
vn -0.0805 -0.9767 -0.1988
vn -0.0883 -0.9099 -0.4053
vn 0.0149 -0.2891 0.9572
vn 0.0197 -0.3220 0.9465
vn 0.0039 -0.6831 0.7303
vn -0.0147 0.9998 -0.0115
vn -0.8345 -0.0224 -0.5506
vn -0.0122 0.9999 -0.0114
vn -0.0125 0.9998 -0.0128
vn -0.0292 0.9996 -0.0042
vn -0.1705 -0.1118 0.9790
vn -0.3003 -0.8403 -0.4513
vn -0.5485 -0.0817 -0.8322
vn -0.7969 -0.0847 -0.5982
vn -0.5551 -0.0658 -0.8292
vn -0.4616 -0.8860 0.0435
vn -0.0098 -0.9999 -0.0047
vn -0.5078 -0.8001 -0.3194
vn -0.4312 -0.8565 -0.2835
vn -0.1643 -0.9863 -0.0152
vn -0.4743 -0.8717 -0.1234
vn -0.9739 -0.0663 -0.2170
vn -0.9810 -0.0145 -0.1936
vn -0.9033 -0.3961 -0.1646
vn -0.1708 -0.1018 -0.9800
vn -0.2087 -0.0155 -0.9778
vn -0.1961 -0.3309 -0.9230
vn -0.3188 -0.0939 -0.9432
vn -0.9809 -0.0482 0.1884
vn -0.9650 -0.0984 0.2430
vn -0.5220 -0.8519 0.0428
vn -0.9915 -0.1153 -0.0606
vn -0.8989 -0.4293 -0.0876
vn -0.8364 -0.0339 -0.5471
vn -0.9250 -0.1026 -0.3659
vn -0.8136 -0.1429 -0.5635
usemtl Shape.8286
s off
f 19//1 11//1 25//1
f 5//2 2//2 7//2
f 3//3 8//3 12//3
f 3//4 2//4 13//4
f 2//5 5//5 13//5
f 5//6 6//6 13//6
f 6//7 10//7 13//7
f 7//8 4//8 14//8
f 5//9 7//9 14//9
f 4//10 9//10 14//10
f 14//11 9//11 15//11
f 5//12 14//12 15//12
f 2//13 3//13 16//13
f 7//14 2//14 16//14
f 4//15 7//15 16//15
f 8//16 3//16 17//16
f 1//17 8//17 17//17
f 3//18 13//18 17//18
f 13//19 10//19 17//19
f 3//20 12//20 18//20
f 16//21 3//21 18//21
f 15//22 9//22 19//22
f 10//23 15//23 19//23
f 1//24 17//24 19//24
f 17//25 10//25 19//25
f 4//26 16//26 20//26
f 9//27 4//27 21//27
f 11//28 19//28 21//28
f 19//29 9//29 21//29
f 4//30 20//30 21//30
f 20//31 11//31 21//31
f 8//32 11//32 22//32
f 12//33 8//33 22//33
f 11//34 20//34 22//34
f 6//35 5//35 23//35
f 10//36 6//36 23//36
f 5//37 15//37 23//37
f 15//38 10//38 23//38
f 18//39 12//39 24//39
f 16//40 18//40 24//40
f 20//41 16//41 24//41
f 12//42 22//42 24//42
f 22//43 20//43 24//43
f 8//44 1//44 25//44
f 11//45 8//45 25//45
f 1//46 19//46 25//46
