####
#
# OBJ File Generated by Meshlab
#
####
# Object 100431_link_0_7.obj
#
# Vertices: 24
# Faces: 44
#
####
mtllib ./100431_link_0_7.obj.mtl

vn 0.905197 -0.424130 -0.027078
v 0.245158 0.815941 -0.420802
vn -0.430712 0.836897 0.337772
v 0.116554 0.908270 -0.440223
vn -0.553844 0.710347 -0.434355
v 0.132469 0.932987 -0.459106
vn -0.277297 -0.954570 -0.109101
v 0.101440 0.804514 -0.460542
vn 0.622611 0.365515 -0.691921
v 0.233784 0.871366 -0.480073
vn -0.176807 -0.166930 0.969986
v 0.184359 0.842222 -0.364717
vn 0.428225 0.626534 0.651213
v 0.222681 0.880223 -0.392547
vn -0.021386 -0.003595 -0.999765
v 0.139053 0.855505 -0.526575
vn -0.669742 -0.520895 0.529258
v 0.102627 0.838001 -0.429607
vn 0.146129 -0.696407 0.702612
v 0.215716 0.796983 -0.392732
vn -0.301026 -0.927247 -0.222702
v 0.188806 0.805365 -0.494792
vn 0.977296 0.078172 0.196931
v 0.250297 0.840747 -0.421600
vn -0.827033 0.334377 -0.451894
v 0.120631 0.886424 -0.485165
vn -0.205006 0.743801 0.636186
v 0.122023 0.901811 -0.404082
vn -0.611448 -0.643699 -0.460199
v 0.113183 0.837327 -0.485121
vn 0.633289 0.759139 -0.150509
v 0.236293 0.905869 -0.448600
vn 0.727425 -0.084140 -0.681009
v 0.234527 0.828735 -0.496066
vn -0.438360 -0.672862 0.595900
v 0.187402 0.811681 -0.379170
vn 0.158919 0.645937 -0.746666
v 0.153671 0.900081 -0.500943
vn -0.874811 0.108467 0.472167
v 0.094514 0.869184 -0.420942
vn -0.231256 0.356170 0.905353
v 0.201006 0.870889 -0.369305
vn 0.011589 -0.974459 -0.224266
v 0.234301 0.798348 -0.417341
vn 0.430005 -0.682735 -0.590735
v 0.218927 0.803723 -0.488139
vn 0.150397 0.960169 0.235490
v 0.155432 0.932161 -0.454741
# 24 vertices, 0 vertices normals


usemtl material_0
f 16//16 19//19 24//24
f 7//7 6//6 10//10
f 9//9 4//4 10//10
f 10//10 1//1 12//12
f 7//7 10//10 12//12
f 2//2 3//3 13//13
f 7//7 2//2 14//14
f 4//4 9//9 15//15
f 8//8 11//11 15//15
f 13//13 8//8 15//15
f 12//12 5//5 16//16
f 7//7 12//12 16//16
f 8//8 5//5 17//17
f 12//12 1//1 17//17
f 5//5 12//12 17//17
f 6//6 9//9 18//18
f 10//10 6//6 18//18
f 9//9 10//10 18//18
f 5//5 8//8 19//19
f 13//13 3//3 19//19
f 8//8 13//13 19//19
f 16//16 5//5 19//19
f 9//9 6//6 20//20
f 2//2 13//13 20//20
f 14//14 2//2 20//20
f 15//15 9//9 20//20
f 13//13 15//15 20//20
f 6//6 7//7 21//21
f 7//7 14//14 21//21
f 20//20 6//6 21//21
f 14//14 20//20 21//21
f 1//1 10//10 22//22
f 10//10 4//4 22//22
f 4//4 15//15 22//22
f 15//15 11//11 22//22
f 11//11 8//8 23//23
f 8//8 17//17 23//23
f 17//17 1//1 23//23
f 1//1 22//22 23//23
f 22//22 11//11 23//23
f 3//3 2//2 24//24
f 2//2 7//7 24//24
f 7//7 16//16 24//24
f 19//19 3//3 24//24
# 44 faces, 0 coords texture

# End of File
