####
#
# OBJ File Generated by Meshlab
#
####
# Object 100431_link_0_8.obj
#
# Vertices: 23
# Faces: 42
#
####
mtllib ./100431_link_0_8.obj.mtl

vn 0.797787 0.593716 0.105059
v 0.492412 0.653206 -0.105572
vn 0.044083 -0.940944 0.335680
v 0.465001 0.528003 -0.034556
vn -0.137292 -0.911503 0.387702
v 0.452684 0.524163 -0.018158
vn -0.955210 -0.100685 -0.278274
v 0.388608 0.637112 -0.138228
vn -0.002865 0.515688 0.856772
v 0.438578 0.619805 -0.001033
vn 0.354525 -0.209434 -0.911290
v 0.423728 0.632258 -0.156358
vn -0.041853 0.883516 0.466527
v 0.416798 0.673729 -0.084946
vn 0.913546 -0.402373 -0.059412
v 0.510664 0.575849 -0.081169
vn -0.904909 0.118632 0.408738
v 0.388282 0.585371 -0.027537
vn 0.427921 -0.628064 -0.649938
v 0.440661 0.512526 -0.075282
vn 0.627039 0.507693 0.590821
v 0.489110 0.605363 -0.018764
vn 0.502410 -0.346361 -0.792224
v 0.465634 0.641723 -0.155120
vn -0.795390 -0.593108 -0.124806
v 0.411671 0.525633 -0.082865
vn -0.834991 0.527920 -0.155210
v 0.386281 0.653294 -0.117324
vn 0.626134 -0.235364 0.743344
v 0.461497 0.558032 -0.006204
vn 0.522575 -0.635925 -0.567904
v 0.484440 0.533929 -0.061848
vn -0.873053 -0.487239 0.019425
v 0.387436 0.547934 -0.056172
vn -0.279066 -0.523373 -0.805110
v 0.394141 0.600711 -0.170679
vn 0.231868 0.960999 0.150725
v 0.453147 0.680898 -0.097937
vn -0.703971 0.532528 0.469935
v 0.401205 0.635134 -0.033064
vn 0.961219 0.232984 -0.147570
v 0.509791 0.601220 -0.077791
vn 0.272998 0.725279 -0.632015
v 0.465780 0.657140 -0.134208
vn -0.429703 -0.315917 0.845903
v 0.415189 0.552184 0.004655
# 23 vertices, 0 vertices normals


usemtl material_0
f 9//9 17//17 23//23
f 7//7 5//5 11//11
f 10//10 2//2 13//13
f 6//6 4//4 14//14
f 3//3 2//2 15//15
f 11//11 5//5 15//15
f 8//8 11//11 15//15
f 10//10 6//6 16//16
f 2//2 10//10 16//16
f 6//6 12//12 16//16
f 12//12 8//8 16//16
f 15//15 2//2 16//16
f 8//8 15//15 16//16
f 2//2 3//3 17//17
f 13//13 2//2 17//17
f 4//4 13//13 17//17
f 14//14 4//4 17//17
f 9//9 14//14 17//17
f 4//4 6//6 18//18
f 6//6 10//10 18//18
f 13//13 4//4 18//18
f 10//10 13//13 18//18
f 11//11 1//1 19//19
f 7//7 11//11 19//19
f 14//14 7//7 19//19
f 5//5 7//7 20//20
f 9//9 5//5 20//20
f 14//14 9//9 20//20
f 7//7 14//14 20//20
f 1//1 11//11 21//21
f 11//11 8//8 21//21
f 8//8 12//12 21//21
f 21//21 12//12 22//22
f 12//12 6//6 22//22
f 6//6 14//14 22//22
f 19//19 1//1 22//22
f 14//14 19//19 22//22
f 1//1 21//21 22//22
f 5//5 9//9 23//23
f 3//3 15//15 23//23
f 15//15 5//5 23//23
f 17//17 3//3 23//23
# 42 faces, 0 coords texture

# End of File
