# Blender v2.79 (sub 0) OBJ File: ''
# www.blender.org
mtllib 100431_link_1_15.mtl
o Shape_IndexedFaceSet.015_Shape_IndexedFaceSet.8294
v -0.393955 -0.397978 0.211695
v -0.507746 0.412423 0.082767
v -0.274833 -0.413766 0.211671
v -0.345624 -0.411933 0.073794
v -0.431750 0.427958 0.205383
v -0.438082 -0.397978 0.104507
v -0.482187 0.396430 0.211695
v -0.475899 0.434313 0.079285
v -0.435395 -0.368436 0.083984
v -0.501117 0.434313 0.161250
v -0.425462 -0.397978 0.161250
v -0.513715 0.408976 0.091896
v -0.494807 0.383720 0.180147
v -0.438082 0.434313 0.211695
v -0.456968 0.327018 0.079285
v -0.284084 -0.407751 0.213249
v -0.425462 0.402703 0.205383
v -0.419151 -0.378996 0.180147
v -0.488497 0.377447 0.199083
v -0.488497 0.434313 0.205383
vn -0.9515 -0.0339 0.3058
vn -0.1024 -0.0093 -0.9947
vn -0.1188 -0.0126 -0.9928
vn -0.3392 -0.5157 -0.7868
vn -0.5706 0.8022 -0.1756
vn -0.1309 -0.9880 0.0818
vn -0.1202 -0.9916 0.0485
vn -0.1391 -0.9898 0.0309
vn -0.8209 -0.0769 -0.5658
vn -0.9607 -0.0941 -0.2613
vn -0.6569 0.7388 -0.1506
vn -0.9794 -0.0490 0.1958
vn -0.9721 -0.0915 0.2162
vn -0.9788 -0.0889 0.1843
vn 0.6063 0.7761 -0.1732
vn 0.0000 1.0000 0.0000
vn 0.8820 0.1363 -0.4511
vn 0.9198 0.1623 -0.3573
vn 0.2768 0.0488 -0.9597
vn -0.0412 -0.3124 0.9491
vn -0.0143 -0.0016 0.9999
vn 0.1912 0.0368 0.9809
vn -0.0014 0.0016 1.0000
vn 0.9290 0.1689 -0.3293
vn 0.9222 0.2296 -0.3113
vn 0.6885 0.1325 0.7130
vn 0.7837 0.1951 0.5897
vn -0.8038 -0.0893 0.5882
vn -0.8237 -0.2383 0.5145
vn -0.9534 -0.0915 0.2874
vn -0.8300 -0.0899 0.5505
vn -0.9123 -0.0936 0.3987
vn -0.9613 -0.0172 0.2749
vn -0.1230 0.1431 0.9820
vn -0.8559 -0.0569 0.5139
usemtl Shape.8301
s off
f 13//1 19//1 20//1
f 4//2 2//2 8//2
f 2//3 4//3 9//3
f 4//4 6//4 9//4
f 8//5 2//5 10//5
f 3//6 1//6 11//6
f 4//7 3//7 11//7
f 6//8 4//8 11//8
f 2//9 9//9 12//9
f 9//10 6//10 12//10
f 10//11 2//11 12//11
f 10//12 12//12 13//12
f 6//13 11//13 13//13
f 12//14 6//14 13//14
f 5//15 8//15 14//15
f 8//16 10//16 14//16
f 3//17 4//17 15//17
f 8//18 3//18 15//18
f 4//19 8//19 15//19
f 1//20 3//20 16//20
f 7//21 1//21 16//21
f 3//22 14//22 16//22
f 14//23 7//23 16//23
f 3//24 8//24 17//24
f 8//25 5//25 17//25
f 14//26 3//26 17//26
f 5//27 14//27 17//27
f 1//28 7//28 18//28
f 11//29 1//29 18//29
f 13//30 11//30 19//30
f 18//31 7//31 19//31
f 11//32 18//32 19//32
f 10//33 13//33 20//33
f 7//34 14//34 20//34
f 14//16 10//16 20//16
f 19//35 7//35 20//35
