####
#
# OBJ File Generated by Meshlab
#
####
# Object 100431_link_0_26.obj
#
# Vertices: 17
# Faces: 30
#
####
mtllib ./100431_link_0_26.obj.mtl

vn 0.447904 0.888576 -0.099064
v 0.519688 0.614240 0.002852
vn -0.669125 -0.737203 -0.093821
v 0.457209 0.521491 -0.035704
vn -0.594627 -0.674865 0.437008
v 0.459819 0.525350 -0.002326
vn 0.949881 -0.311312 0.028474
v 0.548629 0.530115 -0.018907
vn -0.084308 0.543953 -0.834870
v 0.461264 0.589325 -0.073425
vn -0.765554 0.355029 0.536546
v 0.455969 0.580121 0.008045
vn 0.649341 0.138543 -0.747771
v 0.528370 0.549635 -0.068444
vn 0.602119 -0.224127 0.766303
v 0.522906 0.540103 0.009597
vn 0.008320 0.962302 -0.271857
v 0.495986 0.599188 -0.048086
vn 0.044909 -0.803737 -0.593287
v 0.509155 0.515186 -0.069103
vn -0.910734 -0.333168 -0.244057
v 0.433758 0.553116 -0.059897
vn 0.919299 0.393424 0.010382
v 0.544086 0.576651 -0.032757
vn 0.230150 -0.964285 0.131091
v 0.518297 0.497830 -0.034227
vn -0.090878 -0.406223 0.909244
v 0.483055 0.534109 0.018950
vn 0.163490 0.489551 0.856511
v 0.506151 0.601898 0.022187
vn -0.206110 -0.317149 -0.925708
v 0.481909 0.537257 -0.090394
vn -0.600509 0.797982 0.051122
v 0.429439 0.584906 -0.042317
# 17 vertices, 0 vertices normals


usemtl material_0
f 5//5 11//11 17//17
f 2//2 3//3 6//6
f 7//7 5//5 9//9
f 2//2 6//6 11//11
f 4//4 7//7 12//12
f 8//8 4//4 12//12
f 9//9 1//1 12//12
f 7//7 9//9 12//12
f 3//3 2//2 13//13
f 7//7 4//4 13//13
f 4//4 8//8 13//13
f 2//2 10//10 13//13
f 10//10 7//7 13//13
f 6//6 3//3 14//14
f 3//3 13//13 14//14
f 13//13 8//8 14//14
f 9//9 6//6 15//15
f 1//1 9//9 15//15
f 8//8 12//12 15//15
f 12//12 1//1 15//15
f 6//6 14//14 15//15
f 14//14 8//8 15//15
f 5//5 7//7 16//16
f 10//10 2//2 16//16
f 7//7 10//10 16//16
f 2//2 11//11 16//16
f 11//11 5//5 16//16
f 9//9 5//5 17//17
f 6//6 9//9 17//17
f 11//11 6//6 17//17
# 30 faces, 0 coords texture

# End of File
