# Blender v2.79 (sub 0) OBJ File: ''
# www.blender.org
mtllib 100431_link_1_17.mtl
o Shape_IndexedFaceSet.017_Shape_IndexedFaceSet.8296
v -0.349820 -0.397979 0.281078
v -0.261264 0.485815 0.445617
v -0.267833 0.459534 0.388207
v -0.489893 0.490350 0.210301
v -0.273993 -0.413791 0.203949
v -0.381318 0.415382 0.362991
v -0.274149 -0.397979 0.344084
v -0.431743 0.453155 0.211695
v -0.393929 -0.372713 0.211695
v -0.260605 -0.413365 0.224270
v -0.395311 0.490846 0.352235
v -0.324575 -0.397979 0.312603
v -0.475874 0.453155 0.230623
v -0.267833 -0.347532 0.350394
v -0.274149 0.459534 0.438661
v -0.487001 0.478781 0.206600
v -0.387634 -0.397979 0.224314
v -0.393929 0.434269 0.350394
v -0.485359 0.499854 0.221731
v -0.267833 0.434269 0.381897
v -0.349820 0.440564 0.388229
v -0.280466 -0.379008 0.344084
v -0.337187 -0.397979 0.299984
vn -0.8281 -0.0900 0.5533
vn 0.9912 0.0323 -0.1282
vn -0.0741 -0.9901 0.1188
vn -0.0912 -0.1123 0.9895
vn 0.9978 -0.0153 0.0652
vn 0.9819 -0.1390 0.1288
vn -0.2987 -0.1046 0.9486
vn 0.2459 0.3506 -0.9037
vn 0.1046 0.0279 -0.9941
vn -0.9133 -0.1022 -0.3942
vn -0.0691 -0.0135 -0.9975
vn -0.1229 -0.9890 0.0819
vn -0.9582 -0.1061 0.2655
vn -0.2190 -0.4791 -0.8500
vn -0.8289 -0.0900 0.5522
vn -0.7355 -0.0400 0.6764
vn -0.8285 -0.0899 0.5527
vn -0.8283 -0.0622 0.5569
vn 0.4612 0.7856 -0.4124
vn 0.5129 0.6967 -0.5015
vn 0.4095 0.6150 -0.6738
vn -0.0202 0.9964 0.0827
vn -0.8952 -0.0962 0.4351
vn -0.8894 -0.0955 0.4471
vn -0.8237 -0.0385 0.5657
vn 0.7193 0.1683 -0.6740
vn 0.7210 0.1373 -0.6792
vn 0.9906 0.0331 -0.1324
vn 0.8290 0.1091 -0.5485
vn -0.5683 0.0726 0.8196
vn -0.6233 -0.0041 0.7820
vn -0.5776 -0.0906 0.8113
vn -0.5637 0.0583 0.8239
vn -0.5365 -0.0906 0.8390
vn -0.5215 -0.1737 0.8354
vn -0.3127 -0.1041 0.9441
vn -0.5522 -0.0914 0.8287
vn -0.1228 -0.9890 0.0820
vn -0.1080 -0.9899 0.0919
vn -0.7043 -0.0927 0.7039
vn -0.1000 -0.9899 0.1000
vn -0.7685 -0.0908 0.6333
usemtl Shape.8303
s off
f 18//1 1//1 23//1
f 3//2 2//2 10//2
f 10//3 7//3 12//3
f 2//4 7//4 14//4
f 10//5 2//5 14//5
f 7//6 10//6 14//6
f 7//7 2//7 15//7
f 4//8 8//8 16//8
f 8//9 5//9 16//9
f 9//10 4//10 16//10
f 5//11 9//11 16//11
f 5//12 1//12 17//12
f 4//13 9//13 17//13
f 9//14 5//14 17//14
f 1//15 13//15 17//15
f 6//16 11//16 18//16
f 13//17 1//17 18//17
f 13//18 18//18 19//18
f 2//19 3//19 19//19
f 3//20 8//20 19//20
f 8//21 4//21 19//21
f 11//22 2//22 19//22
f 4//23 17//23 19//23
f 17//24 13//24 19//24
f 18//25 11//25 19//25
f 8//26 3//26 20//26
f 5//27 8//27 20//27
f 3//28 10//28 20//28
f 10//29 5//29 20//29
f 2//30 11//30 21//30
f 11//31 6//31 21//31
f 6//32 12//32 21//32
f 15//33 2//33 21//33
f 15//34 21//34 22//34
f 12//35 7//35 22//35
f 7//36 15//36 22//36
f 21//37 12//37 22//37
f 1//38 5//38 23//38
f 5//39 10//39 23//39
f 12//40 6//40 23//40
f 10//41 12//41 23//41
f 6//42 18//42 23//42
