####
#
# OBJ File Generated by Meshlab
#
####
# Object 100431_link_0_17.obj
#
# Vertices: 12
# Faces: 20
#
####
mtllib ./100431_link_0_17.obj.mtl

vn 0.204000 0.950815 -0.233098
v 0.300515 0.821001 -0.388360
vn -0.145283 -0.781892 0.606249
v 0.326223 0.752952 -0.331175
vn -0.093103 -0.995548 -0.014689
v 0.298364 0.720487 -0.368794
vn -0.850621 -0.109558 0.514238
v 0.261121 0.772341 -0.335781
vn 0.653654 0.578513 0.487914
v 0.336010 0.809914 -0.320781
vn 0.792705 0.366404 -0.487203
v 0.356841 0.807157 -0.377515
vn -0.708373 0.055300 -0.703669
v 0.283063 0.775145 -0.395580
vn -0.672256 0.649091 0.356025
v 0.285204 0.829111 -0.350658
vn 0.034881 0.034220 0.998805
v 0.322789 0.773819 -0.318025
vn 0.736168 -0.484220 -0.472851
v 0.344161 0.751838 -0.369360
vn 0.025496 0.021135 -0.999451
v 0.291823 0.799928 -0.400185
vn -0.524523 -0.813074 -0.252558
v 0.267972 0.759151 -0.382051
# 12 vertices, 0 vertices normals


usemtl material_0
f 7//7 10//10 12//12
f 1//1 5//5 6//6
f 5//5 1//1 8//8
f 7//7 4//4 8//8
f 8//8 4//4 9//9
f 4//4 2//2 9//9
f 5//5 8//8 9//9
f 5//5 9//9 10//10
f 2//2 3//3 10//10
f 6//6 5//5 10//10
f 9//9 2//2 10//10
f 10//10 7//7 11//11
f 1//1 6//6 11//11
f 8//8 1//1 11//11
f 7//7 8//8 11//11
f 6//6 10//10 11//11
f 3//3 2//2 12//12
f 2//2 4//4 12//12
f 4//4 7//7 12//12
f 10//10 3//3 12//12
# 20 faces, 0 coords texture

# End of File
