# SSTK version 0.8.0
# 2
mtllib original-2.mtl
o Toilet_-_Pan1/Toilet_-_Pan/mesh3/mesh3-geometry#mesh3-geometry
v 0.041137 -0.602678 0.149902
v 0.044139 -0.700107 0.133567
v 0.040529 -0.602426 0.149636
v 0.053062 -0.611828 0.154349
v 0.041137 -0.702410 0.132632
v 0.027250 -0.596925 -0.067553
v 0.066573 -0.599673 0.163519
v 0.041137 -0.602678 -0.067553
v 0.053062 -0.693260 0.139407
v 0.033883 -0.599673 0.148911
v 0.050248 -0.865430 0.106371
v 0.053062 -0.693260 -0.067553
v 0.027250 -0.596925 0.144902
v 0.040428 -0.599673 0.150089
v 0.062213 -0.623754 0.156861
v 0.053062 -0.611828 -0.067553
v 0.027250 -0.708163 0.129147
v 0.041137 -0.702410 -0.067553
v 0.027250 -0.708163 -0.067553
v 0.012347 -0.594963 0.140209
v 0.151824 -0.391496 -0.021267
v 0.067965 -0.637641 0.157267
v 0.062213 -0.681334 0.146295
v 0.084760 -0.865430 0.124098
v 0.062213 -0.681334 -0.067553
v 0.012517 -0.710102 0.126162
v 0.012191 -0.599673 0.145004
v 0.012975 -0.865430 0.099659
v 0.012347 -0.710125 -0.067553
v 0.012347 -0.594963 -0.067553
v 0.086460 -0.391496 -0.054841
v 0.088846 -0.599673 0.212725
v 0.069927 -0.652544 0.155540
v 0.067965 -0.667447 0.151798
v 0.062213 -0.623754 -0.067553
v 0.050248 -0.892769 0.106371
v -0.059677 -0.865430 0.120326
v 0.012975 -0.892769 0.099659
v -0.024518 -0.865430 0.104419
v 0.012347 -0.710125 0.126180
v -0.002556 -0.596925 -0.067553
v 0.012274 -0.594973 0.140206
v -0.121731 -0.391496 -0.028410
v 0.151824 -0.302911 -0.021267
v 0.207505 -0.391496 0.101748
v 0.088846 -0.835901 0.212725
v 0.067965 -0.637641 -0.067553
v 0.067965 -0.667447 -0.067553
v 0.084760 -0.892769 0.124098
v -0.065900 -0.835901 0.208685
v -0.024518 -0.892769 0.104419
v -0.019354 -0.700177 0.131898
v -0.002556 -0.708163 -0.067553
v 0.015868 -0.391496 -0.067553
v -0.002556 -0.596925 0.144077
v -0.055142 -0.391496 -0.058538
v -0.179360 -0.391496 0.091647
v 0.086460 -0.302911 -0.054841
v 0.105727 -0.599673 0.239592
v 0.105727 -0.835901 0.239592
v 0.069927 -0.652544 -0.067553
v 0.114160 -0.892769 0.189050
v -0.059677 -0.892769 0.120326
v -0.090105 -0.865430 0.183717
v -0.065900 -0.599673 0.208685
v -0.045234 -0.652544 0.152202
v -0.002556 -0.708163 0.128406
v -0.016444 -0.702410 0.131148
v -0.028369 -0.693260 0.137225
v -0.016444 -0.702410 -0.067553
v -0.009189 -0.599673 0.147719
v -0.055142 -0.302911 -0.058538
v -0.016213 -0.599673 0.148610
v -0.179360 -0.302911 0.091647
v -0.042849 -0.599673 0.160662
v -0.121731 -0.302911 -0.028410
v 0.207505 -0.302911 0.101748
v -0.224102 -0.391496 0.156544
v 0.249709 -0.391496 0.168915
v 0.136443 -0.865430 0.224514
v -0.083797 -0.835901 0.234643
v 0.114160 -0.865430 0.189050
v -0.090105 -0.892769 0.183717
v -0.113729 -0.865430 0.217982
v -0.083797 -0.599673 0.234643
v -0.043272 -0.667447 0.148625
v -0.016305 -0.602621 0.148120
v -0.028369 -0.693260 -0.067553
v -0.037520 -0.681334 0.143517
v -0.016444 -0.602678 0.148172
v -0.016444 -0.602678 -0.067553
v 0.015868 -0.302911 -0.067553
v -0.224102 -0.302911 0.156544
v 0.116067 -0.599673 0.270635
v 0.116067 -0.835901 0.270635
v 0.150092 -0.865430 0.265491
v -0.095320 -0.835901 0.265116
v 0.136443 -0.892769 0.224514
v -0.113729 -0.892769 0.217982
v -0.043272 -0.637641 0.154003
v -0.045234 -0.652544 -0.067553
v -0.028369 -0.611828 0.151917
v -0.037520 -0.681334 -0.067553
v 0.249709 -0.302911 0.168915
v -0.252908 -0.391496 0.232726
v -0.252908 -0.302911 0.232726
v 0.275559 -0.391496 0.246524
v 0.150092 -0.892769 0.265491
v -0.095320 -0.599673 0.265116
v -0.128939 -0.865430 0.258206
v -0.037520 -0.623754 0.153906
v -0.043272 -0.637641 -0.067553
v -0.043272 -0.667447 -0.067553
v -0.028369 -0.611828 -0.067553
v 0.119161 -0.599673 0.303740
v 0.119161 -0.835901 0.303740
v 0.154176 -0.865430 0.309190
v -0.099683 -0.835901 0.298026
v 0.154176 -0.892769 0.309190
v -0.099683 -0.599673 0.298026
v -0.134698 -0.865430 0.301647
v -0.128939 -0.892769 0.258206
v -0.037520 -0.623754 -0.067553
v 0.275559 -0.302911 0.246524
v -0.263815 -0.391496 0.315001
v -0.263815 -0.302911 0.315001
v 0.283294 -0.391496 0.329286
v -0.134698 -0.892769 0.301647
v 0.114798 -0.599673 0.336650
v 0.114798 -0.835901 0.336650
v -0.096589 -0.835901 0.331131
v 0.148417 -0.892769 0.352631
v -0.096589 -0.599673 0.331131
v -0.130614 -0.892769 0.345346
v -0.256080 -0.391496 0.397763
v 0.283294 -0.302911 0.329286
v -0.256080 -0.302911 0.397763
v 0.272387 -0.391496 0.411562
v 0.148417 -0.865430 0.352631
v -0.130614 -0.865430 0.345346
v 0.103276 -0.599673 0.367123
v 0.103276 -0.835901 0.367123
v -0.086248 -0.835901 0.362175
v -0.086248 -0.599673 0.362175
v 0.133208 -0.892769 0.392855
v -0.116965 -0.892769 0.386323
v -0.230230 -0.391496 0.475372
v -0.116965 -0.865430 0.386323
v -0.230230 -0.302911 0.475372
v 0.272387 -0.302911 0.411562
v 0.243581 -0.391496 0.487744
v 0.133208 -0.865430 0.392855
v 0.085379 -0.599673 0.393082
v 0.085379 -0.835901 0.393082
v -0.069367 -0.835901 0.389041
v -0.069367 -0.599673 0.389041
v 0.109584 -0.892769 0.427121
v -0.094681 -0.892769 0.421787
v -0.094681 -0.865430 0.421787
v -0.188027 -0.302911 0.542539
v 0.243581 -0.302911 0.487744
v -0.188027 -0.391496 0.542539
v 0.198838 -0.391496 0.552640
v 0.109584 -0.865430 0.427121
v 0.062327 -0.599673 0.412757
v -0.047095 -0.835901 0.409900
v 0.062327 -0.835901 0.412757
v -0.047095 -0.599673 0.409900
v 0.079156 -0.865430 0.453092
v -0.065281 -0.892769 0.449321
v -0.132345 -0.391496 0.594686
v 0.198838 -0.302911 0.552640
v 0.141209 -0.391496 0.601829
v 0.079156 -0.892769 0.453092
v -0.065281 -0.865430 0.449321
v -0.132345 -0.302911 0.594686
v 0.141209 -0.302911 0.601829
v 0.035692 -0.599673 0.424808
v -0.020949 -0.835901 0.423329
v 0.035692 -0.835901 0.424808
v -0.020949 -0.599673 0.423329
v 0.043997 -0.865430 0.469000
v -0.030769 -0.892769 0.467048
v -0.066981 -0.391496 0.628260
v 0.074621 -0.302911 0.631957
v 0.074621 -0.391496 0.631957
v 0.043997 -0.892769 0.469000
v -0.030769 -0.865430 0.467048
v -0.066981 -0.302911 0.628260
v 0.007288 -0.599673 0.428414
v 0.007288 -0.835901 0.428414
v 0.006504 -0.865430 0.473760
v 0.006504 -0.892769 0.473760
v 0.003611 -0.391496 0.640972
v 0.003611 -0.302911 0.640972
vn 0.4509289708821645 0.16108298959838846 -0.8779039433111105
vn 0.31622187454642736 0.16535993439734503 -0.9341626293930031
vn -0.31622187454642736 -0.16535993439734503 0.9341626293930031
vn -0.4509289708821645 -0.16108298959838846 0.8779039433111105
vn 0.17476906803088282 0.1661100646602655 -0.9704963777769492
vn -0.17476906803088282 -0.1661100646602655 0.9704963777769492
vn 0.5000001748438417 0.8660253028382762 0
vn 0.2588189595935754 0.965925849201117 0
vn 0.38268289803626016 0.9238797538373538 0
vn -0.38268289803626016 -0.9238797538373538 0
vn -0.2588189595935754 -0.965925849201117 0
vn -0.5000001748438417 -0.8660253028382762 0
vn 0.7071067811865475 0.7071067811865475 0
vn -0.7071067811865475 -0.7071067811865475 0
vn 0.5000001748438417 -0.8660253028382762 0
vn 0.7071067811865475 -0.7071067811865475 0
vn 0.6087613233345314 -0.7933534213778813 0
vn -0.6087613233345314 0.7933534213778813 0
vn -0.7071067811865475 0.7071067811865475 0
vn -0.5000001748438417 0.8660253028382762 0
vn 0 0 -1
vn 0 0 1
vn 0 1 0
vn 0 -1 0
vn 0.22709908570607562 -0.7082402672863861 -0.6684472522686985
vn 0.548467998488148 -0.6693949981548127 -0.50109199861874
vn 0.8428247009464641 -0.345213877510198 -0.4128848534989836
vn -0.8428247009464641 0.345213877510198 0.4128848534989836
vn -0.548467998488148 0.6693949981548127 0.50109199861874
vn -0.22709908570607562 0.7082402672863861 0.6684472522686985
vn 0.8660253028382762 0.5000001748438417 0
vn -0.8660253028382762 -0.5000001748438417 0
vn 0.8660253028382762 -0.5000001748438417 0
vn -0.8660253028382762 0.5000001748438417 0
vn 0.025579005849650727 0.16821603846924613 -0.985418225354827
vn -0.025579005849650727 -0.16821603846924613 0.985418225354827
vn 0.2588189595935754 -0.965925849201117 0
vn -0.2588189595935754 0.965925849201117 0
vn 0.12482099095859187 -0.7099229485767331 -0.6931299497931339
vn -0.12482099095859187 0.7099229485767331 0.6931299497931339
vn 0.018223009240771876 -0.7144703623033686 -0.6994283546756623
vn -0.018223009240771876 0.7144703623033686 0.6994283546756623
vn 0.8353667308678552 -0.3176658976568001 -0.4486098554702646
vn -0.8353667308678552 0.3176658976568001 0.4486098554702646
vn 0.965925849201117 0.2588189595935754 0
vn -0.965925849201117 -0.2588189595935754 0
vn 0.724375082049608 0 -0.6894060780886861
vn 0.3205759385287682 0 -0.9472228183676739
vn -0.3205759385287682 0 0.9472228183676739
vn -0.724375082049608 0 0.6894060780886861
vn -0.005572001999521634 -0.976948350579444 0.21340307658002788
vn -0.0027860003942622663 -0.9942871407070517 0.10670201509999007
vn 0.0027860003942622663 0.9942871407070517 -0.10670201509999007
vn 0.005572001999521634 0.976948350579444 -0.21340307658002788
vn 0.13052598533534113 -0.9914448886106773 0
vn -0.13052598533534113 0.9914448886106773 0
vn 0.0259430109892283 0 -0.9996634234485189
vn -0.0259430109892283 0 0.9996634234485189
vn 0.7034288564196337 -0.6022098770799436 -0.37753292293987534
vn -0.7034288564196337 0.6022098770799436 0.37753292293987534
vn 0.9377228325850756 0.026826995210483075 -0.34634693816547446
vn -0.9377228325850756 -0.026826995210483075 0.34634693816547446
vn 1 0 0
vn -1 0 0
vn 0.965925849201117 -0.2588189595935754 0
vn -0.965925849201117 0.2588189595935754 0
vn -0.12418702291381183 0.16653903072820267 -0.9781831804850845
vn 0.12418702291381183 -0.16653903072820267 0.9781831804850845
vn -0.2721130795939037 0 -0.9622652814655227
vn 0.2721130795939037 0 0.9622652814655227
vn -0.2683820306560734 0.16617101898096884 -0.9488721083853973
vn 0.2683820306560734 -0.16617101898096884 0.9488721083853973
vn -0.08858200245243704 -0.7108560196804046 -0.6977370193171986
vn 0.08858200245243704 0.7108560196804046 0.6977370193171986
vn 0.8809067503735254 0 -0.4732898658817399
vn -0.8809067503735254 0 0.4732898658817399
vn 0.85582950640347 -0.32277681383965606 -0.4041917668838804
vn -0.85582950640347 0.32277681383965606 0.4041917668838804
vn 0.9042129167703695 0 -0.42708196068860216
vn -0.9042129167703695 0 0.42708196068860216
vn 0.9942873379175579 0.07873302675813229 -0.0720680244929709
vn -0.9942873379175579 -0.07873302675813229 0.0720680244929709
vn -0.5727500662451357 0.7497360867156053 -0.33144103833496985
vn -0.6049550967135742 0.7414211185302624 -0.2903860464237306
vn 0.5727500662451357 -0.7497360867156053 0.33144103833496985
vn 0.6049550967135742 -0.7414211185302624 0.2903860464237306
vn -0.8848690726521782 -0.23319001914606732 -0.40327303311073376
vn -0.849587851559174 0.10496698166006561 -0.516896909687263
vn -0.9437639659791973 0 -0.330619988081811
vn 0.9437639659791973 0 0.330619988081811
vn 0.849587851559174 -0.10496698166006561 0.516896909687263
vn 0.8848690726521782 0.23319001914606732 0.40327303311073376
vn -0.004184998266494562 -0.9870615911404194 0.1602869336061204
vn 0.004184998266494562 0.9870615911404194 -0.1602869336061204
vn -0.699058996652556 0 -0.7150639965759161
vn 0.699058996652556 0 0.7150639965759161
vn -0.4067670767630562 0.16220503061052524 -0.8990161696578526
vn 0.4067670767630562 -0.16220503061052524 0.8990161696578526
vn -0.19230406900621216 -0.7100252547847979 -0.6774092430808989
vn 0.19230406900621216 0.7100252547847979 0.6774092430808989
vn -0.5297440187651227 -0.6714130237834639 -0.5182430183577228
vn 0.5297440187651227 0.6714130237834639 0.5182430183577228
vn -0.8650395219723718 0 -0.5017037227545857
vn 0.8650395219723718 0 0.5017037227545857
vn -0.6752651192508178 -0.2935030518322033 -0.6766631194977025
vn -0.6911566302489263 -0.6017296780900525 -0.40027978586057905
vn 0.6911566302489263 0.6017296780900525 0.40027978586057905
vn 0.6752651192508178 0.2935030518322033 0.6766631194977025
vn 0.7163307084588335 -0.6102817516199548 -0.3382698623267311
vn -0.7163307084588335 0.6102817516199548 0.3382698623267311
vn 0.5908256407143105 0.7570335396419884 -0.2789718303550498
vn 0.5827240978830887 0.7501571260076537 -0.3125650525031191
vn -0.5908256407143105 -0.7570335396419884 0.2789718303550498
vn -0.5827240978830887 -0.7501571260076537 0.3125650525031191
vn 0.6092900864750249 0.7434431055150289 -0.27578603914162586
vn -0.6092900864750249 -0.7434431055150289 0.27578603914162586
vn -0.5785231064904935 0.757335139404964 -0.30291005575756785
vn 0.5785231064904935 -0.757335139404964 0.30291005575756785
vn -0.8383579343712476 -0.3230009747146772 -0.4391199656245927
vn 0.8383579343712476 0.3230009747146772 0.4391199656245927
vn -0.6087613233345314 -0.7933534213778813 0
vn 0.6087613233345314 0.7933534213778813 0
vn -0.38268289803626016 0.9238797538373538 0
vn 0.38268289803626016 -0.9238797538373538 0
vn -0.885812118131912 0 -0.46404406188492026
vn 0.885812118131912 0 0.46404406188492026
vn -0.7015329900459484 -0.6106399913356292 -0.36738299478720277
vn 0.7015329900459484 0.6106399913356292 0.36738299478720277
vn 0.9258730715449927 -0.32368302501195934 -0.19490601506097308
vn -0.9258730715449927 0.32368302501195934 0.19490601506097308
vn 0.9785782849087055 0 -0.205875059939606
vn -0.9785782849087055 0 0.205875059939606
vn 0.6378142210090441 0.7583602627794602 -0.13447204659591694
vn -0.6378142210090441 -0.7583602627794602 0.13447204659591694
vn -0.969734726464055 0 -0.24416093112880335
vn 0.969734726464055 0 0.24416093112880335
vn 0.7739772253593685 -0.6118591781553688 -0.16305704747740896
vn -0.7739772253593685 0.6118591781553688 0.16305704747740896
vn -0.9176525491583309 -0.32324484119017177 -0.2311418864402502
vn 0.9176525491583309 0.32324484119017177 0.2311418864402502
vn -0.6327548061154149 0.7577387678186477 -0.15954095111450628
vn 0.6327548061154149 -0.7577387678186477 0.15954095111450628
vn -0.7675399677475875 -0.6111199743204336 -0.1934289918720172
vn 0.7675399677475875 0.6111199743204336 0.1934289918720172
vn 0.944271281877295 -0.3286780981146997 0.01795700536040034
vn -0.944271281877295 0.3286780981146997 -0.01795700536040034
vn 0.9998136412564318 0 0.019304993073167024
vn -0.9998136412564318 0 -0.019304993073167024
vn 0.6435589643654975 0.765305957624245 0.01177499934800653
vn -0.6435589643654975 -0.765305957624245 -0.01177499934800653
vn -0.9446595854338703 -0.32753085626229644 -0.01848799188650032
vn 0.9446595854338703 0.32753085626229644 0.01848799188650032
vn -0.6454088441799297 0.7637258156148443 -0.013049996849359218
vn 0.6454088441799297 -0.7637258156148443 0.013049996849359218
vn 0.7843231325094436 -0.6201801047778871 0.014624002470688867
vn -0.7843231325094436 0.6201801047778871 -0.014624002470688867
vn -0.7858039130508018 -0.6182779315875506 -0.015639998269434286
vn 0.7858039130508018 0.6182779315875506 0.015639998269434286
vn 0.912896223885544 -0.3376330828036796 0.22940005625979715
vn -0.912896223885544 0.3376330828036796 -0.22940005625979715
vn 0.6102461878981865 0.7773732393575328 0.15261204699009587
vn -0.6102461878981865 -0.7773732393575328 -0.15261204699009587
vn -0.9218236073119842 -0.3358458569328859 0.19351691756364905
vn 0.9218236073119842 0.3358458569328859 -0.19351691756364905
vn -0.6186168458487433 0.7750008068798981 0.12917796781053376
vn 0.6186168458487433 -0.7750008068798981 -0.12917796781053376
vn -0.7585438423465397 -0.6319768686518371 0.15879696699611817
vn 0.7585438423465397 0.6319768686518371 -0.15879696699611817
vn 0.7494139396837961 -0.6348969489006385 0.18784198488163237
vn -0.7494139396837961 0.6348969489006385 -0.18784198488163237
vn 0.8301392671068989 -0.34975011253613897 0.4342161397140589
vn -0.8301392671068989 0.34975011253613897 -0.4342161397140589
vn 0.5402650292169933 0.7929960428844343 0.2815510152259978
vn -0.5402650292169933 -0.7929960428844343 -0.2815510152259978
vn -0.8481002895427604 -0.34750911864015466 0.3999541365449654
vn 0.8481002895427604 0.34750911864015466 -0.3999541365449654
vn -0.6869140923027135 -0.6508770874603127 0.32327704343970903
vn 0.6869140923027135 0.6508770874603127 -0.32327704343970903
vn -0.5547231189101832 0.7901661693796432 0.2606140558651047
vn 0.5547231189101832 -0.7901661693796432 -0.2606140558651047
vn 0.6702638669492843 -0.654466870085067 0.34988493054609876
vn -0.6702638669492843 0.654466870085067 -0.34988493054609876
vn 0.6922218176507995 -0.36347190425206277 0.6234718357613298
vn -0.6922218176507995 0.36347190425206277 -0.6234718357613298
vn 0.742549370873059 0 0.6697913345333938
vn -0.742549370873059 0 -0.6697913345333938
vn -0.7198853781090959 -0.36110318966408367 0.5927643113406449
vn 0.7198853781090959 0.36110318966408367 -0.5927643113406449
vn 0.4366858974886526 0.8097508099122342 0.3919299079950528
vn -0.4366858974886526 -0.8097508099122342 -0.3919299079950528
vn -0.7715127828326837 0 0.6362138209169683
vn 0.7715127828326837 0 -0.6362138209169683
vn -0.4566151320325676 0.8069282333273672 0.3746591083345702
vn 0.4566151320325676 -0.8069282333273672 -0.3746591083345702
vn 0.5479407878258613 -0.6761437381829962 0.49253480928021554
vn -0.5479407878258613 0.6761437381829962 -0.49253480928021554
vn -0.5718358483857505 -0.672439821712019 0.46992387540627983
vn 0.5718358483857505 0.672439821712019 -0.46992387540627983
vn 0.49714268739553363 -0.37641976330638616 0.7817655084240485
vn -0.49714268739553363 0.37641976330638616 -0.7817655084240485
vn -0.5757886840872914 0 0.8175985514156843
vn 0.5757886840872914 0 -0.8175985514156843
vn 0.30429288059504067 0.8246766763956987 0.476774812912885
vn -0.30429288059504067 -0.8246766763956987 -0.476774812912885
vn -0.5344578331214468 -0.37438288310308127 0.7577547633994474
vn 0.5344578331214468 0.37438288310308127 -0.7577547633994474
vn 0.5360238837404524 0 0.8442028168987605
vn -0.5360238837404524 0 -0.8442028168987605
vn -0.3287060697044304 0.8223851743925513 0.4643650984718801
vn 0.3287060697044304 -0.8223851743925513 -0.4643650984718801
vn 0.38584299274422257 -0.696094986909934 0.6054559886144002
vn -0.38584299274422257 0.696094986909934 -0.6054559886144002
vn -0.41611890669221163 -0.692990844608255 0.5887348679859348
vn 0.41611890669221163 0.692990844608255 -0.5887348679859348
vn 0.2514359284571854 -0.38566689026351564 0.8877167474117758
vn -0.2514359284571854 0.38566689026351564 -0.8877167474117758
vn 0.15055003813154427 0.8348242114455552 0.5295311341204568
vn -0.15055003813154427 -0.8348242114455552 -0.5295311341204568
vn -0.29636007433185774 -0.3844720964317654 0.8742722192814885
vn 0.29636007433185774 0.3844720964317654 -0.8742722192814885
vn -0.17795807639884226 0.8335363578439036 0.523018224535956
vn 0.17795807639884226 -0.8335363578439036 -0.523018224535956
vn 0.19230406900621216 -0.7100252547847979 0.6774092430808989
vn -0.19230406900621216 0.7100252547847979 -0.6774092430808989
vn -0.22709908570607562 -0.7082402672863861 0.6684472522686985
vn 0.22709908570607562 0.7082402672863861 -0.6684472522686985
vn -0.023942998859666817 -0.38865798148938674 0.9210709561321545
vn 0.023942998859666817 0.38865798148938674 -0.9210709561321545
vn -0.014232999956269109 0.838015997425196 0.5454599983240742
vn 0.014232999956269109 -0.838015997425196 -0.5454599983240742
vn -0.018223009240771876 -0.7144703623033686 0.6994283546756623
vn 0.018223009240771876 0.7144703623033686 -0.6994283546756623
usemtl material_0_0
f 1//1 2//2 3//2
f 2//2 1//1 4//1
f 3//3 2//3 1//4
f 4//4 1//4 2//3
f 5//5 3//2 2//2
f 2//3 3//3 5//6
f 1//7 6//8 3//9
f 3//10 6//11 1//12
f 3//2 7//1 1//1
f 1//4 7//4 3//3
f 1//1 7//1 4//1
f 4//4 7//4 1//4
f 4//13 8//7 1//7
f 1//12 8//12 4//14
f 2//2 4//1 9//1
f 9//4 4//4 2//3
f 5//5 10//5 3//2
f 3//3 10//6 5//6
f 11//2 5//5 2//2
f 2//3 5//6 11//3
f 5//15 12//16 2//17
f 2//18 12//19 5//20
f 6//8 1//7 8//7
f 8//12 1//12 6//11
f 3//9 6//8 13//8
f 13//11 6//11 3//10
f 7//1 3//2 14//2
f 14//3 3//3 7//4
f 4//1 7//1 15//1
f 15//4 7//4 4//4
f 8//7 4//13 16//13
f 16//14 4//14 8//12
f 9//1 4//1 15//1
f 15//4 4//4 9//4
f 9//1 11//2 2//2
f 2//3 11//3 9//4
f 2//17 12//16 9//16
f 9//19 12//19 2//18
f 17//5 10//5 5//5
f 5//6 10//6 17//6
f 3//9 13//8 10//9
f 10//10 13//11 3//10
f 3//2 10//5 14//2
f 14//3 10//6 3//3
f 11//2 17//5 5//5
f 5//6 17//6 11//3
f 12//16 5//15 18//15
f 18//20 5//20 12//19
f 19//21 6//21 8//21
f 8//22 6//22 19//22
f 6//8 20//23 13//8
f 13//11 20//24 6//11
f 14//25 21//26 7//27
f 7//28 21//29 14//30
f 15//1 7//1 22//1
f 22//4 7//4 15//4
f 15//31 16//13 4//13
f 4//14 16//14 15//32
f 18//21 8//21 16//21
f 16//22 8//22 18//22
f 9//1 15//1 23//1
f 23//4 15//4 9//4
f 11//2 9//1 24//1
f 24//4 9//4 11//3
f 25//33 9//16 12//16
f 12//19 9//19 25//34
f 26//35 10//5 17//5
f 17//6 10//6 26//36
f 19//37 5//15 17//37
f 17//38 5//20 19//38
f 13//39 14//25 10//39
f 10//40 14//30 13//40
f 27//41 13//39 10//39
f 10//40 13//40 27//42
f 28//35 17//5 11//2
f 11//3 17//6 28//36
f 5//15 19//37 18//15
f 18//20 19//38 5//20
f 18//21 16//21 12//21
f 12//22 16//22 18//22
f 29//21 6//21 19//21
f 19//22 6//22 29//22
f 19//21 8//21 18//21
f 18//22 8//22 19//22
f 20//23 6//8 30//23
f 30//24 6//11 20//24
f 20//39 31//25 13//39
f 13//40 31//30 20//40
f 27//41 20//39 13//39
f 13//40 20//40 27//42
f 21//26 14//25 31//25
f 31//30 14//30 21//29
f 21//26 32//43 7//27
f 7//28 32//44 21//29
f 22//1 7//1 33//1
f 33//4 7//4 22//4
f 34//1 15//1 22//1
f 22//4 15//4 34//4
f 22//45 35//31 15//31
f 15//32 35//32 22//46
f 16//13 15//31 35//31
f 35//32 15//32 16//14
f 23//1 15//1 34//1
f 34//4 15//4 23//4
f 24//1 9//1 23//1
f 23//4 9//4 24//4
f 9//16 25//33 23//33
f 23//34 25//34 9//19
f 24//47 36//48 11//48
f 11//49 36//49 24//50
f 24//51 37//52 11//24
f 11//23 37//53 24//54
f 12//21 35//21 25//21
f 25//22 35//22 12//22
f 10//5 26//35 27//35
f 27//36 26//36 10//6
f 17//5 28//35 26//35
f 26//36 28//36 17//6
f 17//37 26//55 19//37
f 19//38 26//56 17//38
f 13//39 31//25 14//25
f 14//30 31//30 13//40
f 11//48 38//57 28//57
f 28//58 38//58 11//49
f 11//24 39//24 28//24
f 28//23 39//23 11//23
f 12//21 16//21 35//21
f 35//22 16//22 12//22
f 29//21 30//21 6//21
f 6//22 30//22 29//22
f 19//37 40//24 29//24
f 29//23 40//23 19//38
f 41//38 20//23 30//23
f 30//24 20//24 41//37
f 42//41 31//25 20//39
f 20//40 31//30 42//42
f 20//39 27//41 42//41
f 42//42 27//42 20//40
f 43//24 31//24 21//24
f 21//23 31//23 43//23
f 31//48 44//47 21//47
f 21//50 44//50 31//49
f 32//43 21//26 45//59
f 45//60 21//29 32//44
f 32//43 46//61 7//27
f 7//28 46//62 32//44
f 33//1 7//1 24//1
f 24//4 7//4 33//4
f 34//1 22//1 33//1
f 33//4 22//4 34//4
f 33//63 47//45 22//45
f 22//46 47//46 33//64
f 35//31 22//45 47//45
f 47//46 22//46 35//32
f 24//1 23//1 34//1
f 34//4 23//4 24//4
f 23//33 48//65 34//65
f 34//66 48//66 23//34
f 48//65 23//33 25//33
f 25//34 23//34 48//66
f 36//48 24//47 49//47
f 49//50 24//50 36//49
f 38//57 11//48 36//48
f 36//49 11//49 38//58
f 50//51 37//52 24//51
f 24//54 37//53 50//54
f 37//52 39//24 11//24
f 11//23 39//23 37//53
f 25//21 35//21 47//21
f 47//22 35//22 25//22
f 40//67 27//35 26//35
f 26//36 27//36 40//68
f 28//35 40//67 26//35
f 26//36 40//68 28//36
f 40//24 19//37 26//55
f 26//56 19//38 40//23
f 51//69 28//57 38//57
f 38//58 28//58 51//70
f 52//71 28//35 39//71
f 39//72 28//36 52//72
f 28//57 51//69 39//69
f 39//70 51//70 28//58
f 53//21 30//21 29//21
f 29//22 30//22 53//22
f 40//24 53//11 29//24
f 29//23 53//8 40//23
f 20//23 41//38 42//56
f 42//55 41//37 20//24
f 53//21 41//21 30//21
f 30//22 41//22 53//22
f 31//25 42//41 54//41
f 54//42 42//42 31//30
f 27//41 55//73 42//41
f 42//42 55//74 27//42
f 56//24 31//24 43//24
f 43//23 31//23 56//23
f 43//24 21//24 57//24
f 57//23 21//23 43//23
f 44//47 31//48 58//48
f 58//49 31//49 44//50
f 44//47 45//75 21//47
f 21//50 45//76 44//50
f 57//24 21//24 45//24
f 45//23 21//23 57//23
f 45//59 59//77 32//43
f 32//44 59//78 45//60
f 32//43 60//79 46//61
f 46//62 60//80 32//44
f 7//27 46//61 24//81
f 24//82 46//62 7//28
f 24//1 34//1 33//1
f 33//4 34//4 24//4
f 34//65 61//63 33//63
f 33//64 61//64 34//66
f 47//45 33//63 61//63
f 61//64 33//64 47//46
f 61//63 34//65 48//65
f 48//66 34//66 61//64
f 25//21 47//21 48//21
f 48//22 47//22 25//22
f 24//47 62//75 49//47
f 49//50 62//76 24//50
f 63//24 36//24 49//24
f 49//23 36//23 63//23
f 36//24 51//24 38//24
f 38//23 51//23 36//23
f 50//83 37//84 64//83
f 64//85 37//86 50//85
f 65//87 37//88 50//89
f 50//90 37//91 65//92
f 46//93 50//51 24//51
f 24//54 50//54 46//94
f 39//69 63//95 37//95
f 37//96 63//96 39//70
f 66//97 39//71 37//88
f 37//91 39//72 66//98
f 67//67 27//35 40//67
f 40//68 27//36 67//68
f 28//35 67//67 40//67
f 40//68 67//68 28//36
f 28//35 52//71 68//67
f 68//68 52//72 28//36
f 39//71 69//97 52//71
f 52//72 69//98 39//72
f 63//95 39//69 51//69
f 51//70 39//70 63//96
f 53//11 40//24 67//11
f 67//8 40//23 53//8
f 55//38 42//56 41//38
f 41//37 42//55 55//37
f 70//21 41//21 53//21
f 53//22 41//22 70//22
f 42//41 56//99 54//41
f 54//42 56//100 42//42
f 31//24 56//24 54//24
f 54//23 56//23 31//23
f 54//57 58//48 31//48
f 31//49 58//49 54//58
f 55//73 27//41 71//73
f 71//74 27//42 55//74
f 56//99 42//41 55//73
f 55//74 42//42 56//100
f 43//95 72//69 56//69
f 56//70 72//70 43//96
f 73//99 43//101 56//99
f 56//100 43//102 73//100
f 74//103 43//95 57//103
f 57//104 43//96 74//104
f 75//105 57//106 43//101
f 43//102 57//107 75//108
f 58//23 76//23 44//23
f 44//24 76//24 58//24
f 45//75 44//47 77//75
f 77//76 44//50 45//76
f 57//24 45//24 78//24
f 78//23 45//23 57//23
f 59//77 45//59 79//109
f 79//110 45//60 59//78
f 60//79 32//43 59//77
f 59//78 32//44 60//80
f 80//111 46//112 60//111
f 60//113 46//114 80//113
f 81//24 46//93 60//24
f 60//23 46//94 81//23
f 46//112 82//112 24//115
f 24//116 82//114 46//114
f 48//21 47//21 61//21
f 61//22 47//22 48//22
f 62//75 24//47 82//75
f 82//76 24//50 62//76
f 83//24 49//24 62//24
f 62//23 49//23 83//23
f 51//24 36//24 63//24
f 63//23 36//23 51//23
f 63//24 49//24 83//24
f 83//23 49//23 63//23
f 63//95 64//103 37//95
f 37//96 64//104 63//96
f 84//117 50//83 64//83
f 64//85 50//85 84//118
f 75//105 37//88 65//87
f 65//92 37//91 75//108
f 50//89 85//119 65//87
f 65//92 85//120 50//90
f 46//93 81//24 50//51
f 50//54 81//23 46//94
f 39//71 66//97 86//97
f 86//98 66//98 39//72
f 75//105 66//97 37//88
f 37//91 66//98 75//108
f 67//67 71//67 27//35
f 27//36 71//68 67//68
f 28//35 68//67 67//67
f 67//68 68//68 28//36
f 87//71 68//67 52//71
f 52//72 68//68 87//72
f 88//14 68//12 52//121
f 52//122 68//7 88//13
f 39//71 89//97 69//97
f 69//98 89//98 39//72
f 69//97 90//97 52//71
f 52//72 90//98 69//98
f 88//14 52//121 69//14
f 69//13 52//122 88//13
f 68//12 53//11 67//11
f 67//8 53//8 68//7
f 41//38 87//123 55//38
f 55//37 87//124 41//37
f 70//21 91//21 41//21
f 41//22 91//22 70//22
f 53//11 68//12 70//12
f 70//7 68//7 53//8
f 56//69 92//57 54//57
f 54//58 92//58 56//70
f 58//48 54//57 92//57
f 92//58 54//58 58//49
f 55//38 87//123 71//123
f 71//124 87//124 55//37
f 73//99 55//73 71//73
f 71//74 55//74 73//100
f 56//99 55//73 73//99
f 73//100 55//74 56//100
f 72//69 43//95 76//95
f 76//96 43//96 72//70
f 92//57 56//69 72//69
f 72//70 56//70 92//58
f 43//101 73//99 75//105
f 75//108 73//100 43//102
f 43//95 74//103 76//95
f 76//96 74//104 43//96
f 57//103 93//125 74//103
f 74//104 93//126 57//104
f 57//106 75//105 65//87
f 65//92 75//108 57//107
f 58//23 72//23 76//23
f 76//24 72//24 58//24
f 44//23 76//23 74//23
f 74//24 76//24 44//24
f 44//23 74//23 77//23
f 77//24 74//24 44//24
f 77//75 79//79 45//75
f 45//76 79//80 77//76
f 78//24 45//24 79//24
f 79//23 45//23 78//23
f 93//125 57//103 78//125
f 78//126 57//104 93//126
f 65//87 78//127 57//106
f 57//107 78//128 65//92
f 79//109 94//129 59//77
f 59//78 94//130 79//110
f 59//77 95//131 60//79
f 60//80 95//132 59//78
f 46//112 80//111 82//112
f 82//114 80//113 46//114
f 60//111 96//133 80//111
f 80//113 96//134 60//113
f 81//24 60//24 97//24
f 97//23 60//23 81//23
f 82//75 98//79 62//75
f 62//76 98//80 82//76
f 83//24 62//24 99//24
f 99//23 62//23 83//23
f 64//103 63//95 83//103
f 83//104 63//96 64//104
f 50//83 84//117 81//117
f 81//118 84//118 50//85
f 83//103 84//125 64//103
f 64//104 84//126 83//104
f 85//119 50//89 81//125
f 81//126 50//90 85//120
f 78//127 65//87 85//119
f 85//120 65//92 78//128
f 100//97 86//97 66//97
f 66//98 86//98 100//98
f 101//64 86//46 66//64
f 66//63 86//45 101//63
f 39//71 86//97 89//97
f 89//98 86//98 39//72
f 66//97 75//105 100//97
f 100//98 75//108 66//98
f 67//67 87//71 71//67
f 71//68 87//72 67//68
f 68//67 87//71 67//67
f 67//68 87//72 68//68
f 52//71 90//97 87//71
f 87//72 90//98 52//72
f 68//12 88//14 70//12
f 70//7 88//13 68//7
f 89//97 102//97 69//97
f 69//98 102//98 89//98
f 103//32 69//14 89//32
f 89//31 69//13 103//31
f 69//97 102//97 90//97
f 90//98 102//98 69//98
f 69//14 103//32 88//14
f 88//13 103//31 69//13
f 41//38 90//20 87//123
f 87//124 90//15 41//37
f 88//21 91//21 70//21
f 70//22 91//22 88//22
f 90//20 41//38 91//20
f 91//15 41//37 90//15
f 72//23 58//23 92//23
f 92//24 58//24 72//24
f 71//67 87//71 73//71
f 73//72 87//72 71//68
f 102//97 75//105 73//71
f 73//72 75//108 102//98
f 77//23 74//23 93//23
f 93//24 74//24 77//24
f 79//79 77//75 104//79
f 104//80 77//76 79//80
f 78//24 79//24 105//24
f 105//23 79//23 78//23
f 78//125 106//135 93//125
f 93//126 106//136 78//126
f 94//129 79//109 107//137
f 107//138 79//110 94//130
f 95//131 59//77 94//129
f 94//130 59//78 95//132
f 96//133 60//111 95//133
f 95//134 60//113 96//134
f 97//24 60//24 95//24
f 95//23 60//23 97//23
f 98//79 82//75 80//79
f 80//80 82//76 98//80
f 108//131 80//79 96//131
f 96//132 80//80 108//132
f 109//139 81//125 97//135
f 97//136 81//126 109//140
f 81//117 110//141 97//141
f 97//142 110//142 81//118
f 99//24 62//24 98//24
f 98//23 62//23 99//23
f 84//125 83//103 99//125
f 99//126 83//104 84//126
f 110//141 81//117 84//117
f 84//118 81//118 110//142
f 81//125 109//139 85//119
f 85//120 109//140 81//126
f 85//119 105//143 78//127
f 78//128 105//144 85//120
f 86//97 100//97 111//97
f 111//98 100//98 86//98
f 112//66 66//64 100//66
f 100//65 66//63 112//65
f 86//46 101//64 113//46
f 113//45 101//63 86//45
f 66//64 112//66 101//64
f 101//63 112//65 66//63
f 113//46 89//32 86//46
f 86//45 89//31 113//45
f 86//97 111//97 89//97
f 89//98 111//98 86//98
f 100//97 75//105 111//97
f 111//98 75//108 100//98
f 90//97 73//71 87//71
f 87//72 73//72 90//98
f 89//97 111//97 102//97
f 102//98 111//98 89//98
f 89//32 113//46 103//32
f 103//31 113//45 89//31
f 102//97 73//71 90//97
f 90//98 73//72 102//98
f 91//20 102//19 90//20
f 90//15 102//16 91//15
f 103//21 114//21 88//21
f 88//22 114//22 103//22
f 88//21 114//21 91//21
f 91//22 114//22 88//22
f 111//97 75//105 102//97
f 102//98 75//108 111//98
f 77//23 93//23 104//23
f 104//24 93//24 77//24
f 104//79 107//131 79//79
f 79//80 107//132 104//80
f 105//24 79//24 107//24
f 107//23 79//23 105//23
f 106//135 78//125 105//135
f 105//136 78//126 106//136
f 104//23 93//23 106//23
f 106//24 93//24 104//24
f 107//137 115//145 94//129
f 94//130 115//146 107//138
f 94//129 116//147 95//131
f 95//132 116//148 94//130
f 95//133 117//149 96//133
f 96//134 117//150 95//134
f 97//24 95//24 118//24
f 118//23 95//23 97//23
f 80//79 108//131 98//79
f 98//80 108//132 80//80
f 96//131 119//147 108//131
f 108//132 119//148 96//132
f 97//135 120//151 109//139
f 109//140 120//152 97//136
f 121//153 97//141 110//141
f 110//142 97//142 121//154
f 99//24 98//24 122//24
f 122//23 98//23 99//23
f 99//125 110//135 84//125
f 84//126 110//136 99//126
f 105//143 85//119 109//139
f 109//140 85//120 105//144
f 123//34 100//66 111//34
f 111//33 100//65 123//33
f 100//66 123//34 112//66
f 112//65 123//33 100//65
f 112//21 113//21 101//21
f 101//22 113//22 112//22
f 114//19 111//34 102//19
f 102//16 111//33 114//16
f 113//21 123//21 103//21
f 103//22 123//22 113//22
f 102//19 91//20 114//19
f 114//16 91//15 102//16
f 103//21 123//21 114//21
f 114//22 123//22 103//22
f 107//131 104//79 124//131
f 124//132 104//80 107//132
f 105//24 107//24 125//24
f 125//23 107//23 105//23
f 105//135 126//148 106//135
f 106//136 126//147 105//136
f 104//23 106//23 124//23
f 124//24 106//24 104//24
f 115//145 107//137 127//155
f 127//156 107//138 115//146
f 116//147 94//129 115//145
f 115//146 94//130 116//148
f 117//149 95//133 116//149
f 116//150 95//134 117//150
f 118//24 95//24 116//24
f 116//23 95//23 118//23
f 119//147 96//131 117//147
f 117//148 96//132 119//148
f 120//151 97//135 118//148
f 118//147 97//136 120//152
f 97//141 121//153 118//153
f 118//154 121//154 97//142
f 122//24 98//24 108//24
f 108//23 98//23 122//23
f 128//24 108//24 119//24
f 119//23 108//23 128//23
f 125//157 109//139 120//151
f 120//152 109//140 125//158
f 122//135 121//148 110//135
f 110//136 121//147 122//136
f 110//135 99//125 122//135
f 122//136 99//126 110//136
f 109//139 125//157 105//143
f 105//144 125//158 109//140
f 111//34 114//19 123//34
f 123//33 114//16 111//33
f 113//21 112//21 123//21
f 123//22 112//22 113//22
f 124//131 127//147 107//131
f 107//132 127//148 124//132
f 125//24 107//24 127//24
f 127//23 107//23 125//23
f 126//148 105//135 125//148
f 125//147 105//136 126//147
f 124//23 106//23 126//23
f 126//24 106//24 124//24
f 127//155 129//159 115//145
f 115//146 129//160 127//156
f 115//145 130//136 116//147
f 116//148 130//135 115//146
f 130//161 117//149 116//149
f 116//150 117//150 130//162
f 118//24 116//24 131//24
f 131//23 116//23 118//23
f 117//147 132//136 119//147
f 119//148 132//135 117//148
f 118//148 133//163 120//151
f 120//152 133//164 118//147
f 121//153 131//165 118//153
f 118//154 131//166 121//154
f 122//24 108//24 128//24
f 128//23 108//23 122//23
f 128//24 119//24 134//24
f 134//23 119//23 128//23
f 120//151 135//167 125//157
f 125//158 135//168 120//152
f 121//148 122//135 128//148
f 128//147 122//136 121//147
f 127//147 124//131 136//147
f 136//148 124//132 127//148
f 125//24 127//24 135//24
f 135//23 127//23 125//23
f 125//148 137//132 126//148
f 126//147 137//131 125//147
f 124//23 126//23 136//23
f 136//24 126//24 124//24
f 129//159 127//155 138//169
f 138//170 127//156 129//160
f 130//136 115//145 129//159
f 129//160 115//146 130//135
f 131//24 116//24 130//24
f 130//23 116//23 131//23
f 117//149 130//161 139//161
f 139//162 130//162 117//150
f 133//163 118//148 131//132
f 131//131 118//147 133//164
f 132//136 117//147 139//136
f 139//135 117//148 132//135
f 134//24 119//24 132//24
f 132//23 119//23 134//23
f 135//167 120//151 133//163
f 133//164 120//152 135//168
f 131//165 121//153 140//165
f 140//166 121//154 131//166
f 140//132 128//148 134//132
f 134//131 128//147 140//131
f 137//132 125//148 135//132
f 135//131 125//147 137//131
f 128//148 140//132 121//148
f 121//147 140//131 128//147
f 136//147 138//136 127//147
f 127//148 138//135 136//148
f 135//24 127//24 138//24
f 138//23 127//23 135//23
f 136//23 126//23 137//23
f 137//24 126//24 136//24
f 138//169 141//171 129//159
f 129//160 141//172 138//170
f 129//159 142//126 130//136
f 130//135 142//125 129//160
f 131//24 130//24 143//24
f 143//23 130//23 131//23
f 142//173 139//161 130//161
f 130//162 139//162 142//174
f 131//132 144//175 133//163
f 133//164 144//176 131//131
f 139//136 145//126 132//136
f 132//135 145//125 139//135
f 134//24 132//24 146//24
f 146//23 132//23 134//23
f 133//163 147//177 135//167
f 135//168 147//178 133//164
f 140//165 143//179 131//165
f 131//166 143//180 140//166
f 134//132 148//80 140//132
f 140//131 148//79 134//131
f 135//132 149//80 137//132
f 137//131 149//79 135//131
f 138//136 136//147 150//136
f 150//135 136//148 138//135
f 135//24 138//24 147//24
f 147//23 138//23 135//23
f 136//23 137//23 150//23
f 150//24 137//24 136//24
f 141//171 138//169 151//181
f 151//182 138//170 141//172
f 142//126 129//159 141//171
f 141//172 129//160 142//125
f 143//24 130//24 142//24
f 142//23 130//23 143//23
f 144//175 131//132 143//80
f 143//79 131//131 144//176
f 139//161 142//173 152//173
f 152//174 142//174 139//162
f 147//177 133//163 144//175
f 144//176 133//164 147//178
f 145//126 139//136 152//126
f 152//125 139//135 145//125
f 146//24 132//24 145//24
f 145//23 132//23 146//23
f 148//80 134//132 146//80
f 146//79 134//131 148//79
f 149//80 135//132 147//80
f 147//79 135//131 149//79
f 143//179 140//165 148//179
f 148//180 140//166 143//180
f 150//23 137//23 149//23
f 149//24 137//24 150//24
f 150//136 151//126 138//136
f 138//135 151//125 150//135
f 147//24 138//24 151//24
f 151//23 138//23 147//23
f 151//181 153//183 141//171
f 141//172 153//184 151//182
f 141//171 154//185 142//126
f 142//125 154//186 141//172
f 143//24 142//24 155//24
f 155//23 142//23 143//23
f 143//80 156//187 144//175
f 144//176 156//188 143//79
f 154//189 152//173 142//173
f 142//174 152//174 154//190
f 156//187 147//177 144//175
f 144//176 147//178 156//188
f 152//126 157//185 145//126
f 145//125 157//186 152//125
f 146//24 145//24 158//24
f 158//23 145//23 146//23
f 146//80 159//191 148//80
f 148//79 159//192 146//79
f 147//80 160//191 149//80
f 149//79 160//192 147//79
f 148//179 155//193 143//179
f 143//180 155//194 148//180
f 150//23 149//23 161//23
f 161//24 149//24 150//24
f 151//126 150//136 161//126
f 161//125 150//135 151//125
f 147//24 151//24 162//24
f 162//23 151//23 147//23
f 153//183 151//181 163//195
f 163//196 151//182 153//184
f 154//185 141//171 153//183
f 153//184 141//172 154//186
f 155//24 142//24 154//24
f 154//23 142//23 155//23
f 156//187 143//80 155//191
f 155//192 143//79 156//188
f 152//173 154//189 164//189
f 164//190 154//190 152//174
f 147//177 156//187 162//197
f 162//198 156//188 147//178
f 157//185 152//126 164//185
f 164//186 152//125 157//186
f 158//24 145//24 157//24
f 157//23 145//23 158//23
f 159//191 146//80 158//191
f 158//192 146//79 159//192
f 155//193 148//179 159//193
f 159//194 148//180 155//194
f 160//191 147//80 162//191
f 162//192 147//79 160//192
f 161//23 149//23 160//23
f 160//24 149//24 161//24
f 161//126 163//185 151//126
f 151//125 163//186 161//125
f 162//24 151//24 163//24
f 163//23 151//23 162//23
f 163//195 165//199 153//183
f 153//184 165//200 163//196
f 165//199 154//185 153//183
f 153//184 154//186 165//200
f 155//24 154//24 166//24
f 166//23 154//23 155//23
f 166//201 156//187 155//191
f 155//192 156//188 166//202
f 167//203 164//189 154//189
f 154//190 164//190 167//204
f 168//205 162//197 156//187
f 156//188 162//198 168//206
f 169//207 157//185 164//185
f 164//186 157//186 169//208
f 158//24 157//24 170//24
f 170//23 157//23 158//23
f 170//201 159//191 158//191
f 158//192 159//192 170//202
f 159//193 166//209 155//193
f 155//194 166//210 159//194
f 171//201 160//191 162//191
f 162//192 160//192 171//202
f 161//23 160//23 172//23
f 172//24 160//24 161//24
f 163//185 161//126 172//185
f 172//186 161//125 163//186
f 162//24 163//24 171//24
f 171//23 163//23 162//23
f 165//199 163//195 173//211
f 173//212 163//196 165//200
f 154//185 165//199 167//207
f 167//208 165//200 154//186
f 166//24 154//24 167//24
f 167//23 154//23 166//23
f 156//187 166//201 168//205
f 168//206 166//202 156//188
f 164//189 167//203 169//203
f 169//204 167//204 164//190
f 162//197 168//205 171//213
f 171//214 168//206 162//198
f 157//185 169//207 174//207
f 174//208 169//208 157//186
f 170//24 157//24 174//24
f 174//23 157//23 170//23
f 159//191 170//201 175//201
f 175//202 170//202 159//192
f 166//209 159//193 175//209
f 175//210 159//194 166//210
f 160//191 171//201 176//201
f 176//202 171//202 160//192
f 172//23 160//23 176//23
f 176//24 160//24 172//24
f 177//207 163//185 172//185
f 172//186 163//186 177//208
f 171//24 163//24 173//24
f 173//23 163//23 171//23
f 163//185 177//207 173//207
f 173//208 177//208 163//186
f 173//211 178//215 165//199
f 165//200 178//216 173//212
f 178//215 167//207 165//199
f 165//200 167//208 178//216
f 166//24 167//24 179//24
f 179//23 167//23 166//23
f 179//49 168//205 166//201
f 166//202 168//206 179//48
f 180//217 169//203 167//203
f 167//204 169//204 180//218
f 181//219 171//213 168//205
f 168//206 171//214 181//220
f 182//70 174//207 169//207
f 169//208 174//208 182//69
f 170//24 174//24 183//24
f 183//23 174//23 170//23
f 183//49 175//201 170//201
f 170//202 175//202 183//48
f 175//209 179//221 166//209
f 166//210 179//222 175//210
f 184//49 176//201 171//201
f 171//202 176//202 184//48
f 172//23 176//23 177//23
f 177//24 176//24 172//24
f 171//24 173//24 184//24
f 184//23 173//23 171//23
f 185//70 173//207 177//207
f 177//208 173//208 185//69
f 178//215 173//211 186//223
f 186//224 173//212 178//216
f 167//207 178//215 180//70
f 180//69 178//216 167//208
f 179//24 167//24 180//24
f 180//23 167//23 179//23
f 168//205 179//49 181//219
f 181//220 179//48 168//206
f 169//203 180//217 182//217
f 182//218 180//218 169//204
f 171//213 181//219 184//225
f 184//226 181//220 171//214
f 174//207 182//70 187//70
f 187//69 182//69 174//208
f 183//24 174//24 187//24
f 187//23 174//23 183//23
f 175//201 183//49 188//49
f 188//48 183//48 175//202
f 179//221 175//209 188//221
f 188//222 175//210 179//222
f 176//201 184//49 189//49
f 189//48 184//48 176//202
f 177//23 176//23 189//23
f 189//24 176//24 177//24
f 184//24 173//24 186//24
f 186//23 173//23 184//23
f 173//207 185//70 186//70
f 186//69 185//69 173//208
f 177//23 189//23 185//23
f 185//24 189//24 177//24
f 186//223 190//227 178//215
f 178//216 190//228 186//224
f 190//227 180//70 178//215
f 178//216 180//69 190//228
f 179//24 180//24 191//24
f 191//23 180//23 179//23
f 191//58 181//219 179//49
f 179//48 181//220 191//57
f 191//229 182//217 180//217
f 180//218 182//218 191//230
f 190//227 184//225 181//219
f 181//220 184//226 190//228
f 192//58 187//70 182//70
f 182//69 187//69 192//57
f 183//24 187//24 193//24
f 193//23 187//23 183//23
f 193//58 188//49 183//49
f 183//48 188//48 193//57
f 188//221 191//229 179//221
f 179//222 191//230 188//222
f 194//58 189//49 184//49
f 184//48 189//48 194//57
f 184//24 186//24 194//24
f 194//23 186//23 184//23
f 195//58 186//70 185//70
f 185//69 186//69 195//57
f 185//23 189//23 195//23
f 195//24 189//24 185//24
f 190//227 186//223 194//231
f 194//232 186//224 190//228
f 180//70 190//227 191//58
f 191//57 190//228 180//69
f 181//219 191//58 190//227
f 190//228 191//57 181//220
f 182//217 191//229 192//229
f 192//230 191//230 182//218
f 184//225 190//227 194//231
f 194//232 190//228 184//226
f 187//70 192//58 193//58
f 193//57 192//57 187//69
f 188//49 193//58 192//58
f 192//57 193//57 188//48
f 191//229 188//221 192//229
f 192//230 188//222 191//230
f 189//49 194//58 195//58
f 195//57 194//57 189//48
f 186//70 195//58 194//58
f 194//57 195//57 186//69
