# SSTK version 0.8.0
# 3
mtllib original-3.mtl
o Toilet_Seat_-_Lid1/Toilet_Seat_-_Lid/mesh9/mesh9-geometry#mesh9-geometry
v 0.255766 -0.200004 0.322054
v 0.259650 -0.242082 0.400491
v 0.268492 -0.242082 0.322586
v 0.247366 -0.200004 0.396064
v -0.250473 -0.242082 0.322586
v 0.247366 -0.200004 0.248045
v -0.228851 -0.200004 0.396064
v 0.233728 -0.242082 0.473086
v -0.241631 -0.242082 0.244682
v -0.241631 -0.242082 0.400491
v 0.259650 -0.242082 0.244682
v -0.237251 -0.200004 0.322054
v -0.204225 -0.200004 0.465029
v 0.222740 -0.200004 0.465029
v 0.222740 -0.200004 0.179080
v -0.228851 -0.200004 0.248045
v 0.192491 -0.242082 0.535425
v -0.215709 -0.242082 0.473086
v -0.215709 -0.242082 0.173275
v 0.233728 -0.242082 0.173275
v -0.165050 -0.200004 0.524251
v 0.183565 -0.200004 0.524251
v 0.183565 -0.200004 0.129925
v -0.204225 -0.200004 0.179080
v 0.138751 -0.242082 0.583260
v -0.174472 -0.242082 0.535425
v -0.174472 -0.242082 0.123296
v 0.192491 -0.242082 0.123296
v -0.113997 -0.200004 0.569694
v 0.132511 -0.200004 0.569694
v 0.138751 -0.242082 0.091931
v -0.165050 -0.200004 0.129925
v -0.120731 -0.242082 0.583260
v 0.076169 -0.242082 0.613329
v -0.120731 -0.242082 0.091931
v 0.132511 -0.200004 0.100129
v -0.058149 -0.242082 0.613329
v -0.054544 -0.200004 0.598260
v 0.073058 -0.200004 0.598260
v 0.076169 -0.242082 0.072214
v -0.058149 -0.242082 0.072214
v -0.113997 -0.200004 0.100129
v 0.009257 -0.200004 0.608004
v 0.073058 -0.200004 0.081398
v 0.009010 -0.242082 0.623586
v 0.009257 -0.200004 0.075009
v 0.009010 -0.242082 0.065489
v -0.054544 -0.200004 0.081398
vn 0.9571795648308532 0.2894948683849515 -0.000042999980450622335
vn 0.9309529715384407 0.2944939909965826 0.21586999340031474
vn -0.9571795648308532 -0.2894948683849515 0.000042999980450622335
vn -0.9309529715384407 -0.2944939909965826 -0.21586999340031474
vn 0 -1 0
vn 0 1 0
vn 0.9324187423904531 0.2894989200169599 -0.21629994024044447
vn -0.9324187423904531 -0.2894989200169599 0.21629994024044447
vn 0.8521548463437127 0.3040739451709116 0.4258769232080096
vn -0.8521548463437127 -0.3040739451709116 -0.4258769232080096
vn 0.9236690406502135 0.28700401263090336 -0.2538980111739248
vn -0.9236690406502135 -0.28700401263090336 0.2538980111739248
vn -0.9540118323605785 0.2997689473244553 -0.000043999992268300034
vn -0.9288343531466036 0.29953011388256906 -0.2180560829058107
vn 0.9540118323605785 -0.2997689473244553 0.000043999992268300034
vn 0.9288343531466036 -0.29953011388256906 0.2180560829058107
vn -0.9279055365513247 0.30445617604848574 0.21516912441921535
vn 0.9279055365513247 -0.30445617604848574 -0.21516912441921535
vn 0.8610117663123977 0.285925922396713 -0.42060088584451877
vn -0.8610117663123977 -0.285925922396713 0.42060088584451877
vn -0.8495169281045357 0.3131379734988213 0.4245769640676284
vn 0.8495169281045357 -0.3131379734988213 -0.4245769640676284
vn 0.7170076783583147 0.31696485781308326 0.6208327215013327
vn -0.7170076783583147 -0.31696485781308326 -0.6208327215013327
vn -0.9207733680677178 0.2968361186565517 -0.2531101011776193
vn 0.9207733680677178 -0.2968361186565517 0.2531101011776193
vn 0.8089451712173084 0.27468705813889543 -0.5197641100106843
vn -0.8089451712173084 -0.27468705813889543 0.5197641100106843
vn -0.856124861810757 0.29511195236524584 -0.4242159315262514
vn 0.856124861810757 -0.29511195236524584 0.4242159315262514
vn 0.6714185207379382 0.2602228142515902 -0.6938885046987457
vn -0.6714185207379382 -0.2602228142515902 0.6938885046987457
vn -0.7150504084937565 0.32453018539749495 0.6191793537245727
vn 0.7150504084937565 -0.32453018539749495 -0.6191793537245727
vn 0.5234380501893363 0.33076803171536345 0.7852420752921547
vn -0.5234380501893363 -0.33076803171536345 -0.7852420752921547
vn -0.8077346982283538 0.2832678941704263 -0.5170338068349132
vn 0.8077346982283538 -0.2832678941704263 0.5170338068349132
vn 0.6269730809469324 0.24928403218444029 -0.7380800952916821
vn -0.6269730809469324 -0.24928403218444029 0.7380800952916821
vn -0.6700420987598574 0.26733203940300787 -0.6925151020722322
vn 0.6700420987598574 -0.26733203940300787 0.6925151020722322
vn 0.39364303916630344 0.23167402305087142 -0.8895910885116489
vn -0.39364303916630344 -0.23167402305087142 0.8895910885116489
vn -0.52232076359637 0.3362418478161335 0.7836596453137656
vn 0.52232076359637 -0.3362418478161335 -0.7836596453137656
vn 0.2776780797649836 0.34201909824739424 0.8977292578790504
vn -0.2776780797649836 -0.34201909824739424 -0.8977292578790504
vn -0.6318558648861679 0.2566989451084019 -0.7313438436120089
vn 0.6318558648861679 -0.2566989451084019 0.7313438436120089
vn -0.2772970396996495 0.344903049378566 0.8967431283835842
vn 0.2772970396996495 -0.344903049378566 -0.8967431283835842
vn -0.3931868632232893 0.23605091788568963 -0.8886416908709347
vn 0.3931868632232893 -0.23605091788568963 0.8886416908709347
vn 0.19600394087875223 0.22289493276754288 -0.9549347119602215
vn -0.19600394087875223 -0.22289493276754288 0.9549347119602215
vn 0.000041000005736946705 0.3472620485908192 0.937768131217684
vn -0.000041000005736946705 -0.3472620485908192 -0.937768131217684
vn -0.19587694296710642 0.2250859344624133 -0.9544467220966517
vn 0.19587694296710642 -0.2250859344624133 0.9544467220966517
vn 0.000012000005490039769 0.22065710095130875 -0.9753514462263148
vn -0.000012000005490039769 -0.22065710095130875 0.9753514462263148
usemtl material_0_0
f 1//1 2//2 3//1
f 2//2 1//1 4//2
f 3//3 2//4 1//3
f 4//4 1//3 2//4
f 5//5 3//5 2//5
f 2//6 3//6 5//6
f 3//1 6//7 1//1
f 1//3 6//8 3//3
f 1//6 7//6 4//6
f 4//5 7//5 1//5
f 4//2 8//9 2//2
f 2//4 8//10 4//4
f 9//5 3//5 5//5
f 5//6 3//6 9//6
f 5//5 2//5 10//5
f 10//6 2//6 5//6
f 6//7 3//1 11//11
f 11//12 3//3 6//8
f 6//6 12//6 1//6
f 1//5 12//5 6//5
f 1//6 12//6 7//6
f 7//5 12//5 1//5
f 4//6 7//6 13//6
f 13//5 7//5 4//5
f 8//9 4//2 14//9
f 14//10 4//4 8//10
f 10//5 2//5 8//5
f 8//6 2//6 10//6
f 9//5 11//5 3//5
f 3//6 11//6 9//6
f 12//13 9//14 5//13
f 5//15 9//16 12//15
f 7//17 5//13 10//17
f 10//18 5//15 7//18
f 6//7 11//11 15//19
f 15//20 11//12 6//8
f 6//6 16//6 12//6
f 12//5 16//5 6//5
f 5//13 7//17 12//13
f 12//15 7//18 5//15
f 10//17 13//21 7//17
f 7//18 13//22 10//18
f 4//6 13//6 14//6
f 14//5 13//5 4//5
f 14//9 17//23 8//9
f 8//10 17//24 14//10
f 10//5 8//5 18//5
f 18//6 8//6 10//6
f 19//5 11//5 9//5
f 9//6 11//6 19//6
f 9//14 12//13 16//25
f 16//26 12//15 9//16
f 15//19 11//11 20//27
f 20//28 11//12 15//20
f 15//6 16//6 6//6
f 6//5 16//5 15//5
f 13//21 10//17 18//21
f 18//22 10//18 13//22
f 14//6 13//6 21//6
f 21//5 13//5 14//5
f 17//23 14//9 22//23
f 22//24 14//10 17//24
f 18//5 8//5 17//5
f 17//6 8//6 18//6
f 19//5 20//5 11//5
f 11//6 20//6 19//6
f 16//25 19//29 9//14
f 9//16 19//30 16//26
f 15//19 20//27 23//31
f 23//32 20//28 15//20
f 15//6 24//6 16//6
f 16//5 24//5 15//5
f 18//21 21//33 13//21
f 13//22 21//34 18//22
f 14//6 21//6 22//6
f 22//5 21//5 14//5
f 22//23 25//35 17//23
f 17//24 25//36 22//24
f 18//5 17//5 26//5
f 26//6 17//6 18//6
f 27//5 20//5 19//5
f 19//6 20//6 27//6
f 16//25 24//37 19//29
f 19//30 24//38 16//26
f 23//31 20//27 28//39
f 28//40 20//28 23//32
f 23//6 24//6 15//6
f 15//5 24//5 23//5
f 21//33 18//21 26//33
f 26//34 18//22 21//34
f 22//6 21//6 29//6
f 29//5 21//5 22//5
f 25//35 22//23 30//35
f 30//36 22//24 25//36
f 26//5 17//5 25//5
f 25//6 17//6 26//6
f 27//5 28//5 20//5
f 20//6 28//6 27//6
f 24//37 27//41 19//29
f 19//30 27//42 24//38
f 31//43 23//31 28//39
f 28//40 23//32 31//44
f 23//6 32//6 24//6
f 24//5 32//5 23//5
f 33//45 21//33 26//33
f 26//34 21//34 33//46
f 21//33 33//45 29//45
f 29//46 33//46 21//34
f 22//6 29//6 30//6
f 30//5 29//5 22//5
f 30//35 34//47 25//35
f 25//36 34//48 30//36
f 26//5 25//5 33//5
f 33//6 25//6 26//6
f 35//5 28//5 27//5
f 27//6 28//6 35//6
f 32//49 27//41 24//37
f 24//38 27//42 32//50
f 23//31 31//43 36//43
f 36//44 31//44 23//32
f 35//5 31//5 28//5
f 28//6 31//6 35//6
f 36//6 32//6 23//6
f 23//5 32//5 36//5
f 37//51 29//45 33//45
f 33//46 29//46 37//52
f 30//6 29//6 38//6
f 38//5 29//5 30//5
f 34//47 30//35 39//47
f 39//48 30//36 34//48
f 33//5 25//5 34//5
f 34//6 25//6 33//6
f 32//49 35//53 27//41
f 27//42 35//54 32//50
f 40//55 36//43 31//43
f 31//44 36//44 40//56
f 41//5 31//5 35//5
f 35//6 31//6 41//6
f 36//6 42//6 32//6
f 32//5 42//5 36//5
f 29//45 37//51 38//51
f 38//52 37//52 29//46
f 33//5 34//5 37//5
f 37//6 34//6 33//6
f 30//6 38//6 39//6
f 39//5 38//5 30//5
f 43//57 34//47 39//47
f 39//48 34//48 43//58
f 35//53 32//49 42//53
f 42//54 32//50 35//54
f 36//43 40//55 44//55
f 44//56 40//56 36//44
f 41//5 40//5 31//5
f 31//6 40//6 41//6
f 42//53 41//59 35//53
f 35//54 41//60 42//54
f 44//6 42//6 36//6
f 36//5 42//5 44//5
f 45//57 38//51 37//51
f 37//52 38//52 45//58
f 37//5 34//5 45//5
f 45//6 34//6 37//6
f 39//6 38//6 43//6
f 43//5 38//5 39//5
f 34//47 43//57 45//57
f 45//58 43//58 34//48
f 40//55 46//61 44//55
f 44//56 46//62 40//56
f 40//5 41//5 47//5
f 47//6 41//6 40//6
f 41//59 42//53 48//59
f 48//60 42//54 41//60
f 44//6 48//6 42//6
f 42//5 48//5 44//5
f 38//51 45//57 43//57
f 43//58 45//58 38//52
f 46//61 40//55 47//61
f 47//62 40//56 46//62
f 48//6 44//6 46//6
f 46//5 44//5 48//5
f 48//59 47//61 41//59
f 41//60 47//62 48//60
f 47//61 48//59 46//61
f 46//62 48//60 47//62
