# Blender v2.79 (sub 0) OBJ File: ''
# www.blender.org
mtllib 1741_link_1_13.mtl
o Shape_IndexedFaceSet.013_Shape_IndexedFaceSet.4954
v -0.072814 0.465215 0.544405
v -0.008650 0.487861 0.601134
v -0.068304 0.487847 0.601059
v -0.057243 0.488583 0.465871
v -0.008424 0.463905 0.473426
v -0.008238 0.463839 0.593881
v -0.078345 0.467486 0.465871
v -0.000843 0.490616 0.552628
v -0.078345 0.488583 0.465871
v -0.074117 0.471704 0.588230
v -0.053022 0.463263 0.465871
v -0.010825 0.471704 0.470110
v -0.078345 0.475923 0.579792
vn -0.8986 -0.0245 0.4380
vn -0.0011 -0.2891 0.9573
vn -0.0003 0.9984 0.0567
vn 0.9871 -0.0305 0.1571
vn 0.9633 -0.2685 -0.0016
vn 0.0000 0.0000 -1.0000
vn -0.0352 0.9993 0.0081
vn 0.0000 0.9997 -0.0234
vn -0.1293 -0.9815 0.1415
vn -0.1384 -0.5852 0.7990
vn 0.0145 -0.9999 -0.0006
vn -0.0338 -0.9993 0.0163
vn -0.1645 -0.9862 -0.0169
vn 0.3510 0.9026 -0.2493
vn 0.9600 0.2243 -0.1675
vn 0.0967 0.0161 -0.9952
vn 0.1617 -0.3436 -0.9251
vn -0.8247 -0.5640 0.0418
vn -0.8165 0.5738 0.0638
vn -1.0000 0.0000 0.0000
vn -0.7717 -0.6321 0.0706
usemtl Shape.4963
s off
f 10//1 3//1 13//1
f 2//2 3//2 6//2
f 3//3 2//3 8//3
f 2//4 6//4 8//4
f 6//5 5//5 8//5
f 4//6 7//6 9//6
f 3//7 8//7 9//7
f 8//8 4//8 9//8
f 1//9 6//9 10//9
f 6//10 3//10 10//10
f 5//11 6//11 11//11
f 6//12 1//12 11//12
f 1//13 7//13 11//13
f 7//6 4//6 11//6
f 4//14 8//14 12//14
f 8//15 5//15 12//15
f 11//16 4//16 12//16
f 5//17 11//17 12//17
f 7//18 1//18 13//18
f 3//19 9//19 13//19
f 9//20 7//20 13//20
f 1//21 10//21 13//21
