# Blender v2.79 (sub 0) OBJ File: ''
# www.blender.org
mtllib 1741_link_0_1.mtl
o Shape_IndexedFaceSet.001_Shape_IndexedFaceSet.3589
v -0.122111 0.769181 -0.039916
v 0.117406 0.769181 -0.034221
v 0.117406 0.700781 -0.034221
v 0.010941 0.687465 -0.172962
v -0.027063 0.662766 0.064630
v -0.118289 0.662766 -0.083588
v -0.034660 0.774900 -0.167220
v 0.012840 0.774900 0.064654
v 0.094571 0.662766 -0.125416
v 0.075580 0.774900 -0.142525
v 0.073681 0.662766 0.041825
v -0.089779 0.772979 0.030435
v -0.104995 0.662766 0.011412
v -0.084082 0.662766 -0.140634
v -0.101197 0.774900 -0.117806
v 0.094571 0.772979 0.019021
v 0.117406 0.662766 -0.070283
v 0.107888 0.772979 -0.102611
v 0.043249 0.771080 -0.165329
v 0.056566 0.670362 -0.157720
v -0.055573 0.772979 0.055130
v 0.102190 0.666564 0.009521
v 0.022336 0.693173 0.068458
v 0.060364 0.769181 0.051325
v -0.080284 0.662766 0.039935
v -0.040357 0.676071 -0.167220
v -0.072688 0.772979 -0.150134
v -0.122111 0.662766 -0.038002
v -0.110693 0.774900 -0.005698
v -0.027063 0.702680 0.068458
v -0.114491 0.771080 -0.096916
v -0.099298 0.662766 -0.125416
v -0.006150 0.772979 -0.172962
v 0.104089 0.774900 0.000021
v 0.018538 0.662766 0.066544
v 0.079378 0.771080 -0.142525
v 0.007143 0.662766 -0.150134
v -0.112592 0.771080 -0.003807
v 0.115484 0.772979 -0.076002
v -0.015646 0.771080 0.066544
v 0.117406 0.662766 -0.038026
v -0.085981 0.771080 -0.140634
v -0.122111 0.771080 -0.055088
v -0.013746 0.679869 -0.172962
v 0.109787 0.662766 -0.096916
v -0.055573 0.698871 -0.161548
v 0.069859 0.668463 -0.150134
v 0.107888 0.772979 -0.003784
v 0.035653 0.676071 -0.167220
v -0.042256 0.746370 -0.167220
v 0.077479 0.772979 0.038021
v 0.026157 0.771080 0.064654
v -0.074587 0.672261 -0.150134
v -0.112592 0.662766 -0.102611
v -0.065068 0.662766 0.049435
v -0.122111 0.662766 -0.064588
v 0.066061 0.664665 0.047521
v 0.098392 0.772979 -0.119720
v -0.118289 0.740673 -0.019002
v 0.092672 0.698871 0.022826
v 0.018538 0.772979 -0.171048
v -0.118289 0.772979 -0.081697
v 0.111686 0.715984 -0.095002
v -0.074587 0.772979 0.043716
vn -0.5147 0.0000 0.8574
vn 0.0000 -1.0000 0.0000
vn 0.0000 1.0000 0.0000
vn 1.0000 0.0000 -0.0000
vn -0.7558 -0.0087 0.6548
vn -0.1250 0.9778 -0.1684
vn -0.0371 0.9972 0.0651
vn -0.8453 0.0219 -0.5339
vn -0.0417 -0.0954 0.9946
vn -0.0118 -0.0613 0.9980
vn 0.4715 0.4688 -0.7470
vn -0.0538 -0.8548 -0.5162
vn -0.8326 0.0194 0.5536
vn -0.7012 0.5643 0.4358
vn -0.8369 0.5119 0.1937
vn 0.9989 0.0151 -0.0446
vn 0.0914 0.9955 -0.0261
vn 0.0720 0.9973 -0.0144
vn -0.0884 0.8853 0.4566
vn -0.2710 0.0721 0.9599
vn 0.0052 0.0271 0.9996
vn 0.9513 -0.0307 0.3069
vn 0.3259 -0.9284 0.1785
vn -0.4089 0.8158 -0.4090
vn -0.7071 -0.0124 -0.7070
vn -0.8300 0.0238 -0.5572
vn -1.0000 0.0000 -0.0000
vn -0.6560 0.7489 0.0937
vn -0.0000 0.0000 -1.0000
vn -0.0127 -0.8058 -0.5921
vn 0.4956 -0.0001 -0.8685
vn 0.7056 -0.0129 -0.7085
vn 0.5337 0.0132 -0.8456
vn 0.0862 -0.9485 -0.3048
vn 0.0838 -0.9222 -0.3776
vn 0.9544 0.0000 0.2985
vn 0.9470 -0.0106 0.3212
vn 0.8634 0.0168 0.5042
vn 0.7045 0.5783 0.4114
vn 0.5145 0.8558 0.0541
vn 0.4914 0.8694 0.0517
vn 0.2269 0.0012 -0.9739
vn 0.4102 -0.0146 -0.9119
vn 0.0376 -0.8179 -0.5742
vn 0.0887 -0.2882 -0.9535
vn 0.0091 -0.7963 -0.6049
vn -0.4120 0.1097 -0.9046
vn -0.1938 0.0516 -0.9797
vn -0.2101 -0.0057 -0.9777
vn -0.1668 0.0136 -0.9859
vn -0.3621 -0.0098 -0.9321
vn -0.4714 0.0269 -0.8815
vn 0.6129 0.0062 0.7902
vn 0.0705 0.9925 0.0996
vn 0.2400 0.9464 0.2159
vn 0.3643 0.0276 0.9309
vn 0.0446 0.1555 0.9868
vn 0.0451 0.0465 0.9979
vn 0.2365 0.8243 0.5144
vn 0.2624 0.7847 0.5616
vn -0.3553 -0.4593 -0.8141
vn -0.5824 0.0110 -0.8128
vn -0.7011 -0.0123 -0.7130
vn -0.4392 -0.0703 -0.8956
vn -0.5248 0.0099 -0.8512
vn -0.9580 -0.0017 -0.2869
vn -0.8639 0.0113 -0.5036
vn -0.4405 -0.0084 0.8977
vn -0.3698 -0.0887 0.9249
vn 0.5993 0.0035 0.8005
vn 0.4267 -0.0097 0.9043
vn 0.2758 -0.7386 0.6151
vn 0.3732 -0.1046 0.9218
vn 0.8743 -0.0052 -0.4853
vn 0.1849 0.9774 -0.1026
vn 0.7678 0.0065 -0.6407
vn 0.5946 0.5912 -0.5450
vn -0.9829 0.0033 0.1841
vn -0.9444 -0.0334 0.3271
vn -0.9277 -0.0126 0.3731
vn -0.9662 0.0552 0.2518
vn 0.8225 0.0081 0.5687
vn 0.7517 -0.0494 0.6576
vn 0.7072 0.0000 0.7070
vn 0.7434 0.0153 0.6687
vn 0.0271 0.9923 -0.1211
vn 0.2256 0.0018 -0.9742
vn 0.1572 0.9133 -0.3758
vn 0.0182 0.9719 -0.2348
vn 0.0773 0.0154 -0.9969
vn -0.1356 0.9907 -0.0115
vn -0.9701 0.0042 -0.2426
vn -0.6034 0.7588 -0.2453
vn -0.3688 0.9294 0.0134
vn -0.9804 0.0034 -0.1972
vn -0.9899 0.0124 -0.1413
vn 0.8759 -0.0060 -0.4824
vn 0.9770 0.0060 -0.2132
vn 0.9612 0.0274 -0.2744
vn 0.8821 -0.0145 -0.4709
vn 0.9611 -0.0244 -0.2750
vn -0.6581 0.0082 0.7528
vn -0.0931 0.9899 0.1065
vn -0.0414 0.9968 0.0690
vn -0.5296 -0.0017 0.8482
usemtl Shape.3600
s off
f 55//1 21//1 64//1
f 5//2 6//2 9//2
f 7//3 8//3 10//3
f 5//2 9//2 11//2
f 6//2 5//2 13//2
f 9//2 6//2 14//2
f 8//3 7//3 15//3
f 2//4 3//4 17//4
f 11//2 9//2 17//2
f 13//2 5//2 25//2
f 12//5 13//5 25//5
f 15//6 7//6 27//6
f 6//2 13//2 28//2
f 8//3 15//3 29//3
f 21//7 8//7 29//7
f 14//2 6//2 32//2
f 31//8 15//8 32//8
f 10//3 8//3 34//3
f 5//2 11//2 35//2
f 30//9 5//9 35//9
f 23//10 30//10 35//10
f 19//11 10//11 36//11
f 9//2 14//2 37//2
f 14//12 26//12 37//12
f 13//13 12//13 38//13
f 12//14 29//14 38//14
f 29//15 1//15 38//15
f 2//16 17//16 39//16
f 18//17 10//17 39//17
f 10//18 34//18 39//18
f 8//19 21//19 40//19
f 21//20 30//20 40//20
f 30//21 23//21 40//21
f 17//4 3//4 41//4
f 11//2 17//2 41//2
f 3//22 22//22 41//22
f 22//23 11//23 41//23
f 15//24 27//24 42//24
f 14//25 32//25 42//25
f 32//26 15//26 42//26
f 28//27 1//27 43//27
f 1//28 29//28 43//28
f 33//29 4//29 44//29
f 37//30 26//30 44//30
f 17//2 9//2 45//2
f 20//31 19//31 47//31
f 36//32 9//32 47//32
f 19//33 36//33 47//33
f 9//34 37//34 47//34
f 37//35 20//35 47//35
f 3//36 2//36 48//36
f 22//37 3//37 48//37
f 16//38 22//38 48//38
f 34//39 16//39 48//39
f 2//40 39//40 48//40
f 39//41 34//41 48//41
f 4//42 19//42 49//42
f 19//43 20//43 49//43
f 20//44 37//44 49//44
f 44//45 4//45 49//45
f 37//46 44//46 49//46
f 27//47 7//47 50//47
f 7//48 33//48 50//48
f 44//49 26//49 50//49
f 33//50 44//50 50//50
f 26//51 46//51 50//51
f 46//52 27//52 50//52
f 24//53 11//53 51//53
f 34//54 8//54 51//54
f 16//55 34//55 51//55
f 23//56 24//56 52//56
f 8//57 40//57 52//57
f 40//58 23//58 52//58
f 51//59 8//59 52//59
f 24//60 51//60 52//60
f 26//61 14//61 53//61
f 42//62 27//62 53//62
f 14//63 42//63 53//63
f 46//64 26//64 53//64
f 27//65 46//65 53//65
f 6//66 31//66 54//66
f 32//2 6//2 54//2
f 31//67 32//67 54//67
f 25//2 5//2 55//2
f 30//68 21//68 55//68
f 5//69 30//69 55//69
f 6//2 28//2 56//2
f 28//27 43//27 56//27
f 11//70 24//70 57//70
f 24//71 23//71 57//71
f 35//72 11//72 57//72
f 23//73 35//73 57//73
f 18//74 9//74 58//74
f 10//75 18//75 58//75
f 9//76 36//76 58//76
f 36//77 10//77 58//77
f 1//78 28//78 59//78
f 28//79 13//79 59//79
f 13//80 38//80 59//80
f 38//81 1//81 59//81
f 22//82 16//82 60//82
f 11//83 22//83 60//83
f 51//84 11//84 60//84
f 16//85 51//85 60//85
f 7//86 10//86 61//86
f 19//87 4//87 61//87
f 10//88 19//88 61//88
f 33//89 7//89 61//89
f 4//90 33//90 61//90
f 29//91 15//91 62//91
f 31//92 6//92 62//92
f 15//93 31//93 62//93
f 43//94 29//94 62//94
f 6//95 56//95 62//95
f 56//96 43//96 62//96
f 9//97 18//97 63//97
f 39//98 17//98 63//98
f 18//99 39//99 63//99
f 45//100 9//100 63//100
f 17//101 45//101 63//101
f 12//102 25//102 64//102
f 29//103 12//103 64//103
f 21//104 29//104 64//104
f 25//105 55//105 64//105
