# Blender v2.79 (sub 0) OBJ File: ''
# www.blender.org
mtllib 1741_link_1_28.mtl
o Shape_IndexedFaceSet.028_Shape_IndexedFaceSet.4969
v -0.103777 -0.930575 -0.133642
v -0.103683 0.596791 -0.078380
v -0.124760 0.594083 -0.078524
v -0.069905 0.594083 -0.158687
v -0.104132 -0.972886 -0.075542
v -0.067856 -0.973120 -0.129937
v -0.125290 -0.931282 -0.077749
v -0.107882 0.572936 -0.124927
v -0.069564 0.603458 -0.129280
v -0.069392 -0.930815 -0.159437
v -0.124760 -0.646500 -0.091174
v -0.086788 0.594083 -0.150243
v -0.120539 0.594083 -0.099618
v -0.116661 -0.930322 -0.112154
v -0.082567 -0.098005 -0.154465
v -0.112102 0.248039 -0.120705
v -0.090895 -0.930357 -0.146518
v -0.103661 0.231032 -0.133363
v -0.124760 0.370337 -0.086960
vn -0.9550 0.0012 -0.2967
vn -0.0071 0.0018 1.0000
vn -0.6662 -0.6009 -0.4417
vn -0.1027 0.0005 0.9947
vn -0.1276 0.9908 0.0442
vn 0.8306 0.0008 0.5569
vn 0.8320 0.0007 0.5548
vn 0.9999 0.0011 -0.0119
vn 0.9987 0.0004 -0.0515
vn -0.1494 0.9426 -0.2988
vn -0.2036 0.9782 -0.0407
vn -0.8208 0.1637 -0.5472
vn -0.2826 0.9405 -0.1884
vn -0.7086 -0.5683 -0.4182
vn -0.8627 -0.4509 -0.2290
vn -0.9698 -0.0097 -0.2435
vn -0.9299 0.0007 -0.3679
vn -0.3336 0.0004 -0.9427
vn -0.4473 0.0027 -0.8944
vn -0.8925 0.0057 -0.4511
vn -0.8576 -0.0004 -0.5142
vn -0.9239 0.0008 -0.3827
vn -0.5869 -0.5475 -0.5965
vn -0.4473 -0.5225 -0.7259
vn -0.7069 0.0002 -0.7073
vn -0.5150 -0.0030 -0.8572
vn -0.6969 0.0001 -0.7172
vn -0.7708 0.0062 -0.6371
vn -0.7098 0.0002 -0.7044
vn -0.8298 0.0035 -0.5581
vn -0.8318 0.0002 -0.5550
vn -1.0000 0.0003 -0.0091
vn -0.9993 0.0002 -0.0363
vn -0.9805 0.0074 -0.1962
usemtl Shape.4978
s off
f 13//1 11//1 19//1
f 2//2 3//2 5//2
f 5//3 1//3 6//3
f 5//4 3//4 7//4
f 3//5 2//5 9//5
f 2//6 5//6 9//6
f 5//7 6//7 9//7
f 6//8 4//8 9//8
f 4//9 6//9 10//9
f 9//10 4//10 12//10
f 3//11 9//11 13//11
f 12//12 8//12 13//12
f 9//13 12//13 13//13
f 1//14 5//14 14//14
f 5//15 7//15 14//15
f 7//16 11//16 14//16
f 11//17 13//17 14//17
f 4//18 10//18 15//18
f 12//19 4//19 15//19
f 13//20 8//20 16//20
f 1//21 14//21 16//21
f 14//22 13//22 16//22
f 6//23 1//23 17//23
f 10//24 6//24 17//24
f 1//25 12//25 17//25
f 15//26 10//26 17//26
f 12//27 15//27 17//27
f 8//28 12//28 18//28
f 12//29 1//29 18//29
f 16//30 8//30 18//30
f 1//31 16//31 18//31
f 7//32 3//32 19//32
f 11//33 7//33 19//33
f 3//34 13//34 19//34
