# Blender v2.79 (sub 0) OBJ File: ''
# www.blender.org
mtllib 1741_link_1_4.mtl
o Shape_IndexedFaceSet.004_Shape_IndexedFaceSet.4945
v -0.057235 0.421067 0.102950
v 0.006055 0.421067 0.398351
v -0.053012 0.463257 0.398351
v -0.053012 0.416852 0.398351
v 0.006055 0.421067 0.102950
v -0.071955 0.461658 0.110943
v -0.023486 0.404182 0.102950
v -0.074125 0.446378 0.398351
v 0.004777 0.405125 0.393640
v -0.053012 0.463257 0.102950
v 0.016094 0.423178 0.219014
v 0.004202 0.405548 0.109778
v -0.023486 0.404182 0.398351
v -0.072975 0.462410 0.394115
v -0.069894 0.437935 0.102950
v -0.061449 0.425289 0.398351
v -0.036130 0.408410 0.102950
v -0.074125 0.450593 0.102950
vn 0.0000 0.0000 -1.0000
vn 0.0000 0.0000 1.0000
vn 0.5807 0.8130 0.0421
vn 0.9939 -0.0958 0.0545
vn 0.5800 0.8120 -0.0649
vn 0.5017 0.8650 0.0000
vn 0.2371 -0.4148 -0.8785
vn 0.0497 -0.9988 -0.0016
vn 0.8362 -0.5485 -0.0025
vn 0.9847 -0.1538 -0.0824
vn 0.1667 -0.2917 0.9419
vn 0.0333 -0.9994 0.0000
vn -0.2109 0.2638 0.9412
vn -0.0424 0.9991 0.0000
vn -0.0853 0.9963 -0.0030
vn -0.7071 -0.7071 0.0000
vn -0.7998 -0.6002 -0.0028
vn -0.8571 -0.5152 0.0024
vn -0.5143 -0.8576 -0.0049
vn -0.3943 -0.9190 0.0037
vn -0.3171 -0.9484 0.0000
vn -0.3552 0.5922 -0.7233
vn -0.9974 0.0718 0.0010
vn -0.9807 0.1953 -0.0041
vn -0.9484 -0.3170 -0.0045
usemtl Shape.4954
s off
f 10//1 15//1 18//1
f 2//2 3//2 4//2
f 1//1 5//1 7//1
f 4//2 3//2 8//2
f 5//1 1//1 10//1
f 3//3 2//3 11//3
f 2//4 9//4 11//4
f 5//5 10//5 11//5
f 10//6 3//6 11//6
f 7//7 5//7 12//7
f 9//8 7//8 12//8
f 11//9 9//9 12//9
f 5//10 11//10 12//10
f 2//2 4//2 13//2
f 9//11 2//11 13//11
f 7//12 9//12 13//12
f 8//13 3//13 14//13
f 3//14 10//14 14//14
f 10//15 6//15 14//15
f 10//1 1//1 15//1
f 1//16 4//16 16//16
f 4//2 8//2 16//2
f 15//17 1//17 16//17
f 8//18 15//18 16//18
f 4//19 1//19 17//19
f 1//1 7//1 17//1
f 13//20 4//20 17//20
f 7//21 13//21 17//21
f 6//22 10//22 18//22
f 8//23 14//23 18//23
f 14//24 6//24 18//24
f 15//25 8//25 18//25
