# Blender v2.79 (sub 0) OBJ File: ''
# www.blender.org
mtllib 1741_link_1_12.mtl
o Shape_IndexedFaceSet.012_Shape_IndexedFaceSet.4953
v -0.061461 0.526560 0.465871
v -0.006605 0.551878 0.465871
v -0.019268 0.551878 0.465871
v -0.061461 0.526560 0.103021
v -0.048805 0.501248 0.465871
v -0.006605 0.530778 0.103021
v -0.074125 0.501248 0.103021
v -0.023485 0.551878 0.107212
v -0.006605 0.530778 0.465871
v -0.074125 0.509689 0.465871
v -0.053015 0.501248 0.103021
v -0.044575 0.543437 0.103021
v -0.009400 0.549782 0.118041
v -0.074125 0.501248 0.465871
v -0.048805 0.539214 0.465871
v -0.074125 0.509689 0.103021
v -0.048805 0.501248 0.221165
v -0.069901 0.518129 0.225356
vn -0.8943 0.4476 0.0000
vn 0.0000 0.0000 1.0000
vn 0.0000 0.0000 -1.0000
vn 0.0000 1.0000 0.0000
vn 1.0000 0.0000 0.0000
vn 0.5733 -0.8193 0.0000
vn 0.0000 -1.0000 0.0000
vn -0.3723 0.9281 0.0044
vn 0.0868 0.2605 -0.9616
vn 0.9883 0.1524 -0.0089
vn 0.1526 0.9883 -0.0072
vn 0.5542 0.5648 -0.6115
vn -1.0000 0.0000 0.0000
vn -0.3940 0.9191 0.0061
vn 0.5367 -0.8435 -0.0191
vn -0.7997 0.6003 0.0070
vn -0.7069 0.7073 -0.0000
vn -0.7071 0.7072 0.0000
vn -0.7997 0.6003 -0.0138
usemtl Shape.4962
s off
f 16//1 10//1 18//1
f 1//2 2//2 3//2
f 2//2 1//2 5//2
f 4//3 6//3 7//3
f 3//4 2//4 8//4
f 2//2 5//2 9//2
f 6//5 2//5 9//5
f 5//6 6//6 9//6
f 5//2 1//2 10//2
f 7//3 6//3 11//3
f 5//7 7//7 11//7
f 6//3 4//3 12//3
f 3//8 8//8 12//8
f 8//9 6//9 12//9
f 2//10 6//10 13//10
f 8//11 2//11 13//11
f 6//12 8//12 13//12
f 7//7 5//7 14//7
f 5//2 10//2 14//2
f 10//13 7//13 14//13
f 1//2 3//2 15//2
f 3//14 12//14 15//14
f 4//3 7//3 16//3
f 7//13 10//13 16//13
f 6//6 5//6 17//6
f 5//7 11//7 17//7
f 11//15 6//15 17//15
f 10//16 1//16 18//16
f 12//17 4//17 18//17
f 1//18 15//18 18//18
f 15//17 12//17 18//17
f 4//19 16//19 18//19
