# Blender v2.79 (sub 0) OBJ File: ''
# www.blender.org
mtllib 1741_link_1_32.mtl
o Shape_IndexedFaceSet.032_Shape_IndexedFaceSet.4973
v 0.056693 0.598155 -0.167126
v -0.002927 -0.929599 -0.180155
v -0.004769 -0.973690 -0.158691
v 0.061530 -0.931306 -0.162991
v 0.052728 0.606426 -0.137360
v -0.002381 0.598155 -0.179791
v 0.054232 -0.973876 -0.135993
v -0.002588 0.603117 -0.158691
v 0.061874 0.621160 -0.136950
v 0.048856 -0.932024 -0.171752
v 0.018715 -0.064299 -0.179791
v 0.001844 -0.848923 -0.154473
v 0.035592 0.598155 -0.175565
v 0.031409 -0.931875 -0.175907
v 0.006064 0.492589 -0.154473
v 0.014502 0.319563 -0.179791
vn 0.1724 0.0019 -0.9850
vn -0.9964 0.0004 -0.0847
vn -0.9999 0.0014 -0.0101
vn -0.1910 0.9551 -0.2265
vn 0.9852 0.0027 -0.1712
vn 0.9671 -0.0045 0.2544
vn -0.0461 0.0008 0.9989
vn -0.3629 0.2000 0.9101
vn 0.5686 -0.0004 -0.8226
vn 0.2853 -0.6012 -0.7465
vn 0.5047 -0.5224 -0.6873
vn -0.3591 -0.0125 0.9332
vn -0.3316 0.0005 0.9434
vn -0.5479 0.0008 0.8366
vn 0.0602 0.8390 -0.5408
vn 0.2456 0.7501 -0.6140
vn 0.3713 0.0009 -0.9285
vn 0.2515 -0.0002 -0.9679
vn 0.0816 -0.4390 -0.8948
vn 0.1947 -0.5128 -0.8362
vn 0.1226 -0.0026 -0.9925
vn 0.2317 -0.0010 -0.9728
vn -0.3602 0.0074 0.9329
vn -0.3466 0.0011 0.9380
vn -0.4244 0.0013 0.9055
vn 0.0039 0.0002 -1.0000
vn 0.0117 0.0001 -0.9999
vn 0.1106 0.0067 -0.9938
usemtl Shape.4982
s off
f 13//1 11//1 16//1
f 2//2 3//2 6//2
f 6//3 3//3 8//3
f 6//4 8//4 9//4
f 4//5 1//5 9//5
f 7//6 4//6 9//6
f 5//7 7//7 9//7
f 8//8 5//8 9//8
f 1//9 4//9 10//9
f 7//10 3//10 10//10
f 4//11 7//11 10//11
f 3//12 7//12 12//12
f 7//13 5//13 12//13
f 8//14 3//14 12//14
f 6//15 9//15 13//15
f 9//16 1//16 13//16
f 1//17 10//17 13//17
f 10//18 11//18 13//18
f 3//19 2//19 14//19
f 10//20 3//20 14//20
f 2//21 11//21 14//21
f 11//22 10//22 14//22
f 5//23 8//23 15//23
f 12//24 5//24 15//24
f 8//25 12//25 15//25
f 2//26 6//26 16//26
f 11//27 2//27 16//27
f 6//28 13//28 16//28
