# Blender v2.79 (sub 0) OBJ File: ''
# www.blender.org
mtllib 1741_link_1_45.mtl
o Shape_IndexedFaceSet.045_Shape_IndexedFaceSet.4986
v 0.098886 -0.963093 -0.171344
v 0.090447 -0.916686 -0.137591
v 0.115764 -0.929350 -0.137591
v -0.002372 -0.946216 -0.158689
v 0.010280 -0.916686 -0.179783
v 0.094672 -0.967316 -0.137591
v 0.030688 -0.967924 -0.180289
v 0.086233 -0.937785 -0.179783
v 0.052489 -0.916686 -0.137591
v 0.124216 -0.967316 -0.141816
v -0.002372 -0.916686 -0.158689
v -0.002372 -0.954657 -0.179783
v 0.056715 -0.946216 -0.137591
v 0.065129 -0.916686 -0.162906
vn 0.4227 0.7850 -0.4528
vn 0.0000 0.0000 1.0000
vn -0.2803 -0.8571 0.4323
vn 0.0031 0.0111 -0.9999
vn 0.1432 -0.2479 -0.9581
vn 0.0000 1.0000 0.0000
vn 0.1411 -0.0784 0.9869
vn 0.0017 -0.9999 0.0117
vn 0.0979 -0.9700 -0.2227
vn 0.7598 0.1707 -0.6274
vn 0.7729 0.2375 -0.5884
vn -0.3589 0.0000 0.9334
vn -0.3444 -0.8716 0.3488
vn -0.0135 0.0045 -0.9999
vn -1.0000 -0.0000 0.0000
vn -0.8246 0.2747 -0.4946
vn -0.2877 -0.5176 0.8058
vn -0.3359 -0.0481 0.9407
vn 0.4084 0.8164 -0.4084
vn 0.2019 0.7270 -0.6563
usemtl Shape.4995
s off
f 3//1 8//1 14//1
f 3//2 2//2 6//2
f 6//3 4//3 7//3
f 7//4 5//4 8//4
f 1//5 7//5 8//5
f 2//6 5//6 9//6
f 6//2 2//2 9//2
f 3//7 6//7 10//7
f 6//8 7//8 10//8
f 7//9 1//9 10//9
f 1//10 8//10 10//10
f 8//11 3//11 10//11
f 4//12 9//12 11//12
f 9//6 5//6 11//6
f 7//13 4//13 12//13
f 5//14 7//14 12//14
f 4//15 11//15 12//15
f 11//16 5//16 12//16
f 4//17 6//17 13//17
f 9//18 4//18 13//18
f 6//2 9//2 13//2
f 2//19 3//19 14//19
f 5//6 2//6 14//6
f 8//20 5//20 14//20
