# Blender v2.79 (sub 0) OBJ File: ''
# www.blender.org
mtllib 1741_link_1_49.mtl
o Shape_IndexedFaceSet.049_Shape_IndexedFaceSet.4990
v 0.073576 0.484358 0.102950
v 0.031375 0.433723 0.073410
v 0.031375 0.433723 0.102950
v 0.060915 0.433723 0.073410
v 0.052476 0.484358 0.073410
v 0.060915 0.433723 0.102950
v 0.073576 0.463258 0.073410
v 0.052476 0.484358 0.102950
vn -0.9231 0.3847 0.0000
vn 0.0000 -1.0000 0.0000
vn 0.0000 0.0000 -1.0000
vn 0.0000 0.0000 1.0000
vn 0.9191 -0.3940 0.0000
vn 0.6312 0.6312 -0.4508
vn 0.9559 -0.2390 0.1707
vn 0.0000 1.0000 0.0000
usemtl Shape.4999
s off
f 5//1 3//1 8//1
f 3//2 2//2 4//2
f 2//1 3//1 5//1
f 4//3 2//3 5//3
f 1//4 3//4 6//4
f 3//2 4//2 6//2
f 6//5 4//5 7//5
f 5//6 1//6 7//6
f 4//3 5//3 7//3
f 1//7 6//7 7//7
f 3//4 1//4 8//4
f 1//8 5//8 8//8
