# Blender v2.79 (sub 0) OBJ File: ''
# www.blender.org
mtllib 1741_link_0_11.mtl
o Shape_IndexedFaceSet.011_Shape_IndexedFaceSet.3599
v 0.086985 0.643735 -0.112137
v 0.035665 0.651340 -0.138742
v 0.035665 0.662744 -0.138742
v 0.035665 0.662744 -0.102627
v 0.094592 0.662744 -0.125436
v 0.035665 0.645636 -0.102627
v 0.106001 0.662744 -0.102627
v 0.056581 0.643735 -0.138742
v 0.104087 0.645636 -0.102627
v 0.081284 0.660842 -0.136840
v 0.106001 0.647538 -0.106435
v 0.041373 0.643735 -0.138742
v 0.079377 0.643735 -0.102627
v 0.094592 0.655139 -0.123534
vn 0.4397 -0.6744 -0.5932
vn -1.0000 0.0000 0.0000
vn 0.0000 1.0000 0.0000
vn 0.0000 0.0000 1.0000
vn 0.0000 0.0000 -1.0000
vn 0.0498 0.9741 -0.2206
vn 0.0436 0.0480 -0.9979
vn 0.8888 0.1113 -0.4446
vn 0.2762 -0.9078 -0.3156
vn 0.2760 -0.9081 -0.3148
vn 0.9083 -0.1016 0.4058
vn -0.7962 -0.5976 -0.0944
vn 0.0000 -1.0000 0.0000
vn 0.0766 -0.9952 0.0613
vn -0.0434 -0.9980 0.0457
vn 0.4469 -0.5686 -0.6907
vn 0.6546 -0.1834 -0.7334
vn 0.7909 -0.1485 -0.5937
usemtl Shape.3610
s off
f 11//1 8//1 14//1
f 3//2 2//2 4//2
f 3//3 4//3 5//3
f 4//2 2//2 6//2
f 4//4 6//4 7//4
f 5//3 4//3 7//3
f 2//5 3//5 8//5
f 7//4 6//4 9//4
f 3//6 5//6 10//6
f 8//7 3//7 10//7
f 5//8 7//8 11//8
f 1//9 8//9 11//9
f 9//10 1//10 11//10
f 7//11 9//11 11//11
f 6//12 2//12 12//12
f 2//5 8//5 12//5
f 8//13 1//13 12//13
f 1//14 9//14 13//14
f 9//4 6//4 13//4
f 6//15 12//15 13//15
f 12//13 1//13 13//13
f 8//16 10//16 14//16
f 10//17 5//17 14//17
f 5//18 11//18 14//18
