# Blender v2.79 (sub 0) OBJ File: ''
# www.blender.org
mtllib 1741_link_1_37.mtl
o Shape_IndexedFaceSet.037_Shape_IndexedFaceSet.4978
v -0.108993 -0.979981 -0.156687
v -0.002385 -0.971544 0.039628
v -0.092198 -0.966723 0.044809
v -0.116320 -0.992641 0.039628
v -0.002385 -0.992641 -0.179791
v -0.025412 -0.966553 -0.181934
v -0.002385 -0.992641 0.039628
v -0.125741 -0.967970 -0.138101
v -0.128985 -0.992641 -0.124915
v -0.125910 -0.967936 0.030273
v -0.001172 -0.971383 -0.181892
v -0.074112 -0.992641 -0.179791
v -0.089606 -0.968019 -0.173741
v -0.128985 -0.992641 0.022746
vn -0.7972 -0.0830 0.5980
vn 0.0546 0.9984 0.0168
vn 0.0576 0.0000 0.9983
vn 0.0000 -0.1960 0.9806
vn 0.0000 -1.0000 0.0000
vn -0.0158 0.9999 -0.0039
vn -0.7894 -0.2054 -0.5785
vn -0.9915 0.1298 -0.0010
vn -0.3946 0.1874 0.8995
vn -0.0359 0.9994 -0.0002
vn 0.1954 0.9807 0.0018
vn 1.0000 0.0000 0.0055
vn 0.9984 -0.0570 0.0000
vn -0.5907 -0.5496 -0.5907
vn -0.0106 -0.0621 -0.9980
vn 0.0000 -0.0984 -0.9952
vn -0.6969 0.1219 -0.7067
vn -0.0264 0.9993 -0.0281
vn -0.5871 -0.1752 -0.7903
vn -0.1286 0.1596 -0.9788
vn -0.9923 0.1235 0.0000
usemtl Shape.4987
s off
f 4//1 10//1 14//1
f 3//2 2//2 6//2
f 2//3 3//3 7//3
f 3//4 4//4 7//4
f 4//5 5//5 7//5
f 3//6 6//6 8//6
f 5//5 4//5 9//5
f 8//7 1//7 9//7
f 8//8 9//8 10//8
f 4//9 3//9 10//9
f 3//10 8//10 10//10
f 6//11 2//11 11//11
f 2//12 7//12 11//12
f 7//13 5//13 11//13
f 9//14 1//14 12//14
f 5//5 9//5 12//5
f 6//15 11//15 12//15
f 11//16 5//16 12//16
f 1//17 8//17 13//17
f 8//18 6//18 13//18
f 12//19 1//19 13//19
f 6//20 12//20 13//20
f 9//5 4//5 14//5
f 10//21 9//21 14//21
