# Blender v2.79 (sub 0) OBJ File: ''
# www.blender.org
mtllib 1832_link_0_54.mtl
o Shape_IndexedFaceSet.054_Shape_IndexedFaceSet.652
v 0.061556 0.294097 0.135913
v -0.001788 0.292233 0.126597
v -0.001788 0.294097 0.126597
v -0.001788 0.305271 0.176887
v 0.059690 0.292233 0.158260
v 0.061556 0.307134 0.161985
v -0.001788 0.307134 0.156394
v 0.061556 0.307134 0.182483
v -0.001788 0.292233 0.150814
v 0.022437 0.294097 0.126597
v 0.059690 0.292233 0.134053
v 0.054103 0.305271 0.182483
v -0.001788 0.307134 0.176887
v 0.022437 0.307134 0.156394
vn 0.0000 0.9161 -0.4008
vn -1.0000 0.0000 -0.0000
vn 0.0000 1.0000 0.0000
vn 0.9727 -0.2235 0.0626
vn 1.0000 0.0000 0.0000
vn -0.0541 -0.8931 0.4466
vn 0.0000 -1.0000 0.0000
vn 0.0000 0.0000 -1.0000
vn 0.1059 0.8894 -0.4447
vn 0.7067 -0.7075 0.0000
vn 0.0648 -0.8426 -0.5346
vn 0.1863 0.5942 -0.7824
vn -0.0466 -0.8840 0.4651
vn 0.2099 -0.8399 0.5005
vn -0.0830 0.3321 0.9396
vn -0.0996 0.0000 0.9950
vn 0.0572 0.9146 -0.4002
usemtl Shape.652
s off
f 10//1 7//1 14//1
f 3//2 2//2 4//2
f 3//2 4//2 7//2
f 6//3 7//3 8//3
f 5//4 1//4 8//4
f 1//5 6//5 8//5
f 4//2 2//2 9//2
f 5//6 4//6 9//6
f 2//7 5//7 9//7
f 2//8 3//8 10//8
f 6//9 1//9 10//9
f 3//1 7//1 10//1
f 1//10 5//10 11//10
f 5//7 2//7 11//7
f 2//11 10//11 11//11
f 10//12 1//12 11//12
f 4//13 5//13 12//13
f 5//14 8//14 12//14
f 12//15 8//15 13//15
f 7//2 4//2 13//2
f 8//3 7//3 13//3
f 4//16 12//16 13//16
f 7//3 6//3 14//3
f 6//17 10//17 14//17
