# Blender v2.79 (sub 0) OBJ File: ''
# www.blender.org
mtllib 1832_link_0_31.mtl
o Shape_IndexedFaceSet.031_Shape_IndexedFaceSet.629
v 0.078327 0.268014 0.100505
v 0.100681 0.277326 0.070701
v 0.098811 0.279189 0.085613
v 0.059701 0.277326 0.083744
v 0.095084 0.258699 0.059520
v 0.083908 0.279189 0.128454
v 0.059701 0.262426 0.061390
v 0.091361 0.279189 0.059520
v 0.059701 0.279189 0.122860
v 0.059701 0.271738 0.059520
v 0.093223 0.271738 0.106093
v 0.100681 0.262426 0.059520
v 0.061562 0.273599 0.113549
v 0.087635 0.271738 0.113549
v 0.100681 0.279189 0.059520
v 0.095084 0.277326 0.109817
v 0.095084 0.258699 0.063259
v 0.061562 0.266150 0.085613
v 0.059701 0.279189 0.093056
vn 0.0000 1.0000 0.0000
vn -1.0000 0.0000 0.0000
vn -0.0724 -0.1964 -0.9779
vn 0.0000 0.0000 -1.0000
vn -0.2235 0.9498 -0.2191
vn 0.9854 -0.1023 0.1363
vn -0.1143 -0.8617 0.4945
vn -0.8452 -0.5156 0.1406
vn 0.6250 -0.6244 0.4684
vn -0.0675 -0.9456 0.3181
vn -0.0642 -0.8989 0.4333
vn 0.9166 0.3943 0.0657
vn 1.0000 0.0000 0.0000
vn 0.3660 0.9219 0.1273
vn 0.6940 -0.5448 0.4706
vn 0.9833 -0.1125 0.1428
vn 0.8685 -0.4406 0.2272
vn -0.1048 -0.9945 0.0000
vn 0.5543 -0.8323 0.0000
vn 0.6462 -0.7218 0.2478
vn 0.0294 -0.9665 0.2549
vn 0.3796 -0.8803 0.2845
vn -0.1205 -0.9592 0.2558
vn -0.8176 -0.5563 0.1483
vn -0.0773 -0.9748 0.2090
vn -0.1117 -0.9809 0.1594
vn -0.2035 0.9601 -0.1921
usemtl Shape.629
s off
f 9//1 8//1 19//1
f 6//1 3//1 8//1
f 4//2 7//2 9//2
f 6//1 8//1 9//1
f 7//2 4//2 10//2
f 5//3 7//3 10//3
f 8//4 5//4 10//4
f 4//5 8//5 10//5
f 2//6 3//6 12//6
f 5//4 8//4 12//4
f 6//7 9//7 13//7
f 9//8 7//8 13//8
f 11//9 6//9 14//9
f 13//10 1//10 14//10
f 6//11 13//11 14//11
f 3//12 2//12 15//12
f 8//1 3//1 15//1
f 2//13 12//13 15//13
f 12//4 8//4 15//4
f 3//14 6//14 16//14
f 6//15 11//15 16//15
f 12//16 3//16 16//16
f 11//17 12//17 16//17
f 7//18 5//18 17//18
f 5//19 12//19 17//19
f 12//20 11//20 17//20
f 14//21 1//21 17//21
f 11//22 14//22 17//22
f 1//23 13//23 18//23
f 13//24 7//24 18//24
f 17//25 1//25 18//25
f 7//26 17//26 18//26
f 8//27 4//27 19//27
f 4//2 9//2 19//2
