# Blender v2.79 (sub 0) OBJ File: ''
# www.blender.org
mtllib 1832_link_0_81.mtl
o Shape_IndexedFaceSet.081_Shape_IndexedFaceSet.679
v 0.104398 0.266151 0.031580
v 0.089496 0.271738 0.018533
v 0.059693 0.262424 0.020398
v 0.059693 0.271738 0.059520
v 0.100674 0.262424 0.059520
v 0.100674 0.273601 0.059520
v 0.059693 0.262424 0.059520
v 0.104398 0.262424 0.018533
v 0.104398 0.273601 0.018533
v 0.089496 0.273601 0.018533
v 0.059693 0.266151 0.025987
vn -0.2765 0.9480 -0.1579
vn 0.0000 0.0000 1.0000
vn 0.9912 0.0000 0.1321
vn -1.0000 0.0000 0.0000
vn 0.0000 -1.0000 0.0000
vn -0.0416 -0.0665 -0.9969
vn 0.9494 -0.3020 0.0863
vn 0.9836 0.1565 0.0894
vn 0.0000 0.0000 -1.0000
vn 1.0000 0.0000 0.0000
vn -0.0625 0.0000 -0.9980
vn -0.0454 0.9989 0.0124
vn 0.0000 1.0000 0.0000
vn -0.3276 0.7861 -0.5242
usemtl Shape.679
s off
f 4//1 10//1 11//1
f 4//2 5//2 6//2
f 5//3 1//3 6//3
f 4//4 3//4 7//4
f 3//5 5//5 7//5
f 5//2 4//2 7//2
f 3//6 2//6 8//6
f 1//7 5//7 8//7
f 5//5 3//5 8//5
f 6//8 1//8 9//8
f 8//9 2//9 9//9
f 1//10 8//10 9//10
f 2//11 3//11 10//11
f 4//12 6//12 10//12
f 9//9 2//9 10//9
f 6//13 9//13 10//13
f 3//4 4//4 11//4
f 10//14 3//14 11//14
