# Blender v2.79 (sub 0) OBJ File: ''
# www.blender.org
mtllib 1832_link_0_40.mtl
o Shape_IndexedFaceSet.040_Shape_IndexedFaceSet.638
v -0.020421 0.269872 -0.158463
v -0.059544 0.249382 -0.182675
v -0.059544 0.249382 -0.175222
v 0.000075 0.254973 -0.182675
v 0.000075 0.262421 -0.141696
v -0.059544 0.266146 -0.141696
v -0.057676 0.260559 -0.182675
v 0.000075 0.266146 -0.178949
v -0.059544 0.254973 -0.145422
v 0.000075 0.271734 -0.141696
v -0.031596 0.271734 -0.143561
v -0.029734 0.264284 -0.182675
v 0.000075 0.254973 -0.178949
v -0.059544 0.256837 -0.141696
vn -1.0000 0.0000 0.0000
vn 0.0934 -0.9956 0.0000
vn 0.0000 0.0000 -1.0000
vn -0.9841 0.1645 -0.0673
vn 1.0000 0.0000 0.0000
vn 0.0000 0.0000 1.0000
vn 0.0315 0.9884 -0.1483
vn -0.2032 0.9689 -0.1414
vn -0.0498 0.5313 0.8457
vn 0.0070 0.9929 -0.1188
vn 0.0983 0.3148 -0.9440
vn -0.0345 0.9766 -0.2121
vn -0.0912 0.9774 -0.1905
vn -0.1297 0.9729 -0.1915
vn 0.1031 -0.9776 0.1834
vn 0.1096 -0.9747 0.1949
vn 0.0835 -0.8912 0.4458
usemtl Shape.638
s off
f 6//1 9//1 14//1
f 3//2 2//2 4//2
f 2//1 3//1 6//1
f 4//3 2//3 7//3
f 2//4 6//4 7//4
f 5//5 4//5 8//5
f 6//1 3//1 9//1
f 6//6 5//6 10//6
f 8//7 1//7 10//7
f 5//5 8//5 10//5
f 7//8 6//8 11//8
f 6//9 10//9 11//9
f 10//10 1//10 11//10
f 4//3 7//3 12//3
f 8//11 4//11 12//11
f 1//12 8//12 12//12
f 11//13 1//13 12//13
f 7//14 11//14 12//14
f 3//2 4//2 13//2
f 4//5 5//5 13//5
f 9//15 3//15 13//15
f 5//16 9//16 13//16
f 5//6 6//6 14//6
f 9//17 5//17 14//17
