# Blender v2.79 (sub 0) OBJ File: ''
# www.blender.org
mtllib 1832_link_0_73.mtl
o Shape_IndexedFaceSet.073_Shape_IndexedFaceSet.671
v 0.033610 0.260560 -0.139822
v 0.044788 0.273602 -0.072758
v 0.042920 0.273602 -0.072758
v 0.005664 0.273602 -0.141692
v 0.000075 0.271737 -0.093257
v 0.044788 0.269874 -0.141692
v 0.003804 0.262425 -0.141692
v 0.044788 0.262425 -0.121192
v 0.044788 0.273602 -0.123055
v 0.000075 0.273602 -0.093257
v 0.042920 0.271737 -0.072758
v 0.000075 0.264288 -0.130504
v 0.000075 0.273602 -0.141692
v 0.044788 0.260560 -0.141692
vn 0.0152 -0.9958 0.0906
vn 0.0000 1.0000 0.0000
vn 0.0000 0.0000 -1.0000
vn 1.0000 0.0000 0.0000
vn 0.0930 0.9763 -0.1953
vn -0.4316 0.0000 0.9021
vn 0.0000 0.0000 1.0000
vn 0.6973 -0.6984 0.1612
vn -0.0794 -0.9795 0.1853
vn -0.0706 -0.9875 0.1409
vn -0.0705 -0.9875 0.1412
vn -1.0000 -0.0000 -0.0000
vn -0.0934 -0.9763 0.1952
vn -0.9173 -0.3060 -0.2548
vn -0.0439 -0.9640 -0.2622
usemtl Shape.671
s off
f 8//1 1//1 14//1
f 3//2 2//2 4//2
f 4//3 6//3 7//3
f 6//4 2//4 8//4
f 4//2 2//2 9//2
f 2//4 6//4 9//4
f 6//5 4//5 9//5
f 3//2 4//2 10//2
f 5//6 3//6 10//6
f 2//7 3//7 11//7
f 3//6 5//6 11//6
f 8//8 2//8 11//8
f 8//9 11//9 12//9
f 7//10 1//10 12//10
f 1//11 8//11 12//11
f 5//12 10//12 12//12
f 11//13 5//13 12//13
f 4//3 7//3 13//3
f 10//2 4//2 13//2
f 7//14 12//14 13//14
f 12//12 10//12 13//12
f 7//3 6//3 14//3
f 1//15 7//15 14//15
f 6//4 8//4 14//4
