# Blender v2.79 (sub 0) OBJ File: ''
# www.blender.org
mtllib 1832_link_1_5.mtl
o Shape_IndexedFaceSet.005_Shape_IndexedFaceSet.1756
v -0.057238 -0.440959 -0.384783
v -0.124602 -0.451879 -0.289101
v -0.125655 -0.453416 -0.281372
v 0.004651 -0.256081 -0.278514
v -0.117421 -0.263328 -0.319682
v 0.002276 -0.259804 -0.398907
v 0.003321 -0.424216 -0.279736
v 0.004651 -0.461557 -0.386665
v -0.126337 -0.259888 -0.280745
v -0.079498 -0.268655 -0.371508
v -0.096981 -0.453761 -0.353094
v -0.114322 -0.461557 -0.278514
v -0.012939 -0.448710 -0.397400
v -0.047235 -0.265087 -0.389219
v -0.109633 -0.449223 -0.336530
v -0.050089 -0.459821 -0.384263
v -0.098658 -0.268317 -0.352521
v -0.110731 -0.465180 -0.289337
v -0.086305 -0.447967 -0.365672
v -0.002571 -0.465180 -0.386665
v 0.001479 -0.449895 -0.398175
v -0.123539 -0.410465 -0.299938
v -0.105000 -0.460248 -0.336377
v -0.024007 -0.410250 -0.396043
v -0.020418 -0.264008 -0.396442
v -0.117835 -0.455264 -0.316145
vn -0.5585 -0.8152 -0.1535
vn 0.9997 0.0106 -0.0200
vn 0.9999 -0.0080 0.0152
vn -0.0285 0.9991 -0.0303
vn -0.1024 0.9886 -0.1108
vn 0.0127 -0.0074 0.9999
vn -0.2472 -0.0040 0.9689
vn -0.0173 0.0100 0.9998
vn -0.1360 0.9774 -0.1620
vn -0.4817 0.0053 -0.8763
vn -0.2578 0.9236 -0.2836
vn -0.2935 -0.1373 -0.9461
vn -0.2796 0.9126 -0.2984
vn -0.8677 0.0087 -0.4971
vn -0.7954 -0.0053 -0.6061
vn 0.2826 -0.8775 0.3875
vn -0.5937 -0.8015 0.0713
vn -0.5483 -0.0064 -0.8363
vn -0.5005 -0.2128 -0.8392
vn -0.5187 -0.5191 -0.6793
vn -0.7039 0.0036 -0.7103
vn -0.7613 -0.0049 -0.6484
vn 0.4274 -0.8519 0.3028
vn -0.1069 -0.5893 -0.8008
vn 0.2948 -0.8976 0.3276
vn 0.9627 -0.0051 -0.2705
vn -0.0540 -0.0036 -0.9985
vn 0.3125 -0.6229 -0.7172
vn -0.0913 -0.5835 -0.8070
vn -0.9905 -0.0104 -0.1370
vn -0.9927 -0.0031 -0.1203
vn -0.9745 0.0105 -0.2241
vn -0.7901 -0.3391 -0.5106
vn -0.4285 -0.7539 -0.4981
vn -0.1181 -0.9825 -0.1442
vn -0.1047 -0.9877 -0.1163
vn -0.2812 -0.0471 -0.9585
vn -0.3160 -0.0060 -0.9488
vn -0.2602 0.0038 -0.9655
vn -0.1081 0.0008 -0.9941
vn -0.2058 0.7266 -0.6555
vn -0.1208 0.0003 -0.9927
vn -0.9260 -0.3257 -0.1909
vn -0.9272 -0.0049 -0.3745
vn -0.6499 -0.7526 -0.1062
vn -0.9705 -0.0374 -0.2382
vn -0.9466 -0.0039 -0.3224
vn -0.8268 -0.3535 -0.4374
usemtl Shape.1757
s off
f 23//1 18//1 26//1
f 6//2 4//2 8//2
f 4//3 7//3 8//3
f 4//4 6//4 9//4
f 6//5 5//5 9//5
f 7//6 4//6 12//6
f 9//7 3//7 12//7
f 4//8 9//8 12//8
f 5//9 6//9 14//9
f 1//10 10//10 14//10
f 10//11 5//11 14//11
f 1//12 13//12 16//12
f 5//13 10//13 17//13
f 15//14 5//14 17//14
f 11//15 15//15 17//15
f 7//16 12//16 18//16
f 12//17 3//17 18//17
f 10//18 1//18 19//18
f 1//19 16//19 19//19
f 16//20 11//20 19//20
f 17//21 10//21 19//21
f 11//22 17//22 19//22
f 8//23 7//23 20//23
f 16//24 13//24 20//24
f 7//25 18//25 20//25
f 6//26 8//26 21//26
f 13//27 6//27 21//27
f 8//28 20//28 21//28
f 20//29 13//29 21//29
f 2//30 3//30 22//30
f 3//31 9//31 22//31
f 9//32 5//32 22//32
f 15//33 11//33 23//33
f 11//34 16//34 23//34
f 16//35 20//35 23//35
f 20//36 18//36 23//36
f 13//37 1//37 24//37
f 1//38 14//38 24//38
f 24//39 14//39 25//39
f 6//40 13//40 25//40
f 14//41 6//41 25//41
f 13//42 24//42 25//42
f 3//43 2//43 26//43
f 5//44 15//44 26//44
f 18//45 3//45 26//45
f 2//46 22//46 26//46
f 22//47 5//47 26//47
f 15//48 23//48 26//48
