# Blender v2.79 (sub 0) OBJ File: ''
# www.blender.org
mtllib 1832_link_0_56.mtl
o Shape_IndexedFaceSet.056_Shape_IndexedFaceSet.654
v 0.061550 0.322038 0.137774
v -0.001780 0.318317 0.126591
v -0.001780 0.327626 0.126591
v -0.001780 0.335083 0.160123
v 0.070865 0.307137 0.160123
v 0.085768 0.307137 0.126591
v 0.068997 0.325766 0.160123
v -0.001780 0.325766 0.160123
v 0.031753 0.325766 0.126591
v 0.039200 0.333218 0.158259
v 0.057822 0.307137 0.126591
v 0.082040 0.310866 0.160123
v 0.001948 0.316454 0.128459
v 0.016851 0.335083 0.156394
v 0.085768 0.309003 0.126591
v 0.080172 0.318317 0.160123
v -0.001780 0.323903 0.156394
vn -0.2301 -0.9475 0.2220
vn -1.0000 -0.0000 -0.0000
vn 0.0000 0.0000 -1.0000
vn 0.0000 0.0000 1.0000
vn 0.2496 0.9382 -0.2397
vn 0.0614 0.4661 0.8826
vn 0.2193 0.9370 -0.2721
vn 0.0000 -1.0000 0.0000
vn 0.3134 -0.9393 0.1393
vn -0.1572 -0.8382 -0.5222
vn -0.1621 -0.9848 0.0631
vn -0.0434 0.9752 -0.2169
vn 0.0533 0.9604 -0.2736
vn 0.0564 0.9578 0.2818
vn 0.1012 0.9628 -0.2504
vn 0.3575 0.8945 -0.2684
vn 0.2681 0.8639 -0.4264
vn 0.9939 0.0000 0.1105
vn 0.9657 0.2421 0.0939
vn 0.5494 0.8242 -0.1373
vn -0.2236 -0.8719 0.4356
vn -0.5040 -0.8489 0.1591
usemtl Shape.654
s off
f 13//1 5//1 17//1
f 3//2 2//2 4//2
f 2//3 3//3 6//3
f 4//4 5//4 7//4
f 4//2 2//2 8//2
f 5//4 4//4 8//4
f 6//3 3//3 9//3
f 7//5 1//5 10//5
f 4//6 7//6 10//6
f 1//7 9//7 10//7
f 2//3 6//3 11//3
f 6//8 5//8 11//8
f 5//9 6//9 12//9
f 7//4 5//4 12//4
f 2//10 11//10 13//10
f 11//11 5//11 13//11
f 3//12 4//12 14//12
f 9//13 3//13 14//13
f 4//14 10//14 14//14
f 10//15 9//15 14//15
f 1//16 7//16 15//16
f 9//17 1//17 15//17
f 6//3 9//3 15//3
f 12//18 6//18 15//18
f 12//19 15//19 16//19
f 7//4 12//4 16//4
f 15//20 7//20 16//20
f 8//2 2//2 17//2
f 5//21 8//21 17//21
f 2//22 13//22 17//22
