# Blender v2.79 (sub 0) OBJ File: ''
# www.blender.org
mtllib 1832_link_0_25.mtl
o Shape_IndexedFaceSet.025_Shape_IndexedFaceSet.623
v -0.113573 0.243790 -0.052276
v -0.091216 0.247519 -0.001983
v -0.094942 0.247519 -0.000112
v -0.107982 0.217710 -0.136079
v -0.093080 0.247519 -0.141692
v -0.119161 0.247519 -0.139807
v -0.091216 0.219577 -0.141692
v -0.121025 0.221439 -0.141692
v -0.106121 0.245651 -0.005711
v -0.091216 0.245651 -0.001983
v -0.119161 0.247519 -0.111868
v -0.115434 0.219577 -0.128637
v -0.109847 0.247519 -0.020609
v -0.102394 0.241928 -0.016881
v -0.091216 0.247519 -0.054147
v -0.091216 0.219577 -0.136079
v -0.121025 0.243790 -0.141692
v -0.121025 0.225162 -0.132351
vn -1.0000 0.0000 0.0000
vn 0.0000 1.0000 -0.0000
vn -0.0554 -0.8861 -0.4601
vn 0.0000 0.0000 -1.0000
vn 0.4487 0.0000 0.8937
vn 1.0000 0.0000 0.0000
vn -0.1374 -0.8242 0.5493
vn -0.2653 -0.9639 -0.0239
vn -0.6951 -0.6907 0.1992
vn -0.2500 0.9510 0.1818
vn -0.9863 0.1307 0.1007
vn 0.0650 -0.9785 0.1958
vn -0.0733 -0.9532 0.2932
vn -0.0445 -0.9786 0.2009
vn -0.2769 -0.9355 0.2194
vn 0.9976 0.0665 -0.0212
vn 0.1107 -0.9939 0.0000
vn 0.1087 -0.9758 0.1897
vn -0.0634 0.4753 -0.8775
vn -0.8945 0.4471 0.0000
vn -0.9978 0.0294 0.0587
vn -0.8817 -0.4383 0.1747
vn -0.9956 -0.0024 0.0932
vn -0.9684 -0.2074 0.1384
vn -0.8946 -0.4125 0.1720
usemtl Shape.623
s off
f 17//1 8//1 18//1
f 3//2 2//2 5//2
f 3//2 5//2 6//2
f 7//3 4//3 8//3
f 5//4 7//4 8//4
f 2//5 3//5 10//5
f 7//6 2//6 10//6
f 3//7 9//7 10//7
f 3//2 6//2 11//2
f 8//8 4//8 12//8
f 9//9 8//9 12//9
f 9//10 3//10 13//10
f 3//2 11//2 13//2
f 11//11 1//11 13//11
f 4//12 10//12 14//12
f 10//13 9//13 14//13
f 12//14 4//14 14//14
f 9//15 12//15 14//15
f 5//2 2//2 15//2
f 7//16 5//16 15//16
f 2//6 7//6 15//6
f 4//17 7//17 16//17
f 7//6 10//6 16//6
f 10//18 4//18 16//18
f 6//19 5//19 17//19
f 5//4 8//4 17//4
f 11//20 6//20 17//20
f 11//21 17//21 18//21
f 8//22 9//22 18//22
f 1//23 11//23 18//23
f 13//24 1//24 18//24
f 9//25 13//25 18//25
