# Blender v2.79 (sub 0) OBJ File: ''
# www.blender.org
mtllib 102622_link_0_29.mtl
o Shape_IndexedFaceSet.029_Shape_IndexedFaceSet.11173
v 0.340743 0.311441 -0.126780
v 0.170098 0.324574 -0.189165
v 0.170098 0.337695 -0.189165
v 0.170098 0.350824 -0.048009
v 0.324344 0.308153 -0.048009
v 0.298068 0.334412 -0.057874
v 0.170098 0.334412 -0.048009
v 0.258729 0.308153 -0.189165
v 0.225893 0.334412 -0.189165
v 0.363759 0.308153 -0.048009
v 0.284949 0.321291 -0.189165
v 0.173378 0.321291 -0.185876
v 0.311206 0.327857 -0.110407
v 0.196356 0.344262 -0.130069
v 0.304647 0.308153 -0.189165
v 0.344042 0.321291 -0.048009
v 0.268531 0.337695 -0.090704
v 0.170098 0.331128 -0.074289
v 0.176658 0.344262 -0.153047
v 0.206195 0.347545 -0.048009
v 0.271811 0.331128 -0.156335
v 0.350602 0.318007 -0.064437
v 0.225893 0.337695 -0.166173
vn 0.1599 0.9830 -0.0904
vn -1.0000 0.0000 0.0000
vn 0.0000 0.0000 1.0000
vn 0.0000 0.0000 -1.0000
vn 0.0000 -1.0000 -0.0000
vn -0.1492 -0.9864 0.0693
vn -0.1423 -0.7679 -0.6246
vn 0.3868 0.8993 -0.2039
vn 0.3105 -0.9416 -0.1300
vn 0.5213 0.7815 -0.3428
vn 0.2837 0.9577 -0.0485
vn 0.1913 0.9787 -0.0743
vn -0.1666 -0.9784 0.1223
vn -0.7262 -0.6863 0.0392
vn -0.1605 -0.9836 0.0820
vn -0.4377 0.8952 -0.0833
vn 0.0577 0.9803 -0.1887
vn 0.0677 0.9960 -0.0580
vn 0.0904 0.9946 -0.0506
vn 0.1716 0.9009 0.3986
vn 0.1387 0.9900 -0.0258
vn 0.1197 0.9913 -0.0540
vn 0.2124 0.9562 -0.2015
vn 0.2786 0.9449 -0.1717
vn 0.1847 0.9788 -0.0887
vn 0.7264 0.6621 -0.1846
vn 0.4106 0.8978 -0.1595
vn 0.5537 0.8309 0.0550
vn 0.3124 0.9477 -0.0647
vn 0.1300 0.9888 -0.0735
vn 0.0939 0.9856 -0.1407
vn 0.1075 0.9899 -0.0921
vn 0.1694 0.9757 -0.1393
usemtl Shape.11190
s off
f 17//1 21//1 23//1
f 3//2 2//2 4//2
f 4//2 2//2 7//2
f 5//3 4//3 7//3
f 2//4 3//4 8//4
f 8//4 3//4 9//4
f 4//3 5//3 10//3
f 5//5 8//5 10//5
f 8//4 9//4 11//4
f 8//6 5//6 12//6
f 2//7 8//7 12//7
f 1//8 11//8 13//8
f 1//9 10//9 15//9
f 10//5 8//5 15//5
f 11//10 1//10 15//10
f 8//4 11//4 15//4
f 4//3 10//3 16//3
f 13//11 6//11 16//11
f 6//12 13//12 17//12
f 7//2 2//2 18//2
f 5//13 7//13 18//13
f 2//14 12//14 18//14
f 12//15 5//15 18//15
f 3//16 4//16 19//16
f 9//17 3//17 19//17
f 4//18 14//18 19//18
f 14//19 4//19 20//19
f 4//3 16//3 20//3
f 16//20 6//20 20//20
f 6//21 17//21 20//21
f 17//22 14//22 20//22
f 11//23 9//23 21//23
f 13//24 11//24 21//24
f 17//25 13//25 21//25
f 10//26 1//26 22//26
f 1//27 13//27 22//27
f 16//28 10//28 22//28
f 13//29 16//29 22//29
f 14//30 17//30 23//30
f 9//31 19//31 23//31
f 19//32 14//32 23//32
f 21//33 9//33 23//33
