# Blender v2.79 (sub 0) OBJ File: ''
# www.blender.org
mtllib 102622_link_0_23.mtl
o Shape_IndexedFaceSet.023_Shape_IndexedFaceSet.11167
v -0.131957 0.222795 0.815434
v -0.003952 0.262191 0.838408
v -0.003952 0.262191 0.821985
v -0.003952 0.219512 0.835120
v -0.125389 0.262191 0.795728
v -0.128680 0.222795 0.795728
v -0.131957 0.262191 0.815434
v -0.003952 0.222795 0.821985
v -0.049915 0.222795 0.835120
v -0.056483 0.262191 0.835120
v -0.112266 0.219512 0.821985
v -0.135261 0.219512 0.799016
vn -0.2357 -0.9428 0.2359
vn 1.0000 0.0000 0.0000
vn 0.0000 1.0000 0.0000
vn 0.2113 0.0000 -0.9774
vn 0.2060 -0.0172 -0.9784
vn -0.0055 -0.0768 0.9970
vn -0.0625 -0.0104 0.9980
vn -0.2043 -0.0341 0.9783
vn -0.3157 0.0000 0.9489
vn -0.0614 -0.8600 0.5066
vn -0.2523 0.0321 0.9671
vn -0.4619 0.0386 -0.8861
vn -0.9803 0.0000 0.1973
vn -0.9311 0.1915 -0.3103
vn 0.0665 -0.9680 -0.2419
vn 0.1201 -0.8123 -0.5707
vn 0.0000 -1.0000 0.0000
usemtl Shape.11184
s off
f 11//1 1//1 12//1
f 3//2 2//2 4//2
f 2//3 3//3 5//3
f 2//3 5//3 7//3
f 3//2 4//2 8//2
f 5//4 3//4 8//4
f 6//5 5//5 8//5
f 4//6 2//6 9//6
f 2//3 7//3 10//3
f 9//7 2//7 10//7
f 9//8 10//8 11//8
f 7//9 1//9 11//9
f 4//10 9//10 11//10
f 10//11 7//11 11//11
f 5//12 6//12 12//12
f 1//13 7//13 12//13
f 7//14 5//14 12//14
f 8//15 4//15 12//15
f 6//16 8//16 12//16
f 4//17 11//17 12//17
