# Blender v2.79 (sub 0) OBJ File: ''
# www.blender.org
mtllib 102622_link_0_31.mtl
o Shape_IndexedFaceSet.031_Shape_IndexedFaceSet.11175
v 0.133924 0.304869 0.759615
v 0.133924 0.308153 0.759615
v -0.003940 0.304869 0.792445
v -0.003940 0.291738 0.808860
v 0.035468 0.308153 0.818707
v 0.140513 0.291738 0.779321
v 0.140513 0.308153 0.795723
v 0.130658 0.291738 0.805570
v -0.003940 0.295022 0.825275
v -0.003940 0.308153 0.818707
v 0.104400 0.301586 0.812138
v -0.003940 0.308153 0.792445
vn -1.0000 0.0000 0.0000
vn -0.2317 0.0000 -0.9728
vn -0.1471 -0.7724 -0.6179
vn 0.9484 0.0000 -0.3171
vn -0.1076 -0.8436 -0.5261
vn 0.0000 1.0000 0.0000
vn 0.9683 0.1766 -0.1767
vn 0.8833 -0.3314 0.3316
vn 0.0000 -1.0000 0.0000
vn 0.0048 -0.9806 0.1962
vn 0.0000 0.4474 0.8944
vn 0.1325 0.7848 0.6054
vn 0.3421 0.3238 0.8821
vn 0.1090 0.1633 0.9805
vn 0.1323 -0.2812 0.9505
usemtl Shape.11192
s off
f 3//1 10//1 12//1
f 2//2 1//2 3//2
f 3//3 1//3 4//3
f 1//4 2//4 6//4
f 4//5 1//5 6//5
f 2//6 5//6 7//6
f 6//7 2//7 7//7
f 6//8 7//8 8//8
f 4//9 6//9 8//9
f 3//1 4//1 9//1
f 4//10 8//10 9//10
f 5//6 2//6 10//6
f 9//11 5//11 10//11
f 3//1 9//1 10//1
f 7//12 5//12 11//12
f 8//13 7//13 11//13
f 5//14 9//14 11//14
f 9//15 8//15 11//15
f 2//2 3//2 12//2
f 10//6 2//6 12//6
