# Blender v2.79 (sub 0) OBJ File: ''
# www.blender.org
mtllib 102622_link_2_16.mtl
o Shape_IndexedFaceSet.016_Shape_IndexedFaceSet.15629
v 0.261073 -0.556394 -0.030746
v 0.224898 -0.673987 -0.392470
v 0.226225 -0.645508 -0.387354
v 0.242995 -0.556394 0.276855
v 0.288206 -0.673987 0.222533
v 0.242995 -0.655881 0.276855
v 0.221702 -0.550457 -0.067255
v 0.288206 -0.556394 0.123054
v 0.252043 -0.619691 -0.320085
v 0.288206 -0.673987 0.086862
v 0.288206 -0.565441 0.276855
v 0.224898 -0.673987 -0.157253
v 0.233953 -0.592584 -0.356278
v 0.252043 -0.673987 -0.320085
v 0.252043 -0.673987 0.276855
v 0.288206 -0.628739 0.041638
v 0.288206 -0.664940 0.276855
v 0.224898 -0.601642 -0.383438
vn 0.9239 0.1420 -0.3554
vn -0.9981 0.0000 0.0618
vn 0.0484 0.9987 0.0142
vn 0.1773 0.9837 -0.0313
vn 0.9305 0.0223 -0.3657
vn 0.0000 -1.0000 0.0000
vn 1.0000 -0.0000 0.0000
vn 0.0000 0.0000 1.0000
vn 0.1959 0.9789 0.0576
vn -0.9974 -0.0579 0.0440
vn -0.9997 -0.0259 0.0000
vn 0.2631 0.9562 -0.1282
vn 0.7597 0.6363 -0.1340
vn 0.8973 0.4208 -0.1333
vn 0.9363 0.0000 -0.3511
vn -0.8931 -0.4463 0.0558
vn 0.9895 0.1083 -0.0962
vn 0.9950 0.0000 -0.0995
vn 0.9922 -0.0881 -0.0882
vn 0.2396 -0.9577 0.1595
vn 0.7593 0.0806 -0.6457
vn -0.9999 0.0013 -0.0103
vn 0.9237 0.0617 -0.3782
vn -0.4420 0.8848 -0.1477
usemtl Shape.15637
s off
f 13//1 9//1 18//1
f 6//2 4//2 7//2
f 7//3 4//3 8//3
f 1//4 7//4 8//4
f 2//5 3//5 9//5
f 5//6 2//6 10//6
f 8//7 5//7 10//7
f 4//8 6//8 11//8
f 8//9 4//9 11//9
f 5//7 8//7 11//7
f 2//6 5//6 12//6
f 6//10 7//10 12//10
f 7//11 2//11 12//11
f 7//12 1//12 13//12
f 1//13 8//13 13//13
f 8//14 9//14 13//14
f 2//15 9//15 14//15
f 10//6 2//6 14//6
f 11//8 6//8 15//8
f 12//6 5//6 15//6
f 6//16 12//16 15//16
f 9//17 8//17 16//17
f 8//7 10//7 16//7
f 14//18 9//18 16//18
f 10//19 14//19 16//19
f 5//7 11//7 17//7
f 15//20 5//20 17//20
f 11//8 15//8 17//8
f 3//21 2//21 18//21
f 2//22 7//22 18//22
f 9//23 3//23 18//23
f 7//24 13//24 18//24
