# Blender v2.79 (sub 0) OBJ File: ''
# www.blender.org
mtllib 102622_link_0_1.mtl
o Shape_IndexedFaceSet.001_Shape_IndexedFaceSet.11145
v 0.245527 0.308158 -0.244984
v -0.003909 0.301587 -0.287660
v 0.028934 0.301587 -0.287660
v -0.003909 0.344258 -0.212170
v 0.275074 0.301587 -0.189188
v -0.003909 0.331129 -0.189188
v 0.222574 0.334412 -0.189188
v 0.127402 0.327846 -0.254826
v -0.003909 0.301587 -0.267956
v -0.003909 0.324562 -0.271243
v 0.163481 0.301587 -0.274521
v 0.107715 0.344258 -0.189188
v 0.304621 0.301587 -0.199040
v 0.242261 0.324562 -0.218735
v 0.147090 0.314725 -0.271243
v 0.101152 0.337696 -0.231864
v 0.291496 0.318008 -0.189188
v -0.003909 0.344258 -0.189188
v 0.199590 0.324562 -0.241697
v 0.055184 0.314725 -0.281085
v 0.206152 0.334412 -0.205605
v 0.025637 0.331129 -0.258114
v -0.003909 0.327846 -0.195763
v 0.222574 0.301587 -0.258114
v 0.284933 0.311441 -0.212170
v 0.209418 0.308158 -0.261391
v 0.074872 0.324562 -0.267956
v 0.091293 0.304875 -0.284373
vn 0.0863 0.5855 -0.8061
vn 0.0000 -1.0000 0.0000
vn -1.0000 -0.0000 -0.0000
vn -0.0000 0.0000 1.0000
vn 0.0323 0.9871 -0.1567
vn 0.3016 -0.3016 0.9045
vn 0.2283 0.9591 -0.1676
vn 0.0000 1.0000 0.0000
vn 0.2624 0.8326 -0.4877
vn 0.1325 0.8457 -0.5170
vn 0.0971 0.9501 -0.2965
vn 0.0000 0.4475 -0.8943
vn -0.0387 0.5810 -0.8130
vn 0.0851 0.9927 -0.0851
vn 0.1925 0.9622 -0.1925
vn 0.0714 0.9842 -0.1623
vn 0.1540 0.9458 -0.2861
vn 0.0996 0.9552 -0.2788
vn -0.0701 0.9463 -0.3155
vn 0.0097 0.9631 -0.2690
vn 0.0416 0.9346 -0.3534
vn -0.0943 -0.8907 0.4447
vn -0.0961 -0.9354 0.3402
vn 0.5388 -0.3868 -0.7484
vn 0.6142 0.2156 -0.7591
vn 0.3246 0.8197 -0.4719
vn 0.6023 0.7055 -0.3736
vn 0.3239 0.8812 -0.3443
vn 0.1855 0.4494 -0.8738
vn 0.2473 0.8016 -0.5443
vn 0.1753 0.7977 -0.5770
vn 0.3874 0.3505 -0.8527
vn 0.2671 0.0550 -0.9621
vn 0.0873 0.8266 -0.5560
vn 0.0260 0.7809 -0.6241
vn 0.0711 0.7441 -0.6642
vn 0.0202 0.8753 -0.4832
vn 0.0424 0.9160 -0.3989
vn 0.0741 -0.6469 -0.7590
vn 0.1418 0.4025 -0.9044
vn 0.0269 0.4039 -0.9144
usemtl Shape.11162
s off
f 20//1 15//1 28//1
f 2//2 3//2 5//2
f 4//3 2//3 6//3
f 6//4 5//4 7//4
f 2//2 5//2 9//2
f 6//3 2//3 9//3
f 2//3 4//3 10//3
f 5//2 3//2 11//2
f 6//4 7//4 12//4
f 5//2 11//2 13//2
f 4//5 12//5 16//5
f 7//4 5//4 17//4
f 5//6 13//6 17//6
f 14//7 7//7 17//7
f 4//3 6//3 18//3
f 12//8 4//8 18//8
f 6//4 12//4 18//4
f 14//9 1//9 19//9
f 15//10 8//10 19//10
f 8//11 16//11 19//11
f 3//12 2//12 20//12
f 2//13 10//13 20//13
f 12//14 7//14 21//14
f 7//15 14//15 21//15
f 16//16 12//16 21//16
f 14//17 19//17 21//17
f 19//18 16//18 21//18
f 10//19 4//19 22//19
f 4//20 16//20 22//20
f 16//21 8//21 22//21
f 5//22 6//22 23//22
f 9//23 5//23 23//23
f 6//3 9//3 23//3
f 1//24 13//24 24//24
f 13//2 11//2 24//2
f 13//25 1//25 25//25
f 1//26 14//26 25//26
f 17//27 13//27 25//27
f 14//28 17//28 25//28
f 11//29 15//29 26//29
f 19//30 1//30 26//30
f 15//31 19//31 26//31
f 1//32 24//32 26//32
f 24//33 11//33 26//33
f 8//34 15//34 27//34
f 20//35 10//35 27//35
f 15//36 20//36 27//36
f 10//37 22//37 27//37
f 22//38 8//38 27//38
f 11//39 3//39 28//39
f 15//40 11//40 28//40
f 3//41 20//41 28//41
