# Blender v2.79 (sub 0) OBJ File: ''
# www.blender.org
mtllib 102622_link_2_11.mtl
o Shape_IndexedFaceSet.011_Shape_IndexedFaceSet.15624
v -0.436382 0.283981 -0.091717
v -0.505512 0.144159 -0.265952
v -0.488388 0.102490 -0.265625
v -0.209721 0.248474 -0.274612
v -0.205033 0.016551 -0.019430
v -0.216307 0.047611 -0.269381
v -0.472676 0.101645 -0.038964
v -0.213579 0.247114 -0.034077
v -0.471575 0.357216 -0.265868
v -0.489440 0.211201 -0.039054
v -0.405648 0.049565 -0.267829
v -0.399217 0.357216 -0.274929
v -0.438414 0.068802 -0.039762
v -0.498553 0.287522 -0.267163
v -0.462476 0.252362 -0.040937
v -0.463597 0.068706 -0.265950
v -0.417306 0.357216 -0.256807
v -0.490160 0.143596 -0.038406
v -0.202139 0.023966 -0.024991
v -0.505711 0.202763 -0.207354
v -0.405581 0.058339 -0.037980
vn -0.3052 -0.9516 0.0364
vn -0.0261 0.0624 0.9977
vn -0.0112 -0.9924 -0.1228
vn -0.0085 -0.0258 -0.9996
vn 0.4977 0.8673 0.0129
vn -0.0114 -0.0228 -0.9997
vn -0.1186 -0.1476 0.9819
vn -0.9222 0.3541 0.1553
vn -0.0746 -0.0048 -0.9972
vn -0.1240 0.0664 -0.9901
vn 0.0033 0.8481 0.5298
vn -0.2469 0.8744 0.4176
vn -0.7967 0.5348 0.2815
vn -0.0262 0.0628 0.9977
vn -0.0540 -0.0300 -0.9981
vn -0.8048 -0.5911 0.0536
vn -0.0399 -0.0222 -0.9990
vn -0.0397 -0.0222 -0.9990
vn -0.6890 -0.7206 0.0770
vn -0.3124 -0.9493 0.0352
vn 0.0449 0.9112 0.4094
vn -0.0665 0.9149 0.3982
vn 0.2427 0.9393 0.2423
vn 0.0000 1.0000 0.0000
vn -0.9234 -0.3790 0.0614
vn -0.9209 -0.3847 0.0624
vn -0.0885 -0.0501 0.9948
vn -0.0619 0.0102 0.9980
vn 0.9019 -0.4218 -0.0931
vn 0.9975 -0.0343 -0.0611
vn 0.8471 0.0649 0.5274
vn 0.9985 0.0519 0.0163
vn -0.9855 0.1453 0.0880
vn -0.9975 0.0480 -0.0514
vn -0.9953 -0.0703 0.0670
vn -0.9953 0.0115 0.0957
vn -0.2072 -0.9776 0.0374
vn -0.1538 -0.3235 0.9336
usemtl Shape.15632
s off
f 13//1 11//1 21//1
f 5//2 8//2 10//2
f 6//3 5//3 11//3
f 4//4 6//4 11//4
f 8//5 4//5 12//5
f 4//6 11//6 12//6
f 5//7 7//7 13//7
f 10//8 9//8 14//8
f 12//9 2//9 14//9
f 9//10 12//10 14//10
f 8//11 1//11 15//11
f 1//12 9//12 15//12
f 9//13 10//13 15//13
f 10//14 8//14 15//14
f 3//15 2//15 16//15
f 7//16 3//16 16//16
f 2//17 12//17 16//17
f 12//18 11//18 16//18
f 13//19 7//19 16//19
f 11//20 13//20 16//20
f 1//21 8//21 17//21
f 9//22 1//22 17//22
f 8//23 12//23 17//23
f 12//24 9//24 17//24
f 2//25 3//25 18//25
f 3//26 7//26 18//26
f 7//27 5//27 18//27
f 5//28 10//28 18//28
f 5//29 6//29 19//29
f 6//30 4//30 19//30
f 8//31 5//31 19//31
f 4//32 8//32 19//32
f 10//33 14//33 20//33
f 14//34 2//34 20//34
f 2//35 18//35 20//35
f 18//36 10//36 20//36
f 11//37 5//37 21//37
f 5//38 13//38 21//38
