# Blender v2.79 (sub 0) OBJ File: ''
# www.blender.org
mtllib 102622_link_2_20.mtl
o Shape_IndexedFaceSet.020_Shape_IndexedFaceSet.15633
v 0.123650 -0.229250 -0.510256
v 0.080168 -0.212660 -0.501088
v 0.089214 -0.556394 -0.501088
v 0.071123 -0.212660 -0.691028
v 0.067951 -0.571459 -0.571468
v 0.143488 -0.556394 -0.501088
v 0.143488 -0.321237 -0.591540
v 0.116351 -0.357408 -0.636738
v 0.125396 -0.212660 -0.600558
v 0.143488 -0.285034 -0.501088
v 0.134428 -0.556394 -0.537269
v 0.071123 -0.493037 -0.519179
v 0.071123 -0.212660 -0.600558
v 0.098260 -0.212660 -0.672919
v 0.080168 -0.384527 -0.645774
vn 0.4669 -0.3528 -0.8108
vn 0.0000 0.0000 1.0000
vn 0.0000 -0.9778 0.2093
vn 0.3829 0.9073 0.1741
vn 0.0000 1.0000 0.0000
vn 0.9852 0.1589 -0.0636
vn 0.2917 0.2552 0.9218
vn 1.0000 0.0000 -0.0000
vn 0.9347 0.3458 0.0816
vn 0.2513 -0.9659 -0.0629
vn 0.9658 -0.0930 -0.2419
vn 0.8932 -0.1335 -0.4294
vn 0.4900 -0.3537 -0.7967
vn -0.7403 -0.0195 0.6720
vn -0.9315 -0.1749 0.3189
vn -0.9990 0.0123 0.0422
vn -1.0000 0.0088 0.0000
vn -0.9955 0.0263 0.0905
vn 0.8635 -0.0181 -0.5040
vn 0.5498 -0.1372 -0.8239
vn 0.9289 0.1258 -0.3483
vn -0.7345 -0.2087 -0.6457
vn 0.3858 -0.2159 -0.8970
usemtl Shape.15641
s off
f 8//1 5//1 15//1
f 2//2 3//2 6//2
f 3//3 5//3 6//3
f 2//4 1//4 9//4
f 4//5 2//5 9//5
f 7//6 9//6 10//6
f 1//7 2//7 10//7
f 2//2 6//2 10//2
f 6//8 7//8 10//8
f 9//9 1//9 10//9
f 6//10 5//10 11//10
f 7//11 6//11 11//11
f 8//12 7//12 11//12
f 5//13 8//13 11//13
f 3//14 2//14 12//14
f 5//15 3//15 12//15
f 5//16 12//16 13//16
f 2//5 4//5 13//5
f 4//17 5//17 13//17
f 12//18 2//18 13//18
f 7//19 8//19 14//19
f 8//20 4//20 14//20
f 4//5 9//5 14//5
f 9//21 7//21 14//21
f 5//22 4//22 15//22
f 4//23 8//23 15//23
