# Blender v2.79 (sub 0) OBJ File: ''
# www.blender.org
mtllib 102622_link_0_11.mtl
o Shape_IndexedFaceSet.011_Shape_IndexedFaceSet.11155
v 0.012488 0.350830 -0.162908
v 0.170061 0.354114 0.221199
v 0.143781 0.357398 0.221199
v -0.003930 0.344265 0.221199
v 0.170061 0.324568 -0.189179
v -0.003930 0.331136 -0.189179
v 0.170061 0.347546 -0.120207
v 0.170061 0.337704 0.221199
v -0.003930 0.360682 0.053730
v -0.003930 0.360682 0.221199
v 0.156913 0.340985 -0.189179
v 0.130650 0.324568 -0.185885
v 0.120806 0.354114 -0.057822
v -0.003930 0.347546 -0.189179
v 0.071569 0.360682 0.112820
v 0.143781 0.357398 0.122702
v 0.032193 0.357394 -0.061116
v 0.084683 0.350830 -0.143184
v 0.153625 0.337704 0.221199
v -0.003930 0.331136 -0.166161
v 0.084683 0.360682 0.221199
v 0.170061 0.350830 -0.054569
v -0.003930 0.357394 -0.061116
v 0.137224 0.344262 -0.182591
v 0.130650 0.357398 0.070119
v 0.170061 0.324568 -0.169455
v 0.068299 0.354110 -0.110365
v 0.170061 0.340985 -0.179297
v 0.170061 0.354114 0.083295
vn 0.0909 0.9956 -0.0237
vn 0.0000 0.0000 1.0000
vn 1.0000 0.0000 0.0000
vn -1.0000 -0.0000 0.0000
vn 0.0000 0.0000 -1.0000
vn -0.0344 -0.9108 -0.4114
vn 0.0000 1.0000 0.0000
vn 0.1240 0.9923 0.0000
vn 0.0180 0.9996 -0.0230
vn -0.0416 -0.9985 0.0346
vn -0.0438 -0.9985 0.0338
vn -0.0487 -0.9988 0.0000
vn 0.0462 0.9989 -0.0056
vn 0.0555 0.9985 0.0000
vn 0.0697 0.9963 -0.0498
vn -0.0765 0.9941 -0.0764
vn 0.0000 0.9979 -0.0644
vn 0.0000 0.9996 -0.0286
vn 0.0297 0.9894 -0.1422
vn 0.0382 0.9355 -0.3513
vn 0.0331 0.9921 -0.1212
vn 0.0610 0.9946 -0.0845
vn 0.0470 0.9988 -0.0117
vn 0.0380 0.9989 -0.0286
vn 0.0360 0.9990 -0.0270
vn 0.0685 0.9972 -0.0309
vn 0.0000 -1.0000 0.0000
vn 0.0000 -0.9994 0.0336
vn -0.0138 -0.9994 0.0330
vn 0.0586 0.9966 -0.0586
vn 0.0024 0.9979 -0.0648
vn 0.0384 0.9985 -0.0384
vn 0.0239 0.9959 -0.0876
vn 0.0574 0.9958 -0.0709
vn 0.5414 0.4336 -0.7203
vn 0.1096 0.9879 -0.1097
vn 0.1131 0.9821 -0.1505
vn 0.0905 0.9956 -0.0226
usemtl Shape.11172
s off
f 22//1 25//1 29//1
f 2//2 3//2 4//2
f 2//3 5//3 7//3
f 2//2 4//2 8//2
f 5//3 2//3 8//3
f 6//4 4//4 9//4
f 4//2 3//2 10//2
f 9//4 4//4 10//4
f 5//5 6//5 11//5
f 6//6 5//6 12//6
f 6//4 9//4 14//4
f 11//5 6//5 14//5
f 9//7 10//7 15//7
f 3//8 2//8 16//8
f 9//9 15//9 17//9
f 8//2 4//2 19//2
f 4//10 12//10 19//10
f 4//4 6//4 20//4
f 12//11 4//11 20//11
f 6//12 12//12 20//12
f 10//2 3//2 21//2
f 15//7 10//7 21//7
f 16//13 15//13 21//13
f 3//14 16//14 21//14
f 2//3 7//3 22//3
f 7//15 13//15 22//15
f 1//16 14//16 23//16
f 14//4 9//4 23//4
f 17//17 1//17 23//17
f 9//18 17//18 23//18
f 14//19 1//19 24//19
f 11//20 14//20 24//20
f 1//21 18//21 24//21
f 18//22 7//22 24//22
f 15//23 16//23 25//23
f 13//24 17//24 25//24
f 17//25 15//25 25//25
f 22//26 13//26 25//26
f 5//3 8//3 26//3
f 12//27 5//27 26//27
f 8//28 19//28 26//28
f 19//29 12//29 26//29
f 13//30 7//30 27//30
f 1//31 17//31 27//31
f 17//32 13//32 27//32
f 18//33 1//33 27//33
f 7//34 18//34 27//34
f 7//3 5//3 28//3
f 5//35 11//35 28//35
f 24//36 7//36 28//36
f 11//37 24//37 28//37
f 16//8 2//8 29//8
f 2//3 22//3 29//3
f 25//38 16//38 29//38
