# Blender v2.79 (sub 0) OBJ File: ''
# www.blender.org
mtllib 102622_link_2_1.mtl
o Shape_IndexedFaceSet.001_Shape_IndexedFaceSet.15614
v 0.504278 0.204891 -0.306688
v -0.421370 0.188334 -0.791054
v -0.421550 0.232063 -0.791165
v -0.506409 0.142931 -0.280300
v -0.358430 0.510846 -0.406675
v 0.413233 0.496341 -0.766567
v 0.452182 0.066468 -0.702953
v 0.416136 0.449744 -0.337198
v -0.433239 0.496167 -0.757578
v -0.394187 0.048887 -0.284143
v -0.465294 0.074513 -0.712243
v 0.429317 0.056122 -0.282377
v 0.120359 0.049575 -0.772157
v -0.475073 0.345948 -0.282850
v -0.533090 0.204953 -0.679011
v 0.338788 0.520045 -0.484987
v 0.465352 0.170155 -0.774975
v 0.486340 0.302368 -0.280135
v 0.512585 0.328914 -0.634663
v 0.041885 0.033240 -0.736491
v 0.347982 0.485426 -0.790615
v 0.226097 0.030767 -0.283463
v -0.298397 0.520403 -0.720614
v 0.521451 0.142952 -0.661220
v -0.486975 0.434744 -0.537278
v -0.114767 0.066532 -0.790195
v -0.351087 0.485576 -0.790797
v 0.448177 0.496144 -0.563649
v -0.465786 0.056814 -0.598514
v -0.420023 0.450206 -0.336668
v 0.372801 0.502046 -0.389349
v 0.374479 0.511769 -0.755738
v 0.417758 0.048780 -0.633265
v 0.433535 0.362757 -0.285011
v 0.418590 0.205850 -0.791030
v -0.524224 0.320086 -0.599216
v -0.523645 0.160775 -0.723084
v -0.431398 0.503974 -0.475888
v 0.476749 0.098777 -0.280511
v -0.504773 0.081490 -0.519627
v 0.493844 0.328809 -0.731763
v -0.053203 0.034199 -0.735703
v -0.376655 0.520208 -0.537278
v -0.496983 0.302322 -0.280586
v -0.533840 0.169340 -0.519542
v 0.474273 0.064438 -0.510873
v -0.479454 0.080985 -0.280474
v -0.487246 0.337630 -0.758093
v -0.460228 0.496407 -0.669592
v 0.456879 0.434437 -0.369853
v 0.356464 0.520248 -0.676886
v 0.172851 0.057958 -0.781240
v -0.376919 0.511573 -0.764284
v -0.411604 0.048928 -0.641923
v 0.450138 0.488215 -0.705385
v -0.466345 0.153013 -0.774053
v -0.468912 0.434582 -0.378515
v -0.201797 0.049245 -0.763791
v 0.492935 0.108133 -0.731409
v 0.522385 0.169329 -0.501803
v 0.503134 0.337732 -0.466483
v -0.506370 0.337805 -0.723256
v 0.438127 0.337310 -0.783299
v 0.511756 0.178511 -0.731836
vn 0.6720 0.0728 -0.7370
vn 0.0972 -0.9684 -0.2297
vn 0.0075 0.9832 0.1824
vn 0.2702 0.9591 0.0844
vn -0.0063 0.7586 0.6515
vn 0.0008 0.7064 0.7078
vn 0.1155 0.7485 -0.6530
vn 0.0953 -0.9751 -0.2004
vn 0.1237 -0.9922 0.0167
vn 0.0482 -0.9985 -0.0250
vn 0.5237 0.5129 0.6802
vn 0.0009 0.0812 0.9967
vn 0.0008 0.5146 0.8574
vn -0.0064 0.4614 0.8872
vn 0.0001 -0.0025 -1.0000
vn 0.0002 -0.0066 -1.0000
vn 0.0002 0.0014 -1.0000
vn 0.0003 0.0016 -1.0000
vn -0.4172 0.8358 0.3569
vn 0.7598 -0.0370 0.6491
vn 0.0001 -0.0019 1.0000
vn -0.6865 -0.7180 -0.1147
vn -0.8109 -0.5668 -0.1457
vn -0.0292 -0.9995 0.0105
vn -0.0101 -0.9999 -0.0014
vn -0.0050 0.9974 0.0722
vn 0.0001 1.0000 0.0011
vn -0.1829 0.9785 0.0957
vn -0.0005 0.0018 1.0000
vn -0.0005 0.0521 0.9986
vn -0.9608 0.2599 0.0966
vn -0.9896 0.1111 0.0908
vn -0.9975 0.0693 0.0108
vn -0.9848 -0.1684 -0.0422
vn -0.9468 -0.3133 0.0740
vn -0.9488 -0.3139 -0.0343
vn -0.9910 0.0588 0.1201
vn 0.3704 -0.9274 -0.0524
vn 0.2421 -0.9702 0.0123
vn 0.6628 -0.7416 0.1034
vn 0.8989 -0.4346 0.0551
vn -0.0048 -0.1261 0.9920
vn 0.0008 -0.0488 0.9988
vn -0.3496 -0.9352 0.0560
vn 0.0009 -0.0447 0.9990
vn 0.0001 -0.0028 1.0000
vn -0.9126 -0.3974 0.0958
vn -0.4642 -0.8845 0.0473
vn -0.3259 0.0920 -0.9409
vn -0.3580 0.1250 -0.9253
vn -0.9441 0.3274 -0.0383
vn -0.2800 0.9600 0.0042
vn 0.6440 0.5230 0.5584
vn 0.5473 0.7731 0.3205
vn 0.5787 0.7842 0.2237
vn 0.0002 1.0000 0.0011
vn 0.2285 0.9733 0.0221
vn 0.0073 0.9944 -0.1053
vn 0.2946 0.9550 -0.0354
vn 0.1055 -0.9563 -0.2726
vn -0.0007 -0.7329 -0.6803
vn 0.1233 -0.2682 -0.9554
vn 0.0276 -0.1116 -0.9934
vn -0.2474 0.5603 -0.7905
vn 0.0003 0.7142 -0.7000
vn 0.0067 0.7955 -0.6059
vn 0.0020 0.9794 -0.2017
vn -0.0909 0.9951 -0.0377
vn -0.2724 0.9583 -0.0862
vn -0.2193 0.9750 -0.0368
vn -0.1388 -0.9903 0.0066
vn -0.2588 -0.9543 -0.1496
vn -0.0406 -0.9992 0.0019
vn 0.9321 0.3621 -0.0074
vn 0.3477 0.9337 -0.0857
vn 0.3261 0.9441 -0.0483
vn 0.8329 0.3048 -0.4619
vn 0.9403 0.2879 -0.1818
vn -0.3510 -0.0038 -0.9364
vn -0.1183 -0.3044 -0.9452
vn -0.6145 -0.4931 -0.6158
vn -0.4068 0.0329 -0.9129
vn -0.6654 -0.0108 -0.7464
vn -0.6247 0.5924 0.5087
vn -0.5385 0.7703 0.3415
vn -0.8299 0.4349 0.3495
vn -0.9530 0.2828 0.1087
vn -0.8235 0.5595 0.0943
vn -0.8112 0.5764 0.0982
vn -0.0104 -0.9003 -0.4352
vn -0.0142 -0.8144 -0.5801
vn -0.0126 -0.9077 -0.4194
vn -0.1395 -0.9600 -0.2427
vn -0.0751 -0.9884 -0.1319
vn -0.1609 -0.4946 -0.8541
vn -0.2083 -0.6068 -0.7671
vn 0.6822 -0.7261 -0.0861
vn 0.8157 -0.5768 -0.0453
vn 0.2157 -0.6858 -0.6951
vn 0.2091 -0.4981 -0.8415
vn 0.9987 0.0496 -0.0141
vn 0.9671 -0.2189 0.1296
vn 0.9143 -0.4004 0.0609
vn 0.9819 0.1489 0.1168
vn 0.9375 0.3464 0.0345
vn 0.9409 0.3071 0.1431
vn 0.9268 0.3679 0.0755
vn 0.9924 0.0979 0.0743
vn 0.9934 0.1030 0.0504
vn -0.9803 0.1577 -0.1186
vn -0.9506 0.0925 -0.2964
vn -0.8390 0.2873 -0.4620
vn -0.8733 0.0847 -0.4798
vn -0.9472 0.3069 -0.0925
vn -0.8941 0.3533 -0.2752
vn 0.3200 0.1485 -0.9357
vn 0.3292 0.0066 -0.9442
vn 0.1414 0.0372 -0.9893
vn 0.6825 0.1813 -0.7080
vn 0.6834 0.0818 -0.7254
vn 0.9925 0.0623 -0.1049
vn 0.9752 0.1163 -0.1883
vn 0.6867 -0.1879 -0.7023
vn 0.9338 -0.2513 -0.2547
usemtl Shape.15622
s off
f 17//1 63//1 64//1
f 13//2 7//2 20//2
f 16//3 5//3 31//3
f 28//4 16//4 31//4
f 5//5 30//5 31//5
f 30//6 8//6 31//6
f 6//7 21//7 32//7
f 20//8 7//8 33//8
f 12//9 22//9 33//9
f 22//10 20//10 33//10
f 18//11 8//11 34//11
f 14//12 18//12 34//12
f 8//13 30//13 34//13
f 30//14 14//14 34//14
f 2//15 3//15 35//15
f 26//16 2//16 35//16
f 3//17 27//17 35//17
f 27//18 21//18 35//18
f 30//19 5//19 38//19
f 1//20 18//20 39//20
f 18//21 4//21 39//21
f 11//22 29//22 40//22
f 37//23 11//23 40//23
f 22//24 10//24 42//24
f 20//25 22//25 42//25
f 5//26 16//26 43//26
f 16//27 23//27 43//27
f 38//28 5//28 43//28
f 4//29 18//29 44//29
f 18//30 14//30 44//30
f 25//31 36//31 44//31
f 44//32 36//32 45//32
f 36//33 15//33 45//33
f 15//34 37//34 45//34
f 40//35 4//35 45//35
f 37//36 40//36 45//36
f 4//37 44//37 45//37
f 33//38 7//38 46//38
f 12//39 33//39 46//39
f 39//40 12//40 46//40
f 24//41 39//41 46//41
f 10//42 22//42 47//42
f 22//43 12//43 47//43
f 29//44 10//44 47//44
f 12//45 39//45 47//45
f 39//46 4//46 47//46
f 4//47 40//47 47//47
f 40//48 29//48 47//48
f 27//49 3//49 48//49
f 9//50 27//50 48//50
f 36//51 25//51 49//51
f 38//52 43//52 49//52
f 8//53 18//53 50//53
f 31//54 8//54 50//54
f 28//55 31//55 50//55
f 23//56 16//56 51//56
f 16//57 28//57 51//57
f 32//58 23//58 51//58
f 28//59 32//59 51//59
f 7//60 13//60 52//60
f 13//61 26//61 52//61
f 35//62 17//62 52//62
f 26//63 35//63 52//63
f 27//64 9//64 53//64
f 21//65 27//65 53//65
f 32//66 21//66 53//66
f 23//67 32//67 53//67
f 43//68 23//68 53//68
f 9//69 49//69 53//69
f 49//70 43//70 53//70
f 10//71 29//71 54//71
f 29//72 11//72 54//72
f 42//73 10//73 54//73
f 28//74 19//74 55//74
f 6//75 32//75 55//75
f 32//76 28//76 55//76
f 41//77 6//77 55//77
f 19//78 41//78 55//78
f 3//79 2//79 56//79
f 2//80 26//80 56//80
f 11//81 37//81 56//81
f 48//82 3//82 56//82
f 37//83 48//83 56//83
f 14//84 30//84 57//84
f 30//85 38//85 57//85
f 44//86 14//86 57//86
f 25//87 44//87 57//87
f 49//88 25//88 57//88
f 38//89 49//89 57//89
f 13//90 20//90 58//90
f 26//91 13//91 58//91
f 20//92 42//92 58//92
f 54//93 11//93 58//93
f 42//94 54//94 58//94
f 56//95 26//95 58//95
f 11//96 56//96 58//96
f 46//97 7//97 59//97
f 24//98 46//98 59//98
f 7//99 52//99 59//99
f 52//100 17//100 59//100
f 24//101 19//101 60//101
f 1//102 39//102 60//102
f 39//103 24//103 60//103
f 18//104 1//104 61//104
f 19//105 28//105 61//105
f 50//106 18//106 61//106
f 28//107 50//107 61//107
f 1//108 60//108 61//108
f 60//109 19//109 61//109
f 15//110 36//110 62//110
f 37//111 15//111 62//111
f 9//112 48//112 62//112
f 48//113 37//113 62//113
f 36//114 49//114 62//114
f 49//115 9//115 62//115
f 21//116 6//116 63//116
f 17//117 35//117 63//117
f 35//118 21//118 63//118
f 6//119 41//119 63//119
f 63//120 41//120 64//120
f 19//121 24//121 64//121
f 41//122 19//122 64//122
f 59//123 17//123 64//123
f 24//124 59//124 64//124
