# Blender v2.79 (sub 0) OBJ File: ''
# www.blender.org
mtllib 102622_link_0_42.mtl
o Shape_IndexedFaceSet.042_Shape_IndexedFaceSet.11186
v -0.200921 0.219512 0.772753
v -0.135267 0.268747 0.812137
v -0.138551 0.268747 0.812137
v -0.197631 0.291738 0.743207
v -0.138551 0.219512 0.792441
v -0.135267 0.285163 0.779311
v -0.197631 0.291738 0.769467
v -0.197631 0.222799 0.753058
v -0.135267 0.222799 0.812137
v -0.135267 0.291738 0.802286
v -0.200921 0.268747 0.776032
v -0.177933 0.222799 0.792441
v -0.135267 0.272034 0.779311
v -0.194347 0.275322 0.743207
v -0.164816 0.272034 0.799006
v -0.200921 0.291738 0.743207
vn -0.3713 -0.1487 -0.9165
vn 0.0494 -0.9865 -0.1564
vn 0.0000 0.0000 1.0000
vn -0.0547 -0.9834 0.1732
vn 1.0000 0.0000 0.0000
vn 0.0000 0.3938 0.9192
vn 0.2522 0.9303 -0.2662
vn 0.0000 1.0000 0.0000
vn -0.1553 -0.9288 0.3364
vn -0.4189 -0.0299 0.9075
vn -0.6455 -0.0508 0.7621
vn 0.5297 -0.2367 -0.8144
vn 0.9841 -0.0984 -0.1477
vn 0.5064 0.1013 -0.8563
vn 0.5214 0.0000 -0.8533
vn 0.5043 -0.1895 -0.8425
vn -0.3662 0.4102 0.8352
vn -0.4079 0.4826 0.7750
vn -0.5312 0.3020 0.7916
vn -0.4472 -0.0001 0.8944
vn -0.5386 0.0312 0.8420
vn -0.9818 -0.0720 -0.1760
vn -1.0000 -0.0000 0.0000
vn -0.9770 0.1748 0.1224
vn 0.0000 0.0000 -1.0000
usemtl Shape.11203
s off
f 14//1 8//1 16//1
f 5//2 1//2 8//2
f 2//3 3//3 9//3
f 1//4 5//4 9//4
f 6//5 2//5 9//5
f 3//6 2//6 10//6
f 2//5 6//5 10//5
f 6//7 4//7 10//7
f 4//8 7//8 10//8
f 1//9 9//9 12//9
f 9//10 3//10 12//10
f 11//11 1//11 12//11
f 5//12 8//12 13//12
f 9//13 5//13 13//13
f 6//5 9//5 13//5
f 4//14 6//14 14//14
f 6//15 13//15 14//15
f 13//16 8//16 14//16
f 3//17 10//17 15//17
f 10//18 7//18 15//18
f 7//19 11//19 15//19
f 12//20 3//20 15//20
f 11//21 12//21 15//21
f 7//8 4//8 16//8
f 8//22 1//22 16//22
f 1//23 11//23 16//23
f 11//24 7//24 16//24
f 4//25 14//25 16//25
