# Blender v2.79 (sub 0) OBJ File: ''
# www.blender.org
mtllib 102622_link_0_44.mtl
o Shape_IndexedFaceSet.044_Shape_IndexedFaceSet.11188
v 0.380167 0.291725 -0.028311
v 0.337504 0.219519 -0.120235
v 0.350633 0.219519 -0.120235
v 0.329098 0.297652 -0.123448
v 0.367038 0.222807 -0.028311
v 0.357193 0.299282 -0.026770
v 0.353913 0.295014 -0.116951
v 0.383452 0.222807 -0.034879
v 0.370317 0.235932 -0.080824
v 0.383452 0.272031 -0.038164
v 0.337504 0.229370 -0.110373
v 0.353913 0.222807 -0.120235
v 0.330934 0.272031 -0.116951
v 0.370317 0.219519 -0.028311
v 0.370317 0.295014 -0.070998
v 0.353913 0.285163 -0.120235
vn 0.9359 0.1114 -0.3341
vn 0.0000 -0.0411 -0.9992
vn 0.1188 0.9916 -0.0513
vn 0.9599 -0.0187 -0.2798
vn 0.9592 0.0188 0.2822
vn -0.9045 -0.3017 0.3014
vn -0.9365 -0.1271 0.3269
vn 0.0323 -0.0322 -0.9990
vn 0.6876 -0.6860 -0.2380
vn 0.9268 -0.1953 -0.3207
vn -0.9798 -0.1122 -0.1657
vn -0.9603 0.0019 0.2790
vn -0.9827 -0.1311 0.1310
vn -0.9470 -0.0987 0.3056
vn 0.0000 -1.0000 0.0000
vn -0.6865 -0.6846 0.2450
vn -0.0232 -0.0231 0.9995
vn 0.0641 -0.0087 0.9979
vn 0.4589 -0.0626 0.8863
vn 0.2203 -0.9743 -0.0472
vn 0.3125 0.9499 0.0011
vn 0.1458 0.9879 -0.0521
vn 0.9458 0.2570 -0.1984
vn 0.9421 0.0700 -0.3279
vn 0.2714 0.3044 -0.9131
vn 0.9423 0.0487 -0.3313
vn 0.1284 0.0000 -0.9917
vn 0.9232 0.0000 -0.3843
usemtl Shape.11205
s off
f 7//1 15//1 16//1
f 3//2 2//2 4//2
f 4//3 6//3 7//3
f 8//4 9//4 10//4
f 1//5 8//5 10//5
f 2//6 5//6 11//6
f 5//7 6//7 11//7
f 3//8 4//8 12//8
f 8//9 3//9 12//9
f 9//10 8//10 12//10
f 4//11 2//11 13//11
f 6//12 4//12 13//12
f 2//13 11//13 13//13
f 11//14 6//14 13//14
f 2//15 3//15 14//15
f 5//16 2//16 14//16
f 6//17 5//17 14//17
f 1//18 6//18 14//18
f 8//19 1//19 14//19
f 3//20 8//20 14//20
f 6//21 1//21 15//21
f 7//22 6//22 15//22
f 1//23 10//23 15//23
f 15//24 10//24 16//24
f 4//25 7//25 16//25
f 10//26 9//26 16//26
f 12//27 4//27 16//27
f 9//28 12//28 16//28
