# Blender v2.79 (sub 0) OBJ File: ''
# www.blender.org
mtllib 102622_link_2_26.mtl
o Shape_IndexedFaceSet.026_Shape_IndexedFaceSet.15639
v -0.136936 -0.212660 -0.184451
v -0.145981 0.004414 -0.030713
v -0.209279 0.004414 -0.030713
v -0.109802 0.004414 -0.193502
v -0.109802 -0.212660 -0.112107
v -0.227368 -0.212660 -0.030713
v -0.073623 0.004414 -0.148279
v -0.082667 -0.203587 -0.193502
v -0.173100 -0.212660 -0.030713
v -0.227368 -0.194535 -0.048814
v -0.118846 -0.013689 -0.193502
v -0.109802 -0.004637 -0.075935
v -0.078949 -0.003106 -0.187862
v -0.209279 0.004414 -0.039763
v -0.145981 -0.212660 -0.057849
v -0.091712 -0.212660 -0.148279
vn 0.8917 -0.0775 0.4459
vn -0.0000 1.0000 0.0000
vn 0.0000 0.0000 1.0000
vn 0.0000 -1.0000 0.0000
vn -0.7690 -0.4517 -0.4523
vn -0.9931 0.0828 0.0829
vn -0.1595 -0.0304 -0.9867
vn 0.0000 0.0000 -1.0000
vn -0.8279 0.0499 -0.5586
vn 0.6698 0.6176 0.4122
vn 0.2681 0.9392 -0.2145
vn 0.9913 -0.0147 -0.1306
vn 0.1855 0.0242 -0.9824
vn -0.9959 0.0905 0.0000
vn -0.7742 0.3868 -0.5010
vn -0.8523 0.1008 -0.5132
vn 0.7046 -0.0880 0.7041
vn 0.7706 -0.0790 0.6324
vn 0.8282 -0.0960 0.5522
vn 0.9803 -0.0817 0.1797
vn 0.1351 -0.9763 -0.1689
vn 0.8956 -0.0746 0.4386
usemtl Shape.15647
s off
f 12//1 5//1 16//1
f 3//2 2//2 4//2
f 2//3 3//3 6//3
f 1//4 5//4 6//4
f 4//2 2//2 7//2
f 2//3 6//3 9//3
f 6//4 5//4 9//4
f 1//5 6//5 10//5
f 6//6 3//6 10//6
f 8//7 1//7 11//7
f 4//8 8//8 11//8
f 1//9 10//9 11//9
f 7//10 2//10 12//10
f 4//11 7//11 13//11
f 7//12 8//12 13//12
f 8//13 4//13 13//13
f 3//2 4//2 14//2
f 10//14 3//14 14//14
f 4//15 11//15 14//15
f 11//16 10//16 14//16
f 2//17 9//17 15//17
f 9//4 5//4 15//4
f 12//18 2//18 15//18
f 5//19 12//19 15//19
f 5//4 1//4 16//4
f 8//20 7//20 16//20
f 1//21 8//21 16//21
f 7//22 12//22 16//22
