# Blender v2.79 (sub 0) OBJ File: ''
# www.blender.org
mtllib 102622_link_2_6.mtl
o Shape_IndexedFaceSet.006_Shape_IndexedFaceSet.15619
v 0.170589 -0.601640 0.656785
v 0.170589 -0.556394 0.656785
v -0.038449 -0.550238 0.749407
v 0.161549 -0.556394 0.747211
v -0.028339 -0.673984 0.756254
v 0.179650 -0.683033 0.711062
v -0.028339 -0.556394 0.792456
v 0.188480 -0.658943 0.660851
v 0.125367 -0.655873 0.774342
v -0.022432 -0.670901 0.780048
v 0.034964 -0.556394 0.792456
v 0.179650 -0.592578 0.738167
v -0.028339 -0.655873 0.747211
v 0.062085 -0.683033 0.765298
vn -0.1137 -0.9813 0.1554
vn -0.4051 0.0000 -0.9143
vn 0.0308 0.9995 0.0031
vn -0.9734 -0.0674 0.2190
vn 0.2216 0.0000 -0.9751
vn -0.1358 -0.8837 -0.4479
vn -0.9653 -0.0768 0.2496
vn 0.0316 0.9956 0.0885
vn 0.0000 0.9899 0.1416
vn 0.3336 0.1332 0.9333
vn 0.0000 -0.1077 0.9942
vn 0.0518 -0.1332 0.9897
vn 0.8995 0.4275 0.0899
vn 0.9848 0.1705 -0.0339
vn 0.9874 -0.0455 0.1518
vn 0.5171 0.0450 0.8547
vn 0.6974 -0.2057 0.6865
vn -0.4092 -0.0202 -0.9122
vn -0.9795 -0.0900 -0.1802
vn -0.3662 -0.1791 -0.9131
vn -0.3409 -0.4200 -0.8411
vn -0.0807 -0.9813 -0.1749
vn 0.2581 -0.7876 0.5595
vn 0.0828 -0.4831 0.8716
usemtl Shape.15627
s off
f 10//1 5//1 14//1
f 2//2 1//2 3//2
f 2//3 3//3 4//3
f 3//4 5//4 7//4
f 1//5 2//5 8//5
f 6//6 5//6 8//6
f 7//7 5//7 10//7
f 4//8 3//8 11//8
f 3//9 7//9 11//9
f 9//10 4//10 11//10
f 7//11 10//11 11//11
f 10//12 9//12 11//12
f 2//13 4//13 12//13
f 8//14 2//14 12//14
f 6//15 8//15 12//15
f 4//16 9//16 12//16
f 9//17 6//17 12//17
f 3//18 1//18 13//18
f 5//19 3//19 13//19
f 1//20 8//20 13//20
f 8//21 5//21 13//21
f 5//22 6//22 14//22
f 6//23 9//23 14//23
f 9//24 10//24 14//24
