# Blender v2.79 (sub 0) OBJ File: ''
# www.blender.org
mtllib 102622_link_0_27.mtl
o Shape_IndexedFaceSet.027_Shape_IndexedFaceSet.11171
v 0.324124 0.295948 -0.166557
v 0.376891 0.301587 -0.028311
v 0.370316 0.308152 -0.028311
v 0.268551 0.304868 -0.185888
v 0.353900 0.295022 -0.031602
v 0.317800 0.308152 -0.176046
v 0.337494 0.308152 -0.031602
v 0.288255 0.295022 -0.189179
v 0.376891 0.295022 -0.044734
v 0.268551 0.308152 -0.189179
v 0.360475 0.304868 -0.087424
v 0.317800 0.298306 -0.185888
vn 0.8359 0.3880 -0.3882
vn -0.0993 -0.0994 0.9901
vn -0.5992 -0.7487 0.2837
vn -0.1040 -0.1300 0.9860
vn -0.0000 1.0000 0.0000
vn -0.4168 -0.8922 0.1737
vn 0.2074 -0.9084 0.3631
vn 0.0421 -0.9988 -0.0258
vn 0.0000 -1.0000 0.0000
vn -0.8501 0.3727 0.3719
vn -0.4266 -0.6402 -0.6388
vn 0.6980 0.6991 -0.1550
vn 0.2806 0.9546 -0.0997
vn 0.8358 0.5098 -0.2038
vn 0.9108 -0.1497 -0.3848
vn 0.1267 -0.9788 -0.1608
vn 0.6980 -0.6469 -0.3072
vn 0.1853 0.6947 -0.6950
vn 0.0941 0.1412 -0.9855
usemtl Shape.11188
s off
f 6//1 11//1 12//1
f 2//2 3//2 7//2
f 4//3 5//3 7//3
f 5//4 2//4 7//4
f 3//5 6//5 7//5
f 5//6 4//6 8//6
f 2//7 5//7 9//7
f 8//8 1//8 9//8
f 5//9 8//9 9//9
f 4//10 7//10 10//10
f 7//5 6//5 10//5
f 8//11 4//11 10//11
f 3//12 2//12 11//12
f 6//13 3//13 11//13
f 2//14 9//14 11//14
f 11//15 9//15 12//15
f 1//16 8//16 12//16
f 9//17 1//17 12//17
f 10//18 6//18 12//18
f 8//19 10//19 12//19
