# Blender v2.79 (sub 0) OBJ File: ''
# www.blender.org
mtllib 102621_link_0_54.mtl
o Shape_IndexedFaceSet.054_Shape_IndexedFaceSet.5493
v -0.493984 0.579284 -0.375940
v -0.465629 0.579734 -0.334983
v -0.465629 0.577034 -0.334983
v -0.465629 0.579734 -0.375940
v -0.475083 0.580634 -0.334983
v -0.482729 0.577484 -0.375034
v -0.473284 0.577034 -0.334983
v -0.493984 0.580634 -0.375940
v -0.465629 0.577934 -0.375940
v -0.472832 0.580634 -0.354788
v -0.491730 0.577934 -0.375940
v -0.493082 0.578834 -0.372789
v -0.465629 0.580184 -0.338587
v -0.466532 0.577034 -0.342637
v -0.476434 0.578384 -0.338134
v -0.493532 0.580184 -0.372336
v -0.488580 0.580634 -0.375940
v -0.475982 0.577034 -0.344890
v -0.486782 0.577484 -0.367381
v -0.471483 0.580634 -0.334983
v -0.477783 0.577484 -0.373238
v -0.491281 0.577934 -0.372789
vn -0.1198 -0.9926 0.0171
vn 1.0000 0.0000 0.0000
vn 0.0000 0.0000 1.0000
vn 0.0000 0.0000 -1.0000
vn 0.0000 1.0000 0.0000
vn 0.0000 -0.8956 -0.4449
vn -0.5137 -0.8576 0.0246
vn 0.0892 0.9959 -0.0120
vn 0.0000 -1.0000 0.0000
vn 0.1831 -0.9829 -0.0216
vn -0.7319 -0.3657 0.5750
vn -0.6000 -0.7500 0.2785
vn -0.8256 -0.4065 0.3913
vn -0.9922 0.0000 0.1245
vn -0.3439 0.9255 0.1587
vn -0.9054 -0.3710 0.2062
vn -0.8931 -0.0829 0.4421
vn 0.0392 0.9988 -0.0292
vn 0.0038 -0.9999 -0.0158
vn -0.0474 -0.9986 -0.0251
vn -0.0958 -0.9951 0.0261
vn -0.0198 -0.9997 -0.0105
vn 0.1508 0.9809 0.1225
vn 0.0736 0.9973 -0.0050
vn 0.0229 -0.9977 -0.0631
vn 0.0062 -0.9998 -0.0170
vn 0.0312 -0.9992 -0.0262
vn -0.4390 -0.8786 0.1881
vn -0.4461 -0.8927 0.0635
vn -0.1644 -0.9849 0.0548
usemtl Shape.5499
s off
f 11//1 19//1 22//1
f 2//2 3//2 4//2
f 3//3 2//3 5//3
f 3//3 5//3 7//3
f 4//4 1//4 8//4
f 4//2 3//2 9//2
f 1//4 4//4 9//4
f 8//5 5//5 10//5
f 1//4 9//4 11//4
f 9//6 6//6 11//6
f 1//7 11//7 12//7
f 2//2 4//2 13//2
f 4//8 10//8 13//8
f 3//9 7//9 14//9
f 9//10 3//10 14//10
f 7//11 5//11 15//11
f 12//12 7//12 15//12
f 12//13 15//13 16//13
f 8//14 1//14 16//14
f 5//15 8//15 16//15
f 1//16 12//16 16//16
f 15//17 5//17 16//17
f 4//4 8//4 17//4
f 10//18 4//18 17//18
f 8//5 10//5 17//5
f 14//9 7//9 18//9
f 6//19 14//19 18//19
f 11//20 6//20 19//20
f 18//21 7//21 19//21
f 6//22 18//22 19//22
f 5//3 2//3 20//3
f 10//5 5//5 20//5
f 2//23 13//23 20//23
f 13//24 10//24 20//24
f 6//25 9//25 21//25
f 14//26 6//26 21//26
f 9//27 14//27 21//27
f 7//28 12//28 22//28
f 12//29 11//29 22//29
f 19//30 7//30 22//30
