# Blender v2.79 (sub 0) OBJ File: ''
# www.blender.org
mtllib 102621_link_0_53.mtl
o Shape_IndexedFaceSet.053_Shape_IndexedFaceSet.5492
v -0.410271 0.568034 -0.261172
v -0.420622 0.570733 -0.267021
v -0.420622 0.563982 -0.266570
v -0.410271 0.568034 -0.267021
v -0.412071 0.563982 -0.257570
v -0.420170 0.572532 -0.263421
v -0.410722 0.572082 -0.267021
v -0.410271 0.563982 -0.262072
v -0.420170 0.564433 -0.262520
v -0.420622 0.570733 -0.262520
v -0.420622 0.572983 -0.267021
v -0.416120 0.570733 -0.261622
v -0.410271 0.565333 -0.258022
v -0.417020 0.572983 -0.264770
v -0.416570 0.567584 -0.259822
v -0.410271 0.571181 -0.265221
vn 0.2532 0.8198 0.5136
vn -0.0174 -0.0666 -0.9976
vn -0.0000 0.0000 -1.0000
vn 0.2654 -0.7460 -0.6108
vn 1.0000 -0.0000 0.0000
vn 0.0000 -1.0000 0.0000
vn -0.1306 -0.9836 0.1241
vn -1.0000 0.0000 0.0000
vn -0.9904 -0.0711 0.1184
vn -0.9364 0.3139 0.1569
vn 0.6206 -0.7438 0.2481
vn 0.2875 0.7271 0.6234
vn -0.0839 0.9874 0.1342
vn 0.0897 0.9856 -0.1435
vn 0.1195 0.8236 0.5545
vn -0.5225 -0.1253 0.8434
vn -0.1980 0.4782 0.8556
vn -0.5758 -0.0413 0.8166
vn -0.1518 0.5068 0.8486
vn -0.1008 0.4339 0.8953
vn -0.0668 0.5023 0.8621
vn 0.9757 0.1087 -0.1901
vn 0.3023 0.7526 0.5850
vn 0.2623 0.8876 0.3786
usemtl Shape.5498
s off
f 14//1 12//1 16//1
f 3//2 2//2 4//2
f 4//3 2//3 7//3
f 3//4 4//4 8//4
f 4//5 1//5 8//5
f 5//6 3//6 8//6
f 3//7 5//7 9//7
f 2//8 3//8 10//8
f 3//9 9//9 10//9
f 7//3 2//3 11//3
f 2//8 10//8 11//8
f 10//10 6//10 11//10
f 8//5 1//5 13//5
f 5//11 8//11 13//11
f 1//12 12//12 13//12
f 11//13 6//13 14//13
f 7//14 11//14 14//14
f 6//15 12//15 14//15
f 9//16 5//16 15//16
f 6//17 10//17 15//17
f 10//18 9//18 15//18
f 12//19 6//19 15//19
f 5//20 13//20 15//20
f 13//21 12//21 15//21
f 1//5 4//5 16//5
f 4//22 7//22 16//22
f 12//23 1//23 16//23
f 7//24 14//24 16//24
