# Blender v2.79 (sub 0) OBJ File: ''
# www.blender.org
mtllib 102621_link_4_68.mtl
o Shape_IndexedFaceSet.068_Shape_IndexedFaceSet.18221
v 0.429166 0.110883 -0.518647
v 0.167773 0.103620 -0.616897
v 0.155551 0.103281 -0.587409
v 0.154871 0.111432 -0.587843
v 0.340868 0.103448 -0.365256
v 0.399637 0.103856 -0.602141
v 0.342048 0.111364 -0.361357
v 0.380241 0.110909 -0.611446
vn 0.0031 1.0000 -0.0013
vn -0.9190 -0.0970 -0.3820
vn 0.0023 -1.0000 -0.0012
vn 0.0017 -0.9999 -0.0108
vn 0.1412 -0.9894 0.0333
vn -0.7705 -0.0304 0.6367
vn 0.8201 -0.3465 0.4553
vn -0.7528 -0.1972 0.6281
vn -0.0261 0.9624 -0.2704
vn 0.0427 -0.7514 -0.6585
vn 0.4263 0.8762 -0.2245
vn 0.0022 1.0000 -0.0015
usemtl Shape.18239
s off
f 7//1 1//1 8//1
f 2//2 3//2 4//2
f 5//3 3//3 6//3
f 3//4 2//4 6//4
f 1//5 5//5 6//5
f 4//6 3//6 7//6
f 5//7 1//7 7//7
f 3//8 5//8 7//8
f 2//9 4//9 8//9
f 6//10 2//10 8//10
f 1//11 6//11 8//11
f 4//12 7//12 8//12
