# Blender v2.79 (sub 0) OBJ File: ''
# www.blender.org
mtllib 102621_link_4_39.mtl
o Shape_IndexedFaceSet.039_Shape_IndexedFaceSet.18192
v -0.435325 0.509816 -0.302084
v -0.453480 0.408375 -0.458467
v -0.367637 0.412046 -0.302084
v -0.435325 0.412046 -0.317130
v -0.382686 0.509816 -0.309615
v -0.453068 0.513000 -0.433631
v -0.450374 0.434605 -0.339692
v -0.442849 0.427082 -0.452535
v -0.420284 0.412046 -0.294553
v -0.381137 0.512693 -0.289903
vn -0.2212 0.0410 0.9744
vn -0.8632 -0.0768 0.4990
vn -0.8785 -0.4612 0.1248
vn -0.9996 -0.0024 0.0267
vn -0.9824 0.1287 0.1356
vn 0.8308 -0.3300 -0.4483
vn 0.8937 0.1040 -0.4364
vn 0.1362 0.2283 -0.9640
vn 0.8532 0.2068 -0.4789
vn 0.0031 -0.9998 0.0218
vn -0.8292 -0.0850 0.5524
vn -0.0482 -0.9983 0.0321
vn 0.9847 0.1440 -0.0984
vn -0.0602 0.9977 0.0323
vn 0.3269 0.9312 -0.1616
vn 0.1409 -0.1003 0.9849
usemtl Shape.18210
s off
f 1//1 9//1 10//1
f 4//2 1//2 7//2
f 2//3 4//3 7//3
f 6//4 2//4 7//4
f 1//5 6//5 7//5
f 3//6 2//6 8//6
f 5//7 3//7 8//7
f 2//8 6//8 8//8
f 6//9 5//9 8//9
f 2//10 3//10 9//10
f 1//11 4//11 9//11
f 4//12 2//12 9//12
f 3//13 5//13 10//13
f 6//14 1//14 10//14
f 5//15 6//15 10//15
f 9//16 3//16 10//16
