# Blender v2.79 (sub 0) OBJ File: ''
# www.blender.org
mtllib 102621_link_2_6.mtl
o Shape_IndexedFaceSet.006_Shape_IndexedFaceSet.817
v -0.157043 0.082563 0.066006
v -0.194130 0.026956 0.209009
v -0.342386 0.048142 0.209009
v -0.157043 0.029608 0.066006
v -0.228567 0.079910 0.209009
v -0.331808 0.095805 0.209009
v -0.270916 0.095805 0.066006
v -0.157043 0.048142 0.153381
v -0.292090 0.040198 0.066006
v -0.284143 0.095805 0.209009
v -0.220620 0.026956 0.193107
v -0.157043 0.024303 0.097795
v -0.310634 0.087854 0.103086
v -0.199428 0.064022 0.209009
v -0.321212 0.064015 0.113683
v -0.323861 0.042850 0.142799
v -0.196779 0.090506 0.068665
v -0.157043 0.074612 0.105732
v -0.339755 0.071959 0.193107
v -0.326510 0.042850 0.209009
v -0.186183 0.032254 0.209009
v -0.297388 0.085208 0.066006
v -0.180884 0.024303 0.121620
v -0.255022 0.090506 0.206335
v -0.163176 0.026669 0.142448
v -0.321212 0.045496 0.116328
v -0.157043 0.082563 0.073957
v -0.188832 0.053440 0.209009
v -0.157043 0.061370 0.140153
v -0.302686 0.040198 0.095150
v -0.305317 0.090506 0.092490
v -0.326510 0.082556 0.148090
v -0.178235 0.087854 0.068665
v -0.339755 0.064015 0.185170
v -0.220620 0.026956 0.209009
v -0.329159 0.042850 0.182525
v -0.225918 0.093152 0.066006
v -0.300019 0.042850 0.066006
v -0.191481 0.024303 0.156027
v -0.162359 0.026956 0.076602
v -0.334457 0.093152 0.206335
v -0.315914 0.069314 0.100441
vn -0.9205 -0.0484 -0.3877
vn 0.0000 0.0000 1.0000
vn -0.0000 0.0000 -1.0000
vn 1.0000 0.0000 0.0000
vn 0.0000 1.0000 0.0000
vn 0.4602 0.8440 0.2754
vn -0.0944 -0.9910 -0.0945
vn 0.1860 0.6502 0.7367
vn 0.9292 -0.3395 0.1456
vn 0.1465 -0.9866 0.0724
vn 0.8508 -0.4102 0.3285
vn 0.5366 -0.8050 0.2530
vn -0.7005 -0.6998 -0.1400
vn 0.3891 0.8936 0.2236
vn 0.3466 0.9161 0.2015
vn 0.8675 0.1085 0.4854
vn 0.5401 0.7855 0.3022
vn 0.8047 0.4198 0.4198
vn 0.6543 0.6552 0.3776
vn -0.1200 -0.9918 -0.0436
vn -0.2224 0.9704 -0.0947
vn -0.3563 0.8900 -0.2847
vn -0.8595 0.3863 -0.3346
vn 0.1414 0.9887 0.0507
vn 0.1859 0.9789 0.0848
vn 0.2422 0.9702 0.0000
vn 0.2169 0.9708 0.1023
vn -0.9956 0.0659 -0.0660
vn -0.9673 -0.0358 -0.2509
vn -0.9627 -0.1637 -0.2153
vn -0.9511 0.1860 -0.2467
vn -0.9477 0.2255 -0.2257
vn -0.4781 -0.8760 -0.0638
vn -0.3161 -0.9482 0.0316
vn -0.1436 -0.9895 -0.0135
vn -0.1761 -0.9841 -0.0235
vn -0.1484 -0.9888 0.0148
vn -0.1449 -0.9894 0.0000
vn 0.0589 0.9983 0.0054
vn 0.0888 0.9959 0.0177
vn 0.1212 0.7886 -0.6029
vn 0.1232 0.8614 -0.4928
vn -0.9212 -0.0550 -0.3851
vn -0.4254 -0.8953 -0.1321
vn -0.3811 -0.9169 -0.1183
vn -0.3151 -0.9421 -0.1146
vn 0.0920 -0.9943 0.0544
vn 0.0000 -1.0000 0.0000
vn -0.1263 -0.9916 -0.0283
vn -0.1213 -0.9919 -0.0374
vn 0.0000 -0.9987 0.0500
vn -0.0907 -0.9959 0.0000
vn -0.0751 -0.9578 -0.2774
vn -0.0929 -0.9906 -0.1007
vn 0.1618 -0.9734 -0.1624
vn -0.7802 0.1732 0.6011
vn -0.9782 0.1786 0.1056
vn -0.6044 0.7777 -0.1728
vn -0.7285 0.6547 -0.2017
vn -0.7923 0.5720 -0.2122
vn -0.9186 0.3473 -0.1885
vn -0.8907 0.3021 -0.3397
vn -0.9101 0.3000 -0.2858
vn -0.9301 0.2438 -0.2746
vn -0.8897 0.0553 -0.4532
usemtl Shape.820
s off
f 38//1 15//1 42//1
f 3//2 2//2 5//2
f 3//2 5//2 6//2
f 1//3 4//3 7//3
f 4//4 1//4 8//4
f 7//3 4//3 9//3
f 6//2 5//2 10//2
f 7//5 6//5 10//5
f 4//4 8//4 12//4
f 5//2 2//2 14//2
f 8//4 1//4 18//4
f 5//6 14//6 18//6
f 2//2 3//2 20//2
f 14//2 2//2 21//2
f 7//3 9//3 22//3
f 9//7 12//7 23//7
f 10//8 5//8 24//8
f 12//9 8//9 25//9
f 2//10 12//10 25//10
f 8//11 21//11 25//11
f 21//12 2//12 25//12
f 16//13 3//13 26//13
f 18//4 1//4 27//4
f 5//14 18//14 27//14
f 24//15 5//15 27//15
f 21//16 8//16 28//16
f 14//2 21//2 28//2
f 8//4 18//4 29//4
f 18//17 14//17 29//17
f 28//18 8//18 29//18
f 14//19 28//19 29//19
f 9//20 23//20 30//20
f 6//21 7//21 31//21
f 7//22 22//22 31//22
f 22//23 13//23 31//23
f 17//24 10//24 33//24
f 10//25 24//25 33//25
f 27//26 1//26 33//26
f 24//27 27//27 33//27
f 3//28 19//28 34//28
f 15//29 26//29 34//29
f 26//30 3//30 34//30
f 32//31 15//31 34//31
f 19//32 32//32 34//32
f 2//2 20//2 35//2
f 3//33 16//33 36//33
f 20//34 3//34 36//34
f 30//35 11//35 36//35
f 16//36 30//36 36//36
f 35//37 20//37 36//37
f 11//38 35//38 36//38
f 1//3 7//3 37//3
f 7//39 10//39 37//39
f 10//40 17//40 37//40
f 33//41 1//41 37//41
f 17//42 33//42 37//42
f 22//3 9//3 38//3
f 26//43 15//43 38//43
f 16//44 26//44 38//44
f 30//45 16//45 38//45
f 9//46 30//46 38//46
f 12//47 2//47 39//47
f 23//48 12//48 39//48
f 11//49 30//49 39//49
f 30//50 23//50 39//50
f 2//51 35//51 39//51
f 35//52 11//52 39//52
f 9//53 4//53 40//53
f 12//54 9//54 40//54
f 4//55 12//55 40//55
f 3//56 6//56 41//56
f 19//57 3//57 41//57
f 6//58 31//58 41//58
f 31//59 13//59 41//59
f 13//60 32//60 41//60
f 32//61 19//61 41//61
f 13//62 22//62 42//62
f 32//63 13//63 42//63
f 15//64 32//64 42//64
f 22//65 38//65 42//65
