# Blender v2.79 (sub 0) OBJ File: ''
# www.blender.org
mtllib 102621_link_4_60.mtl
o Shape_IndexedFaceSet.060_Shape_IndexedFaceSet.18213
v 0.422096 0.088430 -0.527639
v -0.087498 0.081150 -0.614680
v -0.107189 0.080868 -0.582621
v -0.120513 0.088878 -0.585476
v 0.356445 0.080978 -0.428994
v 0.361385 0.081297 -0.610998
v 0.361234 0.088674 -0.426599
v 0.363694 0.088301 -0.612029
vn 0.7752 -0.3345 -0.5359
vn -0.4489 -0.8476 -0.2831
vn -0.3093 -0.1817 0.9335
vn 0.0008 -1.0000 -0.0017
vn 0.0004 -1.0000 -0.0086
vn 0.1148 -0.9934 0.0014
vn 0.0010 1.0000 -0.0018
vn 0.7033 -0.5699 0.4250
vn -0.3117 -0.1001 0.9449
vn -0.0137 0.9627 -0.2702
vn 0.0011 1.0000 -0.0023
vn 0.0082 -0.1483 -0.9889
usemtl Shape.18231
s off
f 1//1 6//1 8//1
f 2//2 3//2 4//2
f 4//3 3//3 5//3
f 5//4 3//4 6//4
f 3//5 2//5 6//5
f 1//6 5//6 6//6
f 1//7 4//7 7//7
f 5//8 1//8 7//8
f 4//9 5//9 7//9
f 2//10 4//10 8//10
f 4//11 1//11 8//11
f 6//12 2//12 8//12
