# Blender v2.79 (sub 0) OBJ File: ''
# www.blender.org
mtllib 102621_link_4_94.mtl
o Shape_IndexedFaceSet.094_Shape_IndexedFaceSet.18247
v 0.313169 0.194922 -0.231541
v 0.429804 0.208907 -0.392327
v 0.422274 0.208907 -0.369763
v 0.241184 0.208951 -0.241540
v 0.384645 0.193861 -0.407357
v 0.241118 0.193812 -0.241495
v 0.316971 0.208907 -0.219347
v 0.414726 0.193861 -0.354713
v 0.384645 0.208907 -0.407357
vn -0.7562 0.0000 -0.6544
vn 0.0003 1.0000 0.0001
vn 0.0005 1.0000 0.0003
vn -0.0956 -0.6393 0.7630
vn -0.2810 0.0041 0.9597
vn 0.9368 -0.1572 0.3126
vn 0.3718 -0.9037 -0.2124
vn 0.0128 -0.9997 0.0191
vn 0.0002 -1.0000 -0.0001
vn 0.6096 -0.6086 0.5079
vn 0.8086 0.1606 0.5661
vn 0.0001 1.0000 -0.0002
vn 0.3158 0.0000 -0.9488
vn -0.7562 0.0014 -0.6543
usemtl Shape.18265
s off
f 5//1 6//1 9//1
f 3//2 2//2 4//2
f 3//3 4//3 7//3
f 6//4 1//4 7//4
f 4//5 6//5 7//5
f 2//6 3//6 8//6
f 5//7 2//7 8//7
f 1//8 6//8 8//8
f 6//9 5//9 8//9
f 7//10 1//10 8//10
f 3//11 7//11 8//11
f 4//12 2//12 9//12
f 2//13 5//13 9//13
f 6//14 4//14 9//14
