# Blender v2.79 (sub 0) OBJ File: ''
# www.blender.org
mtllib 102621_link_4_37.mtl
o Shape_IndexedFaceSet.037_Shape_IndexedFaceSet.18190
v 0.226453 0.080677 -0.216211
v -0.340723 0.073541 -0.308969
v -0.331190 0.073646 -0.293170
v 0.333780 0.073557 -0.308768
v -0.344385 0.081009 -0.309492
v -0.229539 0.073870 -0.216697
v 0.337789 0.080997 -0.309340
v -0.263128 0.080822 -0.221470
v 0.252297 0.073761 -0.222269
vn 0.3220 0.8636 0.3880
vn -0.7985 -0.3577 0.4842
vn -0.0051 -0.9999 0.0097
vn 0.0003 -0.0768 -0.9970
vn 0.0002 -0.0698 -0.9976
vn 0.0000 1.0000 0.0021
vn -0.7220 0.1845 0.6669
vn -0.2351 -0.9195 0.3152
vn -0.0089 0.5364 0.8439
vn 0.0003 1.0000 0.0037
vn 0.0000 -1.0000 0.0024
vn -0.0002 -1.0000 0.0038
vn 0.0087 -0.6402 0.7682
vn 0.6889 -0.3213 0.6497
usemtl Shape.18208
s off
f 7//1 1//1 9//1
f 2//2 3//2 5//2
f 3//3 2//3 6//3
f 4//4 2//4 7//4
f 2//5 5//5 7//5
f 7//6 5//6 8//6
f 5//7 3//7 8//7
f 3//8 6//8 8//8
f 6//9 1//9 8//9
f 1//10 7//10 8//10
f 2//11 4//11 9//11
f 6//12 2//12 9//12
f 1//13 6//13 9//13
f 4//14 7//14 9//14
