# Blender v2.79 (sub 0) OBJ File: ''
# www.blender.org
mtllib 102621_link_4_23.mtl
o Shape_IndexedFaceSet.023_Shape_IndexedFaceSet.18176
v -0.405229 0.472201 -0.256935
v -0.319123 0.505958 -0.207839
v -0.314969 0.509816 -0.241904
v -0.314969 0.412046 -0.249415
v -0.375139 0.509816 -0.294553
v -0.352594 0.412046 -0.211806
v -0.412755 0.412046 -0.294553
v -0.375139 0.509816 -0.219335
v -0.420280 0.509816 -0.279495
v -0.367624 0.412046 -0.294553
v -0.314969 0.412046 -0.204277
vn 0.0000 -1.0000 0.0000
vn 0.6574 0.0577 -0.7513
vn -0.7815 -0.2576 0.5682
vn 0.0442 0.9921 0.1177
vn 0.0000 1.0000 0.0000
vn -0.1990 0.0295 0.9796
vn -0.7178 -0.1126 0.6871
vn -0.9113 -0.1303 0.3907
vn -0.3141 0.1209 -0.9417
vn -0.7992 0.0399 0.5997
vn 0.6500 0.0500 -0.7583
vn 0.0000 0.0000 -1.0000
vn 0.9908 0.0486 0.1263
vn 1.0000 -0.0000 0.0000
vn -0.1961 0.0285 0.9802
usemtl Shape.18194
s off
f 6//1 4//1 11//1
f 3//2 4//2 5//2
f 4//1 6//1 7//1
f 6//3 1//3 7//3
f 2//4 3//4 8//4
f 3//5 5//5 8//5
f 6//6 2//6 8//6
f 1//7 6//7 8//7
f 7//8 1//8 9//8
f 5//9 7//9 9//9
f 1//10 8//10 9//10
f 8//5 5//5 9//5
f 5//11 4//11 10//11
f 4//1 7//1 10//1
f 7//12 5//12 10//12
f 3//13 2//13 11//13
f 4//14 3//14 11//14
f 2//15 6//15 11//15
