# Blender v2.79 (sub 0) OBJ File: ''
# www.blender.org
mtllib 102621_link_3_23.mtl
o Shape_IndexedFaceSet.023_Shape_IndexedFaceSet.14699
v 0.489576 0.647411 -0.612062
v 0.512657 0.663248 -0.556089
v 0.501107 0.664273 -0.553322
v 0.481318 0.636396 -0.554269
v 0.445585 0.663907 -0.628541
v 0.445546 0.658415 -0.587305
v 0.445546 0.650159 -0.620319
v 0.508839 0.639152 -0.554269
v 0.505273 0.662223 -0.595039
v 0.500581 0.639152 -0.584555
v 0.473067 0.661168 -0.628583
v 0.508839 0.644657 -0.587305
v 0.475822 0.650159 -0.554269
v 0.445546 0.647411 -0.595547
v 0.445546 0.663922 -0.595547
v 0.495079 0.652910 -0.614819
v 0.473067 0.639152 -0.579048
v 0.514342 0.647411 -0.568033
v 0.475822 0.639152 -0.554269
v 0.462055 0.655664 -0.628583
vn 0.2791 -0.5583 -0.7813
vn 0.2358 0.0360 0.9711
vn 0.0037 -0.0365 0.9993
vn 0.0785 0.9961 -0.0411
vn 0.0527 0.9977 -0.0438
vn -0.0063 -0.9584 -0.2852
vn 0.0996 -0.9947 -0.0272
vn 0.0982 0.9872 -0.1253
vn 0.5163 -0.8448 -0.1408
vn 0.4082 -0.8164 -0.4084
vn -0.4190 0.7130 0.5622
vn -1.0000 0.0000 0.0000
vn -0.0060 1.0000 -0.0005
vn -0.3931 0.7646 0.5108
vn -1.0000 0.0021 -0.0012
vn 0.5765 0.5836 -0.5719
vn 0.8921 -0.0177 -0.4515
vn 0.4965 -0.7313 -0.4677
vn -0.0208 -0.9944 -0.1037
vn -0.0458 -0.9724 -0.2288
vn -0.2799 -0.9599 -0.0135
vn -0.2262 -0.9682 -0.1074
vn 0.9449 -0.1269 0.3016
vn 0.9521 0.2422 -0.1869
vn 0.7304 -0.6738 -0.1123
vn 0.9566 0.0696 -0.2831
vn -0.0126 -0.0250 0.9996
vn -0.0374 0.0000 0.9993
vn -0.7372 0.0000 0.6756
vn -0.4433 -0.8840 0.1482
vn -0.7820 -0.3736 0.4988
vn 0.0394 -0.8661 -0.4983
vn -0.2505 -0.4964 -0.8312
vn -0.0013 0.0026 -1.0000
vn 0.2553 -0.6252 -0.7375
usemtl Shape.14710
s off
f 11//1 16//1 20//1
f 2//2 3//2 8//2
f 3//3 4//3 8//3
f 3//4 2//4 9//4
f 5//5 3//5 9//5
f 7//6 1//6 10//6
f 8//7 4//7 10//7
f 5//8 9//8 11//8
f 8//9 10//9 12//9
f 10//10 1//10 12//10
f 3//11 6//11 13//11
f 6//12 7//12 14//12
f 3//13 5//13 15//13
f 6//14 3//14 15//14
f 7//12 6//12 15//12
f 5//15 7//15 15//15
f 11//16 9//16 16//16
f 9//17 12//17 16//17
f 12//18 1//18 16//18
f 10//19 4//19 17//19
f 7//20 10//20 17//20
f 4//21 14//21 17//21
f 14//22 7//22 17//22
f 2//23 8//23 18//23
f 9//24 2//24 18//24
f 8//25 12//25 18//25
f 12//26 9//26 18//26
f 4//27 3//27 19//27
f 3//28 13//28 19//28
f 13//29 6//29 19//29
f 14//30 4//30 19//30
f 6//31 14//31 19//31
f 1//32 7//32 20//32
f 7//33 5//33 20//33
f 5//34 11//34 20//34
f 16//35 1//35 20//35
