# Blender v2.79 (sub 0) OBJ File: ''
# www.blender.org
mtllib 102621_link_4_52.mtl
o Shape_IndexedFaceSet.052_Shape_IndexedFaceSet.18205
v 0.505033 0.660275 -0.550345
v 0.436583 0.584154 -0.626617
v 0.437327 0.667799 -0.625543
v 0.467422 0.585063 -0.527764
v 0.489976 0.585063 -0.610506
v 0.474938 0.667799 -0.527764
v 0.505033 0.585063 -0.527764
v 0.497505 0.660275 -0.595458
v 0.437327 0.645228 -0.587935
vn -0.8583 0.0780 0.5072
vn 0.2887 0.0097 -0.9574
vn 0.0000 0.0000 1.0000
vn 0.0000 -1.0000 0.0092
vn 0.0180 -0.9998 -0.0033
vn 0.6202 0.2256 0.7513
vn 0.9819 -0.0625 -0.1787
vn 0.4563 0.1304 -0.8802
vn 0.2168 0.9756 -0.0362
vn 0.1527 0.9865 -0.0587
vn 0.9852 -0.0494 -0.1644
vn -0.9999 0.0088 0.0053
vn -0.9394 -0.1752 0.2947
vn -0.8010 0.5134 0.3081
usemtl Shape.18223
s off
f 4//1 6//1 9//1
f 2//2 3//2 5//2
f 6//3 4//3 7//3
f 4//4 2//4 7//4
f 2//5 5//5 7//5
f 1//6 6//6 7//6
f 7//7 5//7 8//7
f 5//8 3//8 8//8
f 6//9 1//9 8//9
f 3//10 6//10 8//10
f 1//11 7//11 8//11
f 3//12 2//12 9//12
f 2//13 4//13 9//13
f 6//14 3//14 9//14
