# Blender v2.79 (sub 0) OBJ File: ''
# www.blender.org
mtllib 102621_link_4_71.mtl
o Shape_IndexedFaceSet.071_Shape_IndexedFaceSet.18224
v 0.368431 0.111194 -0.342867
v -0.389651 0.111254 -0.612660
v -0.414876 0.111223 -0.599178
v 0.408379 0.111231 -0.598896
v -0.378522 0.111221 -0.351182
vn 0.0000 1.0000 0.0001
vn 0.0000 -1.0000 -0.0023
vn 0.0000 -1.0000 -0.0001
vn -0.0000 -1.0000 -0.0000
vn -0.0011 1.0000 0.0002
usemtl Shape.18242
s off
f 4//1 2//1 5//1
f 3//2 2//2 4//2
f 1//3 3//3 4//3
f 1//1 4//1 5//1
f 3//4 1//4 5//4
f 2//5 3//5 5//5
