# Blender v2.79 (sub 0) OBJ File: ''
# www.blender.org
mtllib 102621_link_3_25.mtl
o Shape_IndexedFaceSet.025_Shape_IndexedFaceSet.14701
v 0.486831 0.699713 -0.424877
v 0.500584 0.655666 -0.554262
v 0.497834 0.661176 -0.548752
v 0.473064 0.655666 -0.422122
v 0.511600 0.655666 -0.510206
v 0.495079 0.699713 -0.554262
v 0.511600 0.696953 -0.554262
v 0.470309 0.699713 -0.430387
v 0.492332 0.655666 -0.427632
v 0.497834 0.699713 -0.463422
v 0.514355 0.655666 -0.554262
v 0.508845 0.699713 -0.518472
v 0.470309 0.680436 -0.424877
v 0.503344 0.661176 -0.468932
v 0.486831 0.696953 -0.422122
v 0.495079 0.691452 -0.554262
v 0.514355 0.663927 -0.537744
v 0.470309 0.699713 -0.422122
vn -0.0000 0.0000 1.0000
vn -0.9416 -0.2738 -0.1961
vn 0.0000 -1.0000 0.0000
vn -0.0000 0.0000 -1.0000
vn 0.0000 1.0000 0.0000
vn 0.1644 0.9844 -0.0632
vn -0.9720 -0.1299 -0.1958
vn 0.9463 -0.2361 0.2208
vn 0.9785 0.0955 0.1830
vn 0.9745 0.1115 0.1949
vn 0.2738 -0.0913 0.9574
vn 0.9274 0.2643 0.2647
vn 0.9590 0.0920 0.2680
vn 0.9598 0.0997 0.2624
vn -0.9354 -0.1439 -0.3230
vn -0.9806 0.0000 -0.1961
vn -0.9725 -0.1243 -0.1968
vn -0.9798 -0.0550 -0.1923
vn 0.9904 -0.1238 0.0619
vn 0.9972 0.0665 -0.0333
vn 0.9909 0.1163 0.0673
vn 0.9886 0.0852 0.1245
vn -0.9146 -0.0572 0.4003
vn -1.0000 0.0000 0.0000
vn 0.1172 0.7016 0.7029
usemtl Shape.14712
s off
f 4//1 15//1 18//1
f 3//2 2//2 4//2
f 4//3 2//3 5//3
f 2//4 6//4 7//4
f 1//5 6//5 8//5
f 4//3 5//3 9//3
f 6//5 1//5 10//5
f 5//3 2//3 11//3
f 2//4 7//4 11//4
f 7//6 6//6 12//6
f 6//5 10//5 12//5
f 3//7 4//7 13//7
f 9//8 5//8 14//8
f 5//9 12//9 14//9
f 12//10 10//10 14//10
f 4//11 9//11 15//11
f 10//12 1//12 15//12
f 9//13 14//13 15//13
f 14//14 10//14 15//14
f 2//15 3//15 16//15
f 6//4 2//4 16//4
f 8//16 6//16 16//16
f 3//17 13//17 16//17
f 13//18 8//18 16//18
f 5//19 11//19 17//19
f 11//20 7//20 17//20
f 7//21 12//21 17//21
f 12//22 5//22 17//22
f 1//5 8//5 18//5
f 13//23 4//23 18//23
f 8//24 13//24 18//24
f 15//25 1//25 18//25
