# Blender v2.79 (sub 0) OBJ File: ''
# www.blender.org
mtllib 102621_link_0_37.mtl
o Shape_IndexedFaceSet.037_Shape_IndexedFaceSet.5476
v -0.451226 0.564882 -0.289527
v -0.448527 0.556331 -0.298977
v -0.445826 0.556331 -0.298977
v -0.451676 0.564882 -0.298977
v -0.449426 0.556331 -0.289527
v -0.447627 0.564431 -0.289527
v -0.448077 0.564882 -0.298977
v -0.446277 0.557232 -0.289527
v -0.445826 0.559932 -0.298977
v -0.451676 0.563980 -0.290877
v -0.445826 0.556331 -0.291777
v -0.448976 0.556331 -0.298076
vn 0.0000 -1.0000 0.0000
vn 0.0000 0.0000 -1.0000
vn 0.0000 0.0000 1.0000
vn 0.0000 1.0000 0.0000
vn 0.1242 0.9914 0.0414
vn 0.9100 0.4138 -0.0236
vn -0.9186 0.3928 0.0437
vn -0.8877 -0.1869 0.4207
vn -0.9573 -0.2872 -0.0320
vn 0.2518 -0.8799 0.4029
vn 0.9755 0.1829 0.1223
vn 0.9770 0.1907 0.0954
vn 1.0000 0.0000 0.0000
vn -0.8500 -0.3130 -0.4236
vn -0.9509 -0.3055 -0.0500
usemtl Shape.5482
s off
f 2//1 5//1 12//1
f 3//2 2//2 4//2
f 2//1 3//1 5//1
f 1//3 5//3 6//3
f 3//2 4//2 7//2
f 4//4 1//4 7//4
f 1//5 6//5 7//5
f 6//3 5//3 8//3
f 3//2 7//2 9//2
f 7//6 6//6 9//6
f 1//7 4//7 10//7
f 5//8 1//8 10//8
f 4//9 5//9 10//9
f 5//1 3//1 11//1
f 8//10 5//10 11//10
f 6//11 8//11 11//11
f 9//12 6//12 11//12
f 3//13 9//13 11//13
f 4//14 2//14 12//14
f 5//15 4//15 12//15
