# Blender v2.79 (sub 0) OBJ File: ''
# www.blender.org
mtllib 102621_link_0_34.mtl
o Shape_IndexedFaceSet.034_Shape_IndexedFaceSet.5473
v -0.449425 0.566232 -0.340834
v -0.444027 0.560832 -0.330030
v -0.444477 0.560832 -0.321024
v -0.449425 0.560382 -0.308884
v -0.448976 0.566232 -0.298977
v -0.445377 0.565781 -0.337679
v -0.447177 0.560382 -0.340834
v -0.452126 0.565781 -0.311584
v -0.446277 0.560382 -0.298977
v -0.452126 0.566232 -0.298977
v -0.444027 0.560382 -0.340834
v -0.449876 0.560832 -0.298977
v -0.446727 0.562632 -0.298977
v -0.446277 0.566232 -0.340834
v -0.448077 0.561732 -0.340834
v -0.444477 0.563082 -0.331382
v -0.446277 0.566232 -0.327777
v -0.449425 0.565331 -0.340834
v -0.448077 0.565331 -0.298977
v -0.452126 0.565331 -0.298977
vn -0.0000 0.0000 1.0000
vn 0.0000 -1.0000 0.0000
vn 0.0000 1.0000 0.0000
vn -0.4846 0.8742 -0.0313
vn 0.6399 -0.7678 0.0320
vn 0.0000 0.0000 -1.0000
vn 0.5903 -0.8066 0.0317
vn -0.8901 -0.4553 -0.0198
vn -0.1240 -0.9915 0.0394
vn 0.9771 0.1954 0.0838
vn -0.0001 0.0000 1.0000
vn 0.9125 0.3510 -0.2101
vn 0.0001 0.0000 -1.0000
vn -0.8306 -0.5538 -0.0584
vn -0.8812 -0.4693 -0.0570
vn 0.9734 0.2239 0.0486
vn 0.9815 0.1915 -0.0080
vn 0.9658 0.2577 -0.0276
vn 0.9440 0.3224 0.0700
vn 0.8979 0.4348 0.0684
vn 0.4480 0.8940 0.0000
vn 0.8952 0.4414 0.0613
vn -0.9958 0.0000 -0.0920
vn -0.0002 0.0000 -1.0000
vn -0.9334 -0.3496 -0.0808
vn 0.8922 0.4463 0.0697
vn 0.7063 0.7048 0.0662
vn -1.0000 0.0000 0.0000
vn -0.8943 -0.4472 -0.0160
usemtl Shape.5479
s off
f 12//1 10//1 20//1
f 4//2 7//2 9//2
f 5//3 1//3 10//3
f 1//4 8//4 10//4
f 9//1 5//1 10//1
f 2//5 3//5 11//5
f 7//6 1//6 11//6
f 3//7 9//7 11//7
f 9//2 7//2 11//2
f 8//8 4//8 12//8
f 4//9 9//9 12//9
f 9//1 10//1 12//1
f 9//10 3//10 13//10
f 5//11 9//11 13//11
f 1//3 5//3 14//3
f 6//12 11//12 14//12
f 11//6 1//6 14//6
f 1//13 7//13 15//13
f 7//14 4//14 15//14
f 4//15 8//15 15//15
f 3//16 2//16 16//16
f 2//17 11//17 16//17
f 11//18 6//18 16//18
f 13//19 3//19 16//19
f 13//20 16//20 17//20
f 14//3 5//3 17//3
f 6//21 14//21 17//21
f 16//22 6//22 17//22
f 8//23 1//23 18//23
f 1//24 15//24 18//24
f 15//25 8//25 18//25
f 5//1 13//1 19//1
f 13//26 17//26 19//26
f 17//27 5//27 19//27
f 10//28 8//28 20//28
f 8//29 12//29 20//29
