# Blender v2.79 (sub 0) OBJ File: ''
# www.blender.org
mtllib 102621_link_0_39.mtl
o Shape_IndexedFaceSet.039_Shape_IndexedFaceSet.5478
v -0.428273 0.541028 -0.270171
v -0.418373 0.547778 -0.262523
v -0.418823 0.547778 -0.262523
v -0.427372 0.547778 -0.273321
v -0.418373 0.541028 -0.270171
v -0.418373 0.541028 -0.264773
v -0.428273 0.547778 -0.270171
v -0.428273 0.541028 -0.273773
v -0.418373 0.547778 -0.266123
v -0.420622 0.541929 -0.264323
v -0.419272 0.541479 -0.271072
v -0.425571 0.543279 -0.267474
vn -0.5516 -0.0857 0.8297
vn 0.0000 1.0000 0.0000
vn 1.0000 -0.0000 0.0000
vn 0.0000 -1.0000 0.0000
vn -0.9513 0.1452 -0.2721
vn -1.0000 0.0000 0.0000
vn 0.0000 -0.2941 0.9558
vn 0.0630 -0.3156 0.9468
vn -0.2499 -0.8529 0.4584
vn 0.2861 0.0260 -0.9578
vn 0.2193 -0.7672 -0.6028
vn 0.5532 0.4644 -0.6916
vn 0.7452 0.3430 -0.5719
vn -0.7064 0.0000 0.7078
vn -0.6267 0.0878 0.7743
vn -0.5679 -0.2557 0.7824
usemtl Shape.5484
s off
f 10//1 3//1 12//1
f 3//2 2//2 4//2
f 5//3 2//3 6//3
f 1//4 5//4 6//4
f 3//2 4//2 7//2
f 7//5 4//5 8//5
f 5//4 1//4 8//4
f 1//6 7//6 8//6
f 4//2 2//2 9//2
f 2//3 5//3 9//3
f 2//7 3//7 10//7
f 6//8 2//8 10//8
f 1//9 6//9 10//9
f 8//10 4//10 11//10
f 5//11 8//11 11//11
f 4//12 9//12 11//12
f 9//13 5//13 11//13
f 7//14 1//14 12//14
f 3//15 7//15 12//15
f 1//16 10//16 12//16
