# Blender v2.79 (sub 0) OBJ File: ''
# www.blender.org
mtllib 102621_link_0_26.mtl
o Shape_IndexedFaceSet.026_Shape_IndexedFaceSet.5465
v -0.438625 0.573433 -0.276922
v -0.424672 0.575233 -0.266573
v -0.424672 0.572984 -0.266573
v -0.424672 0.575684 -0.274672
v -0.438625 0.575684 -0.277371
v -0.438173 0.572984 -0.281424
v -0.438625 0.575684 -0.281424
v -0.424672 0.572984 -0.269725
v -0.428275 0.575684 -0.268374
v -0.430075 0.572984 -0.269274
v -0.424672 0.575233 -0.274672
vn 0.3376 -0.8569 -0.3896
vn 1.0000 0.0000 0.0000
vn -1.0000 0.0000 0.0000
vn 0.0000 1.0000 0.0000
vn -0.9829 -0.1646 -0.0823
vn 0.4344 0.0727 -0.8978
vn 0.0000 -1.0000 0.0000
vn 0.0967 0.9938 0.0553
vn -0.6450 0.1827 0.7420
vn -0.4471 0.0000 0.8945
vn -0.6550 0.1478 0.7410
vn -0.1285 -0.9880 0.0856
vn -0.4471 -0.0001 0.8945
vn 0.4472 0.0000 -0.8944
usemtl Shape.5471
s off
f 8//1 6//1 11//1
f 2//2 3//2 4//2
f 1//3 5//3 7//3
f 5//4 4//4 7//4
f 6//5 1//5 7//5
f 4//6 6//6 7//6
f 4//2 3//2 8//2
f 3//7 6//7 8//7
f 2//8 4//8 9//8
f 4//4 5//4 9//4
f 9//9 5//9 10//9
f 3//10 2//10 10//10
f 5//11 1//11 10//11
f 1//12 6//12 10//12
f 6//7 3//7 10//7
f 2//13 9//13 10//13
f 6//14 4//14 11//14
f 4//2 8//2 11//2
