# Blender v2.79 (sub 0) OBJ File: ''
# www.blender.org
mtllib 102621_link_0_3.mtl
o Shape_IndexedFaceSet.003_Shape_IndexedFaceSet.5442
v -0.416124 0.579735 -0.299419
v -0.403973 0.580185 -0.291781
v -0.404421 0.580185 -0.290881
v -0.438625 0.582434 -0.307078
v -0.438170 0.580185 -0.277831
v -0.435921 0.582434 -0.281883
v -0.412070 0.582434 -0.309326
v -0.418824 0.581984 -0.317880
v -0.438625 0.579735 -0.286378
v -0.412070 0.582434 -0.294928
v -0.431423 0.580185 -0.275123
v -0.405323 0.579735 -0.297176
v -0.438625 0.581984 -0.280079
v -0.406222 0.581534 -0.297628
v -0.409821 0.579735 -0.302127
v -0.420174 0.581984 -0.317880
v -0.410273 0.580185 -0.286378
v -0.430968 0.581984 -0.281883
v -0.427820 0.582434 -0.313829
v -0.438625 0.582434 -0.282326
v -0.417026 0.581984 -0.316524
vn 0.3400 -0.8882 -0.3089
vn 0.0000 1.0000 0.0000
vn -0.0216 -0.9983 0.0537
vn 0.1107 -0.9923 0.0551
vn 0.0000 -1.0000 0.0000
vn 0.0107 -0.9994 0.0331
vn -1.0000 0.0000 0.0000
vn -0.9832 -0.1720 0.0614
vn -0.2549 0.7291 0.6351
vn 0.0367 0.9553 0.2934
vn 0.2510 0.9599 0.1249
vn 0.2121 0.9676 0.1369
vn 0.1521 0.9884 0.0000
vn 0.8892 0.3805 -0.2542
vn 0.8553 0.3263 -0.4025
vn -0.0622 -0.9923 -0.1072
vn -0.0994 -0.9867 -0.1287
vn -0.0475 -0.9927 -0.1105
vn 0.0000 -0.9900 -0.1414
vn 0.1675 0.9615 0.2177
vn 0.0494 -0.9967 0.0642
vn 0.0293 -0.9981 0.0550
vn 0.0893 0.9825 0.1632
vn 0.0873 0.9612 0.2617
vn 0.1330 0.9650 0.2259
vn 0.1402 0.9544 0.2634
vn 0.0194 0.9975 -0.0678
vn -0.3126 -0.8074 -0.5003
vn 0.0000 0.9939 -0.1103
vn -1.0000 0.0001 0.0000
vn -0.0322 0.9800 0.1963
vn 0.0968 0.9870 -0.1283
vn 0.7776 -0.3639 -0.5127
vn 0.1805 -0.9540 -0.2394
usemtl Shape.5448
s off
f 12//1 15//1 21//1
f 4//2 6//2 7//2
f 7//2 6//2 10//2
f 5//3 9//3 11//3
f 2//4 3//4 12//4
f 9//5 1//5 12//5
f 11//6 9//6 12//6
f 4//7 9//7 13//7
f 9//8 5//8 13//8
f 5//9 11//9 13//9
f 11//10 6//10 13//10
f 3//11 2//11 14//11
f 10//12 3//12 14//12
f 7//13 10//13 14//13
f 2//14 12//14 14//14
f 12//15 7//15 14//15
f 12//5 1//5 15//5
f 1//16 9//16 16//16
f 9//17 4//17 16//17
f 15//18 1//18 16//18
f 8//19 15//19 16//19
f 3//20 10//20 17//20
f 12//21 3//21 17//21
f 11//22 12//22 17//22
f 10//23 6//23 18//23
f 6//24 11//24 18//24
f 17//25 10//25 18//25
f 11//26 17//26 18//26
f 4//2 7//2 19//2
f 7//27 8//27 19//27
f 16//28 4//28 19//28
f 8//29 16//29 19//29
f 6//2 4//2 20//2
f 4//30 13//30 20//30
f 13//31 6//31 20//31
f 8//32 7//32 21//32
f 7//33 12//33 21//33
f 15//34 8//34 21//34
