# Blender v2.79 (sub 0) OBJ File: ''
# www.blender.org
mtllib 102621_link_4_9.mtl
o Shape_IndexedFaceSet.009_Shape_IndexedFaceSet.18162
v 0.064097 -0.323265 -0.192864
v -0.104073 -0.336262 -0.094659
v -0.096584 -0.321530 -0.157408
v 0.072551 -0.015562 -0.073134
v -0.066704 -0.024305 -0.196731
v -0.102520 -0.014454 -0.072722
v 0.098946 -0.336862 -0.080453
v 0.061172 -0.024305 -0.196731
v -0.104196 -0.252502 -0.192509
v 0.098100 -0.217348 -0.192198
v -0.105086 -0.337764 -0.080117
v -0.048210 -0.336414 -0.192498
v 0.036135 -0.338234 -0.193175
v 0.092228 -0.288037 -0.192849
v -0.103211 -0.203309 -0.191966
vn -0.9994 0.0203 -0.0264
vn 0.0022 -0.0226 0.9997
vn 0.0061 0.9974 -0.0711
vn -0.0000 0.9969 -0.0792
vn -0.9691 -0.1881 -0.1598
vn 0.9938 0.0799 0.0779
vn 0.9774 0.1846 -0.1030
vn 0.0017 -0.0229 0.9997
vn -0.9925 -0.0935 -0.0788
vn -1.0000 0.0080 -0.0019
vn -0.4484 -0.8568 -0.2547
vn -0.6148 -0.4103 -0.6735
vn -0.0221 -0.0149 -0.9996
vn -0.2034 -0.9724 -0.1146
vn -0.0218 -0.9995 -0.0230
vn 0.4596 -0.8534 -0.2457
vn -0.0000 -0.0113 -0.9999
vn 0.0044 -0.9999 0.0097
vn -0.0083 -0.0141 -0.9999
vn 0.7448 -0.5946 -0.3028
vn 0.9922 -0.0815 -0.0947
vn 0.1183 -0.0007 -0.9930
vn 0.0190 -0.0148 -0.9997
vn 0.0172 -0.0127 -0.9998
vn -0.9403 0.1842 -0.2862
vn -0.2006 0.0148 -0.9796
usemtl Shape.18180
s off
f 9//1 6//1 15//1
f 4//2 6//2 7//2
f 6//3 4//3 8//3
f 5//4 6//4 8//4
f 3//5 2//5 9//5
f 4//6 7//6 10//6
f 8//7 4//7 10//7
f 7//8 6//8 11//8
f 9//9 2//9 11//9
f 6//10 9//10 11//10
f 2//11 3//11 12//11
f 3//12 9//12 12//12
f 9//13 5//13 12//13
f 11//14 2//14 12//14
f 11//15 12//15 13//15
f 1//16 7//16 13//16
f 5//17 8//17 13//17
f 7//18 11//18 13//18
f 12//19 5//19 13//19
f 7//20 1//20 14//20
f 10//21 7//21 14//21
f 8//22 10//22 14//22
f 1//23 13//23 14//23
f 13//24 8//24 14//24
f 6//25 5//25 15//25
f 5//26 9//26 15//26
