# Blender v2.79 (sub 0) OBJ File: ''
# www.blender.org
mtllib 102621_link_4_15.mtl
o Shape_IndexedFaceSet.015_Shape_IndexedFaceSet.18168
v -0.450382 0.615128 -0.633085
v 0.427627 0.649998 -0.625707
v 0.444850 0.652747 -0.633085
v 0.444850 0.509839 -0.633085
v -0.441087 0.510125 -0.625578
v -0.411612 0.650030 -0.625706
v 0.437651 0.510988 -0.625623
v -0.450382 0.562498 -0.633085
v -0.427773 0.652747 -0.633085
vn 0.0000 0.9384 0.3455
vn 0.0000 0.0000 -1.0000
vn 0.0000 0.0009 1.0000
vn 0.0000 0.9370 0.3492
vn -0.2293 0.0492 0.9721
vn 0.3897 0.0287 0.9205
vn 0.7197 0.0000 0.6943
vn 0.0010 -0.9882 0.1531
vn 0.0001 0.0006 1.0000
vn -0.6283 0.0000 0.7780
vn -0.0084 -0.1433 -0.9896
vn -0.3733 0.2243 0.9002
usemtl Shape.18186
s off
f 6//1 3//1 9//1
f 1//2 3//2 4//2
f 5//3 2//3 6//3
f 2//4 3//4 6//4
f 1//5 5//5 6//5
f 3//6 2//6 7//6
f 4//7 3//7 7//7
f 5//8 4//8 7//8
f 2//9 5//9 7//9
f 1//2 4//2 8//2
f 5//10 1//10 8//10
f 4//11 5//11 8//11
f 3//2 1//2 9//2
f 1//12 6//12 9//12
