# Blender v2.79 (sub 0) OBJ File: ''
# www.blender.org
mtllib 102621_link_0_27.mtl
o Shape_IndexedFaceSet.027_Shape_IndexedFaceSet.5466
v -0.438625 0.578384 -0.282324
v -0.424672 0.576134 -0.267473
v -0.425124 0.576134 -0.267473
v -0.430075 0.579734 -0.274224
v -0.424672 0.577484 -0.282324
v -0.438625 0.575684 -0.277372
v -0.424672 0.579734 -0.282324
v -0.438625 0.579734 -0.278271
v -0.424672 0.575684 -0.276021
v -0.438625 0.575684 -0.281422
v -0.430526 0.575684 -0.270174
v -0.424672 0.579284 -0.275121
v -0.438625 0.579734 -0.282324
v -0.434123 0.579734 -0.274675
v -0.433672 0.577484 -0.272874
vn -0.5581 0.4474 0.6988
vn 0.0000 0.8824 0.4705
vn 0.0000 0.0000 -1.0000
vn 1.0000 0.0000 0.0000
vn -1.0000 0.0000 0.0000
vn 0.0000 1.0000 0.0000
vn 0.0000 -1.0000 0.0000
vn -0.0204 -0.3168 -0.9483
vn 0.1057 -0.9562 -0.2730
vn 0.0000 -0.9864 0.1644
vn 0.0524 -0.9972 0.0525
vn 0.1389 0.9157 0.3771
vn 0.0931 0.9937 0.0621
vn -0.0559 0.8634 0.5014
vn -0.6945 0.1559 0.7024
vn -0.4318 0.4326 0.7915
vn -0.6638 -0.0399 0.7469
vn -0.3938 0.5250 0.7545
usemtl Shape.5472
s off
f 14//1 8//1 15//1
f 3//2 2//2 4//2
f 5//3 1//3 7//3
f 2//4 5//4 7//4
f 1//5 6//5 8//5
f 4//6 7//6 8//6
f 5//4 2//4 9//4
f 9//7 6//7 10//7
f 1//8 5//8 10//8
f 6//5 1//5 10//5
f 5//9 9//9 10//9
f 2//10 3//10 11//10
f 9//11 2//11 11//11
f 6//7 9//7 11//7
f 4//12 2//12 12//12
f 2//4 7//4 12//4
f 7//13 4//13 12//13
f 7//3 1//3 13//3
f 1//5 8//5 13//5
f 8//6 7//6 13//6
f 3//14 4//14 14//14
f 4//6 8//6 14//6
f 8//15 6//15 15//15
f 11//16 3//16 15//16
f 6//17 11//17 15//17
f 3//18 14//18 15//18
