# Blender v2.79 (sub 0) OBJ File: ''
# www.blender.org
mtllib 102621_link_0_13.mtl
o Shape_IndexedFaceSet.013_Shape_IndexedFaceSet.5452
v -0.454377 0.532476 -0.325083
v -0.432778 0.535176 -0.339483
v -0.434129 0.535176 -0.339032
v -0.451676 0.535626 -0.325083
v -0.428273 0.530676 -0.325083
v -0.430976 0.531127 -0.336782
v -0.429627 0.535626 -0.337681
v -0.428273 0.532476 -0.325083
v -0.449875 0.530676 -0.326434
v -0.453924 0.535626 -0.329584
v -0.442675 0.532027 -0.333631
v -0.428273 0.530676 -0.334532
v -0.451676 0.531577 -0.327784
v -0.456628 0.535626 -0.325083
v -0.430074 0.532476 -0.338582
v -0.442225 0.535626 -0.335881
v -0.450771 0.530676 -0.325083
v -0.428273 0.533376 -0.336782
v -0.431875 0.535626 -0.335881
v -0.453924 0.535176 -0.329584
v -0.430074 0.535626 -0.339483
v -0.439528 0.531127 -0.333631
vn -0.2462 -0.8609 -0.4453
vn -0.0000 0.0000 1.0000
vn 0.0000 1.0000 0.0000
vn 1.0000 0.0000 0.0000
vn 0.0000 -1.0000 0.0000
vn -0.2675 -0.5353 -0.8012
vn -0.2859 -0.5590 -0.7783
vn -0.2318 -0.7191 -0.6551
vn 0.2679 -0.8306 -0.4883
vn -0.2301 0.6868 -0.6895
vn -0.3432 -0.4667 -0.8151
vn -0.4418 -0.8850 -0.1472
vn -0.3101 -0.9282 -0.2057
vn 0.8489 0.5270 0.0405
vn 0.7362 -0.4333 -0.5199
vn 0.0000 1.0000 -0.0002
vn 0.1296 0.9627 0.2376
vn 0.1768 0.9592 0.2208
vn -0.6467 -0.6236 -0.4392
vn -0.4142 -0.6007 -0.6838
vn -0.7473 -0.5340 -0.3955
vn -0.8572 0.0000 -0.5150
vn -0.4740 0.0000 -0.8805
vn -0.4109 -0.4458 -0.7953
vn 0.0457 -0.2747 -0.9604
vn -0.1436 0.8629 -0.4845
vn 0.8723 0.4385 -0.2164
vn 0.7394 -0.1851 -0.6473
vn -0.2204 -0.7706 -0.5981
vn -0.0506 -0.9892 -0.1374
vn -0.0504 -0.9896 -0.1345
vn -0.2001 -0.9170 -0.3451
usemtl Shape.5458
s off
f 13//1 11//1 22//1
f 4//2 1//2 5//2
f 4//2 5//2 8//2
f 4//3 7//3 10//3
f 8//4 5//4 12//4
f 5//5 9//5 12//5
f 1//2 4//2 14//2
f 4//3 10//3 14//3
f 3//6 2//6 15//6
f 11//7 3//7 15//7
f 6//8 11//8 15//8
f 12//9 6//9 15//9
f 2//10 3//10 16//10
f 10//3 7//3 16//3
f 3//11 11//11 16//11
f 5//2 1//2 17//2
f 9//5 5//5 17//5
f 1//12 13//12 17//12
f 13//13 9//13 17//13
f 7//14 8//14 18//14
f 8//4 12//4 18//4
f 12//15 15//15 18//15
f 7//16 4//16 19//16
f 4//17 8//17 19//17
f 8//18 7//18 19//18
f 13//19 1//19 20//19
f 11//20 13//20 20//20
f 1//21 14//21 20//21
f 14//22 10//22 20//22
f 10//23 16//23 20//23
f 16//24 11//24 20//24
f 15//25 2//25 21//25
f 2//26 16//26 21//26
f 16//3 7//3 21//3
f 7//27 18//27 21//27
f 18//28 15//28 21//28
f 11//29 6//29 22//29
f 6//30 12//30 22//30
f 12//31 9//31 22//31
f 9//32 13//32 22//32
