# Blender v2.79 (sub 0) OBJ File: ''
# www.blender.org
mtllib 102621_link_3_26.mtl
o Shape_IndexedFaceSet.026_Shape_IndexedFaceSet.14702
v 0.406992 0.639148 -0.320264
v 0.489579 0.658419 -0.419350
v 0.489579 0.650158 -0.419350
v 0.451034 0.650158 -0.323035
v 0.475804 0.636396 -0.422112
v 0.448285 0.650158 -0.411095
v 0.431769 0.658419 -0.320264
v 0.442788 0.639148 -0.320264
v 0.456531 0.636396 -0.422112
v 0.409748 0.650158 -0.325787
v 0.473055 0.658419 -0.422112
v 0.412505 0.636396 -0.320264
v 0.448285 0.658419 -0.320264
v 0.475804 0.644659 -0.383570
v 0.451034 0.641904 -0.422112
v 0.434534 0.636396 -0.320264
v 0.481317 0.639148 -0.413847
vn 0.3137 -0.9407 0.1291
vn 0.1966 0.0000 -0.9805
vn 0.0000 0.0000 1.0000
vn -0.3803 0.4890 0.7850
vn -0.3196 0.9386 -0.1296
vn 0.1648 0.0206 -0.9861
vn 0.0000 1.0000 -0.0000
vn 0.0000 0.0000 -1.0000
vn -0.3795 0.9092 -0.1714
vn -0.4385 -0.8785 -0.1896
vn 0.0000 -1.0000 0.0000
vn 0.9087 0.1754 0.3787
vn 0.4727 -0.1348 0.8709
vn 0.9332 0.0000 0.3593
vn 0.9260 0.0471 0.3746
vn 0.7865 -0.4967 0.3670
vn -0.6731 -0.6718 -0.3093
vn -0.9177 0.0311 -0.3960
vn -0.8849 0.2389 -0.3998
vn -0.4802 0.6403 -0.5995
vn 0.7087 -0.6585 -0.2535
vn 0.8303 -0.5018 0.2425
vn 0.6018 -0.7592 0.2478
vn 0.2944 -0.9482 0.1193
usemtl Shape.14713
s off
f 8//1 16//1 17//1
f 2//2 3//2 5//2
f 7//3 1//3 8//3
f 1//4 7//4 10//4
f 10//5 7//5 11//5
f 2//6 5//6 11//6
f 7//7 2//7 11//7
f 5//8 9//8 11//8
f 6//9 10//9 11//9
f 8//3 1//3 12//3
f 1//10 9//10 12//10
f 9//11 5//11 12//11
f 4//12 2//12 13//12
f 2//7 7//7 13//7
f 8//13 4//13 13//13
f 7//3 8//3 13//3
f 3//14 2//14 14//14
f 2//15 4//15 14//15
f 4//16 8//16 14//16
f 9//17 1//17 15//17
f 1//18 10//18 15//18
f 10//19 6//19 15//19
f 11//8 9//8 15//8
f 6//20 11//20 15//20
f 8//3 12//3 16//3
f 12//11 5//11 16//11
f 5//21 3//21 17//21
f 3//22 14//22 17//22
f 14//23 8//23 17//23
f 16//24 5//24 17//24
