# Blender v2.79 (sub 0) OBJ File: ''
# www.blender.org
mtllib 102621_link_0_30.mtl
o Shape_IndexedFaceSet.030_Shape_IndexedFaceSet.5469
v -0.445377 0.553631 -0.344886
v -0.445827 0.565332 -0.340836
v -0.443575 0.565332 -0.346684
v -0.449426 0.565332 -0.346684
v -0.447625 0.552281 -0.340836
v -0.443575 0.552281 -0.341286
v -0.443575 0.564880 -0.350736
v -0.448976 0.565332 -0.340836
v -0.444026 0.561280 -0.340836
v -0.443575 0.552281 -0.344886
v -0.448076 0.564430 -0.348485
v -0.447625 0.552281 -0.342186
v -0.449426 0.564880 -0.342636
vn -0.9899 -0.1415 0.0000
vn 0.0000 1.0000 0.0000
vn 1.0000 0.0000 0.0000
vn 0.0000 0.9938 -0.1109
vn 0.0000 0.0000 1.0000
vn 0.8620 0.3831 0.3319
vn 0.1103 -0.0441 0.9929
vn 0.9932 0.0444 0.1074
vn 0.0000 -1.0000 0.0000
vn -0.3009 -0.4016 -0.8650
vn -0.3812 0.6800 -0.6264
vn -0.3839 -0.3769 -0.8430
vn -0.4458 -0.5951 -0.6687
vn -0.6062 -0.3837 -0.6966
vn -0.8302 -0.2806 -0.4818
vn -0.8218 0.5662 0.0632
vn -0.9592 -0.0993 0.2647
vn -0.9897 -0.1420 -0.0159
usemtl Shape.5475
s off
f 12//1 5//1 13//1
f 2//2 3//2 4//2
f 3//3 6//3 7//3
f 4//4 3//4 7//4
f 2//2 4//2 8//2
f 5//5 2//5 8//5
f 3//6 2//6 9//6
f 2//5 5//5 9//5
f 5//7 6//7 9//7
f 6//8 3//8 9//8
f 6//9 5//9 10//9
f 7//3 6//3 10//3
f 1//10 7//10 10//10
f 4//11 7//11 11//11
f 7//12 1//12 11//12
f 1//13 10//13 12//13
f 10//9 5//9 12//9
f 11//14 1//14 12//14
f 4//15 11//15 12//15
f 8//16 4//16 13//16
f 5//17 8//17 13//17
f 4//18 12//18 13//18
