# Blender v2.79 (sub 0) OBJ File: ''
# www.blender.org
mtllib 102621_link_4_142.mtl
o Shape_IndexedFaceSet.142_Shape_IndexedFaceSet.18295
v 0.373723 0.531698 -0.236936
v 0.409635 0.509244 -0.350896
v 0.411908 0.533112 -0.351743
v -0.037859 0.532811 -0.232854
v -0.022435 0.510145 -0.206300
v 0.328958 0.510727 -0.209987
v -0.029096 0.509827 -0.241910
v -0.023642 0.532134 -0.205936
v 0.329196 0.531515 -0.209858
v 0.441033 0.510009 -0.346048
vn 0.5944 -0.6353 0.4930
vn 0.0018 -0.9999 0.0115
vn -0.2411 -0.0115 -0.9704
vn -0.2460 0.2727 -0.9301
vn -0.8962 -0.4092 0.1713
vn 0.0008 -1.0000 0.0088
vn -0.8834 -0.0562 0.4652
vn 0.0105 -0.0160 0.9998
vn 0.0111 -0.0063 0.9999
vn 0.0042 0.9999 0.0137
vn 0.0027 0.9999 0.0128
vn 0.5196 -0.0113 0.8543
vn 0.0020 0.9997 0.0241
vn 0.5836 0.7860 0.2038
vn 0.1536 -0.0496 -0.9869
vn 0.0209 -0.9995 0.0225
usemtl Shape.18313
s off
f 1//1 6//1 10//1
f 5//2 2//2 6//2
f 3//3 2//3 7//3
f 4//4 3//4 7//4
f 5//5 4//5 7//5
f 2//6 5//6 7//6
f 4//7 5//7 8//7
f 5//8 6//8 8//8
f 8//9 6//9 9//9
f 1//10 3//10 9//10
f 3//11 4//11 9//11
f 6//12 1//12 9//12
f 4//13 8//13 9//13
f 3//14 1//14 10//14
f 2//15 3//15 10//15
f 6//16 2//16 10//16
