# Blender v2.79 (sub 0) OBJ File: ''
# www.blender.org
mtllib 102621_link_4_73.mtl
o Shape_IndexedFaceSet.073_Shape_IndexedFaceSet.18226
v 0.411805 0.126128 -0.430630
v -0.388238 0.118790 -0.614038
v 0.375692 0.118789 -0.614078
v -0.418246 0.118716 -0.439453
v 0.412492 0.118718 -0.439498
v -0.417577 0.126130 -0.430576
vn 0.0000 -0.7675 0.6410
vn -0.0000 0.9992 -0.0400
vn -0.0000 -1.0000 -0.0004
vn 0.9272 0.3197 -0.1953
vn -0.9462 0.2800 -0.1625
vn 0.0000 -0.7674 0.6412
usemtl Shape.18244
s off
f 4//1 5//1 6//1
f 3//2 2//2 1//2
f 2//3 3//3 4//3
f 3//4 1//4 5//4
f 4//3 3//3 5//3
f 1//2 2//2 6//2
f 2//5 4//5 6//5
f 5//6 1//6 6//6
