# Blender v2.79 (sub 0) OBJ File: ''
# www.blender.org
mtllib 102621_link_4_63.mtl
o Shape_IndexedFaceSet.063_Shape_IndexedFaceSet.18216
v -0.396194 0.103317 -0.394905
v -0.386658 0.096063 -0.611120
v -0.387947 0.103288 -0.611934
v 0.145776 0.104039 -0.587449
v -0.304375 0.088309 -0.304876
v 0.124691 0.088649 -0.615806
v -0.425149 0.088810 -0.568926
v -0.311250 0.103774 -0.305742
v 0.140773 0.088220 -0.585381
v 0.126671 0.103529 -0.616889
v -0.359546 0.088822 -0.329882
v -0.380271 0.088852 -0.611632
v -0.427506 0.103378 -0.577206
vn -0.0012 1.0000 -0.0010
vn 0.5051 0.2704 0.8196
vn 0.5322 -0.0579 0.8446
vn 0.8350 -0.3224 -0.4459
vn -0.0011 -1.0000 -0.0014
vn -0.0006 0.9999 -0.0169
vn 0.8306 -0.1496 -0.5364
vn -0.6022 -0.7810 0.1653
vn -0.0106 -0.9999 0.0030
vn -0.4564 0.7786 0.4308
vn -0.4102 -0.1318 0.9024
vn -0.2485 -0.1521 -0.9566
vn -0.6015 -0.4879 -0.6326
vn -0.0005 -0.9999 -0.0138
vn -0.0011 -1.0000 -0.0021
vn -0.0096 -0.0260 -0.9996
vn -0.0083 -0.0715 -0.9974
vn -0.6469 -0.1984 -0.7363
vn -0.0012 1.0000 -0.0040
vn -0.9836 -0.0631 0.1689
vn -0.6138 -0.4628 -0.6395
vn -0.0070 1.0000 0.0015
usemtl Shape.18234
s off
f 8//1 4//1 13//1
f 5//2 4//2 8//2
f 4//3 5//3 9//3
f 6//4 4//4 9//4
f 5//5 7//5 9//5
f 3//6 4//6 10//6
f 4//7 6//7 10//7
f 1//8 7//8 11//8
f 7//9 5//9 11//9
f 8//10 1//10 11//10
f 5//11 8//11 11//11
f 2//12 3//12 12//12
f 7//13 2//13 12//13
f 6//14 9//14 12//14
f 9//15 7//15 12//15
f 3//16 10//16 12//16
f 10//17 6//17 12//17
f 3//18 2//18 13//18
f 4//19 3//19 13//19
f 7//20 1//20 13//20
f 2//21 7//21 13//21
f 1//22 8//22 13//22
