# Blender v2.79 (sub 0) OBJ File: ''
# www.blender.org
mtllib 102621_link_3_20.mtl
o Shape_IndexedFaceSet.020_Shape_IndexedFaceSet.14696
v -0.402380 0.694200 -0.234939
v -0.451919 0.655666 -0.314758
v -0.451919 0.655666 -0.311992
v -0.443658 0.716230 -0.314758
v -0.367537 0.717547 -0.236074
v -0.385856 0.655666 -0.234939
v -0.419446 0.718341 -0.314580
v -0.436990 0.653717 -0.317327
v -0.407877 0.655666 -0.237689
v -0.418872 0.716230 -0.265217
v -0.396875 0.716230 -0.234939
v -0.440893 0.705209 -0.298231
v -0.429890 0.655666 -0.309241
v -0.424377 0.663936 -0.262459
v -0.388604 0.655666 -0.243190
v -0.451919 0.672194 -0.311992
v -0.416123 0.707960 -0.256958
v -0.368435 0.716888 -0.234072
vn -0.0306 0.0077 0.9995
vn -0.1295 -0.9916 0.0000
vn -0.1667 0.0227 -0.9858
vn 0.0037 0.0415 -0.9991
vn -0.1237 -0.0531 0.9909
vn -0.1069 -0.9922 0.0634
vn -0.0032 -0.9997 0.0256
vn -0.0871 0.9952 0.0436
vn -0.0433 0.9983 0.0387
vn -0.0597 0.9973 0.0433
vn -0.8166 0.4078 0.4085
vn 0.8192 -0.1828 -0.5435
vn 0.7603 -0.1799 -0.6242
vn -0.8180 0.0760 0.5702
vn -0.8453 -0.1858 0.5010
vn 0.9120 -0.2756 -0.3038
vn 0.0819 -0.9963 -0.0273
vn 0.8268 -0.2221 -0.5168
vn 0.6334 -0.6648 -0.3959
vn -1.0000 0.0000 0.0000
vn -0.7708 0.1051 -0.6283
vn -0.9383 0.1940 0.2863
vn -0.8740 0.0000 0.4860
vn -0.8651 0.0827 0.4948
vn -0.7735 0.1933 0.6036
vn -0.7710 0.3031 0.5601
vn -0.8442 0.2113 0.4926
vn -0.8211 0.0834 0.5646
vn -0.8562 0.0971 0.5074
vn 0.9096 -0.2634 0.3213
vn -0.0198 -0.0085 0.9998
vn -0.0312 0.9535 0.2999
usemtl Shape.14707
s off
f 11//1 1//1 18//1
f 3//2 2//2 8//2
f 2//3 4//3 8//3
f 4//4 7//4 8//4
f 6//5 1//5 9//5
f 3//6 8//6 9//6
f 8//7 6//7 9//7
f 7//8 4//8 10//8
f 5//9 7//9 11//9
f 7//10 10//10 11//10
f 10//11 4//11 12//11
f 7//12 5//12 13//12
f 8//13 7//13 13//13
f 9//14 1//14 14//14
f 3//15 9//15 14//15
f 5//16 6//16 15//16
f 6//17 8//17 15//17
f 13//18 5//18 15//18
f 8//19 13//19 15//19
f 2//20 3//20 16//20
f 4//21 2//21 16//21
f 12//22 4//22 16//22
f 3//23 14//23 16//23
f 14//24 12//24 16//24
f 1//25 11//25 17//25
f 11//26 10//26 17//26
f 10//27 12//27 17//27
f 14//28 1//28 17//28
f 12//29 14//29 17//29
f 6//30 5//30 18//30
f 1//31 6//31 18//31
f 5//32 11//32 18//32
