# Blender v2.79 (sub 0) OBJ File: ''
# www.blender.org
mtllib 102621_link_4_90.mtl
o Shape_IndexedFaceSet.090_Shape_IndexedFaceSet.18243
v 0.303910 0.193678 -0.225770
v 0.419475 0.186256 -0.500872
v 0.421208 0.193973 -0.502038
v -0.077933 0.194137 -0.242006
v -0.058542 0.186348 -0.212181
v 0.326746 0.186484 -0.246151
v -0.077583 0.186068 -0.242146
v 0.410895 0.193671 -0.375939
vn 0.5930 0.6855 0.4224
vn 0.0011 1.0000 0.0016
vn -0.0098 0.9659 0.2587
vn 0.0325 -0.9305 0.3649
vn -0.4615 -0.0303 -0.8866
vn -0.4620 -0.0047 -0.8869
vn -0.8429 -0.0459 0.5361
vn 0.0010 -1.0000 0.0013
vn 0.0011 -1.0000 0.0086
vn 0.0039 1.0000 0.0027
vn 0.9751 -0.2070 0.0793
vn 0.1937 -0.9785 0.0714
usemtl Shape.18261
s off
f 1//1 6//1 8//1
f 1//2 3//2 4//2
f 1//3 4//3 5//3
f 1//4 5//4 6//4
f 3//5 2//5 7//5
f 4//6 3//6 7//6
f 5//7 4//7 7//7
f 2//8 6//8 7//8
f 6//9 5//9 7//9
f 3//10 1//10 8//10
f 2//11 3//11 8//11
f 6//12 2//12 8//12
