# Blender v2.79 (sub 0) OBJ File: ''
# www.blender.org
mtllib 102621_link_0_2.mtl
o Shape_IndexedFaceSet.002_Shape_IndexedFaceSet.5441
v -0.423322 0.573884 -0.265225
v -0.395867 0.573434 -0.280076
v -0.396319 0.573884 -0.279625
v -0.409822 0.579284 -0.299877
v -0.416120 0.579734 -0.281429
v -0.424672 0.572983 -0.269726
v -0.424672 0.579284 -0.290872
v -0.402172 0.579284 -0.288621
v -0.399919 0.572983 -0.283223
v -0.424218 0.576583 -0.268376
v -0.403971 0.573434 -0.272877
v -0.424672 0.579284 -0.275578
v -0.403971 0.579734 -0.294923
v -0.402620 0.576134 -0.279179
v -0.396319 0.572983 -0.281876
v -0.418819 0.573434 -0.264775
v -0.417468 0.575684 -0.269276
v -0.424672 0.572983 -0.265675
v -0.408023 0.579284 -0.299877
v -0.424218 0.579734 -0.277828
v -0.420621 0.578384 -0.274678
v -0.396770 0.574784 -0.280526
v -0.409822 0.579734 -0.285020
v -0.421517 0.579284 -0.293122
v -0.400819 0.577933 -0.289525
vn 0.6867 0.7248 -0.0553
vn -0.1481 -0.9509 -0.2717
vn 0.6620 -0.0819 0.7450
vn -1.0000 0.0000 0.0000
vn 0.0000 -1.0000 0.0000
vn 0.1755 -0.9645 0.1976
vn 0.0112 0.7610 0.6486
vn 0.2583 0.8667 0.4267
vn 0.1785 0.8576 0.4823
vn 0.2696 0.8265 0.4941
vn -0.5672 0.5388 0.6228
vn -0.9614 0.2320 0.1476
vn 0.0553 -0.9938 0.0969
vn -0.1237 -0.2888 0.9494
vn 0.0596 -0.9922 0.1093
vn 0.0000 -0.9353 -0.3538
vn 0.0000 0.9959 -0.0905
vn 0.1552 -0.8966 -0.4147
vn 0.7541 -0.2869 -0.5908
vn 0.0950 0.9723 0.2136
vn -0.7040 0.7102 0.0000
vn 0.0000 1.0000 0.0000
vn -0.0283 0.9990 -0.0335
vn 0.1466 0.9466 0.2870
vn 0.1311 0.9309 0.3409
vn 0.1701 0.9176 0.3593
vn 0.2003 0.9181 0.3420
vn 0.7834 0.5896 0.1968
vn 0.4211 0.7384 0.5267
vn 0.2818 0.9061 0.3157
vn 0.2958 0.8535 0.4291
vn 0.0811 0.9956 0.0479
vn 0.2044 0.9256 0.3185
vn 0.1724 0.9374 0.3024
vn 0.1972 0.9244 0.3266
vn -0.1598 -0.9476 -0.2768
vn -0.1996 -0.9391 -0.2798
vn -0.0311 0.9981 -0.0539
vn -0.0299 0.9987 -0.0420
vn 0.6541 0.7445 -0.1336
vn 0.8908 0.3346 -0.3075
vn 0.8653 0.0122 -0.5012
vn 0.8437 0.4956 -0.2062
usemtl Shape.5447
s off
f 8//1 22//1 25//1
f 6//2 4//2 9//2
f 2//3 3//3 11//3
f 7//4 6//4 12//4
f 6//5 9//5 15//5
f 2//6 11//6 15//6
f 10//7 1//7 16//7
f 11//8 14//8 17//8
f 10//9 16//9 17//9
f 16//10 11//10 17//10
f 1//11 10//11 18//11
f 12//4 6//4 18//4
f 10//12 12//12 18//12
f 6//5 15//5 18//5
f 15//13 11//13 18//13
f 16//14 1//14 18//14
f 11//15 16//15 18//15
f 9//16 4//16 19//16
f 4//17 13//17 19//17
f 15//18 9//18 19//18
f 13//19 15//19 19//19
f 12//20 5//20 20//20
f 7//21 12//21 20//21
f 5//22 13//22 20//22
f 13//23 7//23 20//23
f 5//24 12//24 21//24
f 12//25 10//25 21//25
f 10//26 17//26 21//26
f 17//27 14//27 21//27
f 3//28 2//28 22//28
f 11//29 3//29 22//29
f 8//30 14//30 22//30
f 14//31 11//31 22//31
f 13//22 5//22 23//22
f 8//32 13//32 23//32
f 14//33 8//33 23//33
f 5//34 21//34 23//34
f 21//35 14//35 23//35
f 4//36 6//36 24//36
f 6//37 7//37 24//37
f 13//38 4//38 24//38
f 7//39 13//39 24//39
f 13//40 8//40 25//40
f 2//41 15//41 25//41
f 15//42 13//42 25//42
f 22//43 2//43 25//43
