# Blender v2.79 (sub 0) OBJ File: ''
# www.blender.org
mtllib 102621_link_3_5.mtl
o Shape_IndexedFaceSet.005_Shape_IndexedFaceSet.14681
v -0.455614 0.655382 -0.588627
v -0.451919 0.663925 -0.631339
v -0.451919 0.655666 -0.628583
v -0.000485 0.661171 -0.595562
v -0.000485 0.650160 -0.620326
v -0.000485 0.669431 -0.631339
v -0.451919 0.669431 -0.614821
v -0.000485 0.650160 -0.592810
v -0.451919 0.650160 -0.617573
v -0.000485 0.669431 -0.614821
v -0.451919 0.650160 -0.592810
v -0.451919 0.663925 -0.598315
v -0.000485 0.655666 -0.628583
v -0.451919 0.669431 -0.631339
v -0.041801 0.661171 -0.592810
v -0.451919 0.661171 -0.592810
v -0.000485 0.663925 -0.631339
v -0.047281 0.663925 -0.598315
v -0.305963 0.650160 -0.620326
vn -0.0084 -0.8944 -0.4473
vn -0.9953 -0.0308 -0.0923
vn 1.0000 0.0000 0.0000
vn 0.0000 -1.0000 0.0000
vn -0.9787 -0.1836 -0.0918
vn 0.0000 1.0000 0.0000
vn 0.0000 -0.6252 0.7805
vn -0.8163 -0.5776 0.0000
vn -0.8064 0.5610 0.1871
vn 0.0000 0.9486 0.3164
vn 0.0000 -0.3165 -0.9486
vn 0.0000 -0.8320 -0.5548
vn -0.9963 0.0000 -0.0862
vn 0.0000 0.0000 -1.0000
vn -0.9671 0.2544 0.0000
vn 0.0096 0.0360 0.9993
vn 0.0645 0.2420 0.9681
vn 0.0000 0.8943 0.4474
vn -0.6668 0.6665 0.3334
vn 0.0000 0.5857 0.8105
vn 0.0309 0.9186 0.3940
vn 0.0283 0.9050 0.4246
usemtl Shape.14692
s off
f 9//1 3//1 19//1
f 1//2 2//2 3//2
f 4//3 5//3 6//3
f 5//3 4//3 8//3
f 5//4 8//4 9//4
f 1//5 3//5 9//5
f 4//3 6//3 10//3
f 6//6 7//6 10//6
f 8//7 1//7 11//7
f 9//4 8//4 11//4
f 1//8 9//8 11//8
f 7//9 1//9 12//9
f 10//10 7//10 12//10
f 3//11 2//11 13//11
f 5//12 3//12 13//12
f 6//3 5//3 13//3
f 2//13 1//13 14//13
f 6//14 2//14 14//14
f 1//15 7//15 14//15
f 7//6 6//6 14//6
f 1//16 8//16 15//16
f 8//17 4//17 15//17
f 15//18 12//18 16//18
f 12//19 1//19 16//19
f 1//20 15//20 16//20
f 2//14 6//14 17//14
f 13//11 2//11 17//11
f 6//3 13//3 17//3
f 4//21 10//21 18//21
f 10//10 12//10 18//10
f 15//22 4//22 18//22
f 12//18 15//18 18//18
f 3//12 5//12 19//12
f 5//4 9//4 19//4
