# Blender v2.79 (sub 0) OBJ File: ''
# www.blender.org
mtllib 102621_link_2_5.mtl
o Shape_IndexedFaceSet.005_Shape_IndexedFaceSet.816
v -0.221064 0.071829 -0.055402
v -0.228642 0.064354 -0.052207
v -0.157057 0.029600 0.066006
v -0.157043 0.098446 0.015688
v -0.289436 0.093150 0.066006
v -0.167649 0.103742 -0.053160
v -0.236476 0.106394 -0.042560
v -0.165012 0.053435 -0.042560
v -0.292088 0.040199 0.066006
v -0.159709 0.085210 0.066006
v -0.220610 0.045495 -0.029329
v -0.178241 0.109046 -0.024030
v -0.267063 0.052532 -0.002224
v -0.157057 0.042843 -0.008142
v -0.257660 0.095794 0.063350
v -0.260312 0.082559 -0.016086
v -0.178241 0.058739 -0.055804
v -0.228564 0.095794 -0.055804
v -0.233825 0.050799 -0.042560
v -0.162360 0.098446 -0.050504
v -0.297377 0.061390 0.050106
v -0.297377 0.082559 0.063350
v -0.162360 0.029600 0.060694
v -0.175604 0.048147 -0.039917
v -0.300028 0.042843 0.063350
v -0.157043 0.101098 -0.013430
v -0.194137 0.109046 -0.021374
v -0.245479 0.059716 -0.035884
v -0.223261 0.093150 0.066006
v -0.172952 0.103742 -0.055804
v -0.157043 0.090506 0.050106
v -0.264470 0.045451 0.004948
v -0.157057 0.050799 -0.021374
v -0.236476 0.090498 -0.050504
v -0.292088 0.048147 0.039519
v -0.157057 0.032251 0.042151
v -0.170301 0.061390 -0.055804
v -0.252357 0.098446 -0.021374
v -0.223261 0.103742 -0.055804
v -0.207380 0.050799 -0.047860
v -0.270904 0.071959 -0.000199
v -0.162360 0.058739 -0.045216
v -0.302666 0.048147 0.066006
v -0.292088 0.079914 0.047450
v -0.268878 0.043308 0.021501
v -0.198735 0.106707 -0.047309
v -0.286785 0.093150 0.052762
vn -0.8132 0.4693 -0.3441
vn 0.0000 0.0000 1.0000
vn -0.1013 -0.3024 -0.9478
vn -0.2940 -0.1079 -0.9497
vn -0.0160 -0.0218 -0.9996
vn -0.0780 -0.9939 0.0779
vn 0.3477 -0.8705 -0.3483
vn 0.2511 -0.7856 -0.5655
vn 0.3117 0.9463 0.0862
vn 0.3666 0.9297 -0.0360
vn 0.7365 0.6589 -0.1528
vn -0.0987 0.9924 0.0729
vn -0.0742 0.9923 0.0995
vn 0.0294 0.9840 0.1759
vn -0.6284 -0.2770 -0.7269
vn -0.6839 -0.4876 -0.5426
vn 0.0850 0.9731 0.2143
vn -0.0000 0.7087 0.7055
vn 0.0595 0.9775 0.2023
vn 0.0757 0.9855 -0.1519
vn -0.0000 0.0000 -1.0000
vn 0.9825 0.0469 0.1803
vn 1.0000 -0.0000 0.0000
vn 0.0925 0.9702 0.2238
vn 0.1170 0.9362 0.3314
vn -0.1686 -0.9615 -0.2170
vn -0.5848 -0.6729 -0.4530
vn -0.2506 -0.9483 -0.1949
vn 0.7364 -0.5798 -0.3486
vn 1.0000 -0.0003 -0.0002
vn 0.9894 0.0224 -0.1435
vn -0.5085 -0.0966 -0.8556
vn -0.6683 0.3325 -0.6654
vn -0.8180 -0.0335 -0.5742
vn -0.6661 -0.1520 -0.7302
vn -0.6090 -0.6634 -0.4348
vn -0.5089 -0.7886 -0.3451
vn 0.1100 -0.9879 -0.1098
vn -0.0356 -0.9878 -0.1514
vn 0.0730 -0.9759 -0.2055
vn 0.0124 -0.9811 -0.1929
vn 1.0000 -0.0002 -0.0001
vn 1.0000 -0.0002 -0.0000
vn 0.2599 -0.7784 -0.5714
vn 0.4691 0.0257 -0.8828
vn 0.4460 0.0279 -0.8946
vn -0.8170 0.2577 -0.5158
vn -0.8230 0.2409 -0.5144
vn -0.6058 0.4042 -0.6854
vn -0.1142 -0.4613 -0.8799
vn -0.0634 -0.9466 -0.3162
vn -0.1668 -0.5286 -0.8323
vn 0.0716 -0.8244 -0.5615
vn -0.0097 -0.9595 -0.2816
vn -0.8267 -0.1058 -0.5527
vn -0.8198 -0.0372 -0.5714
vn -0.8469 -0.1133 -0.5196
vn -0.8862 0.0162 -0.4630
vn 0.7546 -0.5537 -0.3522
vn 0.9735 -0.0302 -0.2266
vn 0.5770 -0.5776 -0.5774
vn 0.7875 -0.0814 -0.6110
vn -0.9683 0.1325 -0.2118
vn -0.4773 0.1403 0.8675
vn -0.4248 -0.5653 0.7071
vn -0.9261 -0.0742 -0.3699
vn -0.8952 -0.2662 -0.3575
vn -0.9160 0.2128 -0.3401
vn -0.8603 0.2916 -0.4181
vn -0.8173 0.4590 -0.3482
vn -0.8737 0.2327 -0.4273
vn -0.8846 0.1916 -0.4252
vn -0.0855 -0.9898 -0.1138
vn -0.0827 -0.9892 -0.1211
vn -0.2236 -0.9573 -0.1835
vn -0.1239 -0.9793 -0.1598
vn -0.0191 0.9961 -0.0864
vn -0.0146 0.9961 -0.0872
vn 0.0626 0.9861 -0.1542
vn -0.0372 0.9721 -0.2318
vn 0.0000 0.9441 -0.3295
vn -0.3893 0.9178 -0.0779
vn -0.7715 0.6172 -0.1544
vn -0.7002 0.6575 -0.2782
usemtl Shape.819
s off
f 38//1 22//1 47//1
f 3//2 5//2 9//2
f 5//2 3//2 10//2
f 2//3 1//3 17//3
f 1//4 2//4 18//4
f 17//5 1//5 18//5
f 3//6 9//6 23//6
f 8//7 14//7 24//7
f 17//8 8//8 24//8
f 12//9 4//9 26//9
f 6//10 12//10 26//10
f 20//11 6//11 26//11
f 7//12 5//12 27//12
f 5//13 15//13 27//13
f 15//14 12//14 27//14
f 2//15 19//15 28//15
f 19//16 13//16 28//16
f 5//2 10//2 29//2
f 4//17 12//17 29//17
f 15//18 5//18 29//18
f 12//19 15//19 29//19
f 12//20 6//20 30//20
f 17//21 18//21 30//21
f 10//22 3//22 31//22
f 26//23 4//23 31//23
f 4//24 29//24 31//24
f 29//25 10//25 31//25
f 19//26 11//26 32//26
f 13//27 19//27 32//27
f 9//28 25//28 32//28
f 14//29 8//29 33//29
f 26//30 14//30 33//30
f 20//31 26//31 33//31
f 18//32 2//32 34//32
f 7//33 18//33 34//33
f 28//34 16//34 34//34
f 2//35 28//35 34//35
f 13//36 32//36 35//36
f 32//37 25//37 35//37
f 3//38 23//38 36//38
f 23//39 11//39 36//39
f 24//40 14//40 36//40
f 11//41 24//41 36//41
f 14//42 26//42 36//42
f 31//43 3//43 36//43
f 26//43 31//43 36//43
f 8//44 17//44 37//44
f 6//45 20//45 37//45
f 30//46 6//46 37//46
f 17//21 30//21 37//21
f 7//47 34//47 38//47
f 34//48 16//48 38//48
f 18//49 7//49 39//49
f 30//21 18//21 39//21
f 2//50 17//50 40//50
f 11//51 19//51 40//51
f 19//52 2//52 40//52
f 17//53 24//53 40//53
f 24//54 11//54 40//54
f 28//55 13//55 41//55
f 16//56 28//56 41//56
f 13//57 35//57 41//57
f 35//58 21//58 41//58
f 33//59 8//59 42//59
f 20//60 33//60 42//60
f 8//61 37//61 42//61
f 37//62 20//62 42//62
f 9//2 5//2 43//2
f 22//63 21//63 43//63
f 5//64 22//64 43//64
f 25//65 9//65 43//65
f 21//66 35//66 43//66
f 35//67 25//67 43//67
f 21//68 22//68 44//68
f 38//69 16//69 44//69
f 22//70 38//70 44//70
f 16//71 41//71 44//71
f 41//72 21//72 44//72
f 23//73 9//73 45//73
f 11//74 23//74 45//74
f 9//75 32//75 45//75
f 32//76 11//76 45//76
f 7//77 27//77 46//77
f 27//78 12//78 46//78
f 12//79 30//79 46//79
f 39//80 7//80 46//80
f 30//81 39//81 46//81
f 5//82 7//82 47//82
f 22//83 5//83 47//83
f 7//84 38//84 47//84
