# SSTK version 0.8.0
# 2
mtllib original-2.mtl
o mesh2/mesh2-geometry#mesh2-geometry
v -0.263678 0.125603 -0.464876
v -0.263676 0.083498 -0.264304
v -0.263680 0.125594 -0.273554
v -0.263678 0.083496 -0.464876
v -0.246735 0.125589 -0.247443
v 0.003411 0.083496 -0.153459
v -0.260400 0.083496 -0.473057
v -0.245995 0.083496 -0.233165
v -0.191767 0.125587 -0.213267
v -0.245634 0.083496 -0.474879
v -0.260400 0.125603 -0.473057
v -0.193334 0.083499 -0.200402
v -0.124288 0.125603 -0.184293
v 0.268989 0.083496 -0.468543
v -0.245670 0.125603 -0.474879
v -0.059239 0.125600 -0.168928
v -0.124122 0.105892 -0.179417
v -0.124283 0.083496 -0.172675
v 0.268990 0.083497 -0.269171
v 0.258067 0.083496 -0.474879
v 0.266364 0.125603 -0.474873
v 0.003411 0.125602 -0.164477
v -0.059779 0.083496 -0.157911
v 0.252061 0.083496 -0.235401
v 0.268989 0.125603 -0.468543
v 0.267067 0.083496 -0.473763
v 0.134133 0.125603 -0.183065
v 0.003411 0.102450 -0.159133
v -0.059626 0.100681 -0.163090
v 0.252045 0.104124 -0.242951
v 0.202114 0.083501 -0.200694
v 0.268985 0.125596 -0.279041
v 0.067585 0.125600 -0.167838
v 0.134126 0.083496 -0.171296
v 0.201280 0.125603 -0.214453
v 0.133981 0.105795 -0.178155
v 0.067900 0.100296 -0.161879
v 0.252061 0.125603 -0.250203
v 0.201541 0.112915 -0.210705
v 0.068113 0.083496 -0.156810
vn -0.9999999985400001 -0.00005399999992116 -0.000001999999997080012
vn -0.9999999940835 -0.000107999999361018 -0.000012999999923085523
vn 0.9999999940835 0.000107999999361018 0.000012999999923085523
vn 0.9999999985400001 0.00005399999992116 0.000001999999997080012
vn -1 0 0.0000099999999995
vn 1 0 -0.0000099999999995
vn -0.8328911182713802 0.11869401685467015 0.540559076759935
vn -0.8467630714845883 0.13465801136796435 0.514645043446851
vn 0.8467630714845883 -0.13465801136796435 -0.514645043446851
vn 0.8328911182713802 -0.11869401685467015 -0.540559076759935
vn 0.00009999999933180003 0.9999999933180002 0.00005799999961266606
vn -0.000007999999996608 1 0.000027999999988350047
vn 0.00021999999442256018 0.9999999746480008 0.000047999998783326084
vn -0.00021999999442256018 -0.9999999746480008 -0.000047999998783326084
vn 0.000007999999996608 -1 -0.000027999999988350047
vn -0.00009999999933180003 -0.9999999933180002 -0.00005799999961266606
vn 0.0000029999999999325 -1 -0.000006000000000087045
vn 0.000006999999995782501 -1 -0.00003399999997973705
vn -0.0000029999999999730005 -1 0.000002999999999750956
vn 0.0000029999999999730005 1 -0.000002999999999750956
vn -0.000006999999995782501 1 0.00003399999997973705
vn -0.0000029999999999325 1 0.000006000000000087045
vn -0.9282748298240324 0 -0.3718949318223679
vn -0.9282743462960585 0.0000010000003731362863 -0.3718961387371821
vn 0.9282748298240324 0 0.3718949318223679
vn 0.9282743462960585 -0.0000010000003731362863 0.3718961387371821
vn -0.8596878782639067 0.15047097869255846 0.488154930874826
vn 0.8596878782639067 -0.15047097869255846 -0.488154930874826
vn -0.0001549999972672726 0.9999999823695006 0.0001059999981313891
vn 0.0001549999972672726 -0.9999999823695006 -0.0001059999981313891
vn -0.0000189999999623705 -0.9999999980195 0.000059999999880947955
vn 0.0000189999999623705 0.9999999980195 -0.000059999999880947955
vn 9.999999999995e-7 -1 0
vn -9.999999999995e-7 1 0
vn 0.000001999999999995 -1 9.999999997754553e-7
vn -0.000001999999999995 1 -9.999999997754553e-7
vn -0.9282756585686722 0 -0.37189286321318143
vn 0.9282756585686722 0 0.37189286321318143
vn -0.5087110702128154 0.26871903708887257 0.8179261128909878
vn -0.5088700570990402 0.2684910301267088 0.8179020917747541
vn -0.43585787919851865 0.27437392395508237 0.8571737624274673
vn 0.43585787919851865 -0.27437392395508237 -0.8571737624274673
vn 0.5088700570990402 -0.2684910301267088 -0.8179020917747541
vn 0.5087110702128154 -0.26871903708887257 -0.8179261128909878
vn -0.00012299999884072505 0.9999999905750002 0.000060999999425297055
vn 0.00012299999884072505 -0.9999999905750002 -0.000060999999425297055
vn -0.419622929915843 0.2582569568667013 0.8701838546645153
vn 0.419622929915843 -0.2582569568667013 -0.8701838546645153
vn -0.000021999999987240004 -1 0.00002599999998469796
vn 0.000021999999987240004 1 -0.00002599999998469796
vn 0.000001999999999992 -1 0.0000019999999997699555
vn -0.000001999999999992 1 -0.0000019999999997699555
vn -0.08186503483771392 -0.000035000014894055705 -0.9966434241221978
vn -0.040881000916184115 0.000011000000246742864 -0.9991640223922651
vn -0.12259805000505765 -0.00005200002120944861 -0.9924564048012161
vn 0.12259805000505765 0.00005200002120944861 0.9924564048012161
vn 0.040881000916184115 -0.000011000000246742864 0.9991640223922651
vn 0.08186503483771392 0.000035000014894055705 0.9966434241221978
vn 0 1 0
vn 0 -1 0
vn -0.12274502952822296 0 -0.9924382387464299
vn 0.12274502952822296 0 0.9924382387464299
vn 0.000004999999999875 1 0.000005000000000097045
vn -0.000004999999999875 -1 -0.000005000000000097045
vn -0.3054109066252107 0.22625693082534762 0.9249497172105414
vn -0.29509584195143096 0.25353586421028385 0.9212155066118464
vn 0.29509584195143096 -0.25353586421028385 -0.9212155066118464
vn 0.3054109066252107 -0.22625693082534762 -0.9249497172105414
vn 0.0000109999999527825 -0.9999999957075001 -0.00009199999960531206
vn -0.0000109999999527825 0.9999999957075001 0.00009199999960531206
vn -0.0000039999999989999995 -1 -0.000021999999994722042
vn 0.0000039999999989999995 1 0.000021999999994722042
vn 0.04108298709431571 -0.008002997485962551 -0.9991236861383319
vn -0.04108298709431571 0.008002997485962551 0.9991236861383319
vn 0 1 0.0000020000000002180444
vn 0 -1 -0.0000020000000002180444
vn 0.000004999999945915001 0.9999999891830001 0.00014699999841012306
vn -0.000004999999945915001 -0.9999999891830001 -0.00014699999841012306
vn -0.14592594239253526 0.22844790981517935 0.9625576200092784
vn 0.14592594239253526 -0.22844790981517935 -0.9625576200092784
vn -0.26280413215634707 0.2800501408288495 0.9233124643062556
vn 0.26280413215634707 -0.2800501408288495 -0.9233124643062556
vn 0.0000029999999974650007 -1 -0.00004099999996557705
vn -0.0000029999999974650007 1 0.00004099999996557705
vn 0.00004099999965033151 -0.9999999914715002 0.000123999998942244
vn -0.00004099999965033151 0.9999999914715002 -0.000123999998942244
vn 0.9999999980460001 0.00006199999987885201 0.000007999999984368015
vn 1 0 -0.0000049999999999375
vn -1 0 0.0000049999999999375
vn -0.9999999980460001 -0.00006199999987885201 -0.000007999999984368015
vn 0.061632978814684124 -0.012006995872793772 -0.9980266569448631
vn -0.061632978814684124 0.012006995872793772 0.9980266569448631
vn 0.00003399999997864801 1 0.000009999999993942047
vn -0.00003399999997864801 -1 -0.000009999999993942047
vn 0.0000129999999312755 0.9999999947135001 0.00010199999946099905
vn -0.0000129999999312755 -0.9999999947135001 -0.00010199999946099905
vn -0.009068000343944727 0.22489400853011726 0.9743410369562692
vn -0.009038998930297816 0.24713897075283436 0.9689378853329909
vn 0.009038998930297816 -0.24713897075283436 -0.9689378853329909
vn 0.009068000343944727 -0.22489400853011726 -0.9743410369562692
vn -0.1425200364496465 0.2667730682274875 0.953163243772484
vn 0.1425200364496465 -0.2667730682274875 -0.953163243772484
vn -0.14100806195239912 0.2868021260075453 0.94755541631188
vn -0.008885997185600758 0.2880149087790683 0.9575846967109503
vn 0.008885997185600758 -0.2880149087790683 -0.9575846967109503
vn 0.14100806195239912 -0.2868021260075453 -0.94755541631188
vn 0.8776494768946693 0.13715807452856318 0.459259249550981
vn 0.8688230157973745 0.14744500268091865 0.4726590085941225
vn 0.8820821635283453 0.1625130301281308 0.4421770819747746
vn -0.8820821635283453 -0.1625130301281308 -0.4421770819747746
vn -0.8688230157973745 -0.14744500268091865 -0.4726590085941225
vn -0.8776494768946693 -0.13715807452856318 -0.459259249550981
vn 0.00003499999996281249 -0.9999999989374999 0.000029999999967902954
vn -0.00003499999996281249 0.9999999989374999 -0.000029999999967902954
vn 0.9999999922150001 0.00012299999904244504 0.00002099999983651503
vn -0.9999999922150001 -0.00012299999904244504 -0.00002099999983651503
vn 0.9312559528477186 0.0032729998342782844 -0.3643509815518172
vn 0.9237441673658308 0 -0.38301006939453663
vn -0.9312559528477186 -0.0032729998342782844 0.3643509815518172
vn -0.9237441673658308 0 0.38301006939453663
vn 0.12302103656321074 -0.024104007163976923 -0.9921112948664339
vn -0.12302103656321074 0.024104007163976923 0.9921112948664339
vn 0.9383814979489897 0.006545003473084183 -0.3455391833592069
vn -0.9383814979489897 -0.006545003473084183 0.3455391833592069
vn 0.000053999995514436554 0.9999999169340104 0.00040399996644156224
vn -0.000053999995514436554 -0.9999999169340104 -0.00040399996644156224
vn 0.13348196904633586 0.22925794683646364 0.9641697764148399
vn -0.13348196904633586 -0.22925794683646364 -0.9641697764148399
vn 0.8617557194946811 0.13983295448375138 0.48767184126064705
vn -0.8617557194946811 -0.13983295448375138 -0.48767184126064705
vn 0.5495061030857061 0.27778305211127197 0.7879591478187862
vn 0.46866799197429504 0.2874239950780077 0.8353069856957859
vn 0.5464340936913245 0.28822604941909835 0.7863431348260125
vn -0.5464340936913245 -0.28822604941909835 -0.7863431348260125
vn -0.46866799197429504 -0.2874239950780077 -0.8353069856957859
vn -0.5495061030857061 -0.27778305211127197 -0.7879591478187862
vn -0.000015999999843384 -0.9999999902115001 -0.00013899999863962054
vn 0.000015999999843384 0.9999999902115001 0.00013899999863962054
vn -0.00004299999967094251 0.9999999923475001 -0.00011599999911208797
vn -0.00006399999890009603 0.9999999828140006 -0.00017399999700941406
vn 0.00006399999890009603 -0.9999999828140006 0.00017399999700941406
vn 0.00004299999967094251 -0.9999999923475001 0.00011599999911208797
vn 0.34500793753148845 0.24001995654103034 0.9073918357040195
vn 0.3036081586181504 0.25856013508309694 0.91704347910353
vn -0.3036081586181504 -0.25856013508309694 -0.91704347910353
vn -0.34500793753148845 -0.24001995654103034 -0.9073918357040195
vn 0.129753029719351 0.26855206151064803 0.9544862186207983
vn -0.129753029719351 -0.26855206151064803 -0.9544862186207983
vn 0.8502326120988891 0.16784692342329943 0.49893077237311523
vn -0.8502326120988891 -0.16784692342329943 -0.49893077237311523
vn 0.47883016968379555 0.26410609359168896 0.8372392966937982
vn -0.47883016968379555 -0.26410609359168896 -0.8372392966937982
vn 0.26544900219937767 0.283738002350911 0.9214280076344918
vn -0.26544900219937767 -0.283738002350911 -0.9214280076344918
vn -0.0000019999999983960003 -1 -0.00003999999996814206
vn 0.0000019999999983960003 1 0.00003999999996814206
vn -0.0002639999714371846 0.9999998918075174 -0.00038299995856205706
vn 0.0002639999714371846 -0.9999998918075174 0.00038299995856205706
vn 0.4848902257988841 0.25688811962511837 0.8359963892985295
vn -0.4848902257988841 -0.25688811962511837 -0.8359963892985295
vn 0.12787099709182997 0.28800599344987954 0.9490529784156886
vn -0.12787099709182997 -0.28800599344987954 -0.9490529784156886
vn 0.5546469903771521 0.25609099555694914 0.7916969862644534
vn -0.5546469903771521 -0.25609099555694914 -0.7916969862644534
usemtl material_0_0
f 1//1 2//1 3//2
f 3//3 2//4 1//4
f 4//5 2//1 1//1
f 1//4 2//4 4//6
f 3//7 2//8 5//8
f 5//9 2//9 3//10
f 5//11 1//12 3//13
f 3//14 1//15 5//16
f 6//17 2//18 4//19
f 4//20 2//21 6//22
f 7//23 4//24 1//23
f 1//25 4//26 7//25
f 2//8 8//27 5//8
f 5//9 8//28 2//9
f 9//29 1//12 5//11
f 5//16 1//15 9//30
f 6//17 8//31 2//18
f 2//21 8//32 6//22
f 6//17 4//19 10//33
f 10//34 4//20 6//22
f 10//33 4//19 7//35
f 7//36 4//20 10//34
f 7//23 1//23 11//37
f 11//38 1//25 7//25
f 5//39 8//40 12//41
f 12//42 8//43 5//44
f 13//45 1//12 9//29
f 9//30 1//15 13//46
f 5//39 12//41 9//47
f 9//48 12//42 5//44
f 6//17 12//49 8//31
f 8//32 12//50 6//22
f 14//51 6//17 10//33
f 10//34 6//22 14//52
f 15//53 10//54 7//55
f 7//56 10//57 15//58
f 15//59 11//59 1//12
f 1//15 11//60 15//60
f 15//53 7//55 11//61
f 11//62 7//56 15//58
f 16//63 1//12 13//45
f 13//46 1//15 16//64
f 13//65 9//47 17//66
f 17//67 9//48 13//68
f 9//47 12//41 17//66
f 17//67 12//42 9//48
f 6//17 18//69 12//49
f 12//50 18//70 6//22
f 19//71 6//17 14//51
f 14//52 6//22 19//72
f 14//51 10//33 20//60
f 20//59 10//34 14//52
f 15//53 21//73 10//54
f 10//57 21//74 15//58
f 21//75 15//59 1//12
f 1//15 15//60 21//76
f 22//77 1//12 16//63
f 16//64 1//15 22//78
f 13//65 17//66 16//79
f 16//80 17//67 13//68
f 17//66 12//41 18//81
f 18//82 12//42 17//67
f 6//17 23//83 18//69
f 18//70 23//84 6//22
f 19//71 24//85 6//17
f 6//22 24//86 19//72
f 25//87 19//87 14//88
f 14//89 19//90 25//90
f 21//73 20//91 10//54
f 10//57 20//92 21//74
f 14//51 20//60 26//60
f 26//59 20//59 14//52
f 25//93 21//75 1//12
f 1//15 21//76 25//94
f 27//95 1//12 22//77
f 22//78 1//15 27//96
f 22//97 16//79 28//98
f 28//99 16//80 22//100
f 16//79 17//66 29//101
f 29//102 17//67 16//80
f 17//66 18//81 29//101
f 29//102 18//82 17//67
f 29//101 23//103 6//104
f 6//105 23//106 29//102
f 29//101 18//81 23//103
f 23//106 18//82 29//102
f 19//107 30//108 24//109
f 24//110 30//111 19//112
f 24//85 31//113 6//17
f 6//22 31//114 24//86
f 25//87 32//115 19//87
f 19//90 32//116 25//90
f 21//117 25//118 14//117
f 14//119 25//120 21//119
f 21//73 26//121 20//91
f 20//92 26//122 21//74
f 21//117 14//117 26//123
f 26//124 14//119 21//119
f 25//93 1//12 27//95
f 27//96 1//15 25//94
f 27//95 22//77 33//125
f 33//126 22//78 27//96
f 16//79 29//101 28//98
f 28//99 29//102 16//80
f 22//97 28//98 33//127
f 33//128 28//99 22//100
f 28//98 29//101 6//104
f 6//105 29//102 28//99
f 32//129 30//108 19//107
f 19//112 30//111 32//130
f 30//131 31//132 24//133
f 24//134 31//135 30//136
f 31//113 34//137 6//17
f 6//22 34//138 31//114
f 25//93 35//139 32//140
f 32//141 35//142 25//94
f 25//93 27//95 35//139
f 35//142 27//96 25//94
f 27//143 33//127 36//144
f 36//145 33//128 27//146
f 33//127 28//98 37//147
f 37//148 28//99 33//128
f 28//98 6//104 37//147
f 37//148 6//105 28//99
f 32//129 38//149 30//108
f 30//111 38//150 32//130
f 39//151 31//132 30//131
f 30//136 31//135 39//152
f 36//144 34//153 31//132
f 31//135 34//154 36//145
f 34//137 40//155 6//17
f 6//22 40//156 34//138
f 32//140 35//139 38//157
f 38//158 35//142 32//141
f 27//143 39//151 35//159
f 35//160 39//152 27//146
f 33//127 37//147 36//144
f 36//145 37//148 33//128
f 27//143 36//144 39//151
f 39//152 36//145 27//146
f 37//147 6//104 40//161
f 40//162 6//105 37//148
f 38//163 39//151 30//131
f 30//136 39//152 38//164
f 39//151 36//144 31//132
f 31//135 36//145 39//152
f 36//144 37//147 34//153
f 34//154 37//148 36//145
f 37//147 40//161 34//153
f 34//154 40//162 37//148
f 35//159 39//151 38//163
f 38//164 39//152 35//160
