# SSTK version 0.8.0
# 7
mtllib original-7.mtl
o mesh7/mesh7-geometry#mesh7-geometry
v 0.330777 0.084666 0.428722
v -0.045644 0.084666 0.851489
v 0.326488 0.084666 0.284634
v 0.289889 0.084666 0.572811
v 0.299637 0.084666 0.157926
v 0.326488 0.109720 0.284634
v 0.330777 0.106568 0.428722
v 0.237555 0.084666 0.699519
v 0.263124 0.084666 0.063879
v 0.299637 0.111388 0.157926
v 0.289889 0.110098 0.572811
v 0.157376 0.084666 0.793566
v 0.215977 0.084666 0.001676
v 0.263124 0.111008 0.063879
v 0.006689 0.127745 0.428722
v 0.237555 0.108074 0.699519
v 0.059022 0.084666 0.851489
v -0.210950 0.084666 0.001676
v 0.215977 0.131510 0.001676
v 0.157376 0.107856 0.793566
v 0.059022 0.108796 0.846025
v -0.261755 0.084666 0.063879
v -0.210950 0.131510 0.001676
v -0.045644 0.108931 0.846025
v -0.297721 0.084666 0.157926
v -0.261755 0.109778 0.063879
v -0.143998 0.084666 0.793566
v -0.322213 0.084666 0.284634
v -0.297721 0.110524 0.157926
v -0.143998 0.109933 0.793566
v -0.224177 0.084666 0.699519
v -0.322392 0.084666 0.428722
v -0.322213 0.110448 0.284634
v -0.289531 0.084666 0.572810
v -0.224177 0.109477 0.699519
v -0.322392 0.110170 0.428722
v -0.289531 0.109366 0.572810
vn 0 -1 0
vn 0 1 0
vn 0.9960089870070629 0 -0.08925299883569464
vn 0.9974109089912456 0 0.07191299343829921
vn 0.9888895801155957 0 -0.1486519368821037
vn -0.9888895801155957 0 0.1486519368821037
vn -0.9974109089912456 0 -0.07191299343829921
vn -0.9960089870070629 0 0.08925299883569464
vn 0.9847657952908467 0 0.17388596385328514
vn 0.9508349769760066 0 0.30969799250081803
vn -0.9508349769760066 0 -0.30969799250081803
vn -0.9847657952908467 0 -0.17388596385328514
vn 0.9657159653032745 0 -0.25960099067292597
vn 0.950315265733844 0 -0.3112890870448457
vn -0.950315265733844 0 0.3112890870448457
vn -0.9657159653032745 0 0.25960099067292597
vn 0.9382338016761601 0 0.34600192686212045
vn -0.9382338016761601 0 -0.34600192686212045
vn 0.8794662996003599 0 0.4759611621416711
vn -0.8794662996003599 0 -0.4759611621416711
vn 0 -1 -0.0000010000000002215446
vn 0 1 0.0000010000000002215446
vn 0.8948014774227979 0 -0.4464642382117276
vn 0.8493251305731322 0 -0.5278700811534327
vn -0.8493251305731322 0 0.5278700811534327
vn -0.8948014774227979 0 0.4464642382117276
vn 0.06520297812124218 0.9978476651737691 0.006971997660557258
vn 0.06098602515402668 0.9980834116650775 0.01049800432996074
vn 0.0026389988769610715 0.9995825746227278 0.028769987756790686
vn -0.0026389988769610715 -0.9995825746227278 -0.028769987756790686
vn -0.06098602515402668 -0.9980834116650775 -0.01049800432996074
vn -0.06520297812124218 -0.9978476651737691 -0.006971997660557258
vn 0.0475460197848301 0.9988294156324835 -0.0088980037026334
vn -0.0475460197848301 -0.9988294156324835 0.0088980037026334
vn 0.0549689748963895 0.9983865440499486 0.014237993497695172
vn -0.0549689748963895 -0.9983865440499486 -0.014237993497695172
vn 0.8244353037380984 0 0.5659562085093418
vn -0.8244353037380984 0 -0.5659562085093418
vn 0.6848670472856196 0 0.7286680503097942
vn -0.6848670472856196 0 -0.7286680503097942
vn 0.7969501336784343 0 -0.6040451013210236
vn -0.7969501336784343 0 0.6040451013210236
vn 0.1437859916310085 0.9880379424917473 0.05573699675585629
vn -0.1437859916310085 -0.9880379424917473 -0.05573699675585629
vn 0.042940989461659834 0.9984317549704 0.03591799118520545
vn -0.042940989461659834 -0.9984317549704 -0.03591799118520545
vn 0.5877992935864231 0.06645903319410205 0.8062724027065589
vn -0.5877992935864231 -0.06645903319410205 -0.8062724027065589
vn 0.4876760715906087 0.0983770144416974 0.8674641273433095
vn -0.4876760715906087 -0.0983770144416974 -0.8674641273433095
vn 0.0001410000348091059 0.22027305437947622 0.9754382408093945
vn 0 0.22085397420812203 0.9753068861012302
vn 0 -0.22085397420812203 -0.9753068861012302
vn -0.0001410000348091059 -0.22027305437947622 -0.9754382408093945
vn 0 0 -1
vn 0 0 1
vn 0.12462800611767741 0.9897450485841113 0.06980400342650434
vn -0.12462800611767741 -0.9897450485841113 -0.06980400342650434
vn 0.03639700927350418 0.9985602544207031 0.0394040100396507
vn -0.03639700927350418 -0.9985602544207031 -0.0394040100396507
vn 0.4629630747525704 0.19576003160849373 0.8644901395853439
vn -0.4629630747525704 -0.19576003160849373 -0.8644901395853439
vn 0.00028200012848408185 0.21969110009502255 0.9755694444861249
vn -0.00028200012848408185 -0.21969110009502255 -0.9755694444861249
vn -0.7744981751218022 0 -0.6325761430318079
vn -0.8909349379080735 0 -0.4541309683502515
vn -0.8371497157140507 0 -0.5469738142542879
vn 0.8371497157140507 0 0.5469738142542879
vn 0.8909349379080735 0 0.4541309683502515
vn 0.7744981751218022 0 0.6325761430318079
vn -0.12444304569767252 0.9896003633986382 0.07214602649328856
vn 0.12444304569767252 -0.9896003633986382 -0.07214602649328856
vn 0.016453995757716184 0.9989267424497481 0.04329698883686893
vn -0.016453995757716184 -0.9989267424497481 -0.04329698883686893
vn -0.4867319462896194 0.09570498943905051 0.8682929041847516
vn -0.49817004189211694 0.19049001601868693 0.8458960711330955
vn 0.49817004189211694 -0.19049001601868693 -0.8458960711330955
vn 0.4867319462896194 -0.09570498943905051 -0.8682929041847516
vn -0.0058439987206962245 0.999000781309762 0.04430899030036453
vn 0.0058439987206962245 -0.999000781309762 -0.04430899030036453
vn -0.9691631274599816 0 -0.24642003240805588
vn -0.953176704169741 0 -0.30241390614207864
vn 0.953176704169741 0 0.30241390614207864
vn 0.9691631274599816 0 0.24642003240805588
vn -0.14293105233349973 0.9881183617946638 0.056505020689034804
vn 0.14293105233349973 -0.9881183617946638 -0.056505020689034804
vn -0.4706140828476164 0 0.8823391553283222
vn 0.4706140828476164 0 -0.8823391553283222
vn -0.02766498591473565 0.9989194914132563 0.03734298098731175
vn 0.02766498591473565 -0.9989194914132563 -0.03734298098731175
vn -0.9979277144884311 0 -0.06434498159061385
vn -0.9918456450477666 0 -0.1274449543912186
vn 0.9918456450477666 0 0.1274449543912186
vn 0.9979277144884311 0 0.06434498159061385
vn -0.04279099846955857 0.9989649642715192 -0.015424999448316969
vn 0.04279099846955857 -0.9989649642715192 0.015424999448316969
vn -0.8083058141684939 0 0.5887628646419611
vn -0.7609834045655197 0 0.6487713449096456
vn 0.7609834045655197 0 -0.6487713449096456
vn 0.8083058141684939 0 -0.5887628646419611
vn -0.046107021572604406 0.9985424671991574 0.02805501312641089
vn 0.046107021572604406 -0.9985424671991574 -0.02805501312641089
vn -0.9888882128755163 0 0.14866103200189215
vn -0.9972799400390441 0 0.07370699556840388
vn 0.9972799400390441 0 -0.07370699556840388
vn 0.9888882128755163 0 -0.14866103200189215
vn -0.050999980188424034 0.9986926120454465 -0.0034739986504818392
vn 0.050999980188424034 -0.9986926120454465 0.0034739986504818392
vn -0.8511441219859844 0 0.5249320752332705
vn 0.8511441219859844 0 -0.5249320752332705
vn -0.9239924285247195 0 0.38241076348475206
vn 0.9239924285247195 0 -0.38241076348475206
vn -0.051593013165223016 0.9984412547767805 0.02128900543241223
vn 0.051593013165223016 -0.9984412547767805 -0.02128900543241223
vn -0.9529364435939235 0 0.30317014112633983
vn 0.9529364435939235 0 -0.30317014112633983
vn -0.05332800049461721 0.9985290092613566 0.009795000090848847
vn 0.05332800049461721 -0.9985290092613566 -0.009795000090848847
usemtl material_0_0
f 1//1 2//1 3//1
f 3//2 2//2 1//2
f 1//1 4//1 2//1
f 2//2 4//2 1//2
f 3//1 2//1 5//1
f 5//2 2//2 3//2
f 6//3 1//4 3//5
f 3//6 1//7 6//8
f 7//9 4//10 1//4
f 1//7 4//11 7//12
f 4//1 8//1 2//1
f 2//2 8//2 4//2
f 5//1 2//1 9//1
f 9//2 2//2 5//2
f 10//13 3//5 5//14
f 5//15 3//6 10//16
f 6//3 7//9 1//4
f 1//7 7//12 6//8
f 10//13 6//3 3//5
f 3//6 6//8 10//16
f 7//9 11//17 4//10
f 4//11 11//18 7//12
f 11//17 8//19 4//10
f 4//11 8//20 11//18
f 8//1 12//21 2//1
f 2//2 12//22 8//2
f 9//1 2//1 13//1
f 13//2 2//2 9//2
f 14//23 5//14 9//24
f 9//25 5//15 14//26
f 14//23 10//13 5//14
f 5//15 10//16 14//26
f 7//27 6//28 15//29
f 15//30 6//31 7//32
f 6//28 10//33 15//29
f 15//30 10//34 6//31
f 7//27 15//29 11//35
f 11//36 15//30 7//32
f 11//17 16//37 8//19
f 8//20 16//38 11//18
f 16//37 12//39 8//19
f 8//20 12//40 16//38
f 12//21 17//21 2//1
f 2//2 17//22 12//22
f 13//1 2//1 18//1
f 18//2 2//2 13//2
f 19//41 9//24 13//41
f 13//42 9//25 19//42
f 19//41 14//23 9//24
f 9//25 14//26 19//42
f 10//33 14//43 15//29
f 15//30 14//44 10//34
f 11//35 15//29 16//45
f 16//46 15//30 11//36
f 16//37 20//47 12//39
f 12//40 20//48 16//38
f 20//47 17//49 12//39
f 12//40 17//50 20//48
f 21//51 2//51 17//52
f 17//53 2//54 21//54
f 2//1 22//1 18//1
f 18//2 22//2 2//2
f 23//55 13//55 18//55
f 18//56 13//56 23//56
f 19//55 13//55 23//55
f 23//56 13//56 19//56
f 14//43 19//57 15//29
f 15//30 19//58 14//44
f 16//45 15//29 20//59
f 20//60 15//30 16//46
f 21//61 17//49 20//47
f 20//48 17//50 21//62
f 24//63 2//51 21//51
f 21//54 2//54 24//64
f 2//1 25//1 22//1
f 22//2 25//2 2//2
f 18//65 22//66 26//67
f 26//68 22//69 18//70
f 18//65 26//67 23//65
f 23//70 26//68 18//70
f 19//57 23//71 15//29
f 15//30 23//72 19//58
f 20//59 15//29 21//73
f 21//74 15//30 20//60
f 24//75 27//75 2//76
f 2//77 27//78 24//78
f 21//73 15//29 24//79
f 24//80 15//30 21//74
f 2//1 28//1 25//1
f 25//2 28//2 2//2
f 22//66 25//81 29//82
f 29//83 25//84 22//69
f 22//66 29//82 26//67
f 26//68 29//83 22//69
f 15//29 23//71 26//85
f 26//86 23//72 15//30
f 30//87 27//75 24//75
f 24//78 27//78 30//88
f 2//1 27//1 31//1
f 31//2 27//2 2//2
f 15//29 30//89 24//79
f 24//80 30//90 15//30
f 2//1 32//1 28//1
f 28//2 32//2 2//2
f 25//81 28//91 33//92
f 33//93 28//94 25//84
f 25//81 33//92 29//82
f 29//83 33//93 25//84
f 15//29 26//85 29//95
f 29//96 26//86 15//30
f 31//97 27//98 30//98
f 30//99 27//99 31//100
f 2//1 31//1 34//1
f 34//2 31//2 2//2
f 15//29 35//101 30//89
f 30//90 35//102 15//30
f 2//1 34//1 32//1
f 32//2 34//2 2//2
f 28//91 32//103 36//104
f 36//105 32//106 28//94
f 28//91 36//104 33//92
f 33//93 36//105 28//94
f 15//29 29//95 33//107
f 33//108 29//96 15//30
f 31//97 30//98 35//109
f 35//110 30//99 31//100
f 34//111 31//97 35//109
f 35//110 31//100 34//112
f 15//29 37//113 35//101
f 35//102 37//114 15//30
f 32//103 34//111 37//115
f 37//116 34//112 32//106
f 32//103 37//115 36//104
f 36//105 37//116 32//106
f 15//29 33//107 36//117
f 36//118 33//108 15//30
f 34//111 35//109 37//115
f 37//116 35//110 34//112
f 15//29 36//117 37//113
f 37//114 36//118 15//30
