# Blender v2.79 (sub 0) OBJ File: ''
# www.blender.org
mtllib 1646_link_0_25.mtl
o Shape_IndexedFaceSet.025_Shape_IndexedFaceSet.5701
v 0.166291 0.317253 -0.075915
v 0.207337 0.333040 -0.142234
v 0.194705 0.317253 -0.170659
v 0.163128 0.333040 -0.082240
v 0.194705 0.317253 -0.101196
v 0.182082 0.333040 -0.075915
v 0.191546 0.333040 -0.167487
v 0.204178 0.314095 -0.170659
v 0.178923 0.314095 -0.075915
v 0.207337 0.333040 -0.170659
v 0.202331 0.333827 -0.119882
v 0.207337 0.320412 -0.145378
vn 0.9542 -0.1430 0.2626
vn -0.9157 -0.2935 -0.2746
vn -0.3018 0.3019 0.9043
vn -0.9412 -0.1253 -0.3138
vn -0.3148 -0.9444 -0.0944
vn -0.0000 0.0000 1.0000
vn 0.8476 -0.1413 0.5115
vn -0.2420 -0.9681 -0.0645
vn 0.3284 -0.9405 0.0875
vn -0.1945 0.1557 -0.9685
vn 0.0000 0.0000 -1.0000
vn 0.9066 0.0547 0.4185
vn -0.0052 0.9999 0.0155
vn -0.0295 0.9995 -0.0098
vn 0.1553 0.9879 0.0000
vn -0.0032 0.9999 -0.0158
vn 0.6117 -0.7821 0.1190
vn 1.0000 0.0000 0.0000
vn 0.9831 -0.1639 -0.0819
vn 0.9739 -0.0548 0.2201
usemtl Shape.5706
s off
f 11//1 5//1 12//1
f 3//2 1//2 4//2
f 4//3 1//3 6//3
f 3//4 4//4 7//4
f 1//5 3//5 8//5
f 6//6 1//6 9//6
f 5//7 6//7 9//7
f 1//8 8//8 9//8
f 8//9 5//9 9//9
f 3//10 7//10 10//10
f 8//11 3//11 10//11
f 6//12 5//12 11//12
f 4//13 6//13 11//13
f 7//14 4//14 11//14
f 2//15 10//15 11//15
f 10//16 7//16 11//16
f 5//17 8//17 12//17
f 10//18 2//18 12//18
f 8//19 10//19 12//19
f 2//20 11//20 12//20
