# Blender v2.79 (sub 0) OBJ File: ''
# www.blender.org
mtllib 1646_link_0_37.mtl
o Shape_IndexedFaceSet.037_Shape_IndexedFaceSet.5713
v 0.159970 0.361468 -0.236983
v 0.084175 0.393042 -0.278030
v 0.084175 0.396198 -0.278030
v 0.161917 0.377095 -0.279085
v 0.160023 0.401111 -0.266126
v 0.118927 0.383569 -0.236983
v 0.122072 0.367785 -0.243300
v 0.156809 0.380413 -0.236983
v 0.099970 0.383569 -0.278030
v 0.156810 0.397779 -0.276319
v 0.090496 0.399358 -0.271713
v 0.115766 0.374101 -0.236983
vn -0.7371 0.1640 0.6556
vn -0.0136 0.0000 -0.9999
vn 0.9970 0.0448 0.0627
vn -0.0969 -0.9316 -0.3503
vn 0.9622 0.1605 0.2201
vn 0.0675 0.8099 0.5827
vn 0.0000 0.0000 1.0000
vn -0.0206 -0.0344 -0.9992
vn -0.5133 -0.8559 -0.0623
vn -0.1031 -0.9286 -0.3564
vn 0.0203 0.1375 -0.9903
vn 0.8899 0.2690 -0.3684
vn 0.0010 0.9504 -0.3110
vn -0.0588 0.8898 0.4526
vn -0.0092 0.8980 -0.4400
vn -0.6979 0.2330 0.6772
vn -0.7925 0.0000 0.6099
vn -0.2265 -0.7925 0.5663
vn -0.6314 -0.7639 0.1335
usemtl Shape.5718
s off
f 11//1 3//1 12//1
f 2//2 3//2 4//2
f 1//3 4//3 5//3
f 4//4 1//4 7//4
f 1//5 5//5 8//5
f 5//6 6//6 8//6
f 6//7 1//7 8//7
f 2//8 4//8 9//8
f 7//9 2//9 9//9
f 4//10 7//10 9//10
f 4//11 3//11 10//11
f 5//12 4//12 10//12
f 5//13 10//13 11//13
f 6//14 5//14 11//14
f 10//15 3//15 11//15
f 6//16 11//16 12//16
f 3//17 2//17 12//17
f 1//7 6//7 12//7
f 7//18 1//18 12//18
f 2//19 7//19 12//19
