# Blender v2.79 (sub 0) OBJ File: ''
# www.blender.org
mtllib 1646_link_0_19.mtl
o Shape_IndexedFaceSet.019_Shape_IndexedFaceSet.5695
v 0.169456 0.333042 -0.278034
v 0.185239 0.333042 -0.278034
v 0.221469 0.335893 -0.173786
v 0.163138 0.430943 -0.170659
v 0.159983 0.430943 -0.278034
v 0.161893 0.341719 -0.173610
v 0.213651 0.430943 -0.278034
v 0.229448 0.430943 -0.170659
v 0.226279 0.358312 -0.240123
v 0.229448 0.336214 -0.192783
v 0.159983 0.351997 -0.170659
v 0.159983 0.374115 -0.278034
v 0.213651 0.374115 -0.274871
v 0.159983 0.339376 -0.189620
v 0.223398 0.426475 -0.238683
v 0.159983 0.430943 -0.195926
v 0.191789 0.336645 -0.174610
v 0.226725 0.339802 -0.174867
vn 0.6106 -0.7535 0.2437
vn 0.0000 -0.9996 0.0273
vn 0.0000 0.0000 -1.0000
vn 0.0000 1.0000 0.0000
vn 0.9981 0.0141 -0.0602
vn 0.0575 -0.9983 0.0073
vn 0.7004 -0.6276 -0.3399
vn -0.0246 -0.2801 0.9597
vn 0.0413 -0.0363 0.9985
vn 0.0000 0.0000 1.0000
vn -1.0000 0.0000 0.0000
vn 0.1881 -0.0546 -0.9806
vn 0.7371 -0.4727 -0.4829
vn 0.9368 -0.0194 -0.3493
vn -0.9640 -0.2215 0.1474
vn -0.9706 -0.2239 -0.0880
vn 0.7441 0.6591 -0.1095
vn 0.9708 0.0460 -0.2352
vn 0.9948 0.0440 -0.0914
vn -0.9915 0.0396 0.1238
vn -0.0264 -0.9988 0.0405
vn -0.0354 -0.3901 0.9201
vn -0.1130 -0.9918 0.0590
vn -0.1599 -0.9738 0.1616
vn 0.2381 -0.0519 0.9699
vn 0.9869 -0.0367 0.1574
usemtl Shape.5700
s off
f 3//1 10//1 18//1
f 1//2 2//2 3//2
f 2//3 1//3 5//3
f 5//4 4//4 7//4
f 2//3 5//3 7//3
f 7//4 4//4 8//4
f 9//5 8//5 10//5
f 3//6 2//6 10//6
f 2//7 9//7 10//7
f 6//8 3//8 11//8
f 3//9 8//9 11//9
f 8//10 4//10 11//10
f 5//3 1//3 12//3
f 11//11 5//11 12//11
f 2//12 7//12 13//12
f 9//13 2//13 13//13
f 7//14 9//14 13//14
f 6//15 11//15 14//15
f 12//16 1//16 14//16
f 11//11 12//11 14//11
f 7//17 8//17 15//17
f 9//18 7//18 15//18
f 8//19 9//19 15//19
f 4//4 5//4 16//4
f 5//11 11//11 16//11
f 11//20 4//20 16//20
f 1//21 3//21 17//21
f 3//22 6//22 17//22
f 14//23 1//23 17//23
f 6//24 14//24 17//24
f 8//25 3//25 18//25
f 10//26 8//26 18//26
