# Blender v2.79 (sub 0) OBJ File: ''
# www.blender.org
mtllib 1646_link_0_1.mtl
o Shape_IndexedFaceSet.001_Shape_IndexedFaceSet.5677
v -0.231272 0.577764 -0.224401
v 0.015462 0.587608 -0.171703
v 0.017855 0.516225 -0.170669
v 0.017855 0.490961 -0.281181
v -0.235147 0.457688 -0.171881
v -0.216592 0.457683 -0.279974
v 0.015492 0.587623 -0.280161
v -0.227876 0.586808 -0.172370
v -0.218972 0.585668 -0.278023
v -0.146356 0.456234 -0.170669
v -0.108496 0.456234 -0.281181
v -0.228129 0.458136 -0.245858
v -0.206413 0.586786 -0.279463
v -0.234703 0.580989 -0.172073
v -0.234613 0.457965 -0.205940
v 0.017855 0.490961 -0.278023
v -0.233976 0.580649 -0.199921
v -0.222127 0.585668 -0.268547
vn -0.9415 0.3066 -0.1401
vn 0.9994 0.0335 0.0003
vn 0.9997 0.0245 -0.0056
vn -0.0033 1.0000 0.0001
vn -0.0163 -0.9999 -0.0028
vn -0.0029 0.0105 -0.9999
vn -0.0135 -0.9999 -0.0046
vn -0.9473 -0.0127 -0.3202
vn -0.0038 1.0000 -0.0010
vn -0.1151 0.0130 -0.9933
vn -0.0032 0.0108 -0.9999
vn -0.0111 0.0048 -0.9999
vn -0.0019 0.0144 0.9999
vn -0.0029 0.0544 0.9985
vn -0.0033 0.0089 1.0000
vn -0.0136 0.0016 0.9999
vn -0.0524 -0.9986 -0.0089
vn -0.9871 0.0028 -0.1603
vn -0.0994 -0.9948 -0.0204
vn -0.9999 0.0036 -0.0156
vn 1.0000 0.0000 0.0000
vn 0.3351 -0.9171 0.2158
vn 0.2650 -0.9642 0.0000
vn 0.2619 -0.9609 0.0897
vn -0.6491 0.7602 -0.0262
vn -0.9938 0.0106 -0.1110
vn -0.9996 0.0065 -0.0262
vn -0.9795 0.0103 -0.2011
vn -0.9487 -0.0115 -0.3159
vn -0.0825 0.9964 -0.0167
vn -0.0921 0.9953 -0.0307
vn -0.6008 0.7981 -0.0454
usemtl Shape.5682
s off
f 1//1 17//1 18//1
f 2//2 3//2 7//2
f 3//3 4//3 7//3
f 2//4 7//4 8//4
f 5//5 6//5 10//5
f 7//6 4//6 11//6
f 10//7 6//7 11//7
f 9//8 6//8 12//8
f 8//9 7//9 13//9
f 6//10 9//10 13//10
f 7//11 11//11 13//11
f 11//12 6//12 13//12
f 3//13 2//13 14//13
f 2//14 8//14 14//14
f 10//15 3//15 14//15
f 5//16 10//16 14//16
f 6//17 5//17 15//17
f 1//18 12//18 15//18
f 12//19 6//19 15//19
f 5//20 14//20 15//20
f 4//21 3//21 16//21
f 3//22 10//22 16//22
f 11//23 4//23 16//23
f 10//24 11//24 16//24
f 14//25 8//25 17//25
f 1//26 15//26 17//26
f 15//27 14//27 17//27
f 12//28 1//28 18//28
f 9//29 12//29 18//29
f 8//30 13//30 18//30
f 13//31 9//31 18//31
f 17//32 8//32 18//32
