# Blender v2.79 (sub 0) OBJ File: ''
# www.blender.org
mtllib 1646_link_0_22.mtl
o Shape_IndexedFaceSet.022_Shape_IndexedFaceSet.5698
v -0.122321 0.356907 0.015151
v -0.212666 0.358306 -0.079073
v -0.001115 0.351990 -0.053800
v -0.001115 0.333042 0.047240
v -0.001115 0.358306 0.050409
v -0.168455 0.333042 -0.079073
v -0.135298 0.334850 0.003239
v -0.001115 0.339358 -0.028540
v -0.080053 0.358306 -0.069593
v -0.080053 0.345674 -0.079073
v -0.174771 0.358306 -0.022216
v -0.076773 0.339936 0.035857
v -0.200035 0.333042 -0.056956
v -0.001115 0.333042 0.012487
v -0.020062 0.358306 -0.044333
v -0.048494 0.355148 0.047240
v -0.001115 0.342516 -0.044333
v -0.136391 0.340054 0.006724
v -0.196866 0.339358 -0.047489
v -0.209498 0.333042 -0.079073
v -0.001115 0.355148 -0.050645
v -0.010599 0.333042 0.047240
v -0.094070 0.357075 0.029833
v -0.099918 0.337301 0.026114
vn -0.3814 -0.0607 0.9224
vn 1.0000 0.0000 0.0000
vn 0.0000 1.0000 -0.0000
vn 0.0000 0.0000 -1.0000
vn 0.0571 0.5993 -0.7985
vn 0.2037 0.5877 -0.7831
vn 0.0000 -1.0000 0.0000
vn 0.0830 -0.9849 -0.1516
vn 0.0958 -0.9761 -0.1952
vn 0.1308 -0.9155 -0.3805
vn 0.2723 -0.6801 -0.6806
vn -0.5773 0.0754 0.8131
vn -0.8108 0.2247 0.5404
vn -0.5282 -0.6141 0.5865
vn -0.6508 -0.2131 0.7287
vn -0.5587 -0.5393 0.6301
vn -0.9143 -0.1146 0.3886
vn -0.9119 -0.1273 0.3902
vn 0.1943 0.6933 -0.6940
vn 0.1543 0.9875 -0.0309
vn 0.0905 0.9724 -0.2149
vn 0.0000 -0.1245 0.9922
vn -0.0403 -0.9965 0.0733
vn -0.0596 -0.1022 0.9930
vn -0.1934 -0.3315 0.9234
vn -0.0922 0.9818 0.1662
vn -0.0281 0.9974 0.0671
vn -0.0845 0.9417 0.3256
vn -0.3578 -0.0331 0.9332
vn -0.4716 -0.0465 0.8806
vn -0.4204 -0.5642 0.7106
vn -0.1101 -0.9558 0.2726
vn -0.1883 -0.7388 0.6471
vn -0.4608 -0.0305 0.8870
usemtl Shape.5703
s off
f 12//1 23//1 24//1
f 4//2 3//2 5//2
f 3//2 4//2 8//2
f 2//3 5//3 9//3
f 6//4 2//4 10//4
f 2//5 9//5 10//5
f 9//6 3//6 10//6
f 5//3 2//3 11//3
f 6//7 4//7 13//7
f 4//7 6//7 14//7
f 8//2 4//2 14//2
f 6//8 8//8 14//8
f 9//3 5//3 15//3
f 3//2 8//2 17//2
f 8//9 6//9 17//9
f 6//10 10//10 17//10
f 10//11 3//11 17//11
f 1//12 11//12 18//12
f 11//13 2//13 19//13
f 13//14 7//14 19//14
f 18//15 11//15 19//15
f 7//16 18//16 19//16
f 2//4 6//4 20//4
f 6//7 13//7 20//7
f 19//17 2//17 20//17
f 13//18 19//18 20//18
f 5//2 3//2 21//2
f 3//19 9//19 21//19
f 15//20 5//20 21//20
f 9//21 15//21 21//21
f 4//22 5//22 22//22
f 13//7 4//7 22//7
f 7//23 13//23 22//23
f 5//24 16//24 22//24
f 16//25 12//25 22//25
f 11//26 1//26 23//26
f 5//27 11//27 23//27
f 16//28 5//28 23//28
f 12//29 16//29 23//29
f 1//30 18//30 24//30
f 18//31 7//31 24//31
f 7//32 22//32 24//32
f 22//33 12//33 24//33
f 23//34 1//34 24//34
