# Blender v2.79 (sub 0) OBJ File: ''
# www.blender.org
mtllib 1646_link_0_41.mtl
o Shape_IndexedFaceSet.041_Shape_IndexedFaceSet.5717
v 0.137872 0.317253 -0.022237
v 0.159957 0.329881 -0.075915
v 0.159957 0.333040 -0.075915
v 0.103131 0.329881 -0.019077
v 0.167354 0.333444 -0.050843
v 0.166277 0.314095 -0.075915
v 0.131559 0.333040 -0.015917
v 0.115765 0.314095 -0.015917
v 0.178911 0.317253 -0.072755
v 0.150483 0.314095 -0.034865
v 0.178911 0.333040 -0.075915
v 0.103131 0.333040 -0.015917
vn 0.0000 0.0000 1.0000
vn -0.7072 0.0000 -0.7070
vn 0.0000 0.0000 -1.0000
vn -0.6804 -0.2724 -0.6803
vn 0.6984 -0.0072 0.7157
vn -0.6146 -0.5954 -0.5174
vn 0.2989 -0.2492 0.9212
vn 0.2215 -0.9714 0.0852
vn 0.7039 -0.0276 0.7098
vn 0.0000 -1.0000 0.0000
vn 0.2543 -0.8475 0.4659
vn 0.7898 -0.2141 0.5748
vn 0.0000 0.9999 -0.0161
vn 0.9055 0.0833 0.4161
vn 0.2823 -0.1883 -0.9407
vn -0.5982 0.5667 -0.5666
vn -0.0130 0.9998 -0.0123
vn 0.0000 0.9999 0.0116
vn -0.7275 -0.4852 0.4850
usemtl Shape.5722
s off
f 8//1 7//1 12//1
f 3//2 2//2 4//2
f 2//3 3//3 6//3
f 4//4 2//4 6//4
f 1//5 5//5 7//5
f 4//6 6//6 8//6
f 1//7 7//7 8//7
f 6//8 9//8 10//8
f 5//9 1//9 10//9
f 8//10 6//10 10//10
f 1//11 8//11 10//11
f 9//12 5//12 10//12
f 3//13 5//13 11//13
f 6//3 3//3 11//3
f 5//14 9//14 11//14
f 9//15 6//15 11//15
f 3//16 4//16 12//16
f 5//17 3//17 12//17
f 7//18 5//18 12//18
f 4//19 8//19 12//19
