# Blender v2.79 (sub 0) OBJ File: ''
# www.blender.org
mtllib 1646_link_0_20.mtl
o Shape_IndexedFaceSet.020_Shape_IndexedFaceSet.5696
v -0.171632 0.333040 -0.079082
v -0.171632 0.326723 -0.079082
v -0.200053 0.333040 -0.170650
v -0.204051 0.333879 -0.102535
v -0.206367 0.314095 -0.167485
v -0.184265 0.314095 -0.079082
v -0.215845 0.320412 -0.154855
v -0.215845 0.333040 -0.170650
v -0.203212 0.317253 -0.104352
v -0.190273 0.333971 -0.074581
v -0.174791 0.317253 -0.082247
vn 0.2932 -0.9532 -0.0733
vn 0.9551 0.0000 -0.2964
vn -0.9647 0.2058 0.1645
vn 0.0000 0.9999 -0.0123
vn 0.0000 -0.1648 -0.9863
vn -0.8041 -0.4643 -0.3712
vn -0.2421 -0.9684 0.0605
vn -0.4891 -0.8696 0.0679
vn -0.9685 -0.0748 0.2376
vn 0.2347 0.0000 0.9721
vn 0.0464 0.9988 -0.0144
vn 0.0164 0.9998 -0.0114
vn 0.1688 -0.1689 0.9711
vn -0.8929 -0.0932 0.4404
vn -0.7692 -0.3531 0.5326
vn 0.9298 -0.2089 -0.3030
vn 0.8836 -0.3470 -0.3145
vn 0.4089 -0.4090 0.8158
usemtl Shape.5701
s off
f 6//1 5//1 11//1
f 1//2 2//2 3//2
f 7//3 4//3 8//3
f 4//4 3//4 8//4
f 3//5 5//5 8//5
f 5//6 7//6 8//6
f 5//7 6//7 9//7
f 7//8 5//8 9//8
f 4//9 7//9 9//9
f 2//10 1//10 10//10
f 1//11 3//11 10//11
f 3//12 4//12 10//12
f 6//13 2//13 10//13
f 4//14 9//14 10//14
f 9//15 6//15 10//15
f 3//16 2//16 11//16
f 5//17 3//17 11//17
f 2//18 6//18 11//18
