####
#
# OBJ File Generated by Meshlab
#
####
# Object 100470_link_0_7.obj
#
# Vertices: 23
# Faces: 42
#
####
mtllib ./100470_link_0_7.obj.mtl

vn 0.045969 -0.989010 0.140518
v -0.162166 0.932592 -0.081306
vn 0.705641 0.666805 0.239671
v -0.130303 1.049718 -0.069739
vn 0.845960 0.511956 -0.149170
v -0.128393 1.050461 -0.101286
vn -0.883455 0.466504 0.043363
v -0.248557 0.986308 -0.084120
vn -0.286782 -0.757778 -0.586113
v -0.199195 0.957956 -0.131410
vn 0.765304 -0.061763 0.640698
v -0.122439 1.003542 -0.045262
vn 0.846787 -0.122386 -0.517662
v -0.117894 0.991619 -0.122716
vn -0.362107 -0.646316 0.671681
v -0.222473 0.967663 -0.050297
vn -0.142644 0.432772 -0.890147
v -0.163370 1.053449 -0.143902
vn -0.742575 0.350301 -0.570851
v -0.241557 0.979879 -0.119901
vn -0.143674 0.332216 0.932196
v -0.166505 1.051478 -0.028390
vn -0.417324 0.908616 -0.016022
v -0.177643 1.082218 -0.088886
vn 0.693655 -0.490461 0.527533
v -0.117835 0.979342 -0.059926
vn 0.134970 -0.507809 0.850831
v -0.190643 0.952019 -0.047208
vn 0.266031 -0.036510 -0.963273
v -0.133130 1.025060 -0.143960
vn -0.707625 0.383334 0.593568
v -0.249842 0.989582 -0.053525
vn -0.973032 0.009466 -0.230474
v -0.246898 0.986236 -0.100883
vn -0.194305 -0.055217 -0.979386
v -0.232241 0.974960 -0.129322
vn -0.506254 0.796076 0.331618
v -0.172880 1.076211 -0.061276
vn 0.347428 -0.699042 -0.625007
v -0.173331 0.941398 -0.120997
vn 0.702065 -0.678417 -0.216460
v -0.113222 0.972080 -0.099417
vn -0.474938 0.733617 -0.486046
v -0.173718 1.074992 -0.116999
vn 0.276077 -0.083232 0.957525
v -0.133133 1.029478 -0.029702
# 23 vertices, 0 vertices normals


usemtl material_0
f 11//11 8//8 23//23
f 3//3 2//2 6//6
f 3//3 6//6 7//7
f 5//5 1//1 8//8
f 2//2 3//3 12//12
f 7//7 6//6 13//13
f 8//8 1//1 14//14
f 6//6 8//8 14//14
f 1//1 13//13 14//14
f 13//13 6//6 14//14
f 7//7 5//5 15//15
f 3//3 7//7 15//15
f 9//9 3//3 15//15
f 4//4 8//8 16//16
f 8//8 11//11 16//16
f 8//8 4//4 17//17
f 5//5 8//8 17//17
f 10//10 5//5 17//17
f 4//4 12//12 17//17
f 5//5 10//10 18//18
f 10//10 9//9 18//18
f 15//15 5//5 18//18
f 9//9 15//15 18//18
f 11//11 2//2 19//19
f 2//2 12//12 19//19
f 12//12 4//4 19//19
f 4//4 16//16 19//19
f 16//16 11//11 19//19
f 1//1 5//5 20//20
f 5//5 7//7 20//20
f 20//20 7//7 21//21
f 13//13 1//1 21//21
f 7//7 13//13 21//21
f 1//1 20//20 21//21
f 3//3 9//9 22//22
f 9//9 10//10 22//22
f 12//12 3//3 22//22
f 10//10 17//17 22//22
f 17//17 12//12 22//22
f 6//6 2//2 23//23
f 8//8 6//6 23//23
f 2//2 11//11 23//23
# 42 faces, 0 coords texture

# End of File
