# Blender v2.79 (sub 0) OBJ File: ''
# www.blender.org
mtllib 100470_link_1_20.mtl
o Shape_IndexedFaceSet.020_Shape_IndexedFaceSet.7823
v -0.552406 0.436544 0.128605
v -0.392549 -0.437908 0.130243
v -0.375471 0.499749 0.292919
v -0.289688 -0.426325 0.299128
v -0.419717 -0.410309 0.236043
v -0.476583 0.455460 0.128605
v -0.463938 0.461826 0.299250
v -0.457628 -0.410309 0.128605
v -0.375471 -0.410309 0.299250
v -0.514494 0.455460 0.229712
v -0.513159 0.499203 0.148599
v -0.426027 0.510658 0.297762
v -0.399453 -0.434377 0.124184
v -0.470248 -0.296449 0.141250
v -0.514494 0.487108 0.229712
v -0.369160 0.442910 0.292919
v -0.407071 -0.397668 0.261316
v -0.482894 0.499749 0.141250
v -0.401138 0.511821 0.297976
v -0.546095 0.455460 0.153894
v -0.297541 -0.417964 0.300656
v -0.552406 0.480742 0.134936
v -0.520805 0.455460 0.217084
v -0.482894 0.487108 0.128605
v -0.419717 -0.151124 0.128605
vn 0.8372 0.0785 -0.5413
vn -0.3896 -0.9106 0.1375
vn -0.1804 -0.9677 0.1763
vn -0.2587 -0.9488 0.1811
vn -0.0794 -0.0089 -0.9968
vn -0.3867 -0.9174 -0.0940
vn -0.9937 -0.1112 0.0097
vn -0.9337 -0.1401 0.3295
vn -0.8088 0.0000 0.5880
vn -0.3489 0.9277 0.1326
vn -0.6093 0.4920 0.6219
vn 0.8495 0.0739 -0.5224
vn 0.3421 0.0380 0.9389
vn 0.8366 0.0929 -0.5399
vn -0.7787 -0.3108 0.5451
vn -0.7787 -0.0790 0.6224
vn -0.8028 -0.0792 0.5909
vn -0.8714 -0.0919 0.4820
vn -0.0462 0.9977 -0.0496
vn -0.0104 0.0385 0.9992
vn 0.3683 0.8924 -0.2609
vn -0.0325 0.9977 -0.0599
vn -0.9451 -0.1006 0.3111
vn 0.2183 0.0268 0.9755
vn -0.0387 -0.2147 0.9759
vn -0.0182 -0.0018 0.9998
vn 0.2048 0.0256 0.9785
vn 0.0165 0.0047 0.9999
vn -0.4573 0.8806 0.1238
vn -0.1598 0.7839 -0.6000
vn -0.9624 -0.0385 0.2690
vn -0.9286 0.0445 0.3685
vn -0.8905 -0.0942 0.4451
vn -0.9228 -0.0996 0.3723
vn -0.8945 0.0000 0.4470
vn -0.9238 -0.0994 0.3697
vn -0.9278 0.0368 0.3713
vn 0.8199 0.1635 -0.5486
vn -0.0033 0.0045 -1.0000
vn 0.0440 0.0088 -0.9990
vn 0.7065 0.5005 -0.5004
vn -0.1026 0.1410 -0.9847
vn -0.1281 0.7014 -0.7012
vn 0.5742 0.0538 -0.8170
vn 0.6755 0.0598 -0.7349
vn 0.8409 0.0766 -0.5357
usemtl Shape.7824
s off
f 6//1 16//1 25//1
f 2//2 5//2 8//2
f 2//3 4//3 9//3
f 5//4 2//4 9//4
f 8//5 1//5 13//5
f 2//6 8//6 13//6
f 1//7 8//7 14//7
f 8//8 5//8 14//8
f 10//9 7//9 15//9
f 12//10 11//10 15//10
f 7//11 12//11 15//11
f 4//12 2//12 16//12
f 3//13 4//13 16//13
f 6//14 3//14 16//14
f 5//15 9//15 17//15
f 9//16 7//16 17//16
f 7//17 10//17 17//17
f 10//18 5//18 17//18
f 11//19 12//19 19//19
f 12//20 7//20 19//20
f 3//21 18//21 19//21
f 18//22 11//22 19//22
f 1//23 14//23 20//23
f 4//24 3//24 21//24
f 9//25 4//25 21//25
f 7//26 9//26 21//26
f 3//27 19//27 21//27
f 19//28 7//28 21//28
f 15//29 11//29 22//29
f 11//30 18//30 22//30
f 1//31 20//31 22//31
f 20//32 15//32 22//32
f 5//33 10//33 23//33
f 14//34 5//34 23//34
f 10//35 15//35 23//35
f 20//36 14//36 23//36
f 15//37 20//37 23//37
f 3//38 6//38 24//38
f 13//39 1//39 24//39
f 6//40 13//40 24//40
f 18//41 3//41 24//41
f 1//42 22//42 24//42
f 22//43 18//43 24//43
f 13//44 6//44 25//44
f 2//45 13//45 25//45
f 16//46 2//46 25//46
