# Blender v2.79 (sub 0) OBJ File: ''
# www.blender.org
mtllib 100470_link_1_23.mtl
o Shape_IndexedFaceSet.023_Shape_IndexedFaceSet.7826
v -0.065822 -0.416865 0.406681
v 0.092697 -0.419889 0.387342
v 0.060623 -0.416629 0.463564
v 0.104847 0.499752 0.425671
v -0.059455 0.512372 0.507803
v -0.065778 0.506062 0.438306
v 0.111187 0.398602 0.495168
v -0.065778 -0.384985 0.469887
v 0.111187 -0.416629 0.450917
v -0.008874 0.366958 0.507803
v 0.111596 -0.418819 0.387477
v 0.111187 0.518682 0.431982
v 0.111187 0.512372 0.495168
v -0.065778 0.423843 0.507803
v 0.003737 -0.416629 0.469887
v -0.064403 0.524031 0.488207
v -0.040487 -0.321789 0.476210
v 0.029010 0.493441 0.507803
v 0.098542 -0.296455 0.463564
v -0.046810 -0.416629 0.469887
v -0.065778 0.158348 0.425659
v 0.109558 0.522672 0.475675
v -0.064241 0.523163 0.457076
vn 0.0125 0.9958 -0.0905
vn -0.0722 0.0425 -0.9965
vn 0.0119 -0.9988 0.0477
vn 0.1165 -0.0457 0.9921
vn 0.0048 0.0416 -0.9991
vn 0.0562 -0.9978 0.0348
vn 1.0000 -0.0004 0.0065
vn -0.0574 0.3330 -0.9412
vn 0.6484 0.0364 -0.7605
vn 1.0000 0.0004 0.0000
vn 1.0000 0.0000 0.0038
vn -1.0000 0.0000 0.0001
vn -1.0000 -0.0000 0.0007
vn 0.0000 0.0000 1.0000
vn 0.0050 -0.9990 0.0448
vn 0.1104 -0.0463 0.9928
vn 0.0373 0.8629 0.5040
vn -0.9996 0.0178 0.0211
vn -0.9569 0.0683 0.2823
vn -0.1316 -0.0464 0.9902
vn -0.0438 -0.0438 0.9981
vn 0.0405 -0.0476 0.9980
vn 0.1135 -0.0340 0.9930
vn 0.1520 0.0000 0.9884
vn 0.0698 0.3262 0.9427
vn 0.1510 -0.0476 0.9874
vn 0.2419 -0.0763 0.9673
vn 0.4354 -0.0488 0.8989
vn -0.0180 -0.9998 0.0091
vn -0.8301 -0.4976 0.2516
vn 0.0000 -0.9992 0.0395
vn -0.0994 -0.0596 0.9933
vn 0.0000 -0.0665 0.9978
vn -0.1204 0.0327 -0.9922
vn -0.1084 0.0361 -0.9935
vn -0.9997 0.0008 -0.0226
vn 0.9813 0.1914 0.0191
vn 0.0404 0.8848 0.4642
vn 0.0058 0.9996 -0.0278
vn -0.0767 0.7401 -0.6681
vn -0.9951 0.0981 -0.0079
usemtl Shape.7827
s off
f 22//1 12//1 23//1
f 4//2 2//2 6//2
f 3//3 2//3 9//3
f 3//4 7//4 10//4
f 2//5 4//5 11//5
f 9//6 2//6 11//6
f 7//7 9//7 11//7
f 4//8 6//8 12//8
f 11//9 4//9 12//9
f 11//10 12//10 13//10
f 7//11 11//11 13//11
f 6//12 1//12 14//12
f 1//13 8//13 14//13
f 10//14 5//14 14//14
f 2//15 3//15 15//15
f 3//16 10//16 15//16
f 5//17 13//17 16//17
f 6//18 14//18 16//18
f 14//19 5//19 16//19
f 14//20 8//20 17//20
f 10//21 14//21 17//21
f 15//22 10//22 17//22
f 10//23 7//23 18//23
f 5//14 10//14 18//14
f 7//24 13//24 18//24
f 13//25 5//25 18//25
f 7//26 3//26 19//26
f 3//27 9//27 19//27
f 9//28 7//28 19//28
f 1//29 2//29 20//29
f 8//30 1//30 20//30
f 2//31 15//31 20//31
f 17//32 8//32 20//32
f 15//33 17//33 20//33
f 2//34 1//34 21//34
f 6//35 2//35 21//35
f 1//36 6//36 21//36
f 13//37 12//37 22//37
f 16//38 13//38 22//38
f 16//39 22//39 23//39
f 12//40 6//40 23//40
f 6//41 16//41 23//41
