# Blender v2.79 (sub 0) OBJ File: ''
# www.blender.org
mtllib 100470_link_1_6.mtl
o Shape_IndexedFaceSet.006_Shape_IndexedFaceSet.7809
v -0.257638 -0.512086 -0.266155
v -0.059457 -0.454550 -0.010439
v -0.245727 -0.457353 -0.022897
v -0.261325 -0.472939 -0.270913
v -0.059457 -0.511431 -0.237954
v -0.255383 -0.492467 -0.016774
v -0.059457 -0.473514 -0.263245
v -0.059457 -0.492467 -0.016774
v -0.255383 -0.454550 -0.092620
v -0.059457 -0.454550 -0.086285
v -0.116340 -0.467194 -0.244265
v -0.059457 -0.511431 -0.263245
vn 1.0000 0.0000 0.0000
vn -0.0684 0.1896 0.9795
vn -0.9956 -0.0918 0.0162
vn -0.0079 -0.9969 0.0785
vn 0.0000 -0.1648 0.9863
vn 0.0000 -0.9963 0.0854
vn -0.0179 0.9989 0.0426
vn -0.9477 0.2855 0.1427
vn -0.9981 0.0552 0.0276
vn 0.0000 1.0000 0.0000
vn 0.0026 0.9967 -0.0807
vn 0.0134 0.9600 -0.2796
vn -0.0207 0.9946 -0.1019
vn 0.0747 0.9915 -0.1063
vn 0.0150 -0.1193 -0.9928
vn 0.0033 -1.0000 0.0000
vn 0.0380 0.0000 -0.9993
usemtl Shape.7810
s off
f 7//1 5//1 12//1
f 2//2 3//2 6//2
f 4//3 1//3 6//3
f 1//4 5//4 6//4
f 2//1 5//1 7//1
f 5//1 2//1 8//1
f 2//5 6//5 8//5
f 6//6 5//6 8//6
f 3//7 2//7 9//7
f 6//8 3//8 9//8
f 4//9 6//9 9//9
f 2//1 7//1 10//1
f 9//10 2//10 10//10
f 9//11 10//11 11//11
f 7//12 4//12 11//12
f 4//13 9//13 11//13
f 10//14 7//14 11//14
f 1//15 4//15 12//15
f 5//16 1//16 12//16
f 4//17 7//17 12//17
