####
#
# OBJ File Generated by Meshlab
#
####
# Object 100470_link_0_13.obj
#
# Vertices: 28
# Faces: 52
#
####
mtllib ./100470_link_0_13.obj.mtl

vn 0.988606 0.150414 0.005829
v 0.560787 0.537646 0.008619
vn -0.989082 0.050405 0.138477
v 0.413195 0.634757 -0.007567
vn -0.876289 -0.130430 0.463794
v 0.409171 0.545103 -0.000952
vn -0.349516 0.268771 0.897553
v 0.454847 0.639134 0.056264
vn 0.466880 0.524035 -0.712327
v 0.492783 0.645325 -0.032997
vn -0.485144 -0.554427 -0.676200
v 0.474539 0.443844 -0.019416
vn -0.289365 -0.230477 0.929058
v 0.475698 0.458756 0.064531
vn 0.773494 -0.346200 -0.530897
v 0.527261 0.454950 -0.013456
vn 0.436166 0.694749 0.571912
v 0.496866 0.650296 0.028246
vn 0.652750 0.000005 0.757573
v 0.531428 0.478159 0.068238
vn -0.641436 -0.059761 -0.764845
v 0.455380 0.628346 -0.061231
vn -0.976483 -0.209790 0.049694
v 0.434788 0.468974 0.050382
vn -0.897324 0.439205 -0.043692
v 0.434184 0.640991 0.018101
vn 0.764452 0.404127 -0.502290
v 0.528129 0.642287 -0.013480
vn 0.112315 -0.220399 -0.968922
v 0.507426 0.490079 -0.059756
vn 0.914465 -0.352931 0.197975
v 0.554104 0.469918 0.029028
vn -0.612660 -0.223902 -0.757968
v 0.435909 0.459176 -0.014029
vn -0.614358 0.156920 -0.773266
v 0.438810 0.638841 -0.026505
vn -0.163117 -0.004211 0.986598
v 0.500808 0.496589 0.084653
vn 0.601533 -0.047650 -0.797426
v 0.560600 0.484290 -0.012811
vn 0.847596 0.311880 0.429315
v 0.539054 0.624438 0.024847
vn 0.518854 0.306207 0.798140
v 0.490746 0.628776 0.067745
vn 0.239192 -0.947218 0.213459
v 0.509548 0.446843 0.050030
vn 0.801025 0.174269 -0.572703
v 0.491463 0.606505 -0.070126
vn -0.808900 -0.451016 0.377181
v 0.458594 0.445258 0.024916
vn -0.641077 0.049095 0.765905
v 0.425135 0.608413 0.056230
vn -0.429163 -0.400908 -0.809377
v 0.495816 0.447835 -0.033529
vn 0.608367 0.196384 0.768975
v 0.556261 0.495094 0.052155
# 28 vertices, 0 vertices normals


usemtl material_0
f 16//16 21//21 28//28
f 4//4 9//9 13//13
f 9//9 5//5 13//13
f 5//5 9//9 14//14
f 3//3 2//2 17//17
f 5//5 11//11 18//18
f 11//11 6//6 18//18
f 2//2 13//13 18//18
f 13//13 5//5 18//18
f 17//17 2//2 18//18
f 6//6 17//17 18//18
f 4//4 7//7 19//19
f 7//7 10//10 19//19
f 8//8 5//5 20//20
f 14//14 1//1 20//20
f 5//5 14//14 20//20
f 1//1 16//16 20//20
f 16//16 8//8 20//20
f 1//1 14//14 21//21
f 14//14 9//9 21//21
f 16//16 1//1 21//21
f 9//9 4//4 22//22
f 10//10 9//9 22//22
f 4//4 19//19 22//22
f 19//19 10//10 22//22
f 6//6 8//8 23//23
f 10//10 7//7 23//23
f 8//8 16//16 23//23
f 16//16 10//10 23//23
f 5//5 8//8 24//24
f 11//11 5//5 24//24
f 8//8 15//15 24//24
f 15//15 11//11 24//24
f 2//2 3//3 25//25
f 7//7 12//12 25//25
f 12//12 13//13 25//25
f 13//13 2//2 25//25
f 3//3 17//17 25//25
f 17//17 6//6 25//25
f 6//6 23//23 25//25
f 23//23 7//7 25//25
f 7//7 4//4 26//26
f 12//12 7//7 26//26
f 13//13 12//12 26//26
f 4//4 13//13 26//26
f 8//8 6//6 27//27
f 6//6 11//11 27//27
f 15//15 8//8 27//27
f 11//11 15//15 27//27
f 9//9 10//10 28//28
f 10//10 16//16 28//28
f 21//21 9//9 28//28
# 52 faces, 0 coords texture

# End of File
