# Blender v2.79 (sub 0) OBJ File: ''
# www.blender.org
mtllib 102645_link_3_1.mtl
o Shape_IndexedFaceSet.001_Shape_IndexedFaceSet.6752
v -0.074188 0.049397 0.661096
v -0.203510 0.049397 0.231753
v -0.291449 0.041629 0.598979
v -0.141419 0.093364 0.800804
v -0.211279 0.090776 0.231696
v -0.374247 0.044222 0.231696
v -0.366478 0.093364 0.231696
v -0.120741 0.041629 0.774940
v -0.092295 0.093364 0.635233
v -0.219048 0.041629 0.231696
v -0.208680 0.049397 0.761952
v -0.275941 0.090776 0.661096
v -0.361309 0.051985 0.407658
v -0.376817 0.085600 0.306745
v -0.081927 0.083013 0.632635
v -0.317325 0.049397 0.578311
v -0.076757 0.044222 0.648165
v -0.120741 0.085600 0.795608
v -0.149188 0.044222 0.805942
v -0.162126 0.088188 0.805942
v -0.319925 0.093364 0.518904
v -0.203510 0.088188 0.231753
v -0.363879 0.041629 0.260214
v -0.110403 0.044222 0.782677
v -0.260403 0.049397 0.692098
v -0.237126 0.090776 0.723213
v -0.353540 0.044222 0.420589
v -0.343202 0.090776 0.477511
v -0.089696 0.041629 0.676625
v -0.379417 0.049397 0.255018
v -0.319925 0.085600 0.573115
v -0.376817 0.090776 0.231696
v -0.237126 0.044222 0.720559
v -0.350941 0.054568 0.461982
v -0.288849 0.049397 0.642969
v -0.107803 0.059743 0.785274
v -0.092295 0.090776 0.674028
v -0.188002 0.041629 0.754216
v -0.281110 0.093364 0.632635
v -0.361309 0.080425 0.410255
v -0.371648 0.051985 0.342999
v -0.087096 0.090776 0.630094
v -0.208680 0.044222 0.231753
v -0.159556 0.093364 0.800804
v -0.185403 0.049397 0.785274
v -0.371648 0.090776 0.317136
v -0.371648 0.044222 0.306745
v -0.224218 0.064919 0.743882
v -0.263002 0.088188 0.686960
v -0.125911 0.090776 0.798206
v -0.120741 0.044222 0.795608
v -0.361309 0.041629 0.231696
v -0.278510 0.044222 0.653360
v -0.361309 0.093364 0.317136
v -0.379417 0.088188 0.242087
v -0.306957 0.041629 0.555045
v -0.185403 0.044222 0.780079
v -0.361309 0.088188 0.402462
v -0.332833 0.051985 0.529182
v -0.112973 0.093364 0.736145
v -0.291449 0.090776 0.630038
v -0.102634 0.046809 0.767147
v -0.190572 0.085600 0.777538
v -0.376817 0.064919 0.309343
vn -0.9884 0.0002 0.1519
vn 0.0000 0.0000 -1.0000
vn -0.0000 1.0000 -0.0000
vn 0.0167 0.9998 -0.0113
vn 0.0040 -0.0006 -1.0000
vn 0.0000 -1.0000 -0.0000
vn 0.9762 0.0452 -0.2120
vn 0.0073 0.0000 -1.0000
vn 0.3151 0.9439 -0.0990
vn 0.9567 0.0000 -0.2912
vn 0.9569 0.0114 -0.2901
vn 0.1213 -0.9920 -0.0353
vn 0.4049 -0.9088 0.1013
vn 0.1984 -0.9781 0.0627
vn -0.7604 -0.3237 0.5630
vn -0.8307 -0.5256 0.1835
vn -0.9151 -0.0079 0.4030
vn 0.9215 0.3517 0.1648
vn 0.9170 0.3323 0.2205
vn 0.9042 0.3617 0.2270
vn -0.0200 -0.9977 0.0651
vn -0.0965 -0.9933 0.0643
vn -0.1994 0.9720 0.1246
vn -0.9632 0.1192 0.2410
vn -0.9820 -0.0172 0.1882
vn -0.9653 0.0975 0.2422
vn -0.7994 -0.5871 0.1278
vn -0.9874 -0.0144 0.1579
vn 0.3541 0.9288 -0.1095
vn 0.8418 0.4789 -0.2491
vn 0.4902 0.8696 0.0580
vn 0.8137 0.5733 0.0963
vn 0.0073 -0.0073 -0.9999
vn 0.6903 -0.6897 -0.2187
vn 0.2423 -0.9672 -0.0768
vn 0.0000 0.7045 0.7097
vn -0.5011 0.7222 0.4769
vn -0.1191 0.9891 0.0861
vn -0.7070 0.0483 0.7056
vn -0.5061 -0.1489 0.8495
vn -0.2428 0.9700 0.0147
vn -0.2664 -0.9638 0.0092
vn -0.1684 -0.9854 0.0268
vn -0.6544 -0.7558 0.0227
vn -0.7963 -0.5915 0.1267
vn -0.8984 -0.4295 0.0920
vn -0.7987 -0.1110 0.5914
vn -0.8146 0.0550 0.5775
vn -0.5831 0.7261 0.3644
vn -0.8884 0.0790 0.4523
vn -0.8654 0.0084 0.5011
vn -0.8224 0.0202 0.5686
vn 0.1925 0.1863 0.9635
vn 0.2044 0.0602 0.9770
vn 0.7417 0.6400 0.2008
vn 0.0452 -0.9912 0.1244
vn 0.1539 -0.9804 0.1230
vn 0.6241 0.0000 0.7814
vn 0.7603 -0.2291 0.6078
vn 0.4490 0.0000 0.8935
vn 0.3414 -0.0145 0.9398
vn -0.1965 -0.9803 -0.0177
vn -0.1248 -0.9892 0.0769
vn -0.6186 -0.6872 0.3809
vn -0.6410 -0.7138 0.2823
vn -0.7014 -0.5858 0.4061
vn -0.1723 0.9844 0.0353
vn -0.2426 0.9692 0.0430
vn -0.9771 -0.0672 -0.2017
vn -0.9991 0.0136 0.0407
vn -0.9655 -0.0533 -0.2549
vn -0.7609 0.6465 0.0565
vn -0.6250 0.7797 0.0378
vn -0.4042 -0.9064 0.1225
vn -0.1247 -0.9919 0.0241
vn -0.3794 -0.9155 0.1339
vn -0.3824 -0.9141 0.1348
vn -0.5084 -0.7392 0.4418
vn -0.0765 -0.9913 0.1071
vn -0.1286 -0.9854 0.1117
vn -0.5773 -0.5785 0.5762
vn -0.4501 -0.6327 0.6302
vn -0.9759 0.1545 0.1539
vn -0.9495 0.2223 0.2214
vn -0.8091 0.5761 0.1155
vn -0.4733 0.8769 0.0839
vn -0.6930 -0.6976 0.1820
vn -0.9537 -0.0255 0.2997
vn -0.7975 -0.5716 0.1929
vn -0.9649 0.0292 0.2611
vn 0.3089 0.9490 0.0633
vn 0.1768 0.9812 0.0778
vn 0.5504 0.8215 0.1490
vn -0.2688 0.9589 0.0912
vn -0.4852 0.8588 0.1646
vn -0.8916 0.0831 0.4452
vn -0.8943 0.0813 0.4400
vn -0.2630 0.9606 0.0898
vn -0.2726 0.9524 0.1361
vn 0.6641 -0.7303 0.1603
vn 0.5491 -0.8244 0.1373
vn 0.9655 0.0221 0.2595
vn 0.8870 -0.2168 0.4076
vn -0.7080 0.0509 0.7044
vn -0.6366 0.4936 0.5926
vn -0.7264 0.0689 0.6838
vn -0.7437 0.1496 0.6516
vn -0.9989 0.0058 0.0462
vn -0.9887 0.0187 0.1491
vn -0.9836 -0.1552 0.0914
usemtl Shape.6757
s off
f 41//1 40//1 64//1
f 5//2 6//2 7//2
f 7//3 4//3 9//3
f 5//4 7//4 9//4
f 5//5 2//5 10//5
f 6//2 5//2 10//2
f 8//6 3//6 10//6
f 15//7 1//7 17//7
f 4//3 7//3 21//3
f 2//8 5//8 22//8
f 5//9 9//9 22//9
f 17//10 2//10 22//10
f 15//11 17//11 22//11
f 10//6 3//6 23//6
f 8//6 10//6 29//6
f 10//12 17//12 29//12
f 17//13 24//13 29//13
f 24//14 8//14 29//14
f 7//2 6//2 32//2
f 11//15 25//15 33//15
f 13//16 27//16 34//16
f 31//17 16//17 35//17
f 1//18 15//18 37//18
f 36//19 1//19 37//19
f 18//20 36//20 37//20
f 3//6 8//6 38//6
f 8//21 19//21 38//21
f 33//22 3//22 38//22
f 4//3 21//3 39//3
f 12//23 26//23 39//23
f 31//24 28//24 40//24
f 13//25 34//25 40//25
f 34//26 31//26 40//26
f 27//27 13//27 41//27
f 13//28 40//28 41//28
f 22//29 9//29 42//29
f 15//30 22//30 42//30
f 9//31 37//31 42//31
f 37//32 15//32 42//32
f 10//33 2//33 43//33
f 2//34 17//34 43//34
f 17//35 10//35 43//35
f 20//36 4//36 44//36
f 26//37 20//37 44//37
f 4//3 39//3 44//3
f 39//38 26//38 44//38
f 20//39 11//39 45//39
f 19//40 20//40 45//40
f 7//41 32//41 46//41
f 6//42 23//42 47//42
f 23//43 27//43 47//43
f 30//44 6//44 47//44
f 27//45 41//45 47//45
f 41//46 30//46 47//46
f 25//47 11//47 48//47
f 48//48 26//48 49//48
f 26//49 12//49 49//49
f 12//50 35//50 49//50
f 35//51 25//51 49//51
f 25//52 48//52 49//52
f 4//53 20//53 50//53
f 20//54 19//54 50//54
f 18//55 37//55 50//55
f 19//56 8//56 51//56
f 8//57 24//57 51//57
f 36//58 18//58 51//58
f 24//59 36//59 51//59
f 18//60 50//60 51//60
f 50//61 19//61 51//61
f 6//2 10//2 52//2
f 23//62 6//62 52//62
f 10//6 23//6 52//6
f 3//63 33//63 53//63
f 33//64 25//64 53//64
f 35//65 16//65 53//65
f 25//66 35//66 53//66
f 21//3 7//3 54//3
f 28//67 21//67 54//67
f 7//41 46//41 54//41
f 46//68 28//68 54//68
f 6//69 30//69 55//69
f 30//70 14//70 55//70
f 32//71 6//71 55//71
f 14//72 46//72 55//72
f 46//73 32//73 55//73
f 23//6 3//6 56//6
f 16//74 27//74 56//74
f 27//75 23//75 56//75
f 3//76 53//76 56//76
f 53//77 16//77 56//77
f 11//78 33//78 57//78
f 38//79 19//79 57//79
f 33//80 38//80 57//80
f 45//81 11//81 57//81
f 19//82 45//82 57//82
f 14//83 40//83 58//83
f 40//84 28//84 58//84
f 46//85 14//85 58//85
f 28//86 46//86 58//86
f 27//87 16//87 59//87
f 16//88 31//88 59//88
f 34//89 27//89 59//89
f 31//90 34//90 59//90
f 9//3 4//3 60//3
f 37//91 9//91 60//91
f 4//92 50//92 60//92
f 50//93 37//93 60//93
f 21//94 28//94 61//94
f 28//95 31//95 61//95
f 35//96 12//96 61//96
f 31//97 35//97 61//97
f 39//98 21//98 61//98
f 12//99 39//99 61//99
f 17//100 1//100 62//100
f 24//101 17//101 62//101
f 1//102 36//102 62//102
f 36//103 24//103 62//103
f 11//104 20//104 63//104
f 20//105 26//105 63//105
f 48//106 11//106 63//106
f 26//107 48//107 63//107
f 14//108 30//108 64//108
f 40//109 14//109 64//109
f 30//110 41//110 64//110
