# Blender v2.79 (sub 0) OBJ File: ''
# www.blender.org
mtllib 102645_link_4_13.mtl
o Shape_IndexedFaceSet.013_Shape_IndexedFaceSet.3351
v -0.233726 -0.055615 0.751932
v -0.286842 -0.062613 0.231823
v -0.230259 0.065957 0.630568
v -0.387687 -0.058352 0.332321
v -0.362815 0.065957 0.249435
v -0.215395 -0.070089 0.545744
v -0.296553 0.049372 0.630568
v -0.321393 -0.058352 0.614072
v -0.313103 0.049372 0.249435
v -0.362815 0.049372 0.406958
v -0.386552 -0.057456 0.253139
v -0.238550 0.065957 0.705156
v -0.263406 -0.008609 0.721803
v -0.387687 -0.000322 0.249435
v -0.379396 -0.025182 0.398609
v -0.321393 -0.016895 0.605723
v -0.329684 0.065957 0.249435
v -0.238550 -0.058352 0.763246
v -0.354540 0.057658 0.423555
v -0.238550 0.041086 0.738350
v -0.379396 0.041086 0.274331
vn -0.9856 0.1494 0.0797
vn 0.9490 0.2349 -0.2104
vn 0.9948 0.0560 0.0845
vn -0.0537 -0.9985 -0.0116
vn -0.0957 -0.9952 0.0225
vn 0.9425 0.2550 -0.2160
vn -0.0542 -0.9985 -0.0121
vn -0.0000 1.0000 -0.0000
vn -0.1402 0.0526 -0.9887
vn -0.2119 -0.0674 -0.9750
vn -0.9997 -0.0208 -0.0146
vn -0.9518 -0.2096 0.2239
vn -0.9920 0.1034 0.0724
vn -0.9295 0.2452 0.2754
vn -0.8936 0.0886 0.4401
vn -0.8863 0.1708 0.4305
vn -0.9621 0.0538 0.2673
vn -0.9487 0.1821 0.2584
vn 0.0000 0.1357 -0.9907
vn 0.1974 0.1973 -0.9603
vn 0.6955 0.6953 -0.1814
vn 0.6748 -0.7296 0.1112
vn -0.0812 -0.9957 0.0451
vn -0.8738 -0.0323 0.4852
vn -0.7697 0.6348 0.0668
vn -0.8937 0.3621 0.2648
vn -0.2068 0.9768 0.0564
vn -0.4602 0.8726 0.1638
vn 0.9939 0.0623 0.0908
vn 0.9832 0.1459 0.1093
vn -0.7071 0.5659 0.4240
vn -0.8410 0.2632 0.4728
vn 0.9058 0.1029 0.4111
vn -0.7493 0.1608 0.6424
vn -0.8003 0.5964 0.0628
vn -0.9033 0.3390 -0.2630
vn -0.9729 0.2042 0.1089
usemtl Shape.3380
s off
f 14//1 15//1 21//1
f 2//2 3//2 6//2
f 3//3 1//3 6//3
f 4//4 2//4 6//4
f 4//5 6//5 8//5
f 3//6 2//6 9//6
f 2//7 4//7 11//7
f 3//8 5//8 12//8
f 5//9 2//9 14//9
f 2//10 11//10 14//10
f 11//11 4//11 14//11
f 4//12 8//12 15//12
f 14//13 4//13 15//13
f 7//14 10//14 16//14
f 8//15 13//15 16//15
f 13//16 7//16 16//16
f 15//17 8//17 16//17
f 10//18 15//18 16//18
f 2//19 5//19 17//19
f 5//8 3//8 17//8
f 9//20 2//20 17//20
f 3//21 9//21 17//21
f 6//22 1//22 18//22
f 8//23 6//23 18//23
f 13//24 8//24 18//24
f 5//25 10//25 19//25
f 10//26 7//26 19//26
f 12//27 5//27 19//27
f 7//28 12//28 19//28
f 1//29 3//29 20//29
f 3//30 12//30 20//30
f 12//31 7//31 20//31
f 7//32 13//32 20//32
f 18//33 1//33 20//33
f 13//34 18//34 20//34
f 10//35 5//35 21//35
f 5//36 14//36 21//36
f 15//37 10//37 21//37
