# Blender v2.79 (sub 0) OBJ File: ''
# www.blender.org
mtllib 102645_link_0_2.mtl
o Shape_IndexedFaceSet.002_Shape_IndexedFaceSet.8609
v -0.441448 0.583853 -0.291729
v -0.392556 0.572743 -0.225072
v -0.393450 0.573186 -0.224629
v -0.433892 0.572297 -0.268182
v -0.417442 0.583853 -0.227737
v -0.423224 0.583853 -0.299280
v -0.416117 0.572297 -0.281947
v -0.397002 0.583853 -0.236181
v -0.412116 0.572297 -0.216627
v -0.401893 0.572297 -0.251292
v -0.412116 0.581185 -0.223293
v -0.440554 0.583853 -0.285063
v -0.433446 0.572297 -0.273945
v -0.426780 0.583408 -0.300625
v -0.400558 0.583853 -0.247734
v -0.420998 0.572297 -0.234853
v -0.392556 0.572297 -0.228179
v -0.408560 0.572743 -0.215299
v -0.421888 0.583853 -0.237075
v -0.409005 0.572297 -0.268173
v -0.405894 0.583853 -0.229516
v -0.406784 0.582964 -0.262836
v -0.417887 0.572297 -0.282390
v -0.440113 0.582519 -0.291286
v -0.402783 0.573632 -0.218849
v -0.415671 0.583853 -0.225957
v -0.441448 0.582964 -0.288170
v -0.396557 0.583408 -0.235296
v -0.422779 0.582519 -0.298394
v -0.434332 0.572297 -0.272617
v -0.403223 0.572297 -0.217955
v -0.396557 0.582964 -0.237067
v -0.410780 0.573632 -0.215742
v -0.423664 0.575409 -0.241519
v -0.393005 0.574520 -0.226400
v -0.424554 0.582964 -0.300174
v -0.418332 0.576299 -0.288170
v -0.409005 0.574075 -0.216184
v -0.439223 0.583408 -0.281505
v -0.401003 0.582519 -0.249062
v -0.422334 0.583853 -0.297509
v -0.420998 0.582964 -0.234853
v -0.407669 0.578962 -0.265058
v -0.414781 0.576743 -0.221956
v -0.413446 0.583853 -0.225957
v -0.440999 0.582964 -0.291286
v -0.392556 0.573632 -0.227737
v -0.434332 0.572297 -0.269510
v -0.420998 0.575855 -0.288170
vn -0.1078 -0.8714 -0.4785
vn 0.0000 1.0000 -0.0000
vn 0.0000 -1.0000 -0.0000
vn -0.0645 0.9857 -0.1556
vn -0.2384 -0.8740 -0.4235
vn -0.8749 0.4698 0.1173
vn 0.2490 0.9097 0.3322
vn 0.5287 0.2583 0.8086
vn 0.1350 -0.9808 0.1408
vn 0.0348 -0.9718 0.2332
vn 0.5036 0.3600 0.7854
vn 0.4353 0.3975 0.8078
vn 0.7567 0.6109 -0.2329
vn 0.9362 0.0629 -0.3459
vn 0.8239 0.5498 -0.1378
vn -0.7119 0.2878 0.6406
vn -0.3006 -0.2995 0.9055
vn -0.6658 0.3434 0.6624
vn -0.9323 -0.0261 0.3607
vn -0.9285 -0.0001 0.3713
vn 0.5739 0.5783 0.5799
vn 0.4113 0.6754 0.6121
vn 0.3817 0.7205 0.5790
vn 0.3872 0.7249 0.5697
vn 0.2634 0.4591 -0.8484
vn 0.1368 -0.8260 -0.5468
vn -0.0731 -0.8671 -0.4927
vn 0.6515 -0.2568 -0.7139
vn 0.4307 -0.6757 -0.5983
vn 0.8675 -0.2164 -0.4479
vn 0.8987 -0.0693 -0.4330
vn 0.3835 -0.7087 -0.5922
vn 0.2930 0.7371 0.6090
vn 0.3515 0.5967 0.7214
vn 0.3124 0.7298 0.6081
vn 0.0631 0.5668 0.8214
vn -0.0003 0.7068 0.7074
vn -0.9375 -0.0345 0.3464
vn -0.9263 0.1103 0.3603
vn -0.9329 -0.0162 0.3598
vn -0.9316 0.0047 0.3634
vn 0.9272 0.0010 -0.3746
vn 0.9334 0.0433 -0.3563
vn 0.9203 0.0751 -0.3838
vn 0.8528 0.3655 -0.3731
vn 0.8935 -0.0001 -0.4490
vn 0.9067 -0.0231 -0.4211
vn -0.8900 0.1681 0.4238
vn -0.9283 0.0000 0.3718
vn 0.9215 -0.0033 -0.3882
vn 0.9228 0.0037 -0.3854
vn 0.9221 0.0108 -0.3867
vn 0.9124 0.0251 -0.4085
vn 0.9117 0.0092 -0.4107
vn -0.8603 0.0866 0.5024
vn -0.8989 -0.0138 0.4380
vn -0.8955 0.0261 0.4442
vn -0.9008 0.0000 0.4342
vn 0.2845 0.7447 0.6038
vn 0.0160 0.7103 0.7037
vn 0.0000 0.7069 0.7073
vn -0.4392 -0.5685 -0.6956
vn -0.4231 -0.8424 -0.3338
vn -0.3632 -0.7231 -0.5875
vn -0.8595 -0.4958 -0.1238
vn -0.4633 -0.8305 -0.3091
vn -0.7474 -0.6556 -0.1077
vn 1.0000 0.0000 0.0000
vn 0.9470 0.1010 -0.3050
vn 0.9428 0.3232 -0.0811
vn 0.9424 0.3172 0.1058
vn 0.9140 0.4040 0.0387
vn -0.9456 -0.0875 0.3133
vn -0.9476 -0.1034 0.3022
vn -0.8319 -0.5549 0.0000
vn -0.2330 -0.8757 -0.4229
vn -0.2273 -0.8792 -0.4188
usemtl Shape.8614
s off
f 14//1 23//1 49//1
f 1//2 5//2 6//2
f 6//2 5//2 8//2
f 4//3 7//3 9//3
f 9//3 7//3 10//3
f 5//2 1//2 12//2
f 7//3 4//3 13//3
f 1//4 6//4 14//4
f 6//2 8//2 15//2
f 4//3 9//3 16//3
f 9//3 10//3 17//3
f 5//2 12//2 19//2
f 10//3 7//3 20//3
f 8//2 5//2 21//2
f 7//3 13//3 23//3
f 14//5 13//5 24//5
f 21//2 5//2 26//2
f 12//6 1//6 27//6
f 8//7 21//7 28//7
f 13//3 4//3 30//3
f 2//8 3//8 31//8
f 17//9 2//9 31//9
f 9//3 17//3 31//3
f 18//10 9//10 31//10
f 3//11 25//11 31//11
f 25//12 18//12 31//12
f 15//13 8//13 32//13
f 17//14 15//14 32//14
f 8//15 28//15 32//15
f 5//16 9//16 33//16
f 9//17 18//17 33//17
f 26//18 5//18 33//18
f 4//19 16//19 34//19
f 16//20 19//20 34//20
f 3//21 2//21 35//21
f 25//22 3//22 35//22
f 21//23 25//23 35//23
f 28//24 21//24 35//24
f 14//25 6//25 36//25
f 7//26 23//26 36//26
f 23//27 14//27 36//27
f 6//28 29//28 36//28
f 36//29 29//29 37//29
f 20//30 7//30 37//30
f 29//31 20//31 37//31
f 7//32 36//32 37//32
f 21//33 11//33 38//33
f 18//34 25//34 38//34
f 25//35 21//35 38//35
f 33//36 18//36 38//36
f 26//37 33//37 38//37
f 12//38 4//38 39//38
f 19//39 12//39 39//39
f 4//40 34//40 39//40
f 34//41 19//41 39//41
f 17//42 10//42 40//42
f 15//43 17//43 40//43
f 22//44 15//44 40//44
f 6//2 15//2 41//2
f 15//45 22//45 41//45
f 29//46 6//46 41//46
f 20//47 29//47 41//47
f 5//48 19//48 42//48
f 19//49 16//49 42//49
f 10//50 20//50 43//50
f 40//51 10//51 43//51
f 22//52 40//52 43//52
f 41//53 22//53 43//53
f 20//54 41//54 43//54
f 9//55 5//55 44//55
f 16//56 9//56 44//56
f 5//57 42//57 44//57
f 42//58 16//58 44//58
f 11//59 21//59 45//59
f 21//2 26//2 45//2
f 38//60 11//60 45//60
f 26//61 38//61 45//61
f 1//62 14//62 46//62
f 24//63 13//63 46//63
f 14//64 24//64 46//64
f 27//65 1//65 46//65
f 13//66 30//66 46//66
f 30//67 27//67 46//67
f 2//68 17//68 47//68
f 17//69 32//69 47//69
f 32//70 28//70 47//70
f 35//71 2//71 47//71
f 28//72 35//72 47//72
f 4//73 12//73 48//73
f 12//74 27//74 48//74
f 30//3 4//3 48//3
f 27//75 30//75 48//75
f 13//76 14//76 49//76
f 23//77 13//77 49//77
