# Blender v2.79 (sub 0) OBJ File: ''
# www.blender.org
mtllib 102645_link_4_18.mtl
o Shape_IndexedFaceSet.018_Shape_IndexedFaceSet.3356
v -0.089360 -0.033472 0.009084
v -0.097656 -0.041763 0.017385
v -0.230225 -0.008612 -0.123492
v -0.266191 -0.051919 0.103862
v -0.089360 0.065946 -0.024011
v -0.089044 0.066157 -0.123900
v -0.095476 -0.045977 -0.084779
v -0.263393 0.065946 0.042244
v -0.257533 -0.046148 -0.046382
v -0.238521 0.065946 -0.123492
v -0.082543 -0.018849 -0.132258
v -0.255097 0.049376 0.067082
v -0.086124 -0.052211 0.009853
v -0.089360 0.049376 -0.007475
v -0.263393 0.065946 -0.024011
v -0.246818 -0.000322 -0.123492
v -0.255097 -0.041763 0.100264
vn 0.3894 0.3151 0.8655
vn 0.0008 1.0000 0.0021
vn -0.1095 -0.8779 -0.4661
vn 0.9971 0.0759 0.0033
vn -0.0896 -0.8541 -0.5124
vn -0.0029 0.0976 -0.9952
vn -0.8508 0.2591 0.4571
vn 0.1904 0.8448 0.5000
vn 0.6271 0.1397 0.7663
vn -0.0142 -0.9978 -0.0643
vn -0.0223 -0.9990 -0.0397
vn 0.9987 0.0371 0.0339
vn 0.8004 -0.5878 -0.1178
vn 0.6176 0.1541 0.7712
vn 0.3034 0.6731 0.6745
vn 0.6698 0.1455 0.7282
vn 0.9985 0.0384 0.0384
vn -0.9997 0.0237 0.0000
vn -0.0012 1.0000 0.0000
vn -0.9974 -0.0404 -0.0590
vn -0.0014 1.0000 -0.0004
vn -0.9631 0.1206 -0.2408
vn -0.3843 -0.7692 -0.5105
vn -0.0681 -0.1363 -0.9883
vn -0.0525 0.0066 -0.9986
vn -0.9884 -0.0217 -0.1502
vn -0.0084 0.3421 0.9396
vn 0.4623 -0.1228 0.8782
vn 0.4543 -0.1878 0.8708
vn 0.4569 0.1951 0.8679
usemtl Shape.3385
s off
f 14//1 12//1 17//1
f 5//2 6//2 8//2
f 3//3 7//3 9//3
f 6//4 5//4 11//4
f 7//5 3//5 11//5
f 10//6 6//6 11//6
f 8//7 4//7 12//7
f 5//8 8//8 12//8
f 1//9 2//9 13//9
f 9//10 7//10 13//10
f 4//11 9//11 13//11
f 11//12 5//12 13//12
f 7//13 11//13 13//13
f 2//14 1//14 14//14
f 5//15 12//15 14//15
f 1//16 13//16 14//16
f 13//17 5//17 14//17
f 4//18 8//18 15//18
f 8//19 6//19 15//19
f 9//20 4//20 15//20
f 6//21 10//21 15//21
f 15//22 10//22 16//22
f 3//23 9//23 16//23
f 11//24 3//24 16//24
f 10//25 11//25 16//25
f 9//26 15//26 16//26
f 12//27 4//27 17//27
f 13//28 2//28 17//28
f 4//29 13//29 17//29
f 2//30 14//30 17//30
