# Blender v2.79 (sub 0) OBJ File: ''
# www.blender.org
mtllib 102645_link_4_14.mtl
o Shape_IndexedFaceSet.014_Shape_IndexedFaceSet.3352
v -0.219790 0.050507 0.730097
v -0.079034 -0.030517 0.882720
v -0.077188 -0.054888 0.886605
v -0.228199 -0.063879 0.549612
v -0.072801 0.065957 0.796356
v -0.221605 -0.051532 0.766986
v -0.065252 -0.064313 0.757300
v -0.230244 0.057658 0.622401
v -0.105951 0.057658 0.854406
v -0.139101 -0.025182 0.862680
v -0.081092 0.065957 0.854406
v -0.221937 0.065957 0.655531
v -0.221937 0.057658 0.622401
v -0.072801 0.057658 0.788049
v -0.203608 0.035061 0.764838
vn -0.6776 0.3365 0.6539
vn -0.0777 -0.9952 0.0589
vn 0.9955 0.0308 0.0896
vn -0.0773 -0.9949 0.0654
vn -0.9935 0.0538 0.1000
vn -0.9988 -0.0362 0.0324
vn -0.3037 0.1275 0.9442
vn -0.5216 -0.5933 0.6131
vn -0.2925 0.2102 0.9329
vn 0.9189 0.1290 0.3729
vn 0.9876 0.0695 0.1410
vn -0.0930 0.2786 0.9559
vn -0.3082 0.9233 0.2292
vn -0.8938 0.4334 0.1155
vn -0.0000 1.0000 0.0000
vn -0.2857 0.9367 0.2023
vn 0.0000 0.5138 -0.8579
vn 0.0000 0.9700 -0.2430
vn 0.2236 0.9455 -0.2368
vn 0.7710 0.2001 -0.6045
vn 0.9932 0.0822 -0.0821
vn 0.6987 0.3407 -0.6291
vn 0.6175 0.5565 -0.5559
vn -0.8551 0.1897 0.4826
vn -0.6262 0.5612 0.5412
vn -0.7690 0.1751 0.6148
usemtl Shape.3381
s off
f 10//1 9//1 15//1
f 6//2 4//2 7//2
f 5//3 3//3 7//3
f 3//4 6//4 7//4
f 6//5 1//5 8//5
f 4//6 6//6 8//6
f 3//7 2//7 10//7
f 6//8 3//8 10//8
f 2//9 9//9 10//9
f 2//10 3//10 11//10
f 3//11 5//11 11//11
f 9//12 2//12 11//12
f 1//13 9//13 11//13
f 8//14 1//14 12//14
f 11//15 5//15 12//15
f 1//16 11//16 12//16
f 4//17 8//17 13//17
f 8//18 12//18 13//18
f 12//19 5//19 13//19
f 7//20 4//20 14//20
f 5//21 7//21 14//21
f 4//22 13//22 14//22
f 13//23 5//23 14//23
f 1//24 6//24 15//24
f 9//25 1//25 15//25
f 6//26 10//26 15//26
