# Blender v2.79 (sub 0) OBJ File: ''
# www.blender.org
mtllib 102645_link_4_0.mtl
o Shape_IndexedFaceSet_Shape_IndexedFaceSet.3338
v -0.417362 0.202036 -0.331304
v 0.430919 0.671162 -0.476896
v 0.431060 0.671274 -0.501234
v 0.364790 0.040417 -0.524900
v 0.195253 0.000320 -0.129569
v -0.321327 0.661955 -0.145531
v -0.448959 0.652808 -0.548539
v 0.365552 0.646186 -0.161376
v -0.352284 0.041315 -0.540418
v -0.239717 0.009037 -0.130066
v 0.282062 0.643276 -0.571752
v 0.428657 0.274567 -0.339376
v -0.062416 0.010123 -0.555891
v 0.147235 0.654374 -0.129018
v -0.435454 0.638593 -0.266387
v 0.481884 0.632046 -0.510044
v -0.478206 0.355322 -0.501827
v -0.285952 0.139091 -0.571134
v 0.322737 0.066032 -0.564142
v -0.080235 -0.029941 -0.125762
v 0.339794 0.137757 -0.202451
v -0.368391 0.371084 -0.170387
v -0.312729 0.661469 -0.565035
v 0.088466 -0.016775 -0.418495
v 0.455486 0.306694 -0.533676
v -0.410410 0.080476 -0.468513
v -0.435789 0.671308 -0.509363
v 0.317245 0.670806 -0.161201
v -0.279248 0.643954 -0.130613
v 0.397582 0.080503 -0.436178
v 0.429982 0.508678 -0.274635
v -0.485981 0.647954 -0.444866
v 0.402804 0.635718 -0.564002
v -0.093347 -0.017499 -0.418638
v 0.330110 0.338849 -0.147094
v -0.442394 0.234078 -0.541125
v -0.442800 0.411661 -0.306962
v 0.233709 0.066839 -0.571489
v 0.472449 0.371510 -0.460895
v 0.464265 0.647369 -0.379748
v 0.274216 0.643486 -0.130888
v -0.360175 0.129928 -0.234844
v -0.294616 0.643168 -0.571632
v -0.329549 0.670253 -0.161584
v -0.361390 0.645581 -0.153734
v 0.388514 0.355092 -0.210363
v 0.322852 0.049850 -0.251034
v 0.147915 0.672157 -0.550332
v -0.399109 0.386904 -0.563774
v -0.326988 0.058353 -0.563753
v 0.074648 -0.025867 -0.128368
v -0.378022 0.056261 -0.371574
v -0.369516 0.040460 -0.524830
v 0.066111 0.000449 -0.532763
v 0.440118 0.184923 -0.509685
v -0.485842 0.631580 -0.517942
v 0.404867 0.137465 -0.363462
v -0.459340 0.274378 -0.428171
v -0.484905 0.485012 -0.444658
v 0.455555 0.655077 -0.541819
v 0.394847 0.370963 -0.564045
v -0.360639 0.242403 -0.186401
v 0.423313 0.655262 -0.266299
v 0.146158 0.057940 -0.572166
vn -0.0178 -0.0821 -0.9965
vn 0.0138 0.0002 0.9999
vn 0.5876 -0.2257 -0.7770
vn -0.1059 0.9124 -0.3953
vn 0.0098 0.9999 0.0047
vn -0.0179 0.6128 0.7900
vn -0.0272 -0.0008 0.9996
vn -0.0039 0.0061 1.0000
vn -0.5902 0.7883 -0.1739
vn -0.1160 -0.9683 -0.2210
vn 0.0040 -0.9991 -0.0426
vn 0.5801 -0.1901 0.7920
vn -0.9625 -0.2502 -0.1053
vn -0.8835 -0.0546 0.4652
vn 0.0632 -0.5578 -0.8276
vn 0.9833 -0.0675 -0.1691
vn 0.9568 -0.0826 0.2789
vn 0.9660 -0.0461 0.2542
vn 0.9908 -0.0104 0.1352
vn 0.0147 0.0002 0.9999
vn 0.2600 0.5042 0.8235
vn 0.0698 0.6898 0.7207
vn 0.3164 0.0076 0.9486
vn 0.1775 -0.0198 0.9839
vn -0.1310 0.2189 -0.9669
vn -0.0003 0.3389 -0.9408
vn -0.0018 0.8880 0.4599
vn -0.0010 0.8928 0.4504
vn -0.4318 0.8860 0.1687
vn -0.3130 0.9446 0.0985
vn -0.4112 -0.0447 0.9104
vn -0.8352 -0.0121 0.5498
vn -0.2639 0.1700 0.9495
vn -0.2712 -0.0161 0.9624
vn -0.4076 0.7091 0.5753
vn -0.5358 0.7880 0.3034
vn 0.8988 -0.1871 0.3964
vn 0.8594 -0.0182 0.5110
vn 0.9297 -0.1030 0.3536
vn 0.7406 -0.0543 0.6697
vn 0.7453 -0.1434 0.6512
vn 0.4399 -0.8927 0.0981
vn 0.7023 -0.4432 0.5571
vn 0.6193 -0.7757 0.1216
vn 0.0104 0.6262 -0.7796
vn -0.0160 0.9779 -0.2083
vn 0.0027 1.0000 0.0023
vn -0.0009 1.0000 0.0038
vn -0.0012 1.0000 0.0034
vn -0.4000 -0.0225 -0.9162
vn -0.1461 0.0293 -0.9888
vn -0.0697 -0.0022 -0.9976
vn -0.1149 -0.7388 -0.6640
vn -0.5533 -0.2616 -0.7908
vn -0.2821 -0.0620 -0.9574
vn -0.1245 -0.0274 -0.9918
vn 0.2121 -0.9772 -0.0082
vn 0.0178 -0.0360 0.9992
vn 0.1947 -0.9806 -0.0215
vn 0.0258 -0.9992 -0.0301
vn -0.9217 -0.3123 0.2300
vn -0.7982 -0.4806 0.3631
vn -0.9001 -0.3235 0.2918
vn -0.2374 -0.9714 0.0007
vn -0.1288 -0.9722 -0.1957
vn -0.1931 -0.9806 -0.0330
vn -0.6322 -0.2981 -0.7152
vn -0.8582 -0.3543 -0.3714
vn -0.4283 -0.9010 0.0691
vn -0.6708 -0.7406 0.0391
vn 0.0818 -0.6722 -0.7358
vn 0.1193 -0.7680 -0.6292
vn 0.1351 -0.9755 -0.1735
vn -0.0367 -0.9781 -0.2051
vn 0.0041 -0.9887 -0.1498
vn 0.5918 -0.2271 -0.7734
vn 0.8852 -0.4483 -0.1246
vn 0.9844 -0.1441 -0.1011
vn -0.5969 0.7827 -0.1765
vn -0.6302 -0.0236 -0.7761
vn -0.8179 -0.0560 -0.5726
vn 0.9041 -0.2211 0.3658
vn 0.9618 -0.1998 0.1872
vn 0.8647 -0.3602 0.3501
vn 0.8508 -0.4517 0.2686
vn 0.9471 -0.2917 0.1336
vn 0.9638 -0.2099 0.1642
vn -0.9396 -0.2785 0.1992
vn -0.9703 -0.2414 -0.0167
vn -0.9431 -0.1490 0.2974
vn -0.9651 -0.0981 0.2428
vn -0.9623 -0.0060 0.2721
vn -0.9590 -0.0195 0.2828
vn -1.0000 -0.0066 -0.0004
vn -0.9984 -0.0304 -0.0480
vn -0.9852 -0.1092 0.1323
vn 0.5597 0.8287 0.0071
vn 0.7645 -0.0152 -0.6445
vn 0.0890 0.6359 -0.7666
vn 0.5632 0.8262 0.0090
vn 0.6581 0.7529 0.0004
vn 0.0601 0.7595 -0.6477
vn 0.0615 0.9392 -0.3377
vn 0.3705 -0.0873 -0.9247
vn 0.0639 -0.0018 -0.9980
vn 0.0558 -0.0051 -0.9984
vn 0.0821 -0.0191 -0.9964
vn 0.4297 -0.0212 -0.9027
vn 0.3912 -0.0116 -0.9202
vn -0.6186 -0.1336 0.7743
vn -0.9043 -0.1559 0.3974
vn -0.8862 -0.1094 0.4503
vn -0.7678 -0.2561 0.5872
vn -0.8989 -0.1764 0.4010
vn 0.2230 0.9714 0.0814
vn 0.4324 0.8462 0.3113
vn 0.8755 0.0124 0.4830
vn 0.9409 0.0236 0.3380
vn 0.4063 0.9099 0.0834
vn 0.0078 -0.0011 -1.0000
vn 0.0630 -0.5567 -0.8283
vn -0.0026 -0.0010 -1.0000
vn -0.0002 0.0008 -1.0000
vn -0.0174 -0.2532 -0.9672
usemtl Shape.3367
s off
f 50//1 18//1 64//1
f 5//2 14//2 20//2
f 4//3 19//3 25//3
f 23//4 7//4 27//4
f 2//5 3//5 28//5
f 14//6 6//6 29//6
f 10//7 20//7 29//7
f 20//8 14//8 29//8
f 27//9 7//9 32//9
f 9//10 13//10 34//10
f 24//11 20//11 34//11
f 5//12 21//12 35//12
f 26//13 17//13 36//13
f 22//14 15//14 37//14
f 19//15 13//15 38//15
f 25//16 16//16 39//16
f 31//17 12//17 39//17
f 31//18 39//18 40//18
f 39//19 16//19 40//19
f 14//20 5//20 41//20
f 8//21 28//21 41//21
f 28//22 14//22 41//22
f 35//23 8//23 41//23
f 5//24 35//24 41//24
f 7//25 23//25 43//25
f 23//26 11//26 43//26
f 6//27 14//27 44//27
f 14//28 28//28 44//28
f 32//29 15//29 44//29
f 27//30 32//30 44//30
f 22//31 10//31 45//31
f 15//32 22//32 45//32
f 29//33 6//33 45//33
f 10//34 29//34 45//34
f 6//35 44//35 45//35
f 44//36 15//36 45//36
f 21//37 12//37 46//37
f 31//38 8//38 46//38
f 12//39 31//39 46//39
f 8//40 35//40 46//40
f 35//41 21//41 46//41
f 5//42 4//42 47//42
f 21//43 5//43 47//43
f 4//44 30//44 47//44
f 11//45 23//45 48//45
f 23//46 27//46 48//46
f 28//47 3//47 48//47
f 44//48 28//48 48//48
f 27//49 44//49 48//49
f 36//50 7//50 49//50
f 7//51 43//51 49//51
f 43//52 18//52 49//52
f 13//53 9//53 50//53
f 9//54 36//54 50//54
f 36//55 49//55 50//55
f 49//56 18//56 50//56
f 4//57 5//57 51//57
f 5//58 20//58 51//58
f 24//59 4//59 51//59
f 20//60 24//60 51//60
f 1//61 26//61 52//61
f 10//62 42//62 52//62
f 42//63 1//63 52//63
f 20//64 10//64 53//64
f 9//65 34//65 53//65
f 34//66 20//66 53//66
f 36//67 9//67 53//67
f 26//68 36//68 53//68
f 10//69 52//69 53//69
f 52//70 26//70 53//70
f 13//71 19//71 54//71
f 19//72 4//72 54//72
f 4//73 24//73 54//73
f 34//74 13//74 54//74
f 24//75 34//75 54//75
f 4//76 25//76 55//76
f 30//77 4//77 55//77
f 25//78 39//78 55//78
f 32//79 7//79 56//79
f 7//80 36//80 56//80
f 36//81 17//81 56//81
f 12//82 21//82 57//82
f 39//83 12//83 57//83
f 21//84 47//84 57//84
f 47//85 30//85 57//85
f 30//86 55//86 57//86
f 55//87 39//87 57//87
f 26//88 1//88 58//88
f 17//89 26//89 58//89
f 1//90 37//90 58//90
f 58//91 37//91 59//91
f 15//92 32//92 59//92
f 37//93 15//93 59//93
f 32//94 56//94 59//94
f 56//95 17//95 59//95
f 17//96 58//96 59//96
f 3//97 2//97 60//97
f 16//98 25//98 60//98
f 33//99 11//99 60//99
f 2//100 40//100 60//100
f 40//101 16//101 60//101
f 11//102 48//102 60//102
f 48//103 3//103 60//103
f 25//104 19//104 61//104
f 11//105 33//105 61//105
f 38//106 11//106 61//106
f 19//107 38//107 61//107
f 60//108 25//108 61//108
f 33//109 60//109 61//109
f 10//110 22//110 62//110
f 37//111 1//111 62//111
f 22//112 37//112 62//112
f 42//113 10//113 62//113
f 1//114 42//114 62//114
f 2//115 28//115 63//115
f 28//116 8//116 63//116
f 8//117 31//117 63//117
f 31//118 40//118 63//118
f 40//119 2//119 63//119
f 11//120 38//120 64//120
f 38//121 13//121 64//121
f 18//122 43//122 64//122
f 43//123 11//123 64//123
f 13//124 50//124 64//124
