# Blender v2.79 (sub 0) OBJ File: ''
# www.blender.org
mtllib 11581_link_1_0.mtl
o Shape_IndexedFaceSet_Shape_IndexedFaceSet.17845
v 0.641916 -0.225617 0.750862
v -0.516265 -0.220876 -0.180312
v -0.627786 -0.235032 -0.174147
v -0.641115 -0.196907 0.746727
v 0.668370 -0.196907 -0.170814
v 0.568007 -0.263816 0.646447
v -0.593316 -0.259030 0.703776
v 0.625339 -0.259030 -0.132471
v -0.550285 -0.263809 -0.070350
v 0.677903 -0.196907 0.732441
v -0.512020 -0.192121 -0.161136
v 0.658837 -0.244692 0.742026
v -0.660181 -0.196907 -0.132471
v 0.534509 -0.192121 -0.156343
v -0.631431 -0.235020 0.744603
v 0.577540 -0.263816 -0.060764
v -0.540752 -0.263809 0.646447
v 0.674126 -0.235035 -0.155542
v -0.650478 -0.239740 -0.140600
v -0.649606 -0.239725 0.715968
v 0.646062 -0.235037 -0.174593
v 0.634872 -0.259030 0.703684
v -0.606947 -0.253432 -0.133384
v -0.660181 -0.196907 0.722855
v 0.528646 -0.197255 -0.179826
v 0.680844 -0.230331 0.713762
v 0.682670 -0.196907 -0.142057
v 0.663604 -0.196907 0.746727
v -0.501073 -0.197277 -0.179489
v -0.659956 -0.225607 -0.148330
v -0.058003 -0.254250 -0.146942
v -0.609594 -0.206728 0.750555
v 0.672144 -0.239726 -0.135353
v -0.630961 -0.248983 -0.127663
v -0.655414 -0.196907 -0.161228
v -0.612498 -0.230311 0.749214
v 0.634872 -0.259030 -0.113392
v 0.533879 -0.220876 -0.180289
v -0.629985 -0.248951 0.693571
v -0.654712 -0.225609 0.733555
v 0.641396 -0.206732 0.750479
v 0.544174 -0.263809 -0.075142
v 0.582307 -0.263816 0.631977
v -0.586930 -0.235058 -0.175385
v -0.635139 -0.211398 -0.176039
v -0.615348 -0.244270 -0.159197
v -0.615409 -0.244271 0.730453
v -0.555051 -0.263809 0.627276
v 0.660914 -0.244383 0.719485
v 0.679199 -0.202011 0.712710
v -0.641897 -0.244353 -0.114694
v -0.648573 -0.230323 -0.166039
v 0.650003 -0.202045 -0.174042
v -0.634136 -0.244393 -0.153242
v 0.667101 -0.225604 0.742522
vn 0.7067 -0.0175 0.7073
vn -0.0000 1.0000 0.0053
vn -0.0000 -1.0000 -0.0000
vn -0.0000 -0.9965 0.0831
vn 0.5453 -0.2394 -0.8033
vn 0.2576 -0.8886 -0.3794
vn 0.0000 -0.9965 0.0833
vn 0.0000 -0.9367 0.3502
vn -0.1761 -0.9844 -0.0037
vn -0.0056 1.0000 0.0045
vn -0.0323 0.9995 0.0000
vn 0.0115 0.9763 -0.2163
vn 0.0010 0.9769 -0.2138
vn 0.9763 -0.2165 -0.0064
vn 0.0323 0.9995 0.0002
vn 0.0339 0.9993 -0.0169
vn 0.8946 -0.0431 -0.4448
vn 0.0046 1.0000 0.0046
vn -0.0003 0.0351 -0.9994
vn -0.0001 0.9627 -0.2705
vn -0.8307 -0.5567 0.0009
vn -1.0000 -0.0078 0.0000
vn -0.0038 -0.9890 -0.1478
vn 0.0044 -0.8698 -0.4933
vn -0.0054 -0.9875 -0.1577
vn 0.0000 0.3632 0.9317
vn 0.9135 -0.4069 -0.0049
vn -0.1830 -0.9831 -0.0036
vn -0.0334 0.9994 -0.0055
vn -0.0318 0.9572 -0.2878
vn -0.9832 0.0824 -0.1630
vn 0.0004 -0.4200 0.9075
vn -0.2099 -0.1075 0.9718
vn -0.0037 -0.6919 0.7220
vn -0.0011 -0.0566 0.9984
vn -0.1327 -0.0400 0.9903
vn 0.0571 -0.9980 -0.0285
vn 0.3635 -0.9137 -0.1816
vn 0.3691 -0.9126 -0.1758
vn 0.4599 -0.8880 0.0000
vn 0.0000 0.0196 -0.9998
vn -0.2963 -0.9462 0.1302
vn -0.2651 -0.9642 0.0004
vn -0.4776 -0.1694 0.8621
vn -0.5089 -0.7374 0.4441
vn -0.7786 0.0835 0.6219
vn -0.9381 -0.3463 0.0056
vn -0.9827 -0.1851 0.0058
vn 0.1561 0.0243 0.9874
vn 0.0001 0.0203 0.9998
vn 0.0001 0.3566 0.9342
vn -0.0004 -0.9965 -0.0836
vn 0.0221 -0.9984 -0.0519
vn -0.0000 -1.0000 -0.0005
vn 0.0387 -0.9985 0.0383
vn 0.0827 -0.9966 -0.0006
vn 0.0907 -0.9959 0.0000
vn -0.0298 -0.1921 -0.9809
vn 0.0004 -0.8257 -0.5641
vn 0.0000 -0.3283 -0.9446
vn 0.0006 -0.3691 -0.9294
vn -0.0432 -0.0931 -0.9947
vn -0.0315 0.0551 -0.9980
vn -0.0878 0.6493 -0.7555
vn -0.0096 -0.9433 -0.3317
vn -0.0162 -0.8565 -0.5158
vn -0.0045 -0.8657 -0.5005
vn -0.0047 -0.8766 0.4811
vn -0.0052 -0.8397 0.5431
vn -0.2537 -0.9158 0.3115
vn -0.2501 -0.9200 0.3018
vn -0.1256 -0.9921 -0.0009
vn -0.0500 -0.9980 0.0373
vn 0.4753 -0.8793 0.0317
vn 0.5839 -0.8107 0.0427
vn 0.4894 -0.8720 0.0017
vn 0.5768 -0.8169 0.0031
vn 0.9970 0.0598 0.0500
vn 0.9983 0.0581 0.0044
vn 0.9739 0.2268 0.0053
vn -0.4747 -0.8802 0.0005
vn -0.4145 -0.9097 -0.0247
vn -0.4245 -0.9054 0.0011
vn -0.3894 -0.9211 0.0005
vn -0.7142 -0.6373 -0.2894
vn -0.8489 -0.0990 -0.5193
vn -0.3944 -0.1946 -0.8981
vn -0.5923 -0.0053 -0.8057
vn 0.1743 -0.0044 -0.9847
vn 0.0588 0.3718 -0.9265
vn 0.0520 0.0105 -0.9986
vn 0.0488 0.0304 -0.9983
vn -0.3578 -0.9258 -0.1217
vn -0.2139 -0.9658 -0.1468
vn -0.1332 -0.8888 -0.4385
vn -0.0910 -0.9475 -0.3067
vn -0.3655 -0.8031 -0.4706
vn -0.4885 -0.8058 -0.3349
vn 0.3104 -0.1588 0.9372
vn 0.8773 -0.1730 0.4477
vn 0.8154 -0.3647 0.4496
vn 0.3128 -0.1003 0.9445
usemtl Shape.17858
s off
f 10//1 28//1 55//1
f 11//2 4//2 14//2
f 6//3 9//3 16//3
f 6//4 7//4 17//4
f 5//5 18//5 21//5
f 18//6 8//6 21//6
f 7//7 6//7 22//7
f 12//8 7//8 22//8
f 9//9 7//9 23//9
f 4//10 11//10 24//10
f 11//11 13//11 24//11
f 14//12 5//12 25//12
f 11//13 14//13 25//13
f 26//14 18//14 27//14
f 14//15 10//15 27//15
f 5//16 14//16 27//16
f 18//17 5//17 27//17
f 14//2 4//2 28//2
f 10//18 14//18 28//18
f 25//19 2//19 29//19
f 11//20 25//20 29//20
f 19//21 20//21 30//21
f 24//22 13//22 30//22
f 8//23 9//23 31//23
f 21//24 8//24 31//24
f 9//25 23//25 31//25
f 28//26 4//26 32//26
f 18//27 26//27 33//27
f 23//28 7//28 34//28
f 13//29 11//29 35//29
f 11//30 29//30 35//30
f 30//31 13//31 35//31
f 12//32 1//32 36//32
f 4//33 15//33 36//33
f 15//34 12//34 36//34
f 1//35 32//35 36//35
f 32//36 4//36 36//36
f 16//37 8//37 37//37
f 8//38 18//38 37//38
f 18//39 33//39 37//39
f 33//40 22//40 37//40
f 2//41 25//41 38//41
f 7//42 20//42 39//42
f 34//43 7//43 39//43
f 15//44 4//44 40//44
f 20//45 15//45 40//45
f 4//46 24//46 40//46
f 30//47 20//47 40//47
f 24//48 30//48 40//48
f 1//49 28//49 41//49
f 32//50 1//50 41//50
f 28//51 32//51 41//51
f 9//52 8//52 42//52
f 8//53 16//53 42//53
f 16//54 9//54 42//54
f 6//3 16//3 43//3
f 22//55 6//55 43//55
f 16//56 37//56 43//56
f 37//57 22//57 43//57
f 3//58 2//58 44//58
f 21//59 31//59 44//59
f 2//60 38//60 44//60
f 38//61 21//61 44//61
f 2//62 3//62 45//62
f 29//63 2//63 45//63
f 35//64 29//64 45//64
f 31//65 23//65 46//65
f 3//66 44//66 46//66
f 44//67 31//67 46//67
f 7//68 12//68 47//68
f 12//69 15//69 47//69
f 15//70 20//70 47//70
f 20//71 7//71 47//71
f 7//72 9//72 48//72
f 9//3 6//3 48//3
f 6//3 17//3 48//3
f 17//73 7//73 48//73
f 12//74 22//74 49//74
f 26//75 12//75 49//75
f 22//76 33//76 49//76
f 33//77 26//77 49//77
f 10//78 26//78 50//78
f 26//79 27//79 50//79
f 27//80 10//80 50//80
f 20//81 19//81 51//81
f 19//82 34//82 51//82
f 39//83 20//83 51//83
f 34//84 39//84 51//84
f 19//85 30//85 52//85
f 30//86 35//86 52//86
f 45//87 3//87 52//87
f 35//88 45//88 52//88
f 5//89 21//89 53//89
f 25//90 5//90 53//90
f 21//91 38//91 53//91
f 38//92 25//92 53//92
f 34//93 19//93 54//93
f 23//94 34//94 54//94
f 3//95 46//95 54//95
f 46//96 23//96 54//96
f 52//97 3//97 54//97
f 19//98 52//98 54//98
f 1//99 12//99 55//99
f 26//100 10//100 55//100
f 12//101 26//101 55//101
f 28//102 1//102 55//102
