####
#
# OBJ File Generated by Meshlab
#
####
# Object 100431_link_0_22.obj
#
# Vertices: 13
# Faces: 22
#
####
mtllib ./100431_link_0_22.obj.mtl

vn -0.676742 0.718415 -0.160934
v 0.436897 0.604385 -0.022804
vn 0.408735 -0.827718 -0.384473
v 0.486337 0.503671 -0.033361
vn -0.132667 -0.763306 0.632268
v 0.450894 0.490337 -0.032862
vn 0.226941 -0.033250 -0.973341
v 0.461058 0.574506 -0.086612
vn 0.510980 0.759472 0.402618
v 0.495189 0.580967 0.005238
vn -0.874228 -0.239646 0.422250
v 0.425975 0.540477 -0.001592
vn -0.650296 -0.214401 -0.728799
v 0.437789 0.542537 -0.068130
vn 0.892284 0.430932 -0.134636
v 0.527174 0.571930 -0.048293
vn 0.379531 -0.412007 0.828376
v 0.482484 0.539843 0.002072
vn 0.020989 0.955038 -0.295739
v 0.455179 0.591668 -0.063691
vn -0.218455 0.212769 0.952369
v 0.433386 0.593456 0.016699
vn 0.606688 -0.577909 -0.545848
v 0.511516 0.526532 -0.048330
vn -0.625501 -0.538492 -0.564602
v 0.432720 0.507391 -0.047547
# 13 vertices, 0 vertices normals


usemtl material_0
f 7//7 2//2 13//13
f 6//6 1//1 7//7
f 8//8 5//5 9//9
f 3//3 2//2 9//9
f 6//6 3//3 9//9
f 1//1 5//5 10//10
f 7//7 1//1 10//10
f 4//4 7//7 10//10
f 8//8 4//4 10//10
f 5//5 8//8 10//10
f 5//5 1//1 11//11
f 1//1 6//6 11//11
f 9//9 5//5 11//11
f 6//6 9//9 11//11
f 2//2 7//7 12//12
f 7//7 4//4 12//12
f 4//4 8//8 12//12
f 8//8 9//9 12//12
f 9//9 2//2 12//12
f 2//2 3//3 13//13
f 3//3 6//6 13//13
f 6//6 7//7 13//13
# 22 faces, 0 coords texture

# End of File
