####
#
# OBJ File Generated by Meshlab
#
####
# Object 100431_link_0_6.obj
#
# Vertices: 20
# Faces: 36
#
####
mtllib ./100431_link_0_6.obj.mtl

vn 0.043554 -0.115068 0.992402
v 0.078818 0.883674 -0.399199
vn -0.153829 0.400775 -0.903170
v 0.040973 0.887005 -0.510412
vn -0.635657 -0.141798 -0.758837
v 0.031587 0.867360 -0.516466
vn 0.507627 0.215934 -0.834079
v 0.167461 0.856890 -0.500434
vn 0.320110 0.718498 0.617486
v 0.154902 0.916300 -0.444557
vn 0.502277 -0.627797 0.594633
v 0.154128 0.828144 -0.448021
vn -0.632977 -0.641660 -0.433143
v 0.037766 0.846682 -0.500190
vn -0.690622 0.662743 0.289506
v 0.035857 0.908276 -0.459445
vn -0.531739 -0.628437 0.567733
v 0.031708 0.845295 -0.451611
vn 0.421905 0.755675 -0.500951
v 0.141070 0.924579 -0.494530
vn 0.195742 -0.853229 -0.483410
v 0.150489 0.829038 -0.480889
vn 0.028424 -0.614678 0.788265
v 0.143538 0.849128 -0.427474
vn -0.165720 0.426206 -0.889317
v 0.060909 0.925086 -0.510465
vn 0.578058 0.560167 0.593348
v 0.153480 0.889690 -0.429388
vn -0.521059 -0.497779 0.693335
v 0.027393 0.874107 -0.425661
vn 0.074557 -0.404375 -0.911549
v 0.082326 0.840505 -0.536363
vn -0.072620 0.969796 0.232857
v 0.069769 0.945642 -0.472705
vn 0.725311 0.130415 -0.675955
v 0.157143 0.884215 -0.491779
vn -0.143259 -0.989169 -0.031965
v 0.070444 0.800849 -0.477012
vn -0.097755 0.895015 0.435193
v 0.048412 0.909799 -0.416265
# 20 vertices, 0 vertices normals


usemtl material_0
f 8//8 15//15 20//20
f 2//2 3//3 7//7
f 2//2 7//7 8//8
f 8//8 7//7 9//9
f 4//4 6//6 11//11
f 9//9 6//6 12//12
f 2//2 8//8 13//13
f 5//5 8//8 14//14
f 1//1 12//12 14//14
f 12//12 6//6 14//14
f 8//8 9//9 15//15
f 12//12 1//1 15//15
f 9//9 12//12 15//15
f 3//3 2//2 16//16
f 2//2 4//4 16//16
f 7//7 3//3 16//16
f 4//4 11//11 16//16
f 11//11 7//7 16//16
f 8//8 5//5 17//17
f 5//5 10//10 17//17
f 13//13 8//8 17//17
f 10//10 13//13 17//17
f 4//4 2//2 18//18
f 6//6 4//4 18//18
f 10//10 5//5 18//18
f 2//2 13//13 18//18
f 13//13 10//10 18//18
f 5//5 14//14 18//18
f 14//14 6//6 18//18
f 9//9 7//7 19//19
f 6//6 9//9 19//19
f 11//11 6//6 19//19
f 7//7 11//11 19//19
f 1//1 14//14 20//20
f 14//14 8//8 20//20
f 15//15 1//1 20//20
# 36 faces, 0 coords texture

# End of File
