####
#
# OBJ File Generated by Meshlab
#
####
# Object 100431_link_0_19.obj
#
# Vertices: 11
# Faces: 18
#
####
mtllib ./100431_link_0_19.obj.mtl

vn 0.744437 0.628620 -0.225057
v -0.496879 0.601230 -0.049632
vn -0.733083 -0.576936 -0.360186
v -0.541275 0.521296 -0.036870
vn 0.145709 -0.968572 0.201586
v -0.505302 0.494510 -0.038714
vn -0.490202 0.502340 0.712289
v -0.530964 0.576491 0.006192
vn 0.871703 -0.190479 0.451500
v -0.473796 0.538877 -0.001171
vn 0.677151 -0.234890 -0.697347
v -0.486198 0.535409 -0.058886
vn 0.496495 0.639772 0.586672
v -0.484620 0.593281 -0.006111
vn -0.330081 0.934739 -0.131562
v -0.509142 0.591613 -0.067329
vn -0.905413 0.272899 -0.325197
v -0.569210 0.576266 -0.045523
vn -0.285747 -0.527635 0.799969
v -0.522077 0.542309 0.000197
vn -0.133017 -0.215620 -0.967375
v -0.502909 0.575258 -0.072953
# 11 vertices, 0 vertices normals


usemtl material_0
f 9//9 8//8 11//11
f 3//3 2//2 6//6
f 1//1 5//5 6//6
f 5//5 3//3 6//6
f 1//1 4//4 7//7
f 5//5 1//1 7//7
f 4//4 5//5 7//7
f 4//4 1//1 8//8
f 2//2 4//4 9//9
f 4//4 8//8 9//9
f 2//2 3//3 10//10
f 4//4 2//2 10//10
f 5//5 4//4 10//10
f 3//3 5//5 10//10
f 6//6 2//2 11//11
f 1//1 6//6 11//11
f 8//8 1//1 11//11
f 2//2 9//9 11//11
# 18 faces, 0 coords texture

# End of File
