# Blender v2.79 (sub 0) OBJ File: ''
# www.blender.org
mtllib 102675_link_1_16.mtl
o Shape_IndexedFaceSet.016_Shape_IndexedFaceSet.7622
v 0.100429 -0.093310 0.593562
v 0.174001 -0.107616 0.536318
v 0.174001 -0.111708 0.536318
v 0.171958 -0.093310 0.436148
v 0.098371 -0.111708 0.579242
v 0.098371 -0.091265 0.513840
v 0.174001 -0.091265 0.507731
v 0.100429 -0.111708 0.618106
v 0.174001 -0.111708 0.495459
v 0.133132 -0.099443 0.583339
v 0.098371 -0.091265 0.587435
v 0.098371 -0.093310 0.513840
v 0.174001 -0.091265 0.436148
v 0.131088 -0.111708 0.593562
v 0.161740 -0.101486 0.552650
v 0.157653 -0.091265 0.534269
v 0.098371 -0.103527 0.616058
v 0.169914 -0.111708 0.497489
v 0.114733 -0.091265 0.579242
v 0.118827 -0.101486 0.599689
v 0.174001 -0.097398 0.526112
vn 0.4755 0.8095 0.3444
vn 1.0000 0.0000 0.0000
vn 0.0000 -1.0000 0.0000
vn -1.0000 0.0000 0.0000
vn 0.0000 1.0000 0.0000
vn -0.7260 0.0000 -0.6877
vn -0.5826 0.5821 -0.5672
vn 0.6874 -0.6867 -0.2367
vn 0.8001 0.0000 0.5998
vn 0.6847 0.3959 0.6119
vn 0.8001 0.0019 0.5999
vn 0.4431 0.8217 0.3584
vn -0.9715 -0.2315 0.0514
vn -0.2507 0.8899 0.3812
vn -0.1434 -0.9466 -0.2887
vn -0.2991 -0.9112 -0.2833
vn -0.2956 -0.9196 -0.2587
vn 0.1363 0.9526 0.2722
vn 0.3270 0.8920 0.3121
vn 0.6015 0.2711 0.7514
vn 0.6589 0.4138 0.6282
vn 0.5691 0.3315 0.7525
vn 0.2484 0.8732 0.4193
vn 0.2629 0.8830 0.3888
vn 0.3051 0.8749 0.3762
vn 0.7917 0.4318 0.4323
vn 0.4570 0.8437 0.2815
usemtl Shape.7630
s off
f 16//1 15//1 21//1
f 2//2 3//2 7//2
f 5//3 3//3 8//3
f 3//3 5//3 9//3
f 7//2 3//2 9//2
f 6//4 5//4 11//4
f 7//5 6//5 11//5
f 6//6 4//6 12//6
f 5//4 6//4 12//4
f 4//7 6//7 13//7
f 6//5 7//5 13//5
f 9//8 4//8 13//8
f 7//2 9//2 13//2
f 3//9 2//9 14//9
f 8//3 3//3 14//3
f 10//10 14//10 15//10
f 14//11 2//11 15//11
f 7//5 11//5 16//5
f 10//12 15//12 16//12
f 5//13 8//13 17//13
f 11//4 5//4 17//4
f 1//14 11//14 17//14
f 4//15 9//15 18//15
f 9//3 5//3 18//3
f 12//16 4//16 18//16
f 5//17 12//17 18//17
f 11//18 1//18 19//18
f 10//19 16//19 19//19
f 16//5 11//5 19//5
f 8//20 14//20 20//20
f 14//21 10//21 20//21
f 17//22 8//22 20//22
f 1//23 17//23 20//23
f 19//24 1//24 20//24
f 10//25 19//25 20//25
f 2//2 7//2 21//2
f 15//26 2//26 21//26
f 7//27 16//27 21//27
