# Blender v2.79 (sub 0) OBJ File: ''
# www.blender.org
mtllib 102675_link_0_7.mtl
o Shape_IndexedFaceSet.007_Shape_IndexedFaceSet.3392
v -0.164666 -0.132404 0.205153
v -0.235644 -0.132404 0.203957
v -0.235644 -0.133585 0.212251
v -0.235644 -0.131221 0.273754
v -0.161120 -0.138318 0.205153
v -0.229721 -0.127672 0.203957
v -0.235644 -0.134768 0.273754
v -0.235644 -0.128855 0.247724
v -0.201328 -0.137133 0.227631
v -0.157573 -0.134768 0.203957
v -0.201328 -0.128855 0.203957
v -0.224982 -0.130038 0.258375
v -0.165851 -0.138318 0.203957
v -0.235644 -0.134768 0.242996
v -0.235644 -0.127672 0.203957
v -0.157573 -0.137133 0.205153
vn 0.1900 -0.4431 -0.8761
vn -1.0000 0.0000 0.0000
vn -0.0014 -0.9987 0.0502
vn 0.3486 0.8712 0.3457
vn 0.0000 0.0000 -1.0000
vn 0.0416 0.9986 0.0326
vn 0.0872 0.6456 -0.7587
vn 0.2575 0.9333 0.2503
vn 0.0201 0.9957 0.0905
vn 0.0941 0.9936 0.0625
vn 0.0620 0.9969 0.0486
vn -0.0836 -0.9865 -0.1405
vn -0.0749 -0.9952 -0.0624
vn -0.0092 -0.9993 0.0363
vn -0.0858 -0.9956 -0.0383
vn -0.0688 -0.9976 0.0000
vn 0.0000 0.9996 0.0270
vn 0.6601 0.0000 0.7512
vn 0.2949 -0.8827 0.3660
vn 0.6333 0.3493 0.6906
vn 0.1976 -0.5915 -0.7817
usemtl Shape.3397
s off
f 13//1 10//1 16//1
f 2//2 3//2 4//2
f 4//2 3//2 7//2
f 2//2 4//2 8//2
f 5//3 7//3 9//3
f 1//4 4//4 10//4
f 2//5 6//5 10//5
f 6//6 8//6 11//6
f 1//7 10//7 11//7
f 10//5 6//5 11//5
f 4//8 1//8 12//8
f 8//9 4//9 12//9
f 1//10 11//10 12//10
f 11//11 8//11 12//11
f 3//12 2//12 13//12
f 9//13 3//13 13//13
f 5//14 9//14 13//14
f 2//5 10//5 13//5
f 7//2 3//2 14//2
f 3//15 9//15 14//15
f 9//16 7//16 14//16
f 6//5 2//5 15//5
f 2//2 8//2 15//2
f 8//17 6//17 15//17
f 4//18 7//18 16//18
f 7//19 5//19 16//19
f 10//20 4//20 16//20
f 5//21 13//21 16//21
