# Blender v2.79 (sub 0) OBJ File: ''
# www.blender.org
mtllib 102675_link_0_51.mtl
o Shape_IndexedFaceSet.051_Shape_IndexedFaceSet.3436
v 0.037649 -0.141867 0.652353
v 0.050666 -0.139503 0.631061
v 0.050666 -0.138320 0.631061
v 0.004528 -0.137137 0.640529
v 0.004528 -0.146600 0.651171
v 0.055402 -0.146600 0.642893
v 0.051852 -0.135954 0.640529
v 0.004528 -0.138320 0.652353
v 0.016360 -0.146600 0.657090
v 0.055402 -0.146600 0.648804
v 0.006899 -0.140686 0.640529
v 0.055402 -0.135954 0.634616
v 0.004528 -0.135954 0.647622
v 0.027017 -0.138320 0.651171
v 0.055402 -0.138320 0.644076
vn 0.1169 0.8762 0.4675
vn -0.2010 0.0000 -0.9796
vn -0.0796 -0.8686 -0.4891
vn -1.0000 -0.0000 -0.0000
vn 0.0000 -1.0000 0.0000
vn -0.4438 -0.1266 0.8871
vn 0.2074 0.0452 0.9772
vn -0.2059 -0.1375 -0.9689
vn -0.7455 -0.4981 -0.4429
vn -0.0845 -0.8629 -0.4983
vn 0.6003 0.0000 -0.7998
vn -0.0761 0.8739 -0.4802
vn 0.7250 -0.4228 -0.5438
vn 1.0000 -0.0000 0.0000
vn -0.0420 0.9855 -0.1644
vn 0.0000 1.0000 0.0000
vn 0.0761 0.5131 0.8549
vn 0.0441 0.5428 0.8387
vn 0.0484 0.9451 0.3232
vn 0.0235 0.8941 0.4472
vn 0.2924 0.4742 0.8304
vn 0.3747 0.8994 0.2250
vn 0.1672 0.7242 0.6690
usemtl Shape.3441
s off
f 7//1 14//1 15//1
f 3//2 2//2 4//2
f 5//3 2//3 6//3
f 4//4 5//4 8//4
f 5//5 6//5 9//5
f 8//6 5//6 9//6
f 9//5 6//5 10//5
f 1//7 9//7 10//7
f 4//8 2//8 11//8
f 5//9 4//9 11//9
f 2//10 5//10 11//10
f 2//11 3//11 12//11
f 3//12 4//12 12//12
f 6//13 2//13 12//13
f 10//14 6//14 12//14
f 4//4 8//4 13//4
f 12//15 4//15 13//15
f 7//16 12//16 13//16
f 9//17 1//17 14//17
f 8//18 9//18 14//18
f 7//19 13//19 14//19
f 13//20 8//20 14//20
f 1//21 10//21 15//21
f 12//22 7//22 15//22
f 10//14 12//14 15//14
f 14//23 1//23 15//23
