# Blender v2.79 (sub 0) OBJ File: ''
# www.blender.org
mtllib 102675_link_0_6.mtl
o Shape_IndexedFaceSet.006_Shape_IndexedFaceSet.3391
v -0.251022 -0.131221 0.213439
v -0.235646 -0.132404 0.276110
v -0.235646 -0.133585 0.276110
v -0.252206 -0.137133 0.305688
v -0.246291 -0.138318 0.203968
v -0.235646 -0.127672 0.203968
v -0.245109 -0.130038 0.303328
v -0.246291 -0.138318 0.309254
v -0.254572 -0.138318 0.243007
v -0.251022 -0.130038 0.256023
v -0.236829 -0.131221 0.309254
v -0.235646 -0.134768 0.244192
v -0.235646 -0.132404 0.203968
v -0.246291 -0.128855 0.203968
v -0.251022 -0.138318 0.203968
v -0.236829 -0.134768 0.309254
v -0.254572 -0.134768 0.259548
v -0.249840 -0.132404 0.305688
v -0.246291 -0.128855 0.254838
vn -0.2426 0.9701 0.0000
vn 1.0000 0.0000 0.0000
vn 0.0000 -1.0000 0.0000
vn -0.2117 -0.9770 0.0265
vn 0.9994 0.0000 0.0357
vn 0.9429 0.3323 0.0218
vn 0.1169 0.9925 0.0348
vn 0.3164 -0.9486 0.0000
vn -0.0000 0.0000 -1.0000
vn 0.4850 -0.8730 -0.0513
vn -0.4856 0.8738 -0.0243
vn -0.9887 0.1200 -0.0899
vn -0.8481 0.4240 -0.3177
vn 0.0000 0.0000 1.0000
vn 0.8977 -0.4404 0.0163
vn 0.3513 -0.9363 0.0064
vn -0.9654 0.2549 -0.0547
vn -0.9811 -0.1892 0.0406
vn -0.8055 0.5923 -0.0165
vn -0.7813 0.6223 0.0482
vn -0.4672 0.2338 0.8527
vn -0.4253 0.9035 0.0532
vn -0.2042 0.8652 0.4580
vn -0.2767 0.3689 0.8873
vn -0.8922 0.4464 0.0686
vn 0.0049 0.9997 0.0243
vn -0.2355 0.9714 0.0294
vn -0.1105 0.9939 0.0000
usemtl Shape.3396
s off
f 14//1 10//1 19//1
f 2//2 3//2 6//2
f 5//3 8//3 9//3
f 8//4 4//4 9//4
f 3//5 2//5 11//5
f 2//6 6//6 11//6
f 6//7 7//7 11//7
f 6//2 3//2 12//2
f 8//8 5//8 12//8
f 5//9 6//9 13//9
f 6//2 12//2 13//2
f 12//10 5//10 13//10
f 6//9 5//9 14//9
f 1//11 10//11 14//11
f 5//3 9//3 15//3
f 9//12 1//12 15//12
f 1//13 14//13 15//13
f 14//9 5//9 15//9
f 3//5 11//5 16//5
f 11//14 8//14 16//14
f 12//15 3//15 16//15
f 8//16 12//16 16//16
f 1//17 9//17 17//17
f 9//18 4//18 17//18
f 10//19 1//19 17//19
f 10//20 17//20 18//20
f 4//21 8//21 18//21
f 7//22 10//22 18//22
f 11//23 7//23 18//23
f 8//24 11//24 18//24
f 17//25 4//25 18//25
f 7//26 6//26 19//26
f 10//27 7//27 19//27
f 6//28 14//28 19//28
