# Blender v2.79 (sub 0) OBJ File: ''
# www.blender.org
mtllib 102675_link_1_22.mtl
o Shape_IndexedFaceSet.022_Shape_IndexedFaceSet.7628
v -0.236917 -0.087167 0.127444
v -0.204220 -0.052423 0.215346
v -0.204220 -0.070817 0.215346
v -0.204220 -0.064687 0.076336
v -0.247138 -0.078990 0.213277
v -0.208306 -0.044245 0.119266
v -0.210350 -0.091258 0.115184
v -0.230787 -0.091258 0.215346
v -0.226700 -0.056514 0.213277
v -0.230787 -0.068773 0.121321
v -0.251229 -0.091258 0.198976
v -0.226700 -0.091258 0.104965
v -0.243051 -0.074903 0.168306
v -0.218527 -0.066730 0.086568
v -0.204220 -0.078990 0.088609
v -0.204220 -0.046293 0.100869
v -0.224657 -0.054466 0.166265
v -0.251229 -0.085124 0.215346
v -0.206263 -0.052423 0.082472
v -0.206263 -0.044245 0.143800
v -0.245094 -0.081037 0.164224
v -0.212393 -0.052423 0.215346
v -0.243051 -0.091258 0.149909
v -0.208306 -0.089211 0.104965
v -0.214436 -0.072860 0.082472
v -0.238960 -0.068773 0.186703
v -0.234873 -0.076946 0.123362
v -0.251229 -0.091258 0.215346
vn -1.0000 0.0000 0.0000
vn 1.0000 0.0000 0.0000
vn 0.0000 0.0000 1.0000
vn 0.6051 -0.7865 0.1235
vn 0.0000 -1.0000 0.0000
vn -0.9108 -0.0062 -0.4128
vn -0.4959 0.8682 0.0163
vn -0.7372 0.6664 -0.1116
vn -0.7443 0.6590 -0.1083
vn -0.6533 0.5940 0.4694
vn -0.8357 0.5486 -0.0261
vn -0.7320 0.6553 -0.1863
vn -0.5843 0.2832 -0.7605
vn -0.7701 0.5923 -0.2369
vn 0.9487 0.2529 -0.1896
vn -0.5419 0.8136 -0.2109
vn -0.4235 0.9052 0.0353
vn 0.9048 0.4252 0.0228
vn 0.3424 0.9391 -0.0285
vn -0.8918 0.4158 -0.1785
vn -0.9625 0.2541 -0.0952
vn -0.9278 0.3638 -0.0823
vn -0.2073 0.2462 0.9468
vn 0.0000 0.9935 0.1136
vn -0.2852 0.9547 0.0847
vn -0.8510 -0.4241 -0.3096
vn -0.9859 0.0331 -0.1643
vn 0.8385 -0.5416 0.0592
vn 0.1089 -0.9787 -0.1743
vn 0.9399 -0.3406 0.0220
vn 0.0951 -0.8547 -0.5103
vn -0.5891 0.1387 -0.7960
vn -0.8068 -0.1581 -0.5692
vn 0.0650 -0.6498 -0.7573
vn -0.0619 -0.7558 -0.6519
vn -0.7395 0.6724 0.0310
vn -0.8042 0.5940 -0.0191
vn -0.7072 0.7071 0.0001
vn -0.7449 0.6648 -0.0559
vn -0.8830 0.3691 -0.2898
vn -0.9160 0.0232 -0.4005
vn -0.8968 0.4024 -0.1840
vn -0.9646 0.0946 -0.2462
vn -0.9651 0.1273 -0.2287
usemtl Shape.7636
s off
f 18//1 11//1 28//1
f 2//2 3//2 4//2
f 3//3 2//3 8//3
f 7//4 3//4 8//4
f 7//5 8//5 11//5
f 7//5 11//5 12//5
f 12//6 1//6 14//6
f 4//2 3//2 15//2
f 2//2 4//2 16//2
f 9//7 6//7 17//7
f 6//8 10//8 17//8
f 10//9 13//9 17//9
f 8//3 2//3 18//3
f 9//10 5//10 18//10
f 5//11 13//11 18//11
f 10//12 6//12 19//12
f 4//13 14//13 19//13
f 14//14 10//14 19//14
f 16//15 4//15 19//15
f 6//16 16//16 19//16
f 6//17 9//17 20//17
f 2//18 16//18 20//18
f 16//19 6//19 20//19
f 13//20 10//20 21//20
f 11//21 18//21 21//21
f 18//22 13//22 21//22
f 18//3 2//3 22//3
f 9//23 18//23 22//23
f 2//24 20//24 22//24
f 20//25 9//25 22//25
f 1//26 12//26 23//26
f 12//5 11//5 23//5
f 11//27 21//27 23//27
f 3//28 7//28 24//28
f 7//29 12//29 24//29
f 15//30 3//30 24//30
f 12//31 15//31 24//31
f 14//32 4//32 25//32
f 12//33 14//33 25//33
f 4//34 15//34 25//34
f 15//35 12//35 25//35
f 5//36 9//36 26//36
f 13//37 5//37 26//37
f 9//38 17//38 26//38
f 17//39 13//39 26//39
f 10//40 14//40 27//40
f 14//41 1//41 27//41
f 21//42 10//42 27//42
f 1//43 23//43 27//43
f 23//44 21//44 27//44
f 11//5 8//5 28//5
f 8//3 18//3 28//3
