# Blender v2.79 (sub 0) OBJ File: ''
# www.blender.org
mtllib 102675_link_0_9.mtl
o Shape_IndexedFaceSet.009_Shape_IndexedFaceSet.3394
v 0.248248 -0.140690 0.173203
v 0.239968 -0.171442 0.199219
v 0.239968 -0.165527 0.192123
v 0.247066 -0.139501 0.203950
v 0.252982 -0.169076 0.199219
v 0.239968 -0.140690 0.164914
v 0.251799 -0.139501 0.203950
v 0.239968 -0.166709 0.203950
v 0.252982 -0.169076 0.203950
v 0.239968 -0.139501 0.172018
v 0.245884 -0.141871 0.166103
v 0.249432 -0.165527 0.192123
vn 0.0000 -0.7399 -0.6727
vn -1.0000 0.0000 0.0000
vn 0.9914 0.0583 -0.1168
vn 0.0000 0.0000 1.0000
vn 0.1789 -0.9839 0.0000
vn 0.9992 0.0400 0.0000
vn -0.1275 -0.7012 0.7015
vn 0.1630 0.9731 -0.1629
vn 0.0000 1.0000 0.0000
vn 0.1497 0.9872 -0.0555
vn -0.9460 0.2468 0.2103
vn 0.9481 -0.1139 -0.2968
vn -0.0119 -0.7385 -0.6741
vn 0.2355 0.9430 -0.2353
vn 0.0000 -0.7681 -0.6403
vn 0.1546 -0.8505 -0.5027
vn 0.6102 -0.5430 -0.5769
usemtl Shape.3399
s off
f 3//1 11//1 12//1
f 3//2 2//2 6//2
f 5//3 1//3 7//3
f 6//2 2//2 8//2
f 7//4 4//4 8//4
f 7//4 8//4 9//4
f 2//5 5//5 9//5
f 5//6 7//6 9//6
f 8//7 2//7 9//7
f 1//8 6//8 10//8
f 4//9 7//9 10//9
f 7//10 1//10 10//10
f 6//2 8//2 10//2
f 8//11 4//11 10//11
f 1//12 5//12 11//12
f 3//13 6//13 11//13
f 6//14 1//14 11//14
f 2//15 3//15 12//15
f 5//16 2//16 12//16
f 11//17 5//17 12//17
