# Blender v2.79 (sub 0) OBJ File: ''
# www.blender.org
mtllib 102675_link_2_75.mtl
o Shape_IndexedFaceSet.075_Shape_IndexedFaceSet.9047
v 0.060145 -0.798650 -0.199766
v 0.066152 -0.498213 -0.179802
v 0.059751 -0.489281 -0.177658
v 0.059930 -0.498213 -0.254490
v 0.066152 -0.803168 -0.254490
v 0.066152 -0.803168 -0.186038
v 0.066152 -0.498213 -0.254490
v 0.060099 -0.795049 -0.252460
vn -0.3260 -0.0067 -0.9454
vn 1.0000 0.0000 0.0000
vn -0.9192 -0.0292 0.3926
vn 0.2929 -0.0195 0.9559
vn -0.6011 -0.7992 0.0000
vn 0.8128 0.5825 0.0000
vn 0.0000 0.9933 -0.1155
vn 0.0000 0.0000 -1.0000
vn -1.0000 -0.0013 0.0008
vn -1.0000 -0.0006 -0.0023
vn -0.8058 -0.5908 -0.0397
usemtl Shape.9056
s off
f 4//1 5//1 8//1
f 5//2 2//2 6//2
f 3//3 1//3 6//3
f 2//4 3//4 6//4
f 1//5 5//5 6//5
f 3//6 2//6 7//6
f 4//7 3//7 7//7
f 5//8 4//8 7//8
f 2//2 5//2 7//2
f 1//9 3//9 8//9
f 3//10 4//10 8//10
f 5//11 1//11 8//11
