# Blender v2.79 (sub 0) OBJ File: ''
# www.blender.org
mtllib 102675_link_2_58.mtl
o Shape_IndexedFaceSet.058_Shape_IndexedFaceSet.9030
v 0.091049 -0.292801 0.554630
v 0.022595 -0.193248 0.666651
v 0.010137 -0.193248 0.666651
v 0.047488 -0.305247 0.610641
v 0.091049 -0.193248 0.647977
v 0.006196 -0.187793 0.637957
v 0.010137 -0.305247 0.585760
v 0.091049 -0.193248 0.604434
v 0.091049 -0.305247 0.591989
v 0.010137 -0.299030 0.616858
v 0.084824 -0.274139 0.560869
vn -0.2979 0.4703 -0.8307
vn 0.2423 -0.3903 0.8882
vn 0.0442 0.9858 0.1621
vn 0.0000 0.9824 0.1868
vn 1.0000 0.0000 0.0000
vn 0.0642 0.9979 0.0000
vn 0.3577 -0.4176 0.8353
vn 0.0243 -0.9485 -0.3160
vn 0.0000 -1.0000 0.0000
vn 0.0000 -0.4259 0.9048
vn 0.0776 -0.4321 0.8985
vn -0.9904 -0.0588 0.1249
vn -0.9993 -0.0368 0.0074
vn -0.1295 -0.9723 0.1944
vn -0.3771 0.1781 -0.9089
vn -0.4254 0.3556 -0.8322
vn 0.4065 0.4088 -0.8171
usemtl Shape.9039
s off
f 6//1 8//1 11//1
f 2//2 4//2 5//2
f 2//3 5//3 6//3
f 3//4 2//4 6//4
f 5//5 1//5 8//5
f 6//6 5//6 8//6
f 1//5 5//5 9//5
f 5//7 4//7 9//7
f 7//8 1//8 9//8
f 4//9 7//9 9//9
f 2//10 3//10 10//10
f 4//11 2//11 10//11
f 3//12 6//12 10//12
f 6//13 7//13 10//13
f 7//14 4//14 10//14
f 1//15 7//15 11//15
f 7//16 6//16 11//16
f 8//17 1//17 11//17
