# Blender v2.79 (sub 0) OBJ File: ''
# www.blender.org
mtllib 102675_link_2_26.mtl
o Shape_IndexedFaceSet.026_Shape_IndexedFaceSet.8998
v -0.220308 0.043755 -0.089311
v -0.338407 -0.124750 -0.148673
v -0.332169 -0.124750 -0.154898
v -0.338407 0.111716 -0.148673
v -0.325943 -0.124750 -0.073994
v -0.213951 -0.031400 -0.142449
v -0.325943 0.111716 -0.073994
v -0.269959 0.111716 -0.154898
v -0.269959 -0.124750 -0.073994
v -0.269959 -0.124750 -0.154898
v -0.269959 0.111716 -0.073994
v -0.213951 -0.031400 -0.092676
v -0.221943 0.031430 -0.149703
v -0.333215 0.101852 -0.088787
v -0.257508 -0.124750 -0.086451
v -0.223584 0.014514 -0.080256
v -0.257508 0.111716 -0.142449
v -0.332169 0.111716 -0.154898
v -0.333203 -0.114862 -0.088792
v -0.257508 -0.124750 -0.142449
vn 0.0000 -1.0000 0.0000
vn -0.7064 0.0000 -0.7078
vn 0.0000 1.0000 0.0000
vn 0.0000 0.0000 1.0000
vn 0.0000 0.0000 -1.0000
vn 0.9964 0.0843 0.0000
vn 0.9914 0.1202 -0.0514
vn 0.1076 0.0000 -0.9942
vn 0.3230 -0.0679 -0.9440
vn -0.9963 0.0000 0.0864
vn -0.8891 0.4329 0.1484
vn -0.8974 0.0000 0.4412
vn 0.9062 -0.4228 0.0000
vn 0.6806 -0.2722 0.6802
vn 0.5255 0.1974 0.8276
vn 0.1338 0.0000 0.9910
vn 0.8733 0.0522 0.4844
vn 0.4984 -0.1274 0.8575
vn 0.8142 0.5614 0.1481
vn 0.9053 0.4108 -0.1083
vn 0.6616 0.3528 -0.6617
vn -0.8900 -0.4311 0.1485
vn -0.9962 -0.0001 0.0866
vn -0.8978 -0.0001 0.4404
vn 0.6715 -0.3133 -0.6716
usemtl Shape.9007
s off
f 15//1 10//1 20//1
f 3//2 2//2 4//2
f 2//1 3//1 5//1
f 4//3 7//3 8//3
f 5//1 3//1 9//1
f 7//4 5//4 9//4
f 3//5 8//5 10//5
f 9//1 3//1 10//1
f 8//3 7//3 11//3
f 7//4 9//4 11//4
f 6//6 1//6 12//6
f 1//7 6//7 13//7
f 10//8 8//8 13//8
f 6//9 10//9 13//9
f 4//10 2//10 14//10
f 7//11 4//11 14//11
f 5//12 7//12 14//12
f 9//1 10//1 15//1
f 6//13 12//13 15//13
f 12//14 9//14 15//14
f 1//15 11//15 16//15
f 11//16 9//16 16//16
f 12//17 1//17 16//17
f 9//18 12//18 16//18
f 11//19 1//19 17//19
f 8//3 11//3 17//3
f 1//20 13//20 17//20
f 13//21 8//21 17//21
f 3//2 4//2 18//2
f 8//5 3//5 18//5
f 4//3 8//3 18//3
f 2//22 5//22 19//22
f 14//23 2//23 19//23
f 5//24 14//24 19//24
f 10//25 6//25 20//25
f 6//13 15//13 20//13
