# Blender v2.79 (sub 0) OBJ File: ''
# www.blender.org
mtllib 102675_link_0_43.mtl
o Shape_IndexedFaceSet.043_Shape_IndexedFaceSet.3428
v -0.099583 -0.138319 0.621596
v -0.117332 -0.138319 0.588469
v -0.117332 -0.135953 0.588469
v -0.075923 -0.135953 0.620413
v -0.091306 -0.143051 0.620413
v -0.117332 -0.143051 0.610944
v -0.117332 -0.134769 0.595574
v -0.075923 -0.139501 0.620413
v -0.114965 -0.143051 0.601485
v -0.092489 -0.135953 0.621596
v -0.117332 -0.137136 0.605033
vn -0.2931 0.8787 0.3768
vn 0.6108 0.0000 -0.7918
vn -1.0000 0.0000 0.0000
vn -0.2627 -0.6400 0.7221
vn 0.1258 0.9786 -0.1631
vn 0.0404 -0.1752 0.9837
vn 0.2165 -0.9380 -0.2706
vn -0.6356 -0.7554 -0.1591
vn 0.0000 -1.0000 -0.0000
vn 0.2611 -0.8910 -0.3714
vn 0.0030 0.9991 0.0426
vn 0.0712 0.0000 0.9975
vn 0.0431 -0.1292 0.9907
vn -0.5226 0.6027 0.6031
vn -0.2037 0.9498 0.2377
usemtl Shape.3433
s off
f 1//1 10//1 11//1
f 2//2 3//2 4//2
f 3//3 2//3 6//3
f 5//4 1//4 6//4
f 3//3 6//3 7//3
f 4//5 3//5 7//5
f 2//2 4//2 8//2
f 1//6 5//6 8//6
f 8//7 5//7 9//7
f 6//8 2//8 9//8
f 5//9 6//9 9//9
f 2//10 8//10 9//10
f 4//11 7//11 10//11
f 8//12 4//12 10//12
f 1//13 8//13 10//13
f 6//14 1//14 11//14
f 7//3 6//3 11//3
f 10//15 7//15 11//15
