# Blender v2.79 (sub 0) OBJ File: ''
# www.blender.org
mtllib 102675_link_2_76.mtl
o Shape_IndexedFaceSet.076_Shape_IndexedFaceSet.9048
v -0.095672 -0.317730 -0.142459
v -0.101894 -0.448421 -0.148681
v -0.101894 -0.448421 -0.142459
v -0.101894 -0.317730 -0.148681
v -0.095672 -0.448421 -0.148681
vn 0.0000 0.0000 -1.0000
vn -1.0000 0.0000 0.0000
vn -0.7067 0.0336 0.7067
vn 0.7067 0.0336 -0.7067
vn 0.7067 -0.0336 0.7067
vn 0.0000 -1.0000 0.0000
usemtl Shape.9057
s off
f 2//1 4//1 5//1
f 2//2 3//2 4//2
f 3//3 1//3 4//3
f 4//4 1//4 5//4
f 1//5 3//5 5//5
f 3//6 2//6 5//6
