# Blender v2.79 (sub 0) OBJ File: ''
# www.blender.org
mtllib 102675_link_1_2.mtl
o Shape_IndexedFaceSet.002_Shape_IndexedFaceSet.7608
v 0.022738 -0.048334 0.413684
v 0.174011 -0.089214 0.501538
v 0.171961 -0.089214 0.505604
v 0.002281 -0.091263 0.546521
v 0.174011 -0.072860 0.291028
v 0.002281 -0.050382 0.288979
v 0.167876 -0.050377 0.293077
v 0.069756 -0.081031 0.579242
v 0.002281 -0.031973 0.288979
v 0.002281 -0.091263 0.616029
v 0.174011 -0.091257 0.421848
v 0.139248 -0.066725 0.450471
v 0.094282 -0.038108 0.299224
v 0.002281 -0.062634 0.505636
v 0.063620 -0.062640 0.489275
v 0.174011 -0.076946 0.466767
v 0.116757 -0.091263 0.571046
v 0.131062 -0.078988 0.528143
v 0.174011 -0.052420 0.288979
v 0.016603 -0.083080 0.603735
v 0.055451 -0.036065 0.315552
v 0.100417 -0.046291 0.356438
v 0.079976 -0.089214 0.597620
v 0.171961 -0.060603 0.368700
v 0.004331 -0.052420 0.297175
v 0.002281 -0.038108 0.346224
v 0.063620 -0.034022 0.288947
v 0.049315 -0.046291 0.393257
v 0.024772 -0.062634 0.503587
v 0.086112 -0.054468 0.423897
v 0.108587 -0.070811 0.503587
v 0.145384 -0.087166 0.538357
v 0.102451 -0.081037 0.560833
v 0.002281 -0.083080 0.603735
v 0.163791 -0.070817 0.288979
v 0.047264 -0.091257 0.611963
v 0.010467 -0.031973 0.299224
v 0.041129 -0.078994 0.581259
v 0.161740 -0.076946 0.485209
v 0.100417 -0.038108 0.293077
v 0.155605 -0.062640 0.405519
v 0.039095 -0.087171 0.609882
v 0.131062 -0.091263 0.556734
v 0.055451 -0.070811 0.536276
v 0.010467 -0.046285 0.403470
v 0.114723 -0.085123 0.562882
v 0.079976 -0.072860 0.534227
v 0.167876 -0.056517 0.344175
v 0.039095 -0.038108 0.338060
v 0.065671 -0.083080 0.589455
v 0.169910 -0.081037 0.489275
v 0.096316 -0.044242 0.346224
vn 0.1712 0.9770 0.1272
vn -1.0000 -0.0000 0.0000
vn -0.1006 -0.9852 -0.1386
vn 1.0000 -0.0000 0.0000
vn 0.0000 -1.0000 0.0000
vn 0.3762 0.9207 0.1042
vn 0.8057 0.5868 0.0810
vn -0.1237 -0.9803 -0.1537
vn -0.3346 -0.9307 -0.1477
vn -0.1244 -0.9697 -0.2100
vn -0.0005 0.0000 -1.0000
vn 0.0965 0.9897 0.1056
vn 0.0184 0.9793 0.2014
vn 0.0440 0.9868 0.1560
vn 0.0587 0.9855 0.1591
vn 0.1502 0.9772 0.1503
vn 0.0904 0.9839 0.1541
vn 0.1666 0.9711 0.1709
vn 0.1251 0.9783 0.1653
vn 0.1456 0.9764 0.1592
vn 0.1466 0.9709 0.1892
vn 0.0000 0.9790 0.2040
vn -0.1180 -0.9325 -0.3413
vn 0.1767 -0.0982 -0.9794
vn -0.0002 -0.0013 -1.0000
vn 0.0003 -0.0001 -1.0000
vn 0.0002 -1.0000 0.0004
vn 0.2205 -0.9006 0.3746
vn -0.1322 0.9856 0.1056
vn 0.0334 0.9991 -0.0267
vn 0.0564 0.9940 0.0937
vn 0.0217 0.9792 0.2017
vn 0.1756 0.9694 0.1716
vn 0.2331 0.9600 0.1551
vn 0.1747 0.9604 -0.2173
vn 0.0989 0.9902 0.0987
vn 0.1477 0.8857 -0.4401
vn 0.1589 0.9764 0.1465
vn 0.1946 0.9679 0.1588
vn 0.2290 0.9610 0.1549
vn -0.0000 0.8325 0.5541
vn 0.0000 0.8325 0.5540
vn 0.0741 0.5663 0.8209
vn 0.2221 0.7570 0.6145
vn 0.1340 -0.9887 0.0675
vn 0.0804 -0.9964 0.0255
vn 0.7762 0.0873 0.6244
vn 0.5798 0.5726 0.5796
vn 0.0673 0.9810 0.1822
vn 0.0838 0.9754 0.2041
vn 0.0532 0.9793 0.1951
vn -0.0759 0.9855 0.1516
vn 0.0397 0.9878 0.1505
vn 0.0348 0.9871 0.1562
vn 0.0145 0.9872 0.1591
vn 0.3953 0.7787 0.4872
vn 0.4290 0.7700 0.4722
vn 0.3015 0.9045 0.3015
vn 0.2429 0.9049 0.3495
vn 0.2596 0.9227 0.2851
vn 0.1208 0.9766 0.1781
vn 0.1142 0.9726 0.2025
vn 0.1316 0.9733 0.1880
vn 0.0973 0.9776 0.1869
vn 0.0981 0.9750 0.1993
vn 0.2668 0.9569 0.1150
vn 0.1777 0.9771 0.1174
vn 0.1720 0.9762 0.1318
vn 0.1777 0.9751 0.1329
vn 0.0623 0.9889 0.1351
vn 0.0298 0.9905 0.1345
vn 0.0455 0.9914 0.1231
vn 0.0304 0.9901 0.1371
vn 0.0369 0.9895 0.1399
vn 0.2062 0.9210 0.3307
vn 0.1400 0.9585 0.2483
vn 0.0851 0.9698 0.2286
vn 0.0747 0.9636 0.2567
vn 0.0889 0.9480 0.3056
vn 0.1633 0.9047 0.3936
vn 0.5938 0.7468 0.2994
vn 0.6629 0.7061 0.2491
vn 0.4841 0.8052 0.3424
vn 0.3220 0.9062 0.2741
vn 0.3428 0.9113 0.2281
vn 0.3195 0.9079 0.2715
vn 0.1042 0.9868 0.1243
vn 0.0943 0.9860 0.1372
vn 0.1270 0.9811 0.1458
vn 0.0999 0.9847 0.1428
vn 0.1234 0.9847 0.1232
vn 0.1712 0.9771 0.1260
usemtl Shape.7616
s off
f 22//1 48//1 52//1
f 6//2 4//2 9//2
f 9//2 4//2 10//2
f 4//3 5//3 11//3
f 5//4 2//4 11//4
f 9//2 10//2 14//2
f 2//4 5//4 16//4
f 10//5 4//5 17//5
f 16//4 5//4 19//4
f 19//6 7//6 24//6
f 16//7 19//7 24//7
f 5//8 4//8 25//8
f 4//9 6//9 25//9
f 6//10 5//10 25//10
f 9//2 14//2 26//2
f 6//11 9//11 27//11
f 21//12 13//12 27//12
f 14//13 20//13 29//13
f 28//14 1//14 29//14
f 15//15 28//15 29//15
f 12//16 22//16 30//16
f 28//17 15//17 30//17
f 18//18 12//18 31//18
f 30//19 15//19 31//19
f 12//20 30//20 31//20
f 18//21 31//21 33//21
f 14//2 10//2 34//2
f 20//22 14//22 34//22
f 5//23 6//23 35//23
f 19//24 5//24 35//24
f 6//25 27//25 35//25
f 27//26 19//26 35//26
f 10//27 17//27 36//27
f 17//28 23//28 36//28
f 9//29 26//29 37//29
f 27//30 9//30 37//30
f 21//31 27//31 37//31
f 29//32 20//32 38//32
f 12//33 18//33 39//33
f 16//34 24//34 39//34
f 7//35 19//35 40//35
f 27//36 13//36 40//36
f 19//37 27//37 40//37
f 22//38 12//38 41//38
f 12//39 39//39 41//39
f 39//40 24//40 41//40
f 34//41 10//41 42//41
f 20//42 34//42 42//42
f 10//43 36//43 42//43
f 36//44 23//44 42//44
f 2//45 3//45 43//45
f 11//46 2//46 43//46
f 4//5 11//5 43//5
f 17//5 4//5 43//5
f 3//47 32//47 43//47
f 32//48 17//48 43//48
f 15//49 29//49 44//49
f 38//50 8//50 44//50
f 29//51 38//51 44//51
f 26//52 14//52 45//52
f 1//53 28//53 45//53
f 29//54 1//54 45//54
f 14//55 29//55 45//55
f 23//56 17//56 46//56
f 17//57 32//57 46//57
f 32//58 18//58 46//58
f 33//59 23//59 46//59
f 18//60 33//60 46//60
f 31//61 15//61 47//61
f 8//62 33//62 47//62
f 33//63 31//63 47//63
f 15//64 44//64 47//64
f 44//65 8//65 47//65
f 24//66 7//66 48//66
f 7//67 40//67 48//67
f 22//68 41//68 48//68
f 41//69 24//69 48//69
f 28//70 21//70 49//70
f 37//71 26//71 49//71
f 21//72 37//72 49//72
f 26//73 45//73 49//73
f 45//74 28//74 49//74
f 23//75 33//75 50//75
f 33//76 8//76 50//76
f 8//77 38//77 50//77
f 38//78 20//78 50//78
f 20//79 42//79 50//79
f 42//80 23//80 50//80
f 3//81 2//81 51//81
f 2//82 16//82 51//82
f 32//83 3//83 51//83
f 18//84 32//84 51//84
f 16//85 39//85 51//85
f 39//86 18//86 51//86
f 13//87 21//87 52//87
f 21//88 28//88 52//88
f 30//89 22//89 52//89
f 28//90 30//90 52//90
f 40//91 13//91 52//91
f 48//92 40//92 52//92
