# Blender v2.79 (sub 0) OBJ File: ''
# www.blender.org
mtllib 102675_link_2_39.mtl
o Shape_IndexedFaceSet.039_Shape_IndexedFaceSet.9011
v 0.200096 -0.303657 -0.057526
v 0.203081 -0.274139 -0.042874
v 0.265319 -0.211919 -0.042874
v 0.240416 -0.299045 0.293222
v 0.234210 -0.205695 0.293222
v 0.240669 -0.188928 -0.056597
v 0.240416 -0.299045 -0.042874
v 0.215539 -0.299045 0.293222
v 0.271545 -0.211919 0.206040
v 0.221758 -0.211919 -0.042874
v 0.246648 -0.299045 0.081616
v 0.271545 -0.193247 0.019404
v 0.215539 -0.274139 0.293222
v 0.240416 -0.193247 0.293222
v 0.271545 -0.193247 0.274535
v 0.271545 -0.211919 0.075398
vn 1.0000 0.0000 0.0000
vn 0.3997 -0.1143 -0.9095
vn 0.3510 -0.1166 -0.9291
vn 0.0000 -0.9999 0.0131
vn 0.0000 0.0000 1.0000
vn -0.8941 0.2684 -0.3585
vn -0.9573 0.2874 0.0301
vn -0.7602 0.2736 -0.5892
vn 0.0907 -0.9959 0.0027
vn 0.1157 -0.9933 -0.0058
vn 0.9499 -0.3114 0.0280
vn 0.7322 0.6288 -0.2617
vn -0.9959 0.0824 0.0369
vn -0.9641 0.2630 0.0357
vn -0.9990 0.0000 0.0440
vn -0.8947 0.4460 0.0249
vn -0.7701 0.6378 0.0073
vn 0.9602 -0.2695 0.0735
vn 0.1385 0.9904 0.0000
vn 0.5147 0.0000 0.8574
vn 0.0074 0.9999 0.0124
vn 0.9603 -0.2745 -0.0505
vn 0.9595 -0.2776 -0.0480
vn 0.9615 -0.2748 0.0000
vn 0.9864 -0.1557 -0.0519
usemtl Shape.9020
s off
f 12//1 9//1 16//1
f 6//2 3//2 7//2
f 1//3 6//3 7//3
f 1//4 4//4 8//4
f 4//5 5//5 8//5
f 1//6 2//6 10//6
f 2//7 5//7 10//7
f 6//8 1//8 10//8
f 4//9 1//9 11//9
f 1//10 7//10 11//10
f 9//11 4//11 11//11
f 3//12 6//12 12//12
f 2//13 1//13 13//13
f 5//14 2//14 13//14
f 1//15 8//15 13//15
f 8//5 5//5 13//5
f 5//5 4//5 14//5
f 10//16 5//16 14//16
f 6//17 10//17 14//17
f 4//18 9//18 15//18
f 12//19 6//19 15//19
f 9//1 12//1 15//1
f 14//20 4//20 15//20
f 6//21 14//21 15//21
f 7//22 3//22 16//22
f 11//23 7//23 16//23
f 9//24 11//24 16//24
f 3//25 12//25 16//25
