# Blender v2.79 (sub 0) OBJ File: ''
# www.blender.org
mtllib 102675_link_0_32.mtl
o Shape_IndexedFaceSet.032_Shape_IndexedFaceSet.3417
v 0.121663 -0.146602 0.609761
v 0.146498 -0.144236 0.569549
v 0.146498 -0.143051 0.569549
v 0.097994 -0.144236 0.618039
v 0.146498 -0.158430 0.574276
v 0.111010 -0.158430 0.619230
v 0.146498 -0.158430 0.584928
v 0.147685 -0.143051 0.580195
v 0.103919 -0.158430 0.618039
v 0.108647 -0.143051 0.619230
v 0.127568 -0.156063 0.606210
v 0.097994 -0.143051 0.619230
vn 0.0000 0.0000 1.0000
vn -0.7070 0.0000 -0.7072
vn -0.6882 -0.2292 -0.6884
vn 0.0000 -1.0000 0.0000
vn 0.9938 0.0000 -0.1108
vn 0.9936 -0.0356 -0.1068
vn 0.9970 -0.0770 0.0000
vn -0.6867 -0.2866 -0.6681
vn 0.6021 0.0925 0.7930
vn 0.0000 1.0000 0.0000
vn 0.5776 0.5768 0.5776
vn 0.6085 0.0836 0.7891
vn 0.5149 -0.6717 0.5327
vn 0.7228 0.2032 0.6605
vn 0.7474 0.1420 0.6490
vn -0.5856 0.5746 -0.5717
vn -0.8617 -0.3597 0.3579
vn -0.1640 -0.1388 0.9766
usemtl Shape.3422
s off
f 6//1 10//1 12//1
f 3//2 2//2 4//2
f 4//3 2//3 5//3
f 6//4 5//4 7//4
f 2//5 3//5 8//5
f 5//6 2//6 8//6
f 7//7 5//7 8//7
f 4//8 5//8 9//8
f 5//4 6//4 9//4
f 6//9 1//9 10//9
f 8//10 3//10 10//10
f 1//11 8//11 10//11
f 1//12 6//12 11//12
f 6//13 7//13 11//13
f 8//14 1//14 11//14
f 7//15 8//15 11//15
f 3//16 4//16 12//16
f 4//17 9//17 12//17
f 9//18 6//18 12//18
f 10//10 3//10 12//10
