# Blender v2.79 (sub 0) OBJ File: ''
# www.blender.org
mtllib 102675_link_2_71.mtl
o Shape_IndexedFaceSet.071_Shape_IndexedFaceSet.9043
v 0.036394 -0.651189 0.210694
v 0.036788 -0.643269 0.181693
v 0.060578 -0.579125 0.248482
v 0.059927 -0.635136 0.174929
v 0.059927 -0.498213 0.069165
v 0.035033 -0.498213 0.081611
v 0.035033 -0.616445 0.243430
v 0.053701 -0.516889 0.168734
v 0.059927 -0.641361 0.243430
v 0.047480 -0.622686 0.125182
v 0.035033 -0.554240 0.069165
v 0.059927 -0.579125 0.100290
v 0.059927 -0.498213 0.131414
vn 0.6742 0.6093 0.4174
vn 0.2547 -0.9337 -0.2515
vn -0.8894 0.3691 0.2697
vn -0.7703 0.4688 0.4323
vn 0.9999 -0.0104 -0.0009
vn 0.4764 -0.8756 -0.0796
vn -0.5739 -0.5734 0.5847
vn -0.0799 -0.0798 0.9936
vn 0.2401 -0.9259 -0.2918
vn -0.9980 -0.0562 -0.0289
vn -0.4386 0.1949 -0.8773
vn -0.9995 -0.0293 -0.0105
vn -1.0000 0.0000 -0.0000
vn -0.8567 -0.4109 -0.3118
vn 1.0000 -0.0059 -0.0044
vn 1.0000 -0.0017 -0.0044
vn 0.8478 -0.4241 -0.3183
vn 0.6285 -0.2793 -0.7259
vn 0.3936 -0.5383 -0.7452
vn 1.0000 0.0080 0.0000
vn 0.0000 1.0000 0.0000
vn -0.5750 0.7660 0.2874
usemtl Shape.9052
s off
f 8//1 3//1 13//1
f 1//2 2//2 4//2
f 6//3 7//3 8//3
f 7//4 3//4 8//4
f 4//5 3//5 9//5
f 1//6 4//6 9//6
f 7//7 1//7 9//7
f 3//8 7//8 9//8
f 4//9 2//9 10//9
f 2//10 1//10 11//10
f 6//11 5//11 11//11
f 1//12 7//12 11//12
f 7//13 6//13 11//13
f 10//14 2//14 11//14
f 3//15 4//15 12//15
f 5//16 3//16 12//16
f 4//17 10//17 12//17
f 11//18 5//18 12//18
f 10//19 11//19 12//19
f 3//20 5//20 13//20
f 5//21 6//21 13//21
f 6//22 8//22 13//22
