# Blender v2.79 (sub 0) OBJ File: ''
# www.blender.org
mtllib 102675_link_1_5.mtl
o Shape_IndexedFaceSet.005_Shape_IndexedFaceSet.7611
v -0.175594 -0.031973 0.064057
v -0.204207 -0.076947 0.084509
v -0.200116 -0.076947 0.084509
v -0.171502 -0.038115 0.141745
v -0.204207 -0.044247 0.141745
v -0.171502 -0.056503 0.141745
v -0.171502 -0.050379 0.064057
v -0.204207 -0.054460 0.076336
v -0.204207 -0.064678 0.141745
v -0.204207 -0.042200 0.109021
v -0.187855 -0.040157 0.064057
v -0.202162 -0.076947 0.100856
v -0.171502 -0.031973 0.080427
v -0.177636 -0.046290 0.059966
v -0.171502 -0.052422 0.068147
v -0.181724 -0.038115 0.139696
v -0.204207 -0.066725 0.076336
v -0.183767 -0.034025 0.078378
v -0.187855 -0.036068 0.070197
v -0.171502 -0.034025 0.059966
vn -0.2911 0.1456 -0.9455
vn 0.0000 0.0000 1.0000
vn 1.0000 0.0000 0.0000
vn -1.0000 0.0000 0.0000
vn 0.0000 -1.0000 0.0000
vn 0.4952 -0.8666 0.0620
vn -0.8587 -0.5011 0.1074
vn 0.2321 -0.9284 0.2902
vn 0.0000 -0.6250 -0.7807
vn 0.0675 -0.6532 -0.7541
vn 0.6360 -0.7705 -0.0427
vn 0.4552 -0.7965 -0.3979
vn -0.1357 0.7236 0.6768
vn -0.0200 0.9948 0.0996
vn -0.6005 0.0000 -0.7996
vn -0.0009 -0.6245 -0.7810
vn -0.4392 -0.1398 -0.8874
vn -0.2922 0.9545 0.0597
vn -0.1718 0.9842 0.0430
vn -0.2562 0.9639 0.0728
vn -0.1762 0.9818 0.0714
vn -0.7642 0.6039 -0.2265
vn -0.7530 0.5477 -0.3648
vn -0.4856 0.7276 -0.4845
vn -0.4047 0.9141 -0.0261
vn -0.3440 0.9369 -0.0621
vn -0.3980 0.5963 -0.6972
vn 0.3707 0.9241 -0.0927
vn 0.4366 -0.2183 -0.8728
usemtl Shape.7619
s off
f 14//1 11//1 20//1
f 4//2 5//2 6//2
f 4//3 6//3 7//3
f 2//4 5//4 8//4
f 5//4 2//4 9//4
f 6//2 5//2 9//2
f 8//4 5//4 10//4
f 2//5 3//5 12//5
f 3//6 6//6 12//6
f 9//7 2//7 12//7
f 6//8 9//8 12//8
f 4//3 7//3 13//3
f 3//9 2//9 14//9
f 7//10 3//10 14//10
f 6//11 3//11 15//11
f 3//12 7//12 15//12
f 7//3 6//3 15//3
f 5//13 4//13 16//13
f 4//14 13//14 16//14
f 2//4 8//4 17//4
f 8//15 11//15 17//15
f 14//16 2//16 17//16
f 11//17 14//17 17//17
f 10//18 5//18 18//18
f 13//19 1//19 18//19
f 5//20 16//20 18//20
f 16//21 13//21 18//21
f 8//22 10//22 19//22
f 11//23 8//23 19//23
f 1//24 11//24 19//24
f 10//25 18//25 19//25
f 18//26 1//26 19//26
f 11//27 1//27 20//27
f 1//28 13//28 20//28
f 13//3 7//3 20//3
f 7//29 14//29 20//29
