# Blender v2.79 (sub 0) OBJ File: ''
# www.blender.org
mtllib 102675_link_2_46.mtl
o Shape_IndexedFaceSet.046_Shape_IndexedFaceSet.9018
v -0.213951 -0.168404 -0.080227
v -0.333090 -0.506093 -0.140056
v -0.333163 -0.506327 -0.088810
v -0.338407 -0.124812 -0.148673
v -0.256181 -0.537265 -0.144439
v -0.325943 -0.124812 -0.073994
v -0.269959 -0.523109 -0.073994
v -0.269959 -0.124812 -0.154898
v -0.207343 -0.330754 -0.076593
v -0.332169 -0.523109 -0.154898
v -0.325943 -0.523109 -0.073994
v -0.269959 -0.124812 -0.073994
v -0.255945 -0.539775 -0.084108
v -0.269959 -0.523109 -0.154898
v -0.257508 -0.124812 -0.142449
v -0.332169 -0.124812 -0.154898
v -0.333202 -0.141471 -0.088793
v -0.213332 -0.330163 -0.073592
vn 0.1421 0.0411 0.9890
vn -0.9999 -0.0140 -0.0015
vn 0.0000 1.0000 -0.0000
vn -0.9986 -0.0526 -0.0017
vn -0.9989 -0.0149 -0.0449
vn -0.9378 -0.3397 0.0722
vn 0.9740 -0.2260 -0.0132
vn 0.4650 -0.1396 0.8742
vn -0.1776 -0.9833 -0.0402
vn 0.0000 -0.5188 0.8549
vn -0.2292 -0.9732 0.0176
vn 0.6046 0.0000 -0.7965
vn 0.0000 -0.5942 -0.8043
vn 0.0000 0.0000 -1.0000
vn 0.7070 0.0057 -0.7072
vn 0.8259 0.0210 -0.5634
vn 0.8036 0.0055 -0.5951
vn 0.6181 0.7780 0.1124
vn -0.7064 0.0000 -0.7078
vn -0.9962 -0.0001 0.0866
vn -0.9489 0.2728 0.1584
vn -0.8990 -0.0001 0.4380
vn -0.8978 0.0000 0.4404
vn 0.4507 0.0383 0.8919
vn 0.4340 -0.1292 0.8916
vn -0.0036 -0.0000 1.0000
vn 0.0000 -0.0021 1.0000
vn 0.0000 0.0020 1.0000
usemtl Shape.9027
s off
f 1//1 12//1 18//1
f 2//2 3//2 4//2
f 4//3 6//3 8//3
f 3//4 2//4 10//4
f 2//5 4//5 10//5
f 3//6 10//6 11//6
f 8//3 6//3 12//3
f 5//7 9//7 13//7
f 9//8 7//8 13//8
f 10//9 5//9 13//9
f 7//10 11//10 13//10
f 11//11 10//11 13//11
f 8//12 5//12 14//12
f 5//13 10//13 14//13
f 10//14 8//14 14//14
f 5//15 8//15 15//15
f 1//16 9//16 15//16
f 9//17 5//17 15//17
f 12//18 1//18 15//18
f 8//3 12//3 15//3
f 4//3 8//3 16//3
f 10//19 4//19 16//19
f 8//14 10//14 16//14
f 4//20 3//20 17//20
f 6//21 4//21 17//21
f 3//22 11//22 17//22
f 11//23 6//23 17//23
f 9//24 1//24 18//24
f 7//25 9//25 18//25
f 6//26 11//26 18//26
f 11//27 7//27 18//27
f 12//28 6//28 18//28
