# Blender v2.79 (sub 0) OBJ File: ''
# www.blender.org
mtllib 102675_link_2_81.mtl
o Shape_IndexedFaceSet.081_Shape_IndexedFaceSet.9053
v -0.014759 -0.548010 0.056720
v 0.035033 -0.597786 0.150070
v 0.028809 -0.597786 0.150070
v 0.022585 -0.498213 0.075392
v 0.035033 -0.597786 0.094064
v -0.014759 -0.604021 0.137612
v 0.035033 -0.523122 0.050496
v -0.014759 -0.498213 0.062944
v -0.014759 -0.604021 0.094064
vn -1.0000 0.0000 0.0000
vn 0.0000 0.6000 0.8000
vn 0.1243 -0.9923 0.0000
vn 0.0000 -0.8943 0.4476
vn 0.9418 0.2690 0.2017
vn 0.1425 -0.4988 -0.8549
vn 1.0000 0.0000 0.0000
vn -0.2601 0.5689 0.7802
vn -0.3014 0.5498 0.7790
vn 0.2121 0.7418 -0.6362
vn -0.1829 0.1219 -0.9755
vn 0.0693 -0.5534 -0.8300
usemtl Shape.9062
s off
f 6//1 1//1 9//1
f 3//2 2//2 4//2
f 5//3 2//3 6//3
f 2//4 3//4 6//4
f 4//5 2//5 7//5
f 5//6 1//6 7//6
f 2//7 5//7 7//7
f 3//8 4//8 8//8
f 6//9 3//9 8//9
f 1//1 6//1 8//1
f 4//10 7//10 8//10
f 7//11 1//11 8//11
f 1//12 5//12 9//12
f 5//3 6//3 9//3
