# Blender v2.79 (sub 0) OBJ File: ''
# www.blender.org
mtllib 102675_link_0_5.mtl
o Shape_IndexedFaceSet.005_Shape_IndexedFaceSet.3390
v -0.254573 -0.140689 0.274935
v -0.252207 -0.165527 0.203968
v -0.247476 -0.165527 0.203968
v -0.246293 -0.165527 0.309254
v -0.246293 -0.138318 0.203968
v -0.246293 -0.138318 0.309254
v -0.252207 -0.165527 0.305688
v -0.253389 -0.138318 0.222900
v -0.254573 -0.165527 0.248923
v -0.252207 -0.138318 0.306874
v -0.251023 -0.138318 0.203968
v -0.246293 -0.157244 0.203968
v -0.254573 -0.143054 0.235916
v -0.253389 -0.165527 0.209883
v -0.252207 -0.146604 0.309254
vn -0.9972 0.0208 0.0723
vn 0.0000 -1.0000 -0.0000
vn 0.0000 0.0000 -1.0000
vn 1.0000 0.0000 0.0000
vn 0.0000 1.0000 0.0000
vn -0.9982 -0.0436 0.0416
vn -0.7777 0.6286 0.0109
vn 0.9899 -0.1414 -0.0111
vn -0.9777 0.2095 -0.0127
vn -1.0000 0.0000 0.0000
vn -0.9994 -0.0175 -0.0303
vn -0.9797 0.0426 -0.1958
vn -0.9905 0.0592 -0.1238
vn -0.9963 0.0369 -0.0772
vn 0.0000 0.0000 1.0000
vn -0.9977 -0.0126 0.0666
vn -0.5098 -0.1593 0.8454
vn -0.3608 0.2575 0.8964
usemtl Shape.3395
s off
f 10//1 1//1 15//1
f 2//2 3//2 4//2
f 3//3 2//3 5//3
f 4//4 5//4 6//4
f 2//2 4//2 7//2
f 6//5 5//5 8//5
f 2//2 7//2 9//2
f 7//6 1//6 9//6
f 8//7 1//7 10//7
f 6//5 8//5 10//5
f 5//3 2//3 11//3
f 8//5 5//5 11//5
f 4//8 3//8 12//8
f 5//4 4//4 12//4
f 3//3 5//3 12//3
f 1//9 8//9 13//9
f 9//10 1//10 13//10
f 9//11 13//11 14//11
f 2//2 9//2 14//2
f 11//12 2//12 14//12
f 8//13 11//13 14//13
f 13//14 8//14 14//14
f 4//15 6//15 15//15
f 1//16 7//16 15//16
f 7//17 4//17 15//17
f 6//18 10//18 15//18
