# Blender v2.79 (sub 0) OBJ File: ''
# www.blender.org
mtllib 102675_link_0_4.mtl
o Shape_IndexedFaceSet.004_Shape_IndexedFaceSet.3389
v -0.249838 -0.171445 0.218169
v -0.234461 -0.166714 0.309254
v -0.234461 -0.171445 0.309254
v -0.252205 -0.165531 0.305688
v -0.235647 -0.166714 0.203968
v -0.252205 -0.165531 0.203968
v -0.236827 -0.171445 0.203968
v -0.251021 -0.170262 0.306874
v -0.253390 -0.169079 0.216984
v -0.245106 -0.165531 0.309254
v -0.247472 -0.171445 0.309254
v -0.251021 -0.170262 0.203968
vn -0.5487 -0.8357 -0.0239
vn 0.9999 0.0000 -0.0113
vn 0.0000 -1.0000 0.0000
vn 0.9700 -0.2419 -0.0218
vn 0.0000 0.0000 -1.0000
vn -0.9485 0.3168 0.0000
vn -0.5552 -0.8317 0.0037
vn -0.9711 -0.2374 0.0225
vn -0.0000 0.0000 1.0000
vn 0.1105 0.9939 -0.0012
vn 0.0713 0.9974 -0.0048
vn 0.0000 1.0000 0.0000
vn -0.3213 -0.9470 0.0083
vn -0.5378 0.0759 0.8397
vn -0.4418 0.1768 0.8795
vn -0.0828 -0.9937 -0.0759
vn -0.9587 -0.2399 -0.1527
usemtl Shape.3394
s off
f 1//1 9//1 12//1
f 2//2 3//2 5//2
f 3//3 1//3 7//3
f 5//4 3//4 7//4
f 6//5 5//5 7//5
f 4//6 6//6 9//6
f 1//7 8//7 9//7
f 8//8 4//8 9//8
f 3//9 2//9 10//9
f 2//10 5//10 10//10
f 5//11 6//11 10//11
f 6//12 4//12 10//12
f 1//3 3//3 11//3
f 8//13 1//13 11//13
f 4//14 8//14 11//14
f 3//9 10//9 11//9
f 10//15 4//15 11//15
f 7//16 1//16 12//16
f 6//5 7//5 12//5
f 9//17 6//17 12//17
