####
#
# OBJ File Generated by Meshlab
#
####
# Object 102358_link_0_15.obj
#
# Vertices: 27
# Faces: 50
#
####
mtllib ./102358_link_0_15.obj.mtl

vn 0.364410 -0.126870 0.922556
v -0.490184 0.580703 0.072887
vn -0.696539 -0.354424 -0.623873
v -0.606953 0.574364 -0.064191
vn -0.778409 0.118983 -0.616378
v -0.608901 0.603594 -0.066160
vn -0.269072 0.104007 0.957488
v -0.579381 0.604023 0.076157
vn 0.133957 0.918655 -0.371657
v -0.516292 0.662505 -0.025015
vn 0.187472 -0.924927 -0.330703
v -0.523926 0.533105 -0.042542
vn -0.853718 -0.520685 -0.007226
v -0.620690 0.546338 0.002808
vn -0.759618 0.647244 0.063686
v -0.617881 0.640415 -0.010455
vn -0.017822 -0.573017 0.819350
v -0.542200 0.543183 0.056652
vn 0.052978 0.552760 0.831655
v -0.543452 0.642775 0.057723
vn 0.555414 -0.136855 -0.820235
v -0.506234 0.592768 -0.067750
vn 0.756191 -0.613138 -0.228555
v -0.480056 0.551423 -0.014835
vn 0.832942 0.547722 0.078795
v -0.476889 0.637452 0.005590
vn -0.010985 0.527269 -0.849627
v -0.558455 0.634885 -0.075216
vn -0.213496 -0.964462 -0.155666
v -0.607388 0.545170 -0.034658
vn -0.856804 0.380386 0.348128
v -0.632600 0.611393 0.020016
vn -0.034331 -0.373677 -0.926923
v -0.552464 0.562727 -0.082676
vn 0.224436 -0.954975 0.194039
v -0.512037 0.537556 0.042684
vn -0.442361 -0.566883 0.694954
v -0.575399 0.570377 0.074436
vn -0.324705 0.874435 -0.360457
v -0.609280 0.636689 -0.038255
vn -0.001468 0.983599 0.180366
v -0.523337 0.671835 0.015069
vn 0.380726 0.421612 0.822977
v -0.502035 0.628394 0.051225
vn 0.597611 0.504765 -0.622956
v -0.498606 0.631153 -0.049571
vn 0.945099 0.030534 -0.325355
v -0.468822 0.598462 -0.027086
vn -0.753724 -0.238787 0.612276
v -0.632699 0.570504 0.021332
vn 0.949519 -0.129645 0.285668
v -0.471779 0.581617 0.034121
vn -0.469611 0.719825 0.511191
v -0.564111 0.633975 0.066647
# 27 vertices, 0 vertices normals


usemtl material_0
f 8//8 16//16 27//27
f 3//3 2//2 7//7
f 3//3 7//7 8//8
f 4//4 9//9 10//10
f 6//6 11//11 12//12
f 7//7 2//2 15//15
f 9//9 7//7 15//15
f 8//8 7//7 16//16
f 2//2 3//3 17//17
f 11//11 6//6 17//17
f 3//3 14//14 17//17
f 14//14 11//11 17//17
f 15//15 2//2 17//17
f 6//6 15//15 17//17
f 1//1 9//9 18//18
f 6//6 12//12 18//18
f 15//15 6//6 18//18
f 9//9 15//15 18//18
f 9//9 4//4 19//19
f 7//7 9//9 19//19
f 3//3 8//8 20//20
f 14//14 3//3 20//20
f 5//5 14//14 20//20
f 8//8 10//10 21//21
f 13//13 5//5 21//21
f 20//20 8//8 21//21
f 5//5 20//20 21//21
f 9//9 1//1 22//22
f 10//10 9//9 22//22
f 21//21 10//10 22//22
f 13//13 21//21 22//22
f 5//5 13//13 23//23
f 14//14 5//5 23//23
f 11//11 14//14 23//23
f 12//12 11//11 24//24
f 11//11 23//23 24//24
f 23//23 13//13 24//24
f 4//4 16//16 25//25
f 16//16 7//7 25//25
f 19//19 4//4 25//25
f 7//7 19//19 25//25
f 1//1 18//18 26//26
f 18//18 12//12 26//26
f 22//22 1//1 26//26
f 13//13 22//22 26//26
f 12//12 24//24 26//26
f 24//24 13//13 26//26
f 4//4 10//10 27//27
f 10//10 8//8 27//27
f 16//16 4//4 27//27
# 50 faces, 0 coords texture

# End of File
