####
#
# OBJ File Generated by Meshlab
#
####
# Object 102358_link_0_7.obj
#
# Vertices: 29
# Faces: 54
#
####
mtllib ./102358_link_0_7.obj.mtl

vn -0.444295 -0.103769 -0.889851
v 0.493417 0.586064 0.003104
vn 0.800230 0.011003 0.599592
v 0.636574 0.613069 0.242663
vn 0.276788 0.246322 0.928824
v 0.625410 0.637575 0.241735
vn 0.704080 0.278371 -0.653285
v 0.586075 0.615220 -0.009817
vn 0.227862 -0.968308 0.102266
v 0.608622 0.531384 0.217880
vn -0.288225 0.877280 0.383805
v 0.552420 0.643096 0.245521
vn -0.241271 0.928756 -0.281426
v 0.520491 0.643955 0.000210
vn 0.524607 -0.630987 -0.571527
v 0.571157 0.558315 -0.005778
vn -0.423204 -0.668482 0.611580
v 0.551031 0.570229 0.248616
vn -0.487226 -0.873147 0.014997
v 0.504417 0.534053 0.024466
vn 0.838616 -0.511430 -0.187516
v 0.654165 0.563866 0.190770
vn -0.004462 0.998002 -0.063023
v 0.607659 0.684035 0.192677
vn -0.978355 0.074182 0.193181
v 0.462310 0.602042 0.040360
vn 0.922703 0.360708 -0.136047
v 0.663706 0.626007 0.189586
vn 0.551605 0.747156 -0.370797
v 0.568567 0.639794 -0.006383
vn -0.894503 -0.201000 0.399328
v 0.538746 0.593211 0.251197
vn -0.663282 0.747873 0.027267
v 0.480160 0.643792 0.028726
vn 0.880854 -0.290875 -0.373480
v 0.586451 0.583231 -0.009904
vn -0.339602 0.922716 0.182392
v 0.583935 0.655444 0.240369
vn -0.826243 -0.531875 0.185559
v 0.476100 0.553488 0.053012
vn 0.705274 0.697176 -0.128581
v 0.641045 0.661638 0.192614
vn -0.110222 -0.992857 0.045680
v 0.547270 0.518951 0.093703
vn -0.403804 -0.729012 0.552706
v 0.573935 0.557596 0.245980
vn -0.878194 0.361310 0.313416
v 0.538770 0.619517 0.250519
vn 0.282165 -0.896351 -0.341961
v 0.548049 0.549071 -0.001782
vn 0.978638 -0.122143 -0.165374
v 0.665792 0.595299 0.188615
vn -0.347369 0.936967 -0.037794
v 0.546630 0.648656 -0.006282
vn 0.534410 -0.334484 0.776225
v 0.624732 0.575135 0.242536
vn 0.499405 -0.861409 -0.092567
v 0.633627 0.538658 0.194937
# 29 vertices, 0 vertices normals


usemtl material_0
f 11//11 28//28 29//29
f 4//4 1//1 7//7
f 1//1 4//4 8//8
f 3//3 6//6 9//9
f 3//3 2//2 14//14
f 4//4 7//7 15//15
f 9//9 6//6 16//16
f 7//7 1//1 17//17
f 6//6 7//7 17//17
f 1//1 13//13 17//17
f 8//8 4//4 18//18
f 11//11 8//8 18//18
f 6//6 3//3 19//19
f 7//7 6//6 19//19
f 1//1 10//10 20//20
f 10//10 9//9 20//20
f 13//13 1//1 20//20
f 9//9 16//16 20//20
f 16//16 13//13 20//20
f 3//3 14//14 21//21
f 14//14 4//4 21//21
f 15//15 12//12 21//21
f 4//4 15//15 21//21
f 19//19 3//3 21//21
f 12//12 19//19 21//21
f 10//10 22//22 23//23
f 3//3 9//9 23//23
f 9//9 10//10 23//23
f 22//22 5//5 23//23
f 16//16 6//6 24//24
f 13//13 16//16 24//24
f 6//6 17//17 24//24
f 17//17 13//13 24//24
f 1//1 8//8 25//25
f 10//10 1//1 25//25
f 5//5 22//22 25//25
f 22//22 10//10 25//25
f 14//14 2//2 26//26
f 4//4 14//14 26//26
f 18//18 4//4 26//26
f 11//11 18//18 26//26
f 12//12 15//15 27//27
f 15//15 7//7 27//27
f 7//7 19//19 27//27
f 19//19 12//12 27//27
f 2//2 3//3 28//28
f 3//3 23//23 28//28
f 23//23 5//5 28//28
f 26//26 2//2 28//28
f 11//11 26//26 28//28
f 8//8 11//11 29//29
f 25//25 8//8 29//29
f 5//5 25//25 29//29
f 28//28 5//5 29//29
# 54 faces, 0 coords texture

# End of File
