####
#
# OBJ File Generated by Meshlab
#
####
# Object 102358_link_0_3.obj
#
# Vertices: 29
# Faces: 54
#
####
mtllib ./102358_link_0_3.obj.mtl

vn 0.835693 -0.310025 -0.453323
v -0.368945 0.615796 0.557616
vn -0.910680 -0.239226 -0.336797
v -0.549598 0.605007 0.517140
vn -0.652469 0.159525 -0.740835
v -0.549094 0.626742 0.517322
vn -0.398685 -0.240305 0.885045
v -0.433871 0.607909 0.707961
vn 0.263946 0.963176 -0.051230
v -0.366026 0.670668 0.676222
vn 0.266342 -0.963830 -0.009723
v -0.370871 0.561075 0.676888
vn -0.104196 -0.681855 -0.724028
v -0.521085 0.569320 0.511463
vn 0.120341 0.531879 -0.838226
v -0.467606 0.650107 0.488513
vn -0.301650 0.953205 -0.020179
v -0.542583 0.675610 0.561706
vn 0.288153 -0.647112 -0.705843
v -0.474199 0.573038 0.492274
vn 0.911222 -0.342649 0.228619
v -0.340508 0.610699 0.665135
vn 0.095446 0.305937 0.947255
v -0.416652 0.662513 0.698135
vn -0.863577 -0.394074 0.314549
v -0.557001 0.577908 0.577037
vn 0.044960 -0.611376 0.790062
v -0.402477 0.572623 0.693914
vn 0.597524 0.732755 -0.325631
v -0.343139 0.646669 0.663265
vn -0.850745 0.334821 0.405127
v -0.561665 0.633162 0.583174
vn -0.070717 0.970340 -0.231168
v -0.518846 0.662294 0.508148
vn 0.653206 -0.473342 -0.590989
v -0.457574 0.601471 0.483215
vn 0.640858 -0.655281 -0.399884
v -0.341235 0.572705 0.659289
vn 0.256949 0.918255 0.301306
v -0.390457 0.671356 0.689401
vn 0.322123 0.906304 -0.273589
v -0.494159 0.665964 0.499156
vn -0.634236 0.255503 0.729701
v -0.454438 0.636102 0.700290
vn 0.070932 -0.997086 -0.028063
v -0.498596 0.537304 0.574241
vn -0.494540 -0.615080 0.614091
v -0.468342 0.572633 0.667692
vn 0.583635 0.618456 -0.526197
v -0.421132 0.627598 0.504947
vn -0.482747 0.728329 0.486305
v -0.454326 0.675705 0.667693
vn -0.707684 -0.174434 0.684657
v -0.542175 0.603905 0.612391
vn 0.131073 -0.981863 -0.136988
v -0.497918 0.563593 0.501771
vn -0.496582 -0.847283 0.188462
v -0.542468 0.552048 0.563895
# 29 vertices, 0 vertices normals


usemtl material_0
f 24//24 13//13 29//29
f 2//2 3//3 7//7
f 7//7 3//3 8//8
f 7//7 8//8 10//10
f 6//6 11//11 14//14
f 12//12 4//4 14//14
f 5//5 11//11 15//15
f 11//11 1//1 15//15
f 3//3 2//2 16//16
f 9//9 3//3 16//16
f 2//2 13//13 16//16
f 8//8 3//3 17//17
f 3//3 9//9 17//17
f 10//10 8//8 18//18
f 1//1 11//11 18//18
f 18//18 11//11 19//19
f 11//11 6//6 19//19
f 10//10 18//18 19//19
f 11//11 5//5 20//20
f 14//14 11//11 20//20
f 12//12 14//14 20//20
f 5//5 17//17 20//20
f 17//17 9//9 20//20
f 15//15 8//8 21//21
f 5//5 15//15 21//21
f 17//17 5//5 21//21
f 8//8 17//17 21//21
f 4//4 12//12 22//22
f 7//7 6//6 23//23
f 6//6 14//14 23//23
f 14//14 4//4 24//24
f 15//15 1//1 25//25
f 8//8 15//15 25//25
f 1//1 18//18 25//25
f 18//18 8//8 25//25
f 9//9 16//16 26//26
f 20//20 9//9 26//26
f 12//12 20//20 26//26
f 22//22 12//12 26//26
f 16//16 22//22 26//26
f 16//16 13//13 27//27
f 4//4 22//22 27//27
f 22//22 16//16 27//27
f 24//24 4//4 27//27
f 13//13 24//24 27//27
f 6//6 7//7 28//28
f 7//7 10//10 28//28
f 19//19 6//6 28//28
f 10//10 19//19 28//28
f 2//2 7//7 29//29
f 13//13 2//2 29//29
f 7//7 23//23 29//29
f 23//23 14//14 29//29
f 14//14 24//24 29//29
# 54 faces, 0 coords texture

# End of File
