# Blender v2.79 (sub 0) OBJ File: ''
# www.blender.org
mtllib 102689_link_4_183.mtl
o Shape_IndexedFaceSet.183_Shape_IndexedFaceSet.609
v 0.193357 0.073876 0.019629
v 0.258108 0.194531 0.083753
v 0.200761 0.014648 0.086200
v 0.261231 0.011073 -0.004289
v 0.194653 0.196030 -0.000846
v 0.258551 0.195760 -0.000716
v 0.259944 0.073876 0.086200
v 0.193357 0.192224 0.086200
v 0.207556 0.011634 -0.004020
v 0.261368 0.010692 0.041814
v 0.191325 0.166004 -0.005282
v 0.193357 0.014648 0.086200
vn -0.9998 0.0000 0.0222
vn 0.0042 0.9999 0.0146
vn -0.0339 0.9985 0.0432
vn 0.0370 0.0208 0.9991
vn 0.0000 0.0000 1.0000
vn 0.9998 0.0165 0.0055
vn 0.9999 0.0146 -0.0029
vn 0.9998 0.0154 0.0101
vn 0.4930 -0.4926 0.7171
vn -0.0105 -0.9999 -0.0082
vn 0.0589 0.0202 -0.9981
vn 0.0026 0.1459 -0.9893
vn -0.9937 0.1116 -0.0099
vn -0.9483 -0.1022 -0.3005
vn -0.0051 -0.0087 -0.9999
vn -0.9749 -0.1662 -0.1479
vn 0.0000 -0.9961 0.0888
vn -0.0405 -0.9988 0.0270
vn -0.9992 -0.0290 -0.0258
usemtl Shape.624
s off
f 8//1 11//1 12//1
f 5//2 2//2 6//2
f 2//3 5//3 8//3
f 7//4 2//4 8//4
f 3//5 7//5 8//5
f 6//6 2//6 10//6
f 4//7 6//7 10//7
f 2//8 7//8 10//8
f 7//9 3//9 10//9
f 9//10 4//10 10//10
f 6//11 4//11 11//11
f 5//12 6//12 11//12
f 8//13 5//13 11//13
f 9//14 1//14 11//14
f 4//15 9//15 11//15
f 3//5 8//5 12//5
f 1//16 9//16 12//16
f 10//17 3//17 12//17
f 9//18 10//18 12//18
f 11//19 1//19 12//19
