# Blender v2.79 (sub 0) OBJ File: ''
# www.blender.org
mtllib 102689_link_4_169.mtl
o Shape_IndexedFaceSet.169_Shape_IndexedFaceSet.595
v -0.043429 -0.236959 -0.350348
v -0.050831 -0.399711 -0.527913
v -0.050831 -0.370092 -0.527913
v -0.073024 -0.236959 -0.372561
v -0.050831 -0.399711 -0.365174
v -0.036874 -0.240684 -0.516784
v -0.073024 -0.399711 -0.505718
v -0.073024 -0.236959 -0.498313
v -0.036270 -0.398644 -0.366144
v -0.073024 -0.399711 -0.394757
v -0.036703 -0.396739 -0.524670
v -0.036027 -0.236959 -0.350348
vn 1.0000 0.0014 -0.0051
vn -0.5997 -0.0455 0.7990
vn -0.7071 0.0000 -0.7071
vn 0.0000 -1.0000 0.0000
vn 0.0000 1.0000 0.0000
vn -0.4413 0.1240 -0.8887
vn -0.7273 0.0312 -0.6856
vn -1.0000 -0.0000 0.0000
vn 0.0731 -0.9973 0.0000
vn -0.7973 -0.0816 0.5981
vn 0.2237 0.0000 -0.9747
vn 0.3092 0.0483 -0.9498
vn 0.2085 -0.9779 -0.0123
vn 1.0000 -0.0012 -0.0027
vn 0.0000 -0.0907 0.9959
vn 0.0910 0.9956 -0.0227
vn 0.0732 -0.0971 0.9926
usemtl Shape.610
s off
f 11//1 6//1 12//1
f 1//2 4//2 5//2
f 3//3 2//3 7//3
f 2//4 5//4 7//4
f 4//5 1//5 8//5
f 6//6 3//6 8//6
f 3//7 7//7 8//7
f 7//8 4//8 8//8
f 5//9 2//9 9//9
f 5//10 4//10 10//10
f 4//8 7//8 10//8
f 7//4 5//4 10//4
f 2//11 3//11 11//11
f 3//12 6//12 11//12
f 9//13 2//13 11//13
f 9//14 11//14 12//14
f 1//15 5//15 12//15
f 8//5 1//5 12//5
f 6//16 8//16 12//16
f 5//17 9//17 12//17
