# Blender v2.79 (sub 0) OBJ File: ''
# www.blender.org
mtllib 102689_link_4_160.mtl
o Shape_IndexedFaceSet.160_Shape_IndexedFaceSet.586
v 0.341321 0.014646 0.071402
v 0.193350 -0.007548 -0.002573
v 0.193350 -0.007548 0.004830
v 0.333920 -0.007548 0.071402
v 0.274723 0.014646 -0.002573
v 0.289526 0.014646 0.086200
v 0.200766 0.014646 0.004830
vn -0.6592 0.2203 0.7190
vn 0.0000 -1.0000 0.0000
vn 0.7214 -0.2406 -0.6494
vn 0.2354 -0.8629 -0.4472
vn -0.2420 -0.8248 0.5110
vn 0.2736 -0.0912 0.9575
vn -0.0000 1.0000 -0.0000
vn -0.9485 0.3169 0.0000
vn -0.0936 0.3430 -0.9347
usemtl Shape.601
s off
f 3//1 6//1 7//1
f 3//2 2//2 4//2
f 1//3 4//3 5//3
f 4//4 2//4 5//4
f 3//5 4//5 6//5
f 4//6 1//6 6//6
f 1//7 5//7 6//7
f 6//7 5//7 7//7
f 2//8 3//8 7//8
f 5//9 2//9 7//9
