# Blender v2.79 (sub 0) OBJ File: ''
# www.blender.org
mtllib 102689_link_4_140.mtl
o Shape_IndexedFaceSet.140_Shape_IndexedFaceSet.566
v -0.294966 -0.074140 0.552413
v -0.151347 0.034205 0.796851
v -0.250626 0.036846 0.426613
v -0.147039 -0.081529 0.426613
v -0.376371 0.036846 0.448811
v -0.147039 -0.103740 0.715110
v -0.309783 -0.103740 0.426613
v -0.272784 0.029442 0.685489
v -0.147039 -0.037135 0.434037
v -0.206241 -0.051942 0.715110
v -0.161853 0.027765 0.631325
v -0.258034 -0.103740 0.581997
v -0.361554 -0.022355 0.426613
v -0.198832 0.036846 0.774280
v -0.250626 -0.103740 0.426613
v -0.354168 0.029442 0.522828
v -0.147039 -0.022355 0.781704
v -0.272784 -0.014952 0.655904
v -0.147039 -0.103740 0.626319
v -0.317169 -0.081529 0.485819
v -0.376371 0.022039 0.426613
vn -0.0000 0.0000 -1.0000
vn 0.1852 0.1621 -0.9692
vn 1.0000 -0.0000 0.0000
vn 0.2192 0.9743 -0.0518
vn 0.8999 0.4299 -0.0738
vn 0.5777 0.7873 -0.2156
vn 0.0000 -1.0000 0.0000
vn -0.5772 -0.6597 0.4813
vn 0.0597 0.9982 -0.0089
vn -0.0000 1.0000 0.0000
vn -0.2755 0.9495 0.1503
vn -0.7046 -0.3519 0.6162
vn -0.4359 0.8731 0.2181
vn -0.9157 -0.3202 0.2427
vn 0.9970 0.0768 -0.0033
vn -0.4847 -0.5539 0.6770
vn -0.4260 -0.2642 0.8653
vn -0.5785 -0.4183 0.7002
vn -0.7237 -0.3827 0.5743
vn -0.7493 -0.4927 0.4424
vn -0.7114 -0.5156 0.4775
vn -0.8425 -0.3696 0.3919
vn -0.8570 -0.2858 0.4288
vn 0.2084 -0.9720 -0.1081
vn -0.6202 -0.7568 0.2065
vn -0.7336 -0.6039 0.3116
vn -0.8399 -0.5343 0.0957
vn -0.8571 -0.3957 0.3297
vn -0.8808 -0.3854 0.2751
vn -0.0975 0.8279 -0.5523
vn -0.9281 -0.3098 0.2066
usemtl Shape.581
s off
f 3//1 13//1 21//1
f 3//1 4//1 7//1
f 4//2 3//2 9//2
f 6//3 4//3 9//3
f 3//4 2//4 11//4
f 2//5 9//5 11//5
f 9//6 3//6 11//6
f 7//7 6//7 12//7
f 6//8 10//8 12//8
f 3//1 7//1 13//1
f 2//9 3//9 14//9
f 3//10 5//10 14//10
f 5//11 8//11 14//11
f 8//12 10//12 14//12
f 7//1 4//1 15//1
f 6//7 7//7 15//7
f 8//13 5//13 16//13
f 5//14 13//14 16//14
f 9//15 2//15 17//15
f 6//3 9//3 17//3
f 10//16 6//16 17//16
f 2//17 14//17 17//17
f 14//18 10//18 17//18
f 10//19 8//19 18//19
f 1//20 12//20 18//20
f 12//21 10//21 18//21
f 16//22 1//22 18//22
f 8//23 16//23 18//23
f 4//3 6//3 19//3
f 15//24 4//24 19//24
f 6//7 15//7 19//7
f 7//25 12//25 20//25
f 12//26 1//26 20//26
f 13//27 7//27 20//27
f 1//28 16//28 20//28
f 16//29 13//29 20//29
f 5//30 3//30 21//30
f 13//31 5//31 21//31
