# Blender v2.79 (sub 0) OBJ File: ''
# www.blender.org
mtllib 102689_link_1_12.mtl
o Shape_IndexedFaceSet.012_Shape_IndexedFaceSet.9015
v -0.450067 0.665674 -0.516048
v -0.450067 0.662882 -0.532402
v -0.450067 0.663680 -0.532402
v -0.468013 0.662882 -0.530006
v -0.468013 0.668068 -0.528014
v -0.466417 0.664877 -0.516048
v -0.446079 0.663282 -0.516048
v -0.447675 0.665674 -0.530805
v -0.468013 0.668068 -0.516450
v -0.448472 0.666073 -0.520039
v -0.445278 0.662882 -0.531203
v -0.468013 0.662882 -0.526817
v -0.466017 0.666472 -0.530408
v -0.445681 0.664877 -0.523630
v -0.452462 0.663282 -0.516048
v -0.446876 0.662882 -0.520436
v -0.465618 0.668068 -0.527214
v -0.465618 0.668068 -0.517247
v -0.468013 0.665277 -0.516048
v -0.446079 0.664478 -0.516048
v -0.458041 0.666472 -0.530805
v -0.449271 0.666073 -0.530006
v -0.451264 0.666472 -0.518043
v -0.445681 0.664478 -0.531604
v -0.465220 0.662882 -0.530805
v -0.464421 0.667669 -0.516048
v -0.449271 0.666073 -0.516847
v -0.464822 0.667669 -0.529210
v -0.468013 0.666472 -0.530006
v -0.450067 0.664877 -0.532001
v -0.446876 0.665674 -0.527214
vn 0.6322 0.7738 -0.0387
vn 0.0000 0.0000 1.0000
vn -1.0000 0.0000 0.0000
vn 0.0000 -1.0000 -0.0000
vn -0.1113 -0.9741 0.1969
vn -0.0198 -0.9976 0.0657
vn 0.2660 -0.9632 0.0395
vn 0.0000 -0.9959 0.0908
vn 0.0000 1.0000 0.0000
vn -0.2377 -0.9482 0.2109
vn 0.9986 0.0000 0.0528
vn 0.4686 0.8806 0.0709
vn 0.9986 0.0022 0.0525
vn 0.1105 0.9939 0.0000
vn 0.1339 0.9909 -0.0107
vn 0.1189 0.9928 -0.0133
vn 0.1790 0.0000 -0.9839
vn 0.2389 -0.1794 -0.9543
vn 0.9702 0.2420 -0.0121
vn -0.1048 0.0000 -0.9945
vn -0.1089 0.0853 -0.9904
vn 0.0804 0.9671 0.2415
vn -0.0945 0.1419 0.9854
vn 0.2282 0.7609 0.6074
vn 0.4231 0.8999 0.1059
vn 0.1168 0.9841 0.1336
vn 0.1713 0.9843 0.0429
vn 0.1134 0.9711 0.2100
vn 0.1164 0.8374 0.5341
vn 0.0579 0.9831 -0.1734
vn 0.0707 0.9186 -0.3888
vn -0.0343 0.7239 -0.6891
vn 0.0813 0.9471 -0.3106
vn 0.0927 0.9828 -0.1595
vn -0.2751 0.0000 -0.9614
vn -0.1970 0.0644 -0.9783
vn -0.1355 0.7732 -0.6195
vn -0.1278 0.7625 -0.6343
vn -0.0628 0.3170 -0.9463
vn 0.0594 0.7718 -0.6331
vn -0.0445 0.4475 -0.8932
vn 0.1140 0.3156 -0.9420
vn 0.1273 0.6889 -0.7136
vn 0.4467 0.8933 0.0497
vn 0.2192 0.9745 -0.0488
vn 0.1808 0.9834 -0.0145
vn 0.4796 0.8710 -0.1067
usemtl Shape.9023
s off
f 14//1 24//1 31//1
f 1//2 6//2 7//2
f 5//3 4//3 9//3
f 4//4 2//4 11//4
f 9//3 4//3 12//3
f 4//4 11//4 12//4
f 7//2 6//2 15//2
f 6//5 12//5 15//5
f 15//6 12//6 16//6
f 11//7 7//7 16//7
f 12//4 11//4 16//4
f 7//8 15//8 16//8
f 5//9 9//9 17//9
f 17//9 9//9 18//9
f 6//2 1//2 19//2
f 12//10 6//10 19//10
f 9//3 12//3 19//3
f 1//2 7//2 20//2
f 7//11 11//11 20//11
f 14//12 10//12 20//12
f 11//13 14//13 20//13
f 17//14 18//14 23//14
f 10//15 22//15 23//15
f 22//16 17//16 23//16
f 2//17 3//17 24//17
f 11//18 2//18 24//18
f 14//19 11//19 24//19
f 3//20 2//20 25//20
f 2//4 4//4 25//4
f 13//21 3//21 25//21
f 18//22 9//22 26//22
f 19//2 1//2 26//2
f 9//23 19//23 26//23
f 1//24 20//24 27//24
f 20//25 10//25 27//25
f 23//26 18//26 27//26
f 10//27 23//27 27//27
f 18//28 26//28 27//28
f 26//29 1//29 27//29
f 5//30 17//30 28//30
f 8//31 21//31 28//31
f 21//32 13//32 28//32
f 22//33 8//33 28//33
f 17//34 22//34 28//34
f 4//3 5//3 29//3
f 25//35 4//35 29//35
f 13//36 25//36 29//36
f 5//37 28//37 29//37
f 28//38 13//38 29//38
f 3//39 13//39 30//39
f 21//40 8//40 30//40
f 13//41 21//41 30//41
f 24//42 3//42 30//42
f 8//43 24//43 30//43
f 10//44 14//44 31//44
f 8//45 22//45 31//45
f 22//46 10//46 31//46
f 24//47 8//47 31//47
