# Blender v2.79 (sub 0) OBJ File: ''
# www.blender.org
mtllib 102689_link_0_18.mtl
o Shape_IndexedFaceSet.018_Shape_IndexedFaceSet.1957
v 0.169620 0.206727 -0.018334
v 0.027118 0.225190 -0.097502
v 0.027118 0.214642 -0.063187
v 0.040313 0.219922 -0.020976
v 0.169620 0.241025 -0.094859
v 0.159047 0.225190 -0.097502
v 0.027118 0.238385 -0.084305
v 0.169620 0.219922 -0.018334
v 0.027118 0.204087 -0.023619
v 0.169620 0.209367 -0.042094
v 0.027118 0.238385 -0.097502
v 0.027118 0.217282 -0.018334
v 0.100991 0.204087 -0.026254
v 0.027118 0.204087 -0.018334
v 0.169620 0.227830 -0.097502
v 0.132655 0.222554 -0.026254
v 0.069355 0.241025 -0.097502
vn -0.0000 0.0000 -1.0000
vn 0.0000 -0.9559 -0.2938
vn -1.0000 0.0000 -0.0000
vn 1.0000 0.0000 0.0000
vn -0.1285 0.9446 0.3021
vn 0.0000 0.0000 1.0000
vn -0.0137 0.7407 0.6716
vn 0.0035 -0.9596 -0.2813
vn -0.0092 -0.9662 -0.2577
vn 0.0509 -0.9926 -0.1103
vn 0.0101 -0.9610 -0.2764
vn 0.0183 -0.9852 0.1702
vn 0.0000 -1.0000 0.0000
vn 0.2305 -0.9232 -0.3076
vn -0.0112 0.9593 0.2820
vn 0.0014 0.9654 0.2607
vn 0.0117 0.9640 0.2658
vn -0.0070 0.9386 0.3448
vn -0.0048 0.9834 0.1814
vn -0.0624 0.9981 0.0000
vn 0.0258 0.1963 -0.9802
usemtl Shape.1959
s off
f 15//1 11//1 17//1
f 3//2 2//2 6//2
f 2//3 3//3 7//3
f 1//4 5//4 8//4
f 7//3 3//3 9//3
f 5//4 1//4 10//4
f 6//1 2//1 11//1
f 2//3 7//3 11//3
f 4//5 7//5 12//5
f 1//6 8//6 12//6
f 8//7 4//7 12//7
f 7//3 9//3 12//3
f 3//8 6//8 13//8
f 9//9 3//9 13//9
f 10//10 1//10 13//10
f 6//11 10//11 13//11
f 1//6 12//6 14//6
f 12//3 9//3 14//3
f 13//12 1//12 14//12
f 9//13 13//13 14//13
f 5//4 10//4 15//4
f 10//14 6//14 15//14
f 6//1 11//1 15//1
f 7//15 4//15 16//15
f 5//16 7//16 16//16
f 8//17 5//17 16//17
f 4//18 8//18 16//18
f 7//19 5//19 17//19
f 11//20 7//20 17//20
f 5//21 15//21 17//21
