# Blender v2.79 (sub 0) OBJ File: ''
# www.blender.org
mtllib 102689_link_4_180.mtl
o Shape_IndexedFaceSet.180_Shape_IndexedFaceSet.606
v 0.298634 0.194569 -0.237812
v 0.092985 0.127145 -0.311006
v 0.089119 0.128517 -0.302101
v 0.289541 0.133049 -0.209762
v 0.030592 0.192231 -0.209762
v 0.289541 0.184819 -0.313352
v 0.074312 0.128055 -0.213522
v 0.289541 0.147839 -0.313352
v 0.121120 0.179900 -0.303508
v 0.130683 0.121129 -0.320364
v 0.289541 0.192231 -0.209762
v 0.024800 0.193720 -0.230655
v 0.023239 0.170659 -0.206820
vn -0.8984 0.3435 0.2735
vn -0.5103 -0.8553 -0.0898
vn 0.9875 -0.1561 -0.0223
vn 0.9928 0.0000 -0.1195
vn -0.0640 0.2655 -0.9620
vn -0.1629 -0.9864 -0.0220
vn 0.0218 -0.9969 0.0761
vn 0.1702 -0.9755 -0.1393
vn 0.0441 0.0000 -0.9990
vn -0.1975 0.2404 -0.9504
vn 0.9513 0.0000 0.3084
vn -0.0000 0.9965 0.0831
vn -0.0012 0.9974 0.0714
vn -0.0064 0.9919 -0.1272
vn -0.5207 0.3859 -0.7616
vn -0.0424 0.9699 -0.2400
vn -0.7284 -0.6502 -0.2160
vn -0.6452 -0.7558 -0.1118
vn -0.0132 -0.1709 0.9852
vn 0.0110 0.0000 0.9999
vn 0.0000 0.1351 0.9908
vn -0.8369 -0.3649 -0.4079
usemtl Shape.621
s off
f 5//1 12//1 13//1
f 3//2 2//2 7//2
f 1//3 4//3 8//3
f 6//4 1//4 8//4
f 9//5 6//5 10//5
f 7//6 2//6 10//6
f 4//7 7//7 10//7
f 8//8 4//8 10//8
f 6//9 8//9 10//9
f 2//10 9//10 10//10
f 4//11 1//11 11//11
f 1//12 5//12 11//12
f 5//13 1//13 12//13
f 1//14 6//14 12//14
f 9//15 2//15 12//15
f 6//16 9//16 12//16
f 2//17 3//17 13//17
f 3//18 7//18 13//18
f 7//19 4//19 13//19
f 4//20 11//20 13//20
f 11//21 5//21 13//21
f 12//22 2//22 13//22
