# Blender v2.79 (sub 0) OBJ File: ''
# www.blender.org
mtllib 102689_link_0_57.mtl
o Shape_IndexedFaceSet.057_Shape_IndexedFaceSet.1996
v -0.030933 0.190893 0.667797
v 0.029751 0.217278 0.746957
v 0.029751 0.204081 0.746957
v -0.030933 0.217278 0.746957
v 0.029751 0.198809 0.678358
v -0.025652 0.185614 0.688912
v 0.029724 0.185628 0.673112
v -0.030933 0.201446 0.744307
v -0.030933 0.206718 0.696823
v 0.024470 0.185614 0.691547
v 0.029751 0.217278 0.741665
v -0.030933 0.185614 0.667797
v 0.021833 0.201446 0.746957
v 0.029751 0.206718 0.699466
v -0.030933 0.217278 0.739030
v -0.030933 0.196171 0.673082
vn -0.0044 0.9139 -0.4060
vn 0.0000 0.0000 1.0000
vn 1.0000 0.0000 0.0000
vn 0.1128 0.3672 -0.9233
vn 1.0000 -0.0021 0.0002
vn -1.0000 0.0000 -0.0000
vn 0.6486 -0.7385 0.1843
vn -0.0144 -0.9618 0.2735
vn 0.0000 1.0000 0.0000
vn 0.0873 0.0000 -0.9962
vn -0.6295 -0.7609 0.1574
vn 0.0003 -1.0000 -0.0007
vn 0.0000 -1.0000 0.0000
vn -0.0495 -0.1649 0.9851
vn 0.3036 -0.9122 0.2751
vn -0.0138 -0.9616 0.2741
vn 0.0153 0.9363 -0.3508
vn 0.0106 0.9700 -0.2427
vn 0.0105 0.9700 -0.2427
vn 0.0307 0.7072 -0.7063
usemtl Shape.1998
s off
f 9//1 5//1 16//1
f 3//2 2//2 4//2
f 2//3 3//3 5//3
f 1//4 5//4 7//4
f 5//5 3//5 7//5
f 4//6 1//6 8//6
f 1//6 4//6 9//6
f 7//7 3//7 10//7
f 8//8 6//8 10//8
f 4//9 2//9 11//9
f 2//3 5//3 11//3
f 1//10 7//10 12//10
f 8//6 1//6 12//6
f 6//11 8//11 12//11
f 7//12 10//12 12//12
f 10//13 6//13 12//13
f 3//2 4//2 13//2
f 4//14 8//14 13//14
f 10//15 3//15 13//15
f 8//16 10//16 13//16
f 5//17 9//17 14//17
f 11//3 5//3 14//3
f 9//18 11//18 14//18
f 9//6 4//6 15//6
f 4//9 11//9 15//9
f 11//19 9//19 15//19
f 5//20 1//20 16//20
f 1//6 9//6 16//6
