# Blender v2.79 (sub 0) OBJ File: ''
# www.blender.org
mtllib 102689_link_4_27.mtl
o Shape_IndexedFaceSet.027_Shape_IndexedFaceSet.453
v 0.015768 -0.710481 0.360011
v 0.171367 -0.673433 0.648952
v 0.171153 -0.710481 0.648554
v 0.171153 -0.673484 0.360011
v 0.015768 -0.673484 0.648554
v 0.015768 -0.710481 0.648554
v 0.171153 -0.710481 0.360011
v 0.015768 -0.673484 0.360011
vn -0.0003 1.0000 0.0000
vn -0.0026 0.0000 1.0000
vn 0.0000 -1.0000 0.0000
vn 0.0000 -0.0107 0.9999
vn -1.0000 0.0000 0.0000
vn 1.0000 -0.0058 0.0000
vn 1.0000 0.0000 -0.0007
vn 0.0000 0.0000 -1.0000
vn 0.0000 1.0000 -0.0002
usemtl Shape.468
s off
f 5//1 2//1 8//1
f 2//2 5//2 6//2
f 1//3 3//3 6//3
f 3//4 2//4 6//4
f 5//5 1//5 6//5
f 3//3 1//3 7//3
f 2//6 3//6 7//6
f 4//7 2//7 7//7
f 1//8 4//8 7//8
f 2//9 4//9 8//9
f 4//8 1//8 8//8
f 1//5 5//5 8//5
