# Blender v2.79 (sub 0) OBJ File: ''
# www.blender.org
mtllib 102689_link_3_46.mtl
o Shape_IndexedFaceSet.046_Shape_IndexedFaceSet.3007
v 0.338317 0.761548 -0.300583
v 0.382703 0.775568 -0.342643
v 0.293904 0.775568 -0.319273
v 0.385050 0.777908 -0.319273
v 0.413099 0.759209 -0.342643
v 0.291556 0.759209 -0.305258
v 0.291556 0.777908 -0.298243
v 0.424796 0.759209 -0.330958
v 0.422448 0.777908 -0.342643
v 0.291556 0.759209 -0.293563
v 0.392052 0.759209 -0.314608
v 0.293904 0.777908 -0.319273
v 0.305601 0.770894 -0.295908
v 0.415446 0.777908 -0.333298
v 0.431811 0.761548 -0.342643
v 0.387384 0.773231 -0.316943
vn 0.4358 0.3230 0.8401
vn -0.2301 -0.4275 -0.8742
vn -0.2322 -0.6134 -0.7549
vn 0.0000 -1.0000 0.0000
vn 0.0000 0.0000 -1.0000
vn 0.0000 1.0000 0.0000
vn -1.0000 -0.0000 0.0000
vn 0.1338 -0.7574 0.6390
vn -0.2545 0.0000 -0.9671
vn -0.9863 0.0000 -0.1652
vn -0.9930 0.0416 -0.1109
vn -0.0559 0.9499 -0.3076
vn 0.1744 0.6072 0.7752
vn 0.1474 0.0213 0.9888
vn -0.0400 0.2426 0.9693
vn 0.7228 0.4292 0.5416
vn 0.1231 -0.9847 -0.1232
vn 0.7375 0.4221 0.5272
vn 0.4282 0.2853 0.8575
vn 0.2549 0.2408 0.9365
vn 0.2259 0.3330 0.9155
vn 0.1997 0.5150 0.8336
vn 0.3494 0.5517 0.7573
usemtl Shape.3016
s off
f 8//1 14//1 16//1
f 3//2 2//2 5//2
f 3//3 5//3 6//3
f 6//4 5//4 8//4
f 5//5 2//5 9//5
f 7//6 4//6 9//6
f 7//7 6//7 10//7
f 6//4 8//4 10//4
f 10//4 8//4 11//4
f 1//8 10//8 11//8
f 2//9 3//9 12//9
f 3//10 6//10 12//10
f 6//11 7//11 12//11
f 9//12 2//12 12//12
f 7//6 9//6 12//6
f 4//13 7//13 13//13
f 10//14 1//14 13//14
f 7//15 10//15 13//15
f 9//6 4//6 14//6
f 8//16 9//16 14//16
f 8//17 5//17 15//17
f 5//5 9//5 15//5
f 9//18 8//18 15//18
f 11//19 8//19 16//19
f 1//20 11//20 16//20
f 13//21 1//21 16//21
f 4//22 13//22 16//22
f 14//23 4//23 16//23
