# Blender v2.79 (sub 0) OBJ File: ''
# www.blender.org
mtllib 102689_link_4_12.mtl
o Shape_IndexedFaceSet.012_Shape_IndexedFaceSet.438
v -0.095212 -0.185132 -0.217144
v -0.036037 -0.429308 -0.039618
v -0.073015 -0.407104 -0.054393
v -0.031420 -0.221726 -0.026876
v -0.028010 -0.183095 -0.271055
v -0.102613 -0.288745 -0.017381
v -0.021601 -0.408472 -0.125616
v -0.080416 -0.185132 -0.083993
v -0.095212 -0.340515 -0.120981
v -0.073015 -0.259155 -0.217144
v -0.102613 -0.384900 -0.017381
v -0.036037 -0.429308 -0.017381
v -0.030325 -0.190733 -0.051417
v -0.021804 -0.285336 -0.230790
v -0.102613 -0.185132 -0.172719
v -0.073015 -0.236974 -0.017381
v -0.080416 -0.370105 -0.120981
v -0.058234 -0.192542 -0.268956
vn 0.0490 -0.3634 -0.9303
vn -0.4099 -0.8684 -0.2792
vn -0.8688 -0.2605 -0.4210
vn -0.5148 -0.8573 0.0000
vn 0.8220 -0.5695 0.0000
vn 0.9915 -0.0161 0.1291
vn -0.5541 -0.8306 0.0552
vn 0.0000 0.0000 1.0000
vn 0.9976 0.0173 0.0664
vn 0.0882 0.9955 0.0355
vn 0.9991 0.0291 0.0321
vn 0.9978 0.0656 0.0128
vn -0.0350 0.9994 -0.0058
vn -0.0205 0.9998 0.0051
vn -0.9116 0.3419 0.2281
vn -0.9813 -0.1012 -0.1635
vn -1.0000 0.0000 0.0000
vn -0.9909 -0.0825 -0.1062
vn -0.7818 0.4470 0.4347
vn 0.2084 0.0401 0.9772
vn -0.0491 0.6211 0.7822
vn -0.3115 0.7328 0.6049
vn -0.5284 -0.7657 -0.3667
vn -0.7721 -0.3861 -0.5048
vn -0.7607 -0.5996 -0.2486
vn -0.8666 -0.4333 -0.2476
vn -0.4356 -0.5850 -0.6841
vn -0.4685 -0.5606 -0.6828
vn -0.3019 0.8896 -0.3427
vn -0.8058 -0.2416 -0.5406
vn -0.4480 -0.4848 -0.7511
usemtl Shape.453
s off
f 5//1 14//1 18//1
f 2//2 3//2 7//2
f 9//3 1//3 10//3
f 3//4 2//4 12//4
f 2//5 7//5 12//5
f 7//6 4//6 12//6
f 11//7 3//7 12//7
f 6//8 11//8 12//8
f 4//9 7//9 13//9
f 5//10 8//10 13//10
f 13//11 7//11 14//11
f 5//12 13//12 14//12
f 5//13 1//13 15//13
f 8//14 5//14 15//14
f 6//15 8//15 15//15
f 1//16 9//16 15//16
f 11//17 6//17 15//17
f 9//18 11//18 15//18
f 8//19 6//19 16//19
f 12//20 4//20 16//20
f 6//8 12//8 16//8
f 4//21 13//21 16//21
f 13//22 8//22 16//22
f 7//23 3//23 17//23
f 9//24 10//24 17//24
f 3//25 11//25 17//25
f 11//26 9//26 17//26
f 14//27 7//27 17//27
f 10//28 14//28 17//28
f 1//29 5//29 18//29
f 10//30 1//30 18//30
f 14//31 10//31 18//31
