# Blender v2.79 (sub 0) OBJ File: ''
# www.blender.org
mtllib 102689_link_1_17.mtl
o Shape_IndexedFaceSet.017_Shape_IndexedFaceSet.9020
v -0.450465 0.638149 -0.477353
v -0.457244 0.624990 -0.466186
v -0.458042 0.624990 -0.466186
v -0.456446 0.624990 -0.470176
v -0.458042 0.639345 -0.477753
v -0.451662 0.639345 -0.474563
v -0.452060 0.624990 -0.467783
v -0.458042 0.638946 -0.474163
v -0.452858 0.624589 -0.469777
v -0.458042 0.624589 -0.469777
v -0.450864 0.638946 -0.478153
v -0.452459 0.627383 -0.467783
v -0.450066 0.639345 -0.476158
v -0.458042 0.636155 -0.476557
v -0.450864 0.632566 -0.473764
v -0.454851 0.624589 -0.466587
v -0.452060 0.634559 -0.475759
vn -0.0100 -0.4769 -0.8789
vn 0.0000 0.4962 0.8682
vn -1.0000 0.0000 0.0000
vn -0.0551 0.9924 0.1103
vn 0.0233 0.4971 0.8674
vn 0.0000 -0.7055 -0.7088
vn 0.4785 -0.4911 -0.7279
vn 0.0453 0.4903 0.8704
vn 0.8763 0.1461 0.4591
vn 0.0000 1.0000 0.0000
vn 0.0424 0.9763 -0.2122
vn 0.9205 0.0760 -0.3834
vn 0.6664 0.3335 0.6668
vn -0.0883 -0.5037 -0.8593
vn -0.0715 -0.3502 -0.9340
vn 0.5487 -0.4795 -0.6849
vn 0.8879 -0.3631 -0.2824
vn 0.9922 -0.0845 0.0913
vn 0.9732 -0.1694 -0.1554
vn 0.0000 -0.7072 0.7070
vn 0.1911 -0.9743 0.1194
vn -0.1103 -0.9878 0.1103
vn 0.0000 -1.0000 0.0000
vn 0.1990 0.2367 0.9510
vn 0.3853 0.0642 0.9206
vn 0.0374 -0.5163 -0.8556
vn 0.2329 -0.5140 -0.8256
vn -0.0172 -0.4980 -0.8670
usemtl Shape.9028
s off
f 14//1 11//1 17//1
f 3//2 2//2 8//2
f 5//3 3//3 8//3
f 6//4 5//4 8//4
f 2//5 6//5 8//5
f 3//3 5//3 10//3
f 4//6 9//6 10//6
f 1//7 9//7 11//7
f 6//8 2//8 12//8
f 12//9 7//9 13//9
f 5//10 6//10 13//10
f 11//11 5//11 13//11
f 1//12 11//12 13//12
f 6//13 12//13 13//13
f 4//14 10//14 14//14
f 10//3 5//3 14//3
f 5//15 11//15 14//15
f 9//16 1//16 15//16
f 7//17 9//17 15//17
f 13//18 7//18 15//18
f 1//19 13//19 15//19
f 2//20 3//20 16//20
f 9//21 7//21 16//21
f 3//22 10//22 16//22
f 10//23 9//23 16//23
f 12//24 2//24 16//24
f 7//25 12//25 16//25
f 9//26 4//26 17//26
f 11//27 9//27 17//27
f 4//28 14//28 17//28
