# Blender v2.79 (sub 0) OBJ File: ''
# www.blender.org
mtllib 102689_link_0_10.mtl
o Shape_IndexedFaceSet.010_Shape_IndexedFaceSet.1949
v 0.298934 0.204085 0.108392
v 0.380641 0.204511 0.315822
v 0.378090 0.209365 0.364282
v 0.354344 0.219917 0.068751
v 0.298934 0.219917 0.459275
v 0.343781 0.201445 0.459275
v 0.362262 0.201445 0.074103
v 0.298934 0.219917 0.068751
v 0.354344 0.219917 0.448686
v 0.298934 0.204085 0.417035
v 0.378090 0.217277 0.182284
v 0.364899 0.201445 0.435536
v 0.375454 0.219917 0.319404
v 0.380862 0.201994 0.214397
v 0.346426 0.201445 0.068751
v 0.298934 0.206723 0.459275
v 0.298934 0.206723 0.068751
v 0.354344 0.217277 0.459275
v 0.372809 0.209365 0.126817
v 0.380727 0.211997 0.335268
v 0.372809 0.217277 0.382745
v 0.372809 0.201445 0.124218
v 0.372809 0.219917 0.171696
v 0.367535 0.217277 0.111030
v 0.359617 0.206723 0.456599
v 0.375991 0.201970 0.361070
vn 0.0594 -0.9982 0.0018
vn -1.0000 -0.0000 0.0000
vn 0.0000 1.0000 0.0000
vn -0.0588 -0.9983 0.0000
vn 0.0000 -1.0000 0.0000
vn -0.0558 -0.9984 -0.0004
vn 0.3172 -0.1360 -0.9386
vn 0.0000 0.0000 -1.0000
vn 0.0000 0.0000 1.0000
vn -0.1167 -0.9912 0.0619
vn -0.1102 -0.9917 -0.0660
vn 0.0462 0.9693 0.2416
vn 0.9780 -0.1960 0.0711
vn 0.8276 0.5612 0.0051
vn 0.9998 -0.0183 0.0026
vn 0.9879 0.1546 -0.0117
vn 0.3240 0.9446 0.0529
vn 0.7080 0.6852 0.1708
vn 0.9297 0.3494 0.1162
vn 0.7728 0.6319 0.0586
vn 0.9960 -0.0062 -0.0889
vn 0.0530 -0.9986 0.0013
vn 0.9763 0.0674 -0.2055
vn 0.9945 0.0326 -0.0993
vn 0.4603 0.8877 -0.0082
vn 0.9117 0.3141 -0.2648
vn 0.9553 0.1965 -0.2207
vn 0.9286 0.3445 -0.1376
vn 0.4247 0.9021 -0.0762
vn 0.5774 0.8120 -0.0855
vn 0.9645 0.1750 0.1980
vn 0.3473 -0.8854 0.3090
vn 0.2103 -0.1403 0.9675
vn 0.9633 0.1811 0.1979
vn 0.8943 0.3921 0.2158
vn 0.9492 -0.3044 0.0805
vn 0.9357 -0.3251 0.1371
vn 0.6269 -0.7788 0.0207
usemtl Shape.1951
s off
f 12//1 14//1 26//1
f 1//2 5//2 8//2
f 5//3 4//3 8//3
f 4//3 5//3 9//3
f 5//2 1//2 10//2
f 1//4 6//4 10//4
f 6//5 7//5 12//5
f 4//3 9//3 13//3
f 6//6 1//6 15//6
f 7//5 6//5 15//5
f 4//7 7//7 15//7
f 8//8 4//8 15//8
f 6//9 5//9 16//9
f 5//2 10//2 16//2
f 10//10 6//10 16//10
f 1//2 8//2 17//2
f 15//11 1//11 17//11
f 8//8 15//8 17//8
f 5//9 6//9 18//9
f 9//12 5//12 18//12
f 3//13 2//13 20//13
f 11//14 13//14 20//14
f 2//15 14//15 20//15
f 14//16 11//16 20//16
f 13//17 9//17 21//17
f 9//18 18//18 21//18
f 3//19 20//19 21//19
f 20//20 13//20 21//20
f 12//5 7//5 22//5
f 11//21 14//21 22//21
f 14//22 12//22 22//22
f 7//23 19//23 22//23
f 19//24 11//24 22//24
f 4//3 13//3 23//3
f 13//25 11//25 23//25
f 7//26 4//26 24//26
f 19//27 7//27 24//27
f 11//28 19//28 24//28
f 4//29 23//29 24//29
f 23//30 11//30 24//30
f 12//31 3//31 25//31
f 6//32 12//32 25//32
f 18//33 6//33 25//33
f 3//34 21//34 25//34
f 21//35 18//35 25//35
f 2//36 3//36 26//36
f 3//37 12//37 26//37
f 14//38 2//38 26//38
