# Blender v2.79 (sub 0) OBJ File: ''
# www.blender.org
mtllib 102689_link_2_23.mtl
o Shape_IndexedFaceSet.023_Shape_IndexedFaceSet.5899
v -0.258116 0.228475 -0.057113
v -0.296219 0.223033 0.010924
v -0.292499 0.246703 -0.032954
v -0.258116 0.244801 -0.119728
v -0.292543 0.219951 -0.058789
v -0.258116 0.228475 -0.108832
v -0.269003 0.217588 -0.038083
v -0.293428 0.242608 -0.066016
v -0.296219 0.214863 0.002752
v -0.274449 0.228475 -0.103396
v -0.258116 0.244801 -0.097948
v -0.277168 0.242079 -0.103396
v -0.258116 0.223033 -0.084341
v -0.293493 0.223033 0.010924
v -0.296219 0.244801 -0.032648
v -0.293057 0.226430 -0.065751
v -0.258116 0.233914 -0.065285
v -0.288021 0.217888 -0.052249
v -0.279883 0.223033 -0.087065
vn -0.1753 -0.9672 -0.1839
vn 1.0000 0.0000 0.0000
vn -0.2321 0.9661 -0.1131
vn -0.2668 -0.5350 -0.8016
vn 0.0552 0.9985 0.0000
vn -0.2383 0.9641 -0.1173
vn -0.6351 -0.1269 -0.7620
vn 0.7978 -0.5912 0.1182
vn 0.0000 0.8801 0.4748
vn 0.8864 -0.0939 0.4534
vn 0.6676 -0.6260 0.4031
vn 0.0000 -0.7072 0.7070
vn -0.3877 0.8246 0.4120
vn -0.4594 0.8830 -0.0965
vn -1.0000 -0.0000 0.0000
vn -0.9960 -0.0679 -0.0574
vn -0.9853 -0.1552 -0.0717
vn -0.9168 -0.0275 -0.3984
vn -0.8787 -0.1756 -0.4439
vn -0.9964 -0.0242 -0.0817
vn 0.5451 0.7953 0.2651
vn 0.6169 0.6867 0.3844
vn 0.6840 0.6073 0.4042
vn -0.2946 -0.9508 -0.0962
vn 0.0226 -0.9984 -0.0515
vn 0.0607 -0.9929 -0.1026
vn 0.0178 -0.9897 -0.1421
vn -0.1160 -0.9301 -0.3485
vn 0.0271 -0.9758 -0.2168
vn -0.7738 -0.4912 -0.4000
vn -0.7876 -0.4562 -0.4141
usemtl Shape.5904
s off
f 18//1 5//1 19//1
f 4//2 1//2 6//2
f 3//3 4//3 8//3
f 4//4 6//4 10//4
f 1//2 4//2 11//2
f 4//5 3//5 11//5
f 8//6 4//6 12//6
f 4//7 10//7 12//7
f 6//2 1//2 13//2
f 1//8 7//8 13//8
f 3//9 2//9 14//9
f 7//10 1//10 14//10
f 9//11 7//11 14//11
f 2//12 9//12 14//12
f 2//13 3//13 15//13
f 3//14 8//14 15//14
f 9//15 2//15 15//15
f 9//16 15//16 16//16
f 5//17 9//17 16//17
f 8//18 12//18 16//18
f 12//19 10//19 16//19
f 15//20 8//20 16//20
f 1//2 11//2 17//2
f 11//21 3//21 17//21
f 3//22 14//22 17//22
f 14//23 1//23 17//23
f 9//24 5//24 18//24
f 7//25 9//25 18//25
f 13//26 7//26 18//26
f 13//27 18//27 19//27
f 10//28 6//28 19//28
f 6//29 13//29 19//29
f 5//30 16//30 19//30
f 16//31 10//31 19//31
