# Blender v2.79 (sub 0) OBJ File: ''
# www.blender.org
mtllib 102689_link_0_82.mtl
o Shape_IndexedFaceSet.082_Shape_IndexedFaceSet.2021
v 0.209202 0.219915 0.723206
v 0.098369 0.196169 0.686262
v 0.098369 0.196169 0.694179
v 0.222399 0.196169 0.694179
v 0.222399 0.219915 0.686262
v 0.098369 0.217274 0.731124
v 0.190741 0.196162 0.731137
v 0.103650 0.211998 0.686262
v 0.098369 0.204086 0.731124
v 0.219752 0.196169 0.723206
v 0.116847 0.219915 0.731124
v 0.135325 0.217274 0.686262
v 0.222399 0.206724 0.686262
v 0.204541 0.214007 0.728982
v 0.222399 0.217274 0.712649
v 0.098369 0.217274 0.715289
vn -0.0679 0.9939 -0.0865
vn -1.0000 0.0000 0.0000
vn -0.0001 -1.0000 0.0000
vn 0.0000 -1.0000 -0.0002
vn -0.0000 0.0000 -1.0000
vn -0.0001 0.0000 1.0000
vn -0.0836 -0.9744 0.2088
vn 0.0002 -1.0000 0.0000
vn -0.0000 1.0000 0.0000
vn -0.0001 0.0004 1.0000
vn -0.0302 0.9970 -0.0711
vn 0.0510 -0.5993 -0.7989
vn 1.0000 0.0000 0.0000
vn 0.5988 0.2661 0.7554
vn 0.2627 -0.0871 0.9609
vn 0.0633 0.6717 0.7381
vn 0.0308 0.0963 0.9949
vn 0.2686 0.9585 0.0959
vn 0.6332 0.2813 0.7211
vn 0.9927 -0.0792 0.0905
vn -0.9244 0.3084 -0.2242
vn -0.1415 0.9899 0.0000
vn -0.1608 0.9655 -0.2048
usemtl Shape.2023
s off
f 11//1 12//1 16//1
f 2//2 3//2 6//2
f 3//3 2//3 7//3
f 2//4 4//4 7//4
f 5//5 2//5 8//5
f 6//2 3//2 9//2
f 7//6 6//6 9//6
f 3//7 7//7 9//7
f 7//8 4//8 10//8
f 1//9 5//9 11//9
f 6//10 7//10 11//10
f 5//5 8//5 12//5
f 11//11 5//11 12//11
f 4//12 2//12 13//12
f 5//13 4//13 13//13
f 2//5 5//5 13//5
f 10//14 1//14 14//14
f 7//15 10//15 14//15
f 1//16 11//16 14//16
f 11//17 7//17 14//17
f 5//18 1//18 15//18
f 4//13 5//13 15//13
f 1//19 10//19 15//19
f 10//20 4//20 15//20
f 2//2 6//2 16//2
f 8//21 2//21 16//21
f 6//22 11//22 16//22
f 12//23 8//23 16//23
