# Blender v2.79 (sub 0) OBJ File: ''
# www.blender.org
mtllib 102689_link_1_34.mtl
o Shape_IndexedFaceSet.034_Shape_IndexedFaceSet.9037
v -0.488358 0.634560 -0.445444
v -0.484370 0.628977 -0.463394
v -0.483971 0.628977 -0.463394
v -0.485566 0.628977 -0.445444
v -0.483971 0.639348 -0.445444
v -0.487959 0.628977 -0.453024
v -0.486363 0.630175 -0.460202
v -0.483971 0.633764 -0.445845
v -0.488358 0.629377 -0.445444
v -0.487959 0.635756 -0.445845
v -0.483971 0.628977 -0.456211
v -0.484370 0.639348 -0.445845
v -0.484370 0.630572 -0.462194
v -0.488358 0.631769 -0.450631
v -0.486763 0.628977 -0.459402
vn -0.9591 0.1680 -0.2279
vn 0.0000 -1.0000 0.0000
vn 0.0000 0.0000 1.0000
vn 0.4222 -0.0649 0.9042
vn 1.0000 -0.0000 0.0000
vn -0.1417 -0.9889 0.0447
vn -0.4536 0.4156 0.7883
vn 0.9429 -0.3025 0.1397
vn -0.5784 0.5780 0.5756
vn -0.6670 0.6664 -0.3332
vn 0.0000 0.6011 -0.7991
vn 0.8905 0.3940 -0.2277
vn -0.6764 0.4428 -0.5886
vn 0.4293 0.7957 -0.4272
vn -0.5440 0.7393 -0.3969
vn -1.0000 0.0000 0.0000
vn -0.9937 -0.1018 -0.0469
vn -0.9522 0.2691 -0.1448
vn -0.8871 0.3884 -0.2496
vn -0.8563 -0.0568 -0.5133
vn -0.9827 0.0175 -0.1843
usemtl Shape.9045
s off
f 14//1 7//1 15//1
f 2//2 3//2 4//2
f 1//3 4//3 5//3
f 2//2 4//2 6//2
f 5//4 4//4 8//4
f 3//5 5//5 8//5
f 4//3 1//3 9//3
f 6//6 4//6 9//6
f 1//7 5//7 10//7
f 4//2 3//2 11//2
f 3//5 8//5 11//5
f 8//8 4//8 11//8
f 10//9 5//9 12//9
f 7//10 10//10 12//10
f 3//11 2//11 13//11
f 5//12 3//12 13//12
f 2//13 7//13 13//13
f 12//14 5//14 13//14
f 7//15 12//15 13//15
f 9//16 1//16 14//16
f 6//17 9//17 14//17
f 1//18 10//18 14//18
f 10//19 7//19 14//19
f 2//2 6//2 15//2
f 7//20 2//20 15//20
f 6//21 14//21 15//21
