# Blender v2.79 (sub 0) OBJ File: ''
# www.blender.org
mtllib 102689_link_0_5.mtl
o Shape_IndexedFaceSet.005_Shape_IndexedFaceSet.1944
v 0.171138 0.172756 0.066388
v 0.027118 0.167143 0.013333
v 0.027118 0.175058 0.013333
v 0.027118 0.188250 0.050271
v 0.032404 0.167143 0.044994
v 0.118591 0.189705 0.048443
v 0.135294 0.169781 0.034449
v 0.135294 0.164504 0.068746
v 0.148501 0.188250 0.068746
v 0.066710 0.175058 0.013333
v 0.027118 0.188250 0.031813
v 0.069346 0.164504 0.018616
v 0.169616 0.164504 0.068746
v 0.027118 0.164504 0.037091
v 0.119466 0.167143 0.068746
v 0.143216 0.175058 0.039727
v 0.111544 0.175058 0.023894
v 0.076964 0.189806 0.036573
v 0.027118 0.175058 0.050271
v 0.105748 0.186668 0.065054
v 0.159058 0.167143 0.050271
v 0.161679 0.177692 0.055549
vn 0.7743 0.1187 -0.6216
vn -1.0000 0.0000 0.0000
vn -0.0140 0.9957 0.0920
vn 0.0000 0.0000 -1.0000
vn 0.0000 0.8139 -0.5810
vn 0.0857 -0.4288 -0.8993
vn 0.2507 0.2229 0.9420
vn 0.0000 0.0000 1.0000
vn 0.0000 -1.0000 0.0000
vn -0.1115 -0.9178 0.3811
vn -0.0482 -0.9927 -0.1103
vn -0.1408 -0.8448 0.5163
vn 0.2368 -0.5442 -0.8048
vn 0.2106 -0.3950 -0.8942
vn 0.4364 0.2180 -0.8729
vn 0.2747 0.7890 -0.5496
vn -0.0147 0.9981 0.0600
vn -0.0312 0.9995 0.0000
vn 0.0257 0.8389 -0.5437
vn 0.1556 0.8280 -0.5387
vn 0.1349 0.8086 -0.5727
vn -0.4784 -0.6855 0.5489
vn -0.1962 0.0000 0.9806
vn -0.2036 -0.6336 0.7464
vn -0.0744 0.8694 0.4885
vn -0.1834 0.0567 0.9814
vn -0.0899 0.1237 0.9882
vn 0.1688 -0.8993 -0.4035
vn 0.8111 -0.2941 -0.5055
vn 0.0976 -0.9759 -0.1952
vn 0.5542 0.0005 -0.8324
vn 0.6153 0.2251 -0.7555
vn 0.3064 0.8688 -0.3891
vn 0.5539 0.8256 -0.1074
vn 0.3081 0.8125 -0.4948
usemtl Shape.1946
s off
f 1//1 21//1 22//1
f 3//2 2//2 4//2
f 6//3 4//3 9//3
f 2//4 3//4 10//4
f 3//2 4//2 11//2
f 10//5 3//5 11//5
f 2//6 10//6 12//6
f 1//7 9//7 13//7
f 9//8 8//8 13//8
f 8//9 12//9 13//9
f 4//2 2//2 14//2
f 8//10 5//10 14//10
f 2//11 12//11 14//11
f 12//9 8//9 14//9
f 5//12 8//12 15//12
f 8//8 9//8 15//8
f 7//13 12//13 17//13
f 12//14 10//14 17//14
f 16//15 7//15 17//15
f 6//16 16//16 17//16
f 4//17 6//17 18//17
f 11//18 4//18 18//18
f 10//19 11//19 18//19
f 6//20 17//20 18//20
f 17//21 10//21 18//21
f 4//2 14//2 19//2
f 14//22 5//22 19//22
f 15//23 4//23 19//23
f 5//24 15//24 19//24
f 9//25 4//25 20//25
f 4//26 15//26 20//26
f 15//27 9//27 20//27
f 12//28 7//28 21//28
f 1//29 13//29 21//29
f 13//30 12//30 21//30
f 7//31 16//31 21//31
f 21//32 16//32 22//32
f 6//33 9//33 22//33
f 9//34 1//34 22//34
f 16//35 6//35 22//35
