# Blender v2.79 (sub 0) OBJ File: ''
# www.blender.org
mtllib 102689_link_4_77.mtl
o Shape_IndexedFaceSet.077_Shape_IndexedFaceSet.503
v -0.113415 -0.228855 0.106373
v 0.015768 -0.214729 0.071442
v 0.022245 -0.237850 0.069286
v -0.049664 -0.229916 -0.029507
v -0.124803 -0.236925 0.211997
v -0.139617 -0.214729 0.182382
v -0.080420 -0.214729 0.211997
v -0.025710 -0.213756 -0.027439
v 0.015768 -0.236925 -0.017381
v -0.050794 -0.236968 -0.017824
v -0.080650 -0.237063 0.213425
vn 0.8136 0.0287 0.5807
vn -0.7639 0.5339 -0.3625
vn -0.7357 -0.6646 -0.1301
vn -0.3334 0.6668 0.6665
vn 0.8124 0.1757 0.5560
vn 0.0089 0.9999 0.0061
vn -0.5204 0.8071 -0.2788
vn -0.0018 1.0000 0.0036
vn 0.9590 0.2751 -0.0687
vn 0.5149 0.8317 -0.2078
vn 0.1680 -0.1238 -0.9780
vn -0.7939 -0.4836 -0.3687
vn -0.3347 -0.9362 -0.1076
vn -0.0089 -1.0000 -0.0027
vn 0.0007 -0.9999 -0.0107
vn 0.0040 -0.8563 -0.5165
vn -0.0032 -1.0000 0.0032
vn -0.0321 0.0641 0.9974
usemtl Shape.518
s off
f 3//1 7//1 11//1
f 4//2 1//2 6//2
f 1//3 5//3 6//3
f 6//4 5//4 7//4
f 3//5 2//5 7//5
f 7//6 2//6 8//6
f 4//7 6//7 8//7
f 6//8 7//8 8//8
f 2//9 3//9 9//9
f 8//10 2//10 9//10
f 4//11 8//11 9//11
f 1//12 4//12 10//12
f 5//13 1//13 10//13
f 3//14 5//14 10//14
f 9//15 3//15 10//15
f 4//16 9//16 10//16
f 5//17 3//17 11//17
f 7//18 5//18 11//18
