# Blender v2.79 (sub 0) OBJ File: ''
# www.blender.org
mtllib 102689_link_0_28.mtl
o Shape_IndexedFaceSet.028_Shape_IndexedFaceSet.1967
v -0.052061 0.214636 0.815558
v -0.131218 0.206724 0.723225
v -0.131218 0.196169 0.768081
v -0.030949 0.198810 0.723225
v -0.031281 0.196248 0.817894
v -0.030949 0.217274 0.739051
v -0.131218 0.219915 0.778616
v -0.131218 0.219915 0.723225
v -0.030949 0.219915 0.812918
v -0.115341 0.197026 0.792737
v -0.038869 0.214636 0.723225
v -0.030949 0.219915 0.762799
v -0.118007 0.217274 0.791810
v -0.049420 0.198810 0.723225
v -0.064148 0.197151 0.811851
v -0.127675 0.197008 0.785411
v -0.110097 0.211998 0.797083
v -0.030949 0.196169 0.805005
vn 1.0000 0.0000 0.0000
vn -1.0000 -0.0000 0.0000
vn 0.0000 0.0000 -1.0000
vn 0.0710 0.2043 0.9763
vn 0.0000 1.0000 0.0000
vn -0.0243 -0.9984 0.0504
vn 0.7927 0.3967 -0.4628
vn 0.0560 0.9799 -0.1914
vn 0.0436 0.9929 -0.1104
vn -0.1488 0.8488 0.5074
vn -0.0991 0.9519 0.2898
vn -0.0938 -0.9691 -0.2280
vn 0.0000 -0.9983 -0.0588
vn -0.1824 -0.0816 0.9798
vn -0.0557 -0.9862 0.1557
vn -0.9749 -0.0904 0.2037
vn -0.0310 -0.9980 0.0547
vn -0.6922 0.1048 0.7141
vn -0.5540 0.0014 0.8325
vn -0.2926 0.4200 0.8591
vn -0.3037 0.0079 0.9527
vn -0.3456 -0.1479 0.9266
vn -0.5093 -0.0706 0.8577
vn 0.0119 -0.9994 -0.0323
vn -0.0022 -1.0000 0.0061
vn 0.9996 -0.0086 0.0258
usemtl Shape.1969
s off
f 4//1 9//1 18//1
f 2//2 3//2 7//2
f 4//3 2//3 8//3
f 2//2 7//2 8//2
f 1//4 5//4 9//4
f 4//1 6//1 9//1
f 8//5 7//5 9//5
f 3//6 5//6 10//6
f 6//7 4//7 11//7
f 8//8 6//8 11//8
f 4//3 8//3 11//3
f 6//9 8//9 12//9
f 9//1 6//1 12//1
f 8//5 9//5 12//5
f 1//10 9//10 13//10
f 9//11 7//11 13//11
f 3//12 2//12 14//12
f 4//13 3//13 14//13
f 2//3 4//3 14//3
f 5//14 1//14 15//14
f 10//15 5//15 15//15
f 7//16 3//16 16//16
f 3//17 10//17 16//17
f 13//18 7//18 16//18
f 13//19 16//19 17//19
f 1//20 13//20 17//20
f 15//21 1//21 17//21
f 10//22 15//22 17//22
f 16//23 10//23 17//23
f 3//24 4//24 18//24
f 5//25 3//25 18//25
f 9//26 5//26 18//26
