# Blender v2.79 (sub 0) OBJ File: ''
# www.blender.org
mtllib 102689_link_0_34.mtl
o Shape_IndexedFaceSet.034_Shape_IndexedFaceSet.1973
v -0.220943 0.206731 -0.152914
v -0.228867 0.201445 -0.150275
v -0.213025 0.227829 -0.100141
v -0.278999 0.201445 -0.100141
v -0.276358 0.235746 -0.102786
v -0.213025 0.243659 -0.150275
v -0.212086 0.200768 -0.137382
v -0.244701 0.235746 -0.139716
v -0.213025 0.243659 -0.105425
v -0.263164 0.201445 -0.123898
v -0.260523 0.201445 -0.100141
v -0.220943 0.248941 -0.139716
v -0.260523 0.241023 -0.100141
v -0.276358 0.227829 -0.108065
v -0.247323 0.243659 -0.131802
v -0.213025 0.201445 -0.152914
v -0.223584 0.241023 -0.150275
v -0.213025 0.248941 -0.129162
vn -0.1132 0.9899 0.0849
vn 0.9998 0.0068 0.0203
vn -0.0202 -0.9995 -0.0262
vn -0.0161 -0.9998 -0.0107
vn -0.6092 -0.0374 -0.7921
vn 0.0000 0.0000 1.0000
vn 0.4076 -0.7338 0.5435
vn 0.0000 -0.9998 0.0182
vn -0.1933 0.0902 0.9770
vn 0.0876 0.3154 0.9449
vn -0.9924 0.0685 -0.1027
vn -0.8292 -0.0830 -0.5527
vn -0.7134 0.0621 -0.6980
vn -0.1964 0.9805 -0.0002
vn -0.3083 0.9500 -0.0495
vn -0.7009 0.3957 -0.5934
vn -0.7007 0.3749 -0.6070
vn -0.1596 -0.2390 -0.9578
vn 0.0416 0.0623 -0.9972
vn -0.0072 -0.9990 -0.0431
vn 0.9982 0.0038 -0.0602
vn -0.3430 0.0458 -0.9382
vn -0.0188 0.0753 -0.9970
vn -0.4586 0.0612 -0.8865
vn -0.2015 0.8072 -0.5549
vn -0.4810 0.5352 -0.6944
vn -0.3146 0.7955 -0.5178
vn 0.9998 0.0204 -0.0051
vn 0.9998 0.0188 0.0042
vn 0.3078 0.9230 -0.2309
vn -0.0300 0.9757 0.2171
usemtl Shape.1975
s off
f 12//1 13//1 18//1
f 3//2 7//2 9//2
f 2//3 7//3 10//3
f 7//4 4//4 10//4
f 8//5 2//5 10//5
f 3//6 4//6 11//6
f 7//7 3//7 11//7
f 4//8 7//8 11//8
f 4//6 3//6 13//6
f 5//9 4//9 13//9
f 3//10 9//10 13//10
f 4//11 5//11 14//11
f 10//12 4//12 14//12
f 8//13 10//13 14//13
f 13//14 12//14 15//14
f 5//15 13//15 15//15
f 14//16 5//16 15//16
f 8//17 14//17 15//17
f 2//18 1//18 16//18
f 1//19 6//19 16//19
f 7//20 2//20 16//20
f 6//21 7//21 16//21
f 1//22 2//22 17//22
f 6//23 1//23 17//23
f 2//24 8//24 17//24
f 12//25 6//25 17//25
f 8//26 15//26 17//26
f 15//27 12//27 17//27
f 7//28 6//28 18//28
f 9//29 7//29 18//29
f 6//30 12//30 18//30
f 13//31 9//31 18//31
