# Blender v2.79 (sub 0) OBJ File: ''
# www.blender.org
mtllib 102689_link_4_193.mtl
o Shape_IndexedFaceSet.193_Shape_IndexedFaceSet.619
v 0.267343 -0.014929 0.470943
v 0.178560 -0.074143 0.286018
v 0.181886 -0.062304 0.272384
v 0.178560 -0.014929 0.493147
v 0.271123 0.056679 0.254026
v 0.267343 0.059044 0.493147
v 0.267343 -0.022347 0.286018
v 0.193360 -0.066738 0.485738
v 0.178560 -0.022347 0.263792
v 0.208160 -0.066738 0.419150
v 0.259930 0.059044 0.485738
v 0.230339 -0.044536 0.263792
v 0.178560 -0.066738 0.493147
v 0.267343 -0.007550 0.493147
v 0.245139 -0.044536 0.308221
vn 0.5882 -0.7846 -0.1959
vn 0.9989 -0.0470 0.0019
vn -0.9210 -0.1537 -0.3581
vn -1.0000 0.0000 0.0000
vn 0.1241 -0.9919 0.0276
vn 0.5861 -0.7997 0.1303
vn -0.5390 0.6470 0.5393
vn 0.0097 0.9999 -0.0097
vn -0.6737 0.7386 -0.0239
vn -0.6512 0.7579 -0.0392
vn 0.1699 -0.7642 -0.6222
vn 0.6213 -0.3194 -0.7155
vn -0.0929 -0.2167 -0.9718
vn -0.0351 -0.0820 -0.9960
vn -0.0000 0.0000 1.0000
vn 0.0179 -0.9992 0.0357
vn 0.3716 -0.5575 0.7424
vn 0.9996 -0.0263 0.0087
vn 0.9999 0.0000 0.0158
vn 0.5884 -0.7673 0.2550
vn 0.7204 -0.6930 0.0278
vn 0.4177 -0.9076 -0.0424
vn 0.6300 -0.7746 0.0550
vn 0.4425 -0.8846 -0.1474
usemtl Shape.634
s off
f 12//1 7//1 15//1
f 5//2 1//2 7//2
f 3//3 2//3 9//3
f 2//4 4//4 9//4
f 8//5 2//5 10//5
f 1//6 8//6 10//6
f 4//7 6//7 11//7
f 6//8 5//8 11//8
f 9//9 4//9 11//9
f 5//10 9//10 11//10
f 2//11 3//11 12//11
f 5//12 7//12 12//12
f 3//13 9//13 12//13
f 9//14 5//14 12//14
f 4//4 2//4 13//4
f 6//15 4//15 13//15
f 2//16 8//16 13//16
f 13//17 8//17 14//17
f 1//18 5//18 14//18
f 5//19 6//19 14//19
f 8//20 1//20 14//20
f 6//15 13//15 14//15
f 7//21 1//21 15//21
f 10//22 2//22 15//22
f 1//23 10//23 15//23
f 2//24 12//24 15//24
