# Blender v2.79 (sub 0) OBJ File: ''
# www.blender.org
mtllib 102689_link_3_50.mtl
o Shape_IndexedFaceSet.050_Shape_IndexedFaceSet.3011
v -0.136240 0.775570 -0.274865
v -0.297498 0.773231 -0.316939
v -0.297498 0.756871 -0.307585
v -0.131564 0.773231 -0.293563
v -0.126888 0.756871 -0.270188
v -0.297498 0.768556 -0.295893
v -0.236726 0.756871 -0.281880
v -0.133902 0.756871 -0.284214
v -0.295160 0.775570 -0.298231
v -0.126888 0.775570 -0.291234
v -0.189998 0.768556 -0.277203
v -0.295160 0.756871 -0.293563
v -0.290484 0.775570 -0.316939
v -0.290484 0.773231 -0.316939
v -0.140916 0.761548 -0.270188
v -0.126888 0.775570 -0.274865
vn 0.0806 0.2419 0.9670
vn -1.0000 0.0000 0.0000
vn 0.0000 -1.0000 0.0000
vn -0.9382 0.3378 0.0750
vn 0.5703 -0.4675 -0.6755
vn 0.7989 -0.4496 -0.3995
vn 0.0000 1.0000 0.0000
vn -0.1645 0.2791 0.9461
vn -0.1144 0.6175 0.7782
vn -0.1598 0.3597 0.9193
vn -0.9733 -0.1624 0.1623
vn -0.1937 0.1544 0.9688
vn -0.3154 0.9457 -0.0788
vn 0.1287 0.5585 -0.8194
vn 0.0000 -0.4964 -0.8681
vn 0.1198 -0.5310 -0.8389
vn 0.1255 -0.5057 -0.8535
vn 0.0000 0.0000 -1.0000
vn 0.1455 0.0000 -0.9894
vn -0.1009 -0.3026 0.9478
vn -0.0852 0.3407 0.9363
vn -0.1256 0.1075 0.9862
vn 1.0000 0.0000 0.0000
vn 0.0000 0.3164 0.9486
usemtl Shape.3020
s off
f 15//1 5//1 16//1
f 2//2 3//2 6//2
f 3//3 5//3 7//3
f 5//3 3//3 8//3
f 2//4 6//4 9//4
f 8//5 4//5 10//5
f 5//6 8//6 10//6
f 9//7 1//7 10//7
f 6//8 7//8 11//8
f 1//9 9//9 11//9
f 9//10 6//10 11//10
f 6//11 3//11 12//11
f 7//12 6//12 12//12
f 3//3 7//3 12//3
f 2//13 9//13 13//13
f 10//14 4//14 13//14
f 9//7 10//7 13//7
f 3//15 2//15 14//15
f 8//16 3//16 14//16
f 4//17 8//17 14//17
f 2//18 13//18 14//18
f 13//19 4//19 14//19
f 7//20 5//20 15//20
f 1//21 11//21 15//21
f 11//22 7//22 15//22
f 10//7 1//7 16//7
f 5//23 10//23 16//23
f 1//24 15//24 16//24
