# Blender v2.79 (sub 0) OBJ File: ''
# www.blender.org
mtllib 102689_link_4_176.mtl
o Shape_IndexedFaceSet.176_Shape_IndexedFaceSet.602
v 0.289785 0.191098 -0.630653
v 0.311739 0.184826 -0.313383
v 0.311739 0.147847 -0.313383
v -0.009811 0.170033 -0.602676
v 0.311739 0.147847 -0.609285
v 0.089765 0.140436 -0.313383
v -0.001706 0.200140 -0.604057
v 0.002941 0.140811 -0.629492
v 0.156354 0.192225 -0.313383
v 0.319699 0.201146 -0.600529
v 0.004964 0.198869 -0.634735
v 0.104579 0.177432 -0.313383
v 0.141570 0.140436 -0.587075
v 0.114563 0.203499 -0.601574
v -0.005626 0.139180 -0.599489
v 0.163746 0.140436 -0.328201
v 0.311739 0.155240 -0.624070
vn 0.9883 -0.1364 -0.0682
vn 0.0000 0.0000 1.0000
vn -0.9048 0.2591 0.3379
vn 0.9996 0.0000 0.0277
vn 0.9890 -0.1477 0.0000
vn 0.0475 0.9972 0.0580
vn -0.9453 0.2446 -0.2157
vn 0.0118 -0.0903 -0.9958
vn -0.9059 -0.0067 -0.4235
vn 0.0305 0.9387 -0.3434
vn -0.8711 0.3488 0.3458
vn -0.2706 0.9470 0.1729
vn 0.0295 -0.9940 -0.1053
vn -0.0298 0.9986 0.0434
vn 0.0113 0.9992 0.0375
vn -0.0278 0.9985 -0.0474
vn 0.0122 0.9840 -0.1777
vn -0.9442 -0.0955 0.3152
vn -0.9473 -0.1573 -0.2790
vn 0.0128 -0.9986 -0.0506
vn 0.0086 -1.0000 -0.0007
vn 0.0500 -0.9987 0.0000
vn 0.0329 -0.9859 0.1643
vn 0.0430 -0.9991 -0.0037
vn 0.0008 -1.0000 0.0041
vn 0.0251 -0.1657 -0.9859
vn 0.0496 -0.8933 -0.4467
vn 0.6406 0.2595 -0.7227
usemtl Shape.617
s off
f 10//1 5//1 17//1
f 3//2 2//2 6//2
f 4//3 6//3 7//3
f 6//2 2//2 9//2
f 2//4 3//4 10//4
f 3//5 5//5 10//5
f 9//6 2//6 10//6
f 4//7 7//7 11//7
f 1//8 8//8 11//8
f 8//9 4//9 11//9
f 10//10 1//10 11//10
f 7//11 6//11 12//11
f 6//2 9//2 12//2
f 9//12 7//12 12//12
f 8//13 5//13 13//13
f 7//14 9//14 14//14
f 9//15 10//15 14//15
f 11//16 7//16 14//16
f 10//17 11//17 14//17
f 6//18 4//18 15//18
f 4//19 8//19 15//19
f 8//20 13//20 15//20
f 15//21 13//21 16//21
f 5//22 3//22 16//22
f 3//23 6//23 16//23
f 13//24 5//24 16//24
f 6//25 15//25 16//25
f 8//26 1//26 17//26
f 5//27 8//27 17//27
f 1//28 10//28 17//28
