# Blender v2.79 (sub 0) OBJ File: ''
# www.blender.org
mtllib 102689_link_4_46.mtl
o Shape_IndexedFaceSet.046_Shape_IndexedFaceSet.472
v 0.067595 0.125637 -0.209762
v 0.143623 0.273575 -0.110086
v 0.175836 0.265920 -0.097439
v -0.011682 0.166030 -0.089209
v 0.208149 0.125637 -0.083974
v 0.211760 0.214751 -0.211742
v -0.022744 0.237064 -0.210593
v -0.010509 0.267032 -0.096561
v 0.197739 0.139438 -0.204053
v -0.021229 0.162643 -0.209762
v 0.074982 0.125637 -0.083974
v 0.193308 0.273600 -0.128386
v 0.208149 0.199649 -0.083974
v -0.021229 0.273600 -0.128386
v 0.135902 0.230335 -0.212478
v -0.009532 0.253143 -0.090389
vn -0.9392 0.0820 0.3333
vn 0.0075 0.8638 0.5037
vn 0.1100 -0.9863 -0.1229
vn 0.9755 -0.1925 -0.1067
vn 0.0554 -0.1116 -0.9922
vn 0.0000 -1.0000 0.0000
vn -0.3845 -0.9229 0.0226
vn -0.4246 -0.9034 0.0590
vn 0.1089 0.9487 0.2969
vn 0.9996 0.0000 0.0283
vn 0.0000 0.0000 1.0000
vn 0.7210 0.4573 0.5206
vn 0.9722 0.2278 0.0544
vn -0.0231 0.9775 0.2095
vn -0.9950 -0.0590 0.0805
vn -0.9994 -0.0200 0.0273
vn 0.0000 1.0000 0.0014
vn 0.0000 0.9138 -0.4061
vn 0.0039 -0.0284 -0.9996
vn -0.0085 -0.0204 -0.9998
vn -0.0124 -0.0114 -0.9999
vn 0.1742 0.8222 -0.5419
vn 0.0317 0.8798 -0.4743
vn 0.0067 0.4065 0.9136
vn -0.0534 0.0148 0.9985
vn 0.0227 0.2097 0.9775
vn -0.0204 0.0367 0.9991
vn -0.9511 0.0276 0.3077
usemtl Shape.487
s off
f 8//1 14//1 16//1
f 3//2 2//2 8//2
f 5//3 1//3 9//3
f 6//4 5//4 9//4
f 1//5 6//5 9//5
f 1//6 5//6 11//6
f 10//7 1//7 11//7
f 4//8 10//8 11//8
f 2//9 3//9 12//9
f 5//10 6//10 13//10
f 11//11 5//11 13//11
f 12//12 3//12 13//12
f 6//13 12//13 13//13
f 8//14 2//14 14//14
f 10//15 4//15 14//15
f 7//16 10//16 14//16
f 2//17 12//17 14//17
f 12//18 7//18 14//18
f 6//19 1//19 15//19
f 1//20 10//20 15//20
f 10//21 7//21 15//21
f 12//22 6//22 15//22
f 7//23 12//23 15//23
f 3//24 8//24 16//24
f 4//25 11//25 16//25
f 13//26 3//26 16//26
f 11//27 13//27 16//27
f 14//28 4//28 16//28
