# Blender v2.79 (sub 0) OBJ File: ''
# www.blender.org
mtllib 102689_link_4_26.mtl
o Shape_IndexedFaceSet.026_Shape_IndexedFaceSet.452
v -0.147002 -0.710481 0.715139
v 0.012677 -0.594242 0.750655
v 0.015768 -0.621689 0.759543
v 0.024342 -0.675715 0.658506
v -0.157156 -0.590186 0.669452
v 0.015768 -0.710481 0.744742
v -0.139606 -0.592092 0.729940
v -0.148207 -0.706162 0.666862
v -0.102591 -0.688266 0.744742
v 0.015768 -0.592092 0.715139
v 0.009368 -0.706028 0.666970
v -0.162294 -0.667430 0.658899
v -0.154416 -0.695659 0.722530
v -0.050833 -0.592092 0.752133
v -0.021247 -0.688266 0.759543
vn -0.1790 0.0207 0.9836
vn 0.9956 -0.0155 0.0928
vn 0.9854 0.1415 0.0943
vn 0.9964 0.0704 0.0469
vn 0.2170 0.5625 -0.7978
vn 0.0106 -0.9983 -0.0580
vn 0.8809 -0.4628 -0.0990
vn 0.0009 -0.9960 -0.0891
vn 0.0009 -0.2693 -0.9630
vn 0.0039 0.1351 -0.9908
vn -0.0112 -0.2053 -0.9786
vn -0.9365 -0.3486 -0.0387
vn -0.9529 0.1162 0.2801
vn -0.8976 -0.4405 -0.0170
vn -0.2676 -0.5338 0.8021
vn -0.3928 -0.0096 0.9196
vn -0.9887 0.0462 0.1429
vn 0.0326 0.3112 0.9498
vn -0.0085 0.9994 0.0340
vn -0.2422 0.0559 0.9686
vn 0.0352 0.9974 0.0634
vn 0.0075 0.9999 0.0134
vn -0.1295 -0.6901 0.7120
vn 0.2836 -0.1577 0.9459
vn -0.1296 -0.6900 0.7122
vn -0.0888 0.0493 0.9948
usemtl Shape.467
s off
f 14//1 9//1 15//1
f 4//2 3//2 6//2
f 2//3 3//3 10//3
f 3//4 4//4 10//4
f 4//5 5//5 10//5
f 6//6 1//6 11//6
f 4//7 6//7 11//7
f 1//8 8//8 11//8
f 8//9 4//9 11//9
f 5//10 4//10 12//10
f 4//11 8//11 12//11
f 12//12 8//12 13//12
f 7//13 5//13 13//13
f 8//14 1//14 13//14
f 1//15 9//15 13//15
f 9//16 7//16 13//16
f 5//17 12//17 13//17
f 3//18 2//18 14//18
f 5//19 7//19 14//19
f 7//20 9//20 14//20
f 2//21 10//21 14//21
f 10//22 5//22 14//22
f 1//23 6//23 15//23
f 6//24 3//24 15//24
f 9//25 1//25 15//25
f 3//26 14//26 15//26
