# Blender v2.79 (sub 0) OBJ File: ''
# www.blender.org
mtllib 102689_link_4_104.mtl
o Shape_IndexedFaceSet.104_Shape_IndexedFaceSet.530
v -0.207399 -0.235830 0.266727
v -0.080423 -0.229525 0.241616
v -0.080423 -0.236925 0.241616
v -0.176601 -0.236925 0.374749
v -0.208853 -0.215568 0.368600
v -0.139638 -0.214729 0.211997
v -0.087826 -0.214729 0.241616
v -0.176601 -0.214729 0.374749
v -0.207434 -0.215818 0.266711
vn -0.0197 0.9998 -0.0045
vn 0.8106 0.0000 0.5856
vn -0.0101 -0.9999 -0.0073
vn -0.5657 -0.8103 0.1531
vn -0.0990 -0.8812 -0.4623
vn 0.4474 0.0000 -0.8944
vn 0.4817 0.2410 -0.8426
vn -0.0000 1.0000 0.0000
vn -0.1873 0.0000 0.9823
vn 0.7681 0.3843 0.5122
vn -0.0255 0.9997 -0.0028
vn -0.9999 -0.0018 -0.0139
vn -0.6280 -0.0017 -0.7782
usemtl Shape.545
s off
f 8//1 6//1 9//1
f 3//2 2//2 4//2
f 1//3 3//3 4//3
f 1//4 4//4 5//4
f 3//5 1//5 6//5
f 2//6 3//6 6//6
f 2//7 6//7 7//7
f 7//8 6//8 8//8
f 4//2 2//2 8//2
f 5//9 4//9 8//9
f 2//10 7//10 8//10
f 5//11 8//11 9//11
f 1//12 5//12 9//12
f 6//13 1//13 9//13
