# Blender v2.79 (sub 0) OBJ File: ''
# www.blender.org
mtllib 102689_link_2_13.mtl
o Shape_IndexedFaceSet.013_Shape_IndexedFaceSet.5889
v 0.275378 0.261137 -0.095239
v 0.000469 0.258418 -0.149669
v 0.014096 0.255696 -0.146939
v 0.000469 0.277462 -0.092514
v 0.246429 0.240170 -0.095632
v 0.210036 0.261137 -0.144220
v 0.044030 0.277462 -0.136052
v 0.253598 0.242086 -0.136052
v 0.000469 0.252973 -0.122446
v 0.180102 0.272017 -0.092514
v 0.000469 0.266575 -0.092514
v 0.000469 0.272017 -0.149669
v 0.289194 0.242415 -0.093009
v 0.193701 0.242086 -0.138776
v 0.204591 0.247531 -0.146939
v 0.199146 0.266575 -0.136052
v 0.259043 0.255696 -0.130608
v 0.000469 0.280185 -0.097958
v 0.093037 0.277462 -0.111570
v 0.106635 0.272017 -0.144220
v 0.288977 0.255696 -0.092514
v 0.000469 0.252973 -0.136052
v 0.000469 0.277462 -0.138776
v 0.234525 0.263853 -0.127889
v 0.204591 0.258418 -0.146939
v 0.212773 0.269298 -0.097958
v 0.109372 0.274740 -0.130608
v 0.101190 0.277462 -0.095239
v 0.185547 0.242086 -0.136052
v 0.022250 0.263853 -0.092514
v 0.046767 0.269298 -0.149669
v 0.278087 0.252973 -0.111570
v 0.014096 0.280185 -0.106126
v 0.272613 0.242086 -0.092514
v 0.014096 0.280185 -0.092514
vn 0.0312 0.9995 0.0000
vn -1.0000 -0.0000 -0.0000
vn 0.0000 0.0000 1.0000
vn 0.0547 -0.9978 -0.0376
vn 0.0021 -0.9989 -0.0470
vn -0.0337 -0.7869 -0.6162
vn -0.0347 -0.8094 -0.5862
vn 0.0242 -0.8463 -0.5322
vn 0.0927 0.8814 -0.4632
vn 0.0933 0.6224 0.7771
vn 0.4065 0.8560 -0.3194
vn -0.1104 -0.9228 -0.3690
vn -0.0578 -0.9491 -0.3098
vn 0.0229 0.8942 -0.4470
vn 0.0257 0.9114 -0.4107
vn 0.1599 0.9066 -0.3905
vn 0.2279 0.8458 -0.4824
vn 0.2769 0.9223 -0.2698
vn 0.2169 0.0000 -0.9762
vn 0.2864 0.3270 -0.9006
vn 0.2895 0.2534 -0.9230
vn 0.0669 0.6354 -0.7693
vn 0.1169 0.9691 0.2174
vn 0.0740 0.9958 -0.0534
vn 0.1324 0.9877 -0.0835
vn 0.1007 0.9892 -0.1067
vn 0.0497 0.9938 -0.0995
vn 0.0579 0.9766 -0.2070
vn 0.0759 0.9747 -0.2102
vn 0.0840 0.9913 -0.1009
vn 0.0765 0.9941 -0.0765
vn 0.0700 0.9969 -0.0349
vn -0.0560 -0.9977 0.0370
vn -0.0105 -0.9994 -0.0315
vn -0.0587 -0.9983 0.0000
vn -0.0578 -0.9832 -0.1731
vn -0.0909 -0.9129 0.3980
vn -0.1130 -0.9046 0.4111
vn -0.0000 0.0000 -1.0000
vn 0.0109 -0.0463 -0.9989
vn 0.0386 0.6576 -0.7524
vn 0.0173 0.0000 -0.9999
vn 0.0518 0.5411 -0.8394
vn 0.7380 -0.2926 -0.6081
vn 0.7070 0.0000 -0.7072
vn 0.8657 0.0328 -0.4994
vn 0.5085 0.7627 -0.3996
vn 0.0302 0.9977 -0.0605
vn 0.0053 0.9963 -0.0853
vn -0.0399 0.9970 -0.0665
vn 0.0333 0.9993 -0.0166
vn 0.0287 -0.9411 0.3370
vn 0.0305 -0.0367 0.9989
vn -0.0518 -0.5960 0.8013
vn -0.1759 0.8804 0.4404
vn 0.0426 0.8667 0.4969
vn 0.0000 1.0000 0.0000
usemtl Shape.5894
s off
f 28//1 33//1 35//1
f 4//2 2//2 9//2
f 4//2 9//2 11//2
f 10//3 4//3 11//3
f 2//2 4//2 12//2
f 5//4 8//4 13//4
f 8//5 5//5 14//5
f 3//6 2//6 15//6
f 14//7 3//7 15//7
f 8//8 14//8 15//8
f 12//2 4//2 18//2
f 16//9 6//9 20//9
f 1//10 10//10 21//10
f 10//3 11//3 21//3
f 17//11 1//11 21//11
f 2//12 3//12 22//12
f 9//2 2//2 22//2
f 3//13 14//13 22//13
f 12//2 18//2 23//2
f 20//14 12//14 23//14
f 7//15 20//15 23//15
f 6//16 16//16 24//16
f 17//17 6//17 24//17
f 1//18 17//18 24//18
f 8//19 15//19 25//19
f 6//20 17//20 25//20
f 17//21 8//21 25//21
f 20//22 6//22 25//22
f 10//23 1//23 26//23
f 19//24 10//24 26//24
f 1//25 24//25 26//25
f 24//26 16//26 26//26
f 7//27 19//27 27//27
f 20//28 7//28 27//28
f 16//29 20//29 27//29
f 26//30 16//30 27//30
f 19//31 26//31 27//31
f 10//32 19//32 28//32
f 5//33 9//33 29//33
f 14//34 5//34 29//34
f 9//35 22//35 29//35
f 22//36 14//36 29//36
f 9//37 5//37 30//37
f 11//38 9//38 30//38
f 21//3 11//3 30//3
f 2//39 12//39 31//39
f 15//40 2//40 31//40
f 12//41 20//41 31//41
f 25//42 15//42 31//42
f 20//43 25//43 31//43
f 13//44 8//44 32//44
f 8//45 17//45 32//45
f 21//46 13//46 32//46
f 17//47 21//47 32//47
f 19//48 7//48 33//48
f 7//49 23//49 33//49
f 23//50 18//50 33//50
f 28//51 19//51 33//51
f 5//52 13//52 34//52
f 13//53 21//53 34//53
f 30//54 5//54 34//54
f 21//3 30//3 34//3
f 4//3 10//3 35//3
f 18//55 4//55 35//55
f 10//56 28//56 35//56
f 33//57 18//57 35//57
