# Blender v2.79 (sub 0) OBJ File: ''
# www.blender.org
mtllib 102689_link_0_33.mtl
o Shape_IndexedFaceSet.033_Shape_IndexedFaceSet.1972
v 0.254079 0.188248 0.678310
v 0.356958 0.193526 0.464625
v 0.356958 0.193526 0.459338
v 0.346407 0.172418 0.467255
v 0.222412 0.182973 0.654559
v 0.314740 0.182973 0.461994
v 0.222412 0.172418 0.696775
v 0.222412 0.193526 0.688858
v 0.317387 0.172418 0.461994
v 0.317387 0.175059 0.556974
v 0.325304 0.193526 0.551713
v 0.341138 0.193526 0.459338
v 0.222412 0.172418 0.659846
v 0.227694 0.193526 0.712609
v 0.261996 0.172418 0.649298
v 0.288381 0.177698 0.617630
v 0.341138 0.177698 0.504210
v 0.246162 0.177698 0.683597
v 0.283112 0.190887 0.633464
v 0.314740 0.175059 0.461994
v 0.320022 0.180337 0.559630
v 0.222412 0.180337 0.712609
v 0.346407 0.172418 0.459338
v 0.317387 0.185610 0.464625
vn -0.3707 0.8155 -0.4444
vn 0.8945 -0.4471 0.0000
vn -1.0000 -0.0000 0.0000
vn 0.0000 1.0000 0.0000
vn 0.0000 -1.0000 0.0000
vn 0.2045 -0.9743 0.0948
vn 0.4906 -0.8283 0.2706
vn 0.8879 -0.4205 0.1867
vn 0.5213 -0.8312 0.1931
vn 0.9365 -0.0847 0.3404
vn 0.7475 -0.2533 0.6140
vn 0.3642 -0.8804 0.3037
vn 0.6028 -0.6984 0.3858
vn 0.7920 -0.3403 0.5069
vn 0.7470 0.4280 0.5088
vn 0.3290 0.9230 0.1996
vn 0.8119 -0.2864 0.5087
vn -0.9017 0.0000 -0.4323
vn -0.1001 0.0000 -0.9950
vn -0.8852 -0.2083 -0.4159
vn -0.6689 -0.6704 -0.3211
vn 0.7385 -0.5586 0.3775
vn 0.7731 -0.5473 0.3206
vn 0.9209 -0.1538 0.3582
vn 0.8867 -0.0820 0.4550
vn 0.8625 -0.2089 0.4610
vn -0.9091 0.3641 0.2022
vn 0.7271 -0.2912 0.6217
vn 0.4081 -0.8165 0.4084
vn 0.0000 0.0000 -1.0000
vn -0.0853 -0.0213 -0.9961
vn -0.0908 -0.0910 -0.9917
vn -0.5402 0.8007 -0.2590
vn -0.5236 0.8143 -0.2505
vn -0.3468 0.9206 -0.1794
usemtl Shape.1974
s off
f 12//1 6//1 24//1
f 3//2 2//2 4//2
f 5//3 7//3 8//3
f 2//4 3//4 8//4
f 4//5 7//5 9//5
f 2//4 8//4 11//4
f 8//4 3//4 12//4
f 7//3 5//3 13//3
f 9//5 7//5 13//5
f 11//4 8//4 14//4
f 7//5 4//5 15//5
f 4//6 10//6 15//6
f 15//7 10//7 16//7
f 4//8 2//8 17//8
f 10//9 4//9 17//9
f 2//10 11//10 17//10
f 1//11 14//11 18//11
f 7//12 15//12 18//12
f 15//13 16//13 18//13
f 16//14 1//14 18//14
f 14//15 1//15 19//15
f 11//16 14//16 19//16
f 1//17 16//17 19//17
f 5//18 6//18 20//18
f 6//19 12//19 20//19
f 13//20 5//20 20//20
f 9//21 13//21 20//21
f 16//22 10//22 21//22
f 10//23 17//23 21//23
f 17//24 11//24 21//24
f 11//25 19//25 21//25
f 19//26 16//26 21//26
f 8//3 7//3 22//3
f 14//27 8//27 22//27
f 18//28 14//28 22//28
f 7//29 18//29 22//29
f 3//2 4//2 23//2
f 4//5 9//5 23//5
f 12//30 3//30 23//30
f 20//31 12//31 23//31
f 9//32 20//32 23//32
f 6//33 5//33 24//33
f 5//34 8//34 24//34
f 8//35 12//35 24//35
