# Blender v2.79 (sub 0) OBJ File: ''
# www.blender.org
mtllib 102689_link_0_31.mtl
o Shape_IndexedFaceSet.031_Shape_IndexedFaceSet.1970
v 0.322689 0.172419 0.459278
v 0.380348 0.200113 0.324068
v 0.341157 0.182974 0.279866
v 0.343798 0.201445 0.459278
v 0.367534 0.172419 0.374850
v 0.372810 0.172419 0.279866
v 0.359618 0.188247 0.456644
v 0.370169 0.201445 0.279866
v 0.317413 0.182974 0.456644
v 0.343798 0.172419 0.279866
v 0.346439 0.172419 0.459278
v 0.359618 0.201445 0.456644
v 0.380726 0.185614 0.337949
v 0.380726 0.177698 0.279866
v 0.381955 0.200820 0.283725
v 0.362252 0.177698 0.432898
v 0.317413 0.175059 0.456644
v 0.343798 0.185614 0.282536
v 0.372905 0.199970 0.386164
v 0.364893 0.188247 0.435532
v 0.378085 0.175059 0.314203
v 0.343798 0.201445 0.454009
vn -0.5769 0.8134 -0.0751
vn 0.0000 -1.0000 0.0000
vn 0.0000 0.0000 -1.0000
vn -0.1972 0.1434 0.9698
vn 0.0000 0.0000 1.0000
vn 0.1960 0.0000 0.9806
vn 0.0000 1.0000 0.0000
vn 0.1642 0.0149 0.9863
vn 0.9985 -0.0543 0.0074
vn 0.2302 0.9728 0.0262
vn 0.0519 0.9986 0.0031
vn 0.9970 0.0651 0.0409
vn 0.3148 0.1399 -0.9388
vn 0.4930 -0.8613 0.1232
vn 0.7505 -0.5690 0.3360
vn -0.4467 0.0000 0.8947
vn -0.9911 0.0000 -0.1331
vn -0.4268 -0.9030 -0.0502
vn -0.9606 -0.2403 -0.1398
vn -0.5140 0.8073 -0.2898
vn -0.6581 0.7477 -0.0884
vn 0.3202 0.9465 0.0406
vn 0.9832 0.1388 0.1182
vn 0.9871 -0.0002 0.1602
vn 0.9702 0.0000 0.2424
vn 0.9284 -0.2903 0.2320
vn 0.9472 -0.2774 0.1612
vn 0.9782 0.0993 0.1823
vn 0.3449 -0.9384 0.0192
vn 0.5547 -0.8318 -0.0213
vn 0.9396 -0.3391 0.0462
vn 0.8444 -0.5211 0.1242
vn 0.8585 -0.4973 0.1256
vn -0.5735 0.8192 0.0000
vn -0.5189 0.8512 -0.0786
usemtl Shape.1972
s off
f 18//1 9//1 22//1
f 5//2 1//2 6//2
f 6//3 3//3 8//3
f 1//4 4//4 9//4
f 6//2 1//2 10//2
f 3//3 6//3 10//3
f 4//5 1//5 11//5
f 1//2 5//2 11//2
f 11//6 7//6 12//6
f 8//7 4//7 12//7
f 4//8 11//8 12//8
f 6//3 8//3 14//3
f 13//9 14//9 15//9
f 12//10 2//10 15//10
f 8//11 12//11 15//11
f 2//12 13//12 15//12
f 14//13 8//13 15//13
f 11//14 5//14 16//14
f 7//15 11//15 16//15
f 1//16 9//16 17//16
f 9//17 3//17 17//17
f 10//18 1//18 17//18
f 3//19 10//19 17//19
f 8//20 3//20 18//20
f 3//21 9//21 18//21
f 2//22 12//22 19//22
f 13//23 2//23 19//23
f 13//24 19//24 20//24
f 12//25 7//25 20//25
f 7//26 16//26 20//26
f 16//27 13//27 20//27
f 19//28 12//28 20//28
f 5//29 6//29 21//29
f 6//30 14//30 21//30
f 14//31 13//31 21//31
f 16//32 5//32 21//32
f 13//33 16//33 21//33
f 4//7 8//7 22//7
f 9//34 4//34 22//34
f 8//35 18//35 22//35
