# Blender v2.79 (sub 0) OBJ File: ''
# www.blender.org
mtllib 102689_link_4_124.mtl
o Shape_IndexedFaceSet.124_Shape_IndexedFaceSet.550
v -0.428782 0.722749 -0.482740
v -0.494782 0.369849 -0.468732
v -0.490728 0.383089 -0.427584
v -0.435594 0.369849 -0.513123
v -0.406010 0.695330 -0.424341
v -0.465166 0.687949 -0.424341
v -0.450380 0.695330 -0.513123
v -0.383793 0.717544 -0.513123
v -0.457778 0.369849 -0.424341
v -0.479963 0.369849 -0.513123
v -0.406010 0.724926 -0.424341
v -0.465166 0.665734 -0.476128
v -0.494782 0.429040 -0.424341
v -0.383793 0.702747 -0.505719
vn 0.9658 0.1161 0.2320
vn -0.7451 0.6633 -0.0689
vn 0.0000 0.0000 -1.0000
vn -0.2676 0.8022 -0.5337
vn -0.3803 -0.8688 0.3170
vn 0.0000 -1.0000 0.0000
vn 0.0000 0.0000 1.0000
vn -0.9450 0.0859 -0.3155
vn -0.5221 0.8353 0.1725
vn 0.0713 0.9953 -0.0649
vn -0.9427 0.3066 -0.1315
vn -0.9471 0.0871 -0.3089
vn -0.9871 -0.0961 0.1282
vn -0.1299 -0.0812 0.9882
vn -0.9872 0.0956 -0.1275
vn -0.9923 0.1135 -0.0487
vn 0.9488 -0.1414 -0.2825
vn 0.9585 -0.1545 0.2395
vn 0.9569 -0.1522 0.2474
vn 0.9647 0.0000 0.2634
usemtl Shape.565
s off
f 8//1 11//1 14//1
f 6//2 1//2 7//2
f 4//3 7//3 8//3
f 7//4 1//4 8//4
f 3//5 2//5 9//5
f 2//6 4//6 9//6
f 5//7 6//7 9//7
f 4//6 2//6 10//6
f 2//8 7//8 10//8
f 7//3 4//3 10//3
f 6//7 5//7 11//7
f 1//9 6//9 11//9
f 8//10 1//10 11//10
f 6//11 7//11 12//11
f 7//12 2//12 12//12
f 2//13 3//13 13//13
f 3//14 9//14 13//14
f 9//7 6//7 13//7
f 12//15 2//15 13//15
f 6//16 12//16 13//16
f 4//17 8//17 14//17
f 9//18 4//18 14//18
f 5//19 9//19 14//19
f 11//20 5//20 14//20
