# Blender v2.79 (sub 0) OBJ File: ''
# www.blender.org
mtllib 102689_link_4_90.mtl
o Shape_IndexedFaceSet.090_Shape_IndexedFaceSet.516
v 0.030574 0.029447 -0.017385
v 0.111950 0.036846 -0.046975
v 0.106229 0.044992 -0.000529
v 0.114134 0.013854 -0.047173
v 0.067570 0.044245 -0.083974
v 0.060169 0.014648 -0.083974
vn 0.5565 -0.1392 -0.8191
vn 0.9900 0.0931 0.1056
vn 0.0452 -0.8273 0.5599
vn -0.2203 0.9710 0.0934
vn 0.2706 0.9534 -0.1339
vn 0.6455 0.0679 -0.7607
vn -0.1249 -0.9788 0.1620
vn -0.8729 0.2183 -0.4364
usemtl Shape.531
s off
f 5//1 4//1 6//1
f 2//2 3//2 4//2
f 3//3 1//3 4//3
f 1//4 3//4 5//4
f 3//5 2//5 5//5
f 2//6 4//6 5//6
f 4//7 1//7 6//7
f 1//8 5//8 6//8
