# Blender v2.79 (sub 0) OBJ File: ''
# www.blender.org
mtllib 102689_link_3_41.mtl
o Shape_IndexedFaceSet.041_Shape_IndexedFaceSet.3002
v 0.408435 0.777908 -0.443154
v 0.438823 0.768561 -0.394086
v 0.422463 0.761548 -0.368366
v 0.408435 0.777908 -0.368366
v 0.431811 0.777908 -0.443154
v 0.424798 0.761548 -0.443154
v 0.429469 0.777908 -0.368366
v 0.438823 0.761548 -0.368366
v 0.438823 0.761548 -0.443154
v 0.408435 0.775570 -0.443154
v 0.441161 0.763886 -0.429134
v 0.434146 0.777908 -0.415106
vn 0.8615 0.5027 -0.0717
vn 0.0000 1.0000 0.0000
vn 0.0000 0.0000 -1.0000
vn 0.0000 0.0000 1.0000
vn 0.0000 -1.0000 0.0000
vn 0.8603 0.4919 0.1341
vn -1.0000 0.0000 0.0000
vn -0.7590 -0.6508 0.0203
vn -0.6506 -0.7592 -0.0203
vn 0.9858 0.1620 0.0442
vn 0.8979 0.3848 -0.2139
vn 0.7071 -0.7071 0.0000
vn 0.8068 0.5853 0.0807
vn 0.8943 0.4474 -0.0000
usemtl Shape.3011
s off
f 11//1 5//1 12//1
f 1//2 4//2 5//2
f 1//3 5//3 6//3
f 4//4 3//4 7//4
f 5//2 4//2 7//2
f 3//5 6//5 8//5
f 2//6 7//6 8//6
f 7//4 3//4 8//4
f 6//3 5//3 9//3
f 8//5 6//5 9//5
f 4//7 1//7 10//7
f 3//8 4//8 10//8
f 1//3 6//3 10//3
f 6//9 3//9 10//9
f 2//10 8//10 11//10
f 9//11 5//11 11//11
f 8//12 9//12 11//12
f 7//13 2//13 12//13
f 5//2 7//2 12//2
f 2//14 11//14 12//14
