# Blender v2.79 (sub 0) OBJ File: ''
# www.blender.org
mtllib 102689_link_2_25.mtl
o Shape_IndexedFaceSet.025_Shape_IndexedFaceSet.5901
v -0.264526 0.229720 0.648792
v -0.220013 0.239358 0.707718
v -0.220013 0.228472 0.707718
v -0.290764 0.242082 0.549878
v -0.293490 0.242082 0.598876
v -0.220013 0.242082 0.653281
v -0.290764 0.228472 0.566211
v -0.220013 0.228472 0.683212
v -0.244513 0.242082 0.680492
v -0.293490 0.228472 0.598876
v -0.220013 0.239358 0.653281
v -0.266272 0.242082 0.650562
v -0.239067 0.228472 0.688666
v -0.222739 0.242082 0.704983
vn -0.7436 0.0995 0.6611
vn 1.0000 0.0000 0.0000
vn 0.0000 1.0000 0.0000
vn 0.0000 -1.0000 0.0000
vn -0.9985 0.0000 -0.0555
vn -0.9916 -0.0993 -0.0828
vn 0.8253 0.0000 -0.5647
vn 0.6714 -0.5693 -0.4744
vn 0.4921 -0.8181 -0.2976
vn -0.8470 -0.1907 0.4962
vn -0.8848 0.0000 0.4659
vn -0.7071 0.0000 0.7071
vn -0.6406 -0.6625 0.3882
vn -0.8299 -0.1922 0.5238
vn -0.8085 0.0295 0.5878
vn 0.6879 0.7249 0.0363
vn -0.7075 0.0015 0.7067
usemtl Shape.5906
s off
f 9//1 13//1 14//1
f 2//2 3//2 6//2
f 4//3 5//3 6//3
f 6//2 3//2 8//2
f 3//4 7//4 8//4
f 6//3 5//3 9//3
f 5//5 4//5 10//5
f 4//6 7//6 10//6
f 7//4 3//4 10//4
f 4//7 6//7 11//7
f 7//8 4//8 11//8
f 6//2 8//2 11//2
f 8//9 7//9 11//9
f 9//3 5//3 12//3
f 10//10 1//10 12//10
f 5//11 10//11 12//11
f 3//12 2//12 13//12
f 1//13 10//13 13//13
f 10//4 3//4 13//4
f 12//14 1//14 13//14
f 9//15 12//15 13//15
f 2//16 6//16 14//16
f 6//3 9//3 14//3
f 13//17 2//17 14//17
