# Blender v2.79 (sub 0) OBJ File: ''
# www.blender.org
mtllib 102689_link_0_75.mtl
o Shape_IndexedFaceSet.075_Shape_IndexedFaceSet.2014
v 0.193371 0.246301 -0.118609
v 0.174902 0.206723 -0.134443
v 0.191045 0.205996 -0.135215
v 0.193371 0.225199 -0.089585
v 0.169625 0.241023 -0.094867
v 0.169625 0.206723 -0.102784
v 0.177540 0.243660 -0.134443
v 0.193371 0.248937 -0.134443
v 0.193371 0.238383 -0.089585
v 0.169625 0.225199 -0.089585
v 0.169625 0.233105 -0.115970
v 0.185451 0.206723 -0.108062
vn 0.2145 -0.7351 0.6431
vn -0.0453 -0.9989 -0.0076
vn -0.0476 0.0034 -0.9989
vn -0.3162 0.9487 -0.0000
vn 0.9982 -0.0536 -0.0283
vn 1.0000 0.0000 0.0000
vn -0.0550 0.9849 0.1640
vn -0.0061 0.0183 -0.9998
vn 0.0487 0.9636 0.2629
vn -0.1731 0.3118 0.9342
vn -1.0000 0.0000 0.0000
vn 0.0000 -0.5813 0.8137
vn 0.0000 0.0000 1.0000
vn -0.9831 -0.0819 -0.1639
vn -0.9303 0.0664 -0.3606
vn -0.9003 0.4075 -0.1529
vn 0.8233 -0.5369 0.1840
vn 0.0096 -0.9995 0.0287
usemtl Shape.2016
s off
f 4//1 6//1 12//1
f 2//2 3//2 6//2
f 3//3 2//3 7//3
f 7//4 5//4 8//4
f 4//5 3//5 8//5
f 1//6 4//6 8//6
f 5//7 1//7 8//7
f 3//8 7//8 8//8
f 4//6 1//6 9//6
f 1//9 5//9 9//9
f 9//10 5//10 10//10
f 5//11 6//11 10//11
f 6//12 4//12 10//12
f 4//13 9//13 10//13
f 2//14 6//14 11//14
f 6//11 5//11 11//11
f 7//15 2//15 11//15
f 5//16 7//16 11//16
f 3//17 4//17 12//17
f 6//18 3//18 12//18
