# Blender v2.79 (sub 0) OBJ File: ''
# www.blender.org
mtllib 102689_link_4_56.mtl
o Shape_IndexedFaceSet.056_Shape_IndexedFaceSet.482
v 0.045365 -0.325731 -0.187542
v 0.045365 -0.429308 -0.024802
v 0.052767 -0.429308 -0.024802
v 0.074513 -0.299628 -0.011886
v 0.111948 -0.362727 -0.069189
v 0.104553 -0.303545 -0.150542
v 0.119358 -0.325731 -0.017415
v 0.074974 -0.370102 -0.135752
v 0.045365 -0.303545 -0.135752
v 0.111948 -0.384900 -0.017415
v 0.045365 -0.377501 -0.017415
v 0.097158 -0.384900 -0.083996
v 0.045365 -0.392300 -0.120962
vn 0.4081 -0.8165 -0.4084
vn 0.9926 -0.0359 -0.1164
vn 0.5091 0.8564 0.0861
vn 0.5890 -0.4158 -0.6930
vn -1.0000 0.0000 0.0000
vn -0.0979 0.9148 -0.3919
vn -0.0075 0.9995 -0.0299
vn 0.0000 -0.1641 0.9864
vn 0.9908 -0.1241 -0.0531
vn 0.1142 -0.0143 0.9934
vn -0.9211 0.3301 0.2063
vn -0.0157 -0.1411 0.9899
vn -0.0076 -0.0680 0.9977
vn 0.8714 -0.3556 -0.3379
vn 0.7706 -0.4441 -0.4572
vn 0.6054 -0.7845 -0.1345
vn 0.8709 -0.4517 -0.1935
vn 0.0000 -0.9333 -0.3592
vn 0.1743 -0.6963 -0.6962
vn 0.3774 -0.8541 -0.3578
usemtl Shape.497
s off
f 8//1 12//1 13//1
f 5//2 6//2 7//2
f 6//3 4//3 7//3
f 1//4 6//4 8//4
f 1//5 2//5 9//5
f 6//6 1//6 9//6
f 4//7 6//7 9//7
f 2//8 3//8 10//8
f 5//9 7//9 10//9
f 7//10 4//10 10//10
f 9//5 2//5 11//5
f 4//11 9//11 11//11
f 2//12 10//12 11//12
f 10//13 4//13 11//13
f 6//14 5//14 12//14
f 8//15 6//15 12//15
f 10//16 3//16 12//16
f 5//17 10//17 12//17
f 2//5 1//5 13//5
f 3//18 2//18 13//18
f 1//19 8//19 13//19
f 12//20 3//20 13//20
