# Blender v2.79 (sub 0) OBJ File: ''
# www.blender.org
mtllib 102689_link_1_3.mtl
o Shape_IndexedFaceSet.003_Shape_IndexedFaceSet.9006
v -0.451264 0.662483 -0.423104
v -0.475594 0.664876 -0.434671
v -0.475594 0.657698 -0.415132
v -0.450465 0.662085 -0.434272
v -0.473996 0.667269 -0.431079
v -0.454851 0.657698 -0.411542
v -0.475594 0.659693 -0.411143
v -0.450465 0.665276 -0.434671
v -0.450865 0.657298 -0.417922
v -0.465221 0.663280 -0.420316
v -0.475594 0.657298 -0.408350
v -0.475594 0.667668 -0.434671
v -0.475594 0.663679 -0.419520
v -0.466020 0.666870 -0.431878
v -0.453656 0.657298 -0.418719
v -0.452859 0.658097 -0.412339
v -0.454851 0.662483 -0.434671
v -0.449267 0.663679 -0.432280
v -0.450865 0.657298 -0.415132
v -0.472401 0.660092 -0.411942
v -0.470806 0.657698 -0.408350
v -0.457245 0.664477 -0.426694
v -0.472798 0.666072 -0.426694
v -0.475594 0.657298 -0.413936
v -0.473197 0.664477 -0.434671
v -0.451661 0.661287 -0.419520
v -0.449267 0.662882 -0.434671
v -0.450465 0.660489 -0.419917
v -0.471203 0.667668 -0.434671
v -0.452061 0.657298 -0.412339
v -0.451264 0.664477 -0.429886
v -0.452061 0.662085 -0.434272
v -0.457245 0.658496 -0.411939
v -0.475594 0.666471 -0.427889
v -0.458444 0.666073 -0.432280
v -0.465221 0.665275 -0.426294
v -0.473996 0.663679 -0.419520
vn 0.0001 0.9486 0.3164
vn -1.0000 0.0000 0.0000
vn 0.0000 0.0000 -1.0000
vn 0.0795 -0.9572 -0.2783
vn 0.0000 -1.0000 0.0000
vn -0.0053 0.9030 0.4297
vn -0.0633 0.7576 0.6496
vn 0.1402 0.6996 0.7006
vn 0.0315 0.8381 0.5446
vn 0.1183 0.9386 0.3241
vn 0.0728 0.9670 0.2441
vn -1.0000 0.0001 0.0000
vn -0.1544 -0.9274 -0.3407
vn -0.1017 -0.9359 -0.3372
vn 0.1187 0.9379 0.3261
vn 0.4828 -0.8435 -0.2352
vn 0.0349 -0.4889 -0.8716
vn 0.8845 0.4426 -0.1475
vn 0.9614 -0.2751 0.0000
vn 0.9904 -0.1309 0.0436
vn 0.7053 0.6669 0.2404
vn 0.9940 0.0323 0.1047
vn 0.5968 0.7389 0.3127
vn 0.5966 0.6917 0.4068
vn 0.0000 0.9939 0.1104
vn 0.0653 0.9849 0.1602
vn 0.3016 0.3012 0.9046
vn 0.0747 -0.8945 0.4408
vn 0.1693 -0.5053 0.8462
vn 0.8304 0.4290 0.3556
vn 0.6460 0.6453 0.4078
vn 0.5842 0.7790 0.2276
vn 0.5851 0.7780 0.2288
vn 0.1489 0.9487 0.2789
vn 0.0000 -0.9558 -0.2942
vn -0.0880 -0.9419 -0.3241
vn 0.0000 -0.7080 -0.7062
vn -0.0809 -0.9453 -0.3161
vn -0.0653 -0.9518 -0.2996
vn 0.0948 0.9006 0.4241
vn 0.1274 0.7506 0.6484
vn 0.0890 0.8466 0.5247
vn 0.1087 0.9042 0.4130
vn 0.1201 0.8997 0.4197
vn -0.1433 0.9746 0.1720
vn 0.0285 0.9663 0.2560
vn 0.1144 0.9614 0.2501
vn 0.1144 0.9921 0.0511
vn 0.1086 0.9907 0.0816
vn 0.1531 0.9702 0.1876
vn 0.1314 0.9603 0.2462
vn 0.1101 0.9428 0.3146
vn 0.1090 0.9598 0.2586
vn 0.0873 0.9611 0.2620
vn 0.0828 0.9453 0.3155
vn 0.0787 0.9074 0.4129
vn 0.0000 0.9039 0.4278
vn 0.0725 0.9424 0.3265
vn 0.0000 0.9486 0.3165
usemtl Shape.9014
s off
f 23//1 34//1 37//1
f 2//2 3//2 7//2
f 7//2 3//2 11//2
f 2//2 7//2 12//2
f 8//3 2//3 12//3
f 12//2 7//2 13//2
f 4//4 9//4 15//4
f 9//5 11//5 15//5
f 2//3 8//3 17//3
f 11//5 9//5 19//5
f 13//6 7//6 20//6
f 7//7 11//7 21//7
f 6//8 16//8 21//8
f 20//9 7//9 21//9
f 10//10 1//10 22//10
f 14//11 5//11 23//11
f 11//12 3//12 24//12
f 15//5 11//5 24//5
f 3//13 2//13 25//13
f 17//14 3//14 25//14
f 2//3 17//3 25//3
f 1//15 10//15 26//15
f 9//16 4//16 27//16
f 17//3 8//3 27//3
f 4//17 17//17 27//17
f 8//18 18//18 27//18
f 19//19 9//19 27//19
f 18//20 19//20 27//20
f 18//21 1//21 28//21
f 19//22 18//22 28//22
f 1//23 26//23 28//23
f 26//24 16//24 28//24
f 12//25 5//25 29//25
f 8//3 12//3 29//3
f 5//26 14//26 29//26
f 16//27 6//27 30//27
f 11//5 19//5 30//5
f 21//28 11//28 30//28
f 6//29 21//29 30//29
f 19//30 28//30 30//30
f 28//31 16//31 30//31
f 18//32 8//32 31//32
f 1//33 18//33 31//33
f 22//34 1//34 31//34
f 4//35 15//35 32//35
f 3//36 17//36 32//36
f 17//37 4//37 32//37
f 24//38 3//38 32//38
f 15//39 24//39 32//39
f 10//40 20//40 33//40
f 21//41 16//41 33//41
f 20//42 21//42 33//42
f 26//43 10//43 33//43
f 16//44 26//44 33//44
f 5//45 12//45 34//45
f 12//12 13//12 34//12
f 23//46 5//46 34//46
f 14//47 22//47 35//47
f 8//48 29//48 35//48
f 29//49 14//49 35//49
f 31//50 8//50 35//50
f 22//51 31//51 35//51
f 10//52 22//52 36//52
f 22//53 14//53 36//53
f 14//54 23//54 36//54
f 23//55 10//55 36//55
f 20//56 10//56 37//56
f 13//57 20//57 37//57
f 10//58 23//58 37//58
f 34//59 13//59 37//59
