# Blender v2.79 (sub 0) OBJ File: ''
# www.blender.org
mtllib 102689_link_4_177.mtl
o Shape_IndexedFaceSet.177_Shape_IndexedFaceSet.603
v 0.422724 0.177412 -0.461354
v 0.385223 0.053982 -0.581746
v 0.452325 0.192231 -0.579701
v 0.313510 0.190366 -0.629376
v 0.310660 0.155787 -0.460048
v 0.448883 0.047868 -0.465520
v 0.400527 0.059050 -0.616696
v 0.318726 0.184876 -0.469811
v 0.370940 0.051647 -0.513157
v 0.311739 0.147818 -0.616696
v 0.456237 0.196349 -0.519112
v 0.444744 0.058829 -0.562917
v 0.363537 0.177412 -0.631520
v 0.422724 0.044245 -0.461354
v 0.356160 0.066452 -0.601904
v 0.452325 0.088644 -0.461354
vn 0.1717 -0.1145 0.9785
vn -0.9592 0.2797 0.0410
vn -0.0529 0.3309 0.9422
vn -0.9992 0.0389 -0.0089
vn -0.2652 -0.2652 -0.9270
vn 0.0111 0.9976 -0.0685
vn 0.0406 0.9422 0.3325
vn -0.0701 0.9969 0.0366
vn 0.7663 -0.1229 -0.6306
vn 0.1368 -0.9837 -0.1165
vn 0.9961 -0.0642 -0.0600
vn 0.1867 0.8125 -0.5523
vn 0.4976 0.0470 -0.8661
vn -0.0807 -0.1487 -0.9856
vn 0.1190 -0.9867 -0.1110
vn 0.0848 -0.9907 -0.1065
vn -0.0896 -0.9946 -0.0525
vn -0.6019 -0.6108 0.5144
vn -0.2372 -0.9413 -0.2403
vn -0.3322 -0.9378 -0.1011
vn -0.8518 -0.5210 0.0549
vn -0.8790 -0.4766 0.0182
vn -0.3483 -0.3483 -0.8703
vn 0.0109 0.0037 0.9999
vn 0.7939 0.2647 0.5474
vn 0.9956 -0.0788 -0.0512
vn 0.9963 -0.0657 -0.0551
vn 0.0070 -0.0047 1.0000
usemtl Shape.618
s off
f 14//1 6//1 16//1
f 4//2 5//2 8//2
f 5//3 1//3 8//3
f 5//4 4//4 10//4
f 4//5 7//5 10//5
f 3//6 4//6 11//6
f 8//7 1//7 11//7
f 4//8 8//8 11//8
f 7//9 3//9 12//9
f 6//10 7//10 12//10
f 3//11 11//11 12//11
f 4//12 3//12 13//12
f 3//13 7//13 13//13
f 7//14 4//14 13//14
f 7//15 6//15 14//15
f 2//16 7//16 14//16
f 9//17 2//17 14//17
f 5//18 9//18 14//18
f 7//19 2//19 15//19
f 2//20 9//20 15//20
f 9//21 5//21 15//21
f 5//22 10//22 15//22
f 10//23 7//23 15//23
f 1//24 5//24 16//24
f 11//25 1//25 16//25
f 6//26 12//26 16//26
f 12//27 11//27 16//27
f 5//28 14//28 16//28
