# Blender v2.79 (sub 0) OBJ File: ''
# www.blender.org
mtllib 102689_link_2_10.mtl
o Shape_IndexedFaceSet.010_Shape_IndexedFaceSet.5886
v 0.286270 0.220311 -0.078896
v 0.362483 0.242082 0.081694
v 0.362483 0.220311 0.081694
v 0.324377 0.223031 0.076249
v 0.288993 0.242082 -0.100675
v 0.332538 0.217589 -0.019005
v 0.335261 0.212144 0.081694
v 0.286270 0.242082 -0.070720
v 0.286270 0.223031 -0.027181
v 0.348861 0.242082 0.021785
v 0.346138 0.242082 0.081694
v 0.302615 0.214866 -0.051673
v 0.346138 0.212144 0.054453
v 0.354307 0.217589 0.040850
v 0.288993 0.228470 -0.097943
v 0.293178 0.217086 -0.030653
v 0.308046 0.242082 -0.068007
v 0.327092 0.214866 0.076249
v 0.324377 0.225753 -0.038070
v 0.357030 0.239357 0.046295
v 0.351584 0.212144 0.081694
v 0.313492 0.217589 -0.051673
vn 0.8243 -0.2671 -0.4992
vn 0.0000 0.0000 1.0000
vn -0.9953 0.0340 -0.0905
vn 0.0000 1.0000 0.0000
vn -0.7363 0.6199 0.2713
vn -1.0000 0.0000 0.0000
vn -0.3418 0.1242 0.9315
vn -0.6719 0.6920 0.2639
vn 0.2093 -0.9715 -0.1108
vn -0.0317 -0.9994 -0.0126
vn 0.9382 -0.0570 -0.3412
vn 0.3797 -0.9147 -0.1381
vn -0.9875 -0.0310 -0.1545
vn -0.6400 -0.7673 0.0404
vn -0.2796 -0.9598 -0.0241
vn -0.1787 -0.9836 0.0237
vn -0.5882 -0.1956 0.7847
vn -0.8957 -0.2979 0.3300
vn -0.5918 -0.7877 0.1714
vn -0.3735 -0.9223 0.0993
vn 0.9229 0.0250 -0.3843
vn 0.8543 -0.1023 -0.5095
vn 0.8623 -0.0596 -0.5029
vn 0.9001 0.1501 -0.4091
vn 0.9883 0.0000 -0.1522
vn 0.7144 0.6806 -0.1624
vn 0.9788 -0.0747 -0.1909
vn 0.9467 -0.0384 -0.3198
vn 0.0000 -1.0000 0.0000
vn 0.5983 -0.7985 -0.0666
vn 0.4455 -0.8908 -0.0891
vn 0.2299 -0.9185 -0.3218
vn 0.2405 -0.9605 -0.1402
vn 0.2588 -0.9007 -0.3488
vn 0.8245 -0.2984 -0.4807
usemtl Shape.5891
s off
f 15//1 19//1 22//1
f 3//2 2//2 7//2
f 5//3 1//3 8//3
f 2//4 5//4 8//4
f 4//5 8//5 9//5
f 8//6 1//6 9//6
f 5//4 2//4 10//4
f 7//2 2//2 11//2
f 4//7 7//7 11//7
f 2//4 8//4 11//4
f 8//8 4//8 11//8
f 12//9 6//9 13//9
f 7//10 12//10 13//10
f 6//11 10//11 14//11
f 13//12 6//12 14//12
f 1//13 5//13 15//13
f 9//14 1//14 16//14
f 1//15 12//15 16//15
f 12//16 7//16 16//16
f 5//4 10//4 17//4
f 7//17 4//17 18//17
f 4//18 9//18 18//18
f 9//19 16//19 18//19
f 16//20 7//20 18//20
f 10//21 6//21 19//21
f 15//22 5//22 19//22
f 5//23 17//23 19//23
f 17//24 10//24 19//24
f 2//25 3//25 20//25
f 10//26 2//26 20//26
f 3//27 14//27 20//27
f 14//28 10//28 20//28
f 3//2 7//2 21//2
f 7//29 13//29 21//29
f 14//30 3//30 21//30
f 13//31 14//31 21//31
f 12//32 1//32 22//32
f 6//33 12//33 22//33
f 1//34 15//34 22//34
f 19//35 6//35 22//35
