# Blender v2.79 (sub 0) OBJ File: ''
# www.blender.org
mtllib 102689_link_2_8.mtl
o Shape_IndexedFaceSet.008_Shape_IndexedFaceSet.5884
v -0.105679 0.223030 0.734961
v -0.105679 0.225755 0.734961
v -0.105679 0.228474 0.792106
v -0.108407 0.242082 0.740411
v 0.000469 0.220309 0.773068
v -0.002259 0.242082 0.816602
v -0.002259 0.242082 0.775785
v -0.108407 0.217585 0.781220
v -0.102961 0.242082 0.792106
v 0.000469 0.220309 0.811151
v -0.108407 0.217585 0.740411
v 0.000469 0.231193 0.770343
v -0.081188 0.233912 0.802991
v -0.013141 0.223030 0.813877
v -0.097505 0.220309 0.792106
v -0.100233 0.242082 0.740411
v -0.086613 0.217585 0.789380
v -0.100233 0.223030 0.734961
vn 0.3009 0.2623 -0.9169
vn -0.8942 0.0000 -0.4476
vn 0.0000 1.0000 0.0000
vn -0.9837 0.1540 0.0925
vn -0.9754 0.1948 0.1028
vn -1.0000 0.0000 0.0000
vn 0.9700 0.2430 0.0000
vn 1.0000 0.0000 0.0000
vn 0.9927 0.1166 0.0311
vn -0.4202 0.0839 0.9035
vn -0.1968 0.5535 0.8092
vn 0.1485 -0.2226 0.9635
vn -0.1651 -0.0466 0.9852
vn -0.2104 -0.4444 0.8708
vn -0.5293 -0.5299 0.6627
vn -0.3233 -0.3237 0.8892
vn 0.0000 0.3166 -0.9485
vn 0.2969 0.4854 -0.8223
vn 0.0313 -0.9995 0.0000
vn 0.0289 -0.9995 -0.0128
vn 0.0000 -1.0000 0.0000
vn -0.0860 -0.8863 0.4551
vn -0.0967 -0.8701 0.4833
vn -0.1378 -0.9195 0.3681
vn 0.0000 0.0000 -1.0000
vn 0.0000 -0.7074 -0.7068
vn 0.1835 -0.8192 -0.5433
vn 0.3392 -0.2285 -0.9126
vn 0.1363 0.2725 -0.9525
usemtl Shape.5889
s off
f 16//1 12//1 18//1
f 2//2 1//2 4//2
f 4//3 6//3 7//3
f 3//4 4//4 8//4
f 4//5 3//5 9//5
f 6//3 4//3 9//3
f 4//2 1//2 11//2
f 8//6 4//6 11//6
f 7//7 6//7 12//7
f 10//8 5//8 12//8
f 6//9 10//9 12//9
f 9//10 3//10 13//10
f 6//11 9//11 13//11
f 10//12 6//12 14//12
f 6//13 13//13 14//13
f 14//14 13//14 15//14
f 3//15 8//15 15//15
f 13//16 3//16 15//16
f 2//17 4//17 16//17
f 4//3 7//3 16//3
f 7//18 12//18 16//18
f 5//19 10//19 17//19
f 11//20 5//20 17//20
f 8//21 11//21 17//21
f 10//22 14//22 17//22
f 14//23 15//23 17//23
f 15//24 8//24 17//24
f 1//25 2//25 18//25
f 11//26 1//26 18//26
f 5//27 11//27 18//27
f 12//28 5//28 18//28
f 2//29 16//29 18//29
