# Blender v2.79 (sub 0) OBJ File: ''
# www.blender.org
mtllib 102689_link_2_5.mtl
o Shape_IndexedFaceSet.005_Shape_IndexedFaceSet.5881
v -0.239024 0.269296 0.029965
v -0.277849 0.245123 -0.094091
v -0.279859 0.250252 -0.095218
v 0.000469 0.277463 -0.095218
v -0.021336 0.263858 0.029965
v -0.335433 0.244973 0.029366
v -0.255378 0.263854 -0.089766
v 0.000469 0.280185 0.024512
v -0.010434 0.263858 -0.095218
v -0.092071 0.277463 -0.095218
v -0.260876 0.243687 -0.099170
v -0.326145 0.258416 0.027232
v -0.119327 0.277463 0.029965
v -0.309792 0.244804 0.029965
v 0.000469 0.266577 0.029965
v -0.004982 0.280185 -0.076164
v -0.200964 0.269296 -0.095218
v -0.320694 0.255694 -0.010864
v -0.279859 0.263854 -0.029906
v -0.168290 0.274740 0.019072
v 0.000469 0.266577 -0.095218
v -0.271699 0.258416 -0.095218
v -0.323403 0.247530 -0.013585
v -0.233573 0.269296 -0.008144
v -0.141099 0.274740 -0.081605
v -0.312534 0.261139 0.029965
v 0.000469 0.277463 0.029965
v -0.309792 0.258416 -0.024466
v -0.010434 0.263858 -0.070723
v -0.122069 0.277463 0.016351
v -0.266247 0.266577 0.013631
v -0.331564 0.255694 0.021792
vn -0.3894 0.9119 -0.1296
vn -0.2965 -0.3143 -0.9018
vn -0.0982 -0.9941 -0.0470
vn 0.0000 0.1162 -0.9932
vn 0.0000 0.0000 1.0000
vn -0.0067 -1.0000 0.0061
vn 0.0659 -0.9973 0.0336
vn 1.0000 0.0000 -0.0000
vn 0.3871 0.9218 -0.0210
vn 0.0000 0.9899 -0.1414
vn -0.0138 0.1839 -0.9828
vn -0.1036 0.9937 -0.0424
vn -0.0680 0.9961 0.0565
vn 0.0232 -0.0930 -0.9954
vn 0.0151 0.0000 -0.9999
vn 0.2420 -0.9703 0.0000
vn -0.1511 0.1511 -0.9769
vn -0.1343 0.8730 -0.4688
vn -0.0360 0.2342 -0.9715
vn -0.6594 0.6591 -0.3617
vn -0.7991 -0.4098 -0.4399
vn -0.2958 -0.9451 -0.1391
vn -0.8109 0.4087 -0.4189
vn -0.0994 0.9944 -0.0372
vn -0.0785 0.9969 -0.0112
vn -0.0747 0.9970 -0.0202
vn -0.0746 0.9948 -0.0697
vn -0.0599 0.9981 -0.0162
vn -0.0835 0.9960 -0.0313
vn -0.2472 0.3162 0.9159
vn -0.0234 -0.0039 0.9997
vn -0.1849 0.9811 -0.0564
vn 0.0000 0.8947 0.4466
vn -0.1889 0.9802 -0.0598
vn -0.1920 0.9783 -0.0785
vn -0.2689 0.9522 -0.1448
vn -0.5756 0.7567 -0.3099
vn 0.0793 -0.9968 0.0086
vn 0.0803 -0.9968 0.0000
vn 0.1237 -0.9922 0.0134
vn -0.0225 0.9997 0.0045
vn -0.0223 0.9998 0.0012
vn -0.0295 0.9995 -0.0079
vn -0.0581 0.9982 0.0117
vn -0.0597 0.9981 -0.0161
vn -0.0916 0.9957 -0.0131
vn -0.1028 0.9943 -0.0301
vn -0.1103 0.9937 0.0184
vn -0.1247 0.9919 -0.0231
vn -0.7104 0.5587 0.4280
vn -0.9527 0.1621 -0.2572
vn -0.8748 0.3873 -0.2912
vn -0.3540 0.9285 -0.1120
usemtl Shape.5886
s off
f 28//1 18//1 32//1
f 2//2 3//2 11//2
f 6//3 2//3 11//3
f 10//4 4//4 11//4
f 1//5 5//5 13//5
f 5//5 1//5 14//5
f 6//6 11//6 14//6
f 11//7 5//7 14//7
f 4//8 8//8 15//8
f 13//5 5//5 15//5
f 8//9 4//9 16//9
f 4//10 10//10 16//10
f 10//11 11//11 17//11
f 17//12 7//12 19//12
f 1//13 13//13 20//13
f 9//14 11//14 21//14
f 11//15 4//15 21//15
f 4//8 15//8 21//8
f 15//16 9//16 21//16
f 11//17 3//17 22//17
f 7//18 17//18 22//18
f 17//19 11//19 22//19
f 3//20 18//20 22//20
f 3//21 2//21 23//21
f 2//22 6//22 23//22
f 18//23 3//23 23//23
f 17//24 19//24 24//24
f 1//25 20//25 24//25
f 24//26 20//26 25//26
f 10//27 17//27 25//27
f 20//28 10//28 25//28
f 17//29 24//29 25//29
f 12//30 6//30 26//30
f 14//5 1//5 26//5
f 6//31 14//31 26//31
f 19//32 12//32 26//32
f 8//33 13//33 27//33
f 15//8 8//8 27//8
f 13//5 15//5 27//5
f 12//34 19//34 28//34
f 19//35 7//35 28//35
f 7//36 22//36 28//36
f 22//37 18//37 28//37
f 5//38 11//38 29//38
f 11//39 9//39 29//39
f 15//40 5//40 29//40
f 9//16 15//16 29//16
f 13//41 8//41 30//41
f 8//42 16//42 30//42
f 16//43 10//43 30//43
f 20//44 13//44 30//44
f 10//45 20//45 30//45
f 1//46 24//46 31//46
f 24//47 19//47 31//47
f 26//48 1//48 31//48
f 19//49 26//49 31//49
f 6//50 12//50 32//50
f 23//51 6//51 32//51
f 18//52 23//52 32//52
f 12//53 28//53 32//53
