# Blender v2.79 (sub 0) OBJ File: ''
# www.blender.org
mtllib 102689_link_4_60.mtl
o Shape_IndexedFaceSet.060_Shape_IndexedFaceSet.486
v 0.000969 -0.466295 -0.017381
v 0.119358 -0.370114 0.056621
v 0.119358 -0.377524 0.056621
v 0.000969 -0.399724 0.189799
v 0.036591 -0.469313 0.196298
v 0.000911 -0.399705 -0.017483
v 0.104559 -0.370114 0.189799
v 0.104559 -0.399724 -0.017381
v 0.060163 -0.370114 -0.017381
v 0.037983 -0.466295 -0.017381
v 0.000969 -0.466295 0.189799
v 0.097142 -0.407124 0.174974
v 0.060163 -0.370114 0.189799
v 0.104559 -0.407124 0.019650
vn 0.7219 -0.6911 0.0345
vn 0.9939 0.0000 0.1104
vn 0.9806 0.0000 -0.1961
vn 0.0010 0.0015 -1.0000
vn 0.0000 1.0000 0.0000
vn 0.5072 0.7604 -0.4057
vn 0.0000 -0.9999 -0.0141
vn 0.0000 -0.0015 -1.0000
vn 0.0010 -0.0010 -1.0000
vn -0.0844 -0.9964 0.0000
vn -0.1795 0.0000 0.9838
vn -1.0000 -0.0009 0.0000
vn -1.0000 -0.0000 0.0003
vn 0.9630 -0.2412 0.1204
vn 0.6373 -0.3932 0.6628
vn -0.0371 0.0741 0.9966
vn -0.4474 0.8943 0.0002
vn 0.0000 0.0654 0.9979
vn -0.4468 0.8946 0.0000
vn 0.9259 -0.3705 -0.0740
vn 0.6662 -0.7457 -0.0062
vn 0.7001 -0.7002 -0.1399
vn 0.8719 -0.4879 0.0416
usemtl Shape.501
s off
f 12//1 5//1 14//1
f 3//2 2//2 7//2
f 2//3 3//3 8//3
f 8//4 6//4 9//4
f 7//5 2//5 9//5
f 2//6 8//6 9//6
f 5//7 1//7 10//7
f 1//8 6//8 10//8
f 6//9 8//9 10//9
f 1//10 5//10 11//10
f 5//11 4//11 11//11
f 6//12 1//12 11//12
f 4//13 6//13 11//13
f 3//14 7//14 12//14
f 7//15 5//15 12//15
f 4//16 5//16 13//16
f 6//17 4//17 13//17
f 5//18 7//18 13//18
f 9//19 6//19 13//19
f 7//5 9//5 13//5
f 8//20 3//20 14//20
f 5//21 10//21 14//21
f 10//22 8//22 14//22
f 3//23 12//23 14//23
