# Blender v2.79 (sub 0) OBJ File: ''
# www.blender.org
mtllib 102689_link_0_62.mtl
o Shape_IndexedFaceSet.062_Shape_IndexedFaceSet.2001
v 0.188079 0.190890 0.459313
v 0.222389 0.217278 0.607065
v 0.198636 0.217278 0.607065
v 0.148522 0.188250 0.607065
v 0.122130 0.196169 0.604432
v 0.222389 0.190890 0.469887
v 0.219750 0.206722 0.459313
v 0.222389 0.204083 0.607065
v 0.140604 0.204083 0.601800
v 0.119490 0.188250 0.607065
v 0.198636 0.188250 0.512108
v 0.198636 0.201446 0.461975
v 0.188079 0.188250 0.459313
v 0.222389 0.217278 0.567491
v 0.214471 0.188250 0.459313
v 0.214471 0.209359 0.491004
v 0.190718 0.196169 0.459313
v 0.222389 0.206722 0.459313
v 0.161718 0.188250 0.588594
v 0.161718 0.209359 0.601800
vn -0.2408 0.9638 -0.1147
vn 0.0000 0.0000 1.0000
vn 1.0000 0.0000 0.0000
vn -0.2255 0.7379 0.6361
vn -0.8962 0.1614 -0.4132
vn -0.1288 0.3513 0.9274
vn 0.2703 -0.9583 0.0922
vn 0.0000 -1.0000 0.0000
vn -0.4092 0.8931 -0.1867
vn -0.2552 0.9589 -0.1240
vn 0.0000 0.0000 -1.0000
vn -0.9070 0.0000 -0.4211
vn 0.0000 1.0000 0.0000
vn 0.2310 -0.9705 0.0693
vn -0.2512 0.9602 -0.1217
vn -0.1450 0.9856 -0.0870
vn -0.0747 0.9927 -0.0950
vn -0.8239 0.4119 -0.3894
vn -0.4852 0.8438 -0.2293
vn -0.2607 0.7172 -0.6463
vn 0.0000 0.9953 -0.0971
vn 0.7916 -0.3393 -0.5081
vn 0.2073 -0.9670 0.1481
vn 0.2206 -0.9695 0.1065
vn -0.2357 0.9432 0.2340
vn -0.1961 0.9761 -0.0934
usemtl Shape.2003
s off
f 16//1 9//1 20//1
f 2//2 3//2 4//2
f 2//2 4//2 8//2
f 6//3 2//3 8//3
f 5//4 3//4 9//4
f 4//2 3//2 10//2
f 5//5 1//5 10//5
f 3//6 5//6 10//6
f 6//7 8//7 11//7
f 4//8 10//8 11//8
f 5//9 9//9 12//9
f 9//10 7//10 12//10
f 1//11 7//11 13//11
f 10//12 1//12 13//12
f 11//8 10//8 13//8
f 3//13 2//13 14//13
f 2//3 6//3 14//3
f 6//14 11//14 15//14
f 13//11 7//11 15//11
f 11//8 13//8 15//8
f 7//15 9//15 16//15
f 3//16 14//16 16//16
f 14//17 7//17 16//17
f 1//18 5//18 17//18
f 7//11 1//11 17//11
f 5//19 12//19 17//19
f 12//20 7//20 17//20
f 14//3 6//3 18//3
f 7//21 14//21 18//21
f 6//22 15//22 18//22
f 15//11 7//11 18//11
f 8//23 4//23 19//23
f 4//8 11//8 19//8
f 11//24 8//24 19//24
f 9//25 3//25 20//25
f 3//26 16//26 20//26
