# Blender v2.79 (sub 0) OBJ File: ''
# www.blender.org
mtllib 102689_link_4_28.mtl
o Shape_IndexedFaceSet.028_Shape_IndexedFaceSet.454
v 0.015768 -0.621689 0.759543
v 0.171153 -0.592092 0.722529
v 0.163730 -0.621689 0.729938
v 0.007035 -0.675973 0.642316
v 0.171153 -0.710481 0.700366
v 0.015768 -0.710481 0.744735
v 0.172103 -0.591368 0.662864
v 0.015768 -0.592092 0.715130
v 0.165331 -0.706045 0.652712
v 0.141554 -0.688266 0.737337
v 0.021610 -0.706029 0.652727
v 0.176727 -0.667122 0.644572
v 0.067573 -0.592092 0.752134
v 0.037974 -0.680884 0.759543
vn 0.1169 0.0438 0.9922
vn 0.8638 -0.0927 0.4952
vn -0.9967 -0.0134 0.0805
vn -0.9969 0.0658 0.0438
vn -0.2436 0.6501 -0.7197
vn 0.7194 -0.1646 0.6748
vn 0.1728 -0.7770 0.6053
vn -0.8861 -0.4568 -0.0784
vn -0.0141 -0.9987 -0.0492
vn -0.0001 -0.3274 -0.9449
vn -0.0001 -0.9957 -0.0927
vn 0.9961 -0.0163 0.0869
vn 0.9982 0.0569 0.0166
vn 0.0007 0.2348 -0.9721
vn 0.0240 -0.2114 -0.9771
vn 0.9413 -0.3056 -0.1434
vn 0.2708 0.1693 0.9476
vn 0.0035 0.9999 0.0122
vn -0.3683 0.7737 0.5156
vn -0.0032 1.0000 0.0044
vn 0.2336 0.0302 0.9719
vn 0.2104 0.0114 0.9776
vn -0.4016 -0.1507 0.9033
vn 0.1422 -0.5262 0.8384
usemtl Shape.469
s off
f 13//1 1//1 14//1
f 2//2 3//2 5//2
f 1//3 4//3 6//3
f 4//4 1//4 8//4
f 7//5 4//5 8//5
f 5//6 3//6 10//6
f 6//7 5//7 10//7
f 6//8 4//8 11//8
f 5//9 6//9 11//9
f 4//10 9//10 11//10
f 9//11 5//11 11//11
f 2//12 5//12 12//12
f 7//13 2//13 12//13
f 4//14 7//14 12//14
f 9//15 4//15 12//15
f 5//16 9//16 12//16
f 3//17 2//17 13//17
f 2//18 7//18 13//18
f 8//19 1//19 13//19
f 7//20 8//20 13//20
f 10//21 3//21 13//21
f 10//22 13//22 14//22
f 1//23 6//23 14//23
f 6//24 10//24 14//24
