# Blender v2.79 (sub 0) OBJ File: ''
# www.blender.org
mtllib 102689_link_1_2.mtl
o Shape_IndexedFaceSet.002_Shape_IndexedFaceSet.9005
v -0.452061 0.665675 -0.435076
v -0.475592 0.666073 -0.456613
v -0.475592 0.668467 -0.456613
v -0.448472 0.663681 -0.456613
v -0.475592 0.664878 -0.434674
v -0.454456 0.662484 -0.434674
v -0.475191 0.668068 -0.435076
v -0.451262 0.666472 -0.456613
v -0.452460 0.663282 -0.456613
v -0.467216 0.668068 -0.443451
v -0.449268 0.664080 -0.434674
v -0.449268 0.666073 -0.448635
v -0.473996 0.668866 -0.452223
v -0.474793 0.665675 -0.456613
v -0.449667 0.662484 -0.434674
v -0.454055 0.666472 -0.439463
v -0.475592 0.668467 -0.438664
v -0.466416 0.667270 -0.434674
v -0.448472 0.665276 -0.455812
v -0.469209 0.668068 -0.438664
v -0.451660 0.666472 -0.449032
v -0.450466 0.665675 -0.437071
v -0.475592 0.664878 -0.436272
v -0.448870 0.663282 -0.456613
v -0.448472 0.665675 -0.449032
v -0.448472 0.663681 -0.447435
v -0.470407 0.668467 -0.455015
v -0.454456 0.662484 -0.435076
v -0.470009 0.668467 -0.449032
v -0.473598 0.668467 -0.439063
v -0.450068 0.662484 -0.437071
v -0.475592 0.667668 -0.434674
vn 0.0301 0.6935 0.7199
vn -0.0000 0.0000 -1.0000
vn -1.0000 0.0000 0.0000
vn 0.0000 0.0000 1.0000
vn -0.2425 0.9701 0.0000
vn 0.0650 0.3495 0.9347
vn 0.1131 0.9854 0.1276
vn 0.4096 0.4094 -0.8153
vn 0.4070 0.9117 -0.0561
vn 0.1070 0.9933 0.0445
vn 0.0834 0.9868 0.1390
vn 0.1102 0.9866 0.1202
vn 0.1631 0.9866 0.0086
vn 0.1120 0.9933 0.0280
vn 0.1580 0.9866 0.0395
vn 0.4283 0.8363 0.3424
vn 0.1424 0.9832 0.1139
vn 0.1829 0.9817 0.0527
vn -0.1125 -0.9936 0.0000
vn -0.4453 -0.8938 -0.0525
vn 0.7080 -0.7062 0.0000
vn 1.0000 0.0000 0.0000
vn 0.4253 0.9035 -0.0532
vn 0.7017 0.7028 0.1170
vn 0.4773 0.8751 0.0796
vn 0.7077 -0.7065 0.0000
vn 0.9679 -0.2420 0.0679
vn 0.9970 0.0486 0.0607
vn 0.0790 0.9634 -0.2563
vn 0.0314 0.9943 -0.1018
vn 0.1028 0.9947 -0.0100
vn -0.1064 -0.9932 -0.0467
vn 0.0000 -1.0000 0.0000
vn -0.1126 -0.9936 0.0000
vn -0.1100 -0.9930 -0.0432
vn 0.1037 0.9946 -0.0052
vn 0.1081 0.9941 0.0057
vn 0.1081 0.9940 0.0170
vn 0.0216 0.9939 0.1081
vn 0.0060 0.9995 0.0301
vn 0.0872 0.9955 0.0363
vn 0.0780 0.9884 0.1301
vn 0.0774 0.9966 0.0279
vn 0.0828 0.9961 0.0298
vn 0.0000 -0.9992 -0.0408
vn 0.1758 -0.9840 -0.0294
vn -0.0176 -0.9991 -0.0386
vn -0.6156 0.7727 0.1547
usemtl Shape.9013
s off
f 18//1 7//1 32//1
f 2//2 3//2 4//2
f 3//3 2//3 5//3
f 4//2 3//2 8//2
f 2//2 4//2 9//2
f 5//4 6//4 11//4
f 2//2 9//2 14//2
f 11//4 6//4 15//4
f 3//3 5//3 17//3
f 13//5 3//5 17//5
f 5//4 11//4 18//4
f 11//6 1//6 18//6
f 1//7 16//7 18//7
f 4//8 8//8 19//8
f 8//9 12//9 19//9
f 16//10 10//10 20//10
f 7//11 18//11 20//11
f 18//12 16//12 20//12
f 12//13 8//13 21//13
f 10//14 16//14 21//14
f 16//15 12//15 21//15
f 1//16 11//16 22//16
f 16//17 1//17 22//17
f 12//18 16//18 22//18
f 5//3 2//3 23//3
f 6//19 5//19 23//19
f 2//20 14//20 23//20
f 9//2 4//2 24//2
f 4//21 15//21 24//21
f 4//22 19//22 25//22
f 19//23 12//23 25//23
f 22//24 11//24 25//24
f 12//25 22//25 25//25
f 15//26 4//26 26//26
f 11//27 15//27 26//27
f 4//22 25//22 26//22
f 25//28 11//28 26//28
f 8//29 3//29 27//29
f 3//30 13//30 27//30
f 13//31 8//31 27//31
f 14//32 9//32 28//32
f 15//33 6//33 28//33
f 6//34 23//34 28//34
f 23//35 14//35 28//35
f 8//36 13//36 29//36
f 21//37 8//37 29//37
f 10//38 21//38 29//38
f 17//39 7//39 30//39
f 13//40 17//40 30//40
f 20//41 10//41 30//41
f 7//42 20//42 30//42
f 29//43 13//43 30//43
f 10//44 29//44 30//44
f 9//45 24//45 31//45
f 24//46 15//46 31//46
f 28//47 9//47 31//47
f 15//33 28//33 31//33
f 17//3 5//3 32//3
f 7//48 17//48 32//48
f 5//4 18//4 32//4
