# Blender v2.79 (sub 0) OBJ File: ''
# www.blender.org
mtllib 102689_link_0_50.mtl
o Shape_IndexedFaceSet.050_Shape_IndexedFaceSet.1989
v 0.235594 0.175058 0.195420
v 0.235594 0.169781 0.195420
v 0.201296 0.188250 0.195420
v 0.169620 0.164504 0.095161
v 0.214470 0.169781 0.116252
v 0.214470 0.164504 0.192766
v 0.216181 0.189962 0.168319
v 0.169620 0.175058 0.121534
v 0.172261 0.164504 0.068751
v 0.169620 0.188250 0.087226
v 0.190744 0.177692 0.084585
v 0.222394 0.164504 0.153189
v 0.203918 0.169781 0.192766
v 0.225035 0.175058 0.145278
v 0.189154 0.189841 0.108168
v 0.219752 0.188250 0.195420
v 0.169620 0.177692 0.068751
v 0.174573 0.186467 0.123118
v 0.214470 0.175058 0.118893
v 0.190744 0.164504 0.087226
v 0.230311 0.164504 0.195420
v 0.230311 0.169781 0.158471
v 0.169620 0.167143 0.110995
vn -0.8078 -0.4714 0.3540
vn -0.0000 0.0000 1.0000
vn 0.0000 -1.0000 0.0000
vn -1.0000 -0.0000 -0.0000
vn -0.8906 -0.1861 0.4150
vn 0.7274 0.6689 -0.1532
vn -0.0651 0.9975 0.0273
vn -0.1178 0.9924 0.0345
vn 0.3674 0.8367 -0.4062
vn 0.6395 0.7680 -0.0358
vn 0.0000 0.9980 0.0630
vn -0.9759 -0.1954 -0.0976
vn 0.5955 0.1193 -0.7945
vn 0.3486 0.8138 -0.4650
vn -0.8848 0.3399 0.3187
vn -0.3044 0.9484 0.0891
vn -0.9148 0.3770 0.1450
vn 0.8020 0.2673 -0.5341
vn 0.6164 0.7478 -0.2468
vn 0.9127 0.1829 -0.3655
vn 0.5660 0.7837 -0.2559
vn 0.5778 0.7408 -0.3427
vn 0.7000 -0.1402 -0.7003
vn 0.7792 -0.1231 -0.6146
vn 0.4623 -0.8585 -0.2218
vn -0.1302 -0.1591 0.9786
vn -0.1569 -0.3137 0.9365
vn 0.9899 0.0000 -0.1415
vn 0.6447 -0.7251 -0.2419
vn 0.8879 0.4203 -0.1870
vn 0.9347 0.0577 -0.3507
vn 0.7031 -0.7039 -0.1005
vn 0.6021 -0.7904 -0.1129
vn -0.3369 -0.9287 0.1548
vn -0.4372 -0.8741 0.2116
usemtl Shape.1991
s off
f 13//1 8//1 23//1
f 2//2 1//2 3//2
f 6//3 4//3 9//3
f 4//4 8//4 10//4
f 6//3 9//3 12//3
f 3//5 8//5 13//5
f 7//6 1//6 14//6
f 3//7 7//7 15//7
f 10//8 3//8 15//8
f 11//9 10//9 15//9
f 3//2 1//2 16//2
f 1//10 7//10 16//10
f 7//11 3//11 16//11
f 9//12 4//12 17//12
f 4//4 10//4 17//4
f 11//13 9//13 17//13
f 10//14 11//14 17//14
f 8//15 3//15 18//15
f 3//16 10//16 18//16
f 10//17 8//17 18//17
f 5//18 11//18 19//18
f 7//19 14//19 19//19
f 14//20 5//20 19//20
f 15//21 7//21 19//21
f 11//22 15//22 19//22
f 9//23 11//23 20//23
f 11//24 5//24 20//24
f 5//25 12//25 20//25
f 12//3 9//3 20//3
f 2//2 3//2 21//2
f 6//3 12//3 21//3
f 3//26 13//26 21//26
f 13//27 6//27 21//27
f 1//28 2//28 22//28
f 12//29 5//29 22//29
f 14//30 1//30 22//30
f 5//31 14//31 22//31
f 2//32 21//32 22//32
f 21//33 12//33 22//33
f 4//34 6//34 23//34
f 8//4 4//4 23//4
f 6//35 13//35 23//35
