# Blender v2.79 (sub 0) OBJ File: ''
# www.blender.org
mtllib 102689_link_4_45.mtl
o Shape_IndexedFaceSet.045_Shape_IndexedFaceSet.471
v 0.060163 0.044245 -0.106186
v 0.164878 0.126521 -0.082608
v 0.168200 0.113057 -0.078575
v 0.097174 0.044245 -0.209762
v 0.067566 0.125637 -0.209762
v 0.074968 0.125637 -0.083974
v 0.135681 0.041427 -0.079618
v 0.111958 0.125637 -0.209762
v 0.064264 0.047467 -0.204783
vn -0.1547 -0.0563 -0.9864
vn -0.0098 1.0000 0.0006
vn -0.0174 0.2830 0.9590
vn -0.9849 0.1633 0.0580
vn -0.0563 0.0110 0.9984
vn 0.8786 -0.3950 -0.2685
vn -0.0331 -0.9994 -0.0118
vn -0.3321 -0.1916 0.9236
vn 0.9172 0.1117 -0.3825
vn 0.9009 -0.1636 -0.4019
vn 0.0000 0.0000 -1.0000
vn 0.0000 1.0000 -0.0070
vn -0.1029 -0.9940 -0.0368
vn -0.9984 0.0396 -0.0402
usemtl Shape.486
s off
f 5//1 4//1 9//1
f 2//2 5//2 6//2
f 3//3 2//3 6//3
f 5//4 1//4 6//4
f 3//5 6//5 7//5
f 4//6 3//6 7//6
f 1//7 4//7 7//7
f 6//8 1//8 7//8
f 2//9 3//9 8//9
f 3//10 4//10 8//10
f 4//11 5//11 8//11
f 5//12 2//12 8//12
f 4//13 1//13 9//13
f 1//14 5//14 9//14
