# Blender v2.79 (sub 0) OBJ File: ''
# www.blender.org
mtllib 102663_link_3_19.mtl
o Shape_IndexedFaceSet.019_Shape_IndexedFaceSet.8664
v 0.147221 0.190854 -0.505195
v 0.244548 0.292042 -0.463516
v 0.236619 0.223357 -0.456452
v -0.007120 0.288342 -0.464573
v 0.228459 0.288342 -0.505195
v -0.007120 0.174586 -0.497064
v -0.007120 0.288342 -0.505195
v 0.247921 0.169311 -0.454191
v 0.000755 0.178261 -0.465623
v 0.236619 0.174586 -0.497064
vn 0.0000 -0.9925 -0.1221
vn -0.0057 0.1030 0.9947
vn -0.0147 0.9999 0.0000
vn 0.0000 0.0000 -1.0000
vn 0.0000 0.9961 -0.0884
vn -0.0450 -0.0712 -0.9964
vn -1.0000 -0.0000 0.0000
vn 0.1842 0.0795 0.9797
vn -0.0235 0.0369 0.9990
vn -0.0417 -0.9911 0.1263
vn -0.9656 -0.0715 0.2502
vn -0.0467 -0.0129 0.9988
vn 0.0786 -0.0655 -0.9948
vn 0.9309 0.0408 -0.3630
vn 0.0000 -0.4471 -0.8945
vn 0.9672 0.0073 -0.2541
usemtl Shape.8671
s off
f 8//1 6//1 10//1
f 3//2 2//2 4//2
f 4//3 2//3 7//3
f 5//4 1//4 7//4
f 2//5 5//5 7//5
f 1//6 6//6 7//6
f 6//7 4//7 7//7
f 2//8 3//8 8//8
f 3//9 4//9 8//9
f 6//10 8//10 9//10
f 4//11 6//11 9//11
f 8//12 4//12 9//12
f 1//13 5//13 10//13
f 5//14 2//14 10//14
f 6//15 1//15 10//15
f 2//16 8//16 10//16
