# Blender v2.79 (sub 0) OBJ File: ''
# www.blender.org
mtllib 102663_link_3_13.mtl
o Shape_IndexedFaceSet.013_Shape_IndexedFaceSet.8658
v -0.275283 0.653998 -0.212665
v -0.015269 0.743346 -0.139551
v -0.015269 0.597108 -0.180194
v -0.267138 0.751461 -0.261420
v -0.267138 0.597108 -0.261420
v -0.064034 0.597108 -0.139551
v -0.153395 0.743346 -0.163946
v -0.015269 0.727087 -0.180194
v -0.242755 0.597108 -0.196441
v -0.275283 0.751461 -0.228913
v -0.015269 0.751461 -0.163946
v -0.104655 0.743346 -0.147698
v -0.259019 0.743346 -0.261420
v -0.025064 0.602923 -0.144142
v -0.161514 0.629625 -0.163946
v -0.275283 0.597108 -0.261420
vn -1.0000 -0.0000 0.0000
vn 0.0000 -1.0000 -0.0000
vn 1.0000 0.0000 0.0000
vn -0.3940 0.0367 0.9184
vn -0.4577 0.1462 0.8770
vn 0.3065 0.5280 -0.7920
vn 0.0000 1.0000 0.0000
vn -0.0907 0.0303 0.9954
vn -0.1049 0.9434 0.3146
vn -0.0514 0.9773 0.2056
vn -0.0288 0.9485 0.3155
vn 0.3069 -0.0170 -0.9516
vn 0.0000 0.0000 -1.0000
vn 0.3161 0.0000 -0.9487
vn 0.3187 0.3189 -0.8926
vn 0.9591 -0.0758 0.2728
vn 0.1229 -0.0410 0.9916
vn 0.1677 -0.9651 0.2012
vn -0.2977 -0.1908 0.9354
vn -0.3806 0.0272 0.9243
vn -0.2474 -0.0147 0.9688
vn -0.3162 0.0226 0.9484
vn -0.8349 -0.3582 0.4179
vn -0.9687 0.0511 -0.2427
usemtl Shape.8665
s off
f 1//1 10//1 16//1
f 5//2 3//2 6//2
f 2//3 3//3 8//3
f 5//2 6//2 9//2
f 7//4 1//4 9//4
f 1//5 7//5 10//5
f 2//3 8//3 11//3
f 8//6 4//6 11//6
f 4//7 10//7 11//7
f 6//8 2//8 12//8
f 10//9 7//9 12//9
f 11//10 10//10 12//10
f 2//11 11//11 12//11
f 3//12 5//12 13//12
f 5//13 4//13 13//13
f 8//14 3//14 13//14
f 4//15 8//15 13//15
f 3//16 2//16 14//16
f 2//17 6//17 14//17
f 6//18 3//18 14//18
f 9//19 6//19 15//19
f 7//20 9//20 15//20
f 6//21 12//21 15//21
f 12//22 7//22 15//22
f 4//13 5//13 16//13
f 9//23 1//23 16//23
f 5//2 9//2 16//2
f 10//24 4//24 16//24
