# Blender v2.79 (sub 0) OBJ File: ''
# www.blender.org
mtllib 102663_link_3_52.mtl
o Shape_IndexedFaceSet.052_Shape_IndexedFaceSet.8697
v -0.007144 0.125843 -0.497069
v 0.006323 0.172402 -0.493794
v -0.007144 0.125843 -0.423955
v 0.263338 0.176915 -0.420461
v 0.289674 0.126463 -0.424885
v 0.252856 0.174586 -0.497069
v 0.244734 0.125843 -0.497069
v -0.007144 0.174586 -0.464560
v -0.007144 0.142090 -0.423955
v 0.293009 0.174507 -0.424073
v 0.277223 0.125843 -0.488931
vn 0.9797 -0.0648 -0.1898
vn 0.0033 -0.0856 0.9963
vn -0.0139 0.0742 -0.9971
vn 0.0000 -1.0000 0.0000
vn 0.0000 0.0000 -1.0000
vn -0.8640 0.2794 -0.4189
vn -1.0000 -0.0000 0.0000
vn -0.0037 0.9995 -0.0299
vn -0.0099 0.9968 -0.0790
vn -0.0129 0.0000 0.9999
vn -0.1080 0.7762 0.6212
vn 0.1188 -0.0250 0.9926
vn 0.0759 0.9963 -0.0407
vn 0.8252 0.3368 -0.4535
vn 0.0021 -1.0000 0.0093
vn 0.2428 -0.0405 -0.9692
usemtl Shape.8704
s off
f 10//1 5//1 11//1
f 4//2 3//2 5//2
f 1//3 2//3 6//3
f 3//4 1//4 7//4
f 1//5 6//5 7//5
f 2//6 1//6 8//6
f 1//7 3//7 8//7
f 4//8 6//8 8//8
f 6//9 2//9 8//9
f 3//10 4//10 9//10
f 8//7 3//7 9//7
f 4//11 8//11 9//11
f 4//12 5//12 10//12
f 6//13 4//13 10//13
f 6//14 10//14 11//14
f 5//15 3//15 11//15
f 3//4 7//4 11//4
f 7//16 6//16 11//16
