# Blender v2.79 (sub 0) OBJ File: ''
# www.blender.org
mtllib 102663_link_3_5.mtl
o Shape_IndexedFaceSet.005_Shape_IndexedFaceSet.8650
v -0.283408 0.166454 -0.358937
v -0.291533 0.133963 -0.440180
v -0.283408 0.133963 -0.440180
v -0.291533 0.174582 -0.456423
v -0.291533 0.174582 -0.358937
vn -1.0000 0.0000 0.0000
vn 0.0000 -0.9285 0.3713
vn 0.0000 -0.3713 -0.9285
vn 0.9832 0.1696 -0.0678
vn 0.7072 0.7070 0.0000
vn -0.6668 -0.6666 0.3333
usemtl Shape.8657
s off
f 4//1 2//1 5//1
f 1//2 2//2 3//2
f 3//3 2//3 4//3
f 1//4 3//4 4//4
f 1//5 4//5 5//5
f 2//6 1//6 5//6
