# Blender v2.79 (sub 0) OBJ File: ''
# www.blender.org
mtllib 102663_link_3_66.mtl
o Shape_IndexedFaceSet.066_Shape_IndexedFaceSet.8711
v 0.269130 0.337109 -0.358925
v 0.317873 0.410223 -0.253327
v 0.309735 0.410223 -0.237056
v 0.309735 0.337109 -0.245204
v 0.243788 0.411194 -0.235437
v 0.317873 0.410223 -0.358925
v 0.243404 0.335754 -0.234798
v 0.277254 0.410223 -0.358925
v 0.309735 0.337109 -0.358925
v 0.317873 0.337109 -0.285823
vn 0.9878 -0.1100 -0.1100
vn 0.8933 -0.0498 0.4468
vn 0.0149 0.9999 0.0075
vn 0.0131 0.9999 0.0000
vn 0.1562 -0.1094 0.9816
vn -0.9792 0.0033 -0.2029
vn 0.0247 0.0083 0.9997
vn -0.9595 0.1066 -0.2609
vn 0.0000 0.0000 -1.0000
vn 0.0000 1.0000 -0.0079
vn 0.0000 -0.9999 -0.0109
vn 0.0169 -0.9999 -0.0019
vn 0.9768 -0.0870 0.1957
vn 1.0000 0.0000 0.0000
vn 0.0211 -0.9998 0.0042
usemtl Shape.8718
s off
f 9//1 6//1 10//1
f 2//2 3//2 4//2
f 3//3 2//3 5//3
f 5//4 2//4 6//4
f 4//5 3//5 7//5
f 5//6 1//6 7//6
f 3//7 5//7 7//7
f 1//8 5//8 8//8
f 6//9 1//9 8//9
f 5//10 6//10 8//10
f 1//9 6//9 9//9
f 7//11 1//11 9//11
f 7//12 9//12 10//12
f 2//13 4//13 10//13
f 6//14 2//14 10//14
f 4//15 7//15 10//15
