# Blender v2.79 (sub 0) OBJ File: ''
# www.blender.org
mtllib 102663_link_3_61.mtl
o Shape_IndexedFaceSet.061_Shape_IndexedFaceSet.8706
v -0.275286 0.410223 -0.358937
v -0.307779 0.337109 -0.456423
v -0.315903 0.393961 -0.448302
v -0.250906 0.393961 -0.456423
v -0.267162 0.337109 -0.358937
v -0.307779 0.337109 -0.358937
v -0.248762 0.334696 -0.459640
v -0.315903 0.410223 -0.358937
v -0.258385 0.411202 -0.457728
vn 0.0000 1.0000 0.0099
vn 0.9686 0.1076 0.2243
vn -0.9899 -0.1415 0.0000
vn 0.0000 0.0000 1.0000
vn 0.9835 0.0259 0.1791
vn -0.0409 -0.9992 0.0000
vn 0.0000 -0.9997 0.0240
vn -0.9937 -0.1104 0.0201
vn -0.1932 0.1116 -0.9748
vn 0.9014 0.4030 0.1582
vn -0.0537 0.0182 -0.9984
vn 0.3101 0.0627 -0.9486
vn -0.3084 0.9359 -0.1703
usemtl Shape.8713
s off
f 8//1 1//1 9//1
f 4//2 1//2 5//2
f 3//3 2//3 6//3
f 5//4 1//4 6//4
f 4//5 5//5 7//5
f 6//6 2//6 7//6
f 5//7 6//7 7//7
f 6//4 1//4 8//4
f 3//8 6//8 8//8
f 2//9 3//9 9//9
f 1//10 4//10 9//10
f 7//11 2//11 9//11
f 4//12 7//12 9//12
f 3//13 8//13 9//13
