# Blender v2.79 (sub 0) OBJ File: ''
# www.blender.org
mtllib 102663_link_0_0.mtl
o Shape_IndexedFaceSet_Shape_IndexedFaceSet.15204
v -0.279288 0.739512 -0.476793
v -0.293581 0.740316 -0.473956
v 0.299953 0.841542 -0.465725
v 0.324794 0.733984 -0.275455
v -0.309596 0.841542 -0.462958
v -0.240676 0.736753 -0.203742
v 0.316492 0.733984 -0.465725
v -0.315132 0.841542 -0.264420
v 0.333030 0.838794 -0.269954
v 0.131669 0.736753 -0.156833
v -0.326135 0.733984 -0.341635
v -0.113771 0.838794 -0.156833
v -0.075159 0.736753 -0.145831
v 0.302721 0.833276 -0.476793
v 0.170281 0.841542 -0.184438
v -0.337205 0.830518 -0.267154
v -0.304061 0.833276 -0.476760
v 0.346868 0.833287 -0.319564
v -0.317899 0.733984 -0.264420
v 0.230966 0.833276 -0.195474
v 0.299953 0.736753 -0.476793
v -0.315132 0.736753 -0.462958
v -0.221370 0.830518 -0.189939
v 0.247504 0.742270 -0.206509
v -0.342740 0.833276 -0.322331
v -0.160685 0.733984 -0.170636
v -0.298593 0.733984 -0.471259
v 0.335797 0.739512 -0.347169
v 0.327495 0.833276 -0.435386
v -0.019942 0.827759 -0.140264
v 0.073752 0.736753 -0.145831
v 0.137204 0.827759 -0.156833
v 0.338565 0.783641 -0.272688
v -0.146847 0.742270 -0.159600
v -0.331670 0.736753 -0.286491
v 0.002064 0.841542 -0.159600
v 0.299953 0.833276 -0.236848
v 0.093058 0.733984 -0.154066
v -0.331670 0.747788 -0.371941
v -0.144080 0.833276 -0.159600
v -0.295826 0.797413 -0.234081
v -0.323367 0.836035 -0.432619
v 0.327495 0.841542 -0.286491
v 0.184051 0.764340 -0.173403
v 0.062749 0.836035 -0.145831
v 0.335797 0.764340 -0.380209
v 0.302721 0.739512 -0.245116
v 0.316492 0.838794 -0.465725
v -0.304061 0.739512 -0.245116
v -0.232373 0.841542 -0.209243
v -0.036548 0.778134 -0.140264
v -0.270985 0.833276 -0.217544
v -0.309596 0.838794 -0.471259
v -0.215835 0.761581 -0.187205
v 0.258574 0.733984 -0.220279
v -0.342740 0.819483 -0.327832
v 0.297186 0.838794 -0.474026
v -0.337205 0.838794 -0.322331
v 0.346868 0.813965 -0.303027
v 0.335797 0.756064 -0.275455
v 0.178584 0.830518 -0.170636
v -0.334437 0.769858 -0.272688
v -0.323367 0.742270 -0.427118
v 0.101360 0.778134 -0.148565
vn 0.1519 0.0547 0.9869
vn 0.0000 1.0000 0.0000
vn 0.0000 -1.0000 0.0000
vn -0.1972 -0.0518 -0.9790
vn -0.0001 0.0003 -1.0000
vn 0.1851 0.9283 0.3224
vn 0.0000 0.0000 -1.0000
vn 0.5543 -0.0159 -0.8322
vn -0.1104 -0.9765 0.1851
vn -0.2020 -0.2441 -0.9485
vn -0.3999 -0.0726 -0.9137
vn -0.0033 -0.7016 -0.7125
vn 0.0022 -0.9693 -0.2458
vn -0.1841 -0.9821 -0.0391
vn -0.4572 -0.0743 -0.8862
vn 0.3642 -0.9312 -0.0159
vn -0.1908 -0.6550 0.7311
vn -0.3486 -0.4856 0.8017
vn -0.2356 -0.9715 0.0251
vn 0.2244 0.8998 0.3742
vn 0.5143 -0.0105 0.8575
vn 0.7040 0.0355 0.7093
vn -0.0093 -0.9897 0.1426
vn 0.0980 -0.8510 0.5159
vn 0.0000 -0.9479 0.3187
vn -0.8709 -0.4874 -0.0629
vn -0.1364 0.2712 0.9528
vn -0.1882 0.0057 0.9821
vn -0.3657 0.0111 0.9307
vn 0.0875 0.9870 0.1347
vn 0.4116 0.9113 0.0137
vn 0.3938 -0.2102 0.8949
vn 0.4555 -0.0251 0.8899
vn 0.3106 -0.0189 0.9504
vn -0.0298 0.7457 0.6656
vn 0.0664 0.0074 0.9978
vn -0.0117 0.9096 0.4152
vn 0.0347 0.9713 0.2353
vn 0.9689 -0.1977 -0.1486
vn 0.9778 -0.0459 -0.2044
vn 0.9862 -0.0133 -0.1650
vn 0.5703 -0.0554 0.8196
vn 0.6456 -0.0482 0.7622
vn 0.6265 0.0000 -0.7795
vn 0.9401 0.0000 -0.3409
vn 0.6771 0.7271 -0.1133
vn 0.1639 0.9862 -0.0252
vn 0.3402 0.9397 -0.0353
vn -0.3486 -0.8048 0.4804
vn -0.5473 -0.0809 0.8330
vn -0.6487 -0.0524 0.7592
vn -0.0212 0.9947 0.1001
vn -0.1992 0.8457 0.4950
vn -0.2573 0.7687 0.5856
vn 0.0000 -0.1333 0.9911
vn 0.0448 -0.0150 0.9989
vn -0.1659 0.0222 0.9859
vn -0.1515 0.0507 0.9872
vn -0.4299 0.7285 0.5333
vn -0.6002 0.0475 0.7985
vn -0.2746 0.8689 0.4118
vn -0.2884 0.7514 0.5935
vn -0.7139 -0.0182 -0.7000
vn -0.7312 0.6476 -0.2144
vn -0.9422 0.0239 -0.3341
vn -0.3698 0.0072 0.9291
vn -0.4094 -0.1854 0.8933
vn -0.5206 -0.0469 0.8525
vn -0.4864 -0.0044 0.8737
vn -0.5172 -0.0360 0.8551
vn 0.3166 -0.6786 0.6628
vn 0.0850 -0.9734 0.2126
vn 0.3303 -0.8566 0.3964
vn 0.4618 -0.5454 0.6995
vn -0.9944 -0.0390 0.0978
vn -0.9898 -0.1416 -0.0183
vn -0.9829 0.0682 -0.1710
vn -0.0014 0.9495 -0.3139
vn -0.0000 0.4482 -0.8939
vn 0.1532 0.9218 -0.3562
vn 0.2999 0.6507 -0.6976
vn -0.0014 0.9493 -0.3143
vn -0.0032 0.7044 -0.7098
vn -0.1152 0.9933 -0.0032
vn -0.4559 0.8802 0.1320
vn -0.7021 0.7042 0.1056
vn -0.5303 0.8433 -0.0876
vn -0.7021 0.7042 -0.1057
vn 0.9481 0.2067 0.2415
vn 0.9391 0.0777 0.3346
vn 0.9918 -0.1020 -0.0767
vn 0.9927 -0.0786 -0.0918
vn 0.8903 -0.4437 0.1024
vn 0.7221 -0.3598 0.5909
vn 0.7065 -0.1405 0.6936
vn 0.9814 -0.1140 0.1546
vn 0.9847 -0.1696 0.0392
vn 0.2084 0.8215 0.5308
vn 0.4285 -0.0024 0.9035
vn 0.3172 -0.0134 0.9483
vn 0.1580 0.8157 0.5565
vn 0.1795 0.7107 0.6802
vn -0.8314 -0.2716 0.4847
vn -0.7645 -0.2121 0.6088
vn -0.7197 -0.0956 0.6877
vn -0.9934 -0.0545 0.1005
vn -0.9929 -0.1057 0.0544
vn -0.7830 -0.6161 -0.0851
vn -0.8550 -0.5128 -0.0774
vn -0.9750 -0.0130 -0.2220
vn -0.9877 -0.0651 -0.1421
vn -0.9830 -0.0108 -0.1834
vn 0.1863 -0.0595 0.9807
vn 0.2442 -0.0149 0.9696
vn 0.0846 0.0094 0.9964
usemtl Shape.15216
s off
f 32//1 45//1 64//1
f 3//2 5//2 8//2
f 7//3 4//3 11//3
f 3//2 8//2 15//2
f 1//4 2//4 17//4
f 14//5 1//5 17//5
f 11//3 4//3 19//3
f 9//6 15//6 20//6
f 1//7 14//7 21//7
f 14//8 7//8 21//8
f 19//3 4//3 26//3
f 6//9 19//9 26//9
f 2//10 1//10 27//10
f 7//3 11//3 27//3
f 17//11 2//11 27//11
f 1//12 21//12 27//12
f 21//13 7//13 27//13
f 11//14 22//14 27//14
f 22//15 17//15 27//15
f 4//16 7//16 28//16
f 26//17 13//17 34//17
f 6//18 26//18 34//18
f 11//19 19//19 35//19
f 15//2 8//2 36//2
f 9//20 20//20 37//20
f 20//21 24//21 37//21
f 33//22 9//22 37//22
f 26//3 4//3 38//3
f 13//23 26//23 38//23
f 10//24 31//24 38//24
f 31//25 13//25 38//25
f 11//26 35//26 39//26
f 30//27 12//27 40//27
f 34//28 13//28 40//28
f 23//29 34//29 40//29
f 3//2 15//2 43//2
f 15//30 9//30 43//30
f 9//31 18//31 43//31
f 10//32 24//32 44//32
f 24//33 20//33 44//33
f 32//34 10//34 44//34
f 12//35 30//35 45//35
f 30//36 31//36 45//36
f 36//37 12//37 45//37
f 15//38 36//38 45//38
f 28//39 7//39 46//39
f 7//40 29//40 46//40
f 29//41 18//41 46//41
f 37//42 24//42 47//42
f 33//43 37//43 47//43
f 7//44 14//44 48//44
f 29//45 7//45 48//45
f 18//46 29//46 48//46
f 3//47 43//47 48//47
f 43//48 18//48 48//48
f 19//49 6//49 49//49
f 6//50 41//50 49//50
f 41//51 16//51 49//51
f 36//2 8//2 50//2
f 12//52 36//52 50//52
f 40//53 12//53 50//53
f 23//54 40//54 50//54
f 13//55 31//55 51//55
f 31//56 30//56 51//56
f 40//57 13//57 51//57
f 30//58 40//58 51//58
f 8//59 16//59 52//59
f 16//60 41//60 52//60
f 50//61 8//61 52//61
f 23//62 50//62 52//62
f 17//63 22//63 53//63
f 42//64 5//64 53//64
f 22//65 42//65 53//65
f 34//66 23//66 54//66
f 6//67 34//67 54//67
f 41//68 6//68 54//68
f 23//69 52//69 54//69
f 52//70 41//70 54//70
f 24//71 10//71 55//71
f 38//3 4//3 55//3
f 10//72 38//72 55//72
f 4//73 47//73 55//73
f 47//74 24//74 55//74
f 16//75 25//75 56//75
f 39//76 35//76 56//76
f 25//77 42//77 56//77
f 5//78 3//78 57//78
f 14//79 17//79 57//79
f 3//80 48//80 57//80
f 48//81 14//81 57//81
f 53//82 5//82 57//82
f 17//83 53//83 57//83
f 8//84 5//84 58//84
f 16//85 8//85 58//85
f 25//86 16//86 58//86
f 5//87 42//87 58//87
f 42//88 25//88 58//88
f 18//89 9//89 59//89
f 9//90 33//90 59//90
f 28//91 46//91 59//91
f 46//92 18//92 59//92
f 4//93 28//93 60//93
f 47//94 4//94 60//94
f 33//95 47//95 60//95
f 59//96 33//96 60//96
f 28//97 59//97 60//97
f 20//98 15//98 61//98
f 44//99 20//99 61//99
f 32//100 44//100 61//100
f 15//101 45//101 61//101
f 45//102 32//102 61//102
f 35//103 19//103 62//103
f 19//104 49//104 62//104
f 49//105 16//105 62//105
f 16//106 56//106 62//106
f 56//107 35//107 62//107
f 22//108 11//108 63//108
f 11//109 39//109 63//109
f 42//110 22//110 63//110
f 39//111 56//111 63//111
f 56//112 42//112 63//112
f 31//113 10//113 64//113
f 10//114 32//114 64//114
f 45//115 31//115 64//115
