# Blender v2.79 (sub 0) OBJ File: ''
# www.blender.org
mtllib 102663_link_3_59.mtl
o Shape_IndexedFaceSet.059_Shape_IndexedFaceSet.8704
v 0.236589 0.337085 -0.188318
v 0.244698 0.288342 -0.245161
v 0.244698 0.337085 -0.245161
v 0.033510 0.288342 -0.180192
v 0.285325 0.288342 -0.212666
v 0.033510 0.337085 -0.139551
v 0.098517 0.288342 -0.147687
v 0.033510 0.337085 -0.180192
v 0.299261 0.336655 -0.244231
vn 0.5140 -0.5681 -0.6427
vn -0.2940 0.0000 -0.9558
vn 0.0000 -1.0000 -0.0000
vn 0.0000 1.0000 0.0000
vn 0.3252 -0.1419 0.9349
vn 0.2309 0.1475 0.9617
vn -0.3585 -0.5978 0.7170
vn -1.0000 0.0000 0.0000
vn 0.0079 1.0000 0.0011
vn 0.0170 0.0000 -0.9999
vn 0.6397 0.2825 0.7148
usemtl Shape.8711
s off
f 5//1 2//1 9//1
f 3//2 2//2 4//2
f 4//3 2//3 5//3
f 1//4 3//4 6//4
f 5//5 1//5 7//5
f 4//3 5//3 7//3
f 1//6 6//6 7//6
f 6//7 4//7 7//7
f 3//2 4//2 8//2
f 6//4 3//4 8//4
f 4//8 6//8 8//8
f 3//9 1//9 9//9
f 2//10 3//10 9//10
f 1//11 5//11 9//11
