# Blender v2.79 (sub 0) OBJ File: ''
# www.blender.org
mtllib 102663_link_3_25.mtl
o Shape_IndexedFaceSet.025_Shape_IndexedFaceSet.8670
v -0.210193 0.288342 -0.505195
v 0.222866 0.336469 -0.497172
v 0.228408 0.337085 -0.505195
v 0.228408 0.288342 -0.505195
v -0.210193 0.337085 -0.505195
v -0.206383 0.288765 -0.497140
v -0.204871 0.336493 -0.497168
v 0.220265 0.289247 -0.497220
vn 0.0011 -0.9935 0.1139
vn 0.8228 0.0000 0.5683
vn 0.0000 0.0000 -1.0000
vn 0.0000 -0.9986 0.0524
vn -0.9040 0.0000 0.4276
vn 0.0001 0.9971 0.0766
vn 0.0000 0.9973 0.0736
vn 0.0000 0.0006 1.0000
vn -0.8323 0.0267 0.5538
vn 0.6969 -0.0391 0.7161
vn 0.0002 -0.0010 1.0000
usemtl Shape.8677
s off
f 6//1 4//1 8//1
f 3//2 2//2 4//2
f 1//3 3//3 4//3
f 3//3 1//3 5//3
f 1//4 4//4 6//4
f 5//5 1//5 6//5
f 2//6 3//6 7//6
f 3//7 5//7 7//7
f 6//8 2//8 7//8
f 5//9 6//9 7//9
f 4//10 2//10 8//10
f 2//11 6//11 8//11
