# Blender v2.79 (sub 0) OBJ File: ''
# www.blender.org
mtllib 102663_link_3_15.mtl
o Shape_IndexedFaceSet.015_Shape_IndexedFaceSet.8660
v 0.090384 0.718973 -0.139551
v 0.334095 0.751461 -0.261414
v 0.342250 0.743346 -0.261414
v -0.015269 0.597108 -0.180193
v 0.285346 0.597108 -0.212666
v -0.015269 0.743346 -0.172062
v 0.277192 0.597108 -0.269545
v 0.074111 0.597108 -0.139551
v 0.277192 0.735217 -0.269545
v -0.015269 0.743346 -0.139551
v 0.269108 0.751461 -0.220784
v 0.328896 0.599460 -0.267564
v -0.003363 0.602248 -0.143880
v -0.015269 0.727087 -0.180193
v 0.277192 0.710844 -0.212666
v 0.147287 0.597108 -0.155813
v 0.293465 0.751461 -0.269545
v -0.015269 0.751461 -0.163944
v 0.082265 0.735217 -0.139551
v 0.309703 0.597108 -0.228915
v 0.244716 0.694600 -0.196442
vn 0.3808 0.0048 0.9247
vn 0.0000 -1.0000 0.0000
vn -0.2922 0.0000 -0.9564
vn -1.0000 -0.0000 0.0000
vn 0.0000 0.0000 1.0000
vn 0.4679 0.4702 0.7483
vn -0.0744 -0.9837 0.1636
vn -0.9426 -0.0894 0.3217
vn -0.0581 -0.0355 0.9977
vn 0.4906 0.2636 0.8305
vn 0.2168 -0.0290 0.9758
vn 0.1925 0.1935 -0.9620
vn -0.0000 0.0000 -1.0000
vn 0.0000 1.0000 0.0000
vn 0.1686 0.0265 -0.9853
vn 0.0385 -0.0041 -0.9993
vn -0.2822 0.4291 -0.8580
vn -0.2871 0.2877 -0.9137
vn 0.0630 0.9470 0.3150
vn -0.2350 0.6874 -0.6872
vn 0.0774 0.9283 0.3636
vn 0.3652 0.1825 0.9128
vn 0.3673 0.2520 0.8953
vn 0.8935 -0.1016 0.4375
vn 0.0468 -0.9982 -0.0375
vn 0.5545 0.0398 0.8312
vn 0.5826 0.0506 0.8112
vn 0.3653 0.1817 0.9130
vn 0.4342 0.0311 0.9003
vn 0.3510 0.0391 0.9355
usemtl Shape.8667
s off
f 16//1 5//1 21//1
f 5//2 4//2 7//2
f 4//2 5//2 8//2
f 7//3 4//3 9//3
f 6//4 4//4 10//4
f 8//5 1//5 10//5
f 3//6 2//6 11//6
f 4//7 8//7 13//7
f 10//8 4//8 13//8
f 8//9 10//9 13//9
f 4//4 6//4 14//4
f 9//3 4//3 14//3
f 3//10 11//10 15//10
f 1//11 8//11 16//11
f 8//2 5//2 16//2
f 2//12 3//12 17//12
f 7//13 9//13 17//13
f 11//14 2//14 17//14
f 3//15 12//15 17//15
f 12//16 7//16 17//16
f 14//17 6//17 17//17
f 9//18 14//18 17//18
f 6//4 10//4 18//4
f 10//19 11//19 18//19
f 11//14 17//14 18//14
f 17//20 6//20 18//20
f 10//5 1//5 19//5
f 11//21 10//21 19//21
f 1//22 15//22 19//22
f 15//23 11//23 19//23
f 5//2 7//2 20//2
f 12//24 3//24 20//24
f 7//25 12//25 20//25
f 15//26 5//26 20//26
f 3//27 15//27 20//27
f 15//28 1//28 21//28
f 5//29 15//29 21//29
f 1//30 16//30 21//30
