# Blender v2.79 (sub 0) OBJ File: ''
# www.blender.org
mtllib 102663_link_3_67.mtl
o Shape_IndexedFaceSet.067_Shape_IndexedFaceSet.8712
v 0.228433 0.337109 -0.237056
v 0.228433 0.410223 -0.237056
v -0.059873 0.334576 -0.179629
v 0.236607 0.337109 -0.188303
v -0.047771 0.410223 -0.139551
v 0.049735 0.337109 -0.139551
v -0.047771 0.410223 -0.180191
v 0.285309 0.410223 -0.212670
v 0.301622 0.337109 -0.228924
v -0.047771 0.337109 -0.139551
v 0.049735 0.410223 -0.139551
v 0.297390 0.409337 -0.235875
v 0.236607 0.410223 -0.188303
vn 0.0000 1.0000 0.0000
vn -0.1954 0.0000 -0.9807
vn 0.0096 -0.9993 0.0369
vn -0.2016 0.0250 -0.9792
vn -0.9874 0.1580 0.0000
vn 0.0031 -0.9996 -0.0283
vn 0.0090 -0.9999 0.0143
vn 0.5286 -0.0701 0.8460
vn -0.9573 -0.0000 0.2891
vn 0.0000 -0.9980 0.0631
vn 0.0000 0.0000 1.0000
vn 0.2524 0.0000 0.9676
vn 0.0171 0.0000 -0.9999
vn 0.0134 0.9994 -0.0312
vn 0.1100 -0.0888 -0.9900
vn 0.8844 0.0958 0.4568
vn 0.4474 0.0000 0.8943
usemtl Shape.8719
s off
f 8//1 11//1 13//1
f 2//2 1//2 3//2
f 3//3 4//3 6//3
f 2//4 3//4 7//4
f 5//1 2//1 7//1
f 3//5 5//5 7//5
f 2//1 5//1 8//1
f 3//6 1//6 9//6
f 4//7 3//7 9//7
f 8//8 4//8 9//8
f 5//9 3//9 10//9
f 3//10 6//10 10//10
f 6//11 5//11 10//11
f 6//12 4//12 11//12
f 5//11 6//11 11//11
f 8//1 5//1 11//1
f 1//13 2//13 12//13
f 2//14 8//14 12//14
f 9//15 1//15 12//15
f 8//16 9//16 12//16
f 4//17 8//17 13//17
f 11//12 4//12 13//12
