# Blender v2.79 (sub 0) OBJ File: ''
# www.blender.org
mtllib 102663_link_3_27.mtl
o Shape_IndexedFaceSet.027_Shape_IndexedFaceSet.8672
v -0.318873 0.492126 -0.322887
v -0.314153 0.492715 -0.259568
v -0.056059 0.490485 -0.176719
v -0.292340 0.524110 -0.327174
v -0.056985 0.524855 -0.177124
v -0.291533 0.523976 -0.220828
v -0.088404 0.491480 -0.147694
v -0.288789 0.490494 -0.331863
v -0.299652 0.491480 -0.228946
v -0.322288 0.523757 -0.325234
v -0.129025 0.523976 -0.155829
vn -0.3510 -0.2103 0.9125
vn -0.0040 1.0000 0.0013
vn 0.6681 0.0268 0.7436
vn 0.5547 0.0051 -0.8321
vn 0.5292 0.1718 -0.8309
vn -0.1234 -0.9922 0.0184
vn -0.8958 0.1167 0.4289
vn -0.0092 -0.9997 0.0240
vn -0.0530 -0.9986 0.0040
vn -0.0060 -0.9999 0.0089
vn -0.9920 -0.1015 0.0749
vn -0.0117 0.9999 0.0013
vn -0.9070 0.3260 0.2665
vn -0.2895 -0.1019 -0.9517
vn -0.0656 0.1310 -0.9892
vn -0.0070 0.9998 0.0175
vn 0.2388 0.5060 0.8288
vn -0.3678 -0.1378 0.9196
usemtl Shape.8679
s off
f 9//1 7//1 11//1
f 5//2 4//2 6//2
f 3//3 5//3 7//3
f 5//4 3//4 8//4
f 4//5 5//5 8//5
f 2//6 1//6 9//6
f 6//7 2//7 9//7
f 3//8 7//8 9//8
f 1//9 8//9 9//9
f 8//10 3//10 9//10
f 1//11 2//11 10//11
f 6//12 4//12 10//12
f 2//13 6//13 10//13
f 8//14 1//14 10//14
f 4//15 8//15 10//15
f 5//16 6//16 11//16
f 7//17 5//17 11//17
f 6//18 9//18 11//18
