# Blender v2.79 (sub 0) OBJ File: ''
# www.blender.org
mtllib 101320_link_1_2.mtl
o Shape_IndexedFaceSet.002_Shape_IndexedFaceSet.11833
v -0.546058 0.219417 0.549535
v 0.572349 0.386950 0.563872
v 0.569848 0.333959 0.561997
v -0.443449 0.402284 -0.570615
v 0.262326 -0.208173 -0.564500
v -0.350141 -0.203051 0.394978
v 0.540354 0.396991 -0.547965
v 0.185815 -0.203284 0.508445
v -0.311162 0.396848 0.801712
v -0.280303 -0.205670 -0.558803
v -0.592367 0.345292 -0.465492
v 0.350302 -0.192553 -0.305256
v 0.290857 0.396763 0.801521
v -0.581586 0.397083 0.563496
v 0.339357 -0.192001 0.394333
v -0.287679 0.198527 0.754264
v -0.361963 -0.204366 -0.307375
v 0.571702 0.334720 -0.475377
v 0.288671 0.219377 0.755486
v -0.196296 -0.204351 0.509806
v 0.526183 0.209191 0.539545
v -0.550253 0.396956 -0.558486
v -0.536038 0.188528 -0.460758
v 0.537210 0.229983 -0.451100
v 0.529519 0.313652 -0.557699
v -0.290240 0.334408 0.812082
v 0.248046 0.198970 0.756964
v -0.589705 0.333751 0.551293
v 0.569992 0.396182 0.541358
v -0.523650 0.157416 0.507103
v 0.281285 0.356021 0.814230
v 0.492345 0.187997 0.578159
v -0.548242 0.333730 0.623598
v -0.361058 -0.203594 0.374658
v -0.492886 0.198411 0.599597
v -0.548128 0.313002 -0.555788
v 0.517747 0.333862 0.634318
v -0.592741 0.387036 -0.455388
v 0.571065 0.396737 -0.453932
v 0.342570 -0.205071 -0.318716
v 0.370062 -0.140607 0.394290
v 0.298473 -0.202572 0.425388
v 0.516062 0.188571 -0.471297
v -0.546290 0.209167 -0.450199
v 0.020692 0.157472 0.734131
v -0.588622 0.322983 0.529944
v 0.513447 0.177850 0.517152
v 0.144400 -0.192641 0.518458
v 0.041682 0.323631 0.810861
v -0.281039 0.387561 0.815010
v 0.564915 0.311354 0.527384
v -0.582266 0.397442 -0.486595
v -0.278778 0.219764 0.767870
v 0.288073 0.198521 0.743997
v -0.330023 0.322797 0.787687
v 0.519542 0.386568 0.636044
v -0.540015 0.376323 0.636152
v -0.588938 0.323108 -0.441302
v 0.561650 0.397293 -0.496650
v -0.537333 0.230142 -0.513908
v -0.236569 0.075193 0.683117
v -0.318631 0.198547 0.733788
v -0.524154 0.157477 -0.427984
v 0.332367 0.344834 0.780694
vn 0.6173 -0.0467 0.7853
vn -0.0106 -0.0223 -0.9997
vn 0.0001 1.0000 0.0039
vn -0.0029 1.0000 0.0042
vn 0.9989 -0.0472 0.0018
vn 0.0028 -1.0000 0.0048
vn -0.0046 -1.0000 0.0016
vn -0.8371 -0.4761 -0.2694
vn 0.0138 0.0060 -0.9999
vn 0.0235 0.1130 -0.9933
vn 0.8947 -0.0647 -0.4419
vn 0.0039 1.0000 0.0019
vn 0.2212 -0.3751 0.9002
vn 0.7682 -0.5017 0.3978
vn 0.7903 -0.3651 0.4921
vn -0.8674 0.0154 0.4974
vn -0.8216 -0.3209 0.4711
vn -0.7553 -0.5037 0.4193
vn -0.0124 -0.9999 0.0011
vn -0.0060 -1.0000 0.0017
vn -0.0473 -0.9975 0.0521
vn -0.8499 -0.4701 0.2381
vn -0.9116 -0.4112 0.0017
vn -0.6882 -0.5085 0.5176
vn -0.7078 -0.3936 0.5866
vn -0.1011 -0.0465 -0.9938
vn -0.1111 -0.0347 -0.9932
vn -0.9025 -0.0366 -0.4291
vn 0.8100 -0.0589 0.5835
vn 0.5736 -0.3794 0.7260
vn 0.7621 -0.3439 0.5486
vn -0.9921 0.1253 0.0096
vn -1.0000 -0.0096 0.0025
vn 0.9999 0.0107 -0.0012
vn 0.9682 0.2501 0.0012
vn 0.8441 -0.5360 0.0136
vn 0.8584 -0.5128 0.0138
vn 0.8196 -0.4894 0.2977
vn 0.0102 -0.9999 0.0053
vn 0.5953 -0.5313 0.6028
vn 0.0240 -0.9997 0.0048
vn 0.2637 -0.9644 0.0189
vn 0.9023 -0.4247 -0.0740
vn 0.9076 -0.3519 -0.2288
vn 0.7944 -0.4008 -0.4565
vn 0.8692 -0.3409 -0.3581
vn 0.8390 -0.4736 -0.2679
vn 0.8936 -0.4357 -0.1081
vn -0.9133 -0.3351 -0.2316
vn -0.9947 -0.1029 0.0014
vn -0.9254 -0.3553 0.1323
vn -0.9271 -0.3711 0.0526
vn -0.9308 -0.3656 0.0023
vn 0.9146 -0.4043 0.0007
vn 0.9258 -0.3779 0.0024
vn 0.9111 -0.4121 0.0049
vn 0.8875 -0.4453 0.1185
vn 0.0045 -0.6758 0.7370
vn 0.0674 -0.5319 0.8441
vn 0.0096 -0.5220 0.8529
vn 0.0002 -0.1052 0.9944
vn 0.0340 -0.3487 0.9366
vn 0.0003 0.8202 0.5721
vn -0.3990 0.0186 0.9168
vn 0.0178 0.2939 0.9557
vn -0.0017 -0.0547 0.9985
vn 0.9765 -0.2155 0.0016
vn 0.9347 -0.3435 0.0911
vn 0.9498 -0.3130 -0.0009
vn 0.9352 -0.3542 0.0030
vn -0.0346 0.9994 0.0004
vn -0.0533 0.9981 -0.0305
vn -0.9134 0.0123 -0.4068
vn -0.9523 0.0637 -0.2984
vn -0.7037 0.7105 0.0007
vn -0.0007 -0.4790 0.8778
vn -0.0083 -0.3605 0.9327
vn 0.0036 -0.3918 0.9200
vn 0.2671 -0.4708 0.8408
vn 0.2546 -0.5365 0.8046
vn 0.5616 -0.4115 0.7178
vn 0.5060 -0.5284 0.6817
vn 0.5210 -0.5226 0.6749
vn -0.5160 -0.0307 0.8561
vn -0.5713 -0.3642 0.7355
vn -0.4092 -0.3644 0.8365
vn -0.4075 -0.3638 0.8376
vn 0.4145 0.8564 0.3078
vn 0.1850 0.9629 0.1963
vn 0.8063 -0.0468 0.5897
vn -0.4015 0.7939 0.4566
vn -0.8654 0.0196 0.5007
vn -0.5859 -0.0043 0.8104
vn -0.6006 -0.1171 0.7909
vn -0.9266 -0.3332 -0.1742
vn -0.9883 -0.1524 0.0003
vn -0.9365 -0.3506 0.0003
vn 0.0056 1.0000 -0.0082
vn 0.9234 0.0180 -0.3833
vn 0.0049 1.0000 0.0010
vn 0.9734 0.0838 -0.2134
vn 0.0562 0.9984 0.0006
vn -0.9113 -0.3347 -0.2398
vn -0.8264 -0.4529 -0.3345
vn -0.7387 -0.3782 -0.5579
vn -0.8968 -0.2870 -0.3367
vn -0.1329 -0.5360 0.8337
vn -0.0035 -0.5273 0.8497
vn -0.0010 -0.5247 0.8513
vn -0.0652 -0.5188 0.8524
vn -0.0085 -0.5076 0.8616
vn -0.5097 -0.5311 0.6769
vn -0.4668 -0.5337 0.7051
vn -0.5181 -0.5274 0.6733
vn -0.5102 -0.3812 0.7709
vn -0.5664 -0.3711 0.7358
vn -0.8991 -0.4302 -0.0816
vn -0.9126 -0.4089 0.0005
vn -0.9067 -0.4166 -0.0660
vn -0.9193 -0.3935 0.0005
vn 0.5633 0.1226 0.8171
vn 0.4673 -0.3277 0.8211
vn 0.5683 -0.3478 0.7457
vn 0.5842 0.1468 0.7983
usemtl Shape.11843
s off
f 37//1 56//1 64//1
f 4//2 5//2 10//2
f 4//3 9//3 13//3
f 9//4 4//4 14//4
f 2//5 3//5 18//5
f 5//6 8//6 20//6
f 10//7 5//7 20//7
f 10//8 17//8 23//8
f 5//9 4//9 25//9
f 4//10 7//10 25//10
f 7//11 18//11 25//11
f 4//12 13//12 29//12
f 27//13 19//13 31//13
f 15//14 21//14 32//14
f 21//15 3//15 32//15
f 14//16 28//16 33//16
f 28//17 1//17 33//17
f 6//18 1//18 34//18
f 17//19 10//19 34//19
f 10//20 20//20 34//20
f 20//21 6//21 34//21
f 1//22 30//22 34//22
f 30//23 17//23 34//23
f 1//24 6//24 35//24
f 33//25 1//25 35//25
f 4//26 10//26 36//26
f 22//27 4//27 36//27
f 11//28 22//28 36//28
f 3//29 2//29 37//29
f 19//30 32//30 37//30
f 32//31 3//31 37//31
f 28//32 14//32 38//32
f 11//33 28//33 38//33
f 2//34 18//34 39//34
f 29//35 2//35 39//35
f 12//36 15//36 40//36
f 15//37 12//37 41//37
f 21//38 15//38 41//38
f 8//39 5//39 42//39
f 15//40 32//40 42//40
f 5//41 40//41 42//41
f 40//42 15//42 42//42
f 24//43 12//43 43//43
f 18//44 24//44 43//44
f 5//45 25//45 43//45
f 25//46 18//46 43//46
f 40//47 5//47 43//47
f 12//48 40//48 43//48
f 11//49 23//49 44//49
f 28//50 11//50 46//50
f 1//51 28//51 46//51
f 30//52 1//52 46//52
f 44//53 30//53 46//53
f 12//54 24//54 47//54
f 24//55 21//55 47//55
f 41//56 12//56 47//56
f 21//57 41//57 47//57
f 20//58 8//58 48//58
f 8//59 27//59 48//59
f 27//60 45//60 48//60
f 31//61 26//61 49//61
f 27//62 31//62 49//62
f 13//63 9//63 50//63
f 9//64 26//64 50//64
f 31//65 13//65 50//65
f 26//66 31//66 50//66
f 18//67 3//67 51//67
f 3//68 21//68 51//68
f 24//69 18//69 51//69
f 21//70 24//70 51//70
f 14//71 4//71 52//71
f 4//72 22//72 52//72
f 22//73 11//73 52//73
f 11//74 38//74 52//74
f 38//75 14//75 52//75
f 45//76 27//76 53//76
f 49//77 26//77 53//77
f 27//78 49//78 53//78
f 19//79 27//79 54//79
f 27//80 8//80 54//80
f 32//81 19//81 54//81
f 8//82 42//82 54//82
f 42//83 32//83 54//83
f 26//84 9//84 55//84
f 33//85 35//85 55//85
f 16//86 53//86 55//86
f 53//87 26//87 55//87
f 2//88 29//88 56//88
f 29//89 13//89 56//89
f 37//90 2//90 56//90
f 9//91 14//91 57//91
f 14//92 33//92 57//92
f 55//93 9//93 57//93
f 33//94 55//94 57//94
f 11//95 44//95 58//95
f 46//96 11//96 58//96
f 44//97 46//97 58//97
f 7//98 4//98 59//98
f 18//99 7//99 59//99
f 4//100 29//100 59//100
f 39//101 18//101 59//101
f 29//102 39//102 59//102
f 23//103 11//103 60//103
f 10//104 23//104 60//104
f 36//105 10//105 60//105
f 11//106 36//106 60//106
f 16//107 20//107 61//107
f 20//108 48//108 61//108
f 48//109 45//109 61//109
f 53//110 16//110 61//110
f 45//111 53//111 61//111
f 6//112 20//112 62//112
f 20//113 16//113 62//113
f 35//114 6//114 62//114
f 16//115 55//115 62//115
f 55//116 35//116 62//116
f 23//117 17//117 63//117
f 17//118 30//118 63//118
f 44//119 23//119 63//119
f 30//120 44//120 63//120
f 13//121 31//121 64//121
f 31//122 19//122 64//122
f 19//123 37//123 64//123
f 56//124 13//124 64//124
