# Blender v2.79 (sub 0) OBJ File: ''
# www.blender.org
mtllib 101320_link_1_7.mtl
o Shape_IndexedFaceSet.007_Shape_IndexedFaceSet.11838
v 0.341199 -0.768455 -0.462811
v 0.445694 -0.688645 0.063388
v 0.445694 -0.741620 0.063388
v 0.265510 -0.699253 0.063388
v 0.273884 -0.662746 -0.472600
v 0.265510 -0.784012 -0.339279
v 0.424670 -0.674391 -0.333216
v 0.297311 -0.784012 0.063388
v 0.265510 -0.656836 0.063388
v 0.414472 -0.774775 -0.331394
v 0.424477 -0.656836 0.063388
v 0.424477 -0.784012 0.063388
v 0.270062 -0.770740 -0.494340
v 0.360477 -0.681254 -0.457804
v 0.425890 -0.757922 -0.344532
v 0.388139 -0.664618 -0.399395
v 0.269592 -0.669855 -0.495833
v 0.435004 -0.748443 -0.278740
v 0.369616 -0.776561 -0.419137
v 0.389232 -0.749261 -0.424537
v 0.310435 -0.760578 -0.493648
v 0.286710 -0.773417 0.063388
vn -0.7058 -0.7062 0.0557
vn 0.0000 0.0000 1.0000
vn -1.0000 0.0000 0.0000
vn 0.8317 0.5547 -0.0241
vn 0.0000 0.9999 -0.0110
vn 0.0000 -1.0000 0.0000
vn 0.8148 -0.5787 -0.0342
vn 0.3279 0.9438 -0.0416
vn 0.0286 0.9994 -0.0190
vn 0.8741 0.1585 -0.4591
vn 0.2699 0.8848 -0.3798
vn -0.9997 0.0249 -0.0079
vn -0.8270 0.5618 -0.0191
vn -0.9995 -0.0051 -0.0298
vn 0.2217 0.9202 -0.3225
vn 0.9995 0.0000 -0.0312
vn 0.9935 0.1026 -0.0490
vn 0.8941 -0.4475 -0.0190
vn 0.9893 0.0337 -0.1419
vn 0.8255 -0.5634 -0.0332
vn 0.0548 -0.9983 -0.0216
vn 0.0897 -0.9956 -0.0256
vn 0.1526 -0.9491 -0.2754
vn 0.0060 -0.9964 -0.0851
vn 0.6507 -0.6892 -0.3186
vn 0.7100 -0.5871 -0.3889
vn 0.8762 0.1457 -0.4595
vn 0.9098 0.0687 -0.4094
vn 0.6407 -0.5635 -0.5215
vn 0.6606 -0.2246 -0.7164
vn 0.2256 -0.8660 -0.4463
vn 0.3979 0.1574 -0.9038
vn 0.0208 -0.0147 -0.9997
vn 0.6638 -0.0829 -0.7433
vn -0.9599 -0.2744 0.0578
usemtl Shape.11848
s off
f 6//1 8//1 22//1
f 3//2 2//2 4//2
f 3//2 4//2 8//2
f 4//2 2//2 9//2
f 6//3 4//3 9//3
f 2//4 7//4 11//4
f 9//2 2//2 11//2
f 5//5 9//5 11//5
f 3//2 8//2 12//2
f 8//6 6//6 12//6
f 12//7 10//7 15//7
f 11//8 7//8 16//8
f 5//9 11//9 16//9
f 7//10 14//10 16//10
f 16//11 14//11 17//11
f 6//12 9//12 17//12
f 9//13 5//13 17//13
f 13//14 6//14 17//14
f 5//15 16//15 17//15
f 2//16 3//16 18//16
f 7//17 2//17 18//17
f 3//18 12//18 18//18
f 15//19 7//19 18//19
f 12//20 15//20 18//20
f 12//21 6//21 19//21
f 10//22 12//22 19//22
f 13//23 1//23 19//23
f 6//24 13//24 19//24
f 15//25 10//25 19//25
f 15//26 19//26 20//26
f 14//27 7//27 20//27
f 7//28 15//28 20//28
f 19//29 1//29 20//29
f 20//30 1//30 21//30
f 1//31 13//31 21//31
f 17//32 14//32 21//32
f 13//33 17//33 21//33
f 14//34 20//34 21//34
f 4//35 6//35 22//35
f 8//2 4//2 22//2
