# Blender v2.79 (sub 0) OBJ File: ''
# www.blender.org
mtllib 101320_link_1_6.mtl
o Shape_IndexedFaceSet.006_Shape_IndexedFaceSet.11837
v 0.053588 -0.777900 -0.471725
v 0.265493 -0.656836 0.063388
v 0.265493 -0.699253 0.063388
v 0.042890 -0.656836 0.063388
v 0.240841 -0.659256 -0.497903
v 0.042890 -0.656836 -0.508793
v 0.259956 -0.770781 -0.494562
v 0.042890 -0.784012 -0.349866
v 0.265493 -0.784012 -0.349866
v 0.042890 -0.699253 0.063388
v 0.260288 -0.669932 -0.495416
v 0.048428 -0.770781 -0.494559
vn -0.6375 -0.7646 -0.0943
vn 0.0000 0.0000 1.0000
vn 0.0125 0.9999 -0.0049
vn 0.0000 1.0000 0.0000
vn 0.0547 -0.0205 -0.9983
vn -1.0000 -0.0000 0.0000
vn 1.0000 0.0000 0.0000
vn 0.0242 -0.9955 -0.0920
vn 0.0000 -0.9796 0.2009
vn 0.0000 -0.9987 -0.0501
vn 0.4835 0.8750 -0.0250
vn 0.1221 -0.0088 -0.9925
vn 0.9994 0.0327 -0.0101
vn 0.9992 -0.0036 -0.0386
vn -0.0000 -0.9547 -0.2976
vn -0.0000 -0.1240 -0.9923
vn -0.9976 -0.0539 -0.0431
usemtl Shape.11847
s off
f 1//1 8//1 12//1
f 3//2 2//2 4//2
f 2//3 5//3 6//3
f 4//4 2//4 6//4
f 6//5 5//5 7//5
f 4//6 6//6 8//6
f 2//7 3//7 9//7
f 1//8 7//8 9//8
f 3//9 8//9 9//9
f 8//10 1//10 9//10
f 3//2 4//2 10//2
f 8//9 3//9 10//9
f 4//6 8//6 10//6
f 5//11 2//11 11//11
f 7//12 5//12 11//12
f 2//13 9//13 11//13
f 9//14 7//14 11//14
f 7//15 1//15 12//15
f 6//16 7//16 12//16
f 8//17 6//17 12//17
