# Blender v2.79 (sub 0) OBJ File: ''
# www.blender.org
mtllib 1288_link_1_11.mtl
o Shape_IndexedFaceSet.011_Shape_IndexedFaceSet.1976
v 0.026650 -0.030359 0.190466
v 0.138334 0.065376 0.350006
v 0.138334 0.060053 0.350006
v 0.127693 0.049417 0.131964
v 0.021324 0.006872 0.275519
v 0.079829 -0.003764 0.350006
v 0.106401 0.065376 0.131964
v 0.079829 -0.014400 0.131964
v 0.021324 -0.009078 0.131964
v 0.021324 -0.019704 0.350006
v 0.106401 0.065376 0.339335
v 0.127693 0.038771 0.350006
v 0.026650 0.006872 0.350006
v 0.047919 -0.030359 0.137300
v 0.111727 0.017508 0.131964
v 0.133008 0.065376 0.158558
v 0.022322 -0.029543 0.133824
vn -0.0302 -0.9995 -0.0121
vn 0.0000 0.0000 1.0000
vn 0.0000 0.0000 -1.0000
vn -0.6563 0.7499 -0.0833
vn -1.0000 0.0000 0.0000
vn 0.0000 1.0000 0.0000
vn -0.5666 0.8240 0.0000
vn 0.8942 -0.4471 -0.0218
vn 0.6638 -0.7470 0.0364
vn -0.9781 0.1960 0.0699
vn -0.2712 0.5177 0.8115
vn -0.5873 0.8083 0.0420
vn 0.4527 -0.8906 0.0434
vn 0.2620 -0.9617 0.0809
vn 0.1787 -0.9813 0.0715
vn 0.8941 -0.4474 -0.0218
vn 0.7071 -0.7069 0.0172
vn 0.9996 0.0000 -0.0278
vn 0.9639 -0.2641 -0.0342
vn 0.5143 0.6861 -0.5145
vn -0.0083 -0.0909 -0.9958
vn -0.9988 -0.0489 -0.0024
vn -0.5942 -0.8036 0.0338
vn 0.1017 -0.4924 -0.8644
usemtl Shape.1978
s off
f 14//1 1//1 17//1
f 3//2 2//2 6//2
f 7//3 4//3 8//3
f 7//3 8//3 9//3
f 5//4 7//4 9//4
f 5//5 9//5 10//5
f 6//2 2//2 10//2
f 2//6 7//6 11//6
f 7//7 5//7 11//7
f 4//8 3//8 12//8
f 3//2 6//2 12//2
f 6//9 8//9 12//9
f 5//10 10//10 13//10
f 10//2 2//2 13//2
f 2//11 11//11 13//11
f 11//12 5//12 13//12
f 8//13 6//13 14//13
f 6//14 10//14 14//14
f 10//15 1//15 14//15
f 8//3 4//3 15//3
f 4//16 12//16 15//16
f 12//17 8//17 15//17
f 2//18 3//18 16//18
f 3//19 4//19 16//19
f 7//6 2//6 16//6
f 4//20 7//20 16//20
f 9//21 8//21 17//21
f 10//22 9//22 17//22
f 1//23 10//23 17//23
f 8//24 14//24 17//24
