# Blender v2.79 (sub 0) OBJ File: ''
# www.blender.org
mtllib 1288_link_0_230.mtl
o Shape_IndexedFaceSet.230_Shape_IndexedFaceSet.7842
v -0.121900 0.430357 -0.321682
v -0.107384 0.495687 -0.290223
v -0.121900 0.495687 -0.290223
v -0.100123 0.495687 -0.326525
v -0.100123 0.437620 -0.290223
v -0.121900 0.469065 -0.326525
v -0.121900 0.456980 -0.290223
v -0.100123 0.471485 -0.326525
v -0.121900 0.495687 -0.309583
v -0.121900 0.430357 -0.304750
v -0.100123 0.469065 -0.292650
v -0.100123 0.440041 -0.299910
v -0.119479 0.437620 -0.326525
vn 0.7024 -0.5419 -0.4615
vn 0.0000 1.0000 0.0000
vn 0.0000 0.0000 1.0000
vn -1.0000 0.0000 0.0000
vn 1.0000 0.0000 0.0000
vn 0.0000 0.0000 -1.0000
vn -0.5487 0.4488 -0.7053
vn 0.3164 -0.9486 0.0000
vn -0.3918 -0.4407 0.8076
vn 0.9514 0.2421 0.1903
vn 0.5241 0.0655 0.8491
vn 0.5588 -0.8046 -0.2011
vn 0.7490 -0.4281 -0.5058
vn -0.8498 -0.0654 -0.5230
usemtl Shape.7853
s off
f 12//1 1//1 13//1
f 3//2 2//2 4//2
f 2//3 3//3 5//3
f 1//4 3//4 6//4
f 3//4 1//4 7//4
f 5//3 3//3 7//3
f 4//5 5//5 8//5
f 6//6 4//6 8//6
f 3//2 4//2 9//2
f 6//4 3//4 9//4
f 4//7 6//7 9//7
f 1//8 5//8 10//8
f 7//4 1//4 10//4
f 5//9 7//9 10//9
f 4//10 2//10 11//10
f 5//5 4//5 11//5
f 2//11 5//11 11//11
f 5//12 1//12 12//12
f 8//5 5//5 12//5
f 8//13 12//13 13//13
f 1//14 6//14 13//14
f 6//6 8//6 13//6
