# Blender v2.79 (sub 0) OBJ File: ''
# www.blender.org
mtllib 1288_link_0_16.mtl
o Shape_IndexedFaceSet.016_Shape_IndexedFaceSet.7628
v -0.042041 0.737708 0.046174
v -0.051715 0.686885 -0.094192
v -0.037201 0.686885 -0.094192
v -0.039322 0.739273 -0.098886
v -0.056556 0.737708 -0.079670
v -0.032357 0.735281 0.058277
v -0.032357 0.686885 -0.038523
v -0.056556 0.735281 -0.009495
v -0.032357 0.689313 -0.082088
v -0.039620 0.686885 -0.045777
v -0.056556 0.711088 -0.094192
v -0.032357 0.737708 0.019548
v -0.054135 0.730445 -0.002227
v -0.044457 0.735281 0.041323
v -0.051715 0.689313 -0.079670
v -0.054135 0.735281 -0.094192
v -0.054135 0.737708 0.007444
vn -0.8997 0.3341 0.2809
vn 0.0000 -0.0892 -0.9960
vn 0.0000 -1.0000 0.0000
vn 0.9281 0.0042 -0.3723
vn 1.0000 0.0000 0.0000
vn 0.5388 -0.8412 -0.0469
vn -0.4078 -0.8167 0.4083
vn -0.2009 -0.0402 -0.9788
vn -1.0000 0.0000 -0.0000
vn 0.0313 0.9994 0.0114
vn 0.1695 0.9836 0.0616
vn 0.9913 0.1191 -0.0567
vn -0.7681 -0.3311 0.5481
vn -0.5403 -0.7480 0.3856
vn -0.5509 -0.8231 0.1376
vn -0.9801 -0.1960 0.0328
vn -0.9817 -0.1833 0.0524
vn -0.9493 -0.2891 0.1239
vn -0.8089 -0.5318 0.2506
vn -0.8311 -0.5015 0.2404
vn -0.3153 0.9261 -0.2073
vn -0.3095 0.0310 -0.9504
vn -0.9789 0.0980 -0.1796
vn -0.0326 0.9994 0.0102
vn -0.0877 0.9961 0.0024
vn -0.7793 0.6262 0.0217
vn -0.9594 -0.2256 0.1694
vn -0.9172 -0.3185 0.2392
usemtl Shape.7639
s off
f 14//1 1//1 17//1
f 3//2 2//2 4//2
f 2//3 3//3 7//3
f 3//4 4//4 9//4
f 6//5 7//5 9//5
f 7//6 3//6 9//6
f 7//7 6//7 10//7
f 2//3 7//3 10//3
f 4//8 2//8 11//8
f 8//9 5//9 11//9
f 4//10 1//10 12//10
f 1//11 6//11 12//11
f 9//12 4//12 12//12
f 6//5 9//5 12//5
f 6//13 1//13 14//13
f 10//14 6//14 14//14
f 2//15 10//15 15//15
f 11//16 2//16 15//16
f 8//17 11//17 15//17
f 13//18 8//18 15//18
f 10//19 14//19 15//19
f 14//20 13//20 15//20
f 5//21 4//21 16//21
f 4//22 11//22 16//22
f 11//23 5//23 16//23
f 1//24 4//24 17//24
f 4//25 5//25 17//25
f 5//26 8//26 17//26
f 8//27 13//27 17//27
f 13//28 14//28 17//28
