# Blender v2.79 (sub 0) OBJ File: ''
# www.blender.org
mtllib 1288_link_1_27.mtl
o Shape_IndexedFaceSet.027_Shape_IndexedFaceSet.1992
v 0.016005 -0.104887 -0.341404
v -0.116960 -0.689869 -0.330774
v -0.100990 -0.679136 -0.341404
v -0.116960 -0.041060 -0.362689
v -0.116960 -0.264422 -0.272273
v 0.017216 -0.695778 -0.309361
v 0.012171 -0.671157 -0.355061
v -0.118208 -0.695959 -0.271424
v -0.116960 -0.041060 -0.298868
v 0.016005 -0.041060 -0.362680
v 0.016005 -0.338918 -0.314835
v -0.021232 -0.689869 -0.357361
v -0.116960 -0.115556 -0.362689
v -0.116960 -0.142167 -0.282920
v 0.016005 -0.216599 -0.325455
v -0.053120 -0.588699 -0.357361
v 0.016005 -0.551483 -0.309507
v 0.016005 -0.051730 -0.352042
v -0.100990 -0.179383 -0.362689
v -0.116960 -0.062336 -0.293558
vn 0.3773 0.2243 0.8985
vn 0.2697 0.0011 0.9629
vn -1.0000 0.0019 0.0000
vn 0.9935 -0.0074 -0.1137
vn -0.0000 1.0000 0.0000
vn -0.2339 -0.4860 -0.8421
vn 0.4578 -0.7606 -0.4603
vn -0.0285 -0.9943 -0.1026
vn -0.0269 -0.9945 -0.1009
vn 0.0757 -0.0125 -0.9971
vn -0.5314 -0.0470 -0.8458
vn -0.9998 -0.0012 -0.0211
vn -0.9999 -0.0000 -0.0137
vn -0.9994 0.0030 0.0340
vn 0.9997 0.0033 0.0231
vn 0.3448 0.0812 0.9351
vn 0.9989 0.0041 0.0474
vn 0.3447 0.0814 0.9352
vn -0.2041 -0.0643 -0.9768
vn -0.2411 -0.0434 -0.9695
vn 0.2762 0.0033 0.9611
vn 0.3168 0.0238 0.9482
vn 0.9441 0.0083 0.3294
vn 0.9999 0.0028 0.0140
vn 1.0000 0.0020 0.0020
vn 0.3218 0.6685 0.6705
vn 0.0001 0.0000 -1.0000
vn 0.0105 -0.0088 -0.9999
vn -0.0000 0.0000 -1.0000
vn -0.0655 -0.0206 -0.9976
vn -0.0972 -0.0243 -0.9950
vn -1.0000 0.0023 0.0092
vn -0.9998 0.0027 0.0200
vn 0.3726 0.1312 0.9187
vn 0.3642 0.1230 0.9232
vn 0.3838 0.1812 0.9055
usemtl Shape.1994
s off
f 18//1 9//1 20//1
f 6//2 5//2 8//2
f 4//3 8//3 9//3
f 6//4 7//4 10//4
f 4//5 9//5 10//5
f 2//6 3//6 12//6
f 7//7 6//7 12//7
f 8//8 2//8 12//8
f 6//9 8//9 12//9
f 10//10 7//10 12//10
f 3//11 2//11 13//11
f 2//12 8//12 13//12
f 8//13 4//13 13//13
f 8//14 5//14 14//14
f 6//15 1//15 15//15
f 5//16 11//16 15//16
f 11//17 6//17 15//17
f 14//18 5//18 15//18
f 12//19 3//19 16//19
f 3//20 13//20 16//20
f 5//21 6//21 17//21
f 11//22 5//22 17//22
f 6//23 11//23 17//23
f 1//24 6//24 18//24
f 6//25 10//25 18//25
f 10//26 9//26 18//26
f 4//27 10//27 19//27
f 10//28 12//28 19//28
f 13//29 4//29 19//29
f 12//30 16//30 19//30
f 16//31 13//31 19//31
f 9//32 8//32 20//32
f 8//33 14//33 20//33
f 15//34 1//34 20//34
f 14//35 15//35 20//35
f 1//36 18//36 20//36
