# Blender v2.79 (sub 0) OBJ File: ''
# www.blender.org
mtllib 1288_link_0_96.mtl
o Shape_IndexedFaceSet.096_Shape_IndexedFaceSet.7708
v -0.012999 0.406150 -0.534652
v -0.015418 0.420667 -0.551599
v -0.020257 0.415827 -0.549178
v -0.088020 0.423088 -0.510456
v 0.001525 0.418248 -0.517721
v -0.088020 0.408571 -0.510456
v -0.078326 0.410990 -0.527403
v 0.001525 0.423088 -0.551599
v 0.001525 0.408571 -0.520138
v -0.080754 0.423088 -0.529819
v 0.001525 0.408571 -0.544334
v -0.051715 0.408571 -0.510456
v -0.051715 0.408571 -0.537072
v 0.001525 0.423088 -0.537072
v -0.042038 0.423088 -0.546754
vn -0.2385 -0.4238 -0.8738
vn 1.0000 0.0000 0.0000
vn -0.9363 0.0000 -0.3513
vn -0.8200 -0.2658 -0.5070
vn 0.0000 1.0000 0.0000
vn 0.0367 -0.4762 -0.8786
vn 0.0638 -0.4466 -0.8924
vn 0.1644 -0.9864 0.0000
vn 0.0910 0.2275 0.9695
vn 0.0000 -0.9950 0.0996
vn 0.0000 0.0000 1.0000
vn 0.1738 -0.2386 0.9554
vn 0.0254 -0.9899 0.1397
vn -0.0573 -0.9953 -0.0782
vn -0.1724 -0.9565 -0.2351
vn -0.0924 -0.7297 -0.6775
vn -0.0409 -0.9532 -0.2997
vn 0.0719 0.9676 0.2420
vn -0.1963 -0.2746 -0.9413
vn -0.0874 0.6119 -0.7861
vn -0.3875 -0.2547 -0.8860
vn -0.3479 -0.3485 -0.8703
usemtl Shape.7719
s off
f 3//1 13//1 15//1
f 8//2 5//2 9//2
f 6//3 4//3 10//3
f 7//4 6//4 10//4
f 4//5 8//5 10//5
f 3//6 2//6 11//6
f 2//7 8//7 11//7
f 8//2 9//2 11//2
f 9//8 1//8 11//8
f 5//9 4//9 12//9
f 6//10 1//10 12//10
f 4//11 6//11 12//11
f 9//12 5//12 12//12
f 1//13 9//13 12//13
f 1//14 6//14 13//14
f 6//15 7//15 13//15
f 3//16 11//16 13//16
f 11//17 1//17 13//17
f 4//18 5//18 14//18
f 8//5 4//5 14//5
f 5//2 8//2 14//2
f 2//19 3//19 15//19
f 8//20 2//20 15//20
f 7//21 10//21 15//21
f 10//5 8//5 15//5
f 13//22 7//22 15//22
