# Blender v2.79 (sub 0) OBJ File: ''
# www.blender.org
mtllib 1288_link_0_245.mtl
o Shape_IndexedFaceSet.245_Shape_IndexedFaceSet.7857
v 0.059612 0.490859 -0.290223
v 0.076621 0.520034 -0.263514
v 0.054772 0.519891 -0.263602
v 0.071706 0.476333 -0.263602
v 0.076549 0.505369 -0.290223
v 0.054772 0.476333 -0.263602
v 0.054772 0.512630 -0.290223
v 0.076549 0.476333 -0.285379
v 0.076549 0.519891 -0.278119
v 0.054772 0.476333 -0.273283
v 0.076549 0.476333 -0.266023
vn 0.0000 -1.0000 0.0000
vn -0.0040 0.0000 1.0000
vn 0.0000 -0.0020 1.0000
vn -0.0000 0.0000 -1.0000
vn -1.0000 0.0000 0.0000
vn 0.1396 -0.1629 -0.9767
vn 1.0000 -0.0004 -0.0025
vn -0.0065 0.9999 -0.0098
vn 1.0000 0.0041 -0.0050
vn -0.1728 0.9502 -0.2592
vn 0.2088 0.6261 -0.7512
vn -0.8852 -0.1968 -0.4216
vn -0.3686 -0.6510 -0.6636
vn 0.4465 -0.0520 0.8933
vn 1.0000 -0.0016 0.0000
usemtl Shape.7868
s off
f 4//1 8//1 11//1
f 2//2 3//2 6//2
f 4//3 2//3 6//3
f 5//4 1//4 7//4
f 6//5 3//5 7//5
f 1//6 5//6 8//6
f 5//7 2//7 8//7
f 4//1 6//1 8//1
f 3//8 2//8 9//8
f 2//9 5//9 9//9
f 7//10 3//10 9//10
f 5//11 7//11 9//11
f 7//12 1//12 10//12
f 6//5 7//5 10//5
f 1//13 8//13 10//13
f 8//1 6//1 10//1
f 2//14 4//14 11//14
f 8//15 2//15 11//15
