# Blender v2.79 (sub 0) OBJ File: ''
# www.blender.org
mtllib 1288_link_0_67.mtl
o Shape_IndexedFaceSet.067_Shape_IndexedFaceSet.7679
v 0.071709 0.488438 -0.292645
v 0.023317 0.531992 -0.290223
v 0.023317 0.531992 -0.295067
v 0.001525 0.515052 -0.290223
v 0.071709 0.512630 -0.319265
v 0.071709 0.507799 -0.290223
v 0.071709 0.522309 -0.319265
v 0.001525 0.529570 -0.299909
v 0.071709 0.522309 -0.307163
v 0.001525 0.522309 -0.299909
vn -0.2659 0.0000 -0.9640
vn 0.0000 0.0000 1.0000
vn -0.0128 -0.1241 0.9922
vn 1.0000 0.0000 0.0000
vn 0.1962 0.9806 0.0000
vn -0.1105 0.9939 0.0000
vn -0.3961 0.5096 0.7638
vn -0.0141 0.9183 -0.3957
vn 0.3550 0.7100 0.6082
vn -0.3084 -0.7613 -0.5704
vn -0.2763 -0.7112 -0.6464
vn -1.0000 -0.0000 0.0000
usemtl Shape.7690
s off
f 8//1 5//1 10//1
f 2//2 4//2 6//2
f 4//3 1//3 6//3
f 1//4 5//4 6//4
f 6//4 5//4 7//4
f 3//5 2//5 7//5
f 2//6 3//6 8//6
f 4//7 2//7 8//7
f 7//1 5//1 8//1
f 3//8 7//8 8//8
f 2//9 6//9 9//9
f 6//4 7//4 9//4
f 7//5 2//5 9//5
f 1//10 4//10 10//10
f 5//11 1//11 10//11
f 4//12 8//12 10//12
