# Blender v2.79 (sub 0) OBJ File: ''
# www.blender.org
mtllib 1288_link_1_17.mtl
o Shape_IndexedFaceSet.017_Shape_IndexedFaceSet.1982
v 0.175559 0.123881 0.855245
v 0.138338 0.081332 0.594663
v 0.122383 0.155776 0.594663
v 0.133023 0.161099 0.892454
v 0.148968 0.166430 0.610656
v 0.154283 0.081332 0.833970
v 0.164918 0.081332 0.626620
v 0.159603 0.166430 0.887143
v 0.159603 0.139824 0.594663
v 0.173093 0.085277 0.830653
v 0.122383 0.166430 0.594663
v 0.138338 0.081332 0.647895
v 0.164918 0.161099 0.855245
v 0.159603 0.081332 0.844593
v 0.175559 0.118566 0.807384
vn 0.9567 0.2878 -0.0430
vn 0.0000 -1.0000 -0.0000
vn -0.0000 0.0000 -1.0000
vn 0.7404 -0.2692 -0.6159
vn -0.9994 0.0000 0.0357
vn -0.1919 0.9811 0.0244
vn 0.0000 1.0000 0.0000
vn 0.4181 0.5849 -0.6950
vn -0.9778 -0.2096 0.0000
vn -0.9823 -0.1831 0.0384
vn -0.9467 -0.3118 0.0811
vn 0.9553 0.2731 0.1135
vn 0.6315 0.7750 -0.0243
vn 0.9164 0.3970 -0.0511
vn -0.7779 -0.4930 0.3896
vn 0.5116 -0.3843 0.7685
vn 0.2592 -0.4319 0.8638
vn 0.7107 -0.4097 0.5719
vn 0.2873 -0.9578 0.0070
vn 0.9962 0.0526 -0.0695
vn 0.9976 -0.0686 0.0076
vn 0.9943 -0.1001 -0.0379
vn 0.9610 0.2748 -0.0305
usemtl Shape.1984
s off
f 9//1 13//1 15//1
f 6//2 2//2 7//2
f 2//3 3//3 9//3
f 7//4 2//4 9//4
f 3//5 4//5 11//5
f 4//6 8//6 11//6
f 8//7 5//7 11//7
f 5//8 9//8 11//8
f 9//3 3//3 11//3
f 3//9 2//9 12//9
f 4//10 3//10 12//10
f 2//2 6//2 12//2
f 6//11 4//11 12//11
f 8//12 1//12 13//12
f 5//13 8//13 13//13
f 9//14 5//14 13//14
f 4//15 6//15 14//15
f 6//2 7//2 14//2
f 1//16 8//16 14//16
f 8//17 4//17 14//17
f 10//18 1//18 14//18
f 7//19 10//19 14//19
f 7//20 9//20 15//20
f 1//21 10//21 15//21
f 10//22 7//22 15//22
f 13//23 1//23 15//23
