# Blender v2.79 (sub 0) OBJ File: ''
# www.blender.org
mtllib 1288_link_0_128.mtl
o Shape_IndexedFaceSet.128_Shape_IndexedFaceSet.7740
v -0.042901 0.737918 -0.120072
v 0.003934 0.740128 -0.137753
v 0.003934 0.737709 -0.137753
v -0.013002 0.740128 -0.161945
v -0.039614 0.740128 -0.091772
vn 0.0000 1.0000 -0.0000
vn 0.8192 0.0000 -0.5735
vn -0.0333 -0.9965 -0.0764
vn -0.1554 0.9861 -0.0590
vn 0.0239 -0.9969 0.0751
vn 0.7261 0.0000 0.6876
usemtl Shape.7751
s off
f 2//1 4//1 5//1
f 2//2 3//2 4//2
f 3//3 1//3 4//3
f 4//4 1//4 5//4
f 1//5 3//5 5//5
f 3//6 2//6 5//6
