# Blender v2.79 (sub 0) OBJ File: ''
# www.blender.org
mtllib 1288_link_0_200.mtl
o Shape_IndexedFaceSet.200_Shape_IndexedFaceSet.7812
v -0.044457 0.771591 0.116371
v 0.008785 0.774010 0.152663
v -0.008159 0.774010 0.152663
v -0.034774 0.774010 0.087319
v 0.008785 0.771591 0.123611
v -0.008159 0.771591 0.152663
vn 0.0000 -1.0000 -0.0000
vn 0.0000 1.0000 0.0000
vn -0.1116 0.9927 0.0455
vn 0.0108 -0.9968 -0.0794
vn 0.1235 0.9889 -0.0823
vn 0.1409 -0.9866 0.0822
vn -0.7070 0.0000 0.7072
vn 0.0000 0.0000 1.0000
usemtl Shape.7823
s off
f 1//1 5//1 6//1
f 3//2 2//2 4//2
f 1//3 3//3 4//3
f 1//4 4//4 5//4
f 4//5 2//5 5//5
f 5//6 2//6 6//6
f 3//7 1//7 6//7
f 2//8 3//8 6//8
