# Blender v2.79 (sub 0) OBJ File: ''
# www.blender.org
mtllib 1288_link_0_217.mtl
o Shape_IndexedFaceSet.217_Shape_IndexedFaceSet.7829
v -0.056559 0.817573 0.157503
v -0.058979 0.810313 0.053437
v -0.058979 0.812733 0.053437
v -0.056559 0.810313 0.053437
v -0.058979 0.810313 0.147816
vn 0.0000 -1.0000 0.0000
vn 0.0000 0.0000 -1.0000
vn 0.7062 0.7062 -0.0493
vn 0.9383 -0.3449 0.0241
vn -0.9518 0.3068 0.0079
vn -1.0000 0.0000 0.0000
usemtl Shape.7840
s off
f 2//1 4//1 5//1
f 2//2 3//2 4//2
f 3//3 1//3 4//3
f 4//4 1//4 5//4
f 1//5 3//5 5//5
f 3//6 2//6 5//6
