# Blender v2.79 (sub 0) OBJ File: ''
# www.blender.org
mtllib 1288_link_0_150.mtl
o Shape_IndexedFaceSet.150_Shape_IndexedFaceSet.7762
v -0.043255 0.791178 0.146688
v 0.000950 0.793348 0.185668
v -0.010584 0.793371 0.186545
v -0.056559 0.793371 0.097017
v 0.001519 0.790952 0.164757
v -0.044450 0.790952 0.097017
v 0.001519 0.793371 0.164757
v -0.025104 0.790952 0.181689
v -0.037190 0.793371 0.169595
vn -0.2937 0.8374 0.4610
vn -0.1959 -0.9806 0.0092
vn 0.8275 0.0000 -0.5615
vn 0.0021 1.0000 0.0012
vn 0.0000 1.0000 -0.0000
vn 0.9996 0.0000 0.0272
vn 0.1932 0.9671 -0.1656
vn 0.0270 -0.9247 0.3798
vn 0.0735 -0.9906 0.1155
vn -0.0222 -0.9997 0.0051
vn 0.0000 -1.0000 -0.0000
vn -0.9660 -0.0212 0.2578
vn -0.3671 -0.9117 0.1845
usemtl Shape.7773
s off
f 8//1 3//1 9//1
f 1//2 4//2 6//2
f 5//3 6//3 7//3
f 3//4 2//4 7//4
f 4//5 3//5 7//5
f 2//6 5//6 7//6
f 6//7 4//7 7//7
f 2//8 3//8 8//8
f 5//9 2//9 8//9
f 1//10 6//10 8//10
f 6//11 5//11 8//11
f 3//5 4//5 9//5
f 4//12 1//12 9//12
f 1//13 8//13 9//13
