# Blender v2.79 (sub 0) OBJ File: ''
# www.blender.org
mtllib 1288_link_0_247.mtl
o Shape_IndexedFaceSet.247_Shape_IndexedFaceSet.7859
v 0.034905 0.650861 -0.251889
v -0.035225 0.601125 -0.265529
v -0.034772 0.592504 -0.266022
v -0.034772 0.602186 -0.246661
v -0.029935 0.665092 -0.251501
v 0.040247 0.604602 -0.266022
v -0.020255 0.665092 -0.266022
v 0.025722 0.590088 -0.249081
v 0.026507 0.664999 -0.247255
v 0.028141 0.660259 -0.263602
v 0.037351 0.615189 -0.247385
v 0.030567 0.587672 -0.266022
v -0.012992 0.585239 -0.246661
v -0.035100 0.651553 -0.247185
v -0.034062 0.644170 -0.265238
v -0.027517 0.585239 -0.261182
v 0.037543 0.637635 -0.265346
v 0.037614 0.646680 -0.247319
v -0.026263 0.665748 -0.247079
vn -0.7204 0.4445 0.5323
vn -0.9982 -0.0540 0.0270
vn -0.0000 0.0000 -1.0000
vn 0.8479 0.5258 -0.0677
vn 0.1090 0.9576 -0.2668
vn 0.8356 -0.4117 0.3637
vn 0.8270 -0.4729 0.3040
vn 0.1332 -0.9751 0.1772
vn 0.0042 0.0054 1.0000
vn 0.0747 -0.1017 0.9920
vn -0.9997 -0.0064 0.0244
vn -0.5353 0.0202 -0.8444
vn -0.0812 0.0162 -0.9966
vn -0.7357 0.4671 -0.4904
vn -0.9973 0.0274 -0.0685
vn -0.9370 0.3010 -0.1770
vn -0.7666 -0.5743 0.2872
vn -0.0431 -0.5834 -0.8110
vn 0.0386 -0.9985 -0.0386
vn -0.5233 -0.6725 0.5234
vn 0.0223 0.0223 -0.9995
vn 0.8978 0.3890 -0.2063
vn 0.0598 0.1014 -0.9930
vn 0.8546 0.5183 -0.0324
vn 0.9874 -0.0086 0.1583
vn 0.0099 0.0025 0.9999
vn 0.0157 -0.0022 0.9999
vn 0.9956 0.0824 -0.0453
vn 0.9061 0.3766 -0.1925
vn -0.0984 0.9930 -0.0656
vn 0.0034 0.0061 1.0000
vn 0.0141 0.9994 -0.0301
vn -0.0287 0.0104 0.9995
usemtl Shape.7870
s off
f 5//1 14//1 19//1
f 2//2 3//2 4//2
f 6//3 3//3 7//3
f 9//4 1//4 10//4
f 7//5 9//5 10//5
f 8//6 6//6 11//6
f 3//3 6//3 12//3
f 6//7 8//7 12//7
f 12//8 8//8 13//8
f 9//9 4//9 13//9
f 8//10 11//10 13//10
f 2//11 4//11 14//11
f 3//12 2//12 15//12
f 7//13 3//13 15//13
f 5//14 7//14 15//14
f 2//15 14//15 15//15
f 14//16 5//16 15//16
f 4//17 3//17 16//17
f 3//18 12//18 16//18
f 12//19 13//19 16//19
f 13//20 4//20 16//20
f 6//21 7//21 17//21
f 10//22 1//22 17//22
f 7//23 10//23 17//23
f 1//24 9//24 18//24
f 11//25 6//25 18//25
f 9//26 13//26 18//26
f 13//27 11//27 18//27
f 6//28 17//28 18//28
f 17//29 1//29 18//29
f 7//30 5//30 19//30
f 4//31 9//31 19//31
f 9//32 7//32 19//32
f 14//33 4//33 19//33
