# Blender v2.79 (sub 0) OBJ File: ''
# www.blender.org
mtllib 1288_link_0_118.mtl
o Shape_IndexedFaceSet.118_Shape_IndexedFaceSet.7730
v 0.045086 0.594916 -0.304741
v 0.042665 0.607018 -0.290226
v 0.030569 0.607018 -0.290226
v 0.045086 0.575559 -0.290226
v 0.030569 0.604597 -0.314422
v 0.028148 0.575559 -0.297486
v 0.045086 0.607018 -0.309581
vn -0.1316 0.9864 -0.0987
vn 0.0000 0.0000 1.0000
vn -0.9969 0.0785 -0.0079
vn -0.3876 -0.1789 0.9043
vn 0.3244 -0.5675 -0.7568
vn 0.2197 -0.5051 -0.8346
vn 0.0000 1.0000 -0.0000
vn 0.9894 0.0761 0.1238
vn 1.0000 0.0000 0.0000
vn 0.3483 -0.3481 -0.8704
usemtl Shape.7741
s off
f 5//1 3//1 7//1
f 2//2 3//2 4//2
f 3//3 5//3 6//3
f 4//4 3//4 6//4
f 1//5 4//5 6//5
f 5//6 1//6 6//6
f 3//7 2//7 7//7
f 2//8 4//8 7//8
f 4//9 1//9 7//9
f 1//10 5//10 7//10
