# Blender v2.79 (sub 0) OBJ File: ''
# www.blender.org
mtllib 1288_link_0_48.mtl
o Shape_IndexedFaceSet.048_Shape_IndexedFaceSet.7660
v -0.058979 0.810311 0.104255
v -0.061399 0.795792 0.055862
v -0.058979 0.795792 0.055862
v -0.061399 0.810311 0.065545
v -0.061399 0.807891 0.104255
vn -1.0000 -0.0000 0.0000
vn 0.0000 0.5548 -0.8320
vn 0.9771 0.2036 -0.0611
vn -0.7064 0.7064 0.0442
vn 0.6917 -0.6917 0.2075
vn 0.0000 -0.9701 0.2426
usemtl Shape.7671
s off
f 4//1 2//1 5//1
f 3//2 2//2 4//2
f 1//3 3//3 4//3
f 1//4 4//4 5//4
f 3//5 1//5 5//5
f 2//6 3//6 5//6
