# Blender v2.79 (sub 0) OBJ File: ''
# www.blender.org
mtllib 1288_link_1_76.mtl
o Shape_IndexedFaceSet.076_Shape_IndexedFaceSet.2041
v -0.054659 0.023337 0.749924
v -0.026531 0.017505 0.706354
v -0.031854 0.006872 0.711681
v 0.021324 0.017505 0.743576
v 0.016001 0.022827 0.706354
v -0.010588 0.001554 0.727629
vn 0.5142 -0.8357 -0.1930
vn -0.8238 0.1368 -0.5501
vn 0.0866 0.9879 0.1289
vn -0.1214 0.9705 -0.2083
vn 0.0589 -0.4705 -0.8804
vn 0.2089 -0.8096 -0.5485
vn -0.3622 -0.9150 0.1779
vn 0.0042 -0.7112 0.7030
usemtl Shape.2043
s off
f 5//1 4//1 6//1
f 1//2 2//2 3//2
f 1//3 4//3 5//3
f 2//4 1//4 5//4
f 3//5 2//5 5//5
f 3//6 5//6 6//6
f 1//7 3//7 6//7
f 4//8 1//8 6//8
