# Blender v2.79 (sub 0) OBJ File: ''
# www.blender.org
mtllib 1288_link_0_176.mtl
o Shape_IndexedFaceSet.176_Shape_IndexedFaceSet.7788
v 0.146735 0.444866 -0.464474
v 0.161254 0.473907 -0.411230
v 0.161254 0.473907 -0.413659
v 0.134637 0.473907 -0.462045
v 0.139478 0.415837 -0.411230
v 0.161254 0.420675 -0.416077
v 0.132672 0.414365 -0.463637
v 0.149151 0.473907 -0.411230
v 0.151570 0.473907 -0.459627
v 0.132215 0.423097 -0.425756
v 0.139478 0.413415 -0.464474
v 0.158830 0.415837 -0.411230
v 0.132215 0.459386 -0.464474
v 0.156411 0.420675 -0.433016
v 0.158830 0.454542 -0.433016
vn 0.9592 -0.0685 -0.2742
vn 0.0000 1.0000 0.0000
vn 1.0000 0.0000 0.0000
vn 0.0000 0.0000 1.0000
vn -0.8127 -0.5698 0.1216
vn -0.9346 0.2352 0.2669
vn -0.8550 0.1424 0.4987
vn -0.1327 -0.9901 0.0450
vn 0.9084 -0.0379 0.4164
vn 0.0000 -0.9990 0.0454
vn 0.1400 0.1406 -0.9801
vn 0.1402 0.1402 -0.9801
vn -0.9810 0.1415 0.1326
vn -0.9999 -0.0103 -0.0097
vn 0.0000 0.0000 -1.0000
vn -0.1247 -0.0197 -0.9920
vn 0.9287 -0.0948 -0.3585
vn 0.8810 -0.2033 -0.4273
vn 0.7665 -0.6036 -0.2192
vn 0.7084 -0.6683 -0.2271
vn 0.9915 0.0059 -0.1301
vn 0.9751 0.0833 -0.2054
vn 0.9489 -0.0678 -0.3082
usemtl Shape.7799
s off
f 6//1 14//1 15//1
f 2//2 3//2 4//2
f 3//3 2//3 6//3
f 2//2 4//2 8//2
f 5//4 2//4 8//4
f 4//2 3//2 9//2
f 7//5 5//5 10//5
f 8//6 4//6 10//6
f 5//7 8//7 10//7
f 5//8 7//8 11//8
f 2//4 5//4 12//4
f 6//9 2//9 12//9
f 5//10 11//10 12//10
f 4//11 9//11 13//11
f 9//12 1//12 13//12
f 10//13 4//13 13//13
f 7//14 10//14 13//14
f 1//15 11//15 13//15
f 11//16 7//16 13//16
f 1//17 9//17 14//17
f 11//18 1//18 14//18
f 6//19 12//19 14//19
f 12//20 11//20 14//20
f 3//21 6//21 15//21
f 9//22 3//22 15//22
f 14//23 9//23 15//23
