# Blender v2.79 (sub 0) OBJ File: ''
# www.blender.org
mtllib 1288_link_0_258.mtl
o Shape_IndexedFaceSet.258_Shape_IndexedFaceSet.7870
v 0.049925 0.752230 -0.079671
v 0.059608 0.754649 0.009866
v 0.057185 0.754649 0.021975
v 0.035409 0.754649 -0.079671
v 0.045090 0.752230 0.021975
vn -0.1959 0.9797 0.0420
vn 0.0000 1.0000 0.0000
vn 0.1642 0.9854 -0.0444
vn -0.1644 -0.9864 -0.0078
vn 0.1709 -0.9852 0.0081
vn 0.1960 -0.9798 0.0392
usemtl Shape.7881
s off
f 3//1 4//1 5//1
f 3//2 2//2 4//2
f 2//3 1//3 4//3
f 4//4 1//4 5//4
f 1//5 2//5 5//5
f 2//6 3//6 5//6
