# Blender v2.79 (sub 0) OBJ File: ''
# www.blender.org
mtllib 1288_link_0_61.mtl
o Shape_IndexedFaceSet.061_Shape_IndexedFaceSet.7673
v 0.083810 0.413411 -0.524982
v 0.001525 0.420667 -0.551599
v 0.001525 0.423088 -0.551599
v 0.001525 0.418248 -0.517723
v 0.001525 0.406150 -0.539492
v 0.083810 0.420667 -0.505620
v 0.062014 0.408571 -0.505620
v 0.081385 0.423088 -0.529811
v 0.045084 0.408571 -0.539492
v 0.001525 0.408571 -0.520144
v 0.078969 0.423088 -0.508042
v 0.083810 0.408571 -0.505620
v 0.040251 0.420667 -0.546752
v 0.001525 0.423088 -0.537071
v 0.059606 0.420667 -0.505620
v 0.078969 0.408571 -0.524982
vn 0.3662 -0.3669 -0.8551
vn -1.0000 0.0000 0.0000
vn 0.9755 0.2059 -0.0772
vn 0.0356 -0.6401 -0.7675
vn -0.0298 -0.9918 0.1241
vn -0.2269 -0.2364 0.9448
vn 0.0000 1.0000 -0.0000
vn 0.4277 0.9027 0.0475
vn 1.0000 0.0000 0.0000
vn 0.0000 -0.9975 0.0713
vn 0.0000 0.0000 1.0000
vn 0.1242 0.0000 -0.9923
vn 0.3754 -0.3368 -0.8635
vn 0.1058 0.9157 -0.3877
vn 0.1090 -0.4792 -0.8709
vn -0.0906 0.9661 0.2416
vn -0.2022 -0.0403 0.9785
vn 0.0000 0.7073 0.7070
vn -0.0906 0.9661 0.2417
vn 0.0550 -0.9902 -0.1285
vn 0.6962 -0.6964 -0.1741
vn 0.0328 -0.9994 -0.0082
vn 0.3664 -0.3665 -0.8553
usemtl Shape.7684
s off
f 9//1 13//1 16//1
f 3//2 2//2 4//2
f 4//2 2//2 5//2
f 6//3 1//3 8//3
f 5//4 2//4 9//4
f 4//2 5//2 10//2
f 5//5 7//5 10//5
f 7//6 4//6 10//6
f 8//7 3//7 11//7
f 6//8 8//8 11//8
f 1//9 6//9 12//9
f 7//10 5//10 12//10
f 6//11 7//11 12//11
f 2//12 3//12 13//12
f 8//13 1//13 13//13
f 3//14 8//14 13//14
f 9//15 2//15 13//15
f 3//2 4//2 14//2
f 11//7 3//7 14//7
f 11//16 14//16 15//16
f 4//17 7//17 15//17
f 7//11 6//11 15//11
f 6//18 11//18 15//18
f 14//19 4//19 15//19
f 5//20 9//20 16//20
f 1//21 12//21 16//21
f 12//22 5//22 16//22
f 13//23 1//23 16//23
