# Blender v2.79 (sub 0) OBJ File: ''
# www.blender.org
mtllib 1288_link_0_141.mtl
o Shape_IndexedFaceSet.141_Shape_IndexedFaceSet.7753
v 0.012123 0.776294 0.154636
v -0.044011 0.774084 0.108224
v -0.046878 0.774011 0.113948
v 0.047508 0.774011 0.113948
v 0.047508 0.776430 0.106680
v -0.046878 0.776430 0.106680
v -0.008148 0.774011 0.157493
v -0.020251 0.776430 0.152658
vn -0.2864 -0.9237 0.2547
vn 0.0000 -0.9999 -0.0127
vn 0.3906 0.8734 0.2907
vn 0.0190 -0.9487 -0.3157
vn 0.0000 -0.5498 -0.8353
vn -0.5185 -0.8113 -0.2700
vn 0.0000 -1.0000 0.0000
vn 0.1341 -0.9760 0.1714
vn -0.0269 0.8654 0.5004
vn 0.0039 1.0000 0.0057
vn 0.0000 1.0000 -0.0000
vn -0.4787 0.8330 0.2773
usemtl Shape.7764
s off
f 3//1 7//1 8//1
f 3//2 2//2 4//2
f 1//3 4//3 5//3
f 4//4 2//4 5//4
f 5//5 2//5 6//5
f 2//6 3//6 6//6
f 3//7 4//7 7//7
f 4//8 1//8 7//8
f 7//9 1//9 8//9
f 1//10 5//10 8//10
f 5//11 6//11 8//11
f 6//12 3//12 8//12
