# Blender v2.79 (sub 0) OBJ File: ''
# www.blender.org
mtllib 1288_link_1_68.mtl
o Shape_IndexedFaceSet.068_Shape_IndexedFaceSet.2033
v 0.002462 0.083745 -0.401508
v 0.069192 0.139834 -0.293547
v 0.063865 0.139834 -0.293547
v -0.002639 0.147422 -0.409355
v 0.069231 0.107921 -0.410600
v 0.000049 0.123875 -0.298884
v 0.071246 0.079277 -0.368948
v 0.069192 0.150474 -0.357360
v 0.000049 0.081332 -0.373313
v 0.042735 0.080688 -0.411623
v 0.069192 0.118549 -0.298884
v 0.042586 0.150474 -0.341430
vn -0.0192 0.9993 -0.0321
vn 0.3861 0.7207 -0.5758
vn 0.9991 0.0330 -0.0256
vn 0.9996 0.0281 0.0047
vn -0.9915 -0.0908 -0.0926
vn -0.9994 -0.0310 0.0177
vn -0.0280 -0.9995 -0.0144
vn -0.2511 -0.1382 -0.9580
vn 0.0022 0.0354 -0.9994
vn 0.6475 -0.6129 -0.4528
vn -0.0986 -0.9907 -0.0932
vn 0.0000 -0.2432 0.9700
vn -0.0191 -0.2477 0.9687
vn 0.9994 -0.0085 0.0341
vn -0.0667 -0.8662 0.4951
vn -0.0550 -0.8717 0.4870
vn 0.0000 0.9762 0.2169
vn -0.2550 0.9137 0.3163
vn -0.3655 0.9085 0.2025
vn 0.0980 0.9816 0.1637
usemtl Shape.2035
s off
f 8//1 4//1 12//1
f 5//2 4//2 8//2
f 7//3 5//3 8//3
f 2//4 7//4 8//4
f 4//5 1//5 9//5
f 6//6 4//6 9//6
f 7//7 9//7 10//7
f 1//8 4//8 10//8
f 4//9 5//9 10//9
f 5//10 7//10 10//10
f 9//11 1//11 10//11
f 2//12 3//12 11//12
f 3//13 6//13 11//13
f 7//14 2//14 11//14
f 6//15 9//15 11//15
f 9//16 7//16 11//16
f 3//17 2//17 12//17
f 6//18 3//18 12//18
f 4//19 6//19 12//19
f 2//20 8//20 12//20
