# Blender v2.79 (sub 0) OBJ File: ''
# www.blender.org
mtllib 1288_link_1_64.mtl
o Shape_IndexedFaceSet.064_Shape_IndexedFaceSet.2029
v -0.058464 0.432338 -0.187175
v -0.148872 0.198341 -0.176534
v 0.000049 0.208985 -0.043572
v 0.000049 0.230298 -0.160565
v -0.106321 0.208985 -0.080808
v 0.000049 0.448317 -0.187175
v -0.148872 0.310042 -0.187175
v -0.074411 0.368499 -0.144611
v 0.000049 0.198341 -0.070181
v -0.148872 0.198341 -0.123329
v -0.116948 0.379143 -0.181833
v -0.010592 0.379143 -0.133970
v -0.031875 0.203676 -0.043572
v -0.148872 0.219629 -0.187175
v -0.063785 0.198341 -0.054213
v -0.089333 0.211371 -0.182557
v -0.063785 0.416360 -0.171192
vn -0.2236 0.5107 0.8302
vn 1.0000 0.0000 0.0000
vn 0.0000 0.0000 -1.0000
vn -1.0000 0.0000 0.0000
vn 0.0000 -1.0000 0.0000
vn -0.7732 0.3147 0.5505
vn -0.2634 0.1947 -0.9448
vn -0.5434 0.4032 0.7363
vn -0.7076 0.3275 0.6261
vn 0.6860 0.3744 0.6239
vn -0.2207 0.4677 0.8559
vn 0.1526 -0.9176 0.3671
vn -0.0772 0.4640 0.8825
vn -0.4083 0.4083 0.8165
vn -0.5453 -0.5019 0.6714
vn -0.3495 0.4225 0.8363
vn 0.0687 -0.9591 0.2747
vn 0.2606 -0.1170 -0.9583
vn 0.1820 -0.9497 -0.2549
vn 0.2711 -0.9075 -0.3209
vn 0.0074 -0.4471 -0.8945
vn 0.0709 -0.0462 -0.9964
vn -0.1981 0.7254 0.6592
vn -0.5653 0.6698 0.4814
vn -0.4942 0.5034 0.7088
vn -0.1137 0.6166 0.7790
usemtl Shape.2031
s off
f 8//1 12//1 17//1
f 3//2 4//2 6//2
f 1//3 6//3 7//3
f 4//2 3//2 9//2
f 7//4 2//4 10//4
f 2//5 9//5 10//5
f 7//6 10//6 11//6
f 1//7 7//7 11//7
f 5//8 8//8 11//8
f 10//9 5//9 11//9
f 3//10 6//10 12//10
f 12//11 8//11 13//11
f 9//12 3//12 13//12
f 3//13 12//13 13//13
f 2//4 7//4 14//4
f 7//3 6//3 14//3
f 8//14 5//14 15//14
f 5//15 10//15 15//15
f 10//5 9//5 15//5
f 13//16 8//16 15//16
f 9//17 13//17 15//17
f 6//18 4//18 16//18
f 9//19 2//19 16//19
f 4//20 9//20 16//20
f 2//21 14//21 16//21
f 14//22 6//22 16//22
f 6//23 1//23 17//23
f 1//24 11//24 17//24
f 11//25 8//25 17//25
f 12//26 6//26 17//26
