# Blender v2.79 (sub 0) OBJ File: ''
# www.blender.org
mtllib 1288_link_1_95.mtl
o Shape_IndexedFaceSet.095_Shape_IndexedFaceSet.2060
v -0.100997 0.012214 -0.048892
v -0.065426 0.151016 -0.031127
v -0.106319 0.198341 -0.075479
v -0.100997 0.193022 -0.118033
v -0.063774 0.097268 -0.070169
v -0.106700 0.016133 -0.026806
v -0.069096 -0.003765 -0.027616
v -0.063774 0.198341 -0.086118
v -0.095679 0.134505 -0.027616
v -0.085047 0.033493 -0.059531
v -0.063774 0.198341 -0.054220
v -0.106319 0.198341 -0.118033
vn 0.5145 0.5148 -0.6858
vn 0.9971 -0.0220 0.0725
vn -0.4668 -0.8836 0.0363
vn 0.6560 -0.1176 -0.7455
vn -0.9401 0.0898 0.3287
vn 0.1044 0.0201 0.9943
vn 0.0240 0.0046 0.9997
vn -0.1450 -0.3534 -0.9242
vn 0.4020 -0.2795 -0.8719
vn 0.6341 -0.3283 -0.7001
vn 0.2379 -0.5711 -0.7856
vn 0.9985 -0.0085 0.0540
vn 0.0000 1.0000 0.0000
vn 1.0000 0.0000 0.0000
vn -0.1361 0.4383 0.8885
vn -0.3839 0.5121 0.7683
vn -0.3362 -0.3364 -0.8797
vn -0.9667 -0.1129 -0.2296
vn -1.0000 0.0021 0.0000
usemtl Shape.2062
s off
f 8//1 4//1 12//1
f 5//2 2//2 7//2
f 6//3 1//3 7//3
f 5//4 4//4 8//4
f 3//5 6//5 9//5
f 7//6 2//6 9//6
f 6//7 7//7 9//7
f 1//8 4//8 10//8
f 4//9 5//9 10//9
f 5//10 7//10 10//10
f 7//11 1//11 10//11
f 2//12 5//12 11//12
f 8//13 3//13 11//13
f 5//14 8//14 11//14
f 9//15 2//15 11//15
f 3//16 9//16 11//16
f 4//17 1//17 12//17
f 1//18 6//18 12//18
f 6//19 3//19 12//19
f 3//13 8//13 12//13
