# Blender v2.79 (sub 0) OBJ File: ''
# www.blender.org
mtllib 1288_link_0_80.mtl
o Shape_IndexedFaceSet.080_Shape_IndexedFaceSet.7692
v -0.048055 0.740321 0.024115
v -0.000901 0.742549 0.089739
v -0.008163 0.742549 0.089739
v -0.044453 0.742549 -0.069990
v -0.000901 0.740128 0.063112
v -0.044453 0.740128 -0.069990
v -0.053734 0.742426 0.005546
v -0.037191 0.740128 0.065536
v -0.056548 0.740128 -0.069990
vn 0.0000 -1.0000 0.0000
vn 0.0000 1.0000 0.0000
vn 0.3152 0.9451 -0.0859
vn 0.9504 0.0000 -0.3110
vn -0.0047 1.0000 0.0011
vn 0.0000 -0.9950 0.0995
vn 0.0060 -0.9959 0.0906
vn -0.9023 -0.3615 0.2350
vn -0.1477 0.9859 0.0785
vn 0.0000 0.0000 -1.0000
vn -0.4715 -0.8807 0.0444
vn -0.1962 0.9803 -0.0225
vn -0.0390 -0.9992 0.0056
usemtl Shape.7703
s off
f 6//1 8//1 9//1
f 3//2 2//2 4//2
f 4//3 2//3 5//3
f 4//4 5//4 6//4
f 3//5 4//5 7//5
f 2//6 3//6 8//6
f 5//7 2//7 8//7
f 6//1 5//1 8//1
f 7//8 1//8 8//8
f 3//9 7//9 8//9
f 4//10 6//10 9//10
f 1//11 7//11 9//11
f 7//12 4//12 9//12
f 8//13 1//13 9//13
