# Blender v2.79 (sub 0) OBJ File: ''
# www.blender.org
mtllib 1288_link_0_243.mtl
o Shape_IndexedFaceSet.243_Shape_IndexedFaceSet.7855
v 0.016046 0.517475 -0.234564
v 0.016046 0.517475 -0.249077
v -0.025097 0.517475 -0.236985
v 0.011201 0.488436 -0.224883
v 0.016046 0.481173 -0.253918
v -0.025097 0.517475 -0.251498
v -0.025097 0.490860 -0.224883
v -0.025097 0.481173 -0.253918
v -0.003321 0.498116 -0.222462
v 0.005027 0.495236 -0.255930
v 0.007599 0.479107 -0.244925
v 0.016046 0.500529 -0.224883
v -0.025097 0.483600 -0.234564
vn -0.0965 -0.9876 0.1238
vn 0.0000 1.0000 0.0000
vn 1.0000 0.0000 0.0000
vn -1.0000 0.0000 0.0000
vn -0.0485 0.5639 0.8244
vn -0.2326 0.4026 0.8853
vn -0.0179 -0.2678 0.9633
vn 0.3301 0.1248 -0.9357
vn 0.0566 0.2683 -0.9617
vn 0.0000 -0.1416 -0.9899
vn -0.0972 0.0662 -0.9931
vn 0.5054 -0.8135 0.2878
vn 0.0000 -0.9746 -0.2239
vn 0.9010 -0.3610 0.2406
vn 0.0467 0.4955 0.8674
vn 0.1303 -0.0522 0.9901
vn -0.0533 -0.7989 0.5991
vn 0.0087 -0.9072 0.4207
usemtl Shape.7866
s off
f 8//1 11//1 13//1
f 1//2 2//2 3//2
f 2//3 1//3 5//3
f 3//2 2//2 6//2
f 3//4 6//4 7//4
f 7//4 6//4 8//4
f 1//5 3//5 9//5
f 3//6 7//6 9//6
f 7//7 4//7 9//7
f 2//8 5//8 10//8
f 6//9 2//9 10//9
f 5//10 8//10 10//10
f 8//11 6//11 10//11
f 5//12 4//12 11//12
f 8//13 5//13 11//13
f 5//3 1//3 12//3
f 4//14 5//14 12//14
f 1//15 9//15 12//15
f 9//16 4//16 12//16
f 4//17 7//17 13//17
f 7//4 8//4 13//4
f 11//18 4//18 13//18
