# Blender v2.79 (sub 0) OBJ File: ''
# www.blender.org
mtllib 1288_link_0_99.mtl
o Shape_IndexedFaceSet.099_Shape_IndexedFaceSet.7711
v 0.001519 0.515042 -0.590313
v -0.054131 0.466662 -0.541924
v -0.054131 0.473923 -0.544345
v -0.056559 0.544086 -0.590313
v 0.001519 0.553768 -0.590313
v -0.046871 0.461821 -0.561287
v -0.010584 0.461821 -0.556447
v -0.056559 0.556188 -0.578212
v -0.020266 0.553768 -0.604836
v 0.001519 0.505388 -0.570969
v -0.029930 0.461821 -0.566128
v -0.056559 0.461821 -0.556447
v 0.001519 0.556188 -0.604836
v -0.013006 0.461821 -0.566128
v -0.056559 0.556188 -0.592734
v -0.056559 0.461821 -0.541924
v 0.001519 0.498127 -0.583052
v -0.013006 0.464242 -0.554026
vn 0.2523 -0.5463 0.7987
vn 0.2039 0.3778 0.9031
vn -0.2666 -0.3485 -0.8986
vn 0.2652 0.3050 0.9147
vn 1.0000 0.0000 0.0000
vn 0.2281 0.3615 0.9040
vn 0.0000 -1.0000 0.0000
vn -0.0635 -0.3815 -0.9222
vn -0.2572 -0.3519 -0.9000
vn -0.4194 -0.3456 -0.8395
vn -1.0000 -0.0000 -0.0000
vn 0.0751 0.9836 0.1639
vn 0.0369 -0.3326 -0.9423
vn -0.3219 -0.1857 -0.9284
vn 0.0000 1.0000 0.0000
vn -0.0976 0.8782 -0.4682
vn -0.5335 0.2675 0.8024
vn -0.6513 0.2724 0.7083
vn 0.9654 -0.2234 0.1343
vn -0.0391 -0.3942 -0.9182
vn 0.8673 -0.4481 -0.2170
vn 0.0000 -0.4225 -0.9064
vn 0.2862 0.2767 0.9173
vn 0.7215 0.0301 0.6917
vn 0.2723 -0.1366 0.9525
usemtl Shape.7722
s off
f 16//1 7//1 18//1
f 3//2 5//2 8//2
f 6//3 4//3 9//3
f 3//4 2//4 10//4
f 1//5 5//5 10//5
f 5//6 3//6 10//6
f 7//7 6//7 11//7
f 9//8 1//8 11//8
f 6//9 9//9 11//9
f 4//10 6//10 12//10
f 6//7 7//7 12//7
f 8//11 4//11 12//11
f 5//5 1//5 13//5
f 8//12 5//12 13//12
f 1//13 9//13 13//13
f 7//7 11//7 14//7
f 4//11 8//11 15//11
f 9//14 4//14 15//14
f 8//15 13//15 15//15
f 13//16 9//16 15//16
f 2//17 3//17 16//17
f 3//18 8//18 16//18
f 12//7 7//7 16//7
f 8//11 12//11 16//11
f 1//5 10//5 17//5
f 10//19 7//19 17//19
f 11//20 1//20 17//20
f 7//21 14//21 17//21
f 14//22 11//22 17//22
f 10//23 2//23 18//23
f 7//24 10//24 18//24
f 2//25 16//25 18//25
