# Blender v2.79 (sub 0) OBJ File: ''
# www.blender.org
mtllib 1288_link_0_86.mtl
o Shape_IndexedFaceSet.086_Shape_IndexedFaceSet.7698
v -0.058979 0.817573 0.128456
v -0.061399 0.810313 0.067958
v -0.058979 0.810313 0.067958
v -0.061399 0.817573 0.072808
v -0.061399 0.810313 0.109091
vn -1.0000 0.0000 0.0000
vn 0.0000 0.5555 -0.8315
vn 0.9394 0.3404 -0.0409
vn -0.9763 0.2122 0.0425
vn 0.8966 -0.4396 0.0528
vn 0.0000 -1.0000 0.0000
usemtl Shape.7709
s off
f 4//1 2//1 5//1
f 3//2 2//2 4//2
f 1//3 3//3 4//3
f 1//4 4//4 5//4
f 3//5 1//5 5//5
f 2//6 3//6 5//6
