# Blender v2.79 (sub 0) OBJ File: ''
# www.blender.org
mtllib 1288_link_0_45.mtl
o Shape_IndexedFaceSet.045_Shape_IndexedFaceSet.7657
v 0.025730 0.604600 -0.200674
v 0.052345 0.662684 -0.164387
v 0.054765 0.662684 -0.171647
v 0.037831 0.662684 -0.222459
v 0.023309 0.636059 -0.164387
v 0.052345 0.633642 -0.212772
v 0.037831 0.626382 -0.164387
v 0.023309 0.607022 -0.222459
v 0.052345 0.662684 -0.222459
v 0.040243 0.662684 -0.164387
v 0.023309 0.626382 -0.222459
v 0.023309 0.616711 -0.166803
v 0.040243 0.614289 -0.195831
v 0.049924 0.643313 -0.166803
v 0.045083 0.628804 -0.222459
v 0.025730 0.604600 -0.188582
v 0.054765 0.648152 -0.217610
vn 0.6525 -0.1399 -0.7448
vn 0.0000 1.0000 0.0000
vn 0.0000 0.0000 1.0000
vn 0.0000 0.0000 -1.0000
vn -0.8433 0.5363 0.0350
vn -0.9267 0.3707 -0.0618
vn -1.0000 -0.0000 0.0000
vn -0.0823 -0.1235 0.9889
vn 0.5836 -0.7974 -0.1535
vn 0.9371 -0.1561 0.3124
vn 0.9710 -0.2184 0.0971
vn 0.4077 -0.1630 0.8984
vn 0.8896 -0.4352 0.1384
vn 0.8018 -0.5346 0.2671
vn 0.7278 -0.6490 -0.2215
vn 0.6850 -0.6848 -0.2488
vn -0.7073 -0.7070 0.0000
vn 0.4319 -0.7670 0.4745
vn -0.9590 -0.2791 0.0486
vn 0.6314 -0.7063 0.3201
vn 0.5552 -0.8317 0.0000
vn 0.9877 -0.1490 0.0471
vn 0.9877 0.1488 -0.0470
vn 0.8293 -0.2963 -0.4737
usemtl Shape.7668
s off
f 15//1 9//1 17//1
f 2//2 3//2 4//2
f 2//3 5//3 7//3
f 4//2 3//2 9//2
f 8//4 4//4 9//4
f 2//2 4//2 10//2
f 4//5 5//5 10//5
f 5//3 2//3 10//3
f 5//6 4//6 11//6
f 8//7 5//7 11//7
f 4//4 8//4 11//4
f 7//8 5//8 12//8
f 5//7 8//7 12//7
f 1//9 8//9 13//9
f 3//10 2//10 14//10
f 6//11 3//11 14//11
f 2//12 7//12 14//12
f 13//13 6//13 14//13
f 7//14 13//14 14//14
f 8//4 9//4 15//4
f 6//15 13//15 15//15
f 13//16 8//16 15//16
f 8//17 1//17 16//17
f 7//18 12//18 16//18
f 12//19 8//19 16//19
f 13//20 7//20 16//20
f 1//21 13//21 16//21
f 3//22 6//22 17//22
f 9//23 3//23 17//23
f 6//24 15//24 17//24
