# Blender v2.79 (sub 0) OBJ File: ''
# www.blender.org
mtllib 1288_link_0_282.mtl
o Shape_IndexedFaceSet.282_Shape_IndexedFaceSet.7894
v 0.028311 0.774175 -0.081838
v 0.057188 0.776430 0.000194
v 0.057188 0.774011 0.000194
v 0.001525 0.776430 -0.074818
v 0.037824 0.776430 -0.074818
v 0.001525 0.774011 -0.074818
vn -0.2535 0.0000 -0.9673
vn -0.8031 0.0000 0.5959
vn 0.0000 0.9521 -0.3058
vn 0.3049 -0.9461 -0.1092
vn 0.9683 0.0000 -0.2500
vn 0.0000 1.0000 0.0000
vn 0.0051 -1.0000 -0.0038
usemtl Shape.7905
s off
f 4//1 1//1 6//1
f 3//2 2//2 4//2
f 1//3 4//3 5//3
f 3//4 1//4 5//4
f 2//5 3//5 5//5
f 4//6 2//6 5//6
f 1//7 3//7 6//7
f 3//2 4//2 6//2
