# Blender v2.79 (sub 0) OBJ File: ''
# www.blender.org
mtllib 1288_link_1_104.mtl
o Shape_IndexedFaceSet.104_Shape_IndexedFaceSet.2069
v 0.021324 0.107921 0.823364
v -0.026537 0.081335 0.775496
v -0.042500 0.081335 0.786136
v 0.021324 0.081335 0.828681
v -0.042500 0.091973 0.839320
v 0.021324 0.113240 0.780825
v -0.037177 0.107921 0.807408
v 0.021324 0.081335 0.780825
vn 1.0000 0.0000 0.0000
vn 0.0000 -1.0000 -0.0000
vn 0.1925 0.1924 0.9622
vn -0.1296 -0.9723 0.1945
vn -0.0338 0.9917 0.1240
vn -0.4380 0.6135 -0.6571
vn -0.1168 0.8960 0.4283
vn -0.9717 0.2316 -0.0463
vn -0.3616 0.6535 -0.6650
vn 0.1107 0.0000 -0.9939
usemtl Shape.2071
s off
f 6//1 4//1 8//1
f 3//2 2//2 4//2
f 4//3 1//3 5//3
f 3//4 4//4 5//4
f 1//1 4//1 6//1
f 1//5 6//5 7//5
f 2//6 3//6 7//6
f 5//7 1//7 7//7
f 3//8 5//8 7//8
f 6//9 2//9 7//9
f 4//2 2//2 8//2
f 2//10 6//10 8//10
