# Blender v2.79 (sub 0) OBJ File: ''
# www.blender.org
mtllib 1288_link_0_94.mtl
o Shape_IndexedFaceSet.094_Shape_IndexedFaceSet.7706
v 0.064449 0.834521 0.130886
v 0.040250 0.829680 0.179284
v 0.047509 0.832101 0.176859
v 0.037830 0.887751 0.130886
v 0.057184 0.868388 0.152669
v 0.052345 0.824840 0.130886
v 0.059605 0.824840 0.167180
v 0.037830 0.824840 0.164759
v 0.037830 0.878070 0.152669
v 0.054766 0.873229 0.130886
v 0.037830 0.870808 0.130886
v 0.062025 0.858706 0.147828
v 0.062025 0.839362 0.162339
v 0.052345 0.851464 0.167180
v 0.040250 0.887751 0.142991
vn 0.7337 0.6760 0.0688
vn 0.0000 0.0000 -1.0000
vn 0.4087 -0.4076 0.8166
vn 0.6198 -0.7749 -0.1240
vn 0.0000 -1.0000 0.0000
vn -0.0357 -0.9463 0.3213
vn -1.0000 0.0000 0.0000
vn -0.9876 0.0347 0.1530
vn -0.8827 -0.2787 -0.3783
vn 0.9498 0.2376 -0.2033
vn 0.8944 0.4472 0.0001
vn 0.6668 0.1333 0.7333
vn 0.9865 -0.1323 0.0964
vn 0.9963 0.0516 0.0688
vn 0.8944 0.2684 0.3577
vn 0.1640 0.4080 0.8981
vn 0.0081 0.4822 0.8760
vn 0.2875 0.5747 0.7662
vn 0.6361 0.2120 0.7419
vn 0.7157 0.3253 0.6180
vn -0.8972 0.4036 0.1794
vn 0.3153 0.6303 0.7094
vn 0.6455 0.7528 -0.1290
usemtl Shape.7717
s off
f 5//1 10//1 15//1
f 4//2 1//2 6//2
f 3//3 2//3 7//3
f 6//4 1//4 7//4
f 6//5 7//5 8//5
f 7//6 2//6 8//6
f 4//7 8//7 9//7
f 8//8 2//8 9//8
f 1//2 4//2 10//2
f 4//2 6//2 11//2
f 6//9 8//9 11//9
f 8//7 4//7 11//7
f 1//10 10//10 12//10
f 10//11 5//11 12//11
f 3//12 7//12 13//12
f 7//13 1//13 13//13
f 1//14 12//14 13//14
f 12//15 5//15 13//15
f 2//16 3//16 14//16
f 9//17 2//17 14//17
f 5//18 9//18 14//18
f 3//19 13//19 14//19
f 13//20 5//20 14//20
f 4//21 9//21 15//21
f 9//22 5//22 15//22
f 10//23 4//23 15//23
