# Blender v2.79 (sub 0) OBJ File: ''
# www.blender.org
mtllib 1288_link_0_276.mtl
o Shape_IndexedFaceSet.276_Shape_IndexedFaceSet.7888
v -0.038687 0.769402 -0.075025
v -0.013000 0.771590 -0.074822
v -0.044454 0.771590 -0.009502
v -0.044454 0.771590 -0.069980
v -0.057260 0.769131 -0.005517
v -0.013000 0.769170 -0.074822
vn -0.0090 -0.9999 -0.0063
vn 0.0000 1.0000 0.0000
vn -0.0715 0.8827 -0.4645
vn -0.4436 -0.8879 -0.1220
vn -0.1886 0.9821 0.0000
vn 0.2303 -0.9620 0.1466
vn 0.0079 0.0000 -1.0000
vn 0.9010 0.0000 0.4338
usemtl Shape.7899
s off
f 5//1 1//1 6//1
f 3//2 2//2 4//2
f 2//3 1//3 4//3
f 4//4 1//4 5//4
f 3//5 4//5 5//5
f 3//6 5//6 6//6
f 1//7 2//7 6//7
f 2//8 3//8 6//8
