# Blender v2.79 (sub 0) OBJ File: ''
# www.blender.org
mtllib 1288_link_0_189.mtl
o Shape_IndexedFaceSet.189_Shape_IndexedFaceSet.7801
v 0.047508 0.747389 -0.091772
v -0.005719 0.744969 -0.152275
v -0.025097 0.744969 -0.142592
v -0.005719 0.747389 -0.152275
v -0.046647 0.747322 -0.093428
v 0.047485 0.744970 -0.091786
v -0.047856 0.745005 -0.092673
v 0.035407 0.744969 -0.130486
vn 0.9546 -0.0074 -0.2979
vn -0.4470 0.0000 -0.8945
vn -0.0007 1.0000 0.0006
vn -0.1856 0.9742 -0.1280
vn -0.0093 -0.0057 0.9999
vn -0.0169 0.3177 0.9480
vn -0.8615 0.3215 -0.3930
vn -0.0004 -1.0000 0.0006
vn 0.0000 -1.0000 0.0000
vn 0.4682 0.0000 -0.8836
vn 0.1090 0.9894 -0.0959
usemtl Shape.7812
s off
f 1//1 6//1 8//1
f 2//2 3//2 4//2
f 1//3 4//3 5//3
f 4//4 3//4 5//4
f 6//5 1//5 7//5
f 1//6 5//6 7//6
f 5//7 3//7 7//7
f 3//8 6//8 7//8
f 3//9 2//9 8//9
f 2//10 4//10 8//10
f 4//11 1//11 8//11
f 6//9 3//9 8//9
