# Blender v2.79 (sub 0) OBJ File: ''
# www.blender.org
mtllib 1288_link_0_210.mtl
o Shape_IndexedFaceSet.210_Shape_IndexedFaceSet.7822
v -0.037188 0.788532 -0.050629
v 0.003939 0.790951 -0.048201
v -0.044448 0.790951 0.017135
v -0.032350 0.790951 -0.057886
v 0.003939 0.788532 -0.048201
v -0.056559 0.788532 0.017135
v 0.003939 0.788532 -0.072410
vn 1.0000 0.0000 0.0000
vn 0.0000 1.0000 0.0000
vn 0.8036 0.0000 0.5951
vn -0.1958 0.9801 -0.0316
vn -0.6473 0.7395 -0.1850
vn 0.0000 -1.0000 0.0000
vn 0.1927 -0.9649 0.1785
vn 0.0265 0.9947 -0.0994
vn -0.2357 -0.8639 -0.4451
usemtl Shape.7833
s off
f 2//1 5//1 7//1
f 3//2 2//2 4//2
f 2//3 3//3 5//3
f 3//4 4//4 6//4
f 4//5 1//5 6//5
f 1//6 5//6 6//6
f 5//7 3//7 6//7
f 4//8 2//8 7//8
f 1//9 4//9 7//9
f 5//6 1//6 7//6
