# Blender v2.79 (sub 0) OBJ File: ''
# www.blender.org
mtllib 1288_link_0_261.mtl
o Shape_IndexedFaceSet.261_Shape_IndexedFaceSet.7873
v 0.011213 0.754650 0.118781
v 0.056736 0.756949 0.018227
v 0.052342 0.757069 0.060664
v 0.001525 0.757069 0.092130
v 0.037821 0.754650 -0.062730
v 0.037821 0.757069 -0.062730
v 0.057449 0.754739 -0.013403
v 0.040238 0.754650 0.092130
v 0.001525 0.754650 0.092130
v 0.028150 0.757069 0.109098
v 0.054764 0.757069 -0.062730
vn 0.1411 -0.9885 -0.0544
vn 0.0000 1.0000 0.0000
vn -0.9736 0.0000 -0.2282
vn 0.6361 -0.7686 0.0680
vn 0.0000 -1.0000 0.0000
vn 0.3241 -0.9446 0.0521
vn 0.0047 -1.0000 -0.0001
vn -0.9398 0.0000 0.3416
vn -0.0746 0.9903 0.1170
vn 0.3303 -0.8727 0.3597
vn 0.5361 0.8006 0.2677
vn 0.0337 0.9994 0.0007
vn 0.0000 0.0000 -1.0000
vn 0.8355 0.5492 -0.0195
usemtl Shape.7884
s off
f 7//1 5//1 11//1
f 4//2 3//2 6//2
f 5//3 4//3 6//3
f 2//4 3//4 7//4
f 1//5 5//5 8//5
f 7//6 3//6 8//6
f 5//7 7//7 8//7
f 1//8 4//8 9//8
f 5//5 1//5 9//5
f 4//3 5//3 9//3
f 3//2 4//2 10//2
f 4//9 1//9 10//9
f 1//10 8//10 10//10
f 8//11 3//11 10//11
f 3//12 2//12 11//12
f 5//13 6//13 11//13
f 6//2 3//2 11//2
f 2//14 7//14 11//14
