# Blender v2.79 (sub 0) OBJ File: ''
# www.blender.org
mtllib 1288_link_0_102.mtl
o Shape_IndexedFaceSet.102_Shape_IndexedFaceSet.7714
v -0.138843 0.626374 -0.493523
v -0.131583 0.585239 -0.532231
v -0.129163 0.585239 -0.532231
v -0.138843 0.585239 -0.474160
v -0.129163 0.633642 -0.474160
v -0.148524 0.631221 -0.474160
v -0.148524 0.585239 -0.483842
v -0.138843 0.607024 -0.524970
v -0.129163 0.604603 -0.534651
v -0.129163 0.585239 -0.508027
v -0.146104 0.616695 -0.503205
v -0.141264 0.585239 -0.517709
v -0.129163 0.619116 -0.474160
v -0.148524 0.585239 -0.474160
vn -1.0000 0.0000 0.0000
vn 0.0000 -1.0000 0.0000
vn -0.1185 0.9477 -0.2965
vn 0.0000 0.0000 1.0000
vn 0.0000 -0.1240 -0.9923
vn 0.1855 0.8859 -0.4253
vn 1.0000 0.0000 0.0000
vn -0.7071 0.0000 -0.7071
vn -0.2971 0.8132 -0.5004
vn -0.4650 0.7757 -0.4267
vn -0.9955 0.0195 -0.0927
vn -0.4001 0.7806 -0.4803
vn -0.9486 -0.0000 -0.3164
vn -0.8285 -0.0920 -0.5523
vn -0.9764 -0.0537 -0.2093
vn 0.9271 -0.2649 0.2650
usemtl Shape.7725
s off
f 6//1 7//1 14//1
f 2//2 3//2 4//2
f 5//3 1//3 6//3
f 4//4 5//4 6//4
f 2//2 4//2 7//2
f 3//5 2//5 9//5
f 1//6 5//6 9//6
f 5//7 3//7 9//7
f 2//8 8//8 9//8
f 8//9 1//9 9//9
f 4//2 3//2 10//2
f 3//7 5//7 10//7
f 6//10 1//10 11//10
f 7//11 6//11 11//11
f 1//12 8//12 11//12
f 11//13 8//13 12//13
f 2//2 7//2 12//2
f 8//14 2//14 12//14
f 7//15 11//15 12//15
f 5//4 4//4 13//4
f 4//16 10//16 13//16
f 10//7 5//7 13//7
f 4//4 6//4 14//4
f 7//2 4//2 14//2
