# Blender v2.79 (sub 0) OBJ File: ''
# www.blender.org
mtllib 1288_link_1_36.mtl
o Shape_IndexedFaceSet.036_Shape_IndexedFaceSet.2001
v -0.186098 0.171728 -0.187175
v -0.148872 -0.024994 -0.032950
v -0.154197 -0.024994 -0.032950
v -0.186098 -0.040964 -0.187175
v -0.144302 0.209539 -0.199224
v -0.202052 -0.040964 -0.112704
v -0.154197 0.278074 -0.171203
v -0.145872 -0.058146 -0.060227
v -0.175470 0.060102 -0.086134
v -0.207365 -0.040964 -0.187175
v -0.148872 0.070727 -0.059549
v -0.148872 0.294044 -0.187175
v -0.180779 -0.040964 -0.059549
v -0.202052 0.033508 -0.149932
v -0.191412 0.060102 -0.123332
v -0.154197 0.070727 -0.059549
v -0.170151 0.235542 -0.176517
v -0.202052 0.065415 -0.187175
vn -0.9978 0.0498 0.0427
vn -0.0000 -0.6354 0.7722
vn 0.9324 -0.1709 -0.3186
vn 0.0000 -0.0480 -0.9988
vn 0.0000 -0.9910 -0.1341
vn -0.3113 -0.9500 0.0222
vn 0.0000 0.2677 0.9635
vn 0.9964 0.0228 0.0819
vn 0.9982 0.0229 0.0555
vn -0.3673 0.1118 -0.9234
vn 0.9962 0.0431 0.0754
vn 0.7448 0.3311 0.5794
vn -0.3062 -0.6495 0.6960
vn -0.4323 -0.8850 0.1730
vn -0.9968 0.0356 0.0711
vn -0.9198 0.1356 0.3681
vn -0.9087 0.1502 0.3895
vn -0.9617 0.1691 0.2156
vn -0.9583 0.1278 0.2556
vn -0.8008 0.2840 0.5273
vn 0.0000 0.4741 0.8805
vn -0.7474 0.1779 0.6401
vn -0.8022 0.1909 0.5656
vn -0.8498 0.2616 0.4577
vn -0.9133 0.2780 -0.2977
vn -0.9372 0.3472 0.0347
vn -0.9463 0.1932 0.2591
vn -0.8956 0.2249 0.3838
vn -0.3161 0.0474 -0.9475
vn -0.2318 0.0116 -0.9727
vn -0.9810 0.1472 0.1261
usemtl Shape.2003
s off
f 10//1 14//1 18//1
f 2//2 3//2 8//2
f 4//3 5//3 8//3
f 5//4 4//4 10//4
f 4//5 8//5 10//5
f 8//6 6//6 10//6
f 3//7 2//7 11//7
f 2//8 8//8 11//8
f 8//9 5//9 11//9
f 5//10 1//10 12//10
f 11//11 5//11 12//11
f 7//12 11//12 12//12
f 8//13 3//13 13//13
f 6//14 8//14 13//14
f 10//15 6//15 14//15
f 6//16 13//16 15//16
f 13//17 9//17 15//17
f 1//18 14//18 15//18
f 14//19 6//19 15//19
f 7//20 9//20 16//20
f 3//7 11//7 16//7
f 11//21 7//21 16//21
f 13//22 3//22 16//22
f 9//23 13//23 16//23
f 9//24 7//24 17//24
f 12//25 1//25 17//25
f 7//26 12//26 17//26
f 1//27 15//27 17//27
f 15//28 9//28 17//28
f 1//29 5//29 18//29
f 5//30 10//30 18//30
f 14//31 1//31 18//31
