# Blender v2.79 (sub 0) OBJ File: ''
# www.blender.org
mtllib 1288_link_0_299.mtl
o Shape_IndexedFaceSet.299_Shape_IndexedFaceSet.7911
v -0.051471 0.810197 0.029052
v 0.057177 0.810313 0.152646
v 0.054220 0.810184 0.036148
v -0.042023 0.805472 0.179277
v 0.030560 0.805472 -0.026426
v 0.045073 0.805472 0.179277
v -0.051698 0.810313 0.169589
v -0.051698 0.805472 0.009916
v -0.010569 0.810313 -0.038525
v 0.057177 0.805472 0.029247
v 0.010933 0.810246 0.185761
v 0.040235 0.810313 -0.011894
v -0.054128 0.805472 0.159901
v -0.022662 0.807892 -0.036091
v 0.018456 0.805472 -0.038525
v -0.037186 0.810313 -0.016738
v 0.054381 0.805594 0.141744
vn 0.0194 -0.9998 0.0016
vn 0.0000 -1.0000 0.0000
vn 0.0000 1.0000 0.0000
vn 0.8322 0.5541 -0.0217
vn 0.1813 0.9498 0.2550
vn 0.0000 -0.8053 0.5929
vn 0.0004 1.0000 0.0026
vn -0.1417 0.8217 0.5521
vn 0.0143 0.9999 -0.0015
vn 0.6765 0.7102 -0.1950
vn 0.8043 -0.4531 -0.3845
vn -0.8923 0.4515 -0.0018
vn -0.7161 -0.5358 0.4474
vn -0.9935 0.1129 -0.0161
vn -0.0799 -0.4793 -0.8740
vn 0.1570 0.9411 -0.2994
vn 0.5764 0.5790 -0.5766
vn -0.0640 -0.9936 -0.0926
vn -0.0108 0.9999 -0.0008
vn -0.5997 0.7785 -0.1851
vn -0.7264 -0.4879 -0.4841
vn -0.2448 0.9223 -0.2991
vn 0.6458 -0.7470 0.1577
vn 0.8377 -0.5458 0.0214
usemtl Shape.7922
s off
f 6//1 10//1 17//1
f 4//2 5//2 6//2
f 5//2 4//2 8//2
f 7//3 2//3 9//3
f 3//4 2//4 10//4
f 6//2 5//2 10//2
f 6//5 2//5 11//5
f 4//6 6//6 11//6
f 2//7 7//7 11//7
f 7//8 4//8 11//8
f 2//9 3//9 12//9
f 9//3 2//3 12//3
f 3//10 10//10 12//10
f 10//11 5//11 12//11
f 7//12 1//12 13//12
f 4//13 7//13 13//13
f 1//14 8//14 13//14
f 8//2 4//2 13//2
f 14//15 9//15 15//15
f 5//2 8//2 15//2
f 9//16 12//16 15//16
f 12//17 5//17 15//17
f 8//18 14//18 15//18
f 1//19 7//19 16//19
f 8//20 1//20 16//20
f 7//3 9//3 16//3
f 14//21 8//21 16//21
f 9//22 14//22 16//22
f 2//23 6//23 17//23
f 10//24 2//24 17//24
