# Blender v2.79 (sub 0) OBJ File: ''
# www.blender.org
mtllib 1288_link_0_271.mtl
o Shape_IndexedFaceSet.271_Shape_IndexedFaceSet.7883
v 0.035402 0.764330 0.118759
v 0.059608 0.766750 0.038931
v 0.059608 0.764330 0.038931
v -0.003315 0.766750 0.111505
v 0.047505 0.764330 -0.002213
v -0.003315 0.764330 0.111505
v 0.025738 0.766750 0.130861
v 0.047505 0.766750 -0.002213
v -0.003315 0.764330 0.138128
vn -0.0602 0.9941 0.0904
vn 0.9570 0.0000 0.2902
vn 0.0000 -1.0000 -0.0000
vn 0.9594 0.0000 -0.2822
vn -0.9130 0.0000 -0.4080
vn 0.4166 0.8960 0.1535
vn 0.0000 1.0000 -0.0000
vn -1.0000 0.0000 0.0000
vn 0.1561 -0.9372 0.3121
usemtl Shape.7894
s off
f 7//1 4//1 9//1
f 3//2 2//2 1//2
f 3//3 1//3 5//3
f 2//4 3//4 5//4
f 5//3 1//3 6//3
f 4//5 5//5 6//5
f 1//6 2//6 7//6
f 2//7 4//7 7//7
f 4//7 2//7 8//7
f 5//5 4//5 8//5
f 2//4 5//4 8//4
f 6//3 1//3 9//3
f 4//8 6//8 9//8
f 1//9 7//9 9//9
