# Blender v2.79 (sub 0) OBJ File: ''
# www.blender.org
mtllib 1288_link_0_76.mtl
o Shape_IndexedFaceSet.076_Shape_IndexedFaceSet.7688
v -0.039618 0.604600 -0.266022
v -0.037197 0.645739 -0.246661
v -0.039618 0.645739 -0.246661
v -0.037197 0.638478 -0.266022
v -0.037197 0.614285 -0.246661
vn 1.0000 0.0000 0.0000
vn 0.0000 0.9363 -0.3512
vn -0.9862 0.0705 -0.1498
vn 0.9935 -0.0710 -0.0887
vn -0.9841 -0.0757 0.1609
vn 0.0000 0.0000 1.0000
usemtl Shape.7699
s off
f 4//1 2//1 5//1
f 3//2 2//2 4//2
f 1//3 3//3 4//3
f 1//4 4//4 5//4
f 3//5 1//5 5//5
f 2//6 3//6 5//6
