# Blender v2.79 (sub 0) OBJ File: ''
# www.blender.org
mtllib 1288_link_0_240.mtl
o Shape_IndexedFaceSet.240_Shape_IndexedFaceSet.7852
v -0.037197 0.490860 -0.258761
v -0.056559 0.481173 -0.273282
v -0.056559 0.481173 -0.258761
v -0.056559 0.517475 -0.263602
v -0.037197 0.505372 -0.273282
v -0.039264 0.518360 -0.253449
v -0.037197 0.481173 -0.270860
v -0.055401 0.500739 -0.252235
v -0.037197 0.481173 -0.256341
vn -0.1180 -0.3079 0.9441
vn -1.0000 0.0000 0.0000
vn -0.3065 0.2452 -0.9197
vn 0.9961 0.0628 0.0627
vn 0.2577 0.8204 -0.5104
vn 0.0000 -1.0000 0.0000
vn 1.0000 0.0000 0.0000
vn 0.1235 -0.0988 -0.9874
vn -0.9919 0.0168 0.1257
vn -0.4633 0.4758 0.7477
vn 0.1489 -0.0684 0.9865
vn 0.9850 0.0418 0.1671
usemtl Shape.7863
s off
f 8//1 3//1 9//1
f 2//2 3//2 4//2
f 2//3 4//3 5//3
f 1//4 5//4 6//4
f 5//5 4//5 6//5
f 3//6 2//6 7//6
f 5//7 1//7 7//7
f 2//8 5//8 7//8
f 4//9 3//9 8//9
f 6//10 4//10 8//10
f 6//11 8//11 9//11
f 1//12 6//12 9//12
f 7//7 1//7 9//7
f 3//6 7//6 9//6
