# Blender v2.79 (sub 0) OBJ File: ''
# www.blender.org
mtllib 1288_link_0_239.mtl
o Shape_IndexedFaceSet.239_Shape_IndexedFaceSet.7851
v 0.124954 0.420680 -0.326521
v 0.132211 0.483593 -0.290223
v 0.134630 0.483593 -0.292647
v 0.120113 0.476321 -0.331362
v 0.137053 0.483593 -0.331362
v 0.137053 0.420680 -0.331362
v 0.120113 0.437615 -0.295068
v 0.137053 0.456962 -0.290223
v 0.120113 0.483593 -0.290223
v 0.120113 0.435198 -0.331362
v 0.127374 0.430356 -0.304748
vn 0.4183 -0.5477 0.7245
vn 0.0000 1.0000 -0.0000
vn 0.0000 0.0000 -1.0000
vn 0.7020 0.1276 0.7006
vn 0.9934 0.0960 0.0622
vn 1.0000 0.0000 0.0000
vn -0.3894 0.9070 -0.1603
vn -1.0000 -0.0000 0.0000
vn -0.1626 -0.1034 0.9813
vn 0.0000 0.0000 1.0000
vn -0.3408 -0.3977 -0.8519
vn -0.9505 -0.3101 0.0206
vn 0.1548 -0.9091 0.3868
vn -0.3042 -0.8575 0.4149
vn 0.7303 -0.5124 0.4519
usemtl Shape.7862
s off
f 8//1 7//1 11//1
f 2//2 3//2 5//2
f 4//3 5//3 6//3
f 3//4 2//4 8//4
f 5//5 3//5 8//5
f 6//6 5//6 8//6
f 5//7 4//7 9//7
f 2//2 5//2 9//2
f 4//8 7//8 9//8
f 7//9 8//9 9//9
f 8//10 2//10 9//10
f 6//11 1//11 10//11
f 4//3 6//3 10//3
f 7//8 4//8 10//8
f 1//12 7//12 10//12
f 1//13 6//13 11//13
f 7//14 1//14 11//14
f 6//15 8//15 11//15
