# Blender v2.79 (sub 0) OBJ File: ''
# www.blender.org
mtllib 1288_link_0_173.mtl
o Shape_IndexedFaceSet.173_Shape_IndexedFaceSet.7785
v 0.001521 0.660259 -0.331362
v -0.042038 0.609446 -0.309588
v -0.042038 0.609446 -0.307167
v -0.042038 0.660259 -0.338623
v -0.017841 0.645739 -0.307167
v -0.000901 0.626388 -0.326521
v 0.001521 0.631228 -0.307167
v -0.039612 0.660259 -0.321690
v 0.001521 0.660259 -0.316849
v -0.027511 0.609446 -0.316849
v -0.042038 0.633646 -0.307167
v -0.034772 0.611868 -0.319269
vn 0.0759 -0.5816 -0.8099
vn -1.0000 0.0000 0.0000
vn 0.1625 -0.1510 -0.9751
vn 0.9910 -0.0855 -0.1026
vn 0.0000 0.0000 1.0000
vn 0.0000 1.0000 -0.0000
vn -0.0905 0.6332 0.7687
vn 1.0000 0.0000 0.0000
vn 0.2307 0.3078 0.9230
vn 0.0000 -1.0000 0.0000
vn 0.5662 -0.8136 0.1326
vn 0.3714 -0.7427 0.5572
vn -0.9763 0.1653 0.1399
vn -0.2408 0.4818 0.8426
vn -0.7041 -0.3523 -0.6166
vn -0.0371 -0.3759 -0.9259
vn -0.1827 -0.9127 -0.3654
usemtl Shape.7796
s off
f 6//1 10//1 12//1
f 2//2 3//2 4//2
f 4//3 1//3 6//3
f 6//4 1//4 7//4
f 5//5 3//5 7//5
f 1//6 4//6 8//6
f 8//7 5//7 9//7
f 7//8 1//8 9//8
f 5//9 7//9 9//9
f 1//6 8//6 9//6
f 3//10 2//10 10//10
f 6//11 7//11 10//11
f 7//12 3//12 10//12
f 4//2 3//2 11//2
f 3//5 5//5 11//5
f 8//13 4//13 11//13
f 5//14 8//14 11//14
f 2//15 4//15 12//15
f 4//16 6//16 12//16
f 10//17 2//17 12//17
