# Blender v2.79 (sub 0) OBJ File: ''
# www.blender.org
mtllib 1288_link_0_73.mtl
o Shape_IndexedFaceSet.073_Shape_IndexedFaceSet.7685
v -0.075925 0.456970 -0.278120
v -0.107382 0.442453 -0.290220
v -0.107382 0.449710 -0.290220
v -0.073504 0.456970 -0.256345
v -0.092859 0.442453 -0.290220
v -0.102537 0.456970 -0.290220
vn -0.0000 0.0000 -1.0000
vn -0.7071 0.0000 0.7071
vn 0.6796 -0.7297 -0.0756
vn 0.0000 -0.9192 0.3939
vn -0.6773 0.4520 0.5805
vn 0.0000 1.0000 0.0000
vn 0.3990 0.2660 -0.8775
usemtl Shape.7696
s off
f 5//1 3//1 6//1
f 3//2 2//2 4//2
f 1//3 4//3 5//3
f 2//1 3//1 5//1
f 4//4 2//4 5//4
f 3//5 4//5 6//5
f 4//6 1//6 6//6
f 1//7 5//7 6//7
