# Blender v2.79 (sub 0) OBJ File: ''
# www.blender.org
mtllib 1288_link_0_270.mtl
o Shape_IndexedFaceSet.270_Shape_IndexedFaceSet.7882
v -0.042033 0.764330 0.106670
v -0.003315 0.766750 0.138128
v -0.008157 0.766750 0.138128
v -0.057320 0.766784 -0.004219
v -0.003315 0.764330 0.111505
v -0.057335 0.764295 -0.004259
v -0.042033 0.766750 0.106670
v -0.046875 0.766750 -0.002213
vn 0.2483 -0.9618 -0.1156
vn 0.0000 1.0000 0.0002
vn -0.0111 -0.9960 0.0885
vn 0.0000 -0.9959 0.0905
vn -0.0000 -1.0000 0.0003
vn -0.6805 0.0000 0.7328
vn -0.0003 1.0000 0.0004
vn -0.9906 0.0000 0.1366
vn -0.9906 0.0038 0.1366
vn 0.0035 1.0000 -0.0011
vn 0.2800 0.9561 -0.0869
vn 0.1886 0.0146 -0.9819
usemtl Shape.7893
s off
f 5//1 6//1 8//1
f 3//2 2//2 4//2
f 3//3 1//3 5//3
f 2//4 3//4 5//4
f 5//5 1//5 6//5
f 1//6 3//6 7//6
f 3//7 4//7 7//7
f 6//8 1//8 7//8
f 4//9 6//9 7//9
f 4//10 2//10 8//10
f 2//11 5//11 8//11
f 6//12 4//12 8//12
