# Blender v2.79 (sub 0) OBJ File: ''
# www.blender.org
mtllib 1288_link_0_58.mtl
o Shape_IndexedFaceSet.058_Shape_IndexedFaceSet.7670
v -0.085596 0.657826 -0.365248
v -0.042038 0.607028 -0.290223
v -0.044464 0.607028 -0.290223
v -0.085596 0.558638 -0.304757
v -0.042038 0.582833 -0.297486
v -0.085596 0.565890 -0.290223
v -0.044464 0.660254 -0.324115
v -0.083174 0.660254 -0.343466
v -0.042038 0.657826 -0.341043
v -0.058982 0.558638 -0.292654
v -0.083174 0.648146 -0.360393
v -0.042038 0.575570 -0.290223
v -0.083174 0.568308 -0.312005
v -0.085596 0.660254 -0.345882
v -0.083174 0.660254 -0.365248
vn 0.0000 1.0000 0.0000
vn 0.0000 0.0000 1.0000
vn -1.0000 0.0000 0.0000
vn 0.0000 0.5371 0.8435
vn -0.4481 0.4480 0.7736
vn -0.3885 0.4949 0.7772
vn 1.0000 0.0000 -0.0000
vn 0.9846 0.1235 0.1234
vn -0.1990 -0.8769 0.4375
vn 0.4648 -0.4447 -0.7656
vn 0.4413 -0.4626 -0.7689
vn 0.6285 -0.5500 -0.5500
vn 0.0403 -0.1814 0.9826
vn -0.4299 -0.4701 -0.7708
vn 0.3255 -0.6180 -0.7157
vn -0.3364 -0.4881 -0.8053
vn 0.4304 -0.4678 -0.7719
vn -0.6517 0.3853 0.6533
vn 0.1301 0.9839 -0.1225
vn 0.3496 -0.3487 -0.8696
vn 0.4643 -0.3296 -0.8221
vn -0.7052 0.7035 -0.0882
usemtl Shape.7681
s off
f 14//1 7//1 15//1
f 2//2 3//2 6//2
f 1//3 4//3 6//3
f 3//4 2//4 7//4
f 6//5 3//5 8//5
f 3//6 7//6 8//6
f 2//7 5//7 9//7
f 7//8 2//8 9//8
f 6//9 4//9 10//9
f 9//10 5//10 11//10
f 5//11 10//11 11//11
f 5//7 2//7 12//7
f 2//2 6//2 12//2
f 10//12 5//12 12//12
f 6//13 10//13 12//13
f 4//14 1//14 13//14
f 10//15 4//15 13//15
f 1//16 11//16 13//16
f 11//17 10//17 13//17
f 1//3 6//3 14//3
f 6//18 8//18 14//18
f 8//1 7//1 14//1
f 7//19 9//19 15//19
f 11//20 1//20 15//20
f 9//21 11//21 15//21
f 1//22 14//22 15//22
