# Blender v2.79 (sub 0) OBJ File: ''
# www.blender.org
mtllib 1288_link_1_97.mtl
o Shape_IndexedFaceSet.097_Shape_IndexedFaceSet.2062
v 0.138334 0.347263 -0.410572
v 0.073015 0.276933 -0.481185
v 0.069192 0.283450 -0.490321
v 0.138334 0.283450 -0.442483
v 0.111735 0.347263 -0.485008
v 0.068915 0.347560 -0.469196
v 0.133007 0.272817 -0.394612
v 0.069192 0.272817 -0.458410
v 0.069192 0.347263 -0.506281
v 0.106409 0.272817 -0.469047
v 0.138334 0.347263 -0.458410
vn 0.0043 1.0000 0.0000
vn -0.6309 0.2055 0.7481
vn 0.9938 -0.0498 0.0995
vn -0.6528 -0.7187 -0.2395
vn -1.0000 -0.0039 -0.0013
vn -0.7035 0.0989 0.7037
vn 0.4365 -0.2183 -0.8728
vn -1.0000 -0.0019 -0.0075
vn 0.0040 1.0000 -0.0080
vn 0.1255 -0.7821 -0.6104
vn 0.6653 -0.2017 -0.7188
vn 0.4365 -0.2184 -0.8728
vn 0.4234 -0.8932 -0.1513
vn -0.0532 -0.9811 -0.1862
vn 0.0000 -1.0000 0.0000
vn 1.0000 0.0000 0.0000
vn 0.6963 -0.1738 -0.6964
vn 0.0051 1.0000 -0.0051
usemtl Shape.2064
s off
f 6//1 1//1 11//1
f 1//2 6//2 7//2
f 4//3 1//3 7//3
f 3//4 2//4 8//4
f 6//5 3//5 8//5
f 7//6 6//6 8//6
f 5//7 3//7 9//7
f 3//8 6//8 9//8
f 6//9 5//9 9//9
f 2//10 3//10 10//10
f 5//11 4//11 10//11
f 3//12 5//12 10//12
f 4//13 7//13 10//13
f 8//14 2//14 10//14
f 7//15 8//15 10//15
f 1//16 4//16 11//16
f 4//17 5//17 11//17
f 5//18 6//18 11//18
