# Blender v2.79 (sub 0) OBJ File: ''
# www.blender.org
mtllib 100473_link_1_8.mtl
o Shape_IndexedFaceSet.008_Shape_IndexedFaceSet.17163
v -0.230579 0.456180 -0.593299
v -0.333655 -0.405737 -0.285554
v -0.190192 0.435920 -0.519278
v -0.196930 -0.371531 -0.472193
v -0.338235 0.422529 -0.539458
v -0.338235 -0.385009 -0.384750
v -0.187822 -0.405708 -0.389754
v -0.338235 0.483049 -0.458710
v -0.192590 0.462402 -0.595013
v -0.284400 -0.398487 -0.425108
v -0.331496 0.449398 -0.445288
v -0.190192 0.483049 -0.532731
v -0.336770 0.481044 -0.517784
v -0.210393 0.429224 -0.600026
v -0.203654 -0.398487 -0.465467
v -0.191530 0.481798 -0.584017
v -0.223841 0.415747 -0.593299
v -0.284400 -0.290751 -0.445288
v -0.297848 -0.358054 -0.425108
vn -0.5146 -0.1503 -0.8442
vn 0.5767 0.1258 0.8072
vn -0.9989 0.0040 0.0470
vn -1.0000 -0.0000 0.0000
vn 0.9926 -0.0227 -0.1191
vn -0.3604 -0.9163 -0.1748
vn -0.0492 -0.9964 -0.0691
vn 0.4698 0.1609 0.8680
vn -0.7166 0.1298 0.6853
vn 0.4084 0.4076 0.8168
vn 0.9998 0.0061 0.0214
vn 0.4681 0.2426 0.8497
vn -0.5012 0.3116 -0.8073
vn -0.9991 0.0346 -0.0260
vn -0.0750 0.1882 -0.9793
vn 0.4855 -0.1299 -0.8646
vn 0.9315 -0.2878 -0.2222
vn -0.0430 -0.9954 -0.0859
vn -0.1198 0.4946 -0.8608
vn 0.9971 -0.0122 -0.0746
vn -0.0120 0.9996 -0.0241
vn 0.9997 -0.0015 -0.0260
vn -0.3011 0.6954 -0.6525
vn -0.0209 0.9992 -0.0344
vn -0.4282 -0.0714 -0.9008
vn -0.3135 -0.1548 -0.9369
vn -0.3931 -0.0655 -0.9171
vn -0.3158 -0.1548 -0.9361
vn -0.4242 -0.1507 -0.8929
vn -0.4409 -0.1652 -0.8822
vn -0.4283 -0.1500 -0.8911
vn -0.4843 -0.1611 -0.8599
vn -0.6502 -0.1430 -0.7462
vn -0.6195 -0.2060 -0.7575
usemtl Shape.17173
s off
f 5//1 18//1 19//1
f 3//2 2//2 7//2
f 6//3 2//3 8//3
f 5//4 6//4 8//4
f 7//5 4//5 9//5
f 2//6 6//6 10//6
f 7//7 2//7 10//7
f 2//8 3//8 11//8
f 8//9 2//9 11//9
f 8//10 11//10 12//10
f 3//11 7//11 12//11
f 11//12 3//12 12//12
f 1//13 5//13 13//13
f 5//14 8//14 13//14
f 1//15 9//15 14//15
f 9//16 4//16 14//16
f 4//17 7//17 15//17
f 7//18 10//18 15//18
f 9//19 1//19 16//19
f 7//20 9//20 16//20
f 8//21 12//21 16//21
f 12//22 7//22 16//22
f 1//23 13//23 16//23
f 13//24 8//24 16//24
f 5//25 1//25 17//25
f 14//26 4//26 17//26
f 1//27 14//27 17//27
f 4//28 15//28 17//28
f 17//29 15//29 18//29
f 15//30 10//30 18//30
f 5//31 17//31 18//31
f 18//32 10//32 19//32
f 6//33 5//33 19//33
f 10//34 6//34 19//34
