# Blender v2.79 (sub 0) OBJ File: ''
# www.blender.org
mtllib 100473_link_1_5.mtl
o Shape_IndexedFaceSet.005_Shape_IndexedFaceSet.17160
v 0.348184 -0.411958 0.328583
v 0.476047 -0.391765 -0.007778
v 0.458131 -0.396681 0.104315
v 0.455842 -0.465777 -0.014536
v 0.294345 -0.445584 -0.014536
v 0.294345 -0.465777 0.342061
v 0.294345 -0.391765 0.281502
v 0.455842 -0.459046 0.113340
v 0.301520 -0.407086 0.000608
v 0.297566 -0.393076 0.362220
v 0.415450 -0.391765 -0.014536
v 0.375129 -0.445584 0.288222
v 0.361665 -0.391765 0.315142
v 0.415450 -0.465777 -0.014536
v 0.422557 -0.397145 0.203070
v 0.341478 -0.465777 0.308384
v 0.294345 -0.465777 0.288222
v 0.301086 -0.445584 0.362223
v 0.469306 -0.452315 0.019141
vn 0.6551 -0.7545 0.0397
vn -1.0000 0.0000 0.0000
vn 0.9875 -0.0135 0.1572
vn -0.9798 0.1967 -0.0358
vn -0.9986 0.0330 0.0404
vn 0.1106 0.0604 -0.9920
vn 0.0000 0.0000 -1.0000
vn -0.0000 1.0000 0.0000
vn -0.1725 0.3883 -0.9053
vn -0.1406 0.9884 -0.0575
vn 0.2194 0.9725 0.0777
vn 0.5841 0.1420 0.7992
vn -0.0083 0.9998 0.0166
vn 0.7808 -0.1121 0.6147
vn 0.0000 -1.0000 0.0000
vn 0.9407 0.0145 0.3389
vn 0.8960 -0.1324 0.4237
vn 0.8781 -0.0194 0.4780
vn 0.2751 0.9558 0.1036
vn 0.1468 -0.9878 0.0520
vn 0.6258 -0.7006 0.3428
vn -0.1641 -0.9843 -0.0656
vn 0.5628 0.0378 0.8257
vn -0.9262 -0.0621 0.3718
vn 0.6803 -0.2719 0.6807
vn 0.4098 -0.7094 0.5735
vn 0.6393 -0.4267 0.6397
vn 0.9320 -0.2288 -0.2812
vn 0.9892 -0.0488 0.1379
usemtl Shape.17170
s off
f 8//1 4//1 19//1
f 5//2 6//2 7//2
f 2//3 3//3 8//3
f 5//4 7//4 9//4
f 7//5 6//5 10//5
f 2//6 4//6 11//6
f 4//7 5//7 11//7
f 7//8 2//8 11//8
f 5//9 9//9 11//9
f 9//10 7//10 11//10
f 3//11 2//11 13//11
f 2//8 7//8 13//8
f 10//12 1//12 13//12
f 7//13 10//13 13//13
f 1//14 12//14 13//14
f 5//7 4//7 14//7
f 4//15 6//15 14//15
f 8//16 3//16 15//16
f 12//17 8//17 15//17
f 13//18 12//18 15//18
f 3//19 13//19 15//19
f 6//15 4//15 16//15
f 4//20 8//20 16//20
f 8//21 12//21 16//21
f 6//2 5//2 17//2
f 5//22 14//22 17//22
f 14//15 6//15 17//15
f 1//23 10//23 18//23
f 10//24 6//24 18//24
f 12//25 1//25 18//25
f 6//26 16//26 18//26
f 16//27 12//27 18//27
f 4//28 2//28 19//28
f 2//29 8//29 19//29
