# Blender v2.79 (sub 0) OBJ File: ''
# www.blender.org
mtllib 100473_link_1_18.mtl
o Shape_IndexedFaceSet.018_Shape_IndexedFaceSet.17173
v -0.021933 -0.149402 0.449792
v 0.099174 -0.391671 0.469987
v 0.153022 0.456096 0.510312
v 0.161526 -0.404976 0.378437
v -0.021933 0.469556 0.537224
v -0.021933 -0.391671 0.483443
v 0.153022 -0.156132 0.496878
v -0.021933 0.435907 0.611265
v -0.023412 -0.399126 0.421571
v 0.153022 0.361881 0.577614
v 0.025184 0.422448 0.611265
v 0.025184 -0.364752 0.490182
v 0.153022 -0.391671 0.456531
v 0.151365 0.481397 0.569559
v -0.020732 0.483699 0.589824
v -0.021933 0.435907 0.530507
v 0.132829 0.483015 0.523768
v 0.045360 0.462826 0.611265
v -0.021933 -0.351293 0.422880
v 0.146291 0.462826 0.591070
v -0.008488 -0.364752 0.490182
v 0.045360 0.442637 0.611265
v 0.038629 -0.351293 0.490182
vn 0.1505 -0.1503 0.9771
vn 0.0173 -0.9877 0.1553
vn -0.9997 -0.0038 0.0244
vn -0.0035 -0.9928 0.1197
vn -1.0000 0.0016 0.0007
vn 0.9999 0.0081 0.0114
vn 0.9942 -0.0165 0.1061
vn 0.1010 -0.4043 0.9090
vn 0.0431 -0.9841 0.1724
vn 0.2392 -0.1639 0.9570
vn 0.9936 -0.0191 0.1114
vn 0.9997 0.0153 0.0214
vn -0.9994 0.0315 0.0143
vn -0.1303 0.1488 -0.9802
vn -0.1914 0.1341 -0.9723
vn -0.1346 0.1940 -0.9717
vn -0.9723 0.0319 -0.2313
vn -0.9997 0.0051 -0.0256
vn -0.1126 0.3754 -0.9200
vn 0.7046 0.6595 -0.2619
vn -0.1058 0.9609 -0.2559
vn 0.0167 0.9995 0.0285
vn 0.0000 0.0000 1.0000
vn -0.1629 0.4073 0.8987
vn 0.0773 0.8229 0.5629
vn -0.1975 0.1295 -0.9717
vn -0.9593 0.0373 -0.2800
vn -0.2260 0.0336 -0.9735
vn 0.9666 0.0305 0.2544
vn 0.1332 0.7344 0.6655
vn -0.1864 -0.1500 0.9710
vn -0.0429 -0.1501 0.9877
vn 0.0000 -0.1520 0.9884
vn 0.0000 -0.2428 0.9701
vn 0.1504 -0.1503 0.9771
vn 0.2169 -0.1148 0.9694
vn 0.1962 0.0000 0.9806
vn 0.2152 -0.1592 0.9635
vn 0.2007 -0.1509 0.9680
vn 0.1926 -0.1924 0.9622
vn 0.1910 -0.1496 0.9701
usemtl Shape.17183
s off
f 22//1 12//1 23//1
f 4//2 2//2 6//2
f 6//3 8//3 9//3
f 4//4 6//4 9//4
f 8//5 5//5 9//5
f 4//6 3//6 10//6
f 7//7 4//7 10//7
f 6//8 2//8 12//8
f 2//9 4//9 13//9
f 7//10 2//10 13//10
f 4//11 7//11 13//11
f 10//12 3//12 14//12
f 5//13 8//13 15//13
f 3//14 4//14 16//14
f 4//15 1//15 16//15
f 5//16 3//16 16//16
f 1//17 9//17 16//17
f 9//18 5//18 16//18
f 3//19 5//19 17//19
f 14//20 3//20 17//20
f 5//21 15//21 17//21
f 15//22 14//22 17//22
f 8//23 11//23 18//23
f 15//24 8//24 18//24
f 14//25 15//25 18//25
f 1//26 4//26 19//26
f 9//27 1//27 19//27
f 4//28 9//28 19//28
f 10//29 14//29 20//29
f 14//30 18//30 20//30
f 8//31 6//31 21//31
f 11//32 8//32 21//32
f 12//33 11//33 21//33
f 6//34 12//34 21//34
f 11//35 12//35 22//35
f 18//23 11//23 22//23
f 10//36 20//36 22//36
f 20//37 18//37 22//37
f 2//38 7//38 23//38
f 7//39 10//39 23//39
f 12//40 2//40 23//40
f 10//41 22//41 23//41
