# Blender v2.79 (sub 0) OBJ File: ''
# www.blender.org
mtllib 100473_link_1_7.mtl
o Shape_IndexedFaceSet.007_Shape_IndexedFaceSet.17162
v -0.519940 0.449398 -0.202987
v -0.634337 0.435920 -0.028061
v -0.634337 0.449398 -0.048247
v -0.466108 -0.398400 -0.202987
v -0.437855 -0.406140 -0.019720
v -0.553600 0.442702 -0.021303
v -0.389695 -0.403915 -0.210038
v -0.600677 0.415747 -0.202987
v -0.506500 -0.398487 -0.028061
v -0.499768 -0.385009 -0.122229
v -0.627605 0.435920 -0.122229
v -0.579478 0.482699 -0.201528
v -0.618863 0.481272 -0.023054
v -0.560309 0.476353 -0.028061
v -0.493036 -0.398487 -0.021303
v -0.533404 0.483049 -0.189524
v -0.627605 0.462876 -0.128951
v -0.620873 0.435920 -0.155877
v -0.472840 -0.391705 -0.196247
v -0.499768 -0.398487 -0.108802
v -0.472840 -0.142669 -0.021303
v -0.513232 0.409051 -0.202987
vn 0.9711 0.1459 0.1887
vn -0.0748 -0.9967 -0.0306
vn -0.0032 0.0078 -1.0000
vn -0.0930 -0.0154 -0.9955
vn -0.9918 -0.1062 -0.0709
vn -0.9860 -0.1511 -0.0705
vn -0.0105 0.0251 -0.9996
vn -0.9341 0.2968 0.1982
vn -0.0280 -0.0019 0.9996
vn 0.9559 0.2278 0.1855
vn 0.1011 0.2152 0.9713
vn -0.4475 -0.0686 0.8916
vn -0.1398 -0.9502 0.2785
vn -0.2260 -0.0304 0.9737
vn -0.0290 -0.0022 0.9996
vn 0.2236 0.4378 -0.8708
vn -0.0092 0.9999 0.0060
vn 0.0883 0.9945 0.0560
vn 0.9366 0.3072 0.1688
vn -0.9960 -0.0216 -0.0867
vn -0.8342 0.2746 -0.4782
vn -0.8990 0.4379 -0.0019
vn -0.5111 0.8529 -0.1060
vn -0.9693 -0.1509 -0.1939
vn -0.9794 -0.0489 -0.1960
vn -0.8411 0.2623 -0.4729
vn -0.7616 -0.1259 -0.6357
vn -0.9303 -0.1501 -0.3346
vn -0.9333 -0.1510 -0.3259
vn -0.0805 -0.9963 -0.0297
vn -0.1097 -0.9939 -0.0091
vn -0.9849 -0.1522 -0.0821
vn -0.9765 -0.1521 -0.1526
vn -0.8047 -0.5191 -0.2881
vn -0.9047 -0.3008 -0.3019
vn 0.7534 0.1039 0.6493
vn 0.9610 0.1291 0.2447
vn 0.9617 0.1327 0.2400
vn 0.9693 0.1612 0.1855
vn 0.5167 0.0859 -0.8519
usemtl Shape.17172
s off
f 6//1 7//1 22//1
f 5//2 4//2 7//2
f 1//3 7//3 8//3
f 7//4 4//4 8//4
f 2//5 3//5 11//5
f 9//6 2//6 11//6
f 1//7 8//7 12//7
f 3//8 2//8 13//8
f 5//9 6//9 13//9
f 6//10 1//10 14//10
f 13//11 6//11 14//11
f 2//12 9//12 15//12
f 9//13 5//13 15//13
f 13//14 2//14 15//14
f 5//15 13//15 15//15
f 1//16 12//16 16//16
f 12//17 13//17 16//17
f 13//18 14//18 16//18
f 14//19 1//19 16//19
f 11//20 3//20 17//20
f 12//21 8//21 17//21
f 3//22 13//22 17//22
f 13//23 12//23 17//23
f 10//24 11//24 18//24
f 11//25 17//25 18//25
f 17//26 8//26 18//26
f 8//27 4//27 19//27
f 18//28 8//28 19//28
f 10//29 18//29 19//29
f 4//30 5//30 20//30
f 5//31 9//31 20//31
f 9//32 11//32 20//32
f 11//33 10//33 20//33
f 19//34 4//34 20//34
f 10//35 19//35 20//35
f 6//36 5//36 21//36
f 5//37 7//37 21//37
f 7//38 6//38 21//38
f 1//39 6//39 22//39
f 7//40 1//40 22//40
