# Blender v2.79 (sub 0) OBJ File: ''
# www.blender.org
mtllib 100473_link_1_3.mtl
o Shape_IndexedFaceSet.003_Shape_IndexedFaceSet.17158
v -0.282617 -0.461482 0.358559
v -0.022000 -0.391777 0.476607
v -0.111095 -0.392830 0.469521
v -0.035088 -0.407364 0.001306
v -0.021950 -0.465777 0.463190
v -0.311326 -0.445584 -0.021303
v -0.313149 -0.389467 0.306287
v -0.021950 -0.445584 -0.021303
v -0.297557 -0.407467 0.002393
v -0.311326 -0.465777 0.308419
v -0.307448 -0.392757 0.378270
v -0.227553 -0.451204 0.420033
v -0.015217 -0.390043 0.424867
v -0.021950 -0.465777 0.422828
v -0.117965 -0.444992 0.461391
v -0.234314 -0.393319 0.427518
v -0.305275 -0.451330 0.369547
vn -0.5367 -0.1696 0.8266
vn -0.0149 0.9991 0.0390
vn 0.0000 0.5091 -0.8607
vn -0.0037 0.5289 -0.8487
vn -0.0006 0.9982 -0.0592
vn -0.9236 0.3770 -0.0697
vn -0.0654 -0.9903 0.1223
vn -0.9997 -0.0239 -0.0015
vn 0.0000 -0.9981 -0.0611
vn -0.9967 -0.0216 0.0780
vn -0.1246 -0.9544 0.2712
vn 0.9914 -0.0228 0.1292
vn -0.0108 0.9994 0.0321
vn 0.0185 0.9990 -0.0417
vn 0.9330 0.3552 -0.0583
vn 0.9961 -0.0884 -0.0040
vn 0.0000 -1.0000 0.0000
vn 0.0180 -0.9988 -0.0454
vn 0.9961 -0.0886 0.0000
vn -0.0768 -0.1437 0.9866
vn -0.0570 -0.1781 0.9824
vn -0.1806 -0.7825 0.5959
vn -0.3406 -0.1596 0.9266
vn -0.0190 0.9988 0.0441
vn -0.0244 0.9986 0.0476
vn -0.3205 -0.1045 0.9415
vn -0.5536 -0.1427 0.8205
vn -0.2938 -0.9233 0.2473
vn -0.9924 -0.0533 0.1108
vn -0.2314 -0.9044 0.3585
usemtl Shape.17168
s off
f 12//1 16//1 17//1
f 3//2 2//2 7//2
f 6//3 4//3 8//3
f 4//4 6//4 9//4
f 7//5 4//5 9//5
f 6//6 7//6 9//6
f 5//7 1//7 10//7
f 7//8 6//8 10//8
f 6//9 8//9 10//9
f 7//10 10//10 11//10
f 1//11 5//11 12//11
f 2//12 5//12 13//12
f 7//13 2//13 13//13
f 4//14 7//14 13//14
f 8//15 4//15 13//15
f 8//16 13//16 14//16
f 5//17 10//17 14//17
f 10//18 8//18 14//18
f 13//19 5//19 14//19
f 2//20 3//20 15//20
f 5//21 2//21 15//21
f 12//22 5//22 15//22
f 12//23 15//23 16//23
f 3//24 7//24 16//24
f 7//25 11//25 16//25
f 15//26 3//26 16//26
f 16//27 11//27 17//27
f 10//28 1//28 17//28
f 11//29 10//29 17//29
f 1//30 12//30 17//30
