# Blender v2.79 (sub 0) OBJ File: ''
# www.blender.org
mtllib 100473_link_1_15.mtl
o Shape_IndexedFaceSet.015_Shape_IndexedFaceSet.17170
v 0.173228 0.469571 -0.600056
v 0.310308 -0.400268 -0.285065
v 0.307805 0.449398 -0.445287
v 0.307805 -0.364836 -0.391475
v 0.163956 -0.407400 -0.389512
v 0.166492 0.456180 -0.519248
v 0.307805 0.435920 -0.539457
v 0.186687 -0.398487 -0.458740
v 0.296340 -0.407067 -0.285112
v 0.166492 -0.385009 -0.465436
v 0.253955 0.456180 -0.573120
v 0.220328 -0.398487 -0.445287
v 0.294332 0.483049 -0.458709
v 0.167650 0.482549 -0.577640
v 0.306257 0.480101 -0.517657
v 0.307805 -0.398487 -0.384718
v 0.294332 0.462876 -0.451983
v 0.186687 0.429224 -0.593299
v 0.166492 0.489831 -0.532731
v 0.287609 0.429224 -0.552910
v 0.167769 0.468567 -0.590624
v 0.253955 0.328271 -0.552910
vn 0.4532 -0.1511 -0.8785
vn 1.0000 0.0029 -0.0004
vn 0.9997 -0.0046 -0.0251
vn -0.0930 0.1842 0.9785
vn -0.6150 0.1189 0.7795
vn -0.4735 -0.8404 -0.2637
vn 0.0452 -0.9926 -0.1130
vn 0.2101 0.8679 -0.4502
vn 0.9993 0.0377 -0.0054
vn 0.3246 0.7180 -0.6157
vn 0.5887 0.3742 -0.7165
vn 0.8929 0.4211 0.1596
vn 0.9997 -0.0051 -0.0252
vn 0.0643 -0.9949 -0.0783
vn 0.4376 -0.8988 -0.0271
vn 0.5617 -0.1629 -0.8112
vn 0.0647 -0.9935 -0.0934
vn -0.2877 0.1798 0.9407
vn -0.4660 0.1656 0.8691
vn -0.4584 0.2811 0.8431
vn -0.1532 0.3126 0.9375
vn 0.0288 -0.1558 -0.9874
vn 0.2150 -0.1567 -0.9640
vn 0.3076 -0.0565 -0.9498
vn -0.9999 0.0047 0.0117
vn -0.4598 0.3303 0.8243
vn 0.0855 0.9838 -0.1573
vn 0.0732 0.9967 -0.0350
vn 0.5818 -0.1478 -0.7998
vn 0.5425 0.0486 -0.8386
vn 0.5595 -0.1514 -0.8149
vn -0.9994 -0.0036 -0.0344
vn -0.8598 -0.0728 -0.5054
vn -0.8138 0.3917 -0.4293
vn -0.9998 -0.0007 -0.0218
vn -0.9994 0.0182 -0.0287
vn 0.3669 -0.1529 -0.9176
vn 0.3319 -0.1514 -0.9311
vn 0.3378 -0.1469 -0.9297
vn 0.4240 -0.1413 -0.8946
usemtl Shape.17180
s off
f 20//1 12//1 22//1
f 3//2 2//2 7//2
f 2//3 4//3 7//3
f 2//4 3//4 9//4
f 6//5 5//5 9//5
f 8//6 5//6 10//6
f 5//7 8//7 12//7
f 1//8 14//8 15//8
f 3//9 7//9 15//9
f 11//10 1//10 15//10
f 7//11 11//11 15//11
f 13//12 3//12 15//12
f 4//13 2//13 16//13
f 9//14 5//14 16//14
f 2//15 9//15 16//15
f 12//16 4//16 16//16
f 5//17 12//17 16//17
f 9//18 3//18 17//18
f 6//19 9//19 17//19
f 13//20 6//20 17//20
f 3//21 13//21 17//21
f 10//22 1//22 18//22
f 8//23 10//23 18//23
f 1//24 11//24 18//24
f 5//25 6//25 19//25
f 6//26 13//26 19//26
f 15//27 14//27 19//27
f 13//28 15//28 19//28
f 7//29 4//29 20//29
f 11//30 7//30 20//30
f 4//31 12//31 20//31
f 10//32 5//32 21//32
f 1//33 10//33 21//33
f 14//34 1//34 21//34
f 5//35 19//35 21//35
f 19//36 14//36 21//36
f 12//37 8//37 22//37
f 8//38 18//38 22//38
f 18//39 11//39 22//39
f 11//40 20//40 22//40
