# Blender v2.79 (sub 0) OBJ File: ''
# www.blender.org
mtllib 10125_link_1_4.mtl
o Shape_IndexedFaceSet.004_Shape_IndexedFaceSet.17566
v 0.601053 -0.154020 -0.201058
v 0.681978 -0.158063 -0.168691
v 0.681978 -0.190430 -0.168691
v 0.613196 -0.170206 -0.120141
v 0.601053 -0.198531 -0.176787
v 0.637475 -0.145919 -0.128237
v 0.673882 -0.145919 -0.201058
v 0.677930 -0.198531 -0.180827
v 0.637475 -0.178291 -0.120141
v 0.601053 -0.145919 -0.168691
v 0.601053 -0.198531 -0.164644
v 0.673882 -0.194483 -0.156564
v 0.641515 -0.162116 -0.120141
v 0.601053 -0.178291 -0.192970
v 0.681978 -0.145919 -0.176787
v 0.621292 -0.186387 -0.128237
v 0.617244 -0.149967 -0.124189
v 0.669834 -0.166158 -0.197018
v 0.603747 -0.147670 -0.198365
v 0.681978 -0.158063 -0.188922
v 0.669834 -0.198531 -0.164644
v 0.601053 -0.194483 -0.156564
vn -0.2600 -0.8633 0.4325
vn -1.0000 0.0000 0.0000
vn 0.0000 1.0000 0.0000
vn 0.0000 -1.0000 0.0000
vn 0.8317 0.0000 0.5552
vn 0.6884 -0.6880 0.2296
vn 0.0000 0.0000 1.0000
vn 0.7657 0.0435 0.6418
vn 0.6600 -0.1648 0.7330
vn -0.0410 -0.6240 -0.7804
vn 1.0000 0.0000 0.0000
vn 0.6860 0.4036 0.6054
vn 0.6536 0.4625 0.5991
vn -0.1689 -0.5073 0.8450
vn 0.1549 -0.8360 0.5264
vn -0.9022 0.2507 0.3510
vn -0.1653 0.9750 0.1488
vn 0.0841 0.4622 0.8828
vn -0.0592 0.2071 0.9765
vn 0.0222 -0.2000 -0.9795
vn 0.5351 -0.2670 -0.8015
vn -0.0001 -0.3161 -0.9487
vn 0.0252 -0.4421 -0.8966
vn -0.0452 0.4062 -0.9127
vn -0.8982 0.4263 -0.1067
vn -0.0273 0.9977 -0.0613
vn 0.9636 -0.1418 -0.2268
vn 0.7062 -0.2061 -0.6774
vn 0.9045 0.3015 -0.3017
vn 0.4367 -0.8727 0.2184
vn 0.0000 -0.9486 0.3164
vn 0.0828 -0.9070 0.4129
vn -0.9592 0.0685 0.2742
vn -0.5771 -0.5776 0.5774
usemtl Shape.17577
s off
f 11//1 16//1 22//1
f 1//2 5//2 10//2
f 6//3 7//3 10//3
f 5//4 8//4 11//4
f 10//2 5//2 11//2
f 3//5 2//5 12//5
f 8//6 3//6 12//6
f 4//7 9//7 13//7
f 12//8 2//8 13//8
f 9//9 12//9 13//9
f 5//2 1//2 14//2
f 8//10 5//10 14//10
f 2//11 3//11 15//11
f 7//3 6//3 15//3
f 13//12 2//12 15//12
f 6//13 13//13 15//13
f 9//14 4//14 16//14
f 12//15 9//15 16//15
f 10//16 4//16 17//16
f 6//17 10//17 17//17
f 13//18 6//18 17//18
f 4//19 13//19 17//19
f 1//20 7//20 18//20
f 7//21 8//21 18//21
f 14//22 1//22 18//22
f 8//23 14//23 18//23
f 7//24 1//24 19//24
f 1//25 10//25 19//25
f 10//26 7//26 19//26
f 3//27 8//27 20//27
f 8//28 7//28 20//28
f 15//11 3//11 20//11
f 7//29 15//29 20//29
f 11//4 8//4 21//4
f 8//30 12//30 21//30
f 16//31 11//31 21//31
f 12//32 16//32 21//32
f 4//33 10//33 22//33
f 10//2 11//2 22//2
f 16//34 4//34 22//34
