####
#
# OBJ File Generated by Meshlab
#
####
# Object 100482_link_0_3.obj
#
# Vertices: 32
# Faces: 60
#
####
mtllib ./100482_link_0_3.obj.mtl

vn -0.282469 0.953560 -0.104565
v -0.541613 0.766017 0.070758
vn -0.765910 -0.637219 -0.085631
v -0.537563 0.545447 0.067472
vn -0.691427 -0.707811 0.144680
v -0.537785 0.544668 0.087411
vn -0.968559 -0.183507 0.167981
v -0.588589 0.661875 0.100076
vn 0.704932 0.176323 0.687009
v -0.448129 0.702189 0.121379
vn 0.666685 0.204377 -0.716771
v -0.457979 0.709559 0.026440
vn -0.877510 -0.138148 -0.459229
v -0.574918 0.628278 0.034849
vn -0.271050 -0.338992 0.900898
v -0.551601 0.584281 0.122923
vn 0.941077 -0.120284 -0.316078
v -0.428235 0.665418 0.059103
vn -0.246983 0.418332 0.874070
v -0.523949 0.711673 0.147565
vn -0.656582 0.567831 -0.496455
v -0.558364 0.724903 0.042572
vn 0.029074 -0.220070 -0.975051
v -0.540211 0.571241 0.021809
vn 0.340398 0.860975 0.377956
v -0.478384 0.753763 0.089695
vn -0.749557 0.608072 0.261558
v -0.561683 0.732691 0.090682
vn 0.665848 -0.133948 0.733965
v -0.432106 0.678725 0.106585
vn 0.050149 0.807952 -0.587110
v -0.488402 0.742698 0.018358
vn -0.432150 -0.153765 0.888596
v -0.563325 0.620422 0.126612
vn 0.516112 -0.463498 0.720276
v -0.497084 0.544479 0.124714
vn 0.436253 -0.168695 -0.883870
v -0.443535 0.685909 0.030347
vn 0.010256 -0.086614 -0.996189
v -0.512848 0.704361 -0.001009
vn -0.942580 0.242359 -0.229793
v -0.590185 0.661065 0.064050
vn 0.886203 -0.325813 0.329379
v -0.440611 0.623684 0.088685
vn 0.508494 -0.477072 -0.716824
v -0.498357 0.541200 0.038643
vn -0.148778 -0.273703 -0.950238
v -0.561068 0.593447 0.024589
vn 0.321891 0.635359 0.701930
v -0.465911 0.731856 0.116649
vn 0.206137 0.887944 -0.411172
v -0.479354 0.754127 0.063760
vn -0.549923 0.575938 0.604880
v -0.549571 0.723293 0.125885
vn 0.697407 -0.712765 -0.074762
v -0.477592 0.534139 0.085945
vn 0.232492 -0.143285 0.961986
v -0.499358 0.692387 0.154869
vn -0.573335 0.325122 -0.752052
v -0.538289 0.717712 0.014059
vn -0.633833 0.090170 0.768196
v -0.575195 0.640697 0.122061
vn 0.048506 -0.147392 0.987888
v -0.528834 0.558218 0.135686
# 32 vertices, 0 vertices normals


usemtl material_0
f 18//18 15//15 32//32
f 2//2 3//3 4//4
f 2//2 4//4 7//7
f 4//4 3//3 8//8
f 6//6 5//5 9//9
f 5//5 6//6 13//13
f 1//1 11//11 14//14
f 13//13 1//1 14//14
f 9//9 5//5 15//15
f 4//4 8//8 17//17
f 6//6 9//9 19//19
f 12//12 6//6 19//19
f 16//16 6//6 20//20
f 7//7 4//4 21//21
f 11//11 7//7 21//21
f 4//4 14//14 21//21
f 14//14 11//11 21//21
f 9//9 15//15 22//22
f 15//15 18//18 22//22
f 2//2 12//12 23//23
f 19//19 9//9 23//23
f 12//12 19//19 23//23
f 2//2 7//7 24//24
f 12//12 2//2 24//24
f 6//6 12//12 24//24
f 7//7 20//20 24//24
f 20//20 6//6 24//24
f 5//5 13//13 25//25
f 13//13 10//10 25//25
f 11//11 1//1 26//26
f 1//1 13//13 26//26
f 13//13 6//6 26//26
f 6//6 16//16 26//26
f 16//16 11//11 26//26
f 10//10 13//13 27//27
f 13//13 14//14 27//27
f 14//14 4//4 27//27
f 3//3 2//2 28//28
f 18//18 3//3 28//28
f 9//9 22//22 28//28
f 22//22 18//18 28//28
f 2//2 23//23 28//28
f 23//23 9//9 28//28
f 8//8 5//5 29//29
f 17//17 8//8 29//29
f 10//10 17//17 29//29
f 5//5 25//25 29//29
f 25//25 10//10 29//29
f 7//7 11//11 30//30
f 11//11 16//16 30//30
f 20//20 7//7 30//30
f 16//16 20//20 30//30
f 4//4 17//17 31//31
f 17//17 10//10 31//31
f 10//10 27//27 31//31
f 27//27 4//4 31//31
f 8//8 3//3 32//32
f 5//5 8//8 32//32
f 15//15 5//5 32//32
f 3//3 18//18 32//32
# 60 faces, 0 coords texture

# End of File
