# Blender v2.79 (sub 0) OBJ File: ''
# www.blender.org
mtllib 100439_link_1_31.mtl
o Shape_IndexedFaceSet.031_Shape_IndexedFaceSet.2257
v 0.176682 0.460043 0.562473
v -0.010111 0.100428 0.458833
v 0.174280 0.100428 0.416280
v 0.153983 0.162054 0.560602
v -0.010111 0.462185 0.508473
v -0.010111 0.391232 0.607770
v 0.188491 0.469251 0.473005
v 0.025367 0.100428 0.551007
v 0.188491 0.398298 0.579370
v 0.174280 0.100428 0.522626
v -0.003363 0.159543 0.581398
v -0.006864 0.470242 0.577168
v 0.188491 0.128839 0.416280
v 0.053731 0.412503 0.607770
v 0.181376 0.447979 0.465919
v 0.181014 0.160556 0.548072
v -0.010111 0.128839 0.458833
v 0.152993 0.412503 0.593561
v 0.181376 0.178520 0.423366
v -0.010111 0.426671 0.501387
v 0.128280 0.167838 0.567404
v 0.001724 0.453252 0.596091
v 0.183847 0.467600 0.549184
v 0.188491 0.100428 0.416280
vn 0.9776 -0.1648 0.1306
vn -1.0000 -0.0000 0.0000
vn 0.0000 -1.0000 0.0000
vn 0.1645 -0.4776 0.8630
vn -0.9966 -0.0373 0.0729
vn -0.7867 -0.5380 0.3028
vn -0.9976 0.0567 0.0405
vn -0.0556 0.9920 -0.1137
vn 1.0000 0.0000 0.0000
vn 0.0373 -0.1119 0.9930
vn -0.1763 0.3637 -0.9147
vn 0.4407 0.1475 -0.8854
vn 0.4109 -0.1317 0.9021
vn 0.3678 -0.3970 0.8409
vn -0.2249 0.0000 -0.9744
vn -0.2084 0.1042 -0.9725
vn 0.3259 -0.1221 0.9375
vn 0.4583 0.3151 0.8311
vn 0.1049 0.1551 -0.9823
vn -0.2083 0.1088 -0.9720
vn -0.2149 0.1381 -0.9668
vn -0.1993 0.1917 -0.9610
vn -0.1964 0.1529 -0.9685
vn 0.1394 -0.4298 0.8921
vn 0.1219 -0.4063 0.9056
vn 0.1128 -0.1282 0.9853
vn 0.2271 -0.1262 0.9657
vn 0.1407 -0.1193 0.9828
vn -0.7723 0.2568 0.5811
vn 0.0937 0.7616 0.6413
vn -0.0655 0.1967 0.9783
vn 0.1462 0.4894 0.8597
vn 0.1285 0.4213 0.8978
vn 0.7560 0.3033 0.5801
vn 0.9936 0.0939 0.0626
vn 0.0892 0.8444 0.5283
vn 0.0172 0.9996 0.0227
vn 0.0000 0.0000 -1.0000
vn 0.9963 -0.0413 0.0753
usemtl Shape.2259
s off
f 16//1 10//1 24//1
f 5//2 2//2 6//2
f 2//3 3//3 8//3
f 8//3 3//3 10//3
f 4//4 8//4 10//4
f 6//5 2//5 11//5
f 2//6 8//6 11//6
f 5//7 6//7 12//7
f 7//8 5//8 12//8
f 7//9 9//9 13//9
f 6//10 11//10 14//10
f 5//11 7//11 15//11
f 7//12 13//12 15//12
f 9//13 4//13 16//13
f 4//14 10//14 16//14
f 3//15 2//15 17//15
f 2//2 5//2 17//2
f 13//16 3//16 17//16
f 4//17 9//17 18//17
f 9//18 1//18 18//18
f 15//19 13//19 19//19
f 13//20 17//20 19//20
f 19//21 17//21 20//21
f 5//22 15//22 20//22
f 17//2 5//2 20//2
f 15//23 19//23 20//23
f 8//24 4//24 21//24
f 11//25 8//25 21//25
f 14//26 11//26 21//26
f 4//27 18//27 21//27
f 18//28 14//28 21//28
f 12//29 6//29 22//29
f 1//30 12//30 22//30
f 6//31 14//31 22//31
f 18//32 1//32 22//32
f 14//33 18//33 22//33
f 1//34 9//34 23//34
f 9//35 7//35 23//35
f 12//36 1//36 23//36
f 7//37 12//37 23//37
f 10//3 3//3 24//3
f 3//38 13//38 24//38
f 13//9 9//9 24//9
f 9//39 16//39 24//39
