####
#
# OBJ File Generated by Meshlab
#
####
# Object 100439_link_0_20.obj
#
# Vertices: 10
# Faces: 16
#
####
mtllib ./100439_link_0_20.obj.mtl

vn -0.115300 -0.935146 -0.334973
v 0.557942 0.390392 -0.079626
vn 0.842619 -0.312641 0.438462
v 0.585171 0.430252 -0.022452
vn -0.092021 0.024557 0.995454
v 0.555943 0.430509 0.001873
vn 0.020338 0.838434 -0.544623
v 0.550554 0.452672 -0.080323
vn -0.842365 -0.483649 0.237706
v 0.520829 0.413703 -0.030072
vn 0.836734 -0.012504 -0.547467
v 0.604078 0.426225 -0.093686
vn -0.689432 -0.017259 -0.724145
v 0.541214 0.418637 -0.094293
vn 0.376731 -0.854048 0.358715
v 0.574335 0.398050 -0.048220
vn -0.644945 0.753758 0.126075
v 0.536603 0.460251 -0.043823
vn 0.452479 0.880403 0.141967
v 0.589096 0.455662 -0.035506
# 10 vertices, 0 vertices normals


usemtl material_0
f 4//4 9//9 10//10
f 4//4 6//6 7//7
f 1//1 5//5 7//7
f 6//6 1//1 7//7
f 2//2 3//3 8//8
f 5//5 1//1 8//8
f 3//3 5//5 8//8
f 6//6 2//2 8//8
f 1//1 6//6 8//8
f 5//5 3//3 9//9
f 4//4 7//7 9//9
f 7//7 5//5 9//9
f 3//3 2//2 10//10
f 2//2 6//6 10//10
f 6//6 4//4 10//10
f 9//9 3//3 10//10
# 16 faces, 0 coords texture

# End of File
