####
#
# OBJ File Generated by Meshlab
#
####
# Object 100439_link_0_1.obj
#
# Vertices: 23
# Faces: 42
#
####
mtllib ./100439_link_0_1.obj.mtl

vn 0.218377 -0.927242 -0.304192
v 0.408595 0.723705 -0.379524
vn -0.679047 0.733998 -0.011937
v 0.256022 0.864299 -0.413655
vn -0.691871 0.633308 -0.346749
v 0.258076 0.862870 -0.433310
vn 0.549454 0.796625 0.251969
v 0.426893 0.798860 -0.348005
vn -0.244273 -0.202623 0.948301
v 0.400566 0.742095 -0.333890
vn -0.512002 -0.856876 0.060138
v 0.225856 0.790932 -0.420971
vn 0.359284 0.092218 -0.928661
v 0.317122 0.836963 -0.476775
vn 0.651174 0.528981 -0.544199
v 0.429737 0.796863 -0.407276
vn -0.437982 0.166914 0.883352
v 0.240470 0.847387 -0.383785
vn -0.069391 -0.619040 -0.782288
v 0.269859 0.801140 -0.479598
vn 0.261000 -0.498855 -0.826452
v 0.421172 0.737803 -0.406411
vn -0.053393 0.451566 0.890639
v 0.393789 0.796748 -0.312948
vn 0.402030 0.881991 -0.245893
v 0.308957 0.877388 -0.448722
vn -0.363451 -0.822677 0.437157
v 0.400479 0.725287 -0.346873
vn -0.486570 -0.587171 0.646900
v 0.233681 0.789134 -0.383956
vn 0.132732 0.895678 0.424433
v 0.291108 0.879281 -0.393723
vn -0.526678 -0.672837 -0.519519
v 0.237214 0.794427 -0.447681
vn 0.719980 -0.170526 -0.672718
v 0.435246 0.765825 -0.406051
vn 0.914562 0.371662 0.159509
v 0.439176 0.789991 -0.376386
vn -0.473428 0.459837 -0.751276
v 0.260026 0.837718 -0.459026
vn -0.030289 -0.356794 0.933692
v 0.405140 0.760754 -0.326792
vn -0.700763 0.112962 0.704394
v 0.226331 0.819374 -0.392460
vn -0.315310 -0.939522 -0.133706
v 0.401362 0.711440 -0.359887
# 23 vertices, 0 vertices normals


usemtl material_0
f 17//17 1//1 23//23
f 10//10 7//7 11//11
f 1//1 10//10 11//11
f 8//8 7//7 13//13
f 1//1 5//5 14//14
f 6//6 14//14 15//15
f 14//14 5//5 15//15
f 3//3 2//2 16//16
f 2//2 9//9 16//16
f 12//12 4//4 16//16
f 9//9 12//12 16//16
f 13//13 3//3 16//16
f 4//4 13//13 16//16
f 10//10 1//1 17//17
f 7//7 8//8 18//18
f 11//11 7//7 18//18
f 1//1 11//11 18//18
f 13//13 4//4 19//19
f 8//8 13//13 19//19
f 1//1 18//18 19//19
f 18//18 8//8 19//19
f 7//7 10//10 20//20
f 3//3 13//13 20//20
f 13//13 7//7 20//20
f 17//17 3//3 20//20
f 10//10 17//17 20//20
f 5//5 1//1 21//21
f 4//4 12//12 21//21
f 12//12 9//9 21//21
f 1//1 19//19 21//21
f 19//19 4//4 21//21
f 2//2 3//3 22//22
f 9//9 2//2 22//22
f 6//6 15//15 22//22
f 15//15 5//5 22//22
f 3//3 17//17 22//22
f 17//17 6//6 22//22
f 5//5 21//21 22//22
f 21//21 9//9 22//22
f 1//1 14//14 23//23
f 14//14 6//6 23//23
f 6//6 17//17 23//23
# 42 faces, 0 coords texture

# End of File
