# Blender v2.79 (sub 0) OBJ File: ''
# www.blender.org
mtllib 100439_link_1_20.mtl
o Shape_IndexedFaceSet.020_Shape_IndexedFaceSet.2246
v 0.583407 0.465448 0.040174
v 0.369254 -0.409672 0.098886
v 0.486418 -0.381918 -0.030648
v 0.507686 0.455070 -0.037749
v 0.376318 -0.409523 -0.045319
v 0.578623 0.157160 0.111217
v 0.500581 0.469277 0.111217
v 0.614079 0.398330 -0.037749
v 0.472254 -0.374772 0.111217
v 0.599891 0.398330 0.111217
v 0.361095 -0.408224 0.118552
v 0.592810 0.157160 -0.037749
v 0.592810 0.157160 0.011916
v 0.479336 -0.396125 0.040263
v 0.583887 0.467698 -0.036262
v 0.614079 0.433803 0.033191
v 0.570181 0.468796 0.109919
v 0.486418 -0.374772 -0.037749
v 0.585728 0.157160 0.075725
v 0.514768 0.469277 -0.037749
v 0.472254 -0.396125 0.089913
v 0.535323 0.475857 0.102933
v 0.614079 0.412450 0.033191
v 0.486418 -0.381918 0.004815
vn 0.9750 -0.1939 0.1082
vn -0.1999 -0.9798 -0.0108
vn -0.9843 0.1504 -0.0926
vn -0.9858 0.1562 -0.0619
vn 0.0700 -0.0140 0.9974
vn 0.0437 -0.0039 0.9990
vn 0.0054 0.0075 1.0000
vn 0.0454 -0.0040 -0.9990
vn 0.9961 -0.0878 0.0000
vn 0.9811 -0.1936 0.0000
vn 0.1248 -0.9922 0.0051
vn 0.2605 -0.9514 -0.1646
vn 0.8973 0.3948 -0.1974
vn 0.7206 0.6929 0.0249
vn 0.0188 0.0263 0.9995
vn 0.3889 0.9208 0.0295
vn 0.7256 0.6801 0.1049
vn 0.8686 0.3722 0.3272
vn 0.2618 -0.6803 -0.6846
vn 0.9620 -0.1924 -0.1936
vn 0.0732 -0.0146 -0.9972
vn 0.9769 -0.0861 0.1956
vn -0.0253 0.0126 -0.9996
vn -0.8917 0.4445 -0.0849
vn 0.0055 0.0077 -1.0000
vn 0.0222 0.0311 -0.9993
vn 0.9622 -0.1924 0.1928
vn 0.1405 -0.9814 0.1305
vn 0.2510 -0.6837 0.6853
vn 0.1320 -0.9911 0.0188
vn 0.9622 -0.1924 0.1926
vn 0.9709 -0.1956 0.1385
vn 0.0176 0.7457 0.6660
vn 0.1964 0.9805 0.0110
vn -0.1902 0.9816 -0.0181
vn 0.0239 0.9985 -0.0502
vn 0.9963 -0.0844 0.0168
vn 1.0000 0.0000 0.0000
vn 0.9839 0.0000 0.1789
vn 0.9831 -0.0819 0.1639
vn 0.9897 -0.0916 0.1098
vn 0.8950 -0.4461 0.0000
vn 0.9739 -0.1947 0.1165
usemtl Shape.2248
s off
f 13//1 19//1 24//1
f 5//2 2//2 11//2
f 4//3 5//3 11//3
f 7//4 4//4 11//4
f 9//5 6//5 11//5
f 6//6 10//6 11//6
f 10//7 7//7 11//7
f 5//8 8//8 12//8
f 12//9 8//9 13//9
f 3//10 12//10 13//10
f 2//11 5//11 14//11
f 5//12 3//12 14//12
f 8//13 15//13 16//13
f 15//14 1//14 16//14
f 7//15 10//15 17//15
f 1//16 15//16 17//16
f 16//17 1//17 17//17
f 10//18 16//18 17//18
f 3//19 5//19 18//19
f 12//20 3//20 18//20
f 5//21 12//21 18//21
f 10//22 6//22 19//22
f 5//23 4//23 20//23
f 4//24 7//24 20//24
f 8//25 5//25 20//25
f 15//26 8//26 20//26
f 6//27 9//27 21//27
f 11//28 2//28 21//28
f 9//29 11//29 21//29
f 2//30 14//30 21//30
f 19//31 6//31 21//31
f 14//32 19//32 21//32
f 7//33 17//33 22//33
f 17//34 15//34 22//34
f 20//35 7//35 22//35
f 15//36 20//36 22//36
f 13//37 8//37 23//37
f 8//38 16//38 23//38
f 16//39 10//39 23//39
f 10//40 19//40 23//40
f 19//41 13//41 23//41
f 3//10 13//10 24//10
f 14//42 3//42 24//42
f 19//43 14//43 24//43
