# Blender v2.79 (sub 0) OBJ File: ''
# www.blender.org
mtllib 102670_link_4_19.mtl
o Shape_IndexedFaceSet.019_Shape_IndexedFaceSet.20396
v 0.087117 0.075560 0.007680
v -0.150040 0.032522 -0.185478
v -0.139697 -0.023486 -0.099406
v 0.061827 -0.027150 -0.182839
v 0.102251 0.097488 -0.192103
v -0.150040 0.093702 -0.001951
v 0.085095 -0.023866 0.006163
v -0.134733 -0.028657 0.020979
v -0.140271 0.088817 -0.176930
v -0.150040 0.070753 0.028651
v -0.067838 -0.021063 -0.172188
v 0.081588 0.087156 -0.016963
v 0.094678 0.024881 -0.185478
v -0.150040 0.024881 0.028651
v 0.083786 0.067350 0.012132
vn 0.0819 -0.0639 0.9946
vn -0.0077 -0.0716 -0.9974
vn 0.9971 -0.0214 0.0732
vn -0.0353 -0.9985 -0.0414
vn 0.0228 -0.9996 0.0146
vn -0.0674 0.1612 -0.9846
vn -0.9819 0.1795 -0.0598
vn -0.0376 0.9988 -0.0300
vn -1.0000 0.0000 0.0000
vn 0.0368 0.7995 0.5996
vn -0.4338 -0.7781 -0.4542
vn -0.0538 -0.9948 -0.0862
vn -0.0933 -0.3722 -0.9234
vn 0.7625 0.6343 0.1274
vn 0.0323 0.9975 0.0627
vn 0.0526 0.9081 0.4155
vn 0.0763 -0.0985 -0.9922
vn 0.8397 -0.5349 -0.0941
vn 0.9945 -0.1016 0.0239
vn -0.9814 -0.1918 -0.0068
vn -0.9601 -0.2784 0.0276
vn 0.0694 -0.1220 0.9901
vn 0.0705 0.0000 0.9975
vn 0.8223 -0.0254 0.5684
vn 0.0694 0.4536 0.8885
usemtl Shape.20407
s off
f 14//1 7//1 15//1
f 4//2 2//2 5//2
f 5//3 1//3 7//3
f 3//4 4//4 8//4
f 4//5 7//5 8//5
f 5//6 2//6 9//6
f 2//7 6//7 9//7
f 6//8 5//8 9//8
f 6//9 2//9 10//9
f 1//10 6//10 10//10
f 3//11 2//11 11//11
f 4//12 3//12 11//12
f 2//13 4//13 11//13
f 1//14 5//14 12//14
f 5//15 6//15 12//15
f 6//16 1//16 12//16
f 4//17 5//17 13//17
f 7//18 4//18 13//18
f 5//19 7//19 13//19
f 2//20 3//20 14//20
f 3//21 8//21 14//21
f 8//22 7//22 14//22
f 10//9 2//9 14//9
f 10//23 14//23 15//23
f 7//24 1//24 15//24
f 1//25 10//25 15//25
