# Blender v2.79 (sub 0) OBJ File: ''
# www.blender.org
mtllib 102670_link_4_7.mtl
o Shape_IndexedFaceSet.007_Shape_IndexedFaceSet.20384
v 0.197460 -0.030001 -0.082555
v 0.353905 0.032276 0.214509
v 0.354567 -0.025324 0.215530
v 0.094731 0.017245 0.021003
v 0.199434 0.099387 -0.203538
v 0.262893 0.093702 0.227484
v 0.232294 -0.036305 0.227484
v 0.091785 0.095133 -0.190023
v 0.103265 -0.032158 -0.100705
v 0.217073 0.047812 -0.185478
v 0.094731 0.070757 0.021003
v 0.328111 0.073359 0.103412
v 0.324064 0.093702 0.227484
v 0.316937 -0.026997 0.086463
v 0.094731 -0.036305 0.013363
v 0.090790 0.032628 -0.191559
v 0.352351 -0.035113 0.223700
v 0.239944 0.063109 0.227484
v 0.224723 0.070757 -0.185478
v 0.201774 0.032516 -0.185478
v 0.258307 -0.027633 -0.025377
v 0.333911 -0.008698 0.116207
v 0.114659 0.084019 -0.005005
v 0.346823 0.075316 0.214651
vn 0.5464 0.0955 0.8321
vn -0.0371 0.9991 0.0186
vn -0.8322 0.0000 0.5544
vn 0.0000 0.9999 0.0132
vn 0.0000 0.0000 1.0000
vn 0.4784 0.8689 -0.1269
vn -0.8388 -0.0769 0.5389
vn 0.0294 -0.9990 -0.0341
vn -0.9510 -0.2981 -0.0820
vn -0.1256 0.0264 -0.9917
vn -0.9998 0.0000 0.0185
vn -0.9998 0.0155 0.0158
vn -0.9998 -0.0026 0.0183
vn 0.9600 0.0160 0.2795
vn 0.0317 -0.0224 0.9992
vn 0.8779 -0.4080 -0.2507
vn 0.0097 -0.9999 -0.0063
vn 0.0311 -0.9990 -0.0324
vn -0.8153 0.0627 0.5757
vn -0.6905 0.5180 0.5048
vn 0.4549 -0.1517 -0.8775
vn 0.8007 0.5235 -0.2913
vn 0.8698 -0.2900 -0.3992
vn 0.1181 -0.8509 -0.5119
vn 0.2448 -0.2448 -0.9382
vn 0.0311 -0.8118 -0.5831
vn 0.0526 -0.2587 -0.9645
vn 0.7945 -0.4443 -0.4140
vn 0.1033 -0.9923 -0.0688
vn 0.2350 -0.9648 -0.1177
vn 0.4521 -0.7706 -0.4492
vn 0.6285 -0.6286 -0.4581
vn 0.9793 0.0077 -0.2024
vn 0.9763 0.0357 -0.2135
vn 0.8783 -0.4070 -0.2508
vn 0.9414 0.0140 -0.3370
vn 0.8992 -0.2136 -0.3817
vn -0.1935 0.9776 0.0826
vn -0.3590 0.9136 0.1908
vn -0.4485 0.8872 0.1087
vn 0.9729 0.1606 -0.1665
vn 0.5852 0.8030 -0.1126
vn 0.5945 0.0952 0.7984
usemtl Shape.20395
s off
f 13//1 17//1 24//1
f 6//2 5//2 8//2
f 4//3 7//3 11//3
f 5//4 6//4 13//4
f 6//5 7//5 13//5
f 12//6 5//6 13//6
f 7//7 4//7 15//7
f 9//8 1//8 15//8
f 9//9 15//9 16//9
f 8//10 5//10 16//10
f 4//11 11//11 16//11
f 11//12 8//12 16//12
f 15//13 4//13 16//13
f 3//14 2//14 17//14
f 13//15 7//15 17//15
f 14//16 3//16 17//16
f 7//17 15//17 17//17
f 15//18 1//18 17//18
f 7//5 6//5 18//5
f 11//19 7//19 18//19
f 6//20 11//20 18//20
f 10//21 5//21 19//21
f 5//22 12//22 19//22
f 14//23 10//23 19//23
f 1//24 9//24 20//24
f 5//25 10//25 20//25
f 9//26 16//26 20//26
f 16//27 5//27 20//27
f 10//28 14//28 21//28
f 17//29 1//29 21//29
f 14//30 17//30 21//30
f 1//31 20//31 21//31
f 20//32 10//32 21//32
f 2//33 3//33 22//33
f 12//34 2//34 22//34
f 3//35 14//35 22//35
f 19//36 12//36 22//36
f 14//37 19//37 22//37
f 6//38 8//38 23//38
f 11//39 6//39 23//39
f 8//40 11//40 23//40
f 2//41 12//41 24//41
f 12//42 13//42 24//42
f 17//43 2//43 24//43
