# Blender v2.79 (sub 0) OBJ File: ''
# www.blender.org
mtllib 102670_link_4_3.mtl
o Shape_IndexedFaceSet.003_Shape_IndexedFaceSet.20380
v -0.122678 -0.521545 0.627029
v 0.231332 -0.669002 0.273154
v 0.231618 -0.683816 0.273159
v -0.190554 -0.684274 -0.172799
v 0.058021 -0.505565 -0.145503
v -0.085499 -0.712788 0.676993
v 0.142510 -0.499553 0.575066
v 0.157188 -0.720399 -0.168478
v -0.217850 -0.499771 0.221861
v -0.230586 -0.712034 0.251382
v 0.215903 -0.499671 0.243840
v 0.084412 -0.706563 0.681898
v -0.034628 -0.497737 0.699656
v -0.062454 -0.501842 -0.159793
v 0.179719 -0.639483 -0.169529
v -0.134601 -0.725533 -0.159802
v 0.167774 -0.725128 0.380932
v -0.196214 -0.691018 0.486780
v 0.231963 -0.698711 0.029152
v -0.098085 -0.725005 0.567530
v -0.203453 -0.499604 0.412978
v 0.193946 -0.698288 0.471876
v -0.241792 -0.691469 0.051129
v -0.195995 -0.639404 -0.146002
v 0.062329 -0.498142 0.683216
v 0.010027 -0.713675 0.710326
v 0.193543 -0.499836 0.427317
v -0.233168 -0.632091 0.309978
v -0.215203 -0.718897 -0.017064
v 0.189625 -0.725287 0.042848
v 0.142949 -0.639503 0.605482
v -0.137872 -0.706150 0.620865
v -0.159449 -0.499481 0.553115
v 0.213726 -0.719262 0.273108
v 0.222952 -0.639364 -0.013152
v -0.169939 -0.725038 0.373645
v -0.071684 -0.647135 0.697481
v 0.032614 -0.609964 0.714579
v 0.118821 -0.719064 0.600218
v 0.181511 -0.706817 -0.173794
v -0.226407 -0.654323 -0.044422
v 0.009611 -0.725271 0.625852
v -0.225667 -0.521620 0.273149
v 0.194061 -0.602669 0.464616
v 0.092612 -0.497614 0.655188
v -0.041960 -0.706888 0.713220
v 0.224073 -0.543600 0.251145
v -0.207956 -0.711665 0.411009
v 0.216362 -0.632095 0.376357
v 0.139638 -0.725593 -0.138250
v 0.208388 -0.499747 0.214487
v -0.174015 -0.610023 0.545477
v -0.241277 -0.683875 0.236307
v -0.240146 -0.646749 0.067300
v 0.156007 -0.712325 0.558126
v 0.209365 -0.705986 -0.095864
v -0.181069 -0.712860 -0.167643
v -0.078898 -0.498705 0.673770
v -0.218572 -0.698450 0.398565
v 0.231690 -0.654311 0.029430
v -0.130361 -0.639517 0.635184
v 0.213435 -0.719121 0.011387
v 0.084310 -0.609993 0.681427
v -0.226525 -0.706110 -0.037181
vn -0.5938 -0.7872 -0.1662
vn 0.0002 0.0710 -0.9975
vn 0.1216 0.2813 -0.9519
vn -0.0110 0.9999 -0.0000
vn -0.4930 0.4012 -0.7720
vn -0.7012 0.6517 -0.2890
vn -0.2679 -0.9536 0.1372
vn -0.0205 0.9998 0.0056
vn 0.8923 -0.4505 0.0288
vn 0.8845 -0.4466 0.1351
vn 0.1500 -0.9886 0.0102
vn -0.0910 -0.9958 -0.0051
vn -0.2319 -0.9727 0.0116
vn 0.1638 0.2258 0.9603
vn 0.3643 -0.1172 0.9239
vn 0.1762 -0.9592 0.2210
vn 0.0012 0.0632 -0.9980
vn -0.9588 0.0507 -0.2796
vn -0.8902 0.4058 -0.2069
vn -0.0665 -0.9908 0.1182
vn -0.0567 -0.9891 0.1361
vn -0.0024 -1.0000 0.0008
vn -0.0032 -1.0000 0.0014
vn 0.0666 -0.9969 0.0424
vn 0.0878 -0.9869 0.1350
vn -0.8804 0.4697 0.0659
vn -0.9839 0.1130 0.1385
vn 0.9382 0.1222 0.3238
vn 0.9300 0.0808 0.3586
vn 0.9376 0.0252 0.3468
vn -0.0022 1.0000 -0.0034
vn 0.0090 0.9996 0.0286
vn 0.0332 0.9994 0.0049
vn 0.0801 0.9965 0.0257
vn 0.8443 0.1163 0.5230
vn -0.1084 -0.9523 0.2854
vn -0.3484 0.0728 0.9345
vn -0.6271 -0.1088 0.7713
vn -0.1065 0.0681 0.9920
vn 0.0488 -0.0515 0.9975
vn 0.9725 0.2006 0.1187
vn -0.7777 -0.5654 0.2746
vn -0.2879 -0.9500 0.1211
vn -0.2485 -0.9642 0.0923
vn -0.2930 -0.9551 0.0437
vn 0.9904 0.0192 0.1368
vn 0.9809 -0.0713 0.1808
vn 0.9707 0.0170 0.2396
vn 0.9724 0.0839 0.2177
vn 0.9902 0.0777 0.1159
vn 0.9832 0.1150 0.1418
vn 0.0125 -0.9867 -0.1623
vn 0.0036 -1.0000 0.0007
vn -0.0002 -1.0000 0.0004
vn 0.0021 -1.0000 0.0008
vn 0.0345 0.9989 -0.0306
vn -0.0002 1.0000 -0.0055
vn 0.6802 0.6711 -0.2950
vn 0.8636 0.4525 -0.2223
vn 0.8496 0.4722 -0.2352
vn -0.0001 1.0000 -0.0049
vn 0.0043 1.0000 -0.0037
vn -0.9605 0.0677 0.2698
vn -0.9178 -0.0350 0.3954
vn -0.9489 0.1045 0.2979
vn -0.9377 -0.3470 0.0168
vn -0.9952 0.0843 0.0503
vn -0.9885 0.0824 -0.1271
vn -0.9482 0.2869 -0.1361
vn -0.9759 0.2103 -0.0592
vn -0.9993 0.0363 0.0013
vn -0.9956 0.0927 0.0137
vn 0.9170 -0.0885 0.3890
vn 0.8492 -0.1724 0.4992
vn 0.6127 -0.7773 0.1430
vn 0.3307 -0.9394 0.0898
vn 0.2725 -0.9582 0.0873
vn 0.5273 -0.7782 0.3412
vn 0.9552 0.1332 -0.2642
vn 0.9405 0.0464 -0.3366
vn 0.4559 -0.8766 -0.1536
vn -0.0146 -0.5643 -0.8254
vn -0.2470 -0.9644 -0.0947
vn -0.0136 -0.1819 -0.9832
vn -0.0101 -0.3487 -0.9372
vn -0.7555 0.4215 0.5016
vn -0.0297 0.9995 0.0134
vn -0.5034 0.1124 0.8567
vn -0.9689 0.0562 0.2408
vn -0.9769 0.0594 0.2054
vn -0.8256 -0.5518 0.1183
vn -0.8568 -0.4482 0.2549
vn -0.9471 -0.3032 0.1053
vn -0.9901 -0.0373 0.1352
vn 0.9998 0.0193 0.0026
vn 1.0000 0.0061 0.0010
vn 0.9620 0.2502 -0.1096
vn 0.9983 0.0587 0.0050
vn 0.9833 0.1740 -0.0531
vn 0.9840 0.0072 -0.1783
vn 0.9813 0.0347 -0.1892
vn -0.7334 -0.0628 0.6769
vn -0.8808 0.0895 0.4649
vn -0.7303 -0.0587 0.6806
vn -0.8983 0.0068 0.4394
vn -0.8847 0.0849 0.4584
vn -0.7491 0.0941 0.6557
vn -0.7213 0.0749 0.6886
vn 0.7409 -0.6716 -0.0012
vn 0.2497 -0.9683 -0.0008
vn 0.1961 -0.9791 -0.0544
vn 0.1877 -0.9809 -0.0502
vn 0.4231 -0.8973 -0.1259
vn 0.7801 -0.6167 -0.1051
vn 0.7922 0.0038 0.6102
vn 0.5398 0.0047 0.8418
vn 0.5376 0.0922 0.8382
vn 0.6732 0.1206 0.7296
vn 0.8036 0.0784 0.5900
vn -0.7608 -0.6485 -0.0240
vn -0.7292 -0.6839 -0.0243
vn -0.9646 -0.0344 -0.2614
vn -0.9857 -0.0211 -0.1669
vn -0.8907 -0.3482 -0.2923
usemtl Shape.20391
s off
f 57//1 29//1 64//1
f 4//2 14//2 15//2
f 14//3 5//3 15//3
f 13//4 9//4 21//4
f 14//5 4//5 24//5
f 9//6 14//6 24//6
f 20//7 6//7 32//7
f 13//8 21//8 33//8
f 19//9 3//9 34//9
f 3//10 22//10 34//10
f 17//11 30//11 34//11
f 29//12 16//12 36//12
f 10//13 29//13 36//13
f 25//14 13//14 38//14
f 26//15 12//15 38//15
f 12//16 26//16 39//16
f 4//17 15//17 40//17
f 24//18 4//18 41//18
f 9//19 24//19 41//19
f 6//20 20//20 42//20
f 26//21 6//21 42//21
f 36//22 16//22 42//22
f 20//23 36//23 42//23
f 17//24 39//24 42//24
f 39//25 26//25 42//25
f 21//26 9//26 43//26
f 28//27 21//27 43//27
f 27//28 7//28 44//28
f 7//29 31//29 44//29
f 31//30 22//30 44//30
f 9//31 13//31 45//31
f 13//32 25//32 45//32
f 27//33 11//33 45//33
f 7//34 27//34 45//34
f 31//35 7//35 45//35
f 6//36 26//36 46//36
f 13//37 37//37 46//37
f 37//38 6//38 46//38
f 38//39 13//39 46//39
f 26//40 38//40 46//40
f 11//41 27//41 47//41
f 32//42 18//42 48//42
f 20//43 32//43 48//43
f 36//44 20//44 48//44
f 10//45 36//45 48//45
f 3//46 2//46 49//46
f 22//47 3//47 49//47
f 44//48 22//48 49//48
f 27//49 44//49 49//49
f 2//50 47//50 49//50
f 47//51 27//51 49//51
f 16//52 8//52 50//52
f 30//53 17//53 50//53
f 42//54 16//54 50//54
f 17//55 42//55 50//55
f 5//56 14//56 51//56
f 14//57 9//57 51//57
f 15//58 5//58 51//58
f 11//59 35//59 51//59
f 35//60 15//60 51//60
f 9//61 45//61 51//61
f 45//62 11//62 51//62
f 21//63 18//63 52//63
f 18//64 32//64 52//64
f 33//65 21//65 52//65
f 23//66 10//66 53//66
f 28//67 43//67 53//67
f 41//68 23//68 54//68
f 9//69 41//69 54//69
f 43//70 9//70 54//70
f 23//71 53//71 54//71
f 53//72 43//72 54//72
f 22//73 31//73 55//73
f 31//74 12//74 55//74
f 34//75 22//75 55//75
f 17//76 34//76 55//76
f 39//77 17//77 55//77
f 12//78 39//78 55//78
f 15//79 35//79 56//79
f 40//80 15//80 56//80
f 8//81 40//81 56//81
f 8//82 16//82 57//82
f 16//83 29//83 57//83
f 4//84 40//84 57//84
f 40//85 8//85 57//85
f 33//86 1//86 58//86
f 13//87 33//87 58//87
f 37//88 13//88 58//88
f 18//89 21//89 59//89
f 21//90 28//90 59//90
f 10//91 48//91 59//91
f 48//92 18//92 59//92
f 53//93 10//93 59//93
f 28//94 53//94 59//94
f 2//95 3//95 60//95
f 3//96 19//96 60//96
f 35//97 11//97 60//97
f 47//98 2//98 60//98
f 11//99 47//99 60//99
f 19//100 56//100 60//100
f 56//101 35//101 60//101
f 32//102 6//102 61//102
f 1//103 33//103 61//103
f 6//104 37//104 61//104
f 52//105 32//105 61//105
f 33//106 52//106 61//106
f 58//107 1//107 61//107
f 37//108 58//108 61//108
f 19//109 34//109 62//109
f 34//110 30//110 62//110
f 50//111 8//111 62//111
f 30//112 50//112 62//112
f 8//113 56//113 62//113
f 56//114 19//114 62//114
f 12//115 31//115 63//115
f 38//116 12//116 63//116
f 25//117 38//117 63//117
f 45//118 25//118 63//118
f 31//119 45//119 63//119
f 10//120 23//120 64//120
f 29//121 10//121 64//121
f 41//122 4//122 64//122
f 23//123 41//123 64//123
f 4//124 57//124 64//124
