####
#
# OBJ File Generated by Meshlab
#
####
# Object 100454_link_0_6.obj
#
# Vertices: 26
# Faces: 48
#
####
mtllib ./100454_link_0_6.obj.mtl

vn -0.971577 0.180629 -0.153009
v -0.473449 0.861102 -0.036550
vn 0.442799 0.895937 -0.035004
v -0.246617 0.905112 0.012127
vn 0.526974 0.828878 -0.187775
v -0.255234 0.897144 -0.023405
vn 0.164071 -0.962491 0.216081
v -0.355680 0.755386 0.013905
vn 0.077361 0.986005 0.147681
v -0.367489 0.928784 0.033452
vn 0.019454 -0.373496 -0.927428
v -0.381471 0.777263 -0.052320
vn 0.124888 0.879887 -0.458478
v -0.357361 0.920405 -0.050126
vn -0.252430 -0.464367 0.848906
v -0.455553 0.797613 0.030631
vn 0.062396 -0.148231 0.986982
v -0.306016 0.855948 0.072196
vn -0.494525 -0.655682 -0.570549
v -0.452571 0.794300 -0.042277
vn 0.172491 0.081027 -0.981673
v -0.265591 0.897144 -0.058371
vn -0.735342 0.595445 0.323601
v -0.449376 0.886228 0.027851
vn 0.088313 -0.667250 0.739580
v -0.375027 0.777185 0.040421
vn -0.343405 0.677853 -0.650068
v -0.427580 0.905105 -0.041608
vn 0.523844 -0.836885 -0.158781
v -0.356842 0.760010 -0.031201
vn 0.439882 0.212562 0.872537
v -0.266175 0.904815 0.034523
vn -0.096572 0.443332 0.891140
v -0.377308 0.909674 0.056716
vn 0.653530 -0.502141 0.566351
v -0.234983 0.863114 0.028787
vn -0.966056 0.034775 0.255983
v -0.470695 0.800004 0.010620
vn -0.409923 0.912038 -0.012208
v -0.392172 0.940332 -0.014950
vn 0.445199 -0.342601 -0.827298
v -0.248942 0.843721 -0.048061
vn -0.727810 0.524536 -0.441763
v -0.450153 0.883235 -0.039866
vn -0.355431 -0.004914 0.934689
v -0.449500 0.851817 0.048565
vn -0.109016 0.032984 -0.993493
v -0.419224 0.872935 -0.070937
vn -0.544475 -0.834235 -0.087174
v -0.466259 0.797494 -0.020938
vn 0.803352 -0.595488 0.004351
v -0.237651 0.836550 -0.020890
# 26 vertices, 0 vertices normals


usemtl material_0
f 15//15 21//21 26//26
f 2//2 3//3 5//5
f 5//5 3//3 7//7
f 6//6 4//4 10//10
f 7//7 3//3 11//11
f 9//9 8//8 13//13
f 10//10 4//4 13//13
f 4//4 6//6 15//15
f 2//2 5//5 16//16
f 9//9 13//13 16//16
f 5//5 12//12 17//17
f 16//16 5//5 17//17
f 9//9 16//16 17//17
f 3//3 2//2 18//18
f 13//13 4//4 18//18
f 4//4 15//15 18//18
f 2//2 16//16 18//18
f 16//16 13//13 18//18
f 12//12 1//1 19//19
f 5//5 7//7 20//20
f 12//12 5//5 20//20
f 7//7 14//14 20//20
f 11//11 3//3 21//21
f 6//6 11//11 21//21
f 15//15 6//6 21//21
f 10//10 1//1 22//22
f 1//1 12//12 22//22
f 12//12 20//20 22//22
f 20//20 14//14 22//22
f 8//8 9//9 23//23
f 9//9 17//17 23//23
f 17//17 12//12 23//23
f 19//19 8//8 23//23
f 12//12 19//19 23//23
f 6//6 10//10 24//24
f 11//11 6//6 24//24
f 7//7 11//11 24//24
f 14//14 7//7 24//24
f 10//10 22//22 24//24
f 22//22 14//14 24//24
f 1//1 10//10 25//25
f 13//13 8//8 25//25
f 10//10 13//13 25//25
f 19//19 1//1 25//25
f 8//8 19//19 25//25
f 3//3 18//18 26//26
f 18//18 15//15 26//26
f 21//21 3//3 26//26
# 48 faces, 0 coords texture

# End of File
