####
#
# OBJ File Generated by Meshlab
#
####
# Object 100454_link_0_5.obj
#
# Vertices: 33
# Faces: 62
#
####
mtllib ./100454_link_0_5.obj.mtl

vn 0.863649 0.500414 -0.060797
v -0.455804 0.798665 -0.026582
vn -0.373913 -0.924153 -0.078303
v -0.594747 0.556325 -0.020158
vn -0.667089 -0.700285 0.254151
v -0.597021 0.551811 -0.003919
vn 0.840771 -0.521522 0.145321
v -0.451733 0.558240 0.001482
vn -0.135743 0.078330 0.987643
v -0.529091 0.741041 0.056159
vn 0.167732 -0.324712 -0.930821
v -0.496484 0.566397 -0.072587
vn 0.448340 0.011336 0.893791
v -0.432440 0.697647 0.042205
vn 0.031887 -0.262981 0.964274
v -0.574360 0.556544 0.033958
vn 0.953220 0.164715 -0.253457
v -0.411654 0.690921 -0.040450
vn -0.141155 0.252401 -0.957272
v -0.520789 0.745842 -0.070285
vn 0.187932 0.240179 0.952363
v -0.463447 0.796350 0.048574
vn -0.010708 -0.686991 0.726587
v -0.509693 0.549885 0.040858
vn -0.133610 0.001111 -0.991033
v -0.576045 0.598653 -0.076276
vn -0.869503 0.440789 -0.222869
v -0.556022 0.749561 -0.035850
vn -0.894944 0.347601 0.279730
v -0.611016 0.628580 0.023833
vn 0.233734 0.222208 -0.946568
v -0.455232 0.787014 -0.052982
vn -0.752620 0.261721 -0.604207
v -0.602463 0.628351 -0.043917
vn -0.815586 0.516403 0.261052
v -0.557440 0.754613 0.021719
vn 0.932487 -0.325603 -0.156365
v -0.416893 0.645641 -0.024861
vn 0.813483 -0.093707 0.573990
v -0.410176 0.680164 0.023564
vn -0.051067 -0.988365 -0.143270
v -0.497566 0.543161 -0.042133
vn -0.362410 -0.692464 -0.623821
v -0.576823 0.557782 -0.043338
vn -0.468338 0.782183 -0.410913
v -0.506680 0.817124 -0.033853
vn 0.276865 -0.004183 -0.960900
v -0.438620 0.688582 -0.067655
vn 0.470575 -0.553383 0.687260
v -0.487771 0.545136 0.024524
vn -0.298646 -0.017852 0.954197
v -0.586800 0.600153 0.057587
vn -0.295717 0.869067 0.396577
v -0.491666 0.824011 0.022024
vn 0.695677 -0.487462 -0.527650
v -0.464662 0.553722 -0.038037
vn 0.894031 0.435689 0.104331
v -0.444407 0.802390 0.023976
vn -0.912459 -0.317545 0.258039
v -0.616122 0.593496 0.026159
vn -0.964201 0.063096 -0.257558
v -0.613045 0.606628 -0.038227
vn 0.820254 -0.360074 0.444444
v -0.422403 0.638735 0.022560
vn -0.632734 0.277610 -0.722897
v -0.555043 0.723588 -0.059814
# 33 vertices, 0 vertices normals


usemtl material_0
f 17//17 14//14 33//33
f 7//7 5//5 8//8
f 3//3 2//2 8//8
f 1//1 7//7 9//9
f 5//5 7//7 11//11
f 7//7 8//8 12//12
f 8//8 2//2 12//12
f 1//1 9//9 16//16
f 13//13 10//10 16//16
f 15//15 5//5 18//18
f 14//14 15//15 18//18
f 19//19 9//9 20//20
f 9//9 7//7 20//20
f 12//12 2//2 21//21
f 13//13 6//6 22//22
f 21//21 2//2 22//22
f 6//6 21//21 22//22
f 10//10 14//14 23//23
f 1//1 16//16 23//23
f 16//16 10//10 23//23
f 14//14 18//18 23//23
f 6//6 13//13 24//24
f 16//16 9//9 24//24
f 13//13 16//16 24//24
f 7//7 12//12 25//25
f 20//20 7//7 25//25
f 12//12 21//21 25//25
f 8//8 5//5 26//26
f 5//5 15//15 26//26
f 5//5 11//11 27//27
f 18//18 5//5 27//27
f 1//1 23//23 27//27
f 23//23 18//18 27//27
f 19//19 4//4 28//28
f 9//9 19//19 28//28
f 21//21 6//6 28//28
f 6//6 24//24 28//28
f 24//24 9//9 28//28
f 4//4 25//25 28//28
f 25//25 21//21 28//28
f 7//7 1//1 29//29
f 11//11 7//7 29//29
f 1//1 27//27 29//29
f 27//27 11//11 29//29
f 2//2 3//3 30//30
f 3//3 8//8 30//30
f 8//8 26//26 30//30
f 26//26 15//15 30//30
f 15//15 14//14 31//31
f 17//17 13//13 31//31
f 14//14 17//17 31//31
f 13//13 22//22 31//31
f 22//22 2//2 31//31
f 2//2 30//30 31//31
f 30//30 15//15 31//31
f 4//4 19//19 32//32
f 19//19 20//20 32//32
f 20//20 25//25 32//32
f 25//25 4//4 32//32
f 10//10 13//13 33//33
f 14//14 10//10 33//33
f 13//13 17//17 33//33
# 62 faces, 0 coords texture

# End of File
