####
#
# OBJ File Generated by Meshlab
#
####
# Object 100454_link_0_2.obj
#
# Vertices: 21
# Faces: 38
#
####
mtllib ./100454_link_0_2.obj.mtl

vn -0.491247 -0.837316 0.239955
v 0.320973 0.771929 -0.050162
vn -0.133461 0.985739 0.102507
v 0.353596 0.941656 0.020747
vn 0.612394 0.785805 -0.086510
v 0.381610 0.935298 -0.011860
vn -0.950528 -0.297812 0.088340
v 0.231243 0.897275 -0.022228
vn 0.605916 -0.164123 0.778414
v 0.378756 0.801533 0.036781
vn -0.597645 0.797195 0.085441
v 0.231323 0.902913 0.025884
vn 0.677840 -0.116615 -0.725902
v 0.387948 0.875984 -0.051000
vn 0.468053 -0.081398 0.879944
v 0.388904 0.870843 0.041563
vn -0.164736 0.399528 -0.901798
v 0.249698 0.911269 -0.048667
vn 0.476309 -0.093864 -0.874254
v 0.378313 0.803827 -0.047223
vn 0.094350 0.888180 -0.449705
v 0.343526 0.931268 -0.044950
vn -0.553448 -0.823518 -0.124550
v 0.364662 0.783067 0.016587
vn -0.031915 0.169184 0.985068
v 0.246396 0.913022 0.039185
vn 0.134961 0.340792 0.930401
v 0.331817 0.923717 0.041509
vn 0.842266 0.272047 0.465381
v 0.398523 0.895929 0.023378
vn -0.233523 -0.109088 -0.966213
v 0.312782 0.800753 -0.068123
vn -0.310509 -0.860265 0.404386
v 0.365483 0.782615 -0.023525
vn -0.648984 -0.698700 -0.301061
v 0.228686 0.897936 0.011885
vn 0.806186 0.383467 -0.450574
v 0.402066 0.898311 -0.029860
vn -0.455580 -0.555681 0.695461
v 0.276383 0.822717 0.053499
vn 0.013807 0.119734 -0.992710
v 0.324451 0.924525 -0.053030
# 21 vertices, 0 vertices normals


usemtl material_0
f 9//9 11//11 21//21
f 2//2 4//4 6//6
f 5//5 7//7 8//8
f 4//4 2//2 9//9
f 9//9 7//7 10//10
f 7//7 5//5 10//10
f 2//2 3//3 11//11
f 9//9 2//2 11//11
f 2//2 6//6 13//13
f 5//5 8//8 13//13
f 13//13 8//8 14//14
f 2//2 13//13 14//14
f 2//2 14//14 15//15
f 3//3 2//2 15//15
f 8//8 7//7 15//15
f 14//14 8//8 15//15
f 1//1 4//4 16//16
f 4//4 9//9 16//16
f 9//9 10//10 16//16
f 10//10 1//1 16//16
f 4//4 1//1 17//17
f 1//1 10//10 17//17
f 10//10 5//5 17//17
f 12//12 4//4 17//17
f 5//5 12//12 17//17
f 6//6 4//4 18//18
f 4//4 12//12 18//18
f 11//11 3//3 19//19
f 7//7 11//11 19//19
f 3//3 15//15 19//19
f 15//15 7//7 19//19
f 12//12 5//5 20//20
f 13//13 6//6 20//20
f 5//5 13//13 20//20
f 6//6 18//18 20//20
f 18//18 12//12 20//20
f 7//7 9//9 21//21
f 11//11 7//7 21//21
# 38 faces, 0 coords texture

# End of File
