# Blender v2.79 (sub 0) OBJ File: ''
# www.blender.org
mtllib 100454_link_1_17.mtl
o Shape_IndexedFaceSet.017_Shape_IndexedFaceSet.14545
v 0.188409 -0.180352 0.228323
v 0.190058 -0.177449 0.235167
v 0.422502 0.433660 0.225701
v 0.331024 -0.150829 0.232756
v 0.276659 -0.182038 0.109748
v 0.471791 0.433660 0.113045
v 0.514048 0.419585 0.232756
v 0.387276 -0.157866 0.113045
v 0.546689 0.443288 0.113925
v 0.352153 -0.164965 0.197528
v 0.542209 0.398472 0.148250
v 0.441104 0.443713 0.230608
v 0.387276 -0.150829 0.127120
v 0.485888 0.454834 0.113045
v 0.496443 0.446257 0.231099
v 0.422502 0.285748 0.113045
v 0.549275 0.419585 0.141206
v 0.443631 0.454834 0.211615
v 0.338056 -0.164965 0.218658
v 0.359184 -0.157866 0.190485
v 0.302829 -0.087490 0.113045
v 0.537168 0.387591 0.117161
vn 0.9559 -0.2617 -0.1331
vn -0.9317 0.3555 0.0737
vn -0.8654 0.3283 -0.3786
vn 0.0182 -0.0058 0.9998
vn 0.0313 -0.0068 -0.9995
vn 0.2133 -0.9770 0.0066
vn -0.3211 0.1366 0.9372
vn -0.0238 0.0170 0.9996
vn 0.7824 -0.5570 0.2785
vn 0.9520 -0.2738 0.1369
vn 0.8927 -0.2658 0.3639
vn -0.7821 0.5207 -0.3422
vn -0.0153 0.0102 -0.9998
vn 0.0145 0.0004 -0.9999
vn 0.7810 0.5355 0.3213
vn -0.0114 0.0545 0.9984
vn 0.1855 0.9811 0.0547
vn -0.7961 0.2653 -0.5440
vn -0.3104 0.1034 -0.9450
vn 0.8297 0.4580 0.3192
vn 0.9523 -0.2737 0.1348
vn 0.9165 -0.1891 0.3526
vn -0.5154 0.7677 0.3809
vn -0.7688 0.5479 -0.3296
vn -0.0442 0.8647 0.5004
vn 0.1386 0.9886 0.0594
vn 0.1185 -0.9241 0.3634
vn 0.1380 -0.6641 0.7348
vn 0.1079 -0.9897 0.0943
vn 0.7503 -0.2408 0.6157
vn 0.1259 -0.9885 0.0840
vn 0.8024 -0.2636 0.5354
vn 0.8919 -0.2660 0.3659
vn 0.8103 -0.5013 0.3035
vn 0.8033 -0.2548 0.5382
vn -0.7780 0.2357 -0.5824
vn -0.7804 0.2502 -0.5730
vn -0.6104 0.1957 -0.7675
vn 0.5291 -0.1391 -0.8371
vn 0.9534 -0.1772 -0.2443
usemtl Shape.14554
s off
f 17//1 8//1 22//1
f 1//2 2//2 3//2
f 1//3 3//3 6//3
f 2//4 4//4 7//4
f 8//5 5//5 9//5
f 5//6 8//6 10//6
f 3//7 2//7 12//7
f 2//8 7//8 12//8
f 10//9 8//9 13//9
f 8//10 11//10 13//10
f 11//11 7//11 13//11
f 6//12 3//12 14//12
f 5//13 6//13 14//13
f 9//14 5//14 14//14
f 7//15 9//15 15//15
f 12//16 7//16 15//16
f 9//17 14//17 15//17
f 1//18 6//18 16//18
f 6//19 5//19 16//19
f 9//20 7//20 17//20
f 11//21 8//21 17//21
f 7//22 11//22 17//22
f 3//23 12//23 18//23
f 14//24 3//24 18//24
f 12//25 15//25 18//25
f 15//26 14//26 18//26
f 2//27 1//27 19//27
f 4//28 2//28 19//28
f 1//29 5//29 19//29
f 7//30 4//30 19//30
f 5//31 10//31 19//31
f 19//32 10//32 20//32
f 13//33 7//33 20//33
f 10//34 13//34 20//34
f 7//35 19//35 20//35
f 5//36 1//36 21//36
f 1//37 16//37 21//37
f 16//38 5//38 21//38
f 8//39 9//39 22//39
f 9//40 17//40 22//40
