# SSTK version 0.8.0
# 11
mtllib original-11.mtl
o Group11/mesh6/mesh6-geometry#mesh6-geometry
v 0.185710 0.754763 -0.088543
v 0.162503 0.713604 -0.131125
v 0.098758 0.848923 -0.088543
v 0.248161 0.603288 -0.088543
v 0.086855 0.795523 -0.131125
v 0.105199 -0.002132 -0.088543
v 0.185710 0.085052 -0.088543
v 0.216836 0.581821 -0.131125
v 0.007199 0.878439 -0.088543
v 0.162503 0.130955 -0.131125
v 0.007199 -0.002132 -0.088543
v 0.248161 0.236527 -0.088543
v 0.216836 0.262739 -0.131125
v 0.270668 0.419908 -0.088543
v 0.007199 0.821202 -0.131125
v 0.092459 0.055105 -0.131125
v 0.236417 0.422280 -0.131125
v 0.007199 0.055105 -0.131125
vn 0.6065108086865064 0.38035888002227636 -0.6981917797673071
vn 0.35227301323225546 0.5342390200673536 -0.7684350288643411
vn 0.7416321200962072 0.19245903116585575 -0.6426051040602658
vn 0 0 1
vn 0.18895399030684965 0.5861389699316577 -0.7878689595831112
vn 0 0 -1
vn 0.7792179554330201 0.00031599998192653956 -0.6267529641531785
vn 0 -0.5968911618873506 -0.8023222176038556
vn 0.5896443169548379 -0.36856819811854385 -0.7186633863071864
vn 0.4864581734250454 -0.44922116014984276 -0.7493722671553823
vn 0.7317876731880889 -0.1891399155312674 -0.654761707587415
vn -0.35227301323225546 -0.5342390200673536 0.7684350288643411
vn -0.6065108086865064 -0.38035888002227636 0.6981917797673071
vn -0.7416321200962072 -0.19245903116585575 0.6426051040602658
vn -0.18895399030684965 -0.5861389699316577 0.7878689595831112
vn -0.7792179554330201 -0.00031599998192653956 0.6267529641531785
vn 0 0.5968911618873506 0.8023222176038556
vn -0.5896443169548379 0.36856819811854385 0.7186633863071864
vn -0.4864581734250454 0.44922116014984276 0.7493722671553823
vn -0.7317876731880889 0.1891399155312674 0.654761707587415
usemtl material_0_0
f 1//1 2//1 3//2
f 1//1 4//3 2//1
f 5//2 3//2 2//1
f 3//4 6//4 1//4
f 1//4 7//4 4//4
f 8//3 2//1 4//3
f 3//2 5//2 9//5
f 5//6 2//6 10//6
f 11//4 6//4 3//4
f 6//4 7//4 1//4
f 7//4 12//4 4//4
f 2//6 8//6 13//6
f 4//3 14//7 8//3
f 15//5 9//5 5//2
f 9//4 11//4 3//4
f 10//6 2//6 13//6
f 16//6 5//6 10//6
f 6//8 11//8 16//8
f 7//9 6//10 10//9
f 7//9 10//9 12//11
f 14//4 4//4 12//4
f 17//6 13//6 8//6
f 17//7 8//3 14//7
f 15//6 5//6 18//6
f 13//11 12//11 10//9
f 18//6 5//6 16//6
f 16//10 10//9 6//10
f 18//8 16//8 11//8
f 12//11 13//11 14//7
f 17//7 14//7 13//11
usemtl material_1_0
f 3//12 2//13 1//13
f 2//13 4//14 1//13
f 2//13 3//12 5//12
f 1//6 6//6 3//6
f 4//6 7//6 1//6
f 4//14 2//13 8//14
f 9//15 5//12 3//12
f 10//4 2//4 5//4
f 3//6 6//6 11//6
f 1//6 7//6 6//6
f 4//6 12//6 7//6
f 13//4 8//4 2//4
f 8//14 14//16 4//14
f 5//12 9//15 15//15
f 3//6 11//6 9//6
f 13//4 2//4 10//4
f 10//4 5//4 16//4
f 16//17 11//17 6//17
f 10//18 6//19 7//18
f 12//20 10//18 7//18
f 12//6 4//6 14//6
f 8//4 13//4 17//4
f 14//16 8//14 17//16
f 18//4 5//4 15//4
f 10//18 12//20 13//20
f 16//4 5//4 18//4
f 6//19 10//18 16//19
f 11//17 16//17 18//17
f 14//16 13//20 12//20
f 13//20 14//16 17//16
