# Blender v2.79 (sub 0) OBJ File: ''
# www.blender.org
mtllib 1633_link_0_17.mtl
o Shape_IndexedFaceSet.017_Shape_IndexedFaceSet.17592
v 0.073793 0.564889 -0.178625
v 0.084363 0.549029 -0.180390
v 0.080842 0.552554 -0.180390
v 0.086127 0.563125 -0.153957
v 0.087890 0.564889 -0.180390
v 0.087890 0.549029 -0.173336
v 0.087890 0.564889 -0.153957
vn 1.0000 0.0000 0.0000
vn -0.7877 -0.5014 0.3580
vn -0.1239 0.0708 -0.9898
vn 0.0000 0.0000 -1.0000
vn 0.8772 -0.1951 -0.4386
vn -0.6670 -0.6662 0.3335
vn -0.6905 -0.6134 0.3834
vn 0.6122 -0.6119 0.5008
vn -0.6558 0.6554 0.3747
vn 0.0000 1.0000 0.0000
usemtl Shape.17600
s off
f 6//1 5//1 7//1
f 1//2 3//2 4//2
f 3//3 1//3 5//3
f 2//4 3//4 5//4
f 2//5 5//5 6//5
f 3//6 2//6 6//6
f 4//7 3//7 6//7
f 4//8 6//8 7//8
f 1//9 4//9 7//9
f 5//10 1//10 7//10
