# Blender v2.79 (sub 0) OBJ File: ''
# www.blender.org
mtllib 1633_link_0_41.mtl
o Shape_IndexedFaceSet.041_Shape_IndexedFaceSet.17616
v 0.103753 0.510263 -0.180377
v 0.130180 0.543742 -0.120485
v 0.128417 0.543742 -0.115188
v 0.094939 0.543742 -0.180377
v 0.094939 0.513790 -0.115188
v 0.126655 0.510263 -0.115188
v 0.121366 0.543742 -0.178616
v 0.101994 0.543742 -0.115188
v 0.128417 0.517312 -0.145150
v 0.094939 0.510263 -0.180377
v 0.126655 0.527878 -0.162757
v 0.107278 0.510263 -0.115188
v 0.130180 0.513790 -0.131053
v 0.128417 0.534927 -0.157473
v 0.094939 0.543742 -0.162757
v 0.119607 0.534927 -0.180377
v 0.094939 0.520839 -0.115188
v 0.110804 0.510263 -0.169809
v 0.130180 0.543742 -0.132821
vn 0.9975 -0.0041 -0.0699
vn 0.0000 1.0000 0.0000
vn 0.0000 0.0000 1.0000
vn 0.9476 -0.0499 0.3154
vn 0.0000 0.0000 -1.0000
vn -1.0000 0.0000 0.0000
vn 0.0000 -1.0000 0.0000
vn -0.2745 -0.9602 0.0520
vn 0.9770 -0.0710 0.2013
vn 0.9486 0.0000 -0.3164
vn 0.9786 -0.1181 -0.1688
vn 0.9833 -0.1043 -0.1490
vn 0.0654 0.1829 -0.9810
vn 0.9092 -0.1007 -0.4040
vn -0.9462 0.2915 0.1403
vn 0.7566 -0.5245 -0.3905
vn 0.3954 -0.9113 -0.1147
vn 0.6496 -0.7145 -0.2598
vn 0.7336 -0.4715 -0.4894
vn 0.7381 -0.4706 -0.4835
vn 1.0000 -0.0000 0.0000
vn 0.9319 0.3152 -0.1794
usemtl Shape.17624
s off
f 13//1 14//1 19//1
f 3//2 2//2 4//2
f 3//3 5//3 6//3
f 2//4 3//4 6//4
f 4//2 2//2 7//2
f 3//2 4//2 8//2
f 5//3 3//3 8//3
f 4//5 1//5 10//5
f 5//6 4//6 10//6
f 1//7 6//7 10//7
f 6//3 5//3 12//3
f 5//8 10//8 12//8
f 10//7 6//7 12//7
f 2//9 6//9 13//9
f 11//10 7//10 14//10
f 9//11 11//11 14//11
f 13//12 9//12 14//12
f 4//6 5//6 15//6
f 8//2 4//2 15//2
f 1//5 4//5 16//5
f 4//13 7//13 16//13
f 7//14 11//14 16//14
f 5//3 8//3 17//3
f 15//6 5//6 17//6
f 8//15 15//15 17//15
f 6//7 1//7 18//7
f 11//16 9//16 18//16
f 13//17 6//17 18//17
f 9//18 13//18 18//18
f 1//19 16//19 18//19
f 16//20 11//20 18//20
f 7//2 2//2 19//2
f 2//21 13//21 19//21
f 14//22 7//22 19//22
