# Blender v2.79 (sub 0) OBJ File: ''
# www.blender.org
mtllib 102687_link_1_0.mtl
o Shape_IndexedFaceSet_Shape_IndexedFaceSet.16467
v -0.286480 0.268133 -0.395659
v -0.270550 0.311906 -0.395659
v 0.282615 0.307925 -0.395659
v -0.282469 0.307925 -0.399639
v 0.290637 0.268133 -0.395659
vn 0.0070 0.0014 -1.0000
vn -0.0000 0.0000 1.0000
vn 0.0050 0.6994 -0.7147
vn -0.3524 0.1282 0.9270
vn 0.0000 -0.0995 -0.9950
usemtl Shape.16484
s off
f 4//1 3//1 5//1
f 3//2 2//2 1//2
f 2//3 3//3 4//3
f 1//4 2//4 4//4
f 1//5 4//5 5//5
f 3//2 1//2 5//2
