# Blender v2.79 (sub 0) OBJ File: ''
# www.blender.org
mtllib 102687_link_2_3.mtl
o Shape_IndexedFaceSet.003_Shape_IndexedFaceSet.17979
v 0.237563 -0.602209 -0.147133
v 0.232186 -0.600792 -0.094068
v 0.001766 -0.612739 -0.713851
v -0.005062 -0.723603 -0.000858
v 0.240101 -0.600132 -0.699798
v 0.141122 -0.761207 -0.067066
v 0.166115 -0.588683 0.012906
v 0.186723 -0.723212 -0.712830
v 0.002411 -0.794619 -0.697487
v 0.003573 -0.613998 -0.191309
v 0.002304 -0.794707 -0.036826
v 0.080354 -0.791611 -0.705190
v 0.186723 -0.723212 -0.120333
v 0.217108 -0.685257 -0.720470
v 0.080354 -0.791611 -0.051858
v -0.000435 -0.774640 -0.727591
v 0.201915 -0.594065 -0.712830
v -0.000811 -0.625853 -0.728687
v 0.118347 -0.776409 -0.712830
v 0.005614 -0.608365 -0.681651
v 0.060387 -0.780219 -0.022098
v 0.218452 -0.600329 -0.028505
v 0.239908 -0.632080 -0.689982
v 0.207149 -0.619024 -0.725865
v 0.163898 -0.746005 -0.705190
v 0.161284 -0.693088 -0.029269
v 0.229996 -0.596210 -0.720572
v 0.118347 -0.776409 -0.067066
v 0.000800 -0.788570 -0.017913
v 0.171531 -0.738434 -0.097412
v 0.007158 -0.609534 -0.426691
vn -0.1448 0.9895 0.0054
vn -0.5908 0.7106 0.3822
vn 0.0386 -0.9993 -0.0001
vn 0.9250 -0.3657 0.1035
vn 0.7807 -0.6250 0.0000
vn 0.0396 -0.9992 0.0000
vn -0.0223 -0.8340 -0.5514
vn -0.9820 0.1886 0.0039
vn -0.9960 0.0892 0.0062
vn -1.0000 -0.0026 -0.0062
vn 0.3440 -0.4421 -0.8284
vn 0.3715 -0.9284 0.0000
vn 0.0883 -0.6146 -0.7839
vn 0.1175 -0.2087 -0.9709
vn -0.7659 0.6429 0.0042
vn -0.0916 0.9881 -0.1233
vn -0.0744 0.9972 -0.0111
vn 0.1088 -0.2365 0.9655
vn 0.4767 -0.6654 0.5745
vn 0.2514 0.9668 0.0458
vn 0.9057 -0.3776 0.1924
vn 1.0000 -0.0046 0.0046
vn 0.9236 -0.3825 0.0250
vn 0.9145 -0.4040 0.0208
vn 0.8930 -0.1371 -0.4287
vn 0.0621 -0.0718 -0.9955
vn 0.0138 -0.0073 -0.9999
vn 0.5448 -0.7002 -0.4615
vn 0.3735 -0.3622 0.8540
vn 0.5047 -0.5283 0.6828
vn 0.5369 -0.3372 0.7733
vn 0.7605 -0.4723 0.4456
vn 0.3087 0.9512 0.0059
vn 0.3526 0.9357 0.0051
vn 0.1905 0.9817 0.0065
vn 0.8821 -0.1282 -0.4533
vn -0.0770 0.8533 -0.5157
vn 0.0752 0.9972 -0.0037
vn -0.0738 0.7535 -0.6532
vn 0.2624 -0.0391 -0.9642
vn 0.0060 0.2203 -0.9754
vn 0.4853 -0.7271 0.4856
vn 0.5552 -0.8317 0.0000
vn -0.9714 -0.2375 -0.0002
vn 0.0980 -0.9443 0.3142
vn -0.9960 -0.0899 -0.0000
vn -0.9898 -0.1426 -0.0011
vn 0.1019 -0.2440 0.9644
vn 0.1549 -0.8835 0.4421
vn 0.7078 -0.7064 0.0000
vn 0.8570 -0.4316 0.2814
vn 0.7741 -0.4730 0.4208
vn 0.6010 -0.7993 0.0024
vn 0.7066 -0.7076 -0.0001
vn -0.1735 0.9847 0.0160
vn -0.5598 0.8286 0.0072
usemtl Shape.17993
s off
f 7//1 20//1 31//1
f 4//2 7//2 10//2
f 11//3 9//3 12//3
f 1//4 2//4 13//4
f 13//5 8//5 14//5
f 11//6 12//6 15//6
f 12//7 9//7 16//7
f 10//8 3//8 18//8
f 4//9 10//9 18//9
f 16//10 4//10 18//10
f 14//11 8//11 19//11
f 15//12 12//12 19//12
f 12//13 16//13 19//13
f 16//14 14//14 19//14
f 3//15 10//15 20//15
f 17//16 3//16 20//16
f 7//17 17//17 20//17
f 7//18 4//18 21//18
f 15//19 6//19 21//19
f 2//20 7//20 22//20
f 13//21 2//21 22//21
f 5//22 1//22 23//22
f 1//23 13//23 23//23
f 13//24 14//24 23//24
f 14//25 5//25 23//25
f 14//26 16//26 24//26
f 16//27 18//27 24//27
f 19//28 8//28 25//28
f 7//29 21//29 26//29
f 21//30 6//30 26//30
f 22//31 7//31 26//31
f 6//32 22//32 26//32
f 2//33 1//33 27//33
f 1//34 5//34 27//34
f 7//35 2//35 27//35
f 5//36 14//36 27//36
f 3//37 17//37 27//37
f 17//38 7//38 27//38
f 18//39 3//39 27//39
f 14//40 24//40 27//40
f 24//41 18//41 27//41
f 6//42 15//42 28//42
f 15//12 19//12 28//12
f 25//43 6//43 28//43
f 19//43 25//43 28//43
f 9//44 11//44 29//44
f 11//45 15//45 29//45
f 4//46 16//46 29//46
f 16//47 9//47 29//47
f 21//48 4//48 29//48
f 15//49 21//49 29//49
f 8//50 13//50 30//50
f 13//51 22//51 30//51
f 22//52 6//52 30//52
f 6//53 25//53 30//53
f 25//54 8//54 30//54
f 10//55 7//55 31//55
f 20//56 10//56 31//56
