# Blender v2.79 (sub 0) OBJ File: ''
# www.blender.org
mtllib 102687_link_1_13.mtl
o Shape_IndexedFaceSet.013_Shape_IndexedFaceSet.16480
v 0.078363 0.265129 -0.088221
v -0.147176 0.244250 -0.144911
v -0.147176 0.244250 -0.061335
v 0.067750 0.244250 -0.144911
v -0.147176 0.264147 -0.136945
v -0.147176 0.264147 -0.053369
v 0.067750 0.260165 -0.144911
v 0.067750 0.248231 -0.089203
v -0.156380 0.252040 -0.049449
v 0.067750 0.244250 -0.097151
v -0.147176 0.260165 -0.144911
v 0.039875 0.264147 -0.117044
vn 0.0136 0.9917 -0.1281
vn 0.0000 -1.0000 0.0000
vn -0.0044 1.0000 0.0000
vn 0.0000 0.0000 -1.0000
vn 0.9829 0.0000 -0.1840
vn -0.6460 -0.7633 0.0000
vn 0.1488 0.2004 0.9683
vn -0.7961 0.6052 0.0000
vn 0.0919 -0.7987 0.5946
vn 0.1696 -0.1630 0.9719
vn 0.8914 -0.4531 0.0000
vn 0.0744 -0.8916 0.4466
vn 0.8102 -0.5241 0.2625
vn 0.0000 0.8945 -0.4471
vn -0.9954 0.0000 -0.0960
vn -0.9834 0.1621 -0.0810
vn 0.0042 0.9992 -0.0397
vn 0.0463 0.9943 -0.0957
usemtl Shape.16497
s off
f 7//1 5//1 12//1
f 3//2 2//2 4//2
f 1//3 5//3 6//3
f 4//4 2//4 7//4
f 1//5 4//5 7//5
f 2//6 3//6 9//6
f 1//7 6//7 9//7
f 6//8 5//8 9//8
f 3//9 8//9 9//9
f 8//10 1//10 9//10
f 3//2 4//2 10//2
f 4//11 1//11 10//11
f 8//12 3//12 10//12
f 1//13 8//13 10//13
f 7//4 2//4 11//4
f 5//14 7//14 11//14
f 2//15 9//15 11//15
f 9//16 5//16 11//16
f 5//17 1//17 12//17
f 1//18 7//18 12//18
