# Blender v2.79 (sub 0) OBJ File: ''
# www.blender.org
mtllib 102687_link_1_94.mtl
o Shape_IndexedFaceSet.094_Shape_IndexedFaceSet.16561
v 0.039889 0.323852 -0.304116
v 0.398100 0.335788 -0.292176
v 0.410262 0.319330 -0.291770
v 0.398678 0.319845 -0.304135
v 0.039889 0.319870 -0.292176
v 0.039889 0.335788 -0.304116
v 0.039889 0.335788 -0.292176
v 0.398100 0.335788 -0.304116
v 0.039889 0.319870 -0.300134
vn -0.0015 -1.0000 0.0000
vn -0.0001 0.0000 -1.0000
vn -1.0000 0.0000 0.0000
vn 0.0000 0.0247 0.9997
vn -0.0011 0.0000 1.0000
vn -0.0000 1.0000 0.0000
vn 0.8042 0.5943 0.0000
vn 0.7301 0.0273 -0.6828
vn -0.0000 0.0012 -1.0000
vn -0.0005 -0.9992 -0.0411
vn -0.0079 -0.7071 -0.7071
usemtl Shape.16578
s off
f 3//1 5//1 9//1
f 4//2 1//2 6//2
f 1//3 5//3 6//3
f 6//3 5//3 7//3
f 3//4 2//4 7//4
f 5//5 3//5 7//5
f 2//6 6//6 7//6
f 2//7 3//7 8//7
f 3//8 4//8 8//8
f 6//6 2//6 8//6
f 4//9 6//9 8//9
f 4//10 3//10 9//10
f 1//11 4//11 9//11
f 5//3 1//3 9//3
