# Blender v2.79 (sub 0) OBJ File: ''
# www.blender.org
mtllib 102687_link_1_81.mtl
o Shape_IndexedFaceSet.081_Shape_IndexedFaceSet.16548
v -0.472270 0.252507 -0.204417
v -0.453718 0.284059 -0.188689
v -0.047673 0.260175 -0.188693
v -0.469532 0.244248 -0.188693
v -0.047673 0.244248 -0.204612
v -0.456274 0.284325 -0.204722
v -0.047673 0.244248 -0.188693
v -0.047673 0.260175 -0.204612
v -0.469532 0.244248 -0.204612
v -0.470506 0.283764 -0.188807
vn -0.7048 0.3484 -0.6180
vn 0.0587 0.9982 0.0072
vn 0.0000 0.0000 1.0000
vn 0.0000 -0.0001 1.0000
vn 0.0000 -1.0000 0.0000
vn 1.0000 0.0000 0.0000
vn 0.0590 0.9983 0.0000
vn 0.0003 0.0000 -1.0000
vn -0.9492 -0.3147 0.0000
vn -0.0000 -0.0027 -1.0000
vn -0.0398 0.0104 -0.9992
vn -0.0071 0.0027 1.0000
vn -0.9869 -0.0239 0.1593
vn -0.0177 0.9997 0.0194
usemtl Shape.16565
s off
f 6//1 1//1 10//1
f 2//2 3//2 6//2
f 3//3 2//3 7//3
f 2//4 4//4 7//4
f 4//5 5//5 7//5
f 5//6 3//6 7//6
f 3//6 5//6 8//6
f 6//7 3//7 8//7
f 5//8 6//8 8//8
f 4//9 1//9 9//9
f 5//5 4//5 9//5
f 6//10 5//10 9//10
f 1//11 6//11 9//11
f 4//12 2//12 10//12
f 1//13 4//13 10//13
f 2//14 6//14 10//14
