# Blender v2.79 (sub 0) OBJ File: ''
# www.blender.org
mtllib 102687_link_1_107.mtl
o Shape_IndexedFaceSet.107_Shape_IndexedFaceSet.16574
v -0.469481 0.244250 -0.188693
v -0.330185 0.264147 -0.172774
v -0.007872 0.260165 -0.172774
v -0.007872 0.260165 -0.188693
v -0.007872 0.244250 -0.172774
v -0.469481 0.244250 -0.172774
v -0.474943 0.264037 -0.188605
v -0.007872 0.244250 -0.188693
v -0.474754 0.264029 -0.172868
vn -0.9662 -0.2575 0.0115
vn 0.0124 0.9999 0.0000
vn 0.0000 0.0000 1.0000
vn 1.0000 0.0000 0.0000
vn 0.0000 -1.0000 0.0000
vn 0.0082 0.9966 -0.0823
vn -0.0002 0.0044 -1.0000
vn -0.9639 -0.2661 0.0000
vn 0.0000 0.0000 -1.0000
vn -0.0007 0.0046 1.0000
vn -0.0008 1.0000 0.0005
usemtl Shape.16591
s off
f 7//1 6//1 9//1
f 2//2 3//2 4//2
f 3//3 2//3 5//3
f 4//4 3//4 5//4
f 1//5 5//5 6//5
f 5//3 2//3 6//3
f 2//6 4//6 7//6
f 4//7 1//7 7//7
f 1//8 6//8 7//8
f 1//9 4//9 8//9
f 5//5 1//5 8//5
f 4//4 5//4 8//4
f 6//10 2//10 9//10
f 2//11 7//11 9//11
