# Blender v2.79 (sub 0) OBJ File: ''
# www.blender.org
mtllib 102687_link_1_61.mtl
o Shape_IndexedFaceSet.061_Shape_IndexedFaceSet.16528
v 0.254821 0.327827 -0.351878
v 0.286651 0.335791 -0.347898
v 0.294613 0.323850 -0.347898
v 0.250840 0.331808 -0.347898
v 0.274712 0.311910 -0.347898
vn 0.0000 0.0000 1.0000
vn 0.1063 0.0709 -0.9918
vn -0.0742 0.6670 -0.7414
vn -0.6351 -0.7619 0.1269
vn 0.0846 -0.1410 -0.9864
usemtl Shape.16545
s off
f 3//1 4//1 5//1
f 1//2 2//2 3//2
f 3//1 2//1 4//1
f 2//3 1//3 4//3
f 4//4 1//4 5//4
f 1//5 3//5 5//5
