# Blender v2.79 (sub 0) OBJ File: ''
# www.blender.org
mtllib 102687_link_1_4.mtl
o Shape_IndexedFaceSet.004_Shape_IndexedFaceSet.16471
v 0.270721 0.343751 -0.312082
v -0.276980 0.335834 -0.351754
v -0.298421 0.335791 -0.312082
v -0.254591 0.351711 -0.351873
v 0.278852 0.335898 -0.351580
v 0.258741 0.351711 -0.347892
v -0.254591 0.343751 -0.308101
v 0.298597 0.335791 -0.312082
v 0.250794 0.351711 -0.343912
v -0.246643 0.351711 -0.343912
v 0.159277 0.343751 -0.308101
v 0.255136 0.347556 -0.350920
vn 0.2007 0.4573 -0.8664
vn -0.5532 0.7779 -0.2981
vn 0.0003 -0.0079 -1.0000
vn -0.1913 0.9657 0.1756
vn 0.0000 -1.0000 -0.0011
vn 0.0001 -1.0000 -0.0028
vn 0.2726 0.9545 0.1210
vn 0.5615 0.7791 -0.2786
vn 0.0000 -0.4473 0.8944
vn 0.0933 0.9781 0.1862
vn 0.0000 1.0000 0.0000
vn 0.0000 0.9762 0.2170
vn -0.1764 0.9684 0.1761
vn 0.0354 0.1241 0.9916
vn 0.0085 0.9713 0.2376
vn 0.0024 0.0613 -0.9981
vn 0.0063 0.5854 -0.8107
usemtl Shape.16488
s off
f 6//1 5//1 12//1
f 2//2 3//2 4//2
f 2//3 4//3 5//3
f 4//4 3//4 7//4
f 3//5 2//5 8//5
f 2//6 5//6 8//6
f 6//7 1//7 8//7
f 5//8 6//8 8//8
f 7//9 3//9 8//9
f 1//10 6//10 9//10
f 6//11 4//11 9//11
f 7//12 9//12 10//12
f 4//13 7//13 10//13
f 9//11 4//11 10//11
f 8//14 1//14 11//14
f 7//9 8//9 11//9
f 1//15 9//15 11//15
f 9//12 7//12 11//12
f 5//16 4//16 12//16
f 4//17 6//17 12//17
