# Blender v2.79 (sub 0) OBJ File: ''
# www.blender.org
mtllib 102687_link_1_79.mtl
o Shape_IndexedFaceSet.079_Shape_IndexedFaceSet.16546
v 0.195114 0.248228 -0.236454
v 0.476995 0.276013 -0.224544
v 0.477411 0.271808 -0.224692
v 0.195114 0.248228 -0.224514
v 0.473688 0.248228 -0.236454
v 0.195114 0.264145 -0.236454
v 0.476678 0.275981 -0.236410
v 0.477699 0.248228 -0.224514
v 0.195114 0.264145 -0.224514
vn 0.0000 0.0000 1.0000
vn 0.0000 -1.0000 0.0000
vn -1.0000 0.0000 0.0000
vn 0.0000 0.0000 -1.0000
vn 0.0001 0.0016 -1.0000
vn 0.9947 0.0994 -0.0268
vn -0.0420 0.9991 -0.0016
vn 0.4421 0.0122 0.8969
vn 0.9431 -0.1011 -0.3168
vn 0.9982 0.0118 -0.0583
vn -0.0421 0.9991 0.0000
vn 0.0001 0.0011 1.0000
usemtl Shape.16563
s off
f 4//1 8//1 9//1
f 4//2 1//2 5//2
f 1//3 4//3 6//3
f 5//4 1//4 6//4
f 5//5 6//5 7//5
f 2//6 3//6 7//6
f 6//7 2//7 7//7
f 3//8 2//8 8//8
f 4//2 5//2 8//2
f 5//9 7//9 8//9
f 7//10 3//10 8//10
f 2//11 6//11 9//11
f 6//3 4//3 9//3
f 8//12 2//12 9//12
