# Blender v2.79 (sub 0) OBJ File: ''
# www.blender.org
mtllib 102687_link_1_59.mtl
o Shape_IndexedFaceSet.059_Shape_IndexedFaceSet.16526
v -0.286673 0.263812 -0.360062
v 0.155313 0.276089 -0.351878
v 0.155313 0.276089 -0.359838
v -0.276659 0.276148 -0.351839
v 0.155313 0.264149 -0.351878
v -0.287372 0.263792 -0.351641
v -0.275844 0.276125 -0.359862
v 0.155313 0.264149 -0.359838
vn 0.0008 -1.0000 -0.0023
vn 0.0001 1.0000 0.0000
vn 1.0000 0.0000 0.0000
vn 0.0005 0.0000 1.0000
vn 0.0001 0.0159 0.9999
vn -0.7546 0.6533 -0.0611
vn 0.0001 0.0162 -0.9999
vn 0.0001 1.0000 -0.0029
vn -0.7480 0.6591 -0.0779
vn 0.0005 0.0000 -1.0000
vn 0.0008 -1.0000 0.0000
usemtl Shape.16543
s off
f 6//1 1//1 8//1
f 2//2 3//2 4//2
f 3//3 2//3 5//3
f 5//4 2//4 6//4
f 2//5 4//5 6//5
f 4//6 1//6 6//6
f 3//7 1//7 7//7
f 4//8 3//8 7//8
f 1//9 4//9 7//9
f 1//10 3//10 8//10
f 3//3 5//3 8//3
f 5//11 6//11 8//11
