# Blender v2.79 (sub 0) OBJ File: ''
# www.blender.org
mtllib 102687_link_1_30.mtl
o Shape_IndexedFaceSet.030_Shape_IndexedFaceSet.16497
v 0.143316 0.311910 -0.188693
v -0.441694 0.311910 -0.204611
v -0.435510 0.311938 -0.196652
v 0.439577 0.311921 -0.204570
v -0.425618 0.311910 -0.188693
vn -0.0151 -0.9998 0.0152
vn -0.0000 1.0000 -0.0035
vn 0.0000 1.0000 0.0013
vn 0.0000 -1.0000 -0.0005
vn -0.0000 1.0000 0.0035
vn 0.0000 -1.0000 -0.0000
usemtl Shape.16514
s off
f 3//1 2//1 5//1
f 2//2 3//2 4//2
f 3//3 1//3 4//3
f 1//4 2//4 4//4
f 1//5 3//5 5//5
f 2//6 1//6 5//6
