# Blender v2.79 (sub 0) OBJ File: ''
# www.blender.org
mtllib 102687_link_1_130.mtl
o Shape_IndexedFaceSet.130_Shape_IndexedFaceSet.16597
v 0.441853 0.268129 -0.248393
v 0.226977 0.252208 -0.252375
v 0.226977 0.252208 -0.236454
v 0.453799 0.252208 -0.252375
v 0.238923 0.268129 -0.252375
v 0.453799 0.264149 -0.236454
v 0.226977 0.264149 -0.236454
v 0.453799 0.252208 -0.236454
v 0.441853 0.268129 -0.252375
vn 0.3161 0.9487 0.0000
vn 0.0000 -1.0000 0.0000
vn 0.0000 0.0000 -1.0000
vn -1.0000 0.0000 0.0000
vn -0.0047 0.9710 0.2392
vn -0.7294 0.5473 -0.4105
vn -0.0000 0.0000 1.0000
vn -0.0000 0.9487 0.3163
vn 1.0000 0.0000 0.0000
vn -0.0000 1.0000 0.0000
vn 0.7294 0.5473 -0.4105
usemtl Shape.16614
s off
f 1//1 6//1 9//1
f 3//2 2//2 4//2
f 4//3 2//3 5//3
f 2//4 3//4 7//4
f 1//5 5//5 7//5
f 5//6 2//6 7//6
f 3//7 6//7 7//7
f 6//8 1//8 7//8
f 3//2 4//2 8//2
f 6//7 3//7 8//7
f 4//9 6//9 8//9
f 5//10 1//10 9//10
f 4//3 5//3 9//3
f 6//11 4//11 9//11
