# Blender v2.79 (sub 0) OBJ File: ''
# www.blender.org
mtllib 102687_link_1_43.mtl
o Shape_IndexedFaceSet.043_Shape_IndexedFaceSet.16510
v 0.286656 0.280066 0.372504
v 0.282677 0.248228 0.193434
v 0.282677 0.276086 0.193434
v 0.286656 0.248228 0.193434
v 0.282677 0.248228 0.372504
v 0.286656 0.248228 0.372504
v 0.282677 0.280066 0.372504
v 0.286656 0.276086 0.193434
vn 1.0000 0.0000 0.0000
vn 0.0000 0.0000 -1.0000
vn -1.0000 0.0000 0.0000
vn 0.0000 -1.0000 0.0000
vn 0.0000 0.0000 1.0000
vn 0.0000 0.9998 -0.0222
usemtl Shape.16527
s off
f 1//1 4//1 8//1
f 2//2 3//2 4//2
f 3//3 2//3 5//3
f 2//4 4//4 5//4
f 4//1 1//1 6//1
f 1//5 5//5 6//5
f 5//4 4//4 6//4
f 1//6 3//6 7//6
f 5//5 1//5 7//5
f 3//3 5//3 7//3
f 3//6 1//6 8//6
f 4//2 3//2 8//2
