# Blender v2.79 (sub 0) OBJ File: ''
# www.blender.org
mtllib 102687_link_2_25.mtl
o Shape_IndexedFaceSet.025_Shape_IndexedFaceSet.18001
v 0.536256 0.211359 0.290060
v 0.445077 0.059399 -0.006202
v 0.433857 0.182324 -0.017336
v 0.437477 0.059399 0.297675
v 0.438448 0.247636 0.294688
v 0.528656 0.241743 -0.006202
v 0.490657 0.059399 -0.006202
v 0.445077 0.264556 -0.006202
v 0.483076 0.059399 0.297675
v 0.536256 0.180934 -0.006202
v 0.528656 0.241743 0.267276
v 0.528656 0.158182 0.229291
v 0.498247 0.074601 0.206506
v 0.528656 0.173364 0.297675
v 0.483401 0.248800 0.284645
vn 0.1658 0.9857 0.0315
vn -0.9953 -0.0931 -0.0249
vn -0.9999 0.0054 0.0136
vn 0.0000 -0.0902 -0.9959
vn 0.0000 -1.0000 -0.0000
vn -0.9905 0.1371 -0.0141
vn 0.0353 0.1294 -0.9910
vn 0.1083 0.0135 -0.9940
vn 0.9922 0.1240 -0.0127
vn 0.1075 -0.0403 -0.9934
vn 0.9701 0.2427 0.0000
vn 0.2633 0.9647 0.0000
vn 0.9870 -0.1598 0.0164
vn 0.9400 -0.3413 -0.0026
vn 0.7624 -0.6468 0.0190
vn 0.9362 -0.3513 -0.0083
vn 0.9245 -0.3698 0.0922
vn 0.1108 0.1739 0.9785
vn -0.0200 0.0160 0.9997
vn 0.0000 0.0000 1.0000
vn 0.9813 -0.1879 0.0417
vn 0.9295 -0.3600 0.0799
vn 0.1902 0.3982 0.8974
vn -0.0134 0.9983 0.0558
vn 0.3643 0.6153 0.6991
usemtl Shape.18015
s off
f 11//1 8//1 15//1
f 3//2 2//2 4//2
f 3//3 4//3 5//3
f 2//4 3//4 7//4
f 4//5 2//5 7//5
f 3//6 5//6 8//6
f 6//7 3//7 8//7
f 4//5 7//5 9//5
f 3//8 6//8 10//8
f 6//9 1//9 10//9
f 7//10 3//10 10//10
f 1//11 6//11 11//11
f 6//12 8//12 11//12
f 10//13 1//13 12//13
f 10//14 12//14 13//14
f 9//15 7//15 13//15
f 7//16 10//16 13//16
f 9//17 13//17 14//17
f 1//18 5//18 14//18
f 5//19 4//19 14//19
f 4//20 9//20 14//20
f 12//21 1//21 14//21
f 13//22 12//22 14//22
f 5//23 1//23 15//23
f 8//24 5//24 15//24
f 1//25 11//25 15//25
