# Blender v2.79 (sub 0) OBJ File: ''
# www.blender.org
mtllib 102687_link_2_55.mtl
o Shape_IndexedFaceSet.055_Shape_IndexedFaceSet.18031
v 0.331106 -0.259690 0.259691
v 0.323506 -0.328121 -0.006202
v 0.323506 -0.252129 -0.006202
v 0.376684 -0.252129 -0.006202
v 0.369084 -0.069775 0.297675
v 0.369084 -0.138205 -0.006202
v 0.323506 -0.145766 0.282475
v 0.376684 -0.160990 0.297675
v 0.338702 -0.328121 0.084967
v 0.376684 -0.138205 -0.006202
v 0.325544 -0.226967 0.286027
v 0.376684 -0.069775 0.282475
v 0.331106 -0.312897 0.168522
v 0.376684 -0.183775 0.259691
v 0.346302 -0.328121 -0.006202
v 0.376684 -0.252129 0.039398
v 0.331106 -0.229294 0.297675
vn -0.9027 -0.0038 0.4303
vn 0.0000 0.0000 -1.0000
vn -1.0000 0.0000 0.0000
vn -0.9199 0.3680 -0.1356
vn -0.8408 0.5281 -0.1189
vn 1.0000 0.0000 0.0000
vn -0.9996 -0.0244 0.0154
vn -0.4023 0.8932 -0.2011
vn 0.8920 0.0743 0.4460
vn 0.0000 0.9730 -0.2307
vn -0.5748 -0.8127 0.0958
vn -0.9887 -0.1394 0.0552
vn -0.9375 -0.3005 0.1754
vn 0.8192 -0.4918 0.2950
vn 0.8211 -0.4930 0.2877
vn 0.8905 -0.4264 0.1586
vn 0.0000 -1.0000 0.0000
vn 0.9094 -0.4091 0.0758
vn 0.9149 -0.3855 0.1196
vn 0.9285 -0.3712 0.0000
vn -0.4808 0.1145 0.8694
vn 0.7602 -0.5073 0.4059
vn 0.0000 0.0000 1.0000
vn -0.8531 -0.4074 0.3260
usemtl Shape.18045
s off
f 7//1 11//1 17//1
f 2//2 3//2 4//2
f 4//2 3//2 6//2
f 3//3 2//3 7//3
f 6//4 3//4 7//4
f 5//5 6//5 7//5
f 4//2 6//2 10//2
f 8//6 4//6 10//6
f 7//7 2//7 11//7
f 6//8 5//8 12//8
f 5//9 8//9 12//9
f 10//10 6//10 12//10
f 8//6 10//6 12//6
f 2//11 9//11 13//11
f 11//12 2//12 13//12
f 1//13 11//13 13//13
f 8//14 1//14 14//14
f 4//6 8//6 14//6
f 1//15 13//15 14//15
f 13//16 9//16 14//16
f 2//2 4//2 15//2
f 9//17 2//17 15//17
f 9//18 15//18 16//18
f 4//6 14//6 16//6
f 14//19 9//19 16//19
f 15//20 4//20 16//20
f 5//21 7//21 17//21
f 1//22 8//22 17//22
f 8//23 5//23 17//23
f 11//24 1//24 17//24
