# Blender v2.79 (sub 0) OBJ File: ''
# www.blender.org
mtllib 102687_link_1_46.mtl
o Shape_IndexedFaceSet.046_Shape_IndexedFaceSet.16513
v -0.290158 0.316086 -0.359762
v 0.151289 0.347727 -0.351878
v 0.151289 0.347727 -0.359838
v -0.261865 0.346778 -0.359665
v -0.279353 0.303426 -0.351782
v -0.258205 0.346375 -0.352124
v 0.151289 0.335784 -0.359838
v 0.151289 0.331808 -0.351878
v -0.279296 0.303432 -0.359933
vn 0.0672 -0.8926 -0.4458
vn -0.0023 1.0000 0.0000
vn -0.0006 0.0083 1.0000
vn -0.0033 0.9985 0.0550
vn -0.6848 0.6301 0.3660
vn -0.4104 0.2092 0.8876
vn 1.0000 0.0000 0.0000
vn 0.0002 0.0000 1.0000
vn -0.0004 0.0064 -1.0000
vn -0.0058 0.0085 -0.9999
vn -0.7588 -0.6513 -0.0058
vn 0.0002 0.0000 -1.0000
vn 0.0658 -0.9978 -0.0003
usemtl Shape.16530
s off
f 7//1 8//1 9//1
f 2//2 3//2 4//2
f 5//3 2//3 6//3
f 2//4 4//4 6//4
f 4//5 1//5 6//5
f 1//6 5//6 6//6
f 3//7 2//7 7//7
f 2//8 5//8 8//8
f 7//7 2//7 8//7
f 4//9 3//9 9//9
f 1//10 4//10 9//10
f 5//11 1//11 9//11
f 3//12 7//12 9//12
f 8//13 5//13 9//13
