# Blender v2.79 (sub 0) OBJ File: ''
# www.blender.org
mtllib 102687_link_1_99.mtl
o Shape_IndexedFaceSet.099_Shape_IndexedFaceSet.16566
v 0.469737 0.307925 -0.252375
v 0.429950 0.307925 -0.260335
v 0.453824 0.276094 -0.268295
v 0.433928 0.331805 -0.268295
v 0.469737 0.303950 -0.268295
v 0.477702 0.276094 -0.252375
v 0.429950 0.307925 -0.252375
v 0.441889 0.327824 -0.252375
v 0.457797 0.276094 -0.252375
vn -0.7397 -0.6471 0.1846
vn -0.5273 -0.1883 -0.8285
vn 0.6024 0.7744 -0.1934
vn -0.0000 0.0000 -1.0000
vn 0.5288 -0.3021 -0.7932
vn 0.9683 0.2423 -0.0605
vn 0.0000 0.0000 1.0000
vn -0.8000 -0.6000 0.0000
vn -0.9864 0.1643 0.0000
vn -0.7490 0.4494 0.4869
vn 0.5792 0.8105 -0.0869
vn 0.0000 -1.0000 0.0000
usemtl Shape.16583
s off
f 7//1 3//1 9//1
f 3//2 2//2 4//2
f 4//3 1//3 5//3
f 3//4 4//4 5//4
f 3//5 5//5 6//5
f 5//6 1//6 6//6
f 6//7 1//7 7//7
f 2//8 3//8 7//8
f 4//9 2//9 7//9
f 4//10 7//10 8//10
f 1//11 4//11 8//11
f 7//7 1//7 8//7
f 3//12 6//12 9//12
f 6//7 7//7 9//7
