# Blender v2.79 (sub 0) OBJ File: ''
# www.blender.org
mtllib 102687_link_2_47.mtl
o Shape_IndexedFaceSet.047_Shape_IndexedFaceSet.18023
v -0.394127 0.180138 0.004980
v -0.284378 -0.008969 -0.150589
v -0.276774 -0.008969 -0.150589
v -0.307178 -0.008969 0.092548
v -0.285976 0.170979 0.088854
v -0.278554 0.182111 -0.202064
v -0.419722 0.181609 0.105243
v -0.352751 -0.008969 0.031729
v -0.276774 0.150546 0.084925
v -0.361785 0.181956 -0.085419
v -0.329965 -0.001366 -0.074607
v -0.360355 -0.001366 0.092548
v -0.276774 -0.008969 -0.051821
v -0.274550 0.176340 -0.193166
v -0.303825 0.181423 -0.176175
v -0.413546 0.165753 0.084925
v -0.284378 0.127753 0.092548
vn 0.5554 0.0912 0.8266
vn 0.0000 -1.0000 0.0000
vn 0.0000 -0.2601 -0.9656
vn 0.0841 0.9956 0.0402
vn -0.3199 0.9426 -0.0955
vn 0.0012 1.0000 0.0022
vn -0.4018 -0.9033 -0.1507
vn -0.8517 -0.1769 -0.4933
vn -0.9250 -0.1803 -0.3346
vn -0.0104 -0.0726 0.9973
vn -0.1407 -0.9844 0.1055
vn 0.9636 -0.1740 0.2029
vn 1.0000 -0.0064 0.0074
vn 0.8745 -0.1186 -0.4704
vn 0.7881 0.6140 0.0436
vn 0.9141 0.4031 0.0447
vn 0.9999 -0.0120 0.0000
vn -0.7036 -0.1648 -0.6912
vn -0.8328 -0.1564 -0.5310
vn -0.0955 0.9932 -0.0668
vn -0.9673 -0.0615 -0.2460
vn -0.9394 -0.2151 -0.2669
vn -0.9402 -0.2601 -0.2201
vn -0.9510 -0.3050 -0.0510
vn -0.9487 -0.3056 -0.0804
vn 0.0876 -0.0146 0.9960
vn 0.1281 0.0891 0.9877
vn 0.8850 -0.1476 0.4415
usemtl Shape.18037
s off
f 9//1 5//1 17//1
f 2//2 3//2 4//2
f 3//3 2//3 6//3
f 5//4 6//4 7//4
f 2//2 4//2 8//2
f 1//5 7//5 10//5
f 7//6 6//6 10//6
f 2//7 8//7 11//7
f 10//8 2//8 11//8
f 1//9 10//9 11//9
f 4//10 7//10 12//10
f 8//11 4//11 12//11
f 4//2 3//2 13//2
f 9//12 4//12 13//12
f 9//13 13//13 14//13
f 3//14 6//14 14//14
f 6//15 5//15 14//15
f 5//16 9//16 14//16
f 13//17 3//17 14//17
f 6//18 2//18 15//18
f 2//19 10//19 15//19
f 10//20 6//20 15//20
f 7//21 1//21 16//21
f 1//22 11//22 16//22
f 11//23 8//23 16//23
f 12//24 7//24 16//24
f 8//25 12//25 16//25
f 7//26 4//26 17//26
f 5//27 7//27 17//27
f 4//28 9//28 17//28
