# Blender v2.79 (sub 0) OBJ File: ''
# www.blender.org
mtllib 102687_link_1_83.mtl
o Shape_IndexedFaceSet.083_Shape_IndexedFaceSet.16550
v -0.467826 0.288311 -0.188916
v -0.067614 0.311907 -0.188693
v -0.067614 0.311907 -0.204612
v -0.453599 0.311907 -0.200630
v -0.456720 0.283500 -0.204927
v -0.067614 0.295992 -0.188693
v -0.431426 0.310779 -0.189338
v -0.067614 0.299967 -0.204612
v -0.453963 0.283715 -0.188500
v -0.443397 0.311131 -0.204168
v -0.071627 0.295992 -0.196652
v -0.471967 0.284158 -0.204551
vn -0.0230 0.0385 -0.9990
vn -0.0000 1.0000 0.0000
vn 1.0000 0.0000 0.0000
vn -0.0033 0.9944 0.1058
vn -0.3473 0.5766 0.7396
vn 0.0008 0.0000 -1.0000
vn 0.0318 -0.9995 0.0078
vn 0.0005 0.0000 1.0000
vn -0.0019 0.0325 0.9995
vn -0.0155 0.0438 0.9989
vn -0.0023 0.9754 -0.2205
vn -0.0012 0.0281 -0.9996
vn 0.0328 -0.9993 -0.0165
vn 0.0385 -0.9016 -0.4308
vn 0.4331 -0.8745 -0.2184
vn -0.8364 0.5427 0.0774
vn -0.3068 -0.8966 0.3194
vn -0.0426 -0.9989 0.0202
vn -0.2888 0.3187 -0.9028
usemtl Shape.16567
s off
f 10//1 5//1 12//1
f 2//2 3//2 4//2
f 3//3 2//3 6//3
f 2//4 4//4 7//4
f 4//5 1//5 7//5
f 5//6 3//6 8//6
f 3//3 6//3 8//3
f 5//7 6//7 9//7
f 6//8 2//8 9//8
f 2//9 7//9 9//9
f 7//10 1//10 9//10
f 4//11 3//11 10//11
f 3//12 5//12 10//12
f 6//13 5//13 11//13
f 5//14 8//14 11//14
f 8//15 6//15 11//15
f 1//16 4//16 12//16
f 9//17 1//17 12//17
f 5//18 9//18 12//18
f 4//19 10//19 12//19
