# Blender v2.79 (sub 0) OBJ File: ''
# www.blender.org
mtllib 102687_link_2_16.mtl
o Shape_IndexedFaceSet.016_Shape_IndexedFaceSet.17992
v -0.111994 -0.239772 0.468918
v -0.189249 -0.307351 0.110581
v -0.194569 -0.231163 0.086191
v -0.197169 -0.003330 0.520415
v -0.190585 -0.311805 0.355203
v -0.102020 -0.290090 0.198990
v -0.102020 -0.085006 0.502811
v -0.103656 -0.315007 0.400337
v -0.189583 -0.175526 0.493959
v -0.155191 -0.320463 0.100157
v -0.104715 -0.211418 0.498104
v -0.185579 -0.229314 0.092548
v -0.102020 -0.214113 0.297782
v -0.104621 -0.311791 0.204841
v -0.185579 -0.016615 0.502811
v -0.155191 -0.290090 0.092548
v -0.102020 -0.085006 0.510461
vn 0.9990 -0.0249 0.0372
vn -0.9974 -0.0718 -0.0068
vn -0.9997 -0.0252 0.0072
vn -0.9968 -0.0530 0.0593
vn -0.3240 -0.6567 0.6810
vn -0.3640 -0.6632 0.6540
vn -0.3843 -0.3057 -0.8711
vn -0.3643 -0.9311 -0.0189
vn -0.0507 -0.9984 0.0269
vn -0.2266 -0.6697 0.7072
vn -0.1138 -0.1558 0.9812
vn -0.3064 -0.6434 0.7015
vn 0.1443 0.8766 -0.4591
vn 1.0000 -0.0000 -0.0000
vn 0.7560 0.5539 -0.3488
vn 0.8042 0.4711 -0.3623
vn 0.9926 -0.1208 -0.0069
vn 0.8859 -0.2167 -0.4100
vn 0.2033 -0.9790 -0.0171
vn 0.6247 0.7633 -0.1647
vn 0.3035 0.8459 -0.4386
vn 0.5878 0.7182 -0.3723
vn -0.2028 -0.2380 -0.9499
vn 0.8890 -0.1113 -0.4441
vn 0.5211 0.2606 -0.8127
vn 0.8166 0.4083 -0.4079
vn 0.6513 0.7588 0.0000
vn 0.9999 -0.0104 0.0068
vn 0.0202 -0.0977 0.9950
usemtl Shape.18006
s off
f 11//1 8//1 17//1
f 3//2 2//2 5//2
f 4//3 3//3 5//3
f 4//4 5//4 9//4
f 8//5 1//5 9//5
f 5//6 8//6 9//6
f 2//7 3//7 10//7
f 5//8 2//8 10//8
f 8//9 5//9 10//9
f 1//10 8//10 11//10
f 4//11 9//11 11//11
f 9//12 1//12 11//12
f 3//13 4//13 12//13
f 7//14 6//14 13//14
f 12//15 7//15 13//15
f 6//16 12//16 13//16
f 6//17 8//17 14//17
f 10//18 6//18 14//18
f 8//19 10//19 14//19
f 4//20 7//20 15//20
f 12//21 4//21 15//21
f 7//22 12//22 15//22
f 10//23 3//23 16//23
f 6//24 10//24 16//24
f 3//25 12//25 16//25
f 12//26 6//26 16//26
f 7//27 4//27 17//27
f 6//14 7//14 17//14
f 8//28 6//28 17//28
f 4//29 11//29 17//29
