# Blender v2.79 (sub 0) OBJ File: ''
# www.blender.org
mtllib 102687_link_2_50.mtl
o Shape_IndexedFaceSet.050_Shape_IndexedFaceSet.18026
v 0.300713 -0.328079 -0.180995
v 0.384288 -0.115365 -0.006232
v 0.384288 -0.115365 -0.180995
v 0.384288 -0.236913 -0.006232
v 0.300713 -0.312898 -0.006232
v 0.346288 -0.328079 -0.180995
v 0.346288 -0.328079 -0.006232
v 0.384288 -0.229312 -0.180995
v 0.376680 -0.115365 -0.180995
v 0.376680 -0.115365 -0.006232
v 0.315913 -0.274895 -0.180995
v 0.300713 -0.328079 -0.006232
vn 0.0000 0.0000 1.0000
vn 1.0000 0.0000 0.0000
vn 0.0000 0.0000 -1.0000
vn 0.0000 -1.0000 0.0000
vn 0.9230 -0.3847 0.0000
vn 0.9332 -0.3590 -0.0156
vn 0.0000 1.0000 0.0000
vn -0.9334 0.3589 0.0000
vn -0.9612 0.2747 -0.0239
vn -0.9345 0.3560 -0.0039
vn -1.0000 0.0000 0.0000
usemtl Shape.18040
s off
f 7//1 5//1 12//1
f 3//2 2//2 4//2
f 4//1 2//1 5//1
f 1//3 3//3 6//3
f 4//1 5//1 7//1
f 1//4 6//4 7//4
f 6//5 4//5 7//5
f 3//2 4//2 8//2
f 6//3 3//3 8//3
f 4//6 6//6 8//6
f 3//3 1//3 9//3
f 2//7 3//7 9//7
f 9//8 5//8 10//8
f 5//1 2//1 10//1
f 2//7 9//7 10//7
f 1//9 5//9 11//9
f 9//3 1//3 11//3
f 5//10 9//10 11//10
f 5//11 1//11 12//11
f 1//4 7//4 12//4
