# Blender v2.79 (sub 0) OBJ File: ''
# www.blender.org
mtllib 102687_link_2_30.mtl
o Shape_IndexedFaceSet.030_Shape_IndexedFaceSet.18006
v -0.086797 -0.312900 -0.211392
v -0.101998 -0.274872 -0.150601
v -0.003252 -0.252089 -0.188619
v -0.109599 0.104989 -0.294971
v -0.002503 0.107987 -0.257327
v -0.003252 0.097367 -0.310168
v -0.110391 0.108158 -0.241941
v -0.003252 -0.312900 -0.226589
v -0.109599 -0.305319 -0.203816
v -0.048835 -0.305319 -0.226589
v -0.101998 -0.320522 -0.150601
v -0.041234 0.097367 -0.310168
v -0.003252 -0.312900 -0.188619
v -0.109599 -0.236928 -0.158208
v -0.109599 0.089786 -0.294971
vn -0.1920 -0.1960 -0.9616
vn 0.3178 0.1771 0.9315
vn 0.0420 0.9794 -0.1974
vn -0.0069 0.9982 -0.0598
vn 0.9999 -0.0028 -0.0136
vn -0.1218 -0.7325 -0.6697
vn 0.3593 0.0000 0.9332
vn -0.0237 -0.9912 -0.1302
vn -0.3697 -0.9060 -0.2060
vn 0.0000 0.8939 -0.4483
vn 0.0000 -0.1996 -0.9799
vn -0.0337 -0.2025 -0.9787
vn 0.9999 0.0000 0.0109
vn 1.0000 -0.0018 0.0000
vn 0.0770 -0.9970 0.0000
vn 0.1634 0.2253 0.9605
vn 0.1376 0.2339 0.9625
vn -1.0000 -0.0017 0.0025
vn -0.7074 0.0000 0.7068
vn -0.9898 -0.0792 0.1187
vn -0.9999 0.0000 -0.0149
vn -0.3702 -0.2088 -0.9052
vn -0.9999 -0.0032 -0.0138
vn -0.3270 -0.2098 -0.9215
vn -0.2170 0.0000 -0.9762
usemtl Shape.18020
s off
f 12//1 10//1 15//1
f 2//2 3//2 5//2
f 4//3 5//3 6//3
f 5//4 4//4 7//4
f 6//5 5//5 8//5
f 8//6 1//6 10//6
f 3//7 2//7 11//7
f 1//8 8//8 11//8
f 9//9 1//9 11//9
f 4//10 6//10 12//10
f 6//11 8//11 12//11
f 8//12 10//12 12//12
f 5//13 3//13 13//13
f 8//14 5//14 13//14
f 3//7 11//7 13//7
f 11//15 8//15 13//15
f 2//16 5//16 14//16
f 5//17 7//17 14//17
f 7//18 9//18 14//18
f 11//19 2//19 14//19
f 9//20 11//20 14//20
f 7//21 4//21 15//21
f 1//22 9//22 15//22
f 9//23 7//23 15//23
f 10//24 1//24 15//24
f 4//25 12//25 15//25
