# Blender v2.79 (sub 0) OBJ File: ''
# www.blender.org
mtllib 102687_link_1_72.mtl
o Shape_IndexedFaceSet.072_Shape_IndexedFaceSet.16539
v -0.449639 0.315886 -0.296158
v 0.039889 0.335786 -0.292176
v 0.039889 0.335786 -0.304116
v -0.432237 0.291362 -0.300193
v -0.421783 0.331806 -0.304116
v -0.413796 0.335786 -0.292176
v -0.439378 0.291462 -0.292025
v 0.039889 0.319867 -0.292176
v -0.428204 0.291769 -0.304183
v 0.039889 0.323844 -0.304116
v 0.039889 0.319867 -0.300134
v -0.447430 0.292568 -0.303965
v -0.394519 0.334117 -0.303661
vn -0.0769 0.9602 -0.2686
vn -0.0000 1.0000 0.0000
vn -0.4881 0.8720 0.0359
vn -0.1632 0.0976 0.9818
vn 0.0000 0.0034 1.0000
vn 0.0591 -0.9962 0.0638
vn 1.0000 0.0000 0.0000
vn 0.0003 0.0000 1.0000
vn -0.0000 0.0017 -1.0000
vn 0.0001 0.0000 -1.0000
vn 0.0603 -0.9982 0.0000
vn 0.0602 -0.9973 -0.0409
vn 0.0485 -0.7067 -0.7058
vn -0.3984 0.2570 -0.8804
vn -0.8129 -0.2527 0.5248
vn -0.0675 -0.9966 -0.0468
vn -0.0427 -0.9886 -0.1440
vn -0.0112 0.0035 -0.9999
vn -0.0018 0.2141 -0.9768
vn -0.0040 0.9886 -0.1503
usemtl Shape.16556
s off
f 5//1 6//1 13//1
f 2//2 3//2 6//2
f 5//3 1//3 6//3
f 6//4 1//4 7//4
f 2//5 6//5 7//5
f 7//6 4//6 8//6
f 3//7 2//7 8//7
f 2//8 7//8 8//8
f 5//9 3//9 9//9
f 3//7 8//7 10//7
f 9//10 3//10 10//10
f 8//11 4//11 11//11
f 4//12 9//12 11//12
f 10//7 8//7 11//7
f 9//13 10//13 11//13
f 1//14 5//14 12//14
f 7//15 1//15 12//15
f 4//16 7//16 12//16
f 9//17 4//17 12//17
f 5//18 9//18 12//18
f 3//19 5//19 13//19
f 6//20 3//20 13//20
