# Blender v2.79 (sub 0) OBJ File: ''
# www.blender.org
mtllib 102687_link_1_28.mtl
o Shape_IndexedFaceSet.028_Shape_IndexedFaceSet.16495
v -0.461606 0.248229 -0.256356
v -0.449665 0.252208 -0.264312
v -0.449665 0.248229 -0.264312
v -0.453434 0.252421 -0.251522
v -0.457624 0.252208 -0.268295
vn 0.0073 0.9999 -0.0145
vn 0.9592 0.0000 0.2827
vn 0.2440 -0.8980 0.3662
vn -0.5067 0.8543 0.1157
vn -0.2538 -0.8891 -0.3810
vn 0.4475 0.0000 -0.8943
usemtl Shape.16512
s off
f 4//1 2//1 5//1
f 3//2 2//2 4//2
f 1//3 3//3 4//3
f 1//4 4//4 5//4
f 3//5 1//5 5//5
f 2//6 3//6 5//6
