# Blender v2.79 (sub 0) OBJ File: ''
# www.blender.org
mtllib 102687_link_2_52.mtl
o Shape_IndexedFaceSet.052_Shape_IndexedFaceSet.18028
v 0.376678 0.051787 0.259691
v 0.266076 -0.075792 -0.020359
v 0.270322 -0.054576 -0.006202
v 0.250428 -0.074755 0.309392
v 0.315896 0.064519 -0.018247
v 0.331080 -0.069775 0.046983
v 0.323488 0.059399 0.297675
v 0.361470 0.044200 -0.006202
v 0.315896 -0.062175 0.297675
v 0.376678 0.059399 0.062182
v 0.369074 0.059399 0.297675
v 0.323488 -0.069775 -0.006202
v 0.323488 -0.069775 0.236876
v 0.376678 0.036588 0.191306
v 0.308316 0.051787 -0.006202
v 0.346275 -0.039378 0.062182
v 0.346275 -0.031779 0.214091
v 0.262730 -0.046977 0.297675
vn -0.8679 0.4957 0.0309
vn -0.9730 0.2260 -0.0469
vn 0.2273 -0.0661 -0.9716
vn 0.4524 0.8439 -0.2882
vn 0.0000 0.0870 0.9962
vn 0.0000 0.9999 0.0162
vn 0.1911 -0.0836 0.9780
vn 0.8859 -0.3875 0.2550
vn 0.7663 0.6420 0.0247
vn 0.0805 0.9967 0.0026
vn 0.1080 -0.9940 -0.0154
vn 0.2467 -0.0822 -0.9656
vn 0.0746 -0.9972 0.0067
vn 0.0885 -0.9961 0.0035
vn 0.2120 -0.9661 0.1472
vn 1.0000 0.0000 0.0000
vn -0.9194 0.3284 -0.2164
vn -0.9410 0.3362 -0.0378
vn -0.9162 0.3288 -0.2291
vn -0.8466 0.5314 0.0290
vn 0.9456 -0.2910 -0.1456
vn 0.9114 -0.3905 -0.1301
vn 0.9344 -0.3114 -0.1730
vn 0.9545 -0.2938 -0.0519
vn 0.9160 -0.4007 0.0200
vn 0.8919 -0.4183 0.1720
vn 0.8661 -0.4987 0.0346
vn 0.8863 -0.4327 0.1648
vn 0.9206 -0.3812 0.0847
vn 0.8896 -0.4561 0.0228
vn -0.8396 0.4795 0.2554
vn -0.9153 0.4027 -0.0064
usemtl Shape.18042
s off
f 7//1 15//1 18//1
f 3//2 2//2 4//2
f 2//3 5//3 8//3
f 8//4 5//4 10//4
f 7//5 4//5 11//5
f 5//6 7//6 11//6
f 4//7 9//7 11//7
f 9//8 1//8 11//8
f 1//9 10//9 11//9
f 10//10 5//10 11//10
f 6//11 2//11 12//11
f 2//12 8//12 12//12
f 4//13 2//13 13//13
f 2//14 6//14 13//14
f 9//15 4//15 13//15
f 10//16 1//16 14//16
f 2//17 3//17 15//17
f 3//18 4//18 15//18
f 5//19 2//19 15//19
f 7//20 5//20 15//20
f 8//21 10//21 16//21
f 6//22 12//22 16//22
f 12//23 8//23 16//23
f 10//24 14//24 16//24
f 16//25 14//25 17//25
f 1//26 9//26 17//26
f 13//27 6//27 17//27
f 9//28 13//28 17//28
f 14//29 1//29 17//29
f 6//30 16//30 17//30
f 4//31 7//31 18//31
f 15//32 4//32 18//32
