# Blender v2.79 (sub 0) OBJ File: ''
# www.blender.org
mtllib 102687_link_1_77.mtl
o Shape_IndexedFaceSet.077_Shape_IndexedFaceSet.16544
v -0.469494 0.248232 -0.236454
v -0.458664 0.284114 -0.224492
v 0.195048 0.264153 -0.224514
v -0.459640 0.284170 -0.236494
v 0.195048 0.248232 -0.236454
v -0.471534 0.252463 -0.224620
v 0.195048 0.248232 -0.224514
v 0.195048 0.264153 -0.236454
v -0.473245 0.283821 -0.236378
vn -0.9857 -0.1036 -0.1329
vn 0.0305 0.9995 0.0022
vn -0.0000 -0.0011 -1.0000
vn -0.0060 -0.9419 0.3357
vn 0.0000 0.0000 1.0000
vn 0.0000 -1.0000 0.0000
vn 1.0000 0.0000 0.0000
vn -0.0002 -0.0040 1.0000
vn 0.0306 0.9995 0.0000
vn 0.0001 0.0000 -1.0000
vn -0.0256 0.9996 0.0067
vn -0.0086 0.0012 -1.0000
vn -0.6152 0.2471 0.7486
usemtl Shape.16561
s off
f 1//1 6//1 9//1
f 2//2 3//2 4//2
f 1//3 4//3 5//3
f 6//4 1//4 7//4
f 3//5 2//5 7//5
f 1//6 5//6 7//6
f 5//7 3//7 7//7
f 2//8 6//8 7//8
f 4//9 3//9 8//9
f 5//10 4//10 8//10
f 3//7 5//7 8//7
f 2//11 4//11 9//11
f 4//12 1//12 9//12
f 6//13 2//13 9//13
