# Blender v2.79 (sub 0) OBJ File: ''
# www.blender.org
mtllib 102687_link_2_19.mtl
o Shape_IndexedFaceSet.019_Shape_IndexedFaceSet.17995
v 0.489023 0.187302 -0.157093
v 0.319102 -0.320125 -0.719277
v 0.346314 -0.328072 -0.180995
v 0.528658 0.158138 -0.720476
v 0.475463 0.158138 -0.697663
v 0.315923 -0.274892 -0.180995
v 0.528658 0.158138 -0.180995
v 0.353900 -0.320482 -0.690059
v 0.300705 -0.328072 -0.697663
v 0.483406 0.189412 -0.634918
v 0.445072 -0.077401 -0.234279
v 0.483049 0.021417 -0.705268
v 0.300705 -0.328072 -0.180995
v 0.308314 -0.297663 -0.705268
v 0.475463 0.135319 -0.728081
v 0.353900 -0.312843 -0.720476
v 0.369095 -0.274892 -0.180995
v 0.315923 -0.297663 -0.728081
v 0.346314 -0.328072 -0.712872
vn 0.8623 -0.4911 -0.1233
vn 0.5927 0.8055 0.0000
vn 0.5647 0.8253 -0.0030
vn -0.1803 0.8892 -0.4204
vn -0.9366 0.3501 0.0126
vn 0.9355 -0.3533 0.0013
vn 0.9486 -0.3164 0.0000
vn 0.9420 -0.3355 0.0056
vn 0.0000 -0.0463 0.9989
vn -0.4999 0.1431 0.8542
vn 0.0000 -1.0000 0.0000
vn -0.9701 0.2427 0.0000
vn -0.9410 0.3384 -0.0010
vn -0.9373 0.3446 -0.0531
vn -0.9614 0.2751 0.0020
vn -0.2492 0.7747 -0.5812
vn -0.9070 0.3368 -0.2527
vn 0.9304 -0.3554 -0.0893
vn 0.8940 -0.3317 -0.3011
vn 0.2905 -0.1244 0.9488
vn 0.4234 -0.1560 0.8924
vn 0.9192 -0.3938 0.0078
vn 0.9368 -0.3452 0.0564
vn 0.9337 -0.3581 0.0042
vn -0.6426 -0.3567 -0.6781
vn -0.9370 0.1563 -0.3125
vn 0.1671 -0.0616 -0.9840
vn -0.8955 0.3300 -0.2987
vn 0.0431 -0.3593 -0.9322
vn 0.1714 -0.0636 -0.9831
vn 0.7073 -0.7069 0.0000
vn -0.1506 -0.8795 -0.4515
vn 0.0687 -0.4728 -0.8785
usemtl Shape.18009
s off
f 16//1 8//1 19//1
f 4//2 1//2 7//2
f 1//3 4//3 10//3
f 4//4 5//4 10//4
f 6//5 1//5 10//5
f 11//6 8//6 12//6
f 4//7 7//7 12//7
f 7//8 11//8 12//8
f 3//9 1//9 13//9
f 1//10 6//10 13//10
f 9//11 3//11 13//11
f 9//12 13//12 14//12
f 6//13 10//13 14//13
f 10//14 5//14 14//14
f 13//15 6//15 14//15
f 5//16 4//16 15//16
f 14//17 5//17 15//17
f 12//18 8//18 16//18
f 4//19 12//19 16//19
f 1//20 3//20 17//20
f 7//21 1//21 17//21
f 3//22 8//22 17//22
f 11//23 7//23 17//23
f 8//24 11//24 17//24
f 2//25 9//25 18//25
f 9//26 14//26 18//26
f 15//27 4//27 18//27
f 14//28 15//28 18//28
f 16//29 2//29 18//29
f 4//30 16//30 18//30
f 8//31 3//31 19//31
f 3//11 9//11 19//11
f 9//32 2//32 19//32
f 2//33 16//33 19//33
