# Blender v2.79 (sub 0) OBJ File: ''
# www.blender.org
mtllib 102687_link_2_10.mtl
o Shape_IndexedFaceSet.010_Shape_IndexedFaceSet.17986
v 0.148714 -0.540924 0.176135
v 0.049978 -0.328210 0.411681
v -0.003216 -0.328210 0.411681
v 0.148714 -0.328210 0.297631
v -0.003216 -0.715575 -0.006232
v 0.027177 -0.784025 0.001377
v 0.156335 -0.609196 -0.006232
v -0.003216 -0.328210 0.350851
v 0.156335 -0.335796 0.373678
v 0.156335 -0.692773 -0.006232
v -0.003216 -0.753548 0.031772
v 0.087930 -0.761179 0.001377
v 0.110732 -0.335796 0.396423
v 0.049978 -0.335796 0.411681
v 0.148714 -0.609196 -0.006232
v 0.156335 -0.328210 0.297631
v 0.156335 -0.677601 0.024163
v -0.003216 -0.784025 -0.006232
v -0.003216 -0.366183 0.312889
v -0.003216 -0.404157 0.350851
v 0.057569 -0.768765 0.008986
v -0.003216 -0.654800 0.046989
v 0.148714 -0.578808 0.024163
vn 0.2147 0.7171 -0.6631
vn 0.0000 1.0000 0.0000
vn -1.0000 -0.0000 0.0000
vn 1.0000 0.0000 0.0000
vn 0.0000 0.0000 -1.0000
vn 0.4506 -0.6279 0.6346
vn 0.2191 0.8712 0.4393
vn 0.3392 -0.6498 0.6802
vn 0.0000 0.0000 1.0000
vn 0.0574 -0.6757 0.7349
vn 0.2436 0.0000 0.9699
vn 0.1058 0.9895 0.0987
vn 0.7460 -0.4761 0.4656
vn 0.5505 -0.6068 0.5734
vn 0.6866 -0.6505 0.3247
vn -0.1547 -0.7707 0.6181
vn 0.2040 -0.5425 -0.8149
vn 0.1424 -0.2489 -0.9580
vn -0.3342 0.6664 -0.6665
vn -0.0888 -0.6227 0.7774
vn 0.0222 -0.6742 0.7382
vn 0.3184 -0.8467 0.4263
vn 0.3335 -0.6511 0.6818
vn 0.1556 -0.6713 0.7247
vn 0.1812 -0.6681 0.7217
vn -0.4189 0.5982 -0.6831
vn -0.4187 0.6153 -0.6679
vn -0.2303 0.7174 -0.6574
vn 0.0000 0.7072 -0.7070
vn -0.3336 0.6667 -0.6665
vn 0.0000 0.7373 -0.6756
usemtl Shape.18000
s off
f 16//1 7//1 23//1
f 3//2 2//2 4//2
f 3//2 4//2 8//2
f 5//3 3//3 8//3
f 7//4 9//4 10//4
f 5//5 7//5 10//5
f 3//3 5//3 11//3
f 1//6 9//6 12//6
f 9//7 2//7 13//7
f 12//8 9//8 13//8
f 2//9 3//9 14//9
f 11//10 6//10 14//10
f 13//11 2//11 14//11
f 7//5 5//5 15//5
f 4//2 2//2 16//2
f 2//12 9//12 16//12
f 9//4 7//4 16//4
f 9//13 1//13 17//13
f 10//4 9//4 17//4
f 1//14 12//14 17//14
f 12//15 10//15 17//15
f 5//5 10//5 18//5
f 11//3 5//3 18//3
f 6//16 11//16 18//16
f 12//17 6//17 18//17
f 10//18 12//18 18//18
f 5//3 8//3 19//3
f 8//19 15//19 19//19
f 3//3 11//3 20//3
f 14//20 3//20 20//20
f 11//21 14//21 20//21
f 6//22 12//22 21//22
f 12//23 13//23 21//23
f 14//24 6//24 21//24
f 13//25 14//25 21//25
f 15//26 5//26 22//26
f 5//3 19//3 22//3
f 19//27 15//27 22//27
f 8//28 4//28 23//28
f 7//29 15//29 23//29
f 15//30 8//30 23//30
f 4//31 16//31 23//31
