# Blender v2.79 (sub 0) OBJ File: ''
# www.blender.org
mtllib 102658_link_2_2.mtl
o Shape_IndexedFaceSet.002_Shape_IndexedFaceSet.5904
v -0.348511 0.139347 0.674913
v -0.405471 -0.373232 -0.056101
v -0.339004 -0.373232 -0.056101
v -0.517039 0.253040 -0.044585
v -0.357998 0.234292 -0.056101
v -0.519371 0.139347 0.295200
v -0.339004 -0.373232 0.304817
v -0.341920 0.253927 0.646489
v -0.538385 0.101369 -0.056101
v -0.433972 -0.135900 0.342627
v -0.471918 0.234292 0.484983
v -0.500398 -0.050481 0.133829
v -0.547872 0.224828 0.162315
v -0.396005 -0.373232 0.143373
v -0.396005 -0.031492 0.523013
v -0.339004 -0.097922 -0.056101
v -0.452945 0.082380 0.475512
v -0.348511 -0.154889 0.513469
v -0.388443 0.251946 -0.043295
v -0.405471 0.205839 0.618014
v -0.489064 0.250561 0.341714
v -0.343675 0.248581 0.386872
v -0.490891 -0.041018 0.238301
v -0.547872 0.177325 -0.056101
v -0.538385 0.120358 0.133829
v -0.490891 -0.097922 -0.056101
v -0.367505 -0.373232 0.257316
v -0.414978 -0.354243 0.010415
v -0.341344 0.237117 0.676195
v -0.339004 -0.259298 0.418540
v -0.509885 0.196314 0.371113
v -0.471918 0.034938 0.390128
v -0.405471 -0.116911 0.437555
v -0.538385 0.234292 0.238301
v -0.348511 -0.031492 0.598926
v -0.414978 0.139347 0.579984
v -0.535224 0.243010 -0.043616
v -0.462411 0.186850 0.503998
v -0.405471 0.234292 0.618014
v -0.500398 -0.059944 0.095946
v -0.405471 -0.373232 0.076931
v -0.348511 0.205839 0.693928
v -0.519371 0.053927 0.200345
v -0.538385 0.196314 0.238301
v -0.452945 -0.145364 0.257316
v -0.519371 0.015949 0.086401
v -0.433972 -0.059944 0.418614
v -0.500398 0.063391 0.314215
vn -0.9599 -0.2168 0.1779
vn 0.0000 0.0000 -1.0000
vn 0.0000 -1.0000 0.0000
vn 1.0000 0.0000 0.0000
vn 0.0131 0.6019 -0.7985
vn 0.0085 1.0000 -0.0034
vn -0.0425 0.9991 0.0095
vn -0.3211 0.9359 0.1447
vn 0.9978 0.0570 -0.0341
vn 0.9997 0.0227 -0.0072
vn 0.4873 0.8721 -0.0439
vn 0.2802 0.9597 -0.0217
vn -0.0512 0.1705 -0.9840
vn -0.9952 -0.0961 0.0209
vn -0.9922 -0.1239 0.0124
vn -0.7580 -0.4676 0.4548
vn -0.9538 -0.2959 -0.0518
vn 0.9997 0.0221 -0.0069
vn -0.5687 -0.5811 0.5822
vn 1.0000 0.0040 0.0014
vn -0.9332 -0.1831 0.3091
vn -0.9268 -0.2765 0.2542
vn -0.8247 -0.3517 0.4429
vn -0.8697 -0.3636 0.3338
vn -0.8165 -0.4081 0.4084
vn -0.3750 0.9264 0.0331
vn -0.5963 0.7865 0.1607
vn -0.9494 0.1821 0.2558
vn -0.7958 -0.3448 0.4979
vn 0.9832 -0.0743 0.1670
vn 0.8904 -0.2591 0.3742
vn 0.9888 -0.0650 0.1342
vn -0.8609 -0.2444 0.4461
vn -0.8015 -0.2064 0.5612
vn -0.8182 -0.2616 0.5119
vn -0.7937 -0.2472 0.5558
vn -0.1701 0.2155 -0.9616
vn -0.9795 0.1967 -0.0428
vn -0.4820 0.8759 0.0217
vn -0.7525 0.6585 0.0119
vn -0.8946 -0.0002 0.4468
vn -0.9415 -0.0554 0.3324
vn -0.9315 -0.1718 0.3206
vn -0.8822 -0.1966 0.4278
vn -0.8767 -0.1382 0.4608
vn -0.3637 0.9136 0.1817
vn -0.8946 0.0000 0.4468
vn -0.4411 0.7774 0.4485
vn -0.9595 -0.2815 0.0103
vn -0.9548 -0.2925 0.0530
vn -0.9476 -0.2987 0.1133
vn -0.9421 -0.3074 0.1342
vn -0.8942 -0.4477 0.0000
vn -0.9532 -0.2933 0.0733
vn -0.7883 -0.1692 0.5915
vn 0.9631 -0.0740 0.2587
vn -0.7999 0.0000 0.6002
vn -0.5957 0.4951 0.6325
vn -0.9633 -0.2450 0.1099
vn -0.9797 -0.1623 0.1180
vn -0.9903 -0.1122 0.0816
vn -0.9711 -0.1160 0.2084
vn -0.9923 0.0000 0.1239
vn -0.9777 0.0000 0.2098
vn -0.9732 -0.1710 0.1540
vn -0.9258 -0.2932 0.2384
vn -0.9370 -0.3123 0.1563
vn -0.9117 -0.3418 0.2280
vn -0.9090 -0.3408 0.2400
vn -0.9821 -0.1874 0.0187
vn -0.9727 -0.2318 -0.0092
vn -0.9702 -0.2352 0.0587
vn -0.9701 -0.2425 -0.0001
vn -0.9717 -0.2242 0.0747
vn -0.9754 -0.2093 0.0698
vn -0.8773 -0.2744 0.3938
vn -0.9029 -0.2578 0.3439
vn -0.9170 -0.2821 0.2820
vn -0.8667 -0.3015 0.3974
vn -0.8832 -0.3317 0.3315
vn -0.9522 -0.1751 0.2504
vn -0.9407 -0.1880 0.2824
vn -0.9311 -0.2662 0.2495
vn -0.9644 -0.1966 0.1770
usemtl Shape.5911
s off
f 43//1 23//1 48//1
f 3//2 2//2 5//2
f 2//3 3//3 7//3
f 5//2 2//2 9//2
f 2//3 7//3 14//3
f 3//2 5//2 16//2
f 7//4 3//4 16//4
f 5//5 4//5 19//5
f 4//6 8//6 19//6
f 8//7 4//7 21//7
f 11//8 8//8 21//8
f 16//9 5//9 22//9
f 8//10 16//10 22//10
f 5//11 19//11 22//11
f 19//12 8//12 22//12
f 4//13 5//13 24//13
f 5//2 9//2 24//2
f 13//14 24//14 25//14
f 24//15 9//15 25//15
f 9//2 2//2 26//2
f 14//3 7//3 27//3
f 7//16 18//16 27//16
f 26//17 2//17 28//17
f 16//18 8//18 29//18
f 7//4 16//4 30//4
f 18//19 7//19 30//19
f 16//20 29//20 30//20
f 17//21 31//21 32//21
f 23//22 10//22 32//22
f 18//23 15//23 33//23
f 10//24 27//24 33//24
f 27//25 18//25 33//25
f 21//26 4//26 34//26
f 11//27 21//27 34//27
f 31//28 11//28 34//28
f 15//29 18//29 35//29
f 29//30 1//30 35//30
f 18//31 30//31 35//31
f 30//32 29//32 35//32
f 17//33 15//33 36//33
f 1//34 20//34 36//34
f 15//35 35//35 36//35
f 35//36 1//36 36//36
f 4//37 24//37 37//37
f 24//38 13//38 37//38
f 34//39 4//39 37//39
f 13//40 34//40 37//40
f 20//41 11//41 38//41
f 11//42 31//42 38//42
f 31//43 17//43 38//43
f 17//44 36//44 38//44
f 36//45 20//45 38//45
f 8//46 11//46 39//46
f 11//47 20//47 39//47
f 29//48 8//48 39//48
f 26//49 28//49 40//49
f 40//50 28//50 41//50
f 2//3 14//3 41//3
f 23//51 12//51 41//51
f 14//52 23//52 41//52
f 28//53 2//53 41//53
f 12//54 40//54 41//54
f 20//55 1//55 42//55
f 1//56 29//56 42//56
f 39//57 20//57 42//57
f 29//58 39//58 42//58
f 12//59 23//59 43//59
f 25//60 43//60 44//60
f 13//61 25//61 44//61
f 6//62 31//62 44//62
f 34//63 13//63 44//63
f 31//64 34//64 44//64
f 43//65 6//65 44//65
f 10//66 23//66 45//66
f 23//67 14//67 45//67
f 14//68 27//68 45//68
f 27//69 10//69 45//69
f 25//70 9//70 46//70
f 9//71 26//71 46//71
f 40//72 12//72 46//72
f 26//73 40//73 46//73
f 12//74 43//74 46//74
f 43//75 25//75 46//75
f 15//76 17//76 47//76
f 17//77 32//77 47//77
f 32//78 10//78 47//78
f 33//79 15//79 47//79
f 10//80 33//80 47//80
f 31//81 6//81 48//81
f 32//82 31//82 48//82
f 23//83 32//83 48//83
f 6//84 43//84 48//84
