# Blender v2.79 (sub 0) OBJ File: ''
# www.blender.org
mtllib 1925_link_0_70.mtl
o Shape_IndexedFaceSet.070_Shape_IndexedFaceSet.9531
v -0.049327 0.524567 0.655473
v -0.046637 0.527256 0.709267
v -0.046637 0.524567 0.709267
v -0.046637 0.527256 0.655473
v -0.049327 0.527256 0.709267
vn 0.0000 1.0000 0.0000
vn 1.0000 0.0000 0.0000
vn 0.7065 -0.7068 -0.0353
vn -0.7065 0.7068 -0.0353
vn -0.7065 -0.7068 0.0353
vn 0.0000 0.0000 1.0000
usemtl Shape.9542
s off
f 2//1 4//1 5//1
f 2//2 3//2 4//2
f 3//3 1//3 4//3
f 4//4 1//4 5//4
f 1//5 3//5 5//5
f 3//6 2//6 5//6
