# Blender v2.79 (sub 0) OBJ File: ''
# www.blender.org
mtllib 1925_link_2_33.mtl
o Shape_IndexedFaceSet.033_Shape_IndexedFaceSet.9841
v -0.137804 0.730502 0.024490
v -0.140827 0.646989 -0.047092
v -0.134725 0.647403 -0.046738
v -0.059283 0.728549 -0.048144
v -0.129044 0.721227 -0.046738
v -0.060923 0.721227 -0.041048
v -0.140413 0.726908 -0.029701
vn -0.8041 0.1304 -0.5800
vn 0.0001 -0.6508 0.7593
vn 0.0629 -0.0757 -0.9951
vn -0.0210 0.0081 -0.9997
vn 0.5012 -0.5524 0.6661
vn 0.6404 -0.6036 -0.4748
vn 0.6012 0.4826 0.6369
vn -0.9988 -0.0054 0.0484
vn -0.0348 0.9973 -0.0645
vn -0.1042 0.9205 -0.3765
usemtl Shape.9852
s off
f 5//1 2//1 7//1
f 1//2 2//2 3//2
f 3//3 2//3 4//3
f 4//4 2//4 5//4
f 1//5 3//5 6//5
f 3//6 4//6 6//6
f 4//7 1//7 6//7
f 2//8 1//8 7//8
f 1//9 4//9 7//9
f 4//10 5//10 7//10
