# Blender v2.79 (sub 0) OBJ File: ''
# www.blender.org
mtllib 1925_link_1_25.mtl
o Shape_IndexedFaceSet.025_Shape_IndexedFaceSet.11446
v 0.007915 0.495948 -0.317772
v -0.035121 0.488467 -0.338352
v -0.031372 0.486594 -0.338352
v 0.007915 0.492208 -0.338352
v -0.035121 0.524015 -0.319644
v -0.029501 0.499693 -0.317772
v 0.004170 0.479108 -0.336480
v 0.007915 0.509039 -0.317772
v -0.035121 0.501562 -0.338352
v -0.010797 0.480981 -0.334609
v -0.035121 0.505298 -0.317772
v -0.031372 0.524015 -0.319644
v 0.007915 0.480981 -0.338352
v -0.016404 0.495948 -0.317772
v -0.035121 0.524015 -0.317772
vn 0.0000 1.0000 0.0000
vn 0.0000 0.0000 -1.0000
vn -0.3815 -0.7637 0.5208
vn 1.0000 0.0000 -0.0000
vn 0.0000 0.0000 1.0000
vn -1.0000 0.0000 0.0000
vn -0.3116 -0.7885 0.5302
vn -0.1647 -0.8888 -0.4276
vn -0.6111 -0.6127 0.5011
vn 0.3093 0.7361 -0.6020
vn 0.1349 0.6209 -0.7722
vn 0.0000 0.6401 -0.7683
vn -0.0874 -0.6114 -0.7865
vn 0.5726 -0.6630 0.4822
vn 0.0000 -0.7432 0.6690
vn -0.2186 -0.7643 0.6067
vn -0.0110 -0.7492 0.6623
vn 0.2745 0.7889 0.5498
usemtl Shape.11456
s off
f 12//1 5//1 15//1
f 3//2 2//2 4//2
f 2//3 3//3 6//3
f 1//4 4//4 8//4
f 6//5 1//5 8//5
f 4//2 2//2 9//2
f 2//6 5//6 9//6
f 6//7 3//7 10//7
f 3//8 7//8 10//8
f 5//6 2//6 11//6
f 2//9 6//9 11//9
f 6//5 8//5 11//5
f 8//10 4//10 12//10
f 4//11 9//11 12//11
f 9//12 5//12 12//12
f 3//2 4//2 13//2
f 4//4 1//4 13//4
f 7//13 3//13 13//13
f 1//14 7//14 13//14
f 1//5 6//5 14//5
f 7//15 1//15 14//15
f 6//16 10//16 14//16
f 10//17 7//17 14//17
f 5//6 11//6 15//6
f 11//5 8//5 15//5
f 8//18 12//18 15//18
