# Blender v2.79 (sub 0) OBJ File: ''
# www.blender.org
mtllib 1925_link_0_193.mtl
o Shape_IndexedFaceSet.193_Shape_IndexedFaceSet.9654
v 0.007147 0.505739 0.803406
v -0.043939 0.503049 0.754992
v -0.043939 0.503049 0.763067
v 0.044804 0.503049 0.754992
v -0.043939 0.505739 0.754992
v 0.044804 0.505739 0.754992
v -0.008975 0.503049 0.803406
vn -0.3426 0.8913 0.2969
vn 0.0000 -1.0000 0.0000
vn -1.0000 0.0000 0.0000
vn 0.0000 0.0000 -1.0000
vn 0.7893 0.0000 0.6140
vn 0.0000 1.0000 -0.0000
vn 0.1619 -0.9703 0.1798
vn -0.1621 0.9718 0.1711
usemtl Shape.9665
s off
f 5//1 3//1 7//1
f 3//2 2//2 4//2
f 2//3 3//3 5//3
f 4//4 2//4 5//4
f 1//5 4//5 6//5
f 5//6 1//6 6//6
f 4//4 5//4 6//4
f 3//2 4//2 7//2
f 4//7 1//7 7//7
f 1//8 5//8 7//8
