# Blender v2.79 (sub 0) OBJ File: ''
# www.blender.org
mtllib 1925_link_0_89.mtl
o Shape_IndexedFaceSet.089_Shape_IndexedFaceSet.9550
v -0.156915 0.734376 0.147118
v -0.146159 0.755873 0.179395
v -0.151534 0.755873 0.179395
v -0.154223 0.702087 0.179395
v -0.138087 0.763945 0.147118
v -0.156915 0.761247 0.165942
v -0.143469 0.777399 0.147118
v -0.143469 0.737060 0.179395
vn 0.9525 0.1362 0.2723
vn 0.0000 0.0000 1.0000
vn 0.7209 -0.4590 -0.5193
vn -0.9210 0.0460 0.3868
vn -0.9982 -0.0343 0.0490
vn -0.8782 0.2745 -0.3918
vn 0.0000 0.8320 0.5548
vn 0.0000 0.0000 -1.0000
vn 0.8830 0.3532 0.3092
vn -0.3374 0.8199 0.4625
vn 0.9524 -0.2928 -0.0851
usemtl Shape.9561
s off
f 5//1 2//1 8//1
f 2//2 3//2 4//2
f 4//3 1//3 5//3
f 4//4 3//4 6//4
f 1//5 4//5 6//5
f 1//6 6//6 7//6
f 3//7 2//7 7//7
f 5//8 1//8 7//8
f 2//9 5//9 7//9
f 6//10 3//10 7//10
f 2//2 4//2 8//2
f 4//11 5//11 8//11
