# Blender v2.79 (sub 0) OBJ File: ''
# www.blender.org
mtllib 1925_link_0_215.mtl
o Shape_IndexedFaceSet.215_Shape_IndexedFaceSet.9676
v -0.041254 0.540705 0.601696
v -0.019740 0.543395 0.738853
v -0.022433 0.543395 0.738853
v -0.019740 0.543395 0.574813
v -0.046635 0.543395 0.617835
v -0.019740 0.540705 0.738853
v -0.046635 0.540705 0.698482
v -0.019740 0.540705 0.574813
vn 0.0000 -1.0000 0.0000
vn 0.0000 1.0000 0.0000
vn -0.4738 0.8293 -0.2962
vn 0.0000 0.0000 1.0000
vn 1.0000 0.0000 0.0000
vn -0.5142 -0.8572 -0.0286
vn -0.1644 0.9858 0.0329
vn -0.6394 -0.6401 0.4260
vn -0.7808 0.0000 -0.6248
usemtl Shape.9687
s off
f 6//1 1//1 8//1
f 3//2 2//2 4//2
f 4//3 1//3 5//3
f 3//2 4//2 5//2
f 2//4 3//4 6//4
f 4//5 2//5 6//5
f 1//1 6//1 7//1
f 5//6 1//6 7//6
f 3//7 5//7 7//7
f 6//8 3//8 7//8
f 1//9 4//9 8//9
f 4//5 6//5 8//5
