# Blender v2.79 (sub 0) OBJ File: ''
# www.blender.org
mtllib 1925_link_2_68.mtl
o Shape_IndexedFaceSet.068_Shape_IndexedFaceSet.9876
v 0.296855 -0.755180 -0.313637
v 0.240087 0.170278 -0.228464
v 0.251439 0.096452 -0.228464
v 0.274144 -0.783546 -0.228464
v 0.234404 -0.238584 -0.330672
v 0.285503 -0.431509 -0.336353
v 0.296855 -0.567797 -0.228464
v 0.268474 -0.783546 -0.336353
v 0.234404 -0.056836 -0.336353
v 0.234404 -0.000105 -0.228464
v 0.302544 -0.596163 -0.290921
v 0.296855 -0.777910 -0.234156
v 0.240087 0.039626 -0.307955
v 0.262798 -0.005740 -0.228464
v 0.296855 -0.669989 -0.336353
v 0.251439 0.039626 -0.273907
v 0.285503 -0.789276 -0.336353
v 0.296855 -0.528066 -0.313637
v 0.257122 -0.181759 -0.336353
v 0.268474 -0.783546 -0.313637
vn -0.3189 -0.9478 0.0000
vn 0.0000 0.0000 1.0000
vn -0.0000 0.0000 -1.0000
vn -0.5545 -0.0260 -0.8317
vn -1.0000 0.0000 0.0000
vn -0.9918 -0.0503 0.1174
vn -0.9993 0.0333 -0.0175
vn 0.9958 -0.0025 0.0918
vn 0.2491 -0.0262 0.9681
vn 0.9994 -0.0343 -0.0098
vn -0.9767 0.1115 -0.1832
vn 0.9962 0.0604 0.0633
vn 0.9959 -0.0232 -0.0870
vn 0.9710 0.1493 -0.1867
vn 0.9316 0.1890 -0.3106
vn 0.9845 0.1094 -0.1368
vn 0.9837 0.0916 -0.1545
vn 0.2586 -0.9628 0.0784
vn 0.9602 -0.2685 -0.0768
vn 0.9381 -0.0893 -0.3348
vn 0.9878 0.0856 -0.1299
vn 0.9968 0.0710 -0.0368
vn 0.9575 0.0456 -0.2848
vn 0.9856 0.0267 -0.1668
vn 0.7665 0.1394 -0.6269
vn 0.9426 0.1128 -0.3143
vn 0.9491 0.1079 -0.2960
vn -0.9960 -0.0602 0.0663
vn -0.9981 -0.0624 0.0000
vn -0.2952 -0.9552 0.0197
usemtl Shape.9887
s off
f 8//1 17//1 20//1
f 3//2 2//2 4//2
f 3//2 4//2 7//2
f 6//3 8//3 9//3
f 8//4 5//4 9//4
f 9//5 5//5 10//5
f 4//2 2//2 10//2
f 5//6 4//6 10//6
f 2//7 9//7 10//7
f 11//8 7//8 12//8
f 7//9 4//9 12//9
f 1//10 11//10 12//10
f 9//11 2//11 13//11
f 3//2 7//2 14//2
f 7//12 11//12 14//12
f 8//3 6//3 15//3
f 11//13 1//13 15//13
f 2//14 3//14 16//14
f 13//15 2//15 16//15
f 3//16 14//16 16//16
f 14//17 6//17 16//17
f 12//18 4//18 17//18
f 1//19 12//19 17//19
f 15//20 1//20 17//20
f 8//3 15//3 17//3
f 6//21 14//21 18//21
f 14//22 11//22 18//22
f 15//23 6//23 18//23
f 11//24 15//24 18//24
f 6//3 9//3 19//3
f 9//25 13//25 19//25
f 13//26 16//26 19//26
f 16//27 6//27 19//27
f 4//28 5//28 20//28
f 5//29 8//29 20//29
f 17//30 4//30 20//30
