# Blender v2.79 (sub 0) OBJ File: ''
# www.blender.org
mtllib 1925_link_2_44.mtl
o Shape_IndexedFaceSet.044_Shape_IndexedFaceSet.9852
v 0.183273 0.079500 0.021409
v 0.098102 0.011372 0.044125
v 0.098102 0.011372 0.066841
v 0.166241 0.119251 0.021409
v 0.186949 0.116856 0.065833
v 0.160566 0.011372 0.021409
v 0.154883 0.028417 0.066841
v 0.166241 0.119251 0.066841
v 0.120818 0.022735 0.021409
v 0.183273 0.079500 0.066841
vn 0.0000 0.0000 1.0000
vn -0.8455 0.5340 0.0000
vn 0.8513 0.3648 -0.3772
vn 0.0000 -1.0000 0.0000
vn -0.0000 0.0000 -1.0000
vn 0.2674 -0.8907 0.3676
vn 0.1149 0.9934 0.0000
vn -0.7441 0.3502 -0.5689
vn -0.2193 -0.7670 -0.6030
vn 0.9952 -0.0979 0.0000
vn 0.9487 -0.3162 0.0000
vn 0.8391 -0.4664 0.2799
vn 0.0511 0.0219 0.9985
usemtl Shape.9863
s off
f 8//1 7//1 10//1
f 2//2 3//2 4//2
f 1//3 4//3 5//3
f 3//4 2//4 6//4
f 4//5 1//5 6//5
f 3//6 6//6 7//6
f 4//2 3//2 8//2
f 5//7 4//7 8//7
f 3//1 7//1 8//1
f 2//8 4//8 9//8
f 6//9 2//9 9//9
f 4//5 6//5 9//5
f 1//10 5//10 10//10
f 6//11 1//11 10//11
f 7//12 6//12 10//12
f 5//13 8//13 10//13
