# Blender v2.79 (sub 0) OBJ File: ''
# www.blender.org
mtllib 1925_link_2_108.mtl
o Shape_IndexedFaceSet.108_Shape_IndexedFaceSet.9916
v -0.157450 0.011363 0.123625
v -0.089303 0.011363 0.072524
v -0.089303 0.005682 0.072524
v -0.174473 0.056790 0.066841
v -0.157450 0.068151 0.169062
v -0.129060 0.005682 0.169062
v -0.146092 0.068151 0.066841
v -0.180166 0.051103 0.169062
v -0.134734 0.005682 0.066841
v -0.163116 0.005682 0.169062
v -0.180166 0.068151 0.095238
vn -0.5903 0.7865 0.1816
vn 0.8455 0.3842 0.3708
vn 0.9247 0.0000 0.3808
vn 0.7010 0.7089 0.0779
vn -0.0000 0.0000 1.0000
vn 0.1241 0.0000 -0.9923
vn -0.7651 -0.5949 -0.2465
vn 0.0000 -1.0000 -0.0000
vn 0.1214 0.0221 -0.9924
vn 0.0000 0.0000 -1.0000
vn -0.8342 -0.5247 -0.1696
vn -0.9338 -0.3505 -0.0715
vn -0.6233 -0.7626 -0.1731
vn -0.3394 0.8479 -0.4073
vn 0.0000 1.0000 0.0000
vn -0.9507 -0.3021 -0.0698
usemtl Shape.9927
s off
f 8//1 5//1 11//1
f 2//2 5//2 6//2
f 3//3 2//3 6//3
f 5//4 2//4 7//4
f 6//5 5//5 8//5
f 2//6 3//6 9//6
f 1//7 4//7 9//7
f 3//8 6//8 9//8
f 7//9 2//9 9//9
f 4//10 7//10 9//10
f 4//11 1//11 10//11
f 8//12 4//12 10//12
f 6//5 8//5 10//5
f 1//13 9//13 10//13
f 9//8 6//8 10//8
f 7//14 4//14 11//14
f 5//15 7//15 11//15
f 4//16 8//16 11//16
