# Blender v2.79 (sub 0) OBJ File: ''
# www.blender.org
mtllib 1925_link_0_274.mtl
o Shape_IndexedFaceSet.274_Shape_IndexedFaceSet.9735
v -0.021674 0.486697 0.803425
v -0.047953 0.481426 0.737537
v -0.046637 0.481531 0.787258
v 0.020605 0.481531 0.789957
v -0.048209 0.487036 0.737282
v 0.020605 0.486910 0.789957
v 0.012536 0.481531 0.806096
v -0.046637 0.486910 0.781887
vn -0.0003 1.0000 0.0028
vn -0.9987 -0.0444 0.0265
vn 0.6074 -0.0084 -0.7944
vn 0.6078 0.0000 -0.7941
vn -0.1670 -0.8348 0.5246
vn -0.0007 -1.0000 0.0021
vn 0.0011 -1.0000 0.0006
vn 0.1112 0.9248 0.3638
vn 0.8944 0.0000 0.4472
vn -0.5173 0.6047 0.6056
vn -0.9988 0.0352 0.0353
vn -0.0014 0.9999 0.0115
usemtl Shape.9746
s off
f 6//1 5//1 8//1
f 2//2 3//2 5//2
f 4//3 2//3 5//3
f 4//4 5//4 6//4
f 1//5 3//5 7//5
f 3//6 2//6 7//6
f 2//7 4//7 7//7
f 6//8 1//8 7//8
f 4//9 6//9 7//9
f 3//10 1//10 8//10
f 5//11 3//11 8//11
f 1//12 6//12 8//12
