# Blender v2.79 (sub 0) OBJ File: ''
# www.blender.org
mtllib 1925_link_0_103.mtl
o Shape_IndexedFaceSet.103_Shape_IndexedFaceSet.9564
v 0.173922 0.626776 0.200905
v 0.195432 0.723605 0.203602
v 0.200812 0.723605 0.187459
v 0.173922 0.694014 0.163260
v 0.203503 0.659058 0.163260
v 0.195432 0.637543 0.195527
v 0.173922 0.642926 0.163260
v 0.181992 0.720913 0.203602
v 0.200812 0.723605 0.163260
v 0.172832 0.686730 0.187756
v 0.187370 0.629467 0.203602
v 0.187370 0.723605 0.168643
v 0.192745 0.634851 0.190148
v 0.173922 0.645618 0.203602
vn -0.0000 0.0000 1.0000
vn 0.9754 -0.0406 0.2169
vn 0.9483 -0.0297 0.3160
vn 0.0000 0.0000 -1.0000
vn 0.0000 1.0000 0.0000
vn 0.9991 0.0417 0.0000
vn -0.9998 -0.0201 -0.0086
vn -0.9990 0.0000 -0.0445
vn -0.9689 0.2457 0.0300
vn 0.7371 -0.0631 0.6728
vn -0.1962 0.9795 0.0452
vn -0.8980 0.4272 -0.1052
vn -0.3522 0.3201 -0.8795
vn 0.8321 -0.5344 -0.1482
vn 0.1666 -0.9062 -0.3888
vn 0.4108 -0.7532 -0.5138
vn 0.7077 -0.7065 0.0000
vn 0.2415 -0.9304 -0.2758
vn -0.9987 -0.0072 0.0501
vn -0.9400 0.1007 0.3260
vn -0.1678 -0.1397 0.9759
usemtl Shape.9575
s off
f 11//1 8//1 14//1
f 5//2 3//2 6//2
f 3//3 2//3 6//3
f 4//4 5//4 7//4
f 2//5 3//5 9//5
f 5//4 4//4 9//4
f 3//6 5//6 9//6
f 7//7 1//7 10//7
f 4//8 7//8 10//8
f 8//9 4//9 10//9
f 6//10 2//10 11//10
f 2//1 8//1 11//1
f 8//11 2//11 12//11
f 4//12 8//12 12//12
f 9//13 4//13 12//13
f 2//5 9//5 12//5
f 5//14 6//14 13//14
f 1//15 7//15 13//15
f 7//16 5//16 13//16
f 6//17 11//17 13//17
f 11//18 1//18 13//18
f 10//19 1//19 14//19
f 8//20 10//20 14//20
f 1//21 11//21 14//21
