# Blender v2.79 (sub 0) OBJ File: ''
# www.blender.org
mtllib 1925_link_0_9.mtl
o Shape_IndexedFaceSet.009_Shape_IndexedFaceSet.9470
v -0.052016 0.788163 0.432224
v -0.000912 0.828489 0.456434
v 0.000612 0.830546 0.441122
v -0.000346 0.755131 0.429614
v -0.049325 0.758582 0.394571
v -0.054706 0.828489 0.434913
v -0.000912 0.769335 0.410721
v -0.049325 0.823116 0.451045
v -0.054706 0.755896 0.413404
v -0.006294 0.755896 0.408020
v -0.008984 0.820423 0.456434
v -0.016412 0.753718 0.426921
v -0.054706 0.785476 0.408020
v -0.054706 0.828489 0.448356
v -0.054706 0.755896 0.394571
vn -1.0000 0.0000 0.0000
vn 0.9951 -0.0272 0.0954
vn 0.9993 -0.0073 -0.0354
vn 0.1976 0.4321 -0.8799
vn 0.9128 -0.3128 -0.2625
vn 0.3016 0.0703 -0.9508
vn 0.3226 -0.3228 0.8898
vn -0.1233 0.1234 0.9847
vn -0.1474 -0.3864 0.9105
vn -0.2945 -0.4354 0.8507
vn -0.3190 -0.4575 0.8300
vn 0.0978 -0.9933 -0.0621
vn -0.1187 -0.3907 0.9129
vn 0.1434 0.4654 -0.8734
vn 0.0752 0.5286 -0.8455
vn -0.0197 0.9912 0.1312
vn -0.0372 0.9993 0.0000
vn -0.1403 0.3271 0.9345
vn -0.6580 -0.3171 0.6830
vn -0.7399 -0.2918 0.6061
vn 0.2359 -0.4726 -0.8491
vn -0.0568 -0.9984 0.0000
vn 0.0277 -0.9946 -0.0998
vn -0.2023 0.4053 -0.8915
usemtl Shape.9481
s off
f 9//1 13//1 15//1
f 3//2 2//2 4//2
f 3//3 4//3 7//3
f 5//4 3//4 7//4
f 7//5 4//5 10//5
f 5//6 7//6 10//6
f 4//7 2//7 11//7
f 2//8 8//8 11//8
f 11//9 8//9 12//9
f 8//10 1//10 12//10
f 1//11 9//11 12//11
f 10//12 4//12 12//12
f 4//13 11//13 12//13
f 3//14 5//14 13//14
f 6//15 3//15 13//15
f 9//1 6//1 13//1
f 2//16 3//16 14//16
f 3//17 6//17 14//17
f 8//18 2//18 14//18
f 1//19 8//19 14//19
f 9//20 1//20 14//20
f 6//1 9//1 14//1
f 5//21 10//21 15//21
f 12//22 9//22 15//22
f 10//23 12//23 15//23
f 13//24 5//24 15//24
