# Blender v2.79 (sub 0) OBJ File: ''
# www.blender.org
mtllib 1925_link_0_91.mtl
o Shape_IndexedFaceSet.091_Shape_IndexedFaceSet.9552
v -0.162294 0.624095 0.187476
v -0.162294 0.672493 0.252010
v -0.154226 0.672493 0.222422
v -0.154226 0.599886 0.252010
v -0.164984 0.607960 0.243936
v -0.164984 0.672493 0.179409
v -0.154226 0.624095 0.190162
v -0.164984 0.672493 0.252010
v -0.159605 0.672493 0.179409
v -0.154226 0.648284 0.252010
v -0.164984 0.629476 0.182095
vn 0.5561 -0.1209 -0.8223
vn -0.4431 -0.8562 -0.2658
vn 0.0000 1.0000 0.0000
vn 1.0000 0.0000 0.0000
vn 0.1205 -0.9244 -0.3618
vn 0.0000 0.0000 1.0000
vn -0.6422 -0.0952 0.7606
vn -1.0000 -0.0000 0.0000
vn 0.9889 0.0824 -0.1237
vn 0.9185 0.3061 0.2504
vn -0.7764 -0.5952 -0.2071
vn 0.2478 -0.6203 -0.7442
vn 0.0000 -0.0623 -0.9981
usemtl Shape.9563
s off
f 9//1 7//1 11//1
f 1//2 4//2 5//2
f 2//3 3//3 6//3
f 3//4 4//4 7//4
f 4//5 1//5 7//5
f 4//6 2//6 8//6
f 5//7 4//7 8//7
f 2//3 6//3 8//3
f 6//8 5//8 8//8
f 6//3 3//3 9//3
f 3//9 7//9 9//9
f 3//10 2//10 10//10
f 4//4 3//4 10//4
f 2//6 4//6 10//6
f 1//11 5//11 11//11
f 5//8 6//8 11//8
f 7//12 1//12 11//12
f 6//13 9//13 11//13
