# Blender v2.79 (sub 0) OBJ File: ''
# www.blender.org
mtllib 1925_link_0_200.mtl
o Shape_IndexedFaceSet.200_Shape_IndexedFaceSet.9661
v 0.009847 0.513808 0.787268
v 0.047503 0.516498 0.738862
v 0.044813 0.516498 0.746930
v 0.001778 0.516498 0.765740
v 0.036738 0.513808 0.720032
vn -0.0624 0.9924 -0.1061
vn 0.0000 1.0000 0.0000
vn 0.0466 0.9932 0.1066
vn -0.1589 -0.9852 -0.0636
vn 0.1412 -0.9884 0.0565
vn 0.1557 -0.9864 0.0519
usemtl Shape.9672
s off
f 4//1 2//1 5//1
f 3//2 2//2 4//2
f 1//3 3//3 4//3
f 1//4 4//4 5//4
f 3//5 1//5 5//5
f 2//6 3//6 5//6
