# Blender v2.79 (sub 0) OBJ File: ''
# www.blender.org
mtllib 1925_link_0_238.mtl
o Shape_IndexedFaceSet.238_Shape_IndexedFaceSet.9699
v 0.042123 0.594499 0.529053
v -0.003599 0.591809 0.491401
v -0.003599 0.594499 0.491401
v -0.041258 0.594499 0.534432
v 0.042123 0.591809 0.534432
v -0.041258 0.591809 0.534432
vn 0.0000 0.0000 1.0000
vn 0.6357 0.0000 -0.7719
vn -0.7525 0.0000 -0.6586
vn 0.0000 1.0000 0.0000
vn 0.0288 0.8940 0.4471
vn 0.3880 -0.8243 -0.4122
vn 0.0000 -1.0000 -0.0000
usemtl Shape.9710
s off
f 5//1 4//1 6//1
f 1//2 2//2 3//2
f 3//3 2//3 4//3
f 1//4 3//4 4//4
f 1//5 4//5 5//5
f 2//6 1//6 5//6
f 2//7 5//7 6//7
f 4//3 2//3 6//3
