# Blender v2.79 (sub 0) OBJ File: ''
# www.blender.org
mtllib 1925_link_0_95.mtl
o Shape_IndexedFaceSet.095_Shape_IndexedFaceSet.9556
v -0.086986 0.575671 0.295052
v -0.116560 0.804296 0.381123
v -0.135397 0.804296 0.381123
v -0.138084 0.696697 0.295052
v -0.135397 0.637572 0.297756
v -0.084293 0.755845 0.375731
v -0.086986 0.728946 0.381123
v -0.084293 0.613335 0.295052
v -0.138084 0.801588 0.346150
v -0.108510 0.745081 0.378418
v -0.140777 0.651022 0.295052
v -0.086986 0.575671 0.297756
v -0.140777 0.798880 0.373051
v -0.127325 0.621436 0.297756
v -0.140777 0.804296 0.348838
v -0.127325 0.782745 0.381123
v -0.084293 0.575671 0.297756
v -0.084293 0.696697 0.340775
v -0.084293 0.728946 0.381123
v -0.140777 0.696697 0.295052
vn -1.0000 0.0000 0.0000
vn 0.0000 0.0000 1.0000
vn 0.0000 0.0000 -1.0000
vn 0.7068 0.5237 -0.4756
vn 0.5616 0.3624 -0.7439
vn -0.4243 -0.4327 0.7955
vn -0.8496 -0.2461 0.4665
vn -0.3236 -0.2310 -0.9176
vn -0.8168 -0.4086 -0.4073
vn -0.7502 -0.6612 0.0000
vn -0.4830 -0.4257 0.7652
vn 0.0000 1.0000 -0.0000
vn 0.4669 0.8120 -0.3502
vn -0.7949 0.5922 0.1325
vn -0.2701 -0.2025 0.9413
vn -0.7102 -0.2660 0.6518
vn -0.7330 -0.3076 0.6067
vn -0.6762 -0.3383 0.6545
vn -0.6206 -0.3600 0.6966
vn 0.7076 -0.0506 -0.7048
vn 1.0000 0.0000 -0.0000
vn 0.0000 -1.0000 0.0000
vn 0.0000 -0.4778 0.8785
vn 0.6715 0.3770 -0.6380
vn 0.6477 0.3664 -0.6680
vn 0.4171 0.1786 0.8911
vn 0.0000 0.4379 -0.8990
vn -0.4052 0.4088 -0.8178
usemtl Shape.9567
s off
f 11//1 15//1 20//1
f 2//2 3//2 7//2
f 1//3 4//3 8//3
f 2//4 6//4 9//4
f 8//5 4//5 9//5
f 4//3 1//3 11//3
f 7//6 10//6 12//6
f 11//7 5//7 13//7
f 11//8 1//8 14//8
f 5//9 11//9 14//9
f 1//10 12//10 14//10
f 12//11 10//11 14//11
f 3//12 2//12 15//12
f 2//13 9//13 15//13
f 13//14 3//14 15//14
f 11//1 13//1 15//1
f 7//2 3//2 16//2
f 10//15 7//15 16//15
f 3//16 13//16 16//16
f 13//17 5//17 16//17
f 5//18 14//18 16//18
f 14//19 10//19 16//19
f 1//20 8//20 17//20
f 8//21 6//21 17//21
f 12//22 1//22 17//22
f 7//23 12//23 17//23
f 6//21 8//21 18//21
f 9//24 6//24 18//24
f 8//25 9//25 18//25
f 6//26 2//26 19//26
f 2//2 7//2 19//2
f 17//21 6//21 19//21
f 7//23 17//23 19//23
f 9//27 4//27 20//27
f 4//3 11//3 20//3
f 15//28 9//28 20//28
