# Blender v2.79 (sub 0) OBJ File: ''
# www.blender.org
mtllib 1925_link_0_291.mtl
o Shape_IndexedFaceSet.291_Shape_IndexedFaceSet.9752
v -0.030493 0.508428 0.631277
v 0.004462 0.511118 0.639353
v -0.027807 0.511118 0.746923
v -0.035874 0.511118 0.639353
v -0.027807 0.508428 0.746923
v 0.004462 0.508428 0.615153
v -0.046632 0.508428 0.746923
vn 0.0000 0.0000 1.0000
vn 0.0000 1.0000 0.0000
vn 0.9578 0.0000 0.2873
vn 0.0000 0.9939 -0.1105
vn -0.1960 0.8837 -0.4250
vn 0.0000 -1.0000 0.0000
vn 0.4112 -0.9060 0.1007
vn -0.1415 0.9899 0.0106
vn -0.5330 -0.8429 -0.0744
usemtl Shape.9763
s off
f 5//1 3//1 7//1
f 3//2 2//2 4//2
f 2//3 3//3 5//3
f 4//4 2//4 6//4
f 1//5 4//5 6//5
f 5//6 1//6 6//6
f 2//7 5//7 6//7
f 3//8 4//8 7//8
f 4//9 1//9 7//9
f 1//6 5//6 7//6
