# Blender v2.79 (sub 0) OBJ File: ''
# www.blender.org
mtllib 1925_link_2_105.mtl
o Shape_IndexedFaceSet.105_Shape_IndexedFaceSet.9913
v 0.194648 0.346419 -0.228488
v 0.189377 0.341072 -0.229609
v 0.238417 0.044976 -0.217422
v 0.188970 -0.005658 -0.347702
v 0.234393 -0.249870 -0.353401
v 0.234393 0.124854 -0.279591
v 0.188970 0.141955 -0.342028
v 0.188970 0.261143 -0.228488
v 0.228710 -0.249870 -0.347702
v 0.234393 -0.073773 -0.353401
v 0.234393 0.198748 -0.228488
v 0.200327 0.176042 -0.319308
v 0.211679 0.283907 -0.245523
v 0.228710 0.045473 -0.228488
vn -0.8972 -0.1653 0.4096
vn -0.2997 0.4695 -0.8305
vn -0.2223 0.0148 0.9749
vn -0.1708 0.0114 0.9852
vn -1.0000 0.0050 -0.0053
vn -1.0000 0.0000 -0.0000
vn 0.6714 -0.3179 0.6695
vn -0.7034 -0.1145 -0.7015
vn -0.9288 -0.1511 0.3383
vn 0.9996 0.0000 -0.0296
vn -0.1245 -0.0000 -0.9922
vn 0.9989 0.0163 -0.0438
vn -0.0676 0.0383 -0.9970
vn 0.2832 0.0762 0.9560
vn 0.9991 0.0237 -0.0342
vn 0.3046 0.4559 -0.8363
vn 0.8504 0.1833 -0.4932
vn 0.7350 0.1891 -0.6511
vn 0.9656 0.2599 0.0117
vn 0.9398 0.1944 -0.2811
vn 0.6876 0.3593 -0.6310
vn 0.8625 0.2207 -0.4553
vn -0.7477 -0.1378 0.6496
vn -0.7326 -0.2548 0.6312
usemtl Shape.9924
s off
f 8//1 9//1 14//1
f 2//2 1//2 7//2
f 1//3 2//3 8//3
f 3//4 1//4 8//4
f 2//5 7//5 8//5
f 7//6 4//6 8//6
f 5//7 3//7 9//7
f 4//8 5//8 9//8
f 8//9 4//9 9//9
f 3//10 5//10 10//10
f 5//11 4//11 10//11
f 6//12 3//12 10//12
f 4//13 7//13 10//13
f 1//14 3//14 11//14
f 3//15 6//15 11//15
f 7//16 1//16 12//16
f 6//17 10//17 12//17
f 10//18 7//18 12//18
f 1//19 11//19 13//19
f 11//20 6//20 13//20
f 12//21 1//21 13//21
f 6//22 12//22 13//22
f 3//23 8//23 14//23
f 9//24 3//24 14//24
