# Blender v2.79 (sub 0) OBJ File: ''
# www.blender.org
mtllib 1925_link_0_116.mtl
o Shape_IndexedFaceSet.116_Shape_IndexedFaceSet.9577
v 0.082469 0.831197 0.028776
v 0.114745 0.847331 0.082565
v 0.112053 0.847331 0.082565
v 0.114745 0.823124 0.063732
v 0.071710 0.823124 0.050295
v 0.071710 0.847331 0.050295
v 0.114745 0.847331 0.061041
v 0.109362 0.823124 0.036848
v 0.077094 0.847331 0.031467
v 0.071710 0.823124 0.034157
vn -0.9457 0.1803 -0.2704
vn 0.0000 -0.6140 0.7893
vn -0.2355 -0.6130 0.7542
vn -0.6246 0.0000 0.7809
vn 0.0000 1.0000 0.0000
vn 1.0000 -0.0000 0.0000
vn 0.9803 -0.0218 -0.1963
vn 0.0000 -1.0000 0.0000
vn 0.5182 0.5442 -0.6598
vn 0.3496 0.2663 -0.8983
vn -1.0000 0.0000 0.0000
vn 0.0568 -0.6050 -0.7942
vn -0.4474 0.0001 -0.8943
usemtl Shape.9588
s off
f 6//1 9//1 10//1
f 2//2 3//2 4//2
f 4//3 3//3 5//3
f 5//4 3//4 6//4
f 3//5 2//5 6//5
f 2//6 4//6 7//6
f 6//5 2//5 7//5
f 7//7 4//7 8//7
f 4//8 5//8 8//8
f 6//5 7//5 9//5
f 7//9 8//9 9//9
f 8//10 1//10 9//10
f 5//11 6//11 10//11
f 1//12 8//12 10//12
f 8//8 5//8 10//8
f 9//13 1//13 10//13
