# Blender v2.79 (sub 0) OBJ File: ''
# www.blender.org
mtllib 1925_link_0_253.mtl
o Shape_IndexedFaceSet.253_Shape_IndexedFaceSet.9714
v -0.178428 0.667122 0.130970
v -0.156915 0.739743 0.136359
v -0.156915 0.739743 0.082574
v -0.181122 0.739743 0.112150
v -0.156915 0.712836 0.061048
v -0.167678 0.664431 0.136359
v -0.181122 0.734354 0.093329
v -0.178428 0.683267 0.101379
v -0.173052 0.731671 0.136359
v -0.181122 0.677885 0.136359
v -0.156915 0.702087 0.074501
v -0.159609 0.718217 0.061048
v -0.156915 0.728973 0.136359
vn 0.9839 -0.1641 0.0713
vn 0.0000 1.0000 0.0000
vn 1.0000 0.0000 0.0000
vn -0.3188 0.9112 -0.2609
vn 0.0203 -0.8777 -0.4789
vn -0.4084 0.8164 0.4083
vn -0.0000 0.0000 1.0000
vn -0.4859 -0.4855 0.7268
vn -1.0000 0.0000 0.0000
vn -0.9940 -0.0661 -0.0867
vn -0.9758 -0.1918 -0.1047
vn -0.9247 0.1387 0.3545
vn -0.0960 -0.7776 -0.6213
vn 0.1251 -0.8570 -0.4999
vn 0.7803 0.3907 -0.4883
vn -0.4214 0.6671 -0.6143
vn -0.6965 -0.3487 -0.6272
vn -0.8533 -0.1248 -0.5063
usemtl Shape.9725
s off
f 6//1 11//1 13//1
f 2//2 3//2 4//2
f 3//3 2//3 5//3
f 4//4 3//4 7//4
f 6//5 1//5 8//5
f 2//6 4//6 9//6
f 6//7 2//7 9//7
f 6//7 9//7 10//7
f 1//8 6//8 10//8
f 4//9 7//9 10//9
f 7//10 8//10 10//10
f 8//11 1//11 10//11
f 9//12 4//12 10//12
f 5//3 2//3 11//3
f 8//13 5//13 11//13
f 6//14 8//14 11//14
f 3//15 5//15 12//15
f 7//16 3//16 12//16
f 5//17 8//17 12//17
f 8//18 7//18 12//18
f 2//7 6//7 13//7
f 11//3 2//3 13//3
