# Blender v2.79 (sub 0) OBJ File: ''
# www.blender.org
mtllib 1925_link_0_183.mtl
o Shape_IndexedFaceSet.183_Shape_IndexedFaceSet.9644
v -0.011671 0.820433 0.031464
v -0.011671 0.804296 0.015326
v -0.011671 0.804296 0.036837
v 0.071710 0.820433 0.036837
v 0.071710 0.804296 0.050285
v -0.011671 0.823124 0.050285
v 0.071710 0.823124 0.050285
v 0.023302 0.804296 0.050285
v 0.071710 0.823124 0.036837
v 0.001780 0.806987 0.015326
v 0.058259 0.804296 0.039526
vn 0.3397 -0.4232 -0.8399
vn -1.0000 -0.0000 0.0000
vn 0.0000 -1.0000 0.0000
vn 0.0000 0.0000 1.0000
vn 1.0000 0.0000 0.0000
vn -0.2986 -0.5547 0.7766
vn -0.0228 0.9897 -0.1415
vn 0.0000 1.0000 0.0000
vn -0.1401 0.7002 -0.7001
vn 0.0157 0.7746 -0.6323
vn 0.2940 0.0000 -0.9558
vn 0.5235 -0.5455 -0.6545
vn 0.1707 -0.8530 -0.4932
usemtl Shape.9655
s off
f 10//1 4//1 11//1
f 1//2 2//2 3//2
f 3//3 2//3 5//3
f 1//2 3//2 6//2
f 6//4 5//4 7//4
f 5//5 4//5 7//5
f 3//3 5//3 8//3
f 6//6 3//6 8//6
f 5//4 6//4 8//4
f 1//7 6//7 9//7
f 6//8 7//8 9//8
f 7//5 4//5 9//5
f 2//9 1//9 10//9
f 1//10 9//10 10//10
f 9//11 4//11 10//11
f 4//12 5//12 11//12
f 5//3 2//3 11//3
f 2//13 10//13 11//13
