# Blender v2.79 (sub 0) OBJ File: ''
# www.blender.org
mtllib 1925_link_0_104.mtl
o Shape_IndexedFaceSet.104_Shape_IndexedFaceSet.9565
v 0.187371 0.728992 0.163260
v 0.192745 0.804296 0.203602
v 0.192745 0.804296 0.200905
v 0.176608 0.804296 0.179399
v 0.184679 0.723605 0.203602
v 0.200816 0.731677 0.163260
v 0.187371 0.804296 0.163260
v 0.200816 0.723605 0.190148
v 0.179303 0.804296 0.203602
v 0.176608 0.796224 0.163260
v 0.198122 0.763951 0.203602
vn 0.9980 0.0606 0.0182
vn 0.0000 1.0000 0.0000
vn 0.0000 0.0000 -1.0000
vn 0.9737 0.1803 -0.1390
vn -0.1159 -0.9835 -0.1391
vn 0.1879 -0.9407 -0.2824
vn -0.9917 -0.0661 0.1104
vn 0.0000 0.0000 1.0000
vn -0.9837 -0.1575 -0.0867
vn -0.9953 -0.0866 0.0433
vn -0.5571 0.7428 -0.3715
vn 0.9912 0.1321 0.0000
vn 0.9909 0.1296 -0.0375
vn 0.6263 -0.2087 0.7512
usemtl Shape.9576
s off
f 8//1 6//1 11//1
f 2//2 3//2 4//2
f 6//3 1//3 7//3
f 4//2 3//2 7//2
f 3//4 6//4 7//4
f 5//5 1//5 8//5
f 1//6 6//6 8//6
f 2//2 4//2 9//2
f 4//7 5//7 9//7
f 5//8 2//8 9//8
f 1//9 5//9 10//9
f 5//10 4//10 10//10
f 7//3 1//3 10//3
f 4//11 7//11 10//11
f 3//12 2//12 11//12
f 2//8 5//8 11//8
f 6//13 3//13 11//13
f 5//14 8//14 11//14
