# Blender v2.79 (sub 0) OBJ File: ''
# www.blender.org
mtllib 1925_link_0_49.mtl
o Shape_IndexedFaceSet.049_Shape_IndexedFaceSet.9510
v 0.093228 0.594540 0.297742
v 0.128190 0.804296 0.381123
v 0.114740 0.804296 0.381123
v 0.128190 0.672529 0.297742
v 0.128190 0.629489 0.300435
v 0.095921 0.737026 0.381123
v 0.093228 0.637559 0.303137
v 0.093228 0.766616 0.375728
v 0.125500 0.801586 0.364970
v 0.128190 0.788136 0.381123
v 0.095921 0.597210 0.303137
v 0.106681 0.747786 0.381123
v 0.093228 0.737026 0.381123
v 0.122810 0.629489 0.305822
v 0.125500 0.672529 0.297742
vn -0.5443 0.3876 -0.7440
vn 0.1380 -0.0619 -0.9885
vn 1.0000 0.0000 0.0000
vn 0.0000 0.0000 1.0000
vn -1.0000 0.0000 0.0000
vn -0.6941 0.4739 -0.5419
vn 0.0000 0.9862 -0.1655
vn 0.9765 0.1151 -0.1819
vn -0.6349 0.3788 -0.6734
vn 0.7071 -0.7071 -0.0030
vn 0.4379 -0.4379 0.7851
vn -0.4892 0.1564 0.8580
vn -0.7755 -0.3189 0.5449
vn 0.0000 -0.4871 0.8733
vn 0.6659 -0.3382 0.6650
vn 0.5937 -0.5439 0.5930
vn 0.4460 -0.4365 0.7813
vn 0.6468 -0.3448 0.6802
vn 0.0000 0.0000 -1.0000
vn -0.2880 0.1192 -0.9502
vn 0.0000 0.4620 -0.8869
usemtl Shape.9521
s off
f 7//1 9//1 15//1
f 1//2 4//2 5//2
f 4//3 2//3 5//3
f 2//4 3//4 6//4
f 7//5 1//5 8//5
f 8//6 3//6 9//6
f 3//7 2//7 9//7
f 2//8 4//8 9//8
f 7//9 8//9 9//9
f 5//3 2//3 10//3
f 2//4 6//4 10//4
f 1//10 5//10 11//10
f 6//11 11//11 12//11
f 10//4 6//4 12//4
f 6//4 3//4 13//4
f 8//5 1//5 13//5
f 3//12 8//12 13//12
f 1//13 11//13 13//13
f 11//14 6//14 13//14
f 5//15 10//15 14//15
f 11//16 5//16 14//16
f 12//17 11//17 14//17
f 10//18 12//18 14//18
f 4//19 1//19 15//19
f 1//20 7//20 15//20
f 9//21 4//21 15//21
