# Blender v2.79 (sub 0) OBJ File: ''
# www.blender.org
mtllib 1925_link_2_73.mtl
o Shape_IndexedFaceSet.073_Shape_IndexedFaceSet.9881
v 0.001560 -0.187406 0.776709
v -0.077945 -0.232829 0.725598
v -0.077945 -0.227150 0.725598
v -0.077945 -0.187406 0.776709
v 0.001560 -0.232829 0.753990
v 0.001560 -0.187406 0.748317
v 0.001560 -0.232829 0.725598
v -0.079670 -0.233815 0.754113
v -0.077945 -0.187406 0.748317
vn -0.9993 0.0371 0.0000
vn 0.0000 1.0000 0.0000
vn 1.0000 0.0000 0.0000
vn 0.0000 0.0000 -1.0000
vn 0.0319 0.4471 -0.8939
vn -0.9982 0.0000 -0.0604
vn 0.0000 -0.4378 0.8991
vn 0.0068 -0.4473 0.8943
vn 0.0000 -0.9994 -0.0346
vn 0.0121 -0.9999 0.0000
vn 0.0000 0.4963 -0.8682
vn -0.9981 0.0304 -0.0533
usemtl Shape.9892
s off
f 8//1 4//1 9//1
f 4//2 1//2 6//2
f 1//3 5//3 6//3
f 2//4 3//4 7//4
f 6//3 5//3 7//3
f 3//5 6//5 7//5
f 3//6 2//6 8//6
f 1//7 4//7 8//7
f 5//8 1//8 8//8
f 2//9 7//9 8//9
f 7//10 5//10 8//10
f 6//11 3//11 9//11
f 4//2 6//2 9//2
f 3//12 8//12 9//12
