# Blender v2.79 (sub 0) OBJ File: ''
# www.blender.org
mtllib 1925_link_0_184.mtl
o Shape_IndexedFaceSet.184_Shape_IndexedFaceSet.9645
v 0.071710 0.844640 0.028776
v -0.011671 0.844640 0.020705
v -0.011671 0.847331 0.020705
v -0.011671 0.828505 0.050286
v 0.071710 0.823124 0.034153
v 0.071710 0.847331 0.050286
v 0.071710 0.823124 0.050286
v -0.011671 0.825816 0.034153
v -0.011671 0.847331 0.036838
v 0.055566 0.847331 0.023395
v -0.011671 0.823124 0.050286
v 0.031350 0.841950 0.020705
vn 0.1714 -0.3024 -0.9376
vn -1.0000 0.0000 0.0000
vn 1.0000 -0.0000 0.0000
vn 0.0000 0.0000 1.0000
vn 0.0000 1.0000 0.0000
vn -0.1301 0.5763 0.8068
vn 0.2723 -0.2333 -0.9335
vn 0.2025 0.9717 -0.1216
vn 0.0000 -1.0000 0.0000
vn -0.0318 -0.9859 -0.1645
vn 0.0000 0.0000 -1.0000
vn -0.0363 -0.5809 -0.8131
vn -0.0197 -0.6087 -0.7932
vn 0.0381 0.3044 -0.9518
usemtl Shape.9656
s off
f 10//1 5//1 12//1
f 3//2 2//2 4//2
f 5//3 1//3 6//3
f 5//3 6//3 7//3
f 6//4 4//4 7//4
f 4//2 2//2 8//2
f 3//2 4//2 9//2
f 6//5 3//5 9//5
f 4//6 6//6 9//6
f 1//7 5//7 10//7
f 6//8 1//8 10//8
f 3//5 6//5 10//5
f 5//9 7//9 11//9
f 7//4 4//4 11//4
f 4//2 8//2 11//2
f 8//10 5//10 11//10
f 2//11 3//11 12//11
f 8//12 2//12 12//12
f 5//13 8//13 12//13
f 3//14 10//14 12//14
