# Blender v2.79 (sub 0) OBJ File: ''
# www.blender.org
mtllib 1925_link_2_64.mtl
o Shape_IndexedFaceSet.064_Shape_IndexedFaceSet.9872
v -0.123367 0.460006 -0.245501
v -0.043881 0.766661 -0.046738
v -0.043881 0.766661 -0.052430
v -0.043881 0.454319 -0.251171
v -0.140413 0.635988 -0.046738
v -0.140413 0.698512 -0.052430
v -0.140413 0.454319 -0.188711
v -0.060917 0.522468 -0.239786
v -0.043881 0.715511 -0.052430
v -0.106330 0.715511 -0.069463
v -0.140413 0.505469 -0.205722
v -0.043881 0.465723 -0.273896
v -0.134725 0.635988 -0.046738
v -0.049559 0.460006 -0.239786
v -0.100651 0.522468 -0.222776
v -0.072275 0.760974 -0.052430
v -0.134725 0.460006 -0.183019
v -0.083633 0.454319 -0.268181
vn -0.3500 0.4573 -0.8175
vn 1.0000 0.0000 0.0000
vn -0.1218 0.0900 0.9885
vn -1.0000 0.0000 -0.0000
vn -0.9504 -0.0981 -0.2951
vn -0.5743 0.5091 -0.6411
vn 0.3401 0.5574 -0.7574
vn 0.0000 0.0000 1.0000
vn 0.1571 -0.1092 0.9815
vn 0.4985 -0.5198 0.6938
vn 0.7033 -0.4305 0.5658
vn -0.5150 0.5238 -0.6786
vn -0.5077 0.4516 -0.7337
vn -0.1964 0.9805 0.0000
vn -0.2398 0.2616 0.9349
vn -0.1221 0.6095 -0.7833
vn -0.5752 0.6275 -0.5248
vn -0.3219 0.5753 -0.7519
vn -0.3914 0.5652 -0.7262
vn 0.3182 -0.8105 0.4918
vn -0.1703 -0.6068 0.7764
vn 0.0000 -0.6123 0.7906
vn 0.4662 -0.5417 0.6995
vn 0.3709 -0.7436 0.5564
vn -0.2317 -0.9586 -0.1655
vn 0.0000 -1.0000 0.0000
vn 0.1885 -0.8778 -0.4405
vn -0.2507 0.4423 -0.8611
vn -0.3976 0.4379 -0.8063
usemtl Shape.9883
s off
f 15//1 8//1 18//1
f 3//2 2//2 4//2
f 5//3 2//3 6//3
f 5//4 6//4 7//4
f 4//2 2//2 9//2
f 1//5 7//5 11//5
f 7//4 6//4 11//4
f 6//6 10//6 11//6
f 3//2 4//2 12//2
f 8//7 3//7 12//7
f 2//8 5//8 13//8
f 9//9 2//9 13//9
f 9//10 13//10 14//10
f 4//11 9//11 14//11
f 11//12 10//12 15//12
f 1//13 11//13 15//13
f 2//14 3//14 16//14
f 6//15 2//15 16//15
f 3//16 8//16 16//16
f 10//17 6//17 16//17
f 8//18 15//18 16//18
f 15//19 10//19 16//19
f 7//20 4//20 17//20
f 5//21 7//21 17//21
f 13//22 5//22 17//22
f 14//23 13//23 17//23
f 4//24 14//24 17//24
f 7//25 1//25 18//25
f 4//26 7//26 18//26
f 12//27 4//27 18//27
f 8//28 12//28 18//28
f 1//29 15//29 18//29
