# Blender v2.79 (sub 0) OBJ File: ''
# www.blender.org
mtllib 1925_link_2_9.mtl
o Shape_IndexedFaceSet.009_Shape_IndexedFaceSet.9817
v 0.188956 0.692803 0.021409
v 0.132186 0.647350 -0.046738
v 0.205993 0.425990 -0.046738
v 0.207123 0.418578 0.022917
v 0.130054 0.732766 0.022914
v 0.217351 0.528176 -0.046738
v 0.137865 0.709823 -0.046738
v 0.228718 0.477083 0.021409
v 0.225888 0.435812 -0.044740
v 0.171938 0.732549 0.015726
v 0.132186 0.760982 -0.001311
v 0.177617 0.658730 -0.035378
v 0.200314 0.658730 0.015726
vn 0.8721 0.2991 -0.3873
vn -0.9485 -0.3163 -0.0183
vn 0.0306 0.0075 0.9995
vn -0.9394 -0.2304 0.2538
vn 0.0000 0.0000 -1.0000
vn 0.0465 0.0086 0.9989
vn 0.9911 0.0895 -0.0982
vn 0.4486 -0.8879 -0.1018
vn 0.1057 -0.0117 -0.9943
vn 0.9258 -0.3373 0.1708
vn 0.1665 0.2091 0.9636
vn 0.6296 0.5538 -0.5449
vn -0.9979 0.0240 -0.0599
vn -0.9713 0.0883 -0.2209
vn 0.1332 0.6398 0.7569
vn 0.5318 0.2327 -0.8143
vn 0.7149 0.4344 -0.5480
vn 0.8623 0.3315 -0.3830
vn 0.7388 0.1362 0.6601
vn 0.9870 0.1528 -0.0501
vn 0.8975 0.3450 -0.2747
usemtl Shape.9828
s off
f 6//1 12//1 13//1
f 2//2 3//2 4//2
f 4//3 1//3 5//3
f 2//4 4//4 5//4
f 3//5 2//5 6//5
f 6//5 2//5 7//5
f 1//6 4//6 8//6
f 6//7 8//7 9//7
f 4//8 3//8 9//8
f 3//9 6//9 9//9
f 8//10 4//10 9//10
f 5//11 1//11 10//11
f 10//12 7//12 11//12
f 2//13 5//13 11//13
f 7//14 2//14 11//14
f 5//15 10//15 11//15
f 6//16 7//16 12//16
f 7//17 10//17 12//17
f 12//18 10//18 13//18
f 1//19 8//19 13//19
f 8//20 6//20 13//20
f 10//21 1//21 13//21
