# Blender v2.79 (sub 0) OBJ File: ''
# www.blender.org
mtllib 1925_link_2_14.mtl
o Shape_IndexedFaceSet.014_Shape_IndexedFaceSet.9822
v 0.012945 0.698519 0.066841
v 0.149213 0.755297 0.027088
v 0.149213 0.755297 0.021409
v 0.149213 0.698519 0.066841
v 0.149592 0.714449 0.019199
v 0.012945 0.755297 0.021409
v 0.012945 0.732583 0.066841
v 0.149213 0.732583 0.066841
v 0.012945 0.726908 0.021409
vn -0.0162 0.0000 -0.9999
vn 0.0000 -0.9484 -0.3171
vn 1.0000 0.0093 0.0000
vn 0.0000 1.0000 0.0000
vn 0.0000 0.0540 -0.9985
vn 0.0000 0.0000 1.0000
vn -0.0186 0.8943 0.4471
vn -1.0000 0.0000 0.0000
vn 1.0000 0.0000 0.0080
vn 1.0000 0.0084 0.0048
vn 0.0000 0.8683 0.4961
vn -0.0856 -0.8449 -0.5280
usemtl Shape.9833
s off
f 6//1 5//1 9//1
f 4//2 1//2 5//2
f 3//3 2//3 5//3
f 2//4 3//4 6//4
f 3//5 5//5 6//5
f 1//6 4//6 7//6
f 2//7 6//7 7//7
f 6//8 1//8 7//8
f 4//9 5//9 8//9
f 5//10 2//10 8//10
f 2//11 7//11 8//11
f 7//6 4//6 8//6
f 5//12 1//12 9//12
f 1//8 6//8 9//8
