# Blender v2.79 (sub 0) OBJ File: ''
# www.blender.org
mtllib 1925_link_0_207.mtl
o Shape_IndexedFaceSet.207_Shape_IndexedFaceSet.9668
v -0.038564 0.529946 0.612445
v 0.001773 0.532636 0.607065
v 0.001773 0.529946 0.607065
v -0.030497 0.532636 0.714646
v -0.041250 0.532636 0.617825
v -0.046631 0.529946 0.714646
vn -0.1644 0.9862 0.0183
vn -0.1322 0.0000 -0.9912
vn 0.9578 0.0000 0.2873
vn -0.1231 0.8617 -0.4923
vn 0.0000 1.0000 -0.0000
vn 0.0000 -1.0000 0.0000
vn 0.1640 -0.9837 0.0738
vn -0.7641 -0.6423 -0.0603
usemtl Shape.9679
s off
f 4//1 5//1 6//1
f 1//2 2//2 3//2
f 3//3 2//3 4//3
f 2//4 1//4 5//4
f 4//5 2//5 5//5
f 1//6 3//6 6//6
f 3//7 4//7 6//7
f 5//8 1//8 6//8
