# Blender v2.79 (sub 0) OBJ File: ''
# www.blender.org
mtllib 1925_link_0_204.mtl
o Shape_IndexedFaceSet.204_Shape_IndexedFaceSet.9665
v 0.034050 0.521877 0.615145
v 0.050188 0.524567 0.706577
v 0.048009 0.522005 0.701323
v 0.004467 0.524567 0.620520
v 0.042119 0.524567 0.631281
v 0.004467 0.521877 0.620520
v 0.036739 0.521877 0.706577
vn 0.0000 -1.0000 0.0000
vn 0.0545 0.9801 -0.1907
vn 0.4380 -0.8963 -0.0696
vn 0.8424 -0.5313 -0.0903
vn 0.0000 1.0000 -0.0000
vn -0.1788 0.0000 -0.9839
vn -0.9363 0.0000 0.3511
vn 0.0112 -0.9999 -0.0003
vn 0.1823 -0.9114 0.3688
vn -0.1951 0.9753 0.1036
usemtl Shape.9676
s off
f 6//1 1//1 7//1
f 1//2 4//2 5//2
f 3//3 1//3 5//3
f 2//4 3//4 5//4
f 4//5 2//5 5//5
f 4//6 1//6 6//6
f 4//7 6//7 7//7
f 1//8 3//8 7//8
f 3//9 2//9 7//9
f 2//10 4//10 7//10
