# Blender v2.79 (sub 0) OBJ File: ''
# www.blender.org
mtllib 1925_link_0_236.mtl
o Shape_IndexedFaceSet.236_Shape_IndexedFaceSet.9697
v 0.004458 0.589120 0.682370
v -0.027809 0.586430 0.663542
v -0.027809 0.586430 0.666232
v 0.028675 0.586430 0.663542
v -0.027809 0.589120 0.663542
vn 0.0000 0.0000 -1.0000
vn 0.0000 -1.0000 0.0000
vn 0.0072 -0.9886 0.1505
vn 0.0474 0.9956 -0.0813
vn -0.3814 0.6537 0.6536
vn -1.0000 0.0000 0.0000
usemtl Shape.9708
s off
f 4//1 2//1 5//1
f 3//2 2//2 4//2
f 1//3 3//3 4//3
f 1//4 4//4 5//4
f 3//5 1//5 5//5
f 2//6 3//6 5//6
