# Blender v2.79 (sub 0) OBJ File: ''
# www.blender.org
mtllib 1925_link_0_213.mtl
o Shape_IndexedFaceSet.213_Shape_IndexedFaceSet.9674
v 0.015232 0.535326 0.752294
v 0.047503 0.538015 0.703894
v 0.047503 0.535326 0.703894
v -0.000907 0.538015 0.733467
v 0.036736 0.535326 0.685074
vn -0.0642 0.9924 -0.1051
vn 0.8320 0.0000 0.5548
vn 0.0569 0.9940 0.0932
vn -0.1204 -0.9920 -0.0385
vn 0.0000 -1.0000 0.0000
vn 0.8680 0.0000 -0.4966
usemtl Shape.9685
s off
f 4//1 2//1 5//1
f 3//2 2//2 1//2
f 1//3 2//3 4//3
f 1//4 4//4 5//4
f 3//5 1//5 5//5
f 2//6 3//6 5//6
