# Blender v2.79 (sub 0) OBJ File: ''
# www.blender.org
mtllib 1925_link_2_88.mtl
o Shape_IndexedFaceSet.088_Shape_IndexedFaceSet.9896
v -0.293734 -0.709849 -0.217088
v -0.231276 -0.312338 -0.131922
v -0.231276 -0.312338 -0.137621
v -0.236966 -0.783673 -0.137621
v -0.259677 -0.380559 -0.256859
v -0.265346 -0.312338 -0.143295
v -0.276699 -0.789369 -0.256859
v -0.282375 -0.312338 -0.256859
v -0.265346 -0.772326 -0.131922
v -0.299417 -0.777976 -0.256859
v -0.282375 -0.346425 -0.205739
v -0.231276 -0.533857 -0.143295
v -0.259677 -0.312338 -0.256859
v -0.254001 -0.777976 -0.200065
v -0.293734 -0.675715 -0.211414
v -0.259677 -0.312338 -0.131922
v -0.288058 -0.380559 -0.251160
v -0.265346 -0.789369 -0.148970
v -0.236966 -0.783673 -0.131922
v -0.271023 -0.783673 -0.251160
v -0.299417 -0.715499 -0.239811
v -0.231276 -0.630281 -0.137621
vn 0.9993 -0.0371 0.0000
vn 0.0000 1.0000 0.0000
vn 0.0000 0.0000 -1.0000
vn -0.9612 -0.0748 0.2655
vn -0.9654 0.2171 0.1448
vn 1.0000 0.0000 0.0000
vn 0.9701 0.0000 -0.2426
vn 0.9728 0.0059 -0.2317
vn -0.9384 0.0085 0.3455
vn -0.9575 -0.0473 0.2845
vn -0.9683 0.0291 0.2482
vn 0.0000 0.0000 1.0000
vn -0.8949 0.0110 0.4461
vn -0.8724 0.0319 -0.4877
vn -0.9944 0.0877 0.0585
vn 0.2050 -0.9785 -0.0216
vn -0.4478 -0.8929 0.0471
vn -0.9272 -0.2649 0.2648
vn 0.1968 -0.9804 0.0000
vn -0.2721 -0.6805 0.6803
vn 0.7968 -0.5549 -0.2390
vn 0.7231 -0.0301 -0.6901
vn 0.9211 -0.2742 -0.2763
vn 0.9493 -0.0311 -0.3128
vn -0.9634 -0.0705 0.2585
vn -0.9668 -0.0419 0.2522
vn -0.9876 0.0314 0.1536
vn -0.9935 0.0300 -0.1098
vn -0.9946 0.0370 0.0966
vn 0.9649 -0.0154 -0.2621
vn 0.9633 -0.0357 -0.2661
vn 0.9582 -0.0270 -0.2848
vn 0.8294 -0.0100 0.5586
usemtl Shape.9907
s off
f 19//1 4//1 22//1
f 2//2 3//2 6//2
f 5//3 7//3 8//3
f 6//2 3//2 8//2
f 8//3 7//3 10//3
f 9//4 1//4 10//4
f 6//5 8//5 11//5
f 3//6 2//6 12//6
f 12//7 5//7 13//7
f 5//3 8//3 13//3
f 8//2 3//2 13//2
f 3//8 12//8 13//8
f 9//9 6//9 15//9
f 1//10 9//10 15//10
f 6//11 11//11 15//11
f 2//2 6//2 16//2
f 9//12 2//12 16//12
f 6//13 9//13 16//13
f 8//14 10//14 17//14
f 11//15 8//15 17//15
f 7//16 4//16 18//16
f 10//17 7//17 18//17
f 9//18 10//18 18//18
f 2//12 9//12 19//12
f 18//19 4//19 19//19
f 9//20 18//20 19//20
f 4//21 7//21 20//21
f 7//22 5//22 20//22
f 14//23 4//23 20//23
f 5//24 14//24 20//24
f 10//25 1//25 21//25
f 1//26 15//26 21//26
f 15//27 11//27 21//27
f 17//28 10//28 21//28
f 11//29 17//29 21//29
f 12//6 2//6 22//6
f 5//30 12//30 22//30
f 4//31 14//31 22//31
f 14//32 5//32 22//32
f 2//33 19//33 22//33
