# Blender v2.79 (sub 0) OBJ File: ''
# www.blender.org
mtllib 1925_link_0_64.mtl
o Shape_IndexedFaceSet.064_Shape_IndexedFaceSet.9525
v 0.044813 0.737048 0.413407
v 0.031366 0.728980 0.456434
v 0.031366 0.731667 0.453739
v 0.036748 0.691334 0.413407
v 0.050192 0.691334 0.456434
v 0.028675 0.750502 0.413407
v 0.028675 0.704782 0.456434
v 0.050192 0.691334 0.413407
v 0.036748 0.691334 0.456434
v 0.042121 0.720918 0.451051
v 0.036748 0.750502 0.416095
v 0.050192 0.718231 0.418786
v 0.028675 0.731667 0.413407
vn -1.0000 0.0000 -0.0000
vn -0.9846 0.1239 0.1236
vn 0.0000 0.0000 -1.0000
vn 0.0000 0.0000 1.0000
vn -0.9871 0.1098 0.1166
vn 0.0000 -1.0000 0.0000
vn -0.8574 -0.5147 0.0000
vn 0.6624 0.5305 0.5289
vn 0.5965 0.2983 0.7451
vn 0.2954 0.3543 -0.8872
vn -0.1420 0.8932 0.4266
vn 0.8506 0.4585 0.2573
vn 0.6963 0.5971 0.3983
vn 0.8575 0.1009 -0.5045
vn 1.0000 0.0000 0.0000
vn 0.9242 0.3226 0.2043
vn 0.9331 0.2926 0.2090
vn -0.9733 -0.1948 -0.1217
usemtl Shape.9536
s off
f 7//1 6//1 13//1
f 2//2 3//2 6//2
f 1//3 4//3 6//3
f 5//4 2//4 7//4
f 2//5 6//5 7//5
f 4//3 1//3 8//3
f 5//6 4//6 8//6
f 4//6 5//6 9//6
f 7//7 4//7 9//7
f 5//4 7//4 9//4
f 3//8 2//8 10//8
f 2//9 5//9 10//9
f 1//10 6//10 11//10
f 6//11 3//11 11//11
f 10//12 1//12 11//12
f 3//13 10//13 11//13
f 8//14 1//14 12//14
f 5//15 8//15 12//15
f 1//16 10//16 12//16
f 10//17 5//17 12//17
f 6//3 4//3 13//3
f 4//18 7//18 13//18
