# Blender v2.79 (sub 0) OBJ File: ''
# www.blender.org
mtllib 1925_link_0_206.mtl
o Shape_IndexedFaceSet.206_Shape_IndexedFaceSet.9667
v 0.025989 0.524567 0.601691
v 0.047524 0.527099 0.698388
v 0.047836 0.524705 0.699029
v 0.004467 0.524567 0.617828
v 0.004467 0.527256 0.590945
v 0.028670 0.527256 0.722715
v 0.039429 0.527256 0.620524
v 0.028670 0.524567 0.722715
vn -0.9744 0.0000 0.2248
vn -0.0744 -0.9923 -0.0993
vn 0.7645 0.2578 0.5908
vn -0.4764 0.8748 0.0875
vn 0.2771 -0.9589 -0.0608
vn 0.9895 0.1015 -0.1027
vn 0.2757 0.9043 -0.3259
vn 0.0096 1.0000 0.0010
vn 0.0000 1.0000 0.0000
vn 0.0070 -1.0000 -0.0002
vn 0.0000 -1.0000 -0.0000
vn 0.7774 0.0000 0.6290
usemtl Shape.9678
s off
f 6//1 4//1 8//1
f 1//2 4//2 5//2
f 3//3 2//3 6//3
f 5//4 4//4 6//4
f 3//5 1//5 7//5
f 2//6 3//6 7//6
f 1//7 5//7 7//7
f 6//8 2//8 7//8
f 5//9 6//9 7//9
f 1//10 3//10 8//10
f 4//11 1//11 8//11
f 3//12 6//12 8//12
