# Blender v2.79 (sub 0) OBJ File: ''
# www.blender.org
mtllib 1925_link_0_4.mtl
o Shape_IndexedFaceSet.004_Shape_IndexedFaceSet.9465
v -0.178421 0.809701 0.125585
v -0.121955 0.960269 0.165946
v -0.121955 0.960269 0.163233
v -0.121114 0.802264 0.062671
v -0.175736 0.804296 0.165946
v -0.140783 0.809701 0.053001
v -0.167667 0.876931 0.163233
v -0.121955 0.823138 0.047622
v -0.125496 0.925381 0.159307
v -0.186502 0.804296 0.165946
v -0.164976 0.807014 0.090649
v -0.130030 0.946832 0.157855
v -0.138092 0.804296 0.050311
v -0.186502 0.817763 0.165946
v -0.140783 0.933380 0.163233
v -0.173044 0.804296 0.106760
v -0.127338 0.820451 0.047622
vn -0.4874 0.1823 -0.8539
vn 1.0000 0.0053 0.0000
vn 0.9994 0.0217 -0.0257
vn 0.9648 -0.1403 0.2224
vn 0.8344 -0.3216 0.4476
vn 0.6026 -0.2078 0.7705
vn 0.0000 -0.9998 0.0197
vn 0.0000 0.0000 1.0000
vn 0.4680 -0.5043 -0.7257
vn -0.8281 -0.1424 -0.5423
vn -0.3191 0.1445 0.9367
vn -0.9276 0.2842 -0.2425
vn -0.9805 0.0000 -0.1963
vn -0.8191 0.5736 0.0000
vn -0.4031 0.1920 0.8948
vn -0.7773 0.4186 -0.4696
vn -0.8240 0.3925 -0.4086
vn -0.8028 0.5621 -0.1991
vn -0.7697 0.4248 -0.4766
vn -0.8766 0.3342 -0.3463
vn -0.0484 -0.9988 -0.0110
vn -0.9566 -0.1941 -0.2175
vn -0.8593 0.3520 -0.3710
vn -0.0821 -0.9953 -0.0508
vn -0.7301 -0.5124 -0.4521
vn -0.3063 0.6136 -0.7278
vn -0.4993 0.5635 -0.6582
vn -0.6352 0.4999 -0.5887
vn 0.1199 -0.2401 -0.9633
usemtl Shape.9476
s off
f 13//1 6//1 17//1
f 3//2 2//2 4//2
f 3//3 4//3 8//3
f 4//4 2//4 9//4
f 5//5 4//5 9//5
f 2//6 5//6 9//6
f 4//7 5//7 10//7
f 5//8 2//8 10//8
f 8//9 4//9 13//9
f 11//10 6//10 13//10
f 2//11 7//11 14//11
f 7//12 1//12 14//12
f 10//8 2//8 14//8
f 1//13 10//13 14//13
f 2//14 3//14 15//14
f 7//15 2//15 15//15
f 6//16 11//16 15//16
f 11//17 7//17 15//17
f 3//18 12//18 15//18
f 12//19 6//19 15//19
f 1//20 7//20 16//20
f 4//21 10//21 16//21
f 10//22 1//22 16//22
f 7//23 11//23 16//23
f 13//24 4//24 16//24
f 11//25 13//25 16//25
f 3//26 8//26 17//26
f 12//27 3//27 17//27
f 6//28 12//28 17//28
f 8//29 13//29 17//29
