# Blender v2.79 (sub 0) OBJ File: ''
# www.blender.org
mtllib 1925_link_0_20.mtl
o Shape_IndexedFaceSet.020_Shape_IndexedFaceSet.9481
v 0.007170 0.989879 0.227840
v -0.011662 0.871539 0.375719
v -0.011662 0.874235 0.370333
v 0.112055 0.871539 0.375719
v 0.112896 0.987871 0.202414
v 0.112055 0.890374 0.375719
v -0.011662 0.987195 0.203619
v -0.011662 0.890374 0.375719
v 0.109355 1.003334 0.206312
v -0.011662 1.003334 0.203619
v 0.112055 0.952221 0.284309
v 0.112055 0.884994 0.381088
v -0.011662 0.871539 0.381088
v 0.112055 0.874235 0.370333
v 0.015235 0.914576 0.340760
v -0.011662 1.000638 0.211699
v -0.011662 0.957601 0.246657
v 0.112055 0.871539 0.381088
v -0.011662 0.884994 0.381088
v 0.112055 0.984499 0.235902
v 0.112055 0.957601 0.246657
vn 0.0000 -0.8292 -0.5589
vn 0.0000 -0.8942 -0.4476
vn -1.0000 0.0000 -0.0000
vn -0.0097 0.0000 -1.0000
vn 0.0215 0.2490 -0.9683
vn 0.9987 0.0425 0.0288
vn 0.9999 0.0110 0.0111
vn 0.0000 0.7064 0.7078
vn 0.0000 -1.0000 0.0000
vn 0.9995 -0.0284 -0.0142
vn 0.0000 0.8222 0.5692
vn 0.0047 0.8282 0.5604
vn 0.0000 0.8320 0.5548
vn -0.0070 0.9486 0.3165
vn -0.0216 0.8297 0.5578
vn -0.0002 0.8320 0.5548
vn -0.0010 -0.8240 -0.5666
vn 1.0000 -0.0072 0.0000
vn 1.0000 0.0000 0.0047
vn 0.0000 0.0000 1.0000
vn 0.9762 0.2120 0.0459
vn 0.9986 0.0443 0.0295
vn 0.0051 0.8438 0.5366
vn 0.0001 0.8321 0.5546
vn 0.4035 -0.7587 -0.5114
vn 0.0000 -0.8253 -0.5647
usemtl Shape.9492
s off
f 14//1 17//1 21//1
f 2//2 3//2 4//2
f 3//3 2//3 7//3
f 7//3 2//3 8//3
f 5//4 7//4 10//4
f 7//3 8//3 10//3
f 9//5 5//5 10//5
f 6//6 5//6 11//6
f 5//7 6//7 12//7
f 6//8 8//8 12//8
f 2//9 4//9 13//9
f 8//3 2//3 13//3
f 4//2 3//2 14//2
f 5//10 4//10 14//10
f 8//11 6//11 15//11
f 6//12 11//12 15//12
f 11//13 1//13 15//13
f 10//3 8//3 16//3
f 9//14 10//14 16//14
f 8//15 15//15 16//15
f 15//16 1//16 16//16
f 3//3 7//3 17//3
f 7//17 5//17 17//17
f 14//1 3//1 17//1
f 4//18 5//18 18//18
f 5//19 12//19 18//19
f 12//20 13//20 18//20
f 13//9 4//9 18//9
f 12//8 8//8 19//8
f 8//3 13//3 19//3
f 13//20 12//20 19//20
f 5//21 9//21 20//21
f 11//22 5//22 20//22
f 1//13 11//13 20//13
f 9//23 16//23 20//23
f 16//24 1//24 20//24
f 5//25 14//25 21//25
f 17//26 5//26 21//26
