# Blender v2.79 (sub 0) OBJ File: ''
# www.blender.org
mtllib 1925_link_2_5.mtl
o Shape_IndexedFaceSet.005_Shape_IndexedFaceSet.9813
v -0.077936 0.579277 0.293993
v -0.140484 0.550769 0.220164
v -0.137597 0.546820 0.221564
v -0.004118 0.726908 0.066841
v -0.140413 0.726908 0.072530
v -0.001893 0.547986 0.285699
v -0.004118 0.687153 0.078219
v -0.140413 0.596320 0.265596
v -0.140413 0.698492 0.066841
v -0.004118 0.579277 0.293993
v -0.112009 0.562252 0.288304
v -0.004118 0.698492 0.117970
v -0.007126 0.554745 0.305647
vn -0.1161 -0.9496 0.2913
vn 0.9999 -0.0038 -0.0133
vn 0.2619 -0.8002 -0.5395
vn -0.0287 0.8280 0.5600
vn -1.0000 0.0009 0.0006
vn -0.5440 -0.6041 -0.5823
vn -0.0409 0.1961 -0.9797
vn -1.0000 0.0001 -0.0004
vn 0.0573 -0.2747 -0.9598
vn -0.0010 -0.7141 -0.7000
vn -0.7998 -0.4399 0.4084
vn -0.1176 -0.9567 0.2663
vn -0.3141 0.3312 0.8898
vn -0.8162 -0.4074 0.4097
vn -0.0126 0.8304 0.5571
vn 0.0203 0.8739 0.4857
vn 0.9990 0.0388 0.0216
vn 0.0000 0.8280 0.5608
vn 0.9974 0.0601 0.0407
vn 0.0000 0.4291 0.9033
vn 0.9674 0.0017 0.2532
vn -0.1633 -0.0028 0.9866
usemtl Shape.9824
s off
f 11//1 6//1 13//1
f 4//2 6//2 7//2
f 6//3 3//3 7//3
f 1//4 5//4 8//4
f 5//5 2//5 8//5
f 3//6 2//6 9//6
f 5//7 4//7 9//7
f 2//8 5//8 9//8
f 4//9 7//9 9//9
f 7//10 3//10 9//10
f 2//11 3//11 11//11
f 3//12 6//12 11//12
f 1//13 8//13 11//13
f 8//14 2//14 11//14
f 5//15 1//15 12//15
f 4//16 5//16 12//16
f 6//17 4//17 12//17
f 1//18 10//18 12//18
f 10//19 6//19 12//19
f 10//20 1//20 13//20
f 6//21 10//21 13//21
f 1//22 11//22 13//22
