# Blender v2.79 (sub 0) OBJ File: ''
# www.blender.org
mtllib 1925_link_0_167.mtl
o Shape_IndexedFaceSet.167_Shape_IndexedFaceSet.9628
v -0.164984 0.629477 0.182088
v -0.173053 0.669802 0.214357
v -0.164984 0.677873 0.211668
v -0.167674 0.712837 0.179398
v -0.175743 0.640238 0.179398
v -0.175743 0.618716 0.214357
v -0.164984 0.618716 0.214357
v -0.175799 0.669844 0.214538
v -0.164984 0.712837 0.179398
v -0.173053 0.685944 0.179398
vn -0.9970 0.0587 -0.0510
vn -0.5846 -0.6909 -0.4253
vn 1.0000 -0.0000 0.0000
vn 0.2763 0.0436 0.9601
vn 0.0000 -0.9486 -0.3164
vn 0.0000 -0.0035 1.0000
vn 0.0675 0.2540 0.9648
vn -0.2841 0.6384 0.7154
vn -1.0000 -0.0011 -0.0007
vn 0.0659 0.0104 0.9978
vn 0.0000 0.6782 0.7349
vn 0.2127 -0.0315 -0.9766
vn 0.0000 0.0000 -1.0000
vn -0.9805 0.1961 0.0132
usemtl Shape.9639
s off
f 5//1 8//1 10//1
f 5//2 1//2 6//2
f 1//3 3//3 7//3
f 3//4 2//4 7//4
f 6//5 1//5 7//5
f 6//6 7//6 8//6
f 2//7 3//7 8//7
f 3//8 4//8 8//8
f 5//9 6//9 8//9
f 7//10 2//10 8//10
f 3//3 1//3 9//3
f 4//11 3//11 9//11
f 1//12 5//12 9//12
f 5//13 4//13 9//13
f 4//13 5//13 10//13
f 8//14 4//14 10//14
