# Blender v2.79 (sub 0) OBJ File: ''
# www.blender.org
mtllib 1925_link_0_324.mtl
o Shape_IndexedFaceSet.324_Shape_IndexedFaceSet.9785
v -0.029466 0.578396 0.672386
v 0.044104 0.580933 0.638600
v 0.045032 0.578446 0.639527
v -0.017046 0.578361 0.515634
v -0.030499 0.581051 0.526394
v -0.014358 0.581051 0.690412
v 0.034042 0.581051 0.531773
v 0.044807 0.578361 0.555973
v 0.023284 0.578361 0.685032
v -0.030499 0.581051 0.674273
vn -0.5581 -0.6139 0.5582
vn -0.2086 -0.9779 -0.0163
vn 0.0184 0.9752 -0.2208
vn 0.0028 1.0000 0.0008
vn 0.0000 1.0000 -0.0000
vn 0.9372 0.3487 -0.0029
vn 0.2993 0.9538 -0.0271
vn 0.1004 -0.9830 -0.1539
vn 0.8075 0.4455 0.3867
vn -0.0007 -1.0000 0.0002
vn 0.0841 0.9921 0.0927
vn -0.0442 -0.9823 0.1817
vn 0.0060 -1.0000 0.0010
vn 0.0000 -1.0000 0.0000
vn -0.9319 -0.3626 0.0000
usemtl Shape.9796
s off
f 1//1 6//1 10//1
f 4//2 1//2 5//2
f 4//3 5//3 7//3
f 6//4 2//4 7//4
f 5//5 6//5 7//5
f 2//6 3//6 8//6
f 7//7 2//7 8//7
f 4//8 7//8 8//8
f 3//9 2//9 9//9
f 1//10 4//10 9//10
f 2//11 6//11 9//11
f 6//12 1//12 9//12
f 8//13 3//13 9//13
f 4//14 8//14 9//14
f 5//15 1//15 10//15
f 6//5 5//5 10//5
