# Blender v2.79 (sub 0) OBJ File: ''
# www.blender.org
mtllib 1925_link_2_52.mtl
o Shape_IndexedFaceSet.052_Shape_IndexedFaceSet.9860
v 0.086745 -0.017036 0.140706
v 0.012918 -0.187402 0.435947
v 0.012918 -0.181713 0.418908
v 0.086745 -0.181713 0.470025
v 0.041189 -0.050505 0.063415
v 0.012918 -0.164665 0.464360
v 0.012918 -0.022725 0.095254
v 0.081065 -0.147617 0.492729
v 0.088392 -0.025606 0.056828
v 0.012776 -0.056670 0.065976
v 0.081065 -0.090860 0.356417
v 0.035639 -0.187402 0.515477
v 0.081065 0.005682 0.072550
v 0.035639 -0.181713 0.418908
v 0.086745 -0.158995 0.515477
v 0.012918 -0.022725 0.066841
v 0.086745 -0.187402 0.515477
v 0.012918 -0.085190 0.265645
v 0.012918 -0.181713 0.504103
vn -0.2814 0.5062 0.8152
vn 0.4063 -0.8553 -0.3215
vn -0.9998 -0.0197 -0.0066
vn -0.0548 -0.1569 -0.9861
vn -0.3641 0.8598 0.3580
vn 0.9732 0.2301 -0.0044
vn -0.0767 0.9440 0.3210
vn -0.2762 0.9099 0.3095
vn 0.0000 -0.9485 -0.3167
vn 0.1403 -0.9801 -0.1402
vn 0.3233 -0.8894 -0.3232
vn 0.0000 -0.9426 -0.3340
vn 0.1702 -0.9253 -0.3389
vn 0.9990 0.0408 0.0154
vn 0.7922 0.5707 0.2162
vn 0.2959 0.8818 0.3672
vn -1.0000 0.0042 0.0000
vn -0.1305 0.0258 -0.9911
vn -0.1029 0.4273 -0.8983
vn -0.3848 0.9230 0.0000
vn 0.1326 -0.9835 -0.1231
vn 0.9999 -0.0158 -0.0020
vn 0.0000 -1.0000 0.0000
vn 1.0000 0.0000 0.0036
vn 0.0000 0.0000 1.0000
vn -1.0000 0.0032 0.0012
vn -1.0000 0.0028 0.0011
vn -0.3555 0.8776 0.3217
vn -0.3852 0.8569 0.3427
vn -0.3666 0.8550 0.3668
vn -1.0000 -0.0009 0.0001
vn -1.0000 0.0023 0.0010
vn -0.2795 -0.9568 0.0799
vn -0.3246 0.8110 0.4867
usemtl Shape.9871
s off
f 12//1 15//1 19//1
f 4//2 5//2 9//2
f 3//3 2//3 10//3
f 9//4 5//4 10//4
f 6//5 8//5 11//5
f 1//6 9//6 13//6
f 11//7 1//7 13//7
f 7//8 11//8 13//8
f 2//9 3//9 14//9
f 4//10 2//10 14//10
f 5//11 4//11 14//11
f 3//12 10//12 14//12
f 10//13 5//13 14//13
f 9//14 1//14 15//14
f 1//15 11//15 15//15
f 11//16 8//16 15//16
f 10//17 7//17 16//17
f 9//18 10//18 16//18
f 13//19 9//19 16//19
f 7//20 13//20 16//20
f 2//21 4//21 17//21
f 4//22 9//22 17//22
f 12//23 2//23 17//23
f 9//24 15//24 17//24
f 15//25 12//25 17//25
f 7//26 10//26 18//26
f 10//27 6//27 18//27
f 11//28 7//28 18//28
f 6//29 11//29 18//29
f 8//30 6//30 19//30
f 10//31 2//31 19//31
f 6//32 10//32 19//32
f 2//33 12//33 19//33
f 15//34 8//34 19//34
