# Blender v2.79 (sub 0) OBJ File: ''
# www.blender.org
mtllib 1925_link_0_186.mtl
o Shape_IndexedFaceSet.186_Shape_IndexedFaceSet.9647
v 0.077093 0.817743 0.066431
v 0.106673 0.806988 0.104079
v 0.106673 0.804298 0.104079
v 0.098603 0.806988 0.066431
v 0.071713 0.804298 0.074502
v 0.071713 0.817743 0.085257
v 0.087853 0.820433 0.077189
vn 0.0560 0.9082 0.4149
vn 0.9778 0.0000 -0.2096
vn -0.2183 -0.4366 -0.8728
vn 0.0734 -0.9935 -0.0867
vn -0.5512 -0.5212 0.6515
vn -0.4740 0.0000 0.8805
vn -0.9391 0.2147 -0.2684
vn -0.1906 0.9802 -0.0545
vn 0.7091 0.6886 -0.1520
vn 0.3714 0.7427 -0.5572
usemtl Shape.9658
s off
f 6//1 2//1 7//1
f 2//2 3//2 4//2
f 1//3 4//3 5//3
f 4//4 3//4 5//4
f 5//5 3//5 6//5
f 3//6 2//6 6//6
f 1//7 5//7 6//7
f 1//8 6//8 7//8
f 2//9 4//9 7//9
f 4//10 1//10 7//10
