# Blender v2.79 (sub 0) OBJ File: ''
# www.blender.org
mtllib 1925_link_2_92.mtl
o Shape_IndexedFaceSet.092_Shape_IndexedFaceSet.9900
v 0.149226 -0.164619 -0.472636
v 0.149226 0.210124 -0.353401
v 0.171933 0.164613 -0.353401
v 0.228705 -0.465670 -0.410199
v 0.143534 -0.459981 -0.501044
v 0.228705 -0.465670 -0.466962
v 0.228705 -0.272576 -0.353401
v 0.205998 0.056721 -0.364785
v 0.143534 0.124922 -0.353401
v 0.143534 -0.448603 -0.535127
v 0.234397 -0.090927 -0.353401
v 0.149226 0.079477 -0.415891
v 0.200315 -0.420158 -0.489678
v 0.234397 -0.420158 -0.449921
v 0.143534 0.210124 -0.359093
v 0.177608 -0.465670 -0.518086
v 0.183291 -0.017037 -0.410199
vn 0.7496 0.1584 -0.6426
vn 0.0000 0.0000 1.0000
vn -0.7215 -0.1954 0.6642
vn -0.7524 -0.1612 0.6387
vn -1.0000 -0.0000 -0.0000
vn 0.8121 0.1985 0.5487
vn 0.7019 0.2902 -0.6505
vn -0.5167 0.1939 -0.8339
vn 0.9923 -0.1241 0.0000
vn 0.9938 -0.0313 0.1065
vn 0.9939 -0.0311 0.1062
vn 0.8794 0.1339 -0.4568
vn 0.7510 0.1471 -0.6438
vn 0.6668 0.3327 -0.6668
vn -0.7063 0.0472 0.7063
vn 0.6566 0.3246 -0.6808
vn -0.9656 0.0671 -0.2511
vn -0.1335 -0.9890 0.0632
vn 0.0000 -1.0000 0.0000
vn 0.5092 0.1752 -0.8426
vn -0.3020 -0.9043 -0.3019
vn 0.7045 0.0880 -0.7042
vn 0.6141 0.1741 -0.7698
vn 0.6267 0.1764 -0.7590
vn 0.6990 0.2064 -0.6847
vn 0.6275 0.1760 -0.7585
vn 0.7559 0.1584 -0.6352
usemtl Shape.9911
s off
f 14//1 13//1 17//1
f 3//2 2//2 7//2
f 5//3 4//3 7//3
f 7//2 2//2 9//2
f 5//4 7//4 9//4
f 5//5 9//5 10//5
f 3//2 7//2 11//2
f 8//6 3//6 11//6
f 3//7 8//7 12//7
f 1//8 10//8 12//8
f 4//9 6//9 14//9
f 7//10 4//10 14//10
f 11//11 7//11 14//11
f 8//12 11//12 14//12
f 6//13 13//13 14//13
f 2//14 3//14 15//14
f 9//15 2//15 15//15
f 10//5 9//5 15//5
f 3//16 12//16 15//16
f 12//17 10//17 15//17
f 4//18 5//18 16//18
f 6//19 4//19 16//19
f 10//20 1//20 16//20
f 5//21 10//21 16//21
f 13//22 6//22 16//22
f 1//23 13//23 16//23
f 1//24 12//24 17//24
f 12//25 8//25 17//25
f 13//26 1//26 17//26
f 8//27 14//27 17//27
