# Blender v2.79 (sub 0) OBJ File: ''
# www.blender.org
mtllib 1925_link_0_212.mtl
o Shape_IndexedFaceSet.212_Shape_IndexedFaceSet.9673
v 0.028671 0.535326 0.588241
v 0.047644 0.537881 0.679570
v 0.050187 0.535326 0.685059
v -0.000907 0.535326 0.599002
v 0.004474 0.538015 0.574803
v 0.044806 0.538015 0.617826
v 0.036738 0.538015 0.685059
vn 0.0000 1.0000 0.0000
vn 0.0000 -1.0000 0.0000
vn -0.0436 -0.9918 -0.1199
vn 0.2703 -0.9609 -0.0601
vn 0.7426 0.6689 -0.0327
vn 0.2209 0.9530 -0.2071
vn 0.1841 0.9210 0.3434
vn -0.1947 -0.9740 0.1156
vn -0.2105 0.9756 0.0616
vn 0.0131 0.9999 0.0016
usemtl Shape.9684
s off
f 6//1 5//1 7//1
f 1//2 3//2 4//2
f 1//3 4//3 5//3
f 3//4 1//4 6//4
f 2//5 3//5 6//5
f 1//6 5//6 6//6
f 3//7 2//7 7//7
f 4//8 3//8 7//8
f 5//9 4//9 7//9
f 2//10 6//10 7//10
