# Blender v2.79 (sub 0) OBJ File: ''
# www.blender.org
mtllib 1925_link_0_170.mtl
o Shape_IndexedFaceSet.170_Shape_IndexedFaceSet.9631
v 0.157776 0.804296 0.077186
v 0.139923 0.778477 0.067946
v 0.138953 0.782783 0.061054
v 0.163160 0.777399 0.069123
v 0.160466 0.801605 0.117531
v 0.138953 0.804296 0.052978
v 0.138953 0.804296 0.079878
v 0.138953 0.777399 0.079878
v 0.163160 0.777399 0.093318
v 0.163160 0.804296 0.087940
vn 1.0000 0.0000 0.0000
vn -0.0126 -0.8488 -0.5285
vn 0.2278 -0.3422 -0.9116
vn 0.7470 0.3236 -0.5808
vn 0.0000 1.0000 0.0000
vn -1.0000 0.0000 0.0000
vn -0.8683 0.0000 0.4961
vn -0.9180 -0.3814 -0.1091
vn -0.0414 -0.9948 -0.0932
vn 0.0000 -1.0000 0.0000
vn -0.3557 -0.6804 0.6407
vn 0.9956 0.0185 0.0923
vn 0.8533 0.2989 -0.4272
vn -0.0293 0.9957 0.0879
usemtl Shape.9642
s off
f 9//1 4//1 10//1
f 2//2 3//2 4//2
f 4//3 3//3 6//3
f 1//4 4//4 6//4
f 1//5 6//5 7//5
f 6//6 3//6 7//6
f 5//7 7//7 8//7
f 3//8 2//8 8//8
f 2//9 4//9 8//9
f 7//6 3//6 8//6
f 8//10 4//10 9//10
f 5//11 8//11 9//11
f 5//12 9//12 10//12
f 4//13 1//13 10//13
f 1//5 7//5 10//5
f 7//14 5//14 10//14
