# Blender v2.79 (sub 0) OBJ File: ''
# www.blender.org
mtllib 1925_link_0_22.mtl
o Shape_IndexedFaceSet.022_Shape_IndexedFaceSet.9483
v -0.017066 0.745125 0.413399
v -0.105801 0.753190 0.381126
v -0.105801 0.755880 0.381126
v -0.065459 0.742433 0.381126
v -0.003612 0.755880 0.410704
v -0.049335 0.755880 0.413399
v -0.041263 0.742433 0.413399
v -0.076212 0.755880 0.381126
v -0.095038 0.742433 0.383817
vn 0.0000 -1.0000 0.0000
vn -0.0000 0.0000 -1.0000
vn 0.4301 -0.6853 -0.5877
vn 0.0000 1.0000 0.0000
vn -0.4962 0.0000 0.8682
vn 0.0579 0.1739 0.9831
vn 0.0000 0.0000 1.0000
vn 0.1102 -0.9905 -0.0826
vn 0.3612 0.2888 -0.8866
vn -0.0858 -0.3217 -0.9429
vn -0.4699 -0.2591 0.8438
vn -0.4630 -0.2779 0.8417
usemtl Shape.9494
s off
f 4//1 7//1 9//1
f 2//2 3//2 4//2
f 1//3 4//3 5//3
f 5//4 3//4 6//4
f 3//5 2//5 6//5
f 1//6 5//6 6//6
f 1//7 6//7 7//7
f 4//8 1//8 7//8
f 4//2 3//2 8//2
f 5//9 4//9 8//9
f 3//4 5//4 8//4
f 2//10 4//10 9//10
f 6//11 2//11 9//11
f 7//12 6//12 9//12
