# Blender v2.79 (sub 0) OBJ File: ''
# www.blender.org
mtllib 1925_link_0_39.mtl
o Shape_IndexedFaceSet.039_Shape_IndexedFaceSet.9500
v -0.194571 0.774715 0.160552
v -0.170862 0.765804 0.078948
v -0.165806 0.767978 0.075703
v -0.173060 0.804292 0.104101
v -0.178426 0.793532 0.179395
v -0.156137 0.763121 0.089311
v -0.156915 0.804292 0.109475
v -0.183808 0.763955 0.179395
v -0.189186 0.804292 0.179395
v -0.191877 0.763955 0.128285
v -0.156915 0.790842 0.066427
v -0.178426 0.763955 0.082571
v -0.189186 0.798910 0.152491
v -0.194571 0.763955 0.179395
v -0.178426 0.804292 0.179395
v -0.159610 0.804292 0.079895
vn -0.7979 0.3391 -0.4983
vn 0.1246 -0.9031 -0.4109
vn 0.9541 -0.1169 0.2756
vn 0.9413 -0.1713 0.2907
vn 0.0000 1.0000 0.0000
vn -0.0000 0.0000 1.0000
vn 0.6186 -0.4898 -0.6144
vn 0.9997 0.0223 -0.0070
vn -0.1949 -0.6469 -0.7373
vn 0.0673 -0.9385 -0.3386
vn -0.0343 -0.9994 -0.0101
vn -0.4197 -0.1963 -0.8862
vn -0.9781 0.2041 -0.0408
vn -0.6754 0.7231 -0.1447
vn -0.9755 0.1710 -0.1385
vn -0.9219 0.2706 -0.2771
vn -0.9263 0.2601 -0.2726
vn 0.0000 -1.0000 0.0093
vn -0.9884 0.1320 0.0753
vn -0.0248 -0.9997 -0.0013
vn -0.9944 -0.0918 -0.0524
vn 0.9558 0.0000 0.2941
vn 0.9564 0.2789 -0.0871
vn -0.8183 0.3516 -0.4547
usemtl Shape.9511
s off
f 11//1 12//1 16//1
f 2//2 3//2 6//2
f 5//3 6//3 7//3
f 6//4 5//4 8//4
f 7//5 4//5 9//5
f 8//6 5//6 9//6
f 6//7 3//7 11//7
f 7//8 6//8 11//8
f 3//9 2//9 12//9
f 2//10 6//10 12//10
f 6//11 10//11 12//11
f 11//12 3//12 12//12
f 1//13 9//13 13//13
f 9//14 4//14 13//14
f 10//15 1//15 13//15
f 4//16 12//16 13//16
f 12//17 10//17 13//17
f 6//18 8//18 14//18
f 9//19 1//19 14//19
f 8//6 9//6 14//6
f 10//20 6//20 14//20
f 1//21 10//21 14//21
f 5//22 7//22 15//22
f 9//6 5//6 15//6
f 7//5 9//5 15//5
f 4//5 7//5 16//5
f 7//23 11//23 16//23
f 12//24 4//24 16//24
