# Blender v2.79 (sub 0) OBJ File: ''
# www.blender.org
mtllib 1925_link_2_29.mtl
o Shape_IndexedFaceSet.029_Shape_IndexedFaceSet.9837
v -0.202885 0.369080 0.021409
v -0.225589 0.369080 0.021409
v -0.214366 0.372396 -0.047144
v -0.208554 -0.187347 -0.046738
v -0.168814 -0.062402 -0.035378
v -0.236948 0.221422 -0.046738
v -0.174497 0.193045 0.015726
v -0.168814 -0.187347 -0.006987
v -0.185015 0.108702 0.040978
v -0.174497 -0.187347 -0.046738
v -0.208554 -0.187347 -0.041048
v -0.236948 0.363361 -0.046738
v -0.168814 0.028448 0.021409
v -0.225589 0.334984 0.021409
v -0.168814 -0.011312 -0.029701
v -0.231266 0.119243 -0.041048
v -0.208554 0.369080 -0.035378
vn 0.9473 0.0944 -0.3061
vn 0.0000 0.9988 0.0483
vn -0.0123 -0.0009 -0.9999
vn 0.0000 0.0749 0.9972
vn 0.7535 0.1005 0.6497
vn 0.0000 -0.0007 -1.0000
vn 0.6170 0.0434 -0.7858
vn 0.9894 -0.0321 -0.1415
vn 0.0000 -1.0000 0.0000
vn -0.6427 -0.1567 0.7499
vn -0.3717 0.9282 -0.0159
vn -0.9864 0.0000 0.1644
vn -0.0180 0.0000 -0.9998
vn 1.0000 0.0000 -0.0000
vn 0.4828 -0.1143 0.8683
vn 0.8561 0.0473 0.5147
vn -0.4344 0.0000 0.9007
vn -0.8109 -0.0955 0.5773
vn 0.7951 0.0670 -0.6028
vn 0.9991 0.0336 -0.0261
vn -0.9682 -0.0673 -0.2409
vn -0.9973 -0.0739 0.0000
vn -0.9721 -0.0412 0.2307
vn -0.9425 -0.0698 0.3268
vn 0.5807 0.8121 -0.0580
vn 0.9820 0.1615 -0.0980
vn 0.9027 0.0880 -0.4211
usemtl Shape.9848
s off
f 7//1 15//1 17//1
f 2//2 1//2 3//2
f 3//3 4//3 6//3
f 1//4 2//4 9//4
f 7//5 1//5 9//5
f 4//6 3//6 10//6
f 3//7 5//7 10//7
f 5//8 8//8 10//8
f 8//9 4//9 10//9
f 4//9 8//9 11//9
f 8//10 9//10 11//10
f 2//11 3//11 12//11
f 6//12 2//12 12//12
f 3//13 6//13 12//13
f 8//14 5//14 13//14
f 9//15 8//15 13//15
f 7//16 9//16 13//16
f 2//12 6//12 14//12
f 9//17 2//17 14//17
f 11//18 9//18 14//18
f 5//19 3//19 15//19
f 13//14 5//14 15//14
f 7//20 13//20 15//20
f 6//21 4//21 16//21
f 4//22 11//22 16//22
f 14//23 6//23 16//23
f 11//24 14//24 16//24
f 3//25 1//25 17//25
f 1//26 7//26 17//26
f 15//27 3//27 17//27
