# Blender v2.79 (sub 0) OBJ File: ''
# www.blender.org
mtllib 1925_link_0_35.mtl
o Shape_IndexedFaceSet.035_Shape_IndexedFaceSet.9496
v 0.028670 0.618706 0.464509
v 0.048561 0.644646 0.503122
v 0.036739 0.645603 0.504844
v 0.025989 0.645603 0.456434
v 0.004467 0.618706 0.477957
v 0.044808 0.618706 0.504844
v 0.044808 0.645603 0.461822
v 0.004467 0.632155 0.456434
v 0.028670 0.618706 0.504844
v 0.017920 0.618706 0.456434
v 0.042119 0.640219 0.456434
vn -0.0000 0.0000 -1.0000
vn 0.1475 0.0443 0.9881
vn 0.0000 -1.0000 0.0000
vn 0.0829 0.9964 0.0156
vn 0.0000 1.0000 0.0000
vn 0.9845 -0.1486 -0.0929
vn -0.5263 0.8422 0.1169
vn -0.7541 0.5569 0.3480
vn -0.7254 0.2176 0.6530
vn 0.0000 0.0000 1.0000
vn -0.6467 -0.6469 -0.4042
vn 0.7535 -0.5842 -0.3015
vn 0.9402 -0.2889 -0.1806
vn 0.2124 0.6362 -0.7417
vn 0.4977 -0.5598 -0.6625
usemtl Shape.9507
s off
f 10//1 4//1 11//1
f 2//2 3//2 6//2
f 5//3 1//3 6//3
f 3//4 2//4 7//4
f 4//5 3//5 7//5
f 2//6 6//6 7//6
f 3//7 4//7 8//7
f 5//8 3//8 8//8
f 3//9 5//9 9//9
f 6//10 3//10 9//10
f 5//3 6//3 9//3
f 1//3 5//3 10//3
f 8//1 4//1 10//1
f 5//11 8//11 10//11
f 6//12 1//12 11//12
f 7//13 6//13 11//13
f 4//14 7//14 11//14
f 1//15 10//15 11//15
