# Blender v2.79 (sub 0) OBJ File: ''
# www.blender.org
mtllib 1925_link_2_23.mtl
o Shape_IndexedFaceSet.023_Shape_IndexedFaceSet.9831
v 0.126479 -0.477028 -0.552162
v 0.031956 -0.783896 -0.568396
v 0.029966 -0.789369 -0.557832
v 0.143534 -0.783683 -0.512411
v 0.029966 -0.477028 -0.552162
v 0.132172 -0.477028 -0.512411
v 0.120798 -0.777965 -0.557832
v 0.035647 -0.539551 -0.580558
v 0.143534 -0.516835 -0.546485
v 0.029966 -0.783683 -0.552162
v 0.143534 -0.783683 -0.540808
v 0.081086 -0.477028 -0.569192
v 0.047010 -0.783683 -0.574875
v 0.092404 -0.550863 -0.569192
v 0.143534 -0.477028 -0.512411
v 0.029966 -0.477028 -0.574875
v 0.109447 -0.777965 -0.563522
v 0.137842 -0.783683 -0.512411
vn -0.3458 -0.0064 0.9383
vn 0.0000 1.0000 0.0000
vn -1.0000 -0.0000 -0.0000
vn -0.3625 0.0000 0.9320
vn 0.0500 -0.9987 0.0000
vn 1.0000 0.0000 0.0000
vn 0.5965 -0.0171 -0.8024
vn -0.1944 -0.8555 -0.4798
vn -0.3945 -0.0397 -0.9180
vn 0.0842 -0.9675 -0.2386
vn 0.3866 0.0342 -0.9216
vn 0.3508 0.0538 -0.9349
vn 0.2022 0.0310 -0.9789
vn 0.0000 0.0000 1.0000
vn 0.8707 0.3198 -0.3736
vn -0.9817 -0.0104 -0.1903
vn -0.7986 -0.0179 -0.6016
vn 0.1099 0.0999 -0.9889
vn 0.4481 -0.0002 -0.8940
vn 0.3365 -0.6605 -0.6712
vn 0.1802 -0.0145 -0.9835
vn 0.1643 -0.8697 -0.4655
vn 0.4018 0.0073 -0.9157
vn 0.1945 -0.0099 -0.9809
vn 0.0000 -0.9923 0.1242
vn -0.2525 -0.6832 0.6852
usemtl Shape.9842
s off
f 6//1 10//1 18//1
f 1//2 5//2 6//2
f 5//3 3//3 10//3
f 6//4 5//4 10//4
f 4//5 3//5 11//5
f 9//6 4//6 11//6
f 7//7 9//7 11//7
f 5//2 1//2 12//2
f 3//8 2//8 13//8
f 2//9 8//9 13//9
f 11//10 3//10 13//10
f 1//11 9//11 14//11
f 12//12 1//12 14//12
f 8//13 12//13 14//13
f 1//2 6//2 15//2
f 6//14 4//14 15//14
f 9//15 1//15 15//15
f 4//6 9//6 15//6
f 2//16 3//16 16//16
f 3//3 5//3 16//3
f 8//17 2//17 16//17
f 5//2 12//2 16//2
f 12//18 8//18 16//18
f 9//19 7//19 17//19
f 7//20 11//20 17//20
f 13//21 8//21 17//21
f 11//22 13//22 17//22
f 14//23 9//23 17//23
f 8//24 14//24 17//24
f 3//25 4//25 18//25
f 4//14 6//14 18//14
f 10//26 3//26 18//26
