# Blender v2.79 (sub 0) OBJ File: ''
# www.blender.org
mtllib 1925_link_0_293.mtl
o Shape_IndexedFaceSet.293_Shape_IndexedFaceSet.9754
v -0.043940 0.511268 0.741524
v 0.001778 0.513808 0.792619
v -0.003606 0.513808 0.792619
v -0.041254 0.513808 0.647432
v -0.019748 0.511118 0.647432
v 0.001778 0.511118 0.792619
v -0.046637 0.513808 0.744219
v -0.019748 0.513808 0.647432
v -0.046637 0.511118 0.663565
vn -0.6722 -0.7399 0.0247
vn 0.0000 1.0000 -0.0000
vn 0.9892 0.0000 -0.1467
vn 0.0000 0.0000 1.0000
vn -0.4154 -0.8313 0.3693
vn -0.4149 -0.8318 0.3688
vn 0.0000 0.0000 -1.0000
vn -0.1215 -0.9717 -0.2026
vn 0.0000 -1.0000 0.0000
vn -0.0057 -1.0000 0.0021
vn -0.5141 0.8573 -0.0286
usemtl Shape.9765
s off
f 1//1 7//1 9//1
f 3//2 2//2 4//2
f 5//3 2//3 6//3
f 2//4 3//4 6//4
f 6//5 3//5 7//5
f 3//2 4//2 7//2
f 1//6 6//6 7//6
f 4//2 2//2 8//2
f 5//7 4//7 8//7
f 2//3 5//3 8//3
f 4//8 5//8 9//8
f 5//9 6//9 9//9
f 6//10 1//10 9//10
f 7//11 4//11 9//11
