# Blender v2.79 (sub 0) OBJ File: ''
# www.blender.org
mtllib 1925_link_2_74.mtl
o Shape_IndexedFaceSet.074_Shape_IndexedFaceSet.9882
v -0.134730 -0.153318 0.822169
v 0.007510 -0.157646 0.967919
v -0.038197 -0.158997 0.975450
v 0.020544 -0.086240 0.824310
v 0.010341 -0.185828 0.757604
v -0.123367 -0.090869 0.754015
v -0.140938 -0.184263 0.761193
v -0.094977 -0.187392 0.952732
v -0.066587 -0.090869 0.856246
v 0.007786 -0.184277 0.968302
v -0.009806 -0.096548 0.890258
v -0.089296 -0.090869 0.754015
v -0.112005 -0.090869 0.793771
v -0.106339 -0.181713 0.935694
v -0.140395 -0.119264 0.754015
v 0.012918 -0.141961 0.958412
v -0.083599 -0.164676 0.947053
vn -0.6513 0.4743 0.5924
vn -0.0107 -0.9998 -0.0138
vn 0.1621 0.0159 0.9866
vn -0.1189 -0.4644 0.8776
vn 0.0291 -0.9995 0.0077
vn -0.2317 0.8198 0.5237
vn 0.0049 0.9876 0.1566
vn 0.4650 0.4593 -0.7568
vn 0.0000 0.9978 -0.0657
vn -0.0374 0.9992 0.0107
vn -0.0419 0.9987 0.0305
vn -0.9628 -0.1884 0.1937
vn -0.5912 -0.7962 0.1288
vn -0.8337 0.4493 0.3209
vn -0.0247 -0.1095 -0.9937
vn -0.9956 0.0185 0.0920
vn 0.0133 -0.0239 -0.9996
vn 0.0000 0.0000 -1.0000
vn -0.8489 0.4412 0.2910
vn -0.8330 0.4995 0.2381
vn 0.1286 0.4812 0.8671
vn 0.9939 -0.1093 0.0111
vn 0.8573 0.0163 0.5145
vn 0.9930 -0.1174 0.0129
vn -0.0817 0.8166 0.5714
vn 0.5053 0.7863 0.3555
vn -0.5148 0.4416 0.7348
vn -0.4202 0.7411 0.5236
vn -0.5983 0.6730 0.4349
vn -0.6691 0.6135 0.4194
usemtl Shape.9893
s off
f 14//1 8//1 17//1
f 7//2 5//2 8//2
f 2//3 3//3 10//3
f 3//4 8//4 10//4
f 8//5 5//5 10//5
f 9//6 3//6 11//6
f 4//7 9//7 11//7
f 4//8 5//8 12//8
f 6//9 4//9 12//9
f 4//10 6//10 13//10
f 9//11 4//11 13//11
f 1//12 7//12 14//12
f 7//13 8//13 14//13
f 13//14 1//14 14//14
f 5//15 7//15 15//15
f 7//16 1//16 15//16
f 12//17 5//17 15//17
f 6//18 12//18 15//18
f 1//19 13//19 15//19
f 13//20 6//20 15//20
f 3//21 2//21 16//21
f 5//22 4//22 16//22
f 2//23 10//23 16//23
f 10//24 5//24 16//24
f 11//25 3//25 16//25
f 4//26 11//26 16//26
f 8//27 3//27 17//27
f 3//28 9//28 17//28
f 9//29 13//29 17//29
f 13//30 14//30 17//30
