# Blender v2.79 (sub 0) OBJ File: ''
# www.blender.org
mtllib 1925_link_2_78.mtl
o Shape_IndexedFaceSet.078_Shape_IndexedFaceSet.9886
v -0.197203 0.164693 0.078203
v -0.129055 0.278254 0.146346
v -0.129055 0.300987 0.140657
v -0.185836 0.187426 0.146346
v -0.191512 0.300987 0.066841
v -0.168799 0.170376 0.066841
v -0.129055 0.283951 0.095239
v -0.157459 0.170376 0.146346
v -0.129055 0.232840 0.134984
v -0.163129 0.300987 0.066841
v -0.180166 0.300987 0.095239
vn 0.0000 1.0000 0.0000
vn -0.3620 0.2263 0.9043
vn -0.9877 0.0535 0.1469
vn -0.3599 -0.0626 -0.9309
vn 1.0000 0.0000 0.0000
vn 0.0000 0.0000 1.0000
vn -0.4827 -0.8034 0.3486
vn 0.1859 -0.9822 -0.0265
vn 0.9182 -0.2431 -0.3127
vn 0.8939 -0.4297 -0.1275
vn 0.6778 -0.1785 0.7133
vn 0.0000 0.0000 -1.0000
vn 0.6055 0.7452 -0.2795
vn 0.6319 -0.0274 -0.7746
vn -0.6231 0.3467 0.7012
vn -0.9082 0.2086 0.3629
usemtl Shape.9897
s off
f 3//1 5//1 11//1
f 2//2 3//2 4//2
f 1//3 4//3 5//3
f 1//4 5//4 6//4
f 3//5 2//5 7//5
f 2//6 4//6 8//6
f 4//7 1//7 8//7
f 1//8 6//8 8//8
f 7//5 2//5 9//5
f 6//9 7//9 9//9
f 8//10 6//10 9//10
f 2//11 8//11 9//11
f 5//1 3//1 10//1
f 6//12 5//12 10//12
f 3//13 7//13 10//13
f 7//14 6//14 10//14
f 4//15 3//15 11//15
f 5//16 4//16 11//16
