# Blender v2.79 (sub 0) OBJ File: ''
# www.blender.org
mtllib 1925_link_0_277.mtl
o Shape_IndexedFaceSet.277_Shape_IndexedFaceSet.9738
v -0.008980 0.489601 0.644735
v 0.047311 0.492210 0.751711
v 0.047697 0.489670 0.752151
v -0.047262 0.489584 0.755703
v -0.035870 0.492290 0.666247
v 0.042117 0.492290 0.679696
v -0.046825 0.492295 0.755206
v 0.036743 0.489601 0.668934
v 0.011972 0.492220 0.647620
v -0.041254 0.489601 0.677008
vn -0.5511 0.8317 -0.0679
vn 0.9879 0.1378 -0.0711
vn 0.0367 0.1760 0.9837
vn 0.0366 0.1745 0.9840
vn 0.0009 1.0000 0.0010
vn 0.0000 1.0000 -0.0001
vn 0.0009 -1.0000 0.0007
vn 0.0001 -1.0000 -0.0001
vn 0.5593 -0.8258 -0.0729
vn 0.4449 0.7911 -0.4198
vn -0.0891 0.9685 -0.2324
vn 0.0004 1.0000 -0.0026
vn 0.1589 -0.9405 -0.3003
vn -0.0002 -1.0000 -0.0002
vn -0.4083 -0.8165 -0.4083
vn -0.9865 0.1452 -0.0753
usemtl Shape.9749
s off
f 7//1 5//1 10//1
f 2//2 3//2 6//2
f 3//3 2//3 7//3
f 4//4 3//4 7//4
f 2//5 6//5 7//5
f 6//6 5//6 7//6
f 3//7 4//7 8//7
f 4//8 1//8 8//8
f 6//9 3//9 8//9
f 6//10 8//10 9//10
f 1//11 5//11 9//11
f 5//12 6//12 9//12
f 8//13 1//13 9//13
f 1//14 4//14 10//14
f 5//15 1//15 10//15
f 4//16 7//16 10//16
