# Blender v2.79 (sub 0) OBJ File: ''
# www.blender.org
mtllib 1925_link_2_49.mtl
o Shape_IndexedFaceSet.049_Shape_IndexedFaceSet.9857
v -0.185837 0.073854 0.146346
v -0.129055 0.272593 0.146346
v -0.129055 0.068191 0.413245
v -0.157278 0.061784 0.135488
v -0.180157 0.204419 0.146346
v -0.163123 0.073854 0.418908
v -0.134741 0.073854 0.492762
v -0.180157 0.068191 0.316773
v -0.157456 0.244179 0.157706
v -0.129055 0.227130 0.146346
v -0.191517 0.147670 0.152043
v -0.129055 0.068191 0.492762
v -0.134741 0.272593 0.157706
v -0.157456 0.113613 0.379166
vn -0.7228 0.5944 0.3526
vn -0.3497 0.0152 -0.9367
vn -0.0832 0.0624 -0.9946
vn -0.3948 -0.9186 -0.0174
vn -0.7156 0.5364 -0.4474
vn 1.0000 0.0000 -0.0000
vn 0.3591 0.0000 -0.9333
vn 0.9822 -0.1613 -0.0961
vn -0.5394 0.0235 -0.8418
vn -0.9646 0.2092 0.1605
vn -0.9964 -0.0790 0.0306
vn -0.9724 0.1768 0.1524
vn 0.2214 -0.9752 0.0000
vn -0.6811 -0.6838 0.2617
vn -0.0845 -0.9961 0.0245
vn -0.4065 -0.9060 0.1180
vn -0.7275 0.5816 -0.3641
vn 0.7124 0.6044 0.3566
vn 0.6506 0.6532 0.3874
vn -0.9062 0.3565 0.2274
vn -0.8377 0.4412 0.3219
vn -0.8698 0.4250 0.2506
vn -0.7330 0.5860 0.3455
usemtl Shape.9868
s off
f 7//1 13//1 14//1
f 4//2 1//2 5//2
f 2//3 4//3 5//3
f 1//4 4//4 8//4
f 2//5 5//5 9//5
f 2//6 3//6 10//6
f 4//7 2//7 10//7
f 3//8 4//8 10//8
f 5//9 1//9 11//9
f 6//10 5//10 11//10
f 1//11 8//11 11//11
f 8//12 6//12 11//12
f 3//6 2//6 12//6
f 4//13 3//13 12//13
f 7//14 6//14 12//14
f 8//15 4//15 12//15
f 6//16 8//16 12//16
f 2//17 9//17 13//17
f 12//18 2//18 13//18
f 7//19 12//19 13//19
f 5//20 6//20 14//20
f 6//21 7//21 14//21
f 9//22 5//22 14//22
f 13//23 9//23 14//23
