# Blender v2.79 (sub 0) OBJ File: ''
# www.blender.org
mtllib 1925_link_0_98.mtl
o Shape_IndexedFaceSet.098_Shape_IndexedFaceSet.9559
v 0.087853 0.774713 0.018012
v 0.138953 0.777403 0.082565
v 0.106680 0.804296 0.082565
v 0.138953 0.804296 0.050289
v 0.112062 0.769333 0.079873
v 0.087853 0.804296 0.050289
v 0.087853 0.798913 0.082565
v 0.109371 0.769333 0.028773
v 0.138953 0.769333 0.071798
v 0.139840 0.804904 0.075331
v 0.087853 0.769333 0.034150
vn 0.0000 -1.0000 0.0000
vn 0.0000 0.7372 -0.6757
vn -0.0000 0.0000 1.0000
vn -0.0578 -0.1373 0.9888
vn -0.2714 0.9493 0.1583
vn -1.0000 0.0000 0.0000
vn 0.4704 0.1383 -0.8715
vn 0.1772 -0.7875 0.5903
vn 0.7781 -0.3291 -0.5350
vn 0.9992 -0.0215 -0.0349
vn 0.2025 0.2430 0.9487
vn -0.0163 0.9998 0.0095
vn 0.0000 0.9997 -0.0243
vn 0.9994 -0.0269 0.0202
vn -0.7016 -0.6080 0.3715
vn -0.0788 -0.9457 -0.3153
usemtl Shape.9570
s off
f 8//1 5//1 11//1
f 4//2 1//2 6//2
f 2//3 3//3 7//3
f 5//4 2//4 7//4
f 3//5 6//5 7//5
f 6//6 1//6 7//6
f 1//7 4//7 8//7
f 5//1 8//1 9//1
f 2//8 5//8 9//8
f 8//9 4//9 9//9
f 9//10 4//10 10//10
f 3//11 2//11 10//11
f 6//12 3//12 10//12
f 4//13 6//13 10//13
f 2//14 9//14 10//14
f 7//6 1//6 11//6
f 5//15 7//15 11//15
f 1//16 8//16 11//16
