# Blender v2.79 (sub 0) OBJ File: ''
# www.blender.org
mtllib 1925_link_0_106.mtl
o Shape_IndexedFaceSet.106_Shape_IndexedFaceSet.9567
v -0.003601 0.661735 0.316570
v -0.008981 0.607948 0.289673
v 0.023295 0.607948 0.289673
v -0.000912 0.610646 0.308500
v 0.023295 0.667115 0.305809
v 0.023295 0.624095 0.311185
v -0.008981 0.661735 0.300433
v -0.008981 0.607948 0.305809
v 0.017912 0.650974 0.316570
v 0.020603 0.607948 0.305809
v 0.001780 0.624095 0.313876
v 0.023295 0.659042 0.300433
vn 0.0462 0.5537 -0.8314
vn 1.0000 0.0000 0.0000
vn 0.0000 0.1962 -0.9806
vn -0.1735 0.9831 0.0578
vn 0.0000 -1.0000 0.0000
vn -1.0000 -0.0000 0.0000
vn -0.9482 0.0316 0.3161
vn 0.2408 0.4815 0.8427
vn 0.8497 0.0654 0.5231
vn 0.9635 -0.2141 0.1607
vn 0.0000 -0.7062 0.7080
vn -0.1977 -0.3295 0.9232
vn -0.4636 -0.1290 0.8766
vn -0.0384 -0.0768 0.9963
vn 0.1223 -0.1714 0.9776
vn 0.1171 -0.3312 0.9363
vn 0.0674 -0.3819 0.9217
vn 0.0172 0.2060 -0.9784
usemtl Shape.9578
s off
f 7//1 5//1 12//1
f 3//2 5//2 6//2
f 3//3 2//3 7//3
f 1//4 5//4 7//4
f 2//5 3//5 8//5
f 7//6 2//6 8//6
f 1//7 7//7 8//7
f 5//8 1//8 9//8
f 6//9 5//9 9//9
f 3//10 6//10 10//10
f 8//5 3//5 10//5
f 4//11 8//11 10//11
f 8//12 4//12 11//12
f 1//13 8//13 11//13
f 9//14 1//14 11//14
f 6//15 9//15 11//15
f 10//16 6//16 11//16
f 4//17 10//17 11//17
f 5//2 3//2 12//2
f 3//18 7//18 12//18
