# Blender v2.79 (sub 0) OBJ File: ''
# www.blender.org
mtllib 1925_link_2_28.mtl
o Shape_IndexedFaceSet.028_Shape_IndexedFaceSet.9836
v -0.072264 -0.187461 0.015724
v -0.077197 -0.783712 -0.012395
v 0.001560 -0.789369 -0.001304
v -0.004121 -0.715486 0.021409
v 0.001560 -0.329454 0.004366
v -0.066582 -0.607548 -0.018343
v 0.001560 -0.232945 0.021409
v -0.077945 -0.187461 0.021409
v -0.077945 -0.454360 -0.012662
v -0.060901 -0.777939 0.010047
v -0.004121 -0.613263 -0.006985
v -0.055228 -0.772224 -0.018343
v -0.077945 -0.783595 0.004366
v -0.000191 -0.770589 0.015099
vn -0.0681 -0.1183 0.9906
vn 0.1800 0.1711 -0.9687
vn 1.0000 0.0000 0.0000
vn 0.4448 0.7775 0.4445
vn -0.0000 0.0000 1.0000
vn 0.0484 0.1046 -0.9933
vn -0.4662 -0.0018 -0.8847
vn 0.1381 0.0469 -0.9893
vn -0.7045 0.0899 -0.7040
vn -0.1708 -0.0239 0.9850
vn 0.8102 0.0072 -0.5862
vn 0.1820 0.0357 -0.9827
vn 0.1800 0.0124 -0.9836
vn 0.0747 -0.5675 -0.8200
vn -0.2528 -0.0174 -0.9674
vn 0.2813 -0.0219 -0.9594
vn -0.0722 -0.9974 0.0037
vn -0.9990 -0.0023 -0.0446
vn -1.0000 -0.0000 -0.0000
vn -0.0009 -0.7073 0.7070
vn -0.3080 -0.0272 0.9510
vn 0.8093 -0.0095 0.5873
vn 0.9938 -0.0045 0.1113
vn 0.0168 -0.6569 0.7538
usemtl Shape.9847
s off
f 4//1 10//1 14//1
f 5//2 1//2 7//2
f 3//3 5//3 7//3
f 7//4 1//4 8//4
f 4//5 7//5 8//5
f 1//6 5//6 9//6
f 6//7 2//7 9//7
f 5//8 6//8 9//8
f 8//9 1//9 9//9
f 4//10 8//10 10//10
f 5//11 3//11 11//11
f 6//12 5//12 11//12
f 6//13 11//13 12//13
f 3//14 2//14 12//14
f 2//15 6//15 12//15
f 11//16 3//16 12//16
f 2//17 3//17 13//17
f 9//18 2//18 13//18
f 8//19 9//19 13//19
f 3//20 10//20 13//20
f 10//21 8//21 13//21
f 7//22 4//22 14//22
f 3//23 7//23 14//23
f 10//24 3//24 14//24
