# Blender v2.79 (sub 0) OBJ File: ''
# www.blender.org
mtllib 1925_link_0_71.mtl
o Shape_IndexedFaceSet.071_Shape_IndexedFaceSet.9532
v -0.006285 0.529946 0.768433
v -0.047467 0.527233 0.697899
v -0.046637 0.527256 0.720032
v 0.047481 0.527257 0.698530
v -0.047009 0.529957 0.698239
v 0.046944 0.529930 0.698929
v 0.023295 0.527256 0.760364
v 0.034049 0.529946 0.749605
vn 0.3760 -0.9149 0.1470
vn -0.2130 0.9692 0.1238
vn -0.9862 0.1612 0.0368
vn 0.0066 0.1228 -0.9924
vn 0.0073 0.1491 -0.9888
vn -0.0613 -0.9925 0.1062
vn -0.0006 -1.0000 0.0011
vn 0.0003 -1.0000 0.0001
vn 0.0001 1.0000 0.0001
vn 0.9573 0.1560 0.2435
vn 0.0003 1.0000 -0.0002
vn 0.1943 0.8882 0.4163
usemtl Shape.9543
s off
f 7//1 4//1 8//1
f 3//2 1//2 5//2
f 2//3 3//3 5//3
f 4//4 2//4 5//4
f 4//5 5//5 6//5
f 1//6 3//6 7//6
f 3//7 2//7 7//7
f 2//8 4//8 7//8
f 5//9 1//9 8//9
f 4//10 6//10 8//10
f 6//11 5//11 8//11
f 1//12 7//12 8//12
