# Blender v2.79 (sub 0) OBJ File: ''
# www.blender.org
mtllib 9918_link_0_12.mtl
o Shape_IndexedFaceSet.012_Shape_IndexedFaceSet.5628
v 0.012292 -0.218289 0.784244
v 0.537198 -0.172423 0.809725
v 0.541981 -0.172006 0.789203
v 0.537198 -0.218289 0.804627
v 0.012292 -0.172423 0.809725
v 0.012292 -0.208093 0.809725
v 0.012292 -0.172423 0.789343
v 0.537198 -0.218289 0.784244
v 0.541917 -0.197943 0.784015
v 0.537198 -0.213184 0.809725
v 0.012292 -0.218289 0.804627
v 0.012292 -0.197897 0.784244
vn -0.0004 0.0000 -1.0000
vn -0.0000 0.9998 0.0203
vn 0.0000 0.0000 1.0000
vn -1.0000 0.0000 0.0000
vn -0.0008 1.0000 0.0000
vn 0.0000 -1.0000 0.0000
vn 0.9741 -0.2259 0.0000
vn 0.0000 -0.0113 -0.9999
vn 0.9739 0.0000 0.2270
vn 0.9870 -0.1136 0.1138
vn 0.9864 -0.0346 0.1606
vn -0.0043 -0.4472 0.8944
vn 0.0000 -0.7066 0.7076
vn -0.0004 0.1963 -0.9805
vn -0.0004 0.1961 -0.9806
usemtl Shape.5635
s off
f 9//1 1//1 12//1
f 2//2 3//2 5//2
f 2//3 5//3 6//3
f 5//4 1//4 6//4
f 1//4 5//4 7//4
f 5//5 3//5 7//5
f 4//6 1//6 8//6
f 4//7 8//7 9//7
f 8//8 1//8 9//8
f 3//9 2//9 10//9
f 2//3 6//3 10//3
f 4//10 9//10 10//10
f 9//11 3//11 10//11
f 1//6 4//6 11//6
f 6//4 1//4 11//4
f 10//12 6//12 11//12
f 4//13 10//13 11//13
f 1//4 7//4 12//4
f 7//14 3//14 12//14
f 3//15 9//15 12//15
