# Blender v2.79 (sub 0) OBJ File: ''
# www.blender.org
mtllib 9918_link_0_9.mtl
o Shape_IndexedFaceSet.009_Shape_IndexedFaceSet.5625
v 0.012264 -0.203001 0.784209
v -0.548260 -0.218289 0.417319
v -0.548260 -0.218289 0.784209
v -0.569421 -0.202423 0.798059
v -0.552654 -0.202881 0.414444
v 0.012264 -0.218289 0.417319
v 0.012264 -0.203001 0.417319
v 0.012264 -0.218289 0.784209
vn 0.0000 -1.0000 0.0000
vn -0.5999 -0.8001 0.0000
vn -0.9588 -0.2812 -0.0416
vn 0.0000 -0.1834 -0.9830
vn 0.0010 1.0000 0.0000
vn 0.0002 1.0000 -0.0012
vn 0.0051 0.0000 -1.0000
vn 1.0000 0.0000 0.0000
vn -0.0000 -0.6576 0.7533
vn 0.0238 0.0000 0.9997
usemtl Shape.5632
s off
f 3//1 6//1 8//1
f 2//2 3//2 4//2
f 2//3 4//3 5//3
f 2//4 5//4 6//4
f 3//1 2//1 6//1
f 4//5 1//5 7//5
f 5//6 4//6 7//6
f 6//7 5//7 7//7
f 1//8 6//8 7//8
f 4//9 3//9 8//9
f 1//10 4//10 8//10
f 6//8 1//8 8//8
