# Blender v2.79 (sub 0) OBJ File: ''
# www.blender.org
mtllib 9918_link_0_7.mtl
o Shape_IndexedFaceSet.007_Shape_IndexedFaceSet.5623
v -0.548288 -0.218289 -0.219703
v -0.139848 -0.135333 -0.229809
v 0.532102 -0.218289 -0.219703
v -0.548288 -0.213181 -0.245184
v 0.532102 -0.213181 -0.245184
v -0.548288 -0.136750 -0.245184
v 0.526920 -0.157143 -0.240083
v -0.571066 -0.135031 -0.224482
v 0.541644 -0.156582 -0.229827
v 0.404668 -0.157143 -0.245184
v 0.537508 -0.203252 -0.219576
v -0.155832 -0.136750 -0.245184
v -0.551961 -0.203170 -0.219617
v -0.354546 -0.136750 -0.224804
vn 0.0102 0.2137 0.9769
vn 0.0000 -0.9805 -0.1966
vn -0.0000 0.0000 -1.0000
vn -0.9624 -0.2664 -0.0534
vn -0.0003 0.9965 -0.0831
vn -0.6726 0.0000 -0.7400
vn 0.5637 0.1264 -0.8162
vn 0.0310 0.9946 -0.0989
vn 0.0415 0.0944 -0.9947
vn 0.0000 -0.0084 1.0000
vn 0.9391 -0.3370 -0.0676
vn 0.9796 -0.1219 -0.1596
vn -0.0000 0.9958 -0.0918
vn 0.0305 0.9919 -0.1232
vn 0.0274 0.7534 -0.6570
vn -0.8783 -0.2158 0.4266
vn -0.0000 -0.0057 1.0000
vn -0.0000 0.0712 0.9975
vn 0.0074 0.8322 0.5544
vn 0.0164 0.5246 0.8512
vn 0.0023 0.1096 0.9940
usemtl Shape.5630
s off
f 11//1 9//1 14//1
f 3//2 1//2 4//2
f 3//2 4//2 5//2
f 5//3 4//3 6//3
f 4//4 1//4 8//4
f 2//5 6//5 8//5
f 6//6 4//6 8//6
f 5//7 7//7 9//7
f 7//8 2//8 9//8
f 5//3 6//3 10//3
f 7//9 5//9 10//9
f 1//10 3//10 11//10
f 3//11 5//11 11//11
f 5//12 9//12 11//12
f 6//13 2//13 12//13
f 2//14 7//14 12//14
f 10//3 6//3 12//3
f 7//15 10//15 12//15
f 8//16 1//16 13//16
f 1//17 11//17 13//17
f 11//18 8//18 13//18
f 2//19 8//19 14//19
f 9//20 2//20 14//20
f 8//21 11//21 14//21
