# Blender v2.79 (sub 0) OBJ File: ''
# www.blender.org
mtllib 1343_link_0_10.mtl
o Shape_IndexedFaceSet.010_Shape_IndexedFaceSet.9096
v -0.194513 0.417966 -0.199369
v -0.117602 0.639829 -0.095953
v -0.117628 0.639754 -0.145551
v -0.194513 0.633825 -0.166394
v -0.176513 0.417966 -0.094473
v -0.119984 0.504435 -0.200515
v -0.116562 0.477945 -0.094473
v -0.116887 0.638901 -0.204922
v -0.176513 0.636819 -0.094473
v -0.165253 0.412155 -0.209869
v -0.187277 0.635727 -0.203313
v -0.191507 0.417966 -0.133441
v -0.146549 0.417966 -0.094473
v -0.191507 0.630810 -0.133441
v -0.185509 0.639812 -0.127448
v -0.194513 0.627794 -0.196372
v -0.182518 0.624801 -0.103463
v -0.191507 0.417966 -0.205384
v -0.178818 0.639536 -0.203760
v -0.179520 0.417966 -0.097470
v -0.194513 0.627794 -0.157404
v -0.173515 0.639812 -0.094473
vn -0.6843 0.6854 0.2489
vn 0.7030 0.7112 -0.0014
vn 0.9990 -0.0243 -0.0383
vn 1.0000 0.0065 0.0065
vn 0.0000 0.0000 1.0000
vn 0.8949 -0.4253 -0.1351
vn 0.2756 -0.0378 -0.9605
vn -0.1918 -0.9814 0.0087
vn 0.0000 -0.9987 0.0503
vn 0.8878 -0.4439 -0.1215
vn 0.0005 1.0000 -0.0015
vn -0.4327 0.9007 -0.0384
vn -0.8618 0.4919 0.1236
vn -0.8745 0.3997 0.2748
vn -1.0000 0.0000 0.0000
vn -0.7842 0.6083 -0.1224
vn -0.9212 0.2206 0.3204
vn -0.9579 0.0000 0.2872
vn -0.2336 -0.9653 -0.1167
vn -0.1657 0.0126 -0.9861
vn -0.8945 0.0064 -0.4470
vn -0.7037 0.0204 -0.7102
vn 0.0100 0.9998 -0.0142
vn -0.0185 0.0258 -0.9995
vn -0.0631 0.0230 -0.9977
vn -0.0001 1.0000 -0.0036
vn -0.4120 0.9103 -0.0394
vn -0.7059 0.0000 0.7083
vn -0.0456 -0.9979 0.0458
vn -0.1116 -0.9931 0.0372
vn -0.8339 0.0039 0.5518
vn -0.9487 -0.0046 0.3161
vn -0.9989 -0.0091 0.0455
vn -0.9825 0.1547 0.1038
vn -0.9922 -0.0000 0.1245
vn 0.0265 0.0093 0.9996
vn -0.0003 1.0000 0.0001
usemtl Shape.9105
s off
f 15//1 9//1 22//1
f 3//2 2//2 8//2
f 7//3 6//3 8//3
f 2//4 7//4 8//4
f 5//5 7//5 9//5
f 6//6 7//6 10//6
f 8//7 6//7 10//7
f 1//8 10//8 12//8
f 7//5 5//5 13//5
f 5//9 10//9 13//9
f 10//10 7//10 13//10
f 2//11 3//11 15//11
f 11//12 4//12 15//12
f 4//13 14//13 15//13
f 14//14 9//14 15//14
f 1//15 4//15 16//15
f 4//16 11//16 16//16
f 9//17 14//17 17//17
f 14//18 12//18 17//18
f 10//19 1//19 18//19
f 11//20 10//20 18//20
f 1//21 16//21 18//21
f 16//22 11//22 18//22
f 3//23 8//23 19//23
f 8//24 10//24 19//24
f 10//25 11//25 19//25
f 15//26 3//26 19//26
f 11//27 15//27 19//27
f 5//28 9//28 20//28
f 10//29 5//29 20//29
f 12//30 10//30 20//30
f 9//31 17//31 20//31
f 17//32 12//32 20//32
f 4//15 1//15 21//15
f 1//33 12//33 21//33
f 14//34 4//34 21//34
f 12//35 14//35 21//35
f 7//36 2//36 22//36
f 9//5 7//5 22//5
f 2//37 15//37 22//37
