# Blender v2.79 (sub 0) OBJ File: ''
# www.blender.org
mtllib 1343_link_0_5.mtl
o Shape_IndexedFaceSet.005_Shape_IndexedFaceSet.9091
v -0.006561 0.477975 -0.376233
v -0.006322 0.509990 -0.375880
v -0.008627 0.549899 -0.211396
v 0.105303 0.474931 -0.289346
v 0.105122 0.639547 -0.211646
v -0.006581 0.636897 -0.370478
v -0.008073 0.639017 -0.212213
v 0.103172 0.478072 -0.353039
v 0.105303 0.522915 -0.211380
v -0.008627 0.474931 -0.325305
v 0.042584 0.624985 -0.372956
v 0.102993 0.639408 -0.341340
v 0.051189 0.478816 -0.372523
v 0.087304 0.636813 -0.361265
v 0.031014 0.639713 -0.358846
v 0.103799 0.634755 -0.347859
v 0.013724 0.625218 -0.376123
v 0.102303 0.519925 -0.214388
v 0.028153 0.478099 -0.376108
v -0.006982 0.631642 -0.373932
v 0.079932 0.478451 -0.364262
v 0.099303 0.474931 -0.289346
v 0.028131 0.639731 -0.223136
v 0.071466 0.639838 -0.353158
v 0.028157 0.633855 -0.373197
vn -0.0004 0.3215 -0.9469
vn -0.0051 0.0092 0.9999
vn 0.0004 0.0023 1.0000
vn 1.0000 0.0015 -0.0010
vn -1.0000 0.0062 -0.0041
vn 0.0157 -0.9986 -0.0498
vn 0.2500 0.0118 -0.9682
vn -0.0704 0.9974 -0.0140
vn 0.0340 0.9407 -0.3375
vn 0.9999 0.0058 -0.0099
vn 0.9994 -0.0029 -0.0336
vn 0.9811 0.1928 -0.0163
vn 0.6323 0.0231 -0.7744
vn 0.4757 0.7427 -0.4713
vn -0.0786 0.0116 -0.9968
vn -0.1478 -0.6238 0.7675
vn 0.3076 -0.8103 0.4987
vn -0.2063 -0.8173 0.5379
vn 0.0038 -0.9982 -0.0595
vn 0.0154 -0.9986 -0.0511
vn 0.1536 0.0061 -0.9881
vn 0.0036 0.0003 -1.0000
vn 0.1092 0.0106 -0.9940
vn -0.3608 0.0130 -0.9326
vn -0.9965 0.0829 -0.0105
vn -0.9992 -0.0021 -0.0407
vn -0.9999 0.0083 -0.0071
vn -0.1005 0.0154 -0.9948
vn 0.2763 0.0053 -0.9611
vn 0.4348 -0.0032 -0.9005
vn 0.0275 -0.9955 -0.0905
vn 0.0784 -0.9460 -0.3146
vn 0.0000 -1.0000 -0.0000
vn 0.0000 -0.8574 0.5147
vn -0.1706 -0.8418 0.5121
vn -0.0049 0.9988 0.0490
vn -0.0199 0.9998 -0.0006
vn -0.0031 1.0000 -0.0002
vn 0.0141 0.9999 -0.0013
vn 0.0866 0.9769 -0.1954
vn 0.0371 0.9578 -0.2849
vn 0.0022 1.0000 0.0015
vn 0.1780 0.2638 -0.9480
vn 0.0440 0.8966 -0.4406
vn 0.1090 0.1507 -0.9826
vn -0.0172 0.5501 -0.8349
usemtl Shape.9100
s off
f 17//1 20//1 25//1
f 3//2 5//2 7//2
f 5//3 3//3 9//3
f 4//4 5//4 9//4
f 3//5 7//5 10//5
f 8//6 4//6 10//6
f 13//7 11//7 14//7
f 6//8 7//8 15//8
f 14//9 6//9 15//9
f 5//10 4//10 16//10
f 4//11 8//11 16//11
f 12//12 5//12 16//12
f 8//13 14//13 16//13
f 14//14 12//14 16//14
f 1//15 2//15 17//15
f 9//16 3//16 18//16
f 4//17 9//17 18//17
f 3//18 10//18 18//18
f 10//19 1//19 19//19
f 8//20 10//20 19//20
f 11//21 13//21 19//21
f 1//22 17//22 19//22
f 17//23 11//23 19//23
f 2//24 1//24 20//24
f 7//25 6//25 20//25
f 1//26 10//26 20//26
f 10//27 7//27 20//27
f 17//28 2//28 20//28
f 13//29 14//29 21//29
f 14//30 8//30 21//30
f 8//31 19//31 21//31
f 19//32 13//32 21//32
f 10//33 4//33 22//33
f 4//34 18//34 22//34
f 18//35 10//35 22//35
f 7//36 5//36 23//36
f 15//37 7//37 23//37
f 15//38 23//38 24//38
f 5//39 12//39 24//39
f 12//40 14//40 24//40
f 14//41 15//41 24//41
f 23//42 5//42 24//42
f 14//43 11//43 25//43
f 6//44 14//44 25//44
f 11//45 17//45 25//45
f 20//46 6//46 25//46
