# Blender v2.79 (sub 0) OBJ File: ''
# www.blender.org
mtllib 1343_link_0_35.mtl
o Shape_IndexedFaceSet.035_Shape_IndexedFaceSet.9121
v 0.159278 0.408971 -0.091458
v 0.201240 0.423962 -0.130425
v 0.195240 0.423962 -0.106449
v 0.201240 0.402975 -0.130425
v 0.174266 0.423962 -0.136421
v 0.180253 0.402975 -0.139419
v 0.186248 0.402975 -0.088460
v 0.156276 0.423962 -0.088460
v 0.186248 0.423962 -0.088460
v 0.162276 0.402975 -0.088460
v 0.200986 0.423843 -0.139132
vn 0.3684 -0.3542 -0.8596
vn 0.9701 0.0000 0.2428
vn 0.0000 1.0000 0.0000
vn -0.9058 -0.2055 -0.3705
vn 0.9355 -0.1144 0.3342
vn 0.0000 -1.0000 0.0000
vn -0.9299 -0.1165 -0.3488
vn 0.0000 0.0000 1.0000
vn 0.8945 0.0000 0.4471
vn -0.7951 -0.5378 -0.2805
vn -0.8891 -0.2542 0.3807
vn 0.9996 0.0000 -0.0292
vn 0.0031 0.9999 -0.0137
vn -0.0998 0.1128 -0.9886
usemtl Shape.9130
s off
f 4//1 6//1 11//1
f 2//2 3//2 4//2
f 3//3 2//3 5//3
f 1//4 5//4 6//4
f 4//5 3//5 7//5
f 6//6 4//6 7//6
f 5//7 1//7 8//7
f 3//3 5//3 8//3
f 8//8 7//8 9//8
f 7//9 3//9 9//9
f 3//3 8//3 9//3
f 1//10 6//10 10//10
f 6//6 7//6 10//6
f 8//11 1//11 10//11
f 7//8 8//8 10//8
f 2//12 4//12 11//12
f 5//13 2//13 11//13
f 6//14 5//14 11//14
