# Blender v2.79 (sub 0) OBJ File: ''
# www.blender.org
mtllib 1343_link_0_29.mtl
o Shape_IndexedFaceSet.029_Shape_IndexedFaceSet.9115
v 0.150271 0.429952 -0.088455
v 0.150271 0.438953 -0.088455
v 0.075322 0.429952 -0.022502
v 0.174254 0.405973 -0.064456
v 0.075322 0.405973 -0.013505
v 0.081323 0.405973 0.010484
v 0.075322 0.438953 0.010484
v 0.183255 0.438953 -0.082451
v 0.159262 0.405973 -0.088455
v 0.162262 0.438953 -0.049474
v 0.105306 0.405973 -0.001525
v 0.183255 0.405973 -0.088455
v 0.075322 0.438953 -0.022502
v 0.105306 0.438953 -0.001525
v 0.183255 0.438953 -0.088455
vn 1.0000 0.0000 0.0000
vn -0.6606 0.0000 -0.7507
vn 0.0000 -1.0000 0.0000
vn -0.9553 -0.1738 0.2390
vn -1.0000 -0.0000 0.0000
vn 0.0000 1.0000 -0.0000
vn 0.0000 0.0000 -1.0000
vn -0.6412 -0.2404 -0.7287
vn -0.6414 -0.2695 -0.7183
vn 0.8419 0.0627 0.5360
vn 0.6714 -0.0900 0.7356
vn 0.9344 -0.0638 0.3505
vn 0.3710 0.0675 0.9262
vn 0.4477 0.0000 0.8942
vn 0.6440 0.0000 0.7650
usemtl Shape.9124
s off
f 8//1 12//1 15//1
f 2//2 1//2 3//2
f 5//3 4//3 6//3
f 5//4 6//4 7//4
f 3//5 5//5 7//5
f 2//6 7//6 8//6
f 1//7 2//7 9//7
f 3//8 1//8 9//8
f 4//3 5//3 9//3
f 5//9 3//9 9//9
f 4//10 8//10 10//10
f 8//6 7//6 10//6
f 6//3 4//3 11//3
f 4//11 10//11 11//11
f 8//12 4//12 12//12
f 9//7 2//7 12//7
f 4//3 9//3 12//3
f 2//2 3//2 13//2
f 7//6 2//6 13//6
f 3//5 7//5 13//5
f 7//13 6//13 14//13
f 10//6 7//6 14//6
f 6//14 11//14 14//14
f 11//15 10//15 14//15
f 2//6 8//6 15//6
f 12//7 2//7 15//7
