# Blender v2.79 (sub 0) OBJ File: ''
# www.blender.org
mtllib 1343_link_0_6.mtl
o Shape_IndexedFaceSet.006_Shape_IndexedFaceSet.9092
v 0.162259 0.453943 -0.307299
v 0.191026 0.639760 -0.213669
v 0.156215 0.639686 -0.213724
v 0.108315 0.636819 -0.349287
v 0.105313 0.519931 -0.211380
v 0.201240 0.453943 -0.211380
v 0.105313 0.453943 -0.352294
v 0.174259 0.633824 -0.289327
v 0.105447 0.639547 -0.211572
v 0.102525 0.448621 -0.302411
v 0.201240 0.513941 -0.232374
v 0.141282 0.513941 -0.331300
v 0.201240 0.630810 -0.226387
v 0.161708 0.460905 -0.216573
v 0.105313 0.627833 -0.352294
v 0.189251 0.453943 -0.262347
v 0.150279 0.633824 -0.319314
v 0.204243 0.564859 -0.211380
v 0.123307 0.456976 -0.346293
v 0.168254 0.639796 -0.292306
v 0.192243 0.633824 -0.253367
v 0.123307 0.627833 -0.343287
v 0.106953 0.639697 -0.338342
v 0.201240 0.453943 -0.229380
v 0.153272 0.453943 -0.319314
v 0.171256 0.474947 -0.295327
v 0.201240 0.636819 -0.220387
v 0.168254 0.633824 -0.298320
v 0.111308 0.453943 -0.352294
v 0.114310 0.618829 -0.349287
vn 0.4456 0.0082 -0.8952
vn -0.0021 0.9999 0.0139
vn -0.9996 0.0012 0.0297
vn -0.1686 -0.2451 0.9547
vn -0.2016 -0.9405 0.2736
vn -0.6020 -0.6195 0.5037
vn -0.9984 -0.0000 -0.0558
vn -0.9999 0.0155 -0.0003
vn 0.0845 -0.9951 -0.0507
vn 0.0000 0.0000 1.0000
vn 0.0244 0.0348 0.9991
vn -0.0007 0.0016 1.0000
vn 0.9869 0.0083 -0.1612
vn -0.0021 1.0000 0.0011
vn 0.3626 0.8295 -0.4247
vn 0.9491 0.0161 -0.3147
vn 0.8944 0.0075 -0.4473
vn 0.9261 0.0034 -0.3773
vn 0.7409 0.5602 -0.3705
vn 0.4427 0.1480 -0.8844
vn 0.5452 0.4285 -0.7205
vn 0.6610 0.0254 -0.7500
vn 0.6142 0.0139 -0.7891
vn -0.0027 1.0000 0.0012
vn -0.9039 0.3724 -0.2104
vn -0.9886 0.1503 -0.0116
vn -0.0024 1.0000 0.0010
vn 0.1716 0.9578 -0.2305
vn 0.0538 -0.9985 0.0000
vn 0.0735 -0.9969 -0.0267
vn 0.9396 -0.0171 -0.3417
vn 0.9996 -0.0271 0.0000
vn 0.9919 -0.0063 -0.1266
vn 0.0835 -0.9945 -0.0625
vn 0.7370 0.0123 -0.6758
vn 0.6682 -0.0151 -0.7438
vn 0.8550 -0.0736 -0.5134
vn 0.8782 0.0015 -0.4783
vn 0.8008 -0.0016 -0.5990
vn 0.5701 0.1254 0.8119
vn 0.9986 0.0370 -0.0371
vn 0.2348 0.9697 -0.0675
vn 0.9207 0.2758 -0.2762
vn 0.5646 0.7938 -0.2261
vn 0.7259 0.4881 -0.4847
vn 0.6355 0.5479 -0.5441
vn 0.7596 0.0126 -0.6503
vn 0.8316 0.0053 -0.5553
vn 0.7985 0.0037 -0.6020
vn 0.0000 -0.9944 -0.1061
vn 0.0000 0.0000 -1.0000
vn 0.0731 -0.9930 -0.0931
vn 0.4618 -0.6644 -0.5876
vn 0.4427 0.1470 -0.8845
vn 0.5445 0.0148 -0.8386
vn 0.3271 0.0113 -0.9449
usemtl Shape.9101
s off
f 19//1 29//1 30//1
f 2//2 3//2 9//2
f 5//3 9//3 10//3
f 6//4 5//4 14//4
f 10//5 6//5 14//5
f 5//6 10//6 14//6
f 7//7 10//7 15//7
f 10//8 9//8 15//8
f 10//9 1//9 16//9
f 5//10 6//10 18//10
f 2//11 9//11 18//11
f 9//12 5//12 18//12
f 11//13 13//13 18//13
f 3//14 2//14 20//14
f 17//15 4//15 20//15
f 13//16 11//16 21//16
f 16//17 8//17 21//17
f 11//18 16//18 21//18
f 8//19 20//19 21//19
f 15//20 4//20 22//20
f 4//21 17//21 22//21
f 17//22 12//22 22//22
f 12//23 19//23 22//23
f 9//24 3//24 23//24
f 4//25 15//25 23//25
f 15//26 9//26 23//26
f 3//27 20//27 23//27
f 20//28 4//28 23//28
f 6//29 10//29 24//29
f 10//30 16//30 24//30
f 16//31 11//31 24//31
f 18//32 6//32 24//32
f 11//33 18//33 24//33
f 1//34 10//34 25//34
f 12//35 17//35 25//35
f 19//36 12//36 25//36
f 16//37 1//37 26//37
f 8//38 16//38 26//38
f 1//39 25//39 26//39
f 2//40 18//40 27//40
f 18//41 13//41 27//41
f 20//42 2//42 27//42
f 13//43 21//43 27//43
f 21//44 20//44 27//44
f 20//45 8//45 28//45
f 17//46 20//46 28//46
f 25//47 17//47 28//47
f 8//48 26//48 28//48
f 26//49 25//49 28//49
f 10//50 7//50 29//50
f 7//51 15//51 29//51
f 25//52 10//52 29//52
f 19//53 25//53 29//53
f 15//54 22//54 30//54
f 22//55 19//55 30//55
f 29//56 15//56 30//56
