# Blender v2.79 (sub 0) OBJ File: ''
# www.blender.org
mtllib 102699_link_2_1.mtl
o Shape_IndexedFaceSet.001_Shape_IndexedFaceSet.3578
v 0.459773 0.445350 -0.604009
v -0.010341 0.322243 -0.735105
v 0.003347 0.326153 -0.528353
v -0.021472 0.471920 -0.533392
v 0.509578 0.320221 -0.519753
v 0.472791 0.395492 -0.724528
v -0.021472 0.433691 -0.709144
v 0.496247 0.321927 -0.728212
v 0.486835 0.431949 -0.523126
v 0.435805 0.444680 -0.660529
v 0.427355 0.458251 -0.527778
v -0.021472 0.456629 -0.663296
v 0.494933 0.410119 -0.676459
v 0.000873 0.465537 -0.527329
v -0.000046 0.388472 -0.730841
v 0.427763 0.429129 -0.699561
v 0.428648 0.388479 -0.730732
v 0.432125 0.450620 -0.632348
v 0.479461 0.322572 -0.734629
v 0.505872 0.321280 -0.714253
v 0.439780 0.409321 -0.722304
v 0.505541 0.373262 -0.521425
vn 0.9900 0.1369 -0.0352
vn -0.9839 -0.1652 0.0683
vn -0.0120 -0.9997 0.0197
vn -0.9943 -0.1046 0.0228
vn 0.4033 0.9149 0.0167
vn -1.0000 -0.0000 0.0000
vn 0.6205 0.7803 -0.0783
vn 0.4530 0.8682 -0.2024
vn -0.2650 -0.0118 0.9642
vn -0.0171 -0.0076 0.9998
vn -0.0067 0.0288 0.9996
vn 0.0129 0.7120 0.7020
vn 0.0042 0.1833 0.9830
vn -0.5457 0.1380 -0.8265
vn 0.0186 0.8942 -0.4474
vn 0.0265 0.9268 -0.3747
vn 0.3788 0.8223 -0.4247
vn 0.3759 0.8316 -0.4088
vn 0.0003 0.0642 -0.9979
vn 0.3336 0.9303 -0.1525
vn 0.0313 0.9970 -0.0713
vn 0.2453 0.9676 -0.0594
vn 0.0211 0.9929 -0.1169
vn 0.0268 0.9788 -0.2028
vn 0.0008 -0.9948 -0.1020
vn 0.3578 0.1602 -0.9199
vn 0.1148 0.1466 -0.9825
vn 0.0009 0.0597 -0.9982
vn -0.0016 -1.0000 -0.0054
vn 0.0000 -0.9989 -0.0463
vn 0.7962 0.2807 -0.5360
vn 0.8271 0.3032 -0.4732
vn -0.0029 0.4315 -0.9021
vn 0.2959 0.7922 -0.5336
vn 0.0216 0.7595 -0.6501
vn 0.0782 0.3376 -0.9381
vn 0.0002 0.3748 -0.9271
vn 0.0105 0.0323 0.9994
vn 0.9527 0.3039 0.0071
vn 0.9970 0.0753 -0.0186
usemtl Shape.3583
s off
f 20//1 13//1 22//1
f 2//2 3//2 4//2
f 3//3 2//3 5//3
f 2//4 4//4 7//4
f 9//5 1//5 11//5
f 7//6 4//6 12//6
f 1//7 9//7 13//7
f 10//8 1//8 13//8
f 4//9 3//9 14//9
f 3//10 5//10 14//10
f 5//11 9//11 14//11
f 11//12 4//12 14//12
f 9//13 11//13 14//13
f 2//14 7//14 15//14
f 7//15 12//15 16//15
f 12//16 10//16 16//16
f 13//17 6//17 16//17
f 10//18 13//18 16//18
f 2//19 15//19 17//19
f 1//20 10//20 18//20
f 4//21 11//21 18//21
f 11//22 1//22 18//22
f 12//23 4//23 18//23
f 10//24 12//24 18//24
f 8//25 2//25 19//25
f 6//26 8//26 19//26
f 17//27 6//27 19//27
f 2//28 17//28 19//28
f 5//29 2//29 20//29
f 2//30 8//30 20//30
f 8//31 6//31 20//31
f 6//32 13//32 20//32
f 15//33 7//33 21//33
f 16//34 6//34 21//34
f 7//35 16//35 21//35
f 6//36 17//36 21//36
f 17//37 15//37 21//37
f 9//38 5//38 22//38
f 13//39 9//39 22//39
f 5//40 20//40 22//40
