# Blender v2.79 (sub 0) OBJ File: ''
# www.blender.org
mtllib 102699_link_2_152.mtl
o Shape_IndexedFaceSet.152_Shape_IndexedFaceSet.3729
v -0.533643 -0.063166 -0.709138
v -0.463095 -0.047299 -0.702566
v -0.480144 -0.047882 -0.304074
v -0.463095 -0.071393 -0.702565
v -0.518349 -0.070811 -0.304074
v -0.525993 -0.047882 -0.357597
v -0.533643 -0.047882 -0.709138
v -0.480144 -0.070811 -0.304074
v -0.533643 -0.070811 -0.701462
vn -0.9997 0.0073 0.0218
vn 0.0928 -0.0000 -0.9957
vn -0.4709 0.7846 0.4034
vn -0.0016 1.0000 0.0014
vn -0.0083 1.0000 0.0002
vn 0.9991 0.0000 0.0427
vn 0.0000 -1.0000 0.0015
vn 0.0000 0.0000 1.0000
vn -0.0169 -0.7084 -0.7056
vn -0.0082 -1.0000 0.0003
vn -0.9709 -0.2365 0.0374
vn -1.0000 0.0000 0.0000
usemtl Shape.3734
s off
f 6//1 7//1 9//1
f 1//2 2//2 4//2
f 5//3 3//3 6//3
f 3//4 2//4 6//4
f 2//2 1//2 7//2
f 6//5 2//5 7//5
f 2//6 3//6 8//6
f 4//6 2//6 8//6
f 5//7 4//7 8//7
f 3//8 5//8 8//8
f 1//9 4//9 9//9
f 4//10 5//10 9//10
f 5//11 6//11 9//11
f 7//12 1//12 9//12
