# Blender v2.79 (sub 0) OBJ File: ''
# www.blender.org
mtllib 102699_link_0_20.mtl
o Shape_IndexedFaceSet.020_Shape_IndexedFaceSet.14053
v 0.278946 0.406860 -0.060602
v 0.041479 0.430261 -0.117451
v 0.041479 0.430261 -0.100720
v 0.111724 0.446985 -0.053916
v 0.175252 0.430261 -0.117451
v 0.191964 0.400165 -0.117451
v 0.041479 0.433607 -0.053916
v 0.242126 0.400165 -0.053916
v 0.051521 0.446985 -0.107406
v 0.228737 0.400165 -0.117451
v 0.041479 0.446985 -0.053916
v 0.111724 0.443639 -0.117451
v 0.265557 0.413547 -0.053916
v 0.212048 0.423575 -0.107406
v 0.041479 0.443639 -0.117451
v 0.108377 0.446985 -0.090687
v 0.279590 0.400690 -0.054629
v 0.212048 0.420238 -0.117451
vn 0.2503 0.9188 -0.3052
vn 0.0000 0.0000 -1.0000
vn -0.1961 -0.9806 0.0000
vn -0.1881 -0.9796 0.0700
vn -1.0000 0.0000 0.0000
vn -0.1630 -0.9782 0.1287
vn 0.0000 0.0000 1.0000
vn 0.0000 -1.0000 0.0000
vn 0.0000 1.0000 -0.0000
vn 0.2050 0.9733 -0.1030
vn 0.3611 0.9130 -0.1900
vn -0.2697 0.9616 -0.0506
vn 0.0000 0.9487 -0.3160
vn 0.0352 0.9922 -0.1196
vn 0.2124 0.9770 -0.0193
vn 0.2045 0.9741 -0.0962
vn 0.2152 0.9760 -0.0323
vn 0.6900 -0.4649 -0.5547
vn 0.0140 -0.9999 -0.0029
vn 0.5766 0.5985 0.5561
vn 0.0195 -0.0341 0.9992
vn 0.6139 0.5104 -0.6023
vn 0.4162 0.8629 -0.2867
usemtl Shape.14057
s off
f 5//1 14//1 18//1
f 2//2 5//2 6//2
f 3//3 2//3 6//3
f 3//4 6//4 7//4
f 2//5 3//5 7//5
f 7//6 6//6 8//6
f 4//7 7//7 8//7
f 6//2 5//2 10//2
f 8//8 6//8 10//8
f 2//5 7//5 11//5
f 7//7 4//7 11//7
f 4//9 9//9 11//9
f 5//2 2//2 12//2
f 4//7 8//7 13//7
f 5//10 12//10 14//10
f 13//11 1//11 14//11
f 2//5 11//5 15//5
f 11//12 9//12 15//12
f 12//2 2//2 15//2
f 9//13 12//13 15//13
f 9//9 4//9 16//9
f 12//14 9//14 16//14
f 4//15 13//15 16//15
f 14//16 12//16 16//16
f 13//17 14//17 16//17
f 10//18 1//18 17//18
f 8//19 10//19 17//19
f 1//20 13//20 17//20
f 13//21 8//21 17//21
f 1//22 10//22 18//22
f 10//2 5//2 18//2
f 14//23 1//23 18//23
