# Blender v2.79 (sub 0) OBJ File: ''
# www.blender.org
mtllib 102699_link_2_130.mtl
o Shape_IndexedFaceSet.130_Shape_IndexedFaceSet.3707
v 0.518086 -0.093834 -0.694425
v 0.246134 -0.101390 -0.739755
v 0.246134 -0.093746 -0.739755
v 0.505950 -0.101390 -0.739755
v 0.250435 -0.101270 -0.702020
vn 0.0000 -1.0000 0.0032
vn -0.0000 0.0000 -1.0000
vn 0.0290 0.9847 -0.1719
vn 0.0229 -0.9871 0.1584
vn -0.0329 0.9794 0.1990
vn -0.9936 0.0000 0.1132
usemtl Shape.3712
s off
f 2//1 4//1 5//1
f 2//2 3//2 4//2
f 3//3 1//3 4//3
f 4//4 1//4 5//4
f 1//5 3//5 5//5
f 3//6 2//6 5//6
