# Blender v2.79 (sub 0) OBJ File: ''
# www.blender.org
mtllib 102699_link_2_45.mtl
o Shape_IndexedFaceSet.045_Shape_IndexedFaceSet.3622
v 0.131403 -0.246661 -0.281107
v 0.009129 -0.391875 -0.334592
v 0.009129 -0.277225 -0.380471
v 0.094903 -0.241212 -0.237427
v 0.116117 -0.391875 -0.281107
v 0.100831 -0.246661 -0.365173
v 0.009129 -0.391875 -0.288770
v 0.009129 -0.246661 -0.342227
v 0.123754 -0.391875 -0.242877
v 0.062623 -0.391875 -0.326943
v 0.070260 -0.391875 -0.242877
v 0.039701 -0.254295 -0.388120
v 0.130526 -0.247703 -0.243919
v 0.009129 -0.361283 -0.288770
v 0.116117 -0.254295 -0.349890
vn 0.5712 -0.3462 -0.7442
vn 0.1034 0.9939 -0.0376
vn -1.0000 -0.0000 0.0000
vn 0.0000 -1.0000 0.0000
vn -0.0108 0.9990 -0.0431
vn 0.9754 -0.1027 -0.1949
vn 0.0000 -0.0361 0.9993
vn 0.0463 -0.3711 -0.9274
vn -0.5959 0.6273 -0.5013
vn -0.0489 0.9795 -0.1955
vn 0.1307 -0.3846 -0.9138
vn 0.3676 -0.3260 -0.8709
vn 0.1848 0.9823 0.0319
vn 0.9987 -0.0467 0.0222
vn 0.1791 -0.0013 0.9838
vn -0.7501 0.2795 0.5994
vn -0.5781 0.0651 0.8134
vn -0.6004 0.0000 0.7997
vn 0.9734 -0.1025 -0.2050
vn 0.6024 0.7676 -0.2191
vn 0.6083 -0.3549 -0.7099
usemtl Shape.3627
s off
f 10//1 6//1 15//1
f 4//2 1//2 6//2
f 3//3 2//3 7//3
f 2//4 5//4 7//4
f 4//5 6//5 8//5
f 3//3 7//3 8//3
f 5//6 1//6 9//6
f 7//4 5//4 9//4
f 5//4 2//4 10//4
f 9//7 4//7 11//7
f 7//4 9//4 11//4
f 2//8 3//8 12//8
f 3//9 8//9 12//9
f 8//10 6//10 12//10
f 10//11 2//11 12//11
f 6//12 10//12 12//12
f 1//13 4//13 13//13
f 9//14 1//14 13//14
f 4//15 9//15 13//15
f 4//16 8//16 14//16
f 8//3 7//3 14//3
f 11//17 4//17 14//17
f 7//18 11//18 14//18
f 1//19 5//19 15//19
f 6//20 1//20 15//20
f 5//21 10//21 15//21
