# Blender v2.79 (sub 0) OBJ File: ''
# www.blender.org
mtllib 102699_link_2_82.mtl
o Shape_IndexedFaceSet.082_Shape_IndexedFaceSet.3659
v 0.521276 0.158522 -0.242871
v 0.521276 0.166166 -0.265789
v 0.337812 0.173810 -0.166323
v 0.519640 0.214208 -0.314998
v 0.337812 0.212022 0.628572
v 0.339427 0.151411 0.658454
v 0.337975 0.211967 -0.203843
v 0.475410 0.150873 -0.281099
v 0.429544 0.204372 0.429732
v 0.435994 0.155608 0.399556
v 0.498325 0.212022 -0.059248
v 0.337812 0.150873 0.559725
v 0.480282 0.156071 0.116840
v 0.406629 0.181447 0.529198
v 0.421912 0.212022 0.429732
v 0.505975 0.189085 -0.082166
v 0.345462 0.204372 0.643788
vn 0.6821 0.6805 0.2679
vn 0.9985 0.0516 0.0172
vn -1.0000 0.0041 -0.0002
vn -0.0124 0.9999 -0.0001
vn 0.3887 -0.8740 -0.2915
vn 0.4267 -0.6400 -0.6390
vn -0.5804 -0.5697 -0.5819
vn -0.5189 -0.0925 -0.8498
vn 0.0733 -0.9972 0.0112
vn -1.0000 -0.0000 0.0000
vn -0.9997 -0.0185 0.0165
vn 0.0303 -0.9995 0.0050
vn -0.1895 -0.9814 -0.0310
vn 0.1556 -0.9878 0.0110
vn 0.0867 -0.9962 0.0120
vn 0.9873 0.0348 0.1547
vn 0.7923 -0.5385 0.2868
vn 0.9749 -0.0088 0.2226
vn 0.0101 0.9999 0.0043
vn 0.7036 0.7020 0.1100
vn 0.1164 0.9930 0.0182
vn 0.9901 0.1213 0.0712
vn 0.9728 0.1848 0.1397
vn 0.9672 0.2400 0.0827
vn 0.9892 -0.0942 0.1121
vn 0.9844 0.1016 0.1439
vn -0.8138 0.2394 0.5295
vn 0.8842 0.0284 0.4663
vn 0.7783 0.5485 0.3057
vn 0.4678 0.8614 0.1979
usemtl Shape.3664
s off
f 9//1 15//1 17//1
f 1//2 2//2 4//2
f 3//3 5//3 7//3
f 5//4 4//4 7//4
f 2//5 1//5 8//5
f 4//6 2//6 8//6
f 3//7 7//7 8//7
f 7//8 4//8 8//8
f 6//9 8//9 10//9
f 5//10 3//10 12//10
f 6//11 5//11 12//11
f 8//12 6//12 12//12
f 3//13 8//13 12//13
f 8//14 1//14 13//14
f 10//15 8//15 13//15
f 9//16 10//16 13//16
f 6//17 10//17 14//17
f 10//18 9//18 14//18
f 4//19 5//19 15//19
f 9//20 11//20 15//20
f 11//21 4//21 15//21
f 1//22 4//22 16//22
f 11//23 9//23 16//23
f 4//24 11//24 16//24
f 13//25 1//25 16//25
f 9//26 13//26 16//26
f 5//27 6//27 17//27
f 6//28 14//28 17//28
f 14//29 9//29 17//29
f 15//30 5//30 17//30
