# Blender v2.79 (sub 0) OBJ File: ''
# www.blender.org
mtllib 102699_link_2_22.mtl
o Shape_IndexedFaceSet.022_Shape_IndexedFaceSet.3599
v 0.139059 -0.254331 0.620956
v 0.016762 -0.544726 0.735578
v 0.001461 -0.544726 0.735578
v 0.131395 -0.567664 0.628592
v 0.001461 -0.246664 0.620956
v 0.145685 -0.256353 0.519284
v 0.001461 -0.567664 0.689701
v 0.139059 -0.567664 0.697357
v 0.039686 -0.246664 0.666772
v 0.085547 -0.559997 0.727922
v 0.001461 -0.269602 0.674429
v 0.108458 -0.246664 0.643844
v 0.131395 -0.269602 0.529221
v 0.139859 -0.244799 0.528022
v 0.139059 -0.567664 0.628592
v 0.123758 -0.529424 0.704993
vn 0.3699 0.2155 0.9037
vn -1.0000 -0.0000 0.0000
vn 0.0000 -1.0000 0.0000
vn 0.9978 0.0158 0.0647
vn 0.0000 -0.4482 0.8939
vn -0.1208 -0.8879 0.4439
vn -0.0124 -0.9748 0.2228
vn 0.1543 0.2110 0.9652
vn 0.0000 0.2170 0.9762
vn 0.0631 0.2199 0.9735
vn -0.4272 0.8309 0.3564
vn 0.3081 0.2255 0.9242
vn -0.3441 -0.2970 -0.8907
vn -0.5758 0.0079 -0.8175
vn -0.5882 -0.1694 -0.7908
vn -0.4075 -0.2888 -0.8663
vn 0.9067 0.4188 0.0508
vn -0.5302 0.3249 -0.7831
vn -0.0086 0.9999 0.0072
vn 0.3113 0.9451 0.0996
vn 0.0059 0.9998 0.0177
vn 0.0000 -0.3313 -0.9435
vn 0.9998 -0.0213 0.0000
vn 0.7328 0.1612 0.6611
vn 0.4987 0.0265 0.8664
vn 0.6184 0.1979 0.7605
usemtl Shape.3604
s off
f 12//1 10//1 16//1
f 3//2 5//2 7//2
f 7//3 4//3 8//3
f 6//4 1//4 8//4
f 2//5 3//5 10//5
f 3//6 7//6 10//6
f 7//7 8//7 10//7
f 9//8 2//8 10//8
f 3//9 2//9 11//9
f 5//2 3//2 11//2
f 2//10 9//10 11//10
f 9//11 5//11 11//11
f 9//12 10//12 12//12
f 6//13 4//13 13//13
f 5//14 6//14 13//14
f 7//15 5//15 13//15
f 4//16 7//16 13//16
f 1//17 6//17 14//17
f 6//18 5//18 14//18
f 5//19 9//19 14//19
f 12//20 1//20 14//20
f 9//21 12//21 14//21
f 4//22 6//22 15//22
f 8//3 4//3 15//3
f 6//23 8//23 15//23
f 8//24 1//24 16//24
f 10//25 8//25 16//25
f 1//26 12//26 16//26
