# Blender v2.79 (sub 0) OBJ File: ''
# www.blender.org
mtllib 102699_link_0_71.mtl
o Shape_IndexedFaceSet.071_Shape_IndexedFaceSet.14104
v 0.011377 0.286447 0.845801
v -0.069164 0.196240 0.851878
v -0.074289 0.288743 0.831859
v 0.011377 0.196143 0.835774
v 0.011377 0.199489 0.859184
v -0.072239 0.219564 0.859184
v 0.015290 0.290829 0.831338
v -0.072239 0.249641 0.829083
v -0.072239 0.286447 0.845801
v 0.011377 0.249641 0.829083
v 0.011377 0.279755 0.849148
v -0.072239 0.196143 0.835774
v 0.011377 0.219564 0.859184
v -0.072239 0.199489 0.859184
vn -0.9998 -0.0220 0.0031
vn 0.0271 -0.9896 0.1414
vn 0.9991 -0.0410 0.0059
vn -0.0074 0.0704 -0.9975
vn -0.9882 0.0301 0.1503
vn 0.0000 0.9570 0.2900
vn -0.0220 0.9859 0.1656
vn 0.8827 -0.0583 -0.4663
vn 0.0000 -0.1241 -0.9923
vn 0.0000 0.0547 -0.9985
vn 0.9419 0.1502 0.3004
vn -0.0235 0.1962 0.9803
vn 0.0000 0.4473 0.8944
vn 0.0000 -1.0000 0.0060
vn -0.9656 -0.0323 -0.2582
vn 0.0000 0.0000 1.0000
vn 0.9903 0.0000 0.1392
vn 0.0000 0.1645 0.9864
vn 0.9705 0.0397 0.2379
vn 0.0000 -0.9137 0.4063
vn -0.9972 0.0000 0.0748
vn -0.5788 -0.8073 0.1154
usemtl Shape.14108
s off
f 3//1 12//1 14//1
f 2//2 4//2 5//2
f 5//3 4//3 7//3
f 3//4 7//4 8//4
f 3//5 6//5 9//5
f 1//6 7//6 9//6
f 7//7 3//7 9//7
f 7//8 4//8 10//8
f 4//9 8//9 10//9
f 8//10 7//10 10//10
f 7//11 1//11 11//11
f 9//12 6//12 11//12
f 1//13 9//13 11//13
f 4//14 2//14 12//14
f 8//9 4//9 12//9
f 3//15 8//15 12//15
f 6//16 5//16 13//16
f 5//17 7//17 13//17
f 11//18 6//18 13//18
f 7//19 11//19 13//19
f 2//20 5//20 14//20
f 6//21 3//21 14//21
f 5//16 6//16 14//16
f 12//22 2//22 14//22
