# Blender v2.79 (sub 0) OBJ File: ''
# www.blender.org
mtllib 102699_link_1_43.mtl
o Shape_IndexedFaceSet.043_Shape_IndexedFaceSet.15248
v 0.516625 0.238261 -0.453143
v 0.510097 0.268295 -0.440955
v 0.505743 0.268295 -0.440955
v 0.509227 0.236082 -0.450095
v 0.505743 0.240436 -0.452708
v 0.517061 0.268295 -0.443569
v 0.517061 0.236082 -0.450095
v 0.505743 0.268295 -0.443569
v 0.517061 0.262632 -0.442262
v 0.505743 0.236082 -0.450531
v 0.505743 0.236082 -0.453143
v 0.517061 0.259583 -0.446616
v 0.507920 0.266983 -0.440955
v 0.507050 0.266548 -0.444439
v 0.517061 0.236082 -0.452708
v 0.516190 0.268295 -0.441391
v 0.511402 0.239131 -0.453143
v 0.517061 0.248707 -0.450095
vn 0.0463 0.2780 -0.9595
vn 0.0000 1.0000 -0.0000
vn -1.0000 0.0000 0.0000
vn 1.0000 0.0000 0.0000
vn 0.0000 -1.0000 0.0000
vn 0.0000 0.0000 1.0000
vn 0.0000 -0.2836 0.9589
vn 0.0024 -0.2830 0.9591
vn -0.1692 -0.2808 0.9447
vn -0.1190 -0.2862 0.9507
vn -0.2110 0.3047 -0.9288
vn 0.0000 0.4458 -0.8951
vn 0.0244 0.3300 -0.9437
vn 0.0377 -0.1884 -0.9814
vn 0.9251 0.0854 0.3700
vn 0.0709 -0.1176 0.9905
vn 0.0743 -0.1404 0.9873
vn -0.0000 0.0000 -1.0000
vn -0.0535 0.0993 -0.9936
vn -0.0036 0.3021 -0.9533
vn 0.0011 0.3027 -0.9531
vn 0.0049 0.3047 -0.9524
vn 0.8935 0.0910 -0.4397
usemtl Shape.15260
s off
f 1//1 17//1 18//1
f 3//2 2//2 6//2
f 5//3 3//3 8//3
f 3//2 6//2 8//2
f 7//4 6//4 9//4
f 3//3 5//3 10//3
f 7//5 4//5 10//5
f 7//5 10//5 11//5
f 10//3 5//3 11//3
f 6//4 7//4 12//4
f 2//6 3//6 13//6
f 4//7 7//7 13//7
f 7//8 9//8 13//8
f 3//9 10//9 13//9
f 10//10 4//10 13//10
f 5//11 8//11 14//11
f 8//12 6//12 14//12
f 6//13 12//13 14//13
f 7//5 11//5 15//5
f 11//14 1//14 15//14
f 12//4 7//4 15//4
f 6//2 2//2 16//2
f 9//15 6//15 16//15
f 2//16 13//16 16//16
f 13//17 9//17 16//17
f 1//18 11//18 17//18
f 11//19 5//19 17//19
f 5//20 14//20 17//20
f 17//21 14//21 18//21
f 14//22 12//22 18//22
f 15//23 1//23 18//23
f 12//4 15//4 18//4
