# Blender v2.79 (sub 0) OBJ File: ''
# www.blender.org
mtllib 102699_link_2_118.mtl
o Shape_IndexedFaceSet.118_Shape_IndexedFaceSet.3695
v -0.531817 0.008820 -0.650749
v -0.541280 0.013287 -0.670960
v -0.494765 0.117302 -0.700596
v -0.464851 0.005641 0.009320
v -0.510701 0.112641 -0.021312
v -0.464851 0.112641 0.009320
v -0.494801 0.001232 -0.698991
v -0.510701 0.005641 -0.036561
v -0.541280 0.104995 -0.670960
v -0.541280 0.097349 -0.464466
v -0.525986 0.013287 -0.181793
v -0.464851 0.104995 -0.074783
v -0.510701 0.043860 0.009320
v -0.541280 0.013287 -0.487439
v -0.525986 0.074422 -0.151228
vn -0.9988 -0.0131 0.0478
vn -0.0045 1.0000 0.0068
vn -0.2920 -0.9536 -0.0740
vn -0.5186 -0.0117 -0.8549
vn -0.0065 -1.0000 0.0065
vn -0.1986 -0.9801 0.0018
vn -0.5373 0.0000 -0.8434
vn -0.2554 0.9668 0.0006
vn -0.7195 0.6940 0.0257
vn -1.0000 0.0000 0.0000
vn 1.0000 0.0000 0.0000
vn 0.9173 0.3965 -0.0360
vn 0.9989 -0.0010 -0.0478
vn 0.9985 -0.0356 -0.0420
vn 0.0000 0.0000 1.0000
vn -0.5209 0.3473 0.7798
vn -0.5393 -0.6470 0.5390
vn -0.9883 -0.1174 0.0978
vn -0.4269 -0.9043 0.0000
vn -0.3323 -0.9432 0.0065
vn -0.6897 -0.7233 0.0345
vn -0.9984 -0.0250 0.0500
vn -0.9810 0.1838 0.0614
vn -0.9936 0.0460 0.1034
vn -0.9953 -0.0433 0.0865
usemtl Shape.3700
s off
f 10//1 14//1 15//1
f 3//2 5//2 6//2
f 1//3 2//3 7//3
f 2//4 3//4 7//4
f 7//5 4//5 8//5
f 1//6 7//6 8//6
f 3//7 2//7 9//7
f 5//8 3//8 9//8
f 5//9 9//9 10//9
f 9//10 2//10 10//10
f 6//11 4//11 12//11
f 3//12 6//12 12//12
f 7//13 3//13 12//13
f 4//14 7//14 12//14
f 4//15 6//15 13//15
f 6//16 5//16 13//16
f 8//17 4//17 13//17
f 11//18 8//18 13//18
f 2//19 1//19 14//19
f 1//20 8//20 14//20
f 10//10 2//10 14//10
f 8//21 11//21 14//21
f 14//22 11//22 15//22
f 5//23 10//23 15//23
f 13//24 5//24 15//24
f 11//25 13//25 15//25
