# Blender v2.79 (sub 0) OBJ File: ''
# www.blender.org
mtllib 102699_link_2_44.mtl
o Shape_IndexedFaceSet.044_Shape_IndexedFaceSet.3621
v 0.070266 -0.414829 -0.311676
v 0.129398 -0.397706 -0.178616
v 0.131415 -0.391910 -0.212303
v 0.131415 -0.567678 -0.197029
v 0.070266 -0.567678 -0.181742
v 0.085559 -0.391910 -0.181742
v 0.116122 -0.391910 -0.281088
v 0.070266 -0.567678 -0.235240
v 0.070266 -0.391910 -0.242877
v 0.131415 -0.567678 -0.174078
v 0.077916 -0.483605 -0.174078
vn -0.1240 -0.0789 0.9891
vn 0.1168 0.9776 0.1752
vn 0.0000 1.0000 -0.0000
vn 0.9760 -0.0189 -0.2170
vn 0.6273 -0.2909 -0.7224
vn 0.4879 -0.3904 -0.7807
vn -1.0000 0.0000 0.0000
vn 0.0000 -1.0000 0.0000
vn -0.2547 0.9175 -0.3056
vn 0.9980 0.0135 0.0621
vn 1.0000 0.0000 0.0000
vn -0.0593 0.0880 0.9944
vn -0.9768 0.0704 0.2025
vn -0.9652 0.1006 0.2414
vn 0.0427 0.0272 0.9987
usemtl Shape.3626
s off
f 5//1 10//1 11//1
f 2//2 3//2 6//2
f 6//3 3//3 7//3
f 3//4 4//4 7//4
f 4//5 1//5 7//5
f 1//6 4//6 8//6
f 5//7 1//7 8//7
f 4//8 5//8 8//8
f 1//7 5//7 9//7
f 6//3 7//3 9//3
f 7//9 1//9 9//9
f 3//10 2//10 10//10
f 4//11 3//11 10//11
f 5//8 4//8 10//8
f 2//12 6//12 11//12
f 9//13 5//13 11//13
f 6//14 9//14 11//14
f 10//15 2//15 11//15
