# Blender v2.79 (sub 0) OBJ File: ''
# www.blender.org
mtllib 102699_link_2_111.mtl
o Shape_IndexedFaceSet.111_Shape_IndexedFaceSet.3688
v -0.342465 -0.002015 -0.693898
v -0.518338 -0.024944 -0.739755
v -0.523321 -0.024579 -0.724283
v 0.316629 -0.024465 -0.702021
v 0.330168 0.005627 -0.739755
v -0.518338 0.005627 -0.739755
v 0.330168 -0.024944 -0.739755
v 0.315790 0.005119 -0.702051
v -0.528369 -0.024757 -0.694178
v -0.532429 0.005584 -0.693962
vn -0.0006 -0.0072 1.0000
vn 0.0000 0.0000 -1.0000
vn -0.9519 0.0000 -0.3066
vn 0.9412 0.0000 0.3377
vn 0.0124 0.0014 0.9999
vn 0.9339 0.0268 0.3565
vn -0.1876 -0.9815 -0.0373
vn 0.0093 -0.0881 0.9961
vn 0.0000 -1.0000 0.0041
vn 0.0005 -0.9999 0.0129
vn -0.0000 1.0000 0.0009
vn -0.9558 0.0070 -0.2941
vn 0.0094 0.2427 0.9700
vn 0.0007 0.9999 0.0137
vn -0.9778 -0.1297 -0.1647
usemtl Shape.3693
s off
f 9//1 1//1 10//1
f 5//2 2//2 6//2
f 2//3 3//3 6//3
f 5//4 4//4 7//4
f 2//2 5//2 7//2
f 1//5 4//5 8//5
f 4//6 5//6 8//6
f 3//7 2//7 9//7
f 4//8 1//8 9//8
f 2//9 7//9 9//9
f 7//10 4//10 9//10
f 5//11 6//11 10//11
f 6//12 3//12 10//12
f 1//13 8//13 10//13
f 8//14 5//14 10//14
f 3//15 9//15 10//15
