# Blender v2.79 (sub 0) OBJ File: ''
# www.blender.org
mtllib 102699_link_2_58.mtl
o Shape_IndexedFaceSet.058_Shape_IndexedFaceSet.3635
v -0.327225 -0.185491 0.483328
v -0.396045 -0.185491 0.254005
v -0.389152 -0.179713 0.260897
v -0.186067 -0.245053 0.259797
v -0.212601 -0.177834 0.490959
v -0.197341 -0.246633 0.506268
v -0.296631 -0.177834 0.254005
v -0.151436 -0.200778 0.490959
v -0.365450 -0.208422 0.284624
v -0.243195 -0.246633 0.254005
v -0.204946 -0.208422 0.254005
v -0.152818 -0.244168 0.497232
v -0.327225 -0.177834 0.483328
v -0.357795 -0.200778 0.368679
v -0.304286 -0.193128 0.506268
v -0.143782 -0.208422 0.506268
v -0.388390 -0.177834 0.330479
vn -0.7756 -0.5646 0.2821
vn -0.0612 0.7942 -0.6046
vn -0.2860 -0.9568 0.0520
vn 0.0282 -0.9996 -0.0051
vn 0.0000 0.0000 -1.0000
vn -0.3533 -0.8832 -0.3084
vn 0.3145 0.9427 -0.1115
vn 0.3491 0.9307 -0.1089
vn 0.1032 -0.1033 -0.9893
vn 0.0545 -0.9985 -0.0039
vn 0.0000 1.0000 0.0000
vn -0.6734 -0.7282 0.1275
vn -0.3645 -0.9238 0.1172
vn -0.7071 0.0000 0.7071
vn -0.0387 0.8131 0.5808
vn -0.5198 -0.8176 0.2476
vn -0.4366 -0.8727 0.2183
vn 0.3371 0.8988 0.2802
vn 0.8688 0.4481 -0.2107
vn 0.8817 0.4206 -0.2138
vn 0.9682 -0.2107 -0.1348
vn 0.2058 -0.2884 0.9351
vn 0.0511 0.5366 0.8423
vn 0.0000 0.0000 1.0000
vn -0.6341 0.7731 -0.0139
vn -0.0223 0.9994 -0.0267
vn -0.9284 0.0000 0.3715
vn -0.7001 -0.7002 0.1402
usemtl Shape.3640
s off
f 14//1 1//1 17//1
f 2//2 3//2 7//2
f 6//3 9//3 10//3
f 4//4 6//4 10//4
f 2//5 7//5 10//5
f 9//6 2//6 10//6
f 10//5 7//5 11//5
f 7//7 5//7 11//7
f 5//8 8//8 11//8
f 4//9 10//9 11//9
f 6//10 4//10 12//10
f 5//11 7//11 13//11
f 2//12 9//12 14//12
f 9//13 6//13 14//13
f 13//14 1//14 15//14
f 5//15 13//15 15//15
f 1//16 14//16 15//16
f 14//17 6//17 15//17
f 8//18 5//18 16//18
f 11//19 8//19 16//19
f 4//20 11//20 16//20
f 12//21 4//21 16//21
f 6//22 12//22 16//22
f 5//23 15//23 16//23
f 15//24 6//24 16//24
f 3//25 2//25 17//25
f 7//26 3//26 17//26
f 1//27 13//27 17//27
f 13//11 7//11 17//11
f 2//28 14//28 17//28
