# Blender v2.79 (sub 0) OBJ File: ''
# www.blender.org
mtllib 102699_link_2_139.mtl
o Shape_IndexedFaceSet.139_Shape_IndexedFaceSet.3716
v 0.475410 -0.093746 -0.403411
v 0.521272 -0.078457 -0.372844
v 0.513267 -0.078637 -0.369055
v 0.482514 -0.078184 -0.699728
v 0.521272 -0.093746 -0.693861
v 0.521272 -0.093746 -0.388128
v 0.475410 -0.078457 -0.365187
v 0.521272 -0.078457 -0.693861
v 0.482685 -0.093933 -0.697886
vn -0.0002 -1.0000 0.0006
vn 1.0000 -0.0000 0.0000
vn 0.3309 -0.6672 0.6674
vn 0.0613 -0.7697 0.6355
vn 0.0122 0.9972 0.0732
vn 0.0001 1.0000 0.0008
vn -0.9984 0.0529 -0.0212
vn -0.1228 -0.9215 0.3686
vn 0.0070 1.0000 0.0000
vn 0.1497 0.0000 -0.9887
vn -0.9996 -0.0137 -0.0247
vn 0.1036 -0.1144 -0.9880
vn 0.0048 -1.0000 0.0000
usemtl Shape.3721
s off
f 6//1 1//1 9//1
f 5//2 2//2 6//2
f 2//3 3//3 6//3
f 6//4 3//4 7//4
f 3//5 2//5 7//5
f 2//6 4//6 7//6
f 4//7 1//7 7//7
f 1//8 6//8 7//8
f 4//9 2//9 8//9
f 5//10 4//10 8//10
f 2//2 5//2 8//2
f 1//11 4//11 9//11
f 4//12 5//12 9//12
f 5//13 6//13 9//13
