# Blender v2.79 (sub 0) OBJ File: ''
# www.blender.org
mtllib 102699_link_1_63.mtl
o Shape_IndexedFaceSet.063_Shape_IndexedFaceSet.15268
v 0.523592 0.245229 -0.383052
v 0.515320 0.278736 -0.381311
v 0.515757 0.274381 -0.381311
v 0.516627 0.280043 -0.384794
v 0.523592 0.219100 -0.384794
v 0.524897 0.219100 -0.380875
v 0.517499 0.280914 -0.380875
v 0.518804 0.282649 -0.384794
v 0.526204 0.221283 -0.384794
v 0.521849 0.221719 -0.381311
v 0.520978 0.260888 -0.380875
v 0.515320 0.282649 -0.380875
v 0.518804 0.282649 -0.383052
v 0.526204 0.219977 -0.383052
v 0.521849 0.261759 -0.384794
v 0.521849 0.233041 -0.384794
v 0.523592 0.240003 -0.381311
v 0.521849 0.260017 -0.382617
v 0.522286 0.219100 -0.381311
v 0.516627 0.282649 -0.384794
vn 0.0000 1.0000 -0.0000
vn -0.9204 -0.0923 -0.3800
vn -0.0000 0.0000 -1.0000
vn 0.0000 0.0000 1.0000
vn -0.7410 -0.0744 0.6674
vn -0.6412 -0.0742 0.7638
vn -0.1621 -0.0244 0.9865
vn 0.7969 0.1384 0.5880
vn 0.4412 0.5541 0.7060
vn 0.3929 -0.9102 -0.1308
vn 0.5559 -0.6651 -0.4986
vn 0.9917 0.1026 0.0769
vn 0.9941 0.1070 0.0203
vn -0.0001 0.0000 -1.0000
vn 0.9895 0.1442 0.0000
vn -0.9138 -0.1015 -0.3933
vn 0.0001 0.0000 -1.0000
vn -0.9306 -0.1076 -0.3499
vn -0.9203 -0.1151 -0.3740
vn 0.5532 0.0519 0.8315
vn 0.8441 0.0638 0.5324
vn 0.9504 0.0983 0.2951
vn 0.9113 0.1301 0.3906
vn 0.9893 0.1139 0.0912
vn 0.9850 0.1346 0.1077
vn 0.9460 0.1025 0.3075
vn 0.9095 0.1054 0.4020
vn 0.0000 -1.0000 0.0000
vn -0.9251 -0.1544 -0.3469
vn -0.1647 -0.0275 0.9860
vn -0.9363 0.0000 -0.3513
vn -0.9480 0.0352 -0.3162
usemtl Shape.15280
s off
f 12//1 8//1 20//1
f 3//2 2//2 4//2
f 5//3 4//3 8//3
f 5//3 8//3 9//3
f 7//4 6//4 11//4
f 2//5 3//5 12//5
f 6//4 7//4 12//4
f 3//6 10//6 12//6
f 10//7 6//7 12//7
f 7//8 11//8 13//8
f 12//9 7//9 13//9
f 8//1 12//1 13//1
f 6//10 5//10 14//10
f 5//11 9//11 14//11
f 9//12 1//12 14//12
f 1//13 9//13 15//13
f 9//14 8//14 15//14
f 8//15 13//15 15//15
f 3//16 4//16 16//16
f 4//17 5//17 16//17
f 10//18 3//18 16//18
f 5//19 10//19 16//19
f 11//20 6//20 17//20
f 6//21 14//21 17//21
f 14//22 1//22 17//22
f 13//23 11//23 18//23
f 1//24 15//24 18//24
f 15//25 13//25 18//25
f 17//26 1//26 18//26
f 11//27 17//27 18//27
f 5//28 6//28 19//28
f 10//29 5//29 19//29
f 6//30 10//30 19//30
f 4//31 2//31 20//31
f 8//3 4//3 20//3
f 2//32 12//32 20//32
