# Blender v2.79 (sub 0) OBJ File: ''
# www.blender.org
mtllib 102699_link_1_45.mtl
o Shape_IndexedFaceSet.045_Shape_IndexedFaceSet.15250
v 0.499646 0.283094 -0.426151
v 0.499646 0.266120 -0.437472
v 0.500953 0.266120 -0.437472
v 0.496600 0.283529 -0.413527
v 0.502259 0.283529 -0.420059
v 0.498777 0.273957 -0.437472
v 0.502259 0.273521 -0.437472
v 0.496600 0.283966 -0.422237
v 0.499213 0.278741 -0.419626
v 0.498342 0.270039 -0.435294
v 0.502259 0.283966 -0.424848
v 0.501388 0.267427 -0.435730
v 0.498777 0.283966 -0.413963
v 0.496600 0.280918 -0.417884
v 0.498342 0.270909 -0.437472
v 0.502259 0.271345 -0.437036
v 0.497907 0.283966 -0.424412
v 0.498777 0.268297 -0.434420
v 0.499646 0.267862 -0.434420
v 0.502259 0.282224 -0.427457
vn 1.0000 0.0000 0.0000
vn 0.0000 0.0000 -1.0000
vn 0.7800 -0.4576 0.4268
vn -0.1871 0.9811 0.0492
vn 0.2727 -0.6965 0.6637
vn 0.7641 -0.4437 0.4683
vn 0.2733 0.9580 0.0874
vn 0.0000 1.0000 0.0000
vn -1.0000 -0.0000 0.0000
vn -0.9945 -0.0972 -0.0388
vn -0.9639 0.1376 -0.2281
vn -0.9596 -0.2613 -0.1044
vn -0.9960 -0.0731 -0.0512
vn 0.7439 -0.1313 -0.6552
vn 0.9765 -0.1752 0.1257
vn 0.9694 -0.2369 -0.0643
vn -0.2179 0.7676 -0.6028
vn -0.7358 0.5130 -0.4422
vn -0.0487 0.8725 -0.4862
vn -0.9579 -0.2769 -0.0752
vn -0.7300 -0.5862 0.3513
vn -0.9741 -0.2224 0.0415
vn 0.0000 -0.8685 0.4957
vn -0.0999 -0.8030 0.5876
vn 0.2135 -0.8063 0.5516
vn 0.2414 -0.7784 0.5795
vn -0.3987 -0.7965 0.4546
vn -0.3830 -0.7650 0.5178
vn -0.0528 0.7791 -0.6247
vn 0.0941 0.7515 -0.6530
vn -0.0006 0.8317 -0.5553
usemtl Shape.15262
s off
f 11//1 7//1 20//1
f 3//2 2//2 6//2
f 3//2 6//2 7//2
f 5//1 7//1 11//1
f 5//3 9//3 12//3
f 8//4 4//4 13//4
f 4//5 9//5 13//5
f 9//6 5//6 13//6
f 5//7 11//7 13//7
f 11//8 8//8 13//8
f 4//9 8//9 14//9
f 10//10 14//10 15//10
f 6//2 2//2 15//2
f 8//11 6//11 15//11
f 2//12 10//12 15//12
f 14//13 8//13 15//13
f 7//1 5//1 16//1
f 3//14 7//14 16//14
f 5//15 12//15 16//15
f 12//16 3//16 16//16
f 1//17 6//17 17//17
f 6//18 8//18 17//18
f 11//19 1//19 17//19
f 8//8 11//8 17//8
f 10//20 2//20 18//20
f 4//21 14//21 18//21
f 14//22 10//22 18//22
f 2//23 3//23 19//23
f 9//24 4//24 19//24
f 3//25 12//25 19//25
f 12//26 9//26 19//26
f 18//27 2//27 19//27
f 4//28 18//28 19//28
f 6//29 1//29 20//29
f 7//30 6//30 20//30
f 1//31 11//31 20//31
