# Blender v2.79 (sub 0) OBJ File: ''
# www.blender.org
mtllib 102699_link_2_107.mtl
o Shape_IndexedFaceSet.107_Shape_IndexedFaceSet.3684
v 0.523875 -0.026032 -0.688776
v 0.421900 -0.047880 -0.739749
v 0.423049 -0.047634 -0.701788
v 0.528920 -0.047880 -0.716819
v 0.421900 -0.024951 -0.739749
v 0.513626 -0.024951 -0.739749
vn -0.0000 0.9998 0.0212
vn -0.0014 -1.0000 0.0065
vn 0.0865 -0.7783 0.6219
vn -0.2426 0.8295 0.5030
vn -0.9995 0.0000 0.0303
vn 0.0000 0.0000 -1.0000
vn 0.1606 -0.6423 -0.7494
vn 0.8898 0.4236 -0.1699
usemtl Shape.3689
s off
f 5//1 1//1 6//1
f 3//2 2//2 4//2
f 1//3 3//3 4//3
f 3//4 1//4 5//4
f 2//5 3//5 5//5
f 2//6 5//6 6//6
f 4//7 2//7 6//7
f 1//8 4//8 6//8
