# Blender v2.79 (sub 0) OBJ File: ''
# www.blender.org
mtllib 102699_link_0_28.mtl
o Shape_IndexedFaceSet.028_Shape_IndexedFaceSet.14061
v -0.319725 0.356674 0.471231
v -0.209381 0.319901 0.728718
v -0.212736 0.319901 0.728718
v -0.329754 0.316548 0.504680
v -0.209381 0.370058 0.471231
v -0.212736 0.383441 0.494648
v -0.276254 0.333272 0.648434
v -0.209381 0.316548 0.688564
v -0.326411 0.316548 0.574906
v -0.209381 0.343316 0.554842
v -0.333109 0.349995 0.494648
v -0.209381 0.333272 0.701948
v -0.333109 0.336624 0.471231
v -0.286283 0.316548 0.658467
v -0.209381 0.383441 0.471231
v -0.333109 0.333272 0.538130
v -0.252865 0.339964 0.645107
v -0.306353 0.339964 0.471231
v -0.279597 0.336624 0.631722
v -0.216079 0.366718 0.471231
v -0.286283 0.319901 0.658467
vn -0.6252 0.7108 0.3223
vn 0.0000 -0.9965 0.0832
vn 1.0000 0.0000 0.0000
vn 0.0000 -1.0000 0.0000
vn 0.2872 -0.9392 -0.1880
vn -0.2657 0.9564 0.1209
vn 0.0000 0.8946 0.4468
vn -0.3140 0.8645 0.3924
vn 0.0000 0.0000 -1.0000
vn -0.7928 0.5292 -0.3022
vn -0.0315 -0.9963 0.0806
vn -0.2356 0.9713 -0.0338
vn 0.8291 0.5463 0.1188
vn -0.9579 -0.2834 0.0456
vn -0.5715 0.7659 0.2946
vn -0.9837 -0.1794 -0.0090
vn -1.0000 -0.0000 -0.0000
vn -0.1592 0.9590 0.2347
vn -0.2264 0.9320 0.2829
vn 0.1058 -0.8479 -0.5195
vn -0.2626 0.9451 0.1947
vn -0.4594 0.8487 0.2621
vn -0.2260 0.9503 0.2143
vn -0.2361 0.9426 0.2363
vn 0.3178 -0.9062 -0.2791
vn 0.4290 -0.8604 -0.2752
vn 0.2569 -0.8669 -0.4271
vn -0.4738 0.7276 0.4961
vn -0.6907 0.0000 0.7231
vn -0.9014 0.0000 0.4329
vn -0.7979 0.4806 0.3639
usemtl Shape.14065
s off
f 7//1 16//1 21//1
f 2//2 3//2 8//2
f 5//3 2//3 8//3
f 4//4 8//4 9//4
f 8//5 4//5 10//5
f 5//3 8//3 10//3
f 6//6 1//6 11//6
f 3//7 2//7 12//7
f 2//3 5//3 12//3
f 7//8 3//8 12//8
f 1//9 5//9 13//9
f 11//10 1//10 13//10
f 8//11 3//11 14//11
f 9//4 8//4 14//4
f 5//9 1//9 15//9
f 1//12 6//12 15//12
f 12//3 5//3 15//3
f 6//13 12//13 15//13
f 4//14 9//14 16//14
f 7//15 11//15 16//15
f 13//16 4//16 16//16
f 11//17 13//17 16//17
f 12//18 6//18 17//18
f 7//19 12//19 17//19
f 13//9 5//9 18//9
f 4//20 13//20 18//20
f 6//21 11//21 19//21
f 11//22 7//22 19//22
f 17//23 6//23 19//23
f 7//24 17//24 19//24
f 10//25 4//25 20//25
f 5//26 10//26 20//26
f 4//27 18//27 20//27
f 18//9 5//9 20//9
f 3//28 7//28 21//28
f 14//29 3//29 21//29
f 9//30 14//30 21//30
f 16//31 9//31 21//31
