# Blender v2.79 (sub 0) OBJ File: ''
# www.blender.org
mtllib 102699_link_0_68.mtl
o Shape_IndexedFaceSet.068_Shape_IndexedFaceSet.14101
v -0.326440 0.316548 0.574878
v -0.373257 0.219554 0.454494
v -0.356534 0.219554 0.454494
v -0.369904 0.316548 0.454494
v -0.306364 0.316548 0.564837
v -0.316408 0.219554 0.574878
v -0.349842 0.316548 0.454494
v -0.333131 0.219554 0.571531
v -0.316408 0.256354 0.541432
v -0.369904 0.296477 0.467882
v -0.346489 0.256354 0.461188
v -0.336471 0.299810 0.561490
v -0.306364 0.316548 0.574878
v -0.316408 0.219554 0.564837
v -0.359873 0.219554 0.497981
v -0.309716 0.256354 0.561490
vn 0.9299 -0.1973 -0.3103
vn 0.0000 0.0000 -1.0000
vn -0.0000 1.0000 -0.0000
vn 0.0000 -1.0000 0.0000
vn -0.1962 -0.0203 0.9804
vn -0.9981 0.0345 0.0517
vn 0.6649 -0.0459 -0.7455
vn 0.9303 0.0111 -0.3666
vn 0.9196 -0.1883 -0.3447
vn 0.9362 -0.0198 -0.3509
vn -0.9029 0.2803 0.3260
vn -0.8214 0.0370 0.5691
vn -0.9222 0.2146 0.3217
vn 0.0000 0.0000 1.0000
vn 0.9183 -0.2124 -0.3340
vn -0.9557 -0.0095 0.2941
vn -0.9398 0.0036 0.3417
vn -0.9418 0.0087 0.3361
vn 0.9480 -0.0352 -0.3163
vn 0.9985 -0.0556 0.0000
vn 0.9726 -0.1007 0.2093
vn 0.9839 -0.1789 0.0000
usemtl Shape.14105
s off
f 14//1 9//1 16//1
f 3//2 2//2 4//2
f 4//3 1//3 5//3
f 2//4 3//4 6//4
f 3//2 4//2 7//2
f 4//3 5//3 7//3
f 2//4 6//4 8//4
f 6//5 1//5 8//5
f 4//6 2//6 10//6
f 3//7 7//7 11//7
f 7//8 5//8 11//8
f 9//9 3//9 11//9
f 5//10 9//10 11//10
f 1//11 4//11 12//11
f 8//12 1//12 12//12
f 4//13 10//13 12//13
f 5//3 1//3 13//3
f 1//14 6//14 13//14
f 6//4 3//4 14//4
f 3//15 9//15 14//15
f 2//4 8//4 15//4
f 10//16 2//16 15//16
f 8//17 12//17 15//17
f 12//18 10//18 15//18
f 9//19 5//19 16//19
f 5//20 13//20 16//20
f 13//21 6//21 16//21
f 6//22 14//22 16//22
