# Blender v2.79 (sub 0) OBJ File: ''
# www.blender.org
mtllib 102699_link_2_25.mtl
o Shape_IndexedFaceSet.025_Shape_IndexedFaceSet.3602
v 0.140056 -0.172633 -0.358097
v 0.001461 -0.185491 -0.426341
v 0.001461 -0.177834 -0.426341
v 0.094766 -0.174996 -0.275122
v 0.131392 -0.246633 -0.281113
v 0.001461 -0.246633 -0.342269
v 0.093190 -0.246633 -0.372819
v 0.001461 -0.177834 -0.365171
v 0.096368 -0.172112 -0.411642
v 0.146703 -0.177834 -0.281113
v 0.001461 -0.238976 -0.395749
v 0.085527 -0.246633 -0.281113
vn -0.5883 0.0082 0.8086
vn -1.0000 -0.0000 -0.0000
vn 0.8230 -0.4530 -0.3428
vn 0.0000 -1.0000 0.0000
vn -0.6792 0.2318 0.6964
vn 0.1531 0.0000 -0.9882
vn -0.0138 0.9997 0.0210
vn 0.1988 -0.4595 -0.8657
vn 0.7266 -0.3416 -0.5962
vn -0.0602 0.9982 0.0000
vn -0.0502 0.9985 0.0205
vn 0.0616 0.9962 0.0620
vn 0.9714 -0.2162 -0.0985
vn 0.1132 -0.0252 0.9933
vn 0.1729 -0.4890 -0.8550
vn -0.0472 -0.9888 -0.1416
vn 0.0000 -0.0833 0.9965
usemtl Shape.3607
s off
f 4//1 6//1 12//1
f 3//2 2//2 6//2
f 1//3 5//3 7//3
f 5//4 6//4 7//4
f 3//2 6//2 8//2
f 6//5 4//5 8//5
f 2//6 3//6 9//6
f 4//7 1//7 9//7
f 7//8 2//8 9//8
f 1//9 7//9 9//9
f 3//10 8//10 9//10
f 8//11 4//11 9//11
f 1//12 4//12 10//12
f 5//13 1//13 10//13
f 4//14 5//14 10//14
f 6//2 2//2 11//2
f 2//15 7//15 11//15
f 7//16 6//16 11//16
f 5//17 4//17 12//17
f 6//4 5//4 12//4
