# Blender v2.79 (sub 0) OBJ File: ''
# www.blender.org
mtllib 102699_link_1_71.mtl
o Shape_IndexedFaceSet.071_Shape_IndexedFaceSet.15276
v 0.525768 0.221287 -0.374781
v 0.516627 0.266982 -0.376957
v 0.517063 0.262629 -0.376957
v 0.517933 0.263933 -0.373910
v 0.522720 0.212145 -0.376086
v 0.520109 0.266982 -0.376957
v 0.524897 0.212145 -0.376957
v 0.520545 0.269158 -0.374345
v 0.523591 0.212145 -0.373910
v 0.525768 0.212145 -0.373910
v 0.522285 0.214321 -0.376957
v 0.524461 0.225203 -0.376957
v 0.517499 0.270036 -0.373910
v 0.519675 0.270036 -0.376957
v 0.516627 0.268285 -0.376086
v 0.525768 0.222154 -0.374345
v 0.516627 0.270036 -0.376957
vn -1.0000 0.0000 0.0000
vn 0.0000 0.0000 -1.0000
vn 0.9623 0.1073 -0.2500
vn -0.9236 -0.1009 0.3697
vn 0.0000 -1.0000 0.0000
vn 0.9612 -0.0262 -0.2748
vn 0.0000 0.0000 1.0000
vn -0.3393 -0.4072 -0.8480
vn 0.9200 0.0958 -0.3801
vn 0.8793 0.0294 -0.4753
vn 0.1473 0.0210 0.9889
vn 0.9528 0.1354 -0.2718
vn 0.2986 0.9303 0.2132
vn -0.9841 -0.0986 0.1475
vn -0.9291 -0.1008 0.3559
vn -0.9749 -0.1054 0.1963
vn -0.9695 -0.1052 0.2213
vn -0.9073 -0.0645 0.4155
vn 0.9707 0.1079 -0.2145
vn 1.0000 0.0000 0.0000
vn 0.3640 0.0404 0.9305
vn 0.0000 1.0000 0.0000
vn -0.9525 0.1356 0.2726
usemtl Shape.15288
s off
f 2//1 15//1 17//1
f 3//2 2//2 6//2
f 3//2 6//2 7//2
f 1//3 6//3 8//3
f 4//4 5//4 9//4
f 5//5 7//5 9//5
f 7//6 1//6 10//6
f 4//7 9//7 10//7
f 9//5 7//5 10//5
f 7//8 5//8 11//8
f 3//2 7//2 11//2
f 6//9 1//9 12//9
f 1//10 7//10 12//10
f 7//2 6//2 12//2
f 4//7 10//7 13//7
f 10//11 8//11 13//11
f 6//2 2//2 14//2
f 8//12 6//12 14//12
f 13//13 8//13 14//13
f 2//14 3//14 15//14
f 5//15 4//15 15//15
f 3//16 11//16 15//16
f 11//17 5//17 15//17
f 4//18 13//18 15//18
f 1//19 8//19 16//19
f 10//20 1//20 16//20
f 8//21 10//21 16//21
f 14//2 2//2 17//2
f 13//22 14//22 17//22
f 15//23 13//23 17//23
