# Blender v2.79 (sub 0) OBJ File: ''
# www.blender.org
mtllib 102699_link_0_33.mtl
o Shape_IndexedFaceSet.033_Shape_IndexedFaceSet.14066
v 0.208724 0.192797 0.738761
v 0.282293 0.259679 0.681931
v 0.282293 0.199489 0.681931
v 0.278931 0.202835 0.638438
v 0.176141 0.288768 0.778859
v 0.212065 0.199489 0.778913
v 0.278931 0.286447 0.655186
v 0.205382 0.286447 0.775544
v 0.178627 0.196143 0.775544
v 0.278931 0.286447 0.685272
v 0.278931 0.259679 0.641807
v 0.175275 0.256342 0.775544
v 0.282293 0.192797 0.671907
v 0.201659 0.293896 0.747421
v 0.275589 0.196143 0.641807
v 0.283400 0.198658 0.636985
v 0.282293 0.286447 0.655186
v 0.212065 0.212872 0.778913
v 0.215417 0.196143 0.772216
vn 0.0764 -0.9935 0.0841
vn 0.8099 0.0000 0.5865
vn -0.0964 -0.0382 0.9946
vn -0.7779 -0.0433 0.6269
vn -0.7886 0.0833 -0.6092
vn 0.1040 0.9647 0.2418
vn 0.2631 0.9407 0.2143
vn -0.7801 0.1282 -0.6123
vn -0.7156 0.3123 -0.6248
vn -0.6231 -0.6385 -0.4518
vn -0.7473 0.0393 -0.6633
vn -0.8088 -0.0450 -0.5864
vn -0.7902 0.0416 -0.6114
vn -0.0834 -0.9923 -0.0917
vn 0.2148 -0.9643 -0.1550
vn 0.9997 0.0000 0.0246
vn -0.2600 0.0571 -0.9639
vn 0.9990 -0.0379 0.0253
vn -0.4672 -0.2003 -0.8612
vn 0.8997 0.0995 -0.4251
vn 0.9878 0.1103 0.1104
vn 0.0000 0.4471 -0.8945
vn 0.0000 0.9968 -0.0805
vn 0.1053 0.9944 0.0118
vn 0.9999 0.0104 0.0105
vn -0.0015 0.0000 1.0000
vn 0.1169 0.0560 0.9916
vn 0.8035 0.0267 0.5947
vn 0.7715 0.0989 0.6285
vn 0.7615 -0.3408 0.5514
vn 0.0088 -0.9952 0.0978
vn 0.0419 -0.8852 0.4633
vn 0.6205 -0.6522 0.4354
usemtl Shape.14070
s off
f 1//1 13//1 19//1
f 3//2 2//2 6//2
f 6//3 5//3 9//3
f 9//4 5//4 12//4
f 5//5 11//5 12//5
f 5//6 8//6 14//6
f 8//7 10//7 14//7
f 11//8 5//8 14//8
f 7//9 11//9 14//9
f 1//10 9//10 15//10
f 11//11 4//11 15//11
f 9//12 12//12 15//12
f 12//13 11//13 15//13
f 13//14 1//14 15//14
f 13//15 15//15 16//15
f 2//16 3//16 16//16
f 4//17 11//17 16//17
f 3//18 13//18 16//18
f 15//19 4//19 16//19
f 16//20 11//20 17//20
f 10//21 2//21 17//21
f 11//22 7//22 17//22
f 7//23 14//23 17//23
f 14//24 10//24 17//24
f 2//25 16//25 17//25
f 6//2 2//2 18//2
f 5//26 6//26 18//26
f 8//27 5//27 18//27
f 2//28 10//28 18//28
f 10//29 8//29 18//29
f 3//30 6//30 19//30
f 9//31 1//31 19//31
f 6//32 9//32 19//32
f 13//33 3//33 19//33
