# Blender v2.79 (sub 0) OBJ File: ''
# www.blender.org
mtllib 102699_link_1_49.mtl
o Shape_IndexedFaceSet.049_Shape_IndexedFaceSet.15254
v 0.517062 0.261765 -0.445743
v 0.519673 0.273519 -0.439649
v 0.518368 0.273519 -0.439649
v 0.520979 0.258720 -0.439649
v 0.521415 0.260895 -0.445743
v 0.520979 0.250010 -0.445743
v 0.517062 0.256106 -0.444872
v 0.517062 0.270468 -0.439649
v 0.517062 0.271340 -0.442696
v 0.521415 0.270903 -0.440085
v 0.520109 0.270033 -0.443131
v 0.521415 0.250447 -0.444872
v 0.521415 0.258720 -0.439649
vn 0.0000 -0.5339 0.8456
vn 0.0000 0.0000 1.0000
vn 0.0000 0.0000 -1.0000
vn -0.4153 -0.1384 -0.8991
vn -1.0000 0.0000 0.0000
vn -0.7158 -0.2387 0.6563
vn 0.0000 0.8134 -0.5816
vn -0.9136 0.3910 0.1119
vn 0.0563 0.2818 -0.9578
vn 0.2051 0.7044 -0.6795
vn -0.0059 0.3032 -0.9529
vn 0.7033 0.5445 -0.4571
vn 0.8622 0.2493 -0.4409
vn 0.9008 -0.0361 -0.4328
vn -0.5893 -0.4533 0.6688
vn -0.6486 -0.4988 0.5749
vn 1.0000 0.0000 0.0000
vn 0.2907 0.0342 0.9562
usemtl Shape.15266
s off
f 4//1 12//1 13//1
f 2//2 3//2 4//2
f 1//3 5//3 6//3
f 1//4 6//4 7//4
f 4//2 3//2 8//2
f 1//5 7//5 8//5
f 7//6 4//6 8//6
f 3//7 2//7 9//7
f 1//5 8//5 9//5
f 8//8 3//8 9//8
f 5//9 1//9 11//9
f 9//10 2//10 11//10
f 1//11 9//11 11//11
f 2//12 10//12 11//12
f 10//13 5//13 11//13
f 6//14 5//14 12//14
f 4//15 7//15 12//15
f 7//16 6//16 12//16
f 5//17 10//17 12//17
f 12//17 10//17 13//17
f 2//2 4//2 13//2
f 10//18 2//18 13//18
