# Blender v2.79 (sub 0) OBJ File: ''
# www.blender.org
mtllib 102699_link_2_64.mtl
o Shape_IndexedFaceSet.064_Shape_IndexedFaceSet.3641
v -0.327233 0.273169 -0.258155
v -0.227869 0.219685 -0.174087
v -0.235526 0.219685 -0.166452
v -0.220467 0.325134 -0.246787
v -0.357798 0.319038 -0.197025
v -0.357835 0.212007 -0.128181
v -0.227869 0.227331 -0.258155
v -0.357798 0.212038 -0.212295
v -0.297078 0.324956 -0.289107
v -0.364619 0.324655 -0.254916
v -0.227869 0.319038 -0.288727
v -0.266104 0.212038 -0.242868
v -0.232842 0.209532 -0.164483
v -0.342522 0.219685 -0.128228
vn 0.2378 -0.4690 0.8506
vn 0.6466 0.4017 0.6485
vn 0.9972 -0.0747 -0.0068
vn -0.0088 0.9952 0.0976
vn -0.9890 0.0803 0.1243
vn -0.5218 -0.3294 -0.7869
vn -0.9982 -0.0606 -0.0005
vn -0.4350 -0.2617 -0.8616
vn -0.0034 1.0000 0.0020
vn 0.9846 -0.0553 -0.1657
vn 0.0850 0.9838 -0.1580
vn -0.0218 -0.3162 -0.9484
vn -0.2767 -0.4843 -0.8300
vn -0.1950 -0.4170 -0.8877
vn -0.1892 -0.4161 -0.8894
vn 0.6717 0.3082 0.6736
vn 0.8806 -0.4719 -0.0429
vn -0.0199 -0.9998 -0.0004
vn 0.3101 -0.9369 -0.1616
vn -0.0093 -0.9996 -0.0280
vn 0.2796 0.5563 0.7826
vn 0.2556 0.5766 0.7760
vn -0.2595 0.5225 0.8122
vn 0.3247 0.2621 0.9088
usemtl Shape.3646
s off
f 6//1 13//1 14//1
f 3//2 2//2 4//2
f 4//3 2//3 7//3
f 5//4 4//4 10//4
f 6//5 5//5 10//5
f 1//6 8//6 10//6
f 8//7 6//7 10//7
f 9//8 1//8 10//8
f 4//9 9//9 10//9
f 4//10 7//10 11//10
f 9//11 4//11 11//11
f 7//12 9//12 11//12
f 8//13 1//13 12//13
f 1//14 9//14 12//14
f 9//15 7//15 12//15
f 2//16 3//16 13//16
f 7//17 2//17 13//17
f 6//18 8//18 13//18
f 12//19 7//19 13//19
f 8//20 12//20 13//20
f 3//21 4//21 14//21
f 4//22 5//22 14//22
f 5//23 6//23 14//23
f 13//24 3//24 14//24
