# Blender v2.79 (sub 0) OBJ File: ''
# www.blender.org
mtllib 102699_link_2_51.mtl
o Shape_IndexedFaceSet.051_Shape_IndexedFaceSet.3628
v -0.235514 -0.307776 0.307500
v -0.182003 -0.338356 0.154651
v -0.189648 -0.254291 0.147000
v -0.182003 -0.246642 0.307500
v -0.238735 -0.241810 0.197693
v -0.189648 -0.330706 0.307500
v -0.227869 -0.338356 0.200510
v -0.172790 -0.244289 0.142883
v -0.174359 -0.338356 0.215797
v -0.227869 -0.246642 0.307500
v -0.235514 -0.338356 0.307500
v -0.222193 -0.240739 0.162560
vn 0.0791 0.9967 0.0187
vn -0.0000 0.0000 1.0000
vn -0.1766 -0.1051 -0.9786
vn 0.9812 -0.0892 0.1710
vn 0.0000 -1.0000 0.0000
vn 0.9860 -0.1120 -0.1233
vn 0.9981 0.0269 0.0562
vn -0.9870 0.1234 0.1031
vn 0.0000 0.9990 0.0440
vn -0.9996 0.0000 0.0293
vn -0.9910 -0.1136 -0.0708
vn 0.1635 -0.9805 0.1091
vn -0.4691 -0.1223 -0.8746
vn 0.0137 0.9992 0.0369
vn -0.6885 -0.2277 -0.6886
vn -0.8976 -0.1134 -0.4261
vn -0.3485 0.2115 -0.9131
usemtl Shape.3633
s off
f 4//1 8//1 12//1
f 4//2 1//2 6//2
f 2//3 3//3 8//3
f 4//4 6//4 9//4
f 7//5 2//5 9//5
f 2//6 8//6 9//6
f 8//7 4//7 9//7
f 1//2 4//2 10//2
f 5//8 1//8 10//8
f 4//9 5//9 10//9
f 1//10 5//10 11//10
f 6//2 1//2 11//2
f 5//11 7//11 11//11
f 9//12 6//12 11//12
f 7//5 9//5 11//5
f 3//13 2//13 12//13
f 5//14 4//14 12//14
f 2//15 7//15 12//15
f 7//16 5//16 12//16
f 8//17 3//17 12//17
