# Blender v2.79 (sub 0) OBJ File: ''
# www.blender.org
mtllib 102699_link_0_56.mtl
o Shape_IndexedFaceSet.056_Shape_IndexedFaceSet.14089
v 0.349186 0.303148 0.033057
v 0.349186 0.303148 0.029708
v 0.299017 0.303148 -0.043867
v 0.309059 0.202842 0.026359
v 0.329115 0.199505 -0.007094
v 0.312399 0.303148 -0.057244
v 0.329115 0.303148 0.029708
v 0.339143 0.199505 0.033057
v 0.302366 0.276403 -0.067282
v 0.299017 0.196156 -0.000395
v 0.322432 0.286438 -0.040517
v 0.299017 0.196156 -0.043867
v 0.315748 0.206191 0.033057
v 0.332455 0.192807 0.019670
v 0.299017 0.303148 -0.067282
vn -0.8629 -0.1080 -0.4937
vn -0.0000 1.0000 0.0000
vn -0.9121 0.1699 0.3731
vn 0.9953 -0.0964 0.0000
vn 0.9652 -0.1013 -0.2411
vn -0.9385 0.1299 0.3198
vn 0.9375 -0.0598 -0.3429
vn 0.9090 0.1608 -0.3846
vn 0.8173 -0.1510 -0.5561
vn 0.8126 -0.0887 -0.5760
vn 0.7660 -0.2093 -0.6079
vn -1.0000 0.0000 0.0000
vn -0.1643 0.0567 0.9848
vn -0.7324 0.1241 0.6694
vn -0.2193 -0.7673 0.6026
vn 0.0000 0.0000 1.0000
vn -0.2075 -0.8294 0.5186
vn 0.8731 -0.4360 -0.2181
vn -0.2897 -0.8973 0.3330
vn 0.4252 -0.8641 -0.2693
vn -0.0997 -0.9950 0.0000
vn 0.5984 0.0749 -0.7977
usemtl Shape.14093
s off
f 9//1 12//1 15//1
f 1//2 2//2 3//2
f 3//2 2//2 6//2
f 1//2 3//2 7//2
f 3//3 4//3 7//3
f 2//4 1//4 8//4
f 5//5 2//5 8//5
f 4//6 3//6 10//6
f 2//7 5//7 11//7
f 6//8 2//8 11//8
f 5//9 9//9 11//9
f 9//10 6//10 11//10
f 9//11 5//11 12//11
f 10//12 3//12 12//12
f 1//13 7//13 13//13
f 7//14 4//14 13//14
f 4//15 8//15 13//15
f 8//16 1//16 13//16
f 8//17 4//17 14//17
f 5//18 8//18 14//18
f 4//19 10//19 14//19
f 12//20 5//20 14//20
f 10//21 12//21 14//21
f 3//2 6//2 15//2
f 6//22 9//22 15//22
f 12//12 3//12 15//12
