# Blender v2.79 (sub 0) OBJ File: ''
# www.blender.org
mtllib 102699_link_0_31.mtl
o Shape_IndexedFaceSet.031_Shape_IndexedFaceSet.14064
v -0.202667 0.386771 0.484643
v -0.112375 0.319903 0.785602
v -0.115735 0.319903 0.785602
v -0.206009 0.343316 0.558211
v -0.112375 0.383432 0.484643
v -0.209350 0.326589 0.722022
v -0.132453 0.380085 0.578275
v -0.112375 0.316548 0.745415
v -0.209350 0.316548 0.691912
v -0.112375 0.396812 0.487972
v -0.209350 0.366705 0.484643
v -0.159206 0.393465 0.514724
v -0.119077 0.333283 0.755462
v -0.182598 0.333283 0.725351
v -0.189291 0.316548 0.752103
v -0.112375 0.366705 0.638408
v -0.209350 0.383432 0.498019
v -0.112375 0.380085 0.491331
v -0.209350 0.333283 0.701958
v -0.115735 0.319903 0.725351
v -0.165880 0.396812 0.484643
v -0.179256 0.319903 0.758791
v -0.206009 0.319903 0.671848
v -0.189291 0.390118 0.498019
vn -0.1914 0.9699 0.1504
vn 1.0000 0.0000 0.0000
vn 0.0000 0.0000 -1.0000
vn -1.0000 0.0000 0.0000
vn -0.8517 -0.5094 -0.1233
vn 0.0386 0.9810 0.1903
vn 0.0000 0.9140 0.4057
vn 0.0000 -0.9950 0.0997
vn 0.0072 -0.9965 0.0832
vn -0.6885 -0.6880 0.2294
vn 0.0000 -1.0000 0.0000
vn 0.0656 0.9784 0.1958
vn -0.1316 0.9574 0.2570
vn 0.4751 0.8386 0.2666
vn -0.1355 0.9565 0.2583
vn -0.1259 0.9558 0.2657
vn -0.8824 0.2939 -0.3675
vn 0.1524 -0.8838 -0.4423
vn 0.1508 -0.9401 -0.3057
vn -0.2667 0.9142 0.3050
vn -0.2152 0.9450 0.2461
vn 0.2005 -0.9495 -0.2413
vn 0.4327 -0.8746 -0.2187
vn 0.0603 0.2410 -0.9687
vn -0.0070 0.9937 0.1121
vn -0.1754 0.8925 0.4156
vn -0.2688 0.8847 0.3809
vn -0.1805 0.9068 0.3809
vn -0.3225 -0.5586 0.7642
vn -0.5778 0.5765 0.5777
vn -0.2226 -0.9549 -0.1967
vn 0.0832 -0.9850 -0.1509
vn 0.1188 -0.9725 -0.2004
vn 0.1075 -0.9775 -0.1815
vn -0.3152 0.9458 0.0786
vn -0.2375 0.9415 0.2390
vn -0.3079 0.9239 0.2272
vn -0.2633 0.9645 0.0219
usemtl Shape.14068
s off
f 12//1 21//1 24//1
f 5//2 2//2 8//2
f 2//2 5//2 10//2
f 1//3 5//3 11//3
f 9//4 6//4 11//4
f 4//5 9//5 11//5
f 7//6 10//6 12//6
f 3//7 2//7 13//7
f 2//8 3//8 15//8
f 8//9 2//9 15//9
f 6//10 9//10 15//10
f 9//11 8//11 15//11
f 2//2 10//2 16//2
f 10//12 7//12 16//12
f 7//13 12//13 16//13
f 13//14 2//14 16//14
f 12//15 14//15 16//15
f 14//16 13//16 16//16
f 1//17 11//17 17//17
f 11//4 6//4 17//4
f 5//2 8//2 18//2
f 11//18 5//18 18//18
f 4//19 11//19 18//19
f 6//20 14//20 19//20
f 14//21 12//21 19//21
f 17//4 6//4 19//4
f 4//22 18//22 20//22
f 18//23 8//23 20//23
f 5//3 1//3 21//3
f 10//24 5//24 21//24
f 12//25 10//25 21//25
f 3//26 13//26 22//26
f 14//27 6//27 22//27
f 13//28 14//28 22//28
f 15//29 3//29 22//29
f 6//30 15//30 22//30
f 9//31 4//31 23//31
f 8//32 9//32 23//32
f 4//33 20//33 23//33
f 20//34 8//34 23//34
f 1//35 17//35 24//35
f 19//36 12//36 24//36
f 17//37 19//37 24//37
f 21//38 1//38 24//38
