# Blender v2.79 (sub 0) OBJ File: ''
# www.blender.org
mtllib 102699_link_0_77.mtl
o Shape_IndexedFaceSet.077_Shape_IndexedFaceSet.14110
v -0.329782 0.239632 0.039760
v -0.329782 0.232938 0.039760
v -0.363217 0.273064 0.217013
v -0.333127 0.286447 0.029713
v -0.386635 0.232938 0.217013
v -0.383285 0.286447 0.190245
v -0.353194 0.286447 0.036405
v -0.346505 0.232938 0.033068
v -0.369907 0.232938 0.217013
v -0.373251 0.232938 0.123363
v -0.369907 0.286447 0.217013
v -0.366562 0.266370 0.079893
v -0.339816 0.286447 0.083248
v -0.386635 0.276406 0.217013
v -0.349850 0.232938 0.140083
v -0.366562 0.286447 0.079893
vn -0.9884 0.0000 -0.1521
vn 0.9827 0.0000 0.1854
vn 0.9488 0.0000 -0.3159
vn -0.0000 1.0000 -0.0000
vn 0.3674 -0.1494 -0.9180
vn 0.0000 -1.0000 0.0000
vn -0.3163 0.0196 -0.9485
vn 0.0000 0.0000 1.0000
vn -0.9899 -0.0088 -0.1415
vn -0.9380 -0.0965 -0.3329
vn -0.9441 -0.1747 -0.2796
vn 0.9832 0.0466 0.1767
vn 0.9876 0.0970 0.1234
vn 0.8769 0.4383 0.1973
vn -0.9923 0.0000 -0.1242
vn -0.4984 0.8304 0.2491
vn 0.9794 -0.0493 0.1959
vn 0.9553 -0.1593 0.2491
vn -0.9887 0.0019 -0.1498
vn -0.9559 0.0000 -0.2938
usemtl Shape.14114
s off
f 12//1 10//1 16//1
f 2//2 1//2 3//2
f 1//3 2//3 4//3
f 6//4 4//4 7//4
f 4//5 2//5 8//5
f 2//6 5//6 8//6
f 7//7 4//7 8//7
f 5//6 2//6 9//6
f 3//8 5//8 9//8
f 5//9 6//9 10//9
f 8//6 5//6 10//6
f 5//8 3//8 11//8
f 4//4 6//4 11//4
f 7//10 8//10 12//10
f 8//11 10//11 12//11
f 3//12 1//12 13//12
f 1//13 4//13 13//13
f 11//14 3//14 13//14
f 4//4 11//4 13//4
f 6//15 5//15 14//15
f 5//8 11//8 14//8
f 11//16 6//16 14//16
f 2//17 3//17 15//17
f 9//6 2//6 15//6
f 3//18 9//18 15//18
f 6//4 7//4 16//4
f 10//19 6//19 16//19
f 7//20 12//20 16//20
