# Blender v2.79 (sub 0) OBJ File: ''
# www.blender.org
mtllib 102699_link_1_94.mtl
o Shape_IndexedFaceSet.094_Shape_IndexedFaceSet.15299
v 0.523591 0.232157 -0.352577
v 0.520110 0.236946 -0.348659
v 0.520110 0.236946 -0.348224
v 0.520545 0.218664 -0.348659
v 0.524027 0.227809 -0.348224
v 0.522286 0.219101 -0.352577
v 0.520545 0.237820 -0.352577
v 0.524898 0.218664 -0.350835
v 0.523156 0.237383 -0.348659
v 0.523156 0.218664 -0.348224
v 0.524898 0.221713 -0.352577
v 0.522286 0.237820 -0.352577
v 0.520545 0.234334 -0.352577
vn 0.0002 0.0000 -1.0000
vn -0.9997 -0.0238 0.0000
vn -0.8949 0.4462 0.0000
vn -0.0000 0.0000 -1.0000
vn -0.0708 -0.9874 -0.1416
vn 0.1331 0.0571 0.9895
vn -0.1137 0.9762 0.1847
vn -0.1643 -0.0274 0.9860
vn 0.0000 0.0000 1.0000
vn 0.8293 -0.0790 0.5533
vn 0.0000 -1.0000 0.0000
vn 0.9919 0.0630 0.1103
vn 0.4444 -0.4444 -0.7778
vn 0.9933 0.0934 0.0679
vn 0.9907 0.1240 -0.0554
vn 0.9571 0.2206 -0.1879
vn 0.0000 0.9938 0.1108
vn -0.9952 -0.0237 -0.0947
vn -0.9046 -0.1034 -0.4135
vn -0.9939 0.0000 -0.1103
usemtl Shape.15311
s off
f 7//1 6//1 13//1
f 3//2 2//2 4//2
f 2//3 3//3 7//3
f 1//4 6//4 7//4
f 4//5 6//5 8//5
f 3//6 5//6 9//6
f 7//7 3//7 9//7
f 3//8 4//8 10//8
f 5//9 3//9 10//9
f 8//10 5//10 10//10
f 4//11 8//11 10//11
f 6//4 1//4 11//4
f 5//12 8//12 11//12
f 8//13 6//13 11//13
f 9//14 5//14 11//14
f 1//15 9//15 11//15
f 1//4 7//4 12//4
f 9//16 1//16 12//16
f 7//17 9//17 12//17
f 4//18 2//18 13//18
f 6//19 4//19 13//19
f 2//20 7//20 13//20
