# Blender v2.79 (sub 0) OBJ File: ''
# www.blender.org
mtllib 102699_link_2_73.mtl
o Shape_IndexedFaceSet.073_Shape_IndexedFaceSet.3650
v 0.139047 -0.453059 -0.005891
v 0.100738 -0.383378 0.117060
v 0.077904 -0.567677 0.116407
v 0.077904 -0.391898 -0.013541
v 0.131536 -0.568309 0.116881
v 0.145180 -0.388292 -0.018158
v 0.077904 -0.445410 -0.021191
v 0.146697 -0.468340 0.116407
v 0.077904 -0.460691 0.116407
v 0.077243 -0.569440 0.102134
v 0.146697 -0.430128 -0.021191
v 0.146697 -0.384249 0.108743
vn 0.9992 0.0372 -0.0131
vn -0.0089 -0.0024 1.0000
vn -0.0572 0.9968 -0.0550
vn -0.0753 0.1411 -0.9871
vn 0.0179 0.0020 0.9998
vn -0.0286 0.0000 0.9996
vn -0.9489 0.2790 0.1477
vn -1.0000 0.0057 0.0030
vn 0.1956 -0.7209 -0.6648
vn -0.0128 -0.9923 0.1232
vn -1.0000 0.0007 -0.0047
vn 0.0888 -0.7025 -0.7061
vn -0.9989 0.0000 0.0463
vn 0.6953 -0.5448 -0.4689
vn 0.1288 -0.5798 -0.8045
vn -0.0159 0.0717 -0.9973
vn 0.9878 -0.1500 -0.0417
vn 1.0000 -0.0000 0.0000
vn 0.0131 0.9994 -0.0320
vn 0.1790 0.0893 0.9798
usemtl Shape.3655
s off
f 11//1 6//1 12//1
f 2//2 3//2 5//2
f 4//3 2//3 6//3
f 4//4 6//4 7//4
f 2//5 5//5 8//5
f 3//6 2//6 9//6
f 2//7 4//7 9//7
f 9//8 4//8 10//8
f 1//9 5//9 10//9
f 5//10 3//10 10//10
f 4//11 7//11 10//11
f 7//12 1//12 10//12
f 3//13 9//13 10//13
f 5//14 1//14 11//14
f 1//15 7//15 11//15
f 7//16 6//16 11//16
f 8//17 5//17 11//17
f 8//18 11//18 12//18
f 6//19 2//19 12//19
f 2//20 8//20 12//20
