# Blender v2.79 (sub 0) OBJ File: ''
# www.blender.org
mtllib 102699_link_2_53.mtl
o Shape_IndexedFaceSet.053_Shape_IndexedFaceSet.3630
v -0.082627 -0.246664 0.605645
v 0.001461 -0.544726 0.735598
v -0.006194 -0.544726 0.735598
v -0.074972 -0.559997 0.674438
v 0.001461 -0.254331 0.620935
v -0.082627 -0.261966 0.659173
v -0.082627 -0.567664 0.727953
v 0.001461 -0.567664 0.689715
v 0.001461 -0.246664 0.666805
v -0.074972 -0.277237 0.605645
v -0.044394 -0.254331 0.666805
v -0.082627 -0.567664 0.682070
vn -0.5907 -0.1908 -0.7841
vn -1.0000 0.0000 0.0000
vn 0.0000 -0.3162 0.9487
vn 1.0000 0.0000 -0.0000
vn 0.1993 -0.8765 0.4382
vn 0.0000 0.2249 0.9744
vn 0.1191 0.9793 -0.1637
vn 0.1827 0.0458 -0.9821
vn 0.1681 -0.2330 -0.9578
vn 0.2513 -0.2075 -0.9454
vn -0.2397 0.9335 0.2668
vn -0.2321 0.2135 0.9490
vn -0.1589 0.2077 0.9652
vn -0.0377 0.2256 0.9735
vn -0.1608 0.9619 0.2211
vn 0.0615 -0.7343 -0.6760
vn 0.0000 -1.0000 0.0000
vn -0.6791 -0.1700 -0.7141
usemtl Shape.3635
s off
f 10//1 4//1 12//1
f 6//2 1//2 7//2
f 2//3 3//3 7//3
f 5//4 2//4 8//4
f 2//5 7//5 8//5
f 3//6 2//6 9//6
f 5//7 1//7 9//7
f 2//4 5//4 9//4
f 1//8 5//8 10//8
f 8//9 4//9 10//9
f 5//10 8//10 10//10
f 1//11 6//11 11//11
f 6//12 7//12 11//12
f 7//13 3//13 11//13
f 3//14 9//14 11//14
f 9//15 1//15 11//15
f 7//2 1//2 12//2
f 4//16 8//16 12//16
f 8//17 7//17 12//17
f 1//18 10//18 12//18
