# Blender v2.79 (sub 0) OBJ File: ''
# www.blender.org
mtllib 102699_link_2_104.mtl
o Shape_IndexedFaceSet.104_Shape_IndexedFaceSet.3681
v 0.422910 0.135081 0.457563
v 0.521276 0.120302 -0.181651
v 0.521276 0.135580 -0.204537
v 0.327815 0.110573 0.617421
v 0.484614 0.151430 -0.318303
v 0.329288 0.152645 0.602794
v 0.483042 0.112655 -0.303936
v 0.448864 0.147872 0.339816
v 0.415996 0.114803 0.490417
v 0.521276 0.150869 -0.235085
v 0.520013 0.112918 -0.297202
v 0.339303 0.150559 0.658861
v 0.475410 0.143223 -0.296275
v 0.481455 0.115537 0.139831
v 0.338716 0.112843 0.669525
v 0.401916 0.149043 0.523839
vn 0.9182 -0.0090 0.3961
vn 0.9759 0.0191 0.2172
vn 1.0000 0.0000 0.0000
vn 0.0132 0.9999 0.0009
vn 0.9619 0.2446 0.1224
vn 0.1704 -0.3484 -0.9217
vn 0.0073 -1.0000 -0.0010
vn 0.0634 -0.9979 0.0108
vn 0.9998 -0.0172 -0.0098
vn 0.7778 0.5292 -0.3391
vn -0.9792 0.0963 0.1785
vn -0.9869 -0.0211 -0.1602
vn -0.8240 0.5492 -0.1397
vn -0.8995 -0.1193 -0.4203
vn -0.9660 -0.2003 -0.1632
vn 0.9749 0.1850 0.1235
vn 0.9700 0.2088 0.1243
vn 0.9732 -0.1411 0.1814
vn 0.0818 -0.9966 0.0132
vn 0.5037 -0.8625 0.0496
vn 0.0847 -0.9961 0.0257
vn -0.9769 0.0721 0.2012
vn 0.9027 0.1040 0.4175
vn 0.9304 0.2807 0.2356
vn 0.9533 0.1224 0.2762
vn 0.0628 0.9979 0.0123
vn 0.0893 0.9959 0.0164
vn 0.0752 0.9969 0.0237
usemtl Shape.3686
s off
f 15//1 9//1 16//1
f 8//2 1//2 9//2
f 3//3 2//3 10//3
f 5//4 6//4 10//4
f 8//5 3//5 10//5
f 7//6 5//6 11//6
f 4//7 7//7 11//7
f 9//8 4//8 11//8
f 10//9 2//9 11//9
f 5//10 10//10 11//10
f 6//11 4//11 12//11
f 4//12 6//12 13//12
f 6//13 5//13 13//13
f 5//14 7//14 13//14
f 7//15 4//15 13//15
f 2//16 3//16 14//16
f 3//17 8//17 14//17
f 8//18 9//18 14//18
f 9//19 11//19 14//19
f 11//20 2//20 14//20
f 4//21 9//21 15//21
f 12//22 4//22 15//22
f 12//23 15//23 16//23
f 1//24 8//24 16//24
f 9//25 1//25 16//25
f 10//26 6//26 16//26
f 8//27 10//27 16//27
f 6//28 12//28 16//28
