# Blender v2.79 (sub 0) OBJ File: ''
# www.blender.org
mtllib 102699_link_1_22.mtl
o Shape_IndexedFaceSet.022_Shape_IndexedFaceSet.15227
v 0.518368 0.235204 -0.340389
v 0.504873 0.206039 -0.352575
v 0.504873 0.206039 -0.349529
v 0.504873 0.237820 -0.342565
v 0.518368 0.206478 -0.352575
v 0.518368 0.206913 -0.349092
v 0.518368 0.237820 -0.342565
v 0.504873 0.237381 -0.339952
v 0.512706 0.234336 -0.340389
v 0.504873 0.209523 -0.351705
v 0.504873 0.217798 -0.345613
v 0.517494 0.236946 -0.343000
v 0.518368 0.237820 -0.339952
v 0.518368 0.206039 -0.349529
v 0.517494 0.212136 -0.347351
v 0.504873 0.206913 -0.349092
v 0.505309 0.229981 -0.345178
vn -0.0035 0.3040 -0.9527
vn -1.0000 0.0000 0.0000
vn 1.0000 0.0000 0.0000
vn -0.0079 0.2423 -0.9702
vn -0.0543 -0.2773 0.9593
vn -0.0000 0.4456 -0.8952
vn 0.1675 0.3000 -0.9391
vn 0.0062 0.3000 -0.9539
vn -0.0000 1.0000 0.0000
vn -0.0321 0.9857 0.1656
vn 0.0253 -0.1647 0.9860
vn 0.0043 -0.1313 0.9913
vn 0.0000 -1.0000 0.0000
vn 0.0322 -0.9893 -0.1426
vn -0.0000 -0.4472 0.8944
vn 0.1453 -0.2909 0.9457
vn 0.0445 -0.2902 0.9559
vn -0.0031 -0.2999 0.9540
vn -0.0054 -0.3044 0.9525
vn 0.0000 -0.3162 0.9487
vn -0.1741 0.3026 -0.9371
vn -0.0108 0.3157 -0.9488
usemtl Shape.15239
s off
f 12//1 10//1 17//1
f 2//2 3//2 4//2
f 5//3 1//3 6//3
f 1//3 5//3 7//3
f 4//2 3//2 8//2
f 2//2 4//2 10//2
f 5//4 2//4 10//4
f 8//2 3//2 11//2
f 9//5 8//5 11//5
f 4//6 7//6 12//6
f 7//7 5//7 12//7
f 5//8 10//8 12//8
f 1//3 7//3 13//3
f 7//9 4//9 13//9
f 4//10 8//10 13//10
f 9//11 1//11 13//11
f 8//12 9//12 13//12
f 3//13 2//13 14//13
f 2//14 5//14 14//14
f 6//15 3//15 14//15
f 5//3 6//3 14//3
f 6//16 1//16 15//16
f 1//17 9//17 15//17
f 9//18 11//18 15//18
f 15//19 11//19 16//19
f 3//15 6//15 16//15
f 11//2 3//2 16//2
f 6//20 15//20 16//20
f 10//21 4//21 17//21
f 4//22 12//22 17//22
