# Blender v2.79 (sub 0) OBJ File: ''
# www.blender.org
mtllib 102699_link_2_81.mtl
o Shape_IndexedFaceSet.081_Shape_IndexedFaceSet.3658
v -0.057366 0.209453 0.826520
v 0.330060 0.159142 0.672199
v 0.308175 0.181447 0.702658
v -0.234589 0.211923 -0.233328
v -0.237678 0.150642 0.746232
v 0.330123 0.173810 -0.173989
v 0.333985 0.211613 -0.205088
v -0.235514 0.173810 -0.196926
v -0.227397 0.203723 0.783063
v 0.310973 0.209159 0.613309
v 0.085018 0.151297 0.880539
v 0.338539 0.150795 0.583254
v 0.151111 0.203664 0.833839
v 0.047389 0.173810 -0.227546
v -0.088039 0.151356 0.879445
v -0.035059 0.196437 0.877585
v 0.327212 0.203524 0.646503
v 0.235837 0.151295 0.797569
v -0.211547 0.209465 0.742677
v 0.202569 0.209621 0.766171
v 0.069770 0.203819 -0.244241
v -0.230623 0.151395 0.803431
v -0.161813 0.196389 0.838337
v 0.238423 0.173810 -0.204609
v 0.218919 0.196357 0.799962
v -0.151389 0.173810 -0.219862
v 0.069681 0.203712 0.864599
v -0.094607 0.203865 0.860816
vn -0.0091 0.9019 0.4318
vn -0.9997 0.0226 -0.0017
vn -0.9828 0.1845 0.0084
vn 0.9934 -0.1134 -0.0145
vn 0.0010 -1.0000 0.0025
vn -0.0004 -1.0000 0.0058
vn -0.0063 0.0486 0.9988
vn 0.8651 0.2917 0.4080
vn 0.3068 0.9517 0.0115
vn 0.9800 0.1989 0.0097
vn 0.9902 0.1121 0.0839
vn 0.8000 -0.0333 0.5991
vn 0.2304 -0.9665 0.1127
vn 0.0017 -1.0000 0.0032
vn -0.0013 1.0000 0.0025
vn -0.3182 0.9480 0.0099
vn -0.0001 1.0000 0.0023
vn 0.0004 1.0000 0.0021
vn 0.0088 1.0000 0.0032
vn 0.1420 0.9850 0.0977
vn 0.0150 0.9564 -0.2917
vn -0.9869 0.1077 0.1203
vn -0.0078 -0.9999 0.0141
vn -0.4701 0.0348 0.8819
vn -0.5881 0.3246 0.7408
vn 0.2458 -0.6307 -0.7361
vn 0.0102 -0.9995 -0.0305
vn 0.0036 -0.9996 -0.0297
vn 0.1465 -0.3819 -0.9125
vn 0.1004 -0.5398 -0.8358
vn 0.4551 0.1996 0.8678
vn 0.6097 0.6453 0.4604
vn 0.7333 0.2415 0.6356
vn 0.4777 0.1332 0.8684
vn 0.2297 0.9386 0.2573
vn 0.2713 0.9333 0.2351
vn -0.1941 -0.6751 -0.7118
vn -0.0067 -0.9997 -0.0246
vn -0.0011 -0.9996 -0.0280
vn -0.0436 -0.4162 -0.9082
vn -0.0342 -0.4663 -0.8840
vn 0.3296 0.3617 0.8721
vn 0.0952 0.3150 0.9443
vn 0.0193 0.9961 0.0858
vn 0.0471 0.9913 0.1231
vn -0.2235 0.3009 0.9271
vn -0.0553 0.9933 0.1018
vn -0.0680 0.9911 0.1142
vn -0.3324 0.2782 0.9012
vn -0.2299 0.8912 0.3911
vn -0.0027 0.9874 0.1579
usemtl Shape.3663
s off
f 16//1 27//1 28//1
f 5//2 4//2 8//2
f 4//3 5//3 9//3
f 6//4 7//4 12//4
f 11//5 5//5 12//5
f 5//6 11//6 15//6
f 15//7 11//7 16//7
f 3//8 2//8 17//8
f 7//9 10//9 17//9
f 12//10 7//10 17//10
f 2//11 12//11 17//11
f 2//12 3//12 18//12
f 12//13 2//13 18//13
f 11//14 12//14 18//14
f 1//15 4//15 19//15
f 4//16 9//16 19//16
f 4//17 1//17 20//17
f 7//18 4//18 20//18
f 10//19 7//19 20//19
f 17//20 10//20 20//20
f 4//21 7//21 21//21
f 9//22 5//22 22//22
f 5//23 15//23 22//23
f 22//24 15//24 23//24
f 9//25 22//25 23//25
f 7//26 6//26 24//26
f 6//27 12//27 24//27
f 12//28 14//28 24//28
f 21//29 7//29 24//29
f 14//30 21//30 24//30
f 13//31 11//31 25//31
f 3//32 17//32 25//32
f 18//33 3//33 25//33
f 11//34 18//34 25//34
f 20//35 13//35 25//35
f 17//36 20//36 25//36
f 8//37 4//37 26//37
f 5//38 8//38 26//38
f 12//38 5//38 26//38
f 14//39 12//39 26//39
f 4//40 21//40 26//40
f 21//41 14//41 26//41
f 11//42 13//42 27//42
f 16//43 11//43 27//43
f 20//44 1//44 27//44
f 13//45 20//45 27//45
f 15//46 16//46 28//46
f 1//47 19//47 28//47
f 19//48 9//48 28//48
f 23//49 15//49 28//49
f 9//50 23//50 28//50
f 27//51 1//51 28//51
