# Blender v2.79 (sub 0) OBJ File: ''
# www.blender.org
mtllib 102699_link_0_42.mtl
o Shape_IndexedFaceSet.042_Shape_IndexedFaceSet.14075
v -0.282940 0.253000 -0.090703
v -0.302047 0.360785 -0.039790
v -0.222752 0.356684 -0.117444
v -0.292968 0.253000 -0.043890
v -0.309695 0.356684 -0.063953
v -0.222752 0.253000 -0.147543
v -0.239479 0.356684 -0.130819
v -0.319742 0.276414 -0.047228
v -0.219403 0.263048 -0.127470
v -0.239479 0.303188 -0.137507
v -0.222752 0.356684 -0.137507
v -0.313034 0.253000 -0.043890
v -0.319742 0.346637 -0.043890
v -0.256205 0.253000 -0.120782
v -0.219403 0.253000 -0.130819
v -0.219403 0.343297 -0.120782
v -0.313034 0.316544 -0.060604
vn -0.7255 0.0029 -0.6882
vn 0.7002 0.0318 0.7133
vn 0.0000 -1.0000 0.0000
vn -0.1222 0.9842 -0.1283
vn -0.6868 0.0902 -0.7212
vn -0.3688 0.1153 -0.9223
vn 0.0516 0.9987 0.0000
vn -0.0248 0.9978 -0.0620
vn -0.2945 0.0921 -0.9512
vn 0.0000 -0.0380 0.9993
vn -0.8016 -0.3031 -0.5153
vn -0.5525 -0.0396 0.8326
vn -0.6327 0.7713 0.0694
vn -0.2140 -0.0153 0.9767
vn -0.7201 0.0088 -0.6938
vn -0.6238 -0.0520 -0.7798
vn 0.7462 -0.2105 0.6315
vn 0.9804 0.0190 -0.1963
vn 0.9833 0.0201 -0.1808
vn 0.7188 0.0065 0.6952
vn 0.7528 -0.0547 0.6560
vn 0.9701 0.2427 0.0000
vn 1.0000 0.0000 0.0000
vn -0.7809 -0.0761 -0.6200
vn -0.9155 0.0191 -0.4018
vn -0.9011 0.0389 -0.4318
vn -0.7469 -0.0393 -0.6638
usemtl Shape.14079
s off
f 5//1 14//1 17//1
f 3//2 2//2 4//2
f 4//3 1//3 6//3
f 5//4 2//4 7//4
f 5//5 7//5 10//5
f 10//6 7//6 11//6
f 2//7 3//7 11//7
f 7//8 2//8 11//8
f 6//9 10//9 11//9
f 4//10 2//10 12//10
f 1//3 4//3 12//3
f 8//11 1//11 12//11
f 8//12 12//12 13//12
f 2//13 5//13 13//13
f 12//14 2//14 13//14
f 6//3 1//3 14//3
f 5//15 10//15 14//15
f 10//16 6//16 14//16
f 4//3 6//3 15//3
f 9//17 4//17 15//17
f 6//18 11//18 15//18
f 15//19 11//19 16//19
f 3//20 4//20 16//20
f 4//21 9//21 16//21
f 11//22 3//22 16//22
f 9//23 15//23 16//23
f 1//24 8//24 17//24
f 8//25 13//25 17//25
f 13//26 5//26 17//26
f 14//27 1//27 17//27
