# Blender v2.79 (sub 0) OBJ File: ''
# www.blender.org
mtllib 102699_link_0_60.mtl
o Shape_IndexedFaceSet.060_Shape_IndexedFaceSet.14093
v 0.128429 0.420235 -0.023795
v 0.135120 0.440296 0.083227
v 0.131774 0.443643 0.049777
v 0.041488 0.426926 0.083227
v 0.041488 0.446987 -0.053903
v 0.135120 0.440296 -0.053903
v 0.041488 0.433612 -0.053903
v 0.041488 0.440296 0.083227
v 0.135120 0.426926 0.083227
v 0.135120 0.426926 -0.053903
v 0.115046 0.446987 -0.047205
v 0.047787 0.427826 -0.018621
v 0.041488 0.446987 -0.017111
v 0.115046 0.420235 -0.010412
v 0.108364 0.446987 -0.000385
vn 0.0000 1.0000 0.0000
vn 0.7072 0.7070 0.0000
vn -0.0000 0.0000 -1.0000
vn -1.0000 0.0000 0.0000
vn 0.0000 0.9950 0.0996
vn 0.0000 0.0000 1.0000
vn 1.0000 0.0000 0.0000
vn -0.0693 -0.9705 -0.2311
vn 0.7071 -0.7071 0.0000
vn 0.3099 0.9505 -0.0207
vn 0.0561 0.7854 -0.6164
vn -0.1019 -0.9844 -0.1433
vn -0.5419 -0.8395 -0.0409
vn 0.0000 -0.9975 0.0713
vn 0.0586 -0.9966 0.0586
vn -0.0996 -0.9900 -0.0996
vn -0.1103 -0.9938 -0.0156
vn -0.0105 0.9974 0.0714
vn 0.1087 0.9940 0.0155
vn -0.0166 0.9976 0.0665
usemtl Shape.14097
s off
f 11//1 13//1 15//1
f 3//2 2//2 6//2
f 5//3 6//3 7//3
f 4//4 5//4 7//4
f 2//5 3//5 8//5
f 4//6 2//6 8//6
f 5//4 4//4 8//4
f 2//6 4//6 9//6
f 6//7 2//7 9//7
f 6//7 9//7 10//7
f 7//3 6//3 10//3
f 1//8 7//8 10//8
f 9//9 1//9 10//9
f 3//10 6//10 11//10
f 6//11 5//11 11//11
f 7//12 1//12 12//12
f 4//13 7//13 12//13
f 5//4 8//4 13//4
f 11//1 5//1 13//1
f 9//14 4//14 14//14
f 1//15 9//15 14//15
f 12//16 1//16 14//16
f 4//17 12//17 14//17
f 8//18 3//18 15//18
f 3//19 11//19 15//19
f 13//20 8//20 15//20
