# Blender v2.79 (sub 0) OBJ File: ''
# www.blender.org
mtllib 102699_link_1_36.mtl
o Shape_IndexedFaceSet.036_Shape_IndexedFaceSet.15241
v 0.522285 0.188189 -0.413961
v 0.510531 0.183836 -0.414833
v 0.510531 0.186012 -0.414833
v 0.510531 0.183836 -0.408303
v 0.522285 0.184707 -0.413526
v 0.522285 0.187753 -0.408303
v 0.510531 0.186448 -0.410045
v 0.521849 0.184707 -0.408303
v 0.511839 0.183400 -0.411351
v 0.522285 0.185577 -0.414833
v 0.513145 0.187318 -0.414833
v 0.513580 0.186882 -0.408303
vn -0.1839 0.9799 0.0777
vn -1.0000 0.0000 0.0000
vn 1.0000 0.0000 0.0000
vn 0.0000 0.0000 1.0000
vn 0.9865 -0.1412 0.0824
vn -0.3162 -0.9487 0.0000
vn 0.0903 -0.9834 -0.1571
vn 0.0756 -0.9820 0.1729
vn 0.1263 -0.9919 0.0105
vn 0.0000 0.0000 -1.0000
vn 0.1224 -0.8262 -0.5499
vn -0.4455 0.8916 -0.0812
vn 0.0602 0.3161 -0.9468
vn -0.0993 0.9921 0.0764
vn -0.4848 0.4853 0.7277
vn -0.1015 0.9922 0.0730
usemtl Shape.15253
s off
f 11//1 7//1 12//1
f 3//2 2//2 4//2
f 5//3 1//3 6//3
f 3//2 4//2 7//2
f 6//4 4//4 8//4
f 5//5 6//5 8//5
f 4//6 2//6 9//6
f 2//7 5//7 9//7
f 8//8 4//8 9//8
f 5//9 8//9 9//9
f 2//10 3//10 10//10
f 1//3 5//3 10//3
f 5//11 2//11 10//11
f 3//12 7//12 11//12
f 1//13 10//13 11//13
f 10//10 3//10 11//10
f 6//14 1//14 12//14
f 4//4 6//4 12//4
f 7//15 4//15 12//15
f 1//16 11//16 12//16
