# Blender v2.79 (sub 0) OBJ File: ''
# www.blender.org
mtllib 102703_link_2_2.mtl
o Shape_IndexedFaceSet.002_Shape_IndexedFaceSet.17537
v 0.253297 0.201944 0.614661
v 0.345625 0.215525 0.459912
v 0.345625 0.210094 0.459912
v 0.261458 0.204662 0.644544
v 0.253297 0.253533 0.617378
v 0.288616 0.253533 0.595664
v 0.326610 0.253533 0.457196
v 0.326610 0.201944 0.457196
v 0.302172 0.199231 0.563065
v 0.342904 0.253533 0.459912
v 0.253297 0.253533 0.652693
v 0.321178 0.215525 0.527808
v 0.256026 0.196512 0.639110
v 0.332041 0.199231 0.487078
v 0.318467 0.253533 0.530524
v 0.285895 0.201944 0.601097
v 0.321178 0.210094 0.465346
v 0.253297 0.196512 0.625527
v 0.340193 0.201944 0.454479
v 0.253297 0.199231 0.649977
v 0.256026 0.253533 0.652693
v 0.323898 0.199231 0.468062
v 0.318467 0.204662 0.533241
vn 0.8359 -0.3905 0.3856
vn 0.0000 1.0000 0.0000
vn -1.0000 0.0000 0.0000
vn 0.9409 0.0000 0.3388
vn 0.1646 -0.9842 0.0647
vn 0.9429 0.0675 0.3263
vn 0.9400 0.0429 0.3385
vn 0.9085 0.0351 0.4163
vn 0.8717 0.0056 0.4900
vn 0.9012 -0.0019 0.4335
vn 0.4946 -0.8259 0.2706
vn -0.9106 0.0217 -0.4128
vn -0.9087 0.0356 -0.4159
vn -0.8919 -0.1792 -0.4152
vn -0.8321 0.0000 -0.5546
vn 0.0255 -0.9997 -0.0051
vn 0.7072 0.0000 -0.7070
vn -0.1961 0.0000 -0.9806
vn 0.6462 0.0463 -0.7617
vn 0.1637 0.0948 -0.9819
vn 0.7768 -0.6132 0.1432
vn 0.6797 -0.6013 0.4199
vn 0.5591 -0.7603 0.3306
vn -0.4820 -0.8708 0.0968
vn 0.8681 0.0138 0.4961
vn 0.5846 -0.0698 0.8083
vn 0.0000 -0.0500 0.9988
vn -0.7133 -0.6171 -0.3321
vn -0.6936 -0.6443 -0.3221
vn 0.0197 -0.9998 -0.0084
vn -0.0508 -0.9659 -0.2538
vn 0.1216 -0.9912 -0.0521
vn 0.9374 -0.0626 0.3425
vn 0.8857 -0.3526 0.3019
vn 0.7326 -0.6167 0.2880
vn 0.9016 -0.0087 0.4324
usemtl Shape.17552
s off
f 16//1 9//1 23//1
f 5//2 6//2 7//2
f 7//2 6//2 10//2
f 5//3 1//3 11//3
f 6//2 5//2 11//2
f 3//4 2//4 12//4
f 9//5 13//5 14//5
f 2//6 10//6 15//6
f 10//2 6//2 15//2
f 12//7 2//7 15//7
f 6//8 12//8 15//8
f 6//9 4//9 16//9
f 12//10 6//10 16//10
f 13//11 9//11 16//11
f 1//12 5//12 17//12
f 5//13 7//13 17//13
f 8//14 1//14 17//14
f 7//15 8//15 17//15
f 11//3 1//3 18//3
f 14//16 13//16 18//16
f 2//17 3//17 19//17
f 8//18 7//18 19//18
f 10//19 2//19 19//19
f 7//20 10//20 19//20
f 3//21 14//21 19//21
f 16//22 4//22 20//22
f 13//23 16//23 20//23
f 11//3 18//3 20//3
f 18//24 13//24 20//24
f 4//25 6//25 21//25
f 6//2 11//2 21//2
f 20//26 4//26 21//26
f 11//27 20//27 21//27
f 1//28 8//28 22//28
f 18//29 1//29 22//29
f 14//30 18//30 22//30
f 8//31 19//31 22//31
f 19//32 14//32 22//32
f 3//33 12//33 23//33
f 14//34 3//34 23//34
f 9//35 14//35 23//35
f 12//36 16//36 23//36
