# Blender v2.79 (sub 0) OBJ File: ''
# www.blender.org
mtllib 102703_link_4_96.mtl
o Shape_IndexedFaceSet.096_Shape_IndexedFaceSet.137
v -0.466991 0.655854 -0.473630
v -0.328700 0.676868 -0.333687
v -0.328935 0.661533 -0.333973
v -0.374941 0.684520 -0.510295
v -0.436229 0.692188 -0.333973
v -0.448525 0.655027 -0.339335
v -0.390266 0.653861 -0.510295
v -0.451554 0.692188 -0.502614
v -0.344275 0.692188 -0.341653
v -0.474564 0.669198 -0.433611
vn -0.6166 0.7853 0.0560
vn 0.9672 -0.0101 -0.2537
vn -0.0053 -0.0186 0.9998
vn -0.0373 -0.1306 0.9907
vn 0.8587 -0.4292 -0.2800
vn -0.0271 -0.9996 -0.0024
vn 0.0532 -0.9983 0.0249
vn -0.0949 0.0475 -0.9944
vn -0.3912 -0.4666 -0.7933
vn 0.7330 0.6603 -0.1633
vn 0.0713 0.5162 0.8535
vn 0.0000 1.0000 0.0000
vn 0.0932 0.9937 -0.0621
vn -0.7174 -0.6902 0.0944
vn -0.9194 0.2619 0.2933
vn -0.9470 0.2049 -0.2475
usemtl Shape.146
s off
f 5//1 8//1 10//1
f 2//2 3//2 4//2
f 3//3 2//3 5//3
f 3//4 5//4 6//4
f 4//5 3//5 7//5
f 6//6 1//6 7//6
f 3//7 6//7 7//7
f 4//8 7//8 8//8
f 7//9 1//9 8//9
f 2//10 4//10 9//10
f 5//11 2//11 9//11
f 8//12 5//12 9//12
f 4//13 8//13 9//13
f 1//14 6//14 10//14
f 6//15 5//15 10//15
f 8//16 1//16 10//16
