# Blender v2.79 (sub 0) OBJ File: ''
# www.blender.org
mtllib 102703_link_4_152.mtl
o Shape_IndexedFaceSet.152_Shape_IndexedFaceSet.193
v -0.160250 0.101897 -0.517974
v -0.206262 0.155559 -0.655939
v -0.206262 0.124910 -0.648267
v 0.000724 0.147891 -0.655939
v 0.010694 0.190286 -0.620561
v -0.206262 0.147891 -0.517974
v 0.000724 0.101897 -0.609937
v -0.217243 0.190698 -0.620861
v -0.114237 0.132562 -0.517974
v -0.052947 0.101897 -0.648267
v -0.006451 0.183301 -0.651156
v -0.206262 0.109565 -0.594608
v -0.206262 0.109565 -0.517974
v -0.199269 0.183375 -0.651277
vn 0.0005 0.9723 -0.2338
vn 0.9840 -0.1261 -0.1261
vn -0.9683 -0.0607 -0.2423
vn 0.0012 0.9233 0.3840
vn 0.1311 0.7872 0.6026
vn -0.0000 0.0000 1.0000
vn 0.3979 -0.5971 0.6965
vn 0.6282 0.0226 0.7777
vn -0.0364 -0.2427 -0.9694
vn -0.0058 -0.1579 -0.9874
vn 0.0000 -1.0000 0.0000
vn 0.4507 -0.6313 -0.6311
vn 0.0050 0.1349 -0.9909
vn 0.8236 0.2365 -0.5155
vn 0.0021 0.9747 -0.2237
vn -0.9882 -0.1474 -0.0421
vn -0.0700 -0.9959 -0.0576
vn -0.1428 -0.9516 -0.2721
vn -0.9944 0.0000 0.1061
vn -0.1644 -0.9864 0.0000
vn -0.9910 -0.1341 0.0000
vn -0.7920 0.2892 -0.5377
vn 0.0007 0.1651 -0.9863
usemtl Shape.202
s off
f 8//1 11//1 14//1
f 4//2 5//2 7//2
f 2//3 3//3 8//3
f 6//4 5//4 8//4
f 5//5 6//5 9//5
f 6//6 1//6 9//6
f 1//7 7//7 9//7
f 7//8 5//8 9//8
f 3//9 2//9 10//9
f 2//10 4//10 10//10
f 7//11 1//11 10//11
f 4//12 7//12 10//12
f 4//13 2//13 11//13
f 5//14 4//14 11//14
f 8//15 5//15 11//15
f 8//16 3//16 12//16
f 10//17 1//17 12//17
f 3//18 10//18 12//18
f 1//6 6//6 13//6
f 6//19 8//19 13//19
f 12//20 1//20 13//20
f 8//21 12//21 13//21
f 2//22 8//22 14//22
f 11//23 2//23 14//23
