# Blender v2.79 (sub 0) OBJ File: ''
# www.blender.org
mtllib 102703_link_2_49.mtl
o Shape_IndexedFaceSet.049_Shape_IndexedFaceSet.17584
v 0.332058 0.286124 -0.018075
v 0.370071 0.291558 0.112256
v 0.351062 0.291558 0.112256
v 0.370071 0.269833 0.112256
v 0.323914 0.269833 0.011803
v 0.315765 0.291558 -0.009927
v 0.345629 0.269833 0.014515
v 0.361922 0.291558 0.066083
v 0.356494 0.269833 0.109531
v 0.337491 0.291558 -0.007203
v 0.364638 0.269833 0.074231
v 0.321198 0.280695 -0.018075
vn 0.0431 -0.9377 -0.3448
vn 0.0000 0.0000 1.0000
vn -0.9574 -0.0825 0.2766
vn 0.0000 1.0000 0.0000
vn 0.0000 -1.0000 0.0000
vn -0.1939 -0.1697 0.9662
vn -0.9143 -0.2668 0.3048
vn 0.0589 0.8809 -0.4697
vn 0.9066 -0.0755 -0.4153
vn 0.9479 0.0392 -0.3160
vn 0.9899 0.0000 -0.1414
vn 0.9831 0.0578 -0.1735
vn 0.9529 0.0054 -0.3033
vn -0.9112 -0.4069 -0.0651
vn -0.2491 0.4983 -0.8304
vn 0.3778 -0.7557 -0.5350
usemtl Shape.17599
s off
f 7//1 5//1 12//1
f 2//2 3//2 4//2
f 5//3 3//3 6//3
f 3//4 2//4 6//4
f 4//5 5//5 7//5
f 6//4 2//4 8//4
f 4//6 3//6 9//6
f 5//5 4//5 9//5
f 3//7 5//7 9//7
f 1//8 6//8 10//8
f 7//9 1//9 10//9
f 6//4 8//4 10//4
f 8//10 7//10 10//10
f 2//11 4//11 11//11
f 4//5 7//5 11//5
f 8//12 2//12 11//12
f 7//13 8//13 11//13
f 5//14 6//14 12//14
f 6//15 1//15 12//15
f 1//16 7//16 12//16
