# Blender v2.79 (sub 0) OBJ File: ''
# www.blender.org
mtllib 102703_link_4_69.mtl
o Shape_IndexedFaceSet.069_Shape_IndexedFaceSet.110
v 0.097933 -0.222680 0.667393
v 0.253708 -0.220083 0.348366
v 0.185995 -0.225345 0.518755
v 0.016448 -0.267539 0.679500
v 0.020473 -0.219428 0.674403
v 0.200022 -0.266080 0.340713
v 0.163694 -0.261824 0.568349
v 0.207675 -0.220083 0.333022
v 0.253708 -0.266080 0.340713
v 0.060358 -0.264461 0.695625
v 0.026721 -0.220678 0.703804
vn 0.4516 0.1838 0.8731
vn 0.2408 0.9624 0.1254
vn 0.0446 0.9986 0.0299
vn -0.8790 0.0231 -0.4762
vn 0.8504 0.1611 0.5009
vn 0.0005 1.0000 -0.0016
vn -0.8749 0.0653 -0.4799
vn 0.0000 -0.1649 -0.9863
vn 0.9282 -0.0611 0.3670
vn 0.0000 -1.0000 -0.0043
vn 0.9274 -0.0667 0.3680
vn 0.3124 0.1559 -0.9371
vn 0.0941 -0.9940 0.0558
vn 0.7508 -0.2671 0.6041
vn 0.0569 -0.9977 0.0355
vn -0.2935 -0.3886 0.8734
vn 0.0449 0.9984 0.0329
vn -0.9720 0.1037 0.2110
usemtl Shape.119
s off
f 10//1 1//1 11//1
f 3//2 2//2 1//2
f 1//3 2//3 5//3
f 4//4 5//4 6//4
f 3//5 1//5 7//5
f 5//6 2//6 8//6
f 6//7 5//7 8//7
f 6//8 8//8 9//8
f 2//9 3//9 9//9
f 4//10 6//10 9//10
f 3//11 7//11 9//11
f 8//12 2//12 9//12
f 9//13 7//13 10//13
f 7//14 1//14 10//14
f 4//15 9//15 10//15
f 4//16 10//16 11//16
f 1//17 5//17 11//17
f 5//18 4//18 11//18
