# Blender v2.79 (sub 0) OBJ File: ''
# www.blender.org
mtllib 102703_link_4_18.mtl
o Shape_IndexedFaceSet.018_Shape_IndexedFaceSet.059
v -0.045274 -0.572711 -0.602271
v -0.052950 -0.411755 -0.487296
v -0.014608 -0.411755 -0.556274
v -0.014608 -0.595725 -0.540977
v -0.098936 -0.595725 -0.487296
v -0.083591 -0.411755 -0.556274
v -0.014608 -0.434769 -0.602271
v -0.083591 -0.595725 -0.556274
v -0.088095 -0.420194 -0.492923
v -0.060594 -0.595725 -0.487296
v -0.014608 -0.588036 -0.602271
v -0.068271 -0.419426 -0.579290
vn -0.8325 0.0000 -0.5541
vn 0.8733 0.0404 0.4854
vn 0.0000 1.0000 0.0000
vn 1.0000 0.0000 -0.0000
vn 0.0000 -1.0000 -0.0000
vn -0.9761 -0.0000 -0.2172
vn -0.1678 0.0419 0.9849
vn -0.2487 0.9622 0.1105
vn -0.9962 0.0595 -0.0629
vn 0.7591 -0.0315 0.6503
vn 0.0000 0.0000 1.0000
vn 0.0000 0.0000 -1.0000
vn -0.3457 -0.6917 -0.6341
vn 0.0276 -0.9918 -0.1244
vn 0.0000 0.9487 -0.3162
vn 0.0639 0.8925 -0.4465
vn -0.3722 0.0828 -0.9244
vn -0.7638 -0.0179 -0.6452
usemtl Shape.068
s off
f 8//1 6//1 12//1
f 3//2 2//2 4//2
f 2//3 3//3 6//3
f 3//4 4//4 7//4
f 4//5 5//5 8//5
f 5//6 6//6 8//6
f 5//7 2//7 9//7
f 2//8 6//8 9//8
f 6//9 5//9 9//9
f 4//10 2//10 10//10
f 5//5 4//5 10//5
f 2//11 5//11 10//11
f 7//4 4//4 11//4
f 1//12 7//12 11//12
f 8//13 1//13 11//13
f 4//14 8//14 11//14
f 6//15 3//15 12//15
f 3//16 7//16 12//16
f 7//17 1//17 12//17
f 1//18 8//18 12//18
