# Blender v2.79 (sub 0) OBJ File: ''
# www.blender.org
mtllib 102703_link_2_26.mtl
o Shape_IndexedFaceSet.026_Shape_IndexedFaceSet.17561
v 0.095781 0.381179 0.044375
v 0.049595 0.386609 0.028070
v -0.001988 0.373037 0.044375
v 0.095781 0.367604 0.009061
v -0.001988 0.378467 -0.064248
v -0.001988 0.392042 -0.042525
v 0.095781 0.383894 -0.064248
v -0.001988 0.386609 0.044375
v 0.095781 0.373037 -0.064248
v 0.095781 0.367604 0.044375
v 0.095781 0.386609 -0.039811
v 0.044198 0.373037 -0.061534
v 0.014310 0.392042 -0.056106
v -0.001988 0.389324 -0.064248
v 0.074047 0.367604 0.036222
v 0.006166 0.375752 -0.061534
vn -0.0746 -0.9967 -0.0313
vn -1.0000 -0.0000 -0.0000
vn 1.0000 0.0000 0.0000
vn 0.0546 0.9834 0.1728
vn 0.0000 0.0000 1.0000
vn 0.0197 0.9979 0.0624
vn 0.0000 0.0000 -1.0000
vn 0.0942 0.9935 0.0641
vn -0.0039 -0.9973 -0.0739
vn -0.0382 -0.6872 -0.7254
vn 0.0398 0.9981 0.0477
vn 0.0586 0.9975 0.0398
vn 0.0880 0.9900 -0.1100
vn -0.1029 0.9870 -0.1235
vn 0.0507 0.9125 -0.4060
vn -0.0549 -0.9877 0.1463
vn 0.0000 -1.0000 0.0000
vn -0.0502 -0.9979 -0.0401
vn -0.0712 -0.9969 -0.0337
vn -0.3013 -0.9524 -0.0476
vn -0.0560 -0.7850 -0.6169
usemtl Shape.17576
s off
f 15//1 3//1 16//1
f 5//2 3//2 6//2
f 1//3 4//3 7//3
f 1//4 2//4 8//4
f 3//5 1//5 8//5
f 2//6 6//6 8//6
f 6//2 3//2 8//2
f 7//3 4//3 9//3
f 5//7 7//7 9//7
f 1//5 3//5 10//5
f 4//3 1//3 10//3
f 2//8 1//8 11//8
f 1//3 7//3 11//3
f 9//9 4//9 12//9
f 5//10 9//10 12//10
f 6//11 2//11 13//11
f 2//12 11//12 13//12
f 11//13 7//13 13//13
f 5//2 6//2 14//2
f 7//7 5//7 14//7
f 6//14 13//14 14//14
f 13//15 7//15 14//15
f 10//16 3//16 15//16
f 4//17 10//17 15//17
f 12//18 4//18 15//18
f 12//19 15//19 16//19
f 3//20 5//20 16//20
f 5//21 12//21 16//21
