# Blender v2.79 (sub 0) OBJ File: ''
# www.blender.org
mtllib 102703_link_1_9.mtl
o Shape_IndexedFaceSet.009_Shape_IndexedFaceSet.6191
v 0.281772 0.749235 -0.584578
v 0.354418 0.728146 -0.633792
v 0.000539 0.728146 -0.608001
v 0.398178 0.729759 -0.575678
v 0.000539 0.753923 -0.575201
v 0.000539 0.749235 -0.598641
v 0.363806 0.742204 -0.617378
v 0.000539 0.742204 -0.575201
v 0.387277 0.744548 -0.575201
v 0.000539 0.728146 -0.593955
v 0.382583 0.735176 -0.631441
v 0.174033 0.751579 -0.591610
v 0.393444 0.727735 -0.598454
v 0.000539 0.739865 -0.605661
v 0.136518 0.753923 -0.575201
v 0.000539 0.753923 -0.586924
v 0.387277 0.739865 -0.619724
v 0.387277 0.728146 -0.633792
v 0.330985 0.739865 -0.624410
v 0.361459 0.735179 -0.631441
v 0.305205 0.744548 -0.612692
v 0.000539 0.744548 -0.603327
v 0.000539 0.732834 -0.608001
v 0.349723 0.744548 -0.605661
v 0.000539 0.751579 -0.593955
v 0.291122 0.749235 -0.575201
v 0.377888 0.744548 -0.589264
vn 0.0487 0.9983 -0.0325
vn -1.0000 -0.0000 0.0000
vn 0.0000 0.0000 1.0000
vn 0.0002 -0.0321 0.9995
vn -0.0243 -0.7999 0.5996
vn -0.0008 -0.9999 -0.0108
vn -0.0010 -1.0000 0.0000
vn -0.0000 -0.9961 0.0885
vn 0.0269 0.9964 -0.0807
vn 0.0102 0.9929 -0.1185
vn 0.0000 1.0000 0.0000
vn 0.8024 0.5935 -0.0624
vn 0.0528 0.9197 -0.3892
vn 0.0000 -0.9999 -0.0116
vn 0.9358 -0.3105 -0.1669
vn 0.9570 0.2229 -0.1857
vn 0.6387 0.5912 -0.4925
vn 0.0253 0.9073 -0.4197
vn -0.0614 0.3712 -0.9265
vn 0.0000 0.3170 -0.9484
vn 0.0000 0.3172 -0.9484
vn -0.0276 0.7726 -0.6343
vn 0.0001 0.8324 -0.5542
vn 0.0262 0.9858 -0.1660
vn 0.0052 0.9579 -0.2872
vn 0.0091 0.9353 -0.3537
vn -0.0580 0.4453 -0.8935
vn -0.0367 0.7066 -0.7067
vn -0.0727 0.0000 -0.9974
vn -0.0648 0.3151 -0.9468
vn 0.0297 0.9917 -0.1247
vn 0.0262 0.9858 -0.1657
vn -0.0095 0.8943 -0.4474
vn 0.0024 0.9487 -0.3163
vn -0.0016 0.9274 -0.3742
vn 0.0303 0.9991 -0.0302
vn 0.1548 0.9825 -0.1033
vn 0.0860 0.9884 -0.1255
vn 0.0448 0.9960 -0.0770
vn 0.0679 0.9909 -0.1166
vn 0.0464 0.9979 -0.0463
usemtl Shape.6197
s off
f 26//1 9//1 27//1
f 3//2 5//2 6//2
f 5//2 3//2 8//2
f 5//3 8//3 9//3
f 8//4 4//4 9//4
f 8//2 3//2 10//2
f 4//5 8//5 10//5
f 3//6 2//6 13//6
f 10//7 3//7 13//7
f 4//8 10//8 13//8
f 3//2 6//2 14//2
f 5//3 9//3 15//3
f 1//9 12//9 15//9
f 15//10 12//10 16//10
f 6//2 5//2 16//2
f 5//11 15//11 16//11
f 9//12 4//12 17//12
f 11//13 7//13 17//13
f 13//14 2//14 18//14
f 4//15 13//15 18//15
f 17//16 4//16 18//16
f 11//17 17//17 18//17
f 7//18 11//18 19//18
f 2//19 14//19 20//19
f 18//20 2//20 20//20
f 11//21 18//21 20//21
f 6//22 19//22 20//22
f 19//23 11//23 20//23
f 12//24 7//24 21//24
f 16//25 12//25 21//25
f 7//26 19//26 21//26
f 14//2 6//2 22//2
f 20//27 14//27 22//27
f 6//28 20//28 22//28
f 2//29 3//29 23//29
f 3//2 14//2 23//2
f 14//30 2//30 23//30
f 12//31 1//31 24//31
f 7//32 12//32 24//32
f 6//2 16//2 25//2
f 19//33 6//33 25//33
f 16//34 21//34 25//34
f 21//35 19//35 25//35
f 15//3 9//3 26//3
f 1//36 15//36 26//36
f 9//37 17//37 27//37
f 17//38 7//38 27//38
f 24//39 1//39 27//39
f 7//40 24//40 27//40
f 1//41 26//41 27//41
