# Blender v2.79 (sub 0) OBJ File: ''
# www.blender.org
mtllib 102703_link_0_18.mtl
o Shape_IndexedFaceSet.018_Shape_IndexedFaceSet.4437
v -0.470432 0.630223 -0.447916
v -0.488055 0.635992 -0.446954
v -0.484529 0.635350 -0.446634
v -0.469150 0.632466 -0.452402
v -0.492543 0.633427 -0.452402
v -0.492543 0.633427 -0.446634
v -0.492543 0.635671 -0.452402
v -0.467868 0.631506 -0.446634
v -0.467868 0.630223 -0.452402
v -0.479408 0.634709 -0.451440
v -0.467868 0.630223 -0.446634
v -0.477805 0.634389 -0.448236
v -0.492543 0.635350 -0.446634
v -0.472676 0.630544 -0.452402
v -0.489017 0.635671 -0.452402
v -0.469471 0.632146 -0.446634
v -0.467545 0.631506 -0.452402
v -0.488055 0.635992 -0.449838
v -0.491260 0.635992 -0.446634
v -0.470432 0.630223 -0.446634
v -0.474920 0.633748 -0.452402
v -0.477164 0.634068 -0.446634
vn 0.2412 0.9656 0.0970
vn 0.0000 0.0000 -1.0000
vn -1.0000 0.0000 0.0000
vn 0.0000 0.0000 1.0000
vn 0.0000 -1.0000 0.0000
vn 0.1677 0.9789 0.1164
vn 0.1569 0.9874 0.0201
vn -0.1436 -0.9896 0.0000
vn -0.0666 -0.9971 -0.0380
vn 0.3698 0.9263 0.0720
vn 0.2472 0.9666 0.0674
vn 0.5131 0.8578 0.0287
vn 0.9984 0.0000 0.0559
vn 0.9697 -0.2441 0.0000
vn 0.1468 0.9892 0.0000
vn 0.0000 0.9923 -0.1241
vn 0.1146 0.9795 -0.1656
vn 0.0688 0.7214 0.6890
vn -0.4469 0.8932 0.0497
vn 0.0000 1.0000 0.0000
vn -0.0454 0.9979 -0.0455
vn -0.1434 -0.9897 0.0007
vn -0.1416 -0.9899 0.0000
vn 0.2169 0.9762 0.0000
vn 0.2081 0.9781 -0.0064
vn 0.1272 0.9325 -0.3381
vn 0.1701 0.9771 0.1277
usemtl Shape.4442
s off
f 16//1 12//1 22//1
f 4//2 5//2 7//2
f 5//3 6//3 7//3
f 3//4 6//4 8//4
f 5//2 4//2 9//2
f 8//4 6//4 11//4
f 1//5 9//5 11//5
f 2//6 3//6 12//6
f 10//7 2//7 12//7
f 6//4 3//4 13//4
f 7//3 6//3 13//3
f 6//8 5//8 14//8
f 9//9 1//9 14//9
f 5//2 9//2 14//2
f 4//2 7//2 15//2
f 3//4 8//4 16//4
f 8//10 4//10 16//10
f 4//11 12//11 16//11
f 4//12 8//12 17//12
f 9//2 4//2 17//2
f 8//13 11//13 17//13
f 11//14 9//14 17//14
f 2//15 10//15 18//15
f 15//16 7//16 18//16
f 10//17 15//17 18//17
f 3//18 2//18 19//18
f 13//4 3//4 19//4
f 7//19 13//19 19//19
f 2//20 18//20 19//20
f 18//21 7//21 19//21
f 1//5 11//5 20//5
f 11//4 6//4 20//4
f 6//22 14//22 20//22
f 14//23 1//23 20//23
f 12//24 4//24 21//24
f 10//25 12//25 21//25
f 4//2 15//2 21//2
f 15//26 10//26 21//26
f 12//27 3//27 22//27
f 3//4 16//4 22//4
