# Blender v2.79 (sub 0) OBJ File: ''
# www.blender.org
mtllib 102703_link_4_193.mtl
o Shape_IndexedFaceSet.193_Shape_IndexedFaceSet.234
v -0.298256 -0.005419 0.049330
v -0.390242 0.017577 0.034003
v -0.382570 0.002246 -0.004327
v -0.336596 0.101897 -0.004327
v -0.382570 0.094220 0.057002
v -0.298256 -0.013096 -0.004327
v -0.374908 -0.013096 0.057002
v -0.336596 0.101897 0.057002
v -0.382570 0.101897 -0.004327
v -0.298256 0.025242 -0.004327
vn 0.8944 0.4473 0.0000
vn -0.0000 0.0000 -1.0000
vn -0.8944 -0.4472 -0.0001
vn -0.8666 -0.0619 0.4952
vn 0.1126 -0.9836 0.1407
vn -0.1747 -0.9601 -0.2184
vn 0.1029 -0.0343 0.9941
vn 0.0000 0.0000 1.0000
vn -0.9806 0.0000 -0.1963
vn -0.9953 0.0960 0.0120
vn 0.0000 1.0000 0.0000
vn -0.1635 0.9789 0.1225
vn 1.0000 0.0000 0.0000
vn 0.9300 0.3192 0.1824
usemtl Shape.243
s off
f 4//1 8//1 10//1
f 3//2 4//2 6//2
f 2//3 3//3 7//3
f 5//4 2//4 7//4
f 6//5 1//5 7//5
f 3//6 6//6 7//6
f 7//7 1//7 8//7
f 5//8 7//8 8//8
f 3//9 2//9 9//9
f 4//2 3//2 9//2
f 2//10 5//10 9//10
f 8//11 4//11 9//11
f 5//12 8//12 9//12
f 1//13 6//13 10//13
f 6//2 4//2 10//2
f 8//14 1//14 10//14
