# Blender v2.79 (sub 0) OBJ File: ''
# www.blender.org
mtllib 102703_link_4_27.mtl
o Shape_IndexedFaceSet.027_Shape_IndexedFaceSet.068
v 0.229473 -0.221694 0.056454
v -0.039414 -0.265222 -0.061370
v -0.051766 -0.267030 0.017431
v -0.058347 -0.218169 0.007857
v 0.250546 -0.264417 0.156017
v 0.236312 -0.217323 0.178125
v 0.146343 -0.227755 -0.050281
v 0.108069 -0.266080 0.156652
v 0.207691 -0.266080 0.056990
v -0.028479 -0.220316 -0.064488
v 0.044181 -0.266987 -0.070194
v 0.261349 -0.266080 0.148975
v 0.200000 -0.235418 -0.004288
v 0.266276 -0.220487 0.162306
vn 0.9445 -0.0061 -0.3283
vn -0.9743 -0.1619 -0.1564
vn -0.6559 0.0591 0.7526
vn 0.0090 -0.4227 0.9062
vn -0.3659 0.6851 0.6299
vn -0.9047 0.1940 -0.3793
vn 0.0115 0.9996 -0.0249
vn 0.0228 0.9990 -0.0372
vn 0.0501 0.9942 -0.0954
vn 0.0891 0.2564 -0.9624
vn -0.0239 -0.9994 -0.0267
vn -0.1058 -0.0432 -0.9935
vn 0.0102 -0.9999 -0.0059
vn 0.0003 -1.0000 0.0065
vn 0.0124 -0.9687 0.2478
vn 0.0022 -1.0000 0.0019
vn 0.4572 0.7937 -0.4012
vn 0.3887 -0.7210 -0.5736
vn 0.3572 -0.8166 -0.4534
vn 0.6777 -0.6201 -0.3953
vn 0.9004 -0.1795 -0.3963
vn 0.4258 -0.2758 0.8617
vn 0.0838 0.9957 -0.0405
vn 0.4901 -0.2930 0.8210
usemtl Shape.077
s off
f 12//1 1//1 14//1
f 2//2 3//2 4//2
f 4//3 3//3 8//3
f 5//4 6//4 8//4
f 6//5 4//5 8//5
f 2//6 4//6 10//6
f 4//7 6//7 10//7
f 6//8 1//8 10//8
f 1//9 7//9 10//9
f 10//10 7//10 11//10
f 3//11 2//11 11//11
f 2//12 10//12 11//12
f 11//13 9//13 12//13
f 8//14 3//14 12//14
f 5//15 8//15 12//15
f 3//16 11//16 12//16
f 7//17 1//17 13//17
f 11//18 7//18 13//18
f 9//19 11//19 13//19
f 12//20 9//20 13//20
f 1//21 12//21 13//21
f 6//22 5//22 14//22
f 1//23 6//23 14//23
f 5//24 12//24 14//24
