# Blender v2.79 (sub 0) OBJ File: ''
# www.blender.org
mtllib 102703_link_0_23.mtl
o Shape_IndexedFaceSet.023_Shape_IndexedFaceSet.4442
v -0.471713 0.626055 -0.358493
v -0.492545 0.627017 -0.365863
v -0.492545 0.626696 -0.364580
v -0.470111 0.623493 -0.365221
v -0.472354 0.622530 -0.354005
v -0.492545 0.628299 -0.354005
v -0.486451 0.628940 -0.365863
v -0.492545 0.625736 -0.354005
v -0.469150 0.624775 -0.354005
v -0.469150 0.625095 -0.365863
v -0.485490 0.627978 -0.354968
v -0.492545 0.629260 -0.365863
v -0.469150 0.622530 -0.354005
v -0.490298 0.628940 -0.358173
v -0.480366 0.627978 -0.363939
v -0.472354 0.623813 -0.365863
v -0.471392 0.626055 -0.365221
v -0.469791 0.625416 -0.355289
v -0.468829 0.623813 -0.365221
v -0.492545 0.625736 -0.355289
v -0.482286 0.627337 -0.354005
v -0.469791 0.625736 -0.359134
v -0.472354 0.622530 -0.354328
v -0.480045 0.627658 -0.360094
v -0.468827 0.624774 -0.359134
v -0.471392 0.623493 -0.364580
v -0.468829 0.622852 -0.354005
v -0.492545 0.628940 -0.357853
v -0.489657 0.628299 -0.354005
v -0.478764 0.627658 -0.365541
v -0.478764 0.627017 -0.355609
v -0.490298 0.629260 -0.365221
v -0.472354 0.626376 -0.363939
v -0.492545 0.626376 -0.361696
vn -0.1485 -0.9832 -0.1063
vn -1.0000 0.0000 0.0000
vn 0.0000 0.0000 1.0000
vn 0.0000 0.0000 -1.0000
vn 0.1349 0.9886 0.0675
vn -0.1522 -0.9588 -0.2398
vn 0.2409 -0.9650 -0.1035
vn 0.1455 -0.5832 -0.7992
vn 0.1635 -0.4087 -0.8979
vn -0.1568 -0.9876 0.0000
vn 0.1781 0.9130 0.3670
vn 0.1820 0.9816 0.0574
vn 0.3805 0.9233 -0.0517
vn 0.6388 0.7667 0.0638
vn 0.1896 0.9785 0.0814
vn 0.0087 -0.9962 -0.0863
vn 0.0000 -1.0000 0.0000
vn 0.1396 0.9864 0.0867
vn 0.1761 0.9821 0.0671
vn 0.1368 0.9881 0.0708
vn 0.9735 0.2258 -0.0360
vn 0.7057 0.7071 0.0443
vn 0.7064 0.7078 -0.0001
vn -0.1484 -0.9799 -0.1331
vn -0.0889 -0.9801 -0.1777
vn -0.0490 -0.9940 -0.0980
vn -0.0001 0.0000 1.0000
vn 0.7070 -0.7047 -0.0604
vn 0.9845 0.1644 0.0620
vn 1.0000 -0.0014 -0.0001
vn 0.0212 0.9886 0.1488
vn 0.1071 0.9850 0.1350
vn 0.1261 0.9665 0.2237
vn 0.0000 0.9864 0.1643
vn 0.1327 0.5973 -0.7909
vn 0.1657 0.9857 -0.0312
vn 0.2023 0.8251 -0.5275
vn 0.1717 0.9808 0.0926
vn 0.1532 0.9780 0.1414
vn 0.1670 0.9706 0.1731
vn 0.1499 0.9839 0.0978
vn 0.1712 0.9810 0.0913
vn 0.0516 0.9822 -0.1806
vn 0.0903 0.9949 0.0452
vn -0.0114 0.9991 0.0399
vn 0.0065 0.9990 0.0454
vn 0.1960 0.9803 0.0260
vn 0.2862 0.9579 -0.0251
vn 0.1961 0.9806 0.0002
vn 0.2152 0.9731 -0.0822
vn -1.0000 -0.0011 0.0000
vn -0.1515 -0.9836 -0.0982
vn -0.1488 -0.9828 -0.1091
usemtl Shape.4447
s off
f 26//1 23//1 34//1
f 2//2 3//2 6//2
f 6//2 3//2 8//2
f 5//3 6//3 8//3
f 6//3 5//3 9//3
f 2//4 7//4 10//4
f 2//2 6//2 12//2
f 7//4 2//4 12//4
f 9//3 5//3 13//3
f 7//5 14//5 15//5
f 3//6 2//6 16//6
f 2//4 10//4 16//4
f 13//7 4//7 19//7
f 4//8 16//8 19//8
f 16//9 10//9 19//9
f 8//2 3//2 20//2
f 5//10 8//10 20//10
f 6//3 9//3 21//3
f 9//11 18//11 21//11
f 15//12 1//12 22//12
f 10//13 17//13 22//13
f 18//14 9//14 22//14
f 1//15 18//15 22//15
f 4//16 13//16 23//16
f 13//17 5//17 23//17
f 5//10 20//10 23//10
f 14//18 11//18 24//18
f 1//19 15//19 24//19
f 15//20 14//20 24//20
f 19//21 10//21 25//21
f 22//22 9//22 25//22
f 10//23 22//23 25//23
f 3//24 16//24 26//24
f 16//25 4//25 26//25
f 4//26 23//26 26//26
f 9//27 13//27 27//27
f 13//28 19//28 27//28
f 25//29 9//29 27//29
f 19//30 25//30 27//30
f 12//2 6//2 28//2
f 14//31 28//31 29//31
f 11//32 14//32 29//32
f 6//3 21//3 29//3
f 21//33 11//33 29//33
f 28//34 6//34 29//34
f 10//35 7//35 30//35
f 7//36 15//36 30//36
f 17//37 10//37 30//37
f 18//38 1//38 31//38
f 11//39 21//39 31//39
f 21//40 18//40 31//40
f 24//41 11//41 31//41
f 1//42 24//42 31//42
f 7//43 12//43 32//43
f 14//44 7//44 32//44
f 12//45 28//45 32//45
f 28//46 14//46 32//46
f 15//47 22//47 33//47
f 22//48 17//48 33//48
f 30//49 15//49 33//49
f 17//50 30//50 33//50
f 20//51 3//51 34//51
f 23//52 20//52 34//52
f 3//53 26//53 34//53
