# Blender v2.79 (sub 0) OBJ File: ''
# www.blender.org
mtllib 102703_link_1_37.mtl
o Shape_IndexedFaceSet.037_Shape_IndexedFaceSet.6219
v -0.374463 0.678923 -0.643162
v -0.374463 0.688297 -0.643162
v -0.374463 0.683609 -0.600986
v -0.186989 0.688297 -0.619721
v -0.194037 0.674235 -0.582227
v -0.374463 0.671890 -0.605674
v -0.189339 0.685952 -0.584577
v -0.186989 0.674235 -0.612695
v -0.341648 0.671890 -0.629097
v -0.362736 0.688297 -0.626753
v -0.231532 0.671890 -0.593954
v -0.198717 0.676578 -0.619721
v -0.346328 0.676578 -0.596298
v -0.215124 0.681264 -0.582227
v -0.191688 0.685952 -0.622065
v -0.362736 0.674235 -0.638474
v -0.186989 0.688297 -0.605674
v -0.374463 0.671890 -0.629097
v -0.186989 0.674235 -0.584577
v -0.360386 0.688297 -0.643162
v -0.236212 0.671890 -0.608018
v -0.362736 0.681264 -0.643162
vn 0.1234 -0.0412 -0.9915
vn -1.0000 0.0000 0.0000
vn -0.1528 0.9822 0.1092
vn 0.0000 1.0000 -0.0000
vn -0.0273 0.9856 0.1669
vn -0.0214 -0.9650 0.2615
vn 0.0000 -1.0000 0.0000
vn -0.2403 -0.3605 0.9013
vn -0.0678 -0.7960 0.6015
vn -0.0698 0.7265 0.6836
vn 0.0580 0.1739 0.9831
vn -0.1116 0.2023 0.9730
vn -0.0926 -0.2779 0.9561
vn 0.5562 -0.3714 -0.7434
vn 0.3778 -0.4811 -0.7911
vn 0.0512 -0.9357 -0.3492
vn 0.1017 -0.5646 -0.8191
vn 0.0592 -0.9132 -0.4032
vn 1.0000 0.0000 0.0000
vn -0.0131 0.9940 0.1090
vn -0.1760 -0.8805 -0.4403
vn 0.0000 -0.9701 -0.2426
vn 0.3157 0.0633 0.9468
vn 0.0321 -0.9948 0.0963
vn 0.0526 -0.9986 0.0000
vn 0.9722 0.1950 0.1300
vn 0.0000 0.0000 -1.0000
vn 0.1086 0.5854 -0.8034
vn 0.0319 -0.9867 -0.1594
vn 0.0461 -0.9988 -0.0153
vn 0.1054 -0.5278 -0.8428
vn 0.1245 -0.3276 -0.9366
usemtl Shape.6225
s off
f 20//1 15//1 22//1
f 2//2 1//2 3//2
f 3//2 1//2 6//2
f 2//3 3//3 10//3
f 4//4 2//4 10//4
f 3//5 7//5 10//5
f 5//6 6//6 11//6
f 6//7 9//7 11//7
f 3//8 6//8 13//8
f 6//9 5//9 13//9
f 7//10 3//10 14//10
f 5//11 7//11 14//11
f 3//12 13//12 14//12
f 13//13 5//13 14//13
f 4//14 8//14 15//14
f 8//15 12//15 15//15
f 8//16 9//16 16//16
f 1//17 12//17 16//17
f 12//18 8//18 16//18
f 8//19 4//19 17//19
f 4//4 10//4 17//4
f 10//20 7//20 17//20
f 6//2 1//2 18//2
f 9//7 6//7 18//7
f 1//21 16//21 18//21
f 16//22 9//22 18//22
f 7//23 5//23 19//23
f 5//24 11//24 19//24
f 11//25 8//25 19//25
f 17//26 7//26 19//26
f 8//19 17//19 19//19
f 1//27 2//27 20//27
f 2//4 4//4 20//4
f 4//28 15//28 20//28
f 9//29 8//29 21//29
f 8//30 11//30 21//30
f 11//7 9//7 21//7
f 12//31 1//31 22//31
f 15//32 12//32 22//32
f 1//27 20//27 22//27
