# Blender v2.79 (sub 0) OBJ File: ''
# www.blender.org
mtllib 102703_link_4_185.mtl
o Shape_IndexedFaceSet.185_Shape_IndexedFaceSet.226
v -0.333067 -0.133198 0.193441
v -0.106640 -0.135736 0.409646
v -0.267584 -0.013096 0.409646
v -0.106640 -0.082105 0.057002
v -0.091670 -0.230189 0.039784
v -0.359484 -0.020546 0.069695
v -0.232402 -0.209556 0.391712
v -0.389714 -0.019224 0.399205
v -0.198638 -0.013096 0.057002
v -0.206292 -0.204745 0.057002
v -0.175616 -0.220083 0.409646
v -0.299953 -0.173336 0.326787
v -0.402685 -0.020227 0.240459
v -0.106640 -0.181728 0.409646
v -0.348641 -0.106378 0.390333
v -0.246707 -0.206000 0.246535
v -0.334459 -0.106452 0.124913
v -0.175616 -0.220083 0.057002
v -0.376161 -0.078978 0.274339
v -0.383030 -0.044777 0.171781
v -0.286291 -0.179204 0.213550
v -0.286797 -0.140106 0.078754
v -0.333635 -0.140039 0.306981
v -0.321877 -0.140681 0.391677
vn -0.7861 -0.6092 0.1045
vn 0.6017 0.7896 0.1201
vn 0.9950 0.0988 0.0150
vn 0.5960 0.7945 0.1165
vn 0.0932 0.1243 -0.9879
vn -0.0804 0.0394 -0.9960
vn -0.1629 -0.0676 -0.9843
vn 0.0000 0.0000 1.0000
vn -0.0833 -0.0370 0.9958
vn -0.0499 0.9988 -0.0022
vn -0.0424 0.9991 -0.0083
vn -0.0474 0.9988 -0.0138
vn 0.9992 0.0000 0.0404
vn 0.4817 -0.8662 0.1330
vn -0.4926 -0.8698 0.0272
vn -0.2312 -0.4625 -0.8559
vn -0.1195 -0.9928 0.0000
vn -0.1823 -0.9832 0.0000
vn -0.4449 -0.8899 -0.1008
vn -0.2042 -0.9789 -0.0039
vn -0.9247 -0.3726 0.0779
vn -0.8947 -0.4329 0.1100
vn -0.9655 -0.0902 -0.2441
vn -0.8355 -0.5174 -0.1850
vn -0.8469 -0.4393 -0.2996
vn -0.8530 -0.5096 -0.1128
vn -0.8867 -0.4532 -0.0917
vn -0.6397 -0.7405 -0.2061
vn -0.4922 -0.8634 -0.1107
vn -0.5474 -0.8366 -0.0227
vn -0.6461 -0.7318 -0.2166
vn -0.5053 -0.3664 -0.7813
vn -0.7062 -0.6643 -0.2449
vn -0.7592 -0.4937 -0.4240
vn -0.8100 -0.5851 -0.0393
vn -0.8357 -0.5448 0.0696
vn -0.6901 -0.7222 -0.0470
vn -0.6886 -0.7237 -0.0456
vn -0.3437 -0.4460 0.8264
vn -0.2156 -0.1799 0.9598
vn -0.5990 -0.7781 0.1892
vn -0.3989 -0.2770 0.8742
vn -0.7277 -0.6791 0.0959
usemtl Shape.235
s off
f 15//1 23//1 24//1
f 3//2 2//2 4//2
f 4//3 2//3 5//3
f 3//4 4//4 9//4
f 4//5 5//5 9//5
f 5//6 6//6 9//6
f 6//7 5//7 10//7
f 2//8 3//8 11//8
f 3//9 8//9 11//9
f 8//10 3//10 13//10
f 3//11 9//11 13//11
f 9//12 6//12 13//12
f 5//13 2//13 14//13
f 2//8 11//8 14//8
f 11//14 5//14 14//14
f 7//15 12//15 16//15
f 10//16 5//16 18//16
f 5//17 11//17 18//17
f 11//18 7//18 18//18
f 16//19 10//19 18//19
f 7//20 16//20 18//20
f 8//21 13//21 19//21
f 15//22 8//22 19//22
f 13//23 6//23 20//23
f 17//24 1//24 20//24
f 6//25 17//25 20//25
f 1//26 19//26 20//26
f 19//27 13//27 20//27
f 1//28 10//28 21//28
f 10//29 16//29 21//29
f 16//30 12//30 21//30
f 10//31 1//31 22//31
f 6//32 10//32 22//32
f 1//33 17//33 22//33
f 17//34 6//34 22//34
f 19//35 1//35 23//35
f 15//36 19//36 23//36
f 1//37 21//37 23//37
f 21//38 12//38 23//38
f 7//39 11//39 24//39
f 11//40 8//40 24//40
f 12//41 7//41 24//41
f 8//42 15//42 24//42
f 23//43 12//43 24//43
