# Blender v2.79 (sub 0) OBJ File: ''
# www.blender.org
mtllib 102703_link_2_33.mtl
o Shape_IndexedFaceSet.033_Shape_IndexedFaceSet.17568
v 0.310335 0.302418 0.386563
v 0.372792 0.269841 0.280650
v 0.372792 0.256260 0.280650
v 0.342914 0.264410 0.454460
v 0.310335 0.299699 0.272533
v 0.313055 0.267123 0.451712
v 0.329348 0.310562 0.275227
v 0.359207 0.256260 0.269786
v 0.356487 0.277985 0.364816
v 0.326634 0.256260 0.454460
v 0.313055 0.288837 0.451712
v 0.367351 0.283417 0.269786
v 0.359207 0.256260 0.389256
v 0.310335 0.313280 0.269786
v 0.318484 0.305131 0.356718
v 0.310335 0.269841 0.454460
v 0.361922 0.267123 0.372969
v 0.332063 0.280704 0.435425
v 0.345629 0.256260 0.449019
vn 0.9714 0.0881 0.2207
vn -0.6631 -0.7382 -0.1241
vn 0.0000 -1.0000 0.0000
vn -0.6078 -0.7868 -0.1072
vn 0.8941 0.0000 -0.4478
vn 0.6139 -0.1841 -0.7676
vn 0.5882 0.8008 0.1130
vn -1.0000 0.0000 0.0000
vn -0.2254 -0.1932 -0.9549
vn 0.3001 0.5731 -0.7626
vn 0.0000 0.0000 -1.0000
vn 0.5580 0.8197 0.1290
vn 0.3443 0.9219 0.1778
vn 0.0077 0.9957 0.0926
vn 0.1181 0.9896 0.0817
vn -0.7545 -0.6476 -0.1063
vn 0.0000 0.0000 1.0000
vn -0.6351 -0.7622 0.1253
vn -0.9857 0.1517 0.0728
vn 0.0233 0.1399 0.9899
vn 0.9931 0.0000 0.1169
vn 0.8044 0.5572 0.2062
vn 0.8858 0.4490 0.1175
vn 0.8459 0.5181 0.1263
vn 0.9904 -0.0618 0.1239
vn 0.6832 0.6996 0.2094
vn 0.5852 0.7500 0.3084
vn 0.5512 0.8191 0.1591
vn 0.5094 0.8428 0.1737
vn 0.2413 -0.4820 0.8423
vn 0.9590 0.1664 0.2292
usemtl Shape.17583
s off
f 13//1 17//1 19//1
f 6//2 5//2 8//2
f 8//3 3//3 10//3
f 6//4 8//4 10//4
f 2//5 3//5 12//5
f 3//6 8//6 12//6
f 7//7 9//7 12//7
f 10//3 3//3 13//3
f 5//8 1//8 14//8
f 8//9 5//9 14//9
f 7//10 12//10 14//10
f 12//11 8//11 14//11
f 9//12 7//12 15//12
f 1//13 11//13 15//13
f 14//14 1//14 15//14
f 7//15 14//15 15//15
f 1//8 5//8 16//8
f 5//16 6//16 16//16
f 10//17 4//17 16//17
f 6//18 10//18 16//18
f 11//19 1//19 16//19
f 4//20 11//20 16//20
f 3//21 2//21 17//21
f 9//22 4//22 17//22
f 2//23 12//23 17//23
f 12//24 9//24 17//24
f 13//25 3//25 17//25
f 4//26 9//26 18//26
f 11//27 4//27 18//27
f 9//28 15//28 18//28
f 15//29 11//29 18//29
f 4//30 10//30 19//30
f 10//3 13//3 19//3
f 17//31 4//31 19//31
