# Blender v2.79 (sub 0) OBJ File: ''
# www.blender.org
mtllib 102703_link_3_0.mtl
o Shape_IndexedFaceSet_Shape_IndexedFaceSet.16884
v -0.329754 0.205932 0.063167
v -0.353963 0.195166 0.073935
v -0.364715 0.208625 0.213863
v -0.033800 0.214005 0.063167
v -0.367420 0.149436 0.133160
v -0.033800 0.149436 0.130461
v -0.372796 0.149436 0.213863
v -0.033800 0.197859 0.154638
v -0.313626 0.216704 0.071250
v -0.033800 0.154822 0.186928
v -0.033800 0.214005 0.103540
v -0.122589 0.181727 0.213863
v -0.033800 0.195166 0.073935
v -0.340506 0.211312 0.208479
v -0.364715 0.208625 0.111609
v -0.383582 0.154822 0.181558
v -0.144128 0.152129 0.213863
v -0.058009 0.216704 0.082004
v -0.308250 0.208625 0.213863
v -0.033800 0.170968 0.195026
v -0.372796 0.152129 0.127761
v -0.383582 0.168275 0.200395
v -0.345882 0.214005 0.071250
v -0.039176 0.211312 0.122392
v -0.378206 0.165582 0.130461
v -0.353963 0.179041 0.092772
v -0.033800 0.149436 0.151953
v -0.197922 0.195166 0.213863
v -0.372796 0.203239 0.170805
v -0.033800 0.205932 0.063167
v -0.270549 0.216704 0.090102
v -0.362044 0.197859 0.079319
v -0.316297 0.214005 0.063167
v -0.259797 0.149436 0.213863
v -0.103756 0.157509 0.213863
v -0.033800 0.179041 0.092772
v -0.345882 0.214005 0.143870
v -0.364715 0.157509 0.119678
v -0.036471 0.179041 0.189642
v -0.380877 0.152129 0.213863
v -0.370125 0.195166 0.111609
v -0.374980 0.192301 0.212429
v -0.047223 0.216704 0.071250
v -0.362044 0.211312 0.119678
v -0.351292 0.211312 0.068551
v -0.033800 0.160202 0.195026
v -0.101051 0.170968 0.213863
v -0.033800 0.157509 0.119678
v -0.378206 0.152129 0.141200
v -0.340506 0.149436 0.130461
v -0.033800 0.152129 0.176174
v -0.230178 0.216704 0.068551
v -0.036471 0.205932 0.135830
v -0.378206 0.157509 0.130461
v -0.367420 0.208625 0.200395
vn -0.1931 0.9810 0.0198
vn 0.0000 -1.0000 0.0000
vn 1.0000 0.0000 -0.0000
vn 0.0000 0.0000 1.0000
vn 0.0000 -0.7072 -0.7070
vn 0.0245 0.9950 0.0971
vn 0.0000 0.8948 0.4465
vn 0.0439 0.9872 0.1535
vn 0.0516 0.9822 0.1808
vn -0.9904 0.1127 -0.0805
vn 0.0000 -0.7597 -0.6503
vn 0.1551 0.8693 0.4693
vn 0.0000 0.0000 -1.0000
vn -0.0000 1.0000 0.0000
vn 0.0018 0.9989 0.0465
vn -0.5869 -0.5197 -0.6209
vn -0.0798 0.9531 -0.2919
vn 0.0232 -0.9961 0.0847
vn 0.1208 -0.9066 0.4042
vn -0.0993 0.9938 0.0497
vn -0.0834 0.9965 0.0000
vn -0.0136 0.9994 0.0311
vn -0.0057 0.9991 0.0421
vn -0.1536 -0.7449 -0.6493
vn -0.1054 -0.7554 -0.6467
vn 0.0000 -0.7808 -0.6248
vn 0.1611 0.8641 0.4768
vn 0.8135 0.4841 0.3223
vn 0.2353 0.5919 0.7709
vn -0.9918 -0.1041 0.0744
vn -0.9735 0.2130 -0.0830
vn -0.9239 0.3714 -0.0923
vn -0.9691 0.2348 -0.0758
vn -0.9096 0.3656 -0.1972
vn -0.9658 0.1159 -0.2320
vn -0.9463 0.3214 0.0348
vn -0.2476 0.0708 0.9663
vn -0.9202 0.1480 0.3623
vn 0.1971 0.9804 0.0000
vn 0.0587 0.9965 0.0589
vn -0.6716 0.7405 -0.0243
vn -0.1644 0.9864 0.0000
vn -0.2945 -0.2581 -0.9201
vn -0.5847 -0.1679 -0.7937
vn -0.8419 0.4871 -0.2321
vn -0.1669 0.2783 -0.9459
vn -0.1464 0.8314 -0.5360
vn -0.5208 0.8466 -0.1095
vn -0.4092 0.9084 -0.0861
vn 0.1782 -0.8196 0.5445
vn 0.2615 -0.0526 0.9638
vn 0.2373 0.4751 0.8473
vn 0.2697 0.0000 0.9629
vn 0.0000 -0.8005 -0.5993
vn -0.2541 -0.9670 -0.0169
vn -0.3329 -0.9334 -0.1340
vn -0.3161 -0.9486 -0.0116
vn -0.5688 -0.8222 -0.0209
vn -0.0414 -0.9099 -0.4127
vn -0.0211 -0.8224 -0.5685
vn 0.0827 -0.9667 0.2421
vn 0.0377 -0.9932 0.1104
vn -0.0000 0.8940 -0.4481
vn -0.0101 0.9495 -0.3137
vn 0.0046 0.9508 -0.3099
vn 0.6053 0.7590 0.2398
vn 0.4528 0.8554 0.2513
vn 0.1098 0.9302 0.3503
vn 0.1210 0.9183 0.3770
vn 0.1129 0.9256 0.3613
vn -0.9945 0.0000 -0.1046
vn -0.7072 -0.4291 -0.5620
vn -0.9535 0.0000 -0.3013
vn -0.7438 -0.5976 -0.2994
vn -0.9672 -0.2269 -0.1137
vn -0.1613 0.9864 0.0324
vn -0.8410 0.5140 0.1689
vn -0.8823 0.4645 0.0758
vn -0.6550 0.7554 -0.0185
usemtl Shape.16894
s off
f 37//1 44//1 55//1
f 5//2 6//2 7//2
f 6//3 4//3 8//3
f 6//3 8//3 10//3
f 8//3 4//3 11//3
f 3//4 7//4 12//4
f 2//5 1//5 13//5
f 4//3 6//3 13//3
f 12//4 7//4 17//4
f 14//6 11//6 18//6
f 3//4 12//4 19//4
f 14//7 3//7 19//7
f 10//3 8//3 20//3
f 11//8 14//8 24//8
f 14//9 19//9 24//9
f 16//10 22//10 25//10
f 2//11 13//11 26//11
f 7//2 6//2 27//2
f 6//3 10//3 27//3
f 12//12 8//12 28//12
f 19//4 12//4 28//4
f 1//13 4//13 30//13
f 13//5 1//5 30//5
f 4//3 13//3 30//3
f 18//14 9//14 31//14
f 14//15 18//15 31//15
f 2//16 21//16 32//16
f 4//13 1//13 33//13
f 23//17 9//17 33//17
f 17//4 7//4 34//4
f 7//2 27//2 34//2
f 27//18 17//18 34//18
f 17//19 10//19 35//19
f 12//4 17//4 35//4
f 13//3 6//3 36//3
f 26//11 13//11 36//11
f 3//20 14//20 37//20
f 9//21 23//21 37//21
f 31//22 9//22 37//22
f 14//23 31//23 37//23
f 21//24 2//24 38//24
f 2//25 26//25 38//25
f 26//26 36//26 38//26
f 8//27 12//27 39//27
f 20//28 8//28 39//28
f 12//29 20//29 39//29
f 7//4 3//4 40//4
f 22//30 16//30 40//30
f 25//31 22//31 41//31
f 29//32 15//32 41//32
f 22//33 29//33 41//33
f 15//34 32//34 41//34
f 32//35 25//35 41//35
f 29//36 22//36 42//36
f 40//37 3//37 42//37
f 22//38 40//38 42//38
f 11//39 4//39 43//39
f 9//14 18//14 43//14
f 18//40 11//40 43//40
f 15//41 29//41 44//41
f 37//42 23//42 44//42
f 1//43 2//43 45//43
f 2//44 32//44 45//44
f 32//45 15//45 45//45
f 33//46 1//46 45//46
f 23//47 33//47 45//47
f 15//48 44//48 45//48
f 44//49 23//49 45//49
f 10//3 20//3 46//3
f 35//50 10//50 46//50
f 35//51 46//51 47//51
f 20//52 12//52 47//52
f 12//4 35//4 47//4
f 46//53 20//53 47//53
f 36//3 6//3 48//3
f 6//54 38//54 48//54
f 38//26 36//26 48//26
f 5//55 7//55 49//55
f 21//56 5//56 49//56
f 7//57 40//57 49//57
f 40//58 16//58 49//58
f 6//2 5//2 50//2
f 5//59 21//59 50//59
f 21//60 38//60 50//60
f 38//54 6//54 50//54
f 10//61 17//61 51//61
f 27//3 10//3 51//3
f 17//62 27//62 51//62
f 4//63 33//63 52//63
f 33//64 9//64 52//64
f 43//65 4//65 52//65
f 9//14 43//14 52//14
f 8//66 11//66 53//66
f 11//67 24//67 53//67
f 24//68 19//68 53//68
f 28//69 8//69 53//69
f 19//70 28//70 53//70
f 16//71 25//71 54//71
f 32//72 21//72 54//72
f 25//73 32//73 54//73
f 21//74 49//74 54//74
f 49//75 16//75 54//75
f 3//76 37//76 55//76
f 42//77 3//77 55//77
f 29//78 42//78 55//78
f 44//79 29//79 55//79
