# Blender v2.79 (sub 0) OBJ File: ''
# www.blender.org
mtllib 102703_link_4_101.mtl
o Shape_IndexedFaceSet.101_Shape_IndexedFaceSet.142
v -0.244544 0.661527 -0.349302
v 0.261288 0.692192 -0.333973
v 0.366029 0.684993 -0.333272
v -0.337403 0.668822 -0.333416
v -0.252248 0.692192 -0.349302
v 0.261288 0.661527 -0.349302
v -0.045228 0.684526 -0.356969
v 0.268992 0.661527 -0.333973
v -0.259887 0.692192 -0.333973
vn 0.0000 1.0000 -0.0000
vn -0.1718 -0.0432 -0.9842
vn 0.0000 -0.3163 -0.9487
vn 0.0458 0.5884 -0.8073
vn -0.0374 -0.0094 -0.9993
vn 0.0145 0.8748 -0.4843
vn 0.0525 0.3930 -0.9180
vn 0.0005 -0.0321 0.9995
vn -0.0109 -0.9313 0.3641
vn 0.2342 -0.9650 -0.1177
vn 0.0000 -1.0000 -0.0000
vn 0.0000 0.0969 0.9953
vn -0.0008 0.0265 0.9996
vn -0.2866 0.9473 -0.1428
usemtl Shape.151
s off
f 2//1 5//1 9//1
f 1//2 4//2 5//2
f 6//3 1//3 7//3
f 2//4 3//4 7//4
f 1//5 5//5 7//5
f 5//6 2//6 7//6
f 3//7 6//7 7//7
f 3//8 4//8 8//8
f 4//9 1//9 8//9
f 6//10 3//10 8//10
f 1//11 6//11 8//11
f 3//12 2//12 9//12
f 4//13 3//13 9//13
f 5//14 4//14 9//14
