# Blender v2.79 (sub 0) OBJ File: ''
# www.blender.org
mtllib 102703_link_4_46.mtl
o Shape_IndexedFaceSet.046_Shape_IndexedFaceSet.087
v 0.184727 0.270583 -0.034995
v 0.184727 0.270583 -0.027336
v 0.338036 0.186245 -0.042664
v 0.204523 0.180054 -0.137862
v 0.192396 0.393211 -0.134652
v 0.269020 0.255247 -0.134652
v 0.223070 0.370177 -0.042664
v 0.338036 0.301195 -0.027336
v 0.292025 0.186245 -0.027336
v 0.322684 0.324189 -0.065672
v 0.184727 0.339525 -0.027336
v 0.307347 0.186245 -0.096306
v 0.253728 0.347183 -0.134652
v 0.184727 0.324189 -0.134652
v 0.269020 0.370177 -0.088637
v 0.269020 0.186245 -0.134652
v 0.261382 0.370177 -0.050344
vn 0.6150 0.7789 0.1227
vn -0.9769 -0.2136 0.0000
vn 0.0147 -0.9989 0.0443
vn -0.5453 -0.6937 0.4705
vn 0.0000 0.0000 1.0000
vn 0.3136 -0.1255 0.9412
vn 0.9366 0.0463 -0.3473
vn -1.0000 0.0000 0.0000
vn -0.4895 0.7933 0.3619
vn 0.0887 0.3546 0.9308
vn 0.0780 -0.9960 -0.0446
vn 0.7579 0.0600 -0.6496
vn 0.8679 0.0138 -0.4965
vn 0.0118 0.0157 -0.9998
vn 0.0416 0.0069 -0.9991
vn 0.7218 0.1201 -0.6816
vn -0.9883 -0.1341 -0.0722
vn -0.0893 0.0099 -0.9960
vn -0.9938 0.1104 -0.0158
vn 0.5149 0.6861 -0.5140
vn 0.6775 0.5427 -0.4964
vn 0.0497 0.0000 -0.9988
vn 0.1000 -0.9900 -0.0999
vn 0.7073 0.0000 -0.7069
vn 0.0458 0.9725 0.2283
vn 0.1726 0.4788 0.8608
vn 0.6197 0.7573 0.2061
vn 0.2589 0.9645 0.0516
usemtl Shape.096
s off
f 10//1 15//1 17//1
f 2//2 1//2 4//2
f 4//3 3//3 9//3
f 2//4 4//4 9//4
f 8//5 2//5 9//5
f 3//6 8//6 9//6
f 8//7 3//7 10//7
f 1//8 2//8 11//8
f 7//9 5//9 11//9
f 2//5 8//5 11//5
f 8//10 7//10 11//10
f 3//11 4//11 12//11
f 6//12 10//12 12//12
f 10//13 3//13 12//13
f 4//14 5//14 13//14
f 6//15 4//15 13//15
f 10//16 6//16 13//16
f 4//17 1//17 14//17
f 5//18 4//18 14//18
f 1//8 11//8 14//8
f 11//19 5//19 14//19
f 13//20 5//20 15//20
f 10//21 13//21 15//21
f 4//22 6//22 16//22
f 12//23 4//23 16//23
f 6//24 12//24 16//24
f 5//25 7//25 17//25
f 7//26 8//26 17//26
f 8//27 10//27 17//27
f 15//28 5//28 17//28
