# Blender v2.79 (sub 0) OBJ File: ''
# www.blender.org
mtllib 102703_link_4_45.mtl
o Shape_IndexedFaceSet.045_Shape_IndexedFaceSet.086
v 0.169374 0.393199 -0.058003
v 0.077386 0.370209 -0.134652
v 0.077386 0.331889 -0.073341
v 0.184774 0.339522 -0.134714
v 0.184712 0.331889 -0.027336
v 0.077386 0.385538 -0.042664
v 0.092724 0.408536 -0.134652
v 0.184712 0.393199 -0.134652
v 0.077386 0.331889 -0.027336
vn 0.0000 0.2747 0.9615
vn -0.2358 -0.8241 -0.5151
vn 0.0304 -0.9970 -0.0709
vn -1.0000 0.0000 0.0000
vn 0.1076 0.4662 0.8781
vn -0.0415 0.9709 0.2358
vn -0.0005 0.0002 -1.0000
vn -0.9266 0.3708 -0.0618
vn 0.0002 0.0012 -1.0000
vn 0.9274 0.3248 0.1856
vn 1.0000 0.0012 0.0007
vn 0.1644 0.9859 0.0329
vn 0.0000 -1.0000 0.0000
usemtl Shape.095
s off
f 5//1 6//1 9//1
f 3//2 2//2 4//2
f 3//3 4//3 5//3
f 2//4 3//4 6//4
f 5//5 1//5 6//5
f 6//6 1//6 7//6
f 4//7 2//7 7//7
f 2//8 6//8 7//8
f 4//9 7//9 8//9
f 1//10 5//10 8//10
f 5//11 4//11 8//11
f 7//12 1//12 8//12
f 3//13 5//13 9//13
f 6//4 3//4 9//4
