# Blender v2.79 (sub 0) OBJ File: ''
# www.blender.org
mtllib 102703_link_1_0.mtl
o Shape_IndexedFaceSet_Shape_IndexedFaceSet.6182
v -0.320580 0.742208 -0.277540
v -0.154145 0.746892 -0.425187
v -0.154145 0.756267 -0.425187
v 0.000539 0.732835 -0.268148
v -0.421742 0.732951 -0.424452
v 0.000539 0.751578 -0.291590
v 0.000539 0.744552 -0.418132
v -0.386191 0.732833 -0.275188
v -0.386191 0.746894 -0.343163
v 0.000539 0.758611 -0.425187
v -0.400227 0.746894 -0.425172
v -0.095593 0.753922 -0.329097
v -0.367421 0.744552 -0.289253
v 0.000539 0.732835 -0.284580
v -0.393209 0.732833 -0.425172
v -0.404919 0.739863 -0.322072
v -0.179974 0.756269 -0.420484
v 0.000539 0.746892 -0.277525
v -0.332290 0.746894 -0.300982
v 0.000539 0.758611 -0.399393
v -0.020556 0.744552 -0.425187
v -0.252561 0.737522 -0.270500
v -0.116688 0.749236 -0.284580
v -0.119014 0.756267 -0.380640
v -0.367421 0.749236 -0.425172
v -0.411937 0.742208 -0.375951
v -0.414304 0.732833 -0.343163
v -0.107303 0.751578 -0.298630
v -0.388516 0.739863 -0.282213
v -0.250235 0.753925 -0.413459
v -0.196376 0.753925 -0.368926
v 0.000539 0.739866 -0.270515
v -0.142434 0.744552 -0.275203
v 0.000539 0.753922 -0.317384
v -0.325273 0.732833 -0.270500
v -0.067480 0.758611 -0.425187
v -0.008846 0.744552 -0.422820
v -0.418996 0.739863 -0.404066
v -0.400227 0.732833 -0.291605
v -0.393209 0.744552 -0.322072
v -0.203394 0.751578 -0.326761
v -0.344001 0.737522 -0.272851
v -0.353344 0.746894 -0.312696
v -0.041693 0.756267 -0.359549
v -0.404919 0.744552 -0.366574
v -0.414304 0.742208 -0.425172
vn -0.3361 0.9417 0.0162
vn 1.0000 0.0000 -0.0000
vn -0.0000 0.0000 -1.0000
vn -0.0000 -0.0008 -1.0000
vn -0.0232 0.9584 0.2846
vn -0.0001 0.9487 0.3161
vn -0.0001 0.0018 -1.0000
vn -0.0712 0.9974 0.0122
vn -0.0324 0.9834 -0.1786
vn 0.0000 -1.0000 0.0000
vn -0.0042 -1.0000 -0.0011
vn -0.0220 0.9910 0.1320
vn -0.0103 0.9874 0.1577
vn -0.0213 0.9884 0.1505
vn -0.0603 0.9046 0.4220
vn -0.0419 0.9989 0.0189
vn -0.0366 0.9988 -0.0332
vn -0.0245 0.9990 0.0376
vn -0.0297 0.9989 0.0360
vn -0.0029 0.3191 0.9477
vn -0.0057 0.6157 0.7879
vn -0.0174 0.9127 0.4082
vn -0.0078 0.9030 0.4296
vn -0.0001 0.7063 0.7079
vn -0.0059 0.9959 0.0905
vn -0.0089 0.9973 0.0733
vn -0.0072 0.1113 0.9938
vn -0.0267 0.9887 -0.1472
vn 0.0000 1.0000 0.0000
vn -0.0196 0.9994 0.0300
vn -0.0139 0.9992 0.0365
vn 0.4077 -0.4095 -0.8161
vn 0.0436 -0.9952 -0.0873
vn 0.0309 -0.9958 -0.0865
vn 0.1899 -0.2850 -0.9395
vn 0.0311 -0.9876 -0.1536
vn -0.7188 0.6842 0.1234
vn -0.7666 0.6285 0.1316
vn -0.9880 0.1253 0.0906
vn -0.8637 0.4455 0.2358
vn -0.7062 0.3698 0.6038
vn -0.6435 0.7182 0.2648
vn -0.0985 0.9921 0.0774
vn -0.1718 0.9758 0.1350
vn -0.3675 0.9177 0.1512
vn -0.0205 0.9983 0.0547
vn -0.0202 0.9974 0.0690
vn -0.0215 0.9971 0.0735
vn -0.0260 0.9983 0.0512
vn -0.0224 0.9984 0.0519
vn -0.0653 0.8498 0.5230
vn -0.1158 0.6827 0.7215
vn -0.0175 0.7311 0.6821
vn -0.0185 0.7520 0.6589
vn -0.0753 0.1899 0.9789
vn -0.0239 0.3702 0.9286
vn -0.0593 0.9962 0.0639
vn -0.0415 0.9963 0.0746
vn -0.0332 0.9988 0.0358
vn -0.0272 0.9984 0.0489
vn -0.0312 0.9988 0.0378
vn -0.0141 0.9986 0.0519
vn -0.0124 0.9989 0.0456
vn -0.0016 0.9984 0.0571
vn -0.0077 0.9980 0.0632
vn -0.1571 0.9872 0.0269
vn -0.4270 0.8993 0.0948
vn -0.1830 0.9819 0.0482
vn -0.3700 0.9239 0.0974
vn -0.0001 0.0000 -1.0000
vn -0.0001 0.0002 -1.0000
vn -0.0001 -0.0001 -1.0000
vn -0.0254 -0.0572 -0.9980
vn -0.7792 0.6180 -0.1046
vn -0.3800 0.9248 0.0183
vn -0.3158 0.9487 0.0126
usemtl Shape.6188
s off
f 26//1 45//1 46//1
f 6//2 4//2 7//2
f 2//3 3//3 10//3
f 6//2 7//2 10//2
f 7//2 4//2 14//2
f 4//2 6//2 18//2
f 6//2 10//2 20//2
f 2//3 10//3 21//3
f 15//4 2//4 21//4
f 13//5 1//5 23//5
f 18//6 6//6 23//6
f 3//7 11//7 25//7
f 11//8 9//8 25//8
f 17//9 3//9 25//9
f 15//10 8//10 27//10
f 5//11 15//11 27//11
f 19//12 13//12 28//12
f 23//13 6//13 28//13
f 13//14 23//14 28//14
f 1//15 13//15 29//15
f 25//16 9//16 30//16
f 17//17 25//17 30//17
f 24//18 17//18 31//18
f 17//19 30//19 31//19
f 4//2 18//2 32//2
f 22//20 4//20 32//20
f 22//21 32//21 33//21
f 23//22 1//22 33//22
f 18//23 23//23 33//23
f 32//24 18//24 33//24
f 6//2 20//2 34//2
f 28//25 6//25 34//25
f 12//26 28//26 34//26
f 14//10 4//10 35//10
f 8//10 15//10 35//10
f 15//10 14//10 35//10
f 4//27 22//27 35//27
f 10//3 3//3 36//3
f 3//28 17//28 36//28
f 20//29 10//29 36//29
f 17//30 24//30 36//30
f 24//31 20//31 36//31
f 10//32 7//32 37//32
f 7//33 14//33 37//33
f 14//34 15//34 37//34
f 21//35 10//35 37//35
f 15//36 21//36 37//36
f 16//37 26//37 38//37
f 27//38 16//38 38//38
f 5//39 27//39 38//39
f 16//40 27//40 39//40
f 27//10 8//10 39//10
f 8//41 29//41 39//41
f 29//42 16//42 39//42
f 13//43 9//43 40//43
f 29//44 13//44 40//44
f 16//45 29//45 40//45
f 12//46 24//46 41//46
f 28//47 12//47 41//47
f 19//48 28//48 41//48
f 31//49 19//49 41//49
f 24//50 31//50 41//50
f 1//51 29//51 42//51
f 29//52 8//52 42//52
f 22//53 33//53 42//53
f 33//54 1//54 42//54
f 8//55 35//55 42//55
f 35//56 22//56 42//56
f 9//57 13//57 43//57
f 13//58 19//58 43//58
f 30//59 9//59 43//59
f 19//60 31//60 43//60
f 31//61 30//61 43//61
f 24//62 12//62 44//62
f 20//63 24//63 44//63
f 34//64 20//64 44//64
f 12//65 34//65 44//65
f 9//66 11//66 45//66
f 26//67 16//67 45//67
f 40//68 9//68 45//68
f 16//69 40//69 45//69
f 3//70 2//70 46//70
f 11//71 3//71 46//71
f 2//72 15//72 46//72
f 15//73 5//73 46//73
f 5//74 38//74 46//74
f 38//75 26//75 46//75
f 45//76 11//76 46//76
