# Blender v2.79 (sub 0) OBJ File: ''
# www.blender.org
mtllib 102703_link_4_34.mtl
o Shape_IndexedFaceSet.034_Shape_IndexedFaceSet.075
v -0.068267 -0.112744 0.792942
v -0.247331 -0.014739 0.725241
v -0.052913 -0.013096 0.854284
v 0.039009 -0.181752 0.723972
v 0.115676 -0.074427 0.808274
v -0.167915 -0.128081 0.731638
v -0.160238 -0.020773 0.815940
v 0.244035 -0.016320 0.726463
v 0.108049 -0.013096 0.838939
v 0.177040 -0.120421 0.731638
v 0.039009 -0.066767 0.831273
v 0.192344 -0.020773 0.792942
v -0.045237 -0.181752 0.731638
v 0.039009 -0.143418 0.769969
v -0.244583 -0.043770 0.731638
v -0.152562 -0.082103 0.785301
v -0.091247 -0.051430 0.831273
v -0.068267 -0.174075 0.723972
v 0.115676 -0.135741 0.754636
v -0.029933 -0.082103 0.823606
v 0.238355 -0.051430 0.731638
vn 0.5575 -0.4954 0.6662
vn -0.1407 0.9697 0.1996
vn 0.0025 0.0119 -0.9999
vn -0.0011 0.9999 -0.0111
vn 0.0033 0.9997 -0.0247
vn 0.1073 -0.1181 -0.9872
vn 0.0918 -0.2555 0.9624
vn 0.2235 -0.4135 0.8826
vn 0.4205 -0.3634 0.8313
vn 0.2107 0.9507 0.2275
vn 0.4967 -0.5088 0.7031
vn -0.3008 -0.6875 0.6609
vn 0.1694 -0.6156 0.7697
vn 0.0582 -0.7669 0.6391
vn -0.2540 -0.2310 -0.9392
vn -0.7159 0.0850 0.6931
vn -0.5814 -0.4207 0.6964
vn -0.3069 -0.6776 0.6684
vn -0.5811 -0.5284 0.6190
vn -0.3112 -0.2406 0.9194
vn -0.3799 -0.4510 0.8076
vn -0.2808 -0.5822 0.7630
vn 0.0006 0.0087 -1.0000
vn -0.1486 -0.1592 -0.9760
vn -0.3853 -0.8807 0.2755
vn -0.0562 -0.7848 -0.6172
vn 0.4077 -0.6012 0.6873
vn 0.3568 -0.8511 0.3850
vn 0.2116 -0.6435 0.7356
vn 0.2008 -0.7526 0.6272
vn -0.0105 -0.4091 0.9124
vn -0.0523 -0.6729 0.7378
vn 0.0520 -0.6237 0.7799
vn -0.0278 -0.6757 0.7367
vn -0.1046 -0.4329 0.8954
vn -0.1850 -0.5699 0.8007
vn 0.1957 -0.1739 -0.9651
vn 0.7901 -0.0376 0.6118
usemtl Shape.084
s off
f 12//1 10//1 21//1
f 3//2 2//2 7//2
f 4//3 2//3 8//3
f 2//4 3//4 9//4
f 8//5 2//5 9//5
f 4//6 8//6 10//6
f 9//7 3//7 11//7
f 5//8 9//8 11//8
f 9//9 5//9 12//9
f 8//10 9//10 12//10
f 5//11 10//11 12//11
f 1//12 6//12 13//12
f 5//13 11//13 14//13
f 13//14 4//14 14//14
f 2//15 6//15 15//15
f 7//16 2//16 15//16
f 7//17 15//17 16//17
f 6//18 1//18 16//18
f 15//19 6//19 16//19
f 3//20 7//20 17//20
f 7//21 16//21 17//21
f 16//22 1//22 17//22
f 2//23 4//23 18//23
f 6//24 2//24 18//24
f 13//25 6//25 18//25
f 4//26 13//26 18//26
f 10//27 5//27 19//27
f 4//28 10//28 19//28
f 5//29 14//29 19//29
f 14//30 4//30 19//30
f 11//31 3//31 20//31
f 1//32 13//32 20//32
f 14//33 11//33 20//33
f 13//34 14//34 20//34
f 3//35 17//35 20//35
f 17//36 1//36 20//36
f 10//37 8//37 21//37
f 8//38 12//38 21//38
