# Blender v2.79 (sub 0) OBJ File: ''
# www.blender.org
mtllib 102703_link_2_5.mtl
o Shape_IndexedFaceSet.005_Shape_IndexedFaceSet.17540
v -0.319739 0.237239 0.538639
v -0.338743 0.199223 0.446328
v -0.338743 0.253533 0.430018
v -0.300730 0.201945 0.527772
v -0.303447 0.253533 0.530484
v -0.352319 0.253533 0.440895
v -0.327883 0.201945 0.519628
v -0.355036 0.204661 0.430018
v -0.336027 0.204661 0.432750
v -0.327883 0.253533 0.516906
v -0.352319 0.218239 0.451761
v -0.300730 0.199223 0.538639
v -0.317023 0.199223 0.538639
v -0.303447 0.253533 0.538639
v -0.355036 0.242667 0.430018
vn -0.9923 0.0000 0.1240
vn 0.9414 0.0670 -0.3307
vn -0.0000 1.0000 0.0000
vn -0.3976 -0.9129 0.0928
vn 0.1421 -0.0474 -0.9887
vn 0.9372 0.0327 -0.3472
vn 0.5320 -0.8174 -0.2210
vn 0.0521 -0.9306 -0.3623
vn -0.9314 0.0192 0.3634
vn -0.9393 0.0181 0.3426
vn -0.9281 -0.2524 0.2736
vn -0.9478 0.0938 0.3047
vn 0.5082 -0.8354 -0.2093
vn -0.3904 -0.9160 0.0919
vn -0.8704 -0.0622 0.4883
vn 0.0000 -1.0000 0.0000
vn 0.0000 0.0000 1.0000
vn 0.9986 0.0526 0.0000
vn -0.5535 0.5534 0.6224
vn 0.9987 0.0500 0.0125
vn -0.4561 0.6840 -0.5693
vn 0.0000 0.0000 -1.0000
vn -0.9806 0.0577 0.1873
usemtl Shape.17555
s off
f 8//1 11//1 15//1
f 4//2 3//2 5//2
f 5//3 3//3 6//3
f 2//4 7//4 8//4
f 8//5 3//5 9//5
f 3//6 4//6 9//6
f 4//7 2//7 9//7
f 2//8 8//8 9//8
f 5//3 6//3 10//3
f 7//9 1//9 10//9
f 7//10 10//10 11//10
f 8//11 7//11 11//11
f 10//12 6//12 11//12
f 2//13 4//13 12//13
f 7//14 2//14 13//14
f 1//15 7//15 13//15
f 2//16 12//16 13//16
f 12//17 1//17 13//17
f 4//18 5//18 14//18
f 10//19 1//19 14//19
f 5//3 10//3 14//3
f 12//20 4//20 14//20
f 1//17 12//17 14//17
f 6//21 3//21 15//21
f 3//22 8//22 15//22
f 11//23 6//23 15//23
