# Blender v2.79 (sub 0) OBJ File: ''
# www.blender.org
mtllib 102703_link_0_2.mtl
o Shape_IndexedFaceSet.002_Shape_IndexedFaceSet.4421
v -0.492866 0.629581 -0.460735
v -0.498314 0.622531 -0.457211
v -0.498314 0.622531 -0.456570
v -0.492546 0.622531 -0.459134
v -0.492546 0.634068 -0.456570
v -0.496711 0.625416 -0.460735
v -0.496070 0.632465 -0.456890
v -0.492546 0.622852 -0.462018
v -0.495750 0.622531 -0.456570
v -0.496390 0.622531 -0.461056
v -0.495110 0.631503 -0.459134
v -0.492546 0.630542 -0.456570
v -0.497031 0.628939 -0.458493
v -0.495429 0.626057 -0.461376
v -0.497031 0.629900 -0.456570
v -0.492546 0.632144 -0.459134
v -0.497672 0.623173 -0.459774
v -0.494148 0.634068 -0.456890
v -0.496070 0.628939 -0.460094
v -0.492546 0.626699 -0.461697
v -0.494789 0.628939 -0.460735
vn -0.1616 0.2483 -0.9551
vn 0.0000 -1.0000 0.0000
vn 1.0000 0.0000 0.0000
vn 0.0000 -1.0000 0.0001
vn 0.0000 0.0000 1.0000
vn 0.0552 -0.9923 -0.1105
vn 0.6062 -0.2424 0.7575
vn -0.4653 0.0466 -0.8839
vn -0.2410 -0.0224 -0.9703
vn -0.9852 0.1715 0.0000
vn -0.1721 0.1852 0.9675
vn -0.9799 0.1784 -0.0891
vn -0.9303 0.3281 -0.1640
vn -0.1342 0.5370 -0.8328
vn -0.6673 -0.6657 -0.3339
vn -0.7071 0.0000 -0.7071
vn -0.9670 0.1528 -0.2039
vn -0.8818 0.1936 -0.4300
vn -0.1907 0.2286 0.9547
vn -0.5484 0.6576 -0.5165
vn 0.1190 0.7942 -0.5959
vn -0.1711 0.6843 -0.7089
vn -0.7261 0.4624 -0.5088
vn -0.8319 0.2422 -0.4993
vn -0.7767 0.4236 -0.4662
vn -0.5286 0.2441 -0.8130
vn -0.1284 0.0825 -0.9883
vn 0.7446 0.2843 -0.6040
vn -0.1692 0.5066 -0.8454
vn -0.3999 0.4489 -0.7991
vn -0.4288 0.2859 -0.8570
vn -0.1018 0.3048 -0.9470
usemtl Shape.4426
s off
f 20//1 14//1 21//1
f 3//2 2//2 4//2
f 5//3 4//3 8//3
f 3//4 4//4 9//4
f 5//5 3//5 9//5
f 4//2 2//2 10//2
f 8//6 4//6 10//6
f 4//3 5//3 12//3
f 9//7 4//7 12//7
f 5//5 9//5 12//5
f 10//8 6//8 14//8
f 8//9 10//9 14//9
f 2//10 3//10 15//10
f 3//5 5//5 15//5
f 5//11 7//11 15//11
f 13//12 2//12 15//12
f 7//13 13//13 15//13
f 5//3 8//3 16//3
f 1//14 11//14 16//14
f 10//15 2//15 17//15
f 6//16 10//16 17//16
f 2//17 13//17 17//17
f 13//18 6//18 17//18
f 7//19 5//19 18//19
f 11//20 7//20 18//20
f 5//21 16//21 18//21
f 16//22 11//22 18//22
f 7//23 11//23 19//23
f 6//24 13//24 19//24
f 13//25 7//25 19//25
f 14//26 6//26 19//26
f 8//27 14//27 20//27
f 1//28 16//28 20//28
f 16//3 8//3 20//3
f 11//29 1//29 21//29
f 19//30 11//30 21//30
f 14//31 19//31 21//31
f 1//32 20//32 21//32
