# Blender v2.79 (sub 0) OBJ File: ''
# www.blender.org
mtllib 102703_link_2_1.mtl
o Shape_IndexedFaceSet.001_Shape_IndexedFaceSet.17536
v -0.001988 0.335006 0.478951
v 0.253267 0.286130 0.576649
v 0.242422 0.288848 0.584784
v -0.001988 0.283419 0.739618
v 0.250568 0.302431 0.351260
v -0.001988 0.337718 0.362132
v 0.131074 0.340435 0.353997
v -0.001988 0.283419 0.682520
v 0.141944 0.288848 0.685295
v 0.250568 0.318712 0.353997
v 0.253267 0.283412 0.506056
v 0.036044 0.351294 0.364907
v 0.052337 0.302431 0.658114
v -0.001988 0.351294 0.351260
v 0.095791 0.283419 0.726009
v 0.074076 0.335006 0.451771
v 0.242422 0.294277 0.560341
v -0.001988 0.291566 0.715137
v 0.182675 0.288848 0.655415
v 0.204415 0.283412 0.641844
v 0.068629 0.288855 0.723310
v 0.036044 0.337718 0.457207
v -0.001988 0.340435 0.351260
v 0.253267 0.307854 0.440898
v 0.103937 0.335006 0.424628
v 0.014329 0.316007 0.590182
v 0.253267 0.316001 0.351260
v 0.082222 0.302431 0.644543
v -0.001988 0.351294 0.373004
v 0.185374 0.286137 0.666250
v 0.049613 0.351294 0.351260
v 0.103937 0.343153 0.367568
v 0.250568 0.299713 0.511492
v 0.253267 0.299713 0.370305
v 0.000736 0.305149 0.649979
v 0.003460 0.337718 0.356734
vn -0.2336 -0.9433 -0.2357
vn -1.0000 -0.0000 -0.0000
vn 0.3772 0.9041 0.2008
vn 0.1172 0.9802 0.1597
vn -0.0000 -1.0000 0.0000
vn 0.1063 -0.9936 0.0383
vn 0.0000 -1.0000 0.0001
vn 0.1578 0.9395 0.3041
vn 0.0891 0.7631 0.6402
vn -0.0001 0.9488 0.3158
vn 0.0910 0.9853 0.1449
vn 0.0000 0.0000 -1.0000
vn 0.1776 0.9772 0.1166
vn 1.0000 0.0000 0.0000
vn 0.1359 0.9794 0.1495
vn 0.1442 0.9786 0.1465
vn 0.0240 0.9860 0.1649
vn 0.0498 0.9844 0.1689
vn 0.1398 0.7690 -0.6238
vn 0.7375 0.6726 0.0611
vn 0.1132 0.9805 0.1609
vn 0.0961 0.9780 0.1851
vn 0.0832 0.9796 0.1832
vn 0.0756 0.9831 0.1665
vn 0.0932 0.9824 0.1621
vn 0.0000 1.0000 0.0000
vn 0.0164 0.9883 0.1519
vn 0.0310 0.9889 0.1454
vn 0.4693 0.8083 0.3555
vn 0.2174 0.9044 0.3671
vn 0.2546 0.9440 0.2097
vn 0.1501 0.9673 0.2046
vn 0.2111 0.9593 0.1874
vn 0.7870 0.1583 0.5963
vn 0.2059 -0.9418 0.2658
vn 0.1108 0.6393 -0.7610
vn 0.1127 0.9844 0.1352
vn 0.1274 0.9819 0.1402
vn 0.1509 0.9786 0.1397
vn 0.1139 0.9870 0.1133
vn 0.1299 0.9896 0.0615
vn 0.4169 0.8931 0.1689
vn 0.1756 0.9772 0.1194
vn 0.7559 0.6465 0.1034
vn 0.1627 0.9781 0.1295
vn 0.1572 0.9783 0.1351
vn -0.0932 -0.9874 -0.1277
vn -0.0822 -0.9895 -0.1188
vn 0.9674 -0.1924 -0.1646
vn -0.5000 0.8518 0.1567
vn 0.0202 0.9798 0.1990
vn 0.0139 0.9787 0.2046
vn -0.0284 0.9846 0.1723
vn 0.0228 0.9827 0.1836
vn -0.1430 -0.9759 -0.1650
vn -0.1633 -0.9727 -0.1649
vn -0.1408 -0.9355 -0.3242
usemtl Shape.17551
s off
f 6//1 23//1 36//1
f 4//2 1//2 6//2
f 4//2 6//2 8//2
f 6//2 1//2 14//2
f 3//3 2//3 17//3
f 1//2 4//2 18//2
f 16//4 9//4 19//4
f 4//5 8//5 20//5
f 11//6 2//6 20//6
f 8//5 11//5 20//5
f 15//7 4//7 20//7
f 15//8 9//8 21//8
f 4//9 15//9 21//9
f 18//10 4//10 21//10
f 16//11 12//11 22//11
f 6//2 14//2 23//2
f 14//12 5//12 23//12
f 10//13 7//13 24//13
f 2//14 11//14 24//14
f 16//15 19//15 25//15
f 19//16 17//16 25//16
f 22//17 1//17 26//17
f 13//18 22//18 26//18
f 7//19 10//19 27//19
f 5//12 14//12 27//12
f 10//20 24//20 27//20
f 24//14 11//14 27//14
f 9//21 16//21 28//21
f 21//22 9//22 28//22
f 13//23 21//23 28//23
f 22//24 13//24 28//24
f 16//25 22//25 28//25
f 14//2 1//2 29//2
f 12//26 14//26 29//26
f 1//27 22//27 29//27
f 22//28 12//28 29//28
f 2//29 3//29 30//29
f 9//30 15//30 30//30
f 3//31 17//31 30//31
f 19//32 9//32 30//32
f 17//33 19//33 30//33
f 20//34 2//34 30//34
f 15//35 20//35 30//35
f 14//26 12//26 31//26
f 7//36 27//36 31//36
f 27//12 14//12 31//12
f 12//37 16//37 32//37
f 16//38 25//38 32//38
f 25//39 17//39 32//39
f 31//40 12//40 32//40
f 7//41 31//41 32//41
f 17//42 2//42 33//42
f 24//43 7//43 33//43
f 2//44 24//44 33//44
f 7//45 32//45 33//45
f 32//46 17//46 33//46
f 8//47 5//47 34//47
f 11//48 8//48 34//48
f 5//49 27//49 34//49
f 27//14 11//14 34//14
f 1//50 18//50 35//50
f 21//51 13//51 35//51
f 18//52 21//52 35//52
f 26//53 1//53 35//53
f 13//54 26//54 35//54
f 5//55 8//55 36//55
f 8//56 6//56 36//56
f 23//57 5//57 36//57
