# Blender v2.79 (sub 0) OBJ File: ''
# www.blender.org
mtllib 102703_link_4_85.mtl
o Shape_IndexedFaceSet.085_Shape_IndexedFaceSet.126
v 0.000724 0.178553 0.141323
v -0.198596 0.178553 0.072341
v -0.198596 0.186225 0.072341
v -0.198596 0.140232 0.141323
v 0.000724 0.140232 0.110658
v 0.000724 0.186225 0.072341
v -0.198596 0.186225 0.133652
v -0.198596 0.140232 0.110658
v 0.000724 0.140232 0.141323
vn 0.0000 -1.0000 0.0000
vn -1.0000 0.0000 0.0000
vn 0.0246 -0.6399 -0.7681
vn -0.0000 0.0000 -1.0000
vn 1.0000 0.0000 -0.0000
vn -0.0000 1.0000 0.0000
vn -0.0316 0.1644 0.9859
vn 0.0340 0.9933 0.1105
vn 0.0000 -0.7071 -0.7071
vn -0.0000 0.0000 1.0000
usemtl Shape.135
s off
f 4//1 5//1 9//1
f 3//2 2//2 4//2
f 5//3 2//3 6//3
f 2//4 3//4 6//4
f 1//5 5//5 6//5
f 6//6 3//6 7//6
f 3//2 4//2 7//2
f 4//7 1//7 7//7
f 1//8 6//8 7//8
f 4//2 2//2 8//2
f 5//1 4//1 8//1
f 2//9 5//9 8//9
f 1//10 4//10 9//10
f 5//5 1//5 9//5
