# Blender v2.79 (sub 0) OBJ File: ''
# www.blender.org
mtllib 102703_link_2_23.mtl
o Shape_IndexedFaceSet.023_Shape_IndexedFaceSet.17558
v 0.196269 0.201945 0.698880
v 0.253297 0.250817 0.658158
v 0.247861 0.250817 0.666299
v 0.245140 0.199229 0.669001
v 0.250576 0.199229 0.622839
v 0.190834 0.250817 0.709732
v 0.215284 0.207379 0.712460
v 0.250576 0.250817 0.628287
v 0.212564 0.250817 0.712460
v 0.190834 0.196507 0.712460
v 0.253297 0.204662 0.658158
v 0.209855 0.196507 0.709732
v 0.247861 0.207379 0.625567
v 0.253297 0.199229 0.622839
v 0.245140 0.196507 0.636419
vn 0.4262 -0.9015 0.0753
vn 0.0000 1.0000 0.0000
vn 0.7934 0.0497 0.6067
vn -0.0000 0.0000 1.0000
vn -0.7085 -0.5100 -0.4878
vn -0.9256 -0.0190 -0.3780
vn -0.1244 0.0498 0.9910
vn 0.8316 0.0000 0.5553
vn 0.8191 -0.0047 0.5736
vn 0.8150 -0.0773 0.5744
vn 0.6792 -0.4787 0.5564
vn 0.1352 -0.3041 0.9430
vn -0.8126 -0.0774 -0.5776
vn -0.8185 0.0363 -0.5733
vn -0.5645 0.0867 -0.8208
vn -0.8033 0.0871 -0.5892
vn 0.9940 0.0620 -0.0905
vn 0.0000 0.1050 -0.9945
vn 1.0000 0.0000 0.0000
vn 0.6522 -0.7492 0.1152
vn -0.5024 -0.7867 -0.3588
vn 0.1704 -0.9819 0.0820
vn 0.0000 -1.0000 0.0000
vn 0.0000 -0.9805 -0.1965
usemtl Shape.17573
s off
f 14//1 4//1 15//1
f 3//2 2//2 6//2
f 6//2 2//2 8//2
f 3//2 6//2 9//2
f 7//3 3//3 9//3
f 7//4 9//4 10//4
f 1//5 5//5 10//5
f 6//6 1//6 10//6
f 9//7 6//7 10//7
f 2//8 3//8 11//8
f 3//9 7//9 11//9
f 7//10 4//10 11//10
f 4//11 7//11 12//11
f 7//12 10//12 12//12
f 5//13 1//13 13//13
f 1//14 6//14 13//14
f 8//15 5//15 13//15
f 6//16 8//16 13//16
f 8//17 2//17 14//17
f 5//18 8//18 14//18
f 2//19 11//19 14//19
f 11//20 4//20 14//20
f 10//21 5//21 15//21
f 4//22 12//22 15//22
f 12//23 10//23 15//23
f 5//24 14//24 15//24
