# Blender v2.79 (sub 0) OBJ File: ''
# www.blender.org
mtllib 102703_link_4_28.mtl
o Shape_IndexedFaceSet.028_Shape_IndexedFaceSet.069
v 0.008390 -0.220083 -0.126986
v -0.114268 -0.143433 -0.249645
v -0.121934 -0.135761 -0.241973
v -0.091267 -0.220083 -0.172995
v -0.121934 -0.143433 -0.126986
v 0.008390 -0.166422 -0.126986
v -0.044245 -0.224272 -0.255231
v -0.060599 -0.128088 -0.249645
v -0.075920 -0.128088 -0.126986
v 0.017597 -0.191567 -0.162088
v -0.091267 -0.220083 -0.249645
v -0.060599 -0.220083 -0.126986
vn -0.0411 -0.9988 0.0274
vn 0.0000 0.0000 1.0000
vn -0.1729 0.6047 -0.7775
vn -0.0158 0.0553 -0.9983
vn -0.3157 0.9467 0.0632
vn -0.1261 0.9919 -0.0157
vn 0.4134 0.9091 0.0516
vn 0.9673 0.0000 0.2537
vn 0.7492 -0.5964 -0.2880
vn 0.7581 0.6077 -0.2365
vn 0.7928 0.1688 -0.5856
vn -0.7958 -0.2388 -0.5564
vn -0.9284 -0.3715 0.0000
vn -0.9402 -0.3399 -0.0227
vn -0.1211 -0.0363 -0.9920
vn -0.0887 -0.9961 0.0000
vn -0.6926 -0.5542 0.4617
vn 0.0000 -0.9995 0.0326
usemtl Shape.078
s off
f 4//1 7//1 12//1
f 5//2 1//2 6//2
f 2//3 3//3 8//3
f 7//4 2//4 8//4
f 3//5 5//5 9//5
f 5//2 6//2 9//2
f 8//6 3//6 9//6
f 6//7 8//7 9//7
f 6//8 1//8 10//8
f 1//9 7//9 10//9
f 8//10 6//10 10//10
f 7//11 8//11 10//11
f 3//12 2//12 11//12
f 4//13 5//13 11//13
f 5//14 3//14 11//14
f 2//15 7//15 11//15
f 7//16 4//16 11//16
f 1//2 5//2 12//2
f 5//17 4//17 12//17
f 7//18 1//18 12//18
