# Blender v2.79 (sub 0) OBJ File: ''
# www.blender.org
mtllib 102703_link_2_9.mtl
o Shape_IndexedFaceSet.009_Shape_IndexedFaceSet.17544
v -0.246402 0.318715 0.362154
v -0.088893 0.286136 0.728719
v -0.088893 0.288850 0.715135
v -0.091621 0.329575 0.362190
v -0.249113 0.283417 0.519617
v -0.094332 0.343160 0.375737
v -0.249113 0.291563 0.571219
v -0.088893 0.283423 0.658108
v -0.249113 0.302429 0.364885
v -0.178518 0.288850 0.660839
v -0.202953 0.283417 0.649950
v -0.088893 0.343160 0.356728
v -0.102483 0.332288 0.446348
v -0.251825 0.294283 0.552209
v -0.251825 0.305142 0.356728
v -0.107906 0.343160 0.364885
v -0.251825 0.283417 0.584802
v -0.097044 0.302429 0.636367
v -0.251825 0.313288 0.402903
v -0.088893 0.332288 0.356728
v -0.088893 0.324142 0.506107
v -0.213799 0.288850 0.628210
v -0.143220 0.286136 0.701552
v -0.246402 0.318715 0.356728
v -0.164944 0.283417 0.679848
v -0.167655 0.332288 0.370311
vn -0.1724 0.9771 0.1244
vn 1.0000 0.0000 0.0000
vn 0.1049 -0.9871 -0.1213
vn 0.1653 -0.9742 -0.1535
vn -0.5307 -0.8413 -0.1034
vn 0.1527 -0.9214 -0.3572
vn 0.0000 1.0000 0.0000
vn -0.1109 0.9841 0.1387
vn -0.1494 0.9787 0.1406
vn 0.0000 -1.0000 0.0000
vn -0.7846 0.5882 0.1961
vn -0.9157 -0.4000 -0.0381
vn -1.0000 0.0000 0.0000
vn -0.1162 0.9807 0.1574
vn 0.5516 -0.8234 -0.1335
vn 0.1522 -0.9134 -0.3777
vn 0.0000 0.0000 -1.0000
vn 0.4038 0.9075 0.1155
vn -0.0509 0.9879 0.1462
vn 0.0338 0.9855 0.1664
vn -0.1029 0.9822 0.1573
vn -0.1381 0.9791 0.1493
vn -0.1472 0.9786 0.1436
vn -0.1936 0.9669 0.1660
vn -0.5214 0.7737 0.3599
vn -0.6233 0.6267 0.4676
vn -0.0975 0.9759 0.1950
vn -0.0936 0.9795 0.1785
vn -0.1140 0.9798 0.1642
vn -0.2828 0.9091 0.3058
vn -0.3828 0.8332 0.3992
vn -0.1738 0.9848 0.0000
vn -0.1444 0.9305 -0.3366
vn -0.7074 0.7068 0.0000
vn -0.9266 0.3702 -0.0653
vn 0.0111 -0.9992 0.0384
vn 0.0001 -1.0000 -0.0000
vn -0.1208 -0.9629 0.2415
vn -0.3708 -0.8002 0.4714
vn -0.1745 0.9835 0.0486
vn -0.1664 0.9778 0.1273
vn -0.1796 0.9780 0.1064
usemtl Shape.17559
s off
f 19//1 14//1 26//1
f 3//2 2//2 8//2
f 8//3 5//3 9//3
f 4//4 8//4 9//4
f 3//2 8//2 12//2
f 9//5 5//5 15//5
f 4//6 9//6 15//6
f 6//7 12//7 16//7
f 13//8 6//8 16//8
f 14//9 13//9 16//9
f 5//10 11//10 17//10
f 7//11 14//11 17//11
f 15//12 5//12 17//12
f 14//13 15//13 17//13
f 13//14 10//14 18//14
f 15//13 14//13 19//13
f 8//15 4//15 20//15
f 12//2 8//2 20//2
f 4//16 15//16 20//16
f 15//17 12//17 20//17
f 12//18 6//18 21//18
f 3//2 12//2 21//2
f 6//19 13//19 21//19
f 18//20 3//20 21//20
f 13//21 18//21 21//21
f 10//22 13//22 22//22
f 13//23 14//23 22//23
f 14//24 7//24 22//24
f 7//25 17//25 22//25
f 17//26 11//26 22//26
f 2//27 3//27 23//27
f 3//28 18//28 23//28
f 18//29 10//29 23//29
f 10//30 22//30 23//30
f 22//31 11//31 23//31
f 12//17 15//17 24//17
f 1//32 16//32 24//32
f 16//33 12//33 24//33
f 19//34 1//34 24//34
f 15//35 19//35 24//35
f 8//36 2//36 25//36
f 5//37 8//37 25//37
f 11//10 5//10 25//10
f 2//38 23//38 25//38
f 23//39 11//39 25//39
f 16//40 1//40 26//40
f 14//41 16//41 26//41
f 1//42 19//42 26//42
