# Blender v2.79 (sub 0) OBJ File: ''
# www.blender.org
mtllib 102703_link_1_25.mtl
o Shape_IndexedFaceSet.025_Shape_IndexedFaceSet.6207
v 0.408380 0.674236 -0.633774
v 0.436491 0.685953 -0.525997
v 0.422433 0.685953 -0.525997
v 0.413058 0.671891 -0.525997
v 0.387848 0.685791 -0.641812
v 0.387279 0.671891 -0.598617
v 0.387279 0.683608 -0.589245
v 0.413058 0.685953 -0.633774
v 0.431808 0.674236 -0.544740
v 0.403692 0.681264 -0.533017
v 0.387279 0.671891 -0.629094
v 0.427120 0.671891 -0.525997
v 0.420087 0.678922 -0.612679
v 0.413058 0.671891 -0.603308
v 0.434149 0.685953 -0.551771
v 0.403692 0.678922 -0.643168
v 0.403692 0.676580 -0.533017
v 0.408380 0.683608 -0.525997
v 0.387279 0.685953 -0.624402
vn -0.1643 0.9847 0.0587
vn 0.0000 0.0000 1.0000
vn 0.0000 1.0000 0.0000
vn 0.0000 -1.0000 0.0000
vn -1.0000 0.0000 0.0000
vn 0.8243 -0.5493 0.1374
vn 0.8522 -0.3403 -0.3974
vn 0.5981 -0.7858 -0.1574
vn 0.5683 -0.8091 -0.1495
vn 0.0902 -0.9918 -0.0902
vn 0.2778 -0.9593 -0.0505
vn 0.9654 -0.2455 -0.0877
vn 0.9457 0.2157 -0.2432
vn 0.9375 -0.2966 -0.1822
vn 0.7792 -0.3111 -0.5441
vn 0.2245 0.6595 -0.7174
vn 0.0004 -0.8948 -0.4465
vn -0.3329 -0.6291 -0.7025
vn -0.5526 -0.8101 0.1962
vn -0.9468 -0.2010 0.2513
vn -0.9599 0.0000 0.2802
vn -0.8316 0.0000 0.5554
vn -0.6879 0.6885 0.2295
vn -0.6595 -0.2633 0.7041
vn -0.1956 0.9785 0.0653
vn -0.0034 0.9999 -0.0094
vn -0.9994 0.0109 -0.0328
usemtl Shape.6213
s off
f 18//1 3//1 19//1
f 2//2 3//2 4//2
f 3//3 2//3 8//3
f 4//4 6//4 11//4
f 6//5 7//5 11//5
f 2//2 4//2 12//2
f 9//6 2//6 12//6
f 4//4 11//4 12//4
f 1//7 8//7 13//7
f 9//8 1//8 13//8
f 1//9 9//9 14//9
f 11//10 1//10 14//10
f 9//11 12//11 14//11
f 12//4 11//4 14//4
f 8//3 2//3 15//3
f 2//12 9//12 15//12
f 13//13 8//13 15//13
f 9//14 13//14 15//14
f 8//15 1//15 16//15
f 5//16 8//16 16//16
f 1//17 11//17 16//17
f 11//18 5//18 16//18
f 6//19 4//19 17//19
f 7//20 6//20 17//20
f 10//21 7//21 17//21
f 10//22 17//22 18//22
f 4//2 3//2 18//2
f 7//23 10//23 18//23
f 17//24 4//24 18//24
f 7//25 18//25 19//25
f 3//3 8//3 19//3
f 8//26 5//26 19//26
f 5//27 11//27 19//27
f 11//5 7//5 19//5
