# Blender v2.79 (sub 0) OBJ File: ''
# www.blender.org
mtllib 102703_link_2_21.mtl
o Shape_IndexedFaceSet.021_Shape_IndexedFaceSet.17556
v -0.061728 0.389325 -0.056103
v -0.001997 0.381178 0.093259
v -0.001997 0.370320 0.093259
v -0.097031 0.362170 0.093259
v -0.001997 0.378464 -0.064244
v -0.097031 0.373037 -0.064244
v -0.097031 0.381178 0.044371
v -0.001997 0.392044 -0.042521
v -0.042733 0.381178 0.093259
v -0.097031 0.383894 -0.064244
v -0.053579 0.373037 -0.061530
v -0.034584 0.386611 0.044371
v -0.091599 0.375750 0.093259
v -0.023728 0.367603 0.082390
v -0.088882 0.386611 -0.020798
v -0.018295 0.389325 -0.064244
v -0.001997 0.383894 0.090530
v -0.094315 0.362170 0.085103
v -0.048165 0.389325 -0.009928
vn -0.0852 0.9938 0.0710
vn 0.0000 0.0000 1.0000
vn 1.0000 0.0000 0.0000
vn -1.0000 0.0000 0.0000
vn 0.0000 0.0000 -1.0000
vn 0.0421 -0.7374 -0.6742
vn -0.0863 0.9917 0.0958
vn -0.9189 0.3676 0.1429
vn -0.1096 0.9865 0.1217
vn 0.0852 -0.9933 0.0780
vn 0.1490 -0.9875 -0.0511
vn 0.1014 -0.9931 -0.0585
vn -0.1441 0.9889 -0.0348
vn -0.4228 0.9059 0.0227
vn -0.0864 0.9936 0.0720
vn -0.0204 0.9938 -0.1091
vn 0.4920 0.7382 -0.4615
vn -0.0646 0.9365 -0.3446
vn 0.0000 0.7088 0.7054
vn -0.0034 0.9981 0.0611
vn -0.0595 0.9932 0.1005
vn -0.2024 -0.9770 -0.0674
vn 0.0045 -0.9973 -0.0727
vn 0.0777 -0.9966 0.0259
vn 0.0746 -0.9958 -0.0531
vn -0.0487 0.9987 0.0143
vn -0.0200 0.9983 0.0549
vn -0.0721 0.9972 0.0212
usemtl Shape.17571
s off
f 15//1 12//1 19//1
f 3//2 2//2 4//2
f 2//3 3//3 5//3
f 6//4 4//4 7//4
f 2//3 5//3 8//3
f 4//2 2//2 9//2
f 5//5 6//5 10//5
f 6//4 7//4 10//4
f 6//6 5//6 11//6
f 7//7 9//7 12//7
f 7//8 4//8 13//8
f 9//9 7//9 13//9
f 4//2 9//2 13//2
f 3//10 4//10 14//10
f 5//11 3//11 14//11
f 11//12 5//12 14//12
f 1//13 10//13 15//13
f 10//14 7//14 15//14
f 7//15 12//15 15//15
f 1//16 8//16 16//16
f 8//17 5//17 16//17
f 10//18 1//18 16//18
f 5//5 10//5 16//5
f 2//3 8//3 17//3
f 9//19 2//19 17//19
f 8//20 12//20 17//20
f 12//21 9//21 17//21
f 4//22 6//22 18//22
f 6//23 11//23 18//23
f 14//24 4//24 18//24
f 11//25 14//25 18//25
f 8//26 1//26 19//26
f 12//27 8//27 19//27
f 1//28 15//28 19//28
