# Blender v2.79 (sub 0) OBJ File: ''
# www.blender.org
mtllib 102703_link_4_81.mtl
o Shape_IndexedFaceSet.081_Shape_IndexedFaceSet.122
v 0.427692 0.067420 -0.184933
v 0.338079 0.055885 -0.287976
v 0.338079 0.086564 -0.287976
v 0.238376 0.078883 -0.142319
v 0.276736 -0.005430 -0.142319
v 0.453020 -0.005430 -0.287976
v 0.401750 0.006303 -0.150035
v 0.468217 0.083541 -0.283189
v 0.412110 0.084505 -0.145579
v 0.361016 -0.005430 -0.287976
v 0.437667 -0.005430 -0.218954
v 0.238376 0.086564 -0.149989
v 0.269082 0.002242 -0.157660
v 0.345733 0.009906 -0.287976
vn -0.6440 -0.6417 -0.4165
vn 0.0000 0.0000 -1.0000
vn 0.0378 0.0472 -0.9982
vn 0.0185 0.0084 0.9998
vn 0.0676 -0.0657 0.9955
vn 0.0231 0.9997 0.0024
vn 0.9256 -0.0255 0.3776
vn 0.0000 -1.0000 0.0000
vn 0.1046 -0.9700 0.2196
vn 0.9261 -0.0479 0.3741
vn 0.9610 -0.1756 0.2138
vn 0.9199 -0.0554 0.3883
vn 0.8677 -0.1421 0.4764
vn -0.8106 0.0000 -0.5857
vn 0.0116 0.9999 0.0084
vn -0.0096 0.7066 0.7076
vn -0.8837 -0.4020 0.2398
vn -0.4090 -0.8813 -0.2367
vn -0.9042 -0.3018 -0.3022
vn -0.8267 -0.2554 -0.5013
vn -0.8171 -0.1360 -0.5602
usemtl Shape.131
s off
f 10//1 13//1 14//1
f 2//2 3//2 6//2
f 6//3 3//3 8//3
f 4//4 5//4 9//4
f 5//5 7//5 9//5
f 8//6 3//6 9//6
f 1//7 8//7 9//7
f 2//2 6//2 10//2
f 6//8 5//8 10//8
f 5//8 6//8 11//8
f 7//9 5//9 11//9
f 8//10 1//10 11//10
f 6//11 8//11 11//11
f 1//12 9//12 11//12
f 9//13 7//13 11//13
f 3//14 2//14 12//14
f 9//15 3//15 12//15
f 4//16 9//16 12//16
f 5//17 4//17 13//17
f 10//18 5//18 13//18
f 4//19 12//19 13//19
f 13//20 12//20 14//20
f 2//2 10//2 14//2
f 12//21 2//21 14//21
