# Blender v2.79 (sub 0) OBJ File: ''
# www.blender.org
mtllib 102703_link_4_111.mtl
o Shape_IndexedFaceSet.111_Shape_IndexedFaceSet.152
v -0.129616 -0.266084 0.225646
v -0.137285 -0.273751 0.164336
v -0.213909 -0.312072 0.202655
v -0.075952 -0.312072 0.195002
v -0.217259 -0.267524 0.238583
v -0.175582 -0.312072 0.240983
v -0.083621 -0.266084 0.164336
v -0.121948 -0.312072 0.164336
v -0.206241 -0.266084 0.202655
vn 0.0000 1.0000 0.0000
vn -0.6001 -0.5291 0.6000
vn 0.0000 -1.0000 0.0000
vn 0.4162 -0.1153 0.9019
vn 0.1406 0.1839 0.9728
vn 0.7057 0.4707 0.5295
vn -0.3802 -0.1521 -0.9123
vn 0.0000 0.0000 -1.0000
vn 0.5035 -0.4196 -0.7552
vn -0.4774 0.0796 -0.8751
vn -0.0110 0.9993 0.0367
vn -0.9458 0.1577 -0.2837
vn -0.1289 0.9019 -0.4123
usemtl Shape.161
s off
f 1//1 7//1 9//1
f 5//2 3//2 6//2
f 3//3 4//3 6//3
f 4//4 1//4 6//4
f 1//5 5//5 6//5
f 1//6 4//6 7//6
f 3//7 2//7 8//7
f 4//3 3//3 8//3
f 2//8 7//8 8//8
f 7//9 4//9 8//9
f 2//10 3//10 9//10
f 5//11 1//11 9//11
f 3//12 5//12 9//12
f 7//13 2//13 9//13
