# Blender v2.79 (sub 0) OBJ File: ''
# www.blender.org
mtllib 102703_link_4_109.mtl
o Shape_IndexedFaceSet.109_Shape_IndexedFaceSet.150
v 0.062039 -0.404090 0.670296
v 0.008396 -0.588006 0.777622
v 0.046712 -0.580371 0.769938
v 0.031377 -0.312077 0.723941
v -0.022274 -0.350420 0.685628
v -0.022274 -0.595725 0.731625
v 0.069720 -0.595725 0.708645
v 0.069720 -0.312077 0.708645
v -0.022274 -0.312077 0.723941
v 0.069720 -0.312077 0.654963
v 0.069720 -0.595725 0.762290
v -0.022274 -0.557381 0.769938
v -0.022274 -0.312077 0.685628
vn -0.3162 0.0000 -0.9487
vn 0.1598 0.1757 0.9714
vn -0.2839 -0.1767 -0.9424
vn -0.2375 -0.1998 -0.9506
vn 0.3646 0.1776 0.9141
vn 0.0000 0.1910 0.9816
vn -1.0000 -0.0000 -0.0000
vn 0.0000 1.0000 0.0000
vn -0.2612 -0.1374 -0.9555
vn 0.2572 -0.1797 -0.9495
vn 1.0000 0.0000 0.0000
vn 0.2225 -0.1467 0.9638
vn -0.0701 -0.9751 0.2104
vn 0.0000 -1.0000 0.0000
vn 0.4108 0.1694 0.8958
vn -0.6619 -0.5298 0.5303
vn -0.0621 0.1839 0.9810
usemtl Shape.159
s off
f 10//1 5//1 13//1
f 2//2 3//2 4//2
f 5//3 1//3 6//3
f 6//4 1//4 7//4
f 4//5 3//5 8//5
f 2//6 4//6 9//6
f 5//7 6//7 9//7
f 4//8 8//8 9//8
f 9//8 8//8 10//8
f 1//9 5//9 10//9
f 7//10 1//10 10//10
f 8//11 7//11 10//11
f 3//12 2//12 11//12
f 2//13 6//13 11//13
f 6//14 7//14 11//14
f 8//15 3//15 11//15
f 7//11 8//11 11//11
f 6//16 2//16 12//16
f 2//17 9//17 12//17
f 9//7 6//7 12//7
f 5//7 9//7 13//7
f 9//8 10//8 13//8
