# Blender v2.79 (sub 0) OBJ File: ''
# www.blender.org
mtllib 102703_link_4_180.mtl
o Shape_IndexedFaceSet.180_Shape_IndexedFaceSet.221
v 0.068072 -0.608033 0.756036
v 0.230709 -0.672384 0.555331
v 0.223010 -0.649385 0.570674
v -0.010471 -0.594359 0.741756
v -0.015043 -0.690855 0.785984
v 0.177019 -0.595725 0.532329
v 0.184673 -0.687719 0.532329
v 0.115161 -0.681231 0.740544
v 0.215356 -0.595725 0.570674
v -0.013882 -0.690405 0.752307
v 0.134111 -0.603605 0.705773
v 0.228823 -0.686989 0.534276
v 0.173710 -0.680791 0.667967
v -0.000110 -0.598370 0.770570
v -0.017563 -0.633374 0.746786
v 0.230709 -0.634059 0.532329
vn 0.9973 -0.0379 -0.0631
vn 0.3287 0.0116 0.9444
vn 0.9520 0.1358 0.2742
vn 0.0034 1.0000 -0.0034
vn -0.0013 -0.9999 -0.0134
vn 0.5833 0.2092 0.7848
vn 0.0165 -0.9999 0.0006
vn 0.1027 -0.9911 0.0842
vn 0.8923 -0.0024 0.4514
vn 0.8685 0.1239 0.4800
vn 0.7748 0.0911 0.6256
vn 0.8386 0.1781 0.5147
vn 0.7450 -0.5775 0.3339
vn 0.1311 -0.9863 0.0998
vn 0.2238 0.1250 0.9666
vn 0.0868 0.9905 0.1067
vn 0.2040 0.9148 0.3486
vn 0.0936 0.9891 0.1140
vn -0.7440 0.0493 -0.6664
vn -0.7339 -0.0611 -0.6766
vn -0.9971 -0.0678 -0.0353
vn -0.7370 -0.1121 -0.6666
vn -0.9088 0.2071 0.3621
vn -0.9100 0.2114 0.3567
vn 0.0000 0.0000 -1.0000
vn 0.9600 0.1442 0.2402
vn 0.5024 0.7037 -0.5023
vn 0.0447 -0.0383 -0.9983
usemtl Shape.230
s off
f 2//1 12//1 16//1
f 1//2 5//2 8//2
f 3//3 2//3 9//3
f 6//4 4//4 9//4
f 7//5 5//5 10//5
f 1//6 8//6 11//6
f 5//7 7//7 12//7
f 8//8 5//8 12//8
f 2//9 3//9 13//9
f 3//10 9//10 13//10
f 11//11 8//11 13//11
f 9//12 11//12 13//12
f 12//13 2//13 13//13
f 8//14 12//14 13//14
f 5//15 1//15 14//15
f 9//16 4//16 14//16
f 1//17 11//17 14//17
f 11//18 9//18 14//18
f 4//19 6//19 15//19
f 6//20 7//20 15//20
f 10//21 5//21 15//21
f 7//22 10//22 15//22
f 5//23 14//23 15//23
f 14//24 4//24 15//24
f 7//25 6//25 16//25
f 9//26 2//26 16//26
f 6//27 9//27 16//27
f 12//28 7//28 16//28
