# Blender v2.79 (sub 0) OBJ File: ''
# www.blender.org
mtllib 102703_link_1_15.mtl
o Shape_IndexedFaceSet.015_Shape_IndexedFaceSet.6197
v -0.093240 0.753921 -0.584574
v -0.369794 0.728146 -0.633792
v -0.346340 0.728146 -0.633792
v -0.369794 0.732834 -0.575201
v 0.000539 0.728146 -0.593946
v -0.369794 0.744548 -0.598638
v 0.000539 0.744548 -0.603324
v 0.000539 0.742204 -0.575196
v -0.369794 0.739865 -0.624414
v -0.343983 0.746890 -0.575201
v 0.000539 0.728146 -0.608004
v 0.000539 0.753921 -0.575196
v -0.369794 0.728146 -0.610350
v 0.000539 0.751579 -0.593946
v -0.358048 0.735179 -0.631446
v -0.287723 0.746890 -0.605658
v -0.369794 0.730490 -0.584574
v -0.212721 0.751579 -0.575201
v -0.325206 0.732834 -0.575201
v 0.000539 0.732834 -0.608004
v -0.369794 0.744548 -0.575201
v -0.210365 0.751579 -0.584574
v -0.004173 0.749235 -0.598638
v -0.358048 0.742204 -0.619728
v -0.006493 0.753921 -0.586919
v -0.121371 0.753921 -0.575201
v -0.334594 0.739865 -0.624414
v -0.172955 0.749235 -0.600989
v 0.000539 0.739865 -0.605664
vn 1.0000 0.0000 -0.0000
vn 0.0000 -1.0000 0.0000
vn -1.0000 0.0000 0.0000
vn -0.0000 0.0000 1.0000
vn 0.0000 0.3164 -0.9486
vn -0.2132 0.6104 -0.7628
vn -0.0000 -0.9701 0.2426
vn -0.0040 -0.9959 0.0906
vn -0.0000 0.0009 1.0000
vn 0.0230 -0.7999 0.5997
vn 0.0000 -0.0005 1.0000
vn 0.0741 0.0000 -0.9972
vn -0.0904 0.9959 0.0000
vn -0.0000 0.0002 1.0000
vn -0.0390 0.9976 -0.0568
vn -0.0360 0.9954 -0.0892
vn -0.0198 0.9889 -0.1474
vn -0.0357 0.9993 -0.0090
vn 0.1955 0.7847 -0.5883
vn 0.0351 0.7240 -0.6889
vn -0.1237 0.9763 -0.1774
vn -0.0396 0.9904 -0.1321
vn 0.0000 1.0000 0.0000
vn 0.2024 0.9718 -0.1214
vn -0.0000 0.0016 1.0000
vn -0.0200 0.9980 -0.0599
vn -0.0256 0.9997 -0.0064
vn 0.0000 0.8322 -0.5545
vn 0.0103 0.8904 -0.4551
vn 0.0253 0.7910 -0.6113
vn 0.0000 0.8947 -0.4466
vn 0.0065 0.9073 -0.4204
vn -0.0107 0.9740 -0.2261
vn -0.0083 0.9604 -0.2784
vn 0.0027 0.9273 -0.3742
vn -0.0066 0.9696 -0.2447
vn 0.0000 0.9487 -0.3162
vn 0.0603 0.4048 -0.9124
vn 0.0584 0.4462 -0.8930
vn 0.0661 0.3151 -0.9468
usemtl Shape.6203
s off
f 7//1 20//1 29//1
f 2//2 3//2 5//2
f 2//3 4//3 6//3
f 5//1 7//1 8//1
f 2//3 6//3 9//3
f 5//2 3//2 11//2
f 7//1 5//1 11//1
f 8//1 7//1 12//1
f 4//4 8//4 12//4
f 4//3 2//3 13//3
f 2//2 5//2 13//2
f 12//1 7//1 14//1
f 3//5 2//5 15//5
f 2//6 9//6 15//6
f 5//7 4//7 17//7
f 4//3 13//3 17//3
f 13//8 5//8 17//8
f 10//9 12//9 18//9
f 4//7 5//7 19//7
f 5//10 8//10 19//10
f 8//11 4//11 19//11
f 11//12 3//12 20//12
f 7//1 11//1 20//1
f 6//3 4//3 21//3
f 10//13 6//13 21//13
f 4//4 12//4 21//4
f 12//14 10//14 21//14
f 6//15 10//15 22//15
f 16//16 6//16 22//16
f 1//17 16//17 22//17
f 10//18 18//18 22//18
f 14//19 7//19 23//19
f 7//20 15//20 23//20
f 9//21 6//21 24//21
f 6//22 16//22 24//22
f 1//23 12//23 25//23
f 12//24 14//24 25//24
f 12//23 1//23 26//23
f 18//25 12//25 26//25
f 1//26 22//26 26//26
f 22//27 18//27 26//27
f 15//28 9//28 27//28
f 14//29 23//29 27//29
f 23//30 15//30 27//30
f 9//31 24//31 27//31
f 24//32 14//32 27//32
f 16//33 1//33 28//33
f 24//34 16//34 28//34
f 14//35 24//35 28//35
f 1//36 25//36 28//36
f 25//37 14//37 28//37
f 3//38 15//38 29//38
f 15//39 7//39 29//39
f 20//40 3//40 29//40
