# Blender v2.79 (sub 0) OBJ File: ''
# www.blender.org
mtllib 102703_link_3_7.mtl
o Shape_IndexedFaceSet.007_Shape_IndexedFaceSet.16891
v 0.116941 0.187099 0.795096
v 0.111564 0.152127 0.633676
v 0.098108 0.154818 0.633695
v 0.254147 0.200552 0.633676
v -0.017591 0.200552 0.735891
v 0.081950 0.149430 0.808542
v 0.262227 0.149430 0.641754
v -0.017591 0.149430 0.819313
v -0.017591 0.152127 0.692881
v -0.001461 0.200552 0.800482
v 0.211105 0.152127 0.725157
v 0.116941 0.179023 0.633676
v 0.189598 0.200552 0.725157
v -0.017591 0.179023 0.822006
v -0.017591 0.165580 0.687495
v 0.240691 0.189785 0.679417
v 0.116941 0.149430 0.633676
v 0.273008 0.154818 0.633676
v -0.012214 0.203244 0.768187
v 0.087326 0.154818 0.813928
v 0.065819 0.197861 0.803156
v 0.219156 0.200552 0.633676
v 0.173439 0.173656 0.760127
v 0.178816 0.203244 0.717098
v 0.033531 0.168272 0.824699
v 0.143853 0.152127 0.784325
v -0.017591 0.192477 0.717098
v 0.114267 0.200552 0.781651
v -0.017591 0.149430 0.709019
v 0.168063 0.195169 0.754741
v 0.009321 0.154818 0.827392
v -0.017591 0.195169 0.811235
v 0.065819 0.189785 0.811235
v 0.213779 0.168272 0.722465
v 0.243394 0.152127 0.684821
v 0.189598 0.149430 0.738603
v 0.049661 0.203244 0.773572
v 0.264901 0.192477 0.633676
v 0.103485 0.173656 0.633695
v 0.141151 0.168272 0.787037
v 0.208402 0.189785 0.719772
v 0.248771 0.168272 0.676724
v 0.028154 0.189785 0.816620
v 0.237989 0.197861 0.674050
v 0.084652 0.168272 0.813928
v 0.176114 0.154818 0.760127
v -0.017591 0.187099 0.709019
v 0.189598 0.195169 0.633676
v 0.052363 0.152127 0.822006
v 0.125020 0.162888 0.797789
v 0.264901 0.149430 0.633676
v -0.014917 0.160202 0.827392
v -0.012214 0.203244 0.762801
v 0.264901 0.173656 0.647121
v 0.095406 0.162888 0.633695
v -0.017591 0.157510 0.687495
v -0.017591 0.197861 0.727869
v 0.138448 0.192477 0.778958
v 0.133071 0.149430 0.787037
v -0.017591 0.200552 0.797789
v 0.138448 0.200552 0.768187
v 0.108862 0.195169 0.792404
v 0.168063 0.187099 0.760127
v 0.232612 0.200552 0.674050
vn 0.4188 0.8369 0.3525
vn -0.0000 -1.0000 0.0000
vn -1.0000 0.0000 -0.0000
vn -0.0000 0.0000 -1.0000
vn -0.0023 -0.0047 -1.0000
vn -0.2381 -0.8306 -0.5033
vn 0.0000 0.9995 -0.0323
vn 0.0315 0.9806 0.1937
vn -0.0919 -0.9821 -0.1641
vn 0.0168 0.8838 0.4676
vn 0.6001 -0.7380 0.3086
vn 0.7804 -0.0251 0.6247
vn 0.3623 -0.8361 0.4118
vn 0.1943 -0.9701 0.1457
vn 0.2390 -0.9520 0.1913
vn -0.0074 0.9963 0.0855
vn -0.0000 1.0000 0.0000
vn 0.0233 0.9894 0.1433
vn 0.0323 0.9967 0.0739
vn 0.5327 0.6750 0.5106
vn 0.7532 0.2637 0.6026
vn 0.6778 0.2557 0.6894
vn 0.7753 0.2170 0.5931
vn 0.8656 -0.0379 0.4992
vn 0.7936 0.0402 0.6071
vn 0.0259 0.3571 0.9337
vn -0.0326 0.5547 0.8314
vn 0.0290 0.8193 0.5726
vn 0.1006 0.7037 0.7034
vn 0.1311 0.3771 0.9169
vn 0.5761 0.7673 0.2817
vn 0.7379 0.5270 0.4216
vn 0.5361 0.7008 0.4707
vn 0.6468 0.5603 0.5175
vn 0.2973 0.3704 0.8800
vn 0.1973 0.2900 0.9365
vn 0.4297 -0.7595 0.4884
vn 0.7069 0.0009 0.7073
vn 0.6861 0.0974 0.7210
vn 0.6015 -0.0334 0.7982
vn 0.6288 0.0893 0.7724
vn -0.2520 0.8056 -0.5363
vn -0.2953 0.7383 -0.6064
vn -0.3398 0.6651 -0.6649
vn -0.1935 0.8706 -0.4524
vn 0.0275 -0.9668 0.2541
vn 0.1963 -0.7842 0.5886
vn 0.0126 -0.8507 0.5255
vn 0.1228 -0.0223 0.9922
vn 0.2217 0.0441 0.9741
vn 0.2056 0.0770 0.9756
vn 0.4295 -0.3097 0.8483
vn 0.4768 0.2527 0.8419
vn 0.5642 -0.0441 0.8244
vn 0.3788 0.0753 0.9224
vn 0.3875 0.2287 0.8930
vn 0.5445 -0.8192 0.1802
vn -0.9353 -0.0321 0.3523
vn 0.0074 0.2761 0.9611
vn -0.1276 -0.5746 0.8084
vn 0.0314 0.1415 0.9894
vn -0.4477 0.8942 0.0000
vn -0.0396 0.9950 -0.0916
vn -0.0087 0.9993 -0.0365
vn 0.8273 0.3265 0.4571
vn 0.9378 0.2019 0.2826
vn 0.8305 0.2496 0.4979
vn 0.8752 0.0321 0.4827
vn -0.0015 -0.0005 -1.0000
vn -0.0010 0.0002 -1.0000
vn -0.0020 0.0015 -1.0000
vn -0.4038 0.3030 -0.8632
vn -0.3263 -0.6686 -0.6682
vn -0.4201 -0.1407 -0.8965
vn -0.4299 0.0000 -0.9029
vn -0.1360 0.9393 -0.3151
vn -0.1651 0.9063 -0.3890
vn -0.1882 0.8785 -0.4391
vn 0.5152 0.3226 0.7941
vn 0.2355 -0.7945 0.5598
vn 0.3341 -0.6359 0.6957
vn 0.3110 -0.8784 0.3630
vn -0.0147 0.9960 0.0879
vn -0.0619 0.9266 0.3709
vn 0.1295 0.9796 0.1539
vn 0.0521 0.9943 0.0935
vn 0.3366 0.8524 0.4001
vn 0.3855 0.7383 0.5535
vn 0.3265 0.7563 0.5670
vn 0.1803 0.8403 0.5113
vn 0.2156 0.6906 0.6903
vn 0.2786 0.5431 0.7921
vn 0.3737 0.6078 0.7006
vn 0.3029 0.7825 0.5440
vn 0.5978 0.2391 0.7651
vn 0.6224 0.4345 0.6510
vn 0.6722 0.2688 0.6898
vn 0.5329 0.4698 0.7038
vn 0.5491 0.3191 0.7724
vn 0.0869 0.9951 0.0463
vn 0.1503 0.9805 0.1265
vn 0.4353 0.8698 0.2322
usemtl Shape.16901
s off
f 13//1 44//1 64//1
f 7//2 6//2 8//2
f 8//3 5//3 9//3
f 4//4 2//4 12//4
f 5//3 8//3 14//3
f 9//3 5//3 15//3
f 3//5 2//5 17//5
f 2//4 4//4 17//4
f 7//2 8//2 17//2
f 9//6 3//6 17//6
f 17//4 4//4 18//4
f 4//4 12//4 22//4
f 4//7 22//7 24//7
f 15//3 5//3 27//3
f 10//8 21//8 28//8
f 8//3 9//3 29//3
f 17//2 8//2 29//2
f 9//9 17//9 29//9
f 5//3 14//3 32//3
f 21//10 10//10 32//10
f 7//11 18//11 35//11
f 34//12 11//12 35//12
f 6//2 7//2 36//2
f 11//13 26//13 36//13
f 7//14 35//14 36//14
f 35//15 11//15 36//15
f 19//16 10//16 37//16
f 24//17 19//17 37//17
f 10//18 28//18 37//18
f 28//19 24//19 37//19
f 18//4 4//4 38//4
f 13//20 30//20 41//20
f 34//21 16//21 41//21
f 23//22 34//22 41//22
f 16//23 34//23 42//23
f 35//24 18//24 42//24
f 34//25 35//25 42//25
f 14//26 25//26 43//26
f 32//27 14//27 43//27
f 21//28 32//28 43//28
f 33//29 21//29 43//29
f 25//30 33//30 43//30
f 38//31 4//31 44//31
f 16//32 38//32 44//32
f 13//33 41//33 44//33
f 41//34 16//34 44//34
f 1//35 33//35 45//35
f 33//36 25//36 45//36
f 26//37 11//37 46//37
f 11//38 34//38 46//38
f 34//39 23//39 46//39
f 40//40 26//40 46//40
f 23//41 40//41 46//41
f 15//3 27//3 47//3
f 27//42 12//42 47//42
f 12//43 39//43 47//43
f 39//44 15//44 47//44
f 22//4 12//4 48//4
f 12//45 27//45 48//45
f 8//46 6//46 49//46
f 6//47 20//47 49//47
f 31//48 8//48 49//48
f 25//49 31//49 49//49
f 20//50 45//50 49//50
f 45//51 25//51 49//51
f 20//52 26//52 50//52
f 40//53 1//53 50//53
f 26//54 40//54 50//54
f 45//55 20//55 50//55
f 1//56 45//56 50//56
f 7//2 17//2 51//2
f 18//57 7//57 51//57
f 17//4 18//4 51//4
f 14//58 8//58 52//58
f 25//59 14//59 52//59
f 8//60 31//60 52//60
f 31//61 25//61 52//61
f 5//62 19//62 53//62
f 22//63 5//63 53//63
f 19//17 24//17 53//17
f 24//64 22//64 53//64
f 38//65 16//65 54//65
f 18//66 38//66 54//66
f 16//67 42//67 54//67
f 42//68 18//68 54//68
f 2//69 3//69 55//69
f 12//70 2//70 55//70
f 39//71 12//71 55//71
f 15//72 39//72 55//72
f 3//73 9//73 56//73
f 9//3 15//3 56//3
f 55//74 3//74 56//74
f 15//75 55//75 56//75
f 5//76 22//76 57//76
f 27//3 5//3 57//3
f 22//77 48//77 57//77
f 48//78 27//78 57//78
f 1//79 40//79 58//79
f 20//80 6//80 59//80
f 26//81 20//81 59//81
f 6//2 36//2 59//2
f 36//82 26//82 59//82
f 19//62 5//62 60//62
f 10//83 19//83 60//83
f 5//3 32//3 60//3
f 32//84 10//84 60//84
f 13//85 24//85 61//85
f 24//86 28//86 61//86
f 30//87 13//87 61//87
f 58//88 30//88 61//88
f 58//89 61//89 62//89
f 28//90 21//90 62//90
f 21//91 33//91 62//91
f 33//92 1//92 62//92
f 1//93 58//93 62//93
f 61//94 28//94 62//94
f 40//95 23//95 63//95
f 41//96 30//96 63//96
f 23//97 41//97 63//97
f 30//98 58//98 63//98
f 58//99 40//99 63//99
f 4//100 24//100 64//100
f 24//101 13//101 64//101
f 44//102 4//102 64//102
