# Blender v2.79 (sub 0) OBJ File: ''
# www.blender.org
mtllib 102703_link_4_54.mtl
o Shape_IndexedFaceSet.054_Shape_IndexedFaceSet.095
v 0.008395 -0.296735 -0.333958
v 0.092718 -0.220091 -0.180649
v 0.047250 -0.218890 -0.178466
v 0.054384 -0.304402 -0.180649
v -0.042618 -0.307644 -0.207803
v -0.029940 -0.220091 -0.326289
v 0.077385 -0.220091 -0.287962
v 0.092718 -0.304402 -0.211338
v -0.037607 -0.220091 -0.257304
v -0.029940 -0.304402 -0.318621
v 0.023729 -0.304402 -0.326289
v 0.031370 -0.220091 -0.326289
vn 0.6389 -0.0579 -0.7671
vn 0.0474 -0.0215 0.9986
vn -0.2678 -0.0469 0.9623
vn 0.0262 0.9996 -0.0037
vn 0.6012 -0.2733 0.7509
vn 0.0247 -0.9992 0.0309
vn 0.9886 0.0514 -0.1413
vn -0.6235 0.4115 0.6648
vn -0.0128 0.9999 -0.0014
vn -0.9939 -0.0056 -0.1105
vn -0.9934 -0.0104 -0.1140
vn -0.3555 -0.0847 -0.9308
vn 0.0236 -0.9996 -0.0141
vn 0.8186 -0.2976 -0.4913
vn -0.0042 -0.9995 -0.0297
vn -0.0874 -0.7864 -0.6115
vn 0.0000 1.0000 -0.0081
vn 0.0000 0.0996 -0.9950
vn 0.0074 0.9999 -0.0089
vn 0.4313 -0.0391 -0.9014
usemtl Shape.104
s off
f 7//1 11//1 12//1
f 2//2 3//2 4//2
f 4//3 3//3 5//3
f 3//4 2//4 7//4
f 2//5 4//5 8//5
f 4//6 5//6 8//6
f 7//7 2//7 8//7
f 5//8 3//8 9//8
f 3//9 6//9 9//9
f 6//10 5//10 9//10
f 5//11 6//11 10//11
f 6//12 1//12 10//12
f 8//13 5//13 11//13
f 7//14 8//14 11//14
f 5//15 10//15 11//15
f 10//16 1//16 11//16
f 6//17 3//17 12//17
f 1//18 6//18 12//18
f 3//19 7//19 12//19
f 11//20 1//20 12//20
