# Blender v2.79 (sub 0) OBJ File: ''
# www.blender.org
mtllib 102703_link_2_30.mtl
o Shape_IndexedFaceSet.030_Shape_IndexedFaceSet.17565
v 0.302179 0.315999 -0.050656
v 0.310328 0.326865 0.068805
v 0.304892 0.326865 0.068805
v 0.311903 0.298499 -0.029005
v 0.275023 0.324146 -0.047945
v 0.307609 0.326865 -0.034366
v 0.296743 0.305143 -0.034366
v 0.277743 0.326865 -0.058813
v 0.304892 0.324146 0.068805
vn -0.7094 -0.6811 0.1815
vn 0.0000 1.0000 0.0000
vn 0.9891 0.1448 -0.0261
vn 0.9305 0.0730 -0.3589
vn -0.1450 -0.8003 -0.5818
vn -0.4989 -0.8031 -0.3258
vn -0.4730 0.8753 0.1006
vn 0.4842 0.6448 -0.5915
vn -0.1592 -0.7962 -0.5837
vn 0.0000 0.0000 1.0000
vn 0.4322 -0.8642 0.2576
vn -0.9688 0.0000 0.2479
vn -0.4509 -0.8708 0.1960
usemtl Shape.17580
s off
f 5//1 7//1 9//1
f 3//2 2//2 6//2
f 2//3 4//3 6//3
f 4//4 1//4 6//4
f 1//5 4//5 7//5
f 7//6 5//6 8//6
f 5//7 3//7 8//7
f 3//2 6//2 8//2
f 6//8 1//8 8//8
f 1//9 7//9 8//9
f 2//10 3//10 9//10
f 4//11 2//11 9//11
f 3//12 5//12 9//12
f 7//13 4//13 9//13
