# Blender v2.79 (sub 0) OBJ File: ''
# www.blender.org
mtllib 102703_link_4_51.mtl
o Shape_IndexedFaceSet.051_Shape_IndexedFaceSet.092
v -0.083911 -0.301343 -0.515800
v 0.084540 -0.406625 -0.466699
v -0.045273 -0.396395 -0.395321
v -0.048672 -0.407177 -0.579358
v 0.084230 -0.302050 -0.508507
v 0.028283 -0.302518 -0.404942
v 0.028950 -0.301265 -0.579422
v 0.063454 -0.406515 -0.564286
v 0.046721 -0.411737 -0.395321
v -0.083780 -0.407055 -0.459468
v -0.056076 -0.300985 -0.423690
v 0.078110 -0.301462 -0.452447
v -0.047829 -0.302208 -0.570892
v -0.075516 -0.406238 -0.550038
v -0.075570 -0.302207 -0.446050
v 0.049379 -0.406382 -0.578033
v 0.069216 -0.302864 -0.549336
v 0.084054 -0.406322 -0.522352
vn 0.8974 0.0137 -0.4409
vn 0.0151 0.0903 0.9958
vn -0.1591 -0.9540 0.2540
vn -0.0318 -0.9995 -0.0083
vn -0.2052 0.2575 0.9442
vn -0.0025 1.0000 -0.0031
vn 0.9931 0.0461 0.1079
vn 0.0243 0.9997 -0.0078
vn 0.8839 -0.0093 0.4676
vn 0.6771 0.1772 0.7142
vn 0.0107 0.9994 0.0335
vn 0.0036 1.0000 0.0002
vn -0.0151 0.9996 -0.0256
vn -0.1110 0.0808 -0.9905
vn -0.9946 -0.0498 -0.0912
vn -0.0497 -0.9987 -0.0135
vn -0.8305 0.1116 -0.5457
vn -0.7353 0.0604 -0.6751
vn -0.9909 0.0623 0.1193
vn -0.8575 0.0013 0.5145
vn -0.7523 0.1081 0.6499
vn -0.0887 0.9958 0.0229
vn 0.0136 -0.0106 -0.9999
vn 0.0085 -0.9995 -0.0292
vn 0.0189 -0.9994 -0.0290
vn 0.0750 0.9961 -0.0474
vn 0.5979 0.1057 -0.7946
vn 0.6976 0.0641 -0.7136
vn 1.0000 -0.0005 -0.0087
vn 0.1219 -0.9925 -0.0065
vn 0.0600 -0.9979 -0.0249
vn 0.9373 0.0443 -0.3456
usemtl Shape.101
s off
f 8//1 17//1 18//1
f 6//2 3//2 9//2
f 9//3 3//3 10//3
f 4//4 9//4 10//4
f 3//5 6//5 11//5
f 7//6 1//6 11//6
f 2//7 5//7 12//7
f 5//8 7//8 12//8
f 9//9 2//9 12//9
f 6//10 9//10 12//10
f 11//11 6//11 12//11
f 7//12 11//12 12//12
f 1//13 7//13 13//13
f 7//14 4//14 13//14
f 10//15 1//15 14//15
f 4//16 10//16 14//16
f 1//17 13//17 14//17
f 13//18 4//18 14//18
f 1//19 10//19 15//19
f 10//20 3//20 15//20
f 3//21 11//21 15//21
f 11//22 1//22 15//22
f 4//23 7//23 16//23
f 9//24 4//24 16//24
f 8//25 9//25 16//25
f 7//26 5//26 17//26
f 16//27 7//27 17//27
f 8//28 16//28 17//28
f 5//29 2//29 18//29
f 2//30 9//30 18//30
f 9//31 8//31 18//31
f 17//32 5//32 18//32
