# Blender v2.79 (sub 0) OBJ File: ''
# www.blender.org
mtllib 102703_link_0_21.mtl
o Shape_IndexedFaceSet.021_Shape_IndexedFaceSet.4440
v -0.492545 0.628300 -0.354006
v -0.497673 0.625415 -0.398556
v -0.497673 0.626698 -0.398556
v -0.492545 0.629901 -0.398556
v -0.495429 0.631824 -0.396626
v -0.497673 0.626057 -0.355614
v -0.492545 0.625415 -0.354011
v -0.495749 0.625415 -0.398556
v -0.496070 0.628300 -0.356895
v -0.492545 0.631504 -0.387974
v -0.496711 0.625415 -0.352090
v -0.496391 0.630863 -0.398556
v -0.494789 0.630222 -0.373563
v -0.493186 0.631824 -0.397906
v -0.497032 0.627659 -0.358821
v -0.497032 0.629581 -0.397906
v -0.492545 0.625415 -0.350809
v -0.496070 0.627339 -0.352408
v -0.493186 0.628940 -0.357858
v -0.495109 0.626057 -0.398556
v -0.497673 0.625415 -0.354651
v -0.494789 0.632145 -0.396948
v -0.492545 0.629581 -0.397271
v -0.497673 0.626377 -0.356895
v -0.493507 0.626698 -0.351127
v -0.492545 0.631183 -0.398556
v -0.495429 0.629581 -0.367473
v -0.492545 0.630542 -0.375793
v -0.496391 0.630863 -0.396626
v -0.495429 0.627980 -0.353371
v -0.492545 0.627659 -0.352085
v -0.496070 0.629260 -0.368113
v -0.497673 0.626698 -0.368436
v -0.495429 0.631824 -0.398556
vn 0.1737 0.7814 -0.5994
vn 0.0000 0.0000 -1.0000
vn -1.0000 0.0000 0.0000
vn 1.0000 0.0000 0.0000
vn 0.0000 -1.0000 0.0000
vn -0.8986 0.2766 -0.3406
vn -0.7308 0.6674 0.1429
vn -0.0003 0.0000 -1.0000
vn 0.7073 -0.7051 -0.0509
vn -0.8780 0.3470 0.3298
vn -0.8712 0.4084 0.2723
vn 0.2067 0.9782 0.0182
vn 0.8241 -0.5497 -0.1369
vn 0.8169 -0.5742 -0.0553
vn -1.0000 -0.0002 0.0000
vn -0.7834 0.6030 0.1506
vn -0.7783 0.6103 0.1472
vn -0.2939 0.0165 0.9557
vn -0.3751 0.2714 0.8863
vn 0.6958 0.7179 -0.0218
vn -0.1811 0.9776 0.1074
vn -0.1129 0.9893 0.0923
vn -0.4190 0.9053 0.0697
vn -0.2134 0.9737 0.0801
vn 0.3536 0.9305 0.0957
vn -0.0555 0.9947 0.0869
vn -0.0606 0.9948 0.0818
vn -0.0301 0.9964 0.0787
vn -0.7068 0.7075 0.0000
vn -0.8944 0.4472 0.0000
vn -0.8782 0.4776 0.0256
vn -0.9020 0.4314 0.0196
vn -0.5527 0.8149 0.1745
vn -0.0705 0.9821 0.1749
vn -0.1764 0.9769 0.1208
vn 0.3485 0.4633 0.8148
vn -0.1274 0.7613 0.6357
vn -0.1233 0.8620 0.4917
vn -0.0355 0.9480 0.3163
vn -0.6407 0.7650 0.0655
vn -0.4990 0.8640 0.0665
vn -0.5043 0.8604 0.0736
vn -0.7059 0.7067 0.0477
vn -0.7103 0.7023 0.0475
vn -0.9762 0.2170 0.0000
vn -1.0000 0.0002 0.0000
vn -0.9549 0.2967 0.0083
vn -0.7067 0.7075 0.0000
vn -0.4483 0.8939 0.0000
vn 0.0637 0.9735 -0.2196
usemtl Shape.4445
s off
f 14//1 26//1 34//1
f 2//2 3//2 4//2
f 3//3 2//3 6//3
f 4//4 1//4 7//4
f 2//2 4//2 8//2
f 7//5 2//5 8//5
f 1//4 4//4 10//4
f 2//5 7//5 11//5
f 4//2 3//2 12//2
f 12//6 3//6 16//6
f 7//4 1//4 17//4
f 11//5 7//5 17//5
f 9//7 15//7 18//7
f 8//8 4//8 20//8
f 7//9 8//9 20//9
f 6//3 2//3 21//3
f 2//5 11//5 21//5
f 11//10 18//10 21//10
f 18//11 6//11 21//11
f 10//12 14//12 22//12
f 4//4 7//4 23//4
f 20//13 4//13 23//13
f 7//14 20//14 23//14
f 3//15 6//15 24//15
f 6//16 18//16 24//16
f 18//17 15//17 24//17
f 11//18 17//18 25//18
f 18//19 11//19 25//19
f 10//4 4//4 26//4
f 4//2 12//2 26//2
f 14//20 10//20 26//20
f 9//21 19//21 27//21
f 19//22 13//22 27//22
f 22//23 5//23 27//23
f 13//24 22//24 27//24
f 1//4 10//4 28//4
f 19//25 1//25 28//25
f 13//26 19//26 28//26
f 22//27 13//27 28//27
f 10//28 22//28 28//28
f 5//29 12//29 29//29
f 12//30 16//30 29//30
f 24//31 15//31 29//31
f 16//32 24//32 29//32
f 9//33 18//33 30//33
f 1//34 19//34 30//34
f 19//35 9//35 30//35
f 17//4 1//4 31//4
f 25//36 17//36 31//36
f 18//37 25//37 31//37
f 30//38 18//38 31//38
f 1//39 30//39 31//39
f 15//40 9//40 32//40
f 27//41 5//41 32//41
f 9//42 27//42 32//42
f 5//43 29//43 32//43
f 29//44 15//44 32//44
f 16//45 3//45 33//45
f 3//46 24//46 33//46
f 24//47 16//47 33//47
f 12//48 5//48 34//48
f 5//49 22//49 34//49
f 22//50 14//50 34//50
f 26//2 12//2 34//2
