# Blender v2.79 (sub 0) OBJ File: ''
# www.blender.org
mtllib 102703_link_1_27.mtl
o Shape_IndexedFaceSet.027_Shape_IndexedFaceSet.6209
v 0.427121 0.671891 -0.525974
v 0.441185 0.685953 -0.432219
v 0.441185 0.681264 -0.432219
v 0.413066 0.683608 -0.432219
v 0.436496 0.685953 -0.525974
v 0.408377 0.683608 -0.525974
v 0.420096 0.671891 -0.432219
v 0.408377 0.674236 -0.525974
v 0.436496 0.674236 -0.502535
v 0.415411 0.685953 -0.509556
v 0.436496 0.674236 -0.432219
v 0.413066 0.674236 -0.432219
v 0.438840 0.678922 -0.511896
v 0.413066 0.671891 -0.525974
v 0.424782 0.685953 -0.432219
vn -0.1962 0.9803 0.0238
vn 0.0000 0.0000 1.0000
vn 0.0000 0.0000 -1.0000
vn -0.9988 0.0000 0.0500
vn 0.0000 1.0000 0.0000
vn -0.3531 0.9354 0.0177
vn -0.0826 0.9909 -0.1061
vn 0.1415 -0.9899 0.0106
vn 0.2427 -0.9701 0.0000
vn 0.8319 -0.5550 0.0000
vn 0.9996 0.0000 -0.0294
vn 0.7683 -0.5122 -0.3838
vn 0.9727 0.2269 -0.0486
vn 0.6656 -0.7207 -0.1941
vn 0.8842 -0.4669 -0.0123
vn 0.0000 -1.0000 0.0000
vn -0.3163 -0.9483 0.0237
vn -0.4472 -0.8942 0.0224
usemtl Shape.6215
s off
f 10//1 4//1 15//1
f 3//2 2//2 4//2
f 5//3 1//3 6//3
f 3//2 4//2 7//2
f 6//3 1//3 8//3
f 4//4 6//4 8//4
f 2//5 5//5 10//5
f 6//6 4//6 10//6
f 5//7 6//7 10//7
f 7//8 1//8 11//8
f 3//2 7//2 11//2
f 1//9 9//9 11//9
f 9//10 3//10 11//10
f 7//2 4//2 12//2
f 4//4 8//4 12//4
f 2//11 3//11 13//11
f 1//12 5//12 13//12
f 5//13 2//13 13//13
f 9//14 1//14 13//14
f 3//15 9//15 13//15
f 1//16 7//16 14//16
f 8//3 1//3 14//3
f 7//17 12//17 14//17
f 12//18 8//18 14//18
f 4//2 2//2 15//2
f 2//5 10//5 15//5
