# Blender v2.79 (sub 0) OBJ File: ''
# www.blender.org
mtllib 102703_link_1_5.mtl
o Shape_IndexedFaceSet.005_Shape_IndexedFaceSet.6187
v -0.402607 0.714081 -0.631445
v -0.369794 0.744550 -0.575196
v -0.388545 0.744550 -0.575196
v -0.407291 0.704704 -0.575196
v -0.369794 0.704704 -0.629094
v -0.369794 0.737514 -0.629094
v -0.407291 0.735174 -0.586926
v -0.421359 0.704704 -0.575196
v -0.397918 0.704704 -0.640824
v -0.369794 0.732830 -0.575196
v -0.390892 0.735174 -0.626749
v -0.369794 0.721113 -0.638479
v -0.376830 0.742202 -0.615038
v -0.416670 0.707052 -0.598637
v -0.411981 0.730482 -0.575196
v -0.390892 0.725794 -0.636135
v -0.404949 0.723461 -0.617383
v -0.371058 0.705681 -0.639215
v -0.400260 0.739862 -0.589271
v -0.414323 0.725794 -0.582230
vn -0.9016 0.3433 -0.2632
vn 0.0000 0.0000 1.0000
vn 1.0000 0.0000 0.0000
vn 0.0000 -1.0000 0.0000
vn 0.5537 -0.7382 0.3852
vn 0.0000 0.9983 -0.0588
vn 0.3731 0.9200 -0.1201
vn -0.1434 0.9151 -0.3770
vn -0.5279 -0.8281 -0.1885
vn -0.9136 -0.0537 -0.4031
vn -0.6358 0.3632 -0.6810
vn -0.1551 0.6988 -0.6983
vn -0.7036 0.5026 -0.5023
vn -0.0558 0.2344 -0.9705
vn 0.0138 0.4966 -0.8679
vn -0.7202 0.6272 -0.2966
vn -0.7290 0.5072 -0.4597
vn -0.9048 0.2691 -0.3302
vn 0.0422 -0.9940 -0.1012
vn 0.0582 0.0428 -0.9974
vn 0.9886 -0.0747 -0.1307
vn -0.5930 0.7673 -0.2442
vn -0.2346 0.9639 -0.1258
vn -0.3053 0.9325 -0.1930
vn -0.5095 0.8488 0.1414
vn -0.5197 0.8444 0.1300
vn -0.9509 0.2626 -0.1639
vn -0.8199 0.5633 -0.1025
vn -0.9364 0.3406 0.0847
vn -0.8306 0.4953 -0.2544
usemtl Shape.6193
s off
f 17//1 14//1 20//1
f 2//2 3//2 4//2
f 2//3 5//3 6//3
f 4//2 3//2 8//2
f 5//4 4//4 8//4
f 5//4 8//4 9//4
f 2//2 4//2 10//2
f 4//5 5//5 10//5
f 5//3 2//3 10//3
f 6//3 5//3 12//3
f 3//6 2//6 13//6
f 2//7 6//7 13//7
f 6//8 11//8 13//8
f 9//9 8//9 14//9
f 1//10 9//10 14//10
f 8//2 3//2 15//2
f 9//11 1//11 16//11
f 11//12 6//12 16//12
f 1//13 11//13 16//13
f 12//14 9//14 16//14
f 6//15 12//15 16//15
f 7//16 11//16 17//16
f 11//17 1//17 17//17
f 1//18 14//18 17//18
f 5//19 9//19 18//19
f 9//20 12//20 18//20
f 12//21 5//21 18//21
f 11//22 7//22 19//22
f 3//23 13//23 19//23
f 13//24 11//24 19//24
f 15//25 3//25 19//25
f 7//26 15//26 19//26
f 14//27 8//27 20//27
f 15//28 7//28 20//28
f 8//29 15//29 20//29
f 7//30 17//30 20//30
