# Blender v2.79 (sub 0) OBJ File: ''
# www.blender.org
mtllib 102703_link_0_31.mtl
o Shape_IndexedFaceSet.031_Shape_IndexedFaceSet.4450
v -0.482287 0.628941 -0.402085
v -0.467545 0.630543 -0.436693
v -0.467867 0.631184 -0.437014
v -0.482287 0.631824 -0.437335
v -0.481967 0.632786 -0.413946
v -0.468508 0.627019 -0.402085
v -0.469469 0.629582 -0.404011
v -0.479402 0.634069 -0.434771
v -0.469469 0.629582 -0.437335
v -0.481006 0.631504 -0.403048
v -0.468828 0.630864 -0.418432
v -0.471391 0.627019 -0.402727
v -0.482287 0.633748 -0.437335
v -0.468187 0.627979 -0.402085
v -0.474598 0.630864 -0.405612
v -0.482287 0.630543 -0.402085
v -0.482287 0.629262 -0.407213
v -0.468508 0.627019 -0.405612
v -0.468187 0.629582 -0.409139
v -0.468508 0.631504 -0.437014
v -0.467867 0.629902 -0.437335
v -0.478121 0.633427 -0.428680
v -0.482287 0.632145 -0.407213
v -0.469469 0.630223 -0.408818
v -0.479402 0.633748 -0.437335
v -0.467867 0.628300 -0.418111
v -0.478761 0.631504 -0.404649
v -0.482287 0.631183 -0.430281
v -0.477161 0.627979 -0.402727
v -0.481006 0.634069 -0.434129
v -0.467867 0.628941 -0.409139
v -0.471391 0.628621 -0.422269
v -0.469789 0.628621 -0.402085
v -0.468508 0.629582 -0.437335
v -0.470110 0.627019 -0.405291
v -0.475237 0.630543 -0.403048
v -0.481006 0.630864 -0.402085
v -0.468187 0.627339 -0.402085
vn 0.9886 -0.1502 0.0107
vn -0.1174 -0.8416 0.5271
vn -1.0000 0.0000 0.0000
vn 0.0000 0.0000 -1.0000
vn 0.0000 0.0000 1.0000
vn 0.0000 -1.0000 0.0000
vn 0.8855 0.4632 0.0368
vn 0.7064 0.7061 0.0487
vn 0.6633 0.7297 0.1658
vn 0.4463 0.8940 0.0385
vn 0.2363 0.9709 0.0375
vn 0.8233 0.1378 -0.5506
vn 0.1205 0.2411 -0.9630
vn 0.1298 0.9886 0.0769
vn 0.2030 0.9773 0.0603
vn -0.6615 0.7489 0.0399
vn -0.4414 0.8565 0.2676
vn 0.2022 0.9707 0.1294
vn 0.4633 0.8817 0.0897
vn 0.4674 0.8763 0.1168
vn 0.1846 0.9797 0.0776
vn 0.1742 0.9813 0.0824
vn 0.0000 0.9923 -0.1242
vn 0.2037 0.9715 -0.1216
vn 0.0749 0.2246 -0.9716
vn 0.9066 -0.4205 -0.0350
vn 0.1534 0.9847 0.0829
vn 0.1702 0.9819 0.0831
vn 0.1076 0.9892 0.0993
vn 0.0889 0.9882 0.1248
vn -0.1716 -0.9811 -0.0891
vn -1.0000 0.0011 0.0000
vn -0.1741 -0.9813 -0.0817
vn -0.1619 -0.9728 0.1655
vn -0.1915 -0.9796 -0.0613
vn 0.0259 0.9976 0.0647
vn -0.3435 0.9382 0.0433
vn -0.0344 0.9957 -0.0860
vn 0.8941 0.4464 0.0364
vn 0.8901 0.4444 0.1010
vn 0.9959 -0.0898 0.0064
vn -0.1690 -0.9820 -0.0842
vn -0.1702 -0.9819 -0.0825
vn -0.1636 -0.9832 -0.0806
vn 0.3294 0.8219 0.4648
vn 0.0000 -0.9968 -0.0805
vn 0.3885 -0.9184 -0.0742
vn 0.4455 -0.8922 -0.0744
vn -0.0160 -0.9967 -0.0800
vn 0.0000 -1.0000 0.0001
vn -0.1484 -0.9855 -0.0818
vn -0.1614 -0.9836 -0.0806
vn 0.1893 0.9674 0.1683
vn 0.1601 0.9612 0.2245
vn 0.1876 0.9678 0.1679
vn 0.2205 0.8577 0.4645
vn 0.1496 0.7480 0.6467
vn -0.2043 0.8153 0.5419
vn 0.1374 0.8249 0.5483
vn 0.7061 -0.7081 0.0000
vn 0.8050 -0.5929 -0.0195
vn 0.9990 0.0000 0.0453
usemtl Shape.4455
s off
f 26//1 31//1 38//1
f 6//2 1//2 12//2
f 4//3 1//3 13//3
f 9//4 4//4 13//4
f 1//5 6//5 14//5
f 13//3 1//3 16//3
f 1//5 14//5 16//5
f 1//3 4//3 17//3
f 6//6 12//6 18//6
f 2//7 3//7 19//7
f 3//8 11//8 19//8
f 7//9 14//9 19//9
f 11//10 3//10 20//10
f 8//11 11//11 20//11
f 3//12 2//12 21//12
f 9//4 13//4 21//4
f 20//13 3//13 21//13
f 8//14 5//14 22//14
f 11//15 8//15 22//15
f 5//16 13//16 23//16
f 16//17 10//17 23//17
f 13//3 16//3 23//3
f 15//18 7//18 24//18
f 19//19 11//19 24//19
f 7//20 19//20 24//20
f 11//21 22//21 24//21
f 22//22 15//22 24//22
f 13//23 8//23 25//23
f 8//24 20//24 25//24
f 21//4 13//4 25//4
f 20//25 21//25 25//25
f 21//26 2//26 26//26
f 22//27 5//27 27//27
f 15//28 22//28 27//28
f 5//29 23//29 27//29
f 23//30 10//30 27//30
f 4//31 9//31 28//31
f 17//32 4//32 28//32
f 17//33 28//33 29//33
f 12//34 1//34 29//34
f 1//35 17//35 29//35
f 5//36 8//36 30//36
f 13//37 5//37 30//37
f 8//38 13//38 30//38
f 2//39 19//39 31//39
f 19//40 14//40 31//40
f 26//41 2//41 31//41
f 28//42 9//42 32//42
f 29//43 28//43 32//43
f 12//44 29//44 32//44
f 14//45 7//45 33//45
f 16//5 14//5 33//5
f 18//46 9//46 34//46
f 9//4 21//4 34//4
f 26//47 18//47 34//47
f 21//48 26//48 34//48
f 9//49 18//49 35//49
f 18//50 12//50 35//50
f 32//51 9//51 35//51
f 12//52 32//52 35//52
f 7//53 15//53 36//53
f 27//54 10//54 36//54
f 15//55 27//55 36//55
f 33//56 7//56 36//56
f 33//57 36//57 37//57
f 10//58 16//58 37//58
f 16//5 33//5 37//5
f 36//59 10//59 37//59
f 14//5 6//5 38//5
f 6//60 18//60 38//60
f 18//61 26//61 38//61
f 31//62 14//62 38//62
