# Blender v2.79 (sub 0) OBJ File: ''
# www.blender.org
mtllib 102677_link_4_0.mtl
o Shape_IndexedFaceSet_Shape_IndexedFaceSet.11078
v 0.191379 -0.579568 -0.222673
v -0.027254 -0.626266 -0.522136
v -0.027453 -0.613044 -0.523194
v -0.196511 -0.592861 -0.199426
v -0.047632 -0.538993 -0.496242
v 0.181465 -0.638203 -0.205690
v 0.079934 -0.539173 -0.200605
v -0.175804 -0.638226 -0.205648
v 0.071818 -0.540183 -0.466752
v 0.082203 -0.637140 -0.469588
v -0.156903 -0.550439 -0.191177
v -0.111389 -0.631922 -0.433403
v 0.152908 -0.599476 -0.368255
v 0.155521 -0.550439 -0.191177
v -0.111701 -0.573124 -0.433599
v 0.065260 -0.605918 -0.506248
v 0.202520 -0.626709 -0.199152
v -0.045565 -0.637913 -0.497189
v -0.078416 -0.540703 -0.205503
v 0.190996 -0.557539 -0.205391
v -0.167492 -0.619547 -0.314896
v 0.032614 -0.539780 -0.500775
v 0.119058 -0.626009 -0.441281
v -0.093809 -0.626149 -0.474918
v -0.162857 -0.566744 -0.277137
v -0.195920 -0.626536 -0.199907
v 0.115794 -0.566901 -0.426123
v -0.072817 -0.540116 -0.460307
v 0.033082 -0.626503 -0.523174
v 0.148159 -0.631461 -0.368045
v -0.152813 -0.599419 -0.355043
vn -0.8467 0.4428 -0.2949
vn 0.1484 0.9889 -0.0083
vn 0.0000 0.6418 0.7669
vn 0.0001 -0.4946 0.8691
vn 0.9593 0.0938 -0.2663
vn 0.0000 -0.1040 0.9946
vn 0.0001 -1.0000 -0.0010
vn 0.0075 -0.9999 -0.0069
vn -0.1598 -0.9845 -0.0724
vn -0.0098 0.9999 0.0048
vn -0.0231 0.8812 0.4722
vn 0.9315 0.2344 -0.2782
vn 0.1883 0.9819 -0.0206
vn 0.9750 0.1474 -0.1663
vn 0.3931 0.1474 0.9076
vn -0.0500 0.3295 -0.9428
vn 0.0096 0.9999 -0.0035
vn 0.0139 0.9999 -0.0042
vn 0.6134 0.3609 -0.7025
vn 0.6287 -0.4241 -0.6518
vn -0.5771 -0.0738 -0.8133
vn -0.5997 0.1243 -0.7905
vn -0.7409 0.2390 -0.6276
vn -0.4451 -0.6406 -0.6257
vn -0.3442 -0.8990 -0.2708
vn -0.8957 -0.1838 -0.4049
vn -0.7207 0.6886 -0.0807
vn -0.1861 -0.0173 0.9824
vn -0.5313 -0.8293 -0.1732
vn -0.0019 -0.4434 0.8963
vn -0.0019 -0.1130 0.9936
vn -0.9705 -0.0136 -0.2408
vn -0.5789 -0.7926 -0.1913
vn 0.7386 0.2915 -0.6078
vn 0.8520 0.4232 -0.3082
vn 0.6635 0.7030 -0.2559
vn 0.8700 0.1670 -0.4639
vn 0.7842 0.1944 -0.5893
vn -0.7338 0.4600 -0.4999
vn -0.0426 0.9991 0.0014
vn -0.1232 0.9924 -0.0004
vn -0.5088 0.8516 -0.1263
vn -0.7229 0.6392 -0.2624
vn -0.0175 -0.0800 -0.9966
vn 0.6205 -0.4318 -0.6546
vn -0.0109 -0.9030 -0.4296
vn 0.0590 -0.9674 -0.2461
vn 0.0559 0.2500 -0.9666
vn 0.3286 0.2378 -0.9140
vn 0.2134 -0.9733 -0.0842
vn 0.5075 -0.8503 -0.1394
vn 0.9434 -0.1420 -0.2997
vn 0.4457 -0.8621 -0.2413
vn 0.9168 -0.1386 -0.3746
vn -0.9505 0.1483 -0.2731
vn -0.8917 0.0498 -0.4500
vn -0.8995 -0.1572 -0.4077
vn -0.8942 0.3600 -0.2663
usemtl Shape.11086
s off
f 25//1 15//1 31//1
f 9//2 7//2 14//2
f 7//3 11//3 14//3
f 8//4 6//4 17//4
f 13//5 1//5 17//5
f 14//6 11//6 17//6
f 6//7 8//7 18//7
f 10//8 6//8 18//8
f 8//9 12//9 18//9
f 7//10 5//10 19//10
f 11//11 7//11 19//11
f 1//12 13//12 20//12
f 9//13 14//13 20//13
f 17//14 1//14 20//14
f 14//15 17//15 20//15
f 3//16 5//16 22//16
f 5//17 7//17 22//17
f 7//18 9//18 22//18
f 9//19 16//19 22//19
f 10//20 16//20 23//20
f 3//21 2//21 24//21
f 5//22 3//22 24//22
f 15//23 5//23 24//23
f 2//24 18//24 24//24
f 18//25 12//25 24//25
f 12//26 21//26 24//26
f 4//27 11//27 25//27
f 11//28 4//28 26//28
f 12//29 8//29 26//29
f 8//30 17//30 26//30
f 17//31 11//31 26//31
f 4//32 21//32 26//32
f 21//33 12//33 26//33
f 16//34 9//34 27//34
f 20//35 13//35 27//35
f 9//36 20//36 27//36
f 13//37 23//37 27//37
f 23//38 16//38 27//38
f 5//39 15//39 28//39
f 19//40 5//40 28//40
f 11//41 19//41 28//41
f 25//42 11//42 28//42
f 15//43 25//43 28//43
f 2//44 3//44 29//44
f 16//45 10//45 29//45
f 18//46 2//46 29//46
f 10//47 18//47 29//47
f 3//48 22//48 29//48
f 22//49 16//49 29//49
f 6//50 10//50 30//50
f 17//51 6//51 30//51
f 13//52 17//52 30//52
f 10//53 23//53 30//53
f 23//54 13//54 30//54
f 21//55 4//55 31//55
f 15//56 24//56 31//56
f 24//57 21//57 31//57
f 4//58 25//58 31//58
