# Blender v2.79 (sub 0) OBJ File: ''
# www.blender.org
mtllib 102677_link_4_31.mtl
o Shape_IndexedFaceSet.031_Shape_IndexedFaceSet.11109
v 0.199253 0.159711 -0.213444
v 0.351980 0.166326 -0.436048
v 0.346275 0.166376 -0.409775
v 0.088754 0.166594 -0.561999
v 0.334576 0.152946 -0.552151
v 0.090184 0.152900 -0.560129
v 0.085087 0.166782 -0.213269
v 0.086506 0.152712 -0.215051
v 0.309225 0.153322 -0.338584
v 0.314867 0.166517 -0.560037
v 0.233062 0.166462 -0.221126
v 0.232871 0.153087 -0.224254
vn 0.2582 -0.2235 0.9399
vn -0.9944 -0.1053 -0.0107
vn 0.0002 -1.0000 -0.0005
vn -0.0063 -0.1263 0.9920
vn -0.9950 -0.0990 -0.0104
vn 0.5179 -0.8478 0.1141
vn 0.3887 -0.9201 0.0478
vn 0.0067 1.0000 -0.0005
vn 0.6057 0.7750 -0.1801
vn 0.0086 -0.1344 -0.9909
vn 0.0289 -0.4705 -0.8819
vn 0.0020 1.0000 0.0005
vn 0.0003 1.0000 -0.0005
vn 0.0416 0.6526 0.7565
vn 0.0022 1.0000 0.0009
vn 0.8038 0.3485 0.4822
vn 0.8235 -0.1403 0.5497
vn 0.0404 -0.7911 0.6104
vn 0.0026 -1.0000 0.0012
vn 0.0069 -1.0000 0.0026
usemtl Shape.11117
s off
f 11//1 1//1 12//1
f 4//2 6//2 8//2
f 6//3 5//3 8//3
f 1//4 7//4 8//4
f 7//5 4//5 8//5
f 2//6 3//6 9//6
f 5//7 2//7 9//7
f 3//8 2//8 10//8
f 2//9 5//9 10//9
f 6//10 4//10 10//10
f 5//11 6//11 10//11
f 7//12 3//12 10//12
f 4//13 7//13 10//13
f 7//14 1//14 11//14
f 3//15 7//15 11//15
f 9//16 3//16 11//16
f 9//17 11//17 12//17
f 1//18 8//18 12//18
f 8//19 5//19 12//19
f 5//20 9//20 12//20
