# Blender v2.79 (sub 0) OBJ File: ''
# www.blender.org
mtllib 102677_link_4_3.mtl
o Shape_IndexedFaceSet.003_Shape_IndexedFaceSet.11081
v -0.138072 -0.591542 0.620581
v 0.239949 -0.598395 0.235753
v 0.225517 -0.461247 0.276800
v -0.185311 -0.557510 -0.191177
v -0.206460 -0.454217 0.379817
v 0.188895 -0.638190 -0.169912
v 0.039242 -0.457507 -0.160612
v 0.061962 -0.452950 0.659795
v 0.142587 -0.632064 0.617567
v -0.216670 -0.638045 0.080792
v -0.027623 -0.638289 0.683077
v 0.191004 -0.557510 -0.191177
v -0.183477 -0.638325 -0.170548
v -0.205573 -0.632284 0.440824
v -0.219297 -0.454584 0.242679
v -0.083405 -0.453738 0.642630
v 0.191310 -0.454344 0.461879
v 0.210618 -0.632018 0.440261
v -0.033000 -0.458853 -0.154277
v -0.233976 -0.605209 0.077909
v 0.233252 -0.612206 -0.011932
v 0.218953 -0.454243 0.228882
v 0.054845 -0.605817 0.700200
v -0.049310 -0.612945 0.701534
v -0.233873 -0.612038 0.263088
v -0.165357 -0.454182 0.524033
v 0.221548 -0.637706 0.276496
v 0.123188 -0.460913 0.607154
v -0.108891 -0.638264 0.635567
v -0.201264 -0.626440 -0.179676
v -0.220132 -0.591462 -0.072941
v 0.170381 -0.598143 0.570850
v -0.021499 -0.466874 0.673790
v -0.205933 -0.598199 0.454755
v 0.218756 -0.591419 0.413934
v 0.096365 -0.619613 0.678978
v 0.206338 -0.626199 -0.178344
v -0.145761 -0.626352 0.615702
v 0.231528 -0.632196 0.044763
v 0.067032 -0.638091 0.668637
v 0.211431 -0.584486 -0.140319
v -0.090540 -0.626441 0.678298
v 0.150377 -0.454233 0.565093
v 0.143799 -0.598422 0.620669
v -0.220213 -0.454204 0.276915
v -0.226999 -0.598319 0.338589
v -0.233277 -0.625566 0.085337
v 0.232807 -0.612080 0.331800
v 0.240565 -0.619196 0.104803
v -0.145349 -0.453816 0.566469
v -0.171819 -0.598230 0.557664
v -0.208978 -0.637642 0.350482
v 0.027204 -0.550347 0.694846
v 0.187487 -0.637499 0.484661
v 0.198807 -0.625943 0.496915
v 0.033975 -0.633352 0.699195
v 0.205259 -0.454232 0.407183
v -0.056215 -0.453036 0.659345
v -0.185177 -0.454560 0.468293
v 0.231710 -0.632264 0.283632
vn 0.8228 -0.5683 -0.0008
vn 0.0000 0.2923 -0.9563
vn 0.0004 -1.0000 -0.0000
vn -0.0860 0.4628 -0.8823
vn -0.4869 0.8405 -0.2375
vn -0.0204 0.9996 -0.0203
vn 0.5006 0.8324 -0.2379
vn 0.9667 0.2366 -0.0978
vn -0.0046 -1.0000 0.0005
vn -0.0004 -1.0000 0.0001
vn 0.0000 -0.1646 -0.9864
vn -0.5295 -0.8455 -0.0690
vn 0.0016 -0.6076 -0.7942
vn -0.9125 0.3762 -0.1607
vn -0.9815 0.1766 -0.0740
vn -0.9561 0.1831 -0.2290
vn 0.4978 0.1999 0.8440
vn 0.6524 0.2182 0.7258
vn 0.0030 -0.5781 -0.8159
vn 0.0033 -0.1829 -0.9831
vn -0.3810 -0.9104 0.1612
vn 0.2092 -0.9778 -0.0142
vn 0.9094 -0.4001 -0.1134
vn 0.5369 -0.8395 -0.0832
vn 0.0022 -1.0000 0.0004
vn 0.0044 -1.0000 0.0008
vn 0.3627 -0.8217 0.4396
vn 0.9068 0.3915 -0.1566
vn 0.9614 0.2529 -0.1088
vn 0.9424 0.1550 -0.2963
vn 0.9864 0.0271 -0.1618
vn -0.7074 0.1709 0.6859
vn -0.1815 -0.6757 0.7145
vn -0.5289 0.1926 0.8266
vn -0.1989 -0.9192 0.3398
vn -0.7479 0.0727 0.6599
vn -0.4754 -0.7739 0.4183
vn 0.0232 0.9997 0.0081
vn 0.4659 0.7763 0.4245
vn 0.9201 0.1425 0.3648
vn 0.8732 0.1401 0.4667
vn 0.8800 -0.0750 0.4691
vn 0.7878 -0.0846 0.6101
vn 0.7319 0.1744 0.6588
vn 0.8136 0.1764 0.5540
vn -0.0063 0.9999 -0.0113
vn -0.9915 0.1272 -0.0279
vn -0.0008 1.0000 -0.0080
vn -0.0002 1.0000 -0.0031
vn -0.9963 0.0859 0.0037
vn -0.9939 0.0794 0.0761
vn -0.9663 -0.2229 0.1285
vn -0.9805 -0.0831 0.1779
vn -0.9801 0.0889 0.1776
vn -0.9859 0.1028 0.1318
vn -0.9994 -0.0346 -0.0007
vn -0.6116 -0.7879 -0.0713
vn -0.9928 -0.0697 -0.0975
vn -0.9786 -0.1689 -0.1177
vn 0.9932 0.0790 0.0851
vn 0.9846 0.0999 0.1433
vn 0.9796 -0.0754 0.1865
vn 0.9940 0.1084 -0.0125
vn 0.9870 0.1515 -0.0528
vn 0.9501 -0.3021 -0.0776
vn -0.7598 0.2026 0.6178
vn -0.0449 0.9989 0.0126
vn -0.0117 0.9999 0.0017
vn -0.9402 -0.1373 0.3116
vn -0.8794 0.1301 0.4579
vn -0.9267 -0.1912 0.3234
vn -0.8792 0.1333 0.4574
vn -0.8962 0.1386 0.4214
vn -0.8169 -0.5731 0.0648
vn -0.0114 -0.9999 0.0018
vn -0.1921 -0.9792 0.0653
vn -0.5974 -0.8017 0.0182
vn -0.7874 -0.6149 0.0442
vn 0.2863 0.2324 0.9295
vn 0.0060 0.0990 0.9951
vn 0.1084 0.3021 0.9471
vn -0.0786 0.2005 0.9765
vn 0.3284 -0.9430 0.0547
vn 0.0086 -1.0000 0.0024
vn 0.1373 -0.9867 0.0868
vn 0.8963 -0.1712 0.4090
vn 0.9408 0.1068 0.3216
vn 0.9578 0.0971 0.2707
vn 0.9759 -0.0595 0.2098
vn 0.5669 -0.7928 0.2239
vn 0.5812 -0.7874 0.2056
vn -0.1406 -0.6587 0.7392
vn 0.0161 -0.0487 0.9987
vn 0.3532 -0.3001 0.8861
vn 0.0303 -0.9823 0.1851
vn 0.3356 -0.8058 0.4880
vn 0.0228 0.9997 0.0079
vn 0.0102 0.9999 0.0007
vn 0.5640 0.8246 0.0433
vn 0.9836 0.1040 0.1472
vn 0.9634 0.1069 0.2459
vn -0.5171 0.1974 0.8329
vn -0.0032 0.7183 0.6957
vn -0.2934 0.2320 0.9274
vn -0.0007 1.0000 -0.0027
vn -0.0503 0.9979 0.0399
vn -0.0101 0.9999 0.0013
vn -0.0922 0.9954 0.0260
vn -0.9654 0.1176 0.2327
vn -0.9438 0.1069 0.3129
vn -0.9357 0.1195 0.3319
vn 0.4379 -0.8970 0.0604
vn 0.4724 -0.8814 -0.0006
vn 0.9842 -0.1702 0.0489
vn 0.9283 -0.3501 0.1256
vn 0.9812 -0.1896 0.0347
usemtl Shape.11089
s off
f 39//1 49//1 60//1
f 4//2 7//2 12//2
f 6//3 11//3 13//3
f 7//4 4//4 19//4
f 4//5 15//5 19//5
f 15//6 7//6 19//6
f 12//7 7//7 22//7
f 3//8 21//8 22//8
f 10//9 13//9 29//9
f 13//10 11//10 29//10
f 4//11 12//11 30//11
f 13//12 10//12 30//12
f 6//13 13//13 30//13
f 15//14 4//14 31//14
f 20//15 15//15 31//15
f 4//16 30//16 31//16
f 8//17 23//17 36//17
f 28//18 8//18 36//18
f 6//19 30//19 37//19
f 30//20 12//20 37//20
f 14//21 29//21 38//21
f 27//22 6//22 39//22
f 37//23 21//23 39//23
f 6//24 37//24 39//24
f 11//25 6//25 40//25
f 6//26 27//26 40//26
f 9//27 36//27 40//27
f 12//28 22//28 41//28
f 22//29 21//29 41//29
f 37//30 12//30 41//30
f 21//31 37//31 41//31
f 16//32 1//32 42//32
f 11//33 24//33 42//33
f 24//34 16//34 42//34
f 29//35 11//35 42//35
f 1//36 38//36 42//36
f 38//37 29//37 42//37
f 17//38 8//38 43//38
f 8//39 28//39 43//39
f 32//40 17//40 43//40
f 32//41 43//41 44//41
f 9//42 32//42 44//42
f 36//43 9//43 44//43
f 28//44 36//44 44//44
f 43//45 28//45 44//45
f 7//46 15//46 45//46
f 15//47 20//47 45//47
f 22//48 7//48 45//48
f 8//49 22//49 45//49
f 20//50 25//50 45//50
f 45//51 25//51 46//51
f 25//52 14//52 46//52
f 14//53 34//53 46//53
f 34//54 5//54 46//54
f 5//55 45//55 46//55
f 25//56 20//56 47//56
f 30//57 10//57 47//57
f 20//58 31//58 47//58
f 31//59 30//59 47//59
f 2//60 3//60 48//60
f 3//61 35//61 48//61
f 35//62 18//62 48//62
f 3//63 2//63 49//63
f 21//64 3//64 49//64
f 39//65 21//65 49//65
f 1//66 16//66 50//66
f 5//67 26//67 50//67
f 45//68 5//68 50//68
f 34//69 14//69 51//69
f 38//70 1//70 51//70
f 14//71 38//71 51//71
f 1//72 50//72 51//72
f 50//73 26//73 51//73
f 14//74 25//74 52//74
f 10//75 29//75 52//75
f 29//76 14//76 52//76
f 47//77 10//77 52//77
f 25//78 47//78 52//78
f 23//79 8//79 53//79
f 24//80 23//80 53//80
f 8//81 33//81 53//81
f 33//82 24//82 53//82
f 27//83 18//83 54//83
f 40//84 27//84 54//84
f 9//85 40//85 54//85
f 32//86 9//86 55//86
f 17//87 32//87 55//87
f 35//88 17//88 55//88
f 18//89 35//89 55//89
f 9//90 54//90 55//90
f 54//91 18//91 55//91
f 24//92 11//92 56//92
f 23//93 24//93 56//93
f 36//94 23//94 56//94
f 11//95 40//95 56//95
f 40//96 36//96 56//96
f 8//97 17//97 57//97
f 22//98 8//98 57//98
f 3//99 22//99 57//99
f 35//100 3//100 57//100
f 17//101 35//101 57//101
f 16//102 24//102 58//102
f 33//103 8//103 58//103
f 24//104 33//104 58//104
f 8//105 45//105 58//105
f 50//106 16//106 58//106
f 45//107 50//107 58//107
f 26//108 5//108 59//108
f 5//109 34//109 59//109
f 34//110 51//110 59//110
f 51//111 26//111 59//111
f 18//112 27//112 60//112
f 27//113 39//113 60//113
f 2//114 48//114 60//114
f 48//115 18//115 60//115
f 49//116 2//116 60//116
