# Blender v2.79 (sub 0) OBJ File: ''
# www.blender.org
mtllib 102677_link_4_63.mtl
o Shape_IndexedFaceSet.063_Shape_IndexedFaceSet.11141
v 0.416000 0.464976 -0.433423
v -0.327752 0.437548 -0.563873
v -0.361987 0.435349 -0.535586
v -0.361873 0.487684 -0.535566
v 0.372241 0.485111 -0.562295
v 0.366499 0.486781 -0.359931
v 0.393513 0.437392 -0.557615
v 0.361502 0.436653 -0.361559
v -0.326168 0.485390 -0.563452
v 0.424372 0.485859 -0.523668
v 0.416271 0.437255 -0.447274
v 0.397655 0.485936 -0.363431
v 0.371354 0.437993 -0.562030
v 0.417489 0.437175 -0.530632
v 0.391641 0.437035 -0.363144
vn 0.0127 -0.9999 0.0011
vn -0.6370 0.0017 -0.7708
vn -0.2344 0.0001 0.9721
vn 0.0005 -0.9970 -0.0770
vn -0.2338 -0.0083 0.9722
vn -0.6142 0.0273 -0.7887
vn 0.0005 0.9967 -0.0813
vn 0.0017 0.0087 -1.0000
vn 0.0027 0.9997 -0.0230
vn 0.0024 1.0000 -0.0048
vn 0.5836 0.1826 -0.7912
vn 0.9959 -0.0326 0.0848
vn 0.9409 0.3001 0.1567
vn 0.0276 0.9996 0.0041
vn 0.0026 -0.0057 -1.0000
vn 0.0010 -0.9902 -0.1398
vn 0.1952 -0.0092 -0.9807
vn 0.0024 -0.9999 -0.0102
vn 0.0024 -1.0000 -0.0023
vn 0.7474 -0.0107 -0.6642
vn 0.9898 -0.1420 0.0146
vn 0.0129 -0.9999 0.0011
vn 0.0530 -0.0377 0.9979
vn 0.9517 -0.1297 0.2783
vn 0.1114 -0.0079 0.9937
vn 0.9518 -0.1154 0.2840
usemtl Shape.11149
s off
f 8//1 14//1 15//1
f 2//2 3//2 4//2
f 4//3 3//3 6//3
f 3//4 2//4 7//4
f 6//5 3//5 8//5
f 2//6 4//6 9//6
f 4//7 5//7 9//7
f 5//8 2//8 9//8
f 5//9 4//9 10//9
f 4//10 6//10 10//10
f 7//11 5//11 10//11
f 10//12 1//12 11//12
f 1//13 10//13 12//13
f 10//14 6//14 12//14
f 2//15 5//15 13//15
f 7//16 2//16 13//16
f 5//17 7//17 13//17
f 3//18 7//18 14//18
f 8//19 3//19 14//19
f 7//20 10//20 14//20
f 10//21 11//21 14//21
f 14//22 11//22 15//22
f 6//23 8//23 15//23
f 11//24 1//24 15//24
f 12//25 6//25 15//25
f 1//26 12//26 15//26
