# Blender v2.79 (sub 0) OBJ File: ''
# www.blender.org
mtllib 102677_link_4_37.mtl
o Shape_IndexedFaceSet.037_Shape_IndexedFaceSet.11115
v 0.248189 0.230543 -0.216991
v -0.336527 0.216770 -0.561223
v -0.366093 0.216729 -0.548434
v -0.337465 0.230496 -0.561716
v 0.349675 0.216748 -0.554848
v -0.239818 0.216793 -0.212332
v 0.352295 0.230549 -0.556094
v -0.291175 0.230539 -0.258578
v 0.260387 0.216747 -0.231789
v 0.375130 0.230586 -0.445603
v -0.362097 0.230574 -0.383014
v -0.241314 0.230497 -0.211225
v -0.351850 0.216739 -0.369301
v 0.357690 0.216727 -0.396777
v 0.230972 0.216802 -0.212572
v 0.328202 0.216766 -0.561326
v 0.317464 0.230544 -0.306927
v -0.381316 0.223623 -0.528277
vn -0.8561 -0.4982 0.1371
vn -0.3962 -0.0600 -0.9162
vn 0.9595 -0.2001 -0.1982
vn -0.0001 1.0000 -0.0004
vn -0.0000 1.0000 0.0003
vn -0.0000 1.0000 -0.0003
vn -0.0000 1.0000 0.0002
vn -0.6826 -0.1326 0.7187
vn -0.0001 1.0000 0.0010
vn -0.5515 -0.7354 0.3939
vn -0.0001 -1.0000 0.0004
vn -0.8589 -0.1510 0.4895
vn 0.0000 -1.0000 -0.0001
vn 0.5708 -0.8206 -0.0291
vn -0.0000 -1.0000 0.0001
vn 0.0000 -1.0000 0.0029
vn 0.5046 -0.3835 0.7735
vn 0.0112 0.2933 0.9559
vn 0.0005 -0.0805 0.9968
vn -0.0000 -1.0000 -0.0032
vn -0.0002 -0.0359 -0.9994
vn 0.0000 -1.0000 -0.0028
vn 0.0076 0.3432 -0.9392
vn 0.2859 -0.1399 -0.9480
vn 0.7914 0.0459 0.6096
vn 0.0008 1.0000 0.0006
vn 0.6738 -0.6229 0.3975
vn 0.9069 0.1876 0.3772
vn -0.5549 0.5636 -0.6119
vn -0.1728 0.9847 -0.0243
vn -0.3789 -0.9249 0.0302
usemtl Shape.11123
s off
f 13//1 11//1 18//1
f 2//2 3//2 4//2
f 5//3 7//3 10//3
f 7//4 4//4 11//4
f 8//5 1//5 11//5
f 10//6 7//6 11//6
f 1//7 10//7 11//7
f 8//8 6//8 12//8
f 1//9 8//9 12//9
f 6//10 8//10 13//10
f 9//11 6//11 13//11
f 8//12 11//12 13//12
f 3//13 5//13 14//13
f 5//14 10//14 14//14
f 13//15 3//15 14//15
f 9//15 13//15 14//15
f 6//16 9//16 15//16
f 9//17 1//17 15//17
f 1//18 12//18 15//18
f 12//19 6//19 15//19
f 3//20 2//20 16//20
f 2//21 4//21 16//21
f 5//22 3//22 16//22
f 4//23 7//23 16//23
f 7//24 5//24 16//24
f 1//25 9//25 17//25
f 10//26 1//26 17//26
f 9//27 14//27 17//27
f 14//28 10//28 17//28
f 4//29 3//29 18//29
f 11//30 4//30 18//30
f 3//31 13//31 18//31
