# Blender v2.79 (sub 0) OBJ File: ''
# www.blender.org
mtllib 102677_link_3_40.mtl
o Shape_IndexedFaceSet.040_Shape_IndexedFaceSet.13112
v 0.001688 0.164256 0.705981
v -0.118536 0.168791 0.676498
v -0.118536 0.168791 0.687841
v -0.084503 0.182399 0.708253
v -0.005126 0.171055 0.676498
v 0.001688 0.157449 0.676498
v -0.118536 0.180128 0.676498
v -0.118536 0.171055 0.708253
v 0.001688 0.177859 0.708253
v -0.034629 0.157449 0.678767
v -0.118536 0.182399 0.708253
v -0.116265 0.182399 0.683306
v 0.001688 0.177859 0.701442
v -0.055023 0.166522 0.708253
v 0.001688 0.173324 0.683306
v -0.102649 0.180128 0.676498
vn 0.0853 0.9165 -0.3908
vn 0.0000 0.0000 -1.0000
vn -1.0000 0.0000 0.0000
vn 1.0000 0.0000 0.0000
vn 0.0000 0.0000 1.0000
vn -0.1340 -0.9910 0.0000
vn -0.0520 -0.5514 -0.8326
vn 0.0141 -0.9743 0.2249
vn -0.1215 -0.9865 0.1094
vn 0.0000 1.0000 0.0000
vn -0.6168 0.7851 -0.0561
vn 0.0526 0.9986 0.0000
vn 0.0477 0.9970 -0.0608
vn 0.0329 -0.1647 0.9858
vn -0.0273 -0.9606 0.2767
vn -0.0689 -0.9659 0.2495
vn 0.6184 0.3097 -0.7222
vn 0.0788 0.9671 -0.2418
vn 0.0000 0.9486 -0.3164
vn 0.0672 0.9791 -0.1921
usemtl Shape.13120
s off
f 15//1 5//1 16//1
f 2//2 5//2 6//2
f 2//3 3//3 7//3
f 5//2 2//2 7//2
f 7//3 3//3 8//3
f 1//4 6//4 9//4
f 4//5 8//5 9//5
f 3//6 2//6 10//6
f 2//7 6//7 10//7
f 6//8 1//8 10//8
f 8//9 3//9 10//9
f 8//5 4//5 11//5
f 7//3 8//3 11//3
f 11//10 4//10 12//10
f 7//11 11//11 12//11
f 9//4 6//4 13//4
f 4//12 9//12 13//12
f 12//13 4//13 13//13
f 1//14 9//14 14//14
f 9//5 8//5 14//5
f 10//15 1//15 14//15
f 8//16 10//16 14//16
f 6//17 5//17 15//17
f 13//4 6//4 15//4
f 13//18 15//18 16//18
f 5//2 7//2 16//2
f 7//19 12//19 16//19
f 12//20 13//20 16//20
