# Blender v2.79 (sub 0) OBJ File: ''
# www.blender.org
mtllib 102677_link_4_65.mtl
o Shape_IndexedFaceSet.065_Shape_IndexedFaceSet.11143
v 0.311723 0.457978 -0.212513
v 0.354346 0.436665 -0.361611
v 0.354346 0.465063 -0.361611
v 0.201292 0.487396 -0.224667
v 0.205083 0.436627 -0.226632
v 0.396969 0.486375 -0.340276
v 0.382761 0.436665 -0.318990
v 0.278803 0.483839 -0.199888
v 0.290477 0.436665 -0.198300
v 0.213432 0.438792 -0.198483
v 0.361459 0.486375 -0.361611
v 0.375648 0.486375 -0.297688
v 0.396969 0.436665 -0.354488
v 0.211470 0.484757 -0.196740
vn -0.9398 -0.0529 0.3375
vn -0.6668 0.0000 -0.7452
vn -0.6706 -0.0214 -0.7415
vn 0.7409 -0.3608 0.5665
vn 0.0004 -1.0000 0.0003
vn 0.4490 0.1408 0.8824
vn -0.9537 -0.0824 0.2892
vn -0.0277 -0.9960 0.0848
vn -0.0000 0.0000 -1.0000
vn -0.6343 0.2117 -0.7435
vn 0.0026 1.0000 -0.0044
vn 0.0074 1.0000 0.0037
vn 0.8132 -0.1270 0.5680
vn 0.8924 -0.0638 0.4468
vn 0.6168 0.4809 0.6232
vn 0.0285 0.9981 0.0541
vn 0.0000 -1.0000 -0.0002
vn 0.0003 -1.0000 0.0001
vn 0.9232 -0.1056 0.3695
vn 0.1648 -0.0236 -0.9860
vn 0.5002 0.2380 -0.8325
vn 0.0177 0.9960 0.0877
vn 0.0473 0.0453 0.9979
vn -0.0034 -0.0380 0.9993
usemtl Shape.11151
s off
f 4//1 10//1 14//1
f 3//2 2//2 4//2
f 4//3 2//3 5//3
f 7//4 1//4 9//4
f 5//5 7//5 9//5
f 1//6 8//6 9//6
f 4//7 5//7 10//7
f 5//8 9//8 10//8
f 2//9 3//9 11//9
f 3//10 4//10 11//10
f 4//11 6//11 11//11
f 6//12 4//12 12//12
f 1//13 7//13 12//13
f 7//14 6//14 12//14
f 8//15 1//15 12//15
f 4//16 8//16 12//16
f 5//17 2//17 13//17
f 7//18 5//18 13//18
f 6//19 7//19 13//19
f 2//20 11//20 13//20
f 11//21 6//21 13//21
f 8//22 4//22 14//22
f 9//23 8//23 14//23
f 10//24 9//24 14//24
