# Blender v2.79 (sub 0) OBJ File: ''
# www.blender.org
mtllib 102677_link_3_44.mtl
o Shape_IndexedFaceSet.044_Shape_IndexedFaceSet.13116
v 0.174086 0.146109 0.161571
v 0.239869 0.173321 0.293125
v 0.239869 0.159715 0.293125
v 0.239869 0.175594 0.161571
v 0.239869 0.161981 0.168396
v 0.210377 0.143836 0.293125
v 0.192238 0.146109 0.293125
v 0.194505 0.143836 0.161571
v 0.189971 0.157449 0.170662
v 0.208111 0.159715 0.293125
v 0.219450 0.171055 0.166130
v 0.210377 0.143836 0.238680
v 0.174086 0.143836 0.170662
v 0.230790 0.171055 0.293125
v 0.180892 0.152913 0.161571
v 0.239869 0.159715 0.202418
v 0.192238 0.143836 0.293125
v 0.235323 0.175594 0.179741
v 0.237589 0.161981 0.161571
v 0.201317 0.143836 0.182007
vn 0.0000 -1.0000 -0.0000
vn 1.0000 0.0000 0.0000
vn 0.0000 0.0000 1.0000
vn 0.0000 0.0000 -1.0000
vn 0.4741 -0.8805 0.0000
vn -0.8692 0.4797 0.1199
vn -0.1074 -0.9645 -0.2412
vn -0.4467 0.8933 0.0496
vn -0.4141 0.9095 0.0370
vn -0.7037 0.7039 0.0971
vn -0.6479 0.7558 0.0950
vn -0.4910 0.8693 0.0567
vn -0.4227 0.9058 -0.0298
vn -0.2970 0.7724 -0.5614
vn 0.4145 -0.9080 -0.0605
vn -0.9892 0.0000 0.1466
vn 0.0689 0.9975 0.0172
vn -0.2288 0.9718 -0.0572
vn -0.2421 0.9698 0.0291
vn -0.2957 0.9549 0.0264
vn 0.9367 -0.1569 -0.3129
vn 0.3849 -0.9140 -0.1286
vn 0.3849 -0.9140 -0.1283
vn 0.4061 -0.9115 -0.0649
usemtl Shape.13124
s off
f 12//1 8//1 20//1
f 2//2 3//2 4//2
f 4//2 3//2 5//2
f 3//3 2//3 6//3
f 6//3 2//3 7//3
f 1//4 4//4 8//4
f 7//3 2//3 10//3
f 3//5 6//5 12//5
f 6//1 8//1 12//1
f 7//6 1//6 13//6
f 1//7 8//7 13//7
f 8//1 6//1 13//1
f 10//3 2//3 14//3
f 9//8 10//8 14//8
f 11//9 9//9 14//9
f 4//4 1//4 15//4
f 1//10 7//10 15//10
f 7//11 10//11 15//11
f 10//12 9//12 15//12
f 9//13 11//13 15//13
f 11//14 4//14 15//14
f 5//2 3//2 16//2
f 3//5 12//5 16//5
f 12//15 5//15 16//15
f 6//3 7//3 17//3
f 7//16 13//16 17//16
f 13//1 6//1 17//1
f 2//17 4//17 18//17
f 4//18 11//18 18//18
f 14//19 2//19 18//19
f 11//20 14//20 18//20
f 4//21 5//21 19//21
f 8//4 4//4 19//4
f 5//22 8//22 19//22
f 8//23 5//23 20//23
f 5//24 12//24 20//24
