# Blender v2.79 (sub 0) OBJ File: ''
# www.blender.org
mtllib 102677_link_3_85.mtl
o Shape_IndexedFaceSet.085_Shape_IndexedFaceSet.13157
v 0.273900 0.173324 0.064055
v 0.301111 0.182399 0.191060
v 0.301111 0.166522 0.191060
v 0.260288 0.166522 0.191060
v 0.280698 0.157449 0.068581
v 0.260288 0.182399 0.064055
v 0.262558 0.180128 0.188772
v 0.262558 0.159718 0.064055
v 0.301111 0.157449 0.170632
v 0.301111 0.180128 0.152480
v 0.289770 0.159718 0.088996
v 0.264828 0.157449 0.068581
v 0.298352 0.159136 0.123638
v 0.278436 0.182399 0.191060
v 0.282964 0.180128 0.095810
v 0.260288 0.164256 0.064055
v 0.260288 0.177859 0.191060
v 0.287500 0.175590 0.098072
vn 0.7437 0.6247 -0.2381
vn 0.0000 0.0000 1.0000
vn 0.2168 -0.1807 -0.9594
vn -0.0000 0.0000 -1.0000
vn 1.0000 0.0000 0.0000
vn 0.0000 -0.9139 0.4059
vn 0.8728 0.2551 -0.4162
vn 0.0000 -0.8940 -0.4482
vn -0.7299 -0.6832 0.0236
vn -0.1850 -0.9805 0.0658
vn 0.0000 -1.0000 0.0000
vn 0.2459 -0.9680 -0.0492
vn 0.9970 -0.0482 -0.0603
vn 0.9529 0.1946 -0.2328
vn 0.5394 -0.8290 -0.1476
vn 0.0000 1.0000 0.0000
vn -0.1445 0.9893 0.0206
vn 0.1789 0.9822 -0.0575
vn 0.5257 0.7886 -0.3190
vn 0.1805 0.9819 -0.0578
vn -1.0000 0.0000 0.0000
vn -0.8943 -0.4474 0.0080
vn -0.6936 0.7199 0.0257
vn -0.1968 0.7868 0.5850
vn 0.9261 0.2782 -0.2549
vn 0.8670 0.3350 -0.3689
vn 0.7446 0.5767 -0.3361
usemtl Shape.13165
s off
f 15//1 10//1 18//1
f 3//2 2//2 4//2
f 1//3 5//3 8//3
f 6//4 1//4 8//4
f 2//5 3//5 9//5
f 3//6 4//6 9//6
f 2//5 9//5 10//5
f 5//7 1//7 11//7
f 8//8 5//8 12//8
f 4//9 8//9 12//9
f 9//10 4//10 12//10
f 5//11 9//11 12//11
f 9//12 5//12 13//12
f 10//13 9//13 13//13
f 11//14 10//14 13//14
f 5//15 11//15 13//15
f 4//2 2//2 14//2
f 2//16 6//16 14//16
f 6//17 7//17 14//17
f 6//18 2//18 15//18
f 1//19 6//19 15//19
f 2//20 10//20 15//20
f 4//21 6//21 16//21
f 8//22 4//22 16//22
f 6//4 8//4 16//4
f 6//21 4//21 17//21
f 7//23 6//23 17//23
f 4//2 14//2 17//2
f 14//24 7//24 17//24
f 10//25 11//25 18//25
f 11//26 1//26 18//26
f 1//27 15//27 18//27
