# Blender v2.79 (sub 0) OBJ File: ''
# www.blender.org
mtllib 102677_link_4_7.mtl
o Shape_IndexedFaceSet.007_Shape_IndexedFaceSet.11085
v 0.212453 0.145065 -0.217591
v -0.321518 0.138130 -0.553258
v -0.326237 0.145158 -0.555898
v 0.322033 0.145045 -0.554437
v 0.325926 0.117102 -0.425479
v -0.196635 0.117311 -0.193894
v -0.313104 0.117102 -0.539124
v -0.219220 0.144958 -0.218857
v 0.202411 0.117289 -0.193609
v 0.297492 0.117102 -0.539124
v -0.346200 0.145123 -0.417241
v 0.324440 0.145147 -0.375814
v -0.320195 0.117102 -0.389947
v 0.345889 0.145172 -0.535266
v -0.350656 0.138164 -0.526714
v -0.317015 0.145053 -0.348347
v 0.302085 0.131305 -0.550878
v -0.256306 0.117102 -0.269362
v 0.333017 0.117102 -0.517834
v -0.175394 0.137766 -0.207819
vn -0.0006 0.5631 0.8264
vn 0.0000 -1.0000 0.0000
vn -0.0003 1.0000 0.0010
vn 0.7998 0.1997 0.5662
vn 0.6935 -0.6183 0.3699
vn -0.0001 1.0000 0.0005
vn -0.0001 1.0000 0.0002
vn 0.0002 1.0000 -0.0069
vn -0.0000 1.0000 0.0002
vn 0.9748 -0.1805 0.1311
vn -0.5443 -0.5896 -0.5967
vn -0.5349 -0.6082 -0.5864
vn -0.3263 0.9441 -0.0467
vn -0.4950 -0.8686 -0.0235
vn -0.7650 -0.6400 0.0718
vn -0.0009 1.0000 0.0014
vn -0.8318 -0.4292 0.3519
vn -0.0003 -0.3518 -0.9361
vn 0.0021 -0.2537 -0.9673
vn -0.0029 -0.5587 -0.8294
vn 0.3370 -0.6626 -0.6689
vn 0.0000 -0.6376 -0.7704
vn -0.7818 -0.0803 0.6184
vn 0.0003 -1.0000 0.0009
vn -0.0001 -1.0000 0.0028
vn -0.7976 -0.0302 0.6024
vn -0.7590 -0.5121 0.4021
vn 0.3780 -0.6777 -0.6308
vn 0.4980 -0.6107 -0.6157
vn 0.9226 -0.3791 0.0708
vn -0.0018 0.8345 0.5510
vn -0.0929 0.6244 0.7756
vn 0.0068 0.6521 0.7581
usemtl Shape.11093
s off
f 6//1 9//1 20//1
f 5//2 7//2 10//2
f 8//3 1//3 11//3
f 1//4 9//4 12//4
f 9//5 5//5 12//5
f 11//6 1//6 12//6
f 3//7 11//7 12//7
f 7//2 5//2 13//2
f 4//8 3//8 14//8
f 3//9 12//9 14//9
f 12//10 5//10 14//10
f 3//11 2//11 15//11
f 2//12 7//12 15//12
f 11//13 3//13 15//13
f 7//14 13//14 15//14
f 13//15 11//15 15//15
f 8//16 11//16 16//16
f 11//17 13//17 16//17
f 2//18 3//18 17//18
f 3//19 4//19 17//19
f 7//20 2//20 17//20
f 4//21 10//21 17//21
f 10//22 7//22 17//22
f 6//23 8//23 18//23
f 5//24 9//24 18//24
f 9//25 6//25 18//25
f 13//2 5//2 18//2
f 8//26 16//26 18//26
f 16//27 13//27 18//27
f 10//28 4//28 19//28
f 5//2 10//2 19//2
f 4//29 14//29 19//29
f 14//30 5//30 19//30
f 1//31 8//31 20//31
f 8//32 6//32 20//32
f 9//33 1//33 20//33
