# Blender v2.79 (sub 0) OBJ File: ''
# www.blender.org
mtllib 102677_link_4_58.mtl
o Shape_IndexedFaceSet.058_Shape_IndexedFaceSet.11136
v -0.419809 0.436588 -0.440294
v -0.374609 0.429769 -0.561581
v 0.212656 0.429713 -0.563204
v -0.366546 0.429513 -0.360142
v 0.242323 0.436834 -0.535240
v -0.419661 0.436586 -0.537467
v -0.367428 0.436727 -0.359792
v 0.242696 0.429390 -0.535316
v -0.425942 0.429649 -0.516543
vn -0.0005 -1.0000 -0.0032
vn 0.0005 0.9690 -0.2472
vn -0.0007 0.9620 -0.2732
vn -0.0026 1.0000 -0.0000
vn -0.8312 -0.1279 0.5411
vn -0.0004 1.0000 -0.0007
vn 0.2765 0.0040 0.9610
vn -0.0001 -0.9999 -0.0114
vn 0.6800 0.0415 -0.7320
vn 0.2763 -0.0128 0.9610
vn -0.0004 -1.0000 -0.0007
vn -0.2916 -0.9502 0.1099
vn -0.3365 -0.8590 -0.3858
vn -0.7430 0.6693 -0.0011
usemtl Shape.11144
s off
f 2//1 8//1 9//1
f 5//2 3//2 6//2
f 3//3 2//3 6//3
f 6//4 1//4 7//4
f 1//5 4//5 7//5
f 5//6 6//6 7//6
f 5//7 7//7 8//7
f 2//8 3//8 8//8
f 3//9 5//9 8//9
f 7//10 4//10 8//10
f 8//11 4//11 9//11
f 4//12 1//12 9//12
f 6//13 2//13 9//13
f 1//14 6//14 9//14
