# Blender v2.79 (sub 0) OBJ File: ''
# www.blender.org
mtllib 102677_link_4_30.mtl
o Shape_IndexedFaceSet.030_Shape_IndexedFaceSet.11108
v -0.276287 0.159711 -0.269638
v -0.319811 0.159711 -0.560145
v -0.320366 0.166543 -0.560690
v 0.077537 0.166594 -0.561998
v 0.075221 0.152899 -0.560152
v 0.083439 0.166779 -0.213359
v -0.203701 0.152929 -0.213575
v 0.080882 0.152723 -0.215316
v -0.360775 0.152897 -0.519300
v -0.237804 0.166503 -0.220101
v -0.354127 0.166530 -0.417121
v -0.337545 0.152993 -0.383130
v -0.335204 0.152836 -0.554837
v -0.363500 0.166609 -0.527846
vn -0.5774 0.3010 -0.7589
vn -0.0033 -0.0798 -0.9968
vn -0.0023 -0.1332 -0.9911
vn 0.9855 -0.1689 -0.0166
vn 0.9841 -0.1768 -0.0162
vn 0.0060 -0.1390 0.9903
vn -0.0196 0.3927 0.9194
vn -0.4038 -0.8103 0.4248
vn -0.5595 0.7601 0.3305
vn -0.2283 -0.9568 0.1799
vn -0.0017 -1.0000 0.0010
vn -0.8781 0.0997 0.4680
vn -0.7758 -0.6169 0.1328
vn -0.2845 -0.0992 -0.9535
vn -0.0103 -0.5965 -0.8025
vn 0.0001 -1.0000 -0.0005
vn -0.0007 -1.0000 0.0006
vn -0.0013 -1.0000 0.0008
vn -0.7190 -0.4649 -0.5166
vn -0.0001 1.0000 -0.0022
vn -0.0000 1.0000 -0.0005
vn -0.0009 1.0000 0.0007
vn -0.9861 -0.1440 0.0834
vn -0.0011 1.0000 0.0008
usemtl Shape.11116
s off
f 3//1 13//1 14//1
f 2//2 3//2 4//2
f 2//3 4//3 5//3
f 5//4 4//4 6//4
f 5//5 6//5 8//5
f 6//6 7//6 8//6
f 7//7 6//7 10//7
f 1//8 7//8 10//8
f 1//9 10//9 11//9
f 7//10 1//10 12//10
f 9//11 7//11 12//11
f 1//12 11//12 12//12
f 11//13 9//13 12//13
f 3//14 2//14 13//14
f 2//15 5//15 13//15
f 5//16 8//16 13//16
f 8//17 7//17 13//17
f 7//18 9//18 13//18
f 13//19 9//19 14//19
f 4//20 3//20 14//20
f 6//21 4//21 14//21
f 10//22 6//22 14//22
f 9//23 11//23 14//23
f 11//24 10//24 14//24
