# Blender v2.79 (sub 0) OBJ File: ''
# www.blender.org
mtllib 102677_link_4_25.mtl
o Shape_IndexedFaceSet.025_Shape_IndexedFaceSet.11103
v 0.376862 0.578423 -0.562311
v 0.425355 0.692304 -0.475234
v 0.432775 0.676675 -0.476660
v -0.000709 0.585807 -0.510753
v -0.000709 0.671000 -0.567534
v 0.406959 0.568190 -0.472632
v 0.411090 0.685202 -0.560441
v -0.000709 0.685202 -0.517855
v 0.019944 0.577254 -0.563204
v 0.431002 0.573943 -0.524792
v -0.000709 0.678101 -0.510753
v -0.000709 0.571592 -0.532032
v 0.389843 0.678101 -0.567534
v -0.000709 0.685202 -0.553339
v 0.390695 0.672915 -0.472970
v 0.418201 0.692304 -0.539134
v 0.414518 0.574768 -0.551657
v 0.433623 0.573225 -0.476482
v 0.396089 0.582019 -0.471445
vn -0.0959 0.0110 0.9953
vn -1.0000 -0.0000 -0.0000
vn -0.0822 0.7048 0.7047
vn -0.0875 -0.8283 0.5534
vn -0.7991 -0.2022 -0.5662
vn 0.0027 -0.0527 -0.9986
vn 0.0008 -0.0460 -0.9989
vn -0.0119 0.7242 -0.6895
vn -0.0129 0.7069 -0.7072
vn -0.0889 0.2709 0.9585
vn 0.8952 0.4342 -0.1002
vn -0.0169 0.9999 0.0019
vn 0.9750 0.0803 -0.2073
vn 0.9405 0.0612 -0.3343
vn -0.0054 0.9492 -0.3146
vn -0.0170 0.9999 0.0000
vn 0.0039 -0.9415 -0.3369
vn 0.0737 -0.9944 -0.0757
vn 0.8520 -0.0152 -0.5233
vn 0.0037 -0.9966 -0.0826
vn -0.0010 -0.9838 -0.1793
vn 0.2636 -0.0847 -0.9609
vn 0.3353 -0.0644 -0.9399
vn 0.1954 0.0033 0.9807
vn 0.1430 -0.0004 0.9897
vn 0.1821 -0.9830 -0.0245
vn 0.9985 0.0081 -0.0541
vn 0.1136 0.0040 0.9935
vn -0.0988 -0.1619 0.9818
vn -0.0986 0.0000 0.9951
vn 0.0540 0.0200 0.9983
usemtl Shape.11111
s off
f 15//1 11//1 19//1
f 5//2 4//2 8//2
f 2//3 8//3 11//3
f 8//2 4//2 11//2
f 4//2 5//2 12//2
f 6//4 4//4 12//4
f 5//5 9//5 12//5
f 1//6 9//6 13//6
f 9//7 5//7 13//7
f 5//2 8//2 14//2
f 7//8 13//8 14//8
f 13//9 5//9 14//9
f 2//10 11//10 15//10
f 2//11 3//11 16//11
f 8//12 2//12 16//12
f 3//13 10//13 16//13
f 10//14 7//14 16//14
f 7//15 14//15 16//15
f 14//16 8//16 16//16
f 9//17 1//17 17//17
f 10//18 6//18 17//18
f 7//19 10//19 17//19
f 6//20 12//20 17//20
f 12//21 9//21 17//21
f 1//22 13//22 17//22
f 13//23 7//23 17//23
f 3//24 2//24 18//24
f 2//25 6//25 18//25
f 6//26 10//26 18//26
f 10//27 3//27 18//27
f 6//28 2//28 19//28
f 4//29 6//29 19//29
f 11//30 4//30 19//30
f 2//31 15//31 19//31
