# Blender v2.79 (sub 0) OBJ File: ''
# www.blender.org
mtllib 102677_link_3_8.mtl
o Shape_IndexedFaceSet.008_Shape_IndexedFaceSet.13080
v -0.204737 0.139303 -0.017632
v -0.193393 0.143838 0.016387
v -0.193393 0.134767 0.016387
v -0.225151 0.141571 0.032273
v -0.220612 0.159712 -0.008551
v -0.225151 0.134767 -0.010822
v -0.193393 0.159712 0.005054
v -0.193393 0.155176 -0.015360
v -0.225151 0.159712 0.007321
v -0.193393 0.134767 -0.013094
v -0.225151 0.132497 0.018654
v -0.225151 0.150639 -0.013094
v -0.193393 0.132497 0.005054
vn -0.0329 -0.9965 -0.0767
vn 0.4474 0.0000 0.8943
vn 1.0000 0.0000 0.0000
vn 0.3434 0.5457 0.7644
vn 0.1078 0.9705 -0.2156
vn -1.0000 0.0000 0.0000
vn 0.0419 0.8081 0.5875
vn 0.0000 1.0000 -0.0000
vn -0.0462 -0.7619 -0.6460
vn 0.3333 -0.1040 -0.9371
vn 0.0986 -0.8281 0.5518
vn -0.2862 -0.1358 -0.9485
vn -0.1321 0.4958 -0.8583
vn -0.0994 0.2103 -0.9726
vn -0.8176 0.5261 -0.2338
vn -0.0089 -0.9922 -0.1241
vn 0.0838 -0.9771 0.1957
usemtl Shape.13088
s off
f 11//1 6//1 13//1
f 3//2 2//2 4//2
f 2//3 3//3 7//3
f 4//4 2//4 7//4
f 5//5 7//5 8//5
f 7//3 3//3 8//3
f 6//6 4//6 9//6
f 4//7 7//7 9//7
f 7//8 5//8 9//8
f 6//9 1//9 10//9
f 1//10 8//10 10//10
f 8//3 3//3 10//3
f 3//11 4//11 11//11
f 4//6 6//6 11//6
f 1//12 6//12 12//12
f 5//13 8//13 12//13
f 8//14 1//14 12//14
f 6//6 9//6 12//6
f 9//15 5//15 12//15
f 6//16 10//16 13//16
f 10//3 3//3 13//3
f 3//17 11//17 13//17
