# Blender v2.79 (sub 0) OBJ File: ''
# www.blender.org
mtllib 102677_link_4_61.mtl
o Shape_IndexedFaceSet.061_Shape_IndexedFaceSet.11139
v 0.303993 0.436466 -0.222971
v 0.362095 0.429412 -0.365100
v 0.363234 0.436839 -0.365614
v -0.050419 0.436665 -0.233788
v -0.045673 0.429639 -0.200012
v 0.276462 0.429785 -0.203373
v -0.046599 0.436604 -0.199674
v -0.050419 0.429564 -0.233788
vn -0.9938 0.0000 0.1113
vn 0.9176 -0.1144 0.3808
vn 0.0005 -1.0000 0.0026
vn 0.3583 -0.9137 0.1918
vn 0.0238 0.9356 0.3523
vn 0.0006 1.0000 0.0029
vn 0.0001 1.0000 0.0018
vn 0.0104 -0.0471 0.9988
vn -0.9809 -0.1371 0.1381
vn -0.3033 -0.0194 -0.9527
vn -0.3036 0.0000 -0.9528
vn 0.0003 -1.0000 0.0022
usemtl Shape.11147
s off
f 7//1 4//1 8//1
f 1//2 2//2 3//2
f 5//3 2//3 6//3
f 2//4 1//4 6//4
f 6//5 1//5 7//5
f 1//6 3//6 7//6
f 3//7 4//7 7//7
f 5//8 6//8 7//8
f 5//9 7//9 8//9
f 3//10 2//10 8//10
f 4//11 3//11 8//11
f 2//12 5//12 8//12
