# Blender v2.79 (sub 0) OBJ File: ''
# www.blender.org
mtllib 102677_link_2_2.mtl
o Shape_IndexedFaceSet.002_Shape_IndexedFaceSet.9013
v 0.156751 0.212318 -0.048536
v 0.155249 0.231019 -0.019553
v 0.155249 0.198444 -0.019553
v -0.016953 0.221708 -0.045146
v -0.016953 0.198444 -0.024208
v -0.016953 0.231019 -0.019553
v -0.016953 0.196110 -0.040494
v 0.155249 0.228685 -0.045146
v 0.155249 0.196110 -0.042820
v -0.005305 0.231019 -0.040494
v -0.016953 0.203098 -0.019553
v 0.136606 0.196110 -0.021882
v -0.000653 0.205422 -0.045146
v 0.156975 0.202888 -0.047755
v 0.155249 0.231019 -0.040494
v -0.016953 0.196110 -0.028863
v 0.152889 0.224031 -0.047475
v -0.016953 0.228685 -0.042820
v -0.016953 0.198444 -0.042820
vn -0.0203 -0.2731 -0.9618
vn 0.0000 0.0000 1.0000
vn -1.0000 0.0000 0.0000
vn 0.0000 1.0000 0.0000
vn 0.1114 -0.9888 0.0992
vn 0.0000 -1.0000 0.0000
vn -0.0171 -0.6343 0.7729
vn -0.0215 -0.7070 0.7069
vn -0.0206 -0.0206 -0.9996
vn 0.9990 0.0266 0.0346
vn 0.9981 0.0000 0.0611
vn 0.9727 -0.2308 0.0232
vn -0.0178 -0.0829 -0.9964
vn 0.9968 0.0801 0.0000
vn 0.9935 0.1017 -0.0510
vn 0.0000 0.8938 -0.4484
vn -0.0204 -0.8937 0.4481
vn -0.0148 0.0854 -0.9962
vn 0.4290 0.2208 -0.8759
vn -0.0120 0.4524 -0.8918
vn -0.1766 0.9794 -0.0982
vn -0.0093 0.7286 -0.6848
vn -0.0173 0.3162 -0.9485
vn -0.0096 -0.7059 -0.7083
vn -0.0989 -0.0990 -0.9902
vn -0.0080 -0.5873 -0.8094
usemtl Shape.9022
s off
f 13//1 14//1 19//1
f 3//2 2//2 6//2
f 4//3 5//3 6//3
f 5//3 4//3 7//3
f 6//4 2//4 10//4
f 3//2 6//2 11//2
f 6//3 5//3 11//3
f 9//5 3//5 12//5
f 7//6 9//6 12//6
f 3//7 11//7 12//7
f 11//8 5//8 12//8
f 4//9 1//9 13//9
f 1//10 2//10 14//10
f 2//11 3//11 14//11
f 3//12 9//12 14//12
f 13//13 1//13 14//13
f 2//14 1//14 15//14
f 1//15 8//15 15//15
f 10//4 2//4 15//4
f 8//16 10//16 15//16
f 5//3 7//3 16//3
f 12//17 5//17 16//17
f 7//6 12//6 16//6
f 1//18 4//18 17//18
f 8//19 1//19 17//19
f 8//20 17//20 18//20
f 4//3 6//3 18//3
f 6//21 10//21 18//21
f 10//22 8//22 18//22
f 17//23 4//23 18//23
f 7//3 4//3 19//3
f 9//24 7//24 19//24
f 4//25 13//25 19//25
f 14//26 9//26 19//26
