# Blender v2.79 (sub 0) OBJ File: ''
# www.blender.org
mtllib 102677_link_3_15.mtl
o Shape_IndexedFaceSet.015_Shape_IndexedFaceSet.13087
v 0.280700 0.148369 0.064030
v 0.217185 0.141572 0.018663
v 0.258013 0.152906 0.018663
v 0.260283 0.161983 0.061761
v 0.248943 0.132500 0.064030
v 0.255738 0.134766 0.018663
v 0.237602 0.161983 0.018663
v 0.278431 0.134766 0.061761
v 0.276155 0.161983 0.059487
v 0.242141 0.141572 0.064030
v 0.219454 0.134766 0.023206
v 0.239878 0.132500 0.018663
v 0.258013 0.161983 0.023206
v 0.271623 0.139303 0.041346
v 0.219454 0.143840 0.023206
v 0.271623 0.132500 0.064030
vn 0.0000 -1.0000 0.0000
vn 0.0000 0.0000 -1.0000
vn 0.1327 0.3533 0.9260
vn 0.0000 1.0000 -0.0000
vn -0.0230 0.1307 0.9912
vn -0.0000 0.0000 1.0000
vn -0.7026 -0.5268 0.4783
vn -0.2370 -0.5928 -0.7697
vn -0.1056 -0.9942 0.0211
vn 0.1952 0.4390 -0.8770
vn 0.8728 0.2184 -0.4364
vn 0.8243 -0.1034 -0.5566
vn 0.9369 -0.1004 -0.3348
vn 0.7015 -0.6094 -0.3694
vn 0.8934 0.1579 -0.4206
vn 0.8865 0.1678 -0.4313
vn -0.7070 0.7072 0.0000
vn -0.6252 0.7077 0.3290
vn -0.6614 0.6327 0.4027
vn -0.8741 0.0000 0.4858
vn -0.8946 0.0000 0.4468
vn 0.3720 -0.2128 0.9035
vn 0.2697 -0.9524 -0.1420
vn 0.1408 -0.9851 -0.0985
usemtl Shape.13095
s off
f 5//1 12//1 16//1
f 2//2 3//2 6//2
f 3//2 2//2 7//2
f 4//3 1//3 9//3
f 7//4 4//4 9//4
f 1//5 4//5 10//5
f 5//6 1//6 10//6
f 5//7 10//7 11//7
f 11//8 2//8 12//8
f 2//2 6//2 12//2
f 5//9 11//9 12//9
f 3//10 7//10 13//10
f 9//11 3//11 13//11
f 7//4 9//4 13//4
f 6//12 3//12 14//12
f 1//13 8//13 14//13
f 8//14 6//14 14//14
f 9//15 1//15 14//15
f 3//16 9//16 14//16
f 7//17 2//17 15//17
f 4//18 7//18 15//18
f 10//19 4//19 15//19
f 11//20 10//20 15//20
f 2//21 11//21 15//21
f 1//6 5//6 16//6
f 8//22 1//22 16//22
f 6//23 8//23 16//23
f 12//24 6//24 16//24
