# Blender v2.79 (sub 0) OBJ File: ''
# www.blender.org
mtllib 102677_link_3_72.mtl
o Shape_IndexedFaceSet.072_Shape_IndexedFaceSet.13144
v 0.208112 0.180128 0.631128
v 0.271626 0.159718 0.538141
v 0.271626 0.157449 0.538141
v 0.199038 0.166522 0.533587
v 0.203578 0.157449 0.631128
v 0.255746 0.182399 0.533587
v 0.199038 0.180128 0.544930
v 0.223992 0.157449 0.626573
v 0.199038 0.182399 0.631128
v 0.248939 0.175590 0.574423
v 0.258013 0.157449 0.533587
v 0.223992 0.182399 0.533587
v 0.199038 0.164256 0.631128
v 0.258013 0.180128 0.547202
v 0.246672 0.159718 0.590291
v 0.226259 0.171055 0.617512
v 0.269353 0.171055 0.535859
v 0.199038 0.177859 0.533587
v 0.221725 0.180128 0.612968
vn 0.6554 0.5736 0.4913
vn 0.2176 -0.0435 0.9751
vn 0.0000 -1.0000 -0.0000
vn -0.0000 0.0000 1.0000
vn -1.0000 -0.0000 0.0000
vn -0.1515 -0.9848 -0.0846
vn 0.0000 0.0000 -1.0000
vn 0.0000 1.0000 0.0000
vn -0.1024 0.9944 -0.0262
vn -0.8319 -0.5548 -0.0129
vn 0.9020 0.0000 0.4316
vn 0.5589 -0.7726 0.3011
vn 0.8137 0.3487 0.4650
vn 0.6668 0.3330 0.6668
vn 0.8222 0.2142 0.5274
vn 0.7085 0.0000 -0.7057
vn 0.3155 -0.1055 -0.9431
vn 0.1778 0.0162 -0.9839
vn 0.6380 0.7697 0.0222
vn 0.7724 0.5325 0.3462
vn 0.8714 0.2586 0.4169
vn 0.8580 0.2967 0.4193
vn -0.1756 0.9653 -0.1931
vn 0.2389 0.9544 0.1791
vn 0.1830 0.9773 0.1064
vn 0.2245 0.9666 0.1239
vn 0.5753 0.7538 0.3174
vn 0.7031 0.5666 0.4297
usemtl Shape.13152
s off
f 1//1 16//1 19//1
f 1//2 5//2 8//2
f 5//3 3//3 8//3
f 5//4 1//4 9//4
f 7//5 4//5 9//5
f 5//6 4//6 11//6
f 3//3 5//3 11//3
f 4//7 6//7 11//7
f 6//7 4//7 12//7
f 9//8 6//8 12//8
f 7//9 9//9 12//9
f 4//10 5//10 13//10
f 5//4 9//4 13//4
f 9//5 4//5 13//5
f 3//11 2//11 15//11
f 8//12 3//12 15//12
f 15//13 10//13 16//13
f 1//14 8//14 16//14
f 8//15 15//15 16//15
f 2//16 3//16 17//16
f 3//17 11//17 17//17
f 11//18 6//18 17//18
f 6//19 14//19 17//19
f 14//20 10//20 17//20
f 15//21 2//21 17//21
f 10//22 15//22 17//22
f 4//5 7//5 18//5
f 12//7 4//7 18//7
f 7//23 12//23 18//23
f 9//24 1//24 19//24
f 6//25 9//25 19//25
f 14//26 6//26 19//26
f 10//27 14//27 19//27
f 16//28 10//28 19//28
