# Blender v2.79 (sub 0) OBJ File: ''
# www.blender.org
mtllib 102677_link_3_0.mtl
o Shape_IndexedFaceSet_Shape_IndexedFaceSet.13072
v 0.176092 0.166520 -0.062546
v 0.182361 0.191360 -0.019713
v 0.174086 0.134763 -0.017632
v 0.196770 0.139301 -0.019907
v 0.160020 0.148431 -0.058533
v 0.187692 0.191464 -0.053919
v 0.189957 0.146109 -0.060727
v 0.160479 0.196002 -0.049383
v 0.151402 0.143840 -0.017632
v 0.192231 0.186931 -0.019907
v 0.158214 0.191464 -0.017632
v 0.185428 0.198278 -0.042580
v 0.192231 0.189200 -0.044846
v 0.162744 0.191464 -0.056190
v 0.151402 0.161988 -0.019907
v 0.196770 0.143840 -0.017632
v 0.163781 0.143857 -0.054842
v 0.158351 0.168477 -0.056197
v 0.163855 0.152198 -0.062929
v 0.158214 0.196002 -0.028980
v 0.187692 0.164263 -0.062993
v 0.158214 0.137038 -0.019907
v 0.185428 0.134763 -0.019907
vn 0.0233 -0.9639 -0.2653
vn 0.0000 0.0000 1.0000
vn 0.0856 0.1475 0.9854
vn 0.0593 0.8608 -0.5055
vn 0.3938 0.8638 0.3142
vn 0.9865 0.0081 -0.1633
vn 0.7529 0.6196 -0.2220
vn 0.8055 0.5902 0.0537
vn 0.0494 0.8385 -0.5426
vn -0.6562 0.0939 0.7487
vn 0.1765 -0.4410 0.8800
vn 0.0746 0.0604 0.9954
vn 0.9949 0.0453 -0.0904
vn 0.9944 0.1053 0.0096
vn -0.9757 -0.0565 -0.2119
vn -0.8950 0.1712 -0.4119
vn -0.9791 0.1169 -0.1666
vn -0.9811 -0.0241 -0.1922
vn -0.1598 0.1626 -0.9737
vn -0.1011 -0.6921 -0.7147
vn -0.1392 -0.6887 -0.7116
vn -0.7589 0.0127 -0.6511
vn -0.6112 0.1170 -0.7828
vn 0.0360 0.9279 0.3711
vn -0.0882 0.9961 -0.0098
vn 0.0690 0.9523 0.2973
vn -0.9799 0.1672 -0.1088
vn -0.9721 0.2179 0.0871
vn 0.9383 0.0749 -0.3376
vn 0.8991 0.1385 -0.4152
vn 0.0119 0.2529 -0.9674
vn 0.0860 0.3153 -0.9451
vn -0.0285 0.0511 -0.9983
vn 0.0564 -0.1167 -0.9916
vn -0.1914 -0.4783 0.8571
vn -0.7251 -0.6506 -0.2258
vn -0.1096 -0.9721 -0.2072
vn -0.6431 -0.7258 -0.2442
vn 0.1765 -0.4411 0.8799
vn 0.3630 -0.9074 -0.2119
vn -0.0452 -0.9732 -0.2253
usemtl Shape.13080
s off
f 17//1 7//1 23//1
f 9//2 3//2 11//2
f 10//3 2//3 11//3
f 6//4 8//4 12//4
f 2//5 10//5 12//5
f 4//6 7//6 13//6
f 6//7 12//7 13//7
f 12//8 10//8 13//8
f 8//9 6//9 14//9
f 9//10 11//10 15//10
f 3//11 4//11 16//11
f 11//2 3//2 16//2
f 10//12 11//12 16//12
f 4//13 13//13 16//13
f 13//14 10//14 16//14
f 5//15 9//15 18//15
f 8//16 14//16 18//16
f 15//17 8//17 18//17
f 9//18 15//18 18//18
f 14//19 1//19 19//19
f 7//20 17//20 19//20
f 17//21 5//21 19//21
f 5//22 18//22 19//22
f 18//23 14//23 19//23
f 11//24 2//24 20//24
f 12//25 8//25 20//25
f 2//26 12//26 20//26
f 8//27 15//27 20//27
f 15//28 11//28 20//28
f 13//29 7//29 21//29
f 6//30 13//30 21//30
f 1//31 14//31 21//31
f 14//32 6//32 21//32
f 19//33 1//33 21//33
f 7//34 19//34 21//34
f 3//35 9//35 22//35
f 9//36 5//36 22//36
f 17//37 3//37 22//37
f 5//38 17//38 22//38
f 4//39 3//39 23//39
f 7//40 4//40 23//40
f 3//41 17//41 23//41
