# Blender v2.79 (sub 0) OBJ File: ''
# www.blender.org
mtllib 102677_link_3_12.mtl
o Shape_IndexedFaceSet.012_Shape_IndexedFaceSet.13084
v 0.255732 0.150639 0.014126
v 0.174094 0.134767 -0.017632
v 0.185439 0.132494 -0.004018
v 0.189973 0.164252 0.007319
v 0.192771 0.165532 -0.019095
v 0.235319 0.137033 -0.013095
v 0.176369 0.134767 0.016392
v 0.253465 0.134767 0.016392
v 0.249710 0.163580 0.017895
v 0.237594 0.164252 -0.004018
v 0.174094 0.143838 0.016392
v 0.183520 0.164083 -0.017439
v 0.235319 0.164252 0.018663
v 0.258000 0.139305 0.018663
v 0.174094 0.148373 -0.017632
v 0.205852 0.137033 -0.017632
v 0.242129 0.143838 -0.008555
v 0.233051 0.148373 -0.013095
v 0.208120 0.141571 0.018663
v 0.178637 0.132494 0.009589
vn 0.0290 -0.9995 0.0145
vn 0.0514 -0.9772 -0.2060
vn 0.0686 -0.9906 -0.1183
vn 0.7737 0.4804 -0.4131
vn -0.9679 -0.2428 0.0647
vn -0.1491 0.9883 0.0321
vn -0.7335 0.6535 0.1867
vn -0.0118 0.9988 0.0472
vn 0.0276 0.9996 0.0028
vn 0.0469 0.9989 0.0047
vn -0.2063 0.5269 0.8245
vn 0.0000 -0.4475 0.8943
vn 0.7279 -0.4846 -0.4852
vn 0.8866 0.3135 0.3401
vn 0.0556 0.0505 0.9972
vn -0.0781 0.0000 -0.9969
vn -1.0000 0.0000 0.0000
vn -0.1942 0.1285 -0.9725
vn -0.8559 0.5127 0.0683
vn 0.0035 -0.0496 -0.9988
vn 0.0646 -0.9054 -0.4196
vn 0.1521 0.0191 -0.9882
vn 0.7774 0.2960 -0.5550
vn 0.8612 -0.0307 -0.5073
vn 0.7541 -0.4152 -0.5089
vn 0.1606 0.0321 -0.9865
vn 0.3017 0.4066 -0.8623
vn 0.4834 0.0967 -0.8700
vn 0.5412 0.2952 -0.7873
vn -0.0677 -0.0170 0.9976
vn -0.0615 0.0738 0.9954
vn -0.0121 -0.2655 0.9640
vn 0.0000 0.0000 1.0000
vn -0.1240 -0.9903 -0.0620
vn -0.6403 -0.7670 0.0428
vn 0.0000 -0.9485 0.3169
usemtl Shape.13092
s off
f 3//1 8//1 20//1
f 3//2 2//2 6//2
f 3//3 6//3 8//3
f 9//4 1//4 10//4
f 2//5 7//5 11//5
f 4//6 5//6 12//6
f 11//7 4//7 12//7
f 5//8 4//8 13//8
f 10//9 5//9 13//9
f 9//10 10//10 13//10
f 4//11 11//11 13//11
f 7//12 8//12 14//12
f 8//13 6//13 14//13
f 1//14 9//14 14//14
f 9//15 13//15 14//15
f 5//16 2//16 15//16
f 2//17 11//17 15//17
f 12//18 5//18 15//18
f 11//19 12//19 15//19
f 2//20 5//20 16//20
f 6//21 2//21 16//21
f 5//22 6//22 16//22
f 10//23 1//23 17//23
f 1//24 14//24 17//24
f 14//25 6//25 17//25
f 6//26 5//26 18//26
f 5//27 10//27 18//27
f 17//28 6//28 18//28
f 10//29 17//29 18//29
f 11//30 7//30 19//30
f 13//31 11//31 19//31
f 7//32 14//32 19//32
f 14//33 13//33 19//33
f 2//34 3//34 20//34
f 7//35 2//35 20//35
f 8//36 7//36 20//36
