# Blender v2.79 (sub 0) OBJ File: ''
# www.blender.org
mtllib 102677_link_3_21.mtl
o Shape_IndexedFaceSet.021_Shape_IndexedFaceSet.13093
v -0.039130 0.157442 0.676495
v -0.064095 0.137035 0.615249
v -0.064095 0.148377 0.615249
v 0.001688 0.137035 0.642479
v 0.001688 0.168785 0.671951
v -0.030070 0.137035 0.671951
v -0.064095 0.173325 0.676495
v -0.064095 0.137035 0.658342
v -0.001860 0.134697 0.667116
v 0.001688 0.152910 0.644745
v -0.061816 0.161978 0.635668
v -0.064095 0.132494 0.622059
v 0.001688 0.155176 0.676495
v -0.064095 0.161978 0.676495
v -0.000585 0.132494 0.649265
v -0.064095 0.171055 0.660608
v -0.054254 0.134865 0.656894
v 0.001688 0.168785 0.676495
v -0.061816 0.157442 0.626592
vn -0.7992 0.5377 -0.2687
vn 0.3825 0.0000 -0.9240
vn -1.0000 0.0000 0.0000
vn 0.3982 0.1296 -0.9081
vn 1.0000 0.0000 0.0000
vn 0.2238 -0.8109 -0.5407
vn -0.0124 -0.2226 0.9748
vn -0.0000 0.0000 1.0000
vn 0.9679 -0.2219 0.1183
vn 0.1177 -0.4303 0.8950
vn -0.0427 -0.2352 0.9710
vn -0.3077 -0.5599 0.7693
vn 0.9436 -0.3137 0.1061
vn 0.2115 -0.8436 -0.4937
vn 0.0585 0.9883 -0.1412
vn 0.0899 0.9385 -0.3334
vn -0.1479 -0.9173 0.3697
vn -0.0445 -0.9762 0.2122
vn -0.1966 -0.9729 0.1218
vn -0.0267 -0.9923 0.1206
vn -0.0331 -0.9965 0.0772
vn 0.0689 0.9976 0.0000
vn 0.2341 0.7360 -0.6352
vn 0.2015 0.8460 -0.4936
vn 0.1576 0.8833 -0.4415
vn -0.7997 0.5370 -0.2685
usemtl Shape.13101
s off
f 16//1 11//1 19//1
f 2//2 3//2 4//2
f 3//3 2//3 7//3
f 7//3 2//3 8//3
f 4//4 3//4 10//4
f 5//5 4//5 10//5
f 2//6 4//6 12//6
f 8//3 2//3 12//3
f 4//5 5//5 13//5
f 1//7 6//7 13//7
f 7//8 1//8 13//8
f 9//9 4//9 13//9
f 6//10 9//10 13//10
f 6//11 1//11 14//11
f 1//8 7//8 14//8
f 8//12 6//12 14//12
f 7//3 8//3 14//3
f 4//13 9//13 15//13
f 12//14 4//14 15//14
f 3//3 7//3 16//3
f 7//15 5//15 16//15
f 5//16 11//16 16//16
f 6//17 8//17 17//17
f 9//18 6//18 17//18
f 8//19 12//19 17//19
f 15//20 9//20 17//20
f 12//21 15//21 17//21
f 5//22 7//22 18//22
f 13//5 5//5 18//5
f 7//8 13//8 18//8
f 10//23 3//23 19//23
f 5//24 10//24 19//24
f 11//25 5//25 19//25
f 3//26 16//26 19//26
