# Blender v2.79 (sub 0) OBJ File: ''
# www.blender.org
mtllib 102677_link_3_23.mtl
o Shape_IndexedFaceSet.023_Shape_IndexedFaceSet.13095
v 0.106034 0.137033 0.109391
v 0.001698 0.146103 0.064030
v 0.001698 0.159713 0.064030
v 0.106034 0.148373 0.064030
v 0.001698 0.125689 0.102584
v 0.075158 0.122522 0.091446
v 0.106034 0.161983 0.068575
v 0.001698 0.152910 0.082184
v 0.106034 0.125689 0.116193
v 0.001698 0.125689 0.088986
v 0.001698 0.137033 0.098050
v 0.106034 0.125689 0.098050
v 0.048545 0.122543 0.088791
v 0.101479 0.148373 0.093515
v 0.106034 0.161983 0.064030
v 0.103746 0.130226 0.116193
v 0.085608 0.146103 0.064030
v 0.003976 0.143836 0.093515
v 0.001698 0.159713 0.068575
vn -0.0195 0.8943 0.4470
vn 0.0000 0.0000 -1.0000
vn -1.0000 -0.0000 0.0000
vn 1.0000 0.0000 0.0000
vn 0.1999 -0.8152 -0.5436
vn 0.1020 -0.9948 0.0000
vn -0.0204 -0.9875 0.1561
vn -0.0153 -0.9892 0.1457
vn -0.0545 -0.7729 -0.6322
vn -0.0670 -0.9978 0.0000
vn 0.2929 0.8158 0.4987
vn -0.0298 0.8093 0.5866
vn -0.0142 0.8788 0.4770
vn -0.0218 0.9998 0.0000
vn 0.7140 0.3601 0.6005
vn -0.1291 -0.0651 0.9895
vn -0.1390 0.3675 0.9196
vn 0.0857 -0.7713 -0.6307
vn 0.0000 -0.7245 -0.6893
vn 0.0629 -0.7684 -0.6369
vn -0.0463 0.7752 0.6301
vn -0.5750 0.5783 0.5787
vn -0.0605 0.7157 0.6958
vn -0.1057 0.5758 0.8107
usemtl Shape.13103
s off
f 8//1 7//1 19//1
f 2//2 3//2 4//2
f 3//3 2//3 5//3
f 1//4 4//4 7//4
f 3//3 5//3 8//3
f 4//4 1//4 9//4
f 5//3 2//3 10//3
f 8//3 5//3 11//3
f 6//5 4//5 12//5
f 4//4 9//4 12//4
f 9//6 6//6 12//6
f 9//7 5//7 13//7
f 6//8 9//8 13//8
f 10//9 2//9 13//9
f 5//10 10//10 13//10
f 1//11 7//11 14//11
f 8//12 1//12 14//12
f 7//13 8//13 14//13
f 4//2 3//2 15//2
f 3//14 7//14 15//14
f 7//4 4//4 15//4
f 9//15 1//15 16//15
f 5//16 9//16 16//16
f 11//17 5//17 16//17
f 2//2 4//2 17//2
f 4//18 6//18 17//18
f 13//19 2//19 17//19
f 6//20 13//20 17//20
f 1//21 8//21 18//21
f 8//22 11//22 18//22
f 16//23 1//23 18//23
f 11//24 16//24 18//24
f 7//14 3//14 19//14
f 3//3 8//3 19//3
