# Blender v2.79 (sub 0) OBJ File: ''
# www.blender.org
mtllib 102677_link_3_11.mtl
o Shape_IndexedFaceSet.011_Shape_IndexedFaceSet.13083
v 0.076562 0.139303 0.018663
v 0.069750 0.148377 -0.017632
v 0.069750 0.139303 -0.015361
v 0.174086 0.134763 -0.017632
v 0.162729 0.164246 -0.006288
v 0.174086 0.137034 0.016392
v 0.069750 0.164246 -0.017632
v 0.069750 0.134763 0.014126
v 0.167263 0.164246 -0.015361
v 0.076562 0.164246 -0.004018
v 0.151392 0.143840 0.018663
v 0.074295 0.134763 -0.010825
v 0.167263 0.134763 0.016392
v 0.069750 0.143840 0.016392
v 0.174086 0.146109 0.014126
v 0.174086 0.148377 -0.017632
vn 0.9198 0.3915 0.0280
vn -0.0317 -0.2427 -0.9696
vn -1.0000 0.0000 0.0000
vn 0.0000 0.0000 -1.0000
vn 0.0000 1.0000 -0.0000
vn 0.0168 0.7702 0.6376
vn -0.0466 -0.7290 -0.6829
vn -0.6411 -0.7585 -0.1168
vn 0.0000 -1.0000 0.0000
vn 0.3152 -0.9469 0.0632
vn -0.0167 -0.6941 0.7197
vn 0.0134 -0.2206 0.9753
vn 0.0519 -0.1560 0.9864
vn -0.4362 -0.2179 0.8730
vn -0.7168 0.5980 0.3587
vn -0.0253 0.4169 0.9086
vn -0.0196 0.7103 0.7036
vn 1.0000 0.0000 0.0000
vn 0.6128 0.7284 0.3063
vn 0.1673 0.2388 0.9565
vn 0.0532 0.7610 0.6466
vn 0.0230 0.1513 -0.9882
usemtl Shape.13091
s off
f 9//1 15//1 16//1
f 3//2 2//2 4//2
f 2//3 3//3 7//3
f 4//4 2//4 7//4
f 7//3 3//3 8//3
f 7//5 5//5 9//5
f 5//5 7//5 10//5
f 5//6 10//6 11//6
f 3//7 4//7 12//7
f 8//8 3//8 12//8
f 4//9 8//9 12//9
f 4//10 6//10 13//10
f 8//9 4//9 13//9
f 1//11 8//11 13//11
f 11//12 1//12 13//12
f 6//13 11//13 13//13
f 8//14 1//14 14//14
f 7//3 8//3 14//3
f 10//15 7//15 14//15
f 1//16 11//16 14//16
f 11//17 10//17 14//17
f 6//18 4//18 15//18
f 9//19 5//19 15//19
f 11//20 6//20 15//20
f 5//21 11//21 15//21
f 4//4 7//4 16//4
f 7//22 9//22 16//22
f 15//18 4//18 16//18
