# Blender v2.79 (sub 0) OBJ File: ''
# www.blender.org
mtllib 102677_link_2_19.mtl
o Shape_IndexedFaceSet.019_Shape_IndexedFaceSet.9030
v -0.289255 0.184478 0.124777
v -0.256679 0.184478 0.124777
v -0.286929 0.198438 0.248086
v -0.256679 0.198438 0.045652
v -0.291581 0.175165 0.248086
v -0.310201 0.198438 0.231788
v -0.259015 0.175165 0.064255
v -0.305543 0.177495 0.208514
v -0.256679 0.198438 0.110805
v -0.282282 0.179823 0.248086
v -0.256679 0.175165 0.103828
v -0.310201 0.179823 0.248086
v -0.279956 0.198438 0.099157
v -0.259015 0.182149 0.043286
v -0.279956 0.177495 0.103828
v -0.307869 0.191453 0.206168
v -0.300891 0.175165 0.224792
v -0.310201 0.198438 0.248086
v -0.282282 0.184478 0.248086
v -0.289255 0.193779 0.124777
v -0.256679 0.177495 0.050303
v -0.298565 0.177495 0.171286
v -0.275304 0.193779 0.082879
vn -0.9374 0.1545 -0.3121
vn 0.0000 1.0000 0.0000
vn 1.0000 0.0000 0.0000
vn 0.0000 0.0000 1.0000
vn 0.0000 -1.0000 -0.0000
vn 0.9046 -0.3894 0.1731
vn 0.4453 -0.8889 0.1077
vn -0.9168 -0.2190 -0.3339
vn -0.9953 -0.0640 -0.0731
vn -0.9780 -0.1805 -0.1045
vn -0.2415 -0.9656 0.0965
vn -0.4476 -0.8942 -0.0001
vn -1.0000 0.0000 0.0000
vn 0.9595 0.1994 0.1992
vn 0.9287 0.3092 0.2046
vn 0.9791 0.0000 0.2033
vn -0.7900 0.5861 -0.1801
vn -0.9748 0.0000 -0.2229
vn -0.8925 0.4079 -0.1925
vn 0.5931 -0.8043 -0.0350
vn 0.9285 -0.0805 -0.3625
vn -0.5161 -0.8266 -0.2245
vn -0.6288 -0.7279 -0.2735
vn -0.2260 -0.9721 -0.0623
vn -0.8670 -0.4371 -0.2392
vn -0.9702 -0.1173 -0.2118
vn -0.9648 -0.1912 -0.1808
vn -0.1962 -0.9792 -0.0512
vn -0.2891 -0.9558 -0.0542
vn -0.8273 0.4314 -0.3599
vn -0.9294 -0.1414 -0.3409
vn -0.8875 0.1884 -0.4205
vn -0.9488 0.0000 -0.3159
usemtl Shape.9039
s off
f 20//1 13//1 23//1
f 3//2 4//2 6//2
f 4//2 3//2 9//2
f 2//3 4//3 9//3
f 3//4 5//4 10//4
f 4//3 2//3 11//3
f 5//5 7//5 11//5
f 2//6 10//6 11//6
f 10//7 5//7 11//7
f 5//4 3//4 12//4
f 6//2 4//2 13//2
f 1//8 14//8 15//8
f 12//9 6//9 16//9
f 8//10 12//10 16//10
f 7//5 5//5 17//5
f 5//11 12//11 17//11
f 12//12 8//12 17//12
f 3//2 6//2 18//2
f 12//4 3//4 18//4
f 6//13 12//13 18//13
f 2//14 9//14 19//14
f 9//15 3//15 19//15
f 10//16 2//16 19//16
f 3//4 10//4 19//4
f 6//17 13//17 20//17
f 1//18 16//18 20//18
f 16//19 6//19 20//19
f 4//3 11//3 21//3
f 11//20 7//20 21//20
f 14//21 4//21 21//21
f 7//22 15//22 21//22
f 15//23 14//23 21//23
f 15//24 7//24 22//24
f 1//25 15//25 22//25
f 16//26 1//26 22//26
f 8//27 16//27 22//27
f 7//28 17//28 22//28
f 17//29 8//29 22//29
f 13//30 4//30 23//30
f 14//31 1//31 23//31
f 4//32 14//32 23//32
f 1//33 20//33 23//33
