# Blender v2.79 (sub 0) OBJ File: ''
# www.blender.org
mtllib 102677_link_2_33.mtl
o Shape_IndexedFaceSet.033_Shape_IndexedFaceSet.9044
v 0.204122 0.179823 0.632045
v 0.269281 0.179823 0.415650
v 0.204122 0.200765 0.583178
v 0.271613 0.200765 0.427294
v 0.215762 0.200765 0.620445
v 0.204122 0.179823 0.576210
v 0.243674 0.177492 0.564588
v 0.266955 0.200765 0.520418
v 0.271613 0.177492 0.417988
v 0.241355 0.182151 0.578547
v 0.269281 0.179823 0.513427
v 0.204122 0.177492 0.583178
v 0.204122 0.200765 0.632045
v 0.266955 0.184477 0.420347
v 0.206454 0.184477 0.636741
v 0.236711 0.196106 0.587831
v 0.269281 0.200765 0.427294
v 0.208779 0.177492 0.625077
v 0.204122 0.186805 0.576210
vn -0.9275 0.0000 -0.3739
vn 0.0000 1.0000 0.0000
vn -1.0000 0.0000 0.0000
vn 0.7931 0.2262 -0.5656
vn 0.9183 -0.0298 0.3949
vn 0.9943 0.0938 0.0497
vn 0.9996 -0.0099 0.0247
vn 0.1454 -0.9890 0.0277
vn 0.7091 -0.6251 0.3264
vn -0.6159 -0.7471 -0.2499
vn -0.5629 -0.7939 -0.2300
vn 0.0000 -1.0000 0.0000
vn -0.9234 -0.0833 -0.3747
vn -0.8956 0.0000 0.4448
vn 0.6751 0.2920 0.6775
vn 0.6906 0.6310 0.3534
vn 0.9112 0.0299 0.4109
vn 0.8551 -0.0582 0.5152
vn 0.8436 0.0525 0.5344
vn 0.0000 0.4860 -0.8740
vn -0.8846 0.2840 -0.3698
vn -0.6211 0.3808 -0.6850
vn 0.5926 -0.7293 0.3419
vn -0.3940 -0.9181 0.0438
vn 0.4174 -0.7406 0.5267
vn 0.7239 -0.5186 0.4549
vn -0.9106 0.1846 -0.3698
usemtl Shape.9053
s off
f 14//1 6//1 19//1
f 4//2 3//2 5//2
f 1//3 3//3 6//3
f 4//2 5//2 8//2
f 2//4 4//4 9//4
f 8//5 10//5 11//5
f 4//6 8//6 11//6
f 9//7 4//7 11//7
f 7//8 9//8 11//8
f 10//9 7//9 11//9
f 1//3 6//3 12//3
f 6//10 2//10 12//10
f 2//11 9//11 12//11
f 9//12 7//12 12//12
f 3//3 1//3 13//3
f 5//2 3//2 13//2
f 2//13 6//13 14//13
f 13//14 1//14 15//14
f 5//15 13//15 15//15
f 8//16 5//16 16//16
f 10//17 8//17 16//17
f 15//18 10//18 16//18
f 5//19 15//19 16//19
f 3//2 4//2 17//2
f 4//20 2//20 17//20
f 14//21 3//21 17//21
f 2//22 14//22 17//22
f 7//23 10//23 18//23
f 1//24 12//24 18//24
f 12//12 7//12 18//12
f 15//25 1//25 18//25
f 10//26 15//26 18//26
f 6//3 3//3 19//3
f 3//27 14//27 19//27
