# Blender v2.79 (sub 0) OBJ File: ''
# www.blender.org
mtllib 102677_link_2_8.mtl
o Shape_IndexedFaceSet.008_Shape_IndexedFaceSet.9019
v -0.016969 0.203093 -0.019550
v -0.155323 0.202893 -0.046253
v -0.149611 0.214727 -0.045150
v -0.016969 0.214727 -0.045150
v -0.016969 0.196112 -0.040492
v -0.149611 0.196112 -0.021881
v -0.040262 0.212398 -0.021881
v -0.149611 0.205418 -0.019550
v -0.149611 0.196112 -0.040492
v -0.149611 0.214727 -0.033510
v -0.016969 0.196112 -0.028860
v -0.016969 0.214727 -0.033510
v -0.016969 0.198439 -0.042820
v -0.016969 0.210071 -0.019550
vn 0.0630 0.9467 0.3158
vn 0.0000 0.0928 -0.9957
vn 1.0000 0.0000 0.0000
vn -0.9754 -0.0535 0.2137
vn -0.0043 -0.2430 0.9700
vn -0.7648 -0.6442 0.0000
vn 0.0000 -1.0000 0.0000
vn -0.9006 0.4347 0.0000
vn 0.0000 1.0000 0.0000
vn -0.0412 0.8313 0.5543
vn -0.9474 0.2662 0.1775
vn 0.0315 -0.7997 0.5996
vn 0.0000 0.9805 0.1964
vn 0.0200 -0.1416 -0.9897
vn -0.0020 -0.6484 -0.7613
vn 0.0000 -0.7073 -0.7070
vn 0.0000 0.0000 1.0000
vn -0.0209 0.5954 0.8031
usemtl Shape.9028
s off
f 12//1 7//1 14//1
f 2//2 3//2 4//2
f 4//3 1//3 5//3
f 2//4 6//4 8//4
f 6//5 1//5 8//5
f 6//6 2//6 9//6
f 5//7 6//7 9//7
f 3//8 2//8 10//8
f 4//9 3//9 10//9
f 8//10 7//10 10//10
f 2//11 8//11 10//11
f 5//3 1//3 11//3
f 6//7 5//7 11//7
f 1//12 6//12 11//12
f 1//3 4//3 12//3
f 4//9 10//9 12//9
f 10//13 7//13 12//13
f 2//14 4//14 13//14
f 4//3 5//3 13//3
f 9//15 2//15 13//15
f 5//16 9//16 13//16
f 8//17 1//17 14//17
f 7//18 8//18 14//18
f 1//3 12//3 14//3
