# Blender v2.79 (sub 0) OBJ File: ''
# www.blender.org
mtllib 102677_link_2_31.mtl
o Shape_IndexedFaceSet.031_Shape_IndexedFaceSet.9042
v 0.271600 0.196114 0.071240
v 0.313504 0.198441 0.264354
v 0.308833 0.203093 0.264354
v 0.255333 0.210072 0.259684
v 0.234386 0.212399 0.029323
v 0.234386 0.193785 0.031692
v 0.294872 0.193785 0.264354
v 0.211124 0.210072 0.040987
v 0.280910 0.212399 0.199178
v 0.292547 0.203093 0.150312
v 0.301858 0.193785 0.171271
v 0.287896 0.212399 0.264354
v 0.253008 0.193785 0.029323
v 0.259983 0.203093 0.052628
v 0.306508 0.203093 0.222460
v 0.313504 0.193785 0.264354
v 0.211124 0.210072 0.029323
v 0.257658 0.212399 0.101493
v 0.297197 0.198441 0.150312
v 0.229735 0.196114 0.031692
v 0.311158 0.193785 0.220136
v 0.278585 0.203093 0.103817
v 0.253008 0.200768 0.031692
vn 0.8116 0.4859 -0.3244
vn 0.0000 0.0000 1.0000
vn -0.3891 -0.9156 0.1012
vn -0.0904 0.9957 0.0183
vn 0.0000 -1.0000 0.0000
vn -0.0737 0.9971 0.0168
vn -0.1381 -0.0518 0.9891
vn 0.0000 1.0000 0.0000
vn 0.4812 -0.8608 -0.1656
vn 0.7051 0.7080 -0.0391
vn 0.4024 0.9121 -0.0779
vn 0.4061 0.9136 -0.0225
vn 0.3733 0.9268 -0.0400
vn -0.0995 0.9950 0.0000
vn 0.0000 0.0000 -1.0000
vn -0.1200 -0.3087 -0.9436
vn 0.3699 0.9249 -0.0880
vn 0.8911 -0.3589 -0.2779
vn 0.7007 0.7004 -0.1356
vn -0.4453 -0.8893 0.1044
vn -0.5594 -0.8212 0.1131
vn -0.6000 -0.8000 0.0000
vn -0.2221 -0.4435 -0.8683
vn 0.8807 0.4639 -0.0956
vn 0.9986 0.0000 -0.0530
vn 0.9726 0.1404 -0.1851
vn 0.8707 0.4706 -0.1427
vn 0.4704 0.8658 -0.1709
vn 0.7867 0.5471 -0.2859
vn 0.4150 0.8999 -0.1338
vn 0.4147 0.9014 -0.1245
vn 0.8259 0.4885 -0.2817
vn 0.6918 0.6915 -0.2077
vn 0.9024 0.1384 -0.4080
vn 0.3058 0.3059 -0.9016
vn 0.5347 0.8017 -0.2672
usemtl Shape.9051
s off
f 14//1 1//1 23//1
f 2//2 3//2 7//2
f 4//3 6//3 7//3
f 4//4 5//4 8//4
f 7//5 6//5 11//5
f 5//6 4//6 12//6
f 7//2 3//2 12//2
f 4//7 7//7 12//7
f 9//8 5//8 12//8
f 1//9 11//9 13//9
f 11//5 6//5 13//5
f 3//10 2//10 15//10
f 10//11 9//11 15//11
f 12//12 3//12 15//12
f 9//13 12//13 15//13
f 2//2 7//2 16//2
f 7//5 11//5 16//5
f 8//14 5//14 17//14
f 5//15 13//15 17//15
f 13//16 6//16 17//16
f 5//8 9//8 18//8
f 9//17 10//17 18//17
f 11//18 1//18 19//18
f 10//19 15//19 19//19
f 6//20 4//20 20//20
f 4//21 8//21 20//21
f 8//22 17//22 20//22
f 17//23 6//23 20//23
f 15//24 2//24 21//24
f 2//25 16//25 21//25
f 16//5 11//5 21//5
f 11//26 19//26 21//26
f 19//27 15//27 21//27
f 14//28 5//28 22//28
f 1//29 14//29 22//29
f 5//30 18//30 22//30
f 18//31 10//31 22//31
f 19//32 1//32 22//32
f 10//33 19//33 22//33
f 1//34 13//34 23//34
f 13//35 5//35 23//35
f 5//36 14//36 23//36
