# Blender v2.79 (sub 0) OBJ File: ''
# www.blender.org
mtllib 102677_link_3_69.mtl
o Shape_IndexedFaceSet.069_Shape_IndexedFaceSet.13141
v 0.301115 0.171055 0.141179
v 0.326065 0.164256 0.293138
v 0.323796 0.171055 0.293138
v 0.301115 0.171055 0.293138
v 0.301115 0.157449 0.129830
v 0.314724 0.157449 0.293138
v 0.303387 0.182399 0.281772
v 0.314724 0.177859 0.209230
v 0.323796 0.157449 0.227341
v 0.301115 0.182399 0.195610
v 0.316992 0.180128 0.293138
v 0.316992 0.159718 0.182006
v 0.301115 0.157449 0.182006
v 0.303387 0.177859 0.152513
v 0.321528 0.173324 0.243215
v 0.326065 0.157449 0.293138
v 0.301115 0.180128 0.293138
v 0.314724 0.180128 0.225071
v 0.303387 0.159718 0.129830
vn 0.9228 0.3009 -0.2406
vn 0.0000 0.0000 1.0000
vn -1.0000 0.0000 0.0000
vn 0.0000 -1.0000 0.0000
vn 0.1682 0.9857 -0.0044
vn 0.5149 -0.8489 -0.1198
vn -0.7044 -0.7045 0.0863
vn -0.8863 0.4533 -0.0945
vn 0.9051 0.3847 -0.1809
vn 0.9482 0.3164 -0.0287
vn 0.9796 0.1938 -0.0538
vn 0.8000 0.5999 -0.0091
vn 0.9329 0.3307 -0.1426
vn 0.9550 0.2664 -0.1300
vn 0.9994 0.0000 -0.0345
vn -0.6618 0.7495 0.0175
vn 0.0000 0.9806 0.1959
vn 0.1770 0.9842 -0.0059
vn 0.3330 0.9394 -0.0814
vn 0.5786 0.8074 -0.1156
vn 0.8073 0.5842 -0.0837
vn 0.7390 0.6733 -0.0246
vn -0.5389 0.5396 -0.6469
vn 0.6950 -0.6958 -0.1812
vn 0.6136 0.6167 -0.4932
usemtl Shape.13149
s off
f 14//1 12//1 19//1
f 2//2 3//2 4//2
f 4//3 1//3 5//3
f 2//2 4//2 6//2
f 6//4 5//4 9//4
f 1//3 4//3 10//3
f 4//2 3//2 11//2
f 10//5 7//5 11//5
f 9//6 5//6 12//6
f 4//3 5//3 13//3
f 5//4 6//4 13//4
f 6//7 4//7 13//7
f 1//8 10//8 14//8
f 8//9 12//9 14//9
f 3//10 2//10 15//10
f 2//11 9//11 15//11
f 11//12 3//12 15//12
f 12//13 8//13 15//13
f 9//14 12//14 15//14
f 2//2 6//2 16//2
f 9//15 2//15 16//15
f 6//4 9//4 16//4
f 10//3 4//3 17//3
f 7//16 10//16 17//16
f 4//2 11//2 17//2
f 11//17 7//17 17//17
f 10//18 11//18 18//18
f 14//19 10//19 18//19
f 8//20 14//20 18//20
f 15//21 8//21 18//21
f 11//22 15//22 18//22
f 5//23 1//23 19//23
f 12//24 5//24 19//24
f 1//25 14//25 19//25
