# Blender v2.79 (sub 0) OBJ File: ''
# www.blender.org
mtllib 1556_link_1_75.mtl
o Shape_IndexedFaceSet.075_Shape_IndexedFaceSet.3571
v -0.276152 0.264626 -0.324577
v -0.223813 0.264896 0.262527
v -0.221111 0.253616 0.297390
v -0.221111 0.259122 -0.412714
v -0.221111 0.281134 -0.412714
v -0.254127 0.281134 0.044168
v -0.259633 0.253616 0.121184
v -0.276152 0.253616 -0.412714
v -0.265134 0.281134 -0.407153
v -0.221111 0.281134 0.154201
v -0.243131 0.264626 0.269864
v -0.248632 0.253616 -0.352102
v -0.259633 0.275628 0.044168
vn -0.9522 0.2937 0.0839
vn 1.0000 0.0000 0.0000
vn -0.0000 0.0000 -1.0000
vn 0.0000 -1.0000 0.0000
vn -0.9702 -0.2403 0.0300
vn 0.0000 1.0000 0.0000
vn -0.9240 0.3795 -0.0474
vn -0.1216 0.2431 -0.9623
vn 0.8572 0.5057 0.0972
vn -0.2784 0.9568 0.0835
vn 0.1004 0.9489 0.2992
vn -0.5625 -0.8176 0.1230
vn 0.0428 0.9879 0.1492
vn 0.1800 -0.9836 -0.0076
vn 0.0994 -0.9940 -0.0451
vn -0.9893 0.1404 0.0401
vn -0.7900 0.6128 0.0171
vn -0.7070 0.7070 0.0172
vn -0.7045 0.7045 0.0859
usemtl Shape.3575
s off
f 7//1 11//1 13//1
f 3//2 4//2 5//2
f 5//3 4//3 8//3
f 3//4 7//4 8//4
f 7//5 1//5 8//5
f 6//6 5//6 9//6
f 8//7 1//7 9//7
f 5//8 8//8 9//8
f 2//9 3//9 10//9
f 3//2 5//2 10//2
f 5//6 6//6 10//6
f 10//10 6//10 11//10
f 3//11 2//11 11//11
f 7//12 3//12 11//12
f 2//13 10//13 11//13
f 4//14 3//14 12//14
f 3//4 8//4 12//4
f 8//15 4//15 12//15
f 1//16 7//16 13//16
f 9//17 1//17 13//17
f 6//18 9//18 13//18
f 11//19 6//19 13//19
