# Blender v2.79 (sub 0) OBJ File: ''
# www.blender.org
mtllib 1556_link_1_13.mtl
o Shape_IndexedFaceSet.013_Shape_IndexedFaceSet.3509
v 0.005088 -0.348323 0.030355
v 0.169692 -0.880330 0.027660
v 0.202726 -0.891336 -0.027381
v 0.015596 -0.384977 0.005638
v 0.180725 -0.373920 0.027660
v 0.202726 -0.373920 -0.027381
v 0.219265 -0.885808 0.000137
v 0.230055 -0.374458 -0.027330
v 0.015596 -0.891336 0.005638
v 0.015596 -0.885808 0.027660
v 0.227412 -0.884508 -0.026652
v 0.202726 -0.373920 0.016647
v 0.197221 -0.885808 0.016647
v 0.153196 -0.891336 0.027660
v 0.208253 -0.896864 -0.027381
vn -0.0138 -0.9962 0.0862
vn 0.0153 -0.0003 0.9999
vn -0.1784 0.5145 -0.8388
vn -0.1738 -0.0000 -0.9848
vn 0.0191 0.9366 -0.3499
vn -0.9203 -0.0000 -0.3912
vn -0.9998 -0.0196 0.0049
vn 0.9568 -0.0046 0.2908
vn 0.1425 0.9480 0.2847
vn 0.1329 0.9886 0.0705
vn 0.8494 0.0104 0.5277
vn 0.3700 -0.0081 0.9290
vn 0.4476 -0.0048 0.8942
vn 0.5995 -0.0064 0.8004
vn 0.0028 -0.0042 1.0000
vn -0.0002 -0.0050 1.0000
vn -0.0389 -0.9692 0.2433
vn 0.2694 -0.4038 0.8743
vn 0.1890 -0.9402 0.2834
vn 0.0000 0.0000 -1.0000
vn 0.0019 0.0000 -1.0000
vn -0.1712 -0.1712 -0.9703
vn 0.5346 -0.8362 0.1220
vn 0.0390 -0.0015 -0.9992
vn 0.2160 -0.9328 0.2884
usemtl Shape.3513
s off
f 14//1 9//1 15//1
f 1//2 2//2 5//2
f 4//3 1//3 6//3
f 3//4 4//4 6//4
f 6//5 1//5 8//5
f 1//6 4//6 9//6
f 4//4 3//4 9//4
f 1//7 9//7 10//7
f 8//8 7//8 11//8
f 1//9 5//9 12//9
f 8//10 1//10 12//10
f 7//11 8//11 12//11
f 5//12 2//12 13//12
f 12//13 5//13 13//13
f 7//14 12//14 13//14
f 2//15 1//15 14//15
f 1//16 10//16 14//16
f 10//17 9//17 14//17
f 13//18 2//18 14//18
f 13//19 14//19 15//19
f 3//20 6//20 15//20
f 6//21 8//21 15//21
f 9//22 3//22 15//22
f 11//23 7//23 15//23
f 8//24 11//24 15//24
f 7//25 13//25 15//25
