# Blender v2.79 (sub 0) OBJ File: ''
# www.blender.org
mtllib 1556_link_0_113.mtl
o Shape_IndexedFaceSet.113_Shape_IndexedFaceSet.1810
v -0.231672 0.537157 0.205619
v -0.169669 0.581001 0.214904
v -0.167450 0.565957 0.215221
v -0.167450 0.565957 0.204989
v -0.235661 0.579602 0.211809
v -0.201562 0.518217 0.215221
v -0.226597 0.580170 0.205437
v -0.205007 0.517386 0.204858
v -0.228838 0.521623 0.215221
vn -0.4154 -0.5319 -0.7379
vn 0.9893 0.1459 0.0000
vn 0.8136 -0.5814 0.0000
vn 0.1281 0.5589 -0.8193
vn -0.5766 0.0646 -0.8145
vn -0.0237 0.9982 0.0552
vn 0.7738 -0.5978 -0.2093
vn -0.0058 0.0072 -1.0000
vn -0.0291 -0.0008 -0.9996
vn -0.0137 0.0190 0.9997
vn -0.9874 -0.1095 0.1143
vn -0.0479 0.0531 0.9974
vn 0.0000 0.0000 1.0000
vn -0.1230 -0.9851 0.1199
usemtl Shape.1814
s off
f 1//1 8//1 9//1
f 2//2 3//2 4//2
f 4//3 3//3 6//3
f 2//4 4//4 7//4
f 1//5 5//5 7//5
f 5//6 2//6 7//6
f 4//7 6//7 8//7
f 7//8 4//8 8//8
f 1//9 7//9 8//9
f 3//10 2//10 9//10
f 5//11 1//11 9//11
f 2//12 5//12 9//12
f 6//13 3//13 9//13
f 8//14 6//14 9//14
