# Blender v2.79 (sub 0) OBJ File: ''
# www.blender.org
mtllib 1556_link_0_191.mtl
o Shape_IndexedFaceSet.191_Shape_IndexedFaceSet.1888
v -0.174269 0.552314 0.501779
v -0.211788 0.528436 0.484724
v -0.204963 0.507976 0.484724
v -0.208375 0.518208 0.501779
v -0.177681 0.504559 0.484724
v -0.177681 0.504559 0.501779
v -0.174919 0.551486 0.485019
v -0.208375 0.545489 0.501779
v -0.204963 0.552314 0.484724
vn -0.1850 0.9246 0.3330
vn -0.9486 -0.3164 0.0001
vn 0.0000 0.0000 -1.0000
vn -0.1243 -0.9922 0.0000
vn -0.3682 -0.8279 0.4231
vn 0.0000 0.0000 1.0000
vn 0.9975 -0.0713 0.0000
vn 0.9976 -0.0585 -0.0358
vn -0.9806 0.0000 0.1962
vn 0.0280 0.9983 -0.0504
vn 0.0100 0.0057 -0.9999
vn -0.9582 0.2739 -0.0821
usemtl Shape.1892
s off
f 8//1 1//1 9//1
f 2//2 3//2 4//2
f 3//3 2//3 5//3
f 3//4 5//4 6//4
f 4//5 3//5 6//5
f 1//6 4//6 6//6
f 5//7 1//7 6//7
f 1//8 5//8 7//8
f 2//9 4//9 8//9
f 4//6 1//6 8//6
f 5//3 2//3 9//3
f 1//10 7//10 9//10
f 7//11 5//11 9//11
f 2//12 8//12 9//12
