# Blender v2.79 (sub 0) OBJ File: ''
# www.blender.org
mtllib 1556_link_0_82.mtl
o Shape_IndexedFaceSet.082_Shape_IndexedFaceSet.1779
v 0.160058 0.480679 0.239107
v 0.192797 0.513933 0.265708
v 0.194167 0.514789 0.239107
v 0.139585 0.494328 0.239107
v 0.139585 0.480679 0.266393
v 0.173693 0.514789 0.266393
v 0.177108 0.490916 0.266393
v 0.139585 0.494328 0.266393
vn -0.5144 0.8575 0.0000
vn -0.0000 0.0000 -1.0000
vn -0.5121 -0.7682 -0.3843
vn 0.0460 0.9983 0.0345
vn -0.3394 0.9055 -0.2547
vn 0.6963 -0.6963 -0.1739
vn 0.8264 -0.5626 0.0245
vn 0.2582 -0.9465 0.1937
vn 0.0361 0.0052 0.9993
vn 0.0000 0.0000 1.0000
vn -1.0000 0.0000 0.0000
usemtl Shape.1783
s off
f 6//1 4//1 8//1
f 3//2 1//2 4//2
f 4//3 1//3 5//3
f 2//4 3//4 6//4
f 3//5 4//5 6//5
f 1//6 3//6 7//6
f 3//7 2//7 7//7
f 5//8 1//8 7//8
f 2//9 6//9 7//9
f 6//10 5//10 7//10
f 4//11 5//11 8//11
f 5//10 6//10 8//10
