# Blender v2.79 (sub 0) OBJ File: ''
# www.blender.org
mtllib 1556_link_1_61.mtl
o Shape_IndexedFaceSet.061_Shape_IndexedFaceSet.3557
v 0.095443 0.028597 0.881715
v 0.110355 -0.090145 0.635175
v -0.112870 0.030539 0.698459
v 0.083297 -0.112607 0.942316
v -0.069658 -0.017526 0.970620
v -0.149545 -0.104187 0.644218
v -0.157216 0.037929 0.867352
v 0.093663 0.030677 0.703543
v -0.107558 -0.112293 0.941759
v -0.001884 -0.001407 0.978023
v 0.096717 -0.105908 0.653556
v -0.149545 -0.098673 0.836826
v -0.153896 -0.077876 0.638355
v 0.048620 -0.032638 0.979929
v 0.103670 0.033426 0.864351
v 0.103670 -0.104187 0.831314
v -0.002307 -0.110540 0.696212
v 0.082278 0.030145 0.693865
v 0.081636 -0.076647 0.963428
v -0.102199 -0.075217 0.957487
v -0.055952 -0.032638 0.979963
v -0.002432 0.023208 0.917352
v -0.044179 0.030833 0.692661
v 0.103670 -0.016126 0.875341
v -0.039182 -0.108693 0.646647
v 0.103670 -0.109686 0.787321
vn 0.0338 -0.9990 -0.0300
vn -0.2456 0.7518 0.6120
vn -0.3680 -0.9294 0.0266
vn -0.9262 -0.1310 0.3536
vn -0.0220 -0.2209 -0.9750
vn -0.8543 0.4588 -0.2444
vn -0.9868 -0.1621 0.0046
vn -0.9981 -0.0595 0.0156
vn 0.3980 0.6812 0.6145
vn 0.9830 0.1721 -0.0641
vn 0.0170 0.9997 -0.0182
vn -0.0016 -1.0000 -0.0078
vn 0.5606 0.4651 -0.6851
vn -0.0034 -0.5064 0.8623
vn 0.7452 0.3452 0.5705
vn 0.8445 0.2549 0.4710
vn -0.6803 0.2249 0.6976
vn -0.8865 -0.0662 0.4580
vn -0.1903 0.3856 0.9028
vn 0.0003 0.0614 0.9981
vn -0.0250 -0.4191 0.9076
vn 0.0003 -0.3509 0.9364
vn -0.4967 0.0835 0.8639
vn -0.1014 -0.3761 0.9210
vn 0.0853 0.9235 0.3739
vn -0.0334 0.9260 0.3760
vn 0.0533 0.9553 0.2909
vn 0.0194 0.9738 0.2266
vn -0.0081 0.9989 -0.0458
vn 0.0041 0.9993 -0.0379
vn 0.0096 0.4391 -0.8984
vn -0.0747 0.5050 -0.8599
vn 0.0109 0.4405 -0.8977
vn 0.0060 0.9981 -0.0619
vn 0.9996 0.0058 0.0260
vn 0.9810 -0.0867 0.1735
vn 0.9993 -0.0164 0.0329
vn 0.9780 -0.0702 0.1964
vn 0.9572 0.0627 0.2825
vn -0.0021 -0.5138 -0.8579
vn -0.0403 -0.9990 -0.0215
vn 0.0479 -0.7755 -0.6295
vn -0.0257 -0.9995 -0.0181
vn 0.0232 -0.9982 -0.0545
vn 0.7212 -0.6904 -0.0570
vn 0.7356 -0.6722 0.0840
vn 0.9851 -0.1708 0.0213
vn 0.0218 -0.9996 -0.0160
usemtl Shape.3561
s off
f 17//1 11//1 26//1
f 7//2 5//2 10//2
f 6//3 9//3 12//3
f 9//4 7//4 12//4
f 2//5 6//5 13//5
f 7//6 3//6 13//6
f 6//7 12//7 13//7
f 12//8 7//8 13//8
f 1//9 10//9 14//9
f 2//10 8//10 15//10
f 8//11 7//11 15//11
f 4//12 9//12 17//12
f 8//13 2//13 18//13
f 9//14 4//14 19//14
f 1//15 14//15 19//15
f 15//16 1//16 19//16
f 5//17 7//17 20//17
f 7//18 9//18 20//18
f 10//19 5//19 21//19
f 14//20 10//20 21//20
f 9//21 19//21 21//21
f 19//22 14//22 21//22
f 5//23 20//23 21//23
f 20//24 9//24 21//24
f 10//25 1//25 22//25
f 7//26 10//26 22//26
f 1//27 15//27 22//27
f 15//28 7//28 22//28
f 3//29 7//29 23//29
f 7//30 8//30 23//30
f 2//31 13//31 23//31
f 13//32 3//32 23//32
f 18//33 2//33 23//33
f 8//34 18//34 23//34
f 2//35 15//35 24//35
f 4//36 16//36 24//36
f 16//37 2//37 24//37
f 19//38 4//38 24//38
f 15//39 19//39 24//39
f 6//40 2//40 25//40
f 9//41 6//41 25//41
f 2//42 11//42 25//42
f 17//43 9//43 25//43
f 11//44 17//44 25//44
f 11//45 2//45 26//45
f 16//46 4//46 26//46
f 2//47 16//47 26//47
f 4//48 17//48 26//48
