# Blender v2.79 (sub 0) OBJ File: ''
# www.blender.org
mtllib 1556_link_0_157.mtl
o Shape_IndexedFaceSet.157_Shape_IndexedFaceSet.1854
v -0.239083 0.569371 0.225456
v -0.168215 0.579318 0.235472
v -0.167450 0.565965 0.235691
v -0.164153 0.580865 0.214280
v -0.222759 0.551780 0.214816
v -0.220830 0.550345 0.237173
v -0.228838 0.579610 0.235691
v -0.229126 0.578138 0.216326
v -0.167450 0.565965 0.215222
vn 0.2481 -0.9651 -0.0834
vn 0.9796 0.0593 0.1921
vn 0.0226 0.0177 0.9996
vn -0.7272 -0.6862 0.0187
vn -0.6303 -0.1338 0.7647
vn 0.0051 0.9973 0.0738
vn 0.0039 0.0516 0.9987
vn -0.0442 0.9962 -0.0751
vn -0.6201 -0.1053 -0.7774
vn -0.0335 0.0491 -0.9982
vn -0.6832 0.7288 -0.0452
vn 0.9764 -0.2160 0.0000
vn 0.0249 -0.0686 -0.9973
vn 0.2808 -0.9598 0.0000
usemtl Shape.1858
s off
f 6//1 5//1 9//1
f 2//2 3//2 4//2
f 3//3 2//3 6//3
f 1//4 5//4 6//4
f 1//5 6//5 7//5
f 2//6 4//6 7//6
f 6//7 2//7 7//7
f 7//8 4//8 8//8
f 5//9 1//9 8//9
f 4//10 5//10 8//10
f 1//11 7//11 8//11
f 4//12 3//12 9//12
f 5//13 4//13 9//13
f 3//14 6//14 9//14
