# Blender v2.79 (sub 0) OBJ File: ''
# www.blender.org
mtllib 1556_link_0_2.mtl
o Shape_IndexedFaceSet.002_Shape_IndexedFaceSet.1699
v -0.007128 0.463612 0.099247
v -0.184482 0.419273 0.048083
v -0.184482 0.419273 0.071952
v -0.184482 0.470444 0.140153
v -0.003730 0.419273 0.078773
v -0.003730 0.467028 0.153817
v -0.184482 0.470444 0.095831
v -0.003730 0.429516 0.058310
v -0.167423 0.467028 0.153817
v -0.194427 0.442974 0.061190
v -0.003730 0.470444 0.112869
v -0.003730 0.419273 0.054904
v -0.003730 0.470444 0.153817
v -0.003730 0.443161 0.071952
v -0.177651 0.419273 0.075368
v -0.181067 0.426105 0.048083
vn 0.0486 0.3152 -0.9478
vn 0.0000 -1.0000 0.0000
vn 1.0000 0.0000 -0.0000
vn -0.5396 -0.6735 0.5053
vn 0.0000 -0.8437 0.5369
vn -0.9221 -0.3869 0.0000
vn -0.9313 -0.2915 0.2187
vn -0.9403 0.3404 0.0000
vn 0.0430 0.8887 -0.4565
vn 0.0000 1.0000 0.0000
vn -0.0201 0.9637 0.2661
vn 0.0000 0.0000 1.0000
vn 0.0424 0.8021 -0.5957
vn 0.0346 0.7782 -0.6271
vn 0.0392 0.7065 -0.7066
vn 0.4827 0.7287 -0.4859
vn -0.2633 -0.8084 0.5264
vn -0.0102 -0.8535 0.5209
vn -0.4991 0.2495 -0.8298
vn 0.0327 0.6292 -0.7765
vn 0.0377 -0.0188 -0.9991
usemtl Shape.1703
s off
f 8//1 12//1 16//1
f 3//2 2//2 5//2
f 6//3 5//3 8//3
f 4//4 3//4 9//4
f 5//5 6//5 9//5
f 2//6 3//6 10//6
f 3//7 4//7 10//7
f 4//8 7//8 10//8
f 1//9 7//9 11//9
f 7//10 4//10 11//10
f 6//3 8//3 11//3
f 5//2 2//2 12//2
f 8//3 5//3 12//3
f 4//11 9//11 13//11
f 9//12 6//12 13//12
f 11//10 4//10 13//10
f 6//3 11//3 13//3
f 7//13 1//13 14//13
f 10//14 7//14 14//14
f 8//15 10//15 14//15
f 1//16 11//16 14//16
f 11//3 8//3 14//3
f 3//2 5//2 15//2
f 9//17 3//17 15//17
f 5//18 9//18 15//18
f 2//19 10//19 16//19
f 10//20 8//20 16//20
f 12//21 2//21 16//21
