# Blender v2.79 (sub 0) OBJ File: ''
# www.blender.org
mtllib 1556_link_1_11.mtl
o Shape_IndexedFaceSet.011_Shape_IndexedFaceSet.3507
v -0.270644 -0.891336 -0.187016
v -0.232115 -0.373920 -0.027386
v -0.259634 -0.373920 -0.027386
v -0.248632 -0.373920 -0.269592
v -0.232115 -0.891336 -0.027386
v -0.248632 -0.885808 -0.269592
v -0.270644 -0.373920 -0.269592
v -0.265137 -0.880330 -0.049412
v -0.270644 -0.896864 -0.269592
v -0.270644 -0.373920 -0.175991
v -0.265137 -0.373920 -0.049412
v -0.259634 -0.891336 -0.032911
v -0.232115 -0.885808 -0.038411
v -0.270644 -0.880330 -0.153966
v -0.232115 -0.379448 -0.038411
vn 0.9975 0.0000 -0.0713
vn 0.0000 1.0000 0.0000
vn 0.0000 0.0000 1.0000
vn 0.0000 0.0000 -1.0000
vn 0.4483 -0.8925 -0.0509
vn -1.0000 0.0000 0.0000
vn -0.9702 0.0000 0.2424
vn -0.1968 -0.0105 0.9804
vn -0.9287 -0.3649 0.0664
vn -0.9493 -0.0034 0.3143
vn -0.6829 -0.7288 0.0488
vn -0.0047 -0.9997 0.0236
vn 1.0000 0.0000 0.0000
vn 0.9875 -0.1407 -0.0706
vn -0.9864 -0.1560 0.0520
vn -0.9986 0.0000 0.0526
vn -0.9991 0.0019 0.0435
vn 0.9886 0.1345 -0.0674
usemtl Shape.3511
s off
f 13//1 4//1 15//1
f 3//2 2//2 4//2
f 2//3 3//3 5//3
f 3//2 4//2 7//2
f 4//4 6//4 7//4
f 6//5 5//5 9//5
f 1//6 7//6 9//6
f 7//4 6//4 9//4
f 7//6 1//6 10//6
f 3//2 7//2 10//2
f 8//7 3//7 11//7
f 3//2 10//2 11//2
f 5//8 3//8 12//8
f 8//9 1//9 12//9
f 3//10 8//10 12//10
f 1//11 9//11 12//11
f 9//12 5//12 12//12
f 2//13 5//13 13//13
f 6//1 4//1 13//1
f 5//14 6//14 13//14
f 1//15 8//15 14//15
f 10//6 1//6 14//6
f 8//16 11//16 14//16
f 11//17 10//17 14//17
f 4//18 2//18 15//18
f 2//13 13//13 15//13
