# Blender v2.79 (sub 0) OBJ File: ''
# www.blender.org
mtllib 1556_link_0_95.mtl
o Shape_IndexedFaceSet.095_Shape_IndexedFaceSet.1792
v -0.177677 0.538668 0.467668
v -0.211791 0.518212 0.460846
v -0.208375 0.511387 0.460846
v -0.204962 0.507970 0.484722
v -0.204962 0.552313 0.484722
v -0.184189 0.507231 0.485091
v -0.204962 0.555725 0.460846
v -0.177677 0.555725 0.481309
v -0.184506 0.507970 0.460846
v -0.178322 0.554822 0.461298
v -0.211791 0.545488 0.484722
vn -0.7033 0.7037 0.1006
vn -0.8924 -0.4467 0.0636
vn 0.0000 0.0000 -1.0000
vn -0.1055 0.9844 0.1407
vn 0.9813 -0.1201 0.1501
vn 0.1163 0.0617 0.9913
vn -0.1407 -0.9827 -0.1205
vn 0.9769 -0.2130 -0.0193
vn -0.0350 -0.9989 -0.0300
vn 0.0172 0.0074 -0.9998
vn 0.0346 0.9983 -0.0462
vn 0.9991 0.0267 -0.0334
vn 0.9138 -0.1169 -0.3889
vn -0.9639 -0.1754 0.2004
vn -0.0179 -0.0033 0.9998
vn -0.0056 0.0056 1.0000
vn -0.9639 0.1755 -0.2005
usemtl Shape.1796
s off
f 5//1 7//1 11//1
f 2//2 3//2 4//2
f 3//3 2//3 7//3
f 7//4 5//4 8//4
f 6//5 1//5 8//5
f 5//6 6//6 8//6
f 4//7 3//7 9//7
f 1//8 6//8 9//8
f 6//9 4//9 9//9
f 3//3 7//3 9//3
f 9//10 7//10 10//10
f 7//11 8//11 10//11
f 8//12 1//12 10//12
f 1//13 9//13 10//13
f 2//14 4//14 11//14
f 4//15 6//15 11//15
f 6//16 5//16 11//16
f 7//17 2//17 11//17
