# Blender v2.79 (sub 0) OBJ File: ''
# www.blender.org
mtllib 1556_link_0_184.mtl
o Shape_IndexedFaceSet.184_Shape_IndexedFaceSet.1881
v 0.167330 0.511091 0.402970
v 0.197579 0.562553 0.382381
v 0.057711 0.562553 0.382381
v 0.168066 0.510611 0.382069
v 0.056781 0.562893 0.402986
v 0.187531 0.561249 0.402328
v 0.057711 0.548900 0.402850
v 0.189349 0.522733 0.402110
v 0.057711 0.552310 0.382381
v 0.185029 0.512381 0.382777
vn 0.9663 -0.2424 -0.0861
vn 0.0000 0.0060 -1.0000
vn 0.0000 0.9999 -0.0165
vn 0.0052 0.0107 0.9999
vn 0.0129 0.9973 0.0717
vn -0.3261 -0.9453 0.0102
vn -0.0046 -0.0100 0.9999
vn 0.0410 -0.0037 0.9992
vn 0.8914 0.0395 0.4516
vn -0.0028 0.0000 -1.0000
vn -0.9990 0.0000 -0.0451
vn -0.3496 -0.9241 -0.1540
vn -0.9977 -0.0662 -0.0110
vn 0.1027 -0.9944 0.0265
vn 0.0437 -0.0188 -0.9989
vn 0.4497 -0.8253 0.3414
usemtl Shape.1885
s off
f 2//1 8//1 10//1
f 3//2 2//2 4//2
f 2//3 3//3 5//3
f 5//4 1//4 6//4
f 2//5 5//5 6//5
f 4//6 1//6 7//6
f 1//7 5//7 7//7
f 6//8 1//8 8//8
f 2//9 6//9 8//9
f 3//10 4//10 9//10
f 5//11 3//11 9//11
f 4//12 7//12 9//12
f 7//13 5//13 9//13
f 1//14 4//14 10//14
f 4//15 2//15 10//15
f 8//16 1//16 10//16
