# Blender v2.79 (sub 0) OBJ File: ''
# www.blender.org
mtllib 1556_link_1_85.mtl
o Shape_IndexedFaceSet.085_Shape_IndexedFaceSet.3581
v -0.093472 0.033683 0.815311
v -0.168763 0.033042 0.858902
v -0.168013 0.077742 0.875619
v 0.015579 0.077464 0.814829
v 0.148097 0.033367 0.847848
v -0.017376 0.033426 0.897399
v 0.148209 0.077538 0.836789
v -0.160530 0.060950 0.897399
v 0.076115 0.038940 0.814829
v 0.147677 0.033426 0.886375
v 0.136377 0.075877 0.894425
v -0.055952 0.071959 0.814829
v -0.166028 0.033426 0.886375
v -0.151611 0.076166 0.894967
v 0.136682 0.060950 0.897399
vn 0.0000 0.1578 0.9875
vn -0.4776 0.3148 -0.8203
vn 0.0005 -0.9999 -0.0138
vn 0.0001 1.0000 -0.0042
vn 0.0295 -0.9731 -0.2286
vn 0.1581 0.2484 -0.9557
vn 0.3919 -0.2244 -0.8922
vn 0.0011 -1.0000 0.0015
vn 0.0005 -1.0000 0.0079
vn 0.9999 0.0002 0.0109
vn 0.9552 0.2159 0.2023
vn 0.0043 0.9996 0.0297
vn -0.4205 0.4020 -0.8134
vn -0.0747 0.9703 -0.2300
vn -0.0025 -0.0101 -0.9999
vn -0.0000 0.0000 -1.0000
vn -0.9948 -0.0205 0.0993
vn -0.0010 -0.9999 0.0141
vn -0.9338 0.0443 0.3550
vn -0.0690 -0.3590 0.9308
vn -0.6512 0.4762 0.5909
vn 0.0012 0.9968 0.0802
vn 0.0020 0.1954 0.9807
vn 0.0000 0.0000 1.0000
vn 0.0624 -0.3495 0.9349
vn 0.8389 0.1228 0.5302
usemtl Shape.3585
s off
f 14//1 8//1 15//1
f 1//2 2//2 3//2
f 2//3 1//3 5//3
f 4//4 3//4 7//4
f 5//5 1//5 9//5
f 4//6 7//6 9//6
f 7//7 5//7 9//7
f 2//8 5//8 10//8
f 6//9 2//9 10//9
f 5//10 7//10 10//10
f 10//11 7//11 11//11
f 7//12 3//12 11//12
f 1//13 3//13 12//13
f 3//14 4//14 12//14
f 9//15 1//15 12//15
f 4//16 9//16 12//16
f 3//17 2//17 13//17
f 2//18 6//18 13//18
f 8//19 3//19 13//19
f 6//20 8//20 13//20
f 3//21 8//21 14//21
f 11//22 3//22 14//22
f 11//23 14//23 15//23
f 8//24 6//24 15//24
f 6//25 10//25 15//25
f 10//26 11//26 15//26
