# Blender v2.79 (sub 0) OBJ File: ''
# www.blender.org
mtllib 1556_link_1_50.mtl
o Shape_IndexedFaceSet.050_Shape_IndexedFaceSet.3546
v -0.226612 -0.082134 0.297390
v -0.276152 -0.137192 -0.401705
v -0.276152 0.137988 -0.401705
v -0.254296 -0.141326 -0.412208
v -0.248629 0.132466 -0.319108
v -0.248629 0.137988 0.297390
v -0.221106 0.132466 0.291778
v -0.219532 -0.145058 0.113654
v -0.265139 -0.137192 -0.010962
v -0.248629 -0.027104 0.297390
v -0.254295 0.142112 -0.412181
v -0.276152 0.137988 -0.313565
v -0.259637 0.137988 0.121179
v -0.259637 -0.137192 0.077109
v -0.276152 -0.137192 -0.313565
v -0.221590 -0.080681 0.291234
v -0.259637 -0.082134 0.121179
v -0.226612 0.137988 0.297390
v -0.243128 -0.137192 0.137671
v -0.243128 -0.054632 0.297390
vn -0.8285 -0.4975 0.2572
vn -0.4331 0.0000 -0.9013
vn 0.9984 0.0345 -0.0450
vn 0.0000 0.0000 1.0000
vn -0.4322 0.0001 -0.9018
vn 0.9876 0.1508 -0.0445
vn 0.9978 0.0000 -0.0660
vn 0.9982 0.0118 -0.0595
vn -1.0000 0.0000 0.0000
vn -0.1854 0.9827 0.0000
vn -0.1590 0.9873 0.0060
vn -0.9981 0.0000 0.0623
vn -0.1061 0.9943 0.0066
vn -0.9993 0.0018 0.0380
vn -0.2036 -0.9790 0.0127
vn -0.1859 -0.9826 0.0000
vn -0.1679 -0.9858 0.0041
vn -0.1881 -0.9821 0.0068
vn -0.9993 0.0000 0.0364
vn 0.7753 -0.0034 0.6316
vn 0.5722 -0.7688 0.2854
vn 0.9999 -0.0023 0.0124
vn -0.9991 0.0000 0.0416
vn -0.9968 -0.0498 0.0623
vn -0.9944 -0.0663 0.0828
vn 0.7138 0.0000 0.7003
vn 0.0000 1.0000 0.0058
vn 0.6962 0.7175 -0.0230
vn 0.0150 -0.9458 0.3245
vn -0.2519 -0.9653 0.0687
vn -0.8599 -0.4535 0.2344
vn -0.9702 -0.1939 0.1454
usemtl Shape.3550
s off
f 19//1 1//1 20//1
f 2//2 3//2 4//2
f 5//3 7//3 8//3
f 1//4 6//4 10//4
f 4//5 3//5 11//5
f 7//6 5//6 11//6
f 8//7 4//7 11//7
f 5//8 8//8 11//8
f 3//9 2//9 12//9
f 11//10 3//10 12//10
f 11//11 12//11 13//11
f 10//12 6//12 13//12
f 6//13 11//13 13//13
f 12//14 9//14 13//14
f 9//15 8//15 14//15
f 2//16 4//16 15//16
f 4//17 8//17 15//17
f 8//18 9//18 15//18
f 12//9 2//9 15//9
f 9//19 12//19 15//19
f 7//20 1//20 16//20
f 1//21 8//21 16//21
f 8//22 7//22 16//22
f 10//12 13//12 17//12
f 13//23 9//23 17//23
f 9//24 14//24 17//24
f 14//25 10//25 17//25
f 6//4 1//4 18//4
f 1//26 7//26 18//26
f 11//27 6//27 18//27
f 7//28 11//28 18//28
f 8//29 1//29 19//29
f 14//30 8//30 19//30
f 14//31 19//31 20//31
f 1//4 10//4 20//4
f 10//32 14//32 20//32
