# Blender v2.79 (sub 0) OBJ File: ''
# www.blender.org
mtllib 1556_link_0_120.mtl
o Shape_IndexedFaceSet.120_Shape_IndexedFaceSet.1817
v 0.211224 0.548901 0.266393
v 0.177110 0.514801 0.239107
v 0.177110 0.514801 0.266393
v 0.194167 0.559141 0.266393
v 0.211224 0.559141 0.239107
v 0.200989 0.518209 0.239107
v 0.197577 0.514801 0.266393
v 0.197577 0.559141 0.239107
vn 0.0000 0.0000 -1.0000
vn -0.9333 0.3590 0.0000
vn 0.0000 0.0000 1.0000
vn 0.4900 0.8162 0.3063
vn 0.9661 -0.2416 -0.0907
vn 0.0000 -1.0000 0.0000
vn 0.1405 -0.9845 -0.1054
vn 0.9262 -0.3707 0.0695
vn -0.9022 0.4164 -0.1127
vn 0.0000 1.0000 0.0000
usemtl Shape.1821
s off
f 5//1 2//1 8//1
f 2//2 3//2 4//2
f 3//3 1//3 4//3
f 4//4 1//4 5//4
f 2//1 5//1 6//1
f 5//5 1//5 6//5
f 1//3 3//3 7//3
f 3//6 2//6 7//6
f 2//7 6//7 7//7
f 6//8 1//8 7//8
f 2//9 4//9 8//9
f 4//10 5//10 8//10
