# Blender v2.79 (sub 0) OBJ File: ''
# www.blender.org
mtllib 1556_link_1_32.mtl
o Shape_IndexedFaceSet.032_Shape_IndexedFaceSet.3528
v 0.208266 -0.373920 -0.478761
v 0.252290 -0.203292 -0.407224
v 0.252290 -0.203292 -0.418229
v 0.180743 -0.203292 -0.462250
v 0.230271 -0.373920 -0.407224
v 0.208266 -0.203292 -0.478761
v 0.181184 -0.372867 -0.483799
v 0.246785 -0.373920 -0.434741
v 0.230271 -0.203292 -0.407224
v 0.180743 -0.373920 -0.462250
v 0.230271 -0.203292 -0.462250
v 0.252290 -0.373920 -0.407224
v 0.181184 -0.204344 -0.483799
vn 0.1829 0.0000 -0.9831
vn 0.0000 1.0000 0.0000
vn 0.0000 -1.0000 0.0000
vn -0.7433 0.0000 0.6690
vn 0.0000 0.0000 1.0000
vn -0.9998 0.0000 -0.0205
vn -0.0296 -0.9983 -0.0494
vn 0.6002 0.0000 -0.7999
vn 0.8943 0.0144 -0.4473
vn 0.7521 -0.0333 -0.6582
vn 1.0000 0.0000 0.0000
vn 0.9805 -0.0127 -0.1962
vn -0.0296 0.9983 -0.0493
usemtl Shape.3532
s off
f 6//1 7//1 13//1
f 2//2 3//2 4//2
f 4//2 3//2 6//2
f 6//1 1//1 7//1
f 5//3 1//3 8//3
f 2//2 4//2 9//2
f 4//4 5//4 9//4
f 5//5 2//5 9//5
f 1//3 5//3 10//3
f 5//4 4//4 10//4
f 4//6 7//6 10//6
f 7//7 1//7 10//7
f 1//8 6//8 11//8
f 6//2 3//2 11//2
f 3//9 8//9 11//9
f 8//10 1//10 11//10
f 3//11 2//11 12//11
f 2//5 5//5 12//5
f 8//12 3//12 12//12
f 5//3 8//3 12//3
f 4//13 6//13 13//13
f 7//6 4//6 13//6
