# Blender v2.79 (sub 0) OBJ File: ''
# www.blender.org
mtllib 1556_link_1_36.mtl
o Shape_IndexedFaceSet.036_Shape_IndexedFaceSet.3532
v -0.232108 -0.346378 -0.032891
v -0.210094 -0.203292 0.060688
v -0.237609 -0.203292 0.060688
v -0.182573 -0.373920 0.033162
v -0.237609 -0.373920 0.005655
v -0.182573 -0.291328 0.022152
v -0.242259 -0.259671 -0.015045
v -0.182573 -0.230817 0.060688
v -0.226602 -0.252830 0.060688
v -0.182573 -0.373920 0.005655
v -0.232108 -0.208803 0.016647
v -0.237609 -0.373920 -0.032891
v -0.182573 -0.285867 0.060688
vn 0.0000 0.0000 1.0000
vn -0.9964 -0.0260 0.0805
vn 0.5992 0.2281 -0.7674
vn 1.0000 0.0000 0.0000
vn -0.4198 -0.3436 0.8400
vn -0.8101 -0.1800 0.5580
vn 0.0000 -1.0000 0.0000
vn 0.6572 0.1476 -0.7391
vn 0.0000 0.9923 -0.1242
vn -0.9462 0.2846 -0.1538
vn 0.6180 0.3232 -0.7167
vn 0.7031 0.3820 -0.5998
vn 0.6468 0.6467 -0.4042
vn -0.5416 0.1082 -0.8336
vn -0.9992 -0.0407 0.0000
vn 0.5699 -0.1138 -0.8138
vn -0.2185 -0.2912 0.9314
usemtl Shape.3536
s off
f 8//1 9//1 13//1
f 5//2 3//2 7//2
f 6//3 1//3 7//3
f 2//1 3//1 8//1
f 4//4 6//4 8//4
f 5//5 4//5 9//5
f 3//6 5//6 9//6
f 8//1 3//1 9//1
f 4//7 5//7 10//7
f 1//8 6//8 10//8
f 6//4 4//4 10//4
f 3//9 2//9 11//9
f 7//10 3//10 11//10
f 6//11 7//11 11//11
f 8//12 6//12 11//12
f 2//13 8//13 11//13
f 7//14 1//14 12//14
f 5//15 7//15 12//15
f 1//16 10//16 12//16
f 10//7 5//7 12//7
f 4//4 8//4 13//4
f 9//17 4//17 13//17
