# Blender v2.79 (sub 0) OBJ File: ''
# www.blender.org
mtllib 1556_link_0_192.mtl
o Shape_IndexedFaceSet.192_Shape_IndexedFaceSet.1889
v -0.174248 0.535261 0.488138
v -0.085577 0.552318 0.498367
v -0.085577 0.552318 0.484724
v -0.174248 0.552318 0.484724
v -0.174248 0.548906 0.501779
v -0.085577 0.535261 0.501779
v -0.085577 0.538674 0.484724
v -0.174248 0.535261 0.501779
vn 0.0000 -1.0000 0.0000
vn 0.0000 1.0000 0.0000
vn -1.0000 0.0000 0.0000
vn -0.0302 0.9801 0.1961
vn 0.0302 0.1961 0.9801
vn 1.0000 0.0000 0.0000
vn 0.0000 0.0000 -1.0000
vn -0.0302 -0.1962 -0.9801
vn 0.0302 -0.9801 -0.1961
vn 0.0000 0.0000 1.0000
usemtl Shape.1893
s off
f 1//1 6//1 8//1
f 2//2 3//2 4//2
f 4//3 1//3 5//3
f 2//4 4//4 5//4
f 2//5 5//5 6//5
f 3//6 2//6 6//6
f 3//6 6//6 7//6
f 4//7 3//7 7//7
f 1//8 4//8 7//8
f 6//9 1//9 7//9
f 5//3 1//3 8//3
f 6//10 5//10 8//10
