# Blender v2.79 (sub 0) OBJ File: ''
# www.blender.org
mtllib 1556_link_1_10.mtl
o Shape_IndexedFaceSet.010_Shape_IndexedFaceSet.3506
v 0.180721 -0.373920 -0.462256
v 0.191745 -0.896864 -0.484270
v 0.010091 -0.373920 -0.489779
v 0.180721 -0.373920 -0.489779
v 0.186233 -0.896864 -0.462256
v 0.010091 -0.373920 -0.467766
v 0.010091 -0.891336 -0.489779
v 0.010091 -0.891336 -0.467766
v 0.180721 -0.885808 -0.489779
v 0.191745 -0.373920 -0.462256
v 0.191745 -0.373920 -0.484270
vn 1.0000 0.0000 0.0000
vn 0.0000 1.0000 0.0000
vn 0.0000 0.0000 -1.0000
vn -0.0302 -0.9995 -0.0076
vn -1.0000 -0.0000 0.0000
vn -0.0313 -0.0003 0.9995
vn -0.0323 0.0000 0.9995
vn -0.0314 -0.9995 0.0000
vn 0.4470 0.0000 -0.8945
vn 0.0141 -0.4347 -0.9005
vn 0.0000 0.0000 1.0000
vn 0.9700 -0.0102 0.2429
usemtl Shape.3510
s off
f 10//1 2//1 11//1
f 3//2 1//2 4//2
f 1//2 3//2 6//2
f 3//3 4//3 7//3
f 2//4 5//4 7//4
f 6//5 3//5 7//5
f 6//5 7//5 8//5
f 5//6 1//6 8//6
f 1//7 6//7 8//7
f 7//8 5//8 8//8
f 4//9 2//9 9//9
f 2//10 7//10 9//10
f 7//3 4//3 9//3
f 4//2 1//2 10//2
f 1//11 5//11 10//11
f 5//12 2//12 10//12
f 2//9 4//9 11//9
f 4//2 10//2 11//2
