# Blender v2.79 (sub 0) OBJ File: ''
# www.blender.org
mtllib 1556_link_0_14.mtl
o Shape_IndexedFaceSet.014_Shape_IndexedFaceSet.1711
v -0.184482 0.296470 0.007128
v -0.003730 0.357855 0.034417
v -0.003730 0.351035 0.034417
v -0.184482 0.357855 0.034417
v -0.181067 0.351035 0.010542
v -0.003730 0.293051 0.020773
v -0.003730 0.333982 0.010542
v -0.170821 0.296470 0.024178
v -0.003730 0.357855 0.017364
v -0.003730 0.293051 0.010542
v -0.184482 0.357855 0.013953
v -0.184482 0.293051 0.017364
v -0.003730 0.296470 0.024178
v -0.170821 0.347622 0.034417
v -0.181067 0.333982 0.007128
vn -0.5065 0.1693 -0.8455
vn 0.0000 0.0000 1.0000
vn 1.0000 0.0000 0.0000
vn 0.0000 1.0000 0.0000
vn 0.0264 0.2747 -0.9612
vn -1.0000 -0.0000 0.0000
vn 0.0168 0.4540 -0.8909
vn -0.3862 -0.2347 0.8920
vn -0.0087 -0.8866 0.4624
vn -0.0120 -0.9484 -0.3168
vn 0.0000 -1.0000 0.0000
vn 0.0000 -0.7057 0.7086
vn 0.0000 -0.1963 0.9805
vn -0.1455 -0.1942 0.9701
vn 0.0038 -0.1844 0.9828
vn 0.0189 0.1963 -0.9804
vn 0.0189 -0.0017 -0.9998
vn 0.0192 0.0000 -0.9998
vn -0.7718 0.0703 -0.6320
usemtl Shape.1715
s off
f 11//1 5//1 15//1
f 3//2 2//2 4//2
f 2//3 3//3 6//3
f 2//3 6//3 7//3
f 4//4 2//4 9//4
f 7//5 5//5 9//5
f 2//3 7//3 9//3
f 7//3 6//3 10//3
f 1//6 4//6 11//6
f 4//4 9//4 11//4
f 9//7 5//7 11//7
f 4//6 1//6 12//6
f 8//8 4//8 12//8
f 6//9 8//9 12//9
f 1//10 10//10 12//10
f 10//11 6//11 12//11
f 6//3 3//3 13//3
f 8//12 6//12 13//12
f 8//13 13//13 14//13
f 3//2 4//2 14//2
f 4//14 8//14 14//14
f 13//15 3//15 14//15
f 5//16 7//16 15//16
f 10//17 1//17 15//17
f 7//18 10//18 15//18
f 1//19 11//19 15//19
