# Blender v2.79 (sub 0) OBJ File: ''
# www.blender.org
mtllib 1556_link_0_202.mtl
o Shape_IndexedFaceSet.202_Shape_IndexedFaceSet.1899
v 0.183933 0.535260 0.529072
v 0.180522 0.521616 0.525661
v 0.180522 0.521616 0.529072
v 0.180522 0.535260 0.525661
v 0.183933 0.521616 0.525661
vn 0.0000 0.0000 -1.0000
vn -1.0000 0.0000 0.0000
vn -0.6963 0.1741 0.6963
vn 0.6963 0.1741 -0.6963
vn 0.6963 -0.1741 0.6963
vn 0.0000 -1.0000 0.0000
usemtl Shape.1903
s off
f 2//1 4//1 5//1
f 2//2 3//2 4//2
f 3//3 1//3 4//3
f 4//4 1//4 5//4
f 1//5 3//5 5//5
f 3//6 2//6 5//6
