# Blender v2.79 (sub 0) OBJ File: ''
# www.blender.org
mtllib 1556_link_1_74.mtl
o Shape_IndexedFaceSet.074_Shape_IndexedFaceSet.3570
v -0.248632 0.253613 0.286338
v -0.276152 0.138027 -0.412714
v -0.276152 0.253613 -0.412714
v -0.218862 0.252363 0.237077
v -0.226617 0.138027 0.297390
v -0.248632 0.141358 -0.427510
v -0.259633 0.138027 0.121184
v -0.248632 0.250261 -0.427448
v -0.276152 0.253613 -0.313594
v -0.219375 0.257259 0.319785
v -0.248632 0.138027 0.297390
v -0.259633 0.253613 0.121184
v -0.226617 0.138027 0.209252
v -0.276152 0.138027 -0.313594
vn -0.9993 0.0000 0.0380
vn -0.4735 0.0000 -0.8808
vn 0.0000 -1.0000 0.0000
vn -0.4720 0.0005 -0.8816
vn 0.9990 0.0000 -0.0448
vn -1.0000 0.0000 0.0000
vn 0.9980 -0.0625 0.0099
vn 0.1136 0.9934 -0.0138
vn 0.7391 0.6727 -0.0352
vn -0.0641 0.9979 0.0000
vn -0.7546 0.0625 0.6532
vn 0.0000 -0.1846 0.9828
vn -0.1337 0.9910 0.0089
vn -0.1108 0.9938 0.0042
vn -0.9978 0.0064 0.0665
vn -0.9981 0.0000 0.0623
vn 0.9977 -0.0677 0.0000
vn 0.1153 -0.9933 -0.0092
vn 0.9976 -0.0592 -0.0348
usemtl Shape.3574
s off
f 7//1 9//1 14//1
f 2//2 3//2 6//2
f 2//3 5//3 7//3
f 6//4 3//4 8//4
f 4//5 6//5 8//5
f 3//6 2//6 9//6
f 5//7 4//7 10//7
f 8//8 3//8 10//8
f 4//9 8//9 10//9
f 3//10 9//10 10//10
f 7//3 5//3 11//3
f 10//11 1//11 11//11
f 5//12 10//12 11//12
f 9//1 7//1 12//1
f 1//13 10//13 12//13
f 10//14 9//14 12//14
f 11//15 1//15 12//15
f 7//16 11//16 12//16
f 4//17 5//17 13//17
f 5//3 2//3 13//3
f 2//18 6//18 13//18
f 6//19 4//19 13//19
f 2//3 7//3 14//3
f 9//6 2//6 14//6
