# Blender v2.79 (sub 0) OBJ File: ''
# www.blender.org
mtllib 1556_link_0_34.mtl
o Shape_IndexedFaceSet.034_Shape_IndexedFaceSet.1731
v -0.201564 0.572787 -0.484118
v -0.266374 0.470464 -0.429547
v -0.266374 0.470464 -0.422713
v -0.191323 0.470464 -0.470468
v -0.250248 0.575119 -0.421313
v -0.239082 0.470464 -0.467060
v -0.262958 0.572787 -0.439771
v -0.191960 0.576955 -0.468171
v -0.249315 0.470464 -0.422713
v -0.201564 0.470464 -0.484118
v -0.228848 0.572787 -0.473876
v -0.266374 0.572787 -0.422713
v -0.193183 0.570250 -0.482596
v -0.262958 0.470464 -0.439771
v -0.252724 0.572787 -0.453416
v -0.215206 0.470464 -0.480698
vn -0.3514 0.0156 -0.9361
vn 0.0000 -1.0000 0.0000
vn 0.0000 -0.0134 0.9999
vn 0.6356 -0.0128 0.7719
vn 0.6266 -0.0048 0.7793
vn -0.0780 0.9750 -0.2079
vn -1.0000 0.0000 0.0000
vn -0.0865 0.0000 0.9963
vn -0.9804 0.0131 -0.1963
vn -0.1407 0.9897 -0.0282
vn 0.3320 0.8443 -0.4206
vn 0.9961 0.0079 -0.0881
vn 0.1787 0.0000 -0.9839
vn 0.7986 -0.0579 -0.5991
vn -0.9485 0.0000 -0.3169
vn -0.8000 0.0000 -0.6000
vn -0.0873 0.9940 -0.0655
vn -0.0842 0.9943 -0.0657
vn -0.6506 0.0145 -0.7593
vn -0.0947 0.9894 -0.1105
vn -0.7525 -0.0125 -0.6584
vn -0.2432 0.0000 -0.9700
vn -0.4960 -0.0082 -0.8683
usemtl Shape.1735
s off
f 11//1 1//1 16//1
f 3//2 2//2 4//2
f 4//2 2//2 6//2
f 3//2 4//2 9//2
f 5//3 3//3 9//3
f 4//4 8//4 9//4
f 8//5 5//5 9//5
f 4//2 6//2 10//2
f 8//6 1//6 11//6
f 2//7 3//7 12//7
f 3//8 5//8 12//8
f 7//9 2//9 12//9
f 5//10 7//10 12//10
f 1//11 8//11 13//11
f 8//12 4//12 13//12
f 10//13 1//13 13//13
f 4//14 10//14 13//14
f 6//2 2//2 14//2
f 2//15 7//15 14//15
f 14//16 7//16 15//16
f 7//17 5//17 15//17
f 5//18 8//18 15//18
f 11//19 6//19 15//19
f 8//20 11//20 15//20
f 6//21 14//21 15//21
f 1//22 10//22 16//22
f 10//2 6//2 16//2
f 6//23 11//23 16//23
