# Blender v2.79 (sub 0) OBJ File: ''
# www.blender.org
mtllib 1556_link_0_111.mtl
o Shape_IndexedFaceSet.111_Shape_IndexedFaceSet.1808
v -0.183519 0.484890 0.205254
v -0.205124 0.518621 0.215336
v -0.206243 0.518752 0.204838
v 0.150386 0.493809 0.204470
v 0.146087 0.480004 0.215405
v -0.173329 0.481717 0.214938
v 0.146819 0.479928 0.204784
v 0.150970 0.493900 0.215648
vn 0.9671 -0.2496 -0.0485
vn -0.8281 -0.5547 0.0813
vn -0.0020 -0.0136 -0.9999
vn -0.6530 -0.5680 0.5010
vn -0.0148 -0.9547 -0.2973
vn -0.0018 -0.0222 -0.9998
vn -0.0054 -1.0000 0.0068
vn 0.9409 -0.3318 0.0672
vn 0.0693 0.9976 0.0051
vn 0.0698 0.9975 -0.0118
vn -0.0017 -0.0123 0.9999
vn -0.0016 -0.0169 0.9999
usemtl Shape.1812
s off
f 7//1 4//1 8//1
f 1//2 2//2 3//2
f 1//3 3//3 4//3
f 2//4 1//4 6//4
f 6//5 1//5 7//5
f 1//6 4//6 7//6
f 5//7 6//7 7//7
f 5//8 7//8 8//8
f 3//9 2//9 8//9
f 4//10 3//10 8//10
f 2//11 6//11 8//11
f 6//12 5//12 8//12
