# Blender v2.79 (sub 0) OBJ File: ''
# www.blender.org
mtllib 1556_link_0_119.mtl
o Shape_IndexedFaceSet.119_Shape_IndexedFaceSet.1816
v -0.221995 0.579610 0.266393
v -0.233977 0.559247 0.239243
v -0.231916 0.559373 0.262752
v 0.098615 0.565967 0.239107
v 0.098615 0.562555 0.266393
v 0.098615 0.579610 0.239107
v -0.228800 0.579610 0.239107
v 0.098615 0.579610 0.266393
v -0.219810 0.559060 0.266507
v -0.222108 0.558903 0.238785
vn 0.0110 -0.9999 0.0048
vn 1.0000 0.0000 0.0000
vn -0.8907 0.3967 0.2221
vn -0.9657 0.2461 0.0833
vn 0.0000 1.0000 0.0000
vn -0.2968 -0.0263 0.9546
vn 0.0000 0.0055 1.0000
vn 0.0004 0.0000 1.0000
vn -0.0287 -0.9996 0.0079
vn 0.0220 -0.9920 -0.1240
vn 0.0010 0.0000 -1.0000
vn -0.0385 0.0031 -0.9993
vn 0.0000 0.0155 -0.9999
vn -0.0283 -0.9996 0.0080
usemtl Shape.1820
s off
f 5//1 9//1 10//1
f 5//2 4//2 6//2
f 3//3 1//3 7//3
f 2//4 3//4 7//4
f 1//5 6//5 7//5
f 6//5 1//5 8//5
f 5//2 6//2 8//2
f 1//6 3//6 9//6
f 8//7 1//7 9//7
f 5//8 8//8 9//8
f 3//9 2//9 10//9
f 4//10 5//10 10//10
f 6//11 4//11 10//11
f 2//12 7//12 10//12
f 7//13 6//13 10//13
f 9//14 3//14 10//14
