# Blender v2.79 (sub 0) OBJ File: ''
# www.blender.org
mtllib 1556_link_1_38.mtl
o Shape_IndexedFaceSet.038_Shape_IndexedFaceSet.3534
v 0.142167 -0.318857 0.016655
v 0.153213 -0.236330 0.060688
v 0.153213 -0.285857 0.060688
v -0.072479 -0.285857 0.060688
v 0.153213 -0.373920 0.027664
v -0.072479 -0.340879 0.011146
v -0.072479 -0.247334 0.049670
v -0.072479 -0.373920 0.027664
v 0.145056 -0.368948 0.012937
v 0.153213 -0.274852 0.033173
v 0.059631 -0.368397 0.033173
v -0.072479 -0.241825 0.060688
v -0.067733 -0.371027 0.012188
v -0.072479 -0.291366 0.027664
v 0.153213 -0.340879 0.011146
vn 0.0041 -0.0649 -0.9979
vn 0.0000 0.0000 1.0000
vn 1.0000 0.0000 0.0000
vn -1.0000 -0.0000 0.0000
vn 0.0114 0.5812 -0.8137
vn 0.0000 -0.3162 0.9487
vn 0.0344 -0.3509 0.9358
vn -0.0244 -0.3510 0.9361
vn 0.0000 -0.7062 0.7080
vn -0.0218 0.8942 -0.4471
vn 0.0000 -0.9830 -0.1838
vn -0.9353 -0.1582 -0.3164
vn 0.0104 -0.9457 -0.3250
vn -0.0081 0.3165 -0.9486
vn -0.0029 0.3521 -0.9360
vn -0.0109 0.4470 -0.8945
vn 0.0000 0.2427 -0.9701
vn 0.8019 -0.2671 -0.5344
vn 0.1559 0.3126 -0.9370
vn 0.0000 -0.0345 -0.9994
usemtl Shape.3538
s off
f 9//1 13//1 15//1
f 3//2 2//2 4//2
f 2//3 3//3 5//3
f 6//4 4//4 7//4
f 4//4 6//4 8//4
f 2//3 5//3 10//3
f 7//5 2//5 10//5
f 3//6 4//6 11//6
f 5//7 3//7 11//7
f 4//8 8//8 11//8
f 8//9 5//9 11//9
f 4//2 2//2 12//2
f 2//10 7//10 12//10
f 7//4 4//4 12//4
f 5//11 8//11 13//11
f 8//12 6//12 13//12
f 9//13 5//13 13//13
f 1//14 6//14 14//14
f 6//4 7//4 14//4
f 10//15 1//15 14//15
f 7//16 10//16 14//16
f 6//17 1//17 15//17
f 5//18 9//18 15//18
f 10//3 5//3 15//3
f 1//19 10//19 15//19
f 13//20 6//20 15//20
