# Blender v2.79 (sub 0) OBJ File: ''
# www.blender.org
mtllib 1556_link_0_130.mtl
o Shape_IndexedFaceSet.130_Shape_IndexedFaceSet.1827
v -0.193181 0.556929 0.362603
v -0.225437 0.535268 0.348269
v -0.222020 0.525036 0.348269
v -0.195533 0.568044 0.348624
v -0.222020 0.565955 0.361913
v -0.198151 0.518214 0.361913
v -0.198151 0.518214 0.348269
v -0.218612 0.518214 0.361913
vn -0.2541 -0.8890 -0.3810
vn 0.2303 0.7802 0.5816
vn -0.4352 0.4058 -0.8037
vn 0.0000 0.0000 -1.0000
vn 0.0043 0.0069 -1.0000
vn 0.9777 -0.0499 -0.2042
vn 0.9919 -0.1273 0.0000
vn 0.0000 -1.0000 0.0000
vn -0.9456 -0.3158 0.0783
vn -0.0245 -0.0017 0.9997
vn -0.9229 -0.0659 0.3793
vn 0.0000 -0.0178 0.9998
usemtl Shape.1831
s off
f 3//1 7//1 8//1
f 1//2 4//2 5//2
f 4//3 2//3 5//3
f 3//4 2//4 7//4
f 2//5 4//5 7//5
f 4//6 1//6 7//6
f 1//7 6//7 7//7
f 7//8 6//8 8//8
f 2//9 3//9 8//9
f 1//10 5//10 8//10
f 5//11 2//11 8//11
f 6//12 1//12 8//12
