# Blender v2.79 (sub 0) OBJ File: ''
# www.blender.org
mtllib 1556_link_0_74.mtl
o Shape_IndexedFaceSet.074_Shape_IndexedFaceSet.1771
v -0.190683 0.504261 0.601391
v -0.191692 0.507685 0.601224
v 0.145347 0.494415 0.599210
v 0.132740 0.507967 0.651876
v -0.153792 0.504553 0.655295
v -0.170830 0.477267 0.600723
v 0.129339 0.477267 0.634823
v -0.153792 0.487505 0.651876
v 0.136173 0.477267 0.600723
v 0.122504 0.494321 0.655295
v -0.150326 0.477267 0.634823
v -0.187867 0.507967 0.628006
v -0.178831 0.508454 0.599857
v 0.132740 0.507967 0.641645
v 0.091797 0.480684 0.645053
v -0.146925 0.507967 0.655295
v -0.184466 0.487505 0.621189
v 0.148676 0.490788 0.620674
v 0.129339 0.487505 0.651876
v -0.143556 0.490916 0.655295
vn 0.0000 -0.7073 0.7070
vn -0.1639 -0.0962 -0.9818
vn 0.0000 -0.0879 -0.9961
vn 0.0000 -1.0000 -0.0000
vn -0.6270 -0.1532 0.7638
vn -0.1024 -0.0538 -0.9933
vn -0.0032 -0.0286 -0.9996
vn -0.0599 0.9982 -0.0020
vn 0.7322 0.6811 0.0000
vn 0.0408 0.9553 -0.2930
vn 0.0016 1.0000 0.0000
vn 0.0000 -0.9485 0.3168
vn -0.0096 -0.8582 0.5133
vn 0.0119 0.2346 0.9720
vn 0.0000 0.0000 1.0000
vn -0.3702 0.7446 0.5554
vn 0.0001 1.0000 0.0087
vn -0.0095 0.9999 0.0143
vn -0.9581 -0.2792 0.0646
vn -0.7854 -0.5717 -0.2373
vn -0.3585 -0.9083 0.2155
vn -0.4078 -0.8170 0.4076
vn -0.9681 -0.2077 0.1404
vn -0.6669 -0.3329 0.6666
vn 0.7340 0.6792 0.0009
vn 0.8536 -0.4755 -0.2127
vn 0.6287 -0.7673 0.1260
vn 0.3935 -0.0654 0.9170
vn 0.0621 -0.8557 0.5137
vn 0.8481 -0.1410 0.5108
vn 0.6985 -0.6135 0.3683
vn -0.2534 -0.1902 0.9485
vn -0.0000 -0.7079 0.7063
vn 0.0057 -0.4438 0.8961
usemtl Shape.1775
s off
f 15//1 19//1 20//1
f 1//2 2//2 6//2
f 6//3 3//3 9//3
f 7//4 6//4 9//4
f 6//4 7//4 11//4
f 8//5 5//5 12//5
f 6//6 2//6 13//6
f 3//7 6//7 13//7
f 2//8 12//8 13//8
f 4//9 3//9 14//9
f 3//10 13//10 14//10
f 13//11 4//11 14//11
f 11//12 7//12 15//12
f 8//13 11//13 15//13
f 10//14 4//14 16//14
f 5//15 10//15 16//15
f 12//16 5//16 16//16
f 4//17 13//17 16//17
f 13//18 12//18 16//18
f 2//19 1//19 17//19
f 1//20 6//20 17//20
f 6//21 11//21 17//21
f 11//22 8//22 17//22
f 12//23 2//23 17//23
f 8//24 12//24 17//24
f 3//25 4//25 18//25
f 9//26 3//26 18//26
f 7//27 9//27 18//27
f 4//28 10//28 19//28
f 15//29 7//29 19//29
f 18//30 4//30 19//30
f 7//31 18//31 19//31
f 5//32 8//32 20//32
f 10//15 5//15 20//15
f 8//33 15//33 20//33
f 19//34 10//34 20//34
