# Blender v2.79 (sub 0) OBJ File: ''
# www.blender.org
mtllib 1556_link_0_112.mtl
o Shape_IndexedFaceSet.112_Shape_IndexedFaceSet.1809
v 0.160057 0.480679 0.204989
v 0.200990 0.518201 0.211809
v 0.200990 0.518201 0.208401
v 0.139585 0.494327 0.215221
v 0.177110 0.518201 0.204989
v 0.166885 0.484094 0.215221
vn -0.3080 -0.8216 0.4797
vn -0.3535 0.1607 -0.9215
vn 0.1412 -0.0642 -0.9879
vn 0.0000 1.0000 0.0000
vn -0.2099 0.6449 0.7349
vn 0.6702 -0.7120 -0.2096
vn 0.7071 -0.7071 0.0000
vn 0.0272 0.0725 0.9970
usemtl Shape.1813
s off
f 4//1 1//1 6//1
f 1//2 4//2 5//2
f 3//3 1//3 5//3
f 2//4 3//4 5//4
f 4//5 2//5 5//5
f 1//6 3//6 6//6
f 3//7 2//7 6//7
f 2//8 4//8 6//8
