# Blender v2.79 (sub 0) OBJ File: ''
# www.blender.org
mtllib 1556_link_0_85.mtl
o Shape_IndexedFaceSet.085_Shape_IndexedFaceSet.1782
v -0.020735 0.477267 0.266393
v 0.152690 0.494610 0.280267
v 0.149819 0.494323 0.266393
v -0.020735 0.494323 0.280038
v 0.149819 0.477267 0.280038
v 0.149819 0.477267 0.266393
v -0.020735 0.494323 0.266393
v -0.020735 0.477267 0.280038
vn 0.0000 -0.0132 0.9999
vn 0.9866 -0.1633 0.0000
vn 0.0000 0.0000 -1.0000
vn 0.9793 0.0000 -0.2026
vn 0.0000 -1.0000 0.0000
vn 0.0000 0.9998 -0.0207
vn -0.0017 1.0000 0.0000
vn -1.0000 0.0000 0.0000
vn -0.0013 0.0000 1.0000
usemtl Shape.1786
s off
f 5//1 2//1 8//1
f 2//2 5//2 6//2
f 1//3 3//3 6//3
f 3//4 2//4 6//4
f 5//5 1//5 6//5
f 3//3 1//3 7//3
f 2//6 3//6 7//6
f 4//7 2//7 7//7
f 1//8 4//8 7//8
f 2//9 4//9 8//9
f 4//8 1//8 8//8
f 1//5 5//5 8//5
