# Blender v2.79 (sub 0) OBJ File: ''
# www.blender.org
mtllib 1556_link_0_69.mtl
o Shape_IndexedFaceSet.069_Shape_IndexedFaceSet.1766
v -0.170820 0.477267 0.460844
v 0.177758 0.507748 0.460819
v 0.174981 0.504209 0.460795
v 0.180484 0.507967 0.457433
v -0.200990 0.507924 0.460839
v 0.146345 0.477267 0.460844
vn 0.0000 0.0002 1.0000
vn 0.6754 -0.5334 0.5092
vn -0.0089 -0.0089 -0.9999
vn 0.0005 0.9979 0.0650
vn 0.0001 0.0008 1.0000
vn 0.0309 -0.0310 0.9990
vn 0.6551 -0.6958 0.2946
vn 0.0000 -0.1104 -0.9939
usemtl Shape.1770
s off
f 5//1 1//1 6//1
f 2//2 3//2 4//2
f 4//3 1//3 5//3
f 2//4 4//4 5//4
f 2//5 5//5 6//5
f 3//6 2//6 6//6
f 4//7 3//7 6//7
f 1//8 4//8 6//8
