# Blender v2.79 (sub 0) OBJ File: ''
# www.blender.org
mtllib 1556_link_0_162.mtl
o Shape_IndexedFaceSet.162_Shape_IndexedFaceSet.1859
v -0.017358 0.559141 0.300507
v -0.198146 0.562554 0.280039
v -0.198146 0.576198 0.280039
v -0.017358 0.562554 0.280039
v -0.198146 0.576198 0.300507
v -0.017358 0.576198 0.300507
v -0.198146 0.559141 0.300507
v -0.017358 0.576198 0.280039
vn 1.0000 0.0000 0.0000
vn 0.0000 0.0000 -1.0000
vn 0.0000 -0.9864 -0.1645
vn -1.0000 0.0000 0.0000
vn 0.0000 1.0000 0.0000
vn 0.0000 0.0000 1.0000
usemtl Shape.1863
s off
f 6//1 4//1 8//1
f 2//2 3//2 4//2
f 1//3 2//3 4//3
f 3//4 2//4 5//4
f 3//5 5//5 6//5
f 1//1 4//1 6//1
f 5//6 1//6 6//6
f 2//3 1//3 7//3
f 1//6 5//6 7//6
f 5//4 2//4 7//4
f 4//2 3//2 8//2
f 3//5 6//5 8//5
