# Blender v2.79 (sub 0) OBJ File: ''
# www.blender.org
mtllib 1556_link_1_5.mtl
o Shape_IndexedFaceSet.005_Shape_IndexedFaceSet.3501
v -0.252851 0.277408 -0.184558
v -0.133046 0.402240 -0.098959
v -0.165849 0.280164 -0.087244
v -0.213744 0.280005 -0.076451
v -0.204575 0.396716 -0.181508
v -0.182568 0.363702 -0.181508
v -0.111025 0.380215 -0.082443
v -0.216313 0.279916 -0.176887
v -0.149558 0.396716 -0.082443
v -0.238345 0.280092 -0.113504
v -0.188063 0.396716 -0.131971
v -0.182568 0.396716 -0.181508
v -0.111025 0.380215 -0.087951
vn 0.7944 0.0000 -0.6074
vn 0.0081 -0.9997 0.0211
vn 0.2173 -0.1653 0.9620
vn 0.0769 -0.9962 -0.0405
vn 0.2126 -0.1390 -0.9672
vn 0.3223 0.7527 0.5740
vn 0.0178 0.0415 0.9990
vn -0.0868 -0.9947 0.0553
vn -0.9146 0.3656 0.1729
vn -0.1244 0.9914 0.0415
vn -0.7157 0.4222 0.5564
vn -0.1831 0.9727 0.1423
vn -0.7602 0.4078 0.5057
vn -0.8622 0.4172 0.2874
vn 0.0000 0.9978 -0.0668
vn 0.0000 0.0256 -0.9997
vn 0.0434 0.0000 -0.9991
vn 0.8770 -0.4805 0.0000
vn 0.7072 0.7070 0.0000
vn 0.7857 -0.4337 -0.4411
vn 0.7747 -0.3414 -0.5322
vn 0.7303 0.4946 -0.4712
usemtl Shape.3505
s off
f 6//1 12//1 13//1
f 1//2 3//2 4//2
f 4//3 3//3 7//3
f 3//4 1//4 8//4
f 1//5 6//5 8//5
f 7//6 2//6 9//6
f 4//7 7//7 9//7
f 1//8 4//8 10//8
f 5//9 1//9 10//9
f 2//10 5//10 11//10
f 4//11 9//11 11//11
f 9//12 2//12 11//12
f 10//13 4//13 11//13
f 5//14 10//14 11//14
f 5//15 2//15 12//15
f 1//16 5//16 12//16
f 6//17 1//17 12//17
f 7//18 3//18 13//18
f 2//19 7//19 13//19
f 3//20 8//20 13//20
f 8//21 6//21 13//21
f 12//22 2//22 13//22
