# Blender v2.79 (sub 0) OBJ File: ''
# www.blender.org
mtllib 1556_link_1_4.mtl
o Shape_IndexedFaceSet.004_Shape_IndexedFaceSet.3500
v 0.010022 -0.159233 0.181797
v -0.213694 -0.143020 0.160655
v -0.220469 -0.137266 0.159853
v -0.166026 -0.137224 0.209305
v 0.196939 -0.137245 0.159814
v -0.188058 -0.164742 0.159777
v 0.147658 -0.142728 0.209305
v 0.164203 -0.164742 0.159777
v -0.166026 -0.142728 0.209305
v 0.164203 -0.137224 0.203801
vn 0.4167 -0.7708 0.4818
vn -0.0001 1.0000 -0.0008
vn -0.0001 0.0027 -1.0000
vn -0.6466 -0.7627 -0.0098
vn 0.0000 0.0013 -1.0000
vn 0.0000 -0.9701 0.2427
vn 0.0265 -0.9102 0.4134
vn -0.5722 -0.5951 0.5643
vn -0.6724 0.0000 0.7402
vn -0.5374 -0.6556 0.5305
vn -0.0207 -0.9102 0.4137
vn 0.0000 -0.8575 0.5145
vn 0.0000 0.0000 1.0000
vn -0.0000 1.0000 -0.0005
vn 0.0121 0.6887 0.7250
vn 0.5798 -0.6909 0.4318
usemtl Shape.3504
s off
f 7//1 8//1 10//1
f 3//2 4//2 5//2
f 3//3 5//3 6//3
f 2//4 3//4 6//4
f 6//5 5//5 8//5
f 1//6 6//6 8//6
f 7//7 1//7 8//7
f 3//8 2//8 9//8
f 4//9 3//9 9//9
f 2//10 6//10 9//10
f 6//11 1//11 9//11
f 1//12 7//12 9//12
f 7//13 4//13 9//13
f 5//14 4//14 10//14
f 4//15 7//15 10//15
f 8//16 5//16 10//16
