# Blender v2.79 (sub 0) OBJ File: ''
# www.blender.org
mtllib 1556_link_0_208.mtl
o Shape_IndexedFaceSet.208_Shape_IndexedFaceSet.1905
v -0.061642 0.521612 0.583655
v 0.170262 0.538673 0.573423
v 0.152191 0.500661 0.566379
v -0.061642 0.538673 0.566601
v 0.167376 0.501632 0.583436
v 0.153200 0.538673 0.583655
v 0.170262 0.538673 0.566601
v -0.034366 0.538673 0.583655
v -0.061642 0.525024 0.566601
v 0.151657 0.500770 0.583828
vn 0.0000 0.0046 1.0000
vn 0.0000 1.0000 0.0000
vn 0.5051 0.1883 0.8423
vn 0.0000 0.0058 -1.0000
vn 0.9970 -0.0777 0.0000
vn 0.7130 -0.3354 -0.6157
vn -0.4044 0.6466 0.6468
vn -0.1112 -0.9745 -0.1950
vn -1.0000 0.0000 0.0000
vn -0.0010 0.0000 -1.0000
vn -0.0973 -0.9953 0.0032
vn 0.0550 -0.9985 0.0079
vn 0.0247 0.0036 0.9997
vn -0.0007 0.0011 1.0000
usemtl Shape.1909
s off
f 6//1 8//1 10//1
f 2//2 4//2 6//2
f 5//3 2//3 6//3
f 3//4 4//4 7//4
f 4//2 2//2 7//2
f 2//5 5//5 7//5
f 5//6 3//6 7//6
f 4//7 1//7 8//7
f 6//2 4//2 8//2
f 3//8 1//8 9//8
f 1//9 4//9 9//9
f 4//10 3//10 9//10
f 1//11 3//11 10//11
f 3//12 5//12 10//12
f 5//13 6//13 10//13
f 8//14 1//14 10//14
