# Blender v2.79 (sub 0) OBJ File: ''
# www.blender.org
mtllib 1556_link_0_97.mtl
o Shape_IndexedFaceSet.097_Shape_IndexedFaceSet.1794
v 0.156642 0.552317 0.484722
v 0.003128 0.542085 0.460846
v 0.003128 0.555730 0.460846
v 0.003128 0.538673 0.484722
v 0.156642 0.542085 0.460846
v 0.156642 0.555730 0.460846
v 0.016787 0.555730 0.481309
v 0.156642 0.538673 0.484722
v 0.003128 0.538673 0.471080
vn 0.0000 -1.0000 0.0000
vn -1.0000 0.0000 0.0000
vn 0.0000 0.0000 -1.0000
vn 1.0000 0.0000 0.0000
vn -0.6567 0.6136 0.4384
vn -0.0187 0.2106 0.9774
vn 0.0207 0.9897 0.1415
vn 0.0000 1.0000 -0.0000
vn 0.0000 0.0000 1.0000
vn 0.0126 -0.9899 -0.1415
vn 0.0000 -0.9487 -0.3163
usemtl Shape.1798
s off
f 8//1 4//1 9//1
f 3//2 2//2 4//2
f 2//3 3//3 5//3
f 1//4 5//4 6//4
f 5//3 3//3 6//3
f 3//5 4//5 7//5
f 4//6 1//6 7//6
f 1//7 6//7 7//7
f 6//8 3//8 7//8
f 1//9 4//9 8//9
f 5//4 1//4 8//4
f 5//10 8//10 9//10
f 4//2 2//2 9//2
f 2//11 5//11 9//11
