####
#
# OBJ File Generated by Meshlab
#
####
# Object 100438_link_0_3.obj
#
# Vertices: 21
# Faces: 38
#
####
mtllib ./100438_link_0_3.obj.mtl

vn -0.341885 0.015107 0.939620
v -0.219807 0.945355 0.046388
vn -0.440050 -0.652006 -0.617449
v -0.216559 0.936994 -0.040066
vn 0.009787 -0.386537 -0.922222
v -0.189685 0.923780 -0.044453
vn 0.102490 0.093713 -0.990310
v -0.153735 1.007485 -0.044402
vn 0.565631 -0.585038 0.581198
v -0.065604 0.977158 0.008250
vn -0.024945 0.939122 0.342677
v -0.191287 1.024441 0.032130
vn -0.128542 -0.923340 0.361828
v -0.161796 0.900736 0.027455
vn 0.221163 0.072626 0.972529
v -0.121629 0.999297 0.043512
vn -0.934654 0.253803 -0.249009
v -0.243981 0.959650 -0.013710
vn 0.427152 -0.316602 -0.846938
v -0.073512 0.979165 -0.019155
vn -0.202234 0.940698 -0.272377
v -0.192371 1.025579 -0.028916
vn 0.441852 -0.895589 -0.051837
v -0.157558 0.894247 -0.007558
vn -0.855205 -0.387177 0.344557
v -0.238452 0.952533 0.011943
vn 0.151585 -0.428629 0.890674
v -0.187526 0.923778 0.045184
vn 0.424101 0.777289 -0.464714
v -0.114534 0.998197 -0.041185
vn -0.084810 0.206332 0.974800
v -0.164304 1.006621 0.054103
vn 0.547749 0.694039 0.467206
v -0.081845 0.987333 0.029922
vn -0.418514 0.225020 -0.879893
v -0.220075 0.995361 -0.059079
vn -0.809290 0.575730 0.116550
v -0.216225 1.030357 0.007015
vn 0.474205 -0.561899 -0.677790
v -0.165438 0.903073 -0.031299
vn 0.884301 -0.260961 -0.387184
v -0.065568 0.977028 -0.001759
# 21 vertices, 0 vertices normals


usemtl material_0
f 20//20 10//10 21//21
f 3//3 2//2 4//4
f 2//2 3//3 7//7
f 7//7 3//3 12//12
f 5//5 7//7 12//12
f 1//1 6//6 13//13
f 2//2 7//7 13//13
f 9//9 2//2 13//13
f 7//7 5//5 14//14
f 8//8 1//1 14//14
f 1//1 13//13 14//14
f 13//13 7//7 14//14
f 3//3 4//4 15//15
f 10//10 3//3 15//15
f 4//4 11//11 15//15
f 11//11 6//6 15//15
f 6//6 1//1 16//16
f 1//1 8//8 16//16
f 8//8 6//6 16//16
f 6//6 8//8 17//17
f 14//14 5//5 17//17
f 8//8 14//14 17//17
f 15//15 6//6 17//17
f 4//4 2//2 18//18
f 2//2 9//9 18//18
f 11//11 4//4 18//18
f 9//9 11//11 18//18
f 6//6 11//11 19//19
f 11//11 9//9 19//19
f 13//13 6//6 19//19
f 9//9 13//13 19//19
f 3//3 10//10 20//20
f 12//12 3//3 20//20
f 12//12 20//20 21//21
f 5//5 12//12 21//21
f 10//10 15//15 21//21
f 17//17 5//5 21//21
f 15//15 17//17 21//21
# 38 faces, 0 coords texture

# End of File
