# Blender v2.79 (sub 0) OBJ File: ''
# www.blender.org
mtllib 100438_link_1_37.mtl
o Shape_IndexedFaceSet.037_Shape_IndexedFaceSet.1573
v 0.317360 -0.475139 0.089147
v 0.156420 -0.518044 0.067674
v 0.301244 -0.539507 0.067674
v 0.161792 -0.469766 0.244726
v 0.167164 -0.534141 0.244726
v 0.156420 -0.485870 0.067674
v 0.279787 -0.469766 0.067674
v 0.227106 -0.472836 0.236933
v 0.247602 -0.534141 0.212508
v 0.301244 -0.528775 0.126703
v 0.306600 -0.475139 0.126703
v 0.156420 -0.523410 0.244726
v 0.193977 -0.539507 0.239353
v 0.316901 -0.469965 0.068179
v 0.226162 -0.491236 0.244726
v 0.317360 -0.523410 0.073047
vn 0.3866 -0.0804 -0.9187
vn 0.0000 0.0000 -1.0000
vn -0.1290 0.9879 -0.0859
vn 0.3589 -0.9183 0.1670
vn 0.8473 -0.0846 0.5244
vn -0.7065 -0.7074 -0.0214
vn 0.0000 0.0000 1.0000
vn -1.0000 -0.0000 -0.0000
vn -0.9948 0.0996 0.0211
vn -0.1460 -0.9851 -0.0912
vn -0.2103 -0.9747 -0.0759
vn 0.1435 -0.9856 0.0897
vn 0.0053 1.0000 0.0035
vn 0.0136 0.0042 -0.9999
vn 0.0522 0.9976 0.0448
vn 0.6150 0.7686 0.1762
vn 0.1952 0.9734 0.1204
vn 0.1272 0.3813 0.9157
vn 0.7966 0.2007 0.5703
vn 0.8269 -0.0091 0.5623
vn 0.1518 -0.2088 0.9661
vn 0.4436 -0.3858 0.8090
vn 0.6783 -0.7230 0.1314
vn 0.9573 -0.0915 0.2743
vn 0.9559 -0.0955 0.2776
vn 0.9998 0.0067 -0.0202
usemtl Shape.1573
s off
f 3//1 14//1 16//1
f 3//2 2//2 6//2
f 6//3 4//3 7//3
f 3//2 6//2 7//2
f 9//4 3//4 10//4
f 9//5 10//5 11//5
f 2//6 5//6 12//6
f 5//7 4//7 12//7
f 6//8 2//8 12//8
f 4//9 6//9 12//9
f 2//10 3//10 13//10
f 5//11 2//11 13//11
f 3//12 9//12 13//12
f 7//13 4//13 14//13
f 3//14 7//14 14//14
f 4//15 8//15 14//15
f 11//16 1//16 14//16
f 8//17 11//17 14//17
f 4//7 5//7 15//7
f 8//18 4//18 15//18
f 11//19 8//19 15//19
f 9//20 11//20 15//20
f 5//21 13//21 15//21
f 13//22 9//22 15//22
f 10//23 3//23 16//23
f 1//24 11//24 16//24
f 11//25 10//25 16//25
f 14//26 1//26 16//26
