# Blender v2.79 (sub 0) OBJ File: ''
# www.blender.org
mtllib 100438_link_1_30.mtl
o Shape_IndexedFaceSet.030_Shape_IndexedFaceSet.1566
v 0.177865 -0.539507 -0.248882
v -0.020647 -0.480504 -0.340080
v -0.013105 -0.472416 -0.335800
v -0.020647 -0.518044 -0.227433
v 0.177865 -0.469766 -0.232793
v -0.020647 -0.539507 -0.323969
v 0.134941 -0.480504 -0.307880
v -0.020647 -0.480504 -0.232793
v 0.156393 -0.528775 -0.291779
v -0.031552 -0.465935 -0.304569
v 0.167119 -0.469766 -0.291779
v 0.177865 -0.523410 -0.227433
v 0.059838 -0.469766 -0.334699
v 0.053681 -0.525036 -0.322279
v 0.172482 -0.475139 -0.227433
v -0.020647 -0.539507 -0.307880
v 0.177865 -0.539507 -0.264982
vn 0.7460 -0.1356 -0.6520
vn -0.5176 0.7240 -0.4560
vn -0.9614 -0.0725 -0.2655
vn -0.9877 0.0221 0.1545
vn -0.0529 0.9771 0.2063
vn 0.4684 -0.0851 -0.8794
vn 0.0195 0.9998 -0.0036
vn -0.0216 -0.7996 0.6001
vn 1.0000 0.0000 -0.0000
vn -0.0038 0.4705 -0.8824
vn 0.3089 -0.1746 -0.9349
vn -0.0321 0.9747 -0.2212
vn 0.3578 0.2688 -0.8943
vn 0.0229 0.9981 -0.0573
vn 0.0730 -0.2627 -0.9621
vn 0.1614 -0.7546 -0.6360
vn 0.0952 -0.2283 -0.9689
vn 0.2683 -0.2396 -0.9331
vn -0.0314 0.1413 0.9895
vn -0.0392 0.7251 0.6875
vn 0.0000 0.0000 1.0000
vn 0.6655 0.0742 0.7427
vn -0.0764 -0.9634 0.2570
vn 0.0000 -1.0000 0.0000
vn -0.9892 -0.1466 0.0000
vn -0.9882 -0.1482 0.0396
vn 0.1370 -0.8768 -0.4609
vn 0.9805 0.0824 -0.1786
usemtl Shape.1566
s off
f 9//1 11//1 17//1
f 3//2 2//2 10//2
f 2//3 6//3 10//3
f 4//4 8//4 10//4
f 8//5 5//5 10//5
f 9//6 7//6 11//6
f 10//7 5//7 11//7
f 4//8 1//8 12//8
f 1//9 5//9 12//9
f 2//10 3//10 13//10
f 7//11 9//11 13//11
f 3//12 10//12 13//12
f 11//13 7//13 13//13
f 10//14 11//14 13//14
f 6//15 2//15 14//15
f 9//16 6//16 14//16
f 2//17 13//17 14//17
f 13//18 9//18 14//18
f 8//19 4//19 15//19
f 5//20 8//20 15//20
f 4//21 12//21 15//21
f 12//22 5//22 15//22
f 1//23 4//23 16//23
f 6//24 1//24 16//24
f 10//25 6//25 16//25
f 4//26 10//26 16//26
f 5//9 1//9 17//9
f 1//24 6//24 17//24
f 6//27 9//27 17//27
f 11//28 5//28 17//28
