####
#
# OBJ File Generated by Meshlab
#
####
# Object 100438_link_0_12.obj
#
# Vertices: 23
# Faces: 42
#
####
mtllib ./100438_link_0_12.obj.mtl

vn -0.203807 -0.065206 -0.976837
v -0.529862 0.314067 -0.063255
vn 0.790474 0.143279 0.595502
v -0.473803 0.402673 0.041670
vn 0.024165 0.719749 0.693814
v -0.530490 0.418961 0.059434
vn 0.034359 -0.305530 0.951562
v -0.527145 0.302403 0.051488
vn -0.481701 0.593700 -0.644582
v -0.554913 0.420459 -0.032216
vn 0.793364 0.155358 -0.588590
v -0.471127 0.391090 -0.043108
vn 0.982910 -0.169231 -0.072445
v -0.459004 0.301390 0.003925
vn -0.886415 -0.428571 0.174916
v -0.561301 0.302212 0.011145
vn 0.433291 0.813046 -0.388863
v -0.478069 0.425418 -0.016593
vn -0.907026 0.172010 0.384339
v -0.564491 0.413232 0.031787
vn 0.659769 -0.611161 -0.437249
v -0.476406 0.299929 -0.029281
vn -0.230642 0.296497 -0.926765
v -0.534589 0.411097 -0.056015
vn 0.291279 -0.271218 0.917386
v -0.483725 0.304787 0.052554
vn -0.848848 -0.147636 -0.507604
v -0.564581 0.310047 -0.028689
vn -0.115859 0.992444 0.040389
v -0.539599 0.443221 0.011851
vn -0.790728 -0.161489 0.590484
v -0.557719 0.317314 0.050383
vn -0.156458 -0.943138 -0.293278
v -0.530519 0.283125 -0.029906
vn 0.379630 0.862356 0.334998
v -0.474104 0.426445 0.020892
vn 0.059557 -0.985638 0.158021
v -0.501285 0.276881 0.030677
vn -0.079381 -0.014358 0.996741
v -0.536055 0.390637 0.069135
vn 0.437770 -0.342470 -0.831307
v -0.496847 0.310545 -0.063393
vn -0.989628 0.132369 -0.055818
v -0.574749 0.416675 -0.010721
vn 0.889606 -0.039584 0.455010
v -0.456478 0.311612 0.038463
# 23 vertices, 0 vertices normals


usemtl material_0
f 13//13 7//7 23//23
f 6//6 2//2 7//7
f 2//2 6//6 9//9
f 6//6 7//7 11//11
f 6//6 1//1 12//12
f 5//5 9//9 12//12
f 9//9 6//6 12//12
f 2//2 4//4 13//13
f 12//12 1//1 14//14
f 5//5 12//12 14//14
f 9//9 5//5 15//15
f 10//10 3//3 15//15
f 8//8 4//4 16//16
f 10//10 8//8 16//16
f 8//8 14//14 17//17
f 14//14 1//1 17//17
f 3//3 2//2 18//18
f 2//2 9//9 18//18
f 15//15 3//3 18//18
f 9//9 15//15 18//18
f 4//4 8//8 19//19
f 11//11 7//7 19//19
f 13//13 4//4 19//19
f 7//7 13//13 19//19
f 8//8 17//17 19//19
f 17//17 11//11 19//19
f 2//2 3//3 20//20
f 4//4 2//2 20//20
f 3//3 10//10 20//20
f 16//16 4//4 20//20
f 10//10 16//16 20//20
f 1//1 6//6 21//21
f 6//6 11//11 21//21
f 17//17 1//1 21//21
f 11//11 17//17 21//21
f 8//8 10//10 22//22
f 5//5 14//14 22//22
f 14//14 8//8 22//22
f 15//15 5//5 22//22
f 10//10 15//15 22//22
f 7//7 2//2 23//23
f 2//2 13//13 23//23
# 42 faces, 0 coords texture

# End of File
