# Blender v2.79 (sub 0) OBJ File: ''
# www.blender.org
mtllib 100438_link_1_4.mtl
o Shape_IndexedFaceSet.004_Shape_IndexedFaceSet.1540
v 0.193980 -0.539507 -0.254200
v 0.322618 -0.472307 0.010157
v 0.177880 -0.485870 0.067606
v 0.180868 -0.471154 -0.274092
v 0.301242 -0.539507 0.067606
v 0.293041 -0.524673 -0.122266
v 0.177880 -0.518044 0.067606
v 0.282031 -0.466850 0.082185
v 0.277028 -0.473359 -0.171618
v 0.177880 -0.539507 -0.238090
v 0.316616 -0.516872 -0.045532
v 0.177880 -0.469766 -0.227372
v 0.289627 -0.534427 -0.108957
v 0.306002 -0.473297 -0.109074
v 0.238863 -0.525829 -0.212644
v 0.318480 -0.471881 0.057035
v 0.218046 -0.472180 -0.243989
v 0.316514 -0.521742 0.022791
vn 0.9485 -0.2039 0.2424
vn -0.0358 -0.2057 0.9780
vn -0.1386 0.0000 0.9903
vn -0.6694 -0.3231 -0.6690
vn 0.0000 -1.0000 0.0000
vn -1.0000 -0.0000 0.0000
vn -0.1710 -0.9829 0.0690
vn -0.1866 0.9810 0.0536
vn -0.9979 0.0099 -0.0641
vn 0.1069 -0.9936 -0.0356
vn 0.6460 -0.7606 -0.0644
vn 0.8129 -0.5491 -0.1939
vn 0.0955 0.9952 -0.0216
vn 0.0555 0.9981 -0.0267
vn 0.9008 -0.1201 -0.4172
vn 0.9896 0.0395 -0.1382
vn 0.9469 -0.1686 -0.2738
vn 0.8381 -0.2190 -0.4996
vn 0.5405 -0.7745 -0.3288
vn 0.6132 -0.7039 -0.3586
vn 0.5664 -0.0156 0.8240
vn 0.1389 0.9903 0.0033
vn 0.6240 -0.1056 -0.7743
vn 0.0526 0.9983 -0.0266
vn 0.0493 0.9984 -0.0260
vn 0.0490 0.9984 -0.0265
vn 0.6954 -0.1417 -0.7045
vn 0.7728 -0.0688 -0.6309
vn 0.9922 -0.1244 -0.0074
vn 0.6910 -0.7211 -0.0504
vn 0.9911 -0.0998 0.0884
usemtl Shape.1540
s off
f 16//1 5//1 18//1
f 7//2 5//2 8//2
f 3//3 7//3 8//3
f 4//4 1//4 10//4
f 1//5 5//5 10//5
f 7//6 3//6 10//6
f 5//7 7//7 10//7
f 3//8 8//8 12//8
f 4//9 10//9 12//9
f 10//6 3//6 12//6
f 5//10 1//10 13//10
f 11//11 5//11 13//11
f 6//12 11//12 13//12
f 8//13 2//13 14//13
f 9//14 8//14 14//14
f 6//15 9//15 14//15
f 2//16 11//16 14//16
f 11//17 6//17 14//17
f 9//18 6//18 15//18
f 13//19 1//19 15//19
f 6//20 13//20 15//20
f 8//21 5//21 16//21
f 2//22 8//22 16//22
f 1//23 4//23 17//23
f 8//24 9//24 17//24
f 12//25 8//25 17//25
f 4//26 12//26 17//26
f 15//27 1//27 17//27
f 9//28 15//28 17//28
f 11//29 2//29 18//29
f 5//30 11//30 18//30
f 2//31 16//31 18//31
