# Blender v2.79 (sub 0) OBJ File: ''
# www.blender.org
mtllib 100438_link_1_5.mtl
o Shape_IndexedFaceSet.005_Shape_IndexedFaceSet.1541
v -0.020647 -0.518044 0.244735
v -0.020647 -0.539507 0.309095
v 0.210033 -0.534141 0.244735
v 0.219426 -0.470159 0.245279
v -0.020647 -0.469766 0.303736
v 0.059870 -0.523410 0.330552
v -0.020647 -0.480504 0.244735
v -0.020647 -0.469766 0.341290
v 0.151022 -0.534141 0.293017
v 0.177822 -0.469766 0.287658
v 0.183210 -0.539507 0.244735
v 0.059870 -0.469766 0.335921
v -0.020647 -0.534141 0.330552
v 0.204669 -0.528775 0.260832
vn 0.7136 0.0062 0.7005
vn -1.0000 0.0000 0.0000
vn 0.0000 0.0000 -1.0000
vn 0.0019 0.0082 -1.0000
vn -0.0420 0.9830 -0.1789
vn -0.0008 0.9999 -0.0101
vn 0.0000 1.0000 0.0000
vn -0.0994 -0.9439 -0.3148
vn 0.0440 -0.9893 0.1393
vn 0.1908 -0.9535 0.2332
vn 0.0662 -0.0994 0.9928
vn 0.3698 -0.0925 0.9245
vn 0.3775 -0.0803 0.9225
vn 0.0219 -0.1645 0.9861
vn 0.0530 -0.9688 0.2423
vn 0.1131 -0.8484 0.5171
vn 0.9247 -0.1388 0.3544
vn 0.3227 -0.8605 0.3943
vn 0.5196 -0.1463 0.8418
usemtl Shape.1541
s off
f 4//1 10//1 14//1
f 1//2 2//2 5//2
f 3//3 1//3 7//3
f 4//4 3//4 7//4
f 1//2 5//2 7//2
f 5//5 4//5 7//5
f 5//2 2//2 8//2
f 4//6 5//6 10//6
f 5//7 8//7 10//7
f 2//8 1//8 11//8
f 1//3 3//3 11//3
f 9//9 2//9 11//9
f 3//10 9//10 11//10
f 8//11 6//11 12//11
f 6//12 9//12 12//12
f 9//13 10//13 12//13
f 10//7 8//7 12//7
f 8//2 2//2 13//2
f 6//14 8//14 13//14
f 2//15 9//15 13//15
f 9//16 6//16 13//16
f 3//17 4//17 14//17
f 9//18 3//18 14//18
f 10//19 9//19 14//19
