# Blender v2.79 (sub 0) OBJ File: ''
# www.blender.org
mtllib 100438_link_1_38.mtl
o Shape_IndexedFaceSet.038_Shape_IndexedFaceSet.1574
v -0.020647 -0.469766 0.341334
v 0.021573 0.402234 0.490685
v -0.022880 0.399440 0.490017
v 0.095059 -0.482588 0.276497
v -0.020647 0.361756 0.443233
v 0.100025 0.402366 0.479479
v 0.097387 -0.469766 0.325209
v -0.026117 -0.485760 0.296319
v 0.092014 0.377872 0.432496
v 0.049092 -0.421334 0.346682
v 0.073496 0.404787 0.489617
v 0.000831 -0.448222 0.346682
v -0.020647 0.265143 0.470034
v 0.097387 0.383299 0.437864
v -0.020647 0.383299 0.448581
v 0.092014 0.265143 0.411023
v 0.070547 -0.458994 0.335946
vn 0.1170 -0.2100 0.9707
vn 0.9988 0.0057 -0.0492
vn -0.9913 -0.0247 0.1292
vn -0.1634 0.1695 -0.9719
vn 0.0450 -0.9430 0.3296
vn 0.0663 -0.9657 0.2510
vn -0.0532 0.9321 -0.3583
vn -0.0531 0.9309 -0.3614
vn 0.3389 -0.1649 0.9263
vn 0.0961 -0.1725 0.9803
vn 0.0457 -0.1689 0.9846
vn -0.8418 -0.0931 0.5317
vn -0.0056 -0.1473 0.9891
vn 0.0280 -0.1573 0.9871
vn -0.0721 -0.1721 0.9824
vn 0.9976 0.0100 -0.0678
vn -0.0616 0.7321 -0.6784
vn -0.0534 0.9295 -0.3650
vn -0.9980 0.0169 -0.0604
vn -0.9961 0.0213 -0.0858
vn -0.1259 0.2390 -0.9628
vn -0.0376 0.9094 -0.4143
vn -0.1289 0.1751 -0.9761
vn -0.1195 0.1858 -0.9753
vn 0.6841 0.1318 -0.7173
vn 0.6211 0.1467 -0.7699
vn 0.1135 -0.5452 0.8306
vn 0.3074 -0.1677 0.9367
vn 0.1810 -0.1729 0.9682
vn 0.0942 -0.3273 0.9402
usemtl Shape.1574
s off
f 10//1 12//1 17//1
f 4//2 6//2 7//2
f 1//3 3//3 8//3
f 5//4 4//4 8//4
f 7//5 1//5 8//5
f 4//6 7//6 8//6
f 3//7 2//7 11//7
f 6//8 3//8 11//8
f 7//9 6//9 11//9
f 10//10 11//10 12//10
f 12//11 11//11 13//11
f 3//12 1//12 13//12
f 2//13 3//13 13//13
f 11//14 2//14 13//14
f 1//15 12//15 13//15
f 6//16 4//16 14//16
f 14//17 9//17 15//17
f 3//18 6//18 15//18
f 8//19 3//19 15//19
f 5//20 8//20 15//20
f 9//21 5//21 15//21
f 6//22 14//22 15//22
f 4//23 5//23 16//23
f 5//24 9//24 16//24
f 14//25 4//25 16//25
f 9//26 14//26 16//26
f 1//27 7//27 17//27
f 7//28 11//28 17//28
f 11//29 10//29 17//29
f 12//30 1//30 17//30
