####
#
# OBJ File Generated by Meshlab
#
####
# Object 100438_link_0_8.obj
#
# Vertices: 33
# Faces: 62
#
####
mtllib ./100438_link_0_8.obj.mtl

vn 0.110993 -0.871877 0.476981
v 0.102288 0.916081 0.031966
vn -0.243771 0.950165 0.194324
v 0.048213 1.066876 0.008859
vn -0.084512 0.952625 -0.292169
v 0.048413 1.065435 -0.012850
vn 0.975146 -0.023237 -0.220340
v 0.187346 0.970015 -0.007477
vn -0.700472 -0.351961 -0.620856
v -0.008810 0.963084 -0.033245
vn -0.563554 -0.144337 0.813372
v -0.005321 1.008033 0.040842
vn 0.577235 0.280233 0.766987
v 0.166259 1.014962 0.055750
vn 0.413434 -0.206111 -0.886899
v 0.161754 0.958612 -0.040866
vn -0.859019 0.313342 -0.404850
v -0.005131 1.017618 -0.034078
vn 0.246233 0.892392 -0.378162
v 0.115344 1.049502 -0.027835
vn -0.583262 -0.417357 0.696863
v -0.010082 0.959034 0.030712
vn 0.185816 0.765150 0.616456
v 0.114920 1.042777 0.041412
vn -0.073930 -0.829926 -0.552953
v 0.094092 0.912039 -0.022318
vn 0.197777 -0.589718 0.783018
v 0.128302 0.938793 0.045247
vn -0.087085 -0.069262 -0.993790
v 0.052478 1.011533 -0.071132
vn -0.469353 -0.842067 -0.265763
v -0.010943 0.949274 -0.012743
vn -0.197184 0.516528 0.833257
v 0.048328 1.030391 0.062936
vn 0.188322 -0.716814 -0.671351
v 0.129420 0.938797 -0.044460
vn 0.697695 0.704801 0.128368
v 0.176546 1.034573 0.016588
vn 0.119016 -0.385286 0.915090
v 0.164944 0.957062 0.047030
vn -0.642766 0.641499 0.418726
v -0.006828 1.031483 0.019551
vn -0.275086 -0.351727 -0.894771
v -0.008358 0.988872 -0.043379
vn 0.238757 0.317403 -0.917742
v 0.103910 1.025379 -0.059895
vn 0.643418 0.404132 -0.650146
v 0.177160 1.023777 -0.035481
vn -0.129828 -0.188619 0.973431
v -0.008795 0.981435 0.043551
vn 0.780164 -0.608600 0.144743
v 0.186497 0.967425 0.011786
vn -0.194263 0.741579 -0.642123
v 0.050064 1.047759 -0.046454
vn -0.034967 -0.149852 0.988090
v 0.104504 1.007648 0.069820
vn -0.375562 -0.876843 0.300166
v -0.011851 0.948739 0.012314
vn 0.230815 0.967800 0.100434
v 0.114129 1.056485 0.009228
vn -0.105099 0.847669 0.520011
v 0.057905 1.056919 0.033967
vn -0.305997 -0.949450 0.070076
v 0.087855 0.908145 0.004594
vn -0.565986 0.783791 -0.255599
v -0.006882 1.035168 -0.006497
# 33 vertices, 0 vertices normals


usemtl material_0
f 27//27 9//9 33//33
f 5//5 6//6 9//9
f 6//6 5//5 11//11
f 11//11 1//1 14//14
f 11//11 5//5 16//16
f 5//5 13//13 16//16
f 1//1 13//13 18//18
f 13//13 5//5 18//18
f 14//14 1//1 18//18
f 15//15 8//8 18//18
f 12//12 7//7 19//19
f 6//6 14//14 20//20
f 9//9 6//6 21//21
f 6//6 17//17 21//21
f 5//5 9//9 22//22
f 9//9 15//15 22//22
f 18//18 5//5 22//22
f 15//15 18//18 22//22
f 8//8 15//15 23//23
f 4//4 8//8 24//24
f 19//19 4//4 24//24
f 10//10 19//19 24//24
f 23//23 10//10 24//24
f 8//8 23//23 24//24
f 6//6 11//11 25//25
f 14//14 6//6 25//25
f 11//11 14//14 25//25
f 8//8 4//4 26//26
f 18//18 8//8 26//26
f 14//14 18//18 26//26
f 4//4 19//19 26//26
f 19//19 7//7 26//26
f 7//7 20//20 26//26
f 20//20 14//14 26//26
f 3//3 10//10 27//27
f 15//15 9//9 27//27
f 10//10 23//23 27//27
f 23//23 15//15 27//27
f 7//7 12//12 28//28
f 17//17 6//6 28//28
f 12//12 17//17 28//28
f 20//20 7//7 28//28
f 6//6 20//20 28//28
f 1//1 11//11 29//29
f 11//11 16//16 29//29
f 3//3 2//2 30//30
f 10//10 3//3 30//30
f 19//19 10//10 30//30
f 12//12 19//19 30//30
f 17//17 12//12 31//31
f 2//2 21//21 31//31
f 21//21 17//17 31//31
f 30//30 2//2 31//31
f 12//12 30//30 31//31
f 13//13 1//1 32//32
f 16//16 13//13 32//32
f 1//1 29//29 32//32
f 29//29 16//16 32//32
f 2//2 3//3 33//33
f 21//21 2//2 33//33
f 9//9 21//21 33//33
f 3//3 27//27 33//33
# 62 faces, 0 coords texture

# End of File
