# Blender v2.79 (sub 0) OBJ File: ''
# www.blender.org
mtllib 100438_link_1_21.mtl
o Shape_IndexedFaceSet.021_Shape_IndexedFaceSet.1557
v -0.127925 -0.480500 -0.232776
v -0.020647 -0.480500 -0.012803
v -0.020647 -0.518053 -0.012803
v -0.181603 -0.518053 -0.012803
v -0.020647 -0.518053 -0.232776
v -0.186298 -0.519148 -0.239192
v -0.177026 -0.486630 -0.019058
v -0.023651 -0.486367 -0.228671
v -0.184958 -0.485308 -0.237362
v -0.127925 -0.480500 -0.012803
v -0.020647 -0.480500 -0.168374
vn 0.9930 0.1018 -0.0594
vn 0.0000 0.0000 1.0000
vn 1.0000 0.0000 0.0000
vn 0.0066 -1.0000 0.0000
vn 0.0000 -1.0000 0.0048
vn 0.0542 0.1333 -0.9896
vn 0.0383 0.0524 -0.9979
vn -0.9990 0.0384 0.0205
vn -0.9878 0.1512 0.0368
vn 0.0535 0.2799 -0.9585
vn -0.1252 0.9921 0.0106
vn 0.0000 1.0000 0.0000
vn -0.1497 0.2140 0.9653
vn -0.0840 0.9965 0.0000
vn 0.0598 0.9932 -0.0996
usemtl Shape.1557
s off
f 5//1 8//1 11//1
f 3//2 2//2 4//2
f 2//3 3//3 5//3
f 5//4 3//4 6//4
f 3//5 4//5 6//5
f 8//6 5//6 9//6
f 5//7 6//7 9//7
f 6//8 4//8 9//8
f 4//9 7//9 9//9
f 1//10 8//10 9//10
f 9//11 7//11 10//11
f 2//12 1//12 10//12
f 4//2 2//2 10//2
f 7//13 4//13 10//13
f 1//14 9//14 10//14
f 1//12 2//12 11//12
f 2//3 5//3 11//3
f 8//15 1//15 11//15
