# Blender v2.79 (sub 0) OBJ File: ''
# www.blender.org
mtllib 100438_link_1_22.mtl
o Shape_IndexedFaceSet.022_Shape_IndexedFaceSet.1558
v -0.342566 0.147181 -0.307864
v -0.428371 0.383300 -0.157675
v -0.263634 -0.486104 -0.147172
v -0.256740 0.383300 -0.372246
v -0.272824 -0.469754 -0.227439
v -0.475575 0.400820 -0.169199
v -0.247958 0.400152 -0.431240
v -0.312062 -0.506078 -0.142676
v -0.442069 0.400810 -0.241784
v -0.231069 -0.112040 -0.332718
v -0.326482 0.351033 -0.372246
v -0.481093 0.400491 -0.146974
v -0.315737 -0.475131 -0.163057
v -0.247990 -0.503476 -0.234338
v -0.262101 -0.174647 -0.307864
v -0.385479 0.351033 -0.313246
v -0.252501 -0.486091 -0.163864
v -0.428371 0.372460 -0.152345
v -0.256740 0.372544 -0.366863
v -0.412287 0.259862 -0.248891
v -0.340983 0.399983 -0.366457
v -0.267463 0.356411 -0.415149
v -0.449838 0.259862 -0.173797
v -0.299653 -0.475131 -0.189892
v -0.439115 0.334899 -0.227439
v -0.417648 0.050548 -0.152345
v -0.233054 -0.202372 -0.312478
v -0.262101 -0.469754 -0.238178
vn -0.2894 -0.2270 -0.9299
vn 0.3825 0.8718 0.3060
vn 0.0059 1.0000 0.0026
vn 0.3490 0.8927 0.2851
vn 0.0280 0.9994 0.0217
vn 0.0841 0.0204 0.9963
vn -0.7190 -0.1692 -0.6741
vn -0.6974 -0.1652 -0.6974
vn 0.3887 -0.8843 0.2586
vn 0.3855 -0.8898 0.2442
vn 0.3100 0.4195 0.8532
vn 0.1162 0.0283 0.9928
vn 0.7453 0.2984 0.5962
vn 0.9817 0.0853 0.1705
vn 0.9848 0.0636 0.1616
vn 0.8244 0.1341 0.5499
vn 0.9582 0.0703 0.2774
vn 0.7718 0.1518 0.6175
vn 0.7464 0.2937 0.5973
vn -0.8225 -0.1461 -0.5496
vn -0.0148 0.9997 -0.0186
vn -0.7016 -0.1249 -0.7016
vn -0.7765 0.0213 -0.6297
vn -0.3380 -0.1885 -0.9221
vn -0.3532 -0.1887 -0.9163
vn -0.5695 -0.1683 -0.8046
vn -0.5708 -0.0470 -0.8197
vn -0.5817 -0.0766 -0.8098
vn -0.9564 -0.1668 -0.2399
vn -0.7850 -0.4031 -0.4705
vn -0.7070 -0.4918 -0.5082
vn -0.7136 -0.4092 -0.5685
vn -0.7901 -0.1700 -0.5889
vn -0.8452 -0.1702 -0.5066
vn -0.8018 -0.1689 -0.5733
vn -0.9001 -0.1308 -0.4155
vn -0.8593 -0.1692 -0.4827
vn -0.8397 -0.1511 -0.5215
vn -0.9061 -0.1526 -0.3946
vn -0.8938 -0.1691 -0.4153
vn -0.9534 -0.1766 0.2444
vn -0.9764 -0.1871 -0.1080
vn -0.9595 -0.1705 -0.2240
vn -0.9360 -0.1752 -0.3053
vn -0.3361 -0.1989 -0.9206
vn 0.9881 0.0127 0.1535
vn 0.9970 -0.0309 0.0714
vn -0.6974 -0.1696 -0.6963
vn -0.6859 -0.1694 -0.7077
vn -0.6622 -0.3524 -0.6612
vn -0.6703 -0.1705 -0.7222
vn -0.3503 -0.2153 -0.9116
usemtl Shape.1558
s off
f 27//1 14//1 28//1
f 2//2 4//2 7//2
f 6//3 7//3 9//3
f 2//4 7//4 12//4
f 7//5 6//5 12//5
f 8//6 3//6 12//6
f 1//7 5//7 16//7
f 11//8 1//8 16//8
f 3//9 8//9 17//9
f 8//10 14//10 17//10
f 2//11 12//11 18//11
f 12//12 3//12 18//12
f 4//13 2//13 19//13
f 7//14 4//14 19//14
f 10//15 7//15 19//15
f 3//16 17//16 19//16
f 17//17 10//17 19//17
f 18//18 3//18 19//18
f 2//19 18//19 19//19
f 9//20 16//20 20//20
f 9//21 7//21 21//21
f 11//22 16//22 21//22
f 16//23 9//23 21//23
f 7//24 10//24 22//24
f 10//25 15//25 22//25
f 15//26 11//26 22//26
f 21//27 7//27 22//27
f 11//28 21//28 22//28
f 12//29 6//29 23//29
f 8//30 13//30 24//30
f 14//31 8//31 24//31
f 5//32 14//32 24//32
f 16//33 5//33 24//33
f 13//34 20//34 24//34
f 20//35 16//35 24//35
f 6//36 9//36 25//36
f 20//37 13//37 25//37
f 9//38 20//38 25//38
f 23//39 6//39 25//39
f 13//40 23//40 25//40
f 8//41 12//41 26//41
f 13//42 8//42 26//42
f 12//43 23//43 26//43
f 23//44 13//44 26//44
f 15//45 10//45 27//45
f 10//46 17//46 27//46
f 17//47 14//47 27//47
f 5//48 1//48 28//48
f 1//49 11//49 28//49
f 14//50 5//50 28//50
f 11//51 15//51 28//51
f 15//52 27//52 28//52
