# Blender v2.79 (sub 0) OBJ File: ''
# www.blender.org
mtllib 100438_link_1_29.mtl
o Shape_IndexedFaceSet.029_Shape_IndexedFaceSet.1565
v -0.160129 -0.458998 0.314485
v -0.017531 0.400005 0.490753
v -0.020663 0.383300 0.448590
v -0.185124 0.402078 0.463300
v -0.181126 -0.485926 0.242420
v -0.011923 -0.485977 0.296773
v -0.047479 -0.475131 0.341334
v -0.176231 0.372544 0.411020
v -0.101124 0.405976 0.491358
v -0.181603 -0.475131 0.298404
v -0.020663 -0.448242 0.346695
v -0.127956 -0.475131 0.325230
v -0.020663 0.367166 0.443229
v -0.054825 0.405686 0.495507
v -0.181603 0.383300 0.416404
v -0.174253 0.404199 0.469372
v -0.095753 -0.464376 0.335950
v -0.020663 0.265240 0.470032
vn 0.0345 -0.1702 0.9848
vn -0.5114 -0.1607 0.8442
vn -1.0000 -0.0025 -0.0080
vn 0.9791 -0.0375 0.1998
vn 0.5218 -0.6341 0.5707
vn -0.0524 -0.9854 0.1621
vn -0.0411 -0.9779 0.2052
vn -0.4288 -0.2840 0.8576
vn -0.0939 -0.9777 0.1877
vn 0.9960 0.0283 -0.0852
vn 0.3017 0.1643 -0.9391
vn 0.9963 0.0244 -0.0825
vn 0.2031 0.3088 -0.9292
vn 0.2054 0.1875 -0.9606
vn 0.0931 0.9233 -0.3727
vn -0.0890 -0.1724 0.9810
vn -0.0238 -0.1726 0.9847
vn -0.9966 0.0157 -0.0811
vn 0.1690 0.5074 -0.8450
vn -0.5084 0.1687 -0.8444
vn 0.0767 0.9204 -0.3833
vn 0.0705 0.9245 -0.3746
vn -0.4564 -0.1644 0.8745
vn -0.3874 -0.1690 0.9063
vn -0.2800 -0.1696 0.9449
vn 0.0190 0.9895 -0.1433
vn 0.0254 0.9287 -0.3700
vn -0.1475 -0.1747 0.9735
vn -0.1828 -0.3632 0.9136
vn -0.2592 -0.1713 0.9505
vn 0.6295 -0.1323 0.7656
vn 0.1019 -0.1535 0.9829
usemtl Shape.1565
s off
f 14//1 11//1 18//1
f 1//2 4//2 10//2
f 4//3 5//3 10//3
f 6//4 2//4 11//4
f 7//5 6//5 11//5
f 5//6 6//6 12//6
f 6//7 7//7 12//7
f 1//8 10//8 12//8
f 10//9 5//9 12//9
f 3//10 2//10 13//10
f 6//11 5//11 13//11
f 2//12 6//12 13//12
f 8//13 3//13 13//13
f 5//14 8//14 13//14
f 2//15 3//15 14//15
f 9//16 7//16 14//16
f 7//17 11//17 14//17
f 5//18 4//18 15//18
f 3//19 8//19 15//19
f 8//20 5//20 15//20
f 14//21 3//21 15//21
f 14//22 15//22 16//22
f 4//23 1//23 16//23
f 1//24 12//24 16//24
f 12//25 9//25 16//25
f 9//26 14//26 16//26
f 15//27 4//27 16//27
f 7//28 9//28 17//28
f 12//29 7//29 17//29
f 9//30 12//30 17//30
f 11//31 2//31 18//31
f 2//32 14//32 18//32
