# SSTK version 0.8.0
# 3
mtllib original-3.mtl
o mesh3/mesh3-geometry#mesh3-geometry
v 0.509124 0.280625 -0.338765
v 0.491614 0.236566 -0.325573
v 0.513262 0.238979 -0.324790
v 0.487476 0.278211 -0.339547
v 0.496750 0.194803 -0.338848
v 0.514716 0.239129 -0.326221
v 0.507565 0.306246 -0.374652
v 0.486216 0.277184 -0.340789
v 0.490268 0.236403 -0.327105
v 0.518398 0.197217 -0.338066
v 0.519746 0.198233 -0.339221
v 0.510664 0.279910 -0.339905
v 0.485917 0.303832 -0.375434
v 0.484690 0.302273 -0.375931
v 0.495298 0.195508 -0.340105
v 0.500923 0.168875 -0.374304
v 0.515188 0.239074 -0.339093
v 0.511883 0.272340 -0.350256
v 0.509138 0.304999 -0.375047
v 0.509181 0.306056 -0.418744
v 0.522571 0.171289 -0.373521
v 0.523832 0.172844 -0.373940
v 0.519291 0.205713 -0.349698
v 0.510637 0.292806 -0.378923
v 0.487533 0.303642 -0.419526
v 0.486271 0.302087 -0.419108
v 0.499384 0.170118 -0.374824
v 0.502538 0.168685 -0.418396
v 0.517838 0.206418 -0.350954
v 0.513842 0.238911 -0.340625
v 0.510623 0.271313 -0.351498
v 0.511928 0.292655 -0.414144
v 0.510720 0.304813 -0.418224
v 0.513353 0.280128 -0.454199
v 0.525414 0.172658 -0.417116
v 0.524186 0.171099 -0.417613
v 0.522624 0.185002 -0.378020
v 0.521085 0.186245 -0.378540
v 0.509410 0.291247 -0.379419
v 0.491705 0.277714 -0.454982
v 0.490358 0.276697 -0.453827
v 0.500966 0.169932 -0.418000
v 0.500979 0.194306 -0.454283
v 0.492194 0.236498 -0.341407
v 0.496190 0.204004 -0.351737
v 0.488975 0.268900 -0.352280
v 0.487762 0.288834 -0.380202
v 0.515261 0.271943 -0.442466
v 0.510667 0.291100 -0.413725
v 0.514806 0.279423 -0.452943
v 0.518490 0.238365 -0.467475
v 0.523914 0.184850 -0.413241
v 0.523887 0.197747 -0.452258
v 0.522627 0.196720 -0.453500
v 0.522342 0.186097 -0.412845
v 0.499437 0.183831 -0.379322
v 0.489019 0.288686 -0.414508
v 0.496842 0.235951 -0.468257
v 0.495387 0.235802 -0.466827
v 0.499439 0.195021 -0.453142
v 0.494843 0.202987 -0.350582
v 0.490740 0.236348 -0.339977
v 0.498176 0.182276 -0.378903
v 0.487434 0.269614 -0.351140
v 0.486189 0.290081 -0.379807
v 0.519364 0.238583 -0.453070
v 0.513913 0.270926 -0.441311
v 0.492265 0.268513 -0.442093
v 0.519835 0.238527 -0.465943
v 0.522669 0.205316 -0.441907
v 0.521129 0.206031 -0.440767
v 0.500694 0.183683 -0.413628
v 0.499466 0.182124 -0.414125
v 0.487479 0.289929 -0.415028
v 0.517909 0.238433 -0.451640
v 0.496261 0.236020 -0.452423
v 0.490813 0.269217 -0.443350
v 0.499481 0.203618 -0.441550
v 0.498221 0.202590 -0.442791
v 0.494916 0.235857 -0.453954
vn 0.31507314647297124 0.5009302328752556 0.8061003747444629
vn -0.43897101796905946 0.05812700237939962 0.8966190367026527
vn 0.3721670272748198 -0.050277003684625975 0.9268030679221555
vn -0.3721670272748198 0.050277003684625975 -0.9268030679221555
vn 0.43897101796905946 -0.05812700237939962 -0.8966190367026527
vn -0.31507314647297124 -0.5009302328752556 -0.8061003747444629
vn -0.48764306646892414 0.5713230778750543 0.6601470899823456
vn 0.48764306646892414 -0.5713230778750543 -0.6601470899823456
vn -0.3733648979127167 -0.49407986490623157 0.7851647853163477
vn 0.3733648979127167 0.49407986490623157 -0.7851647853163477
vn 0.9055632092059533 0.14394403325438612 0.39904309218814293
vn -0.9055632092059533 -0.14394403325438612 -0.39904309218814293
vn 0.2883710371362803 0.8776081130179412 0.3829440493153466
vn -0.2883710371362803 -0.8776081130179412 -0.3829440493153466
vn -0.7776432242812811 0.26417207619027566 0.570512164542293
vn 0.7776432242812811 -0.26417207619027566 -0.570512164542293
vn -0.7346252862743469 -0.15103605885687577 0.6614482577581681
vn 0.7346252862743469 0.15103605885687577 -0.6614482577581681
vn 0.43784818422707045 -0.5654722379256043 0.6989492940868215
vn -0.43784818422707045 0.5654722379256043 -0.6989492940868215
vn 0.9318972781741747 -0.07772402320085764 0.35429710575876466
vn -0.9318972781741747 0.07772402320085764 -0.35429710575876466
vn 0.8860253240416708 0.34995812798845966 0.3041191112239823
vn -0.8860253240416708 -0.34995812798845966 -0.3041191112239823
vn -0.5007871447728269 0.8494892455793062 0.1660730480101476
vn 0.5007871447728269 -0.8494892455793062 -0.1660730480101476
vn -0.7977540358127752 0.5479100245967774 0.2517600113020108
vn 0.7977540358127752 -0.5479100245967774 -0.2517600113020108
vn -0.6851487894723083 -0.5391238343418276 0.48981284949375925
vn 0.6851487894723083 0.5391238343418276 -0.48981284949375925
vn -0.31589996996028347 -0.8743719168537925 0.36834896497277747
vn 0.31589996996028347 0.8743719168537925 -0.36834896497277747
vn 0.9323802257581839 0.14079303409036237 -0.33293308061342947
vn -0.9323802257581839 -0.14079303409036237 0.33293308061342947
vn 0.9552972111713378 -0.08048101779057233 -0.28448206288562045
vn -0.9552972111713378 0.08048101779057233 0.28448206288562045
vn 0.8807463777658541 0.46162319799738727 0.10578204537156871
vn -0.8807463777658541 -0.46162319799738727 -0.10578204537156871
vn 0.30226996314346993 0.9358738858865644 -0.18103297792619757
vn -0.30226996314346993 -0.9358738858865644 0.18103297792619757
vn 0.48702320132520555 -0.8478723504926968 0.2095730866331307
vn -0.48702320132520555 0.8478723504926968 -0.2095730866331307
vn 0.9549674439348639 -0.23038310709798954 0.18697808692033643
vn -0.9549674439348639 0.23038310709798954 -0.18697808692033643
vn 0.906014137185953 0.347609052633924 -0.24146703656221696
vn -0.906014137185953 -0.347609052633924 0.24146703656221696
vn 0.9660152282138794 -0.23168705473433546 -0.11461102707599882
vn -0.9660152282138794 0.23168705473433546 0.11461102707599882
vn -0.4733929167233291 0.7863718616657994 -0.396885930182016
vn 0.4733929167233291 -0.7863718616657994 0.396885930182016
vn -0.7872790659090381 0.5918100495448599 -0.173068014488822
vn 0.7872790659090381 -0.5918100495448599 0.173068014488822
vn -0.648114790741591 -0.7518417572510114 0.12116596087884944
vn 0.648114790741591 0.7518417572510114 -0.12116596087884944
vn -0.28851192718132984 -0.9374897633832385 -0.19461195088111766
vn 0.28851192718132984 0.9374897633832385 0.19461195088111766
vn 0.37336806601278666 0.4940800873550966 -0.7851631388196032
vn -0.37336806601278666 -0.4940800873550966 0.7851631388196032
vn 0.43896614322633554 -0.05812901896639733 -0.8966212925505397
vn -0.43896614322633554 0.05812901896639733 0.8966212925505397
vn 0.4876319581960455 -0.5713269510209995 -0.6601519434061666
vn -0.4876319581960455 0.5713269510209995 0.6601519434061666
vn 0.9604381039458206 -0.2550740276060259 0.111785012098213
vn -0.9604381039458206 0.2550740276060259 -0.111785012098213
vn 0.8917450094368916 0.43628100461694375 -0.1202070012720905
vn -0.8917450094368916 -0.43628100461694375 0.1202070012720905
vn 0.35145503609056805 0.653474067104602 -0.6704110688438456
vn -0.35145503609056805 -0.653474067104602 0.6704110688438456
vn 0.9659624956915094 -0.2557241312269174 -0.03900802001728272
vn -0.9659624956915094 0.2557241312269174 0.03900802001728272
vn 0.500916832650226 -0.7896067362026983 -0.3544058815976222
vn -0.500916832650226 0.7896067362026983 0.3544058815976222
vn 0.886273914826422 0.4609689556995026 -0.04501299567411618
vn -0.886273914826422 -0.4609689556995026 0.04501299567411618
vn 0.31590294679389275 0.8743708527336645 -0.36834893796065105
vn -0.31590294679389275 -0.8743708527336645 0.36834893796065105
vn -0.4159230438260214 0.4060770427885435 -0.8137010857400947
vn 0.4159230438260214 -0.4060770427885435 0.8137010857400947
vn -0.7502359561884722 0.37908297786269207 -0.5417029683661726
vn 0.7502359561884722 -0.37908297786269207 0.5417029683661726
vn -0.6376477424305358 -0.7079507140325699 -0.3036628773393532
vn 0.6376477424305358 0.7079507140325699 0.3036628773393532
vn -0.3016608047439233 -0.6593255732381446 -0.6886875542330069
vn 0.3016608047439233 0.6593255732381446 0.6886875542330069
vn -0.3721649593651712 0.050276994510506864 -0.9268038988069218
vn 0.3721649593651712 -0.050276994510506864 0.9268038988069218
vn -0.43783900113816254 0.565476001469955 -0.6989520018169257
vn 0.43783900113816254 -0.565476001469955 0.6989520018169257
vn -0.2883769339054562 -0.877605798857162 -0.3829449122309511
vn 0.2883769339054562 0.877605798857162 0.3829449122309511
vn 0.9406961001079437 -0.1417110150807454 0.30823503280206566
vn -0.9406961001079437 0.1417110150807454 -0.30823503280206566
vn 0.473395213046593 -0.7863703538978007 0.39688617861449743
vn -0.473395213046593 0.7863703538978007 -0.39688617861449743
vn 0.9148151341805195 0.28362104160011936 -0.28752804217317857
vn -0.9148151341805195 -0.28362104160011936 0.28752804217317857
vn 0.4171280207725588 0.138277006886057 -0.8982670447328016
vn -0.4171280207725588 -0.138277006886057 0.8982670447328016
vn 0.8806958874554395 0.4375789440815715 0.1813819768211081
vn -0.8806958874554395 -0.4375789440815715 -0.1813819768211081
vn 0.9606834331847467 -0.1440630649599234 -0.23734610702246936
vn -0.9606834331847467 0.1440630649599234 0.23734610702246936
vn 0.4742178823036412 -0.4129308975144866 -0.777563807016074
vn -0.4742178823036412 0.4129308975144866 0.777563807016074
vn 0.2885109542724599 0.9374898514125577 0.19461296915482007
vn -0.2885109542724599 -0.9374898514125577 -0.19461296915482007
vn -0.48701610784778104 0.8478761877588111 -0.20957404640933927
vn 0.48701610784778104 -0.8478761877588111 0.20957404640933927
vn -0.30226287277138725 -0.935875606070855 0.1810359237982843
vn 0.30226287277138725 0.935875606070855 -0.1810359237982843
vn -0.35032409237329376 -0.14612803853097303 -0.925159243945559
vn 0.35032409237329376 0.14612803853097303 0.925159243945559
vn -0.7007561282832315 -0.009000001647576293 -0.7133441305876418
vn 0.7007561282832315 0.009000001647576293 0.7133441305876418
vn -0.6577538973298866 -0.42421193378391586 -0.6224179028455524
vn 0.6577538973298866 0.42421193378391586 0.6224179028455524
vn -0.7337212118451547 0.25901607478494515 -0.6281431813619223
vn 0.7337212118451547 -0.25901607478494515 0.6281431813619223
vn -0.6843112719364575 -0.1569480623691319 -0.712099282979054
vn 0.6843112719364575 0.1569480623691319 0.712099282979054
vn -0.777003515808079 0.5454926600747184 -0.31417080422358173
vn 0.777003515808079 -0.5454926600747184 0.31417080422358173
vn -0.6476492983351846 -0.5435282503725415 -0.5339732459710947
vn 0.6476492983351846 0.5435282503725415 0.5339732459710947
vn -0.6377370023168986 -0.7530690027358997 -0.16179800058781232
vn 0.6377370023168986 0.7530690027358997 0.16179800058781232
vn 0.9143299508488233 0.06510199650034453 0.3997029785133674
vn -0.9143299508488233 -0.06510199650034453 -0.3997029785133674
vn 0.4159240403737485 -0.4060780394179973 0.8137000789858703
vn -0.4159240403737485 0.4060780394179973 -0.8137000789858703
vn -0.3514451050826293 -0.6534761953903919 0.6704142004548814
vn 0.3514451050826293 0.6534761953903919 -0.6704142004548814
vn 0.9411458722672204 0.06194999159211681 -0.33227495490348
vn -0.9411458722672204 -0.06194999159211681 0.33227495490348
vn 0.8914143683405159 0.2863691183303214 0.3512451451376852
vn -0.8914143683405159 -0.2863691183303214 -0.3512451451376852
vn 0.30166303824469154 0.6593260835890363 0.6886860873112833
vn -0.30166303824469154 -0.6593260835890363 -0.6886860873112833
vn -0.5009189038681615 0.7896058484659665 0.35440493198580186
vn 0.5009189038681615 -0.7896058484659665 -0.35440493198580186
vn -0.797642137304534 0.593034102083713 0.10989801891762693
vn 0.797642137304534 -0.593034102083713 -0.10989801891762693
vn -0.6583607204080869 -0.7055307003759914 0.26227388861781076
vn 0.6583607204080869 0.7055307003759914 -0.26227388861781076
vn 0.3503300042156961 0.14612800175843113 0.925157011132877
vn -0.3503300042156961 -0.14612800175843113 -0.925157011132877
vn -0.4171268200761391 -0.13827694035549934 0.8982676125404333
vn 0.4171268200761391 0.13827694035549934 -0.8982676125404333
vn -0.7016659842542647 -0.4190529905962416 0.5762459870687521
vn 0.7016659842542647 0.4190529905962416 -0.5762459870687521
vn -0.4742221118763598 0.4129290974163858 0.7775621834389931
vn 0.4742221118763598 -0.4129290974163858 -0.7775621834389931
vn -0.7877446276765284 0.3834908187450247 0.4820717721512412
vn 0.7877446276765284 -0.3834908187450247 -0.4820717721512412
vn -0.7510772004722956 -0.0030860008236939947 0.6602071762179016
vn 0.7510772004722956 0.0030860008236939947 -0.6602071762179016
usemtl material_0_0
f 1//1 2//2 3//3
f 3//4 2//5 1//6
f 1//1 4//7 2//2
f 2//5 4//8 1//6
f 3//3 2//2 5//9
f 5//10 2//5 3//4
f 1//1 3//3 6//11
f 6//12 3//4 1//6
f 1//1 7//13 4//7
f 4//8 7//14 1//6
f 8//15 2//2 4//7
f 4//8 2//5 8//16
f 5//9 2//2 9//17
f 9//18 2//5 5//10
f 3//3 5//9 10//19
f 10//20 5//10 3//4
f 11//21 6//11 3//3
f 3//4 6//12 11//22
f 1//1 6//11 12//23
f 12//24 6//12 1//6
f 12//23 7//13 1//1
f 1//6 7//14 12//24
f 7//13 13//25 4//7
f 4//8 13//26 7//14
f 8//15 9//17 2//2
f 2//5 9//18 8//16
f 14//27 8//15 4//7
f 4//8 8//16 14//28
f 15//29 5//9 9//17
f 9//18 5//10 15//30
f 10//19 5//9 16//31
f 16//32 5//10 10//20
f 11//21 3//3 10//19
f 10//20 3//4 11//22
f 11//21 17//33 6//11
f 6//12 17//34 11//22
f 18//35 12//23 6//11
f 6//12 12//24 18//36
f 12//23 19//37 7//13
f 7//14 19//38 12//24
f 20//39 13//25 7//13
f 7//14 13//26 20//40
f 14//27 4//7 13//25
f 13//26 4//8 14//28
f 16//31 5//9 15//29
f 15//30 5//10 16//32
f 21//41 10//19 16//31
f 16//32 10//20 21//42
f 22//43 11//21 10//19
f 10//20 11//22 22//44
f 23//45 17//33 11//21
f 11//22 17//34 23//46
f 18//35 6//11 17//33
f 17//34 6//12 18//36
f 24//47 12//23 18//35
f 18//36 12//24 24//48
f 24//47 19//37 12//23
f 12//24 19//38 24//48
f 20//39 7//13 19//37
f 19//38 7//14 20//40
f 20//39 25//49 13//25
f 13//26 25//50 20//40
f 26//51 14//27 13//25
f 13//26 14//28 26//52
f 27//53 16//31 15//29
f 15//30 16//32 27//54
f 22//43 10//19 21//41
f 21//42 10//20 22//44
f 21//41 16//31 28//55
f 28//56 16//32 21//42
f 22//43 23//45 11//21
f 11//22 23//46 22//44
f 29//57 17//33 23//45
f 23//46 17//34 29//58
f 18//35 17//33 30//59
f 30//60 17//34 18//36
f 24//47 18//35 31//61
f 31//62 18//36 24//48
f 32//63 19//37 24//47
f 24//48 19//38 32//64
f 33//65 20//39 19//37
f 19//38 20//40 33//66
f 34//67 25//49 20//39
f 20//40 25//50 34//68
f 25//49 26//51 13//25
f 13//26 26//52 25//50
f 28//55 16//31 27//53
f 27//54 16//32 28//56
f 35//69 22//43 21//41
f 21//42 22//44 35//70
f 36//71 21//41 28//55
f 28//56 21//42 36//72
f 37//73 23//45 22//43
f 22//44 23//46 37//74
f 29//57 30//59 17//33
f 17//34 30//60 29//58
f 38//75 29//57 23//45
f 23//46 29//58 38//76
f 31//61 18//35 30//59
f 30//60 18//36 31//62
f 39//26 24//47 31//61
f 31//62 24//48 39//25
f 33//65 19//37 32//63
f 32//64 19//38 33//66
f 32//63 24//47 39//26
f 39//25 24//48 32//64
f 34//67 20//39 33//65
f 33//66 20//40 34//68
f 34//67 40//77 25//49
f 25//50 40//78 34//68
f 41//79 26//51 25//49
f 25//50 26//52 41//80
f 28//55 27//53 42//81
f 42//82 27//54 28//56
f 35//69 37//73 22//43
f 22//44 37//74 35//70
f 36//71 35//69 21//41
f 21//42 35//70 36//72
f 36//71 28//55 43//83
f 43//84 28//56 36//72
f 38//75 23//45 37//73
f 37//74 23//46 38//76
f 30//59 29//57 44//85
f 44//86 29//58 30//60
f 38//75 45//87 29//57
f 29//58 45//88 38//76
f 31//61 30//59 46//6
f 46//1 30//60 31//62
f 31//61 47//89 39//26
f 39//25 47//90 31//62
f 48//91 33//65 32//63
f 32//64 33//66 48//92
f 32//63 39//26 49//93
f 49//94 39//25 32//64
f 34//67 33//65 50//95
f 50//96 33//66 34//68
f 34//67 51//97 40//77
f 40//78 51//98 34//68
f 40//77 41//79 25//49
f 25//50 41//80 40//78
f 28//55 42//81 43//83
f 43//84 42//82 28//56
f 35//69 52//99 37//73
f 37//74 52//100 35//70
f 53//101 35//69 36//71
f 36//72 35//70 53//102
f 36//71 43//83 54//103
f 54//104 43//84 36//72
f 37//73 55//105 38//75
f 38//76 55//106 37//74
f 44//85 29//57 45//87
f 45//88 29//58 44//86
f 46//6 30//59 44//85
f 44//86 30//60 46//1
f 38//75 56//107 45//87
f 45//88 56//108 38//76
f 31//61 46//6 47//89
f 47//90 46//1 31//62
f 39//26 47//89 57//109
f 57//110 47//90 39//25
f 50//95 33//65 48//91
f 48//92 33//66 50//96
f 48//91 32//63 49//93
f 49//94 32//64 48//92
f 49//93 39//26 57//109
f 57//110 39//25 49//94
f 51//97 34//67 50//95
f 50//96 34//68 51//98
f 40//77 51//97 58//111
f 58//112 51//98 40//78
f 59//113 41//79 40//77
f 40//78 41//80 59//114
f 43//83 42//81 60//115
f 60//116 42//82 43//84
f 53//101 52//99 35//69
f 35//70 52//100 53//102
f 52//99 55//105 37//73
f 37//74 55//106 52//100
f 54//103 53//101 36//71
f 36//72 53//102 54//104
f 58//111 54//103 43//83
f 43//84 54//104 58//112
f 55//105 56//107 38//75
f 38//76 56//108 55//106
f 45//87 61//117 44//85
f 44//86 61//118 45//88
f 46//6 44//85 62//119
f 62//120 44//86 46//1
f 56//107 63//121 45//87
f 45//88 63//122 56//108
f 46//6 64//123 47//89
f 47//90 64//124 46//1
f 57//109 47//89 65//125
f 65//126 47//90 57//110
f 66//127 50//95 48//91
f 48//92 50//96 66//128
f 48//91 49//93 67//129
f 67//130 49//94 48//92
f 49//93 57//109 68//131
f 68//132 57//110 49//94
f 51//97 50//95 69//133
f 69//134 50//96 51//98
f 51//97 54//103 58//111
f 58//112 54//104 51//98
f 58//111 59//113 40//77
f 40//78 59//114 58//112
f 58//111 43//83 60//115
f 60//116 43//84 58//112
f 53//101 70//135 52//99
f 52//100 70//136 53//102
f 52//99 71//137 55//105
f 55//106 71//138 52//100
f 69//133 53//101 54//103
f 54//104 53//102 69//134
f 55//105 72//139 56//107
f 56//108 72//140 55//106
f 63//121 61//117 45//87
f 45//88 61//118 63//122
f 61//117 62//119 44//85
f 44//86 62//120 61//118
f 64//123 46//6 62//119
f 62//120 46//1 64//124
f 73//141 63//121 56//107
f 56//108 63//122 73//142
f 47//89 64//123 65//125
f 65//126 64//124 47//90
f 57//109 65//125 74//143
f 74//144 65//126 57//110
f 69//133 50//95 66//127
f 66//128 50//96 69//134
f 66//127 48//91 67//129
f 67//130 48//92 66//128
f 67//129 49//93 68//131
f 68//132 49//94 67//130
f 68//131 57//109 74//143
f 74//144 57//110 68//132
f 51//97 69//133 54//103
f 54//104 69//134 51//98
f 58//111 60//115 59//113
f 59//114 60//116 58//112
f 69//133 70//135 53//101
f 53//102 70//136 69//134
f 52//99 70//135 71//137
f 71//138 70//136 52//100
f 55//105 71//137 72//139
f 72//140 71//138 55//106
f 73//141 56//107 72//139
f 72//140 56//108 73//142
f 69//133 66//127 70//135
f 70//136 66//128 69//134
f 66//127 67//129 75//145
f 75//146 67//130 66//128
f 67//129 68//131 76//147
f 76//148 68//132 67//130
f 77//149 68//131 74//143
f 74//144 68//132 77//150
f 75//145 71//137 70//135
f 70//136 71//138 75//146
f 71//137 78//151 72//139
f 72//140 78//152 71//138
f 79//153 73//141 72//139
f 72//140 73//142 79//154
f 66//127 75//145 70//135
f 70//136 75//146 66//128
f 67//129 76//147 75//145
f 75//146 76//148 67//130
f 76//147 68//131 77//149
f 77//150 68//132 76//148
f 75//145 78//151 71//137
f 71//138 78//152 75//146
f 79//153 72//139 78//151
f 78//152 72//140 79//154
f 75//145 76//147 78//151
f 78//152 76//148 75//146
f 80//155 76//147 77//149
f 77//150 76//148 80//156
f 80//155 79//153 78//151
f 78//152 79//154 80//156
f 80//155 78//151 76//147
f 76//148 78//152 80//156
