# Blender v2.79 (sub 0) OBJ File: ''
# www.blender.org
mtllib 102654_link_3_1.mtl
o Shape_IndexedFaceSet.001_Shape_IndexedFaceSet.5728
v -0.021669 0.047087 0.861286
v 0.440587 0.105740 -0.160921
v -0.412645 0.181997 -0.159172
v -0.118156 -0.207315 -0.174183
v -0.074126 -0.206904 0.693399
v 0.289784 0.167318 0.628408
v 0.170123 -0.205850 0.648179
v -0.317334 0.159782 0.586954
v 0.195279 0.232002 -0.219029
v -0.332474 -0.074535 0.308787
v 0.126996 -0.206610 -0.172449
v -0.064565 0.176208 0.793128
v -0.329026 0.222482 -0.219195
v 0.341313 -0.065800 0.326081
v -0.426969 0.079305 -0.155970
v -0.167750 -0.203772 0.636483
v 0.388687 0.151578 0.413099
v 0.338963 0.222932 -0.220239
v 0.237993 -0.186956 0.109999
v -0.211433 -0.204296 0.118644
v -0.379454 0.073020 0.430565
v 0.153363 0.134470 0.815969
v -0.230600 0.064156 0.735321
v 0.334830 0.046641 0.577895
v 0.124471 0.182974 0.711308
v -0.359200 0.176409 0.403876
v -0.185645 0.231657 -0.218292
v 0.387965 0.038035 0.378050
v 0.178267 0.037917 0.786114
v 0.423017 0.061791 -0.150361
v 0.431429 0.173925 -0.160287
v -0.325086 0.037852 0.577446
v -0.074171 0.143335 0.851331
v -0.166539 0.183007 0.677153
v -0.117285 0.029307 0.822272
v 0.083300 -0.206697 0.693054
v 0.368687 0.176561 0.395303
v -0.388937 0.143082 0.378185
v 0.219489 -0.203065 0.377580
v -0.297776 -0.126360 0.161974
v -0.368092 0.003200 0.377880
v 0.324832 -0.100634 0.152964
v 0.083029 0.029326 0.840033
v 0.074459 0.160375 0.840970
v -0.179023 0.143130 0.789264
v 0.265593 0.064073 0.700012
v -0.219134 -0.203436 0.309023
v -0.245913 -0.160905 0.041014
v 0.262004 0.183389 0.566351
v 0.332428 -0.031252 0.481233
v -0.037997 0.182480 0.744517
v 0.301371 0.142846 0.648821
v -0.152889 -0.206919 0.658435
v -0.432495 0.148861 -0.162362
v -0.295607 0.183306 0.506247
v -0.331647 -0.022608 0.481175
v 0.254867 -0.160710 0.049947
v -0.336307 0.143020 0.570531
v 0.004626 0.003200 0.841267
v -0.409616 0.052879 -0.145561
v 0.039772 0.143991 0.862551
v -0.387571 0.055453 0.360648
v -0.228952 0.158933 0.723879
v 0.398652 0.081986 0.360729
vn 0.9568 -0.1302 0.2600
vn -0.2683 -0.2296 -0.9356
vn 0.0074 -0.1142 -0.9934
vn 0.2708 -0.2374 -0.9329
vn -0.0016 0.1069 -0.9943
vn -0.0015 -0.1049 -0.9945
vn -0.4073 0.9120 0.0477
vn -0.0020 0.1294 -0.9916
vn 0.3891 -0.3594 -0.8482
vn 0.9313 -0.3614 0.0455
vn 0.9036 -0.4264 0.0408
vn 0.9881 0.1320 0.0788
vn 0.5732 0.0846 -0.8150
vn -0.0641 0.9964 0.0555
vn -0.2464 -0.4985 0.8311
vn -0.3598 -0.1003 0.9276
vn 0.0013 -1.0000 0.0004
vn 0.0029 -1.0000 0.0000
vn 0.0100 -1.0000 0.0004
vn 0.6602 0.7077 0.2515
vn 0.7490 0.6576 0.0815
vn 0.4444 0.8947 0.0459
vn -0.7735 0.6288 0.0797
vn 0.0477 -0.9989 -0.0016
vn 0.7655 -0.6295 0.1332
vn 0.2702 -0.9620 -0.0392
vn -0.8412 -0.5407 -0.0079
vn -0.8961 -0.4424 0.0358
vn 0.8692 -0.4942 0.0167
vn 0.7575 -0.6502 0.0587
vn 0.7035 -0.7107 0.0059
vn 0.4710 -0.4463 0.7609
vn 0.4974 -0.1366 0.8567
vn 0.4058 -0.4828 0.7760
vn 0.4022 0.8063 0.4337
vn 0.0467 0.9809 0.1890
vn 0.2134 0.9452 0.2471
vn -0.0665 0.8735 0.4823
vn -0.2629 0.8580 0.4412
vn -0.6269 -0.1167 0.7703
vn -0.5092 -0.0267 0.8603
vn 0.7834 -0.3726 0.4974
vn 0.7066 -0.3662 0.6054
vn 0.7071 -0.0360 0.7062
vn -0.7460 -0.6557 0.1164
vn -0.7499 -0.6592 0.0555
vn -0.6765 -0.7361 -0.0240
vn -0.5884 -0.7884 -0.1793
vn -0.6923 -0.7156 -0.0925
vn 0.0634 0.9964 0.0563
vn 0.0569 0.9968 0.0569
vn 0.1777 0.9690 0.1714
vn 0.2665 0.9553 0.1281
vn 0.1687 0.9835 0.0659
vn 0.7987 -0.5761 0.1740
vn 0.8284 -0.4461 0.3389
vn 0.8702 -0.4681 0.1541
vn 0.9035 -0.3444 0.2551
vn 0.0078 0.9986 0.0532
vn 0.0260 0.9895 0.1419
vn -0.0008 0.9987 0.0511
vn -0.0491 0.9936 0.1014
vn -0.0246 0.9982 0.0548
vn 0.7428 0.5998 0.2974
vn 0.5345 0.6761 0.5072
vn 0.9347 0.0680 0.3488
vn 0.7431 0.0931 0.6627
vn 0.8637 -0.0678 0.4994
vn -0.0000 -1.0000 0.0005
vn -0.0355 -0.9994 -0.0010
vn -0.7859 -0.3956 0.4753
vn -0.7693 -0.3686 0.5218
vn -0.3520 -0.4970 0.7931
vn -0.6343 -0.3738 0.6768
vn -0.2638 -0.9637 0.0404
vn -0.0628 -0.9980 0.0020
vn -0.6542 0.4504 -0.6076
vn -0.4136 -0.1158 -0.9031
vn -0.8586 0.5072 0.0746
vn -0.3685 0.9144 0.1673
vn -0.2061 0.9766 0.0622
vn -0.0734 0.9957 0.0571
vn -0.8004 -0.5729 0.1764
vn -0.8238 -0.4531 0.3407
vn -0.9116 -0.3174 0.2614
vn -0.8342 -0.5269 0.1627
vn -0.9132 -0.3296 0.2398
vn 0.5913 -0.7866 -0.1776
vn 0.6626 -0.7115 -0.2341
vn 0.7250 -0.6823 -0.0945
vn 0.7396 -0.6630 -0.1156
vn -0.7479 0.6235 0.2277
vn -0.9409 -0.0787 0.3294
vn -0.8525 -0.0568 0.5197
vn -0.9624 0.0666 0.2634
vn -0.8061 0.5491 0.2207
vn -0.2123 -0.5080 0.8348
vn 0.0025 -0.5762 0.8173
vn 0.1299 -0.3460 0.9292
vn 0.1861 -0.5192 0.8341
vn -0.5888 -0.6000 -0.5416
vn -0.8320 -0.5544 -0.0206
vn -0.6597 -0.7128 -0.2379
vn -0.7331 -0.6689 -0.1233
vn -0.0982 0.0493 0.9940
vn 0.1770 -0.1250 0.9763
vn 0.3763 -0.0398 0.9257
vn 0.3818 0.3293 0.8636
vn -0.0583 0.8380 0.5426
vn -0.9913 -0.0405 0.1253
vn -0.9415 -0.3323 0.0565
vn -0.9395 -0.2902 0.1820
vn -0.9947 -0.0724 0.0725
vn -0.9963 -0.0315 0.0799
vn -0.1965 0.9534 0.2287
vn -0.7813 0.0882 0.6179
vn -0.2657 0.8710 0.4134
vn -0.2921 0.9364 0.1943
vn -0.2346 0.9555 0.1789
vn -0.7745 0.3845 0.5023
vn -0.8204 0.0826 0.5658
vn 0.9933 0.0794 0.0835
vn 0.9602 -0.0667 0.2713
vn 0.9753 -0.2100 0.0688
usemtl Shape.5729
s off
f 24//1 28//1 64//1
f 13//2 4//2 15//2
f 11//3 4//3 18//3
f 2//4 11//4 18//4
f 13//5 9//5 18//5
f 4//6 13//6 18//6
f 13//7 3//7 26//7
f 9//8 13//8 27//8
f 11//9 2//9 30//9
f 2//10 28//10 30//10
f 28//11 14//11 30//11
f 17//12 2//12 31//12
f 2//13 18//13 31//13
f 27//14 13//14 34//14
f 5//15 1//15 35//15
f 1//16 33//16 35//16
f 5//17 4//17 36//17
f 4//18 11//18 36//18
f 11//19 7//19 36//19
f 6//20 17//20 37//20
f 17//21 31//21 37//21
f 31//22 18//22 37//22
f 26//23 3//23 38//23
f 7//24 11//24 39//24
f 14//25 7//25 39//25
f 11//26 19//26 39//26
f 10//27 15//27 40//27
f 15//28 10//28 41//28
f 30//29 14//29 42//29
f 14//30 39//30 42//30
f 39//31 19//31 42//31
f 7//32 29//32 43//32
f 29//33 22//33 43//33
f 36//34 7//34 43//34
f 22//35 6//35 44//35
f 25//36 12//36 44//36
f 6//37 25//37 44//37
f 12//38 33//38 44//38
f 33//39 12//39 45//39
f 23//40 35//40 45//40
f 35//41 33//41 45//41
f 7//42 24//42 46//42
f 29//43 7//43 46//43
f 22//44 29//44 46//44
f 16//45 10//45 47//45
f 10//46 40//46 47//46
f 40//47 20//47 47//47
f 4//48 20//48 48//48
f 20//49 40//49 48//49
f 18//50 9//50 49//50
f 9//51 25//51 49//51
f 25//52 6//52 49//52
f 6//53 37//53 49//53
f 37//54 18//54 49//54
f 7//55 14//55 50//55
f 24//56 7//56 50//56
f 14//57 28//57 50//57
f 28//58 24//58 50//58
f 25//59 9//59 51//59
f 12//60 25//60 51//60
f 9//61 27//61 51//61
f 34//62 12//62 51//62
f 27//63 34//63 51//63
f 17//64 6//64 52//64
f 6//65 22//65 52//65
f 24//66 17//66 52//66
f 22//67 46//67 52//67
f 46//68 24//68 52//68
f 4//69 5//69 53//69
f 20//70 4//70 53//70
f 32//71 16//71 53//71
f 23//72 32//72 53//72
f 5//73 35//73 53//73
f 35//74 23//74 53//74
f 16//75 47//75 53//75
f 47//76 20//76 53//76
f 3//77 13//77 54//77
f 13//78 15//78 54//78
f 38//79 3//79 54//79
f 26//80 8//80 55//80
f 13//81 26//81 55//81
f 34//82 13//82 55//82
f 10//83 16//83 56//83
f 16//84 32//84 56//84
f 32//85 21//85 56//85
f 41//86 10//86 56//86
f 21//87 41//87 56//87
f 19//88 11//88 57//88
f 11//89 30//89 57//89
f 42//90 19//90 57//90
f 30//91 42//91 57//91
f 8//92 26//92 58//92
f 21//93 32//93 58//93
f 32//94 23//94 58//94
f 38//95 21//95 58//95
f 26//96 38//96 58//96
f 1//97 5//97 59//97
f 5//98 36//98 59//98
f 43//99 1//99 59//99
f 36//100 43//100 59//100
f 15//101 4//101 60//101
f 40//102 15//102 60//102
f 4//103 48//103 60//103
f 48//104 40//104 60//104
f 33//105 1//105 61//105
f 1//106 43//106 61//106
f 43//107 22//107 61//107
f 22//108 44//108 61//108
f 44//109 33//109 61//109
f 21//110 38//110 62//110
f 15//111 41//111 62//111
f 41//112 21//112 62//112
f 54//113 15//113 62//113
f 38//114 54//114 62//114
f 12//115 34//115 63//115
f 23//116 45//116 63//116
f 45//117 12//117 63//117
f 55//118 8//118 63//118
f 34//119 55//119 63//119
f 8//120 58//120 63//120
f 58//121 23//121 63//121
f 2//122 17//122 64//122
f 17//123 24//123 64//123
f 28//124 2//124 64//124
