# Blender v2.79 (sub 0) OBJ File: ''
# www.blender.org
mtllib 102654_link_3_5.mtl
o Shape_IndexedFaceSet.005_Shape_IndexedFaceSet.5732
v -0.098246 -0.537863 0.735361
v 0.245761 -0.555673 0.340367
v 0.236560 -0.417849 0.349302
v -0.222504 -0.566830 0.216017
v -0.219599 -0.219576 0.331497
v 0.160159 -0.219256 0.659527
v 0.196189 -0.225495 0.219908
v 0.178163 -0.565627 0.703668
v -0.167502 -0.219941 0.641569
v -0.184858 -0.564350 0.676132
v 0.229798 -0.565315 0.218289
v -0.191647 -0.228488 0.224546
v 0.082471 -0.219140 0.694232
v 0.221778 -0.218357 0.243637
v -0.236213 -0.564100 0.366316
v 0.091349 -0.565531 0.746962
v -0.072992 -0.219621 0.693631
v 0.184300 -0.220944 0.589308
v -0.220179 -0.219129 0.261946
v -0.184786 -0.564284 0.211213
v 0.192759 -0.563112 0.666197
v -0.169225 -0.565952 0.704089
v 0.218139 -0.221269 0.392752
v 0.247936 -0.565857 0.252225
v -0.055623 -0.529782 0.744936
v -0.237612 -0.504537 0.253211
v 0.073477 -0.564233 0.211293
v 0.229216 -0.227996 0.270814
v -0.150781 -0.219384 0.659392
v -0.210051 -0.220329 0.400882
v -0.082031 -0.565420 0.746791
v 0.176250 -0.220456 0.632487
v 0.227992 -0.563926 0.460967
v -0.237667 -0.565138 0.235883
v 0.073490 -0.529816 0.745002
vn -0.0005 0.1613 0.9869
vn 0.6678 0.0696 -0.7411
vn -0.0107 0.9607 -0.2774
vn 0.0026 1.0000 0.0026
vn 0.4423 0.1360 0.8865
vn 0.4036 0.1478 0.9029
vn -0.7815 0.0868 -0.6179
vn -0.0121 0.9678 -0.2514
vn -0.1287 0.0367 -0.9910
vn -0.0123 0.0394 -0.9991
vn 0.0009 -1.0000 0.0017
vn -0.8668 0.0929 0.4900
vn -0.0814 -0.9966 0.0107
vn -0.1421 -0.9896 0.0228
vn 0.0009 -1.0000 0.0041
vn 0.9836 0.0623 0.1692
vn 0.0020 -1.0000 0.0008
vn 0.0034 -0.9998 -0.0178
vn 0.8810 0.0547 -0.4700
vn -0.0043 0.1630 0.9866
vn -0.9978 0.0521 0.0398
vn -0.9981 0.0607 0.0087
vn 0.0448 0.0092 -0.9990
vn 0.0045 -0.9682 -0.2503
vn 0.0003 0.0253 -0.9997
vn 0.0003 -0.8846 -0.4663
vn 0.9963 0.0627 0.0585
vn 0.9935 0.0741 0.0862
vn 0.7468 0.6643 0.0312
vn 0.9984 0.0543 0.0184
vn 0.9682 0.0669 -0.2412
vn -0.0421 0.9991 0.0082
vn -0.0012 1.0000 0.0014
vn -0.0031 0.9999 0.0141
vn -0.3979 0.1503 0.9050
vn -0.0348 0.9994 0.0067
vn -0.0017 1.0000 0.0009
vn -0.7255 0.1259 0.6767
vn -0.4445 0.1378 0.8851
vn -0.3028 0.9516 0.0520
vn -0.9825 0.0669 0.1736
vn -0.9887 0.0615 0.1367
vn -0.9848 0.0585 0.1633
vn -0.3865 0.1500 0.9100
vn -0.0007 -0.9999 0.0138
vn -0.4376 0.1125 0.8921
vn -0.0010 0.0527 0.9986
vn -0.1391 0.1540 0.9782
vn 0.8564 0.1088 0.5048
vn 0.1036 0.9945 0.0175
vn 0.9269 0.0807 0.3665
vn 0.9811 0.0652 0.1822
vn 0.1507 0.9883 0.0230
vn 0.5575 0.8248 0.0946
vn 0.9872 0.0562 0.1493
vn 0.3097 -0.9491 0.0569
vn 0.9866 0.0587 0.1525
vn 0.9837 0.0619 0.1686
vn 0.8291 -0.5528 0.0843
vn 0.1465 -0.9889 0.0231
vn -0.0992 -0.9950 0.0090
vn -0.7884 0.0857 -0.6091
vn -0.9999 -0.0023 0.0112
vn -0.9712 0.0663 -0.2289
vn 0.1987 0.1525 0.9681
vn -0.0005 0.0546 0.9985
usemtl Shape.5733
s off
f 13//1 25//1 35//1
f 11//2 7//2 14//2
f 7//3 12//3 14//3
f 13//4 6//4 14//4
f 8//5 6//5 16//5
f 6//6 13//6 16//6
f 12//7 4//7 19//7
f 14//8 12//8 19//8
f 4//9 12//9 20//9
f 12//10 7//10 20//10
f 4//11 8//11 22//11
f 9//12 10//12 22//12
f 15//13 4//13 22//13
f 10//14 15//14 22//14
f 8//15 16//15 22//15
f 18//16 21//16 23//16
f 8//17 4//17 24//17
f 4//18 11//18 24//18
f 11//19 14//19 24//19
f 13//20 17//20 25//20
f 15//21 5//21 26//21
f 5//22 19//22 26//22
f 7//23 11//23 27//23
f 11//24 4//24 27//24
f 20//25 7//25 27//25
f 4//26 20//26 27//26
f 3//27 2//27 28//27
f 23//28 3//28 28//28
f 14//29 23//29 28//29
f 2//30 24//30 28//30
f 24//31 14//31 28//31
f 5//32 9//32 29//32
f 13//33 14//33 29//33
f 17//34 13//34 29//34
f 1//35 17//35 29//35
f 19//36 5//36 29//36
f 14//37 19//37 29//37
f 9//38 22//38 29//38
f 22//39 1//39 29//39
f 9//40 5//40 30//40
f 10//41 9//41 30//41
f 5//42 15//42 30//42
f 15//43 10//43 30//43
f 17//44 1//44 31//44
f 22//45 16//45 31//45
f 1//46 22//46 31//46
f 16//47 25//47 31//47
f 25//48 17//48 31//48
f 6//49 8//49 32//49
f 14//50 6//50 32//50
f 8//51 21//51 32//51
f 21//52 18//52 32//52
f 23//53 14//53 32//53
f 18//54 23//54 32//54
f 2//55 3//55 33//55
f 21//56 8//56 33//56
f 3//57 23//57 33//57
f 23//58 21//58 33//58
f 24//59 2//59 33//59
f 8//60 24//60 33//60
f 4//61 15//61 34//61
f 19//62 4//62 34//62
f 15//63 26//63 34//63
f 26//64 19//64 34//64
f 16//65 13//65 35//65
f 25//66 16//66 35//66
