# Blender v2.79 (sub 0) OBJ File: ''
# www.blender.org
mtllib 102654_link_3_3.mtl
o Shape_IndexedFaceSet.003_Shape_IndexedFaceSet.5730
v 0.020964 -0.296477 -0.534012
v 0.121401 -0.562801 -0.186732
v -0.131056 -0.581202 -0.297674
v -0.071968 -0.126104 -0.519621
v 0.113356 -0.136911 -0.476027
v 0.065431 -0.589326 -0.415499
v -0.118537 -0.558012 -0.190755
v 0.141127 -0.581303 -0.307396
v 0.151405 -0.113757 -0.170499
v -0.054861 -0.588272 -0.415331
v -0.111312 -0.272202 -0.474458
v 0.119891 -0.272185 -0.474484
v 0.046828 -0.125797 -0.553815
v -0.151894 -0.102825 -0.179258
v 0.152697 -0.102012 -0.188454
v -0.045549 -0.238520 -0.541560
v -0.113063 -0.153685 -0.459256
v 0.061777 -0.297120 -0.523324
v -0.148095 -0.108706 -0.174566
v -0.101188 -0.579542 -0.375399
v 0.121688 -0.195738 -0.475971
v 0.101958 -0.580641 -0.385087
v -0.085659 -0.305552 -0.497960
v -0.037974 -0.126318 -0.553378
v -0.029097 -0.296405 -0.534286
v 0.103689 -0.263694 -0.499646
v 0.127034 -0.557003 -0.191639
v 0.021124 -0.203595 -0.552072
v -0.105207 -0.127487 -0.468056
v -0.104213 -0.179573 -0.492272
v 0.105868 -0.126671 -0.485355
v 0.131432 -0.581381 -0.336568
vn 0.8366 -0.1968 -0.5112
vn -0.0231 -0.9765 0.2145
vn 0.0051 -0.9883 0.1524
vn 0.0022 -0.9974 0.0725
vn -0.0087 -0.9985 0.0544
vn -0.9883 -0.0758 0.1322
vn -0.9915 -0.0110 -0.1300
vn -0.0046 0.9980 -0.0636
vn 0.9982 -0.0361 0.0482
vn 0.0143 0.8363 0.5481
vn -0.9904 0.0031 -0.1379
vn 0.2339 -0.3340 -0.9131
vn -0.0175 -0.0372 0.9992
vn -0.0142 -0.0352 0.9993
vn -0.8186 -0.0744 0.5696
vn -0.0001 0.6236 0.7817
vn -0.2929 -0.9469 -0.1328
vn -0.9225 -0.1456 -0.3576
vn 0.9844 -0.0265 -0.1742
vn 0.9941 0.0028 -0.1081
vn 0.9788 0.1385 -0.1507
vn -0.6568 -0.2766 -0.7015
vn -0.7946 -0.2098 -0.5697
vn -0.0798 0.9930 -0.0867
vn -0.0065 0.9979 -0.0646
vn 0.0045 -0.3745 -0.9272
vn -0.0046 -0.3771 -0.9262
vn -0.4825 -0.2937 -0.8252
vn -0.4954 -0.2455 -0.8332
vn 0.6251 -0.2633 -0.7348
vn 0.5486 -0.0999 -0.8301
vn 0.8357 -0.0303 -0.5483
vn 0.7377 0.0394 -0.6740
vn 0.6536 -0.2604 -0.7106
vn 0.7870 -0.2135 -0.5788
vn 0.7856 -0.5794 0.2173
vn 0.6964 -0.0723 0.7140
vn 0.9892 -0.0607 0.1332
vn 0.2462 -0.1854 -0.9513
vn 0.3459 -0.1351 -0.9285
vn -0.0050 -0.0207 -0.9998
vn -0.1052 -0.0971 -0.9897
vn 0.0051 -0.1909 -0.9816
vn -0.0788 -0.1463 -0.9861
vn -0.2247 0.9671 -0.1189
vn -0.9578 0.2286 -0.1744
vn -0.9182 0.1525 -0.3657
vn -0.9615 0.0210 -0.2742
vn -0.6806 -0.0673 -0.7296
vn -0.7255 -0.0760 -0.6841
vn -0.7031 0.0617 -0.7084
vn -0.6627 -0.0341 -0.7481
vn -0.8212 0.2276 -0.5233
vn 0.1340 0.9856 -0.1030
vn 0.8640 0.4719 -0.1755
vn 0.8334 0.1175 -0.5400
vn 0.7551 0.0846 -0.6501
vn 0.1905 -0.9798 -0.0607
vn 0.9438 -0.1046 -0.3134
vn 0.4344 -0.8571 -0.2769
usemtl Shape.5731
s off
f 22//1 12//1 32//1
f 3//2 2//2 7//2
f 2//3 3//3 8//3
f 3//4 6//4 8//4
f 6//5 3//5 10//5
f 3//6 7//6 14//6
f 11//7 3//7 14//7
f 13//8 14//8 15//8
f 9//9 8//9 15//9
f 14//10 9//10 15//10
f 11//11 14//11 17//11
f 6//12 1//12 18//12
f 7//13 2//13 19//13
f 2//14 9//14 19//14
f 14//15 7//15 19//15
f 9//16 14//16 19//16
f 10//17 3//17 20//17
f 3//18 11//18 20//18
f 8//19 12//19 21//19
f 15//20 8//20 21//20
f 5//21 15//21 21//21
f 10//22 20//22 23//22
f 20//23 11//23 23//23
f 4//24 14//24 24//24
f 14//25 13//25 24//25
f 1//26 6//26 25//26
f 6//27 10//27 25//27
f 10//28 23//28 25//28
f 23//29 16//29 25//29
f 6//30 18//30 26//30
f 18//31 13//31 26//31
f 21//32 12//32 26//32
f 13//33 21//33 26//33
f 22//34 6//34 26//34
f 12//35 22//35 26//35
f 2//36 8//36 27//36
f 9//37 2//37 27//37
f 8//38 9//38 27//38
f 18//39 1//39 28//39
f 13//40 18//40 28//40
f 24//41 13//41 28//41
f 16//42 24//42 28//42
f 1//43 25//43 28//43
f 25//44 16//44 28//44
f 14//45 4//45 29//45
f 17//46 14//46 29//46
f 17//47 29//47 30//47
f 11//48 17//48 30//48
f 16//49 23//49 30//49
f 23//50 11//50 30//50
f 4//51 24//51 30//51
f 24//52 16//52 30//52
f 29//53 4//53 30//53
f 13//54 15//54 31//54
f 15//55 5//55 31//55
f 5//56 21//56 31//56
f 21//57 13//57 31//57
f 8//58 6//58 32//58
f 12//59 8//59 32//59
f 6//60 22//60 32//60
