# Blender v2.79 (sub 0) OBJ File: ''
# www.blender.org
mtllib 102654_link_3_2.mtl
o Shape_IndexedFaceSet.002_Shape_IndexedFaceSet.5729
v 0.220237 -0.571788 -0.186732
v -0.154486 -0.633135 -0.421057
v -0.153351 -0.599742 -0.420250
v -0.237912 -0.661627 -0.186732
v 0.236830 -0.649529 -0.353611
v -0.219937 -0.571788 -0.186732
v 0.175323 -0.571788 -0.402309
v 0.213982 -0.656501 -0.199312
v -0.219937 -0.571788 -0.348415
v 0.162175 -0.655557 -0.398618
v -0.203441 -0.656231 -0.352018
v -0.118374 -0.563891 -0.189406
v 0.037360 -0.567107 -0.410499
v 0.163831 -0.608037 -0.421115
v 0.243280 -0.590923 -0.346342
v 0.247393 -0.642554 -0.190972
v -0.235164 -0.642184 -0.355103
v 0.126552 -0.564317 -0.190451
v -0.145562 -0.655693 -0.398902
v -0.237515 -0.590611 -0.191268
v 0.160837 -0.640985 -0.418988
v -0.157048 -0.571788 -0.402309
v 0.229200 -0.571788 -0.348415
v 0.242913 -0.590956 -0.193131
v -0.232411 -0.607994 -0.363019
v 0.221142 -0.656332 -0.336072
vn 0.4096 -0.9122 0.0125
vn 0.0000 0.0000 1.0000
vn 0.0000 0.3207 0.9472
vn -0.0775 0.9970 0.0000
vn -0.0021 0.0242 -0.9997
vn 0.0043 0.2634 -0.9647
vn 0.0681 0.4424 -0.8943
vn 0.6835 0.0153 -0.7298
vn 0.6548 0.1740 -0.7355
vn 0.0109 -0.0556 0.9984
vn 0.0294 -0.5639 0.8253
vn 0.9930 -0.1018 -0.0601
vn -0.3932 -0.9126 -0.1118
vn 0.0046 0.4910 0.8712
vn 0.0017 0.9999 -0.0134
vn 0.0005 -0.9996 -0.0278
vn -0.0206 -0.9991 -0.0369
vn -0.3896 -0.7192 -0.5753
vn -0.3328 -0.8440 -0.4206
vn -0.3114 0.0623 0.9482
vn -0.7309 0.6825 0.0000
vn -0.9999 0.0046 -0.0158
vn 0.3922 -0.7358 -0.5521
vn 0.0049 -0.0649 -0.9979
vn 0.6414 -0.1073 -0.7596
vn -0.0128 -0.7032 -0.7108
vn 0.0009 -0.8133 -0.5819
vn -0.0275 0.9991 -0.0321
vn -0.0254 0.9992 -0.0324
vn -0.0484 0.5350 -0.8435
vn 0.0360 0.9987 -0.0360
vn 0.6464 0.4056 -0.6462
vn 0.0793 0.9968 0.0044
vn 0.0328 0.9991 -0.0260
vn 0.3235 0.0676 0.9438
vn 0.9962 0.0866 0.0024
vn 0.6511 0.7582 0.0361
vn 0.8053 0.5928 0.0021
vn -0.5886 0.0395 -0.8074
vn -0.6188 -0.1296 -0.7748
vn -0.9355 0.3477 -0.0630
vn -0.9967 0.0717 -0.0369
vn -0.5661 0.3909 -0.7257
vn -0.5748 0.4686 -0.6708
vn 0.0113 -0.9999 -0.0006
vn 0.0057 -0.9998 -0.0178
vn 0.1963 -0.9606 -0.1970
vn 0.3812 -0.9243 0.0188
usemtl Shape.5730
s off
f 5//1 16//1 26//1
f 4//2 1//2 6//2
f 6//3 1//3 12//3
f 9//4 6//4 12//4
f 2//5 3//5 14//5
f 3//6 13//6 14//6
f 13//7 7//7 14//7
f 5//8 14//8 15//8
f 14//9 7//9 15//9
f 1//10 4//10 16//10
f 4//11 8//11 16//11
f 5//12 15//12 16//12
f 11//13 4//13 17//13
f 12//14 1//14 18//14
f 13//15 12//15 18//15
f 10//16 4//16 19//16
f 4//17 11//17 19//17
f 17//18 2//18 19//18
f 11//19 17//19 19//19
f 4//20 6//20 20//20
f 6//21 9//21 20//21
f 17//22 4//22 20//22
f 5//23 10//23 21//23
f 2//24 14//24 21//24
f 14//25 5//25 21//25
f 19//26 2//26 21//26
f 10//27 19//27 21//27
f 9//28 12//28 22//28
f 12//29 13//29 22//29
f 13//30 3//30 22//30
f 7//31 13//31 23//31
f 15//32 7//32 23//32
f 18//33 1//33 23//33
f 13//34 18//34 23//34
f 1//35 16//35 24//35
f 16//36 15//36 24//36
f 23//37 1//37 24//37
f 15//38 23//38 24//38
f 3//39 2//39 25//39
f 2//40 17//40 25//40
f 20//41 9//41 25//41
f 17//42 20//42 25//42
f 22//43 3//43 25//43
f 9//44 22//44 25//44
f 8//45 4//45 26//45
f 4//46 10//46 26//46
f 10//47 5//47 26//47
f 16//48 8//48 26//48
