# SSTK version 0.8.0
# 33
mtllib original-33.mtl
o mesh33/mesh33-geometry#mesh33-geometry
v 0.308893 0.221955 -0.162448
v 0.308893 0.221955 -0.162296
v 0.310397 0.216341 -0.162296
v 0.304783 0.226064 -0.162448
v 0.308893 0.221955 -0.150285
v 0.310397 0.216341 -0.162448
v 0.304783 0.226064 -0.162296
v 0.308840 0.221924 -0.162508
v 0.304783 0.226064 -0.150285
v 0.310397 0.216341 -0.150285
v 0.308893 0.210728 -0.162296
v 0.310336 0.216341 -0.162508
v 0.299170 0.227568 -0.162448
v 0.304753 0.226011 -0.162508
v 0.304783 0.226064 -0.150067
v 0.308893 0.221955 -0.150067
v 0.308893 0.210728 -0.162448
v 0.308840 0.210758 -0.162508
v 0.299170 0.227568 -0.162296
v 0.299170 0.227568 -0.150285
v 0.309091 0.216341 -0.163723
v 0.307762 0.221302 -0.163723
v 0.299170 0.227568 -0.150067
v 0.310397 0.216341 -0.150067
v 0.308893 0.210728 -0.150285
v 0.304783 0.206618 -0.162296
v 0.307762 0.211380 -0.163723
v 0.299170 0.227507 -0.162508
v 0.293556 0.226064 -0.162448
v 0.304131 0.224934 -0.163723
v 0.299170 0.227693 -0.150067
v 0.304846 0.226172 -0.150067
v 0.309001 0.222017 -0.150067
v 0.304783 0.206618 -0.162448
v 0.304753 0.206671 -0.162508
v 0.304131 0.207749 -0.163723
v 0.293556 0.226064 -0.162296
v 0.293556 0.226064 -0.150285
v 0.293556 0.226064 -0.150067
v 0.307709 0.211411 -0.163783
v 0.309030 0.216341 -0.163783
v 0.307709 0.221271 -0.163783
v 0.293494 0.226172 -0.150067
v 0.310521 0.216341 -0.150067
v 0.308893 0.210728 -0.150067
v 0.304783 0.206618 -0.150285
v 0.299170 0.205114 -0.162296
v 0.304100 0.207802 -0.163783
v 0.299170 0.226263 -0.163723
v 0.293587 0.226011 -0.162508
v 0.289447 0.221955 -0.162448
v 0.304100 0.224881 -0.163783
v 0.299170 0.230216 -0.150067
v 0.292233 0.228357 -0.150067
v 0.306107 0.228357 -0.150067
v 0.311185 0.223279 -0.150067
v 0.299170 0.205114 -0.162448
v 0.299170 0.205175 -0.162508
v 0.299170 0.206420 -0.163723
v 0.299170 0.206481 -0.163783
v 0.289447 0.221955 -0.162296
v 0.289447 0.221955 -0.150285
v 0.289447 0.221955 -0.150067
v 0.289339 0.222017 -0.150067
v 0.303921 0.208113 -0.163783
v 0.307399 0.211590 -0.163783
v 0.308672 0.216341 -0.163783
v 0.307399 0.221092 -0.163783
v 0.287154 0.223279 -0.150067
v 0.313044 0.216341 -0.150067
v 0.309001 0.210666 -0.150067
v 0.304783 0.206618 -0.150067
v 0.299170 0.205114 -0.150285
v 0.293556 0.206618 -0.162296
v 0.299170 0.206840 -0.163783
v 0.299170 0.226202 -0.163783
v 0.294209 0.224934 -0.163723
v 0.289500 0.221924 -0.162508
v 0.287943 0.216341 -0.162448
v 0.303921 0.224570 -0.163783
v 0.299170 0.230340 -0.150067
v 0.292170 0.228465 -0.150067
v 0.287047 0.223341 -0.150067
v 0.306169 0.228465 -0.150067
v 0.311293 0.223341 -0.150067
v 0.293556 0.206618 -0.162448
v 0.293587 0.206671 -0.162508
v 0.294209 0.207749 -0.163723
v 0.294240 0.207802 -0.163783
v 0.294419 0.208113 -0.163783
v 0.287943 0.216341 -0.162296
v 0.287943 0.216341 -0.150285
v 0.287943 0.216341 -0.150067
v 0.287818 0.216341 -0.150067
v 0.285295 0.216341 -0.150067
v 0.285171 0.216341 -0.150067
v 0.313169 0.216341 -0.150067
v 0.311186 0.209404 -0.150067
v 0.304846 0.206511 -0.150067
v 0.299170 0.205114 -0.150067
v 0.293556 0.206618 -0.150285
v 0.289447 0.210728 -0.162296
v 0.299170 0.225843 -0.163783
v 0.294240 0.224881 -0.163783
v 0.290578 0.221302 -0.163723
v 0.288004 0.216341 -0.162508
v 0.289447 0.210728 -0.162448
v 0.294419 0.224570 -0.163783
v 0.299170 0.230340 -0.149934
v 0.292170 0.228465 -0.149934
v 0.287047 0.223341 -0.149934
v 0.285171 0.216341 -0.149934
v 0.306169 0.228465 -0.149934
v 0.311293 0.223341 -0.149934
v 0.289500 0.210758 -0.162508
v 0.290578 0.211380 -0.163723
v 0.290631 0.211411 -0.163783
v 0.290941 0.211590 -0.163783
v 0.289447 0.210728 -0.150285
v 0.289447 0.210728 -0.150067
v 0.289339 0.210666 -0.150067
v 0.287154 0.209404 -0.150067
v 0.287047 0.209342 -0.150067
v 0.287047 0.209342 -0.149934
v 0.313169 0.216341 -0.149934
v 0.311293 0.209342 -0.150067
v 0.306107 0.204326 -0.150067
v 0.299170 0.204990 -0.150067
v 0.293556 0.206618 -0.150067
v 0.289668 0.216341 -0.163783
v 0.290631 0.221271 -0.163783
v 0.289248 0.216341 -0.163723
v 0.292170 0.228465 -0.147229
v 0.299170 0.230340 -0.147229
v 0.287047 0.223341 -0.147229
v 0.285171 0.216341 -0.147229
v 0.287047 0.209342 -0.147229
v 0.306169 0.228465 -0.147229
v 0.311293 0.223341 -0.147229
v 0.289310 0.216341 -0.163783
v 0.293494 0.206511 -0.150067
v 0.292233 0.204326 -0.150067
v 0.292170 0.204218 -0.150067
v 0.292170 0.204218 -0.149934
v 0.290941 0.221092 -0.163783
v 0.292170 0.204218 -0.147229
v 0.313169 0.216341 -0.147229
v 0.311293 0.209342 -0.149934
v 0.306169 0.204218 -0.150067
v 0.299170 0.202467 -0.150067
v 0.287047 0.223341 -0.147095
v 0.292170 0.228465 -0.147095
v 0.299170 0.230340 -0.147095
v 0.285171 0.216341 -0.147095
v 0.287047 0.209342 -0.147095
v 0.292170 0.204218 -0.147095
v 0.306169 0.228465 -0.147095
v 0.311293 0.223341 -0.147095
v 0.299170 0.202343 -0.150067
v 0.299170 0.202343 -0.149934
v 0.299170 0.202343 -0.147229
v 0.299170 0.202343 -0.147095
v 0.313169 0.216341 -0.147095
v 0.311293 0.209342 -0.147229
v 0.306169 0.204218 -0.149934
v 0.285407 0.216341 -0.147095
v 0.287251 0.223223 -0.147095
v 0.292289 0.228260 -0.147095
v 0.299170 0.230104 -0.147095
v 0.287251 0.209460 -0.147095
v 0.292289 0.204423 -0.147095
v 0.299170 0.202579 -0.147095
v 0.306051 0.228260 -0.147095
v 0.311089 0.223223 -0.147095
v 0.306169 0.204218 -0.147229
v 0.306169 0.204218 -0.147095
v 0.306051 0.204423 -0.147095
v 0.312932 0.216341 -0.147095
v 0.311293 0.209342 -0.147095
v 0.311089 0.209460 -0.147095
vn 0.8351599883123536 0.38758999457587195 -0.39023299453888427
vn 0.8181106882827068 0.5750607808898079 0
vn 0.996035020583562 0.08896200183844427 0
vn -0.996035020583562 -0.08896200183844427 0
vn -0.8181106882827068 -0.5750607808898079 0
vn -0.8351599883123536 -0.38758999457587195 0.39023299453888427
vn 0.5294639299646339 0.7532499003631229 -0.3902339483814175
vn -0.5294639299646339 -0.7532499003631229 0.3902339483814175
vn 0.8660259858504344 0.4999989918307665 0
vn -0.8660259858504344 -0.4999989918307665 0
vn 0.9170839744110647 -0.08190699771458994 -0.39018998911272396
vn -0.9170839744110647 0.08190699771458994 0.39018998911272396
vn 0.4209698323435356 0.9070746387462587 0
vn -0.4209698323435356 -0.9070746387462587 0
vn 0.605095912370924 0.34934494940839234 -0.7154138963948401
vn -0.605095912370924 -0.34934494940839234 0.7154138963948401
vn 0.4999970588151575 0.86602710187164 0
vn -0.4999970588151575 -0.86602710187164 0
vn 1 0 0
vn -1 0 0
vn 0.9070731387558956 -0.4209730643966755 0
vn -0.9070731387558956 0.4209730643966755 0
vn 0.6987408687307096 -0.00000499999906051392 -0.7153748656057558
vn -0.6987408687307096 0.00000499999906051392 0.7153748656057558
vn 0.08190601234974852 0.9170891382782522 -0.3901780588308568
vn -0.08190601234974852 -0.9170891382782522 0.3901780588308568
vn 0.34936684270372836 0.6051237275536927 -0.7153796779128916
vn -0.34936684270372836 -0.6051237275536927 0.7153796779128916
vn 0.40033800917314505 0.5695480130503386 -0.7178750164490292
vn -0.40033800917314505 -0.5695480130503386 0.7178750164490292
vn 0.6314799699491319 0.29306998605338597 -0.7178739658378144
vn -0.6314799699491319 -0.29306998605338597 0.7178739658378144
vn 0.7532350529083619 -0.529454037189647 -0.3902760274135747
vn -0.7532350529083619 0.529454037189647 0.3902760274135747
vn 0.6051027757668033 -0.3493538705397853 -0.7154037348925295
vn -0.6051027757668033 0.3493538705397853 0.7154037348925295
vn -0.08896100975252916 0.9960351091923471 0
vn 0.08896100975252916 -0.9960351091923471 0
vn -9.999999999995e-7 1 0
vn 9.999999999995e-7 -1 0
vn 0.6988572080431826 -0.000007000002083675611 -0.7152612129264999
vn -0.6988572080431826 0.000007000002083675611 0.7152612129264999
vn 0.6051892962732158 0.3493931710470412 -0.7153113501839761
vn -0.6051892962732158 -0.3493931710470412 0.7153113501839761
vn 0.06193199404991492 0.6934139333806063 -0.7178729310307203
vn -0.06193199404991492 -0.6934139333806063 0.7178729310307203
vn 0.6934128734750448 -0.06193298869927423 -0.7178738690117208
vn -0.6934128734750448 0.06193298869927423 0.7178738690117208
vn 0.8660259858504344 -0.4999989918307665 0
vn -0.8660259858504344 0.4999989918307665 0
vn 0.5750619206575621 -0.8181098871237504 0
vn -0.5750619206575621 0.8181098871237504 0
vn 0.6052281030431196 -0.34944105949409254 -0.7152551217757713
vn -0.6052281030431196 0.34944105949409254 0.7152551217757713
vn 0.000003999999780588018 0.6987489616715244 -0.7153669607599771
vn -0.000003999999780588018 -0.6987489616715244 0.7153669607599771
vn -0.3875999889328577 0.8351749761532494 -0.3901909888588767
vn 0.3875999889328577 -0.8351749761532494 0.3901909888588767
vn 0.34945418206882145 0.6052793153560532 -0.7152053726285331
vn -0.34945418206882145 -0.6052793153560532 0.7152053726285331
vn 0 0.0000010000000002215446 -1
vn 0 -0.0000010000000002215446 1
vn -0.000001999999999995 0.0000010000000002195445 -1
vn 0.000001999999999995 -0.0000010000000002195445 1
vn 0 0 -1
vn 0 0 1
vn 0.3875928675946169 -0.8351587147018976 -0.39023286669276847
vn -0.3875928675946169 0.8351587147018976 0.39023286669276847
vn 0.3493297594172015 -0.6050755832854967 -0.715438507278743
vn -0.3493297594172015 0.6050755832854967 0.715438507278743
vn 0.3494140109134226 -0.6052190189031083 -0.7152760223405741
vn -0.3494140109134226 0.6052190189031083 0.7152760223405741
vn -0.5750571627360246 0.8181132315187142 0
vn 0.5750571627360246 -0.8181132315187142 0
vn -0.4999958758010398 0.8660277848787249 0
vn 0.4999958758010398 -0.8660277848787249 0
vn -0.29306815783189893 0.6314803400838289 -0.7178743866113549
vn 0.29306815783189893 -0.6314803400838289 0.7178743866113549
vn 0.34053296054772647 -0.158047981689431 -0.9268538926198121
vn -0.34053296054772647 0.158047981689431 0.9268538926198121
vn 0.3738949202097109 0.03339099287426292 -0.9268698022032248
vn -0.3738949202097109 -0.03339099287426292 0.9268698022032248
vn 0.3071058916952875 0.21587992386725993 -0.9268666731289394
vn -0.3071058916952875 -0.21587992386725993 0.9268666731289394
vn 9.99999999999e-7 -9.999999997769554e-7 -1
vn -9.99999999999e-7 9.999999997769554e-7 1
vn 0.5695468342479415 -0.4003418834907203 -0.7178737910811694
vn -0.5695468342479415 0.4003418834907203 0.7178737910811694
vn 0.5000021078554663 -0.8660241868100975 0
vn -0.5000021078554663 0.8660241868100975 0
vn 0.08896299392409461 -0.9960349319738047 0
vn -0.08896299392409461 0.9960349319738047 0
vn 0.21588305522051787 -0.3071170785571802 -0.9268622370811952
vn -0.21588305522051787 0.3071170785571802 0.9268622370811952
vn 0.000022999994623326386 0.6989118366164475 -0.7152078328069572
vn -0.000022999994623326386 -0.6989118366164475 0.7152078328069572
vn -0.34934598151680324 0.6050999679853718 -0.7154099621490906
vn 0.34934598151680324 -0.6050999679853718 0.7154099621490906
vn -0.7532424083535345 0.5294662870383126 -0.39024521156271824
vn 0.7532424083535345 -0.5294662870383126 0.39024521156271824
vn 0.15809096111950904 0.34062491622757024 -0.9268127720620118
vn -0.15809096111950904 -0.34062491622757024 0.9268127720620118
vn -0.08191102196419775 -0.9170882459144948 -0.3901791046253706
vn 0.08191102196419775 0.9170882459144948 0.3901791046253706
vn -0.000005000002304806593 -0.6987373220907289 -0.7153783297615863
vn 0.000005000002304806593 0.6987373220907289 0.7153783297615863
vn -0.0000040000004028600605 -0.6988450703841848 -0.7152730720387313
vn 0.0000040000004028600605 0.6988450703841848 0.7152730720387313
vn 0.0333930080558972 -0.3739060902029854 -0.9268652236016279
vn -0.0333930080558972 0.3739060902029854 0.9268652236016279
vn -0.907072756902266 0.42097388717796086 0
vn 0.907072756902266 -0.42097388717796086 0
vn -0.8660248698252137 0.5000009248433667 0
vn 0.8660248698252137 -0.5000009248433667 0
vn -0.5695461586311572 0.4003421115041012 -0.7178741999437855
vn 0.5695461586311572 -0.4003421115041012 0.7178741999437855
vn -0.000001999999999992 -0.0000019999999997699555 -1
vn 0.000001999999999992 0.0000019999999997699555 1
vn 0.29307090016292375 -0.6314797848810801 -0.7178737554502449
vn -0.29307090016292375 0.6314797848810801 0.7178737554502449
vn -9.999999999995e-7 -1 0
vn 9.999999999995e-7 1 0
vn -0.4209759145924151 -0.9070718159732886 0
vn 0.4209759145924151 0.9070718159732886 0
vn -0.03341399452363052 0.3739869387056029 -0.92683184809737
vn 0.03341399452363052 -0.3739869387056029 0.92683184809737
vn -0.34946397823381153 0.6053119622984484 -0.7151729554558113
vn 0.34946397823381153 -0.6053119622984484 0.7151729554558113
vn -0.6050671202964315 0.3493410694542518 -0.7154401422402459
vn 0.6050671202964315 -0.3493410694542518 0.7154401422402459
vn -0.9170476816882197 0.08190897156899145 -0.39027486453366667
vn 0.9170476816882197 -0.08190897156899145 0.39027486453366667
vn -0.0619349810271505 0.6934127875834264 -0.7178737800901692
vn 0.0619349810271505 -0.6934127875834264 0.7178737800901692
vn -0.4003399760236396 0.5695479658897735 -0.71787395700653
vn 0.4003399760236396 -0.5695479658897735 0.71787395700653
vn -0.6314807562491067 0.2930688868757248 -0.7178737229015144
vn 0.6314807562491067 -0.2930688868757248 0.7178737229015144
vn 0.2930699860533858 0.631479969949132 -0.7178739658378144
vn -0.2930699860533858 -0.631479969949132 0.7178739658378144
vn 0.5695470622611796 0.4003410437640844 -0.7178740784758448
vn -0.5695470622611796 -0.4003410437640844 0.7178740784758448
vn -0.5294650484508193 -0.7532490689290721 -0.3902340357099282
vn 0.5294650484508193 0.7532490689290721 0.3902340357099282
vn -0.34937498150356483 -0.6051269679636713 -0.7153729621270833
vn 0.34937498150356483 0.6051269679636713 0.7153729621270833
vn -0.3494391306841441 -0.6052172263406935 -0.715265267496743
vn 0.3494391306841441 0.6052172263406935 0.715265267496743
vn -0.15802498834368223 -0.34049997488387135 -0.9268699316317593
vn 0.15802498834368223 0.34049997488387135 0.9268699316317593
vn -0.6934128734750448 0.06193298869927455 -0.7178738690117208
vn 0.6934128734750448 -0.06193298869927455 0.7178738690117208
vn -0.6934128305295783 -0.06193398486330483 -0.7178738245512998
vn 0.6934128305295783 0.06193398486330483 0.7178738245512998
vn 0.6934128734750448 0.06193298869927455 -0.7178738690117208
vn -0.6934128734750448 -0.06193298869927455 0.7178738690117208
vn -0.000002999999999985 -9.999999997729553e-7 -1
vn 0.000002999999999985 9.999999997729553e-7 1
vn -0.06193597719081091 -0.6934127446365888 -0.7178737356283293
vn 0.06193597719081091 0.6934127446365888 0.7178737356283293
vn -0.5000009248433667 -0.8660248698252137 0
vn 0.5000009248433667 0.8660248698252137 0
vn -0.8181090859628168 -0.5750630604247543 0
vn 0.8181090859628168 0.5750630604247543 0
vn -0.21591002752583136 0.30719503916353025 -0.9268301181592621
vn 0.21591002752583136 -0.30719503916353025 0.9268301181592621
vn -0.605209961652385 0.34943597785886377 -0.7152729546785188
vn 0.605209961652385 -0.34943597785886377 0.7152729546785188
vn -0.6986781335118145 0.0000060000011467111865 -0.7154361367141352
vn 0.6986781335118145 -0.0000060000011467111865 0.7154361367141352
vn -0.8351411990768071 -0.3875880923913224 -0.3902750930318365
vn 0.8351411990768071 0.3875880923913224 0.3902750930318365
vn -0.000001999999999996 1 0
vn 0.000001999999999996 -1 0
vn -0.4999989918307665 0.8660259858504344 0
vn 0.4999989918307665 -0.8660259858504344 0
vn -1 -9.999999999995e-7 0
vn 1 9.999999999995e-7 0
vn -0.6050942117569921 -0.3493451222557922 -0.7154152503646187
vn 0.6050942117569921 0.3493451222557922 0.7154152503646187
vn -0.605211180130846 -0.349423103999862 -0.715278212890432
vn 0.605211180130846 0.349423103999862 0.715278212890432
vn -0.307127980720963 -0.21588598644840507 -0.9268579418192749
vn 0.307127980720963 0.21588598644840507 0.9268579418192749
vn -0.8660248698252137 -0.5000009248433667 0
vn 0.8660248698252137 0.5000009248433667 0
vn -0.6314807562491066 -0.2930688868757244 -0.7178737229015144
vn 0.6314807562491066 0.2930688868757244 0.7178737229015144
vn -0.000001999999999992 0.0000020000000002140447 -1
vn 0.000001999999999992 -0.0000020000000002140447 1
vn -9.999999999975e-7 0.0000020000000002170445 -1
vn 9.999999999975e-7 -0.0000020000000002170445 1
vn -0.5695459306176343 -0.40034295123002434 -0.7178739125482465
vn 0.5695459306176343 0.40034295123002434 0.7178739125482465
vn -0.8660241868100975 -0.5000021078554663 0
vn 0.8660241868100975 0.5000021078554663 0
vn 0.6314789985788565 -0.2930719993404413 -0.7178739983844247
vn -0.6314789985788565 0.2930719993404413 0.7178739983844247
vn -0.000001999999999995 -9.999999997754553e-7 -1
vn 0.000001999999999995 9.999999997754553e-7 1
vn 0 -9.999999997774554e-7 -1
vn 0 9.999999997774554e-7 1
vn -0.40034081575098857 -0.56954773787682 -0.7178736696127181
vn 0.40034081575098857 0.56954773787682 0.7178736696127181
vn -0.3404269595131943 0.15798898121045077 -0.9269028897639093
vn 0.3404269595131943 -0.15798898121045077 0.9269028897639093
vn -0.6987767864031854 0.000003999998777469398 -0.715339781340334
vn 0.6987767864031854 -0.000003999998777469398 0.715339781340334
vn 0.8660248698234816 0.5000009248423667 -0.0000019999996992590453
vn -0.8660248698234816 -0.5000009248423667 0.0000019999996992590453
vn -0.37383580034238983 -0.03339498216446257 -0.9268935049662395
vn 0.37383580034238983 0.03339498216446257 0.9268935049662395
vn -0.2930719993404415 -0.6314789985788564 -0.7178739983844247
vn 0.2930719993404415 0.6314789985788564 0.7178739983844247
vn -0.4999989918307665 -0.8660259858504344 0
vn 0.4999989918307665 0.8660259858504344 0
vn 1 0.000004999999999927501 -0.0000019999999999709988
vn -1 -0.000004999999999927501 0.0000019999999999709988
vn 0.8660259858500013 -0.4999989918305165 -9.999999837720222e-7
vn -0.8660259858500013 0.4999989918305165 9.999999837720222e-7
vn 0.40034020403643955 -0.569547290274122 -0.717874365870148
vn -0.40034020403643955 0.569547290274122 0.717874365870148
vn -0.5695459306176343 0.40034295123002434 0.7178739125482465
vn 0.5695459306176343 -0.40034295123002434 -0.7178739125482465
vn 0.061931992535058704 0.6934129164198258 0.7178739134714323
vn -0.061931992535058704 -0.6934129164198258 -0.7178739134714323
vn -0.6934129164198259 0.061931992535058544 0.7178739134714321
vn 0.6934129164198259 -0.061931992535058544 -0.7178739134714321
vn -0.6314789985788565 -0.29307199934044165 0.7178739983844244
vn 0.6314789985788565 0.29307199934044165 -0.7178739983844244
vn -0.40034104376408425 -0.5695470622611797 0.7178740784758448
vn 0.40034104376408425 0.5695470622611797 -0.7178740784758448
vn 0.4003429512300245 0.5695459306176341 0.7178739125482465
vn -0.4003429512300245 -0.5695459306176341 -0.7178739125482465
vn 0.6314792668319362 0.29307312383822093 0.7178733033377873
vn -0.6314792668319362 -0.29307312383822093 -0.7178733033377873
vn 0.06193398486330499 -0.6934128305295781 -0.7178738245512999
vn -0.06193398486330499 0.6934128305295781 0.7178738245512999
vn -0.06193398486330499 -0.6934128305295784 0.7178738245512997
vn 0.06193398486330499 0.6934128305295784 -0.7178738245512997
vn 0.6934130881920959 -0.06192800787634531 0.7178740913031811
vn -0.6934130881920959 0.06192800787634531 -0.7178740913031811
vn 0.8660266688535487 -0.4999978088136243 -0.000003999998470613898
vn -0.8660266688535487 0.4999978088136243 0.000003999998470613898
vn 0.5000001748435917 -0.8660253028378431 -0.0000010000003498794797
vn -0.5000001748435917 0.8660253028378431 0.0000010000003498794797
vn 0.2930699860533858 -0.631479969949132 0.7178739658378144
vn -0.2930699860533858 0.631479969949132 -0.7178739658378144
usemtl material_0_0
f 1//1 2//2 3//3
f 3//4 2//5 1//6
f 4//7 2//2 1//1
f 1//6 2//5 4//8
f 2//2 5//9 3//3
f 3//4 5//10 2//5
f 1//1 3//3 6//11
f 6//12 3//4 1//6
f 4//7 7//13 2//2
f 2//5 7//14 4//8
f 4//7 1//1 8//15
f 8//16 1//6 4//8
f 2//2 9//17 5//9
f 5//10 9//18 2//5
f 3//3 5//9 10//19
f 10//20 5//10 3//4
f 6//11 3//3 11//21
f 11//22 3//4 6//12
f 1//1 6//11 12//23
f 12//24 6//12 1//6
f 4//7 13//25 7//13
f 7//14 13//26 4//8
f 7//13 9//17 2//2
f 2//5 9//18 7//14
f 1//1 12//23 8//15
f 8//16 12//24 1//6
f 4//7 8//15 14//27
f 14//28 8//16 4//8
f 9//17 15//29 5//9
f 5//10 15//30 9//18
f 5//9 16//31 10//19
f 10//20 16//32 5//10
f 3//3 10//19 11//21
f 11//22 10//20 3//4
f 6//11 11//21 17//33
f 17//34 11//22 6//12
f 6//11 18//35 12//23
f 12//24 18//36 6//12
f 13//25 4//7 14//27
f 14//28 4//8 13//26
f 7//13 13//25 19//37
f 19//38 13//26 7//14
f 7//13 20//39 9//17
f 9//18 20//40 7//14
f 8//15 12//23 21//41
f 21//42 12//24 8//16
f 14//27 8//15 22//43
f 22//44 8//16 14//28
f 9//17 23//45 15//29
f 15//30 23//46 9//18
f 5//9 15//29 16//31
f 16//32 15//30 5//10
f 10//19 16//31 24//47
f 24//48 16//32 10//20
f 11//21 10//19 25//49
f 25//50 10//20 11//22
f 17//33 11//21 26//51
f 26//52 11//22 17//34
f 6//11 17//33 18//35
f 18//36 17//34 6//12
f 12//23 18//35 27//53
f 27//54 18//36 12//24
f 13//25 14//27 28//55
f 28//56 14//28 13//26
f 13//25 29//57 19//37
f 19//38 29//58 13//26
f 7//13 19//37 20//39
f 20//40 19//38 7//14
f 9//17 20//39 23//45
f 23//46 20//40 9//18
f 12//23 27//53 21//41
f 21//42 27//54 12//24
f 8//15 21//41 22//43
f 22//44 21//42 8//16
f 14//27 22//43 30//59
f 30//60 22//44 14//28
f 31//61 15//29 23//45
f 23//46 15//30 31//62
f 32//63 16//31 15//29
f 15//30 16//32 32//64
f 33//65 24//47 16//31
f 16//32 24//48 33//66
f 10//19 24//47 25//49
f 25//50 24//48 10//20
f 11//21 25//49 26//51
f 26//52 25//50 11//22
f 17//33 26//51 34//67
f 34//68 26//52 17//34
f 18//35 17//33 35//69
f 35//70 17//34 18//36
f 27//53 18//35 36//71
f 36//72 18//36 27//54
f 28//55 14//27 30//59
f 30//60 14//28 28//56
f 13//25 28//55 29//57
f 29//58 28//56 13//26
f 19//37 29//57 37//73
f 37//74 29//58 19//38
f 19//37 38//75 20//39
f 20//40 38//76 19//38
f 20//39 39//77 23//45
f 23//46 39//78 20//40
f 21//41 27//53 40//79
f 40//80 27//54 21//42
f 22//43 21//41 41//81
f 41//82 21//42 22//44
f 30//59 22//43 42//83
f 42//84 22//44 30//60
f 31//61 32//63 15//29
f 15//30 32//64 31//62
f 31//61 23//45 43//85
f 43//86 23//46 31//62
f 32//63 33//65 16//31
f 16//32 33//66 32//64
f 33//65 44//65 24//47
f 24//48 44//66 33//66
f 25//49 24//47 45//87
f 45//88 24//48 25//50
f 26//51 25//49 46//89
f 46//90 25//50 26//52
f 26//51 47//91 34//67
f 34//68 47//92 26//52
f 17//33 34//67 35//69
f 35//70 34//68 17//34
f 18//35 35//69 36//71
f 36//72 35//70 18//36
f 27//53 36//71 48//93
f 48//94 36//72 27//54
f 28//55 30//59 49//95
f 49//96 30//60 28//56
f 28//55 50//97 29//57
f 29//58 50//98 28//56
f 29//57 51//99 37//73
f 37//74 51//100 29//58
f 19//37 37//73 38//75
f 38//76 37//74 19//38
f 20//39 38//75 39//77
f 39//78 38//76 20//40
f 23//45 39//77 43//85
f 43//86 39//78 23//46
f 40//79 27//53 48//93
f 48//94 27//54 40//80
f 21//41 40//79 41//81
f 41//82 40//80 21//42
f 22//43 41//81 42//83
f 42//84 41//82 22//44
f 30//59 42//83 52//101
f 52//102 42//84 30//60
f 53//61 32//63 31//61
f 31//62 32//64 53//62
f 54//85 31//61 43//85
f 43//86 31//62 54//86
f 55//63 33//65 32//63
f 32//64 33//66 55//64
f 56//65 44//65 33//65
f 33//66 44//66 56//66
f 44//65 45//87 24//47
f 24//48 45//88 44//66
f 25//49 45//87 46//89
f 46//90 45//88 25//50
f 46//89 47//91 26//51
f 26//52 47//92 46//90
f 34//67 47//91 57//103
f 57//104 47//92 34//68
f 35//69 34//67 58//105
f 58//106 34//68 35//70
f 36//71 35//69 59//107
f 59//108 35//70 36//72
f 48//93 36//71 60//109
f 60//110 36//72 48//94
f 49//95 30//59 52//101
f 52//102 30//60 49//96
f 28//55 49//95 50//97
f 50//98 49//96 28//56
f 29//57 50//97 51//99
f 51//100 50//98 29//58
f 37//73 51//99 61//111
f 61//112 51//100 37//74
f 37//73 62//113 38//75
f 38//76 62//114 37//74
f 38//75 63//115 39//77
f 39//78 63//116 38//76
f 43//85 39//77 64//117
f 64//118 39//78 43//86
f 40//79 48//93 65//65
f 65//66 48//94 40//80
f 41//81 40//79 66//65
f 66//66 40//80 41//82
f 42//83 41//81 67//65
f 67//66 41//82 42//84
f 52//101 42//83 68//65
f 68//66 42//84 52//102
f 53//61 55//63 32//63
f 32//64 55//64 53//62
f 53//61 31//61 54//85
f 54//86 31//62 53//62
f 54//85 43//85 69//117
f 69//118 43//86 54//86
f 55//63 56//65 33//65
f 33//66 56//66 55//64
f 56//65 70//65 44//65
f 44//66 70//66 56//66
f 44//65 71//65 45//87
f 45//88 71//66 44//66
f 46//89 45//87 72//119
f 72//120 45//88 46//90
f 46//89 73//121 47//91
f 47//92 73//122 46//90
f 47//91 74//123 57//103
f 57//104 74//124 47//92
f 34//67 57//103 58//105
f 58//106 57//104 34//68
f 35//69 58//105 59//107
f 59//108 58//106 35//70
f 36//71 59//107 60//109
f 60//110 59//108 36//72
f 48//93 60//109 75//65
f 75//66 60//110 48//94
f 49//95 52//101 76//125
f 76//126 52//102 49//96
f 49//95 77//127 50//97
f 50//98 77//128 49//96
f 50//97 78//129 51//99
f 51//100 78//130 50//98
f 79//131 61//111 51//99
f 51//100 61//112 79//132
f 37//73 61//111 62//113
f 62//114 61//112 37//74
f 38//75 62//113 63//115
f 63//116 62//114 38//76
f 39//77 63//115 64//117
f 64//118 63//116 39//78
f 43//85 64//117 69//117
f 69//118 64//118 43//86
f 65//65 48//93 75//65
f 75//66 48//94 65//66
f 66//65 40//79 65//65
f 65//66 40//80 66//66
f 41//81 66//65 67//65
f 67//66 66//66 41//82
f 42//83 67//65 68//65
f 68//66 67//66 42//84
f 52//101 68//65 80//65
f 80//66 68//66 52//102
f 81//133 55//63 53//61
f 53//62 55//64 81//134
f 53//61 54//85 82//135
f 82//136 54//86 53//62
f 54//85 69//117 83//137
f 83//138 69//118 54//86
f 84//139 56//65 55//63
f 55//64 56//66 84//140
f 85//141 70//65 56//65
f 56//66 70//66 85//142
f 44//65 70//65 71//65
f 71//66 70//66 44//66
f 45//87 71//65 72//119
f 72//120 71//66 45//88
f 72//119 73//121 46//89
f 46//90 73//122 72//120
f 73//121 74//123 47//91
f 47//92 74//124 73//122
f 57//103 74//123 86//143
f 86//144 74//124 57//104
f 87//145 58//105 57//103
f 57//104 58//106 87//146
f 88//147 59//107 58//105
f 58//106 59//108 88//148
f 89//149 60//109 59//107
f 59//108 60//110 89//150
f 90//65 75//65 60//109
f 60//110 75//66 90//66
f 76//125 52//101 80//65
f 80//66 52//102 76//126
f 49//95 76//125 77//127
f 77//128 76//126 49//96
f 50//97 77//127 78//129
f 78//130 77//128 50//98
f 51//99 78//129 79//131
f 79//132 78//130 51//100
f 79//131 91//4 61//111
f 61//112 91//3 79//132
f 61//111 92//20 62//113
f 62//114 92//19 61//112
f 62//113 93//151 63//115
f 63//116 93//152 62//114
f 64//117 63//115 94//65
f 94//66 63//116 64//118
f 69//117 64//117 95//65
f 95//66 64//118 69//118
f 90//65 65//65 75//65
f 75//66 65//66 90//66
f 67//65 66//65 65//65
f 65//66 66//66 67//66
f 80//65 68//65 67//65
f 67//66 68//66 80//66
f 81//133 84//139 55//63
f 55//64 84//140 81//134
f 81//133 53//61 82//135
f 82//136 53//62 81//134
f 82//135 54//85 83//137
f 83//138 54//86 82//136
f 83//137 69//117 96//153
f 96//154 69//118 83//138
f 84//139 85//141 56//65
f 56//66 85//142 84//140
f 85//141 97//155 70//65
f 70//66 97//156 85//142
f 70//65 98//65 71//65
f 71//66 98//66 70//66
f 71//65 99//157 72//119
f 72//120 99//158 71//66
f 72//119 100//159 73//121
f 73//122 100//160 72//120
f 73//121 101//161 74//123
f 74//124 101//162 73//122
f 74//123 102//163 86//143
f 86//144 102//164 74//124
f 87//145 57//103 86//143
f 86//144 57//104 87//146
f 88//147 58//105 87//145
f 87//146 58//106 88//148
f 89//149 59//107 88//147
f 88//148 59//108 89//150
f 90//65 60//109 89//149
f 89//150 60//110 90//66
f 76//125 80//65 103//65
f 103//66 80//66 76//126
f 76//125 104//165 77//127
f 77//128 104//166 76//126
f 77//127 105//167 78//129
f 78//130 105//168 77//128
f 78//129 106//169 79//131
f 79//132 106//170 78//130
f 107//171 91//4 79//131
f 79//132 91//3 107//172
f 91//4 92//20 61//111
f 61//112 92//19 91//3
f 92//20 93//151 62//113
f 62//114 93//152 92//19
f 63//115 93//151 94//65
f 94//66 93//152 63//116
f 64//117 94//65 95//65
f 95//66 94//66 64//118
f 69//117 95//65 96//153
f 96//154 95//66 69//118
f 67//65 65//65 90//65
f 90//66 65//66 67//66
f 80//65 67//65 108//65
f 108//66 67//66 80//66
f 84//139 81//133 109//173
f 109//174 81//134 84//140
f 81//133 82//135 110//175
f 110//176 82//136 81//134
f 82//135 83//137 111//113
f 111//114 83//138 82//136
f 96//153 112//177 83//137
f 83//138 112//178 96//154
f 84//139 113//162 85//141
f 85//142 113//161 84//140
f 85//141 114//9 97//155
f 97//156 114//10 85//142
f 97//155 98//65 70//65
f 70//66 98//66 97//156
f 71//65 98//65 99//157
f 99//158 98//66 71//66
f 72//119 99//157 100//159
f 100//160 99//158 72//120
f 100//159 101//161 73//121
f 73//122 101//162 100//160
f 101//161 102//163 74//123
f 74//124 102//164 101//162
f 86//143 102//163 107//171
f 107//172 102//164 86//144
f 115//179 87//145 86//143
f 86//144 87//146 115//180
f 116//181 88//147 87//145
f 87//146 88//148 116//182
f 117//183 89//149 88//147
f 88//148 89//150 117//184
f 118//65 90//65 89//149
f 89//150 90//66 118//66
f 103//65 80//65 108//65
f 108//66 80//66 103//66
f 76//125 103//65 104//165
f 104//166 103//66 76//126
f 77//127 104//165 105//167
f 105//168 104//166 77//128
f 78//129 105//167 106//169
f 106//170 105//168 78//130
f 106//169 107//171 79//131
f 79//132 107//172 106//170
f 107//171 102//163 91//4
f 91//3 102//164 107//172
f 91//4 119//185 92//20
f 92//19 119//186 91//3
f 92//20 120//187 93//151
f 93//152 120//188 92//19
f 93//151 121//189 94//65
f 94//66 121//190 93//152
f 94//65 122//191 95//65
f 95//66 122//192 94//66
f 95//65 123//193 96//153
f 96//154 123//194 95//66
f 108//65 67//65 90//65
f 90//66 67//66 108//66
f 81//133 110//175 109//173
f 109//174 110//176 81//134
f 84//139 109//173 113//162
f 113//161 109//174 84//140
f 82//135 111//113 110//175
f 110//176 111//114 82//136
f 83//137 112//177 111//113
f 111//114 112//178 83//138
f 96//153 124//195 112//177
f 112//178 124//196 96//154
f 85//141 113//162 114//9
f 114//10 113//161 85//142
f 97//155 114//9 125//178
f 125//177 114//10 97//156
f 97//155 126//197 98//65
f 98//66 126//198 97//156
f 98//65 127//199 99//157
f 99//158 127//200 98//66
f 99//157 128//201 100//159
f 100//160 128//202 99//158
f 100//159 129//203 101//161
f 101//162 129//204 100//160
f 101//161 119//185 102//163
f 102//164 119//186 101//162
f 115//179 86//143 107//171
f 107//172 86//144 115//180
f 116//181 87//145 115//179
f 115//180 87//146 116//182
f 117//183 88//147 116//181
f 116//182 88//148 117//184
f 118//65 89//149 117//183
f 117//184 89//150 118//66
f 130//65 90//65 118//65
f 118//66 90//66 130//66
f 103//65 108//65 104//165
f 104//166 108//66 103//66
f 104//165 131//205 105//167
f 105//168 131//206 104//166
f 105//167 132//207 106//169
f 106//170 132//208 105//168
f 106//169 115//179 107//171
f 107//172 115//180 106//170
f 102//163 119//185 91//4
f 91//3 119//186 102//164
f 119//185 120//187 92//20
f 92//19 120//188 119//186
f 93//151 120//187 121//189
f 121//190 120//188 93//152
f 94//65 121//189 122//191
f 122//192 121//190 94//66
f 95//65 122//191 123//193
f 123//194 122//192 95//66
f 123//193 124//195 96//153
f 96//154 124//196 123//194
f 108//65 90//65 130//65
f 130//66 90//66 108//66
f 109//173 110//175 133//175
f 133//176 110//176 109//174
f 113//162 109//173 134//173
f 134//174 109//174 113//161
f 110//175 111//113 135//113
f 135//114 111//114 110//176
f 112//177 136//177 111//113
f 111//114 136//178 112//178
f 124//195 137//195 112//177
f 112//178 137//196 124//196
f 113//162 138//162 114//9
f 114//10 138//161 113//161
f 114//9 139//209 125//178
f 125//177 139//210 114//10
f 97//155 125//178 126//197
f 126//198 125//177 97//156
f 98//65 126//197 127//199
f 127//200 126//198 98//66
f 99//157 127//199 128//201
f 128//202 127//200 99//158
f 129//203 100//159 128//201
f 128//202 100//160 129//204
f 129//203 119//185 101//161
f 101//162 119//186 129//204
f 132//207 116//181 115//179
f 115//180 116//182 132//208
f 140//211 117//183 116//181
f 116//182 117//184 140//212
f 130//65 118//65 117//183
f 117//184 118//66 130//66
f 104//165 108//65 131//205
f 131//206 108//66 104//166
f 105//167 131//205 132//207
f 132//208 131//206 105//168
f 132//207 115//179 106//169
f 106//170 115//180 132//208
f 129//203 120//187 119//185
f 119//186 120//188 129//204
f 120//187 141//61 121//189
f 121//190 141//62 120//188
f 121//189 142//61 122//191
f 122//192 142//62 121//190
f 122//191 143//213 123//193
f 123//194 143//214 122//192
f 144//215 124//195 123//193
f 123//194 124//196 144//216
f 108//65 130//65 145//65
f 145//66 130//66 108//66
f 110//175 135//113 133//175
f 133//176 135//114 110//176
f 109//173 133//175 134//173
f 134//174 133//176 109//174
f 113//162 134//173 138//162
f 138//161 134//174 113//161
f 111//113 136//177 135//113
f 135//114 136//178 111//114
f 112//177 137//195 136//177
f 136//178 137//196 112//178
f 146//215 137//195 124//195
f 124//196 137//196 146//216
f 114//9 138//162 139//209
f 139//210 138//161 114//10
f 125//178 139//209 147//217
f 147//218 139//210 125//177
f 126//197 125//178 148//219
f 148//220 125//177 126//198
f 126//197 149//221 127//199
f 127//200 149//222 126//198
f 128//201 127//199 150//201
f 150//202 127//200 128//202
f 129//203 128//201 141//61
f 141//62 128//202 129//204
f 140//211 116//181 132//207
f 132//208 116//182 140//212
f 130//65 117//183 140//211
f 140//212 117//184 130//66
f 108//65 145//65 131//205
f 131//206 145//66 108//66
f 131//205 140//211 132//207
f 132//208 140//212 131//206
f 120//187 129//203 141//61
f 141//62 129//204 120//188
f 121//189 141//61 142//61
f 142//62 141//62 121//190
f 122//191 142//61 143//213
f 143//214 142//62 122//192
f 144//215 123//193 143//213
f 143//214 123//194 144//216
f 146//215 124//195 144//215
f 144//216 124//196 146//216
f 145//65 130//65 140//211
f 140//212 130//66 145//66
f 133//175 135//113 151//223
f 151//224 135//114 133//176
f 134//173 133//175 152//120
f 152//119 133//176 134//174
f 138//162 134//173 153//225
f 153//226 134//174 138//161
f 136//177 154//227 135//113
f 135//114 154//228 136//178
f 137//195 155//229 136//177
f 136//178 155//230 137//196
f 156//231 137//195 146//215
f 146//216 137//196 156//232
f 138//162 157//233 139//209
f 139//210 157//234 138//161
f 139//209 158//235 147//217
f 147//218 158//236 139//210
f 125//178 147//217 148//219
f 148//220 147//218 125//177
f 126//197 148//219 149//221
f 149//222 148//220 126//198
f 127//199 149//221 150//201
f 150//202 149//222 127//200
f 141//61 128//201 150//201
f 150//202 128//202 141//62
f 131//205 145//65 140//211
f 140//212 145//66 131//206
f 141//61 150//201 142//61
f 142//62 150//202 141//62
f 142//61 159//237 143//213
f 143//214 159//238 142//62
f 160//121 144//215 143//213
f 143//214 144//216 160//122
f 161//121 146//215 144//215
f 144//216 146//216 161//122
f 135//113 154//227 151//223
f 151//224 154//228 135//114
f 133//175 151//223 152//120
f 152//119 151//224 133//176
f 134//173 152//120 153//225
f 153//226 152//119 134//174
f 138//162 153//225 157//233
f 157//234 153//226 138//161
f 136//177 155//229 154//227
f 154//228 155//230 136//178
f 156//231 155//229 137//195
f 137//196 155//230 156//232
f 162//239 156//231 146//215
f 146//216 156//232 162//240
f 139//209 157//233 158//235
f 158//236 157//234 139//210
f 147//217 158//235 163//241
f 163//242 158//236 147//218
f 148//219 147//217 164//243
f 164//244 147//218 148//220
f 149//221 148//219 165//245
f 165//246 148//220 149//222
f 149//221 159//237 150//201
f 150//202 159//238 149//222
f 142//61 150//201 159//237
f 159//238 150//202 142//62
f 160//121 143//213 159//237
f 159//238 143//214 160//122
f 161//121 144//215 160//121
f 160//122 144//216 161//122
f 162//239 146//215 161//121
f 161//122 146//216 162//240
f 151//223 154//227 166//66
f 166//65 154//228 151//224
f 152//120 151//223 167//66
f 167//65 151//224 152//119
f 153//225 152//120 168//66
f 168//65 152//119 153//226
f 153//225 169//66 157//233
f 157//234 169//65 153//226
f 154//227 155//229 170//66
f 170//65 155//230 154//228
f 155//229 156//231 171//66
f 171//65 156//232 155//230
f 156//231 162//239 172//66
f 172//65 162//240 156//232
f 157//233 173//66 158//235
f 158//236 173//65 157//234
f 158//235 174//66 163//241
f 163//242 174//65 158//236
f 147//217 163//241 164//243
f 164//244 163//242 147//218
f 148//219 164//243 165//245
f 165//246 164//244 148//220
f 165//245 159//237 149//221
f 149//222 159//238 165//246
f 165//245 160//121 159//237
f 159//238 160//122 165//246
f 175//176 161//121 160//121
f 160//122 161//122 175//175
f 176//247 162//239 161//121
f 161//122 162//240 176//248
f 166//66 154//227 170//66
f 170//65 154//228 166//65
f 151//223 166//66 167//66
f 167//65 166//65 151//224
f 152//120 167//66 168//66
f 168//65 167//65 152//119
f 153//225 168//66 169//66
f 169//65 168//65 153//226
f 169//66 173//66 157//233
f 157//234 173//65 169//65
f 170//66 155//229 171//66
f 171//65 155//230 170//65
f 171//66 156//231 172//66
f 172//65 156//232 171//65
f 177//66 172//66 162//239
f 162//240 172//65 177//65
f 173//66 174//66 158//235
f 158//236 174//65 173//65
f 174//66 178//66 163//241
f 163//242 178//65 174//65
f 164//243 163//241 179//116
f 179//115 163//242 164//244
f 164//243 175//176 165//245
f 165//246 175//175 164//244
f 175//176 160//121 165//245
f 165//246 160//122 175//175
f 176//247 161//121 175//176
f 175//175 161//122 176//248
f 177//66 162//239 176//247
f 176//248 162//240 177//65
f 167//66 166//66 170//66
f 170//65 166//65 167//65
f 169//66 168//66 167//66
f 167//65 168//65 169//65
f 169//66 174//66 173//66
f 173//65 174//65 169//65
f 170//66 171//66 172//66
f 172//65 171//65 170//65
f 180//66 172//66 177//66
f 177//65 172//65 180//65
f 174//66 180//66 178//66
f 178//65 180//65 174//65
f 163//241 178//66 179//116
f 179//115 178//65 163//242
f 179//116 175//176 164//243
f 164//244 175//175 179//115
f 179//116 176//247 175//176
f 175//175 176//248 179//115
f 180//66 177//66 176//247
f 176//248 177//65 180//65
f 169//66 167//66 170//66
f 170//65 167//65 169//65
f 169//66 180//66 174//66
f 174//65 180//65 169//65
f 170//66 172//66 180//66
f 180//65 172//65 170//65
f 178//66 180//66 179//116
f 179//115 180//65 178//65
f 180//66 176//247 179//116
f 179//115 176//248 180//65
f 169//66 170//66 180//66
f 180//65 170//65 169//65
