# SSTK version 0.8.0
# 20
mtllib original-20.mtl
o mesh20/mesh20-geometry#mesh20-geometry
v 0.325038 0.719755 -0.147165
v 0.325781 0.716042 -0.147165
v 0.325781 0.660591 -0.147165
v 0.325278 0.719883 -0.147078
v 0.326041 0.716068 -0.147078
v 0.322877 0.721916 -0.147165
v 0.323005 0.722155 -0.147078
v 0.326041 0.660565 -0.147078
v 0.319164 0.722659 -0.147165
v 0.325357 0.719926 -0.146818
v 0.323048 0.722235 -0.146818
v 0.326127 0.716076 -0.146818
v 0.325038 0.656878 -0.147165
v 0.319190 0.722918 -0.147078
v 0.261871 0.722659 -0.147165
v 0.319198 0.723005 -0.146818
v 0.326127 0.660556 -0.146818
v 0.325278 0.656750 -0.147078
v 0.261871 0.653974 -0.147165
v 0.261871 0.722918 -0.147078
v 0.325357 0.719926 -0.143334
v 0.326127 0.716076 -0.143334
v 0.323048 0.722235 -0.143334
v 0.326127 0.660556 -0.143334
v 0.322877 0.654717 -0.147165
v 0.261871 0.723005 -0.146818
v 0.319198 0.723005 -0.143334
v 0.325357 0.656707 -0.143334
v 0.325357 0.656707 -0.146818
v 0.323005 0.654477 -0.147078
v 0.319164 0.653974 -0.147165
v 0.323005 0.722155 -0.143074
v 0.325278 0.719883 -0.143074
v 0.326041 0.716068 -0.143074
v 0.319190 0.722918 -0.143074
v 0.326041 0.660565 -0.143074
v 0.319190 0.653714 -0.147078
v 0.261871 0.723005 -0.143334
v 0.261871 0.722918 -0.143074
v 0.325278 0.656750 -0.143074
v 0.323048 0.654398 -0.143334
v 0.323048 0.654398 -0.146818
v 0.261871 0.653714 -0.147078
v 0.319164 0.722659 -0.142987
v 0.322877 0.721916 -0.142987
v 0.325038 0.719755 -0.142987
v 0.325781 0.716042 -0.142987
v 0.261871 0.722659 -0.142987
v 0.325781 0.660591 -0.142987
v 0.319198 0.653628 -0.146818
v 0.325038 0.656878 -0.142987
v 0.323005 0.654477 -0.143074
v 0.319198 0.653628 -0.143334
v 0.261871 0.653628 -0.146818
v 0.319130 0.722312 -0.142987
v 0.322706 0.721597 -0.142987
v 0.324719 0.719584 -0.142987
v 0.325434 0.716008 -0.142987
v 0.325434 0.660625 -0.142987
v 0.324719 0.657049 -0.142987
v 0.261871 0.653628 -0.143334
v 0.262218 0.722312 -0.142987
v 0.322706 0.655036 -0.142987
v 0.322877 0.654717 -0.142987
v 0.319190 0.653714 -0.143074
v 0.261871 0.653974 -0.142987
v 0.262218 0.654321 -0.142987
v 0.319130 0.654321 -0.142987
v 0.319164 0.653974 -0.142987
v 0.261871 0.653714 -0.143074
vn 0.1535369538500229 0.1032419689676371 -0.9827347046106296
vn 0.23640192028835916 0.03131298944166903 -0.9711506725406734
vn 0.10595801651837924 -0.006973001087059355 -0.9943461550141031
vn -0.10595801651837924 0.006973001087059355 0.9943461550141031
vn -0.23640192028835916 -0.03131298944166903 0.9711506725406734
vn -0.1535369538500229 -0.1032419689676371 0.9827347046106296
vn 0.5927217357821943 0.3567638409652399 -0.7220806781178067
vn -0.5927217357821943 -0.3567638409652399 0.7220806781178067
vn 0.7007626555605235 0.0810829601460323 -0.7087716516239346
vn -0.7007626555605235 -0.0810829601460323 0.7087716516239346
vn 0.07047199981303778 0.17104899954620723 -0.9827389973927935
vn -0.07047199981303778 -0.17104899954620723 0.9827389973927935
vn 0.2952869727270012 0.6256569422137019 -0.7220519333105644
vn -0.2952869727270012 -0.6256569422137019 0.7220519333105644
vn 0.7030869673999673 -0.057921997314330655 -0.7087409671378083
vn -0.7030869673999673 0.057921997314330655 0.7087409671378083
vn 0.012561997549820304 0.1908809627692447 -0.9815328085549889
vn -0.012561997549820304 -0.1908809627692447 0.9815328085549889
vn 0.9117140678766589 0.37562102796479874 -0.1663920123878025
vn -0.9117140678766589 -0.37562102796479874 0.1663920123878025
vn 0.5502149747311028 0.8182649624207733 -0.16645099235565491
vn -0.5502149747311028 -0.8182649624207733 0.16645099235565491
vn 0.9848543670946853 0.06479802415282007 -0.1608200599440803
vn -0.9848543670946853 -0.06479802415282007 0.1608200599440803
vn 0.17114502137242044 -0.07051600880596898 -0.9827191227209889
vn -0.17114502137242044 0.07051600880596898 0.9827191227209889
vn 0.0579200004147072 0.7030760050340242 -0.7087520050746642
vn -0.0579200004147072 -0.7030760050340242 0.7087520050746642
vn 0 0.1066189946071583 -0.9942999497078127
vn 0 -0.1066189946071583 0.9942999497078127
vn 0.1295950567619993 0.9784364285503574 -0.1608330704440959
vn -0.1295950567619993 -0.9784364285503574 0.1608330704440959
vn 0.9784320348077203 -0.12960100461055582 -0.16085500572241698
vn -0.9784320348077203 0.12960100461055582 0.16085500572241698
vn 0.6257220008419091 -0.29532500039735965 -0.7219800009714242
vn -0.6257220008419091 0.29532500039735965 0.7219800009714242
vn 0 -0.10665698660041677 -0.9942958750841314
vn 0 0.10665698660041677 0.9942958750841314
vn 0 0.5812628826357702 -0.8137158357006178
vn 0 -0.5812628826357702 0.8137158357006178
vn 0.8182642570790317 0.550224172867257 0.16642405228645138
vn -0.8182642570790317 -0.550224172867257 -0.16642405228645138
vn 0.9784280559739139 0.12960000741415742 0.16088000920362386
vn -0.9784280559739139 -0.12960000741415742 -0.16088000920362386
vn 0.3756209129639493 0.9117217887426895 0.1663499614546392
vn -0.3756209129639493 -0.9117217887426895 -0.1663499614546392
vn 0.9848418694134238 -0.06480199140748336 0.16089497866589036
vn -0.9848418694134238 0.06480199140748336 -0.16089497866589036
vn 0.10327301261758765 -0.15357101876284732 -0.9827261200665366
vn -0.10327301261758765 0.15357101876284732 0.9827261200665366
vn 0 0.9871011215096879 -0.160098019707667
vn 0 -0.9871011215096879 0.160098019707667
vn 0.06479697495992662 0.9848626194107476 0.16076993787223817
vn -0.06479697495992662 -0.9848626194107476 -0.16076993787223817
vn 0.9117144698284685 -0.3756341935733651 0.1663600857293668
vn -0.9117144698284685 0.3756341935733651 -0.1663600857293668
vn 0.818277130097073 -0.5502370874816512 -0.1663180264427389
vn -0.818277130097073 0.5502370874816512 0.1663180264427389
vn 0.3568259568931076 -0.5928509283797585 -0.721943912784488
vn -0.3568259568931076 0.5928509283797585 0.721943912784488
vn 0.03131799726742657 -0.23646597936775285 -0.9711349152660546
vn -0.03131799726742657 0.23646597936775285 0.9711349152660546
vn 0.35676099953942153 0.5927059992348164 0.7220949990677755
vn -0.35676099953942153 -0.5927059992348164 -0.7220949990677755
vn 0.6256511547729762 0.2952790730458507 0.7220601786225472
vn -0.6256511547729762 -0.2952790730458507 -0.7220601786225472
vn 0.7030089381116653 0.057914994901540354 0.7088189376001907
vn -0.7030089381116653 -0.057914994901540354 -0.7088189376001907
vn 0.08108699650600194 0.7007709698041299 0.7087629694597588
vn -0.08108699650600194 -0.7007709698041299 -0.7087629694597588
vn 0.7007439885456388 -0.08108399867460112 0.7087899884141189
vn -0.7007439885456388 0.08108399867460112 -0.7087899884141189
vn 0.08108201247568482 -0.7007451078201542 -0.7087891090578449
vn -0.08108201247568482 0.7007451078201542 0.7087891090578449
vn 0 0.9870996735420079 0.16010694704871895
vn 0 -0.9870996735420079 -0.16010694704871895
vn 0 0.8137971149854714 0.5811490821134656
vn 0 -0.8137971149854714 -0.5811490821134656
vn 0.5928382223034075 -0.3568281338039741 0.721953270719171
vn -0.5928382223034075 0.3568281338039741 -0.721953270719171
vn 0.5502390119239546 -0.818287017732689 0.16626300360300225
vn -0.5502390119239546 0.818287017732689 -0.16626300360300225
vn 0.37563982381801453 -0.9117205723862849 -0.16631392199571224
vn -0.37563982381801453 0.9117205723862849 0.16631392199571224
vn 0 -0.8136221049084408 -0.581394074964957
vn 0 0.8136221049084408 0.581394074964957
vn 0.020940991475416223 0.15808393564775766 0.9872035981326964
vn -0.020940991475416223 -0.15808393564775766 -0.9872035981326964
vn 0.08604102328726423 0.1279430346281706 0.98804226741664
vn -0.08604102328726423 -0.1279430346281706 -0.98804226741664
vn 0.1425810172160173 0.05874800709355771 0.988038119301164
vn -0.1425810172160173 -0.05874800709355771 -0.988038119301164
vn 0.159156961508371 0.010470997467620764 0.987197761249212
vn -0.159156961508371 -0.010470997467620764 -0.987197761249212
vn 0 0.1280639880354942 0.9917659073432827
vn 0 -0.1280639880354942 -0.9917659073432827
vn 0.15815906323493203 -0.020949008375802994 0.9871913946974614
vn -0.15815906323493203 0.020949008375802994 -0.9871913946974614
vn 0.06480501278544704 -0.984823194296772 -0.16100803176543896
vn -0.06480501278544704 0.984823194296772 0.16100803176543896
vn 0.12800701392165956 -0.08607400936115175 0.9880311074553049
vn -0.12800701392165956 0.08607400936115175 -0.9880311074553049
vn 0.29533297073339004 -0.6257229379927373 0.7219759284543548
vn -0.29533297073339004 0.6257229379927373 -0.7219759284543548
vn 0.12960802915993053 -0.9784222201308372 0.16090903620220381
vn -0.12960802915993053 0.9784222201308372 -0.16090903620220381
vn 0 -0.9870629818094164 -0.16033299704522344
vn 0 0.9870629818094164 0.16033299704522344
vn 0 0 1
vn 0 0 -1
vn -9.99999999999e-7 9.999999997769554e-7 1
vn 9.99999999999e-7 -9.999999997769554e-7 -1
vn -9.999999999995e-7 0 1
vn 9.999999999995e-7 0 -1
vn 0 -0.9870646157585223 0.16032293758997973
vn 0 0.9870646157585223 -0.16032293758997973
vn 0.05875001456692104 -0.14260703535906252 0.9880342449806513
vn -0.05875001456692104 0.14260703535906252 -0.9880342449806513
vn 0.057905010784374975 -0.7029571309205058 0.7088711320219441
vn -0.057905010784374975 0.7029571309205058 -0.7088711320219441
vn 0 -0.07981902972293622 0.9968093711909458
vn 0 0.07981902972293622 -0.9968093711909458
vn 0 9.999999997774554e-7 1
vn 0 -9.999999997774554e-7 -1
vn 0.01047499837626015 -0.15918097532519995 0.9871938469741064
vn -0.01047499837626015 0.15918097532519995 -0.9871938469741064
vn 0 -0.5811840843181934 0.8137721180620674
vn 0 0.5811840843181934 -0.8137721180620674
usemtl material_0_0
f 1//1 2//2 3//3
f 3//4 2//5 1//6
f 4//7 2//2 1//1
f 1//6 2//5 4//8
f 5//9 3//3 2//2
f 2//5 3//4 5//10
f 6//11 1//1 3//3
f 3//4 1//6 6//12
f 4//7 5//9 2//2
f 2//5 5//10 4//8
f 7//13 4//7 1//1
f 1//6 4//8 7//14
f 5//9 8//15 3//3
f 3//4 8//16 5//10
f 7//13 1//1 6//11
f 6//12 1//6 7//14
f 9//17 6//11 3//3
f 3//4 6//12 9//18
f 4//7 10//19 5//9
f 5//10 10//20 4//8
f 7//13 11//21 4//7
f 4//8 11//22 7//14
f 5//9 12//23 8//15
f 8//16 12//24 5//10
f 3//3 8//15 13//25
f 13//26 8//16 3//4
f 14//27 7//13 6//11
f 6//12 7//14 14//28
f 14//27 6//11 9//17
f 9//18 6//12 14//28
f 9//17 3//3 15//29
f 15//30 3//4 9//18
f 10//19 4//7 11//21
f 11//22 4//8 10//20
f 5//9 10//19 12//23
f 12//24 10//20 5//10
f 11//21 7//13 16//31
f 16//32 7//14 11//22
f 8//15 12//23 17//33
f 17//34 12//24 8//16
f 8//15 18//35 13//25
f 13//26 18//36 8//16
f 3//3 13//25 19//37
f 19//38 13//26 3//4
f 7//13 14//27 16//31
f 16//32 14//28 7//14
f 14//27 9//17 20//39
f 20//40 9//18 14//28
f 15//29 3//3 19//37
f 19//38 3//4 15//30
f 20//39 9//17 15//29
f 15//30 9//18 20//40
f 10//19 11//21 21//41
f 21//42 11//22 10//20
f 10//19 22//43 12//23
f 12//24 22//44 10//20
f 11//21 16//31 23//45
f 23//46 16//32 11//22
f 12//23 24//47 17//33
f 17//34 24//48 12//24
f 8//15 17//33 18//35
f 18//36 17//34 8//16
f 13//25 18//35 25//49
f 25//50 18//36 13//26
f 13//25 25//49 19//37
f 19//38 25//50 13//26
f 16//31 14//27 26//51
f 26//52 14//28 16//32
f 14//27 20//39 26//51
f 26//52 20//40 14//28
f 21//41 11//21 23//45
f 23//46 11//22 21//42
f 10//19 21//41 22//43
f 22//44 21//42 10//20
f 12//23 22//43 24//47
f 24//48 22//44 12//24
f 23//45 16//31 27//53
f 27//54 16//32 23//46
f 17//33 24//47 28//55
f 28//56 24//48 17//34
f 18//35 17//33 29//57
f 29//58 17//34 18//36
f 18//35 30//59 25//49
f 25//50 30//60 18//36
f 25//49 31//61 19//37
f 19//38 31//62 25//50
f 16//31 26//51 27//53
f 27//54 26//52 16//32
f 21//41 23//45 32//63
f 32//64 23//46 21//42
f 21//41 33//65 22//43
f 22//44 33//66 21//42
f 22//43 34//67 24//47
f 24//48 34//68 22//44
f 23//45 27//53 35//69
f 35//70 27//54 23//46
f 24//47 36//71 28//55
f 28//56 36//72 24//48
f 17//33 28//55 29//57
f 29//58 28//56 17//34
f 18//35 29//57 30//59
f 30//60 29//58 18//36
f 25//49 30//59 31//61
f 31//62 30//60 25//50
f 31//61 37//73 19//37
f 19//38 37//74 31//62
f 27//53 26//51 38//75
f 38//76 26//52 27//54
f 23//45 35//69 32//63
f 32//64 35//70 23//46
f 21//41 32//63 33//65
f 33//66 32//64 21//42
f 22//43 33//65 34//67
f 34//68 33//66 22//44
f 24//47 34//67 36//71
f 36//72 34//68 24//48
f 27//53 39//77 35//69
f 35//70 39//78 27//54
f 28//55 36//71 40//79
f 40//80 36//72 28//56
f 28//55 41//81 29//57
f 29//58 41//82 28//56
f 29//57 42//83 30//59
f 30//60 42//84 29//58
f 30//59 37//73 31//61
f 31//62 37//74 30//60
f 19//37 37//73 43//85
f 43//86 37//74 19//38
f 27//53 38//75 39//77
f 39//78 38//76 27//54
f 35//69 44//87 32//63
f 32//64 44//88 35//70
f 32//63 45//89 33//65
f 33//66 45//90 32//64
f 33//65 46//91 34//67
f 34//68 46//92 33//66
f 34//67 47//93 36//71
f 36//72 47//94 34//68
f 39//77 48//95 35//69
f 35//70 48//96 39//78
f 49//97 40//79 36//71
f 36//72 40//80 49//98
f 28//55 40//79 41//81
f 41//82 40//80 28//56
f 29//57 41//81 42//83
f 42//84 41//82 29//58
f 42//83 37//73 30//59
f 30//60 37//74 42//84
f 50//99 43//85 37//73
f 37//74 43//86 50//100
f 35//69 48//95 44//87
f 44//88 48//96 35//70
f 44//87 45//89 32//63
f 32//64 45//90 44//88
f 45//89 46//91 33//65
f 33//66 46//92 45//90
f 46//91 47//93 34//67
f 34//68 47//94 46//92
f 47//93 49//97 36//71
f 36//72 49//98 47//94
f 49//97 51//101 40//79
f 40//80 51//102 49//98
f 41//81 40//79 52//103
f 52//104 40//80 41//82
f 41//81 53//105 42//83
f 42//84 53//106 41//82
f 42//83 50//99 37//73
f 37//74 50//100 42//84
f 50//99 54//107 43//85
f 43//86 54//108 50//100
f 48//95 55//109 44//87
f 44//88 55//110 48//96
f 44//87 56//109 45//89
f 45//90 56//110 44//88
f 45//89 57//109 46//91
f 46//92 57//110 45//90
f 46//91 58//111 47//93
f 47//94 58//112 46//92
f 47//93 59//111 49//97
f 49//98 59//112 47//94
f 49//97 60//113 51//101
f 51//102 60//114 49//98
f 51//101 52//103 40//79
f 40//80 52//104 51//102
f 41//81 52//103 53//105
f 53//106 52//104 41//82
f 42//83 53//105 50//99
f 50//100 53//106 42//84
f 50//99 61//115 54//107
f 54//108 61//116 50//100
f 48//95 62//109 55//109
f 55//110 62//110 48//96
f 44//87 55//109 56//109
f 56//110 55//110 44//88
f 45//89 56//109 57//109
f 57//110 56//110 45//90
f 46//91 57//109 58//111
f 58//112 57//110 46//92
f 47//93 58//111 59//111
f 59//112 58//112 47//94
f 59//111 60//113 49//97
f 49//98 60//114 59//112
f 60//113 63//109 51//101
f 51//102 63//110 60//114
f 51//101 64//117 52//103
f 52//104 64//118 51//102
f 52//103 65//119 53//105
f 53//106 65//120 52//104
f 53//105 61//115 50//99
f 50//100 61//116 53//106
f 48//95 66//121 62//109
f 62//110 66//122 48//96
f 62//109 56//109 55//109
f 55//110 56//110 62//110
f 62//109 57//109 56//109
f 56//110 57//110 62//110
f 62//109 58//111 57//109
f 57//110 58//112 62//110
f 58//111 60//113 59//111
f 59//112 60//114 58//112
f 58//111 63//109 60//113
f 60//114 63//110 58//112
f 51//101 63//109 64//117
f 64//118 63//110 51//102
f 64//117 65//119 52//103
f 52//104 65//120 64//118
f 53//105 65//119 61//115
f 61//116 65//120 53//106
f 62//109 66//121 67//109
f 67//110 66//122 62//110
f 62//109 68//123 58//111
f 58//112 68//124 62//110
f 58//111 68//123 63//109
f 63//110 68//124 58//112
f 63//109 68//123 64//117
f 64//118 68//124 63//110
f 64//117 69//125 65//119
f 65//120 69//126 64//118
f 65//119 70//127 61//115
f 61//116 70//128 65//120
f 67//109 66//121 69//125
f 69//126 66//122 67//110
f 62//109 67//109 68//123
f 68//124 67//110 62//110
f 64//117 68//123 69//125
f 69//126 68//124 64//118
f 69//125 70//127 65//119
f 65//120 70//128 69//126
f 66//121 70//127 69//125
f 69//126 70//128 66//122
f 67//109 69//125 68//123
f 68//124 69//126 67//110
