# SSTK version 0.8.0
# 45
mtllib original-45.mtl
o mesh45/mesh45-geometry#mesh45-geometry
v 0.027903 -0.232397 -0.083916
v 0.027902 -0.232397 -0.006309
v 0.026238 -0.222949 -0.083916
v 0.026236 -0.241843 -0.006309
v 0.026236 -0.222950 -0.006309
v 0.026238 -0.241844 -0.083916
v 0.021441 -0.214641 -0.083916
v 0.021440 -0.250151 -0.006309
v 0.021440 -0.214643 -0.006310
v 0.021441 -0.250152 -0.083916
v 0.014092 -0.208475 -0.083916
v 0.014091 -0.256317 -0.006309
v 0.014091 -0.208477 -0.006309
v 0.014092 -0.256318 -0.083916
v 0.005078 -0.205194 -0.083916
v 0.005078 -0.259597 -0.006309
v 0.005078 -0.205196 -0.006309
v 0.005078 -0.259599 -0.083916
v -0.004515 -0.205194 -0.083916
v -0.004515 -0.259597 -0.006309
v -0.004515 -0.205196 -0.006310
v -0.004515 -0.259599 -0.083916
v -0.013530 -0.208475 -0.083916
v -0.013529 -0.256317 -0.006309
v -0.013529 -0.208477 -0.006310
v -0.013530 -0.256318 -0.083916
v -0.020878 -0.214642 -0.083916
v -0.020877 -0.250151 -0.006309
v -0.020877 -0.214643 -0.006309
v -0.020878 -0.250152 -0.083916
v -0.025675 -0.222949 -0.083916
v -0.025673 -0.241843 -0.006309
v -0.025673 -0.222950 -0.006310
v -0.025675 -0.241844 -0.083916
v -0.027341 -0.232397 -0.083916
v -0.027339 -0.232397 -0.006309
vn -0.9982771958470309 0.058674011510962076 -0.00002500000490461342
vn -0.9982772544439339 -0.058673014954755985 -0.000024000006117207368
vn -0.9581418336780899 -0.2862939503028101 -0.000023999995833952658
vn 0.9581418336780899 0.2862939503028101 0.000023999995833952658
vn 0.9982772544439339 0.058673014954755985 0.000024000006117207368
vn 0.9982771958470309 -0.058674011510962076 0.00002500000490461342
vn -0.9581415593440912 0.28629486833101625 -0.000024999988502269357
vn 0.9581415593440912 -0.28629486833101625 0.000024999988502269357
vn -0.9180052941174682 -0.39656812705549116 -0.00002400000768939175
vn 0.9180052941174682 0.39656812705549116 0.00002400000768939175
vn -0.9180065435123611 0.39656523478929273 -0.000025000014801350095
vn 0.9180065435123611 -0.39656523478929273 0.000025000014801350095
vn -0.8024382388481848 -0.5967351776200424 -0.00002500000744146083
vn 0.8024382388481848 0.5967351776200424 0.00002500000744146083
vn -0.8024403875591412 0.596732288207145 -0.00002500001207426375
vn 0.8024403875591412 -0.596732288207145 0.00002500001207426375
vn -0.7270099353491905 -0.6866269389403289 -0.000024999997776977762
vn 0.7270099353491905 0.6866269389403289 0.000024999997776977762
vn -0.7270084932488943 0.6866284658525103 -0.000025000016961452304
vn 0.7270084932488943 -0.6866284658525103 0.000025000016961452304
vn -0.5499539750414393 -0.8351949620963478 -0.000024999998865610524
vn 0.5499539750414393 0.8351949620963478 0.000024999998865610524
vn -0.5499498068906589 0.8351977067287288 -0.00002399999157245899
vn 0.5499498068906589 -0.8351977067287288 0.00002399999157245899
vn -0.44832604937146053 -0.8938700984365562 -0.000024000002643174915
vn 0.44832604937146053 0.8938700984365562 0.000024000002643174915
vn -0.44832484962245583 0.8938707001770462 -0.00002399999194970157
vn 0.44832484962245583 -0.8938707001770462 0.00002399999194970157
vn -0.23112807893741738 -0.9729233322835352 -0.000025000008538495406
vn 0.23112807893741738 0.9729233322835352 0.000025000008538495406
vn -0.23113303670982305 0.9729221545248599 -0.00002400000381159688
vn 0.23113303670982305 -0.9729221545248599 0.00002400000381159688
vn -0.11556301747347625 -0.993300150189974 -0.000025000003780296417
vn 0.11556301747347625 0.993300150189974 0.000025000003780296417
vn -0.11556893733934814 0.993299461440131 -0.00002499998644496547
vn 0.11556893733934814 -0.993299461440131 0.00002499998644496547
vn 0.11556499076346849 -0.993299920610507 -0.0000249999980020958
vn -0.11556499076346849 0.993299920610507 0.0000249999980020958
vn 0.11556499076346849 0.993299920610507 -0.000024999998001654685
vn -0.11556499076346849 -0.993299920610507 0.000024999998001654685
vn 0.2311299720963735 -0.972922882541946 -0.000024999996982041573
vn -0.2311299720963735 0.972922882541946 0.000024999996982041573
vn 0.2311309186748671 0.9729226576699262 -0.000024999991203351113
vn -0.2311309186748671 -0.9729226576699262 0.000024999991203351113
vn 0.44832525035609777 -0.8938704991597728 -0.00002500001396083517
vn -0.44832525035609777 0.8938704991597728 0.00002500001396083517
vn 0.4483240506063733 0.8938711008992816 -0.000025000002821776996
vn -0.4483240506063733 -0.8938711008992816 0.000025000002821776996
vn 0.5499521206196369 -0.835196183181511 -0.000025000005483374752
vn -0.5499521206196369 0.835196183181511 0.000025000005483374752
vn 0.5499509637486084 0.8351969449459071 -0.00002499999835187721
vn -0.5499509637486084 -0.8351969449459071 0.00002499999835187721
vn 0.7270094638921644 -0.6866274381250921 -0.000025000015952230233
vn -0.7270094638921644 0.6866274381250921 0.000025000015952230233
vn 0.7270089647073505 0.6866279666676461 -0.000024999998786222625
vn -0.7270089647073505 -0.6866279666676461 0.000024999998786222625
vn 0.8024390738031336 -0.5967340548837222 -0.00002400000220749681
vn -0.8024390738031336 0.5967340548837222 0.00002400000220749681
vn 0.8024399087168486 0.5967329321174556 -0.000024999997155942987
vn -0.8024399087168486 -0.5967329321174556 0.000024999997155942987
vn 0.9180067007762236 -0.3965648707398997 -0.000024999991851354536
vn -0.9180067007762236 0.3965648707398997 0.000024999991851354536
vn 0.9180061794624226 0.3965660775253049 -0.00002500000488720088
vn -0.9180061794624226 -0.3965660775253049 0.00002500000488720088
vn 0.9581418336546152 -0.2862939502957958 -0.000024999995659752198
vn -0.9581418336546152 0.2862939502957958 0.000024999995659752198
vn 0.9581415593440912 0.28629486833101625 -0.000024999988502269357
vn -0.9581415593440912 -0.28629486833101625 0.000024999988502269357
vn 0.9982771372735979 -0.05867500806843026 -0.000025000003437776242
vn -0.9982771372735979 0.05867500806843026 0.000025000003437776242
vn 0.9982772544194761 0.058673014953318496 -0.000025000006371451914
vn -0.9982772544194761 -0.058673014953318496 0.000025000006371451914
usemtl material_0_0
f 1//1 2//2 3//3
f 3//4 2//5 1//6
f 1//1 4//7 2//2
f 2//5 4//8 1//6
f 3//3 2//2 5//9
f 5//10 2//5 3//4
f 6//11 4//7 1//1
f 1//6 4//8 6//12
f 3//3 5//9 7//13
f 7//14 5//10 3//4
f 6//11 8//15 4//7
f 4//8 8//16 6//12
f 7//13 5//9 9//17
f 9//18 5//10 7//14
f 10//19 8//15 6//11
f 6//12 8//16 10//20
f 7//13 9//17 11//21
f 11//22 9//18 7//14
f 10//19 12//23 8//15
f 8//16 12//24 10//20
f 9//17 13//25 11//21
f 11//22 13//26 9//18
f 10//19 14//27 12//23
f 12//24 14//28 10//20
f 11//21 13//25 15//29
f 15//30 13//26 11//22
f 14//27 16//31 12//23
f 12//24 16//32 14//28
f 13//25 17//33 15//29
f 15//30 17//34 13//26
f 14//27 18//35 16//31
f 16//32 18//36 14//28
f 15//29 17//33 19//37
f 19//38 17//34 15//30
f 18//35 20//39 16//31
f 16//32 20//40 18//36
f 17//33 21//41 19//37
f 19//38 21//42 17//34
f 18//35 22//43 20//39
f 20//40 22//44 18//36
f 21//41 23//45 19//37
f 19//38 23//46 21//42
f 20//39 22//43 24//47
f 24//48 22//44 20//40
f 21//41 25//49 23//45
f 23//46 25//50 21//42
f 22//43 26//51 24//47
f 24//48 26//52 22//44
f 25//49 27//53 23//45
f 23//46 27//54 25//50
f 24//47 26//51 28//55
f 28//56 26//52 24//48
f 25//49 29//57 27//53
f 27//54 29//58 25//50
f 26//51 30//59 28//55
f 28//56 30//60 26//52
f 31//61 27//53 29//57
f 29//58 27//54 31//62
f 30//59 32//63 28//55
f 28//56 32//64 30//60
f 31//61 29//57 33//65
f 33//66 29//58 31//62
f 34//67 32//63 30//59
f 30//60 32//64 34//68
f 31//61 33//65 35//69
f 35//70 33//66 31//62
f 34//67 36//71 32//63
f 32//64 36//72 34//68
f 35//69 33//65 36//71
f 36//72 33//66 35//70
f 35//69 36//71 34//67
f 34//68 36//72 35//70
