# SSTK version 0.8.0
# 41
mtllib original-41.mtl
o mesh41/mesh41-geometry#mesh41-geometry
v 0.000433 -0.050591 -0.140492
v -0.014519 -0.050591 -0.143466
v -0.012490 -0.050587 -0.148364
v 0.000433 -0.050591 -0.140000
v -0.023447 -0.050587 -0.155684
v 0.000433 -0.050587 -0.145793
v -0.014707 -0.050591 -0.143011
v 0.015574 -0.050591 -0.143011
v -0.027195 -0.050591 -0.151936
v 0.015386 -0.050591 -0.143466
v 0.000433 -0.050270 -0.139997
v 0.015575 -0.050270 -0.143009
v -0.030768 -0.050587 -0.166641
v 0.013357 -0.050587 -0.148364
v -0.014709 -0.050270 -0.143009
v -0.027543 -0.050591 -0.151588
v 0.028412 -0.050270 -0.151586
v 0.028410 -0.050591 -0.151588
v -0.035665 -0.050591 -0.164612
v 0.028062 -0.050591 -0.151936
v 0.000433 0.123203 -0.138460
v 0.016164 0.123203 -0.141589
v 0.029499 0.123203 -0.150499
v -0.033338 -0.050587 -0.179565
v 0.024314 -0.050587 -0.155684
v -0.027545 -0.050270 -0.151586
v -0.015297 0.123203 -0.141589
v -0.036120 -0.050591 -0.164424
v 0.036989 -0.050270 -0.164423
v 0.038409 0.123203 -0.163834
v 0.036987 -0.050591 -0.164424
v -0.038639 -0.050591 -0.179565
v 0.036532 -0.050591 -0.164612
v 0.000433 0.123989 -0.138453
v 0.016166 0.123989 -0.141582
v 0.029504 0.123989 -0.150494
v 0.038416 0.123989 -0.163832
v -0.030768 -0.050587 -0.192489
v 0.031634 -0.050587 -0.166641
v -0.036123 -0.050270 -0.164423
v -0.028632 0.123203 -0.150499
v -0.015299 0.123989 -0.141582
v -0.039132 -0.050591 -0.179565
v 0.041538 0.123203 -0.179565
v 0.040001 -0.050270 -0.179565
v 0.041545 0.123989 -0.179565
v 0.039998 -0.050591 -0.179565
v -0.035665 -0.050591 -0.194517
v 0.039506 -0.050591 -0.179565
v 0.000433 0.124326 -0.138114
v 0.016296 0.124326 -0.141270
v 0.029743 0.124326 -0.150255
v 0.038729 0.124326 -0.163702
v 0.041884 0.124326 -0.179565
v -0.023447 -0.050587 -0.203445
v 0.034205 -0.050587 -0.179565
v -0.037542 0.123203 -0.163834
v -0.039134 -0.050270 -0.179565
v -0.028637 0.123989 -0.150494
v -0.015429 0.124326 -0.141270
v -0.036120 -0.050591 -0.194705
v 0.038416 0.123989 -0.195297
v 0.038409 0.123203 -0.195295
v 0.036989 -0.050270 -0.194707
v 0.038729 0.124326 -0.195427
v 0.036987 -0.050591 -0.194706
v -0.027195 -0.050591 -0.207193
v 0.036532 -0.050591 -0.194517
v 0.017139 0.126519 -0.139234
v 0.000433 0.126519 -0.135911
v 0.031301 0.126519 -0.148697
v 0.040764 0.126519 -0.162859
v 0.044087 0.126519 -0.179565
v 0.040764 0.126519 -0.196270
v -0.012490 -0.050587 -0.210766
v 0.031634 -0.050587 -0.192489
v -0.037549 0.123989 -0.163832
v -0.040671 0.123203 -0.179565
v -0.036123 -0.050270 -0.194707
v -0.028876 0.124326 -0.150255
v -0.016272 0.126519 -0.139234
v -0.027543 -0.050591 -0.207541
v 0.029743 0.124326 -0.208874
v 0.029504 0.123989 -0.208635
v 0.029499 0.123203 -0.208630
v 0.028412 -0.050270 -0.207543
v 0.031301 0.126519 -0.210433
v 0.028410 -0.050591 -0.207541
v -0.014519 -0.050591 -0.215663
v 0.028062 -0.050591 -0.207193
v 0.017269 0.126856 -0.138921
v 0.031541 0.126856 -0.148457
v 0.000433 0.126856 -0.135572
v 0.041077 0.126856 -0.162730
v 0.044426 0.126856 -0.179565
v 0.041077 0.126856 -0.196400
v 0.031541 0.126856 -0.210672
v 0.000433 -0.050587 -0.213336
v 0.024314 -0.050587 -0.203445
v -0.037862 0.124326 -0.163702
v -0.040678 0.123989 -0.179565
v -0.037542 0.123203 -0.195295
v -0.027545 -0.050270 -0.207543
v -0.030434 0.126519 -0.148697
v -0.016402 0.126856 -0.138921
v -0.014707 -0.050591 -0.216118
v 0.016296 0.124326 -0.217860
v 0.017139 0.126519 -0.219896
v 0.016166 0.123989 -0.217547
v 0.016164 0.123203 -0.217541
v 0.015575 -0.050270 -0.216121
v 0.017269 0.126856 -0.220208
v 0.015574 -0.050591 -0.216118
v 0.000433 -0.050591 -0.218637
v 0.015386 -0.050591 -0.215663
v 0.017271 0.127495 -0.138915
v 0.031545 0.127495 -0.148453
v 0.041083 0.127495 -0.162727
v 0.000433 0.127495 -0.135566
v 0.044432 0.127495 -0.179565
v 0.041083 0.127495 -0.196402
v 0.031545 0.127495 -0.210677
v 0.017271 0.127495 -0.220214
v 0.013357 -0.050587 -0.210766
v -0.039897 0.126519 -0.162859
v -0.041017 0.124326 -0.179565
v -0.037549 0.123989 -0.195297
v -0.028632 0.123203 -0.208630
v -0.014709 -0.050270 -0.216121
v -0.030674 0.126856 -0.148457
v -0.016404 0.127495 -0.138915
v 0.000433 -0.050591 -0.219130
v 0.000433 0.124326 -0.221015
v 0.000433 0.126519 -0.223218
v 0.000433 0.126856 -0.223557
v 0.000433 0.123989 -0.220677
v 0.000433 0.123203 -0.220670
v 0.000433 -0.050270 -0.219133
v 0.000433 0.127495 -0.223564
v 0.017343 0.145623 -0.138743
v 0.031677 0.145623 -0.148321
v 0.041255 0.145623 -0.162656
v 0.044619 0.145623 -0.179565
v 0.000433 0.145623 -0.135379
v 0.041255 0.145623 -0.196474
v 0.031677 0.145623 -0.210808
v 0.017343 0.145623 -0.220387
v 0.000433 0.145623 -0.223750
v -0.040210 0.126856 -0.162730
v -0.043220 0.126519 -0.179565
v -0.037862 0.124326 -0.195427
v -0.028637 0.123989 -0.208635
v -0.015297 0.123203 -0.217541
v -0.030678 0.127495 -0.148453
v -0.016476 0.145623 -0.138743
v -0.015429 0.124326 -0.217860
v -0.016272 0.126519 -0.219896
v -0.016402 0.126856 -0.220208
v -0.016404 0.127495 -0.220214
v -0.015299 0.123989 -0.217547
v -0.016476 0.145623 -0.220387
v 0.017344 0.146037 -0.138739
v 0.031680 0.146037 -0.148318
v 0.041259 0.146037 -0.162654
v 0.044623 0.146037 -0.179565
v 0.041259 0.146037 -0.196475
v 0.000433 0.146037 -0.135375
v 0.031680 0.146037 -0.210811
v 0.017344 0.146037 -0.220391
v 0.000433 0.146037 -0.223754
v -0.016477 0.146037 -0.220391
v -0.040216 0.127495 -0.162727
v -0.043559 0.126856 -0.179565
v -0.039897 0.126519 -0.196270
v -0.028876 0.124326 -0.208874
v -0.030810 0.145623 -0.148321
v -0.016477 0.146037 -0.138739
v -0.030434 0.126519 -0.210433
v -0.030674 0.126856 -0.210672
v -0.030678 0.127495 -0.210677
v -0.030810 0.145623 -0.210808
v -0.030813 0.146037 -0.210811
v 0.017507 0.146037 -0.138345
v 0.031982 0.146037 -0.148016
v 0.041653 0.146037 -0.162491
v 0.045049 0.146037 -0.179565
v 0.041653 0.146037 -0.196638
v 0.031982 0.146037 -0.211113
v 0.000433 0.146037 -0.134949
v 0.017507 0.146037 -0.220784
v 0.000433 0.146037 -0.224181
v -0.016640 0.146037 -0.220784
v -0.031115 0.146037 -0.211113
v -0.040388 0.145623 -0.162656
v -0.043565 0.127495 -0.179565
v -0.040210 0.126856 -0.196400
v -0.030813 0.146037 -0.148318
v -0.016640 0.146037 -0.138345
v -0.040216 0.127495 -0.196402
v -0.040388 0.145623 -0.196474
v -0.040392 0.146037 -0.196475
v -0.040786 0.146037 -0.196638
v 0.020310 0.146037 -0.131579
v 0.037160 0.146037 -0.142838
v 0.048419 0.146037 -0.159688
v 0.052373 0.146037 -0.179565
v 0.048419 0.146037 -0.199441
v 0.037160 0.146037 -0.216291
v 0.020310 0.146037 -0.227550
v 0.000433 0.146037 -0.127626
v 0.000433 0.146037 -0.231504
v -0.019443 0.146037 -0.227550
v -0.036293 0.146037 -0.216291
v -0.047552 0.146037 -0.199441
v -0.040392 0.146037 -0.162654
v -0.043752 0.145623 -0.179565
v -0.031115 0.146037 -0.148016
v -0.019443 0.146037 -0.131579
v -0.043756 0.146037 -0.179565
v -0.044182 0.146037 -0.179565
v -0.051506 0.146037 -0.179565
v 0.000433 0.146300 -0.125721
v 0.021039 0.146300 -0.129819
v 0.038507 0.146300 -0.141491
v 0.050179 0.146300 -0.158959
v 0.054277 0.146300 -0.179565
v 0.050179 0.146300 -0.200170
v 0.038507 0.146300 -0.217638
v 0.021039 0.146300 -0.229310
v -0.020172 0.146300 -0.129819
v 0.000433 0.146300 -0.233409
v -0.020172 0.146300 -0.229310
v -0.037640 0.146300 -0.217638
v -0.049312 0.146300 -0.200170
v -0.040786 0.146037 -0.162491
v -0.036293 0.146037 -0.142838
v -0.037640 0.146300 -0.141491
v -0.047552 0.146037 -0.159688
v -0.053410 0.146300 -0.179565
v 0.000433 0.147106 -0.123954
v -0.020848 0.147106 -0.128187
v 0.021715 0.147106 -0.128187
v 0.039756 0.147106 -0.140242
v 0.051811 0.147106 -0.158283
v 0.056045 0.147106 -0.179565
v 0.051811 0.147106 -0.200846
v 0.039757 0.147106 -0.218888
v 0.021715 0.147106 -0.230943
v -0.038889 0.147106 -0.140242
v 0.000433 0.147106 -0.235176
v -0.020848 0.147106 -0.230943
v -0.038889 0.147106 -0.218888
v -0.050944 0.147106 -0.200846
v -0.049312 0.146300 -0.158959
v -0.050944 0.147106 -0.158283
v -0.055178 0.147106 -0.179565
v 0.000433 0.148534 -0.122538
v -0.021390 0.148534 -0.126879
v -0.039890 0.148534 -0.139241
v 0.022257 0.148534 -0.126879
v 0.040757 0.148534 -0.139241
v 0.053119 0.148534 -0.157742
v 0.057460 0.148534 -0.179565
v 0.053119 0.148534 -0.201388
v 0.040757 0.148534 -0.219888
v 0.022257 0.148534 -0.232250
v -0.052252 0.148534 -0.157742
v 0.000433 0.148534 -0.236591
v -0.021390 0.148534 -0.232250
v -0.039890 0.148534 -0.219888
v -0.052252 0.148534 -0.201388
v -0.056593 0.148534 -0.179565
v -0.021715 0.150664 -0.126095
v 0.000433 0.150664 -0.121689
v -0.040491 0.150664 -0.138640
v -0.053037 0.150664 -0.157417
v 0.022582 0.150664 -0.126095
v 0.041358 0.150664 -0.138640
v 0.053904 0.150664 -0.157417
v 0.058309 0.150664 -0.179565
v 0.053904 0.150664 -0.201713
v 0.041358 0.150664 -0.220489
v 0.022582 0.150664 -0.233035
v -0.057442 0.150664 -0.179565
v 0.000433 0.150664 -0.237440
v -0.021715 0.150664 -0.233035
v -0.040491 0.150664 -0.220489
v -0.053037 0.150664 -0.201713
v -0.047113 0.205931 -0.132018
v -0.025298 0.205931 -0.117442
v 0.000433 0.205931 -0.112324
v -0.061689 0.205931 -0.153833
v -0.066807 0.205931 -0.179565
v 0.026165 0.205931 -0.117442
v 0.047980 0.205931 -0.132018
v 0.062556 0.205931 -0.153833
v 0.067674 0.205931 -0.179565
v 0.062556 0.205931 -0.205296
v 0.047980 0.205931 -0.227111
v 0.026165 0.205931 -0.241687
v -0.061689 0.205931 -0.205297
v 0.000434 0.205931 -0.246805
v -0.025298 0.205931 -0.241687
v -0.047113 0.205931 -0.227111
vn 0 -0.999999776219575 -0.0006689998502911178
vn 0.0002559999427251392 -0.9999997762700751 -0.0006179998617351284
vn 0.000213999952226121 -0.9999997767575747 -0.0006329998586877668
vn -0.000213999952226121 0.9999997767575747 0.0006329998586877668
vn -0.0002559999427251392 0.9999997762700751 0.0006179998617351284
vn 0 0.999999776219575 0.0006689998502911178
vn 0.04622000547665499 -0.7164330848908778 0.696123082484325
vn -0.04622000547665499 0.7164330848908778 -0.696123082484325
vn 0.0004399999017460529 -0.9999997766955747 -0.0005029998876780961
vn -0.0004399999017460529 0.9999997766955747 0.0005029998876780961
vn -0.000043999990169853286 -0.9999997765875748 -0.0006669998509841343
vn 0.000043999990169853286 0.9999997765875748 0.0006669998509841343
vn -0.22368796833014784 -0.7164508985645308 0.660803906443059
vn 0.22368796833014784 0.7164508985645308 -0.660803906443059
vn 0.3090968787148905 -0.7164307188830294 0.6254487545830257
vn -0.3090968787148905 0.7164307188830294 -0.6254487545830257
vn 0.00047299989417621857 -0.9999997762710752 -0.0004729998941764406
vn -0.00047299989417621857 0.9999997762710752 0.0004729998941764406
vn -0.0002559999427251392 -0.9999997762700751 -0.0006179998617351284
vn 0.0002559999427251392 0.9999997762700751 0.0006179998617351284
vn 0 -0.008867997149183467 0.9999606785401925
vn 0 0.008867997149183467 -0.9999606785401925
vn 0.3826690600340835 -0.008845001387626245 0.9238431449348335
vn -0.3826690600340835 0.008845001387626245 -0.9238431449348335
vn 0.0005989998662981533 -0.9999997767915748 -0.00029599993393052815
vn -0.0005989998662981533 0.9999997767915748 0.00029599993393052815
vn -0.0002959999339303061 -0.9999997767915748 -0.0005989998662983754
vn 0.0002959999339303061 0.9999997767915748 0.0005989998662983754
vn -0.3826681353059279 -0.008866003134890912 0.9238433266576623
vn 0.3826681353059279 0.008866003134890912 -0.9238433266576623
vn -0.4595520784951781 -0.7164321223723484 0.524916089659875
vn 0.4595520784951781 0.7164321223723484 -0.524916089659875
vn 0.7070790456309941 -0.00885700057158228 0.7070790456309941
vn -0.7070790456309941 0.00885700057158228 -0.7070790456309941
vn 0.5249029318437207 -0.7164489069723395 0.4595409403306805
vn -0.5249029318437207 0.7164489069723395 -0.4595409403306805
vn 0.0006179998617349063 -0.9999997762700751 -0.00025599994272536123
vn -0.0006179998617349063 0.9999997762700751 0.00025599994272536123
vn -0.00047299989417621857 -0.9999997762710752 -0.0004729998941764406
vn 0.00047299989417621857 0.9999997762710752 0.0004729998941764406
vn 0 -0.008863997464821966 0.999960714002777
vn 0 0.008863997464821966 -0.999960714002777
vn 0.3826690024387496 -0.008862000056477732 0.9238430058876516
vn -0.3826690024387496 0.008862000056477732 -0.9238430058876516
vn 0.7070790268400133 -0.008860000336316917 0.7070790268400133
vn -0.7070790268400133 0.008860000336316917 -0.7070790268400133
vn 0.0006669998509839123 -0.9999997765875748 -0.00004399999017007533
vn -0.0006669998509839123 0.9999997765875748 0.00004399999017007533
vn -0.0005029998876778741 -0.9999997766955747 -0.0004399999017462749
vn 0.0005029998876778741 0.9999997766955747 0.0004399999017462749
vn -0.7070791394904651 -0.008842001744323907 0.7070791394904651
vn 0.7070791394904651 0.008842001744323907 -0.7070791394904651
vn -0.38266814209063893 -0.008864003291342631 0.9238433430374166
vn 0.38266814209063893 0.008864003291342631 -0.9238433430374166
vn -0.625444304783462 -0.7164353491240457 0.30909515062426707
vn 0.625444304783462 0.7164353491240457 -0.30909515062426707
vn 0.9238432447034737 -0.008876002351035956 0.3826681013594181
vn -0.9238432447034737 0.008876002351035956 -0.3826681013594181
vn 0.9238430058876516 -0.008862000056477613 0.3826690024387496
vn -0.9238430058876516 0.008862000056477613 -0.3826690024387496
vn 0.660805832169217 -0.7164488180370688 0.22368894318771296
vn -0.660805832169217 0.7164488180370688 -0.22368894318771296
vn 0.0006689998502908957 -0.999999776219575 0
vn -0.0006689998502908957 0.999999776219575 0
vn -0.0006179998617349063 -0.9999997762700751 -0.00025599994272536123
vn 0.0006179998617349063 0.9999997762700751 0.00025599994272536123
vn -0.010257996018133942 -0.3896458487504212 0.9209076425295079
vn 0.010257996018133942 0.3896458487504212 -0.9209076425295079
vn 0.342935015033757 -0.38966301708224277 0.854727037469952
vn -0.342935015033757 0.38966301708224277 -0.854727037469952
vn 0.6439209176260999 -0.3896629501521756 0.658428915770157
vn -0.6439209176260999 0.3896629501521756 -0.658428915770157
vn 0.84687645929468 -0.3896592113276392 0.3618921962684859
vn -0.84687645929468 0.3896592113276392 -0.3618921962684859
vn 0.0006329998586875448 -0.9999997767575747 0.00021399995222589894
vn -0.0006329998586875448 0.9999997767575747 -0.00021399995222589894
vn -0.0006329998586875448 -0.9999997767575747 -0.00021399995222634303
vn 0.0006329998586875448 0.9999997767575747 0.00021399995222634303
vn -0.9238430140742867 -0.008861000134992995 0.3826690058297711
vn 0.9238430140742867 0.008861000134992995 -0.3826690058297711
vn -0.7070790205749391 -0.008861000257841978 0.7070790205749391
vn 0.7070790205749391 0.008861000257841978 -0.7070790205749391
vn -0.36189425378621515 -0.38963527324020847 0.8468865938976401
vn 0.36189425378621515 0.38963527324020847 -0.8468865938976401
vn -0.6961170298039031 -0.7164390306739795 0.04621900197884334
vn 0.6961170298039031 0.7164390306739795 -0.04621900197884334
vn 0.9999607405892185 -0.008860997701271415 0
vn -0.9999607405892185 0.008860997701271415 0
vn 0.9999607228659239 -0.008862997543664885 0
vn -0.9999607228659239 0.008862997543664885 0
vn 0.9209016978130643 -0.3896598721360564 0.010258996633587664
vn -0.9209016978130643 0.3896598721360564 -0.010258996633587664
vn 0.6961170619773931 -0.7164390637867221 -0.0462180041149279
vn -0.6961170619773931 0.7164390637867221 0.0462180041149279
vn 0.0006179998617349063 -0.9999997762700751 0.00025599994272491715
vn -0.0006179998617349063 0.9999997762700751 -0.00025599994272491715
vn -0.0006689998502908957 -0.999999776219575 0
vn 0.0006689998502908957 0.999999776219575 0
vn -9.99999832653542e-7 -0.7087438813942021 0.7054658819427636
vn 9.99999832653542e-7 0.7087438813942021 -0.7054658819427636
vn 0.2699649450894058 -0.7087528558403927 0.6517578674331149
vn -0.2699649450894058 0.7087528558403927 -0.6517578674331149
vn 0.4988260631710872 -0.7087630897574091 0.498826063171087
vn -0.4988260631710872 0.7087630897574091 -0.498826063171087
vn 0.6517488849617696 -0.7087618748985788 0.2699629523496532
vn -0.6517488849617696 0.7087618748985788 -0.2699629523496532
vn 0.7054488424302586 -0.7087608416904873 0
vn -0.7054488424302586 0.7087608416904873 0
vn 0.0005029998876778741 -0.9999997766955747 0.00043999990174583084
vn -0.0005029998876778741 0.9999997766955747 -0.00043999990174583084
vn -0.0006669998509839123 -0.9999997765875748 0.00004399999016963124
vn 0.0006669998509839123 0.9999997765875748 -0.00004399999016963124
vn -0.9238434085194882 -0.00885600391608603 0.38266816921417984
vn 0.9238434085194882 0.00885600391608603 -0.38266816921417984
vn -0.9999607228659239 -0.008862997543664885 0
vn 0.9999607228659239 0.008862997543664885 0
vn -0.6584319980082431 -0.3896509988213059 0.6439249980521267
vn 0.6584319980082431 0.3896509988213059 -0.6439249980521267
vn -0.2699670060511755 -0.7087510158863 0.6517590146088524
vn 0.2699670060511755 0.7087510158863 -0.6517590146088524
vn -0.6608058321692168 -0.7164488180370687 -0.22368894318771326
vn 0.6608058321692168 0.7164488180370687 0.22368894318771326
vn 0.8547289884359441 -0.38965699472813564 -0.34293699536023403
vn -0.8547289884359441 0.38965699472813564 0.34293699536023403
vn 0.9238433676001205 -0.008861003525820503 -0.3826681522648361
vn -0.9238433676001205 0.008861003525820503 0.3826681522648361
vn 0.9238430140742867 -0.008861000134992825 -0.3826690058297711
vn -0.9238430140742867 0.008861000134992825 0.3826690058297711
vn 0.6517497461705709 -0.7087607239671652 -0.26996389486028705
vn -0.6517497461705709 0.7087607239671652 0.26996389486028705
vn 0.6254449136026092 -0.7164349010334806 -0.30909495730239844
vn -0.6254449136026092 0.7164349010334806 0.30909495730239844
vn 0.00047299989417621857 -0.9999997762710752 0.00047299989417599653
vn -0.00047299989417621857 0.9999997762710752 -0.00047299989417599653
vn -0.0006179998617349063 -0.9999997762700751 0.00025599994272491715
vn 0.0006179998617349063 0.9999997762700751 -0.00025599994272491715
vn 0.2699620252294372 -0.7087620662377165 0.6517490609095371
vn -0.2699620252294372 0.7087620662377165 -0.6517490609095371
vn 0 -0.7087628369923626 0.7054468377550057
vn 0 0.7087628369923626 -0.7054468377550057
vn 0.6517502081051783 -0.7087602263085939 0.2699640862000862
vn -0.6517502081051783 0.7087602263085939 -0.2699640862000862
vn 0.6517488849617699 -0.7087618748985788 -0.26996295234965356
vn -0.6517488849617699 0.7087618748985788 0.26996295234965356
vn 0.0002959999339303061 -0.9999997767915748 0.0005989998662979313
vn -0.0002959999339303061 0.9999997767915748 -0.0005989998662979313
vn -0.0005989998662981533 -0.9999997767915748 0.00029599993393008406
vn 0.0005989998662981533 0.9999997767915748 -0.00029599993393008406
vn -0.8547270374699522 -0.38966301708224266 0.3429350150337569
vn 0.8547270374699522 0.38966301708224266 -0.3429350150337569
vn -0.9999607405892185 -0.008860997701271415 0
vn 0.9999607405892185 0.008860997701271415 0
vn -0.923843236502975 -0.00887700227250391 -0.382668097962663
vn 0.923843236502975 0.00887700227250391 0.382668097962663
vn -0.498821181300083 -0.7087692576071949 0.4988221813004463
vn 0.498821181300083 0.7087692576071949 -0.4988221813004463
vn -0.2699640708091554 -0.7087611859017048 0.6517491709479641
vn 0.2699640708091554 0.7087611859017048 -0.6517491709479641
vn -0.5249020725141764 -0.716450098976155 -0.45954006348454524
vn 0.5249020725141764 0.716450098976155 0.45954006348454524
vn 0.49882994500150735 -0.7087569218560097 -0.4988309450013973
vn -0.49882994500150735 0.7087569218560097 0.4988309450013973
vn 0.6584321654297854 -0.38965209789932237 -0.6439241617846782
vn -0.6584321654297854 0.38965209789932237 0.6439241617846782
vn 0.7070790205749391 -0.008861000257841662 -0.7070790205749391
vn -0.7070790205749391 0.008861000257841662 0.7070790205749391
vn 0.7070786457812632 -0.008840995571006968 -0.7070796457807623
vn -0.7070786457812632 0.008840995571006968 0.7070796457807623
vn 0.498825207275385 -0.7087642945107621 -0.49882520727538515
vn -0.498825207275385 0.7087642945107621 0.49882520727538515
vn 0.45955905070154446 -0.7164210790402344 -0.5249250579131477
vn -0.45955905070154446 0.7164210790402344 0.5249250579131477
vn 0.0002559999427251392 -0.9999997762700751 0.0006179998617346843
vn -0.0002559999427251392 0.9999997762700751 -0.0006179998617346843
vn -0.00047299989417621857 -0.9999997762710752 0.00047299989417599653
vn 0.00047299989417621857 0.9999997762710752 -0.00047299989417599653
vn 0.36178185065051344 -0.39031483887162777 0.8466216505006854
vn -0.36178185065051344 0.39031483887162777 -0.8466216505006854
vn 0.6582299653803959 -0.390318979471174 0.643726966143181
vn -0.6582299653803959 0.390318979471174 -0.643726966143181
vn 0.010254997055554904 -0.3903138879319219 0.9206247356675019
vn -0.010254997055554904 0.3903138879319219 -0.9206247356675019
vn 0.8544712590334286 -0.3903131183236349 0.34283310393004246
vn -0.8544712590334286 0.3903131183236349 -0.34283310393004246
vn 0.9206250949997687 -0.39031304027659985 -0.010255001058218827
vn -0.9206250949997687 0.39031304027659985 0.010255001058218827
vn 0.8466203989763068 -0.3903181839404149 -0.36178117049213027
vn -0.8466203989763068 0.3903181839404149 0.36178117049213027
vn 0.6437260504678025 -0.39032203060105314 -0.6582290516048307
vn -0.6437260504678025 0.39032203060105314 0.6582290516048307
vn 0.000043999990169853286 -0.9999997765875748 0.0006669998509836902
vn -0.000043999990169853286 0.9999997765875748 -0.0006669998509836902
vn -0.0004399999017460529 -0.9999997766955747 0.000502999887677652
vn 0.0004399999017460529 0.9999997766955747 -0.000502999887677652
vn -0.6517440510491582 -0.7087670555155994 0.26996102114523757
vn 0.6517440510491582 0.7087670555155994 -0.26996102114523757
vn -0.9209003174113717 -0.3896631343071639 -0.010259003536022741
vn 0.9209003174113717 0.3896631343071639 0.010259003536022741
vn -0.9238433594134762 -0.0088620034476877 -0.3826681488738196
vn 0.9238433594134762 0.0088620034476877 0.3826681488738196
vn -0.7070789516124677 -0.008871999392862328 -0.7070789516124677
vn 0.7070789516124677 0.008871999392862328 0.7070789516124677
vn -0.498832259152405 -0.7087543682107477 0.4988322591524048
vn 0.498832259152405 0.7087543682107477 -0.4988322591524048
vn -0.34283511116601706 -0.39030912655970657 0.8544722770669532
vn 0.34283511116601706 0.39030912655970657 -0.8544722770669532
vn -0.30908705008539694 -0.7164521160960595 -0.6254291013464163
vn 0.30908705008539694 0.7164521160960595 0.6254291013464163
vn 0.26996505948910215 -0.7087571561806809 -0.6517531436193611
vn -0.26996505948910215 0.7087571561806809 0.6517531436193611
vn 0.2699641015904801 -0.7087592667139585 -0.6517512452612091
vn -0.2699641015904801 0.7087592667139585 0.6517512452612091
vn 0.36189092294565006 -0.3896509170349509 -0.8468808196808848
vn -0.36189092294565006 0.3896509170349509 0.8468808196808848
vn 0.38266901939003106 -0.00885700044878845 -0.9238430468115905
vn -0.38266901939003106 0.00885700044878845 0.9238430468115905
vn 0.38266909724273535 -0.008834002244870229 -0.9238432347643012
vn -0.38266909724273535 0.008834002244870229 0.9238432347643012
vn 0.34283211296662813 -0.3903161286130885 -0.8544702815565488
vn -0.34283211296662813 0.3903161286130885 0.8544702815565488
vn 0.22369598958896522 -0.7164289666566802 -0.660824969244546
vn -0.22369598958896522 0.7164289666566802 0.660824969244546
vn 0 -0.999999776219575 0.0006689998502906737
vn 0 0.999999776219575 -0.0006689998502906737
vn -0.0002559999427251392 -0.9999997762700751 0.0006179998617346843
vn 0.0002559999427251392 0.9999997762700751 -0.0006179998617346843
vn 0.3826628826384599 -0.010291996843476134 0.9238307166639341
vn -0.3826628826384599 0.010291996843476134 -0.9238307166639341
vn 0.7070688226989795 -0.010292997418979913 0.7070698226987288
vn -0.7070688226989795 0.010292997418979913 -0.7070698226987288
vn 0.9238307451839578 -0.010288997162032689 0.3826628944518303
vn -0.9238307451839578 0.010288997162032689 -0.3826628944518303
vn 0 -0.01029100047601046 0.9999470462525517
vn 0 0.01029100047601046 -0.9999470462525517
vn 0.9999470874063786 -0.010287000899197072 0
vn -0.9999470874063786 0.010287000899197072 0
vn 0.9238307071554124 -0.010292996737228543 -0.3826628786999046
vn -0.9238307071554124 0.010292996737228543 0.3826628786999046
vn 0.7070693008092637 -0.010296004380240214 -0.7070693008092637
vn -0.7070693008092637 0.010296004380240214 0.7070693008092637
vn 0.38266202119163195 -0.010294000570076414 -0.923831051161303
vn -0.38266202119163195 0.010294000570076414 0.923831051161303
vn -0.000213999952226121 -0.9999997767575747 0.0006329998586873227
vn 0.000213999952226121 0.9999997767575747 -0.0006329998586873227
vn -0.6517620601077809 -0.708747065363138 0.26997002489758154
vn 0.6517620601077809 0.708747065363138 -0.26997002489758154
vn -0.7054458354152732 -0.708763834641164 0
vn 0.7054458354152732 0.708763834641164 0
vn -0.84687645929468 -0.3896592113276391 -0.3618921962684861
vn 0.84687645929468 0.3896592113276391 0.3618921962684861
vn -0.7070790205749391 -0.008861000257841662 -0.7070790205749391
vn 0.7070790205749391 0.008861000257841662 0.7070790205749391
vn -0.3826689549242784 -0.008875998954469312 -0.9238428911777806
vn 0.3826689549242784 0.008875998954469312 0.9238428911777806
vn -0.6437372212019875 -0.39028813411141733 0.6582382261848454
vn 0.6437372212019875 0.39028813411141733 -0.6582382261848454
vn -0.382662906261758 -0.010285997480311712 0.9238307736956699
vn 0.382662906261758 0.010285997480311712 -0.9238307736956699
vn -0.04621799847781024 -0.7164449764038849 -0.6961109770735854
vn 0.04621799847781024 0.7164449764038849 0.6961109770735854
vn 0 -0.7087508650956643 -0.7054588657222669
vn 0 0.7087508650956643 0.7054588657222669
vn 0.0000010000004621733202 -0.7087673275731976 -0.7054423260364715
vn -0.0000010000004621733202 0.7087673275731976 0.7054423260364715
vn -0.010254000858588037 -0.3903060326811059 -0.9206280770860337
vn 0.010254000858588037 0.3903060326811059 0.9206280770860337
vn 0.010257004483696635 -0.3896251703188358 -0.9209164025648797
vn -0.010257004483696635 0.3896251703188358 0.9209164025648797
vn 9.99999899914515e-7 -0.008842999114943835 -0.9999608999184183
vn -9.99999899914515e-7 0.008842999114943835 0.9999608999184183
vn 9.999998291385437e-7 -0.008850998487705028 -0.9999608291452073
vn -9.999998291385437e-7 0.008850998487705028 0.9999608291452073
vn 0 -0.010291000476010016 -0.9999470462525517
vn 0 0.010291000476010016 0.9999470462525517
vn 0.3826629298712846 -0.010279998116036523 0.9238308306941584
vn -0.3826629298712846 0.010279998116036523 -0.9238308306941584
vn 0.7070689172513759 -0.010279998796926829 0.7070699172512589
vn -0.7070689172513759 0.010279998796926829 -0.7070699172512589
vn 0.9238304296817749 -0.010284993650653782 0.3826637637660424
vn -0.9238304296817749 0.010284993650653782 -0.3826637637660424
vn 0.9999470771194214 -0.01028800079344666 0
vn -0.9999470771194214 0.01028800079344666 0
vn -0.0000010000001285505246 -0.010283001321885268 0.9999471285437115
vn 0.0000010000001285505246 0.010283001321885268 -0.9999471285437115
vn 0.9238308116983565 -0.010281997904251343 -0.3826629220029726
vn -0.9238308116983565 0.010281997904251343 0.3826629220029726
vn 0.7070699172512589 -0.010279998796926513 -0.7070689172513759
vn -0.7070699172512589 0.010279998796926513 0.7070689172513759
vn 0.3826629220029726 -0.010281997904251224 -0.9238308116983565
vn -0.3826629220029726 0.010281997904251224 0.9238308116983565
vn 0 -0.010283001321889966 -0.9999471285442115
vn 0 0.010283001321889966 0.9999471285442115
vn -0.8466337371300019 -0.39028487882105234 0.3617858876696598
vn 0.8466337371300019 0.39028487882105234 -0.3617858876696598
vn -0.7054633749940948 -0.7087463767391979 0.0000010000005314000506
vn 0.7054633749940948 0.7087463767391979 -0.0000010000005314000506
vn -0.6517491709479643 -0.7087611859017046 -0.2699640708091556
vn 0.6517491709479643 0.7087611859017046 0.2699640708091556
vn -0.643925912146296 -0.3896479468385806 -0.6584329101670413
vn 0.643925912146296 0.3896479468385806 0.6584329101670413
vn -0.3826690431057568 -0.008850000996908214 -0.9238431040663123
vn 0.3826690431057568 0.008850000996908214 0.9238431040663123
vn -0.7070689245196893 -0.010278998902706806 0.7070699245195825
vn 0.7070689245196893 0.010278998902706806 -0.7070699245195825
vn -0.38266282746387525 -0.010305995353203149 0.9238305834605889
vn 0.38266282746387525 0.010305995353203149 -0.9238305834605889
vn -0.269968025474994 -0.7087450668793138 -0.6517650615025096
vn 0.269968025474994 0.7087450668793138 0.6517650615025096
vn -0.2699640400256814 -0.7087631050833519 -0.651747096629987
vn 0.2699640400256814 0.7087631050833519 0.651747096629987
vn -0.36178215694294263 -0.39031516932070864 -0.846621367268662
vn 0.36178215694294263 0.39031516932070864 0.846621367268662
vn -0.38266294560331815 -0.01027599853923588 -0.9238308686746799
vn 0.38266294560331815 0.01027599853923588 0.9238308686746799
vn -0.3429431559196557 -0.38962217714234737 -0.8547423886099975
vn 0.3429431559196557 0.38962217714234737 0.8547423886099975
vn -0.38266293380486677 -0.010278998221882302 -0.923830840190674
vn 0.38266293380486677 0.010278998221882302 0.923830840190674
vn 0.2236699874985256 -0.7166869599425753 0.6605539630799885
vn -0.2236699874985256 0.7166869599425753 -0.6605539630799885
vn 0.459428019878532 -0.716686031009572 0.524678022701769
vn -0.459428019878532 0.716686031009572 -0.524678022701769
vn 0.6252408118569399 -0.7166867843396622 0.30892390704079414
vn -0.6252408118569399 0.7166867843396622 -0.30892390704079414
vn 0.6958629611809378 -0.7166909600190375 0.04613899742611287
vn -0.6958629611809378 0.7166909600190375 -0.04613899742611287
vn 0.6605520366652629 -0.7166890397812596 -0.22366901241519638
vn -0.6605520366652629 0.7166890397812596 0.22366901241519638
vn -0.04613799378747341 -0.7166969034960518 0.6958569063021778
vn 0.04613799378747341 0.7166969034960518 -0.6958569063021778
vn 0.5246787474142026 -0.7166856549800834 -0.4594277788266966
vn -0.5246787474142026 0.7166856549800834 0.4594277788266966
vn 0.30892415669177814 -0.7166853635154504 -0.6252423171339255
vn -0.30892415669177814 0.7166853635154504 0.6252423171339255
vn 0.046139000308646844 -0.7166880047942843 -0.6958660046549957
vn -0.046139000308646844 0.7166880047942843 0.6958660046549957
vn -0.2236699874985256 -0.716686959942575 -0.6605539630799887
vn 0.2236699874985256 0.716686959942575 0.6605539630799887
vn -0.9238307546887855 -0.010287997268156518 0.3826628983888555
vn 0.9238307546887855 0.010287997268156518 -0.3826628983888555
vn -0.9206343815326016 -0.39029116174586276 0.010254004249501122
vn 0.9206343815326016 0.39029116174586276 -0.010254004249501122
vn -0.6517640243642433 -0.7087460264943444 -0.2699680100919445
vn 0.6517640243642433 0.7087460264943444 0.2699680100919445
vn -0.4988317614846479 -0.7087536611109353 -0.49883376148369174
vn 0.4988317614846479 0.7087536611109353 0.49883376148369174
vn -0.7070693372003868 -0.010291004907766134 0.7070693372003868
vn 0.7070693372003868 0.010291004907766134 -0.7070693372003868
vn -0.3089169581074652 -0.7167019028073449 0.6252269152123584
vn 0.3089169581074652 0.7167019028073449 -0.6252269152123584
vn -0.4988420226653867 -0.7087420322024036 -0.498840022665296
vn 0.4988420226653867 0.7087420322024036 0.498840022665296
vn -0.65823695214815 -0.39029897162643656 -0.64373195320262
vn 0.65823695214815 0.39029897162643656 0.64373195320262
vn -0.7070693663005619 -0.010287005329230626 -0.7070693663005619
vn 0.7070693663005619 0.010287005329230626 0.7070693663005619
vn -0.7070693953894276 -0.010283005750201711 -0.7070693953894276
vn 0.7070693953894276 0.010283005750201711 0.7070693953894276
vn -0.459428019878532 -0.7166860310095717 -0.5246780227017692
vn 0.459428019878532 0.7166860310095717 0.5246780227017692
vn 0 -1 0
vn 0 1 0
vn -0.9238308116983565 -0.010281997904251513 0.3826629220029726
vn 0.9238308116983565 0.010281997904251513 -0.3826629220029726
vn -0.9999470668314644 -0.010289000687665383 0
vn 0.9999470668314644 0.010289000687665383 0
vn -0.8544809116650497 -0.390285959652825 -0.34283996455772064
vn 0.8544809116650497 0.390285959652825 0.34283996455772064
vn -0.5246787474142026 -0.7166856549800836 0.4594277788266963
vn 0.5246787474142026 0.7166856549800836 -0.4594277788266963
vn -0.9238307451839578 -0.010288997162032519 -0.3826628944518303
vn 0.9238307451839578 0.010288997162032519 0.3826628944518303
vn -0.6252369694465458 -0.7166909649774633 -0.3089219849039099
vn 0.6252369694465458 0.7166909649774633 0.3089219849039099
vn 0.022016998088330186 -0.9976409133778361 0.06502199435433531
vn -0.022016998088330186 0.9976409133778361 -0.06502199435433531
vn 0.04522399575649701 -0.9976409063883652 0.0516469951538075
vn -0.04522399575649701 0.9976409063883652 -0.0516469951538075
vn 0.061546988731055116 -0.9976408173369711 0.030409994432082352
vn -0.061546988731055116 0.9976408173369711 -0.030409994432082352
vn 0.06849898946328076 -0.9976408465399039 0.004541999301335874
vn -0.06849898946328076 0.9976408465399039 -0.004541999301335874
vn 0.0650229901262922 -0.9976408485087475 -0.02201699665673054
vn -0.0650229901262922 0.9976408485087475 0.02201699665673054
vn 0.05164799015047098 -0.9976408097449275 -0.04522499137536907
vn -0.05164799015047098 0.9976408097449275 0.04522499137536907
vn 0.030408997228554526 -0.9976409090760093 -0.06154599439076009
vn -0.030408997228554526 0.9976409090760093 0.06154599439076009
vn -0.0045419993013360955 -0.9976408465399039 0.06849898946328054
vn 0.0045419993013360955 0.9976408465399039 -0.06849898946328054
vn 0.0045419993013360955 -0.9976408465399039 -0.06849898946328098
vn -0.0045419993013360955 0.9976408465399039 0.06849898946328098
vn -0.022017996171797394 -0.9976408265431975 -0.06502298869464923
vn 0.022017996171797394 0.9976408265431975 0.06502298869464923
vn -0.045224991375368846 -0.9976408097449275 -0.0516479901504712
vn 0.045224991375368846 0.9976408097449275 0.0516479901504712
vn -0.061546988731055116 -0.9976408173369711 -0.030409994432082796
vn 0.061546988731055116 0.9976408173369711 0.030409994432082796
vn -0.6605529260005718 -0.7166879197119653 0.2236699749430368
vn 0.6605529260005718 0.7166879197119653 -0.2236699749430368
vn -0.9999471079772944 -0.010285001110605334 0
vn 0.9999471079772944 0.010285001110605334 0
vn -0.03040999443208258 -0.9976408173369713 0.06154698873105491
vn 0.03040999443208258 0.9976408173369713 -0.06154698873105491
vn -0.695861946686887 -0.7166919450910072 -0.04613899646508415
vn 0.695861946686887 0.7166919450910072 0.04613899646508415
vn -0.06849998477091383 -0.9976407782020327 -0.004541998990211763
vn 0.06849998477091383 0.9976407782020327 0.004541998990211763
vn -0.009295998834277171 -0.9603758795683921 0.27855296506932087
vn 0.009295998834277171 0.9603758795683921 -0.27855296506932087
vn 0.09800596245975432 -0.960378632136159 0.26089790006555685
vn -0.09800596245975432 0.960378632136159 -0.26089790006555685
vn 0.19038590154233725 -0.960379503341789 0.20352989474494898
vn -0.19038590154233725 0.960379503341789 -0.20352989474494898
vn 0.25377997020103077 -0.9603798872317201 0.11517898647562641
vn -0.25377997020103077 0.9603798872317201 -0.11517898647562641
vn 0.278539908856743 -0.9603796857465313 0.009293996958837187
vn -0.278539908856743 0.9603796857465313 -0.009293996958837187
vn 0.2608939217746218 -0.9603797120436317 -0.0980059706142864
vn -0.2608939217746218 0.9603797120436317 0.0980059706142864
vn 0.20352993349406096 -0.9603796861839841 -0.19038493778935214
vn -0.20352993349406096 0.9603796861839841 0.19038493778935214
vn 0.11517898647562662 -0.96037988723172 -0.253779970201031
vn -0.11517898647562662 0.96037988723172 0.253779970201031
vn -0.11518603745522267 -0.9603753122867318 0.2537940825266157
vn 0.11518603745522267 0.9603753122867318 -0.2537940825266157
vn 0.009294000436976028 -0.9603770451540484 -0.27854901309653946
vn -0.009294000436976028 0.9603770451540484 0.27854901309653946
vn -0.0980099507039475 -0.9603755169600476 -0.2609078687712024
vn 0.0980099507039475 0.9603755169600476 0.2609078687712024
vn -0.19039506327485867 -0.9603753191659045 -0.2035410676437304
vn 0.19039506327485867 0.9603753191659045 0.2035410676437304
vn -0.25379408252661595 -0.9603753122867317 -0.11518603745522288
vn 0.25379408252661595 0.9603753122867317 0.11518603745522288
vn -0.05164799015047098 -0.9976408097449275 0.045224991375368624
vn 0.05164799015047098 0.9976408097449275 -0.045224991375368624
vn -0.2035410676437302 -0.9603753191659047 0.19039506327485847
vn 0.2035410676437302 0.9603753191659047 -0.19039506327485847
vn -0.06502298869464901 -0.9976408265431975 0.02201799617179717
vn 0.06502298869464901 0.9976408265431975 -0.02201799617179717
vn -0.2785538900663613 -0.9603756209796728 -0.009294996331651626
vn 0.2785538900663613 0.9603756209796728 0.009294996331651626
vn -0.009832995026968938 -0.8205565850040224 0.571480710973989
vn 0.009832995026968938 0.8205565850040224 -0.571480710973989
vn -0.22778103880512277 -0.8205541397908461 0.5242200893069282
vn 0.22778103880512277 0.8205541397908461 -0.5242200893069282
vn 0.2096120044302546 -0.8205560173428621 0.5317430112386544
vn -0.2096120044302546 0.8205560173428621 -0.5317430112386544
vn 0.3971471637569152 -0.8205543383417019 0.4110531694908213
vn -0.3971471637569152 0.8205543383417019 -0.4110531694908213
vn 0.5242189339623102 -0.8205548966318342 0.22778097130563543
vn -0.5242189339623102 0.8205548966318342 -0.22778097130563543
vn 0.5714829956558721 -0.8205549937625514 0.009832999925254271
vn -0.5714829956558721 0.8205549937625514 -0.009832999925254271
vn 0.5317452069260287 -0.8205543193146726 -0.20961308156989863
vn -0.5317452069260287 0.8205543193146726 0.20961308156989863
vn 0.4110531694908215 -0.8205543383417017 -0.3971471637569154
vn -0.4110531694908215 0.8205543383417017 0.3971471637569154
vn 0.22778188310191202 -0.8205515788913964 -0.524223730967402
vn -0.22778188310191202 0.8205515788913964 0.524223730967402
vn -0.41105301703444846 -0.8205530340045392 0.397150016458294
vn 0.41105301703444846 0.8205530340045392 -0.397150016458294
vn 0.009831001124858296 -0.8205500938869368 -0.5714900653896116
vn -0.009831001124858296 0.8205500938869368 0.5714900653896116
vn -0.2096159593697233 -0.8205518409508108 -0.5317478969302518
vn 0.2096159593697233 0.8205518409508108 0.5317478969302518
vn -0.3971510213625554 -0.8205520441370853 -0.4110540221103911
vn 0.3971510213625554 0.8205520441370853 0.4110540221103911
vn -0.5242230057777238 -0.820552009043714 -0.22778200251049954
vn 0.5242230057777238 0.820552009043714 0.22778200251049954
vn -0.2609080937690812 -0.9603753451541592 0.09801103522468213
vn 0.2609080937690812 0.9603753451541592 -0.09801103522468213
vn -0.5317471796856446 -0.82055227727738 0.2096160708325312
vn 0.5317471796856446 0.82055227727738 -0.2096160708325312
vn -0.5714871073155735 -0.8205521540857595 -0.009831001846095375
vn 0.5714871073155735 0.8205521540857595 0.009831001846095375
vn -0.007202002019823356 -0.548671153876493 0.8360072344607697
vn 0.007202002019823356 0.548671153876493 -0.8360072344607697
vn -0.32657891816537504 -0.5486788625112451 0.7696088071502947
vn 0.32657891816537504 0.5486788625112451 -0.7696088071502947
vn -0.596236788230742 -0.5486778051225722 0.5860497918489229
vn 0.596236788230742 0.5486778051225722 -0.5860497918489229
vn 0.31327303576732435 -0.54866506264274 0.7751300884989325
vn -0.31327303576732435 0.54866506264274 -0.7751300884989325
vn 0.5860568206555052 -0.5486648320981625 0.5962418175387031
vn -0.5860568206555052 0.5486648320981625 -0.5962418175387031
vn 0.7696168041444772 -0.5486658603730606 0.32658191688997457
vn -0.7696168041444772 0.5486658603730606 -0.32658191688997457
vn 0.8360104311892114 -0.5486662829856818 0.007202003714578293
vn -0.8360104311892114 0.5486662829856818 -0.007202003714578293
vn 0.775128838750352 -0.5486668858611139 -0.31327293482999496
vn -0.775128838750352 0.5486668858611139 0.31327293482999496
vn 0.5962408904914269 -0.5486678992289195 -0.5860548923622382
vn -0.5962408904914269 0.5486678992289195 0.5860548923622382
vn 0.32658106083274974 -0.5486701022016122 -0.7696141433571944
vn -0.32658106083274974 0.5486701022016122 0.7696141433571944
vn -0.7751233445404654 -0.548676243885273 0.31327013924782454
vn 0.7751233445404654 0.548676243885273 -0.31327013924782454
vn 0.007203002155462702 -0.5486741641880245 -0.8360052501704286
vn -0.007203002155462702 0.5486741641880245 0.8360052501704286
vn -0.31327097017002636 -0.5486749477546251 -0.7751239261919283
vn 0.31327097017002636 0.5486749477546251 0.7751239261919283
vn -0.586051720168282 -0.5486747380152821 -0.5962377153046082
vn 0.586051720168282 0.5486747380152821 0.5962377153046082
vn -0.7696118902456561 -0.5486739217536175 -0.32657995342643625
vn 0.7696118902456561 0.5486739217536175 0.32657995342643625
vn -0.8360040316841352 -0.5486760207945472 -0.007203000272990235
vn 0.8360040316841352 0.5486760207945472 0.007203000272990235
vn -0.37013198089360266 -0.27031598604615426 0.888780954120684
vn 0.37013198089360266 0.27031598604615426 -0.888780954120684
vn -0.0018350003308964644 -0.2703150487445658 0.962770173611547
vn 0.0018350003308964644 0.2703150487445658 -0.962770173611547
vn -0.6820787508182617 -0.27031790124559035 0.67948275176665
vn 0.6820787508182617 0.27031790124559035 -0.67948275176665
vn -0.8901857228473947 -0.27031691583886874 0.3667398858183048
vn 0.8901857228473947 0.27031691583886874 -0.3667398858183048
vn 0.3667408504553975 -0.27031588977425847 0.8901856370121924
vn -0.3667408504553975 0.27031588977425847 -0.8901856370121924
vn 0.6794831191181576 -0.2703160473882997 0.6820791195732546
vn -0.6794831191181576 0.2703160473882997 -0.6820791195732546
vn 0.8887804736159208 -0.27031783990309033 0.3701317807878521
vn -0.8887804736159208 0.27031783990309033 -0.3701317807878521
vn 0.9627699115926941 -0.27031597517796635 0.001835999831407427
vn -0.9627699115926941 0.27031597517796635 -0.001835999831407427
vn 0.8901850340113003 -0.27031901032807854 -0.36674001401203604
vn -0.8901850340113003 0.27031901032807854 0.36674001401203604
vn 0.6820787508182617 -0.27031790124559 -0.6794827517666502
vn -0.6820787508182617 0.27031790124559 0.6794827517666502
vn 0.3701310178382797 -0.2703170130277933 -0.888781042834359
vn -0.3701310178382797 0.2703170130277933 0.888781042834359
vn -0.9627699133598581 -0.2703159756741313 -0.0018349998348675149
vn 0.9627699133598581 0.2703159756741313 0.0018349998348675149
vn 0.0018350003308964644 -0.27031504874456536 -0.9627701736115473
vn -0.0018350003308964644 0.27031504874456536 0.9627701736115473
vn -0.36673988581830486 -0.27031691583886847 -0.8901857228473948
vn 0.36673988581830486 0.27031691583886847 0.8901857228473948
vn -0.6794836574203942 -0.27031586371312816 -0.6820786561120573
vn 0.6794836574203942 0.27031586371312816 0.6820786561120573
vn -0.8887809541206839 -0.2703159860461539 -0.3701319808936026
vn 0.8887809541206839 0.2703159860461539 0.3701319808936026
vn -0.6495572392667267 -0.1667120614089828 0.7418102732484608
vn 0.6495572392667267 0.1667120614089828 -0.7418102732484608
vn -0.31623405306028374 -0.16671202797228027 0.9339181567002728
vn 0.31623405306028374 0.16671202797228027 -0.9339181567002728
vn 0.06523302546508636 -0.16671206507956848 0.9838453840647814
vn -0.06523302546508636 0.16671206507956848 -0.9838453840647814
vn -0.8839909388340171 -0.16671198846469787 0.4367689697786457
vn 0.8839909388340171 0.16671198846469787 -0.4367689697786457
vn -0.9838453840647814 -0.1667120650795683 0.06523302546508632
vn 0.9838453840647814 0.1667120650795683 -0.06523302546508632
vn 0.4367688969638271 -0.16671296067150046 0.8839907914617348
vn -0.4367688969638271 0.16671296067150046 -0.8839907914617348
vn 0.7418101495793554 -0.16671303361618633 0.6495571309773627
vn -0.7418101495793554 0.16671303361618633 -0.6495571309773627
vn 0.933918001004429 -0.16671300017929994 0.3162340003401097
vn -0.933918001004429 0.16671300017929994 -0.3162340003401097
vn 0.9838452200453707 -0.166713037286792 -0.06523301458991987
vn -0.9838452200453707 0.166713037286792 0.06523301458991987
vn 0.8839907914617348 -0.16671296067150018 -0.43676889696382715
vn -0.8839907914617348 0.16671296067150018 0.43676889696382715
vn 0.6495571309773627 -0.16671303361618603 -0.7418101495793554
vn -0.6495571309773627 0.16671303361618603 0.7418101495793554
vn 0.31623405306028374 -0.16671202797227988 -0.9339181567002728
vn -0.31623405306028374 0.16671202797227988 0.9339181567002728
vn -0.9339181567002728 -0.16671202797228 -0.3162340530602838
vn 0.9339181567002728 0.16671202797228 0.3162340530602838
vn -0.06523201884494588 -0.16671304816190594 -0.9838452842240891
vn 0.06523201884494588 0.16671304816190594 0.9838452842240891
vn -0.4367688969638271 -0.16671296067150007 -0.8839907914617348
vn 0.4367688969638271 0.16671296067150007 0.8839907914617348
vn -0.7418107229656445 -0.16671193774027135 -0.6495567574185274
vn 0.7418107229656445 0.16671193774027135 0.6495567574185274
usemtl material_0_0
f 1//1 2//2 3//3
f 3//4 2//5 1//6
f 4//7 2//2 1//1
f 1//6 2//5 4//8
f 3//3 2//2 5//9
f 5//10 2//5 3//4
f 1//1 3//3 6//11
f 6//12 3//4 1//6
f 4//7 7//13 2//2
f 2//5 7//14 4//8
f 8//15 4//7 1//1
f 1//6 4//8 8//16
f 2//2 9//17 5//9
f 5//10 9//18 2//5
f 10//19 1//1 6//11
f 6//12 1//6 10//20
f 11//21 7//13 4//7
f 4//8 7//14 11//22
f 2//2 7//13 9//17
f 9//18 7//14 2//5
f 12//23 4//7 8//15
f 8//16 4//8 12//24
f 8//15 1//1 10//19
f 10//20 1//6 8//16
f 5//9 9//17 13//25
f 13//26 9//18 5//10
f 10//19 6//11 14//27
f 14//28 6//12 10//20
f 15//29 7//13 11//21
f 11//22 7//14 15//30
f 11//21 4//7 12//23
f 12//24 4//8 11//22
f 7//13 16//31 9//17
f 9//18 16//32 7//14
f 12//23 8//15 17//33
f 17//34 8//16 12//24
f 18//35 8//15 10//19
f 10//20 8//16 18//36
f 9//17 19//37 13//25
f 13//26 19//38 9//18
f 20//39 10//19 14//27
f 14//28 10//20 20//40
f 15//29 16//31 7//13
f 7//14 16//32 15//30
f 21//41 15//29 11//21
f 11//22 15//30 21//42
f 22//43 11//21 12//23
f 12//24 11//22 22//44
f 9//17 16//31 19//37
f 19//38 16//32 9//18
f 17//33 8//15 18//35
f 18//36 8//16 17//34
f 23//45 12//23 17//33
f 17//34 12//24 23//46
f 18//35 10//19 20//39
f 20//40 10//20 18//36
f 13//25 19//37 24//47
f 24//48 19//38 13//26
f 20//39 14//27 25//49
f 25//50 14//28 20//40
f 26//51 16//31 15//29
f 15//30 16//32 26//52
f 27//53 15//29 21//41
f 21//42 15//30 27//54
f 21//41 11//21 22//43
f 22//44 11//22 21//42
f 22//43 12//23 23//45
f 23//46 12//24 22//44
f 16//31 28//55 19//37
f 19//38 28//56 16//32
f 29//57 17//33 18//35
f 18//36 17//34 29//58
f 30//59 23//45 17//33
f 17//34 23//46 30//60
f 31//61 18//35 20//39
f 20//40 18//36 31//62
f 24//47 19//37 32//63
f 32//64 19//38 24//48
f 33//65 20//39 25//49
f 25//50 20//40 33//66
f 28//55 16//31 26//51
f 26//52 16//32 28//56
f 27//53 26//51 15//29
f 15//30 26//52 27//54
f 34//67 27//53 21//41
f 21//42 27//54 34//68
f 35//69 21//41 22//43
f 22//44 21//42 35//70
f 36//71 22//43 23//45
f 23//46 22//44 36//72
f 19//37 28//55 32//63
f 32//64 28//56 19//38
f 29//57 30//59 17//33
f 17//34 30//60 29//58
f 31//61 29//57 18//35
f 18//36 29//58 31//62
f 30//59 37//73 23//45
f 23//46 37//74 30//60
f 31//61 20//39 33//65
f 33//66 20//40 31//62
f 38//75 24//47 32//63
f 32//64 24//48 38//76
f 33//65 25//49 39//77
f 39//78 25//50 33//66
f 28//55 26//51 40//79
f 40//80 26//52 28//56
f 41//81 26//51 27//53
f 27//54 26//52 41//82
f 42//83 27//53 34//67
f 34//68 27//54 42//84
f 34//67 21//41 35//69
f 35//70 21//42 34//68
f 35//69 22//43 36//71
f 36//72 22//44 35//70
f 37//73 36//71 23//45
f 23//46 36//72 37//74
f 28//55 43//85 32//63
f 32//64 43//86 28//56
f 44//87 30//59 29//57
f 29//58 30//60 44//88
f 45//89 29//57 31//61
f 31//62 29//58 45//90
f 46//91 37//73 30//59
f 30//60 37//74 46//92
f 47//93 31//61 33//65
f 33//66 31//62 47//94
f 38//75 32//63 48//95
f 48//96 32//64 38//76
f 49//97 33//65 39//77
f 39//78 33//66 49//98
f 40//79 26//51 41//81
f 41//82 26//52 40//80
f 43//85 28//55 40//79
f 40//80 28//56 43//86
f 42//83 41//81 27//53
f 27//54 41//82 42//84
f 34//67 50//99 42//83
f 42//84 50//100 34//68
f 51//101 34//67 35//69
f 35//70 34//68 51//102
f 52//103 35//69 36//71
f 36//72 35//70 52//104
f 53//105 36//71 37//73
f 37//74 36//72 53//106
f 48//95 32//63 43//85
f 43//86 32//64 48//96
f 46//91 30//59 44//87
f 44//88 30//60 46//92
f 44//87 29//57 45//89
f 45//90 29//58 44//88
f 45//89 31//61 47//93
f 47//94 31//62 45//90
f 54//107 37//73 46//91
f 46//92 37//74 54//108
f 47//93 33//65 49//97
f 49//98 33//66 47//94
f 55//109 38//75 48//95
f 48//96 38//76 55//110
f 49//97 39//77 56//111
f 56//112 39//78 49//98
f 40//79 41//81 57//113
f 57//114 41//82 40//80
f 43//85 40//79 58//115
f 58//116 40//80 43//86
f 59//117 41//81 42//83
f 42//84 41//82 59//118
f 51//101 50//99 34//67
f 34//68 50//100 51//102
f 50//99 60//119 42//83
f 42//84 60//120 50//100
f 52//103 51//101 35//69
f 35//70 51//102 52//104
f 53//105 52//103 36//71
f 36//72 52//104 53//106
f 54//107 53//105 37//73
f 37//74 53//106 54//108
f 48//95 43//85 61//121
f 61//122 43//86 48//96
f 62//123 46//91 44//87
f 44//88 46//92 62//124
f 63//125 44//87 45//89
f 45//90 44//88 63//126
f 64//127 45//89 47//93
f 47//94 45//90 64//128
f 54//107 46//91 65//129
f 65//130 46//92 54//108
f 47//93 49//97 66//131
f 66//132 49//98 47//94
f 55//109 48//95 67//133
f 67//134 48//96 55//110
f 49//97 56//111 68//135
f 68//136 56//112 49//98
f 57//113 41//81 59//117
f 59//118 41//82 57//114
f 58//115 40//79 57//113
f 57//114 40//80 58//116
f 61//121 43//85 58//115
f 58//116 43//86 61//122
f 42//83 60//119 59//117
f 59//118 60//120 42//84
f 69//137 50//99 51//101
f 51//102 50//100 69//138
f 70//139 60//119 50//99
f 50//100 60//120 70//140
f 71//103 51//101 52//103
f 52//104 51//102 71//104
f 72//141 52//103 53//105
f 53//106 52//104 72//142
f 73//107 53//105 54//107
f 54//108 53//106 73//108
f 67//133 48//95 61//121
f 61//122 48//96 67//134
f 46//91 62//123 65//129
f 65//130 62//124 46//92
f 62//123 44//87 63//125
f 63//126 44//88 62//124
f 63//125 45//89 64//127
f 64//128 45//90 63//126
f 64//127 47//93 66//131
f 66//132 47//94 64//128
f 54//107 65//129 74//143
f 74//144 65//130 54//108
f 49//97 68//135 66//131
f 66//132 68//136 49//98
f 75//145 55//109 67//133
f 67//134 55//110 75//146
f 68//135 56//111 76//147
f 76//148 56//112 68//136
f 57//113 59//117 77//149
f 77//150 59//118 57//114
f 58//115 57//113 78//151
f 78//152 57//114 58//116
f 79//153 61//121 58//115
f 58//116 61//122 79//154
f 60//119 80//155 59//117
f 59//118 80//156 60//120
f 69//137 70//139 50//99
f 50//100 70//140 69//138
f 71//103 69//137 51//101
f 51//102 69//138 71//104
f 70//139 81//157 60//119
f 60//120 81//158 70//140
f 72//141 71//103 52//103
f 52//104 71//104 72//142
f 73//107 72//141 53//105
f 53//106 72//142 73//108
f 73//107 54//107 74//143
f 74//144 54//108 73//108
f 67//133 61//121 82//159
f 82//160 61//122 67//134
f 65//129 62//123 83//161
f 83//162 62//124 65//130
f 84//163 62//123 63//125
f 63//126 62//124 84//164
f 85//165 63//125 64//127
f 64//128 63//126 85//166
f 86//167 64//127 66//131
f 66//132 64//128 86//168
f 74//143 65//129 87//169
f 87//170 65//130 74//144
f 66//131 68//135 88//171
f 88//172 68//136 66//132
f 75//145 67//133 89//173
f 89//174 67//134 75//146
f 68//135 76//147 90//175
f 90//176 76//148 68//136
f 59//117 80//155 77//149
f 77//150 80//156 59//118
f 78//151 57//113 77//149
f 77//150 57//114 78//152
f 79//153 58//115 78//151
f 78//152 58//116 79//154
f 82//159 61//121 79//153
f 79//154 61//122 82//160
f 60//119 81//157 80//155
f 80//156 81//158 60//120
f 91//177 70//139 69//137
f 69//138 70//140 91//178
f 92//179 69//137 71//103
f 71//104 69//138 92//180
f 93//181 81//157 70//139
f 70//140 81//158 93//182
f 94//183 71//103 72//141
f 72//142 71//104 94//184
f 95//185 72//141 73//107
f 73//108 72//142 95//186
f 73//107 74//143 96//187
f 96//188 74//144 73//108
f 89//173 67//133 82//159
f 82//160 67//134 89//174
f 62//123 84//163 83//161
f 83//162 84//164 62//124
f 65//129 83//161 87//169
f 87//170 83//162 65//130
f 84//163 63//125 85//165
f 85//166 63//126 84//164
f 85//165 64//127 86//167
f 86//168 64//128 85//166
f 86//167 66//131 88//171
f 88//172 66//132 86//168
f 74//143 87//169 97//189
f 97//190 87//170 74//144
f 68//135 90//175 88//171
f 88//172 90//176 68//136
f 98//191 75//145 89//173
f 89//174 75//146 98//192
f 76//147 99//193 90//175
f 90//176 99//194 76//148
f 80//155 100//195 77//149
f 77//150 100//196 80//156
f 78//151 77//149 101//197
f 101//198 77//150 78//152
f 102//199 79//153 78//151
f 78//152 79//154 102//200
f 103//201 82//159 79//153
f 79//154 82//160 103//202
f 81//157 104//203 80//155
f 80//156 104//204 81//158
f 91//177 93//181 70//139
f 70//140 93//182 91//178
f 92//179 91//177 69//137
f 69//138 91//178 92//180
f 94//183 92//179 71//103
f 71//104 92//180 94//184
f 93//181 105//205 81//157
f 81//158 105//206 93//182
f 95//185 94//183 72//141
f 72//142 94//184 95//186
f 95//185 73//107 96//187
f 96//188 73//108 95//186
f 96//187 74//143 97//189
f 97//190 74//144 96//188
f 89//173 82//159 106//207
f 106//208 82//160 89//174
f 83//161 84//163 107//209
f 107//210 84//164 83//162
f 87//169 83//161 108//211
f 108//212 83//162 87//170
f 84//163 85//165 109//213
f 109//214 85//166 84//164
f 85//165 86//167 110//215
f 110//216 86//168 85//166
f 86//167 88//171 111//217
f 111//218 88//172 86//168
f 97//189 87//169 112//219
f 112//220 87//170 97//190
f 88//171 90//175 113//221
f 113//222 90//176 88//172
f 98//191 89//173 114//223
f 114//224 89//174 98//192
f 90//175 99//193 115//225
f 115//226 99//194 90//176
f 80//155 104//203 100//195
f 100//196 104//204 80//156
f 77//149 100//195 101//197
f 101//198 100//196 77//150
f 102//199 78//151 101//197
f 101//198 78//152 102//200
f 103//201 79//153 102//199
f 102//200 79//154 103//202
f 103//201 106//207 82//159
f 82//160 106//208 103//202
f 81//157 105//205 104//203
f 104//204 105//206 81//158
f 116//227 93//181 91//177
f 91//178 93//182 116//228
f 117//229 91//177 92//179
f 92//180 91//178 117//230
f 94//183 118//231 92//179
f 92//180 118//232 94//184
f 119//233 105//205 93//181
f 93//182 105//206 119//234
f 120//235 94//183 95//185
f 95//186 94//184 120//236
f 121//237 95//185 96//187
f 96//188 95//186 121//238
f 122//239 96//187 97//189
f 97//190 96//188 122//240
f 114//223 89//173 106//207
f 106//208 89//174 114//224
f 84//163 109//213 107//209
f 107//210 109//214 84//164
f 83//161 107//209 108//211
f 108//212 107//210 83//162
f 87//169 108//211 112//219
f 112//220 108//212 87//170
f 109//213 85//165 110//215
f 110//216 85//166 109//214
f 110//215 86//167 111//217
f 111//218 86//168 110//216
f 111//217 88//171 113//221
f 113//222 88//172 111//218
f 123//241 97//189 112//219
f 112//220 97//190 123//242
f 90//175 115//225 113//221
f 113//222 115//226 90//176
f 124//243 98//191 114//223
f 114//224 98//192 124//244
f 99//193 124//243 115//225
f 115//226 124//244 99//194
f 104//203 125//245 100//195
f 100//196 125//246 104//204
f 100//195 126//247 101//197
f 101//198 126//248 100//196
f 127//249 102//199 101//197
f 101//198 102//200 127//250
f 128//251 103//201 102//199
f 102//200 103//202 128//252
f 129//253 106//207 103//201
f 103//202 106//208 129//254
f 105//205 130//255 104//203
f 104//204 130//256 105//206
f 119//233 93//181 116//227
f 116//228 93//182 119//234
f 116//227 91//177 117//229
f 117//230 91//178 116//228
f 118//231 117//229 92//179
f 92//180 117//230 118//232
f 120//235 118//231 94//183
f 94//184 118//232 120//236
f 131//257 105//205 119//233
f 119//234 105//206 131//258
f 121//237 120//235 95//185
f 95//186 120//236 121//238
f 122//239 121//237 96//187
f 96//188 121//238 122//240
f 122//239 97//189 123//241
f 123//242 97//190 122//240
f 114//223 106//207 132//259
f 132//260 106//208 114//224
f 107//209 109//213 133//261
f 133//262 109//214 107//210
f 108//211 107//209 134//263
f 134//264 107//210 108//212
f 112//219 108//211 135//265
f 135//266 108//212 112//220
f 109//213 110//215 136//267
f 136//268 110//216 109//214
f 110//215 111//217 137//269
f 137//270 111//218 110//216
f 111//217 113//221 138//271
f 138//272 113//222 111//218
f 123//241 112//219 139//273
f 139//274 112//220 123//242
f 113//221 115//225 132//259
f 132//260 115//226 113//222
f 115//225 124//243 114//223
f 114//224 124//244 115//226
f 104//203 130//255 125//245
f 125//246 130//256 104//204
f 100//195 125//245 126//247
f 126//248 125//246 100//196
f 127//249 101//197 126//247
f 126//248 101//198 127//250
f 128//251 102//199 127//249
f 127//250 102//200 128//252
f 128//251 129//253 103//201
f 103//202 129//254 128//252
f 129//253 132//259 106//207
f 106//208 132//260 129//254
f 131//257 130//255 105//205
f 105//206 130//256 131//258
f 140//275 119//233 116//227
f 116//228 119//234 140//276
f 141//277 116//227 117//229
f 117//230 116//228 141//278
f 118//231 142//279 117//229
f 117//230 142//280 118//232
f 143//281 118//231 120//235
f 120//236 118//232 143//282
f 144//283 131//257 119//233
f 119//234 131//258 144//284
f 145//285 120//235 121//237
f 121//238 120//236 145//286
f 146//287 121//237 122//239
f 122//240 121//238 146//288
f 147//289 122//239 123//241
f 123//242 122//240 147//290
f 115//225 114//223 132//259
f 132//260 114//224 115//226
f 109//213 136//267 133//261
f 133//262 136//268 109//214
f 107//209 133//261 134//263
f 134//264 133//262 107//210
f 108//211 134//263 135//265
f 135//266 134//264 108//212
f 139//273 112//219 135//265
f 135//266 112//220 139//274
f 136//267 110//215 137//269
f 137//270 110//216 136//268
f 137//269 111//217 138//271
f 138//272 111//218 137//270
f 138//271 113//221 132//259
f 132//260 113//222 138//272
f 148//291 123//241 139//273
f 139//274 123//242 148//292
f 130//255 149//293 125//245
f 125//246 149//294 130//256
f 125//245 150//295 126//247
f 126//248 150//296 125//246
f 127//249 126//247 151//297
f 151//298 126//248 127//250
f 152//299 128//251 127//249
f 127//250 128//252 152//300
f 153//301 129//253 128//251
f 128//252 129//254 153//302
f 138//271 132//259 129//253
f 129//254 132//260 138//272
f 154//303 130//255 131//257
f 131//258 130//256 154//304
f 144//283 119//233 140//275
f 140//276 119//234 144//284
f 140//275 116//227 141//277
f 141//278 116//228 140//276
f 142//279 141//277 117//229
f 117//230 141//278 142//280
f 143//281 142//279 118//231
f 118//232 142//280 143//282
f 145//285 143//281 120//235
f 120//236 143//282 145//286
f 155//305 131//257 144//283
f 144//284 131//258 155//306
f 146//287 145//285 121//237
f 121//238 145//286 146//288
f 146//287 122//239 147//289
f 147//290 122//240 146//288
f 147//289 123//241 148//291
f 148//292 123//242 147//290
f 136//267 156//307 133//261
f 133//262 156//308 136//268
f 134//263 133//261 157//309
f 157//310 133//262 134//264
f 134//263 158//311 135//265
f 135//266 158//312 134//264
f 139//273 135//265 159//313
f 159//314 135//266 139//274
f 136//267 137//269 160//315
f 160//316 137//270 136//268
f 137//269 138//271 153//301
f 153//302 138//272 137//270
f 148//291 139//273 161//317
f 161//318 139//274 148//292
f 149//293 130//255 154//303
f 154//304 130//256 149//294
f 125//245 149//293 150//295
f 150//296 149//294 125//246
f 151//297 126//247 150//295
f 150//296 126//248 151//298
f 152//299 127//249 151//297
f 151//298 127//250 152//300
f 152//299 153//301 128//251
f 128//252 153//302 152//300
f 153//301 138//271 129//253
f 129//254 138//272 153//302
f 155//305 154//303 131//257
f 131//258 154//304 155//306
f 162//319 144//283 140//275
f 140//276 144//284 162//320
f 163//321 140//275 141//277
f 141//278 140//276 163//322
f 142//279 164//323 141//277
f 141//278 164//324 142//280
f 165//325 142//279 143//281
f 143//282 142//280 165//326
f 166//327 143//281 145//285
f 145//286 143//282 166//328
f 167//329 155//305 144//283
f 144//284 155//306 167//330
f 168//331 145//285 146//287
f 146//288 145//286 168//332
f 169//333 146//287 147//289
f 147//290 146//288 169//334
f 170//335 147//289 148//291
f 148//292 147//290 170//336
f 136//267 160//315 156//307
f 156//308 160//316 136//268
f 133//261 156//307 157//309
f 157//310 156//308 133//262
f 134//263 157//309 158//311
f 158//312 157//310 134//264
f 159//313 135//265 158//311
f 158//312 135//266 159//314
f 161//317 139//273 159//313
f 159//314 139//274 161//318
f 160//315 137//269 153//301
f 153//302 137//270 160//316
f 171//337 148//291 161//317
f 161//318 148//292 171//338
f 149//293 154//303 172//339
f 172//340 154//304 149//294
f 149//293 173//341 150//295
f 150//296 173//342 149//294
f 151//297 150//295 174//343
f 174//344 150//296 151//298
f 152//299 151//297 175//345
f 175//346 151//298 152//300
f 152//299 160//315 153//301
f 153//302 160//316 152//300
f 176//347 154//303 155//305
f 155//306 154//304 176//348
f 167//329 144//283 162//319
f 162//320 144//284 167//330
f 162//319 140//275 163//321
f 163//322 140//276 162//320
f 164//323 163//321 141//277
f 141//278 163//322 164//324
f 165//325 164//323 142//279
f 142//280 164//324 165//326
f 166//327 165//325 143//281
f 143//282 165//326 166//328
f 168//331 166//327 145//285
f 145//286 166//328 168//332
f 177//349 155//305 167//329
f 167//330 155//306 177//350
f 168//331 146//287 169//333
f 169//334 146//288 168//332
f 169//333 147//289 170//335
f 170//336 147//290 169//334
f 170//335 148//291 171//337
f 171//338 148//292 170//336
f 160//315 175//345 156//307
f 156//308 175//346 160//316
f 156//307 178//351 157//309
f 157//310 178//352 156//308
f 157//309 179//353 158//311
f 158//312 179//354 157//310
f 159//313 158//311 180//355
f 180//356 158//312 159//314
f 161//317 159//313 181//357
f 181//358 159//314 161//318
f 171//337 161//317 182//359
f 182//360 161//318 171//338
f 172//339 154//303 176//347
f 176//348 154//304 172//340
f 173//341 149//293 172//339
f 172//340 149//294 173//342
f 174//343 150//295 173//341
f 173//342 150//296 174//344
f 175//345 151//297 174//343
f 174//344 151//298 175//346
f 160//315 152//299 175//345
f 175//346 152//300 160//316
f 177//349 176//347 155//305
f 155//306 176//348 177//350
f 183//361 167//329 162//319
f 162//320 167//330 183//362
f 184//361 162//319 163//321
f 163//322 162//320 184//362
f 185//361 163//321 164//323
f 164//324 163//322 185//362
f 186//361 164//323 165//325
f 165//326 164//324 186//362
f 165//325 166//327 187//361
f 187//362 166//328 165//326
f 166//327 168//331 188//361
f 188//362 168//332 166//328
f 189//361 177//349 167//329
f 167//330 177//350 189//362
f 168//331 169//333 190//361
f 190//362 169//334 168//332
f 169//333 170//335 191//361
f 191//362 170//336 169//334
f 170//335 171//337 192//361
f 192//362 171//338 170//336
f 156//307 175//345 178//351
f 178//352 175//346 156//308
f 157//309 178//351 179//353
f 179//354 178//352 157//310
f 180//355 158//311 179//353
f 179//354 158//312 180//356
f 181//357 159//313 180//355
f 180//356 159//314 181//358
f 182//359 161//317 181//357
f 181//358 161//318 182//360
f 171//337 182//359 193//361
f 193//362 182//360 171//338
f 172//339 176//347 194//363
f 194//364 176//348 172//340
f 173//341 172//339 195//365
f 195//366 172//340 173//342
f 174//343 173//341 196//367
f 196//368 173//342 174//344
f 175//345 174//343 178//351
f 178//352 174//344 175//346
f 197//369 176//347 177//349
f 177//350 176//348 197//370
f 183//361 189//361 167//329
f 167//330 189//362 183//362
f 184//361 183//361 162//319
f 162//320 183//362 184//362
f 185//361 184//361 163//321
f 163//322 184//362 185//362
f 186//361 185//361 164//323
f 164//324 185//362 186//362
f 186//361 165//325 187//361
f 187//362 165//326 186//362
f 187//361 166//327 188//361
f 188//362 166//328 187//362
f 188//361 168//331 190//361
f 190//362 168//332 188//362
f 189//361 198//361 177//349
f 177//350 198//362 189//362
f 190//361 169//333 191//361
f 191//362 169//334 190//362
f 170//335 192//361 191//361
f 191//362 192//362 170//336
f 171//337 193//361 192//361
f 192//362 193//362 171//338
f 178//351 196//367 179//353
f 179//354 196//368 178//352
f 180//355 179//353 199//371
f 199//372 179//354 180//356
f 181//357 180//355 200//371
f 200//372 180//356 181//358
f 182//359 181//357 201//373
f 201//374 181//358 182//360
f 182//359 202//361 193//361
f 193//362 202//362 182//360
f 194//363 176//347 197//369
f 197//370 176//348 194//364
f 195//365 172//339 194//363
f 194//364 172//340 195//366
f 196//367 173//341 195//365
f 195//366 173//342 196//368
f 178//351 174//343 196//367
f 196//368 174//344 178//352
f 177//349 198//361 197//369
f 197//370 198//362 177//350
f 203//375 189//361 183//361
f 183//362 189//362 203//376
f 204//377 183//361 184//361
f 184//362 183//362 204//378
f 205//379 184//361 185//361
f 185//362 184//362 205//380
f 206//381 185//361 186//361
f 186//362 185//362 206//382
f 207//383 186//361 187//361
f 187//362 186//362 207//384
f 187//361 188//361 208//385
f 208//386 188//362 187//362
f 188//361 190//361 209//387
f 209//388 190//362 188//362
f 189//361 210//389 198//361
f 198//362 210//390 189//362
f 190//361 191//361 211//391
f 211//392 191//362 190//362
f 191//361 192//361 212//393
f 212//394 192//362 191//362
f 192//361 193//361 213//395
f 213//396 193//362 192//362
f 179//353 196//367 199//371
f 199//372 196//368 179//354
f 180//355 199//371 200//371
f 200//372 199//372 180//356
f 181//357 200//371 201//373
f 201//374 200//372 181//358
f 182//359 201//373 202//361
f 202//362 201//374 182//360
f 193//361 202//361 214//397
f 214//398 202//362 193//362
f 194//363 197//369 215//399
f 215//400 197//370 194//364
f 195//365 194//363 216//401
f 216//402 194//364 195//366
f 199//371 196//367 195//365
f 195//366 196//368 199//372
f 198//361 217//361 197//369
f 197//370 217//362 198//362
f 203//375 210//389 189//361
f 189//362 210//390 203//376
f 204//377 203//375 183//361
f 183//362 203//376 204//378
f 205//379 204//377 184//361
f 184//362 204//378 205//380
f 206//381 205//379 185//361
f 185//362 205//380 206//382
f 206//381 186//361 207//383
f 207//384 186//362 206//382
f 207//383 187//361 208//385
f 208//386 187//362 207//384
f 208//385 188//361 209//387
f 209//388 188//362 208//386
f 209//387 190//361 211//391
f 211//392 190//362 209//388
f 210//389 218//403 198//361
f 198//362 218//404 210//390
f 211//391 191//361 212//393
f 212//394 191//362 211//392
f 192//361 213//395 212//393
f 212//394 213//396 192//362
f 193//361 214//397 213//395
f 213//396 214//398 193//362
f 200//371 199//371 216//401
f 216//402 199//372 200//372
f 201//373 200//371 219//405
f 219//406 200//372 201//374
f 201//373 220//361 202//361
f 202//362 220//362 201//374
f 202//361 221//407 214//397
f 214//398 221//408 202//362
f 197//369 217//361 215//399
f 215//400 217//362 197//370
f 216//401 194//363 215//399
f 215//400 194//364 216//402
f 199//371 195//365 216//401
f 216//402 195//366 199//372
f 198//361 218//403 217//361
f 217//362 218//404 198//362
f 203//375 222//409 210//389
f 210//390 222//410 203//376
f 204//377 223//411 203//375
f 203//376 223//412 204//378
f 205//379 224//413 204//377
f 204//378 224//414 205//380
f 206//381 225//415 205//379
f 205//380 225//416 206//382
f 226//417 206//381 207//383
f 207//384 206//382 226//418
f 227//419 207//383 208//385
f 208//386 207//384 227//420
f 228//421 208//385 209//387
f 209//388 208//386 228//422
f 229//423 209//387 211//391
f 211//392 209//388 229//424
f 210//389 230//425 218//403
f 218//404 230//426 210//390
f 211//391 212//393 231//427
f 231//428 212//394 211//392
f 212//393 213//395 232//429
f 232//430 213//396 212//394
f 213//395 214//397 233//431
f 233//432 214//398 213//396
f 200//371 216//401 219//405
f 219//406 216//402 200//372
f 201//373 219//405 220//361
f 220//362 219//406 201//374
f 202//361 220//361 221//407
f 221//408 220//362 202//362
f 214//397 221//407 234//433
f 234//434 221//408 214//398
f 217//361 235//361 215//399
f 215//400 235//362 217//362
f 216//401 215//399 219//405
f 219//406 215//400 216//402
f 218//403 236//435 217//361
f 217//362 236//436 218//404
f 223//411 222//409 203//375
f 203//376 222//410 223//412
f 222//409 230//425 210//389
f 210//390 230//426 222//410
f 224//413 223//411 204//377
f 204//378 223//412 224//414
f 225//415 224//413 205//379
f 205//380 224//414 225//416
f 226//417 225//415 206//381
f 206//382 225//416 226//418
f 226//417 207//383 227//419
f 227//420 207//384 226//418
f 227//419 208//385 228//421
f 228//422 208//386 227//420
f 228//421 209//387 229//423
f 229//424 209//388 228//422
f 229//423 211//391 231//427
f 231//428 211//392 229//424
f 218//403 230//425 237//437
f 237//438 230//426 218//404
f 231//427 212//393 232//429
f 232//430 212//394 231//428
f 232//429 213//395 233//431
f 233//432 213//396 232//430
f 233//431 214//397 234//433
f 234//434 214//398 233//432
f 235//361 220//361 219//405
f 219//406 220//362 235//362
f 220//361 238//439 221//407
f 221//408 238//440 220//362
f 234//433 221//407 239//441
f 239//442 221//408 234//434
f 217//361 236//435 235//361
f 235//362 236//436 217//362
f 215//399 235//361 219//405
f 219//406 235//362 215//400
f 218//403 237//437 236//435
f 236//436 237//438 218//404
f 223//411 240//443 222//409
f 222//410 240//444 223//412
f 222//409 241//445 230//425
f 230//426 241//446 222//410
f 224//413 242//447 223//411
f 223//412 242//448 224//414
f 225//415 243//449 224//413
f 224//414 243//450 225//416
f 226//417 244//451 225//415
f 225//416 244//452 226//418
f 245//453 226//417 227//419
f 227//420 226//418 245//454
f 246//455 227//419 228//421
f 228//422 227//420 246//456
f 247//457 228//421 229//423
f 229//424 228//422 247//458
f 248//459 229//423 231//427
f 231//428 229//424 248//460
f 230//425 249//461 237//437
f 237//438 249//462 230//426
f 231//427 232//429 250//463
f 250//464 232//430 231//428
f 232//429 233//431 251//465
f 251//466 233//432 232//430
f 233//431 234//433 252//467
f 252//468 234//434 233//432
f 235//361 238//439 220//361
f 220//362 238//440 235//362
f 238//439 239//441 221//407
f 221//408 239//442 238//440
f 234//433 239//441 253//469
f 253//470 239//442 234//434
f 236//435 238//439 235//361
f 235//362 238//440 236//436
f 236//435 237//437 254//471
f 254//472 237//438 236//436
f 242//447 240//443 223//411
f 223//412 240//444 242//448
f 240//443 241//445 222//409
f 222//410 241//446 240//444
f 230//425 241//445 249//461
f 249//462 241//446 230//426
f 243//449 242//447 224//413
f 224//414 242//448 243//450
f 244//451 243//449 225//415
f 225//416 243//450 244//452
f 245//453 244//451 226//417
f 226//418 244//452 245//454
f 245//453 227//419 246//455
f 246//456 227//420 245//454
f 246//455 228//421 247//457
f 247//458 228//422 246//456
f 247//457 229//423 248//459
f 248//460 229//424 247//458
f 248//459 231//427 250//463
f 250//464 231//428 248//460
f 237//437 249//461 255//473
f 255//474 249//462 237//438
f 250//463 232//429 251//465
f 251//466 232//430 250//464
f 251//465 233//431 252//467
f 252//468 233//432 251//466
f 252//467 234//433 253//469
f 253//470 234//434 252//468
f 238//439 254//471 239//441
f 239//442 254//472 238//440
f 253//469 239//441 256//475
f 256//476 239//442 253//470
f 236//435 254//471 238//439
f 238//440 254//472 236//436
f 237//437 255//473 254//471
f 254//472 255//474 237//438
f 257//477 240//443 242//447
f 242//448 240//444 257//478
f 258//479 241//445 240//443
f 240//444 241//446 258//480
f 241//445 259//481 249//461
f 249//462 259//482 241//446
f 243//449 260//483 242//447
f 242//448 260//484 243//450
f 244//451 261//485 243//449
f 243//450 261//486 244//452
f 245//453 262//487 244//451
f 244//452 262//488 245//454
f 246//455 263//489 245//453
f 245//454 263//490 246//456
f 264//491 246//455 247//457
f 247//458 246//456 264//492
f 265//493 247//457 248//459
f 248//460 247//458 265//494
f 266//495 248//459 250//463
f 250//464 248//460 266//496
f 249//461 267//497 255//473
f 255//474 267//498 249//462
f 268//499 250//463 251//465
f 251//466 250//464 268//500
f 251//465 252//467 269//501
f 269//502 252//468 251//466
f 252//467 253//469 270//503
f 270//504 253//470 252//468
f 254//471 256//475 239//441
f 239//442 256//476 254//472
f 271//505 253//469 256//475
f 256//476 253//470 271//506
f 254//471 255//473 256//475
f 256//476 255//474 254//472
f 258//479 240//443 257//477
f 257//478 240//444 258//480
f 257//477 242//447 260//483
f 260//484 242//448 257//478
f 241//445 258//479 259//481
f 259//482 258//480 241//446
f 249//461 259//481 267//497
f 267//498 259//482 249//462
f 261//485 260//483 243//449
f 243//450 260//484 261//486
f 262//487 261//485 244//451
f 244//452 261//486 262//488
f 263//489 262//487 245//453
f 245//454 262//488 263//490
f 264//491 263//489 246//455
f 246//456 263//490 264//492
f 264//491 247//457 265//493
f 265//494 247//458 264//492
f 265//493 248//459 266//495
f 266//496 248//460 265//494
f 266//495 250//463 268//499
f 268//500 250//464 266//496
f 272//507 255//473 267//497
f 267//498 255//474 272//508
f 268//499 251//465 269//501
f 269//502 251//466 268//500
f 269//501 252//467 270//503
f 270//504 252//468 269//502
f 270//503 253//469 271//505
f 271//506 253//470 270//504
f 271//505 256//475 272//507
f 272//508 256//476 271//506
f 256//475 255//473 272//507
f 272//508 255//474 256//476
f 273//509 258//479 257//477
f 257//478 258//480 273//510
f 274//511 257//477 260//483
f 260//484 257//478 274//512
f 275//513 259//481 258//479
f 258//480 259//482 275//514
f 267//497 259//481 276//515
f 276//516 259//482 267//498
f 277//517 260//483 261//485
f 261//486 260//484 277//518
f 262//487 278//519 261//485
f 261//486 278//520 262//488
f 263//489 279//521 262//487
f 262//488 279//522 263//490
f 264//491 280//523 263//489
f 263//490 280//524 264//492
f 265//493 281//525 264//491
f 264//492 281//526 265//494
f 282//527 265//493 266//495
f 266//496 265//494 282//528
f 283//529 266//495 268//499
f 268//500 266//496 283//530
f 272//507 267//497 284//531
f 284//532 267//498 272//508
f 285//533 268//499 269//501
f 269//502 268//500 285//534
f 286//535 269//501 270//503
f 270//504 269//502 286//536
f 287//537 270//503 271//505
f 271//506 270//504 287//538
f 288//539 271//505 272//507
f 272//508 271//506 288//540
f 275//513 258//479 273//509
f 273//510 258//480 275//514
f 273//509 257//477 274//511
f 274//512 257//478 273//510
f 274//511 260//483 277//517
f 277//518 260//484 274//512
f 276//515 259//481 275//513
f 275//514 259//482 276//516
f 284//531 267//497 276//515
f 276//516 267//498 284//532
f 277//517 261//485 278//519
f 278//520 261//486 277//518
f 262//487 279//521 278//519
f 278//520 279//522 262//488
f 280//523 279//521 263//489
f 263//490 279//522 280//524
f 281//525 280//523 264//491
f 264//492 280//524 281//526
f 282//527 281//525 265//493
f 265//494 281//526 282//528
f 282//527 266//495 283//529
f 283//530 266//496 282//528
f 283//529 268//499 285//533
f 285//534 268//500 283//530
f 288//539 272//507 284//531
f 284//532 272//508 288//540
f 285//533 269//501 286//535
f 286//536 269//502 285//534
f 286//535 270//503 287//537
f 287//538 270//504 286//536
f 287//537 271//505 288//539
f 288//540 271//506 287//538
f 289//541 275//513 273//509
f 273//510 275//514 289//542
f 290//543 273//509 274//511
f 274//512 273//510 290//544
f 291//545 274//511 277//517
f 277//518 274//512 291//546
f 276//515 275//513 292//547
f 292//548 275//514 276//516
f 284//531 276//515 293//549
f 293//550 276//516 284//532
f 294//551 277//517 278//519
f 278//520 277//518 294//552
f 279//521 295//553 278//519
f 278//520 295//554 279//522
f 280//523 296//555 279//521
f 279//522 296//556 280//524
f 281//525 297//557 280//523
f 280//524 297//558 281//526
f 282//527 298//559 281//525
f 281//526 298//560 282//528
f 299//561 282//527 283//529
f 283//530 282//528 299//562
f 300//563 283//529 285//533
f 285//534 283//530 300//564
f 301//565 288//539 284//531
f 284//532 288//540 301//566
f 302//567 285//533 286//535
f 286//536 285//534 302//568
f 303//569 286//535 287//537
f 287//538 286//536 303//570
f 304//571 287//537 288//539
f 288//540 287//538 304//572
f 292//547 275//513 289//541
f 289//542 275//514 292//548
f 289//541 273//509 290//543
f 290//544 273//510 289//542
f 290//543 274//511 291//545
f 291//546 274//512 290//544
f 291//545 277//517 294//551
f 294//552 277//518 291//546
f 293//549 276//515 292//547
f 292//548 276//516 293//550
f 301//565 284//531 293//549
f 293//550 284//532 301//566
f 294//551 278//519 295//553
f 295//554 278//520 294//552
f 279//521 296//555 295//553
f 295//554 296//556 279//522
f 297//557 296//555 280//523
f 280//524 296//556 297//558
f 298//559 297//557 281//525
f 281//526 297//558 298//560
f 299//561 298//559 282//527
f 282//528 298//560 299//562
f 299//561 283//529 300//563
f 300//564 283//530 299//562
f 300//563 285//533 302//567
f 302//568 285//534 300//564
f 304//571 288//539 301//565
f 301//566 288//540 304//572
f 302//567 286//535 303//569
f 303//570 286//536 302//568
f 303//569 287//537 304//571
f 304//572 287//538 303//570
