# SSTK version 0.8.0
# 31
mtllib original-31.mtl
o mesh31/mesh31-geometry#mesh31-geometry
v -0.288407 0.693777 -0.162448
v -0.288407 0.693777 -0.162295
v -0.286903 0.688163 -0.162295
v -0.292517 0.697886 -0.162448
v -0.288407 0.693777 -0.150285
v -0.286903 0.688163 -0.162448
v -0.288460 0.693746 -0.162508
v -0.292517 0.697886 -0.162295
v -0.292517 0.697886 -0.150285
v -0.286903 0.688163 -0.150285
v -0.288407 0.682549 -0.162295
v -0.286964 0.688163 -0.162508
v -0.292547 0.697833 -0.162508
v -0.298130 0.699390 -0.162448
v -0.292517 0.697886 -0.150067
v -0.288407 0.693777 -0.150067
v -0.288407 0.682549 -0.162448
v -0.288460 0.682580 -0.162508
v -0.288209 0.688163 -0.163723
v -0.289538 0.693124 -0.163723
v -0.298130 0.699390 -0.162295
v -0.298130 0.699390 -0.150285
v -0.298130 0.699390 -0.150067
v -0.286903 0.688163 -0.150067
v -0.288407 0.682549 -0.150285
v -0.292517 0.678440 -0.162295
v -0.289538 0.683202 -0.163723
v -0.293170 0.696755 -0.163723
v -0.298130 0.699329 -0.162508
v -0.303744 0.697886 -0.162448
v -0.298130 0.699514 -0.150067
v -0.292455 0.697994 -0.150067
v -0.288300 0.693839 -0.150067
v -0.292517 0.678440 -0.162448
v -0.292547 0.678493 -0.162508
v -0.293170 0.679571 -0.163723
v -0.289591 0.683233 -0.163783
v -0.288270 0.688163 -0.163783
v -0.289591 0.693093 -0.163783
v -0.303744 0.697886 -0.162295
v -0.303744 0.697886 -0.150285
v -0.303744 0.697886 -0.150067
v -0.303806 0.697994 -0.150067
v -0.286779 0.688163 -0.150067
v -0.288407 0.682549 -0.150067
v -0.292517 0.678440 -0.150285
v -0.298130 0.676936 -0.162295
v -0.293200 0.679624 -0.163783
v -0.293200 0.696702 -0.163783
v -0.298130 0.698085 -0.163723
v -0.303713 0.697833 -0.162508
v -0.307854 0.693777 -0.162448
v -0.298130 0.702038 -0.150067
v -0.305068 0.700179 -0.150067
v -0.291193 0.700179 -0.150067
v -0.286115 0.695100 -0.150067
v -0.298130 0.676936 -0.162448
v -0.298130 0.676997 -0.162508
v -0.298130 0.678242 -0.163723
v -0.298130 0.678303 -0.163783
v -0.293380 0.679934 -0.163783
v -0.289902 0.683412 -0.163783
v -0.288629 0.688163 -0.163783
v -0.289902 0.692914 -0.163783
v -0.307854 0.693777 -0.162295
v -0.307854 0.693777 -0.150285
v -0.307854 0.693777 -0.150067
v -0.307961 0.693839 -0.150067
v -0.310146 0.695100 -0.150067
v -0.284256 0.688163 -0.150067
v -0.288300 0.682487 -0.150067
v -0.292517 0.678440 -0.150067
v -0.298130 0.676936 -0.150285
v -0.303744 0.678440 -0.162295
v -0.298130 0.678661 -0.163783
v -0.293380 0.696392 -0.163783
v -0.298130 0.698023 -0.163783
v -0.303091 0.696755 -0.163723
v -0.307800 0.693746 -0.162508
v -0.309358 0.688163 -0.162448
v -0.298130 0.702162 -0.150067
v -0.305130 0.700286 -0.150067
v -0.310254 0.695162 -0.150067
v -0.291131 0.700286 -0.150067
v -0.286007 0.695162 -0.150067
v -0.303744 0.678440 -0.162448
v -0.303713 0.678493 -0.162508
v -0.303091 0.679571 -0.163723
v -0.303061 0.679624 -0.163783
v -0.302881 0.679934 -0.163783
v -0.309358 0.688163 -0.162295
v -0.309358 0.688163 -0.150285
v -0.309358 0.688163 -0.150067
v -0.309482 0.688163 -0.150067
v -0.312005 0.688163 -0.150067
v -0.312129 0.688163 -0.150067
v -0.284132 0.688163 -0.150067
v -0.286115 0.681226 -0.150067
v -0.292455 0.678332 -0.150067
v -0.298130 0.676936 -0.150067
v -0.303744 0.678440 -0.150285
v -0.307854 0.682549 -0.162295
v -0.302881 0.696392 -0.163783
v -0.298130 0.697665 -0.163783
v -0.303061 0.696702 -0.163783
v -0.306723 0.693124 -0.163723
v -0.309296 0.688163 -0.162508
v -0.307854 0.682549 -0.162448
v -0.298130 0.702162 -0.149934
v -0.305130 0.700286 -0.149934
v -0.310254 0.695162 -0.149934
v -0.312129 0.688163 -0.149934
v -0.291131 0.700286 -0.149934
v -0.286007 0.695162 -0.149934
v -0.307800 0.682580 -0.162508
v -0.306723 0.683202 -0.163723
v -0.306670 0.683233 -0.163783
v -0.306359 0.683412 -0.163783
v -0.307854 0.682549 -0.150285
v -0.307854 0.682549 -0.150067
v -0.307961 0.682487 -0.150067
v -0.310146 0.681226 -0.150067
v -0.310254 0.681164 -0.150067
v -0.310254 0.681164 -0.149934
v -0.284132 0.688163 -0.149934
v -0.286007 0.681164 -0.150067
v -0.291193 0.676147 -0.150067
v -0.298130 0.676812 -0.150067
v -0.303744 0.678440 -0.150067
v -0.307632 0.688163 -0.163783
v -0.306670 0.693093 -0.163783
v -0.308052 0.688163 -0.163723
v -0.305130 0.700286 -0.147228
v -0.298130 0.702162 -0.147228
v -0.310254 0.695162 -0.147228
v -0.312129 0.688163 -0.147228
v -0.310254 0.681164 -0.147228
v -0.291131 0.700286 -0.147228
v -0.286007 0.695162 -0.147228
v -0.307991 0.688163 -0.163783
v -0.306359 0.692914 -0.163783
v -0.303806 0.678332 -0.150067
v -0.305068 0.676147 -0.150067
v -0.305130 0.676040 -0.150067
v -0.305130 0.676040 -0.149934
v -0.305130 0.676040 -0.147228
v -0.284132 0.688163 -0.147228
v -0.286007 0.681164 -0.149934
v -0.291131 0.676040 -0.150067
v -0.298130 0.674289 -0.150067
v -0.310254 0.695162 -0.147095
v -0.305130 0.700286 -0.147095
v -0.298130 0.702162 -0.147095
v -0.312129 0.688163 -0.147095
v -0.310254 0.681164 -0.147095
v -0.305130 0.676040 -0.147095
v -0.291131 0.700286 -0.147095
v -0.286007 0.695162 -0.147095
v -0.298130 0.674164 -0.150067
v -0.298130 0.674164 -0.149934
v -0.298130 0.674164 -0.147228
v -0.298130 0.674164 -0.147095
v -0.284132 0.688163 -0.147095
v -0.286007 0.681164 -0.147228
v -0.291131 0.676040 -0.149934
v -0.311893 0.688163 -0.147095
v -0.310049 0.695044 -0.147095
v -0.305012 0.700082 -0.147095
v -0.298130 0.701926 -0.147095
v -0.310049 0.681282 -0.147095
v -0.305012 0.676244 -0.147095
v -0.298130 0.674400 -0.147095
v -0.291249 0.700082 -0.147095
v -0.286212 0.695044 -0.147095
v -0.291131 0.676040 -0.147228
v -0.291131 0.676040 -0.147095
v -0.291249 0.676244 -0.147095
v -0.284368 0.688163 -0.147095
v -0.286007 0.681164 -0.147095
v -0.286212 0.681282 -0.147095
vn 0.8351580884895976 0.38759404106772277 -0.39023304134733916
vn 0.8181070131694779 0.5750660092571251 0
vn 0.9960347547513726 0.08896497809460097 0
vn -0.9960347547513726 -0.08896497809460097 0
vn -0.8181070131694779 -0.5750660092571251 0
vn -0.8351580884895976 -0.38759404106772277 0.39023304134733916
vn 0.5294909073841061 0.7533298682313178 -0.39004293177564636
vn -0.5294909073841061 -0.7533298682313178 0.39004293177564636
vn 0.8660230707779034 0.500004040864082 0
vn -0.8660230707779034 -0.500004040864082 0
vn 0.9170841997537997 -0.08190401783984361 -0.3901900849888724
vn -0.9170841997537997 0.08190401783984361 0.3901900849888724
vn 0.6051351390519016 0.34938908028490334 -0.7153591643798974
vn -0.6051351390519016 -0.34938908028490334 0.7153591643798974
vn 0.42097388717796086 0.907072756902266 0
vn -0.42097388717796086 -0.907072756902266 0
vn 0.4999982418292082 0.8660264188624391 0
vn -0.4999982418292082 -0.8660264188624391 0
vn 1 0.0000029999999999865 0
vn -1 -0.0000029999999999865 0
vn 0.9070721978283861 -0.42097509181278314 0
vn -0.9070721978283861 0.42097509181278314 0
vn 0.6987388454858 -0.0000039999991153094475 -0.7153768418065903
vn -0.6987388454858 0.0000039999991153094475 0.7153768418065903
vn 0.34941506147836243 0.6051911064812664 -0.7152991258543885
vn -0.34941506147836243 -0.6051911064812664 0.7152991258543885
vn 0.08193400844686415 0.9170640945433522 -0.3902310402302856
vn -0.08193400844686415 -0.9170640945433522 0.3902310402302856
vn 0.4003400354040726 0.5695490503680726 -0.717873063485107
vn -0.4003400354040726 -0.5695490503680726 0.717873063485107
vn 0.6314782122749099 0.29307309851815067 -0.717874241317415
vn -0.6314782122749099 -0.29307309851815067 0.717874241317415
vn 0.7532681647875984 -0.5295071158368425 -0.39014008534842004
vn -0.7532681647875984 0.5295071158368425 0.39014008534842004
vn 0.6050989214636111 -0.34934995465752283 -0.7154089071463687
vn -0.6050989214636111 0.34934995465752283 0.7154089071463687
vn 0.6988400129659283 -0.0000030000000555016777 -0.7152780132709107
vn -0.6988400129659283 0.0000030000000555016777 0.7152780132709107
vn 0.6051401606659442 0.3493700927584708 -0.7153641899306482
vn -0.6051401606659442 -0.3493700927584708 0.7153641899306482
vn -0.08896398600948018 0.9960348433630748 0
vn 0.08896398600948018 -0.9960348433630748 0
vn 0 1 0
vn 0 -1 0
vn 0.06193402780912794 0.6934123113505188 -0.7178743223342575
vn -0.06193402780912794 -0.6934123113505188 0.7178743223342575
vn 0.6934129593639216 -0.06193099637065777 -0.7178739579304337
vn -0.6934129593639216 0.06193099637065777 0.7178739579304337
vn 0.8660241868100975 -0.5000021078554663 0
vn -0.8660241868100975 0.5000021078554663 0
vn 0.5750560229642877 -0.8181140326705664 0
vn -0.5750560229642877 0.8181140326705664 0
vn 0.6052080399092351 -0.34943502304279433 -0.7152750471673841
vn -0.6052080399092351 0.34943502304279433 0.7152750471673841
vn 0.34943496488545683 0.6052649391772321 -0.715226928127207
vn -0.34943496488545683 -0.6052649391772321 0.715226928127207
vn -0.000022000000235301005 0.6987100074730531 -0.7154050076516142
vn 0.000022000000235301005 -0.6987100074730531 0.7154050076516142
vn -0.38763692749465145 0.835207843778981 -0.39008392703695355
vn 0.38763692749465145 -0.835207843778981 0.39008392703695355
vn 0 0 -1
vn 0 0 1
vn 0.3876501156932252 -0.835221249269731 -0.3900421164071121
vn -0.3876501156932252 0.835221249269731 0.3900421164071121
vn 0.34942495564487247 -0.6052589231699501 -0.7152369092096206
vn -0.34942495564487247 0.6052589231699501 0.7152369092096206
vn 0.3494788906321709 -0.6053768105500809 -0.7151107762093357
vn -0.3494788906321709 0.6053768105500809 0.7151107762093357
vn 0.3404670423735094 -0.15800101966433394 -0.9268861153574726
vn -0.3404670423735094 0.15800101966433394 0.9268861153574726
vn 0.3738538725141688 0.033381988616593805 -0.9268866839275235
vn -0.3738538725141688 -0.033381988616593805 0.9268866839275235
vn 0.3070439560359143 0.21584696909395412 -0.9268948672825679
vn -0.3070439560359143 -0.21584696909395412 0.9268948672825679
vn -0.5750578320448962 0.8181127610567042 0
vn 0.5750578320448962 -0.8181127610567042 0
vn -0.4999982418292082 0.8660264188624391 0
vn 0.4999982418292082 -0.8660264188624391 0
vn -0.2930711105508398 0.631480238203863 -0.7178732707926166
vn 0.2930711105508398 -0.631480238203863 0.7178732707926166
vn 0.5695450269858983 -0.40034401896890043 -0.7178740340139494
vn -0.5695450269858983 0.40034401896890043 0.7178740340139494
vn 0.4999989918307665 -0.8660259858504344 0
vn -0.4999989918307665 0.8660259858504344 0
vn 0.21591002752583136 -0.3071950391635298 -0.9268301181592623
vn -0.21591002752583136 0.3071950391635298 0.9268301181592623
vn 0.1581139128459751 0.3407048121999821 -0.9267794891495552
vn -0.1581139128459751 -0.3407048121999821 0.9267794891495552
vn 0.000024000010118190398 0.6990412947095807 -0.7150813014719043
vn -0.000024000010118190398 -0.6990412947095807 0.7150813014719043
vn -0.34943110745130507 0.6052561861184244 -0.7152362199376747
vn 0.34943110745130507 -0.6052561861184244 0.7152362199376747
vn -0.753293978613231 0.5295109849666539 -0.39008498892509713
vn 0.753293978613231 -0.5295109849666539 0.39008498892509713
vn -0.08193400844686415 -0.917064094543352 -0.39023104023028604
vn 0.08193400844686415 0.917064094543352 0.39023104023028604
vn 0.00002400000385976493 -0.698719112370462 -0.7153961150525164
vn -0.00002400000385976493 0.698719112370462 0.7153961150525164
vn -0.000024000010118190398 -0.6990412947095804 -0.7150813014719045
vn 0.000024000010118190398 0.6990412947095804 0.7150813014719045
vn 0.033414999941841196 -0.3741499993487917 -0.9267659983869639
vn -0.033414999941841196 0.3741499993487917 0.9267659983869639
vn -0.9070712568962225 0.4209771192270518 0
vn 0.9070712568962225 -0.4209771192270518 0
vn -0.8660230707779034 0.500004040864082 0
vn 0.8660230707779034 -0.500004040864082 0
vn -0.569544123352734 0.400345086707349 -0.7178741554782783
vn 0.569544123352734 -0.400345086707349 0.7178741554782783
vn 0.2930711105508398 -0.6314802382038628 -0.7178732707926169
vn -0.2930711105508398 0.6314802382038628 0.7178732707926169
vn -0.033414999941841196 0.3741499993487921 -0.9267659983869637
vn 0.033414999941841196 -0.3741499993487921 0.9267659983869637
vn -0.34947917889738905 0.6053783098914202 -0.7151093660624328
vn 0.34947917889738905 -0.6053783098914202 0.7151093660624328
vn -0.6051901614656644 0.34939609321941434 -0.7153091908455904
vn 0.6051901614656644 -0.34939609321941434 0.7153091908455904
vn -0.9171385420106957 0.08191404840957872 -0.39006023051786315
vn 0.9171385420106957 -0.08191404840957872 0.39006023051786315
vn -0.061935975675734195 0.6934117276747321 -0.7178747180673225
vn 0.061935975675734195 -0.6934117276747321 0.7178747180673225
vn -0.4003459264308379 0.5695438953383454 -0.7178738680806385
vn 0.4003459264308379 -0.5695438953383454 0.7178738680806385
vn -0.6314799699491319 0.29306998605338597 -0.7178739658378144
vn 0.6314799699491319 -0.29306998605338597 0.7178739658378144
vn 0.2930749267334755 0.6314778421352955 -0.7178738205369513
vn -0.2930749267334755 -0.6314778421352955 0.7178738205369513
vn 0.5695470622611796 0.4003410437640844 -0.7178740784758448
vn -0.5695470622611796 -0.4003410437640844 0.7178740784758448
vn -0.5295069138677647 -0.753340877457816 -0.3899999365606656
vn 0.5295069138677647 0.753340877457816 0.3899999365606656
vn -0.3494150614783625 -0.6051911064812663 -0.7152991258543888
vn 0.3494150614783625 0.6051911064812663 0.7152991258543888
vn -0.34945116379810764 -0.6052822837137285 -0.715204335237449
vn 0.34945116379810764 0.6052822837137285 0.715204335237449
vn -0.1581140593827503 -0.340705127958308 -0.9267793480696584
vn 0.1581140593827503 0.340705127958308 0.9267793480696584
vn -0.9960352864069996 -0.0889590255799046 0
vn 0.9960352864069996 0.0889590255799046 0
vn -1 0.0000029999999999865 0
vn 1 -0.0000029999999999865 0
vn -0.6934127875834261 0.06193498102715064 -0.7178737800901692
vn 0.6934127875834261 -0.06193498102715064 0.7178737800901692
vn -0.6934122254574745 -0.06193602013800457 -0.7178742334111019
vn 0.6934122254574745 0.06193602013800457 0.7178742334111019
vn 0.6934129164198259 0.061931992535058863 -0.7178739134714321
vn -0.6934129164198259 -0.061931992535058863 0.7178739134714321
vn -0.06193402780912794 -0.6934123113505186 -0.7178743223342577
vn 0.06193402780912794 0.6934123113505186 0.7178743223342577
vn -0.8181082847999056 -0.5750642001913843 0
vn 0.8181082847999056 0.5750642001913843 0
vn -0.2159090078162301 0.30719601112095685 -0.926830033552638
vn 0.2159090078162301 -0.30719601112095685 0.926830033552638
vn -0.6052099715769196 0.34943798358899514 -0.7152719664079681
vn 0.6052099715769196 -0.34943798358899514 0.7152719664079681
vn -0.6988390014804904 -0.0000010000000019596763 -0.7152790015153185
vn 0.6988390014804904 0.0000010000000019596763 0.7152790015153185
vn -0.8352100281975263 -0.38761301308620305 -0.3901030131702682
vn 0.8352100281975263 0.38761301308620305 0.3901030131702682
vn -9.999999999989998e-7 1 0.0000010000000002210444
vn 9.999999999989998e-7 -1 -0.0000010000000002210444
vn -0.5000059738686885 0.8660219547399619 0.000001999999895668304
vn 0.5000059738686885 -0.8660219547399619 -0.000001999999895668304
vn -0.866026668860477 0.49999780881762435 0
vn 0.866026668860477 -0.49999780881762435 0
vn -1 -0.000001999999999996 0
vn 1 0.000001999999999996 0
vn 0.500004040864082 0.8660230707779034 0
vn -0.500004040864082 -0.8660230707779034 0
vn 0.8660259858504344 0.4999989918307665 0
vn -0.8660259858504344 -0.4999989918307665 0
vn -0.6051936819523454 -0.3494198163692773 -0.7152946240909575
vn 0.6051936819523454 0.3494198163692773 0.7152946240909575
vn -0.6051909966623716 -0.3493929980730974 -0.7153099960550654
vn 0.6051909966623716 0.3493929980730974 0.7153099960550654
vn -0.30710589169528757 -0.2158799238672596 -0.9268666731289396
vn 0.30710589169528757 0.2158799238672596 0.9268666731289396
vn -0.8660241868100975 -0.5000021078554663 0
vn 0.8660241868100975 0.5000021078554663 0
vn -0.6314793687155433 -0.29307017112123157 -0.7178744191608938
vn 0.6314793687155433 0.29307017112123157 0.7178744191608938
vn -0.5695481467401121 -0.40034110314509597 -0.7178731849550248
vn 0.5695481467401121 0.40034110314509597 0.7178731849550248
vn -0.8660253028382762 -0.5000001748438417 0
vn 0.8660253028382762 0.5000001748438417 0
vn 1 -0.000001999999999996 0
vn -1 0.000001999999999996 0
vn 0.6314792668319362 -0.29307312383822093 -0.7178733033377873
vn -0.6314792668319362 0.29307312383822093 0.7178733033377873
vn -0.4003400354040726 -0.5695490503680724 -0.7178730634851073
vn 0.4003400354040726 0.5695490503680724 0.7178730634851073
vn -0.3404669885792053 0.1580019946999024 -0.9268859689080742
vn 0.3404669885792053 -0.1580019946999024 0.9268859689080742
vn -0.6988400129603377 0.000005000000092886328 -0.7152780132651886
vn 0.6988400129603377 -0.000005000000092886328 0.7152780132651886
vn -0.000001999999999996 1 0
vn 0.000001999999999996 -1 0
vn -0.8660259858500013 0.4999989918305165 9.999999837720222e-7
vn 0.8660259858500013 -0.4999989918305165 -9.999999837720222e-7
vn 0.8660248698234816 0.5000009248423667 -0.0000019999996992590453
vn -0.8660248698234816 -0.5000009248423667 0.0000019999996992590453
vn -0.37389494517840544 -0.033388995104405524 -0.9268698640995698
vn 0.37389494517840544 0.033388995104405524 0.9268698640995698
vn -0.2930760259107061 -0.631477055828573 -0.71787406346689
vn 0.2930760259107061 0.631477055828573 0.71787406346689
vn -0.50000715687977 -0.8660212717185467 0
vn 0.50000715687977 0.8660212717185467 0
vn 1 0.000002999999999980501 -0.0000019999999999869992
vn -1 -0.000002999999999980501 0.0000019999999999869992
vn 0.8660253028378431 -0.5000001748435917 -0.0000010000003497982058
vn -0.8660253028378431 0.5000001748435917 0.0000010000003497982058
vn 0.400345698416296 -0.569544570957395 -0.717873459220025
vn -0.400345698416296 0.569544570957395 0.717873459220025
vn -0.5695470622611796 0.4003410437640841 0.7178740784758451
vn 0.5695470622611796 -0.4003410437640841 -0.7178740784758451
vn -0.2930758408399325 0.6314776570647848 0.7178736101459203
vn 0.2930758408399325 -0.6314776570647848 -0.7178736101459203
vn 0.06193398334827664 0.6934118135675913 0.7178748069904108
vn -0.06193398334827664 -0.6934118135675913 -0.7178748069904108
vn -0.6934128734750448 0.06193298869927423 0.7178738690117208
vn 0.6934128734750448 -0.06193298869927423 -0.7178738690117208
vn -0.6314798680655564 -0.29307293876857055 0.7178728500155589
vn 0.6314798680655564 0.29307293876857055 -0.7178728500155589
vn -0.4003459264308379 -0.5695438953383454 0.7178738680806385
vn 0.4003459264308379 0.5695438953383454 -0.7178738680806385
vn 0.40034485869310266 0.5695447989717946 0.7178737466171737
vn -0.40034485869310266 -0.5695447989717946 -0.7178737466171737
vn 0.6314792668319362 0.29307312383822093 0.7178733033377873
vn -0.6314792668319362 -0.29307312383822093 -0.7178733033377873
vn 0.061935975675734195 -0.6934117276747319 -0.7178747180673227
vn -0.061935975675734195 0.6934117276747319 0.7178747180673227
vn 0 -1 -0.0000010000000002215446
vn 0 1 0.0000010000000002215446
vn -0.06193497951209796 -0.6934117706215045 0.7178747625292213
vn 0.06193497951209796 0.6934117706215045 -0.7178747625292213
vn 0.6934129593639216 -0.06193099637065809 0.7178739579304337
vn -0.6934129593639216 0.06193099637065809 -0.7178739579304337
vn 0.8660266688496516 -0.4999978088113744 -0.000004999998088217118
vn -0.8660266688496516 0.4999978088113744 0.000004999998088217118
vn 0.5000059738656885 -0.8660219547347657 -0.000003999999791120311
vn -0.5000059738656885 0.8660219547347657 0.000003999999791120311
vn 0.2930758408399325 -0.631477657064785 0.7178736101459201
vn -0.2930758408399325 0.631477657064785 -0.7178736101459201
vn 0.5695479658897733 -0.40033997602363963 0.7178739570065298
vn -0.5695479658897733 0.40033997602363963 -0.7178739570065298
usemtl material_0_0
f 1//1 2//2 3//3
f 3//4 2//5 1//6
f 1//1 4//7 2//2
f 2//5 4//8 1//6
f 2//2 5//9 3//3
f 3//4 5//10 2//5
f 1//1 3//3 6//11
f 6//12 3//4 1//6
f 4//7 1//1 7//13
f 7//14 1//6 4//8
f 2//2 4//7 8//15
f 8//16 4//8 2//5
f 2//2 9//17 5//9
f 5//10 9//18 2//5
f 3//3 5//9 10//19
f 10//20 5//10 3//4
f 6//11 3//3 11//21
f 11//22 3//4 6//12
f 1//1 6//11 12//23
f 12//24 6//12 1//6
f 1//1 12//23 7//13
f 7//14 12//24 1//6
f 4//7 7//13 13//25
f 13//26 7//14 4//8
f 4//7 14//27 8//15
f 8//16 14//28 4//8
f 2//2 8//15 9//17
f 9//18 8//16 2//5
f 5//9 9//17 15//29
f 15//30 9//18 5//10
f 5//9 16//31 10//19
f 10//20 16//32 5//10
f 3//3 10//19 11//21
f 11//22 10//20 3//4
f 6//11 11//21 17//33
f 17//34 11//22 6//12
f 6//11 18//35 12//23
f 12//24 18//36 6//12
f 7//13 12//23 19//37
f 19//38 12//24 7//14
f 13//25 7//13 20//39
f 20//40 7//14 13//26
f 14//27 4//7 13//25
f 13//26 4//8 14//28
f 8//15 14//27 21//41
f 21//42 14//28 8//16
f 8//15 22//43 9//17
f 9//18 22//44 8//16
f 9//17 23//45 15//29
f 15//30 23//46 9//18
f 5//9 15//29 16//31
f 16//32 15//30 5//10
f 10//19 16//31 24//47
f 24//48 16//32 10//20
f 11//21 10//19 25//49
f 25//50 10//20 11//22
f 11//21 26//51 17//33
f 17//34 26//52 11//22
f 6//11 17//33 18//35
f 18//36 17//34 6//12
f 12//23 18//35 27//53
f 27//54 18//36 12//24
f 12//23 27//53 19//37
f 19//38 27//54 12//24
f 7//13 19//37 20//39
f 20//40 19//38 7//14
f 13//25 20//39 28//55
f 28//56 20//40 13//26
f 14//27 13//25 29//57
f 29//58 13//26 14//28
f 14//27 30//59 21//41
f 21//42 30//60 14//28
f 8//15 21//41 22//43
f 22//44 21//42 8//16
f 9//17 22//43 23//45
f 23//46 22//44 9//18
f 31//61 15//29 23//45
f 23//46 15//30 31//62
f 32//61 16//31 15//29
f 15//30 16//32 32//62
f 33//61 24//47 16//31
f 16//32 24//48 33//62
f 10//19 24//47 25//49
f 25//50 24//48 10//20
f 25//49 26//51 11//21
f 11//22 26//52 25//50
f 17//33 26//51 34//63
f 34//64 26//52 17//34
f 18//35 17//33 35//65
f 35//66 17//34 18//36
f 27//53 18//35 36//67
f 36//68 18//36 27//54
f 19//37 27//53 37//69
f 37//70 27//54 19//38
f 20//39 19//37 38//71
f 38//72 19//38 20//40
f 28//55 20//39 39//73
f 39//74 20//40 28//56
f 29//57 13//25 28//55
f 28//56 13//26 29//58
f 14//27 29//57 30//59
f 30//60 29//58 14//28
f 21//41 30//59 40//75
f 40//76 30//60 21//42
f 21//41 41//77 22//43
f 22//44 41//78 21//42
f 22//43 42//79 23//45
f 23//46 42//80 22//44
f 31//61 32//61 15//29
f 15//30 32//62 31//62
f 31//61 23//45 43//61
f 43//62 23//46 31//62
f 32//61 33//61 16//31
f 16//32 33//62 32//62
f 33//61 44//61 24//47
f 24//48 44//62 33//62
f 25//49 24//47 45//81
f 45//82 24//48 25//50
f 25//49 46//83 26//51
f 26//52 46//84 25//50
f 26//51 47//42 34//63
f 34//64 47//41 26//52
f 17//33 34//63 35//65
f 35//66 34//64 17//34
f 18//35 35//65 36//67
f 36//68 35//66 18//36
f 27//53 36//67 48//85
f 48//86 36//68 27//54
f 37//69 27//53 48//85
f 48//86 27//54 37//70
f 19//37 37//69 38//71
f 38//72 37//70 19//38
f 20//39 38//71 39//73
f 39//74 38//72 20//40
f 28//55 39//73 49//87
f 49//88 39//74 28//56
f 29//57 28//55 50//89
f 50//90 28//56 29//58
f 29//57 51//91 30//59
f 30//60 51//92 29//58
f 30//59 52//93 40//75
f 40//76 52//94 30//60
f 21//41 40//75 41//77
f 41//78 40//76 21//42
f 22//43 41//77 42//79
f 42//80 41//78 22//44
f 23//45 42//79 43//61
f 43//62 42//80 23//46
f 53//61 32//61 31//61
f 31//62 32//62 53//62
f 54//61 31//61 43//61
f 43//62 31//62 54//62
f 55//61 33//61 32//61
f 32//62 33//62 55//62
f 56//61 44//61 33//61
f 33//62 44//62 56//62
f 44//61 45//81 24//47
f 24//48 45//82 44//62
f 45//81 46//83 25//49
f 25//50 46//84 45//82
f 46//83 47//42 26//51
f 26//52 47//41 46//84
f 34//63 47//42 57//95
f 57//96 47//41 34//64
f 35//65 34//63 58//97
f 58//98 34//64 35//66
f 36//67 35//65 59//99
f 59//100 35//66 36//68
f 48//85 36//67 60//101
f 60//102 36//68 48//86
f 37//69 48//85 61//61
f 61//62 48//86 37//70
f 38//71 37//69 62//61
f 62//62 37//70 38//72
f 39//73 38//71 63//61
f 63//62 38//72 39//74
f 49//87 39//73 64//61
f 64//62 39//74 49//88
f 50//89 28//55 49//87
f 49//88 28//56 50//90
f 29//57 50//89 51//91
f 51//92 50//90 29//58
f 30//59 51//91 52//93
f 52//94 51//92 30//60
f 40//75 52//93 65//103
f 65//104 52//94 40//76
f 40//75 66//105 41//77
f 41//78 66//106 40//76
f 41//77 67//107 42//79
f 42//80 67//108 41//78
f 43//61 42//79 68//61
f 68//62 42//80 43//62
f 53//61 55//61 32//61
f 32//62 55//62 53//62
f 53//61 31//61 54//61
f 54//62 31//62 53//62
f 54//61 43//61 69//61
f 69//62 43//62 54//62
f 55//61 56//61 33//61
f 33//62 56//62 55//62
f 56//61 70//61 44//61
f 44//62 70//62 56//62
f 44//61 71//61 45//81
f 45//82 71//62 44//62
f 45//81 72//109 46//83
f 46//84 72//110 45//82
f 46//83 73//44 47//42
f 47//41 73//43 46//84
f 47//42 74//16 57//95
f 57//96 74//15 47//41
f 34//63 57//95 58//97
f 58//98 57//96 34//64
f 35//65 58//97 59//99
f 59//100 58//98 35//66
f 36//67 59//99 60//101
f 60//102 59//100 36//68
f 48//85 60//101 75//61
f 75//62 60//102 48//86
f 61//61 48//85 75//61
f 75//62 48//86 61//62
f 62//61 37//69 61//61
f 61//62 37//70 62//62
f 38//71 62//61 63//61
f 63//62 62//62 38//72
f 39//73 63//61 64//61
f 64//62 63//62 39//74
f 49//87 64//61 76//61
f 76//62 64//62 49//88
f 50//89 49//87 77//111
f 77//112 49//88 50//90
f 50//89 78//113 51//91
f 51//92 78//114 50//90
f 51//91 79//115 52//93
f 52//94 79//116 51//92
f 80//117 65//103 52//93
f 52//94 65//104 80//118
f 40//75 65//103 66//105
f 66//106 65//104 40//76
f 41//77 66//105 67//107
f 67//108 66//106 41//78
f 42//79 67//107 68//61
f 68//62 67//108 42//80
f 43//61 68//61 69//61
f 69//62 68//62 43//62
f 81//119 55//61 53//61
f 53//62 55//62 81//120
f 53//61 54//61 82//121
f 82//122 54//62 53//62
f 54//61 69//61 83//123
f 83//124 69//62 54//62
f 84//125 56//61 55//61
f 55//62 56//62 84//126
f 85//127 70//61 56//61
f 56//62 70//62 85//128
f 44//61 70//61 71//61
f 71//62 70//62 44//62
f 45//81 71//61 72//109
f 72//110 71//62 45//82
f 72//109 73//44 46//83
f 46//84 73//43 72//110
f 73//44 74//16 47//42
f 47//41 74//15 73//43
f 57//95 74//16 86//129
f 86//130 74//15 57//96
f 87//131 58//97 57//95
f 57//96 58//98 87//132
f 88//133 59//99 58//97
f 58//98 59//100 88//134
f 89//135 60//101 59//99
f 59//100 60//102 89//136
f 90//61 75//61 60//101
f 60//102 75//62 90//62
f 61//61 75//61 90//61
f 90//62 75//62 61//62
f 63//61 62//61 61//61
f 61//62 62//62 63//62
f 76//61 64//61 63//61
f 63//62 64//62 76//62
f 77//111 49//87 76//61
f 76//62 49//88 77//112
f 50//89 77//111 78//113
f 78//114 77//112 50//90
f 51//91 78//113 79//115
f 79//116 78//114 51//92
f 52//93 79//115 80//117
f 80//118 79//116 52//94
f 80//117 91//137 65//103
f 65//104 91//138 80//118
f 65//103 92//139 66//105
f 66//106 92//140 65//104
f 66//105 93//141 67//107
f 67//108 93//142 66//106
f 68//61 67//107 94//61
f 94//62 67//108 68//62
f 69//61 68//61 95//61
f 95//62 68//62 69//62
f 81//119 84//125 55//61
f 55//62 84//126 81//120
f 81//119 53//61 82//121
f 82//122 53//62 81//120
f 82//121 54//61 83//123
f 83//124 54//62 82//122
f 83//123 69//61 96//143
f 96//144 69//62 83//124
f 84//125 85//127 56//61
f 56//62 85//128 84//126
f 85//127 97//145 70//61
f 70//62 97//146 85//128
f 70//61 98//61 71//61
f 71//62 98//62 70//62
f 71//61 99//61 72//109
f 72//110 99//62 71//62
f 72//109 100//147 73//44
f 73//43 100//148 72//110
f 73//44 101//18 74//16
f 74//15 101//17 73//43
f 74//16 102//149 86//129
f 86//130 102//150 74//15
f 87//131 57//95 86//129
f 86//130 57//96 87//132
f 88//133 58//97 87//131
f 87//132 58//98 88//134
f 89//135 59//99 88//133
f 88//134 59//100 89//136
f 90//61 60//101 89//135
f 89//136 60//102 90//62
f 63//61 61//61 90//61
f 90//62 61//62 63//62
f 76//61 63//61 103//61
f 103//62 63//62 76//62
f 77//111 76//61 104//61
f 104//62 76//62 77//112
f 77//111 105//151 78//113
f 78//114 105//152 77//112
f 78//113 106//153 79//115
f 79//116 106//154 78//114
f 79//115 107//155 80//117
f 80//118 107//156 79//116
f 108//157 91//137 80//117
f 80//118 91//138 108//158
f 91//137 92//139 65//103
f 65//104 92//140 91//138
f 92//139 93//141 66//105
f 66//106 93//142 92//140
f 67//107 93//141 94//61
f 94//62 93//142 67//108
f 68//61 94//61 95//61
f 95//62 94//62 68//62
f 69//61 95//61 96//143
f 96//144 95//62 69//62
f 84//125 81//119 109//159
f 109//160 81//120 84//126
f 81//119 82//121 110//161
f 110//162 82//122 81//120
f 83//123 111//163 82//121
f 82//122 111//164 83//124
f 96//143 112//165 83//123
f 83//124 112//166 96//144
f 84//125 113//167 85//127
f 85//128 113//168 84//126
f 85//127 114//169 97//145
f 97//146 114//170 85//128
f 97//145 98//61 70//61
f 70//62 98//62 97//146
f 71//61 98//61 99//61
f 99//62 98//62 71//62
f 72//109 99//61 100//147
f 100//148 99//62 72//110
f 100//147 101//18 73//44
f 73//43 101//17 100//148
f 101//18 102//149 74//16
f 74//15 102//150 101//17
f 86//129 102//149 108//157
f 108//158 102//150 86//130
f 115//171 87//131 86//129
f 86//130 87//132 115//172
f 116//173 88//133 87//131
f 87//132 88//134 116//174
f 117//175 89//135 88//133
f 88//134 89//136 117//176
f 118//61 90//61 89//135
f 89//136 90//62 118//62
f 103//61 63//61 90//61
f 90//62 63//62 103//62
f 104//61 76//61 103//61
f 103//62 76//62 104//62
f 77//111 104//61 105//151
f 105//152 104//62 77//112
f 78//113 105//151 106//153
f 106//154 105//152 78//114
f 79//115 106//153 107//155
f 107//156 106//154 79//116
f 107//155 108//157 80//117
f 80//118 108//158 107//156
f 108//157 102//149 91//137
f 91//138 102//150 108//158
f 91//137 119//177 92//139
f 92//140 119//178 91//138
f 92//139 120//179 93//141
f 93//142 120//180 92//140
f 93//141 121//61 94//61
f 94//62 121//62 93//142
f 94//61 122//61 95//61
f 95//62 122//62 94//62
f 95//61 123//181 96//143
f 96//144 123//182 95//62
f 81//119 110//161 109//159
f 109//160 110//162 81//120
f 84//125 109//159 113//167
f 113//168 109//160 84//126
f 82//121 111//163 110//161
f 110//162 111//164 82//122
f 83//123 112//165 111//163
f 111//164 112//166 83//124
f 96//143 124//183 112//165
f 112//166 124//184 96//144
f 85//127 113//167 114//169
f 114//170 113//168 85//128
f 97//145 114//169 125//185
f 125//186 114//170 97//146
f 97//145 126//187 98//61
f 98//62 126//188 97//146
f 98//61 127//61 99//61
f 99//62 127//62 98//62
f 99//61 128//61 100//147
f 100//148 128//62 99//62
f 100//147 129//189 101//18
f 101//17 129//190 100//148
f 101//18 119//177 102//149
f 102//150 119//178 101//17
f 115//171 86//129 108//157
f 108//158 86//130 115//172
f 116//173 87//131 115//171
f 115//172 87//132 116//174
f 117//175 88//133 116//173
f 116//174 88//134 117//176
f 118//61 89//135 117//175
f 117//176 89//136 118//62
f 130//61 90//61 118//61
f 118//62 90//62 130//62
f 103//61 90//61 130//61
f 130//62 90//62 103//62
f 104//61 103//61 105//151
f 105//152 103//62 104//62
f 105//151 131//191 106//153
f 106//154 131//192 105//152
f 106//153 132//193 107//155
f 107//156 132//194 106//154
f 107//155 115//171 108//157
f 108//158 115//172 107//156
f 102//149 119//177 91//137
f 91//138 119//178 102//150
f 119//177 120//179 92//139
f 92//140 120//180 119//178
f 93//141 120//179 121//61
f 121//62 120//180 93//142
f 94//61 121//61 122//61
f 122//62 121//62 94//62
f 95//61 122//61 123//181
f 123//182 122//62 95//62
f 123//181 124//183 96//143
f 96//144 124//184 123//182
f 109//159 110//161 133//161
f 133//162 110//162 109//160
f 113//167 109//159 134//195
f 134//196 109//160 113//168
f 111//163 135//197 110//161
f 110//162 135//198 111//164
f 112//165 136//165 111//163
f 111//164 136//166 112//166
f 124//183 137//183 112//165
f 112//166 137//184 124//184
f 113//167 138//167 114//169
f 114//170 138//168 113//168
f 114//169 139//199 125//185
f 125//186 139//200 114//170
f 97//145 125//185 126//187
f 126//188 125//186 97//146
f 98//61 126//187 127//61
f 127//62 126//188 98//62
f 99//61 127//61 128//61
f 128//62 127//62 99//62
f 129//189 100//147 128//61
f 128//62 100//148 129//190
f 129//189 119//177 101//18
f 101//17 119//178 129//190
f 132//193 116//173 115//171
f 115//172 116//174 132//194
f 140//201 117//175 116//173
f 116//174 117//176 140//202
f 130//61 118//61 117//175
f 117//176 118//62 130//62
f 103//61 130//61 141//61
f 141//62 130//62 103//62
f 105//151 103//61 131//191
f 131//192 103//62 105//152
f 106//153 131//191 132//193
f 132//194 131//192 106//154
f 132//193 115//171 107//155
f 107//156 115//172 132//194
f 129//189 120//179 119//177
f 119//178 120//180 129//190
f 120//179 142//61 121//61
f 121//62 142//62 120//180
f 121//61 143//61 122//61
f 122//62 143//62 121//62
f 122//61 144//203 123//181
f 123//182 144//204 122//62
f 123//181 145//205 124//183
f 124//184 145//206 123//182
f 110//161 135//197 133//161
f 133//162 135//198 110//162
f 109//159 133//161 134//195
f 134//196 133//162 109//160
f 113//167 134//195 138//167
f 138//168 134//196 113//168
f 111//163 136//165 135//197
f 135//198 136//166 111//164
f 112//165 137//183 136//165
f 136//166 137//184 112//166
f 124//183 146//205 137//183
f 137//184 146//206 124//184
f 114//169 138//167 139//199
f 139//200 138//168 114//170
f 125//185 139//199 147//207
f 147//208 139//200 125//186
f 126//187 125//185 148//209
f 148//210 125//186 126//188
f 126//187 149//211 127//61
f 127//62 149//212 126//188
f 128//61 127//61 150//61
f 150//62 127//62 128//62
f 129//189 128//61 142//61
f 142//62 128//62 129//190
f 140//201 116//173 132//193
f 132//194 116//174 140//202
f 130//61 117//175 140//201
f 140//202 117//176 130//62
f 141//61 130//61 140//201
f 140//202 130//62 141//62
f 103//61 141//61 131//191
f 131//192 141//62 103//62
f 131//191 140//201 132//193
f 132//194 140//202 131//192
f 120//179 129//189 142//61
f 142//62 129//190 120//180
f 121//61 142//61 143//61
f 143//62 142//62 121//62
f 122//61 143//61 144//203
f 144//204 143//62 122//62
f 144//203 145//205 123//181
f 123//182 145//206 144//204
f 145//205 146//205 124//183
f 124//184 146//206 145//206
f 135//197 151//213 133//161
f 133//162 151//214 135//198
f 134//195 133//161 152//215
f 152//216 133//162 134//196
f 138//167 134//195 153//217
f 153//218 134//196 138//168
f 136//165 154//219 135//197
f 135//198 154//220 136//166
f 137//183 155//221 136//165
f 136//166 155//222 137//184
f 146//205 156//223 137//183
f 137//184 156//224 146//206
f 138//167 157//225 139//199
f 139//200 157//226 138//168
f 139//199 158//227 147//207
f 147//208 158//228 139//200
f 125//185 147//207 148//209
f 148//210 147//208 125//186
f 126//187 148//209 149//211
f 149//212 148//210 126//188
f 127//61 149//211 150//61
f 150//62 149//212 127//62
f 142//61 128//61 150//61
f 150//62 128//62 142//62
f 131//191 141//61 140//201
f 140//202 141//62 131//192
f 142//61 150//61 143//61
f 143//62 150//62 142//62
f 143//61 159//229 144//203
f 144//204 159//230 143//62
f 160//231 145//205 144//203
f 144//204 145//206 160//232
f 161//44 146//205 145//205
f 145//206 146//206 161//43
f 135//197 154//219 151//213
f 151//214 154//220 135//198
f 133//161 151//213 152//215
f 152//216 151//214 133//162
f 134//195 152//215 153//217
f 153//218 152//216 134//196
f 138//167 153//217 157//225
f 157//226 153//218 138//168
f 136//165 155//221 154//219
f 154//220 155//222 136//166
f 137//183 156//223 155//221
f 155//222 156//224 137//184
f 162//233 156//223 146//205
f 146//206 156//224 162//234
f 139//199 157//225 158//227
f 158//228 157//226 139//200
f 147//207 158//227 163//235
f 163//236 158//228 147//208
f 148//209 147//207 164//237
f 164//238 147//208 148//210
f 149//211 148//209 165//239
f 165//240 148//210 149//212
f 149//211 159//229 150//61
f 150//62 159//230 149//212
f 143//61 150//61 159//229
f 159//230 150//62 143//62
f 160//231 144//203 159//229
f 159//230 144//204 160//232
f 161//44 145//205 160//231
f 160//232 145//206 161//43
f 162//233 146//205 161//44
f 161//43 146//206 162//234
f 151//213 154//219 166//62
f 166//61 154//220 151//214
f 152//215 151//213 167//62
f 167//61 151//214 152//216
f 153//217 152//215 168//62
f 168//61 152//216 153//218
f 153//217 169//62 157//225
f 157//226 169//61 153//218
f 154//219 155//221 170//62
f 170//61 155//222 154//220
f 155//221 156//223 171//62
f 171//61 156//224 155//222
f 156//223 162//233 172//62
f 172//61 162//234 156//224
f 157//225 173//62 158//227
f 158//228 173//61 157//226
f 158//227 174//62 163//235
f 163//236 174//61 158//228
f 147//207 163//235 164//237
f 164//238 163//236 147//208
f 148//209 164//237 165//239
f 165//240 164//238 148//210
f 165//239 159//229 149//211
f 149//212 159//230 165//240
f 165//239 160//231 159//229
f 159//230 160//232 165//240
f 175//162 161//44 160//231
f 160//232 161//43 175//161
f 176//241 162//233 161//44
f 161//43 162//234 176//242
f 166//62 154//219 170//62
f 170//61 154//220 166//61
f 151//213 166//62 167//62
f 167//61 166//61 151//214
f 152//215 167//62 168//62
f 168//61 167//61 152//216
f 153//217 168//62 169//62
f 169//61 168//61 153//218
f 169//62 173//62 157//225
f 157//226 173//61 169//61
f 170//62 155//221 171//62
f 171//61 155//222 170//61
f 171//62 156//223 172//62
f 172//61 156//224 171//61
f 177//62 172//62 162//233
f 162//234 172//61 177//61
f 173//62 174//62 158//227
f 158//228 174//61 173//61
f 174//62 178//62 163//235
f 163//236 178//61 174//61
f 164//237 163//235 179//243
f 179//244 163//236 164//238
f 165//239 164//237 175//162
f 175//161 164//238 165//240
f 175//162 160//231 165//239
f 165//240 160//232 175//161
f 176//241 161//44 175//162
f 175//161 161//43 176//242
f 177//62 162//233 176//241
f 176//242 162//234 177//61
f 167//62 166//62 170//62
f 170//61 166//61 167//61
f 169//62 168//62 167//62
f 167//61 168//61 169//61
f 169//62 174//62 173//62
f 173//61 174//61 169//61
f 170//62 171//62 172//62
f 172//61 171//61 170//61
f 180//62 172//62 177//62
f 177//61 172//61 180//61
f 174//62 180//62 178//62
f 178//61 180//61 174//61
f 178//62 179//243 163//235
f 163//236 179//244 178//61
f 164//237 179//243 175//162
f 175//161 179//244 164//238
f 175//162 179//243 176//241
f 176//242 179//244 175//161
f 180//62 177//62 176//241
f 176//242 177//61 180//61
f 169//62 167//62 170//62
f 170//61 167//61 169//61
f 169//62 180//62 174//62
f 174//61 180//61 169//61
f 170//62 172//62 180//62
f 180//61 172//61 170//61
f 178//62 180//62 179//243
f 179//244 180//61 178//61
f 180//62 176//241 179//243
f 179//244 176//242 180//61
f 169//62 170//62 180//62
f 180//61 170//61 169//61
