# SSTK version 0.8.0
# 4
mtllib original-4.mtl
o mesh4/mesh4-geometry#mesh4-geometry
v -0.076793 -0.540627 0.230762
v -0.069668 -0.586544 0.232425
v -0.068032 -0.586565 0.245025
v -0.069784 -0.586538 0.225553
v -0.057706 -0.619402 0.234474
v -0.076130 -0.540351 0.246818
v -0.058115 -0.619750 0.228653
v -0.076174 -0.540687 0.221810
v -0.056080 -0.618682 0.244577
v -0.074400 -0.540243 0.265405
v -0.082209 -0.503388 0.245325
v -0.057927 -0.619823 0.225369
v -0.068985 -0.586657 0.221789
v -0.081655 -0.503603 0.226816
v -0.034910 -0.644987 0.227576
v -0.033391 -0.643652 0.243094
v -0.065300 -0.586607 0.260122
v -0.074615 -0.540766 0.216822
v -0.080188 -0.503638 0.216805
v -0.034626 -0.644637 0.233259
v -0.053576 -0.617786 0.256782
v -0.061892 -0.586678 0.274483
v -0.081578 -0.503367 0.266360
v -0.034763 -0.644859 0.224422
v -0.057758 -0.619722 0.222877
v -0.072457 -0.541095 0.212659
v -0.017987 -0.651907 0.233381
v -0.031870 -0.642047 0.254589
v -0.050531 -0.616914 0.268910
v -0.071815 -0.540686 0.281951
v -0.079490 -0.503917 0.283947
v -0.018137 -0.652240 0.227664
v -0.034707 -0.644414 0.222172
v -0.067873 -0.587014 0.218510
v -0.075838 -0.503883 0.207776
v -0.078139 -0.503672 0.211667
v -0.017300 -0.650891 0.243388
v -0.030731 -0.639841 0.265252
v -0.057828 -0.586778 0.288042
v -0.068276 -0.541353 0.297129
v -0.018047 -0.652072 0.224527
v -0.018013 -0.651584 0.222262
v -0.057622 -0.619485 0.220809
v -0.034703 -0.643817 0.220394
v -0.070430 -0.541414 0.208983
v 0.000396 -0.654525 0.233654
v -0.016502 -0.649195 0.255079
v -0.046998 -0.616071 0.280606
v -0.075588 -0.504676 0.300625
v 0.000396 -0.654854 0.227910
v -0.018012 -0.650959 0.220447
v -0.066876 -0.587328 0.215645
v -0.073556 -0.504176 0.204394
v 0.000396 -0.653504 0.243773
v -0.016018 -0.646820 0.265849
v -0.029552 -0.637031 0.275763
v -0.043031 -0.615263 0.291516
v -0.053129 -0.586910 0.300734
v -0.069519 -0.505282 0.318929
v 0.000396 -0.654681 0.224776
v 0.000396 -0.654196 0.222483
v 0.000396 -0.653581 0.220621
v -0.057533 -0.619153 0.218798
v -0.034710 -0.643238 0.218656
v -0.018020 -0.650376 0.218662
v -0.069263 -0.541464 0.205452
v 0.018929 -0.652240 0.227664
v 0.018092 -0.650891 0.243388
v 0.000396 -0.651809 0.255640
v -0.027910 -0.633612 0.286799
v -0.063680 -0.541912 0.311610
v 0.018839 -0.652072 0.224527
v 0.000396 -0.653021 0.218777
v -0.066423 -0.587322 0.213123
v -0.071562 -0.504457 0.200780
v 0.018779 -0.651907 0.233381
v 0.017293 -0.649195 0.255079
v -0.015553 -0.643668 0.276519
v 0.000396 -0.649457 0.266624
v -0.026063 -0.629992 0.297153
v -0.047043 -0.587093 0.313253
v -0.057110 -0.542389 0.325884
v 0.018805 -0.651584 0.222262
v 0.018803 -0.650959 0.220447
v -0.057271 -0.618700 0.214251
v -0.034737 -0.642311 0.214326
v -0.018066 -0.649430 0.214230
v 0.000396 -0.652113 0.214250
v -0.066154 -0.587127 0.207957
v -0.068619 -0.541295 0.197848
v 0.035701 -0.644987 0.227576
v 0.035554 -0.644859 0.224422
v 0.032662 -0.642047 0.254589
v 0.034182 -0.643652 0.243094
v 0.016810 -0.646820 0.265849
v -0.014811 -0.639642 0.287910
v -0.038188 -0.614466 0.302138
v -0.061117 -0.505819 0.336501
v 0.018812 -0.650376 0.218662
v -0.070089 -0.504530 0.192709
v 0.035418 -0.644637 0.233259
v 0.031523 -0.639841 0.265252
v 0.000396 -0.646285 0.277517
v 0.016344 -0.643668 0.276519
v -0.014009 -0.635265 0.298548
v -0.024271 -0.626576 0.305611
v -0.032029 -0.613661 0.312967
v -0.047648 -0.542808 0.340438
v -0.050216 -0.506370 0.350982
v 0.035499 -0.644414 0.222172
v 0.035495 -0.643817 0.220394
v -0.056617 -0.618104 0.204575
v -0.034797 -0.640672 0.204771
v -0.018177 -0.647711 0.204472
v 0.000396 -0.650456 0.204340
v 0.018858 -0.649430 0.214230
v -0.065710 -0.586876 0.197163
v -0.068160 -0.540959 0.181956
v 0.058907 -0.619750 0.228653
v 0.058718 -0.619823 0.225369
v 0.054368 -0.617786 0.256782
v 0.056872 -0.618682 0.244577
v 0.058497 -0.619402 0.234474
v 0.030344 -0.637031 0.275763
v 0.000396 -0.642129 0.289110
v -0.038818 -0.587350 0.326289
v 0.035501 -0.643238 0.218656
v -0.069369 -0.504197 0.175954
v 0.051323 -0.616914 0.268910
v 0.015603 -0.639642 0.287910
v 0.028701 -0.633612 0.286799
v -0.013366 -0.631058 0.306961
v 0.000396 -0.637539 0.299948
v -0.020617 -0.624353 0.311891
v -0.028107 -0.587322 0.337997
v -0.034825 -0.542922 0.353095
v 0.058414 -0.619485 0.220809
v -0.034093 -0.638018 0.191149
v -0.055078 -0.616845 0.190580
v -0.017853 -0.644776 0.190709
v 0.000396 -0.647474 0.190440
v 0.018969 -0.647711 0.204472
v 0.035529 -0.642311 0.214326
v -0.064478 -0.586516 0.181953
v -0.067321 -0.540683 0.161699
v 0.070576 -0.586538 0.225553
v 0.058550 -0.619722 0.222877
v 0.068824 -0.586565 0.245025
v 0.066092 -0.586607 0.260122
v 0.047790 -0.616071 0.280606
v 0.043823 -0.615263 0.291516
v 0.014801 -0.635265 0.298548
v -0.023714 -0.613094 0.322649
v -0.036297 -0.506644 0.362032
v 0.058325 -0.619153 0.218798
v 0.058063 -0.618700 0.214251
v -0.068784 -0.503863 0.154065
v 0.069777 -0.586657 0.221789
v 0.070460 -0.586544 0.232425
v 0.062684 -0.586678 0.274483
v 0.026855 -0.629992 0.297153
v -0.012846 -0.626423 0.314356
v 0.000396 -0.633068 0.308575
v 0.014158 -0.631058 0.306961
v -0.012407 -0.613016 0.329831
v -0.018172 -0.542487 0.361677
v -0.018836 -0.506351 0.369313
v 0.068664 -0.587014 0.218510
v 0.067668 -0.587328 0.215645
v -0.031831 -0.634042 0.174615
v -0.052163 -0.614405 0.173074
v -0.016596 -0.640182 0.174258
v 0.018644 -0.644776 0.190709
v 0.035589 -0.640672 0.204771
v -0.061846 -0.585992 0.163540
v -0.065535 -0.540697 0.141004
v 0.075407 -0.540766 0.216822
v 0.077585 -0.540627 0.230762
v 0.076922 -0.540351 0.246818
v 0.075191 -0.540243 0.265405
v 0.058620 -0.586778 0.288042
v 0.038980 -0.614466 0.302138
v 0.025063 -0.626576 0.305611
v -0.014564 -0.586650 0.346534
v 0.066945 -0.587127 0.207957
v 0.067214 -0.587322 0.213123
v 0.000396 -0.642589 0.173943
v 0.017388 -0.640182 0.174258
v 0.057408 -0.618104 0.204575
v -0.067716 -0.503932 0.130594
v 0.076966 -0.540687 0.221810
v 0.072607 -0.540686 0.281951
v 0.053921 -0.586910 0.300734
v 0.000396 -0.627990 0.316288
v 0.013638 -0.626423 0.314356
v 0.021409 -0.624353 0.311891
v 0.000396 -0.586154 0.350009
v 0.000396 -0.542132 0.364950
v 0.071221 -0.541414 0.208983
v 0.070054 -0.541464 0.205452
v -0.029188 -0.628706 0.157896
v -0.048886 -0.611021 0.156026
v -0.015097 -0.634014 0.157470
v 0.032623 -0.634042 0.174615
v 0.034885 -0.638018 0.191149
v 0.055870 -0.616845 0.190580
v -0.057852 -0.585267 0.145379
v -0.062169 -0.540695 0.122013
v 0.078931 -0.503672 0.211667
v 0.073249 -0.541095 0.212659
v 0.082446 -0.503603 0.226816
v 0.083001 -0.503388 0.245325
v 0.082370 -0.503367 0.266360
v 0.069068 -0.541353 0.297129
v 0.064472 -0.541912 0.311610
v 0.047834 -0.587093 0.313253
v 0.032821 -0.613661 0.312967
v 0.000396 -0.613099 0.332797
v 0.000396 -0.506062 0.372010
v 0.066501 -0.586876 0.197163
v 0.000396 -0.636019 0.157087
v 0.015889 -0.634014 0.157470
v 0.029980 -0.628706 0.157896
v 0.065270 -0.586516 0.181953
v -0.065139 -0.504149 0.108696
v 0.080980 -0.503638 0.216805
v 0.076630 -0.503883 0.207776
v 0.080282 -0.503917 0.283947
v 0.076380 -0.504676 0.300625
v 0.013199 -0.613016 0.329831
v 0.024506 -0.613094 0.322649
v 0.018964 -0.542487 0.361677
v 0.019628 -0.506351 0.369313
v 0.074348 -0.504176 0.204394
v 0.069411 -0.541295 0.197848
v -0.027341 -0.621968 0.143720
v -0.052535 -0.584300 0.130928
v -0.014048 -0.626362 0.142694
v 0.052955 -0.614405 0.173074
v -0.056590 -0.540368 0.106868
v 0.057902 -0.542389 0.325884
v 0.039610 -0.587350 0.326289
v 0.015356 -0.586650 0.346534
v 0.072354 -0.504457 0.200780
v 0.070881 -0.504530 0.192709
v 0.068952 -0.540959 0.181956
v -0.046260 -0.606932 0.143404
v 0.000396 -0.627979 0.142113
v 0.014840 -0.626362 0.142694
v 0.028133 -0.621968 0.143720
v 0.049678 -0.611021 0.156026
v 0.062638 -0.585992 0.163540
v -0.060026 -0.504256 0.091528
v 0.070311 -0.505282 0.318929
v 0.028899 -0.587322 0.337997
v 0.035616 -0.542922 0.353095
v 0.037088 -0.506644 0.362032
v 0.068113 -0.540683 0.161699
v -0.026347 -0.612950 0.130835
v -0.043071 -0.603832 0.135304
v -0.013497 -0.616270 0.128846
v 0.058644 -0.585267 0.145379
v -0.045752 -0.583613 0.119667
v -0.049248 -0.540045 0.094934
v 0.061908 -0.505819 0.336501
v 0.048440 -0.542808 0.340438
v 0.070161 -0.504197 0.175954
v 0.069576 -0.503863 0.154065
v 0.000396 -0.617502 0.127969
v 0.014289 -0.616270 0.128846
v 0.027139 -0.612950 0.130835
v 0.047051 -0.606932 0.143404
v 0.066327 -0.540697 0.141004
v 0.062961 -0.540695 0.122013
v -0.053068 -0.504439 0.078298
v 0.051008 -0.506370 0.350982
v -0.026897 -0.584355 0.104846
v -0.013887 -0.585207 0.100657
v 0.043863 -0.603832 0.135304
v 0.053326 -0.584300 0.130928
v -0.029647 -0.540208 0.078474
v 0.068508 -0.503932 0.130594
v 0.000396 -0.585689 0.099072
v 0.014679 -0.585207 0.100657
v 0.027689 -0.584355 0.104846
v 0.065931 -0.504149 0.108696
v 0.057382 -0.540368 0.106868
v -0.033855 -0.505522 0.060596
v -0.015441 -0.540331 0.073303
v 0.046544 -0.583613 0.119667
v 0.050040 -0.540045 0.094934
v 0.000396 -0.540384 0.071200
v 0.016233 -0.540331 0.073303
v 0.030439 -0.540208 0.078474
v 0.060818 -0.504256 0.091528
v 0.053860 -0.504439 0.078298
v -0.017934 -0.506302 0.054750
v 0.034646 -0.505522 0.060596
v 0.000396 -0.506727 0.052270
v 0.018726 -0.506302 0.054750
vn -0.9886321852172915 -0.15003902810936445 0.009731001823074138
vn -0.962436972525312 -0.2613249925399555 0.07364999789751348
vn -0.9600758264087055 -0.2483699550922325 0.12871197672758952
vn 0.9600758264087055 0.2483699550922325 -0.12871197672758952
vn 0.962436972525312 0.2613249925399555 -0.07364999789751348
vn 0.9886321852172915 0.15003902810936445 -0.009731001823074138
vn -0.9670314699963065 -0.24218086726724192 -0.07873095684970016
vn 0.9670314699963065 0.24218086726724192 0.07873095684970016
vn -0.8320891132968452 -0.5398760735092611 0.1271280173096883
vn 0.8320891132968452 0.5398760735092611 -0.1271280173096883
vn -0.9836116275373309 -0.16699693676353244 0.0679719742611593
vn 0.9836116275373309 0.16699693676353244 -0.0679719742611593
vn -0.8764968625416374 -0.48078592459979175 0.02445699616448286
vn 0.8764968625416374 0.48078592459979175 -0.02445699616448286
vn -0.9737048075399609 -0.14176897197830216 -0.17832696475234147
vn 0.9737048075399609 0.14176897197830216 0.17832696475234147
vn -0.853905970898458 -0.4861649834312545 0.1857099936709105
vn 0.853905970898458 0.4861649834312545 -0.1857099936709105
vn -0.9720225503763341 -0.19778011198659226 0.12670907174491405
vn 0.9720225503763341 0.19778011198659226 -0.12670907174491405
vn -0.9863574829991573 -0.16098607883160185 0.03438601683813162
vn 0.9863574829991573 0.16098607883160185 -0.03438601683813162
vn -0.837828896345072 -0.5382359334102618 -0.09134998869831723
vn 0.837828896345072 0.5382359334102618 0.09134998869831723
vn -0.9399504788323821 -0.22468587542002993 -0.25692285754582117
vn 0.9399504788323821 0.22468587542002993 0.25692285754582117
vn -0.9880287808547465 -0.13207397070593047 -0.07972198231762644
vn 0.9880287808547465 0.13207397070593047 0.07972198231762644
vn -0.6035701749255263 -0.7969422309682369 0.02421000701649665
vn 0.6035701749255263 0.7969422309682369 -0.02421000701649665
vn -0.5983959844390119 -0.7835679796237067 0.16716299565300977
vn 0.5983959844390119 0.7835679796237067 -0.16716299565300977
vn -0.9267668808854408 -0.3131469597521634 0.2074659733350225
vn 0.9267668808854408 0.3131469597521634 -0.2074659733350225
vn -0.9084148666892196 -0.146125978555868 -0.3917009425174992
vn 0.9084148666892196 0.146125978555868 0.3917009425174992
vn -0.9535420986610991 -0.13598201406978772 -0.26882402781468606
vn 0.9535420986610991 0.13598201406978772 0.26882402781468606
vn -0.5763558231636863 -0.8089497517996932 0.11581996446435544
vn 0.5763558231636863 0.8089497517996932 -0.11581996446435544
vn -0.7916377490948091 -0.570737819107816 0.21810093087412033
vn 0.7916377490948091 0.570737819107816 -0.21810093087412033
vn -0.9321461250544023 -0.2858120383438312 0.22229502982254742
vn 0.9321461250544023 0.2858120383438312 -0.22229502982254742
vn -0.9788418602781652 -0.19236597254129836 0.06974199004488953
vn 0.9788418602781652 0.19236597254129836 -0.06974199004488953
vn -0.5155158974783326 -0.8481718313223884 -0.12185197576705648
vn 0.5155158974783326 0.8481718313223884 0.12185197576705648
vn -0.8489651806542913 -0.506932107871869 -0.14925803176114247
vn 0.8489651806542913 0.506932107871869 0.14925803176114247
vn -0.8924361302590946 -0.1434690209405963 -0.4277550624347058
vn 0.8924361302590946 0.1434690209405963 0.4277550624347058
vn -0.31704102299641296 -0.9435350684388469 0.09605500696730196
vn 0.31704102299641296 0.9435350684388469 -0.09605500696730196
vn -0.546882962612621 -0.8137759443666165 0.19669198655325096
vn 0.546882962612621 0.8137759443666165 -0.19669198655325096
vn -0.840929461944965 -0.47767526239975217 0.2542911396889
vn 0.840929461944965 0.47767526239975217 -0.2542911396889
vn -0.9576376511685787 -0.2202799197603004 0.1854909324326215
vn 0.9576376511685787 0.2202799197603004 -0.1854909324326215
vn -0.9662776232208892 -0.20456292023510292 0.15640193901443836
vn 0.9662776232208892 0.20456292023510292 -0.15640193901443836
vn -0.27090498466054747 -0.9626049454944217 0.001485999915858015
vn 0.27090498466054747 0.9626049454944217 -0.001485999915858015
vn -0.5655098186625196 -0.7972097443651699 -0.21131793223838025
vn 0.5655098186625196 0.7972097443651699 0.21131793223838025
vn -0.9295285769186579 -0.22366689819646873 -0.29317186656080313
vn 0.9295285769186579 0.22366689819646873 0.29317186656080313
vn -0.8600158904460229 -0.1417959819371781 -0.4901699375592164
vn 0.8600158904460229 0.1417959819371781 0.4901699375592164
vn -0.8898123972150122 -0.14467506458339716 -0.4327851931966517
vn 0.8898123972150122 0.14467506458339716 0.4327851931966517
vn -0.28171489552055695 -0.9495666478347575 0.1376949489331524
vn 0.28171489552055695 0.9495666478347575 -0.1376949489331524
vn -0.5991279737030755 -0.7627499665213792 0.24342998931537094
vn 0.5991279737030755 0.7627499665213792 -0.24342998931537094
vn -0.8842701307561497 -0.35537905254954905 0.3029390447952969
vn 0.8842701307561497 0.35537905254954905 -0.3029390447952969
vn -0.9313302843198121 -0.24236207398915355 0.271817082981283
vn 0.9313302843198121 0.24236207398915355 -0.271817082981283
vn -0.22392707320423536 -0.9655433156467823 -0.13260004334842004
vn 0.22392707320423536 0.9655433156467823 0.13260004334842004
vn -0.2599249698848348 -0.9304238922001636 -0.25836097006604164
vn 0.2599249698848348 0.9304238922001636 0.25836097006604164
vn -0.8496172007530983 -0.5011931184251817 -0.16418303879424026
vn 0.8496172007530983 0.5011931184251817 0.16418303879424026
vn -0.5587509329484952 -0.7920979049462769 -0.24571997051299116
vn 0.5587509329484952 0.7920979049462769 0.24571997051299116
vn -0.9049019250646222 -0.1304039892011808 -0.4051509664492473
vn 0.9049019250646222 0.1304039892011808 0.4051509664492473
vn 0 -0.9965873360522963 0.0825450278344355
vn 0 0.9965873360522963 -0.0825450278344355
vn -0.29021592752598163 -0.9385467656219075 0.18682795334448835
vn 0.29021592752598163 0.9385467656219075 -0.18682795334448835
vn -0.7641621647942631 -0.5734801236730093 0.2952570636732259
vn 0.7641621647942631 0.5734801236730093 -0.2952570636732259
vn -0.9466328002463007 -0.21192495528066035 0.24284594875586749
vn 0.9466328002463007 0.21192495528066035 -0.24284594875586749
vn 0 -0.9998286013499192 -0.018513992618130328
vn 0 0.9998286013499192 0.018513992618130328
vn -0.25577000111502934 -0.9181090040024961 -0.30275000131983887
vn 0.25577000111502934 0.9181090040024961 0.30275000131983887
vn -0.9525275986959209 -0.20425591394608236 -0.2257669048834071
vn 0.9525275986959209 0.20425591394608236 0.2257669048834071
vn -0.8866100859369032 -0.12345101196579844 -0.4457380432042763
vn 0.8866100859369032 0.12345101196579844 0.4457380432042763
vn 0 -0.9912752604630609 0.13180803463329038
vn 0 0.9912752604630609 -0.13180803463329038
vn -0.29581401454014666 -0.922317045334651 0.2486470122217467
vn 0.29581401454014666 0.922317045334651 -0.2486470122217467
vn -0.5430729348412986 -0.7874029055262239 0.2916649650056019
vn 0.5430729348412986 0.7874029055262239 -0.2916649650056019
vn -0.7780559259539772 -0.5189919506085765 0.3539439663158621
vn 0.7780559259539772 0.5189919506085765 -0.3539439663158621
vn -0.8745856958899891 -0.33823888238793454 0.34741087919865743
vn 0.8745856958899891 0.33823888238793454 -0.34741087919865743
vn -0.9107148385257199 -0.21539696180904516 0.3524239375134793
vn 0.9107148385257199 0.21539696180904516 -0.3524239375134793
vn 0 -0.9913156461638216 -0.1315039530615136
vn 0 0.9913156461638216 0.1315039530615136
vn 0 -0.9696379476060996 -0.24454498678613446
vn 0 0.9696379476060996 0.24454498678613446
vn 0 -0.950705225202605 -0.31009607345541174
vn 0 0.950705225202605 0.31009607345541174
vn -0.8575702271360804 -0.4985781320534215 -0.12646403349526844
vn 0.8575702271360804 0.4985781320534215 0.12646403349526844
vn -0.5618008197420223 -0.802624742471873 -0.2004329356895998
vn 0.5618008197420223 0.802624742471873 0.2004329356895998
vn -0.2608660778103627 -0.9330132782964431 -0.24786107393126877
vn 0.2608660778103627 0.9330132782964431 0.24786107393126877
vn -0.9717540285710264 -0.09471600278479254 -0.21615500635528154
vn 0.9717540285710264 0.09471600278479254 0.21615500635528154
vn 0.27090498466054747 -0.9626049454944217 0.001485999915858015
vn -0.27090498466054747 0.9626049454944217 -0.001485999915858015
vn 0.28171489552055695 -0.9495666478347575 0.1376949489331524
vn -0.28171489552055695 0.9495666478347575 -0.1376949489331524
vn 0 -0.9815719382429311 0.1910929879770982
vn 0 0.9815719382429311 -0.1910929879770982
vn -0.5617931522532682 -0.7571782052051649 0.33327109032081004
vn 0.5617931522532682 0.7571782052051649 -0.33327109032081004
vn -0.8963791480827439 -0.26447904369220615 0.3557460587696094
vn 0.8963791480827439 0.26447904369220615 -0.3557460587696094
vn 0.22392707320423536 -0.9655433156467823 -0.13260004334842004
vn -0.22392707320423536 0.9655433156467823 0.13260004334842004
vn 0 -0.9639550837436015 -0.2660650231144001
vn 0 0.9639550837436015 0.2660650231144001
vn -0.9726417100788929 -0.20483793894273558 -0.10958796733446197
vn 0.9726417100788929 0.20483793894273558 0.10958796733446197
vn -0.9645979318964947 -0.08491899400446443 -0.2496789823719155
vn 0.9645979318964947 0.08491899400446443 0.2496789823719155
vn 0.31704102299641296 -0.9435350684388469 0.09605500696730196
vn -0.31704102299641296 0.9435350684388469 -0.09605500696730196
vn 0.29021592752598163 -0.9385467656219075 0.18682795334448835
vn -0.29021592752598163 0.9385467656219075 -0.18682795334448835
vn -0.2980789249058801 -0.9038377722988903 0.30696292266776126
vn 0.2980789249058801 0.9038377722988903 -0.30696292266776126
vn 0 -0.9656562406101815 0.25982306473947137
vn 0 0.9656562406101815 -0.25982306473947137
vn -0.5469858925367007 -0.7454178535518686 0.3809969251476368
vn 0.5469858925367007 0.7454178535518686 -0.3809969251476368
vn -0.814246639955686 -0.37247683529785697 0.445267803111081
vn 0.814246639955686 0.37247683529785697 -0.445267803111081
vn -0.8433892824557567 -0.25643208588053046 0.4721621581297301
vn 0.8433892824557567 0.25643208588053046 -0.4721621581297301
vn 0.2599249698848348 -0.9304238922001636 -0.25836097006604164
vn -0.2599249698848348 0.9304238922001636 0.25836097006604164
vn 0.25577007854930517 -0.9181092819596668 -0.30274909297698577
vn -0.25577007854930517 0.9181092819596668 0.30274909297698577
vn -0.8612408458353187 -0.49969491055311993 -0.09256998342969686
vn 0.8612408458353187 0.49969491055311993 0.09256998342969686
vn -0.5647889446998227 -0.8120439204903475 -0.14696298561041404
vn 0.5647889446998227 0.8120439204903475 0.14696298561041404
vn -0.2670029134578282 -0.946651693167043 -0.18044394151370735
vn 0.2670029134578282 0.946651693167043 0.18044394151370735
vn 0 -0.9818403484154371 -0.18970906732007695
vn 0 0.9818403484154371 0.18970906732007695
vn -0.9820358401510934 -0.17811497100769422 -0.06229498986005849
vn 0.9820358401510934 0.17811497100769422 0.06229498986005849
vn -0.9951307369043851 -0.06333798325451619 -0.07551898003406816
vn 0.9951307369043851 0.06333798325451619 0.07551898003406816
vn 0.5793597263586167 -0.8149746150737256 0.012596994050226785
vn -0.5793597263586167 0.8149746150737256 -0.012596994050226785
vn 0.5155158974783326 -0.8481718313223884 -0.12185197576705648
vn -0.5155158974783326 0.8481718313223884 0.12185197576705648
vn 0.5782157994239124 -0.791635725391114 0.19743193151324384
vn -0.5782157994239124 0.791635725391114 -0.19743193151324384
vn 0.5755600478992603 -0.801620066712428 0.16166601345416937
vn -0.5755600478992603 0.801620066712428 -0.16166601345416937
vn 0.29581401454014666 -0.922317045334651 0.2486470122217467
vn -0.29581401454014666 0.922317045334651 -0.2486470122217467
vn -0.2973430058429388 -0.8856950174043502 0.356555007006484
vn 0.2973430058429388 0.8856950174043502 -0.356555007006484
vn -0.7186719355534563 -0.560153949768477 0.41199296305473854
vn 0.7186719355534563 0.560153949768477 -0.41199296305473854
vn -0.8343898281599357 -0.23601495139343392 0.4980868974205082
vn 0.8343898281599357 0.23601495139343392 -0.4980868974205082
vn 0.2608660778103627 -0.9330132782964431 -0.24786107393126877
vn -0.2608660778103627 0.9330132782964431 0.24786107393126877
vn -0.995214868158919 -0.04954999343586503 -0.08421498884362011
vn 0.995214868158919 0.04954999343586503 0.08421498884362011
vn 0.6099173592728412 -0.7846084621749276 0.11131206556855831
vn -0.6099173592728412 0.7846084621749276 -0.11131206556855831
vn 0.5785479235246478 -0.7795948969492554 0.23982096829926725
vn -0.5785479235246478 0.7795948969492554 -0.23982096829926725
vn 0 -0.9473216152264576 0.3202838699103267
vn 0 0.9473216152264576 -0.3202838699103267
vn 0.2980789249058801 -0.9038377722988903 0.30696292266776126
vn -0.2980789249058801 0.9038377722988903 -0.30696292266776126
vn -0.2922299630811299 -0.8638128908702055 0.41040094815199935
vn 0.2922299630811299 0.8638128908702055 -0.41040094815199935
vn -0.5112009606469847 -0.7279589439606308 0.4568909648278493
vn 0.5112009606469847 0.7279589439606308 -0.4568909648278493
vn -0.6632030712963236 -0.537524057785452 0.5207970559872488
vn 0.6632030712963236 0.537524057785452 -0.5207970559872488
vn -0.7488430478787795 -0.2966060189640997 0.5926710378936092
vn 0.7488430478787795 0.2966060189640997 -0.5926710378936092
vn -0.7287050831091838 -0.23266502653556426 0.6440930734591412
vn 0.7287050831091838 0.23266502653556426 -0.6440930734591412
vn 0.5901171496873647 -0.7822811984311271 -0.19949405060306896
vn -0.5901171496873647 0.7822811984311271 0.19949405060306896
vn 0.5203680618059398 -0.8104980962657014 -0.2689050319387939
vn -0.5203680618059398 0.8104980962657014 0.2689050319387939
vn -0.8542252729207471 -0.5074011621121601 -0.11332803620774681
vn 0.8542252729207471 0.5074011621121601 0.11332803620774681
vn -0.5607802226463355 -0.8128793227371351 -0.1573300624646886
vn 0.5607802226463355 0.8128793227371351 0.1573300624646886
vn -0.268387058267105 -0.945498205268628 -0.18439504003235216
vn 0.268387058267105 0.945498205268628 0.18439504003235216
vn 0 -0.9832590794227554 -0.1822130147182571
vn 0 0.9832590794227554 0.1822130147182571
vn 0.2670029134578282 -0.946651693167043 -0.18044394151370735
vn -0.2670029134578282 0.946651693167043 0.18044394151370735
vn -0.9797046736614071 -0.18785693742505236 -0.06991797671039578
vn 0.9797046736614071 0.18785693742505236 0.06991797671039578
vn -0.9973015813259029 -0.0579729756625441 -0.04504098109148483
vn 0.9973015813259029 0.0579729756625441 0.04504098109148483
vn 0.8350430698121087 -0.548929045892117 0.03714800310568451
vn -0.8350430698121087 0.548929045892117 -0.03714800310568451
vn 0.837828896345072 -0.5382359334102618 -0.09134998869831723
vn -0.837828896345072 0.5382359334102618 0.09134998869831723
vn 0.8283638960270838 -0.5173699350617994 0.2148059730384151
vn -0.8283638960270838 0.5173699350617994 -0.2148059730384151
vn 0.8151619022323403 -0.5470449343893491 0.19040197716385449
vn -0.8151619022323403 0.5470449343893491 -0.19040197716385449
vn 0.8639002245635494 -0.4896261272741665 0.11807903069364424
vn -0.8639002245635494 0.4896261272741665 -0.11807903069364424
vn 0.5918319030765848 -0.7520068768449719 0.2902079524730826
vn -0.5918319030765848 0.7520068768449719 -0.2902079524730826
vn 0 -0.927699357078509 0.3733281436968299
vn 0 0.927699357078509 -0.3733281436968299
vn -0.7327777181733774 -0.393650848601716 0.555045786529154
vn 0.7327777181733774 0.393650848601716 -0.555045786529154
vn 0.5863209441860598 -0.7879949249880087 -0.18786098211685662
vn -0.5863209441860598 0.7879949249880087 0.18786098211685662
vn -0.9984216139903103 -0.04165998389342014 -0.037665985437579534
vn 0.9984216139903103 0.04165998389342014 0.037665985437579534
vn 0.8141552895356546 -0.5223201857511939 0.2536390902009247
vn -0.8141552895356546 0.5223201857511939 -0.2536390902009247
vn 0.2973430058429388 -0.8856950174043502 0.356555007006484
vn -0.2973430058429388 0.8856950174043502 -0.356555007006484
vn 0.5321540908011941 -0.7760311324138155 0.33850805775946535
vn -0.5321540908011941 0.7760311324138155 -0.33850805775946535
vn -0.2824429211597413 -0.8287327686700535 0.48314386513668955
vn 0.2824429211597413 0.8287327686700535 -0.48314386513668955
vn 0 -0.8996950313156855 0.43651901519391734
vn 0 0.8996950313156855 -0.43651901519391734
vn -0.4498090887010116 -0.7109381401948822 0.5405911066029548
vn 0.4498090887010116 0.7109381401948822 -0.5405911066029548
vn -0.5678301342373309 -0.41607609836206577 0.7102461679050549
vn 0.5678301342373309 0.41607609836206577 -0.7102461679050549
vn -0.5396618888650102 -0.26457194551551444 0.7992288354112262
vn 0.5396618888650102 0.26457194551551444 -0.7992288354112262
vn 0.8324130709823627 -0.5262730448768832 -0.17356601480049552
vn -0.8324130709823627 0.5262730448768832 0.17356601480049552
vn -0.59634321203911 -0.774644275436828 -0.21047807483875536
vn 0.59634321203911 0.774644275436828 0.21047807483875536
vn -0.8614115108580943 -0.48291028638882283 -0.15737809333271255
vn 0.8614115108580943 0.48291028638882283 0.15737809333271255
vn -0.3018501644685402 -0.9229005028590882 -0.23904213024644308
vn 0.3018501644685402 0.9229005028590882 0.23904213024644308
vn 0 -0.9691702391117725 -0.24639206078936418
vn 0 0.9691702391117725 0.24639206078936418
vn 0.268387058267105 -0.945498205268628 -0.18439504003235216
vn -0.268387058267105 0.945498205268628 0.18439504003235216
vn 0.5297668611245493 -0.8340597813558442 -0.15391995965073463
vn -0.5297668611245493 0.8340597813558442 0.15391995965073463
vn -0.9685407704994488 -0.2196499479528527 -0.11697297228267267
vn 0.9685407704994488 0.2196499479528527 0.11697297228267267
vn -0.9943706525003319 -0.07848197257314526 -0.07118697512250573
vn 0.9943706525003319 0.07848197257314526 0.07118697512250573
vn 0.9662691250347497 -0.2429140314329562 -0.08553801106857664
vn -0.9662691250347497 0.2429140314329562 0.08553801106857664
vn 0.8718708631489803 -0.4713099260220215 -0.13307197911269122
vn -0.8718708631489803 0.4713099260220215 0.13307197911269122
vn 0.951557724377063 -0.2705069216464642 0.14616395766295798
vn -0.951557724377063 0.2705069216464642 -0.14616395766295798
vn 0.9402484283636479 -0.2840901294273732 0.18768508550662294
vn -0.9402484283636479 0.2840901294273732 -0.18768508550662294
vn 0.8132275633745788 -0.5017597306030152 0.2947848417287343
vn -0.8132275633745788 0.5017597306030152 -0.2947848417287343
vn 0.7608370102754843 -0.5517440074515789 0.3416220046137759
vn -0.7608370102754843 0.5517440074515789 -0.3416220046137759
vn 0.2922299630811299 -0.8638128908702055 0.41040094815199935
vn -0.2922299630811299 0.8638128908702055 -0.41040094815199935
vn -0.49372997216128317 -0.609409965638725 0.6203629650211453
vn 0.49372997216128317 0.609409965638725 -0.6203629650211453
vn -0.4950539593983987 -0.22671198140633114 0.8387629312092804
vn 0.4950539593983987 0.22671198140633114 -0.8387629312092804
vn 0.896474284771377 -0.42861113615134927 -0.1123670356941812
vn -0.896474284771377 0.42861113615134927 0.1123670356941812
vn 0.8170879423944851 -0.5666569600501191 -0.10614699251653129
vn -0.8170879423944851 0.5666569600501191 0.10614699251653129
vn -0.9969088028882203 -0.058197988492920245 -0.05278098956398545
vn 0.9969088028882203 0.058197988492920245 0.05278098956398545
vn 0.9443434673353942 -0.25341312540873834 -0.20975510380331686
vn -0.9443434673353942 0.25341312540873834 0.20975510380331686
vn 0.9669309340659487 -0.24511098328612774 0.07046399519513073
vn -0.9669309340659487 0.24511098328612774 -0.07046399519513073
vn 0.9214108761858827 -0.3084779585484314 0.23631196824569953
vn -0.9214108761858827 0.3084779585484314 -0.23631196824569953
vn 0.5469858925367007 -0.7454178535518686 0.3809969251476368
vn -0.5469858925367007 0.7454178535518686 -0.3809969251476368
vn -0.28097501494927607 -0.7641690406576152 0.5806020308909317
vn 0.28097501494927607 0.7641690406576152 -0.5806020308909317
vn 0 -0.8557569837692853 0.5173779901871501
vn 0 0.8557569837692853 -0.5173779901871501
vn 0.2824429211597413 -0.8287327686700535 0.48314386513668955
vn -0.2824429211597413 0.8287327686700535 -0.48314386513668955
vn -0.2893580278117928 -0.6169860593019265 0.7318470703418504
vn 0.2893580278117928 0.6169860593019265 -0.7318470703418504
vn -0.3192330165461669 -0.2898570150235796 0.9022600467650417
vn 0.3192330165461669 0.2898570150235796 -0.9022600467650417
vn -0.2816768895502881 -0.20864991818525355 0.9365486327653048
vn 0.2816768895502881 0.20864991818525355 -0.9365486327653048
vn 0.9242658206161962 -0.21491995828780114 -0.31550293876640684
vn -0.9242658206161962 0.21491995828780114 0.31550293876640684
vn 0.9525275986959209 -0.20425591394608236 -0.2257669048834071
vn -0.9525275986959209 0.20425591394608236 0.2257669048834071
vn -0.4882020094262046 -0.8209780158514437 -0.2960640057164041
vn 0.4882020094262046 0.8209780158514437 0.2960640057164041
vn -0.7839171649546108 -0.5719421203500753 -0.24157005083202107
vn 0.7839171649546108 0.5719421203500753 0.24157005083202107
vn -0.24923002534918717 -0.9160760931741041 -0.31414803195199814
vn 0.24923002534918717 0.9160760931741041 0.31414803195199814
vn 0.3018501644685402 -0.9229005028590882 -0.23904213024644308
vn -0.3018501644685402 0.9229005028590882 0.23904213024644308
vn 0.5823523056543849 -0.7979534188151383 -0.15535808154149727
vn -0.5823523056543849 0.7979534188151383 0.15535808154149727
vn -0.9476996303924777 -0.2659068962950011 -0.17651893115674774
vn 0.9476996303924777 0.2659068962950011 0.17651893115674774
vn -0.9839400397605258 -0.12199000492955517 -0.1303090052657219
vn 0.9839400397605258 0.12199000492955517 0.1303090052657219
vn 0.9229132969552458 -0.14506504667591924 -0.35663311474975457
vn -0.9229132969552458 0.14506504667591924 0.35663311474975457
vn 0.9886321852172915 -0.15003902810936445 0.009731001823074138
vn -0.9886321852172915 0.15003902810936445 -0.009731001823074138
vn 0.9808257844650288 -0.17798496088807614 0.07938598255505129
vn -0.9808257844650288 0.17798496088807614 -0.07938598255505129
vn 0.9684086939775748 -0.206352934791348 0.14001095575577485
vn -0.9684086939775748 0.206352934791348 -0.14001095575577485
vn 0.9008657493764807 -0.32452690971565273 0.2883109197910482
vn -0.9008657493764807 0.32452690971565273 -0.2883109197910482
vn 0.7371707263394248 -0.5374948004653048 0.40948584798618726
vn -0.7371707263394248 0.5374948004653048 -0.40948584798618726
vn 0.5112009606469847 -0.7279589439606308 0.4568909648278493
vn -0.5112009606469847 0.7279589439606308 -0.4568909648278493
vn -0.3339819273883291 -0.4305899063845976 0.8384798177044456
vn 0.3339819273883291 0.4305899063845976 -0.8384798177044456
vn 0.9789766463516032 -0.19321393020283278 -0.06536897638591917
vn -0.9789766463516032 0.19321393020283278 0.06536897638591917
vn 0.9759575173776641 -0.1844640977886868 -0.11610306154891965
vn -0.9759575173776641 0.1844640977886868 0.11610306154891965
vn 0 -0.9423840322554499 -0.33453301145022907
vn 0 0.9423840322554499 0.33453301145022907
vn 0.24923002534918717 -0.9160760931741041 -0.31414803195199814
vn -0.24923002534918717 0.9160760931741041 0.31414803195199814
vn 0.8922663078493286 -0.44067315204085683 -0.09832603392440502
vn -0.8922663078493286 0.44067315204085683 0.09832603392440502
vn -0.9886882691995841 -0.10051102736709597 -0.11132403031125546
vn 0.9886882691995841 0.10051102736709597 0.11132403031125546
vn 0.9682088243925927 -0.14117897439387755 -0.20649496254728933
vn -0.9682088243925927 0.14117897439387755 0.20649496254728933
vn 0.9566038235176119 -0.22291895887401952 0.18765996537889762
vn -0.9566038235176119 0.22291895887401952 -0.18765996537889762
vn 0.8518256374852332 -0.36969384266794614 0.3711058420670359
vn -0.8518256374852332 0.36969384266794614 -0.3711058420670359
vn 0 -0.7787881054039151 0.627287084899235
vn 0 0.7787881054039151 -0.627287084899235
vn 0.28097501494927607 -0.7641690406576152 0.5806020308909317
vn -0.28097501494927607 0.7641690406576152 -0.5806020308909317
vn 0.4498090887010116 -0.7109381401948822 0.5405911066029548
vn -0.4498090887010116 0.7109381401948822 -0.5405911066029548
vn 0 -0.43917280800730485 0.8984026072463163
vn 0 0.43917280800730485 -0.8984026072463163
vn 0 -0.24143405670743454 0.9704172279291992
vn 0 0.24143405670743454 -0.9704172279291992
vn 0.917945054541543 -0.12682100753532394 -0.37589002233425817
vn -0.917945054541543 0.12682100753532394 0.37589002233425817
vn 0.9731947302990684 -0.090674974871293 -0.21135294142787317
vn -0.9731947302990684 0.090674974871293 0.21135294142787317
vn -0.48870421972439887 -0.7950943574792739 -0.3591561614788016
vn 0.48870421972439887 0.7950943574792739 0.3591561614788016
vn -0.7713637449358924 -0.5540308168005992 -0.313125896459773
vn 0.7713637449358924 0.5540308168005992 0.313125896459773
vn -0.2298370409375431 -0.8843761575211153 -0.40626807236264745
vn 0.2298370409375431 0.8843761575211153 0.40626807236264745
vn 0.5251849536035877 -0.8026699290897334 -0.282668975028176
vn -0.5251849536035877 0.8026699290897334 0.282668975028176
vn 0.5445319239735471 -0.8075238872551377 -0.22669396834944386
vn -0.5445319239735471 0.8075238872551377 0.22669396834944386
vn 0.7865712539426037 -0.5876421897188424 -0.18969006124097204
vn -0.7865712539426037 0.5876421897188424 0.18969006124097204
vn -0.9190202898604236 -0.29650109351690435 -0.2597860819369329
vn 0.9190202898604236 0.29650109351690435 0.2597860819369329
vn -0.9487891019616264 -0.1931430207561158 -0.24999002686517974
vn 0.9487891019616264 0.1931430207561158 0.24999002686517974
vn 0.9106970211113231 -0.14394800333693059 -0.3871820089754599
vn -0.9106970211113231 0.14394800333693059 0.3871820089754599
vn 0.8681664188604463 -0.1417880684078677 -0.4755872294544858
vn -0.8681664188604463 0.1417880684078677 0.4755872294544858
vn 0.9880287808547465 -0.13207397070593047 -0.07972198231762644
vn -0.9880287808547465 0.13207397070593047 0.07972198231762644
vn 0.9883271385501321 -0.15160302125269842 0.015033002107424065
vn -0.9883271385501321 0.15160302125269842 -0.015033002107424065
vn 0.9774389560968643 -0.1889659915123093 0.09436599576140983
vn -0.9774389560968643 0.1889659915123093 -0.09436599576140983
vn 0.9390078438012226 -0.23801496040752376 0.24821995870997846
vn -0.9390078438012226 0.23801496040752376 -0.24821995870997846
vn 0.9022772318446758 -0.2591850665989074 0.344556088535421
vn -0.9022772318446758 0.2591850665989074 -0.344556088535421
vn 0.8163480964360227 -0.37274704403298375 0.4411750521164531
vn -0.8163480964360227 0.37274704403298375 -0.4411750521164531
vn 0.6642979694801592 -0.5489589747791784 0.5072989766931636
vn -0.6642979694801592 0.5489589747791784 -0.5072989766931636
vn 0 -0.6465930824813588 0.7628350973095396
vn 0 0.6465930824813588 -0.7628350973095396
vn 0 -0.19210507118445144 0.9813743636478469
vn 0 0.19210507118445144 -0.9813743636478469
vn 0.9855124626972243 -0.15959707493068465 -0.05739302694597511
vn -0.9855124626972243 0.15959707493068465 0.05739302694597511
vn 0 -0.9003941751892613 -0.43507508465235006
vn 0 0.9003941751892613 0.43507508465235006
vn 0.2298370409375431 -0.8843761575211153 -0.40626807236264745
vn -0.2298370409375431 0.8843761575211153 0.40626807236264745
vn 0.4887038311584756 -0.7950947253039633 -0.35915587591579673
vn -0.4887038311584756 0.7950947253039633 0.35915587591579673
vn 0.9652625599841971 -0.23247789402474364 -0.11925694563661453
vn -0.9652625599841971 0.23247789402474364 0.11925694563661453
vn -0.9527843310230594 -0.1772610615852895 -0.246537085653655
vn 0.9527843310230594 0.1772610615852895 0.246537085653655
vn 0.9567062094584101 -0.13824303026651757 -0.2561290560761333
vn -0.9567062094584101 0.13824303026651757 0.2561290560761333
vn 0.8555886974698793 -0.1454029485865442 -0.4968158243294334
vn -0.8555886974698793 0.1454029485865442 0.4968158243294334
vn 0.9642711048712383 -0.21002602284180144 0.16146301756023432
vn -0.9642711048712383 0.21002602284180144 -0.16146301756023432
vn 0.943814319941311 -0.21102307153419564 0.2543300862147347
vn -0.943814319941311 0.21102307153419564 -0.2543300862147347
vn 0.2893580278117928 -0.6169860593019265 0.7318470703418504
vn -0.2893580278117928 0.6169860593019265 -0.7318470703418504
vn 0.5217229539459518 -0.5878759481064288 0.6182289454270786
vn -0.5217229539459518 0.5878759481064288 -0.6182289454270786
vn 0.2978531294563806 -0.27111811783650014 0.9153023978193405
vn -0.2978531294563806 0.27111811783650014 -0.9153023978193405
vn 0.22603089205874724 -0.19970990462835833 0.9534285446893538
vn -0.22603089205874724 0.19970990462835833 -0.9534285446893538
vn 0.8830557582224572 -0.12787596498801304 -0.45150887637846693
vn -0.8830557582224572 0.12787596498801304 0.45150887637846693
vn 0.9967623851964064 -0.05890602276408962 -0.05472502114835171
vn -0.9967623851964064 0.05890602276408962 0.05472502114835171
vn -0.4440739015619272 -0.7677568298109786 -0.461895897611317
vn 0.4440739015619272 0.7677568298109786 0.461895897611317
vn -0.8322494641060041 -0.3830357533593359 -0.4008047419177015
vn 0.8322494641060041 0.3830357533593359 0.4008047419177015
vn -0.2099829790821266 -0.8268229176343853 -0.5217959480202559
vn 0.2099829790821266 0.8268229176343853 0.5217959480202559
vn 0.814425046014202 -0.530544029975208 -0.23502101327845273
vn -0.814425046014202 0.530544029975208 0.23502101327845273
vn -0.8665172090685317 -0.27907906733467047 -0.41383909984883405
vn 0.8665172090685317 0.27907906733467047 0.41383909984883405
vn 0.8459553787634932 -0.2724411219813169 0.4584052052438712
vn -0.8459553787634932 0.2724411219813169 -0.4584052052438712
vn 0.7324427704283011 -0.3948108762532621 0.5546638261500801
vn -0.7324427704283011 0.3948108762532621 -0.5546638261500801
vn 0.35183695044482455 -0.41524194151442256 0.8389188818408004
vn -0.35183695044482455 0.41524194151442256 -0.8389188818408004
vn 0.9387580084070474 -0.09996200089520962 -0.3297590029531568
vn -0.9387580084070474 0.09996200089520962 0.3297590029531568
vn 0.9949164853059538 -0.054907026782858026 -0.0844180411779065
vn -0.9949164853059538 0.054907026782858026 0.0844180411779065
vn 0.9975102602978426 -0.056262014681433985 -0.04251901109523111
vn -0.9975102602978426 0.056262014681433985 0.04251901109523111
vn -0.6592511501754514 -0.6129541396291299 -0.43551709920950005
vn 0.6592511501754514 0.6129541396291299 0.43551709920950005
vn 0 -0.8320742935675115 -0.5546641956933284
vn 0 0.8320742935675115 0.5546641956933284
vn 0.2099829790821266 -0.8268229176343853 -0.5217959480202559
vn -0.2099829790821266 0.8268229176343853 0.5217959480202559
vn 0.4561101525193836 -0.7586142536742005 -0.46526115557940184
vn -0.4561101525193836 0.7586142536742005 0.46526115557940184
vn 0.719937306182562 -0.6125012604910225 -0.3263931388119308
vn -0.719937306182562 0.6125012604910225 0.3263931388119308
vn 0.9597907422261557 -0.22813293872966048 -0.16357595606792072
vn -0.9597907422261557 0.22813293872966048 0.16357595606792072
vn -0.871239352718274 -0.26747510828638327 -0.41158116662722855
vn 0.871239352718274 0.26747510828638327 0.41158116662722855
vn 0.9020625696923522 -0.2162718968325987 0.3735098218259595
vn -0.9020625696923522 0.2162718968325987 -0.3735098218259595
vn 0.5728239808169845 -0.42100098590130897 0.7032999764475392
vn -0.5728239808169845 0.42100098590130897 -0.7032999764475392
vn 0.5573621348080811 -0.2845340688196946 0.7799921886551733
vn -0.5573621348080811 0.2845340688196946 -0.7799921886551733
vn 0.47838013621397946 -0.21566606140876327 0.8512582423873065
vn -0.47838013621397946 0.21566606140876327 -0.8512582423873065
vn 0.9930109527932535 -0.08682099587261677 -0.07994599619944741
vn -0.9930109527932535 0.08682099587261677 0.07994599619944741
vn -0.42107888377592795 -0.6841948111519952 -0.5954578356447284
vn 0.42107888377592795 0.6841948111519952 0.5954578356447284
vn -0.6337802482501873 -0.5642262210060434 -0.5291232072562781
vn 0.6337802482501873 0.5642262210060434 0.5291232072562781
vn -0.19546904789177955 -0.7285381784987965 -0.6565241608546761
vn 0.19546904789177955 0.7285381784987965 0.6565241608546761
vn 0.89192960290188 -0.3535218426076916 -0.2819288744817689
vn -0.89192960290188 0.3535218426076916 0.2819288744817689
vn -0.6503670975742578 -0.46458406970132077 -0.6009860901656494
vn 0.6503670975742578 0.46458406970132077 0.6009860901656494
vn -0.7354981633909352 -0.3579360795155088 -0.5752601277940518
vn 0.7354981633909352 0.3579360795155088 0.5752601277940518
vn 0.830289798834921 -0.22817094471806584 0.5084848768027735
vn -0.830289798834921 0.22817094471806584 -0.5084848768027735
vn 0.7436949942568155 -0.2849179977997209 0.6047639953297099
vn -0.7436949942568155 0.2849179977997209 -0.6047639953297099
vn 0.9986229628881754 -0.038630998564356214 -0.035493998680936556
vn -0.9986229628881754 0.038630998564356214 0.035493998680936556
vn 0.9973002647887406 -0.053725014264288655 -0.050058013290679625
vn -0.9973002647887406 0.053725014264288655 0.050058013290679625
vn 0 -0.7192722862819351 -0.6947282765130248
vn 0 0.7192722862819351 0.6947282765130248
vn 0.19546904789177955 -0.7285381784987965 -0.6565241608546761
vn -0.19546904789177955 0.7285381784987965 0.6565241608546761
vn 0.3773419286708733 -0.6999888676807667 -0.6063238853863037
vn -0.3773419286708733 0.6999888676807667 0.6063238853863037
vn 0.7260744230727986 -0.5590653257590742 -0.400327233264742
vn -0.7260744230727986 0.5590653257590742 0.400327233264742
vn 0.9876451631772658 -0.10860701794389004 -0.11296701866424293
vn -0.9876451631772658 0.10860701794389004 0.11296701866424293
vn 0.9407636548056556 -0.20950792312527183 -0.2665899021801852
vn -0.9407636548056556 0.20950792312527183 0.2665899021801852
vn -0.6996916949313388 -0.3733628372121582 -0.6091237344193687
vn 0.6996916949313388 0.3733628372121582 0.6091237344193687
vn 0.6953509277749459 -0.22900997621307861 0.6812059292441656
vn -0.6953509277749459 0.22900997621307861 -0.6812059292441656
vn -0.389742144950587 -0.5739222134497457 -0.7202182678593068
vn 0.389742144950587 0.5739222134497457 0.7202182678593068
vn -0.19946411389434074 -0.5906303372509045 -0.7819014464670263
vn 0.19946411389434074 0.5906303372509045 0.7819014464670263
vn 0.6012550611554591 -0.5850180595039449 -0.5442850553608688
vn -0.6012550611554591 0.5850180595039449 0.5442850553608688
vn 0.8236258210071852 -0.3723309190839364 -0.4277969070299029
vn -0.8236258210071852 0.3723309190839364 0.4277969070299029
vn -0.47307497425573375 -0.458586975044156 -0.7522619590626578
vn 0.47307497425573375 0.458586975044156 0.7522619590626578
vn 0.9934140325576555 -0.08168400267707071 -0.08035100263338366
vn -0.9934140325576555 0.08168400267707071 0.08035100263338366
vn 0 -0.5754640525902234 -0.8178270747391754
vn 0 0.5754640525902234 0.8178270747391754
vn 0.19946411389434074 -0.5906303372509045 -0.7819014464670263
vn -0.19946411389434074 0.5906303372509045 0.7819014464670263
vn 0.4349359882754307 -0.5561669850074066 -0.7081729809097813
vn -0.4349359882754307 0.5561669850074066 0.7081729809097813
vn 0.9601614602717914 -0.16095090952589777 -0.22843987158884446
vn -0.9601614602717914 0.16095090952589777 0.22843987158884446
vn 0.8740391449358053 -0.27061704487453386 -0.4035120669115871
vn -0.8740391449358053 0.27061704487453386 0.4035120669115871
vn -0.42607496081921353 -0.45707695796834735 -0.7807309282059389
vn 0.42607496081921353 0.45707695796834735 0.7807309282059389
vn -0.21317809425916676 -0.49644821951033774 -0.8414833720716323
vn 0.21317809425916676 0.49644821951033774 0.8414833720716323
vn 0.6661619770610459 -0.46118498411932585 -0.586119979817252
vn -0.6661619770610459 0.46118498411932585 0.586119979817252
vn 0.6869148223810229 -0.39109489887264953 -0.6125298416151168
vn -0.6869148223810229 0.39109489887264953 0.6125298416151168
vn 0 -0.49995204971698404 -0.8660530861233545
vn 0 0.49995204971698404 0.8660530861233545
vn 0.21317809425916676 -0.49644821951033774 -0.8414833720716323
vn -0.21317809425916676 0.49644821951033774 0.8414833720716323
vn 0.4174389854157257 -0.4746229834178597 -0.7749049729267581
vn -0.4174389854157257 0.4746229834178597 0.7749049729267581
vn 0.9001729277548242 -0.240031980735754 -0.36341897083308483
vn -0.9001729277548242 0.240031980735754 0.36341897083308483
vn 0.7723532624808254 -0.3273561112505201 -0.5443421849922736
vn -0.7723532624808254 0.3273561112505201 0.5443421849922736
vn -0.19072599111541136 -0.4820489775447128 -0.8551329601653423
vn 0.19072599111541136 0.4820489775447128 0.8551329601653423
vn 0.4699138288602342 -0.4424758388529835 -0.7638037218273181
vn -0.4699138288602342 0.4424758388529835 0.7638037218273181
vn 0 -0.4902300464372883 -0.8715930825620944
vn 0 0.4902300464372883 0.8715930825620944
vn 0.19072599111541136 -0.4820489775447128 -0.8551329601653423
vn -0.19072599111541136 0.4820489775447128 0.8551329601653423
usemtl material_0_0
f 1//1 2//2 3//3
f 3//4 2//5 1//6
f 4//7 2//2 1//1
f 1//6 2//5 4//8
f 2//2 5//9 3//3
f 3//4 5//10 2//5
f 1//1 3//3 6//11
f 6//12 3//4 1//6
f 4//7 7//13 2//2
f 2//5 7//14 4//8
f 8//15 4//7 1//1
f 1//6 4//8 8//16
f 7//13 5//9 2//2
f 2//5 5//10 7//14
f 5//9 9//17 3//3
f 3//4 9//18 5//10
f 3//3 10//19 6//11
f 6//12 10//20 3//4
f 1//1 6//11 11//21
f 11//22 6//12 1//6
f 12//23 7//13 4//7
f 4//8 7//14 12//24
f 13//25 4//7 8//15
f 8//16 4//8 13//26
f 8//15 1//1 14//27
f 14//28 1//6 8//16
f 15//29 5//9 7//13
f 7//14 5//10 15//30
f 5//9 16//31 9//17
f 9//18 16//32 5//10
f 9//17 17//33 3//3
f 3//4 17//34 9//18
f 3//3 17//33 10//19
f 10//20 17//34 3//4
f 11//21 6//11 10//19
f 10//20 6//12 11//22
f 14//27 1//1 11//21
f 11//22 1//6 14//28
f 12//23 15//29 7//13
f 7//14 15//30 12//24
f 13//25 12//23 4//7
f 4//8 12//24 13//26
f 18//35 13//25 8//15
f 8//16 13//26 18//36
f 19//37 8//15 14//27
f 14//28 8//16 19//38
f 15//29 20//39 5//9
f 5//10 20//40 15//30
f 20//39 16//31 5//9
f 5//10 16//32 20//40
f 16//31 21//41 9//17
f 9//18 21//42 16//32
f 9//17 21//41 17//33
f 17//34 21//42 9//18
f 17//33 22//43 10//19
f 10//20 22//44 17//34
f 11//21 10//19 23//45
f 23//46 10//20 11//22
f 24//47 15//29 12//23
f 12//24 15//30 24//48
f 13//25 25//49 12//23
f 12//24 25//50 13//26
f 26//51 13//25 18//35
f 18//36 13//26 26//52
f 19//37 18//35 8//15
f 8//16 18//36 19//38
f 27//53 20//39 15//29
f 15//30 20//40 27//54
f 27//53 16//31 20//39
f 20//40 16//32 27//54
f 16//31 28//55 21//41
f 21//42 28//56 16//32
f 21//41 29//57 17//33
f 17//34 29//58 21//42
f 17//33 29//57 22//43
f 22//44 29//58 17//34
f 10//19 22//43 30//59
f 30//60 22//44 10//20
f 10//19 31//61 23//45
f 23//46 31//62 10//20
f 32//63 15//29 24//47
f 24//48 15//30 32//64
f 33//65 24//47 12//23
f 12//24 24//48 33//66
f 34//67 25//49 13//25
f 13//26 25//50 34//68
f 33//65 12//23 25//49
f 25//50 12//24 33//66
f 26//51 34//67 13//25
f 13//26 34//68 26//52
f 35//69 26//51 18//35
f 18//36 26//52 35//70
f 36//71 18//35 19//37
f 19//38 18//36 36//72
f 27//53 15//29 32//63
f 32//64 15//30 27//54
f 37//73 16//31 27//53
f 27//54 16//32 37//74
f 37//73 28//55 16//31
f 16//32 28//56 37//74
f 28//55 38//75 21//41
f 21//42 38//76 28//56
f 21//41 38//75 29//57
f 29//58 38//76 21//42
f 29//57 39//77 22//43
f 22//44 39//78 29//58
f 22//43 40//79 30//59
f 30//60 40//80 22//44
f 10//19 30//59 31//61
f 31//62 30//60 10//20
f 41//81 32//63 24//47
f 24//48 32//64 41//82
f 42//83 24//47 33//65
f 33//66 24//48 42//84
f 34//67 43//85 25//49
f 25//50 43//86 34//68
f 44//87 33//65 25//49
f 25//50 33//66 44//88
f 45//89 34//67 26//51
f 26//52 34//68 45//90
f 35//69 45//89 26//51
f 26//52 45//90 35//70
f 35//69 18//35 36//71
f 36//72 18//36 35//70
f 46//91 27//53 32//63
f 32//64 27//54 46//92
f 46//91 37//73 27//53
f 27//54 37//74 46//92
f 47//93 28//55 37//73
f 37//74 28//56 47//94
f 47//93 38//75 28//55
f 28//56 38//76 47//94
f 38//75 48//95 29//57
f 29//58 48//96 38//76
f 29//57 48//95 39//77
f 39//78 48//96 29//58
f 22//43 39//77 40//79
f 40//80 39//78 22//44
f 30//59 40//79 49//97
f 49//98 40//80 30//60
f 30//59 49//97 31//61
f 31//62 49//98 30//60
f 50//99 32//63 41//81
f 41//82 32//64 50//100
f 42//83 41//81 24//47
f 24//48 41//82 42//84
f 51//101 42//83 33//65
f 33//66 42//84 51//102
f 52//103 43//85 34//67
f 34//68 43//86 52//104
f 44//87 25//49 43//85
f 43//86 25//50 44//88
f 51//101 33//65 44//87
f 44//88 33//66 51//102
f 45//89 52//103 34//67
f 34//68 52//104 45//90
f 53//105 45//89 35//69
f 35//70 45//90 53//106
f 46//91 32//63 50//99
f 50//100 32//64 46//92
f 54//107 37//73 46//91
f 46//92 37//74 54//108
f 54//107 47//93 37//73
f 37//74 47//94 54//108
f 55//109 38//75 47//93
f 47//94 38//76 55//110
f 38//75 56//111 48//95
f 48//96 56//112 38//76
f 48//95 57//113 39//77
f 39//78 57//114 48//96
f 39//77 58//115 40//79
f 40//80 58//116 39//78
f 40//79 59//117 49//97
f 49//98 59//118 40//80
f 60//119 50//99 41//81
f 41//82 50//100 60//120
f 61//121 41//81 42//83
f 42//84 41//82 61//122
f 62//123 42//83 51//101
f 51//102 42//84 62//124
f 52//103 63//125 43//85
f 43//86 63//126 52//104
f 64//127 44//87 43//85
f 43//86 44//88 64//128
f 51//101 44//87 65//129
f 65//130 44//88 51//102
f 66//131 52//103 45//89
f 45//90 52//104 66//132
f 53//105 66//131 45//89
f 45//90 66//132 53//106
f 67//133 46//91 50//99
f 50//100 46//92 67//134
f 68//135 54//107 46//91
f 46//92 54//108 68//136
f 69//137 47//93 54//107
f 54//108 47//94 69//138
f 55//109 56//111 38//75
f 38//76 56//112 55//110
f 69//137 55//109 47//93
f 47//94 55//110 69//138
f 56//111 70//139 48//95
f 48//96 70//140 56//112
f 48//95 70//139 57//113
f 57//114 70//140 48//96
f 39//77 57//113 58//115
f 58//116 57//114 39//78
f 40//79 58//115 71//141
f 71//142 58//116 40//80
f 40//79 71//141 59//117
f 59//118 71//142 40//80
f 72//143 50//99 60//119
f 60//120 50//100 72//144
f 60//119 41//81 61//121
f 61//122 41//82 60//120
f 61//121 42//83 62//123
f 62//124 42//84 61//122
f 73//145 62//123 51//101
f 51//102 62//124 73//146
f 74//147 63//125 52//103
f 52//104 63//126 74//148
f 64//127 43//85 63//125
f 63//126 43//86 64//128
f 65//129 44//87 64//127
f 64//128 44//88 65//130
f 73//145 51//101 65//129
f 65//130 51//102 73//146
f 66//131 74//147 52//103
f 52//104 74//148 66//132
f 75//149 66//131 53//105
f 53//106 66//132 75//150
f 67//133 76//151 46//91
f 46//92 76//152 67//134
f 67//133 50//99 72//143
f 72//144 50//100 67//134
f 68//135 77//153 54//107
f 54//108 77//154 68//136
f 76//151 68//135 46//91
f 46//92 68//136 76//152
f 77//153 69//137 54//107
f 54//108 69//138 77//154
f 78//155 56//111 55//109
f 55//110 56//112 78//156
f 79//157 55//109 69//137
f 69//138 55//110 79//158
f 78//155 70//139 56//111
f 56//112 70//140 78//156
f 70//139 80//159 57//113
f 57//114 80//160 70//140
f 57//113 81//161 58//115
f 58//116 81//162 57//114
f 58//115 81//161 71//141
f 71//142 81//162 58//116
f 71//141 82//163 59//117
f 59//118 82//164 71//142
f 72//143 60//119 61//121
f 61//122 60//120 72//144
f 83//165 61//121 62//123
f 62//124 61//122 83//166
f 84//167 62//123 73//145
f 73//146 62//124 84//168
f 74//147 85//169 63//125
f 63//126 85//170 74//148
f 86//171 64//127 63//125
f 63//126 64//128 86//172
f 65//129 64//127 87//173
f 87//174 64//128 65//130
f 73//145 65//129 88//175
f 88//176 65//130 73//146
f 66//131 89//177 74//147
f 74//148 89//178 66//132
f 90//179 66//131 75//149
f 75//150 66//132 90//180
f 91//181 76//151 67//133
f 67//134 76//152 91//182
f 92//183 67//133 72//143
f 72//144 67//134 92//184
f 93//185 77//153 68//135
f 68//136 77//154 93//186
f 94//187 68//135 76//151
f 76//152 68//136 94//188
f 77//153 95//189 69//137
f 69//138 95//190 77//154
f 79//157 78//155 55//109
f 55//110 78//156 79//158
f 95//189 79//157 69//137
f 69//138 79//158 95//190
f 96//191 70//139 78//155
f 78//156 70//140 96//192
f 96//191 80//159 70//139
f 70//140 80//160 96//192
f 57//113 80//159 97//193
f 97//194 80//160 57//114
f 57//113 97//193 81//161
f 81//162 97//194 57//114
f 71//141 81//161 82//163
f 82//164 81//162 71//142
f 59//117 82//163 98//195
f 98//196 82//164 59//118
f 72//143 61//121 83//165
f 83//166 61//122 72//144
f 83//165 62//123 84//167
f 84//168 62//124 83//166
f 99//197 84//167 73//145
f 73//146 84//168 99//198
f 89//177 85//169 74//147
f 74//148 85//170 89//178
f 85//169 86//171 63//125
f 63//126 86//172 85//170
f 87//173 64//127 86//171
f 86//172 64//128 87//174
f 88//175 65//129 87//173
f 87//174 65//130 88//176
f 99//197 73//145 88//175
f 88//176 73//146 99//198
f 90//179 89//177 66//131
f 66//132 89//178 90//180
f 100//199 90//179 75//149
f 75//150 90//180 100//200
f 91//181 101//201 76//151
f 76//152 101//202 91//182
f 91//181 67//133 92//183
f 92//184 67//134 91//182
f 92//183 72//143 83//165
f 83//166 72//144 92//184
f 93//185 102//203 77//153
f 77//154 102//204 93//186
f 94//187 93//185 68//135
f 68//136 93//186 94//188
f 101//201 94//187 76//151
f 76//152 94//188 101//202
f 102//203 95//189 77//153
f 77//154 95//190 102//204
f 103//205 78//155 79//157
f 79//158 78//156 103//206
f 95//189 104//207 79//157
f 79//158 104//208 95//190
f 103//205 96//191 78//155
f 78//156 96//192 103//206
f 105//209 80//159 96//191
f 96//192 80//160 105//210
f 80//159 106//211 97//193
f 97//194 106//212 80//160
f 97//193 107//213 81//161
f 81//162 107//214 97//194
f 81//161 108//215 82//163
f 82//164 108//216 81//162
f 82//163 109//217 98//195
f 98//196 109//218 82//164
f 110//219 83//165 84//167
f 84//168 83//166 110//220
f 111//221 84//167 99//197
f 99//198 84//168 111//222
f 112//223 85//169 89//177
f 89//178 85//170 112//224
f 113//225 86//171 85//169
f 85//170 86//172 113//226
f 87//173 86//171 114//227
f 114//228 86//172 87//174
f 88//175 87//173 115//229
f 115//230 87//174 88//176
f 116//231 99//197 88//175
f 88//176 99//198 116//232
f 117//233 89//177 90//179
f 90//180 89//178 117//234
f 118//235 90//179 100//199
f 100//200 90//180 118//236
f 91//181 119//237 101//201
f 101//202 119//238 91//182
f 92//183 120//239 91//181
f 91//182 120//240 92//184
f 92//183 83//165 110//219
f 110//220 83//166 92//184
f 93//185 121//241 102//203
f 102//204 121//242 93//186
f 94//187 122//243 93//185
f 93//186 122//244 94//188
f 101//201 123//245 94//187
f 94//188 123//246 101//202
f 102//203 124//247 95//189
f 95//190 124//248 102//204
f 104//207 103//205 79//157
f 79//158 103//206 104//208
f 124//247 104//207 95//189
f 95//190 104//208 124//248
f 103//205 125//249 96//191
f 96//192 125//250 103//206
f 105//209 106//211 80//159
f 80//160 106//212 105//210
f 125//249 105//209 96//191
f 96//192 105//210 125//250
f 97//193 106//211 107//213
f 107//214 106//212 97//194
f 107//213 126//251 81//161
f 81//162 126//252 107//214
f 81//161 126//251 108//215
f 108//216 126//252 81//162
f 82//163 108//215 109//217
f 109//218 108//216 82//164
f 110//219 84//167 111//221
f 111//222 84//168 110//220
f 127//253 111//221 99//197
f 99//198 111//222 127//254
f 112//223 113//225 85//169
f 85//170 113//226 112//224
f 117//233 112//223 89//177
f 89//178 112//224 117//234
f 114//227 86//171 113//225
f 113//226 86//172 114//228
f 115//229 87//173 114//227
f 114//228 87//174 115//230
f 116//231 88//175 115//229
f 115//230 88//176 116//232
f 127//253 99//197 116//231
f 116//232 99//198 127//254
f 118//235 117//233 90//179
f 90//180 117//234 118//236
f 128//255 118//235 100//199
f 100//200 118//236 128//256
f 120//239 119//237 91//181
f 91//182 119//238 120//240
f 119//237 123//245 101//201
f 101//202 123//246 119//238
f 110//219 120//239 92//183
f 92//184 120//240 110//220
f 122//243 121//241 93//185
f 93//186 121//242 122//244
f 121//241 129//257 102//203
f 102//204 129//258 121//242
f 123//245 122//243 94//187
f 94//188 122//244 123//246
f 102//203 129//257 124//247
f 124//248 129//258 102//204
f 104//207 130//259 103//205
f 103//206 130//260 104//208
f 124//247 131//261 104//207
f 104//208 131//262 124//248
f 130//259 125//249 103//205
f 103//206 125//250 130//260
f 132//263 106//211 105//209
f 105//210 106//212 132//264
f 133//265 105//209 125//249
f 125//250 105//210 133//266
f 134//267 107//213 106//211
f 106//212 107//214 134//268
f 107//213 135//269 126//251
f 126//252 135//270 107//214
f 126//251 135//269 108//215
f 108//216 135//270 126//252
f 109//217 108//215 136//271
f 136//272 108//216 109//218
f 111//221 137//273 110//219
f 110//220 137//274 111//222
f 127//253 137//273 111//221
f 111//222 137//274 127//254
f 138//275 113//225 112//223
f 112//224 113//226 138//276
f 139//277 112//223 117//233
f 117//234 112//224 139//278
f 140//279 114//227 113//225
f 113//226 114//228 140//280
f 115//229 114//227 141//281
f 141//282 114//228 115//230
f 142//283 116//231 115//229
f 115//230 116//232 142//284
f 143//285 127//253 116//231
f 116//232 127//254 143//286
f 144//287 117//233 118//235
f 118//236 117//234 144//288
f 145//289 118//235 128//255
f 128//256 118//236 145//290
f 120//239 146//291 119//237
f 119//238 146//292 120//240
f 146//291 123//245 119//237
f 119//238 123//246 146//292
f 110//219 147//293 120//239
f 120//240 147//294 110//220
f 122//243 148//295 121//241
f 121//242 148//296 122//244
f 121//241 149//297 129//257
f 129//258 149//298 121//242
f 123//245 148//295 122//243
f 122//244 148//296 123//246
f 129//257 150//299 124//247
f 124//248 150//300 129//258
f 131//261 130//259 104//207
f 104//208 130//260 131//262
f 124//247 151//301 131//261
f 131//262 151//302 124//248
f 130//259 152//303 125//249
f 125//250 152//304 130//260
f 132//263 134//267 106//211
f 106//212 134//268 132//264
f 133//265 132//263 105//209
f 105//210 132//264 133//266
f 152//303 133//265 125//249
f 125//250 133//266 152//304
f 134//267 153//305 107//213
f 107//214 153//306 134//268
f 107//213 153//305 135//269
f 135//270 153//306 107//214
f 108//215 135//269 136//271
f 136//272 135//270 108//216
f 109//217 136//271 154//307
f 154//308 136//272 109//218
f 137//273 147//293 110//219
f 110//220 147//294 137//274
f 127//253 155//309 137//273
f 137//274 155//310 127//254
f 140//279 113//225 138//275
f 138//276 113//226 140//280
f 139//277 138//275 112//223
f 112//224 138//276 139//278
f 144//287 139//277 117//233
f 117//234 139//278 144//288
f 141//281 114//227 140//279
f 140//280 114//228 141//282
f 142//283 115//229 141//281
f 141//282 115//230 142//284
f 143//285 116//231 142//283
f 142//284 116//232 143//286
f 156//311 127//253 143//285
f 143//286 127//254 156//312
f 145//289 144//287 118//235
f 118//236 144//288 145//290
f 157//313 145//289 128//255
f 128//256 145//290 157//314
f 158//315 146//291 120//239
f 120//240 146//292 158//316
f 146//291 159//317 123//245
f 123//246 159//318 146//292
f 158//315 120//239 147//293
f 147//294 120//240 158//316
f 148//295 149//297 121//241
f 121//242 149//298 148//296
f 149//297 160//319 129//257
f 129//258 160//320 149//298
f 159//317 148//295 123//245
f 123//246 148//296 159//318
f 129//257 160//319 150//299
f 150//300 160//320 129//258
f 124//247 150//299 151//301
f 151//302 150//300 124//248
f 131//261 161//321 130//259
f 130//260 161//322 131//262
f 131//261 151//301 161//321
f 161//322 151//302 131//262
f 161//321 152//303 130//259
f 130//260 152//304 161//322
f 162//323 134//267 132//263
f 132//264 134//268 162//324
f 163//325 132//263 133//265
f 133//266 132//264 163//326
f 152//303 164//327 133//265
f 133//266 164//328 152//304
f 162//323 153//305 134//267
f 134//268 153//306 162//324
f 135//269 153//305 165//329
f 165//330 153//306 135//270
f 166//331 136//271 135//269
f 135//270 136//272 166//332
f 167//333 154//307 136//271
f 136//272 154//308 167//334
f 168//335 147//293 137//273
f 137//274 147//294 168//336
f 156//311 155//309 127//253
f 127//254 155//310 156//312
f 169//337 137//273 155//309
f 155//310 137//274 169//338
f 140//279 138//275 170//339
f 170//340 138//276 140//280
f 171//341 138//275 139//277
f 139//278 138//276 171//342
f 171//341 139//277 144//287
f 144//288 139//278 171//342
f 141//281 140//279 172//343
f 172//344 140//280 141//282
f 142//283 141//281 173//345
f 173//346 141//282 142//284
f 174//347 143//285 142//283
f 142//284 143//286 174//348
f 174//347 156//311 143//285
f 143//286 156//312 174//348
f 145//289 175//349 144//287
f 144//288 175//350 145//290
f 176//351 145//289 157//313
f 157//314 145//290 176//352
f 177//353 146//291 158//315
f 158//316 146//292 177//354
f 146//291 178//355 159//317
f 159//318 178//356 146//292
f 168//335 158//315 147//293
f 147//294 158//316 168//336
f 148//295 179//357 149//297
f 149//298 179//358 148//296
f 149//297 180//359 160//319
f 160//320 180//360 149//298
f 178//355 148//295 159//317
f 159//318 148//296 178//356
f 160//319 181//361 150//299
f 150//300 181//362 160//320
f 150//299 181//361 151//301
f 151//302 181//362 150//300
f 151//301 182//363 161//321
f 161//322 182//364 151//302
f 161//321 183//365 152//303
f 152//304 183//366 161//322
f 163//325 162//323 132//263
f 132//264 162//324 163//326
f 164//327 163//325 133//265
f 133//266 163//326 164//328
f 183//365 164//327 152//303
f 152//304 164//328 183//366
f 165//329 153//305 162//323
f 162//324 153//306 165//330
f 184//367 135//269 165//329
f 165//330 135//270 184//368
f 167//333 136//271 166//331
f 166//332 136//272 167//334
f 166//331 135//269 184//367
f 184//368 135//270 166//332
f 169//337 168//335 137//273
f 137//274 168//336 169//338
f 185//369 155//309 156//311
f 156//312 155//310 185//370
f 186//371 169//337 155//309
f 155//310 169//338 186//372
f 170//339 138//275 171//341
f 171//342 138//276 170//340
f 172//343 140//279 170//339
f 170//340 140//280 172//344
f 175//349 171//341 144//287
f 144//288 171//342 175//350
f 141//281 172//343 187//373
f 187//374 172//344 141//282
f 173//345 141//281 188//375
f 188//376 141//282 173//346
f 174//347 142//283 173//345
f 173//346 142//284 174//348
f 189//377 156//311 174//347
f 174//348 156//312 189//378
f 176//351 175//349 145//289
f 145//290 175//350 176//352
f 190//379 176//351 157//313
f 157//314 176//352 190//380
f 177//353 191//381 146//291
f 146//292 191//382 177//354
f 177//353 158//315 168//335
f 168//336 158//316 177//354
f 191//381 178//355 146//291
f 146//292 178//356 191//382
f 178//355 179//357 148//295
f 148//296 179//358 178//356
f 179//357 180//359 149//297
f 149//298 180//360 179//358
f 180//359 192//383 160//319
f 160//320 192//384 180//360
f 160//319 192//383 181//361
f 181//362 192//384 160//320
f 181//361 193//385 151//301
f 151//302 193//386 181//362
f 151//301 193//385 182//363
f 182//364 193//386 151//302
f 161//321 182//363 183//365
f 183//366 182//364 161//322
f 194//387 162//323 163//325
f 163//326 162//324 194//388
f 164//327 195//389 163//325
f 163//326 195//390 164//328
f 183//365 196//391 164//327
f 164//328 196//392 183//366
f 194//387 165//329 162//323
f 162//324 165//330 194//388
f 197//393 184//367 165//329
f 165//330 184//368 197//394
f 167//333 166//331 198//395
f 198//396 166//332 167//334
f 166//331 184//367 197//393
f 197//394 184//368 166//332
f 199//397 168//335 169//337
f 169//338 168//336 199//398
f 185//369 186//371 155//309
f 155//310 186//372 185//370
f 189//377 185//369 156//311
f 156//312 185//370 189//378
f 200//399 169//337 186//371
f 186//372 169//338 200//400
f 201//401 170//339 171//341
f 171//342 170//340 201//402
f 172//343 170//339 201//401
f 201//402 170//340 172//344
f 202//403 171//341 175//349
f 175//350 171//342 202//404
f 187//373 172//343 203//405
f 203//406 172//344 187//374
f 188//375 141//281 187//373
f 187//374 141//282 188//376
f 204//407 173//345 188//375
f 188//376 173//346 204//408
f 174//347 173//345 205//409
f 205//410 173//346 174//348
f 206//411 189//377 174//347
f 174//348 189//378 206//412
f 176//351 207//413 175//349
f 175//350 207//414 176//352
f 208//415 176//351 190//379
f 190//380 176//352 208//416
f 209//417 191//381 177//353
f 177//354 191//382 209//418
f 210//419 177//353 168//335
f 168//336 177//354 210//420
f 191//381 211//421 178//355
f 178//356 211//422 191//382
f 178//355 212//423 179//357
f 179//358 212//424 178//356
f 179//357 213//425 180//359
f 180//360 213//426 179//358
f 180//359 213//425 192//383
f 192//384 213//426 180//360
f 192//383 214//427 181//361
f 181//362 214//428 192//384
f 181//361 215//429 193//385
f 193//386 215//430 181//362
f 193//385 216//431 182//363
f 182//364 216//432 193//386
f 182//363 217//433 183//365
f 183//366 217//434 182//364
f 195//389 194//387 163//325
f 163//326 194//388 195//390
f 196//391 195//389 164//327
f 164//328 195//390 196//392
f 217//433 196//391 183//365
f 183//366 196//392 217//434
f 218//435 165//329 194//387
f 194//388 165//330 218//436
f 197//393 165//329 218//435
f 218//436 165//330 197//394
f 198//395 166//331 197//393
f 197//394 166//332 198//396
f 219//437 167//333 198//395
f 198//396 167//334 219//438
f 199//397 210//419 168//335
f 168//336 210//420 199//398
f 200//399 199//397 169//337
f 169//338 199//398 200//400
f 200//399 186//371 185//369
f 185//370 186//372 200//400
f 220//439 185//369 189//377
f 189//378 185//370 220//440
f 201//401 171//341 202//403
f 202//404 171//342 201//402
f 203//405 172//343 201//401
f 201//402 172//344 203//406
f 207//413 202//403 175//349
f 175//350 202//404 207//414
f 187//373 203//405 221//441
f 221//442 203//406 187//374
f 188//375 187//373 222//443
f 222//444 187//374 188//376
f 205//409 173//345 204//407
f 204//408 173//346 205//410
f 204//407 188//375 223//445
f 223//446 188//376 204//408
f 206//411 174//347 205//409
f 205//410 174//348 206//412
f 224//447 189//377 206//411
f 206//412 189//378 224//448
f 208//415 207//413 176//351
f 176//352 207//414 208//416
f 225//449 208//415 190//379
f 190//380 208//416 225//450
f 209//417 226//451 191//381
f 191//382 226//452 209//418
f 227//453 209//417 177//353
f 177//354 209//418 227//454
f 227//453 177//353 210//419
f 210//420 177//354 227//454
f 226//451 211//421 191//381
f 191//382 211//422 226//452
f 211//421 212//423 178//355
f 178//356 212//424 211//422
f 212//423 213//425 179//357
f 179//358 213//426 212//424
f 213//425 228//455 192//383
f 192//384 228//456 213//426
f 192//383 229//457 214//427
f 214//428 229//458 192//384
f 181//361 214//427 215//429
f 215//430 214//428 181//362
f 193//385 215//429 216//431
f 216//432 215//430 193//386
f 182//363 216//431 217//433
f 217//434 216//432 182//364
f 195//389 230//459 194//387
f 194//388 230//460 195//390
f 231//461 195//389 196//391
f 196//392 195//390 231//462
f 217//433 231//461 196//391
f 196//392 231//462 217//434
f 230//459 218//435 194//387
f 194//388 218//436 230//460
f 197//393 218//435 230//459
f 230//460 218//436 197//394
f 198//395 197//393 232//463
f 232//464 197//394 198//396
f 219//437 198//395 233//465
f 233//466 198//396 219//438
f 234//467 210//419 199//397
f 199//398 210//420 234//468
f 234//467 199//397 200//399
f 200//400 199//398 234//468
f 235//469 200//399 185//369
f 185//370 200//400 235//470
f 220//439 235//469 185//369
f 185//370 235//470 220//440
f 224//447 220//439 189//377
f 189//378 220//440 224//448
f 236//471 201//401 202//403
f 202//404 201//402 236//472
f 203//405 201//401 236//471
f 236//472 201//402 203//406
f 237//473 202//403 207//413
f 207//414 202//404 237//474
f 221//441 203//405 238//475
f 238//476 203//406 221//442
f 222//443 187//373 221//441
f 221//442 187//374 222//444
f 223//445 188//375 222//443
f 222//444 188//376 223//446
f 206//411 205//409 204//407
f 204//408 205//410 206//412
f 239//477 204//407 223//445
f 223//446 204//408 239//478
f 239//477 224//447 206//411
f 206//412 224//448 239//478
f 208//415 237//473 207//413
f 207//414 237//474 208//416
f 240//479 208//415 225//449
f 225//450 208//416 240//480
f 234//467 227//453 210//419
f 210//420 227//454 234//468
f 192//383 228//455 229//457
f 229//458 228//456 192//384
f 214//427 229//457 215//429
f 215//430 229//458 214//428
f 215//429 241//481 216//431
f 216//432 241//482 215//430
f 217//433 216//431 242//483
f 242//484 216//432 217//434
f 231//461 230//459 195//389
f 195//390 230//460 231//462
f 217//433 242//483 231//461
f 231//462 242//484 217//434
f 197//393 230//459 243//485
f 243//486 230//460 197//394
f 232//463 197//393 243//485
f 243//486 197//394 232//464
f 233//465 198//395 232//463
f 232//464 198//396 233//466
f 244//487 234//467 200//399
f 200//400 234//468 244//488
f 245//489 200//399 235//469
f 235//470 200//400 245//490
f 246//491 235//469 220//439
f 220//440 235//470 246//492
f 224//447 246//491 220//439
f 220//440 246//492 224//448
f 236//471 202//403 247//493
f 247//494 202//404 236//472
f 238//475 203//405 236//471
f 236//472 203//406 238//476
f 237//473 247//493 202//403
f 202//404 247//494 237//474
f 221//441 238//475 248//495
f 248//496 238//476 221//442
f 222//443 221//441 249//497
f 249//498 221//442 222//444
f 223//445 222//443 250//499
f 250//500 222//444 223//446
f 206//411 204//407 239//477
f 239//478 204//408 206//412
f 239//477 223//445 251//501
f 251//502 223//446 239//478
f 252//503 224//447 239//477
f 239//478 224//448 252//504
f 240//479 237//473 208//415
f 208//416 237//474 240//480
f 253//505 240//479 225//449
f 225//450 240//480 253//506
f 229//457 254//507 215//429
f 215//430 254//508 229//458
f 215//429 254//507 241//481
f 241//482 254//508 215//430
f 216//431 241//481 242//483
f 242//484 241//482 216//432
f 255//509 230//459 231//461
f 231//462 230//460 255//510
f 231//461 242//483 255//509
f 255//510 242//484 231//462
f 243//485 230//459 255//509
f 255//510 230//460 243//486
f 232//463 243//485 256//511
f 256//512 243//486 232//464
f 233//465 232//463 257//513
f 257//514 232//464 233//466
f 245//489 244//487 200//399
f 200//400 244//488 245//490
f 246//491 245//489 235//469
f 235//470 245//490 246//492
f 258//515 246//491 224//447
f 224//448 246//492 258//516
f 259//517 236//471 247//493
f 247//494 236//472 259//518
f 238//475 236//471 259//517
f 259//518 236//472 238//476
f 237//473 260//519 247//493
f 247//494 260//520 237//474
f 248//495 238//475 261//521
f 261//522 238//476 248//496
f 249//497 221//441 248//495
f 248//496 221//442 249//498
f 250//499 222//443 249//497
f 249//498 222//444 250//500
f 251//501 223//445 250//499
f 250//500 223//446 251//502
f 262//523 239//477 251//501
f 251//502 239//478 262//524
f 258//515 224//447 252//503
f 252//504 224//448 258//516
f 262//523 252//503 239//477
f 239//478 252//504 262//524
f 240//479 263//525 237//473
f 237//474 263//526 240//480
f 253//505 264//527 240//479
f 240//480 264//528 253//506
f 254//507 265//529 241//481
f 241//482 265//530 254//508
f 241//481 266//531 242//483
f 242//484 266//532 241//482
f 242//483 266//531 255//509
f 255//510 266//532 242//484
f 256//511 243//485 255//509
f 255//510 243//486 256//512
f 257//513 232//463 256//511
f 256//512 232//464 257//514
f 267//533 245//489 246//491
f 246//492 245//490 267//534
f 268//535 246//491 258//515
f 258//516 246//492 268//536
f 259//517 247//493 260//519
f 260//520 247//494 259//518
f 261//521 238//475 259//517
f 259//518 238//476 261//522
f 263//525 260//519 237//473
f 237//474 260//520 263//526
f 248//495 261//521 269//537
f 269//538 261//522 248//496
f 249//497 248//495 270//539
f 270//540 248//496 249//498
f 250//499 249//497 271//541
f 271//542 249//498 250//500
f 251//501 250//499 272//543
f 272//544 250//500 251//502
f 272//543 262//523 251//501
f 251//502 262//524 272//544
f 273//545 258//515 252//503
f 252//504 258//516 273//546
f 274//547 252//503 262//523
f 262//524 252//504 274//548
f 264//527 263//525 240//479
f 240//480 263//526 264//528
f 275//549 264//527 253//505
f 253//506 264//528 275//550
f 241//481 265//529 266//531
f 266//532 265//530 241//482
f 266//531 256//511 255//509
f 255//510 256//512 266//532
f 276//551 257//513 256//511
f 256//512 257//514 276//552
f 268//535 267//533 246//491
f 246//492 267//534 268//536
f 273//545 268//535 258//515
f 258//516 268//536 273//546
f 263//525 259//517 260//519
f 260//520 259//518 263//526
f 277//553 261//521 259//517
f 259//518 261//522 277//554
f 278//555 269//537 261//521
f 261//522 269//538 278//556
f 270//539 248//495 269//537
f 269//538 248//496 270//540
f 271//541 249//497 270//539
f 270//540 249//498 271//542
f 279//557 250//499 271//541
f 271//542 250//500 279//558
f 272//543 250//499 279//557
f 279//558 250//500 272//544
f 280//559 262//523 272//543
f 272//544 262//524 280//560
f 274//547 273//545 252//503
f 252//504 273//546 274//548
f 274//547 262//523 280//559
f 280//560 262//524 274//548
f 264//527 281//561 263//525
f 263//526 281//562 264//528
f 275//549 281//561 264//527
f 264//528 281//562 275//550
f 265//529 276//551 266//531
f 266//532 276//552 265//530
f 276//551 256//511 266//531
f 266//532 256//512 276//552
f 282//563 268//535 273//545
f 273//546 268//536 282//564
f 263//525 277//553 259//517
f 259//518 277//554 263//526
f 277//553 278//555 261//521
f 261//522 278//556 277//554
f 278//555 283//565 269//537
f 269//538 283//566 278//556
f 284//567 270//539 269//537
f 269//538 270//540 284//568
f 285//569 271//541 270//539
f 270//540 271//542 285//570
f 285//569 279//557 271//541
f 271//542 279//558 285//570
f 280//559 272//543 279//557
f 279//558 272//544 280//560
f 286//571 273//545 274//547
f 274//548 273//546 286//572
f 287//573 274//547 280//559
f 280//560 274//548 287//574
f 281//561 277//553 263//525
f 263//526 277//554 281//562
f 275//549 288//575 281//561
f 281//562 288//576 275//550
f 286//571 282//563 273//545
f 273//546 282//564 286//572
f 281//561 278//555 277//553
f 277//554 278//556 281//562
f 289//577 283//565 278//555
f 278//556 283//566 289//578
f 284//567 269//537 283//565
f 283//566 269//538 284//568
f 285//569 270//539 284//567
f 284//568 270//540 285//570
f 290//579 279//557 285//569
f 285//570 279//558 290//580
f 290//579 280//559 279//557
f 279//558 280//560 290//580
f 287//573 286//571 274//547
f 274//548 286//572 287//574
f 291//581 287//573 280//559
f 280//560 287//574 291//582
f 288//575 289//577 281//561
f 281//562 289//578 288//576
f 281//561 289//577 278//555
f 278//556 289//578 281//562
f 289//577 292//583 283//565
f 283//566 292//584 289//578
f 293//585 284//567 283//565
f 283//566 284//568 293//586
f 294//587 285//569 284//567
f 284//568 285//570 294//588
f 291//581 290//579 285//569
f 285//570 290//580 291//582
f 291//581 280//559 290//579
f 290//580 280//560 291//582
f 295//589 286//571 287//573
f 287//574 286//572 295//590
f 296//591 287//573 291//581
f 291//582 287//574 296//592
f 288//575 297//593 289//577
f 289//578 297//594 288//576
f 297//593 292//583 289//577
f 289//578 292//584 297//594
f 293//585 283//565 292//583
f 292//584 283//566 293//586
f 294//587 284//567 293//585
f 293//586 284//568 294//588
f 291//581 285//569 294//587
f 294//588 285//570 291//582
f 296//591 295//589 287//573
f 287//574 295//590 296//592
f 296//591 291//581 298//595
f 298//596 291//582 296//592
f 297//593 299//597 292//583
f 292//584 299//598 297//594
f 300//599 293//585 292//583
f 292//584 293//586 300//600
f 298//595 294//587 293//585
f 293//586 294//588 298//596
f 298//595 291//581 294//587
f 294//588 291//582 298//596
f 300//599 292//583 299//597
f 299//598 292//584 300//600
f 298//595 293//585 300//599
f 300//600 293//586 298//596
