# SSTK version 0.8.0
# 16
mtllib original-16.mtl
o mesh16/mesh16-geometry#mesh16-geometry
v 0.209907 0.245514 -0.177200
v 0.209907 0.226704 -0.146737
v 0.209907 0.244976 -0.146659
v 0.214146 0.226704 -0.146737
v 0.209907 0.245369 -0.146990
v 0.214146 0.245514 -0.177200
v 0.214146 0.244976 -0.146659
v 0.214146 0.245369 -0.146990
vn -0.7071067292732804 -0.601648769649487 -0.37150885776210274
vn -1 0 0
vn 1 0 0
vn 0.7071067292732804 0.601648769649487 0.37150885776210274
vn 0.4472140956043215 -0.7610321626915705 -0.46992510045942404
vn -0.4472140956043215 0.7610321626915705 0.46992510045942404
vn 0.8944271359735068 -0.380516057847197 -0.23496303571978835
vn -0.8944271359735068 0.380516057847197 0.23496303571978835
vn 1 0 -9.999999999995e-7
vn -1 0 9.999999999995e-7
usemtl material_0_0
f 1//1 2//1 3//2
f 3//3 2//4 1//4
f 4//5 2//1 1//1
f 1//4 2//4 4//6
f 1//1 3//2 5//2
f 5//3 3//3 1//4
f 4//5 1//1 6//7
f 6//8 1//4 4//6
f 6//7 7//9 4//5
f 4//6 7//10 6//8
f 6//7 8//9 7//9
f 7//10 8//10 6//8
