# SSTK version 0.8.0
# 6
mtllib original-6.mtl
o mesh6/mesh6-geometry#mesh6-geometry
v 0.221930 0.855475 -0.061470
v 0.182555 0.816525 -0.061470
v 0.222499 0.853289 -0.061470
v 0.182342 0.816705 -0.061470
v 0.182642 0.816251 -0.061470
v 0.222835 0.853601 -0.061470
v 0.220394 0.857020 -0.061470
v 0.182223 0.816196 -0.061470
v 0.182305 0.815938 -0.061470
v 0.182644 0.675677 -0.061470
v 0.223115 0.610975 -0.061470
v 0.222263 0.855804 -0.061470
v 0.182072 0.816770 -0.061470
v 0.220715 0.857361 -0.061470
v 0.182021 0.816365 -0.061470
v 0.222777 0.611516 -0.061470
v 0.223399 0.854125 -0.061624
v 0.222810 0.856346 -0.061624
v 0.218219 0.857592 -0.061470
v 0.218524 0.857936 -0.061470
v 0.182021 0.816365 -0.065908
v 0.182223 0.816196 -0.065908
v 0.182305 0.676219 -0.061470
v 0.182576 0.675390 -0.061470
v 0.222201 0.609312 -0.061470
v 0.223524 0.610322 -0.061624
v 0.221243 0.857920 -0.061624
v -0.181266 0.816770 -0.061470
v 0.181767 0.816425 -0.061470
v 0.219034 0.858512 -0.061624
v 0.182036 0.816182 -0.065908
v 0.182241 0.675948 -0.061470
v 0.222535 0.608754 -0.061470
v 0.223139 0.856671 -0.062086
v 0.223737 0.854440 -0.062086
v 0.221561 0.858256 -0.062086
v -0.217427 0.857592 -0.061470
v -0.180961 0.816425 -0.061470
v -0.218242 0.858513 -0.061624
v 0.182021 0.816365 -0.070347
v 0.182223 0.816196 -0.070347
v 0.182305 0.815938 -0.070347
v 0.182305 0.676219 -0.065908
v 0.182058 0.675772 -0.061470
v 0.182381 0.675202 -0.061470
v 0.220659 0.607751 -0.061470
v 0.222931 0.608094 -0.061624
v 0.223769 0.609931 -0.062086
v 0.219340 0.858858 -0.062086
v -0.181688 0.816693 -0.061470
v -0.181368 0.816352 -0.061470
v -0.217732 0.857936 -0.061470
v -0.180961 0.816425 -0.065908
v -0.218548 0.858858 -0.062086
v 0.181767 0.816425 -0.070347
v 0.182305 0.676219 -0.070347
v 0.182004 0.675828 -0.065908
v 0.220982 0.607182 -0.061470
v 0.221666 0.858368 -0.062856
v 0.223248 0.856779 -0.062856
v 0.223850 0.854544 -0.062856
v 0.219442 0.858974 -0.062856
v -0.219605 0.857018 -0.061470
v -0.181506 0.816145 -0.065908
v -0.219925 0.857359 -0.061470
v -0.220452 0.857920 -0.061624
v -0.220769 0.858256 -0.062086
v 0.182180 0.816683 -0.070347
v 0.181808 0.816772 -0.070347
v 0.182522 0.816397 -0.070347
v 0.182652 0.815992 -0.070347
v 0.182241 0.675948 -0.070347
v 0.182058 0.675772 -0.065908
v 0.182074 0.675135 -0.061470
v 0.218481 0.607166 -0.061470
v 0.218788 0.606593 -0.061470
v 0.221362 0.606512 -0.061624
v 0.223169 0.607698 -0.062086
v 0.223850 0.609800 -0.062856
v -0.218651 0.858974 -0.062856
v -0.181913 0.816500 -0.061470
v -0.181582 0.816171 -0.061470
v -0.181582 0.816171 -0.065908
v -0.180961 0.816425 -0.070347
v -0.220874 0.858368 -0.062856
v -0.180991 0.816772 -0.070347
v 0.182652 0.676179 -0.070347
v 0.182058 0.675772 -0.070347
v 0.181767 0.675709 -0.061470
v 0.181767 0.675709 -0.070347
v 0.219442 0.858974 -0.069945
v 0.221666 0.858368 -0.069945
v 0.223248 0.856779 -0.069945
v 0.223850 0.854544 -0.069945
v -0.218651 0.858974 -0.069945
v -0.221473 0.855802 -0.061470
v -0.221142 0.855473 -0.061470
v -0.181582 0.816171 -0.070347
v -0.181368 0.816352 -0.070347
v -0.222019 0.856345 -0.061624
v -0.222347 0.856670 -0.062086
v -0.222456 0.856779 -0.062856
v 0.222937 0.856600 -0.070347
v 0.219396 0.858627 -0.070347
v -0.218604 0.858627 -0.070347
v 0.223504 0.854499 -0.070347
v 0.223504 0.609846 -0.070347
v 0.182555 0.675769 -0.070347
v -0.180961 0.675709 -0.061470
v -0.180961 0.675709 -0.070347
v -0.181268 0.675135 -0.061470
v -0.217689 0.607166 -0.061470
v -0.217996 0.606593 -0.061470
v 0.219152 0.605914 -0.061624
v 0.221590 0.606110 -0.062086
v 0.223248 0.607566 -0.062856
v 0.223850 0.609800 -0.069945
v -0.220874 0.858368 -0.069945
v -0.181979 0.816251 -0.061470
v -0.181643 0.815938 -0.061470
v -0.181643 0.815938 -0.070347
v -0.181521 0.816677 -0.070347
v -0.222456 0.856779 -0.069945
v 0.221486 0.858058 -0.070347
v 0.182228 0.675454 -0.070347
v -0.181262 0.675816 -0.065908
v 0.181804 0.675362 -0.070347
v 0.221666 0.858368 -0.070347
v 0.219442 0.858974 -0.070347
v 0.223248 0.856779 -0.070347
v 0.223850 0.854544 -0.070347
v 0.223850 0.609800 -0.070347
v -0.218651 0.858974 -0.070347
v -0.222608 0.854124 -0.061624
v -0.222045 0.853599 -0.061470
v -0.221709 0.853287 -0.061470
v -0.181643 0.676219 -0.065908
v -0.181990 0.815983 -0.070347
v -0.181889 0.816365 -0.070347
v -0.222946 0.854439 -0.062086
v -0.223058 0.854544 -0.062856
v -0.223058 0.854544 -0.069945
v -0.220694 0.858058 -0.070347
v 0.222937 0.607745 -0.070347
v 0.221486 0.606286 -0.070347
v -0.181330 0.675759 -0.061470
v -0.180984 0.675362 -0.070347
v -0.181330 0.675759 -0.070347
v -0.219869 0.607751 -0.061470
v -0.218360 0.605914 -0.061624
v 0.219370 0.605507 -0.062086
v 0.221666 0.605976 -0.062856
v 0.223248 0.607566 -0.069945
v 0.223248 0.607566 -0.070347
v -0.220874 0.858368 -0.070347
v -0.181981 0.675677 -0.061470
v -0.181643 0.676219 -0.061470
v -0.181643 0.676219 -0.070347
v -0.181990 0.676173 -0.070347
v -0.222456 0.856779 -0.070347
v 0.219396 0.605718 -0.070347
v -0.181330 0.675759 -0.065908
v -0.181653 0.675190 -0.061470
v -0.220191 0.607182 -0.061470
v -0.222977 0.609931 -0.062086
v -0.222733 0.610323 -0.061624
v -0.221988 0.611517 -0.061470
v -0.222712 0.854499 -0.070347
v -0.223058 0.609800 -0.062856
v -0.222146 0.856600 -0.070347
v -0.223058 0.609800 -0.069945
v -0.223058 0.854544 -0.070347
v 0.221666 0.605976 -0.070347
v -0.181562 0.675922 -0.061470
v -0.181562 0.675922 -0.070347
v -0.181896 0.675365 -0.061470
v -0.218604 0.605718 -0.070347
v -0.181460 0.675427 -0.070347
v -0.221411 0.609312 -0.061470
v -0.220571 0.606512 -0.061624
v -0.218578 0.605507 -0.062086
v 0.219442 0.605371 -0.062856
v 0.221666 0.605976 -0.069945
v -0.222325 0.610976 -0.061470
v -0.181864 0.675711 -0.070347
v -0.222712 0.609846 -0.070347
v 0.219442 0.605371 -0.070347
v -0.221745 0.608755 -0.061470
v -0.222377 0.607698 -0.062086
v -0.222456 0.607566 -0.062856
v -0.222140 0.608094 -0.061624
v -0.223058 0.609800 -0.070347
v -0.222456 0.607566 -0.069945
v -0.218651 0.605371 -0.070347
v -0.220694 0.606286 -0.070347
v -0.220798 0.606110 -0.062086
v -0.218651 0.605371 -0.062856
v 0.219442 0.605371 -0.069945
v -0.222146 0.607745 -0.070347
v -0.222456 0.607566 -0.070347
v -0.220874 0.605976 -0.062856
v -0.220874 0.605976 -0.069945
v -0.218651 0.605371 -0.069945
v -0.220874 0.605976 -0.070347
vn 0 0 1
vn 0 0 -1
vn 0.11666698314383885 0.019076997243736342 0.9929878565321321
vn -0.11666698314383885 -0.019076997243736342 -0.9929878565321321
vn -0.5361569693087676 -0.4412189747433031 0.7196259588064523
vn 0.5361569693087676 0.4412189747433031 -0.7196259588064523
vn -0.4362670247018759 0.14875000842237426 0.8874370502475747
vn 0.4362670247018759 -0.14875000842237426 -0.8874370502475747
vn 0.12613703046707894 -0.009614002322161813 0.9919662395990584
vn -0.12613703046707894 0.009614002322161813 -0.9919662395990584
vn 0.09981998081280478 0.0670499871117866 0.9927438091767888
vn -0.09981998081280478 -0.0670499871117866 -0.9927438091767888
vn 0.04226100923339761 0.09455502065885572 0.9946222173100588
vn -0.04226100923339761 -0.09455502065885572 -0.9946222173100588
vn 0.035596000722136076 -0.47803900969797763 0.8776170178042164
vn -0.035596000722136076 0.47803900969797763 -0.8776170178042164
vn 0.5409051616976722 0.07797602331007773 0.8374612503498661
vn -0.5409051616976722 -0.07797602331007773 -0.8374612503498661
vn 0.40476884718805073 0.2535509042771985 0.8785636683167996
vn -0.40476884718805073 -0.2535509042771985 -0.8785636683167996
vn 0.007997000926956424 0.1047530121422364 0.9944661152715576
vn -0.007997000926956424 -0.1047530121422364 -0.9944661152715576
vn -0.1935939489337949 -0.9810817412102925 0
vn 0.1935939489337949 0.9810817412102925 0
vn -0.9989452577688664 -0.04591701184847318 -0.0000020000005160923953
vn 0.9989452577688664 0.04591701184847318 0.0000020000005160923953
vn -0.8201556093005151 0.06265297015385497 0.5686997290871528
vn 0.8201556093005151 -0.06265297015385497 -0.5686997290871528
vn 0.5938039484221912 -0.060949994705883866 0.8022979303124047
vn -0.5938039484221912 0.060949994705883866 -0.8022979303124047
vn 0.21628203811917188 0.4292340756514392 0.8769151545541174
vn -0.21628203811917188 -0.4292340756514392 -0.8769151545541174
vn -0.06384497740906526 -0.8156657113844881 0.5749897965453586
vn 0.06384497740906526 0.8156657113844881 -0.5749897965453586
vn 0.054064973270418995 0.5311667373925577 0.8455405819669537
vn -0.054064973270418995 -0.5311667373925577 -0.8455405819669537
vn 0.3753188974294878 -0.9268957466896228 9.999997265052996e-7
vn -0.3753188974294878 0.9268957466896228 -9.999997265052996e-7
vn -0.9017691222411253 0.43221805859018736 -0.000001000000135461056
vn 0.9017691222411253 -0.43221805859018736 0.000001000000135461056
vn -0.5836549303577142 0.3703689558072083 0.7226159137767518
vn 0.5836549303577142 -0.3703689558072083 -0.7226159137767518
vn 0.11092804519337049 -0.04674701904527725 0.9927284044490509
vn -0.11092804519337049 0.04674701904527725 -0.9927284044490509
vn 0.7650836484900492 0.44971979338078544 0.460867788258952
vn -0.7650836484900492 -0.44971979338078544 -0.460867788258952
vn 0.9160776140378029 0.12201894859092632 0.3819858390615692
vn -0.9160776140378029 -0.12201894859092632 -0.3819858390615692
vn 0.43086289868992594 0.7711388186798374 0.4687238897875587
vn -0.43086289868992594 -0.7711388186798374 -0.4687238897875587
vn 0.149516025213039 -0.6791191145205452 0.7186391211848439
vn -0.149516025213039 0.6791191145205452 -0.7186391211848439
vn -0.07831696517315818 0.5217977679612802 0.8494666222499224
vn 0.07831696517315818 -0.5217977679612802 -0.8494666222499224
vn 0.035599995653062794 -0.47803894162905836 -0.8776168928385959
vn -0.035599995653062794 0.47803894162905836 0.8776168928385959
vn -0.5361558709403274 -0.441218893792889 -0.7196268267764886
vn 0.5361558709403274 0.441218893792889 0.7196268267764886
vn -0.5353579178873441 0.18253697200266408 -0.824664873513736
vn 0.5353579178873441 -0.18253697200266408 0.824664873513736
vn -0.9570748272925133 0.28984094769719126 9.999998196109062e-7
vn 0.9570748272925133 -0.28984094769719126 -9.999998196109062e-7
vn -0.36595014176087853 0.2265570877631351 0.9026363496610804
vn 0.36595014176087853 -0.2265570877631351 -0.9026363496610804
vn 0.467453905397623 -0.22785595388697258 0.8541478271392884
vn -0.467453905397623 0.22785595388697258 -0.8541478271392884
vn 0.9289941170973934 -0.11632501466247831 0.351338044285285
vn -0.9289941170973934 0.11632501466247831 -0.351338044285285
vn 0.11270801154079378 0.9013080922898973 0.4182590428278462
vn -0.11270801154079378 -0.9013080922898973 -0.4182590428278462
vn 0.12112698535272018 -0.6513639212338228 0.749034909422959
vn -0.12112698535272018 0.6513639212338228 -0.749034909422959
vn -0.022757999507869647 0.13760299702440382 0.9902259785868586
vn 0.022757999507869647 -0.13760299702440382 -0.9902259785868586
vn 0.1559499923798937 -0.9877649517353364 0
vn -0.1559499923798937 0.9877649517353364 0
vn -0.12338504396302438 0.9036223219674678 0.41017414614815084
vn 0.12338504396302438 -0.9036223219674678 -0.41017414614815084
vn -0.054126026397458955 -0.6915463372696513 -0.7203013512935759
vn 0.054126026397458955 0.6915463372696513 0.7203013512935759
vn -0.6956209684709804 0.053152997590840606 -0.7164399675273593
vn 0.6956209684709804 -0.053152997590840606 0.7164399675273593
vn -0.9603326651613481 0.2788569027711201 9.99999651392601e-7
vn 0.9603326651613481 -0.2788569027711201 -9.99999651392601e-7
vn 0.06852097207459186 -0.09667496060056309 0.9929545953259055
vn -0.06852097207459186 0.09667496060056309 -0.9929545953259055
vn 0.499431077052732 0.8607891328034185 0.09803401512478725
vn -0.499431077052732 -0.8607891328034185 -0.09803401512478725
vn 0.8623018843420429 0.497648933251846 0.09370698743136384
vn -0.8623018843420429 -0.497648933251846 -0.09370698743136384
vn 0.9887988171933636 0.1309729757860459 0.07157498676739664
vn -0.9887988171933636 -0.1309729757860459 -0.07157498676739664
vn 0.13141303967136864 0.987752298185672 0.0841190253941078
vn -0.13141303967136864 -0.987752298185672 -0.0841190253941078
vn 0.10933795963959439 -0.9940046330786645 0
vn -0.10933795963959439 0.9940046330786645 0
vn -0.05608899696796913 0.08233699554906776 0.9950249462114406
vn 0.05608899696796913 -0.08233699554906776 -0.9950249462114406
vn -0.2545999583687093 0.4016129343296638 0.8797078561532623
vn 0.2545999583687093 -0.4016129343296638 -0.8797078561532623
vn -0.45233719792335064 0.7619263333862736 0.46352920282049204
vn 0.45233719792335064 -0.7619263333862736 -0.46352920282049204
vn -0.5836503048318791 0.3703811934445923 -0.7226133774102262
vn 0.5836503048318791 -0.3703811934445923 0.7226133774102262
vn -0.2125700940854576 0.9754714317525305 0.05717902530795703
vn 0.2125700940854576 -0.9754714317525305 -0.05717902530795703
vn 0.017590993606149942 -0.10237196279056256 0.9945906384932225
vn -0.017590993606149942 0.10237196279056256 -0.9945906384932225
vn 0.25614790940229354 -0.3936308607755448 0.88286068773841
vn -0.25614790940229354 0.3936308607755448 -0.88286068773841
vn 0.7875629752492589 -0.43390098636379404 0.4375779862482368
vn -0.7875629752492589 0.43390098636379404 -0.4375779862482368
vn 0.9892351976462447 -0.1305090260753145 0.06619001322456737
vn -0.9892351976462447 0.1305090260753145 -0.06619001322456737
vn -0.13220396651029373 0.9880107497186305 0.07972997980292389
vn 0.13220396651029373 -0.9880107497186305 -0.07972997980292389
vn 0.4341661527961211 -0.01602200563862564 0.9006903169799991
vn -0.4341661527961211 0.01602200563862564 -0.9006903169799991
vn 0.6471091392443125 -0.7604811636395938 0.054020011623973165
vn -0.6471091392443125 0.7604811636395938 -0.054020011623973165
vn 0.149516025213039 -0.679119114520545 -0.7186391211848441
vn -0.149516025213039 0.679119114520545 0.7186391211848441
vn -0.5008261191953784 0.8603602047636022 0.09462302252004567
vn 0.5008261191953784 -0.8603602047636022 -0.09462302252004567
vn -0.45572010084061587 0.28214606243258245 -0.8442231868076169
vn 0.45572010084061587 -0.28214606243258245 0.8442231868076169
vn 0.12449302647456535 0.6487921379715018 0.7507131596459269
vn -0.12449302647456535 -0.6487921379715018 -0.7507131596459269
vn 0.25977292720773937 0.9656697294048946 -9.99999719570696e-7
vn -0.25977292720773937 -0.9656697294048946 9.99999719570696e-7
vn -0.2125700333100457 0.9754711528578048 -0.057184008960820466
vn 0.2125700333100457 -0.9754711528578048 0.057184008960820466
vn 0.12452003376660022 0.6487741759307124 -0.7507242035769126
vn -0.12452003376660022 -0.6487741759307124 0.7507242035769126
vn 0.17646692303061542 0.984306570676081 0
vn -0.17646692303061542 -0.984306570676081 0
vn 0.5774676793842587 0.8164135467191606 0
vn -0.5774676793842587 -0.8164135467191606 0
vn 0.9069802646886242 0.4211731229130763 -0.0000010000002917416085
vn -0.9069802646886242 -0.4211731229130763 0.0000010000002917416085
vn 0.9961707552996494 0.0874289785238609 0
vn -0.9961707552996494 -0.0874289785238609 0
vn -0.08823596463079712 0.9960996007155472 0
vn 0.08823596463079712 -0.9960996007155472 0
vn -0.09577599788143495 0.042199999066535814 0.9945079780014838
vn 0.09577599788143495 -0.042199999066535814 -0.9945079780014838
vn 0.9574546160215203 0.2885838842660537 9.999995990233198e-7
vn -0.9574546160215203 -0.2885838842660537 -9.999995990233198e-7
vn 0.53998013831998 -0.01991100510035376 -0.841442215541762
vn 0.64708008453293 -0.760506099350622 -0.05401700705664738
vn -0.64708008453293 0.760506099350622 0.05401700705664738
vn -0.53998013831998 0.01991100510035376 0.841442215541762
vn 0.12113404435687249 -0.6513702385187975 -0.7490282742792238
vn -0.12113404435687249 0.6513702385187975 0.7490282742792238
vn -0.43266206139518354 0.21552703058350314 0.8754151242222905
vn 0.43266206139518354 -0.21552703058350314 -0.8754151242222905
vn -0.7738037447368892 0.4283888586826782 0.4665948460792511
vn 0.7738037447368892 -0.4283888586826782 -0.4665948460792511
vn -0.8626670272874526 0.4962820156981449 0.09751800308464088
vn 0.8626670272874526 -0.4962820156981449 -0.09751800308464088
vn 0.03693298641165508 0.8221926974997404 0.5680097910184444
vn -0.03693298641165508 -0.8221926974997404 -0.5680097910184444
vn 0.03134900890573744 0.6978841982574139 -0.7155242032686489
vn -0.03134900890573744 -0.6978841982574139 0.7155242032686489
vn -0.007496002322906535 -0.09150602835644171 0.9957763085771848
vn 0.007496002322906535 0.09150602835644171 -0.9957763085771848
vn 0.07481098209391877 -0.48454988402251475 0.8715587913915567
vn -0.07481098209391877 0.48454988402251475 -0.8715587913915567
vn 0.4529418927968196 -0.7546798213808918 0.47465988765656164
vn -0.4529418927968196 0.7546798213808918 -0.47465988765656164
vn 0.8633130528619548 -0.49651203040217734 0.0903680055333686
vn -0.8633130528619548 0.49651203040217734 -0.0903680055333686
vn 0.9845936726226583 -0.17485794185974401 0
vn -0.9845936726226583 0.17485794185974401 0
vn -0.424113106526623 0.9056092274664264 0
vn 0.424113106526623 -0.9056092274664264 0
vn 0.820712311047973 -0.07095002688988804 0.5669192148610058
vn -0.820712311047973 0.07095002688988804 -0.5669192148610058
vn 0.6960524007491528 -0.06015703463515179 -0.7154664119266856
vn -0.6960524007491528 0.06015703463515179 0.7154664119266856
vn -0.8187825890101356 0.5741037118272788 0
vn 0.8187825890101356 -0.5741037118272788 0
vn -0.17950193084079138 0.9837576209740017 0
vn 0.17950193084079138 -0.9837576209740017 0
vn 0.2952860367600133 0.6305160784926362 -0.7178130893601979
vn -0.2952860367600133 -0.6305160784926362 0.7178130893601979
vn 0.0621449839724689 0.7015748190600188 -0.7098808169178564
vn -0.0621449839724689 -0.7015748190600188 0.7098808169178564
vn 0.5701583189668935 0.39976222364124214 -0.7177114015133489
vn -0.5701583189668935 -0.39976222364124214 0.7177114015133489
vn 0.6935210451145858 0.12316600801213398 -0.7098300461755107
vn -0.6935210451145858 -0.12316600801213398 0.7098300461755107
vn 0.7016758934277193 -0.06158299064662198 -0.7098298921892696
vn -0.7016758934277193 0.06158299064662198 0.7098298921892696
vn -0.12429298111778461 0.6932678946808293 -0.7098808921570325
vn 0.12429298111778461 -0.6932678946808293 0.7098808921570325
vn -0.5567069841023972 0.054791998435332126 0.8288999763295181
vn 0.5567069841023972 -0.054791998435332126 -0.8288999763295181
vn -0.1201930371115891 0.00812300250811122 0.9927173065178955
vn 0.1201930371115891 -0.00812300250811122 -0.9927173065178955
vn 0.9697203345899378 0.2442180842644118 0.0000010000003450919059
vn -0.9697203345899378 -0.2442180842644118 -0.0000010000003450919059
vn -0.906625971440829 0.11227899646315544 0.4067219871880542
vn 0.906625971440829 -0.11227899646315544 -0.4067219871880542
vn -0.9880374203373912 0.13021705539779788 0.08261703514748361
vn 0.9880374203373912 -0.13021705539779788 -0.08261703514748361
vn -0.9845954247890188 0.17484807543559572 0.0000010000004314741031
vn 0.9845954247890188 -0.17484807543559572 -0.0000010000004314741031
vn 0.015046002445299085 0.5403650878209515 0.8412961367287213
vn -0.015046002445299085 -0.5403650878209515 -0.8412961367287213
vn 0.01808900017421516 0.6499040062592257 -0.7598010073176432
vn -0.01808900017421516 -0.6499040062592257 0.7598010073176432
vn -0.05123101283600872 -0.49170012319621903 0.8692562177934764
vn 0.05123101283600872 0.49170012319621903 -0.8692562177934764
vn 0.12266807311056135 -0.88484952737313 0.4494372678660395
vn -0.12266807311056135 0.88484952737313 -0.4494372678660395
vn 0.5009140209239303 -0.859830035916391 0.09888100413040773
vn -0.5009140209239303 0.859830035916391 -0.09888100413040773
vn 0.818751357832903 -0.5741482509298255 -0.0000010000004371747731
vn -0.818751357832903 0.5741482509298255 0.0000010000004371747731
vn 0.631553161161335 -0.2933010748453108 -0.717715183148378
vn -0.631553161161335 0.2933010748453108 0.717715183148378
vn -0.4020439143837525 0.5684248789525139 -0.7178118471401889
vn 0.4020439143837525 -0.5684248789525139 0.7178118471401889
vn 0.6430039798083894 0.22718199286603102 0.7313919770328295
vn -0.6430039798083894 -0.22718199286603102 -0.7313919770328295
vn 0.6430070220557843 0.22717000779215876 -0.7313930250875126
vn -0.6430070220557843 -0.22717000779215876 0.7313930250875126
vn -0.6315649859303112 0.2932809934664329 -0.717712984011149
vn 0.6315649859303112 -0.2932809934664329 0.717712984011149
vn 0.572877174104847 0.8173272483964137 0.061546018704638196
vn -0.572877174104847 -0.8173272483964137 -0.061546018704638196
vn 0.5728500680202211 0.8173460970516814 -0.06154800730821064
vn -0.5728500680202211 -0.8173460970516814 0.06154800730821064
vn -0.04185398147708513 -0.08923796050681253 0.9951305595946194
vn 0.04185398147708513 0.08923796050681253 -0.9951305595946194
vn -0.9276390426574823 -0.124765005737319 0.35202201618773277
vn 0.9276390426574823 0.124765005737319 -0.35202201618773277
vn -0.5913731203876126 -0.08638101758484487 0.8017581632163312
vn 0.5913731203876126 0.08638101758484487 -0.8017581632163312
vn 0.9969666470773589 0.07782997244846704 -0.0000019999992919900943
vn -0.9969666470773589 -0.07782997244846704 0.0000019999992919900943
vn -0.9891365777901093 -0.13108594404637 0.06652297160487516
vn 0.9891365777901093 0.13108594404637 -0.06652297160487516
vn -0.9961704863679067 -0.08743204268761237 0.000001000000488218444
vn 0.9961704863679067 0.08743204268761237 -0.000001000000488218444
vn -0.7016760230584778 0.06158000202364222 -0.7098300233264345
vn 0.7016760230584778 -0.06158000202364222 0.7098300233264345
vn 0.40200701284935036 -0.568452018169432 -0.7178110229433942
vn -0.40200701284935036 0.568452018169432 0.7178110229433942
vn 0.5699390098012412 0.08174200140571702 0.8176110140604568
vn -0.5699390098012412 -0.08174200140571702 -0.8176110140604568
vn 0.5699352838343962 0.08173404070450252 -0.8176144071814786
vn -0.5699352838343962 -0.08173404070450252 0.8176144071814786
vn -0.21577011152232134 -0.416869215461828 0.8829854563773318
vn 0.21577011152232134 0.416869215461828 -0.8829854563773318
vn -0.11074106034309708 -0.8841354817677658 0.4539172473407101
vn 0.11074106034309708 0.8841354817677658 -0.4539172473407101
vn 0.1321730184517512 -0.9870481377948908 0.09091901269256758
vn -0.1321730184517512 0.9870481377948908 -0.09091901269256758
vn 0.4240580125968555 -0.9056350269023418 0
vn -0.4240580125968555 0.9056350269023418 0
vn -0.17619495547686184 -0.02747599305702372 0.9839717513577496
vn 0.17619495547686184 0.02747599305702372 -0.9839717513577496
vn 0.12426704012471534 -0.6932732238517206 -0.7098802292139742
vn -0.12426704012471534 0.6932732238517206 0.7098802292139742
vn -0.09221504577214812 -0.059355029461648015 0.9939684933693056
vn 0.09221504577214812 0.059355029461648015 -0.9939684933693056
vn -0.7835129120863303 -0.4546979489808469 0.42350595248072886
vn 0.7835129120863303 0.4546979489808469 -0.42350595248072886
vn -0.8633019532513372 -0.4978869730389232 0.08257299552858971
vn 0.8633019532513372 0.4978869730389232 -0.08257299552858971
vn -0.4350371471526451 -0.2647890895657192 0.860598291100003
vn 0.4350371471526451 0.2647890895657192 -0.860598291100003
vn -0.6935201844070414 -0.1231700327509159 -0.7098301887438722
vn 0.6935201844070414 0.1231700327509159 0.7098301887438722
vn -0.9069659388827419 -0.42120397161653955 9.999999325199807e-7
vn 0.9069659388827419 0.42120397161653955 -9.999999325199807e-7
vn -0.06213298723111325 -0.7015768558196567 -0.7098798541133162
vn 0.06213298723111325 0.7015768558196567 0.7098798541133162
vn -0.4322971356053644 -0.7668642405542306 0.4743821488068248
vn 0.4322971356053644 0.7668642405542306 -0.4743821488068248
vn -0.13133298708143137 -0.9868959029239894 0.09374499077877421
vn 0.13133298708143137 0.9868959029239894 -0.09374499077877421
vn 0.08821801686177282 -0.9961011903923096 0
vn -0.08821801686177282 0.9961011903923096 0
vn -0.5701322492459102 -0.39979417477885704 -0.7177143137646708
vn 0.5701322492459102 0.39979417477885704 0.7177143137646708
vn -0.49962305253361805 -0.8606030904894076 0.09868701037659408
vn 0.49962305253361805 0.8606030904894076 -0.09868701037659408
vn -0.577409023007729 -0.8164550325328761 0.0000010000000396652129
vn 0.577409023007729 0.8164550325328761 -0.0000010000000396652129
vn -0.17643293953132544 -0.9843126626475633 0
vn 0.17643293953132544 0.9843126626475633 0
vn -0.2952471115181028 -0.6305352381601402 -0.7178122711256422
vn 0.2952471115181028 0.6305352381601402 0.7178122711256422
usemtl material_0_0
f 1//1 2//1 3//1
f 3//2 2//2 1//2
f 1//1 4//1 2//1
f 2//2 4//2 1//2
f 3//1 2//1 5//1
f 5//2 2//2 3//2
f 1//1 3//1 6//3
f 6//4 3//2 1//2
f 7//1 4//1 1//1
f 1//2 4//2 7//2
f 4//1 8//5 2//1
f 2//2 8//6 4//2
f 2//1 9//7 5//1
f 5//2 9//8 2//2
f 3//1 5//1 10//1
f 10//2 5//2 3//2
f 6//3 3//1 11//9
f 11//10 3//2 6//4
f 12//11 1//1 6//3
f 6//4 1//2 12//12
f 7//1 13//1 4//1
f 4//2 13//2 7//2
f 14//13 7//1 1//1
f 1//2 7//2 14//14
f 4//1 15//15 8//5
f 8//6 15//16 4//2
f 2//1 8//5 9//7
f 9//8 8//6 2//2
f 5//1 9//7 10//1
f 10//2 9//8 5//2
f 3//1 10//1 16//1
f 16//2 10//2 3//2
f 3//1 16//1 11//9
f 11//10 16//2 3//2
f 17//17 6//3 11//9
f 11//10 6//4 17//18
f 14//13 1//1 12//11
f 12//12 1//2 14//14
f 18//19 12//11 6//3
f 6//4 12//12 18//20
f 19//1 13//1 7//1
f 7//2 13//2 19//2
f 13//1 15//15 4//1
f 4//2 15//16 13//2
f 20//21 7//1 14//13
f 14//14 7//2 20//22
f 8//5 15//15 21//23
f 21//24 15//16 8//6
f 22//25 9//7 8//5
f 8//6 9//8 22//26
f 9//7 23//27 10//1
f 10//2 23//28 9//8
f 10//1 24//1 16//1
f 16//2 24//2 10//2
f 16//1 25//1 11//9
f 11//10 25//2 16//2
f 18//19 6//3 17//17
f 17//18 6//4 18//20
f 17//17 11//9 26//29
f 26//30 11//10 17//18
f 27//31 14//13 12//11
f 12//12 14//14 27//32
f 27//31 12//11 18//19
f 18//20 12//12 27//32
f 19//1 28//1 13//1
f 13//2 28//2 19//2
f 20//21 19//1 7//1
f 7//2 19//2 20//22
f 13//1 29//33 15//15
f 15//16 29//34 13//2
f 30//35 20//21 14//13
f 14//14 20//22 30//36
f 21//23 15//15 31//37
f 31//38 15//16 21//24
f 22//25 8//5 21//23
f 21//24 8//6 22//26
f 9//7 22//25 31//39
f 31//40 22//26 9//8
f 31//39 23//27 9//7
f 9//8 23//28 31//40
f 23//27 32//41 10//1
f 10//2 32//42 23//28
f 32//41 24//1 10//1
f 10//2 24//2 32//42
f 24//1 25//1 16//1
f 16//2 25//2 24//2
f 11//9 25//1 33//43
f 33//44 25//2 11//10
f 34//45 18//19 17//17
f 17//18 18//20 34//46
f 11//9 33//43 26//29
f 26//30 33//44 11//10
f 35//47 17//17 26//29
f 26//30 17//18 35//48
f 30//35 14//13 27//31
f 27//32 14//14 30//36
f 36//49 27//31 18//19
f 18//20 27//32 36//50
f 37//1 28//1 19//1
f 19//2 28//2 37//2
f 28//1 38//51 13//1
f 13//2 38//52 28//2
f 20//21 37//1 19//1
f 19//2 37//2 20//22
f 13//1 38//51 29//33
f 29//34 38//52 13//2
f 31//37 15//15 29//33
f 29//34 15//16 31//38
f 39//53 20//21 30//35
f 30//36 20//22 39//54
f 40//55 21//23 31//37
f 31//38 21//24 40//56
f 22//25 21//23 41//57
f 41//58 21//24 22//26
f 42//59 31//39 22//25
f 22//26 31//40 42//60
f 43//61 23//27 31//39
f 31//40 23//28 43//62
f 43//61 32//41 23//27
f 23//28 32//42 43//62
f 32//41 44//63 24//1
f 24//2 44//64 32//42
f 24//1 45//1 25//1
f 25//2 45//2 24//2
f 25//1 46//1 33//43
f 33//44 46//2 25//2
f 36//49 18//19 34//45
f 34//46 18//20 36//50
f 34//45 17//17 35//47
f 35//48 17//18 34//46
f 26//29 33//43 47//65
f 47//66 33//44 26//30
f 35//47 26//29 48//67
f 48//68 26//30 35//48
f 27//31 49//69 30//35
f 30//36 49//70 27//32
f 36//49 49//69 27//31
f 27//32 49//70 36//50
f 37//1 50//1 28//1
f 28//2 50//2 37//2
f 28//1 51//71 38//51
f 38//52 51//72 28//2
f 52//73 37//1 20//21
f 20//22 37//2 52//74
f 29//33 38//51 53//75
f 53//76 38//52 29//34
f 31//37 29//33 53//75
f 53//76 29//34 31//38
f 39//53 52//73 20//21
f 20//22 52//74 39//54
f 30//35 54//77 39//53
f 39//54 54//78 30//36
f 41//57 21//23 40//55
f 40//56 21//24 41//58
f 31//37 55//79 40//55
f 40//56 55//80 31//38
f 42//59 22//25 41//57
f 41//58 22//26 42//60
f 56//81 31//39 42//59
f 42//60 31//40 56//82
f 56//81 43//61 31//39
f 31//40 43//62 56//82
f 57//83 32//41 43//61
f 43//62 32//42 57//84
f 32//41 57//83 44//63
f 44//64 57//84 32//42
f 44//63 45//1 24//1
f 24//2 45//2 44//64
f 45//1 46//1 25//1
f 25//2 46//2 45//2
f 33//43 46//1 58//85
f 58//86 46//2 33//44
f 59//87 36//49 34//45
f 34//46 36//50 59//88
f 60//89 34//45 35//47
f 35//48 34//46 60//90
f 33//43 58//85 47//65
f 47//66 58//86 33//44
f 48//67 26//29 47//65
f 47//66 26//30 48//68
f 61//91 35//47 48//67
f 48//68 35//48 61//92
f 49//69 54//77 30//35
f 30//36 54//78 49//70
f 36//49 62//93 49//69
f 49//70 62//94 36//50
f 37//1 63//1 50//1
f 50//2 63//2 37//2
f 28//1 50//1 51//71
f 51//72 50//2 28//2
f 38//51 51//71 64//95
f 64//96 51//72 38//52
f 52//73 65//97 37//1
f 37//2 65//98 52//74
f 53//75 38//51 64//95
f 64//96 38//52 53//76
f 31//37 53//75 55//79
f 55//80 53//76 31//38
f 39//53 66//99 52//73
f 52//74 66//100 39//54
f 39//53 54//77 67//101
f 67//102 54//78 39//54
f 68//2 41//57 40//55
f 40//56 41//58 68//1
f 69//2 40//55 55//79
f 55//80 40//56 69//1
f 70//2 42//59 41//57
f 41//58 42//60 70//1
f 71//2 56//81 42//59
f 42//60 56//82 71//1
f 72//103 43//61 56//81
f 56//82 43//62 72//104
f 72//103 57//83 43//61
f 43//62 57//84 72//104
f 73//105 44//63 57//83
f 57//84 44//64 73//106
f 44//63 74//1 45//1
f 45//2 74//2 44//64
f 45//1 75//1 46//1
f 46//2 75//2 45//2
f 46//1 76//107 58//85
f 58//86 76//108 46//2
f 59//87 62//93 36//49
f 36//50 62//94 59//88
f 59//87 34//45 60//89
f 60//90 34//46 59//88
f 60//89 35//47 61//91
f 61//92 35//48 60//90
f 47//65 58//85 77//109
f 77//110 58//86 47//66
f 48//67 47//65 78//111
f 78//112 47//66 48//68
f 61//91 48//67 79//113
f 79//114 48//68 61//92
f 49//69 80//115 54//77
f 54//78 80//116 49//70
f 62//93 80//115 49//69
f 49//70 80//116 62//94
f 37//1 65//97 63//1
f 63//2 65//98 37//2
f 63//1 81//1 50//1
f 50//2 81//2 63//2
f 50//1 82//117 51//71
f 51//72 82//118 50//2
f 51//71 83//119 64//95
f 64//96 83//120 51//72
f 52//73 66//99 65//97
f 65//98 66//100 52//74
f 53//75 64//95 84//121
f 84//122 64//96 53//76
f 55//79 53//75 84//121
f 84//122 53//76 55//80
f 39//53 67//101 66//99
f 66//100 67//102 39//54
f 54//77 85//123 67//101
f 67//102 85//124 54//78
f 68//2 70//2 41//57
f 41//58 70//1 68//1
f 69//2 68//2 40//55
f 40//56 68//1 69//1
f 69//2 55//79 86//2
f 86//1 55//80 69//1
f 70//2 71//2 42//59
f 42//60 71//1 70//1
f 71//2 87//2 56//81
f 56//82 87//1 71//1
f 56//81 87//2 72//103
f 72//104 87//1 56//82
f 72//103 88//125 57//83
f 57//84 88//126 72//104
f 73//105 89//127 44//63
f 44//64 89//128 73//106
f 57//129 89//127 73//105
f 73//106 89//128 57//130
f 88//125 73//131 57//83
f 57//84 73//132 88//126
f 90//133 57//129 73//131
f 73//132 57//130 90//134
f 44//63 89//127 74//1
f 74//2 89//128 44//64
f 45//1 74//1 75//1
f 75//2 74//2 45//2
f 46//1 75//1 76//107
f 76//108 75//2 46//2
f 58//85 76//107 77//109
f 77//110 76//108 58//86
f 59//87 91//135 62//93
f 62//94 91//136 59//88
f 92//137 59//87 60//89
f 60//90 59//88 92//138
f 93//139 60//89 61//91
f 61//92 60//90 93//140
f 47//65 77//109 78//111
f 78//112 77//110 47//66
f 79//113 48//67 78//111
f 78//112 48//68 79//114
f 94//141 61//91 79//113
f 79//114 61//92 94//142
f 54//77 80//115 85//123
f 85//124 80//116 54//78
f 62//93 95//143 80//115
f 80//116 95//144 62//94
f 65//97 96//145 63//1
f 63//2 96//146 65//98
f 63//1 97//1 81//1
f 81//2 97//2 63//2
f 50//1 81//1 82//117
f 82//118 81//2 50//2
f 51//71 82//117 83//119
f 83//120 82//118 51//72
f 64//147 83//119 82//117
f 82//118 83//120 64//148
f 64//147 98//149 83//150
f 83//151 98//152 64//148
f 99//153 64//95 83//150
f 83//151 64//96 99//154
f 66//99 100//155 65//97
f 65//98 100//156 66//100
f 84//121 64//95 99//153
f 99//154 64//96 84//122
f 86//2 55//79 84//121
f 84//122 55//80 86//1
f 67//101 101//157 66//99
f 66//100 101//158 67//102
f 102//159 67//101 85//123
f 85//124 67//102 102//160
f 103//2 70//2 68//2
f 68//1 70//1 103//1
f 104//2 68//2 69//2
f 69//1 68//1 104//1
f 105//2 69//2 86//2
f 86//1 69//1 105//1
f 106//2 71//2 70//2
f 70//1 71//1 106//1
f 71//2 107//2 87//2
f 87//1 107//1 71//1
f 87//2 108//2 72//103
f 72//104 108//1 87//1
f 72//103 108//2 88//125
f 88//126 108//1 72//104
f 57//129 109//161 89//127
f 89//128 109//162 57//130
f 73//131 88//125 90//133
f 90//134 88//126 73//132
f 57//129 90//133 110//163
f 110//164 90//134 57//130
f 89//127 111//1 74//1
f 74//2 111//2 89//128
f 74//1 112//1 75//1
f 75//2 112//2 74//2
f 75//1 113//165 76//107
f 76//108 113//166 75//2
f 76//107 114//167 77//109
f 77//110 114//168 76//108
f 92//137 91//135 59//87
f 59//88 91//136 92//138
f 62//93 91//135 95//143
f 95//144 91//136 62//94
f 92//137 60//89 93//139
f 93//140 60//90 92//138
f 93//139 61//91 94//141
f 94//142 61//92 93//140
f 78//111 77//109 115//169
f 115//170 77//110 78//112
f 79//113 78//111 116//171
f 116//172 78//112 79//114
f 94//141 79//113 117//173
f 117//174 79//114 94//142
f 80//115 118//175 85//123
f 85//124 118//176 80//116
f 95//143 118//175 80//115
f 80//116 118//176 95//144
f 65//97 100//155 96//145
f 96//146 100//156 65//98
f 63//1 96//145 97//1
f 97//2 96//146 63//2
f 97//1 119//1 81//1
f 81//2 119//2 97//2
f 81//1 119//1 82//117
f 82//118 119//2 81//2
f 64//147 82//117 120//177
f 120//178 82//118 64//148
f 98//149 64//147 121//179
f 121//180 64//148 98//152
f 99//153 83//150 98//149
f 98//152 83//151 99//154
f 66//99 101//157 100//155
f 100//156 101//158 66//100
f 122//2 84//121 99//153
f 99//154 84//122 122//1
f 86//2 84//121 122//2
f 122//1 84//122 86//1
f 102//159 101//157 67//101
f 67//102 101//158 102//160
f 123//181 102//159 85//123
f 85//124 102//160 123//182
f 103//2 106//2 70//2
f 70//1 106//1 103//1
f 124//2 103//2 68//2
f 68//1 103//1 124//1
f 104//2 124//2 68//2
f 68//1 124//1 104//1
f 104//2 69//2 105//2
f 105//1 69//1 104//1
f 105//2 86//2 122//2
f 122//1 86//1 105//1
f 106//2 107//2 71//2
f 71//1 107//1 106//1
f 87//2 107//2 108//2
f 108//1 107//1 87//1
f 88//125 108//2 125//2
f 125//1 108//1 88//126
f 57//129 126//183 109//161
f 109//162 126//184 57//130
f 109//161 111//1 89//127
f 89//128 111//2 109//162
f 88//125 125//2 90//133
f 90//134 125//1 88//126
f 90//133 127//2 110//163
f 110//164 127//1 90//134
f 57//129 110//163 126//183
f 126//184 110//164 57//130
f 111//1 112//1 74//1
f 74//2 112//2 111//2
f 75//1 112//1 113//165
f 113//166 112//2 75//2
f 76//107 113//165 114//167
f 114//168 113//166 76//108
f 77//109 114//167 115//169
f 115//170 114//168 77//110
f 128//185 91//135 92//137
f 92//138 91//136 128//186
f 129//187 95//143 91//135
f 91//136 95//144 129//188
f 130//189 92//137 93//139
f 93//140 92//138 130//190
f 131//191 93//139 94//141
f 94//142 93//140 131//192
f 116//171 78//111 115//169
f 115//170 78//112 116//172
f 117//173 79//113 116//171
f 116//172 79//114 117//174
f 132//193 94//141 117//173
f 117//174 94//142 132//194
f 123//181 85//123 118//175
f 118//176 85//124 123//182
f 133//195 118//175 95//143
f 95//144 118//176 133//196
f 100//155 134//197 96//145
f 96//146 134//198 100//156
f 96//145 135//199 97//1
f 97//2 135//200 96//146
f 97//1 136//1 119//1
f 119//2 136//2 97//2
f 119//1 120//177 82//117
f 82//118 120//178 119//2
f 64//147 120//177 137//201
f 137//202 120//178 64//148
f 121//179 64//147 137//201
f 137//202 64//148 121//180
f 98//149 121//179 138//2
f 138//1 121//180 98//152
f 139//2 99//153 98//149
f 98//152 99//154 139//1
f 140//203 100//155 101//157
f 101//158 100//156 140//204
f 122//2 99//153 139//2
f 139//1 99//154 122//1
f 141//205 101//157 102//159
f 102//160 101//158 141//206
f 142//207 102//159 123//181
f 123//182 102//160 142//208
f 130//189 106//2 103//2
f 103//1 106//1 130//190
f 128//185 103//2 124//2
f 124//1 103//1 128//186
f 129//187 124//2 104//2
f 104//1 124//1 129//188
f 133//195 104//2 105//2
f 105//1 104//1 133//196
f 105//2 122//2 143//2
f 143//1 122//1 105//1
f 131//191 107//2 106//2
f 106//1 107//1 131//192
f 108//2 107//2 144//2
f 144//1 107//1 108//1
f 108//2 145//2 125//2
f 125//1 145//1 108//1
f 109//161 126//183 146//209
f 146//210 126//184 109//162
f 146//209 111//1 109//161
f 109//162 111//2 146//210
f 90//133 125//2 127//2
f 127//1 125//1 90//134
f 110//163 127//2 147//2
f 147//1 127//1 110//164
f 110//163 148//211 126//183
f 126//184 148//212 110//164
f 111//1 149//1 112//1
f 112//2 149//2 111//2
f 149//1 113//165 112//1
f 112//2 113//166 149//2
f 113//165 150//213 114//167
f 114//168 150//214 113//166
f 115//169 114//167 151//215
f 151//216 114//168 115//170
f 128//185 129//187 91//135
f 91//136 129//188 128//186
f 128//185 92//137 130//189
f 130//190 92//138 128//186
f 129//187 133//195 95//143
f 95//144 133//196 129//188
f 130//189 93//139 131//191
f 131//192 93//140 130//190
f 131//191 94//141 132//193
f 132//194 94//142 131//192
f 116//171 115//169 152//217
f 152//218 115//170 116//172
f 117//173 116//171 153//219
f 153//220 116//172 117//174
f 132//193 117//173 154//221
f 154//222 117//174 132//194
f 155//223 123//181 118//175
f 118//176 123//182 155//224
f 133//195 155//223 118//175
f 118//176 155//224 133//196
f 140//203 134//197 100//155
f 100//156 134//198 140//204
f 96//145 134//197 135//199
f 135//200 134//198 96//146
f 97//1 135//199 136//1
f 136//2 135//200 97//2
f 136//1 156//1 119//1
f 119//2 156//2 136//2
f 119//1 157//225 120//177
f 120//178 157//226 119//2
f 137//201 120//177 157//225
f 157//226 120//178 137//202
f 121//179 137//201 158//227
f 158//228 137//202 121//180
f 138//2 121//179 159//2
f 159//1 121//180 138//1
f 139//2 98//149 138//2
f 138//1 98//152 139//1
f 141//205 140//203 101//157
f 101//158 140//204 141//206
f 143//2 122//2 139//2
f 139//1 122//1 143//1
f 142//207 141//205 102//159
f 102//160 141//206 142//208
f 160//229 142//207 123//181
f 123//182 142//208 160//230
f 130//189 131//191 106//2
f 106//1 131//192 130//190
f 128//185 130//189 103//2
f 103//1 130//190 128//186
f 129//187 128//185 124//2
f 124//1 128//186 129//188
f 129//187 104//2 133//195
f 133//196 104//1 129//188
f 133//195 105//2 155//223
f 155//224 105//1 133//196
f 105//2 143//2 155//223
f 155//224 143//1 105//1
f 131//191 132//193 107//2
f 107//1 132//194 131//192
f 107//2 132//193 144//2
f 144//1 132//194 107//1
f 108//2 144//2 145//2
f 145//1 144//1 108//1
f 125//2 145//2 161//2
f 161//1 145//1 125//1
f 126//183 162//231 146//209
f 146//210 162//232 126//184
f 146//209 163//1 111//1
f 111//2 163//2 146//210
f 125//2 161//2 127//2
f 127//1 161//1 125//1
f 127//2 161//2 147//2
f 147//1 161//1 127//1
f 148//211 110//163 147//2
f 147//1 110//164 148//212
f 126//183 148//211 162//233
f 162//234 148//212 126//184
f 163//1 149//1 111//1
f 111//2 149//2 163//2
f 149//1 164//235 113//165
f 113//166 164//236 149//2
f 164//235 150//213 113//165
f 113//166 150//214 164//236
f 151//215 114//167 150//213
f 150//214 114//168 151//216
f 152//217 115//169 151//215
f 151//216 115//170 152//218
f 153//219 116//171 152//217
f 152//218 116//172 153//220
f 154//221 117//173 153//219
f 153//220 117//174 154//222
f 132//193 154//221 144//2
f 144//1 154//222 132//194
f 160//229 123//181 155//223
f 155//224 123//182 160//230
f 165//237 134//197 140//203
f 140//204 134//198 165//238
f 134//197 166//239 135//199
f 135//200 166//240 134//198
f 135//199 167//1 136//1
f 136//2 167//2 135//200
f 136//1 167//1 156//1
f 156//2 167//2 136//2
f 119//1 156//1 157//225
f 157//226 156//2 119//2
f 137//201 157//225 126//241
f 126//242 157//226 137//202
f 158//227 137//201 126//241
f 126//242 137//202 158//228
f 121//179 158//227 159//2
f 159//1 158//228 121//180
f 168//2 138//2 159//2
f 159//1 138//1 168//1
f 168//2 139//2 138//2
f 138//1 139//1 168//1
f 169//243 140//203 141//205
f 141//206 140//204 169//244
f 143//2 139//2 170//2
f 170//1 139//1 143//1
f 171//245 141//205 142//207
f 142//208 141//206 171//246
f 172//247 142//207 160//229
f 160//230 142//208 172//248
f 155//223 143//2 160//229
f 160//230 143//1 155//224
f 144//2 154//221 145//2
f 145//1 154//222 144//1
f 145//2 173//249 161//2
f 161//1 173//250 145//1
f 126//241 174//251 162//231
f 162//232 174//252 126//242
f 126//241 162//233 175//253
f 175//254 162//234 126//242
f 162//231 174//251 146//209
f 146//210 174//252 162//232
f 146//209 176//1 163//1
f 163//2 176//2 146//210
f 147//2 161//2 177//2
f 177//1 161//1 147//1
f 148//211 147//2 178//2
f 178//1 147//1 148//212
f 148//211 175//253 162//233
f 162//234 175//254 148//212
f 163//1 179//1 149//1
f 149//2 179//2 163//2
f 179//1 164//235 149//1
f 149//2 164//236 179//2
f 164//235 180//255 150//213
f 150//214 180//256 164//236
f 151//215 150//213 181//257
f 181//258 150//214 151//216
f 152//217 151//215 182//259
f 182//260 151//216 152//218
f 153//219 152//217 183//261
f 183//262 152//218 153//220
f 154//221 153//219 173//249
f 173//250 153//220 154//222
f 165//237 166//239 134//197
f 134//198 166//240 165//238
f 169//243 165//237 140//203
f 140//204 165//238 169//244
f 135//199 166//239 184//263
f 184//264 166//240 135//200
f 135//199 184//263 167//1
f 167//2 184//264 135//200
f 156//1 167//1 176//1
f 176//2 167//2 156//2
f 157//225 156//1 174//251
f 174//252 156//2 157//226
f 126//241 157//225 174//251
f 174//252 157//226 126//242
f 158//227 126//241 175//253
f 175//254 126//242 158//228
f 158//227 185//2 159//2
f 159//1 185//1 158//228
f 168//2 159//2 186//2
f 186//1 159//1 168//1
f 170//2 139//2 168//2
f 168//1 139//1 170//1
f 171//245 169//243 141//205
f 141//206 169//244 171//246
f 143//2 170//2 160//229
f 160//230 170//1 143//1
f 172//247 171//245 142//207
f 142//208 171//246 172//248
f 160//229 170//2 172//247
f 172//248 170//1 160//230
f 154//221 173//249 145//2
f 145//1 173//250 154//222
f 173//249 187//265 161//2
f 161//1 187//266 173//250
f 174//251 176//1 146//209
f 146//210 176//2 174//252
f 176//1 179//1 163//1
f 163//2 179//2 176//2
f 161//2 187//265 177//2
f 177//1 187//266 161//1
f 178//2 147//2 177//2
f 177//1 147//1 178//1
f 175//253 148//211 178//2
f 178//1 148//212 175//254
f 179//1 188//267 164//235
f 164//236 188//268 179//2
f 188//267 180//255 164//235
f 164//236 180//256 188//268
f 180//255 181//257 150//213
f 150//214 181//258 180//256
f 182//259 151//215 181//257
f 181//258 151//216 182//260
f 152//217 182//259 183//261
f 183//262 182//260 152//218
f 173//249 153//219 183//261
f 183//262 153//220 173//250
f 189//269 166//239 165//237
f 165//238 166//240 189//270
f 190//271 165//237 169//243
f 169//244 165//238 190//272
f 184//263 166//239 191//273
f 191//274 166//240 184//264
f 167//1 184//263 188//267
f 188//268 184//264 167//2
f 176//1 167//1 179//1
f 179//2 167//2 176//2
f 174//251 156//1 176//1
f 176//2 156//2 174//252
f 158//227 175//253 185//2
f 185//1 175//254 158//228
f 159//2 185//2 186//2
f 186//1 185//1 159//1
f 168//2 186//2 192//275
f 192//276 186//1 168//1
f 170//2 168//2 172//247
f 172//248 168//1 170//1
f 193//277 169//243 171//245
f 171//246 169//244 193//278
f 192//275 171//245 172//247
f 172//248 171//246 192//276
f 183//261 187//265 173//249
f 173//250 187//266 183//262
f 177//2 187//265 194//279
f 194//280 187//266 177//1
f 178//2 177//2 195//2
f 195//1 177//1 178//1
f 175//253 178//2 185//2
f 185//1 178//1 175//254
f 167//1 188//267 179//1
f 179//2 188//268 167//2
f 188//267 191//273 180//255
f 180//256 191//274 188//268
f 180//255 196//281 181//257
f 181//258 196//282 180//256
f 182//259 181//257 197//283
f 197//284 181//258 182//260
f 183//261 182//259 198//285
f 198//286 182//260 183//262
f 189//269 191//273 166//239
f 166//240 191//274 189//270
f 190//271 189//269 165//237
f 165//238 189//270 190//272
f 193//277 190//271 169//243
f 169//244 190//272 193//278
f 184//263 191//273 188//267
f 188//268 191//274 184//264
f 185//2 199//2 186//2
f 186//1 199//1 185//1
f 186//2 200//287 192//275
f 192//276 200//288 186//1
f 172//247 168//2 192//275
f 192//276 168//1 172//248
f 192//275 193//277 171//245
f 171//246 193//278 192//276
f 183//261 198//285 187//265
f 187//266 198//286 183//262
f 198//285 194//279 187//265
f 187//266 194//280 198//286
f 195//2 177//2 194//279
f 194//280 177//1 195//1
f 178//2 195//2 199//2
f 199//1 195//1 178//1
f 185//2 178//2 199//2
f 199//1 178//1 185//1
f 191//273 196//281 180//255
f 180//256 196//282 191//274
f 181//257 196//281 197//283
f 197//284 196//282 181//258
f 182//259 197//283 198//285
f 198//286 197//284 182//260
f 191//273 189//269 196//281
f 196//282 189//270 191//274
f 201//289 189//269 190//271
f 190//272 189//270 201//290
f 202//291 190//271 193//277
f 193//278 190//272 202//292
f 186//2 199//2 200//287
f 200//288 199//1 186//1
f 200//287 193//277 192//275
f 192//276 193//278 200//288
f 198//285 203//293 194//279
f 194//280 203//294 198//286
f 195//2 194//279 204//295
f 204//296 194//280 195//1
f 199//2 195//2 204//295
f 204//296 195//1 199//1
f 197//283 196//281 201//289
f 201//290 196//282 197//284
f 198//285 197//283 203//293
f 203//294 197//284 198//286
f 201//289 196//281 189//269
f 189//270 196//282 201//290
f 202//291 201//289 190//271
f 190//272 201//290 202//292
f 200//287 202//291 193//277
f 193//278 202//292 200//288
f 199//2 204//295 200//287
f 200//288 204//296 199//1
f 203//293 204//295 194//279
f 194//280 204//296 203//294
f 197//283 201//289 203//293
f 203//294 201//290 197//284
f 203//293 201//289 202//291
f 202//292 201//290 203//294
f 204//295 202//291 200//287
f 200//288 202//292 204//296
f 203//293 202//291 204//295
f 204//296 202//292 203//294
