# SSTK version 0.8.0
# 14
mtllib original-14.mtl
o mesh14/mesh14-geometry#mesh14-geometry
v 0.269138 0.245514 -0.177200
v 0.269138 0.210532 -0.146737
v 0.269138 0.244976 -0.146659
v 0.273378 0.210532 -0.146737
v 0.269138 0.245369 -0.146990
v 0.273378 0.245514 -0.177200
v 0.273378 0.244976 -0.146659
v 0.273378 0.245369 -0.146990
vn -0.7071069342500182 -0.4643659568211655 -0.5332579504152785
vn -1 9.999999999989996e-7 9.99999999999e-7
vn 1 -9.999999999989996e-7 -9.99999999999e-7
vn 0.7071069342500182 0.4643659568211655 0.5332579504152785
vn 0.4472138653224592 -0.5873818231111653 -0.6745237968685384
vn -0.4472138653224592 0.5873818231111653 0.6745237968685384
vn 0.8944271259111986 -0.2936910413437718 -0.3372620474773936
vn -0.8944271259111986 0.2936910413437718 0.3372620474773936
vn 1 0 -9.999999999995e-7
vn -1 0 9.999999999995e-7
usemtl material_0_0
f 1//1 2//1 3//2
f 3//3 2//4 1//4
f 1//1 4//5 2//1
f 2//4 4//6 1//4
f 1//1 3//2 5//2
f 5//3 3//3 1//4
f 6//7 4//5 1//1
f 1//4 4//6 6//8
f 6//7 7//9 4//5
f 4//6 7//10 6//8
f 6//7 8//9 7//9
f 7//10 8//10 6//8
