# Blender v2.79 (sub 0) OBJ File: ''
# www.blender.org
mtllib 102666_link_1_0.mtl
o Shape_IndexedFaceSet_Shape_IndexedFaceSet.10710
v -0.293954 0.304023 -0.184783
v -0.069420 0.300718 -0.264045
v -0.099141 0.300718 -0.260731
v -0.059494 0.340341 -0.135277
v -0.293954 0.300718 -0.095645
v -0.049567 0.323829 -0.098959
v -0.237792 0.330435 -0.095645
v -0.142068 0.323829 -0.217803
v -0.049567 0.300718 -0.234322
v -0.049567 0.327130 -0.217803
v -0.049567 0.340341 -0.095645
v -0.343499 0.300718 -0.095645
v -0.264233 0.320528 -0.158389
v -0.204762 0.300718 -0.240916
v -0.158583 0.333736 -0.155092
v -0.234483 0.313930 -0.211192
v -0.310469 0.317231 -0.102256
v -0.112347 0.313930 -0.247527
v -0.171789 0.337037 -0.095645
v -0.049567 0.310625 -0.257434
v -0.224586 0.323829 -0.178205
v -0.089243 0.333736 -0.181485
v -0.181716 0.307324 -0.244229
v -0.323675 0.310625 -0.118775
v -0.300543 0.300718 -0.178205
v -0.254307 0.304023 -0.217803
v -0.250998 0.327130 -0.122072
v -0.102450 0.340341 -0.118775
v -0.049567 0.327130 -0.095645
vn 1.0000 0.0000 0.0000
vn 0.0000 -1.0000 0.0000
vn 0.0951 -0.9813 0.1675
vn 0.0000 0.0000 1.0000
vn 0.3945 0.9136 -0.0988
vn -0.2735 0.9234 -0.2695
vn -0.1864 0.6631 0.7249
vn -0.0831 0.6617 -0.7452
vn -0.0335 0.9377 -0.3458
vn 0.5081 -0.7917 -0.3393
vn -0.0826 0.6624 -0.7446
vn -0.0121 0.9231 -0.3844
vn -0.0851 0.9805 -0.1773
vn -0.1935 0.9542 -0.2283
vn -0.1209 0.9602 -0.2519
vn 0.0222 0.9876 -0.1554
vn -0.0348 0.9759 -0.2155
vn -0.0434 0.9925 -0.1140
vn -0.0657 0.9828 -0.1726
vn -0.1823 0.1487 -0.9719
vn -0.1254 0.9151 -0.3833
vn -0.0979 0.6528 -0.7511
vn -0.1058 0.9069 -0.4078
vn -0.3076 0.9231 -0.2308
vn -0.4472 0.8944 -0.0002
vn -0.2682 0.9491 -0.1652
vn -0.6850 0.6269 -0.3711
vn -0.7276 0.5721 -0.3786
vn -0.3117 0.8734 -0.3742
vn -0.2869 0.6461 -0.7073
vn -0.2304 0.8154 -0.5311
vn -0.6203 -0.2457 -0.7448
vn -0.2137 -0.9208 -0.3263
vn -0.1755 0.9838 -0.0353
vn -0.1973 0.9747 -0.1053
vn -0.0993 0.9923 -0.0745
vn -0.0984 0.9922 -0.0770
vn -0.1446 0.9815 -0.1257
vn -0.1098 0.9879 -0.1098
vn 0.0000 1.0000 0.0000
vn -0.0435 0.9926 -0.1133
vn -0.0270 0.9977 0.0617
vn -0.0711 0.9949 -0.0710
vn 0.0763 -0.7064 0.7037
usemtl Shape.10718
s off
f 6//1 11//1 29//1
f 3//2 2//2 5//2
f 5//2 2//2 9//2
f 6//3 5//3 9//3
f 6//1 9//1 10//1
f 7//4 5//4 11//4
f 6//1 10//1 11//1
f 10//5 4//5 11//5
f 3//2 5//2 12//2
f 5//4 7//4 12//4
f 3//2 12//2 14//2
f 1//6 13//6 16//6
f 12//7 7//7 17//7
f 2//8 3//8 18//8
f 8//9 10//9 18//9
f 7//4 11//4 19//4
f 9//10 2//10 20//10
f 10//1 9//1 20//1
f 2//11 18//11 20//11
f 18//12 10//12 20//12
f 15//13 8//13 21//13
f 16//14 13//14 21//14
f 8//15 16//15 21//15
f 4//16 10//16 22//16
f 10//17 8//17 22//17
f 15//18 4//18 22//18
f 8//19 15//19 22//19
f 3//20 14//20 23//20
f 16//21 8//21 23//21
f 18//22 3//22 23//22
f 8//23 18//23 23//23
f 13//24 1//24 24//24
f 12//25 17//25 24//25
f 17//26 13//26 24//26
f 14//2 12//2 25//2
f 24//27 1//27 25//27
f 12//28 24//28 25//28
f 1//29 16//29 26//29
f 23//30 14//30 26//30
f 16//31 23//31 26//31
f 25//32 1//32 26//32
f 14//33 25//33 26//33
f 17//34 7//34 27//34
f 13//35 17//35 27//35
f 7//36 19//36 27//36
f 19//37 15//37 27//37
f 21//38 13//38 27//38
f 15//39 21//39 27//39
f 11//40 4//40 28//40
f 4//41 15//41 28//41
f 19//42 11//42 28//42
f 15//43 19//43 28//43
f 5//44 6//44 29//44
f 11//4 5//4 29//4
