# Blender v2.79 (sub 0) OBJ File: ''
# www.blender.org
mtllib 102666_link_1_51.mtl
o Shape_IndexedFaceSet.051_Shape_IndexedFaceSet.10761
v 0.409488 0.244565 0.330399
v 0.402887 0.208255 0.270960
v 0.389684 0.208255 0.350222
v 0.389684 0.280899 0.277570
v 0.383073 0.280899 0.350222
v 0.416100 0.264379 0.270960
v 0.402887 0.280899 0.350222
v 0.406188 0.211556 0.346909
v 0.386377 0.264379 0.277570
v 0.416100 0.211556 0.280876
v 0.409488 0.280899 0.270960
v 0.383073 0.261070 0.330399
v 0.409488 0.204946 0.307302
v 0.389684 0.277583 0.270960
v 0.389684 0.211556 0.333704
vn -0.9881 -0.1366 -0.0704
vn 0.0000 0.0000 1.0000
vn 0.0000 1.0000 0.0000
vn 0.9846 0.1008 0.1431
vn 0.9650 0.0335 0.2599
vn 0.2038 -0.0370 0.9783
vn -0.9767 0.1955 -0.0889
vn 0.9928 0.0221 0.1178
vn 0.6168 -0.1452 -0.7736
vn 0.9886 -0.0246 0.1484
vn 0.0000 0.0000 -1.0000
vn 0.9256 0.3705 0.0771
vn -0.9918 -0.0903 0.0903
vn -0.9966 0.0586 -0.0587
vn -0.2528 -0.9666 -0.0421
vn 0.2273 -0.9573 0.1787
vn 0.3419 -0.9282 -0.1466
vn 0.9195 -0.3680 0.1380
vn -0.7429 -0.1415 -0.6543
vn -0.9758 0.1953 -0.0980
vn -0.1480 0.8840 -0.4435
vn -0.7619 -0.6351 -0.1269
vn -0.9483 -0.2571 -0.1860
vn -0.9906 -0.1341 -0.0268
usemtl Shape.10769
s off
f 12//1 9//1 15//1
f 5//2 3//2 7//2
f 4//3 5//3 7//3
f 1//4 6//4 7//4
f 1//5 7//5 8//5
f 7//6 3//6 8//6
f 5//7 4//7 9//7
f 6//8 1//8 10//8
f 2//9 6//9 10//9
f 1//10 8//10 10//10
f 6//11 2//11 11//11
f 4//3 7//3 11//3
f 7//12 6//12 11//12
f 3//13 5//13 12//13
f 5//14 9//14 12//14
f 3//15 2//15 13//15
f 8//16 3//16 13//16
f 2//17 10//17 13//17
f 10//18 8//18 13//18
f 2//19 9//19 14//19
f 9//20 4//20 14//20
f 11//11 2//11 14//11
f 4//21 11//21 14//21
f 2//22 3//22 15//22
f 9//23 2//23 15//23
f 3//24 12//24 15//24
