# Blender v2.79 (sub 0) OBJ File: ''
# www.blender.org
mtllib 102666_link_1_53.mtl
o Shape_IndexedFaceSet.053_Shape_IndexedFaceSet.10763
v 0.284006 0.211556 0.673877
v 0.363258 0.280899 0.518655
v 0.363258 0.270981 0.518655
v 0.340130 0.274282 0.512050
v 0.303821 0.280899 0.673877
v 0.356639 0.208255 0.515361
v 0.307126 0.211556 0.663961
v 0.280701 0.277583 0.670567
v 0.336824 0.214857 0.518655
v 0.323620 0.267680 0.630934
v 0.293914 0.204946 0.673877
v 0.343435 0.280899 0.512050
v 0.340130 0.204946 0.521966
v 0.280701 0.261070 0.667272
v 0.353342 0.204946 0.512050
v 0.313729 0.211556 0.647455
v 0.284006 0.280899 0.673877
v 0.300516 0.204946 0.673877
v 0.287311 0.211556 0.660650
v 0.363258 0.280899 0.512050
vn 0.0000 0.0000 -1.0000
vn 0.9430 0.0000 0.3329
vn 0.9087 0.2307 0.3480
vn 0.9060 -0.0173 0.4230
vn 0.0000 0.0000 1.0000
vn -0.0000 1.0000 0.0000
vn -0.8458 0.4224 -0.3259
vn -0.9336 0.0701 -0.3515
vn -0.9797 -0.0392 0.1964
vn -0.9342 0.0123 -0.3566
vn -0.4102 -0.0782 -0.9086
vn -0.5438 -0.4234 -0.7246
vn 0.0000 -1.0000 0.0000
vn 0.9438 -0.1158 0.3095
vn 0.9414 -0.0687 0.3303
vn 0.9271 -0.0542 0.3709
vn -0.7076 0.0000 0.7066
vn -0.5780 0.7880 -0.2123
vn 0.8426 -0.0367 0.5373
vn 0.5916 -0.7827 0.1931
vn 0.8107 -0.5162 0.2762
vn 0.8704 -0.3481 0.3482
vn -0.5497 -0.8240 -0.1374
vn -0.8656 -0.3926 -0.3109
vn -0.5215 -0.8384 -0.1586
vn -0.9656 -0.0966 -0.2413
vn -0.9405 -0.0814 -0.3298
vn 1.0000 0.0000 0.0000
vn 0.9848 -0.0963 -0.1446
vn 0.7525 -0.0983 -0.6512
usemtl Shape.10771
s off
f 15//1 12//1 20//1
f 3//2 2//2 10//2
f 2//3 5//3 10//3
f 5//4 7//4 10//4
f 5//5 1//5 11//5
f 5//6 2//6 12//6
f 4//7 8//7 12//7
f 8//8 4//8 14//8
f 1//9 8//9 14//9
f 4//10 9//10 14//10
f 9//11 4//11 15//11
f 4//1 12//1 15//1
f 13//12 9//12 15//12
f 11//13 13//13 15//13
f 6//14 3//14 16//14
f 3//15 10//15 16//15
f 10//16 7//16 16//16
f 1//5 5//5 17//5
f 8//17 1//17 17//17
f 5//6 12//6 17//6
f 12//18 8//18 17//18
f 7//19 5//19 18//19
f 5//5 11//5 18//5
f 15//20 6//20 18//20
f 11//13 15//13 18//13
f 6//21 16//21 18//21
f 16//22 7//22 18//22
f 11//23 1//23 19//23
f 9//24 13//24 19//24
f 13//25 11//25 19//25
f 1//26 14//26 19//26
f 14//27 9//27 19//27
f 2//28 3//28 20//28
f 3//29 6//29 20//29
f 12//6 2//6 20//6
f 6//30 15//30 20//30
