# Blender v2.79 (sub 0) OBJ File: ''
# www.blender.org
mtllib 102666_link_1_52.mtl
o Shape_IndexedFaceSet.052_Shape_IndexedFaceSet.10762
v 0.373161 0.280899 0.488923
v 0.383068 0.208255 0.366760
v 0.340140 0.214857 0.508739
v 0.383068 0.280899 0.350222
v 0.402889 0.211556 0.356844
v 0.340140 0.270981 0.508739
v 0.356656 0.208255 0.512050
v 0.402889 0.277583 0.353533
v 0.346749 0.280899 0.512050
v 0.376465 0.211556 0.462501
v 0.386373 0.211556 0.350222
v 0.389677 0.280899 0.426194
v 0.379770 0.267680 0.356844
v 0.366564 0.267680 0.508739
v 0.346749 0.204946 0.512050
v 0.389677 0.204946 0.393166
v 0.399585 0.208255 0.350222
vn 0.6172 -0.7825 0.0821
vn 0.0000 1.0000 0.0000
vn -0.4479 0.0000 0.8941
vn -0.7906 0.5861 -0.1774
vn -0.8931 -0.3720 -0.2527
vn 0.1674 0.9858 -0.0146
vn 0.9839 0.0090 0.1785
vn 0.9658 -0.0509 0.2543
vn 0.9685 -0.0577 0.2422
vn -0.9676 0.0000 -0.2525
vn -0.9608 0.1129 -0.2531
vn -0.9574 -0.0799 -0.2776
vn -0.8593 -0.0410 -0.5097
vn 0.5147 0.6242 0.5878
vn 0.1807 0.0246 0.9832
vn 0.9585 -0.0605 0.2787
vn 0.9232 -0.1339 0.3602
vn -0.7801 -0.5899 -0.2084
vn 0.0000 0.0000 1.0000
vn 0.8297 -0.5182 0.2075
vn 0.6011 -0.7766 0.1886
vn -0.2003 -0.9771 -0.0723
vn 0.3147 -0.9423 0.1137
vn 0.1710 0.0389 -0.9845
vn 0.8989 -0.0219 -0.4376
vn -0.2356 -0.9429 -0.2353
vn 0.0000 0.0000 -1.0000
vn -0.0993 -0.9901 -0.0992
usemtl Shape.10770
s off
f 5//1 16//1 17//1
f 1//2 4//2 9//2
f 6//3 3//3 9//3
f 4//4 6//4 9//4
f 2//5 3//5 11//5
f 4//2 1//2 12//2
f 8//6 4//6 12//6
f 5//7 8//7 12//7
f 1//8 10//8 12//8
f 10//9 5//9 12//9
f 3//10 6//10 13//10
f 6//11 4//11 13//11
f 11//12 3//12 13//12
f 4//13 11//13 13//13
f 1//14 9//14 14//14
f 9//15 7//15 14//15
f 10//16 1//16 14//16
f 7//17 10//17 14//17
f 3//18 2//18 15//18
f 9//3 3//3 15//3
f 7//19 9//19 15//19
f 5//20 10//20 16//20
f 10//21 7//21 16//21
f 15//22 2//22 16//22
f 7//23 15//23 16//23
f 4//24 8//24 17//24
f 8//25 5//25 17//25
f 2//26 11//26 17//26
f 11//27 4//27 17//27
f 16//28 2//28 17//28
