# Blender v2.79 (sub 0) OBJ File: ''
# www.blender.org
mtllib 102666_link_1_15.mtl
o Shape_IndexedFaceSet.015_Shape_IndexedFaceSet.10725
v -0.333591 0.300714 0.003460
v -0.333591 0.297410 0.003460
v -0.353408 0.300714 0.201605
v -0.383129 0.284201 0.201605
v -0.393034 0.300714 0.201605
v -0.360013 0.284201 -0.009761
v -0.373217 0.300714 -0.009761
v -0.402946 0.284201 0.201605
v -0.386422 0.284201 0.000149
v -0.386422 0.300714 0.052991
v -0.353408 0.297410 0.201605
v -0.402946 0.290807 0.201605
v -0.389735 0.287505 0.013370
vn -0.9975 0.0000 -0.0700
vn 0.9950 0.0000 0.0995
vn 0.0000 1.0000 0.0000
vn 0.0000 0.0000 1.0000
vn 0.4475 0.0000 -0.8943
vn 0.3068 0.2453 -0.9196
vn 0.0000 -1.0000 0.0000
vn -0.3382 -0.2705 -0.9014
vn 0.4295 -0.9021 0.0430
vn 0.4057 -0.9129 0.0444
vn -0.7066 0.7069 -0.0314
vn -0.8968 0.4367 -0.0706
vn -0.8271 -0.5579 -0.0678
vn -0.8242 0.4653 -0.3228
vn -0.7408 0.6534 -0.1559
usemtl Shape.10733
s off
f 8//1 12//1 13//1
f 2//2 1//2 3//2
f 3//3 1//3 5//3
f 4//4 3//4 5//4
f 1//5 2//5 6//5
f 5//3 1//3 7//3
f 1//6 6//6 7//6
f 4//4 5//4 8//4
f 6//7 4//7 8//7
f 6//7 8//7 9//7
f 7//8 6//8 9//8
f 5//3 7//3 10//3
f 2//2 3//2 11//2
f 3//4 4//4 11//4
f 6//9 2//9 11//9
f 4//10 6//10 11//10
f 8//4 5//4 12//4
f 5//11 10//11 12//11
f 12//12 10//12 13//12
f 9//13 8//13 13//13
f 7//14 9//14 13//14
f 10//15 7//15 13//15
