# Blender v2.79 (sub 0) OBJ File: ''
# www.blender.org
mtllib 102666_link_2_26.mtl
o Shape_IndexedFaceSet.026_Shape_IndexedFaceSet.4845
v -0.111855 -0.026521 -0.166705
v -0.093601 -0.227308 -0.623107
v -0.093601 -0.172529 -0.623107
v -0.029706 0.000891 -0.604834
v -0.075347 -0.227308 -0.175864
v -0.056941 0.011008 -0.164808
v -0.097171 0.033227 -0.438490
v -0.045168 -0.239452 -0.636365
v -0.123740 -0.234466 -0.152939
v -0.075347 0.010021 -0.623107
v -0.120987 -0.218155 -0.294521
v -0.103650 0.014035 -0.158986
v -0.029706 0.010021 -0.623107
v -0.102724 -0.218155 -0.595676
v -0.057092 -0.063041 -0.230635
v -0.120987 -0.126856 -0.175864
vn -0.9996 0.0220 -0.0169
vn -0.2640 0.0000 -0.9645
vn 0.4360 -0.0753 0.8968
vn -0.2510 -0.9675 -0.0308
vn 0.1632 -0.9859 0.0367
vn -0.2338 0.0234 -0.9720
vn -0.9798 0.1999 -0.0090
vn 0.0732 0.9949 0.0700
vn -0.8674 0.0821 0.4908
vn 0.1246 0.0141 0.9921
vn 0.9914 0.1174 0.0587
vn 0.3743 0.9271 0.0202
vn 0.9977 -0.0602 -0.0301
vn -0.0000 0.9922 -0.1247
vn 0.0000 0.0531 -0.9986
vn -0.9489 0.0000 -0.3156
vn -0.7911 -0.6087 -0.0600
vn -0.9817 0.0982 -0.1632
vn -0.9862 0.1028 -0.1295
vn -0.9964 0.0598 -0.0604
vn -0.9401 -0.3362 -0.0570
vn 0.9963 -0.0580 0.0630
vn 0.9928 -0.0808 0.0886
vn 0.9956 -0.0720 0.0606
vn 0.9938 -0.0880 0.0675
vn -0.9951 0.0936 -0.0332
vn -0.9753 0.0696 0.2097
vn -0.9966 0.0655 -0.0504
usemtl Shape.4853
s off
f 11//1 9//1 16//1
f 2//2 3//2 8//2
f 5//3 6//3 9//3
f 2//4 8//4 9//4
f 8//5 5//5 9//5
f 8//6 3//6 10//6
f 7//7 1//7 12//7
f 6//8 7//8 12//8
f 1//9 9//9 12//9
f 9//10 6//10 12//10
f 6//11 4//11 13//11
f 7//12 6//12 13//12
f 4//13 8//13 13//13
f 10//14 7//14 13//14
f 8//15 10//15 13//15
f 3//16 2//16 14//16
f 2//17 9//17 14//17
f 10//18 3//18 14//18
f 7//19 10//19 14//19
f 11//20 7//20 14//20
f 9//21 11//21 14//21
f 4//22 6//22 15//22
f 6//23 5//23 15//23
f 8//24 4//24 15//24
f 5//25 8//25 15//25
f 1//26 7//26 16//26
f 9//27 1//27 16//27
f 7//28 11//28 16//28
