# Blender v2.79 (sub 0) OBJ File: ''
# www.blender.org
mtllib 102666_link_1_50.mtl
o Shape_IndexedFaceSet.050_Shape_IndexedFaceSet.10760
v 0.168412 0.261070 0.822487
v 0.227844 0.204946 0.759756
v 0.231141 0.204946 0.759756
v 0.227844 0.280899 0.746545
v 0.165102 0.208255 0.802665
v 0.231141 0.280899 0.772960
v 0.165102 0.280899 0.796063
v 0.214630 0.211556 0.792758
v 0.227844 0.261070 0.743240
v 0.175019 0.204946 0.815877
v 0.165102 0.280899 0.819182
v 0.191530 0.261070 0.809275
v 0.231141 0.204946 0.772960
v 0.227844 0.211556 0.753154
v 0.168412 0.214857 0.822487
v 0.171715 0.264379 0.789461
vn -0.6328 0.0554 -0.7724
vn 0.9921 0.0215 -0.1238
vn 0.0000 1.0000 -0.0000
vn 0.9918 0.0211 -0.1264
vn -0.6143 0.1297 -0.7783
vn 0.0000 -1.0000 0.0000
vn -0.1451 -0.9800 -0.1365
vn -1.0000 0.0000 0.0000
vn 0.6589 0.0572 0.7500
vn 0.4838 0.2219 0.8466
vn 0.5404 0.3345 0.7721
vn 1.0000 0.0000 0.0000
vn 0.7680 0.0000 0.6405
vn 0.4601 -0.6529 0.6017
vn 0.0000 -0.7067 -0.7075
vn -0.4622 -0.6267 -0.6274
vn 0.8434 -0.1055 -0.5268
vn -0.6068 -0.1561 -0.7794
vn -0.6666 -0.6667 0.3334
vn 0.5187 -0.2074 0.8294
vn -0.7066 0.0000 0.7076
vn -0.9833 -0.0404 0.1776
vn 0.5393 -0.0292 0.8416
vn 0.4962 0.0000 0.8682
vn -0.7735 -0.0574 -0.6312
vn -0.6359 -0.1050 -0.7646
usemtl Shape.10768
s off
f 7//1 9//1 16//1
f 3//2 4//2 6//2
f 6//3 4//3 7//3
f 4//4 3//4 9//4
f 7//5 4//5 9//5
f 2//6 3//6 10//6
f 5//7 2//7 10//7
f 6//3 7//3 11//3
f 7//8 5//8 11//8
f 8//9 6//9 12//9
f 11//10 1//10 12//10
f 6//11 11//11 12//11
f 3//12 6//12 13//12
f 6//13 8//13 13//13
f 10//6 3//6 13//6
f 8//14 10//14 13//14
f 3//15 2//15 14//15
f 2//16 5//16 14//16
f 9//17 3//17 14//17
f 5//18 9//18 14//18
f 5//19 10//19 15//19
f 10//20 8//20 15//20
f 1//21 11//21 15//21
f 11//22 5//22 15//22
f 8//23 12//23 15//23
f 12//24 1//24 15//24
f 5//25 7//25 16//25
f 9//26 5//26 16//26
