# Blender v2.79 (sub 0) OBJ File: ''
# www.blender.org
mtllib 102666_link_1_31.mtl
o Shape_IndexedFaceSet.031_Shape_IndexedFaceSet.10741
v 0.032412 0.293532 0.844023
v 0.099042 0.297409 0.789468
v 0.099042 0.300710 0.789468
v -0.049567 0.297409 0.802687
v 0.108958 0.280899 0.819203
v -0.049567 0.280899 0.829092
v -0.049567 0.300710 0.839000
v 0.102347 0.300710 0.832391
v 0.023842 0.281992 0.848754
v 0.099042 0.284203 0.842298
v -0.046262 0.287506 0.848907
v -0.049567 0.300710 0.802687
vn -1.0000 0.0000 0.0000
vn -0.0886 0.0000 -0.9961
vn 0.9486 0.0000 -0.3163
vn -0.0298 -0.8781 -0.4776
vn -0.0471 -0.8470 -0.5296
vn 0.9308 0.3583 -0.0717
vn 0.0279 0.7670 0.6410
vn 0.0000 1.0000 0.0000
vn 0.0028 -0.9990 0.0450
vn 0.0921 0.4988 0.8618
vn 0.9203 0.0487 0.3882
vn 0.0427 -0.9863 0.1594
vn 0.0709 0.3328 0.9403
vn 0.0036 0.6007 0.7994
vn -0.9759 -0.0977 0.1953
vn -0.0734 -0.9424 0.3265
vn 0.0303 0.3598 0.9325
usemtl Shape.10749
s off
f 4//1 7//1 12//1
f 3//2 2//2 4//2
f 2//3 3//3 5//3
f 2//4 5//4 6//4
f 4//5 2//5 6//5
f 4//1 6//1 7//1
f 5//6 3//6 8//6
f 7//7 1//7 8//7
f 3//8 7//8 8//8
f 6//9 5//9 9//9
f 8//10 1//10 10//10
f 5//11 8//11 10//11
f 9//12 5//12 10//12
f 1//13 9//13 10//13
f 1//14 7//14 11//14
f 7//15 6//15 11//15
f 6//16 9//16 11//16
f 9//17 1//17 11//17
f 3//2 4//2 12//2
f 7//8 3//8 12//8
