# Blender v2.79 (sub 0) OBJ File: ''
# www.blender.org
mtllib 102666_link_1_48.mtl
o Shape_IndexedFaceSet.048_Shape_IndexedFaceSet.10758
v 0.029769 0.208312 0.854346
v 0.108958 0.280899 0.839015
v 0.105641 0.261070 0.848909
v 0.108958 0.208255 0.832407
v 0.019796 0.277583 0.832407
v 0.019796 0.254468 0.865428
v 0.108958 0.274282 0.819192
v 0.085827 0.211556 0.855517
v 0.023104 0.264379 0.829104
v 0.019796 0.208255 0.848909
v 0.019796 0.280899 0.852213
v 0.019796 0.218158 0.865428
v 0.105641 0.204946 0.845605
v 0.105641 0.261070 0.819192
v 0.095734 0.280899 0.822496
v 0.042918 0.257769 0.862124
v 0.108958 0.211556 0.848909
v 0.075920 0.218158 0.858820
v 0.059423 0.204946 0.858820
v 0.102341 0.208255 0.832407
vn -0.1252 -0.2335 -0.9643
vn 1.0000 0.0000 -0.0000
vn -0.1358 0.2083 -0.9686
vn -1.0000 -0.0000 0.0000
vn -0.8845 -0.1080 -0.4539
vn -0.2655 -0.8269 0.4957
vn 0.6159 -0.1546 -0.7725
vn -0.1180 0.0296 -0.9926
vn 0.3678 0.8821 -0.2944
vn -0.1356 0.2123 -0.9678
vn 0.0000 1.0000 0.0000
vn -0.0645 0.9842 -0.1648
vn 0.1662 0.4179 0.8932
vn 0.1272 0.4954 0.8593
vn 0.0638 0.4463 0.8926
vn 0.9035 0.0605 0.4242
vn 0.8693 -0.4847 0.0970
vn 0.1169 0.0000 0.9931
vn 0.2011 0.0861 0.9758
vn 0.1370 0.0315 0.9901
vn 0.2909 0.0195 0.9566
vn 0.2740 -0.0687 0.9593
vn -0.1506 -0.9463 0.2862
vn -0.1764 -0.8093 0.5603
vn -0.0440 -0.9871 -0.1538
vn 0.2338 -0.5250 0.8184
vn 0.2338 -0.5260 0.8177
vn 0.1747 -0.2182 0.9601
vn 0.1157 -0.1445 0.9827
vn -0.1859 -0.3172 -0.9300
vn 0.0000 -0.9700 -0.2432
vn -0.0464 -0.9716 -0.2320
vn 0.0000 -0.2427 -0.9701
usemtl Shape.10766
s off
f 9//1 14//1 20//1
f 2//2 4//2 7//2
f 5//3 7//3 9//3
f 6//4 5//4 10//4
f 5//5 9//5 10//5
f 5//4 6//4 11//4
f 10//6 1//6 12//6
f 6//4 10//4 12//4
f 7//7 4//7 14//7
f 9//8 7//8 14//8
f 2//9 7//9 15//9
f 7//10 5//10 15//10
f 11//11 2//11 15//11
f 5//12 11//12 15//12
f 3//13 2//13 16//13
f 2//14 11//14 16//14
f 11//15 6//15 16//15
f 2//16 3//16 17//16
f 4//2 2//2 17//2
f 13//17 4//17 17//17
f 6//18 12//18 18//18
f 3//19 16//19 18//19
f 16//20 6//20 18//20
f 17//21 3//21 18//21
f 8//22 17//22 18//22
f 1//23 10//23 19//23
f 12//24 1//24 19//24
f 10//25 13//25 19//25
f 17//26 8//26 19//26
f 13//27 17//27 19//27
f 8//28 18//28 19//28
f 18//29 12//29 19//29
f 10//30 9//30 20//30
f 4//31 13//31 20//31
f 13//32 10//32 20//32
f 14//33 4//33 20//33
