# Blender v2.79 (sub 0) OBJ File: ''
# www.blender.org
mtllib 102666_link_0_3.mtl
o Shape_IndexedFaceSet.003_Shape_IndexedFaceSet.1479
v -0.514263 0.367148 -0.486539
v -0.509662 0.321629 -0.538691
v -0.507103 0.321629 -0.538691
v -0.507103 0.322146 -0.481414
v -0.507103 0.363565 -0.522840
v -0.515287 0.323683 -0.481420
v -0.515287 0.357430 -0.531536
v -0.507103 0.364590 -0.481414
v -0.515287 0.321629 -0.523866
v -0.507103 0.353335 -0.538181
v -0.515287 0.367148 -0.481420
v -0.514263 0.322146 -0.537160
v -0.515287 0.365098 -0.522329
v -0.508127 0.348220 -0.538691
v -0.507103 0.321629 -0.488580
v -0.509150 0.366123 -0.482446
v -0.515287 0.329306 -0.531536
v -0.507103 0.364078 -0.518236
v -0.514775 0.365611 -0.518746
v -0.509150 0.364078 -0.523350
v -0.513751 0.321629 -0.537671
v -0.515287 0.359983 -0.529490
v -0.507103 0.354360 -0.537160
v -0.513751 0.323170 -0.482956
v -0.507103 0.364590 -0.507504
v -0.515287 0.321629 -0.521819
v -0.513240 0.367148 -0.481414
v -0.509662 0.335446 -0.538691
v -0.515287 0.367148 -0.488580
v -0.512728 0.365098 -0.521303
v -0.508127 0.322146 -0.481414
vn -0.0009 -0.0001 1.0000
vn 1.0000 -0.0000 0.0000
vn 0.0000 -1.0000 0.0000
vn -1.0000 -0.0000 0.0000
vn 0.0000 0.0000 -1.0000
vn 0.3854 0.0148 -0.9226
vn -0.5588 0.1923 -0.8067
vn -0.9936 -0.0796 -0.0796
vn -0.9838 0.0000 -0.1791
vn 0.2666 0.9579 -0.1067
vn -0.7480 -0.6585 -0.0832
vn -0.6497 0.1012 -0.7534
vn -0.6326 0.1044 -0.7674
vn -0.3054 0.5955 -0.7431
vn 1.0000 -0.0001 0.0000
vn 0.3266 0.7951 -0.5111
vn 0.0413 0.8200 -0.5709
vn -0.1762 0.6947 -0.6974
vn 0.0143 0.8136 -0.5812
vn 0.5995 0.8004 0.0000
vn 1.0000 0.0001 0.0000
vn 0.2124 0.9761 -0.0466
vn -0.2721 -0.9610 0.0489
vn 0.0000 0.0000 1.0000
vn 0.0000 1.0000 0.0000
vn -0.0029 0.0000 1.0000
vn 0.3288 0.7887 0.5195
vn 0.2198 0.9746 -0.0439
vn 0.2333 0.9716 -0.0404
vn -0.2420 0.0000 -0.9703
vn -0.3868 0.0465 -0.9210
vn -1.0000 -0.0002 0.0000
vn 0.0976 0.9940 -0.0490
vn -0.4989 0.8650 -0.0525
vn 0.2038 0.9778 -0.0487
vn 0.1838 0.9817 -0.0498
vn 0.0601 0.9869 -0.1499
vn 0.2250 0.9702 -0.0901
vn 0.1120 0.9536 -0.2794
vn 0.0000 -0.9974 0.0720
vn -0.2086 -0.9711 0.1158
vn -0.1821 -0.9823 0.0448
vn -0.1912 -0.9804 0.0464
usemtl Shape.1486
s off
f 27//1 6//1 31//1
f 4//2 3//2 5//2
f 4//2 5//2 8//2
f 2//3 3//3 9//3
f 6//4 7//4 9//4
f 5//2 3//2 10//2
f 7//4 6//4 11//4
f 7//4 11//4 13//4
f 3//5 2//5 14//5
f 10//6 3//6 14//6
f 7//7 10//7 14//7
f 3//2 4//2 15//2
f 9//3 3//3 15//3
f 9//4 7//4 17//4
f 12//8 9//8 17//8
f 7//9 12//9 17//9
f 8//2 5//2 18//2
f 18//10 5//10 20//10
f 2//3 9//3 21//3
f 9//11 12//11 21//11
f 12//12 7//12 21//12
f 7//13 14//13 21//13
f 10//14 7//14 22//14
f 7//4 13//4 22//4
f 5//15 10//15 23//15
f 20//16 5//16 23//16
f 13//17 20//17 23//17
f 10//18 22//18 23//18
f 22//19 13//19 23//19
f 16//20 8//20 25//20
f 8//21 18//21 25//21
f 18//22 1//22 25//22
f 6//4 9//4 26//4
f 9//3 15//3 26//3
f 24//23 6//23 26//23
f 4//24 8//24 27//24
f 1//25 11//25 27//25
f 11//26 6//26 27//26
f 8//27 16//27 27//27
f 25//28 1//28 27//28
f 16//29 25//29 27//29
f 14//5 2//5 28//5
f 2//30 21//30 28//30
f 21//31 14//31 28//31
f 11//25 1//25 29//25
f 13//32 11//32 29//32
f 1//33 19//33 29//33
f 19//34 13//34 29//34
f 1//35 18//35 30//35
f 19//36 1//36 30//36
f 13//37 19//37 30//37
f 18//38 20//38 30//38
f 20//39 13//39 30//39
f 15//40 4//40 31//40
f 6//41 24//41 31//41
f 26//42 15//42 31//42
f 24//43 26//43 31//43
f 4//24 27//24 31//24
