# Blender v2.79 (sub 0) OBJ File: ''
# www.blender.org
mtllib 102666_link_2_12.mtl
o Shape_IndexedFaceSet.012_Shape_IndexedFaceSet.4831
v -0.102738 -0.601578 -0.175875
v -0.167976 -0.686238 -0.464702
v -0.157499 -0.683709 -0.458802
v -0.139236 -0.546789 -0.458802
v -0.166627 -0.565070 -0.139384
v -0.093603 -0.546789 -0.458802
v -0.166627 -0.656301 -0.166744
v -0.102738 -0.638047 -0.458802
v -0.111859 -0.546789 -0.139384
v -0.130115 -0.647174 -0.139384
v -0.166627 -0.610692 -0.458802
v -0.158619 -0.543989 -0.132853
v -0.111859 -0.638047 -0.175875
v -0.093603 -0.546789 -0.330972
vn 0.0606 0.9981 0.0058
vn 0.0000 0.0423 -0.9991
vn -1.0000 -0.0014 0.0047
vn 0.4981 -0.5974 -0.6285
vn 0.0972 -0.0097 -0.9952
vn 0.1820 -0.9786 0.0963
vn 0.1718 -0.9803 0.0977
vn -0.5426 -0.2413 0.8046
vn 0.8748 -0.1591 0.4575
vn -0.1862 0.0798 -0.9793
vn -0.9998 0.0181 -0.0026
vn -0.9280 0.3688 -0.0527
vn 0.0000 1.0000 -0.0086
vn -0.3475 -0.1545 0.9249
vn 0.1368 -0.0249 0.9903
vn -0.9176 0.3933 -0.0579
vn 0.6403 -0.7679 0.0206
vn 0.9696 -0.2425 0.0313
vn 0.5275 -0.8480 0.0518
vn 0.8929 -0.2233 0.3909
vn 0.9925 -0.1212 0.0156
vn 0.9950 -0.0996 0.0000
vn 0.9903 0.1020 0.0944
vn 0.0430 0.9991 0.0000
usemtl Shape.4839
s off
f 12//1 9//1 14//1
f 2//2 4//2 6//2
f 5//3 2//3 7//3
f 3//4 2//4 8//4
f 2//5 6//5 8//5
f 2//6 3//6 10//6
f 7//7 2//7 10//7
f 5//8 7//8 10//8
f 1//9 9//9 10//9
f 4//10 2//10 11//10
f 2//11 5//11 11//11
f 11//12 5//12 12//12
f 6//13 4//13 12//13
f 5//14 10//14 12//14
f 10//15 9//15 12//15
f 4//16 11//16 12//16
f 3//17 8//17 13//17
f 8//18 1//18 13//18
f 10//19 3//19 13//19
f 1//20 10//20 13//20
f 1//21 8//21 14//21
f 8//22 6//22 14//22
f 9//23 1//23 14//23
f 6//24 12//24 14//24
