# Blender v2.79 (sub 0) OBJ File: ''
# www.blender.org
mtllib 102666_link_1_44.mtl
o Shape_IndexedFaceSet.044_Shape_IndexedFaceSet.10754
v 0.399583 0.284193 0.026566
v 0.340222 0.288260 -0.098596
v 0.389675 0.211556 0.033173
v 0.376627 0.288131 0.035940
v 0.369866 0.284193 -0.085706
v 0.350051 0.211556 -0.092326
v 0.406192 0.211556 0.023263
v 0.369866 0.211556 -0.092326
v 0.406192 0.257770 0.023263
v 0.376463 0.237972 -0.079113
v 0.406192 0.208251 0.033173
v 0.366562 0.274279 -0.095629
v 0.353356 0.208251 -0.095629
v 0.383072 0.280889 -0.049383
v 0.406192 0.261075 0.033173
v 0.386371 0.214853 -0.049383
v 0.369866 0.204939 -0.059293
v 0.366562 0.208251 -0.095629
vn 0.3849 -0.9153 -0.1184
vn 0.1529 0.9874 -0.0404
vn 0.1531 0.9874 -0.0405
vn -0.9603 -0.1018 0.2598
vn -0.9396 -0.1708 0.2967
vn -0.0075 -0.0374 0.9993
vn 1.0000 0.0000 0.0000
vn 0.3899 0.5833 -0.7126
vn 0.9205 0.0767 -0.3831
vn 0.8771 0.0209 -0.4798
vn -0.7697 -0.1494 -0.6207
vn -0.5944 -0.7820 0.1877
vn 0.6664 0.7244 -0.1764
vn 0.9405 0.2622 -0.2159
vn 0.9388 0.0864 -0.3335
vn 0.9563 0.0521 -0.2878
vn 0.4050 0.3564 0.8420
vn 0.9642 0.2517 -0.0839
vn 0.0932 0.0000 0.9956
vn 0.9647 0.0000 -0.2632
vn 0.9334 -0.0558 -0.3545
vn 0.9573 0.0423 -0.2862
vn -0.1950 -0.9744 0.1115
vn -0.5521 -0.8149 0.1766
vn 0.0000 -0.9959 -0.0908
vn 0.7169 -0.6614 -0.2206
vn 0.1119 0.0000 -0.9937
vn 0.7070 0.0000 -0.7072
vn 0.0000 -0.0371 -0.9993
vn 0.7497 -0.6196 -0.2327
vn 0.8018 -0.5346 -0.2671
usemtl Shape.10762
s off
f 11//1 17//1 18//1
f 1//2 2//2 4//2
f 2//3 1//3 5//3
f 4//4 2//4 6//4
f 3//5 4//5 6//5
f 4//6 3//6 11//6
f 7//7 9//7 11//7
f 2//8 5//8 12//8
f 5//9 10//9 12//9
f 10//10 8//10 12//10
f 6//11 2//11 13//11
f 3//12 6//12 13//12
f 5//13 1//13 14//13
f 1//14 9//14 14//14
f 10//15 5//15 14//15
f 9//16 10//16 14//16
f 1//17 4//17 15//17
f 9//18 1//18 15//18
f 4//19 11//19 15//19
f 11//7 9//7 15//7
f 9//20 7//20 16//20
f 8//21 10//21 16//21
f 10//22 9//22 16//22
f 11//23 3//23 17//23
f 3//24 13//24 17//24
f 17//25 13//25 18//25
f 7//26 11//26 18//26
f 2//27 12//27 18//27
f 12//28 8//28 18//28
f 13//29 2//29 18//29
f 16//30 7//30 18//30
f 8//31 16//31 18//31
