# Blender v2.79 (sub 0) OBJ File: ''
# www.blender.org
mtllib 102666_link_2_32.mtl
o Shape_IndexedFaceSet.032_Shape_IndexedFaceSet.4851
v -0.276163 -0.455473 0.079739
v -0.137804 -0.551275 -0.199056
v -0.106886 -0.539945 -0.186513
v -0.130126 -0.291204 -0.194089
v -0.212255 -0.291204 0.088880
v -0.239649 -0.546789 0.088880
v -0.093613 -0.300360 -0.121048
v -0.267007 -0.546789 -0.002415
v -0.239649 -0.291204 -0.002415
v -0.120989 -0.546789 -0.102795
v -0.084475 -0.355100 -0.194089
v -0.257888 -0.291204 0.088880
v -0.212255 -0.336862 0.088880
v -0.274692 -0.544826 0.086707
v -0.102732 -0.537632 -0.148442
v -0.084475 -0.291204 -0.157555
v -0.257888 -0.537632 -0.020696
v -0.230511 -0.300360 -0.029837
v -0.257888 -0.355100 0.024951
v -0.230511 -0.510262 0.088880
v -0.139245 -0.418996 -0.194089
vn -0.8425 0.0601 -0.5353
vn -0.0238 -0.9997 0.0071
vn 0.0000 1.0000 0.0000
vn 0.3503 -0.9365 -0.0175
vn 0.0586 -0.9976 0.0363
vn 0.4014 -0.0860 -0.9118
vn 0.0257 0.0183 -0.9995
vn 0.0000 0.0000 1.0000
vn 0.8706 0.0000 0.4920
vn 0.8735 -0.0613 0.4830
vn -0.9961 -0.0231 -0.0854
vn -0.0570 -0.9982 0.0171
vn -0.0621 -0.0044 0.9981
vn -0.7223 0.0419 0.6903
vn 0.4567 -0.8896 0.0042
vn 0.9310 -0.0770 0.3569
vn 0.9872 -0.1238 -0.1002
vn 0.9903 -0.0689 0.1205
vn 0.6438 0.6885 0.3338
vn 0.5706 0.4076 -0.7129
vn 0.9717 -0.0636 0.2273
vn -0.8127 -0.2455 -0.5284
vn -0.7382 0.5265 -0.4218
vn -0.8526 0.0785 -0.5167
vn -0.9084 0.0891 -0.4085
vn -0.9788 0.0739 -0.1912
vn -0.9864 0.1162 -0.1161
vn -0.9623 0.1924 -0.1923
vn -0.9300 0.1161 -0.3487
vn -0.9255 0.0963 -0.3662
vn 0.8317 -0.2081 0.5148
vn 0.8572 -0.0902 0.5070
vn -0.4151 0.0296 -0.9093
vn -0.8290 0.0120 -0.5591
usemtl Shape.4859
s off
f 17//1 4//1 21//1
f 2//2 6//2 8//2
f 5//3 4//3 9//3
f 2//4 3//4 10//4
f 6//5 2//5 10//5
f 3//6 2//6 11//6
f 2//7 4//7 11//7
f 6//8 5//8 12//8
f 5//3 9//3 12//3
f 5//8 6//8 13//8
f 7//9 5//9 13//9
f 10//10 7//10 13//10
f 1//11 8//11 14//11
f 8//12 6//12 14//12
f 6//13 12//13 14//13
f 12//14 1//14 14//14
f 10//15 3//15 15//15
f 7//16 10//16 15//16
f 3//17 11//17 15//17
f 15//18 11//18 16//18
f 4//3 5//3 16//3
f 5//19 7//19 16//19
f 11//20 4//20 16//20
f 7//21 15//21 16//21
f 2//22 8//22 17//22
f 9//23 4//23 18//23
f 4//24 17//24 18//24
f 17//25 8//25 18//25
f 8//26 1//26 19//26
f 1//27 12//27 19//27
f 12//28 9//28 19//28
f 9//29 18//29 19//29
f 18//30 8//30 19//30
f 6//31 10//31 20//31
f 13//8 6//8 20//8
f 10//32 13//32 20//32
f 4//33 2//33 21//33
f 2//34 17//34 21//34
