# Blender v2.79 (sub 0) OBJ File: ''
# www.blender.org
mtllib 102666_link_0_0.mtl
o Shape_IndexedFaceSet_Shape_IndexedFaceSet.1476
v -0.533186 0.368682 -0.497263
v -0.515802 0.322140 -0.525392
v -0.516825 0.322140 -0.524887
v -0.515291 0.334421 -0.463006
v -0.550581 0.336977 -0.516188
v -0.515291 0.360502 -0.528978
v -0.534724 0.330326 -0.468126
v -0.515291 0.367148 -0.470171
v -0.534209 0.362542 -0.468631
v -0.544953 0.363565 -0.518752
v -0.543419 0.336977 -0.526933
v -0.543419 0.327769 -0.517722
v -0.515291 0.324195 -0.472728
v -0.538814 0.339022 -0.467097
v -0.532678 0.369194 -0.519263
v -0.523986 0.362031 -0.461984
v -0.515291 0.328796 -0.531023
v -0.539325 0.360497 -0.527444
v -0.515291 0.365615 -0.520279
v -0.530122 0.336466 -0.460954
v -0.521938 0.369194 -0.469660
v -0.546487 0.358452 -0.515166
v -0.515802 0.356407 -0.531541
v -0.532167 0.327769 -0.469660
v -0.515291 0.359986 -0.463518
v -0.536769 0.369194 -0.519768
v -0.550066 0.340050 -0.513121
v -0.545464 0.328796 -0.516700
v -0.533186 0.364592 -0.470171
v -0.544442 0.334932 -0.525910
v -0.550066 0.339538 -0.518752
v -0.517847 0.322140 -0.521301
v -0.544953 0.363565 -0.514655
v -0.516313 0.368171 -0.474262
v -0.516825 0.330842 -0.531541
v -0.538814 0.335955 -0.469142
v -0.521938 0.326747 -0.468631
v -0.527565 0.361008 -0.463006
v -0.539325 0.341068 -0.469653
v -0.525005 0.369194 -0.471194
v -0.537791 0.362035 -0.527444
v -0.544442 0.329308 -0.520286
v -0.522449 0.366121 -0.523354
v -0.526031 0.337488 -0.460961
v -0.545464 0.339027 -0.525399
v -0.543419 0.362031 -0.522324
v -0.530633 0.334421 -0.461984
v -0.528588 0.358456 -0.529489
v -0.541882 0.366126 -0.516195
v -0.515291 0.322140 -0.513121
v -0.515291 0.327769 -0.467608
v -0.517847 0.324195 -0.479375
v -0.541370 0.327262 -0.516195
v -0.521938 0.361524 -0.461984
v -0.537791 0.340045 -0.466081
v -0.530633 0.364076 -0.466585
v -0.534209 0.328796 -0.469660
v -0.549043 0.335443 -0.512609
v -0.520915 0.369194 -0.473744
v -0.530122 0.339538 -0.460954
v -0.550066 0.343117 -0.517218
v -0.533186 0.329303 -0.467097
v -0.518870 0.323679 -0.525910
v -0.541370 0.362035 -0.497263
vn -0.9503 0.2101 0.2299
vn 1.0000 0.0000 0.0000
vn 0.9761 0.0140 -0.2170
vn 0.0000 1.0000 -0.0000
vn -0.9692 -0.0724 0.2353
vn -0.4082 -0.9079 0.0956
vn -0.8343 -0.2971 -0.4643
vn 0.0000 -1.0000 0.0000
vn -0.2230 -0.9727 -0.0636
vn -0.9578 0.2874 0.0000
vn -0.8079 0.5540 0.2009
vn 0.7468 0.6648 -0.0203
vn 0.3016 0.9400 0.1597
vn 0.3052 -0.0122 -0.9522
vn -0.2358 -0.3379 -0.9112
vn -0.2398 -0.4034 -0.8831
vn -0.6963 -0.3982 0.5972
vn -0.9588 -0.1576 0.2364
vn -0.1289 -0.9220 0.3652
vn -0.9166 0.2020 0.3449
vn -0.9696 0.0555 0.2383
vn -0.2639 0.9624 0.0639
vn -0.4735 0.8709 0.1315
vn -0.0214 0.5323 -0.8463
vn -0.2923 -0.8669 -0.4037
vn -0.8164 -0.4917 -0.3029
vn -0.5357 -0.8010 -0.2671
vn -0.8047 -0.4198 -0.4198
vn 0.2684 0.8305 -0.4881
vn 0.1798 0.9480 -0.2625
vn 0.0613 0.8656 -0.4969
vn 0.0000 0.7074 -0.7068
vn -0.0134 0.7321 -0.6810
vn 0.0843 -0.3312 0.9398
vn -0.5476 0.0772 -0.8332
vn -0.6390 -0.0638 -0.7666
vn -0.8195 -0.1351 -0.5570
vn -0.8078 0.1481 -0.5706
vn -0.5279 0.6743 -0.5163
vn -0.8715 0.1855 -0.4539
vn -0.5589 0.5574 -0.6139
vn -0.5032 0.6644 -0.5526
vn -0.7490 0.1528 -0.6447
vn 0.0590 -0.4608 0.8856
vn -0.6060 -0.2318 0.7609
vn -0.1851 0.0109 -0.9827
vn -0.1706 0.0005 -0.9853
vn -0.1575 0.0063 -0.9875
vn -0.1562 0.1557 -0.9754
vn -0.1125 0.2589 -0.9593
vn -0.4632 0.8813 0.0938
vn -0.5727 0.8104 -0.1238
vn -0.5242 0.8420 0.1271
vn -0.6404 0.7680 0.0000
vn -0.5924 0.7936 0.1384
vn 0.9929 -0.1112 -0.0414
vn 0.0380 -0.8194 0.5720
vn 0.0547 -0.5681 0.8211
vn -0.0132 -0.6632 0.7484
vn -0.1936 -0.9782 0.0745
vn -0.1310 -0.9901 0.0504
vn -0.1548 -0.9868 0.0484
vn -0.2865 -0.9557 0.0671
vn -0.2189 -0.9753 -0.0301
vn -0.2086 -0.9766 0.0519
vn -0.2026 -0.9781 0.0479
vn 0.2625 0.6826 0.6820
vn 0.1725 0.6967 0.6963
vn 0.2291 0.0195 0.9732
vn 0.3104 0.6470 0.6965
vn 0.1897 0.0095 0.9818
vn -0.7815 0.1917 0.5938
vn -0.6018 -0.1726 0.7797
vn -0.6099 0.1845 0.7707
vn -0.2119 0.7421 0.6359
vn -0.5665 0.6567 0.4978
vn -0.5696 0.3157 0.7589
vn -0.3691 0.5253 0.7667
vn -0.2731 0.7920 0.5460
vn -0.4083 0.8165 0.4082
vn -0.4467 -0.8883 0.1069
vn -0.8023 -0.5352 0.2645
vn -0.8176 -0.5403 0.1988
vn -0.8367 -0.5316 0.1317
vn -0.8934 -0.3944 0.2149
vn -0.8091 -0.5548 0.1936
vn 0.1985 0.9788 -0.0513
vn 0.2114 0.9761 -0.0495
vn 0.2226 0.9733 0.0558
vn -0.3057 0.1266 0.9437
vn 0.0017 0.0000 1.0000
vn 0.0106 0.0429 0.9990
vn 0.0212 0.0389 0.9990
vn -0.5558 0.0000 0.8313
vn -0.5434 0.1438 0.8271
vn -0.9686 0.2364 -0.0773
vn -0.9929 0.0952 0.0713
vn -0.9666 0.2051 0.1535
vn -0.8798 0.1872 -0.4368
vn -0.9885 0.0596 -0.1390
vn -0.6773 -0.3922 0.6224
vn -0.1344 -0.8729 0.4690
vn -0.6325 -0.3663 0.6825
vn -0.0587 -0.6907 0.7207
vn -0.6770 -0.6222 0.3933
vn -0.4233 -0.8416 0.3354
vn -0.2856 -0.7640 -0.5785
vn -0.1863 -0.6262 -0.7571
vn -0.2581 -0.5865 -0.7677
vn -0.2941 -0.7685 -0.5682
vn -0.2971 -0.6752 -0.6752
vn -0.9503 0.2103 0.2295
vn -0.9408 0.2606 0.2167
vn -0.9006 0.3757 0.2186
vn -0.9484 0.2148 0.2334
usemtl Shape.1483
s off
f 27//1 39//1 64//1
f 4//2 6//2 8//2
f 6//2 4//2 13//2
f 6//2 13//2 17//2
f 8//2 6//2 19//2
f 6//3 17//3 23//3
f 4//2 8//2 25//2
f 21//4 15//4 26//4
f 5//5 14//5 27//5
f 12//6 24//6 28//6
f 30//7 5//7 31//7
f 3//8 2//8 32//8
f 12//9 3//9 32//9
f 10//10 22//10 33//10
f 9//11 29//11 33//11
f 8//12 19//12 34//12
f 21//13 8//13 34//13
f 23//14 17//14 35//14
f 30//15 11//15 35//15
f 17//16 30//16 35//16
f 7//17 14//17 36//17
f 14//18 5//18 36//18
f 24//19 13//19 37//19
f 14//20 9//20 39//20
f 27//21 14//21 39//21
f 26//22 1//22 40//22
f 21//4 26//4 40//4
f 1//23 29//23 40//23
f 6//24 23//24 41//24
f 3//25 12//25 42//25
f 28//26 5//26 42//26
f 12//27 28//27 42//27
f 5//28 30//28 42//28
f 19//29 6//29 43//29
f 15//30 19//30 43//30
f 26//31 15//31 43//31
f 6//32 41//32 43//32
f 41//33 26//33 43//33
f 20//34 4//34 44//34
f 18//35 11//35 45//35
f 11//36 30//36 45//36
f 30//37 31//37 45//37
f 45//38 31//38 46//38
f 10//39 26//39 46//39
f 31//40 10//40 46//40
f 41//41 18//41 46//41
f 26//42 41//42 46//42
f 18//43 45//43 46//43
f 4//44 20//44 47//44
f 20//45 14//45 47//45
f 11//46 18//46 48//46
f 35//47 11//47 48//47
f 23//48 35//48 48//48
f 18//49 41//49 48//49
f 41//50 23//50 48//50
f 1//51 26//51 49//51
f 26//52 10//52 49//52
f 29//53 1//53 49//53
f 10//54 33//54 49//54
f 33//55 29//55 49//55
f 2//56 17//56 50//56
f 17//2 13//2 50//2
f 32//8 2//8 50//8
f 13//2 4//2 51//2
f 37//57 13//57 51//57
f 4//58 47//58 51//58
f 47//59 37//59 51//59
f 13//60 24//60 52//60
f 50//61 13//61 52//61
f 32//62 50//62 52//62
f 24//63 12//63 53//63
f 12//64 32//64 53//64
f 52//65 24//65 53//65
f 32//66 52//66 53//66
f 8//67 21//67 54//67
f 21//68 16//68 54//68
f 4//69 25//69 54//69
f 25//70 8//70 54//70
f 44//71 4//71 54//71
f 9//72 14//72 55//72
f 14//73 20//73 55//73
f 38//74 9//74 55//74
f 16//75 21//75 56//75
f 29//76 9//76 56//76
f 9//77 38//77 56//77
f 38//78 16//78 56//78
f 21//79 40//79 56//79
f 40//80 29//80 56//80
f 28//81 24//81 57//81
f 7//82 36//82 57//82
f 57//83 36//83 58//83
f 5//84 28//84 58//84
f 36//85 5//85 58//85
f 28//86 57//86 58//86
f 19//87 15//87 59//87
f 15//4 21//4 59//4
f 34//88 19//88 59//88
f 21//89 34//89 59//89
f 16//90 38//90 60//90
f 20//91 44//91 60//91
f 54//92 16//92 60//92
f 44//93 54//93 60//93
f 55//94 20//94 60//94
f 38//95 55//95 60//95
f 22//96 10//96 61//96
f 5//97 27//97 61//97
f 27//98 22//98 61//98
f 10//99 31//99 61//99
f 31//100 5//100 61//100
f 14//101 7//101 62//101
f 24//102 37//102 62//102
f 47//103 14//103 62//103
f 37//104 47//104 62//104
f 7//105 57//105 62//105
f 57//106 24//106 62//106
f 2//107 3//107 63//107
f 17//108 2//108 63//108
f 30//109 17//109 63//109
f 3//110 42//110 63//110
f 42//111 30//111 63//111
f 22//112 27//112 64//112
f 33//113 22//113 64//113
f 9//114 33//114 64//114
f 39//115 9//115 64//115
