# Blender v2.79 (sub 0) OBJ File: ''
# www.blender.org
mtllib 102666_link_1_40.mtl
o Shape_IndexedFaceSet.040_Shape_IndexedFaceSet.10750
v -0.353404 0.218159 0.538503
v -0.274144 0.277596 0.710206
v -0.277450 0.277596 0.710206
v -0.274144 0.208248 0.710206
v -0.333579 0.270984 0.525293
v -0.274144 0.208248 0.677152
v -0.353404 0.277596 0.538503
v -0.340182 0.208248 0.521976
v -0.274144 0.277596 0.673853
v -0.313778 0.211554 0.640836
v -0.326976 0.277596 0.611153
v -0.356709 0.277596 0.521976
v -0.353404 0.208248 0.531889
v -0.290672 0.274283 0.690362
v -0.274144 0.264379 0.667257
v -0.336892 0.277596 0.521976
v -0.284053 0.211554 0.700275
v -0.336892 0.214853 0.525293
v -0.356709 0.211554 0.521976
vn -0.9502 -0.1729 0.2591
vn 0.0000 0.0000 1.0000
vn 1.0000 0.0000 0.0000
vn 0.0000 1.0000 0.0000
vn 0.0000 -1.0000 0.0000
vn -0.9398 0.0000 0.3419
vn -0.9328 -0.0248 0.3596
vn -0.9806 0.0000 0.1961
vn -0.3475 -0.9249 0.1544
vn -0.9132 -0.2262 0.3390
vn -0.6678 0.6652 0.3339
vn -0.9090 0.0057 0.4168
vn 0.9094 0.1857 -0.3721
vn 0.6746 -0.0320 -0.7375
vn 0.8919 0.2620 -0.3685
vn -0.0000 0.0000 -1.0000
vn -0.7131 -0.0340 0.7002
vn -0.5357 -0.8008 0.2679
vn -0.8322 -0.0002 0.5545
vn -0.8941 -0.0237 0.4472
vn 0.7521 -0.0444 -0.6576
vn 0.8902 -0.2532 -0.3788
vn 0.9202 -0.0543 -0.3878
vn 0.9211 -0.0676 -0.3835
vn -0.1898 -0.9486 -0.2531
usemtl Shape.10758
s off
f 13//1 1//1 19//1
f 2//2 3//2 4//2
f 2//3 4//3 6//3
f 3//4 2//4 7//4
f 6//5 4//5 8//5
f 2//3 6//3 9//3
f 7//4 2//4 9//4
f 7//6 1//6 11//6
f 3//4 7//4 11//4
f 1//7 10//7 11//7
f 1//8 7//8 12//8
f 7//4 9//4 12//4
f 8//5 4//5 13//5
f 4//9 10//9 13//9
f 10//10 1//10 13//10
f 3//11 11//11 14//11
f 11//12 10//12 14//12
f 9//3 6//3 15//3
f 5//13 9//13 15//13
f 5//14 8//14 16//14
f 9//15 5//15 16//15
f 8//16 12//16 16//16
f 12//4 9//4 16//4
f 4//17 3//17 17//17
f 10//18 4//18 17//18
f 3//19 14//19 17//19
f 14//20 10//20 17//20
f 8//21 5//21 18//21
f 6//22 8//22 18//22
f 5//23 15//23 18//23
f 15//24 6//24 18//24
f 1//8 12//8 19//8
f 12//16 8//16 19//16
f 8//25 13//25 19//25
