####
#
# OBJ File Generated by Meshlab
#
####
# Object 100448_link_0_8.obj
#
# Vertices: 17
# Faces: 30
#
####
mtllib ./100448_link_0_8.obj.mtl

vn -0.883005 -0.458322 0.101211
v 0.195241 0.888976 0.021313
vn -0.215474 0.957496 0.191762
v 0.258539 1.006521 0.036907
vn -0.353243 0.824962 -0.441199
v 0.254245 0.991512 -0.002473
vn 0.702257 -0.323527 0.634165
v 0.288992 0.921766 0.046439
vn 0.967895 -0.216364 -0.127928
v 0.291036 0.924993 0.012946
vn -0.899225 0.221443 0.377303
v 0.209623 0.949877 0.038981
vn 0.076221 -0.783390 0.616840
v 0.246990 0.869703 0.039127
vn 0.183075 -0.547160 -0.816761
v 0.265340 0.897200 -0.011474
vn 0.782647 0.229796 0.578496
v 0.289467 0.969838 0.062355
vn -0.501432 0.200714 -0.841594
v 0.217186 0.964699 -0.006916
vn 0.317710 0.074872 -0.945227
v 0.284371 0.961133 -0.022048
vn -0.116848 0.377602 0.918566
v 0.244045 0.979630 0.065690
vn -0.326938 -0.473607 -0.817807
v 0.247217 0.871536 0.012211
vn -0.101626 -0.023070 0.994555
v 0.213045 0.936199 0.082003
vn 0.868221 0.473958 -0.146817
v 0.297246 0.989248 0.011519
vn -0.637808 -0.164070 -0.752517
v 0.203641 0.947143 0.011610
vn -0.287740 -0.618413 0.731281
v 0.258362 0.893833 0.065163
# 17 vertices, 0 vertices normals


usemtl material_0
f 14//14 6//6 17//17
f 2//2 3//3 6//6
f 6//6 1//1 7//7
f 5//5 4//4 8//8
f 4//4 7//7 8//8
f 4//4 5//5 9//9
f 6//6 3//3 10//10
f 8//8 10//10 11//11
f 5//5 8//8 11//11
f 10//10 3//3 11//11
f 2//2 6//6 12//12
f 9//9 2//2 12//12
f 4//4 9//9 12//12
f 7//7 1//1 13//13
f 8//8 7//7 13//13
f 12//12 6//6 14//14
f 4//4 12//12 14//14
f 3//3 2//2 15//15
f 2//2 9//9 15//15
f 9//9 5//5 15//15
f 5//5 11//11 15//15
f 11//11 3//3 15//15
f 1//1 6//6 16//16
f 6//6 10//10 16//16
f 10//10 8//8 16//16
f 13//13 1//1 16//16
f 8//8 13//13 16//16
f 7//7 4//4 17//17
f 6//6 7//7 17//17
f 4//4 14//14 17//17
# 30 faces, 0 coords texture

# End of File
