# Blender v2.79 (sub 0) OBJ File: ''
# www.blender.org
mtllib 100448_link_1_38.mtl
o Shape_IndexedFaceSet.038_Shape_IndexedFaceSet.6458
v 0.119179 -0.126875 0.378333
v 0.183458 -0.448299 0.241176
v 0.155505 -0.443389 0.316072
v 0.191846 -0.132111 0.305719
v 0.034409 -0.112260 0.361403
v 0.062127 -0.438184 0.342012
v 0.191846 -0.126875 0.352379
v 0.041357 -0.137285 0.388700
v 0.191846 -0.443389 0.295337
v 0.033871 -0.447722 0.298982
v 0.041357 -0.132111 0.352379
v 0.043013 -0.439908 0.336364
v 0.160705 -0.132111 0.367951
v 0.192422 -0.444601 0.242873
v 0.077698 -0.132111 0.388700
v 0.103639 -0.417426 0.336821
v 0.186646 -0.132111 0.305719
vn -0.2907 0.3098 -0.9053
vn 0.0855 0.9901 -0.1111
vn 0.1050 0.9500 0.2941
vn 0.0473 -0.9954 0.0829
vn 0.4896 -0.1546 0.8581
vn 0.0250 -0.9969 0.0747
vn -0.9762 -0.0382 0.2135
vn -0.3550 0.1641 -0.9203
vn -0.6003 0.1472 -0.7861
vn 0.0145 -0.9690 0.2467
vn -0.2657 -0.1657 0.9497
vn 0.0063 -0.9791 0.2031
vn -0.9679 -0.0480 0.2467
vn 0.4625 -0.1533 0.8733
vn 0.2626 0.6248 0.7353
vn 0.1036 0.1963 -0.9751
vn 1.0000 0.0019 -0.0002
vn 0.3771 -0.9258 0.0255
vn 0.9999 -0.0020 0.0110
vn 0.0331 0.8326 0.5530
vn -0.1025 0.7201 0.6863
vn 0.0216 -0.1518 0.9882
vn 0.2425 -0.0003 0.9702
vn 0.2397 -0.1525 0.9588
vn 0.2454 -0.2569 0.9348
vn 0.2956 -0.1619 0.9415
vn 0.1998 -0.1577 0.9671
vn 0.0000 0.2000 -0.9798
vn 0.0000 0.9419 -0.3358
vn -0.3000 0.1937 -0.9341
usemtl Shape.6458
s off
f 11//1 5//1 17//1
f 4//2 5//2 7//2
f 5//3 1//3 7//3
f 3//4 2//4 9//4
f 7//5 3//5 9//5
f 2//6 3//6 10//6
f 8//7 5//7 10//7
f 2//8 10//8 11//8
f 10//9 5//9 11//9
f 3//10 6//10 12//10
f 6//11 8//11 12//11
f 10//12 3//12 12//12
f 8//13 10//13 12//13
f 3//14 7//14 13//14
f 7//15 1//15 13//15
f 2//16 4//16 14//16
f 4//17 7//17 14//17
f 9//18 2//18 14//18
f 7//19 9//19 14//19
f 1//20 5//20 15//20
f 5//21 8//21 15//21
f 8//22 6//22 15//22
f 13//23 1//23 15//23
f 13//24 15//24 16//24
f 6//25 3//25 16//25
f 3//26 13//26 16//26
f 15//27 6//27 16//27
f 4//28 2//28 17//28
f 5//29 4//29 17//29
f 2//30 11//30 17//30
