# Blender v2.79 (sub 0) OBJ File: ''
# www.blender.org
mtllib 100448_link_1_40.mtl
o Shape_IndexedFaceSet.040_Shape_IndexedFaceSet.6460
v 0.295631 -0.443420 0.196766
v 0.197048 0.433496 0.461379
v 0.290430 0.428341 0.352369
v 0.191301 -0.448106 0.237336
v 0.197048 -0.433023 0.295369
v 0.295631 0.397238 0.404272
v 0.290430 -0.220281 0.191537
v 0.191846 0.417944 0.409476
v 0.238433 -0.448788 0.188291
v 0.233356 -0.443420 0.269404
v 0.294838 0.442307 0.367293
v 0.285249 -0.422626 0.222705
v 0.217803 0.355650 0.440591
v 0.202229 0.449134 0.414653
v 0.295631 0.433496 0.409449
v 0.295631 0.345341 0.393892
v 0.228175 0.443892 0.445768
v 0.197048 0.366047 0.450998
vn 0.3685 -0.1777 0.9125
vn -0.5066 0.2075 -0.8368
vn 0.1484 -0.0197 -0.9887
vn -0.7133 0.1371 -0.6874
vn -0.6425 0.1569 -0.7500
vn -0.0902 -0.9617 0.2589
vn 0.0828 -0.9940 0.0710
vn 0.0579 -0.9959 0.0695
vn 0.9297 0.0887 -0.3576
vn 0.9944 0.0208 -0.1032
vn 0.6967 -0.3973 0.5973
vn 0.4900 -0.1703 0.8549
vn -0.9488 0.3158 0.0005
vn -0.5015 0.3015 -0.8109
vn -0.2610 0.7421 -0.6174
vn 1.0000 0.0000 0.0000
vn 0.9998 0.0043 -0.0179
vn 0.4632 -0.1113 0.8793
vn 0.4734 -0.1245 0.8720
vn 0.4943 -0.1705 0.8524
vn 0.5398 -0.1727 0.8239
vn 0.8887 -0.1112 0.4448
vn 0.6955 -0.1653 0.6993
vn -0.1655 0.9406 0.2964
vn 0.1111 0.9910 0.0743
vn 0.2504 0.9486 0.1936
vn 0.4650 -0.0667 0.8828
vn -0.9944 -0.0202 0.1037
vn -0.9948 -0.0193 0.1005
vn -0.9944 -0.0161 0.1045
vn 0.3868 -0.1403 0.9115
usemtl Shape.6460
s off
f 5//1 13//1 18//1
f 3//2 7//2 8//2
f 7//3 1//3 9//3
f 4//4 8//4 9//4
f 8//5 7//5 9//5
f 5//6 4//6 10//6
f 9//7 1//7 10//7
f 4//8 9//8 10//8
f 7//9 3//9 11//9
f 1//10 7//10 11//10
f 10//11 1//11 12//11
f 5//12 6//12 13//12
f 8//13 2//13 14//13
f 3//14 8//14 14//14
f 11//15 3//15 14//15
f 6//16 1//16 15//16
f 1//17 11//17 15//17
f 2//18 13//18 15//18
f 13//19 6//19 15//19
f 1//16 6//16 16//16
f 6//20 5//20 16//20
f 5//21 10//21 16//21
f 12//22 1//22 16//22
f 10//23 12//23 16//23
f 14//24 2//24 17//24
f 11//25 14//25 17//25
f 15//26 11//26 17//26
f 2//27 15//27 17//27
f 4//28 5//28 18//28
f 8//29 4//29 18//29
f 2//30 8//30 18//30
f 13//31 2//31 18//31
