# Blender v2.79 (sub 0) OBJ File: ''
# www.blender.org
mtllib 100448_link_1_32.mtl
o Shape_IndexedFaceSet.032_Shape_IndexedFaceSet.6452
v -0.223290 -0.412139 0.253825
v -0.140274 0.438683 0.466546
v -0.228482 0.433411 0.373137
v -0.134379 -0.449813 0.252406
v -0.233674 0.412674 0.425028
v -0.145466 -0.438148 0.305717
v -0.228482 -0.157938 0.243451
v -0.135082 0.423131 0.419830
v -0.176599 0.381569 0.450974
v -0.233674 -0.370666 0.243451
v -0.135082 -0.422596 0.310915
v -0.186974 -0.443332 0.279793
v -0.149621 -0.451790 0.240020
v -0.232729 0.440457 0.382964
v -0.135082 0.407490 0.466546
v -0.135082 0.449052 0.430204
v -0.233674 0.443780 0.425028
v -0.218098 -0.443332 0.248649
v -0.233674 0.002948 0.336861
v -0.145466 0.355648 0.456150
v -0.202531 -0.438060 0.269397
v -0.166215 0.417859 0.461348
vn -0.2116 -0.1512 0.9656
vn 0.4557 0.1907 -0.8695
vn -0.4833 -0.1705 0.8587
vn 0.7498 -0.5964 0.2864
vn -0.0102 -0.9773 0.2117
vn -0.5065 -0.1710 0.8451
vn 0.6118 0.1495 -0.7767
vn 0.5553 0.1586 -0.8164
vn -0.0398 0.0010 -0.9992
vn -0.0240 -0.9822 0.1863
vn -0.8854 0.0996 -0.4540
vn -0.9907 0.0242 -0.1339
vn 0.9999 -0.0025 0.0132
vn 0.4508 0.3317 -0.8287
vn 1.0000 0.0015 -0.0039
vn 0.1787 0.8346 -0.5212
vn 0.9695 0.1614 0.1845
vn 1.0000 0.0006 0.0007
vn -1.0000 0.0000 -0.0000
vn -0.9997 0.0051 -0.0229
vn -0.0654 0.9620 0.2651
vn -0.0491 0.9956 -0.0798
vn -0.9620 -0.1923 0.1940
vn -0.1365 -0.0998 -0.9856
vn -0.1084 -0.9882 0.1083
vn -0.8887 -0.1112 0.4449
vn -0.2083 -0.1821 0.9610
vn -0.0639 -0.1839 0.9809
vn -0.5862 -0.1665 0.7928
vn -0.7502 -0.2279 0.6207
vn -0.5813 -0.5698 0.5809
vn -0.7095 -0.1553 0.6874
vn -0.6526 -0.1594 0.7408
vn -0.4637 -0.1183 0.8781
vn -0.3128 -0.1772 0.9331
vn -0.1740 -0.0290 0.9843
vn -0.3814 0.2532 0.8891
vn -0.4741 0.0000 0.8805
vn -0.2980 -0.1777 0.9379
usemtl Shape.6452
s off
f 20//1 15//1 22//1
f 7//2 3//2 8//2
f 5//3 6//3 9//3
f 6//4 4//4 11//4
f 4//5 6//5 12//5
f 6//6 5//6 12//6
f 8//7 4//7 13//7
f 7//8 8//8 13//8
f 10//9 7//9 13//9
f 4//10 12//10 13//10
f 3//11 7//11 14//11
f 7//12 10//12 14//12
f 11//13 4//13 15//13
f 8//14 3//14 16//14
f 4//15 8//15 16//15
f 3//16 14//16 16//16
f 2//17 15//17 16//17
f 15//18 4//18 16//18
f 10//19 5//19 17//19
f 14//20 10//20 17//20
f 2//21 16//21 17//21
f 16//22 14//22 17//22
f 1//23 10//23 18//23
f 10//24 13//24 18//24
f 13//25 12//25 18//25
f 10//26 1//26 19//26
f 5//19 10//19 19//19
f 6//27 11//27 20//27
f 11//28 15//28 20//28
f 12//29 5//29 21//29
f 1//30 18//30 21//30
f 18//31 12//31 21//31
f 19//32 1//32 21//32
f 5//33 19//33 21//33
f 5//34 9//34 22//34
f 9//35 6//35 22//35
f 15//36 2//36 22//36
f 2//37 17//37 22//37
f 17//38 5//38 22//38
f 6//39 20//39 22//39
