####
#
# OBJ File Generated by Meshlab
#
####
# Object 100448_link_0_17.obj
#
# Vertices: 7
# Faces: 10
#
####
mtllib ./100448_link_0_17.obj.mtl

vn 0.442257 -0.075653 0.893692
v -0.418018 0.500431 0.031991
vn -0.636730 0.076122 -0.767320
v -0.489995 0.501421 -0.005352
vn 0.112231 -0.735181 -0.668516
v -0.462097 0.498548 0.017884
vn 0.434899 0.267286 -0.859896
v -0.451560 0.549583 0.019026
vn -0.357392 0.612457 0.705101
v -0.458594 0.548514 0.019934
vn -0.460562 -0.004124 0.887618
v -0.487677 0.499700 0.044048
vn 0.306155 -0.041942 -0.951057
v -0.417992 0.500418 0.006988
# 7 vertices, 0 vertices normals


usemtl material_0
f 4//4 1//1 7//7
f 3//3 2//2 4//4
f 1//1 4//4 5//5
f 4//4 2//2 5//5
f 5//5 2//2 6//6
f 3//3 1//1 6//6
f 2//2 3//3 6//6
f 1//1 5//5 6//6
f 1//1 3//3 7//7
f 3//3 4//4 7//7
# 10 faces, 0 coords texture

# End of File
