####
#
# OBJ File Generated by Meshlab
#
####
# Object 100448_link_0_35.obj
#
# Vertices: 11
# Faces: 18
#
####
mtllib ./100448_link_0_35.obj.mtl

vn 0.741490 0.211441 0.636778
v -0.382885 0.531997 0.050598
vn -0.780518 -0.585847 -0.218118
v -0.500513 0.518178 0.012249
vn -0.730465 0.113176 0.673508
v -0.487242 0.524994 0.060789
vn 0.527198 0.751600 -0.396434
v -0.433975 0.586226 0.039484
vn 0.023360 -0.519625 -0.854075
v -0.438659 0.482055 0.002269
vn 0.110619 0.473173 -0.873997
v -0.453606 0.563873 0.016983
vn -0.254951 -0.707083 0.659571
v -0.454453 0.492631 0.044907
vn -0.190844 0.316359 0.929244
v -0.458932 0.561287 0.050103
vn 0.257304 -0.542824 0.799460
v -0.417263 0.495413 0.050179
vn 0.632309 0.082179 -0.770345
v -0.408847 0.505215 0.010400
vn -0.531066 0.561729 -0.634373
v -0.484089 0.547515 0.003542
# 11 vertices, 0 vertices normals


usemtl material_0
f 8//8 6//6 11//11
f 3//3 2//2 7//7
f 2//2 5//5 7//7
f 1//1 4//4 8//8
f 4//4 6//6 8//8
f 3//3 7//7 8//8
f 8//8 7//7 9//9
f 7//7 5//5 9//9
f 1//1 8//8 9//9
f 9//9 5//5 10//10
f 4//4 1//1 10//10
f 5//5 6//6 10//10
f 6//6 4//4 10//10
f 1//1 9//9 10//10
f 2//2 3//3 11//11
f 5//5 2//2 11//11
f 6//6 5//5 11//11
f 3//3 8//8 11//11
# 18 faces, 0 coords texture

# End of File
