# Blender v2.79 (sub 0) OBJ File: ''
# www.blender.org
mtllib 100448_link_1_28.mtl
o Shape_IndexedFaceSet.028_Shape_IndexedFaceSet.6448
v -0.353020 -0.007590 -0.031602
v -0.415283 0.122189 0.015109
v -0.415283 0.122189 0.041050
v -0.321904 -0.443420 -0.031602
v -0.259626 -0.443417 0.118886
v -0.363397 0.137687 0.113687
v -0.306331 -0.433031 0.118887
v -0.280294 -0.443941 -0.031736
v -0.399710 0.127298 0.118887
v -0.415283 0.142968 -0.031602
v -0.327085 -0.417418 0.046235
v -0.378956 0.137687 -0.031602
v -0.258404 -0.448023 0.104238
v -0.415283 0.132578 0.066976
v -0.368578 0.142968 0.118887
v -0.316708 -0.443420 0.072176
v -0.353020 0.085798 0.113687
v -0.399710 0.142968 0.118887
v -0.415283 0.127298 -0.031602
vn -0.0010 0.0000 -1.0000
vn -1.0000 0.0000 0.0000
vn -0.9869 -0.1613 0.0000
vn -0.9867 -0.1619 -0.0116
vn 0.0259 0.0046 -0.9997
vn 0.0000 0.0002 -1.0000
vn -0.2085 -0.9378 0.2775
vn 0.9749 0.1625 -0.1521
vn -0.0126 -0.9995 -0.0280
vn 0.9779 0.1746 -0.1151
vn -0.9501 -0.1583 0.2689
vn -0.9850 -0.1604 0.0643
vn 0.0000 0.0000 1.0000
vn 0.6754 0.7339 -0.0723
vn 0.1437 0.9886 -0.0446
vn -0.9431 -0.3293 0.0472
vn -0.0809 -0.9967 0.0041
vn -0.2159 -0.9419 0.2574
vn -0.9552 -0.1612 0.2481
vn -0.9615 -0.1625 0.2217
vn 0.9752 0.1950 -0.1044
vn 0.9844 0.1740 0.0274
vn 0.9781 0.1753 -0.1120
vn 0.7188 0.1336 0.6823
vn 0.7740 0.1548 0.6140
vn -0.9578 0.0000 0.2873
vn -0.7116 0.6987 0.0736
vn 0.0000 1.0000 0.0000
vn -0.9867 -0.1614 -0.0177
vn -0.0032 -0.0005 -1.0000
usemtl Shape.6448
s off
f 10//1 8//1 19//1
f 2//2 3//2 10//2
f 3//3 2//3 11//3
f 2//4 4//4 11//4
f 1//5 8//5 12//5
f 8//6 10//6 12//6
f 5//7 7//7 13//7
f 8//8 1//8 13//8
f 4//9 8//9 13//9
f 1//10 12//10 13//10
f 7//11 9//11 14//11
f 10//2 3//2 14//2
f 3//12 11//12 14//12
f 7//13 5//13 15//13
f 9//13 7//13 15//13
f 6//14 12//14 15//14
f 12//15 10//15 15//15
f 11//16 4//16 16//16
f 4//17 13//17 16//17
f 13//18 7//18 16//18
f 7//19 14//19 16//19
f 14//20 11//20 16//20
f 12//21 6//21 17//21
f 5//22 13//22 17//22
f 13//23 12//23 17//23
f 15//24 5//24 17//24
f 6//25 15//25 17//25
f 14//26 9//26 18//26
f 10//27 14//27 18//27
f 9//13 15//13 18//13
f 15//28 10//28 18//28
f 4//29 2//29 19//29
f 8//30 4//30 19//30
f 2//2 10//2 19//2
