####
#
# OBJ File Generated by Meshlab
#
####
# Object 100448_link_0_2.obj
#
# Vertices: 21
# Faces: 38
#
####
mtllib ./100448_link_0_2.obj.mtl

vn 0.176443 0.982489 0.059865
v -0.331207 0.903269 0.040784
vn 0.144006 -0.779828 -0.609204
v -0.401499 0.737540 0.013127
vn -0.629347 -0.777066 0.009510
v -0.404516 0.733831 0.043106
vn -0.884081 0.467237 -0.009530
v -0.449702 0.791553 0.015681
vn 0.578638 -0.160657 -0.799604
v -0.289355 0.841930 -0.007966
vn 0.791191 -0.168796 0.587813
v -0.280618 0.836058 0.056581
vn -0.212088 0.551687 -0.806635
v -0.359512 0.885559 -0.006469
vn -0.577314 0.169136 0.798812
v -0.421397 0.781976 0.074877
vn -0.364661 -0.073552 -0.928231
v -0.425223 0.764513 -0.009621
vn -0.573440 0.653585 0.493956
v -0.365508 0.878980 0.062826
vn 0.398136 -0.127872 0.908370
v -0.305329 0.833298 0.086920
vn 0.312286 -0.470074 -0.825535
v -0.322599 0.745452 0.013605
vn 0.222070 0.416969 -0.881375
v -0.313740 0.873117 0.006469
vn 0.394856 0.631887 0.666939
v -0.310998 0.873253 0.052514
vn 0.063249 -0.089759 -0.993953
v -0.361102 0.753356 -0.027936
vn 0.523843 -0.722002 0.451997
v -0.353430 0.709522 0.043191
vn 0.153027 -0.501202 0.851692
v -0.396198 0.737091 0.070689
vn 0.903180 -0.428719 0.021607
v -0.270087 0.819375 0.016240
vn -0.930323 -0.060483 0.361719
v -0.444707 0.777024 0.051957
vn -0.714158 0.600360 -0.359925
v -0.403806 0.853463 0.005277
vn -0.086362 0.184781 0.978978
v -0.374159 0.815815 0.094730
# 21 vertices, 0 vertices normals


usemtl material_0
f 17//17 11//11 21//21
f 2//2 3//3 9//9
f 1//1 7//7 10//10
f 2//2 5//5 12//12
f 6//6 5//5 13//13
f 7//7 1//1 13//13
f 9//9 7//7 13//13
f 1//1 10//10 14//14
f 11//11 6//6 14//14
f 6//6 13//13 14//14
f 13//13 1//1 14//14
f 5//5 2//2 15//15
f 2//2 9//9 15//15
f 13//13 5//5 15//15
f 9//9 13//13 15//15
f 3//3 2//2 16//16
f 2//2 12//12 16//16
f 6//6 11//11 17//17
f 3//3 16//16 17//17
f 16//16 6//6 17//17
f 5//5 6//6 18//18
f 12//12 5//5 18//18
f 6//6 16//16 18//18
f 16//16 12//12 18//18
f 9//9 3//3 19//19
f 4//4 9//9 19//19
f 10//10 4//4 19//19
f 8//8 10//10 19//19
f 3//3 17//17 19//19
f 17//17 8//8 19//19
f 9//9 4//4 20//20
f 7//7 9//9 20//20
f 4//4 10//10 20//20
f 10//10 7//7 20//20
f 10//10 8//8 21//21
f 14//14 10//10 21//21
f 11//11 14//14 21//21
f 8//8 17//17 21//21
# 38 faces, 0 coords texture

# End of File
