####
#
# OBJ File Generated by Meshlab
#
####
# Object 100448_link_0_5.obj
#
# Vertices: 19
# Faces: 34
#
####
mtllib ./100448_link_0_5.obj.mtl

vn -0.731421 0.643504 -0.225669
v -0.190077 1.021465 0.022408
vn 0.862209 -0.404910 0.304374
v -0.097126 0.979841 0.036385
vn 0.890558 0.439894 -0.115757
v -0.097716 0.979690 0.018476
vn 0.331547 -0.884669 0.327777
v -0.177220 0.899470 0.056417
vn -0.282364 -0.499989 -0.818707
v -0.194091 0.912043 -0.012168
vn -0.671932 0.475451 0.567851
v -0.230895 0.949195 0.045142
vn 0.151663 0.840983 0.519371
v -0.133293 1.021407 0.062177
vn -0.144764 0.416980 -0.897313
v -0.132672 1.008106 -0.015532
vn -0.670410 0.333331 -0.662903
v -0.225427 0.945120 0.011366
vn 0.107848 -0.309663 0.944710
v -0.153943 0.932816 0.085248
vn 0.136648 -0.713141 -0.687574
v -0.175857 0.897006 -0.001622
vn 0.322046 -0.114380 -0.939789
v -0.103839 0.981625 -0.014209
vn 0.093082 0.773138 -0.627370
v -0.145716 1.035464 0.015064
vn 0.807558 -0.294027 0.511271
v -0.098422 0.974834 0.059233
vn -0.657077 -0.395355 0.641829
v -0.219931 0.925206 0.056837
vn 0.726534 -0.686407 -0.031513
v -0.116899 0.918415 -0.003435
vn -0.190880 0.278416 0.941302
v -0.138759 0.999570 0.084838
vn -0.620698 -0.030600 -0.783452
v -0.214445 0.925889 -0.005924
vn -0.436309 0.648340 0.623931
v -0.153256 1.035926 0.036390
# 19 vertices, 0 vertices normals


usemtl material_0
f 7//7 13//13 19//19
f 2//2 3//3 7//7
f 6//6 1//1 9//9
f 4//4 5//5 11//11
f 11//11 5//5 12//12
f 5//5 8//8 12//12
f 8//8 3//3 12//12
f 7//7 3//3 13//13
f 3//3 8//8 13//13
f 9//9 1//1 13//13
f 8//8 9//9 13//13
f 4//4 2//2 14//14
f 2//2 7//7 14//14
f 10//10 4//4 14//14
f 5//5 4//4 15//15
f 6//6 9//9 15//15
f 4//4 10//10 15//15
f 3//3 2//2 16//16
f 2//2 4//4 16//16
f 4//4 11//11 16//16
f 11//11 12//12 16//16
f 12//12 3//3 16//16
f 7//7 6//6 17//17
f 14//14 7//7 17//17
f 10//10 14//14 17//17
f 6//6 15//15 17//17
f 15//15 10//10 17//17
f 8//8 5//5 18//18
f 9//9 8//8 18//18
f 5//5 15//15 18//18
f 15//15 9//9 18//18
f 1//1 6//6 19//19
f 6//6 7//7 19//19
f 13//13 1//1 19//19
# 34 faces, 0 coords texture

# End of File
