# Blender v2.79 (sub 0) OBJ File: ''
# www.blender.org
mtllib 100448_link_1_8.mtl
o Shape_IndexedFaceSet.008_Shape_IndexedFaceSet.6428
v 0.496010 0.441580 -0.032795
v 0.258085 -0.442676 -0.172414
v 0.306028 -0.438231 -0.171712
v 0.309581 -0.448537 -0.029975
v 0.430554 0.443923 -0.171712
v 0.461686 0.433500 -0.031602
v 0.477227 0.428288 -0.171712
v 0.357906 -0.422596 -0.047182
v 0.503202 0.412740 -0.062748
v 0.331955 -0.432932 -0.135382
v 0.256367 -0.448927 -0.162769
v 0.357906 -0.427808 -0.031602
v 0.503202 0.412740 -0.031602
v 0.466866 0.360884 -0.171712
v 0.342340 -0.438231 -0.099079
v 0.420169 0.397192 -0.171712
v 0.497998 0.407615 -0.083499
v 0.456481 0.407615 -0.031602
v 0.465494 0.442022 -0.170589
vn 0.0381 0.1137 -0.9928
vn -0.2234 0.9671 0.1216
vn 0.0002 0.0007 -1.0000
vn 0.9059 0.3921 -0.1600
vn 0.0859 -0.8430 -0.5310
vn 0.9834 -0.1721 -0.0576
vn 0.0008 0.0017 1.0000
vn 0.0236 0.0472 0.9986
vn 0.9703 0.2420 0.0000
vn 0.0363 -0.0063 0.9993
vn 0.9854 -0.1703 0.0000
vn 0.0149 -0.0030 -0.9999
vn 0.0082 -0.0013 -1.0000
vn 0.8141 -0.1639 -0.5571
vn 0.9399 -0.1732 -0.2942
vn 0.5426 -0.7950 -0.2713
vn 0.1929 -0.9765 -0.0965
vn 0.1709 -0.9831 -0.0656
vn 0.3951 -0.9172 0.0505
vn 0.8953 -0.4224 -0.1413
vn -0.0286 0.0063 -0.9996
vn -0.9507 0.2113 0.2270
vn -0.9805 0.1893 -0.0520
vn 0.9713 -0.0309 -0.2359
vn 0.9648 -0.1715 -0.1996
vn 0.9546 -0.1467 -0.2592
vn 0.9540 -0.1710 -0.2461
vn 0.9567 -0.1717 -0.2352
vn -0.0643 0.0129 0.9978
vn -0.9167 0.1580 0.3669
vn -0.9534 0.1917 0.2328
vn -0.9542 0.1872 0.2334
vn 0.0546 0.9985 -0.0089
vn 0.7436 0.6486 -0.1626
usemtl Shape.6428
s off
f 7//1 5//1 19//1
f 1//2 5//2 6//2
f 2//3 5//3 7//3
f 7//4 1//4 9//4
f 2//5 3//5 11//5
f 8//6 9//6 12//6
f 6//7 4//7 13//7
f 1//8 6//8 13//8
f 9//9 1//9 13//9
f 4//10 12//10 13//10
f 12//11 9//11 13//11
f 3//12 2//12 14//12
f 2//13 7//13 14//13
f 10//14 3//14 14//14
f 10//15 14//15 15//15
f 3//16 10//16 15//16
f 11//17 3//17 15//17
f 4//18 11//18 15//18
f 12//19 4//19 15//19
f 8//20 12//20 15//20
f 5//21 2//21 16//21
f 6//22 5//22 16//22
f 2//23 11//23 16//23
f 7//24 9//24 17//24
f 9//25 8//25 17//25
f 14//26 7//26 17//26
f 15//27 14//27 17//27
f 8//28 15//28 17//28
f 4//29 6//29 18//29
f 11//30 4//30 18//30
f 6//31 16//31 18//31
f 16//32 11//32 18//32
f 5//33 1//33 19//33
f 1//34 7//34 19//34
