####
#
# OBJ File Generated by Meshlab
#
####
# Object 100448_link_0_20.obj
#
# Vertices: 9
# Faces: 14
#
####
mtllib ./100448_link_0_20.obj.mtl

vn -0.456896 -0.889231 0.022670
v -0.504403 0.484762 0.014257
vn 0.682455 0.273470 0.677842
v -0.441104 0.564145 0.044523
vn 0.724439 0.168806 -0.668351
v -0.447505 0.560472 0.005485
vn 0.673294 -0.515241 0.530284
v -0.454200 0.488580 0.033716
vn -0.679768 -0.008467 0.733378
v -0.495211 0.512790 0.055804
vn 0.519356 -0.472782 -0.711861
v -0.449504 0.488041 0.006229
vn -0.707264 0.668121 -0.231068
v -0.483916 0.571639 0.006936
vn -0.540234 0.077120 -0.837973
v -0.497642 0.509735 -0.012027
vn -0.454089 0.619161 0.640658
v -0.476283 0.565880 0.045630
# 9 vertices, 0 vertices normals


usemtl material_0
f 7//7 5//5 9//9
f 3//3 2//2 4//4
f 1//1 4//4 5//5
f 4//4 2//2 5//5
f 3//3 4//4 6//6
f 4//4 1//1 6//6
f 2//2 3//3 7//7
f 5//5 7//7 8//8
f 1//1 5//5 8//8
f 6//6 1//1 8//8
f 3//3 6//6 8//8
f 7//7 3//3 8//8
f 5//5 2//2 9//9
f 2//2 7//7 9//9
# 14 faces, 0 coords texture

# End of File
