####
#
# OBJ File Generated by Meshlab
#
####
# Object 100448_link_0_12.obj
#
# Vertices: 23
# Faces: 42
#
####
mtllib ./100448_link_0_12.obj.mtl

vn 0.695839 0.238698 0.677371
v 0.510980 0.752388 0.049121
vn -0.930767 0.156957 -0.330209
v 0.382629 0.732851 0.008116
vn -0.898997 -0.413406 -0.144567
v 0.383907 0.709812 0.019314
vn 0.738635 -0.045567 -0.672564
v 0.529961 0.633754 -0.001628
vn -0.460537 -0.717723 0.522283
v 0.462969 0.601237 0.050376
vn 0.031478 0.093167 -0.995153
v 0.472106 0.767569 -0.021346
vn -0.818029 0.101297 0.566186
v 0.404161 0.747757 0.064715
vn 0.736450 -0.211900 0.642448
v 0.512510 0.623502 0.053402
vn 0.003196 -0.169911 -0.985454
v 0.474365 0.604986 -0.008048
vn -0.224784 0.959942 0.167282
v 0.436320 0.777465 0.043336
vn -0.367685 0.583092 -0.724439
v 0.432730 0.774566 0.011514
vn -0.788930 -0.607955 0.089330
v 0.444857 0.595739 0.013233
vn 0.694380 0.608001 -0.384931
v 0.499906 0.779112 0.011515
vn 0.553932 0.478025 0.681653
v 0.484199 0.773762 0.064085
vn 0.987594 0.110125 0.111938
v 0.548753 0.663441 0.036647
vn -0.774611 -0.339600 0.533525
v 0.382328 0.720934 0.044062
vn -0.483061 -0.123731 0.866800
v 0.434379 0.707494 0.092423
vn 0.001589 0.126533 -0.991961
v 0.405950 0.750618 -0.011978
vn 0.359772 -0.559677 -0.746543
v 0.506121 0.611465 0.000371
vn -0.498174 -0.527977 0.687796
v 0.474112 0.611424 0.083151
vn 0.356266 0.393764 0.847363
v 0.454528 0.763171 0.093898
vn -0.508790 -0.261337 -0.820266
v 0.432240 0.619463 -0.008272
vn 0.441074 -0.006634 0.897446
v 0.485522 0.661379 0.097727
# 23 vertices, 0 vertices normals


usemtl material_0
f 21//21 17//17 23//23
f 2//2 7//7 11//11
f 6//6 9//9 11//11
f 7//7 10//10 11//11
f 3//3 2//2 12//12
f 9//9 5//5 12//12
f 4//4 6//6 13//13
f 6//6 11//11 13//13
f 11//11 10//10 13//13
f 8//8 1//1 14//14
f 1//1 13//13 14//14
f 13//13 10//10 14//14
f 1//1 8//8 15//15
f 8//8 4//4 15//15
f 13//13 1//1 15//15
f 4//4 13//13 15//15
f 2//2 3//3 16//16
f 7//7 2//2 16//16
f 5//5 7//7 16//16
f 3//3 12//12 16//16
f 12//12 5//5 16//16
f 2//2 11//11 18//18
f 11//11 9//9 18//18
f 6//6 4//4 19//19
f 4//4 8//8 19//19
f 8//8 5//5 19//19
f 5//5 9//9 19//19
f 9//9 6//6 19//19
f 7//7 5//5 20//20
f 5//5 8//8 20//20
f 17//17 7//7 20//20
f 10//10 7//7 21//21
f 8//8 14//14 21//21
f 14//14 10//10 21//21
f 7//7 17//17 21//21
f 12//12 2//2 22//22
f 9//9 12//12 22//22
f 2//2 18//18 22//22
f 18//18 9//9 22//22
f 20//20 8//8 23//23
f 17//17 20//20 23//23
f 8//8 21//21 23//23
# 42 faces, 0 coords texture

# End of File
