####
#
# OBJ File Generated by Meshlab
#
####
# Object 100448_link_0_31.obj
#
# Vertices: 10
# Faces: 16
#
####
mtllib ./100448_link_0_31.obj.mtl

vn 0.098011 0.078095 -0.992116
v -0.410715 0.528587 -0.020057
vn -0.733211 0.250198 -0.632300
v -0.489277 0.522685 -0.004649
vn -0.859113 -0.248074 0.447644
v -0.503193 0.517229 0.040139
vn 0.755900 0.603623 0.253484
v -0.423157 0.584822 0.018800
vn 0.713563 -0.129229 0.688570
v -0.417899 0.500758 0.039447
vn -0.205842 0.552532 0.807674
v -0.457963 0.557316 0.038702
vn -0.215621 -0.721973 -0.657467
v -0.454523 0.490506 0.008277
vn -0.073069 -0.416442 0.906221
v -0.446234 0.482972 0.055949
vn -0.378208 0.383232 -0.842669
v -0.460371 0.560049 0.007427
vn 0.949477 -0.312262 -0.031409
v -0.411718 0.502321 0.007689
# 10 vertices, 0 vertices normals


usemtl material_0
f 5//5 7//7 10//10
f 2//2 3//3 6//6
f 5//5 4//4 6//6
f 3//3 2//2 7//7
f 7//7 5//5 8//8
f 6//6 3//3 8//8
f 5//5 6//6 8//8
f 3//3 7//7 8//8
f 4//4 1//1 9//9
f 2//2 6//6 9//9
f 6//6 4//4 9//9
f 7//7 2//2 9//9
f 1//1 7//7 9//9
f 1//1 4//4 10//10
f 4//4 5//5 10//10
f 7//7 1//1 10//10
# 16 faces, 0 coords texture

# End of File
