# Blender v2.79 (sub 0) OBJ File: ''
# www.blender.org
mtllib 100448_link_1_33.mtl
o Shape_IndexedFaceSet.033_Shape_IndexedFaceSet.6453
v -0.111825 0.441563 0.465027
v -0.135078 0.039222 0.357593
v -0.119484 0.039222 0.357593
v 0.041340 0.044438 0.419884
v 0.041340 0.438703 0.450983
v -0.052032 0.366045 0.482122
v -0.129863 0.044438 0.399125
v -0.135078 0.438703 0.425047
v 0.041340 0.049613 0.383555
v 0.041340 0.433528 0.492501
v -0.135078 0.402394 0.466552
v -0.046869 0.044438 0.419884
v -0.129863 0.070356 0.357593
v -0.072789 0.433528 0.487311
v 0.041340 0.417961 0.445793
v 0.041340 0.360869 0.482122
v -0.129863 0.417961 0.419884
v 0.030961 0.449094 0.456173
v -0.135078 0.039222 0.393935
v 0.041340 0.039222 0.383555
v -0.067592 0.039222 0.414694
v -0.103925 0.350478 0.466552
vn -0.2530 -0.1877 0.9491
vn 1.0000 0.0000 0.0000
vn -1.0000 0.0000 -0.0000
vn -0.7746 0.4760 0.4164
vn -0.0000 0.0000 -1.0000
vn -0.7050 0.1181 -0.6993
vn 0.1559 0.0520 -0.9864
vn -0.0452 -0.0904 0.9949
vn -0.4293 0.2882 0.8559
vn 0.1673 0.1643 -0.9721
vn -0.0078 -0.1414 0.9899
vn 0.0000 -0.1930 0.9812
vn -0.0105 -0.1901 0.9817
vn 0.1400 0.2722 -0.9520
vn -0.2633 0.1702 -0.9496
vn 0.1453 0.2402 -0.9598
vn 0.1473 0.1745 -0.9736
vn -0.0551 0.9977 -0.0393
vn 0.1225 0.5387 -0.8335
vn 0.7259 0.6825 0.0851
vn -0.0254 0.9254 0.3781
vn -0.0181 0.9171 0.3982
vn 0.0000 -1.0000 0.0000
vn -0.6149 -0.1546 0.7733
vn 0.1594 0.0000 -0.9872
vn 0.0000 -0.7053 0.7089
vn -0.1934 -0.1894 0.9627
vn -0.2457 -0.5491 0.7988
vn 0.0406 -0.9890 0.1420
vn -0.3012 -0.1808 0.9363
vn -0.2431 -0.1485 0.9586
vn -0.2456 -0.1474 0.9581
vn -0.2307 -0.1861 0.9551
usemtl Shape.6453
s off
f 7//1 21//1 22//1
f 5//2 4//2 9//2
f 4//2 5//2 10//2
f 8//3 2//3 11//3
f 1//4 8//4 11//4
f 3//5 2//5 13//5
f 2//6 8//6 13//6
f 9//7 3//7 13//7
f 6//8 10//8 14//8
f 1//9 11//9 14//9
f 5//2 9//2 15//2
f 9//10 13//10 15//10
f 4//2 10//2 16//2
f 10//11 6//11 16//11
f 12//12 4//12 16//12
f 6//13 12//13 16//13
f 8//14 5//14 17//14
f 13//15 8//15 17//15
f 5//16 15//16 17//16
f 15//17 13//17 17//17
f 8//18 1//18 18//18
f 5//19 8//19 18//19
f 10//20 5//20 18//20
f 1//21 14//21 18//21
f 14//22 10//22 18//22
f 2//23 3//23 19//23
f 11//3 2//3 19//3
f 7//24 11//24 19//24
f 3//25 9//25 20//25
f 9//2 4//2 20//2
f 19//23 3//23 20//23
f 19//23 20//23 21//23
f 4//26 12//26 21//26
f 12//27 6//27 21//27
f 7//28 19//28 21//28
f 20//29 4//29 21//29
f 11//30 7//30 22//30
f 6//31 14//31 22//31
f 14//32 11//32 22//32
f 21//33 6//33 22//33
