# Blender v2.79 (sub 0) OBJ File: ''
# www.blender.org
mtllib 100435_link_1_26.mtl
o Shape_IndexedFaceSet.026_Shape_IndexedFaceSet.8679
v 0.430189 0.625788 -0.388930
v 0.209084 -0.568043 -0.530712
v 0.232051 -0.568043 -0.530712
v 0.363108 -0.581015 -0.375910
v 0.209084 0.587908 -0.484784
v 0.226089 0.627054 -0.535896
v 0.385130 -0.568043 -0.431213
v 0.362163 0.587908 -0.377628
v 0.206410 -0.581968 -0.477680
v 0.307861 0.625236 -0.494913
v 0.431065 -0.568043 -0.377628
v 0.308602 -0.568043 -0.492441
v 0.437665 0.622278 -0.373076
v 0.205352 0.607342 -0.533286
v 0.389317 0.625105 -0.429736
v 0.347543 -0.582640 -0.383545
v 0.423416 -0.568043 -0.392942
v 0.340479 0.625987 -0.470478
vn 0.6406 -0.0013 -0.7679
vn 0.0000 -0.0043 -1.0000
vn -0.5735 0.0063 0.8192
vn 0.0000 -0.9672 -0.2540
vn 0.4472 -0.0016 -0.8944
vn 0.1029 -0.9732 -0.2058
vn 0.4480 -0.0016 -0.8940
vn -0.3587 0.7949 0.4894
vn -0.2151 0.9272 0.3067
vn -0.0608 0.0014 0.9981
vn -0.3761 0.7550 0.5372
vn 0.0260 -0.0040 0.9997
vn 0.9042 -0.0034 -0.4271
vn -0.1225 -0.0026 -0.9925
vn -0.6280 0.7045 0.3306
vn -0.9970 0.0028 0.0778
vn -0.9987 -0.0033 -0.0512
vn 0.7065 -0.0016 -0.7077
vn -0.4405 0.0010 0.8978
vn -0.5549 0.0027 0.8319
vn 0.1461 -0.9723 -0.1826
vn 0.1089 -0.9794 -0.1702
vn 0.7070 -0.0016 -0.7072
vn 0.1845 -0.9785 -0.0921
vn 0.8946 -0.0036 -0.4468
vn 0.1704 -0.9754 -0.1397
vn 0.1664 -0.9719 -0.1664
vn 0.0214 0.9995 -0.0211
vn 0.1112 0.9776 -0.1785
vn 0.6247 -0.0023 -0.7808
vn 0.5996 -0.0013 -0.8003
vn 0.1872 0.9610 -0.2036
usemtl Shape.8688
s off
f 15//1 7//1 18//1
f 3//2 2//2 6//2
f 8//3 5//3 9//3
f 2//4 3//4 9//4
f 3//5 6//5 12//5
f 9//6 3//6 12//6
f 6//7 10//7 12//7
f 6//8 5//8 13//8
f 1//9 6//9 13//9
f 8//10 4//10 13//10
f 5//11 8//11 13//11
f 4//12 11//12 13//12
f 11//13 1//13 13//13
f 6//14 2//14 14//14
f 5//15 6//15 14//15
f 9//16 5//16 14//16
f 2//17 9//17 14//17
f 1//18 7//18 15//18
f 4//19 8//19 16//19
f 8//20 9//20 16//20
f 12//21 7//21 16//21
f 9//22 12//22 16//22
f 7//23 1//23 17//23
f 11//24 4//24 17//24
f 1//25 11//25 17//25
f 4//26 16//26 17//26
f 16//27 7//27 17//27
f 6//28 1//28 18//28
f 10//29 6//29 18//29
f 7//30 12//30 18//30
f 12//31 10//31 18//31
f 1//32 15//32 18//32
