# Blender v2.79 (sub 0) OBJ File: ''
# www.blender.org
mtllib 100435_link_1_4.mtl
o Shape_IndexedFaceSet.004_Shape_IndexedFaceSet.8657
v -0.594735 0.625992 -0.025480
v -0.541203 0.831997 0.004079
v -0.525843 0.832674 -0.017828
v -0.525721 -0.572534 0.005708
v -0.495097 -0.569860 -0.171153
v -0.571764 0.825090 -0.170926
v -0.548804 -0.568042 -0.170926
v -0.495225 0.825090 -0.163256
v -0.571764 -0.568042 0.005146
v -0.594735 0.817507 0.005146
v -0.594735 0.817507 -0.079081
v -0.571764 -0.568042 -0.056124
v -0.517430 -0.579984 -0.015991
v -0.525843 0.825090 0.005146
v -0.587068 0.794343 -0.124978
v -0.494572 -0.577297 -0.156560
v -0.495225 0.809648 -0.155604
v -0.518186 0.809648 -0.025480
v -0.587068 0.832674 -0.109656
v -0.571764 0.625992 -0.170926
v -0.548749 0.830515 -0.169674
vn -0.2170 0.9607 -0.1731
vn -0.9945 -0.0165 0.1031
vn -0.0122 -0.0002 0.9999
vn -1.0000 -0.0000 0.0000
vn -0.9998 -0.0192 0.0000
vn -0.9979 -0.0176 -0.0628
vn -0.0964 -0.9521 0.2901
vn -0.1879 -0.9815 -0.0376
vn -0.2147 -0.9767 0.0000
vn 0.3756 0.8801 0.2905
vn 0.8650 0.4764 0.1573
vn -0.0136 0.1231 0.9923
vn -0.0000 0.0004 1.0000
vn 0.9342 0.0002 0.3569
vn -0.9804 -0.0209 -0.1961
vn -0.9877 -0.0189 -0.1554
vn -0.0321 -0.8910 -0.4529
vn 0.9994 0.0003 -0.0358
vn -0.1566 -0.9867 -0.0443
vn 0.9870 0.0004 0.1605
vn 1.0000 0.0005 0.0009
vn 0.9753 0.1319 0.1773
vn 0.9704 0.0022 0.2415
vn 0.9848 0.0017 0.1738
vn 0.9812 0.0858 0.1731
vn -0.0226 0.9996 0.0151
vn -0.2577 0.9600 0.1096
vn -0.8925 0.4511 0.0000
vn -0.9622 0.1011 -0.2529
vn -0.9755 0.0816 -0.2041
vn -0.0030 -0.0000 -1.0000
vn -0.0042 -0.0001 -1.0000
vn -0.9488 0.0000 -0.3160
vn -0.9670 -0.0186 -0.2540
vn 0.0536 0.0031 -0.9986
vn 0.1043 0.9941 -0.0299
vn 0.1196 0.0056 -0.9928
vn 0.0275 0.9995 -0.0184
usemtl Shape.8666
s off
f 6//1 19//1 21//1
f 1//2 9//2 10//2
f 9//3 4//3 10//3
f 1//4 10//4 11//4
f 9//5 1//5 12//5
f 1//6 11//6 12//6
f 4//7 9//7 13//7
f 12//8 7//8 13//8
f 9//9 12//9 13//9
f 3//10 2//10 14//10
f 8//11 3//11 14//11
f 2//12 10//12 14//12
f 10//13 4//13 14//13
f 4//14 13//14 14//14
f 7//15 12//15 15//15
f 12//16 11//16 15//16
f 7//17 5//17 16//17
f 5//18 8//18 16//18
f 13//19 7//19 16//19
f 13//20 16//20 17//20
f 16//21 8//21 17//21
f 8//22 14//22 18//22
f 14//23 13//23 18//23
f 13//24 17//24 18//24
f 17//25 8//25 18//25
f 2//26 3//26 19//26
f 10//27 2//27 19//27
f 11//28 10//28 19//28
f 6//29 15//29 19//29
f 15//30 11//30 19//30
f 6//31 5//31 20//31
f 5//32 7//32 20//32
f 15//33 6//33 20//33
f 7//34 15//34 20//34
f 5//35 6//35 21//35
f 3//36 8//36 21//36
f 8//37 5//37 21//37
f 19//38 3//38 21//38
