# Blender v2.79 (sub 0) OBJ File: ''
# www.blender.org
mtllib 100435_link_1_36.mtl
o Shape_IndexedFaceSet.036_Shape_IndexedFaceSet.8689
v -0.150743 0.817538 0.571619
v -0.355356 0.613607 0.381314
v -0.349755 0.603218 0.372600
v -0.357405 0.832844 0.372600
v -0.342084 0.633879 0.487402
v -0.143072 0.603218 0.495058
v -0.365076 0.832844 0.464492
v -0.143072 0.832844 0.495058
v -0.181384 0.626214 0.563963
v -0.265526 0.825179 0.533338
v -0.143072 0.603218 0.548651
v -0.357405 0.626214 0.472110
v -0.280825 0.603218 0.495058
v -0.150743 0.809873 0.487402
v -0.166063 0.832844 0.563963
v -0.349755 0.840486 0.387932
v -0.365076 0.832844 0.372600
v -0.349755 0.817538 0.372600
v -0.143072 0.748645 0.571619
v -0.288517 0.633879 0.518026
vn -0.3471 -0.6165 0.7067
vn -0.5670 0.0293 0.8232
vn -0.3156 0.0126 0.9488
vn 0.0000 -1.0000 0.0000
vn 1.0000 0.0000 0.0000
vn -0.8606 -0.5067 0.0509
vn -0.7064 -0.0001 0.7078
vn -0.2293 -0.7746 0.5895
vn -0.3337 -0.9238 0.1878
vn 0.5097 -0.0130 -0.8603
vn 0.7064 0.0000 -0.7078
vn 0.6356 0.7423 0.2121
vn -0.1831 0.9123 0.3663
vn -0.3019 0.1673 0.9386
vn 0.3106 0.7797 -0.5436
vn 0.0315 0.9994 0.0105
vn -0.0451 0.9949 0.0903
vn -0.8698 -0.0580 -0.4899
vn 0.0000 0.0000 -1.0000
vn -0.9989 -0.0449 -0.0163
vn -0.9993 -0.0371 0.0000
vn 0.0000 0.8950 -0.4461
vn -0.4463 0.8949 0.0000
vn 0.4815 0.2407 -0.8428
vn 0.4997 0.0000 -0.8662
vn 0.4996 0.1192 -0.8580
vn 0.9866 0.1099 0.1208
vn -0.1458 -0.0162 0.9892
vn 0.2883 -0.1494 0.9458
vn -0.4963 -0.0098 0.8681
vn -0.3955 -0.0260 0.9181
vn -0.3990 -0.5948 0.6979
vn -0.3900 -0.6127 0.6874
usemtl Shape.8698
s off
f 13//1 9//1 20//1
f 7//2 5//2 10//2
f 9//3 1//3 10//3
f 3//4 6//4 11//4
f 6//5 8//5 11//5
f 2//6 3//6 12//6
f 5//7 7//7 12//7
f 3//4 11//4 13//4
f 11//8 9//8 13//8
f 12//9 3//9 13//9
f 6//10 3//10 14//10
f 8//11 6//11 14//11
f 1//12 8//12 15//12
f 7//13 10//13 15//13
f 10//14 1//14 15//14
f 8//15 4//15 16//15
f 15//16 8//16 16//16
f 7//17 15//17 16//17
f 3//18 2//18 17//18
f 4//19 3//19 17//19
f 2//20 12//20 17//20
f 12//21 7//21 17//21
f 16//22 4//22 17//22
f 7//23 16//23 17//23
f 3//19 4//19 18//19
f 4//24 8//24 18//24
f 14//25 3//25 18//25
f 8//26 14//26 18//26
f 8//27 1//27 19//27
f 1//28 9//28 19//28
f 11//5 8//5 19//5
f 9//29 11//29 19//29
f 10//30 5//30 20//30
f 9//31 10//31 20//31
f 5//32 12//32 20//32
f 12//33 13//33 20//33
