####
#
# OBJ File Generated by Meshlab
#
####
# Object 100435_link_0_14.obj
#
# Vertices: 16
# Faces: 28
#
####
mtllib ./100435_link_0_14.obj.mtl

vn -0.937682 0.327756 0.115452
v 0.403877 0.304363 0.417114
vn 0.659947 0.676347 -0.327145
v 0.512018 0.370958 0.355017
vn 0.602858 0.311513 -0.734521
v 0.499526 0.362281 0.335398
vn 0.392532 -0.742774 0.542407
v 0.467617 0.272944 0.415153
vn -0.602056 -0.527856 -0.599080
v 0.419254 0.270206 0.367392
vn -0.664101 0.532102 -0.525202
v 0.444822 0.386117 0.331857
vn 0.252490 0.569038 0.782588
v 0.489989 0.394254 0.397975
vn 0.222849 -0.140799 0.964632
v 0.440746 0.297857 0.438400
vn 0.053633 -0.411251 -0.909943
v 0.484366 0.300008 0.315082
vn -0.480771 0.850154 0.214701
v 0.448791 0.404291 0.377886
vn 0.780592 -0.025035 0.624539
v 0.524469 0.347991 0.393099
vn -0.499976 -0.004604 -0.866027
v 0.476135 0.364369 0.322773
vn -0.861956 -0.370843 -0.345700
v 0.397506 0.291469 0.391606
vn -0.326785 0.485667 0.810764
v 0.416164 0.307101 0.436576
vn 0.313910 -0.928456 -0.198568
v 0.472734 0.264538 0.373044
vn 0.902109 -0.406699 -0.144204
v 0.520668 0.308610 0.348148
# 16 vertices, 0 vertices normals


usemtl material_0
f 4//4 15//15 16//16
f 2//2 3//3 6//6
f 2//2 6//6 10//10
f 6//6 1//1 10//10
f 7//7 2//2 10//10
f 2//2 7//7 11//11
f 8//8 4//4 11//11
f 7//7 8//8 11//11
f 6//6 3//3 12//12
f 3//3 9//9 12//12
f 9//9 5//5 12//12
f 5//5 4//4 13//13
f 1//1 6//6 13//13
f 4//4 8//8 13//13
f 8//8 1//1 13//13
f 6//6 12//12 13//13
f 12//12 5//5 13//13
f 1//1 8//8 14//14
f 8//8 7//7 14//14
f 10//10 1//1 14//14
f 7//7 10//10 14//14
f 4//4 5//5 15//15
f 5//5 9//9 15//15
f 15//15 9//9 16//16
f 3//3 2//2 16//16
f 9//9 3//3 16//16
f 2//2 11//11 16//16
f 11//11 4//4 16//16
# 28 faces, 0 coords texture

# End of File
