# Blender v2.79 (sub 0) OBJ File: ''
# www.blender.org
mtllib 100435_link_1_21.mtl
o Shape_IndexedFaceSet.021_Shape_IndexedFaceSet.8674
v -0.380406 0.587908 -0.438822
v -0.380406 0.633878 -0.461799
v -0.372750 0.832867 -0.369919
v -0.487533 0.587908 -0.178613
v -0.571769 0.626187 -0.178613
v -0.495189 0.825201 -0.170954
v -0.456967 0.832867 -0.392896
v -0.372750 0.587908 -0.369919
v -0.510501 0.641519 -0.316362
v -0.571769 0.817560 -0.178613
v -0.372750 0.832867 -0.461799
v -0.510501 0.587908 -0.278124
v -0.541125 0.825201 -0.262834
v -0.426343 0.626187 -0.423504
v -0.548781 0.587908 -0.170954
v -0.426343 0.771590 -0.431163
v -0.556437 0.832867 -0.209250
v -0.472260 0.802253 -0.377578
v -0.571769 0.817560 -0.170954
vn -0.7065 0.7077 0.0000
vn 0.8514 0.0105 0.5244
vn 0.9924 -0.0551 -0.1103
vn 0.8575 0.0000 0.5145
vn 0.0000 -1.0000 -0.0000
vn 0.0000 1.0000 0.0000
vn 0.9941 -0.0382 -0.1020
vn 1.0000 0.0000 0.0000
vn -0.8600 -0.2963 -0.4155
vn -0.9118 -0.0328 -0.4092
vn -0.9397 0.0000 -0.3419
vn -0.5571 -0.3713 -0.7428
vn -0.6424 -0.5628 -0.5201
vn -0.7524 -0.3825 -0.5363
vn 0.1240 -0.0280 0.9919
vn -0.7958 -0.5348 -0.2842
vn -0.5131 0.0197 -0.8581
vn -0.6246 0.1646 -0.7634
vn -0.6358 -0.0406 -0.7708
vn 0.0725 0.9939 0.0829
vn -0.4718 0.8439 -0.2556
vn -0.9043 0.3021 -0.3016
vn -0.8340 0.1511 -0.5307
vn -0.8568 0.0074 -0.5157
vn -0.7888 -0.0458 -0.6130
vn -0.7470 0.0411 -0.6636
vn -0.7684 -0.0337 -0.6391
vn -1.0000 -0.0000 0.0000
vn 0.0000 0.0000 1.0000
vn -0.3710 -0.0371 0.9279
vn -0.0935 0.9368 0.3370
usemtl Shape.8683
s off
f 17//1 10//1 19//1
f 4//2 3//2 6//2
f 1//3 2//3 8//3
f 3//4 4//4 8//4
f 4//5 1//5 8//5
f 7//6 3//6 11//6
f 8//7 2//7 11//7
f 3//8 8//8 11//8
f 1//5 4//5 12//5
f 5//9 9//9 12//9
f 9//10 5//10 13//10
f 5//11 10//11 13//11
f 2//12 1//12 14//12
f 1//13 12//13 14//13
f 12//14 9//14 14//14
f 4//15 6//15 15//15
f 12//5 4//5 15//5
f 5//16 12//16 15//16
f 11//17 2//17 16//17
f 7//18 11//18 16//18
f 2//19 14//19 16//19
f 6//20 3//20 17//20
f 3//6 7//6 17//6
f 7//21 13//21 17//21
f 13//22 10//22 17//22
f 13//23 7//23 18//23
f 9//24 13//24 18//24
f 14//25 9//25 18//25
f 7//26 16//26 18//26
f 16//27 14//27 18//27
f 10//28 5//28 19//28
f 15//29 6//29 19//29
f 5//30 15//30 19//30
f 6//31 17//31 19//31
