# Blender v2.79 (sub 0) OBJ File: ''
# www.blender.org
mtllib 100435_link_1_16.mtl
o Shape_IndexedFaceSet.016_Shape_IndexedFaceSet.8669
v 0.377769 -0.570390 0.356985
v 0.216730 0.825090 0.548672
v 0.209082 0.786760 0.548672
v 0.369823 0.832674 0.364965
v 0.377488 0.817507 0.456791
v 0.209082 -0.568042 0.518026
v 0.209082 0.817507 0.464452
v 0.300934 -0.568042 0.487418
v 0.207562 -0.580750 0.464659
v 0.377488 -0.545017 0.426201
v 0.364165 -0.580619 0.354516
v 0.285636 0.633576 0.518026
v 0.232045 -0.568042 0.518026
v 0.362158 0.809648 0.472114
v 0.224396 0.809648 0.548672
v 0.376360 0.831093 0.426560
v 0.210000 0.832847 0.524894
v 0.339211 0.825090 0.487418
vn 0.1361 0.9526 0.2722
vn -0.9996 -0.0006 0.0286
vn -1.0000 0.0011 0.0004
vn 1.0000 -0.0001 0.0041
vn 0.4934 -0.8121 0.3116
vn 0.1738 0.0066 -0.9848
vn -0.5268 0.0084 -0.8499
vn 0.0998 -0.9850 0.1407
vn -0.5753 0.0005 -0.8180
vn 0.5405 -0.7892 0.2915
vn 0.4060 -0.0181 0.9137
vn 0.0000 -0.0226 0.9997
vn 0.0000 -0.9728 0.2316
vn 0.0859 -0.9774 0.1933
vn 0.7109 -0.0158 0.7031
vn 0.6279 -0.0193 0.7780
vn 0.0000 0.0000 1.0000
vn 0.4054 -0.0181 0.9140
vn 0.0329 -0.0220 0.9992
vn 0.9944 0.0062 -0.1054
vn 0.9993 0.0028 -0.0360
vn -0.9281 0.1852 0.3231
vn -0.9997 0.0245 0.0090
vn -0.2349 0.9430 -0.2358
vn 0.0242 0.9994 0.0231
vn 0.1057 0.9812 0.1613
vn 0.5351 -0.0147 0.8447
vn 0.6359 0.2085 0.7431
vn 0.5478 -0.0150 0.8365
vn 0.4697 0.0097 0.8828
vn 0.4367 0.2168 0.8731
vn 0.4455 0.8227 0.3531
usemtl Shape.8678
s off
f 17//1 2//1 18//1
f 6//2 3//2 9//2
f 3//3 7//3 9//3
f 1//4 5//4 10//4
f 10//5 8//5 11//5
f 4//6 1//6 11//6
f 7//7 4//7 11//7
f 8//8 9//8 11//8
f 9//9 7//9 11//9
f 1//10 10//10 11//10
f 8//11 12//11 13//11
f 3//12 6//12 13//12
f 6//13 9//13 13//13
f 9//14 8//14 13//14
f 10//15 5//15 14//15
f 8//16 10//16 14//16
f 2//17 3//17 15//17
f 13//18 12//18 15//18
f 3//19 13//19 15//19
f 1//20 4//20 16//20
f 5//21 1//21 16//21
f 3//22 2//22 17//22
f 7//23 3//23 17//23
f 4//24 7//24 17//24
f 16//25 4//25 17//25
f 16//26 17//26 18//26
f 12//27 8//27 18//27
f 14//28 5//28 18//28
f 8//29 14//29 18//29
f 15//30 12//30 18//30
f 2//31 15//31 18//31
f 5//32 16//32 18//32
