####
#
# OBJ File Generated by Meshlab
#
####
# Object 100435_link_0_1.obj
#
# Vertices: 22
# Faces: 40
#
####
mtllib ./100435_link_0_1.obj.mtl

vn 0.826501 0.561436 0.041073
v -0.435022 0.411225 0.343274
vn -0.334025 -0.905593 0.261397
v -0.480465 0.330561 0.348381
vn -0.174459 -0.836511 0.519436
v -0.484635 0.344518 0.364596
vn -0.785901 0.593934 -0.172053
v -0.589344 0.494974 0.225869
vn 0.572553 -0.223082 -0.788934
v -0.530821 0.492164 0.188610
vn 0.093346 0.801072 0.591245
v -0.547048 0.526954 0.265885
vn -0.322265 0.533676 0.781879
v -0.551095 0.444344 0.341695
vn -0.695710 -0.718291 0.006808
v -0.571170 0.372983 0.274725
vn 0.673186 -0.523674 -0.522099
v -0.445293 0.345068 0.310572
vn -0.023140 -0.435190 -0.900041
v -0.586071 0.446114 0.185352
vn 0.230504 0.572276 0.786999
v -0.468918 0.382612 0.381855
vn 0.716800 0.556958 -0.419518
v -0.519503 0.509554 0.210205
vn 0.908469 0.051182 -0.414807
v -0.431916 0.383187 0.313564
vn -0.880436 -0.203173 0.428432
v -0.579251 0.400108 0.319256
vn -0.276754 -0.859426 -0.429876
v -0.537676 0.351585 0.263974
vn -0.810046 0.389915 0.437940
v -0.585784 0.508097 0.264888
vn -0.989067 -0.147465 -0.000289
v -0.613065 0.446914 0.222140
vn 0.462179 0.871318 0.164908
v -0.524049 0.524080 0.241634
vn 0.605796 0.407929 0.683086
v -0.452552 0.399730 0.364168
vn -0.505371 -0.141155 0.851279
v -0.503077 0.370386 0.400551
vn 0.409737 -0.517099 -0.751481
v -0.468059 0.322422 0.309426
vn 0.292507 -0.225845 -0.929211
v -0.556766 0.483109 0.194701
# 22 vertices, 0 vertices normals


usemtl material_0
f 21//21 10//10 22//22
f 2//2 3//3 8//8
f 3//3 2//2 9//9
f 6//6 7//7 11//11
f 9//9 5//5 13//13
f 5//5 12//12 13//13
f 12//12 1//1 13//13
f 8//8 3//3 14//14
f 2//2 8//8 15//15
f 8//8 10//10 15//15
f 6//6 4//4 16//16
f 7//7 6//6 16//16
f 14//14 7//7 16//16
f 4//4 14//14 16//16
f 10//10 8//8 17//17
f 4//4 10//10 17//17
f 14//14 4//4 17//17
f 8//8 14//14 17//17
f 4//4 6//6 18//18
f 12//12 4//4 18//18
f 1//1 12//12 18//18
f 3//3 9//9 19//19
f 6//6 11//11 19//19
f 11//11 3//3 19//19
f 9//9 13//13 19//19
f 13//13 1//1 19//19
f 1//1 18//18 19//19
f 18//18 6//6 19//19
f 3//3 11//11 20//20
f 11//11 7//7 20//20
f 14//14 3//3 20//20
f 7//7 14//14 20//20
f 9//9 2//2 21//21
f 2//2 15//15 21//21
f 15//15 10//10 21//21
f 5//5 9//9 22//22
f 10//10 4//4 22//22
f 4//4 12//12 22//22
f 12//12 5//5 22//22
f 9//9 21//21 22//22
# 40 faces, 0 coords texture

# End of File
