# Blender v2.79 (sub 0) OBJ File: ''
# www.blender.org
mtllib 102651_link_2_94.mtl
o Shape_IndexedFaceSet.094_Shape_IndexedFaceSet.16496
v -0.005007 0.838010 -0.361633
v -0.000872 0.837092 -0.353134
v -0.002480 0.837321 -0.353134
v -0.003399 0.838929 -0.357727
v -0.000872 0.838469 -0.361633
v -0.004547 0.836402 -0.354513
v -0.000872 0.837092 -0.358187
v -0.005007 0.837092 -0.353134
v -0.003169 0.837321 -0.360484
v -0.005007 0.838469 -0.361633
v -0.000872 0.836632 -0.353134
v -0.000872 0.837780 -0.361402
v -0.005007 0.836632 -0.355892
v -0.003858 0.838699 -0.356811
vn -0.6558 0.7452 0.1207
vn 0.1343 0.9433 0.3034
vn 0.3926 0.9079 0.1471
vn 1.0000 0.0000 0.0000
vn 0.0000 0.0000 1.0000
vn 0.0436 -0.9889 -0.1421
vn 0.0000 0.0000 -1.0000
vn 0.0000 0.9931 -0.1169
vn -1.0000 0.0000 0.0000
vn 0.0959 -0.9913 -0.0902
vn -0.1004 -0.9028 0.4182
vn 0.0353 -0.3177 -0.9475
vn -0.0212 -0.8720 -0.4891
vn 0.1111 -0.9718 -0.2080
vn -0.7022 -0.7022 0.1171
vn -0.2136 -0.9499 -0.2280
vn -0.0225 -0.9873 -0.1572
vn 0.1332 0.9434 0.3037
vn -0.0836 0.9224 0.3770
vn -0.3743 0.9262 0.0450
usemtl Shape.16505
s off
f 10//1 8//1 14//1
f 3//2 2//2 4//2
f 4//3 2//3 5//3
f 5//4 2//4 7//4
f 2//5 3//5 8//5
f 7//6 6//6 9//6
f 5//7 1//7 10//7
f 4//8 5//8 10//8
f 1//9 8//9 10//9
f 6//10 7//10 11//10
f 7//4 2//4 11//4
f 2//5 8//5 11//5
f 8//11 6//11 11//11
f 1//12 5//12 12//12
f 5//4 7//4 12//4
f 9//13 1//13 12//13
f 7//14 9//14 12//14
f 8//9 1//9 13//9
f 6//15 8//15 13//15
f 1//16 9//16 13//16
f 9//17 6//17 13//17
f 3//18 4//18 14//18
f 8//19 3//19 14//19
f 4//20 10//20 14//20
