# Blender v2.79 (sub 0) OBJ File: ''
# www.blender.org
mtllib 102651_link_2_109.mtl
o Shape_IndexedFaceSet.109_Shape_IndexedFaceSet.16511
v -0.033261 0.823998 -0.383686
v -0.032802 0.826984 -0.380700
v -0.033261 0.826984 -0.380700
v -0.031654 0.826984 -0.383916
v -0.032573 0.824227 -0.382308
v -0.034181 0.823998 -0.380700
v -0.032802 0.826984 -0.383916
v -0.031654 0.825147 -0.383916
v -0.034181 0.825376 -0.380930
vn -0.9239 0.1139 -0.3653
vn 0.0000 1.0000 0.0000
vn 0.6924 -0.3198 0.6468
vn 0.0000 0.0000 1.0000
vn 0.2012 -0.9776 0.0620
vn -0.0983 -0.0614 -0.9933
vn 0.9418 0.0000 0.3362
vn 0.5616 -0.8146 -0.1450
vn 0.8942 -0.1678 0.4150
vn 0.0000 0.0000 -1.0000
vn -0.9545 -0.0491 -0.2941
vn -0.4713 0.1452 0.8700
vn -0.8539 0.5060 -0.1219
usemtl Shape.16520
s off
f 7//1 1//1 9//1
f 3//2 2//2 4//2
f 5//3 2//3 6//3
f 2//4 3//4 6//4
f 1//5 5//5 6//5
f 3//2 4//2 7//2
f 1//6 7//6 8//6
f 4//7 2//7 8//7
f 5//8 1//8 8//8
f 2//9 5//9 8//9
f 7//10 4//10 8//10
f 1//11 6//11 9//11
f 6//12 3//12 9//12
f 3//13 7//13 9//13
