# Blender v2.79 (sub 0) OBJ File: ''
# www.blender.org
mtllib 102651_link_2_78.mtl
o Shape_IndexedFaceSet.078_Shape_IndexedFaceSet.16480
v -0.010750 0.828362 -0.402523
v -0.005236 0.830889 -0.402753
v -0.005236 0.830200 -0.402753
v -0.006385 0.830889 -0.403901
v -0.010750 0.830889 -0.401834
v -0.005236 0.828362 -0.403901
v -0.010750 0.829740 -0.403441
v -0.006845 0.829281 -0.402523
v -0.010750 0.828362 -0.403441
v -0.010750 0.830889 -0.403212
vn -1.0000 -0.0000 0.0000
vn 0.1644 0.0000 0.9864
vn 0.0000 1.0000 0.0001
vn 1.0000 0.0000 0.0000
vn 0.6729 0.3060 -0.6735
vn 0.0618 -0.2626 0.9629
vn 0.1602 -0.0336 0.9865
vn 0.1689 -0.7176 0.6757
vn 0.3902 -0.4877 0.7809
vn 0.0000 -1.0000 0.0000
vn -0.0831 -0.0378 -0.9958
vn -0.1048 0.0000 -0.9945
vn 0.0000 1.0000 0.0000
vn -0.1530 0.1932 -0.9692
usemtl Shape.16489
s off
f 7//1 5//1 10//1
f 3//2 2//2 5//2
f 2//3 4//3 5//3
f 2//4 3//4 6//4
f 4//5 2//5 6//5
f 1//1 5//1 7//1
f 5//6 1//6 8//6
f 3//7 5//7 8//7
f 1//8 6//8 8//8
f 6//9 3//9 8//9
f 6//10 1//10 9//10
f 4//11 6//11 9//11
f 7//12 4//12 9//12
f 1//1 7//1 9//1
f 5//13 4//13 10//13
f 4//14 7//14 10//14
