# Blender v2.79 (sub 0) OBJ File: ''
# www.blender.org
mtllib 102651_link_2_74.mtl
o Shape_IndexedFaceSet.074_Shape_IndexedFaceSet.16476
v 0.008085 0.835483 -0.348080
v -0.000872 0.836861 -0.354972
v -0.000872 0.837321 -0.354972
v 0.012452 0.836173 -0.354972
v 0.007627 0.837321 -0.350608
v -0.000872 0.835483 -0.346704
v 0.010843 0.835483 -0.354972
v 0.003723 0.837091 -0.348770
v -0.000641 0.835483 -0.349919
v 0.011991 0.836861 -0.353822
v 0.012452 0.835483 -0.351066
v 0.005790 0.835713 -0.346704
v -0.000872 0.836173 -0.347163
v 0.002575 0.837321 -0.354972
v 0.011762 0.836861 -0.352444
v 0.000048 0.836632 -0.354972
v -0.000872 0.837321 -0.354052
v 0.008544 0.837321 -0.352444
v 0.005331 0.836861 -0.348310
v 0.008544 0.836173 -0.349000
vn 0.2829 0.8167 0.5029
vn 0.0000 0.0000 -1.0000
vn -1.0000 0.0000 -0.0000
vn 0.0000 -1.0000 0.0000
vn -0.9163 -0.3950 -0.0658
vn 0.3890 -0.9072 -0.1602
vn 0.8853 0.4580 0.0809
vn 0.0337 -0.9751 0.2191
vn 0.4639 0.5700 0.6782
vn -0.0191 0.5538 0.8324
vn 0.0000 1.0000 -0.0001
vn 0.1012 0.8711 -0.4805
vn 0.8241 0.5496 0.1370
vn -0.2341 -0.9406 -0.2458
vn -0.1029 -0.9668 -0.2339
vn 0.0000 1.0000 0.0000
vn -0.0272 0.9974 0.0671
vn -0.1382 0.9769 0.1628
vn 0.0676 0.9849 -0.1597
vn 0.1411 0.9875 0.0705
vn 0.1415 0.9897 0.0235
vn 0.0643 0.9642 0.2573
vn -0.0099 0.8801 0.4746
vn 0.0165 0.8156 0.5784
vn 0.4561 0.5908 0.6655
vn 0.2902 0.8494 0.4408
vn 0.4121 0.7391 0.5327
vn 0.2781 0.8497 0.4480
usemtl Shape.16485
s off
f 19//1 12//1 20//1
f 2//2 3//2 4//2
f 3//3 2//3 6//3
f 1//4 6//4 7//4
f 2//2 4//2 7//2
f 6//5 2//5 9//5
f 7//4 6//4 9//4
f 1//4 7//4 11//4
f 7//6 4//6 11//6
f 4//7 10//7 11//7
f 6//8 1//8 12//8
f 1//9 11//9 12//9
f 3//3 6//3 13//3
f 6//10 12//10 13//10
f 4//2 3//2 14//2
f 3//11 5//11 14//11
f 10//12 4//12 14//12
f 11//13 10//13 15//13
f 2//2 7//2 16//2
f 9//14 2//14 16//14
f 7//15 9//15 16//15
f 5//16 3//16 17//16
f 8//17 5//17 17//17
f 3//3 13//3 17//3
f 13//18 8//18 17//18
f 14//16 5//16 18//16
f 10//19 14//19 18//19
f 5//20 15//20 18//20
f 15//21 10//21 18//21
f 5//22 8//22 19//22
f 8//23 13//23 19//23
f 13//24 12//24 19//24
f 12//25 11//25 20//25
f 15//26 5//26 20//26
f 11//27 15//27 20//27
f 5//28 19//28 20//28
