# Blender v2.79 (sub 0) OBJ File: ''
# www.blender.org
mtllib 102651_link_2_13.mtl
o Shape_IndexedFaceSet.013_Shape_IndexedFaceSet.16415
v 0.005790 0.835942 -0.394941
v -0.000872 0.833646 -0.397928
v -0.000872 0.833876 -0.397928
v -0.000872 0.835713 -0.391497
v 0.005790 0.833646 -0.394254
v -0.000872 0.836862 -0.394713
v 0.005790 0.836631 -0.391726
v 0.005790 0.833646 -0.396549
v -0.000872 0.833646 -0.395631
v 0.005790 0.835483 -0.391497
v 0.000507 0.834794 -0.397468
v -0.000412 0.836631 -0.391497
v 0.005790 0.836862 -0.393335
v 0.005560 0.834565 -0.396549
vn 0.1841 0.2051 -0.9613
vn -1.0000 0.0000 -0.0000
vn 1.0000 0.0000 0.0000
vn 0.2029 0.0000 -0.9792
vn 0.0000 -1.0000 0.0000
vn -0.0920 -0.8906 0.4453
vn -0.0287 -0.8318 0.5543
vn 0.0936 0.8182 -0.5673
vn -0.2523 0.7090 -0.6585
vn -0.8828 0.4424 0.1580
vn -0.0000 0.0000 1.0000
vn 0.0362 0.1955 0.9800
vn 0.1023 0.8631 -0.4945
vn -0.0153 0.9972 0.0738
vn 0.0052 0.9898 0.1422
vn 0.9166 0.2294 -0.3275
vn 0.2041 0.0511 -0.9776
vn 0.1527 0.7397 -0.6553
usemtl Shape.16424
s off
f 3//1 11//1 14//1
f 3//2 2//2 4//2
f 3//2 4//2 6//2
f 5//3 1//3 7//3
f 2//4 3//4 8//4
f 1//3 5//3 8//3
f 5//5 2//5 8//5
f 4//2 2//2 9//2
f 5//6 4//6 9//6
f 2//5 5//5 9//5
f 4//7 5//7 10//7
f 5//3 7//3 10//3
f 6//8 1//8 11//8
f 3//9 6//9 11//9
f 6//10 4//10 12//10
f 4//11 10//11 12//11
f 10//12 7//12 12//12
f 1//13 6//13 13//13
f 7//3 1//3 13//3
f 6//14 12//14 13//14
f 12//15 7//15 13//15
f 1//16 8//16 14//16
f 8//17 3//17 14//17
f 11//18 1//18 14//18
