# Blender v2.79 (sub 0) OBJ File: ''
# www.blender.org
mtllib 102651_link_1_22.mtl
o Shape_IndexedFaceSet.022
v 0.109773 -0.762088 0.260546
v 0.120916 -0.464505 0.470445
v 0.120916 -0.464505 0.463392
v 0.001278 -0.485630 0.470445
v 0.050546 -0.767036 0.315667
v 0.001278 -0.682599 0.322698
v 0.113878 -0.703723 0.266403
v 0.120916 -0.513785 0.470445
v 0.001278 -0.534879 0.470445
v 0.001278 -0.760004 0.322698
v 0.120916 -0.774128 0.273435
v 0.001278 -0.492661 0.456361
v 0.001278 -0.745942 0.294551
v 0.120916 -0.745942 0.245265
v 0.092763 -0.767036 0.301582
v 0.078687 -0.527848 0.470445
vn 0.0000 0.0000 1.0000
vn -0.1739 0.9848 0.0000
vn 1.0000 0.0000 0.0000
vn -1.0000 -0.0000 0.0000
vn 0.0410 -0.5482 0.8353
vn -0.1533 -0.9840 -0.0902
vn -0.1813 0.8799 -0.4393
vn -0.1042 0.6340 -0.7662
vn -0.2881 0.5511 -0.7831
vn -0.3558 0.3795 -0.8540
vn -0.2816 -0.8105 -0.5136
vn -0.2782 -0.8593 -0.4293
vn 0.7928 0.3733 -0.4817
vn 0.0542 -0.7059 -0.7063
vn -0.3249 -0.5221 -0.7886
vn -0.3537 0.3709 -0.8587
vn 0.2632 -0.5553 0.7889
vn 0.5422 -0.5070 0.6700
vn 0.1172 -0.9289 0.3513
vn 0.1829 -0.5492 0.8154
vn 0.0497 -0.5467 0.8358
usemtl Shape.026
s off
f 8//1 9//1 16//1
f 2//2 3//2 4//2
f 3//3 2//3 8//3
f 2//1 4//1 8//1
f 4//4 6//4 9//4
f 8//1 4//1 9//1
f 9//4 6//4 10//4
f 5//5 9//5 10//5
f 3//3 8//3 11//3
f 5//6 10//6 11//6
f 4//7 3//7 12//7
f 6//4 4//4 12//4
f 3//8 7//8 12//8
f 7//9 6//9 12//9
f 6//10 7//10 13//10
f 10//4 6//4 13//4
f 1//11 11//11 13//11
f 11//12 10//12 13//12
f 7//13 3//13 14//13
f 11//14 1//14 14//14
f 3//3 11//3 14//3
f 1//15 13//15 14//15
f 13//16 7//16 14//16
f 8//17 5//17 15//17
f 11//18 8//18 15//18
f 5//19 11//19 15//19
f 5//20 8//20 16//20
f 9//21 5//21 16//21
