# Blender v2.79 (sub 0) OBJ File: ''
# www.blender.org
mtllib 102651_link_2_83.mtl
o Shape_IndexedFaceSet.083_Shape_IndexedFaceSet.16485
v -0.030965 0.823540 -0.387821
v -0.031653 0.830889 -0.383917
v -0.033032 0.830889 -0.383917
v -0.030965 0.830889 -0.388739
v -0.028897 0.829739 -0.388050
v -0.031653 0.824917 -0.383917
v -0.033032 0.824228 -0.385294
v -0.029586 0.823769 -0.388739
v -0.030965 0.823769 -0.388739
v -0.032802 0.830889 -0.385984
v -0.029127 0.830889 -0.388739
v -0.033032 0.823999 -0.383917
v -0.031883 0.824458 -0.387591
v -0.029357 0.830889 -0.387131
v -0.031424 0.826525 -0.383917
v -0.029357 0.828132 -0.387361
vn 0.8753 -0.1247 0.4672
vn 0.0000 1.0000 0.0000
vn 0.0000 0.0000 1.0000
vn -0.5262 -0.8251 -0.2057
vn 0.0000 -0.9703 -0.2420
vn 0.0000 0.0000 -1.0000
vn -0.9936 0.0229 -0.1106
vn 0.9132 -0.0589 -0.4031
vn -1.0000 0.0000 0.0000
vn -0.4675 -0.8720 -0.1451
vn 0.3384 -0.8969 0.2847
vn 0.5080 -0.7631 0.3994
vn -0.7810 0.0000 -0.6246
vn -0.8226 -0.3517 -0.4467
vn -0.8318 0.0197 -0.5547
vn -0.8936 -0.0156 -0.4486
vn 0.9526 0.2721 0.1362
vn -0.0001 0.0000 1.0000
vn 0.8130 0.0427 0.5808
vn 0.8651 -0.0417 0.4998
vn 0.9442 -0.1432 0.2965
vn 0.8878 -0.1804 0.4235
vn 0.8722 -0.0407 0.4875
usemtl Shape.16494
s off
f 15//1 6//1 16//1
f 3//2 2//2 4//2
f 2//3 3//3 6//3
f 1//4 7//4 9//4
f 8//5 1//5 9//5
f 4//6 8//6 9//6
f 3//2 4//2 10//2
f 7//7 3//7 10//7
f 4//2 2//2 11//2
f 8//6 4//6 11//6
f 5//8 8//8 11//8
f 6//3 3//3 12//3
f 3//9 7//9 12//9
f 7//10 1//10 12//10
f 1//11 8//11 12//11
f 8//12 6//12 12//12
f 4//13 9//13 13//13
f 9//14 7//14 13//14
f 10//15 4//15 13//15
f 7//16 10//16 13//16
f 11//2 2//2 14//2
f 5//17 11//17 14//17
f 2//18 6//18 15//18
f 14//19 2//19 15//19
f 14//20 15//20 16//20
f 8//21 5//21 16//21
f 6//22 8//22 16//22
f 5//23 14//23 16//23
