# Blender v2.79 (sub 0) OBJ File: ''
# www.blender.org
mtllib 102651_link_2_96.mtl
o Shape_IndexedFaceSet.096_Shape_IndexedFaceSet.16498
v 0.001885 0.826754 -0.402982
v 0.008317 0.828362 -0.402063
v 0.008317 0.828362 -0.402523
v 0.008317 0.824228 -0.402063
v 0.005789 0.826065 -0.403212
v 0.002804 0.828362 -0.403212
v 0.004412 0.826754 -0.402293
v 0.001655 0.826065 -0.403212
v 0.008317 0.824228 -0.402523
v 0.003493 0.825376 -0.402523
v 0.004183 0.828362 -0.402523
vn -0.1097 0.1254 0.9860
vn 1.0000 0.0000 0.0000
vn 0.1224 0.1591 -0.9796
vn 0.0000 1.0000 0.0000
vn -0.0588 0.0000 0.9983
vn 0.0000 0.0000 -1.0000
vn -0.8169 0.4087 -0.4070
vn 0.2629 0.0000 -0.9648
vn 0.0000 -0.3512 -0.9363
vn -0.2181 -0.9167 -0.3347
vn -0.2630 0.0144 0.9647
vn -0.1154 -0.0882 0.9894
vn -0.4004 -0.1671 0.9010
vn -0.2315 -0.9728 0.0000
vn -0.4174 0.3580 0.8352
vn -0.2617 0.1000 0.9599
usemtl Shape.16507
s off
f 7//1 2//1 11//1
f 3//2 2//2 4//2
f 3//3 5//3 6//3
f 2//4 3//4 6//4
f 4//5 2//5 7//5
f 6//6 5//6 8//6
f 1//7 6//7 8//7
f 3//2 4//2 9//2
f 5//8 3//8 9//8
f 8//9 5//9 9//9
f 8//10 9//10 10//10
f 7//11 1//11 10//11
f 4//12 7//12 10//12
f 1//13 8//13 10//13
f 9//14 4//14 10//14
f 2//4 6//4 11//4
f 6//15 1//15 11//15
f 1//16 7//16 11//16
