# Blender v2.79 (sub 0) OBJ File: ''
# www.blender.org
mtllib 102651_link_2_110.mtl
o Shape_IndexedFaceSet.110_Shape_IndexedFaceSet.16512
v -0.031654 0.827903 -0.383686
v -0.033491 0.830889 -0.380700
v -0.033951 0.830889 -0.380700
v -0.033261 0.826984 -0.380700
v -0.032802 0.826984 -0.383916
v -0.032802 0.830889 -0.383916
v -0.032113 0.830889 -0.382537
v -0.034181 0.830199 -0.381159
v -0.032802 0.826984 -0.380700
v -0.031654 0.830429 -0.383916
vn 0.3657 0.9126 -0.1827
vn 0.0000 0.0000 1.0000
vn 0.0000 1.0000 0.0000
vn -0.7859 -0.1389 0.6025
vn -0.9473 -0.2904 -0.1352
vn -0.8294 0.4736 -0.2963
vn -0.8944 0.0000 -0.4473
vn 0.6249 -0.7807 0.0000
vn 0.0000 -1.0000 0.0000
vn 0.9329 0.0048 0.3601
vn 0.7921 0.1398 0.5942
vn 0.2626 -0.0875 -0.9609
vn 0.0000 0.0000 -1.0000
vn 0.9512 0.0280 0.3073
usemtl Shape.16521
s off
f 6//1 7//1 10//1
f 2//2 3//2 4//2
f 3//3 2//3 6//3
f 6//3 2//3 7//3
f 4//4 3//4 8//4
f 5//5 4//5 8//5
f 3//6 6//6 8//6
f 6//7 5//7 8//7
f 2//2 4//2 9//2
f 5//8 1//8 9//8
f 4//9 5//9 9//9
f 1//10 7//10 9//10
f 7//11 2//11 9//11
f 1//12 5//12 10//12
f 5//13 6//13 10//13
f 7//14 1//14 10//14
