# Blender v2.79 (sub 0) OBJ File: ''
# www.blender.org
mtllib 102651_link_2_52.mtl
o Shape_IndexedFaceSet.052_Shape_IndexedFaceSet.16454
v -0.002710 0.830889 -0.337744
v -0.012587 0.831349 -0.343027
v -0.012587 0.832037 -0.343027
v -0.000872 0.832037 -0.343027
v -0.009831 0.832267 -0.338203
v -0.012587 0.830889 -0.339811
v -0.004778 0.831119 -0.343027
v -0.000872 0.832037 -0.338203
v -0.000872 0.830889 -0.339122
v -0.012587 0.832037 -0.339122
v -0.005007 0.832267 -0.337974
v -0.009140 0.831808 -0.337974
v -0.012587 0.830889 -0.340729
v -0.000872 0.831578 -0.342566
vn 1.0000 0.0000 0.0000
vn 0.0000 0.0000 -1.0000
vn 0.0000 0.9989 -0.0476
vn -1.0000 0.0000 0.0000
vn 0.0000 -1.0000 0.0001
vn 0.5052 -0.5394 0.6737
vn -0.0832 0.9965 0.0000
vn 0.0021 0.9990 -0.0438
vn 0.0684 0.2741 0.9593
vn 0.0555 0.9985 0.0000
vn -0.1319 -0.7651 0.6302
vn -0.3161 -0.0026 0.9487
vn -0.3046 -0.4902 0.8167
vn -0.0155 0.1395 0.9901
vn -0.0436 0.3927 0.9187
vn -0.0289 -0.9801 -0.1962
vn 0.0000 -1.0000 0.0000
vn 0.0093 -0.9976 -0.0681
vn 0.1643 -0.6990 -0.6960
vn 0.1371 -0.9713 -0.1943
usemtl Shape.16463
s off
f 4//1 9//1 14//1
f 2//2 3//2 4//2
f 4//3 3//3 5//3
f 3//4 2//4 6//4
f 2//2 4//2 7//2
f 1//5 6//5 9//5
f 8//6 1//6 9//6
f 4//1 8//1 9//1
f 5//7 3//7 10//7
f 3//4 6//4 10//4
f 4//8 5//8 11//8
f 1//9 8//9 11//9
f 8//10 4//10 11//10
f 6//11 1//11 12//11
f 5//12 10//12 12//12
f 10//13 6//13 12//13
f 1//14 11//14 12//14
f 11//15 5//15 12//15
f 6//4 2//4 13//4
f 2//16 7//16 13//16
f 9//17 6//17 13//17
f 7//18 9//18 13//18
f 7//19 4//19 14//19
f 9//20 7//20 14//20
