# Blender v2.79 (sub 0) OBJ File: ''
# www.blender.org
mtllib 102651_link_2_75.mtl
o Shape_IndexedFaceSet.075_Shape_IndexedFaceSet.16477
v 0.018425 0.835253 -0.369443
v 0.022100 0.835024 -0.369443
v 0.022100 0.833876 -0.369443
v 0.021410 0.834335 -0.362093
v 0.019573 0.833416 -0.362093
v 0.017046 0.835483 -0.362093
v 0.020261 0.835483 -0.363012
v 0.020951 0.833416 -0.369443
v 0.021640 0.833416 -0.362093
v 0.020031 0.835483 -0.369673
v 0.017046 0.835253 -0.363242
v 0.021870 0.833416 -0.369673
vn -0.1253 -0.1114 -0.9858
vn -0.0000 0.0000 1.0000
vn 0.6462 0.7518 0.1311
vn 0.1900 0.7224 0.6649
vn 0.0000 -1.0000 0.0000
vn 0.9980 0.0000 0.0625
vn 0.9639 0.2412 0.1131
vn -0.1498 0.9870 -0.0590
vn 0.2174 0.9761 -0.0075
vn 0.0000 1.0000 0.0000
vn -0.6618 0.7351 -0.1472
vn -0.6257 -0.7649 0.1531
vn -0.5832 -0.8019 -0.1297
vn -0.5535 -0.8263 -0.1038
vn 0.7071 0.0000 -0.7071
vn -0.2303 -0.3167 -0.9201
vn 0.8887 -0.4578 0.0270
vn 0.1362 0.1212 -0.9832
usemtl Shape.16486
s off
f 1//1 10//1 12//1
f 5//2 4//2 6//2
f 4//3 2//3 7//3
f 6//4 4//4 7//4
f 5//5 8//5 9//5
f 3//6 2//6 9//6
f 2//7 4//7 9//7
f 4//2 5//2 9//2
f 1//8 6//8 10//8
f 7//9 2//9 10//9
f 6//10 7//10 10//10
f 6//11 1//11 11//11
f 5//12 6//12 11//12
f 1//13 8//13 11//13
f 8//14 5//14 11//14
f 2//15 3//15 12//15
f 8//16 1//16 12//16
f 9//5 8//5 12//5
f 3//17 9//17 12//17
f 10//18 2//18 12//18
