# Blender v2.79 (sub 0) OBJ File: ''
# www.blender.org
mtllib 102651_link_2_115.mtl
o Shape_IndexedFaceSet.115_Shape_IndexedFaceSet.16517
v -0.008912 0.830888 -0.340040
v -0.013277 0.824458 -0.340040
v -0.013277 0.824458 -0.339581
v -0.013277 0.830888 -0.339811
v -0.013277 0.830888 -0.340729
v -0.008223 0.830429 -0.339581
v -0.012816 0.826985 -0.340729
v -0.010061 0.827214 -0.339811
v -0.011439 0.830888 -0.339581
vn 0.0000 0.0000 1.0000
vn -1.0000 0.0000 0.0000
vn 0.0000 1.0000 0.0000
vn 0.1559 0.0184 -0.9876
vn -0.6698 -0.0791 -0.7383
vn 0.6507 -0.7593 0.0000
vn 0.4504 -0.1952 -0.8712
vn 0.2464 -0.2086 0.9464
vn 0.3240 -0.1595 -0.9325
vn 0.3238 -0.3034 -0.8961
vn -0.1241 0.0355 0.9916
vn 0.0000 1.0000 0.0002
vn 0.1115 0.7815 0.6139
usemtl Shape.16526
s off
f 3//1 6//1 9//1
f 2//2 3//2 4//2
f 4//3 1//3 5//3
f 2//2 4//2 5//2
f 5//4 1//4 7//4
f 2//5 5//5 7//5
f 3//6 2//6 8//6
f 1//7 6//7 8//7
f 6//8 3//8 8//8
f 7//9 1//9 8//9
f 2//10 7//10 8//10
f 4//11 3//11 9//11
f 1//12 4//12 9//12
f 6//13 1//13 9//13
