# Blender v2.79 (sub 0) OBJ File: ''
# www.blender.org
mtllib 102651_link_1_23.mtl
o Shape_IndexedFaceSet.023
v 0.124834 -0.531665 0.443822
v 0.177207 -0.774095 0.146760
v 0.177207 -0.767038 0.139702
v 0.184248 -0.443395 0.470467
v 0.142035 -0.767038 0.266394
v 0.120923 -0.478585 0.449325
v 0.120923 -0.752955 0.238258
v 0.184248 -0.492668 0.470467
v 0.184248 -0.767038 0.210090
v 0.186515 -0.755751 0.127863
v 0.120923 -0.774095 0.266394
v 0.120923 -0.703714 0.259400
v 0.135000 -0.520801 0.463377
v 0.170171 -0.443395 0.463377
v 0.177207 -0.745930 0.139702
v 0.120923 -0.464535 0.470467
vn -0.4006 0.7631 -0.5071
vn -0.8167 -0.4081 -0.4081
vn 0.6953 -0.4947 0.5213
vn 0.9994 -0.0231 0.0244
vn -0.0418 -0.7065 -0.7064
vn 1.0000 0.0000 0.0066
vn 0.8725 -0.4868 -0.0428
vn -0.7873 -0.4930 -0.3704
vn -1.0000 0.0000 0.0000
vn 0.1874 -0.9783 0.0882
vn 0.3084 -0.9227 0.2312
vn 0.2348 -0.6031 0.7623
vn -0.6871 -0.4219 0.5916
vn 0.2033 -0.6081 0.7674
vn 0.3208 0.7010 -0.6370
vn -0.0998 0.7258 -0.6806
vn -0.8684 0.0000 -0.4959
vn -0.7861 0.0000 -0.6181
vn -0.7523 0.4248 -0.5036
vn -0.8563 0.2037 -0.4745
vn -0.3079 0.6917 -0.6532
vn 0.0000 0.0000 1.0000
vn -0.9664 -0.1415 0.2146
vn -0.7864 -0.2669 0.5571
vn -0.0622 -0.1401 0.9882
vn -0.2681 0.8030 0.5323
usemtl Shape.027
s off
f 14//1 6//1 16//1
f 3//2 2//2 7//2
f 8//3 5//3 9//3
f 8//4 9//4 10//4
f 2//5 3//5 10//5
f 4//6 8//6 10//6
f 9//7 2//7 10//7
f 7//8 2//8 11//8
f 6//9 7//9 11//9
f 2//10 9//10 11//10
f 9//11 5//11 11//11
f 7//9 6//9 12//9
f 5//12 8//12 13//12
f 1//13 11//13 13//13
f 11//14 5//14 13//14
f 4//15 10//15 14//15
f 14//16 10//16 15//16
f 3//17 7//17 15//17
f 10//18 3//18 15//18
f 12//19 6//19 15//19
f 7//20 12//20 15//20
f 6//21 14//21 15//21
f 8//22 4//22 16//22
f 11//23 1//23 16//23
f 6//9 11//9 16//9
f 1//24 13//24 16//24
f 13//25 8//25 16//25
f 4//26 14//26 16//26
