# Blender v2.79 (sub 0) OBJ File: ''
# www.blender.org
mtllib 102651_link_2_76.mtl
o Shape_IndexedFaceSet.076_Shape_IndexedFaceSet.16478
v 0.012452 0.835253 -0.350378
v 0.021639 0.833876 -0.361632
v 0.021639 0.833416 -0.361632
v 0.016588 0.835253 -0.361862
v 0.012452 0.833416 -0.352218
v 0.016128 0.833416 -0.352218
v 0.020261 0.835253 -0.360253
v 0.012452 0.835483 -0.354973
v 0.019572 0.833416 -0.362093
v 0.015439 0.835483 -0.353134
v 0.019572 0.835483 -0.362093
v 0.012452 0.833416 -0.349688
v 0.019572 0.834335 -0.357727
v 0.015209 0.835024 -0.351987
v 0.016817 0.835483 -0.362093
v 0.020949 0.833646 -0.359564
v 0.012452 0.835024 -0.354973
v 0.012683 0.834335 -0.349688
vn 0.6155 0.2441 0.7494
vn 0.0000 -1.0000 0.0000
vn -1.0000 0.0000 0.0000
vn 0.2177 0.0000 -0.9760
vn -0.5082 -0.7794 -0.3664
vn -0.0308 0.9983 0.0500
vn 0.0000 1.0000 0.0000
vn 0.6270 0.7666 -0.1390
vn 0.1476 0.9867 0.0680
vn 0.3084 0.8602 0.4061
vn 0.6169 0.6801 0.3960
vn 0.7633 0.3591 0.5370
vn 0.6422 0.6474 0.4105
vn -0.8111 0.3081 -0.4972
vn -0.3502 -0.4668 -0.8120
vn 0.0000 0.0000 -1.0000
vn 0.9486 0.0000 0.3164
vn 0.3933 -0.8901 0.2303
vn 0.8111 0.4865 0.3247
vn 0.8184 0.1879 0.5430
vn 0.7728 0.4990 0.3922
vn -0.6208 -0.6771 -0.3952
vn -0.8573 0.0000 -0.5147
vn -0.8135 0.2045 0.5444
vn 0.5612 -0.1411 0.8156
vn 0.4372 0.6081 0.6626
usemtl Shape.16487
s off
f 6//1 14//1 18//1
f 5//2 3//2 6//2
f 5//3 1//3 8//3
f 2//4 3//4 9//4
f 5//5 4//5 9//5
f 3//2 5//2 9//2
f 8//6 1//6 10//6
f 8//7 10//7 11//7
f 7//8 2//8 11//8
f 2//4 9//4 11//4
f 10//9 7//9 11//9
f 1//3 5//3 12//3
f 5//2 6//2 12//2
f 10//10 1//10 14//10
f 7//11 10//11 14//11
f 6//12 13//12 14//12
f 13//13 7//13 14//13
f 4//14 8//14 15//14
f 9//15 4//15 15//15
f 8//7 11//7 15//7
f 11//16 9//16 15//16
f 3//17 2//17 16//17
f 6//18 3//18 16//18
f 2//19 7//19 16//19
f 13//20 6//20 16//20
f 7//21 13//21 16//21
f 4//22 5//22 17//22
f 8//23 4//23 17//23
f 5//3 8//3 17//3
f 1//24 12//24 18//24
f 12//25 6//25 18//25
f 14//26 1//26 18//26
