# Blender v2.79 (sub 0) OBJ File: ''
# www.blender.org
mtllib 102651_link_2_119.mtl
o Shape_IndexedFaceSet.119_Shape_IndexedFaceSet.16521
v -0.022235 0.835713 -0.367147
v -0.017871 0.837321 -0.365540
v -0.018101 0.837551 -0.365540
v -0.017871 0.837321 -0.370592
v -0.022235 0.836861 -0.370592
v -0.022465 0.836632 -0.365540
v -0.018331 0.836402 -0.365540
v -0.018561 0.836632 -0.370592
v -0.022465 0.836173 -0.370592
v -0.021316 0.835713 -0.365540
v -0.019020 0.837551 -0.365769
v -0.020627 0.835943 -0.368524
vn 0.2248 -0.9741 -0.0231
vn 0.7071 0.7071 0.0000
vn 0.0000 0.0000 1.0000
vn 0.8942 -0.4476 0.0000
vn 0.7051 -0.7062 -0.0643
vn 0.0000 0.0000 -1.0000
vn -0.9480 0.3169 -0.0288
vn -0.9581 -0.2851 0.0259
vn -0.5882 -0.7354 0.3364
vn 0.0112 0.9989 -0.0450
vn -0.1045 0.9919 -0.0722
vn -0.1588 0.7541 0.6373
vn -0.2556 0.9662 0.0322
vn 0.2651 -0.9626 -0.0559
vn 0.1142 -0.9711 -0.2095
vn 0.0269 -0.9906 -0.1341
vn 0.0954 -0.9939 -0.0546
usemtl Shape.16530
s off
f 7//1 10//1 12//1
f 3//2 2//2 4//2
f 2//3 3//3 6//3
f 4//4 2//4 7//4
f 2//3 6//3 7//3
f 4//5 7//5 8//5
f 5//6 4//6 8//6
f 5//6 8//6 9//6
f 6//7 5//7 9//7
f 1//8 6//8 9//8
f 6//9 1//9 10//9
f 7//3 6//3 10//3
f 3//10 4//10 11//10
f 4//11 5//11 11//11
f 6//12 3//12 11//12
f 5//13 6//13 11//13
f 8//14 7//14 12//14
f 9//15 8//15 12//15
f 1//16 9//16 12//16
f 10//17 1//17 12//17
