# Blender v2.79 (sub 0) OBJ File: ''
# www.blender.org
mtllib 102651_link_2_62.mtl
o Shape_IndexedFaceSet.062_Shape_IndexedFaceSet.16464
v 0.012452 0.837780 -0.373349
v 0.017735 0.837321 -0.369673
v 0.017735 0.835713 -0.369673
v 0.017735 0.835484 -0.377484
v 0.012452 0.836861 -0.369673
v 0.012452 0.837321 -0.377484
v 0.017735 0.836632 -0.377484
v 0.015208 0.838010 -0.371742
v 0.013141 0.836403 -0.377253
v 0.017275 0.835484 -0.371512
v 0.013830 0.838010 -0.371052
v 0.016816 0.837780 -0.372201
v 0.016816 0.835484 -0.377484
v 0.012912 0.836632 -0.369673
v 0.012452 0.836632 -0.377484
vn -0.3211 -0.9469 0.0189
vn 1.0000 0.0000 0.0000
vn 0.0000 0.0000 1.0000
vn -1.0000 0.0000 0.0000
vn 0.0000 0.0000 -1.0000
vn -0.0186 0.9937 -0.1103
vn 0.3556 -0.9342 0.0274
vn -0.4927 0.8442 0.2111
vn -0.0696 0.7995 0.5966
vn -0.0384 0.9963 -0.0766
vn 0.1008 0.9743 0.2014
vn 0.5944 0.8010 -0.0707
vn 0.1270 0.9736 -0.1895
vn 0.0940 0.9821 -0.1630
vn 0.1727 0.9783 0.1149
vn 0.0000 -1.0000 0.0000
vn -0.2415 -0.9702 0.0185
vn -0.1846 -0.9686 0.1667
vn -0.2458 -0.9691 0.0219
vn -0.2495 -0.9484 -0.1956
vn -0.4455 -0.8949 0.0262
usemtl Shape.16473
s off
f 9//1 14//1 15//1
f 2//2 3//2 4//2
f 3//3 2//3 5//3
f 5//4 1//4 6//4
f 2//2 4//2 7//2
f 4//5 6//5 7//5
f 6//6 1//6 8//6
f 4//7 3//7 10//7
f 1//8 5//8 11//8
f 5//9 2//9 11//9
f 8//10 1//10 11//10
f 2//11 8//11 11//11
f 2//12 7//12 12//12
f 7//13 6//13 12//13
f 6//14 8//14 12//14
f 8//15 2//15 12//15
f 6//5 4//5 13//5
f 4//16 10//16 13//16
f 10//17 9//17 13//17
f 3//3 5//3 14//3
f 10//18 3//18 14//18
f 9//19 10//19 14//19
f 5//4 6//4 15//4
f 6//5 13//5 15//5
f 13//20 9//20 15//20
f 14//21 5//21 15//21
