# Blender v2.79 (sub 0) OBJ File: ''
# www.blender.org
mtllib 102651_link_2_133.mtl
o Shape_IndexedFaceSet.133_Shape_IndexedFaceSet.16535
v 0.012452 0.837091 -0.374268
v 0.009236 0.837321 -0.376565
v 0.009236 0.838010 -0.376565
v 0.009236 0.837321 -0.374268
v 0.012452 0.836862 -0.376565
v 0.010384 0.838240 -0.375646
v 0.009925 0.836862 -0.375187
vn -0.1368 -0.9583 -0.2508
vn -1.0000 0.0000 0.0000
vn -0.0000 0.0000 -1.0000
vn -0.3887 0.8825 0.2647
vn 0.0578 0.8077 0.5868
vn 0.5263 0.8461 -0.0844
vn 0.2812 0.7876 -0.5483
vn -0.5544 -0.8323 0.0000
vn -0.0652 -0.9114 0.4063
vn 0.0540 -0.9936 0.0990
usemtl Shape.16544
s off
f 2//1 5//1 7//1
f 3//2 2//2 4//2
f 2//3 3//3 5//3
f 3//4 4//4 6//4
f 4//5 1//5 6//5
f 1//6 5//6 6//6
f 5//7 3//7 6//7
f 4//8 2//8 7//8
f 1//9 4//9 7//9
f 5//10 1//10 7//10
