# Blender v2.79 (sub 0) OBJ File: ''
# www.blender.org
mtllib 102651_link_2_98.mtl
o Shape_IndexedFaceSet.098_Shape_IndexedFaceSet.16500
v 0.019803 0.831349 -0.395860
v 0.023478 0.832037 -0.386902
v 0.023478 0.831119 -0.386902
v 0.018884 0.832037 -0.386902
v 0.019343 0.832497 -0.395630
v 0.022558 0.832727 -0.390348
v 0.018884 0.831349 -0.386902
v 0.018884 0.831119 -0.396091
v 0.022329 0.831119 -0.392415
v 0.018884 0.832497 -0.395171
v 0.021410 0.832037 -0.393792
v 0.023018 0.831349 -0.390807
vn 0.8418 0.4013 -0.3610
vn 0.0000 0.0000 1.0000
vn 0.0000 0.9805 0.1963
vn 0.1737 0.2599 -0.9499
vn -0.0500 -0.9984 0.0250
vn -1.0000 0.0000 0.0000
vn 0.2987 -0.9123 -0.2800
vn 0.0000 -1.0000 0.0000
vn -0.1342 0.9894 0.0551
vn -0.0270 0.9993 -0.0271
vn -0.6394 0.4270 -0.6395
vn 0.6584 0.3925 -0.6422
vn 0.4687 0.8229 -0.3211
vn 0.8005 -0.0879 -0.5928
vn 0.8741 0.2579 -0.4115
vn 0.9931 0.0000 -0.1170
vn 0.9158 0.3630 -0.1718
vn 0.5415 -0.8331 -0.1128
usemtl Shape.16509
s off
f 11//1 6//1 12//1
f 3//2 2//2 4//2
f 4//3 2//3 6//3
f 3//2 4//2 7//2
f 5//4 1//4 8//4
f 3//5 7//5 8//5
f 7//6 4//6 8//6
f 8//7 1//7 9//7
f 3//8 8//8 9//8
f 4//9 6//9 10//9
f 6//10 5//10 10//10
f 5//11 8//11 10//11
f 8//6 4//6 10//6
f 1//12 5//12 11//12
f 5//13 6//13 11//13
f 9//14 1//14 11//14
f 9//15 11//15 12//15
f 2//16 3//16 12//16
f 6//17 2//17 12//17
f 3//18 9//18 12//18
