# Blender v2.79 (sub 0) OBJ File: ''
# www.blender.org
mtllib 102651_link_2_126.mtl
o Shape_IndexedFaceSet.126_Shape_IndexedFaceSet.16528
v 0.015438 0.832727 -0.389889
v 0.006480 0.832497 -0.396780
v 0.006480 0.832727 -0.396780
v 0.009237 0.833646 -0.392187
v 0.015207 0.833646 -0.390808
v 0.012910 0.832497 -0.389660
v 0.006939 0.833646 -0.396319
v 0.006480 0.832497 -0.394711
v 0.013369 0.833646 -0.389430
v 0.015438 0.832497 -0.390579
v 0.006480 0.833646 -0.394711
vn -0.6752 0.0000 0.7376
vn 0.5646 0.0000 -0.8253
vn 0.0000 1.0000 0.0000
vn 0.5492 0.1390 -0.8241
vn -1.0000 0.0000 0.0000
vn 0.0000 -1.0000 0.0000
vn -0.6000 -0.2382 0.7637
vn 0.4347 0.6891 0.5798
vn 0.1090 -0.2368 0.9654
vn -0.5542 0.0551 0.8306
vn 0.9808 0.1849 -0.0617
vn 0.5685 -0.0494 -0.8212
vn 0.1142 -0.9424 0.3142
vn -0.8180 0.5257 -0.2335
usemtl Shape.16537
s off
f 8//1 4//1 11//1
f 2//2 3//2 5//2
f 4//3 5//3 7//3
f 5//4 3//4 7//4
f 3//5 2//5 8//5
f 2//6 6//6 8//6
f 6//7 4//7 8//7
f 1//8 5//8 9//8
f 5//3 4//3 9//3
f 6//9 1//9 9//9
f 4//10 6//10 9//10
f 5//11 1//11 10//11
f 2//12 5//12 10//12
f 6//6 2//6 10//6
f 1//13 6//13 10//13
f 7//14 3//14 11//14
f 4//3 7//3 11//3
f 3//5 8//5 11//5
