# Blender v2.79 (sub 0) OBJ File: ''
# www.blender.org
mtllib 102651_link_1_2.mtl
o Shape_IndexedFaceSet.002
v -0.322452 -0.717808 -0.542913
v -0.329703 0.009162 -0.281256
v -0.308379 -0.098588 -0.521798
v -0.350597 -0.014071 -0.507722
v -0.329488 -0.774128 -0.289643
v -0.294300 -0.766986 -0.507749
v -0.307757 -0.496085 -0.284793
v -0.357633 -0.084452 -0.289643
v -0.336518 -0.731869 -0.479569
v -0.315421 -0.014071 -0.556990
v -0.294300 -0.766986 -0.557016
v -0.308379 -0.774128 -0.289643
v -0.336518 -0.014071 -0.556990
v -0.357633 -0.014071 -0.430301
v -0.336518 -0.724727 -0.289643
v -0.294300 -0.591107 -0.528837
v -0.315421 -0.767060 -0.556990
v -0.314923 -0.276288 -0.283154
v -0.350597 -0.147840 -0.500683
v -0.357633 -0.014071 -0.289643
v -0.329488 -0.774128 -0.500683
v -0.357633 -0.098588 -0.331846
v -0.336518 -0.211153 -0.549951
v -0.336518 -0.654346 -0.500683
v -0.308379 -0.105655 -0.549951
vn 0.9898 0.0226 -0.1409
vn 0.9940 0.1007 0.0430
vn 0.9979 -0.0034 0.0643
vn 0.0000 -0.0174 0.9998
vn 0.4524 -0.8918 0.0000
vn -0.2612 0.9624 -0.0746
vn -0.0000 0.9965 -0.0840
vn 0.0000 0.0000 -1.0000
vn -0.4882 0.8716 -0.0444
vn -0.0837 -0.0106 0.9964
vn -0.0789 -0.0112 0.9968
vn -0.2610 -0.0086 0.9653
vn -0.9900 -0.1409 0.0053
vn 0.9986 0.0279 0.0442
vn 0.9986 0.0063 0.0526
vn 1.0000 0.0000 0.0000
vn -0.0012 -0.0000 -1.0000
vn 0.9965 0.0512 0.0654
vn 0.9982 0.0322 0.0513
vn -0.0421 -0.0088 0.9991
vn -0.9959 -0.0048 -0.0905
vn -0.9984 -0.0259 -0.0506
vn -0.2876 0.0000 0.9578
vn -0.6395 0.7688 0.0000
vn -1.0000 0.0000 0.0000
vn -0.9864 -0.1641 0.0000
vn 0.0000 -1.0000 0.0000
vn 0.1723 -0.9849 -0.0172
vn -0.9660 -0.0665 -0.2497
vn 0.0033 -0.9923 -0.1237
vn -0.9993 -0.0278 -0.0238
vn -0.9994 -0.0330 0.0110
vn -0.9994 -0.0336 0.0013
vn -0.9615 -0.0098 -0.2748
vn -0.9332 -0.0309 -0.3581
vn -0.7866 -0.0220 -0.6171
vn -0.9659 -0.0136 -0.2585
vn -0.9698 -0.0270 -0.2425
vn -0.9945 -0.0276 -0.1015
vn -0.9760 -0.0573 -0.2103
vn -0.9697 -0.0569 -0.2375
vn -0.9612 -0.0305 -0.2743
vn 0.9970 0.0752 -0.0189
vn 0.8439 0.0237 -0.5360
vn 0.9996 0.0287 -0.0072
usemtl Shape.006
s off
f 16//1 11//1 25//1
f 2//2 3//2 10//2
f 6//3 7//3 12//3
f 7//4 5//4 12//4
f 11//5 6//5 12//5
f 4//6 2//6 13//6
f 2//7 10//7 13//7
f 10//8 11//8 13//8
f 2//9 4//9 14//9
f 7//10 2//10 15//10
f 5//11 7//11 15//11
f 2//12 8//12 15//12
f 9//13 5//13 15//13
f 3//14 7//14 16//14
f 7//15 6//15 16//15
f 6//16 11//16 16//16
f 13//17 11//17 17//17
f 3//18 2//18 18//18
f 7//19 3//19 18//19
f 2//20 7//20 18//20
f 14//21 4//21 19//21
f 9//22 14//22 19//22
f 8//23 2//23 20//23
f 2//24 14//24 20//24
f 14//25 8//25 20//25
f 5//26 9//26 21//26
f 12//27 5//27 21//27
f 11//28 12//28 21//28
f 1//29 17//29 21//29
f 17//30 11//30 21//30
f 8//25 14//25 22//25
f 14//31 9//31 22//31
f 15//32 8//32 22//32
f 9//33 15//33 22//33
f 4//34 13//34 23//34
f 17//35 1//35 23//35
f 13//36 17//36 23//36
f 19//37 4//37 23//37
f 19//38 23//38 24//38
f 9//39 19//39 24//39
f 21//40 9//40 24//40
f 1//41 21//41 24//41
f 23//42 1//42 24//42
f 10//43 3//43 25//43
f 11//44 10//44 25//44
f 3//45 16//45 25//45
