# Blender v2.79 (sub 0) OBJ File: ''
# www.blender.org
mtllib 102651_link_2_51.mtl
o Shape_IndexedFaceSet.051_Shape_IndexedFaceSet.16453
v -0.002021 0.831578 -0.343027
v -0.012587 0.832497 -0.347620
v -0.012587 0.833416 -0.347620
v -0.012587 0.832038 -0.343027
v -0.000872 0.833416 -0.345095
v -0.011438 0.831119 -0.346012
v -0.000872 0.832267 -0.345783
v -0.009831 0.833416 -0.344865
v -0.011438 0.831119 -0.343027
v -0.003859 0.832267 -0.343027
v -0.000872 0.833416 -0.346012
v -0.005696 0.831119 -0.343946
v -0.012587 0.831349 -0.346701
v -0.001102 0.831808 -0.345324
v -0.000872 0.832038 -0.343027
v -0.012587 0.833416 -0.346012
v -0.002710 0.833416 -0.344635
vn 0.0607 0.7911 0.6086
vn -1.0000 0.0000 0.0000
vn 0.0000 1.0000 0.0000
vn 0.0000 0.0000 1.0000
vn -0.0214 0.8150 0.5790
vn 0.1360 0.0000 -0.9907
vn 0.1483 -0.1933 -0.9699
vn 1.0000 0.0000 0.0000
vn 0.0466 -0.9556 0.2911
vn 0.0000 -1.0000 0.0000
vn 0.1095 -0.6212 -0.7760
vn -0.6180 -0.7727 0.1449
vn -0.1963 -0.9805 0.0000
vn 0.1349 -0.9898 -0.0451
vn 0.0795 -0.9720 -0.2210
vn 0.1101 -0.7298 -0.6747
vn 0.0890 -0.8906 -0.4460
vn 0.3711 -0.9269 0.0556
vn 0.8768 -0.4792 -0.0398
vn -0.1718 0.8944 0.4129
vn 0.0000 1.0000 -0.0003
vn -0.0185 0.8197 0.5725
vn 0.1375 0.8243 0.5493
usemtl Shape.16462
s off
f 10//1 15//1 17//1
f 3//2 2//2 4//2
f 5//3 3//3 8//3
f 1//4 4//4 9//4
f 4//4 1//4 10//4
f 8//5 4//5 10//5
f 2//6 3//6 11//6
f 3//3 5//3 11//3
f 7//7 2//7 11//7
f 5//8 7//8 11//8
f 1//9 9//9 12//9
f 9//10 6//10 12//10
f 4//2 2//2 13//2
f 2//11 7//11 13//11
f 9//12 4//12 13//12
f 6//13 9//13 13//13
f 1//14 12//14 14//14
f 12//15 6//15 14//15
f 13//16 7//16 14//16
f 6//17 13//17 14//17
f 7//8 5//8 15//8
f 10//4 1//4 15//4
f 1//18 14//18 15//18
f 14//19 7//19 15//19
f 3//2 4//2 16//2
f 8//3 3//3 16//3
f 4//20 8//20 16//20
f 5//21 8//21 17//21
f 8//22 10//22 17//22
f 15//23 5//23 17//23
