# Blender v2.79 (sub 0) OBJ File: ''
# www.blender.org
mtllib 102651_link_2_112.mtl
o Shape_IndexedFaceSet.112_Shape_IndexedFaceSet.16514
v -0.027518 0.831119 -0.388509
v -0.024533 0.832727 -0.382538
v -0.024533 0.832497 -0.382538
v -0.028897 0.832267 -0.380471
v -0.028897 0.832267 -0.388049
v -0.028897 0.831119 -0.380701
v -0.024533 0.831349 -0.388970
v -0.026141 0.831578 -0.380471
v -0.024533 0.832727 -0.386671
v -0.028207 0.832727 -0.380471
v -0.028897 0.831119 -0.388970
v -0.024533 0.831578 -0.382998
v -0.024533 0.832037 -0.388970
v -0.025911 0.832727 -0.380471
vn 0.0000 0.0000 1.0000
vn -1.0000 0.0000 0.0000
vn 1.0000 0.0000 0.0000
vn 0.0790 -0.9968 0.0139
vn -0.0491 -0.1962 0.9793
vn -0.5547 0.8320 0.0000
vn 0.0000 1.0000 0.0000
vn -0.0883 0.9947 -0.0523
vn 0.0000 -1.0000 0.0000
vn 0.0520 -0.9865 -0.1554
vn 0.1243 -0.9915 0.0380
vn 0.1554 -0.9829 0.0989
vn 0.8148 -0.2595 0.5185
vn -0.0102 0.9577 -0.2874
vn -0.1305 0.6204 -0.7734
vn 0.0000 0.0000 -1.0000
vn 0.8321 0.0000 0.5546
vn 0.8125 -0.1626 0.5598
usemtl Shape.16523
s off
f 10//1 8//1 14//1
f 4//2 5//2 6//2
f 2//3 3//3 7//3
f 6//4 1//4 7//4
f 4//5 6//5 8//5
f 2//3 7//3 9//3
f 5//6 4//6 10//6
f 4//1 8//1 10//1
f 2//7 9//7 10//7
f 9//8 5//8 10//8
f 1//9 6//9 11//9
f 6//2 5//2 11//2
f 7//10 1//10 11//10
f 7//3 3//3 12//3
f 6//11 7//11 12//11
f 8//12 6//12 12//12
f 3//13 8//13 12//13
f 5//14 9//14 13//14
f 9//3 7//3 13//3
f 11//15 5//15 13//15
f 7//16 11//16 13//16
f 3//17 2//17 14//17
f 8//18 3//18 14//18
f 2//7 10//7 14//7
