# Blender v2.79 (sub 0) OBJ File: ''
# www.blender.org
mtllib 102651_link_1_10.mtl
o Shape_IndexedFaceSet.010
v 0.268713 -0.591139 -0.247354
v 0.191307 -0.774128 -0.219218
v 0.191307 -0.774128 -0.198107
v 0.311319 -0.003375 -0.254665
v 0.346118 -0.070407 -0.198107
v 0.311141 -0.004985 -0.197957
v 0.346118 -0.070407 -0.254396
v 0.198354 -0.767070 -0.254396
v 0.219463 -0.760011 -0.198107
v 0.191307 -0.745970 -0.240317
v 0.247604 -0.717812 -0.247354
v 0.191307 -0.738912 -0.198107
v 0.344502 -0.015041 -0.198695
v 0.228337 -0.757388 -0.253168
vn 0.8853 -0.4488 0.1213
vn 0.9891 -0.1470 0.0000
vn 0.0055 -0.0012 -1.0000
vn 0.0001 -0.0002 1.0000
vn 0.0032 -0.0006 1.0000
vn -1.0000 0.0000 0.0000
vn -0.9592 -0.1695 -0.2262
vn -0.8051 0.1189 -0.5811
vn 0.9695 -0.1616 0.1845
vn 0.5978 -0.0996 -0.7954
vn 0.9109 -0.1673 0.3772
vn -0.0012 0.0000 1.0000
vn -0.9869 0.1611 0.0015
vn -0.9869 0.1590 -0.0266
vn 0.0255 0.0114 0.9996
vn 0.2891 0.9569 0.0281
vn 0.8157 0.4219 -0.3957
vn 0.9996 0.0292 0.0000
vn 0.4119 -0.9112 0.0000
vn 0.3095 -0.9424 -0.1271
vn 0.0439 -0.0093 -0.9990
vn 0.4480 -0.8935 0.0296
vn 0.4253 -0.0745 -0.9020
usemtl Shape.014
s off
f 11//1 9//1 14//1
f 5//2 1//2 7//2
f 4//3 7//3 8//3
f 6//4 3//4 9//4
f 5//5 6//5 9//5
f 2//6 3//6 10//6
f 8//7 2//7 10//7
f 4//8 8//8 10//8
f 1//9 5//9 11//9
f 7//10 1//10 11//10
f 5//11 9//11 11//11
f 3//12 6//12 12//12
f 6//13 4//13 12//13
f 10//6 3//6 12//6
f 4//14 10//14 12//14
f 6//15 5//15 13//15
f 4//16 6//16 13//16
f 7//17 4//17 13//17
f 5//18 7//18 13//18
f 3//19 2//19 14//19
f 2//20 8//20 14//20
f 8//21 7//21 14//21
f 9//22 3//22 14//22
f 7//23 11//23 14//23
