# Blender v2.79 (sub 0) OBJ File: ''
# www.blender.org
mtllib 102651_link_2_61.mtl
o Shape_IndexedFaceSet.061_Shape_IndexedFaceSet.16463
v 0.017047 0.836172 -0.384145
v 0.021640 0.834335 -0.377484
v 0.021640 0.833646 -0.377484
v 0.015898 0.835942 -0.377484
v 0.017047 0.833646 -0.384145
v 0.019112 0.836861 -0.377484
v 0.020261 0.835024 -0.382307
v 0.019342 0.833646 -0.384145
v 0.019802 0.833646 -0.377484
v 0.015898 0.836172 -0.382996
v 0.017965 0.837091 -0.380241
v 0.015898 0.834335 -0.383685
v 0.021640 0.833646 -0.380241
v 0.015898 0.836402 -0.377484
v 0.020261 0.835712 -0.380241
v 0.018654 0.835483 -0.384145
v 0.017276 0.837091 -0.380241
vn -0.5037 0.8632 -0.0360
vn 0.0000 0.0000 1.0000
vn 0.0000 0.0000 -1.0000
vn 0.0000 -1.0000 0.0000
vn -0.3716 0.0000 -0.9284
vn -0.4947 -0.8412 0.2180
vn -0.4495 -0.8737 0.1859
vn -0.6835 0.2563 -0.6835
vn -1.0000 0.0000 0.0000
vn 1.0000 0.0000 0.0000
vn 0.8574 0.1014 -0.5046
vn 0.7068 0.7074 -0.0002
vn 0.5097 0.8487 -0.1413
vn 0.8239 0.5499 -0.1374
vn 0.8179 0.5459 -0.1818
vn 0.7559 0.2831 -0.5903
vn 0.3765 0.8781 -0.2953
vn 0.4980 0.8292 -0.2537
vn 0.5345 0.8019 -0.2671
vn -0.2121 0.9539 -0.2121
vn 0.0000 0.9965 0.0831
vn 0.0000 0.9734 -0.2291
vn -0.1392 0.9748 0.1740
usemtl Shape.16472
s off
f 10//1 14//1 17//1
f 3//2 2//2 4//2
f 4//2 2//2 6//2
f 5//3 1//3 8//3
f 3//4 5//4 8//4
f 3//2 4//2 9//2
f 5//4 3//4 9//4
f 1//5 5//5 12//5
f 9//6 4//6 12//6
f 5//7 9//7 12//7
f 10//8 1//8 12//8
f 4//9 10//9 12//9
f 2//10 3//10 13//10
f 3//4 8//4 13//4
f 8//11 7//11 13//11
f 4//2 6//2 14//2
f 10//9 4//9 14//9
f 6//12 2//12 15//12
f 11//13 6//13 15//13
f 2//14 13//14 15//14
f 13//15 7//15 15//15
f 8//3 1//3 16//3
f 7//16 8//16 16//16
f 1//17 11//17 16//17
f 11//18 15//18 16//18
f 15//19 7//19 16//19
f 1//20 10//20 17//20
f 6//21 11//21 17//21
f 11//22 1//22 17//22
f 14//23 6//23 17//23
