# Blender v2.79 (sub 0) OBJ File: ''
# www.blender.org
mtllib 102667_link_0_0.mtl
o Shape_IndexedFaceSet_Shape_IndexedFaceSet.14826
v -0.410618 0.514819 -0.313743
v -0.361055 0.519901 -0.250619
v -0.361055 0.497453 -0.250619
v -0.391128 0.519901 -0.250619
v -0.393672 0.520749 -0.326455
v -0.383932 0.496604 -0.284936
v -0.389858 0.511005 -0.250619
v -0.389858 0.507195 -0.317975
v -0.409770 0.521173 -0.291288
v -0.407652 0.512700 -0.283674
v -0.362325 0.521596 -0.250619
v -0.370373 0.497030 -0.251052
v -0.409343 0.521596 -0.314594
v -0.377153 0.498723 -0.289168
v -0.407226 0.513972 -0.320521
v -0.389010 0.521596 -0.250619
v -0.411887 0.513549 -0.303993
v -0.396211 0.521596 -0.325604
v -0.361477 0.519901 -0.252739
v -0.390706 0.504653 -0.313317
v -0.392824 0.517358 -0.325604
v -0.378422 0.497030 -0.289586
v -0.408500 0.520326 -0.321372
v -0.395363 0.515663 -0.326881
v -0.412314 0.520326 -0.301881
v -0.408500 0.520749 -0.285369
v -0.386471 0.497876 -0.287899
v -0.362746 0.496604 -0.250619
v -0.364016 0.498723 -0.258674
v -0.389432 0.499993 -0.284936
v -0.393245 0.506772 -0.317975
v -0.403838 0.521596 -0.277321
v -0.406804 0.511854 -0.284099
v -0.390706 0.511851 -0.250619
v -0.408500 0.513549 -0.284943
v -0.367829 0.521596 -0.265878
v -0.409343 0.516512 -0.320946
v -0.410618 0.512700 -0.299761
v -0.369099 0.496604 -0.250619
v -0.406383 0.513123 -0.318826
v -0.379692 0.496604 -0.287907
v -0.406383 0.515665 -0.280285
v -0.412314 0.520326 -0.304844
v -0.397486 0.519901 -0.326448
v -0.393245 0.521596 -0.323910
v -0.412314 0.514819 -0.301455
v -0.409343 0.511854 -0.302724
v -0.391976 0.520749 -0.323059
v -0.397059 0.514816 -0.326022
v -0.376305 0.497030 -0.286212
v -0.408500 0.518207 -0.284517
v -0.383932 0.497030 -0.288325
v -0.410191 0.519901 -0.317550
v -0.361055 0.498300 -0.251470
v -0.412314 0.515242 -0.305270
v -0.407226 0.516089 -0.322215
v -0.389432 0.505502 -0.315430
v -0.370373 0.516089 -0.273499
v -0.389010 0.508042 -0.316706
v -0.365290 0.496604 -0.259100
v -0.392824 0.519477 -0.325604
v -0.391549 0.520749 -0.251896
v -0.394093 0.515665 -0.326881
v -0.409343 0.521173 -0.318401
vn -0.8675 0.4708 -0.1607
vn 0.0000 0.0000 1.0000
vn 0.0000 1.0000 0.0000
vn -0.5584 -0.8102 -0.1782
vn 0.7903 0.5922 -0.1573
vn -0.3548 0.9349 0.0105
vn -0.9623 0.1624 0.2181
vn -0.5123 -0.8314 0.2154
vn -0.5227 -0.8484 0.0838
vn -0.1087 0.9939 0.0161
vn -0.4310 0.8887 0.1561
vn -0.6014 -0.7462 0.2855
vn -0.5585 -0.7868 0.2627
vn -0.5406 -0.8083 0.2334
vn 0.0001 0.0000 1.0000
vn -0.6679 -0.6695 0.3252
vn -0.8721 -0.2108 0.4416
vn 0.7009 0.6669 -0.2528
vn -0.7147 -0.6421 -0.2774
vn -0.5424 -0.8382 0.0567
vn -0.6692 -0.7328 0.1234
vn -0.5585 -0.8244 0.0915
vn -0.8014 -0.5796 0.1477
vn -0.3605 -0.9197 0.1558
vn -0.4303 -0.6203 0.6558
vn 0.0000 -1.0000 0.0000
vn -0.5134 -0.8419 -0.1663
vn -0.4226 -0.8908 -0.1671
vn -0.4191 -0.8906 -0.1767
vn -0.4103 -0.8806 -0.2370
vn -0.0508 -0.9582 -0.2815
vn -0.8856 -0.0464 0.4620
vn -0.8844 -0.1123 0.4530
vn -0.3930 0.9195 0.0000
vn -0.1151 0.5108 -0.8520
vn -0.3149 0.6021 -0.7337
vn -0.0220 0.0907 -0.9956
vn 0.1936 0.9207 -0.3389
vn -0.8238 -0.5501 0.1367
vn -0.8268 -0.5424 0.1493
vn -1.0000 0.0000 0.0000
vn -0.5542 -0.8324 -0.0008
vn -0.5285 -0.8488 0.0150
vn -0.4918 -0.8563 -0.1579
vn -0.4424 -0.8840 -0.1510
vn 0.8560 0.3640 -0.3669
vn 0.6678 0.6654 -0.3335
vn 0.6578 0.6960 -0.2880
vn -0.2704 -0.7419 -0.6135
vn -0.0039 -0.7082 -0.7060
vn 0.7736 -0.4281 -0.4671
vn 0.7480 -0.4692 -0.4694
vn 0.8949 -0.2249 -0.3855
vn 0.1792 -0.9774 -0.1124
vn -0.8830 0.1492 0.4450
vn -0.9720 0.0746 0.2226
vn -0.8902 0.0168 0.4554
vn -0.9029 -0.0392 0.4281
vn -0.9761 0.0167 0.2165
vn -0.9745 -0.0204 0.2235
vn -0.3316 -0.9360 -0.1177
vn -0.3388 -0.9216 -0.1893
vn -0.0871 -0.9884 -0.1243
vn -0.0694 -0.9593 -0.2738
vn -0.9094 0.1580 -0.3848
vn 1.0000 0.0000 0.0000
vn 0.9807 0.0077 -0.1952
vn 0.9248 -0.0043 -0.3804
vn 0.8574 -0.3647 -0.3630
vn 0.8876 -0.2602 -0.3801
vn -0.9192 -0.3571 -0.1661
vn -0.9782 -0.0795 -0.1918
vn -0.9637 -0.2652 -0.0294
vn -0.9802 -0.0547 -0.1902
vn -0.9862 0.0138 -0.1652
vn -0.5100 -0.5374 -0.6716
vn -0.5115 0.0171 -0.8591
vn -0.4161 0.0554 -0.9076
vn -0.3673 -0.0894 -0.9258
vn -0.3475 -0.5858 -0.7321
vn -0.3651 -0.1925 -0.9108
vn 0.6991 -0.5359 -0.4735
vn 0.0675 -0.9392 -0.3367
vn 0.1024 -0.8202 -0.5628
vn -0.0425 -0.9179 -0.3945
vn 0.9184 -0.0015 -0.3957
vn 0.9184 -0.0016 -0.3957
vn 0.9192 0.0002 -0.3939
vn 0.8716 -0.2059 -0.4449
vn 0.8606 -0.1203 -0.4948
vn 0.9182 -0.0025 -0.3962
vn 0.4447 -0.8857 -0.1334
vn 0.7410 -0.5955 -0.3104
vn 0.1649 -0.9829 -0.0824
vn 0.8575 0.2851 -0.4283
vn 0.9037 0.1774 -0.3898
vn 0.9184 0.0000 -0.3957
vn 0.9186 0.0087 -0.3952
vn -0.5060 0.6323 0.5867
vn -0.8680 0.2310 0.4396
vn -0.4091 0.8838 0.2272
vn -0.7590 0.5255 0.3844
vn 0.8083 -0.1840 -0.5593
vn -0.0001 0.0835 -0.9965
vn 0.0875 -0.7007 -0.7080
vn 0.0011 -0.7076 -0.7067
vn 0.7087 0.0004 -0.7055
vn 0.7093 0.0000 -0.7049
vn -0.0922 0.9896 -0.1100
vn -0.2064 0.9240 -0.3219
vn -0.6186 0.7809 -0.0868
vn -0.8708 0.3487 -0.3465
usemtl Shape.14834
s off
f 53//1 43//1 64//1
f 3//2 2//2 4//2
f 3//2 4//2 7//2
f 4//2 2//2 11//2
f 4//2 11//2 16//2
f 11//3 13//3 16//3
f 1//4 15//4 17//4
f 13//3 11//3 18//3
f 11//5 2//5 19//5
f 9//6 13//6 25//6
f 9//7 25//7 26//7
f 3//2 7//2 28//2
f 6//8 12//8 30//8
f 27//9 6//9 30//9
f 13//10 9//10 32//10
f 16//3 13//3 32//3
f 9//11 26//11 32//11
f 7//12 10//12 33//12
f 12//13 7//13 33//13
f 30//14 12//14 33//14
f 7//15 4//15 34//15
f 10//16 7//16 34//16
f 10//17 34//17 35//17
f 18//3 11//3 36//3
f 11//18 19//18 36//18
f 15//19 1//19 37//19
f 27//20 30//20 38//20
f 33//21 10//21 38//21
f 30//22 33//22 38//22
f 10//23 35//23 38//23
f 12//24 6//24 39//24
f 7//25 12//25 39//25
f 28//2 7//2 39//2
f 6//26 28//26 39//26
f 17//27 15//27 40//27
f 20//28 27//28 40//28
f 31//29 20//29 40//29
f 15//30 31//30 40//30
f 20//31 22//31 41//31
f 28//26 6//26 41//26
f 34//32 4//32 42//32
f 35//33 34//33 42//33
f 25//34 13//34 43//34
f 18//35 5//35 44//35
f 23//36 18//36 44//36
f 5//37 24//37 44//37
f 5//38 18//38 45//38
f 18//3 36//3 45//3
f 17//39 38//39 46//39
f 38//40 35//40 46//40
f 25//41 43//41 46//41
f 38//42 17//42 47//42
f 27//43 38//43 47//43
f 17//44 40//44 47//44
f 40//45 27//45 47//45
f 36//46 19//46 48//46
f 5//47 45//47 48//47
f 45//48 36//48 48//48
f 31//49 15//49 49//49
f 24//50 31//50 49//50
f 8//51 14//51 50//51
f 22//52 8//52 50//52
f 14//53 29//53 50//53
f 41//54 22//54 50//54
f 4//55 26//55 51//55
f 26//56 25//56 51//56
f 42//57 4//57 51//57
f 35//58 42//58 51//58
f 25//59 46//59 51//59
f 46//60 35//60 51//60
f 6//61 27//61 52//61
f 27//62 20//62 52//62
f 41//63 6//63 52//63
f 20//64 41//64 52//64
f 23//65 37//65 53//65
f 2//66 3//66 54//66
f 19//67 2//67 54//67
f 29//68 19//68 54//68
f 3//69 50//69 54//69
f 50//70 29//70 54//70
f 1//71 17//71 55//71
f 37//72 1//72 55//72
f 17//73 46//73 55//73
f 46//41 43//41 55//41
f 53//74 37//74 55//74
f 43//75 53//75 55//75
f 15//76 37//76 56//76
f 37//77 23//77 56//77
f 23//78 44//78 56//78
f 44//79 24//79 56//79
f 49//80 15//80 56//80
f 24//81 49//81 56//81
f 8//82 22//82 57//82
f 22//83 20//83 57//83
f 31//84 8//84 57//84
f 20//85 31//85 57//85
f 14//86 21//86 58//86
f 29//87 14//87 58//87
f 19//88 29//88 58//88
f 14//89 8//89 59//89
f 8//90 21//90 59//90
f 21//91 14//91 59//91
f 3//92 28//92 60//92
f 28//26 41//26 60//26
f 50//93 3//93 60//93
f 41//94 50//94 60//94
f 5//95 48//95 61//95
f 48//96 19//96 61//96
f 58//97 21//97 61//97
f 19//98 58//98 61//98
f 4//99 16//99 62//99
f 26//100 4//100 62//100
f 16//101 32//101 62//101
f 32//102 26//102 62//102
f 21//103 8//103 63//103
f 24//104 5//104 63//104
f 8//105 31//105 63//105
f 31//106 24//106 63//106
f 5//107 61//107 63//107
f 61//108 21//108 63//108
f 13//109 18//109 64//109
f 18//110 23//110 64//110
f 43//111 13//111 64//111
f 23//112 53//112 64//112
