# Blender v2.79 (sub 0) OBJ File: ''
# www.blender.org
mtllib 102707_link_4_101.mtl
o Shape_IndexedFaceSet.101_Shape_IndexedFaceSet.9148
v 0.211146 0.645332 -0.210385
v 0.295203 0.664970 -0.210988
v 0.289021 0.584403 -0.211504
v 0.276325 0.664875 -0.229946
v 0.067761 0.462780 -0.216906
v 0.276207 0.469869 -0.229281
v 0.269823 0.469335 -0.210385
v 0.064707 0.466791 -0.210130
v 0.204621 0.462780 -0.229946
v 0.302447 0.671411 -0.229946
vn 0.0097 -0.0046 -0.9999
vn -0.3578 0.3125 -0.8800
vn 0.0067 0.0022 1.0000
vn 0.1762 -0.0198 0.9842
vn 0.9375 -0.1534 0.3124
vn -0.6268 0.5132 -0.5863
vn 0.0012 0.0004 1.0000
vn 0.0113 -0.8582 0.5131
vn -0.0948 0.0336 -0.9949
vn 0.0235 -0.9689 0.2464
vn 0.0985 -0.9951 0.0052
vn -0.2194 0.9463 0.2377
vn 0.9397 -0.0742 0.3338
vn -0.2397 0.9579 0.1584
vn 0.9852 -0.1279 0.1138
vn 0.0000 0.0000 -1.0000
usemtl Shape.9155
s off
f 6//1 9//1 10//1
f 1//2 4//2 5//2
f 2//3 1//3 7//3
f 3//4 2//4 7//4
f 6//5 3//5 7//5
f 1//6 5//6 8//6
f 7//7 1//7 8//7
f 5//8 7//8 8//8
f 5//9 4//9 9//9
f 7//10 5//10 9//10
f 6//11 7//11 9//11
f 1//12 2//12 10//12
f 2//13 3//13 10//13
f 4//14 1//14 10//14
f 3//15 6//15 10//15
f 9//16 4//16 10//16
