# Blender v2.79 (sub 0) OBJ File: ''
# www.blender.org
mtllib 102707_link_1_20.mtl
o Shape_IndexedFaceSet.020_Shape_IndexedFaceSet.4477
v -0.403791 0.718331 -0.306286
v -0.341565 0.725802 -0.204239
v -0.344057 0.725802 -0.204239
v -0.341565 0.653599 -0.224167
v -0.391343 0.656094 -0.358561
v -0.403791 0.725802 -0.358561
v -0.406284 0.653599 -0.353587
v -0.341565 0.656094 -0.251555
v -0.371439 0.663571 -0.259016
v -0.341565 0.725802 -0.224167
v -0.418732 0.725802 -0.361064
v -0.378910 0.725802 -0.251555
v -0.393836 0.653599 -0.311261
v -0.358991 0.715829 -0.221680
v -0.383880 0.713349 -0.261504
v -0.418732 0.713349 -0.356074
v -0.393836 0.653599 -0.361064
v -0.344057 0.653599 -0.224167
v -0.408769 0.658588 -0.361064
v -0.396328 0.678505 -0.303799
v -0.344057 0.713349 -0.204239
v -0.403791 0.725802 -0.306286
v -0.386365 0.653599 -0.293836
v -0.341565 0.653599 -0.251555
vn 0.0000 -1.0000 0.0000
vn 0.0000 1.0000 0.0000
vn 1.0000 0.0000 0.0000
vn 0.8950 0.1598 -0.4164
vn 0.8953 0.1629 -0.4145
vn -0.7940 0.1661 0.5848
vn -0.8422 -0.0888 0.5319
vn -0.8289 -0.1807 0.5293
vn -0.9428 -0.1849 0.2773
vn 0.6441 0.1150 -0.7562
vn 0.1650 0.0569 -0.9847
vn -0.7969 -0.2138 0.5650
vn -0.9290 -0.1377 -0.3436
vn -0.9624 -0.1925 0.1914
vn -0.2803 -0.8389 -0.4666
vn 0.0000 0.0000 -1.0000
vn -0.9099 -0.1463 0.3883
vn -0.9413 -0.1578 0.2983
vn -0.9419 -0.1794 0.2841
vn 0.0000 0.0000 1.0000
vn 0.7992 -0.1599 0.5794
vn -0.7596 0.0000 0.6504
vn 0.0000 -0.3164 0.9486
vn -0.7575 -0.2065 0.6193
vn -0.9099 0.0327 0.4136
vn -0.9138 0.0000 0.4063
vn -0.9578 0.0000 0.2874
vn -0.9594 0.1049 0.2617
vn -0.8791 -0.1980 0.4336
vn -0.7543 -0.4704 0.4580
vn -0.8995 -0.2055 0.3856
vn -0.8890 -0.1888 0.4172
vn 0.9067 0.0000 -0.4218
vn 0.8169 -0.4251 -0.3899
usemtl Shape.4482
s off
f 4//1 17//1 24//1
f 3//2 2//2 6//2
f 2//3 4//3 8//3
f 5//4 6//4 8//4
f 6//2 2//2 10//2
f 2//3 8//3 10//3
f 8//5 6//5 10//5
f 3//2 6//2 11//2
f 3//2 11//2 12//2
f 7//1 4//1 13//1
f 3//6 12//6 14//6
f 14//7 12//7 15//7
f 9//8 14//8 15//8
f 7//9 13//9 16//9
f 6//10 5//10 17//10
f 4//1 7//1 17//1
f 11//11 6//11 17//11
f 13//1 4//1 18//1
f 14//12 9//12 18//12
f 16//13 11//13 19//13
f 7//14 16//14 19//14
f 17//15 7//15 19//15
f 11//16 17//16 19//16
f 15//17 1//17 20//17
f 1//18 16//18 20//18
f 16//19 13//19 20//19
f 2//20 3//20 21//20
f 4//21 2//21 21//21
f 3//22 14//22 21//22
f 18//23 4//23 21//23
f 14//24 18//24 21//24
f 12//2 11//2 22//2
f 15//25 12//25 22//25
f 1//26 15//26 22//26
f 16//27 1//27 22//27
f 11//28 16//28 22//28
f 9//29 15//29 23//29
f 13//1 18//1 23//1
f 18//30 9//30 23//30
f 20//31 13//31 23//31
f 15//32 20//32 23//32
f 8//3 4//3 24//3
f 5//33 8//33 24//33
f 17//34 5//34 24//34
