# Blender v2.79 (sub 0) OBJ File: ''
# www.blender.org
mtllib 102707_link_4_14.mtl
o Shape_IndexedFaceSet.014_Shape_IndexedFaceSet.9061
v -0.043133 -0.045817 -0.164742
v -0.101805 -0.110992 -0.269058
v -0.056178 -0.110992 -0.269058
v -0.069215 -0.013225 -0.269058
v -0.082246 -0.013225 -0.164742
v -0.075730 -0.110992 -0.164742
v -0.108335 -0.013225 -0.242968
v -0.036611 -0.110992 -0.203871
v -0.049655 -0.013225 -0.236454
v -0.036611 -0.110992 -0.164742
vn 0.0000 -1.0000 0.0000
vn 0.0000 0.0000 -1.0000
vn 0.0000 0.0000 1.0000
vn -0.5456 0.1819 -0.8181
vn -0.0000 1.0000 0.0000
vn -0.9621 -0.1284 0.2405
vn -0.9467 -0.0631 0.3157
vn 0.8520 0.1136 -0.5111
vn 0.6147 0.7377 0.2794
vn 0.9573 0.0320 -0.2873
vn 0.9921 0.1206 -0.0354
vn 0.9950 0.0996 0.0000
usemtl Shape.9068
s off
f 6//1 8//1 10//1
f 3//2 2//2 4//2
f 2//1 3//1 6//1
f 1//3 5//3 6//3
f 4//4 2//4 7//4
f 5//5 4//5 7//5
f 2//6 6//6 7//6
f 6//7 5//7 7//7
f 6//1 3//1 8//1
f 3//8 4//8 9//8
f 5//9 1//9 9//9
f 4//5 5//5 9//5
f 8//10 3//10 9//10
f 1//11 8//11 9//11
f 1//3 6//3 10//3
f 8//12 1//12 10//12
