# Blender v2.79 (sub 0) OBJ File: ''
# www.blender.org
mtllib 102707_link_4_115.mtl
o Shape_IndexedFaceSet.115_Shape_IndexedFaceSet.9162
v 0.022072 -0.254447 -0.066937
v -0.017040 -0.169705 0.037389
v -0.030080 -0.143629 0.011297
v -0.036611 -0.254447 -0.027815
v -0.039702 -0.145346 -0.072433
v 0.022072 -0.254447 0.037389
v 0.022072 -0.189268 -0.066937
v -0.036611 -0.228360 0.037389
v -0.036611 -0.254447 -0.066937
v 0.002507 -0.176230 0.030853
vn 0.9548 0.2520 0.1574
vn 0.0000 -1.0000 0.0000
vn 0.0886 0.0000 -0.9961
vn 0.5824 0.8086 -0.0835
vn 1.0000 0.0000 0.0000
vn -0.7442 0.2483 0.6201
vn -0.9997 -0.0243 0.0097
vn -0.9876 0.1104 0.1112
vn -0.0000 0.0000 1.0000
vn -0.3815 -0.8582 0.3434
vn 0.0000 -0.0503 -0.9987
vn -0.9996 -0.0283 0.0000
vn 0.4223 0.7379 0.5264
vn 0.3624 0.1673 0.9169
vn 0.6936 0.7191 0.0429
usemtl Shape.9169
s off
f 6//1 7//1 10//1
f 4//2 1//2 6//2
f 1//3 5//3 7//3
f 5//4 3//4 7//4
f 6//5 1//5 7//5
f 2//6 3//6 8//6
f 5//7 4//7 8//7
f 3//8 5//8 8//8
f 6//9 2//9 8//9
f 4//10 6//10 8//10
f 1//2 4//2 9//2
f 5//11 1//11 9//11
f 4//12 5//12 9//12
f 3//13 2//13 10//13
f 2//14 6//14 10//14
f 7//15 3//15 10//15
