# Blender v2.79 (sub 0) OBJ File: ''
# www.blender.org
mtllib 102707_link_4_12.mtl
o Shape_IndexedFaceSet.012_Shape_IndexedFaceSet.9059
v 0.139449 -0.600031 -0.418990
v 0.217672 -0.580482 -0.164771
v 0.216651 -0.606133 -0.167473
v 0.106837 -0.593513 -0.164771
v 0.106837 -0.560915 -0.412471
v 0.109847 -0.562155 -0.172737
v 0.106837 -0.606553 -0.373361
v 0.191591 -0.560915 -0.164771
v 0.159010 -0.573960 -0.360324
v 0.191591 -0.606553 -0.288650
v 0.113368 -0.606553 -0.458129
v 0.172029 -0.606553 -0.164771
vn 0.0000 -1.0000 0.0000
vn -0.9950 0.0988 0.0130
vn -1.0000 0.0000 -0.0000
vn 0.0000 0.0000 1.0000
vn -0.0157 0.9999 0.0054
vn -0.0976 0.2538 0.9623
vn 0.6324 0.6074 -0.4808
vn 0.5932 0.7907 -0.1516
vn 0.3526 0.9280 -0.1207
vn 0.9791 -0.0176 -0.2024
vn 0.9234 0.1244 -0.3632
vn 0.9063 0.3325 -0.2608
vn 0.6166 0.5992 -0.5107
vn -0.9949 -0.0657 -0.0767
vn 0.6059 -0.7448 -0.2797
vn 0.0611 -0.1070 0.9924
vn -0.1958 -0.9787 0.0612
vn 0.0095 -1.0000 0.0015
usemtl Shape.9066
s off
f 7//1 10//1 12//1
f 5//2 4//2 6//2
f 4//3 5//3 7//3
f 4//4 2//4 8//4
f 5//5 6//5 8//5
f 6//6 4//6 8//6
f 1//7 5//7 9//7
f 8//8 2//8 9//8
f 5//9 8//9 9//9
f 2//10 3//10 10//10
f 1//11 9//11 10//11
f 9//12 2//12 10//12
f 5//13 1//13 11//13
f 7//14 5//14 11//14
f 1//15 10//15 11//15
f 10//1 7//1 11//1
f 3//16 2//16 12//16
f 2//4 4//4 12//4
f 4//17 7//17 12//17
f 10//18 3//18 12//18
