# Blender v2.79 (sub 0) OBJ File: ''
# www.blender.org
mtllib 102707_link_4_93.mtl
o Shape_IndexedFaceSet.093_Shape_IndexedFaceSet.9140
v -0.111987 0.131533 -0.197264
v 0.145959 0.234567 -0.190824
v 0.145959 0.214993 -0.190824
v -0.140936 0.234567 -0.190824
v 0.141758 0.233040 -0.197248
v 0.119870 0.130262 -0.190824
v -0.134915 0.232378 -0.197206
v -0.114847 0.130262 -0.190824
v 0.114057 0.132845 -0.197182
vn 0.0055 -0.9247 -0.3807
vn 0.0000 0.0000 1.0000
vn 0.8369 0.0000 -0.5473
vn 0.0000 0.9729 -0.2313
vn -0.7452 -0.1691 -0.6451
vn -0.0002 0.0005 -1.0000
vn -0.0023 0.9452 -0.3264
vn -0.8750 -0.2189 -0.4318
vn 0.0000 -0.9811 -0.1936
vn 0.0004 -0.0008 -1.0000
vn 0.5651 -0.1568 -0.8100
vn 0.6781 -0.2088 -0.7047
usemtl Shape.9147
s off
f 6//1 1//1 9//1
f 3//2 2//2 4//2
f 2//3 3//3 5//3
f 4//4 2//4 5//4
f 3//2 4//2 6//2
f 1//5 4//5 7//5
f 5//6 1//6 7//6
f 4//7 5//7 7//7
f 4//8 1//8 8//8
f 6//2 4//2 8//2
f 1//9 6//9 8//9
f 1//10 5//10 9//10
f 5//11 3//11 9//11
f 3//12 6//12 9//12
