# Blender v2.79 (sub 0) OBJ File: ''
# www.blender.org
mtllib 102707_link_1_2.mtl
o Shape_IndexedFaceSet.002_Shape_IndexedFaceSet.4459
v -0.417610 0.725855 -0.360620
v -0.415189 0.725970 -0.352374
v 0.002030 0.728294 -0.361048
v -0.401276 0.745720 -0.361048
v 0.002030 0.740738 -0.201734
v -0.334822 0.724882 -0.197122
v 0.002030 0.740738 -0.361048
v 0.002030 0.728294 -0.201734
v -0.321620 0.745720 -0.201734
v -0.419114 0.725021 -0.367294
v -0.381383 0.738249 -0.261498
v -0.284304 0.745720 -0.204245
v -0.396293 0.743230 -0.308770
v -0.381266 0.725949 -0.261792
v -0.349010 0.743230 -0.219186
v -0.418740 0.733273 -0.356073
v -0.386325 0.745720 -0.361048
v -0.341513 0.735761 -0.201734
v -0.366432 0.745720 -0.259018
v -0.403789 0.730781 -0.306290
v -0.358977 0.725802 -0.221666
v -0.411244 0.743230 -0.361048
v -0.401276 0.738249 -0.306290
vn -0.6472 0.7396 0.1851
vn 1.0000 0.0000 0.0000
vn 0.0101 -0.9999 0.0000
vn 0.0137 0.0000 0.9999
vn 0.0033 0.2141 0.9768
vn -0.8250 -0.5072 0.2493
vn 0.0078 -1.0000 -0.0047
vn 0.0148 0.0000 -0.9999
vn 0.0174 0.9998 0.0000
vn 0.0000 1.0000 0.0000
vn 0.0150 0.9747 0.2229
vn -0.4887 -0.8531 0.1829
vn -0.0702 -0.9970 0.0339
vn -0.9249 -0.2909 0.2448
vn 0.0000 0.2889 -0.9574
vn 0.0036 0.2836 -0.9589
vn 0.0128 0.9999 -0.0083
vn -0.1526 0.3047 0.9401
vn -0.3881 0.7752 0.4985
vn -0.7336 0.4511 0.5082
vn -0.1896 0.9797 0.0647
vn -0.4654 0.8529 0.2367
vn -0.1766 0.9745 0.1382
vn -0.4658 0.8469 0.2567
vn -0.8601 -0.4396 0.2586
vn -0.6182 -0.7512 0.2314
vn -0.8929 -0.0193 0.4499
vn -0.9178 -0.2996 0.2606
vn -0.0786 -0.9961 0.0400
vn -0.8740 -0.0199 0.4854
vn -0.7081 -0.1423 0.6916
vn -0.7867 0.3038 0.5375
vn -0.0893 0.3575 -0.9296
vn -0.2418 0.9679 0.0691
vn -0.8272 0.4655 -0.3147
vn -0.7352 0.6499 0.1929
vn -0.6098 0.7449 0.2708
vn -0.8735 0.2940 0.3880
vn -0.9077 0.3054 0.2879
usemtl Shape.4464
s off
f 13//1 22//1 23//1
f 5//2 3//2 7//2
f 3//2 5//2 8//2
f 6//3 3//3 8//3
f 5//4 6//4 8//4
f 6//5 5//5 9//5
f 2//6 1//6 10//6
f 3//7 6//7 10//7
f 7//8 3//8 10//8
f 5//9 7//9 12//9
f 4//10 9//10 12//10
f 9//11 5//11 12//11
f 2//12 10//12 14//12
f 10//13 6//13 14//13
f 10//14 1//14 16//14
f 10//15 4//15 17//15
f 7//16 10//16 17//16
f 4//10 12//10 17//10
f 12//17 7//17 17//17
f 6//18 9//18 18//18
f 9//19 15//19 18//19
f 15//20 11//20 18//20
f 9//10 4//10 19//10
f 4//21 13//21 19//21
f 13//22 11//22 19//22
f 15//23 9//23 19//23
f 11//24 15//24 19//24
f 1//25 2//25 20//25
f 2//26 14//26 20//26
f 14//27 11//27 20//27
f 16//28 1//28 20//28
f 14//29 6//29 21//29
f 11//30 14//30 21//30
f 6//31 18//31 21//31
f 18//32 11//32 21//32
f 4//33 10//33 22//33
f 13//34 4//34 22//34
f 10//35 16//35 22//35
f 22//36 16//36 23//36
f 11//37 13//37 23//37
f 20//38 11//38 23//38
f 16//39 20//39 23//39
