# Blender v2.79 (sub 0) OBJ File: ''
# www.blender.org
mtllib 102707_link_2_16.mtl
o Shape_IndexedFaceSet.016_Shape_IndexedFaceSet.1384
v -0.185192 0.130241 -0.038490
v -0.168124 0.132681 -0.009242
v -0.177877 0.132681 0.005396
v -0.190061 0.125366 0.017593
v -0.206129 0.132967 -0.024818
v -0.190061 0.125366 -0.040937
v -0.206364 0.125033 -0.027631
v -0.197376 0.132681 0.015147
v -0.203707 0.132482 -0.039351
v -0.199814 0.125366 0.015147
v -0.168124 0.130241 -0.011672
vn 0.2169 -0.9762 0.0000
vn 0.7556 -0.4191 0.5034
vn 0.0059 1.0000 0.0039
vn 0.0204 -0.9998 0.0000
vn 0.3584 0.5981 0.7168
vn 0.0032 1.0000 0.0064
vn 0.1258 0.9798 -0.1552
vn 0.0198 0.9994 -0.0300
vn 0.0883 0.3750 -0.9228
vn -0.9821 0.0882 -0.1666
vn -0.4353 -0.7119 -0.5511
vn -0.9882 -0.0244 0.1515
vn -0.0020 -1.0000 0.0081
vn -0.2425 0.0808 0.9668
vn -0.9284 0.3094 0.2056
vn 0.7440 0.4715 -0.4735
vn 0.7406 -0.4742 0.4761
vn 0.7320 -0.4972 -0.4658
usemtl Shape.1402
s off
f 4//1 6//1 11//1
f 2//2 3//2 4//2
f 3//3 2//3 5//3
f 6//4 4//4 7//4
f 4//5 3//5 8//5
f 3//6 5//6 8//6
f 2//7 1//7 9//7
f 5//8 2//8 9//8
f 1//9 6//9 9//9
f 7//10 5//10 9//10
f 6//11 7//11 9//11
f 5//12 7//12 10//12
f 7//13 4//13 10//13
f 4//14 8//14 10//14
f 8//15 5//15 10//15
f 1//16 2//16 11//16
f 2//17 4//17 11//17
f 6//18 1//18 11//18
