# Blender v2.79 (sub 0) OBJ File: ''
# www.blender.org
mtllib 102707_link_2_24.mtl
o Shape_IndexedFaceSet.024_Shape_IndexedFaceSet.1392
v -0.221790 0.149748 0.068847
v -0.221790 0.149748 0.063953
v -0.302229 0.149748 0.310194
v -0.304676 0.132681 0.310194
v -0.246167 0.132681 0.063953
v -0.268117 0.149748 0.305324
v -0.248603 0.149748 0.063953
v -0.319306 0.139999 0.244361
v -0.280289 0.135122 0.090783
v -0.329074 0.132681 0.310194
v -0.297356 0.149748 0.244361
v -0.294919 0.139999 0.141984
v -0.275427 0.144873 0.310194
v -0.268117 0.132681 0.063953
v -0.229100 0.142433 0.068847
v -0.326616 0.139999 0.305324
v -0.246167 0.132681 0.071281
v -0.324179 0.132681 0.249254
v -0.307113 0.135122 0.168813
v -0.290046 0.144873 0.161485
v -0.270553 0.139999 0.076151
vn -0.8170 0.4077 -0.4078
vn 0.0000 1.0000 0.0000
vn 0.0000 0.0000 -1.0000
vn 0.0000 0.0000 1.0000
vn 0.0000 -1.0000 0.0000
vn 0.1116 0.6136 0.7817
vn 0.7073 -0.7069 0.0000
vn 0.5383 -0.7688 -0.3452
vn 0.7007 -0.7002 0.1373
vn 0.6065 -0.7853 0.1244
vn -0.3799 0.5975 0.7061
vn -0.3664 0.9301 -0.0271
vn -0.4054 0.9128 -0.0486
vn 0.3831 -0.9190 0.0938
vn 0.4961 -0.8683 0.0000
vn 0.5046 -0.8568 0.1055
vn -0.9595 0.2710 -0.0771
vn -0.8583 0.5027 -0.1029
vn -0.6360 0.7567 -0.1515
vn -0.8194 0.4992 -0.2817
vn -0.6229 -0.7524 -0.2141
vn -0.8689 0.4648 -0.1702
vn -0.3168 -0.9436 -0.0958
vn -0.3064 0.9483 -0.0828
vn -0.4043 0.9103 -0.0892
vn -0.4531 0.8849 -0.1079
vn -0.4029 0.9065 -0.1259
vn -0.4803 0.8589 -0.1778
vn -0.7214 0.6390 -0.2670
vn -0.5687 0.6503 -0.5037
usemtl Shape.1410
s off
f 14//1 9//1 21//1
f 1//2 2//2 3//2
f 1//2 3//2 6//2
f 3//2 2//2 7//2
f 2//3 5//3 7//3
f 4//4 3//4 10//4
f 5//5 4//5 10//5
f 3//2 7//2 11//2
f 3//4 4//4 13//4
f 6//6 3//6 13//6
f 7//3 5//3 14//3
f 5//5 10//5 14//5
f 2//7 1//7 15//7
f 5//8 2//8 15//8
f 1//9 6//9 15//9
f 6//10 13//10 15//10
f 10//11 3//11 16//11
f 3//12 11//12 16//12
f 11//13 8//13 16//13
f 4//5 5//5 17//5
f 13//14 4//14 17//14
f 5//15 15//15 17//15
f 15//16 13//16 17//16
f 14//5 10//5 18//5
f 10//17 16//17 18//17
f 16//18 8//18 18//18
f 8//19 12//19 19//19
f 12//20 9//20 19//20
f 9//21 14//21 19//21
f 18//22 8//22 19//22
f 14//23 18//23 19//23
f 11//24 7//24 20//24
f 8//25 11//25 20//25
f 12//26 8//26 20//26
f 7//27 12//27 20//27
f 12//28 7//28 21//28
f 9//29 12//29 21//29
f 7//30 14//30 21//30
