# Blender v2.79 (sub 0) OBJ File: ''
# www.blender.org
mtllib 102707_link_4_173.mtl
o Shape_IndexedFaceSet.173_Shape_IndexedFaceSet.9220
v 0.367421 0.332196 -0.539172
v 0.129281 0.325928 -0.566822
v 0.123195 0.325768 -0.538004
v 0.122939 0.332464 -0.538132
v 0.324019 0.325760 -0.377229
v 0.324363 0.332481 -0.376776
v 0.359917 0.326067 -0.550586
vn 0.0012 -1.0000 -0.0015
vn -0.9775 -0.0413 -0.2067
vn 0.0001 0.9750 -0.2221
vn -0.6248 -0.0206 0.7805
vn -0.6252 -0.0090 0.7804
vn 0.0011 1.0000 -0.0015
vn 0.9644 -0.0666 0.2558
vn 0.0340 0.8710 -0.4901
vn 0.0010 -1.0000 -0.0053
vn 0.5258 -0.8438 0.1074
usemtl Shape.9227
s off
f 5//1 3//1 7//1
f 2//2 3//2 4//2
f 1//3 2//3 4//3
f 3//4 5//4 6//4
f 4//5 3//5 6//5
f 1//6 4//6 6//6
f 5//7 1//7 6//7
f 2//8 1//8 7//8
f 3//9 2//9 7//9
f 1//10 5//10 7//10
