# Blender v2.79 (sub 0) OBJ File: ''
# www.blender.org
mtllib 102707_link_1_13.mtl
o Shape_IndexedFaceSet.013_Shape_IndexedFaceSet.4470
v 0.363367 0.655529 -0.261633
v 0.348090 0.643641 -0.373513
v 0.348090 0.648617 -0.373513
v 0.256001 0.648617 -0.226646
v 0.333150 0.638660 -0.234122
v 0.400370 0.641152 -0.361062
v 0.392908 0.656085 -0.373513
v 0.263478 0.638660 -0.229148
v 0.319389 0.657135 -0.220599
v 0.353069 0.638660 -0.373513
v 0.392908 0.656085 -0.316247
v 0.363029 0.643641 -0.261512
v 0.395390 0.638660 -0.373513
v 0.265961 0.651107 -0.229148
v 0.340627 0.656085 -0.226646
v 0.350587 0.651107 -0.373513
v 0.407862 0.653596 -0.368524
v 0.333150 0.641152 -0.226646
v 0.385430 0.641152 -0.313760
v 0.256001 0.643641 -0.229148
v 0.380451 0.638660 -0.313760
v 0.263478 0.638660 -0.226646
v 0.368009 0.646132 -0.266486
v 0.392908 0.646132 -0.323709
vn 0.8785 -0.2866 0.3823
vn -0.0000 0.0000 -1.0000
vn 0.0000 -1.0000 0.0000
vn 0.0143 0.9999 0.0000
vn -0.1557 0.9370 0.3126
vn -0.1030 0.9931 -0.0564
vn 0.2304 0.9638 0.1344
vn 0.0592 0.9977 0.0345
vn -0.6457 0.6475 -0.4048
vn -0.2776 0.9468 -0.1627
vn -0.1165 0.9908 -0.0683
vn 0.1642 0.9864 0.0000
vn 0.7839 -0.5893 -0.1956
vn 0.3230 0.0460 -0.9453
vn 0.4089 -0.8658 0.2886
vn 0.2653 -0.1329 0.9550
vn 0.7207 -0.3609 0.5919
vn -0.8431 0.0000 -0.5378
vn -0.8185 0.2581 -0.5132
vn -0.6447 -0.6444 -0.4112
vn -0.5243 -0.7870 -0.3253
vn 0.3367 -0.9201 0.2000
vn 0.2935 -0.9531 0.0734
vn 0.4432 -0.8854 0.1400
vn 0.4358 -0.8706 0.2283
vn -0.0861 -0.0647 0.9942
vn 0.0339 -0.9481 0.3161
vn 0.0123 -0.3445 0.9387
vn -0.5134 -0.3855 0.7667
vn -0.5544 -0.8322 0.0000
vn 0.8637 0.1844 0.4691
vn 0.8320 0.1328 0.5387
vn 0.7450 -0.3115 0.5899
vn 0.6568 -0.6855 0.3142
vn 0.7933 -0.5016 0.3452
vn 0.8885 -0.3968 0.2304
vn 0.9376 -0.2085 0.2781
vn 0.7337 -0.6388 0.2317
usemtl Shape.4475
s off
f 11//1 23//1 24//1
f 2//2 3//2 7//2
f 2//2 7//2 10//2
f 5//3 8//3 10//3
f 7//4 9//4 11//4
f 5//3 10//3 13//3
f 10//2 7//2 13//2
f 4//5 9//5 14//5
f 9//6 7//6 14//6
f 1//7 11//7 15//7
f 11//8 9//8 15//8
f 3//9 4//9 16//9
f 7//2 3//2 16//2
f 4//10 14//10 16//10
f 14//11 7//11 16//11
f 7//12 11//12 17//12
f 6//13 13//13 17//13
f 13//14 7//14 17//14
f 5//15 12//15 18//15
f 15//16 9//16 18//16
f 12//17 15//17 18//17
f 3//18 2//18 20//18
f 4//19 3//19 20//19
f 2//20 10//20 20//20
f 10//21 8//21 20//21
f 12//22 5//22 21//22
f 5//3 13//3 21//3
f 13//23 6//23 21//23
f 6//24 19//24 21//24
f 19//25 12//25 21//25
f 8//3 5//3 22//3
f 9//26 4//26 22//26
f 5//27 18//27 22//27
f 18//28 9//28 22//28
f 4//29 20//29 22//29
f 20//30 8//30 22//30
f 11//31 1//31 23//31
f 1//32 15//32 23//32
f 15//33 12//33 23//33
f 12//34 19//34 23//34
f 23//35 19//35 24//35
f 6//36 17//36 24//36
f 17//37 11//37 24//37
f 19//38 6//38 24//38
