# Blender v2.79 (sub 0) OBJ File: ''
# www.blender.org
mtllib 102707_link_3_53.mtl
o Shape_IndexedFaceSet.053_Shape_IndexedFaceSet.6316
v 0.256545 0.066155 0.637065
v 0.325445 0.080413 0.480284
v 0.325445 0.073284 0.480284
v 0.223288 0.075659 0.629940
v 0.296925 0.066155 0.475518
v 0.263678 0.080413 0.637065
v 0.296925 0.078036 0.475518
v 0.223288 0.066155 0.639457
v 0.313564 0.068532 0.515913
v 0.244665 0.080413 0.639457
v 0.296925 0.073284 0.568168
v 0.318312 0.066155 0.475518
v 0.289803 0.068532 0.482659
v 0.311180 0.080413 0.530180
v 0.225662 0.078036 0.634690
v 0.311180 0.080413 0.475518
v 0.275548 0.068532 0.610938
v 0.223288 0.068532 0.629940
v 0.296925 0.066155 0.551557
v 0.292177 0.075659 0.477909
vn -0.7262 -0.1971 -0.6586
vn 0.0000 -1.0000 0.0000
vn 0.1246 -0.0623 0.9903
vn -0.0000 1.0000 0.0000
vn 0.0713 -0.1069 0.9917
vn 0.5556 0.0000 -0.8315
vn 0.0000 0.0000 -1.0000
vn 0.6600 -0.7414 0.1212
vn 0.9615 0.0000 0.2749
vn 0.9424 -0.1623 0.2926
vn 0.8660 0.3192 0.3849
vn 0.9304 -0.1898 0.3135
vn -0.4571 0.8655 -0.2047
vn -0.9046 0.3016 0.3012
vn -0.2698 0.4045 0.8738
vn -0.1127 0.9926 -0.0457
vn 0.3130 0.1566 -0.9368
vn -0.1640 0.9837 -0.0734
vn 0.7636 -0.3820 0.5206
vn 0.8953 -0.0720 0.4395
vn 0.7132 -0.6403 0.2853
vn -0.4748 -0.8539 -0.2133
vn -1.0000 0.0000 0.0000
vn -0.9114 0.0000 -0.4116
vn -0.5069 -0.8310 -0.2289
vn 0.3367 -0.9368 0.0947
vn 0.3318 -0.9303 0.1567
vn 0.6801 -0.6807 0.2721
vn -0.5284 0.8146 -0.2394
vn -0.4498 0.0000 -0.8931
vn -0.9105 0.0283 -0.4126
usemtl Shape.6320
s off
f 5//1 13//1 20//1
f 5//2 1//2 8//2
f 1//3 6//3 10//3
f 6//4 2//4 10//4
f 8//5 1//5 10//5
f 2//6 3//6 12//6
f 1//2 5//2 12//2
f 5//7 7//7 12//7
f 3//8 9//8 12//8
f 3//9 2//9 14//9
f 2//4 6//4 14//4
f 9//10 3//10 14//10
f 6//11 11//11 14//11
f 11//12 9//12 14//12
f 7//13 4//13 15//13
f 4//14 8//14 15//14
f 8//15 10//15 15//15
f 15//16 10//16 16//16
f 10//4 2//4 16//4
f 2//17 12//17 16//17
f 12//7 7//7 16//7
f 7//18 15//18 16//18
f 6//19 1//19 17//19
f 11//20 6//20 17//20
f 9//21 11//21 17//21
f 5//22 8//22 18//22
f 8//23 4//23 18//23
f 4//24 13//24 18//24
f 13//25 5//25 18//25
f 1//2 12//2 19//2
f 12//26 9//26 19//26
f 17//27 1//27 19//27
f 9//28 17//28 19//28
f 4//29 7//29 20//29
f 7//30 5//30 20//30
f 13//31 4//31 20//31
