# Blender v2.79 (sub 0) OBJ File: ''
# www.blender.org
mtllib 102707_link_3_19.mtl
o Shape_IndexedFaceSet.019_Shape_IndexedFaceSet.6282
v -0.035757 0.082788 0.116673
v -0.123674 0.085165 0.090527
v -0.123674 0.082788 0.092907
v -0.123674 0.073285 0.142800
v -0.072813 0.055711 0.121226
v -0.042899 0.097048 0.090527
v -0.123674 0.059026 0.154689
v -0.123674 0.099424 0.092907
v -0.035757 0.059026 0.119053
v -0.035757 0.082788 0.090527
v -0.035757 0.059026 0.133297
v -0.105965 0.055736 0.126742
v -0.035757 0.092290 0.102409
v -0.035757 0.068536 0.130923
v -0.123674 0.059026 0.133297
v -0.118915 0.085165 0.123795
v -0.114165 0.082788 0.090527
v -0.121290 0.061402 0.154689
v -0.038149 0.080407 0.121421
vn 0.1133 0.7140 0.6909
vn -1.0000 0.0000 0.0000
vn -0.0242 0.1646 -0.9861
vn -0.0000 0.0000 -1.0000
vn 0.0312 -0.7680 -0.6397
vn 1.0000 0.0000 0.0000
vn 0.0378 -0.9872 0.1552
vn 0.0891 -0.9960 0.0000
vn 0.0209 -0.9913 0.1299
vn 0.0379 0.9353 0.3518
vn 0.8418 0.4216 -0.3371
vn -0.3285 -0.8141 -0.4789
vn -0.1827 -0.9832 0.0000
vn -0.3370 0.8340 0.4369
vn 0.0289 0.9092 0.4153
vn -0.1742 -0.6967 -0.6959
vn 0.0000 -0.7500 -0.6615
vn -0.1430 -0.8082 -0.5713
vn -0.0973 -0.8078 -0.5814
vn -0.5380 0.5398 0.6474
vn 0.2300 -0.2308 0.9454
vn 0.2420 0.2350 0.9414
vn 0.1568 0.6362 0.7554
vn 0.2625 0.8031 0.5350
vn 0.5734 0.5793 0.5794
vn 0.0653 0.8387 0.5406
vn 0.0653 0.8425 0.5348
usemtl Shape.6286
s off
f 4//1 18//1 19//1
f 2//2 3//2 4//2
f 4//2 3//2 7//2
f 2//2 4//2 8//2
f 6//3 2//3 8//3
f 2//4 6//4 10//4
f 9//5 5//5 10//5
f 1//6 9//6 10//6
f 7//7 5//7 11//7
f 5//8 9//8 11//8
f 9//6 1//6 11//6
f 5//9 7//9 12//9
f 6//10 8//10 13//10
f 10//11 6//11 13//11
f 1//6 10//6 13//6
f 11//6 1//6 14//6
f 7//2 3//2 15//2
f 3//12 12//12 15//12
f 12//13 7//13 15//13
f 8//14 4//14 16//14
f 13//15 8//15 16//15
f 3//16 2//16 17//16
f 2//4 10//4 17//4
f 10//17 5//17 17//17
f 12//18 3//18 17//18
f 5//19 12//19 17//19
f 4//20 7//20 18//20
f 7//21 11//21 18//21
f 11//22 14//22 18//22
f 18//23 14//23 19//23
f 1//24 13//24 19//24
f 14//25 1//25 19//25
f 16//26 4//26 19//26
f 13//27 16//27 19//27
