# Blender v2.79 (sub 0) OBJ File: ''
# www.blender.org
mtllib 102707_link_4_159.mtl
o Shape_IndexedFaceSet.159_Shape_IndexedFaceSet.9206
v 0.241941 0.098335 -0.235128
v 0.320047 0.090717 -0.460868
v 0.327735 0.096921 -0.465391
v -0.179564 0.130679 -0.234424
v -0.178664 0.090749 -0.241366
v 0.339186 0.129556 -0.365475
v 0.174196 0.129249 -0.203936
v 0.332946 0.130606 -0.460614
v 0.161572 0.092194 -0.204482
v -0.149826 0.091941 -0.202795
v 0.338354 0.091869 -0.371609
v -0.161955 0.129391 -0.202994
v 0.287846 0.129457 -0.277676
v 0.356310 0.091476 -0.455807
v 0.298134 0.092107 -0.296812
v -0.186176 0.103858 -0.238985
v 0.359470 0.130116 -0.457348
vn 0.9754 -0.0715 0.2084
vn -0.3973 -0.1657 -0.9026
vn 0.0034 -1.0000 0.0079
vn 0.3621 -0.1369 0.9220
vn 0.0054 -0.0166 0.9998
vn 0.0010 -0.9995 0.0302
vn 0.0005 0.9992 0.0406
vn 0.0028 0.0062 1.0000
vn 0.0034 1.0000 0.0080
vn 0.5141 0.3262 0.7933
vn 0.0033 1.0000 0.0071
vn 0.0152 0.9998 0.0100
vn 0.1158 -0.6749 -0.7288
vn 0.0197 -0.9998 0.0089
vn 0.0056 -0.9999 0.0092
vn 0.1679 -0.9538 0.2493
vn 0.0131 -0.9999 0.0102
vn 0.8765 -0.0961 0.4716
vn 0.7239 -0.1460 0.6742
vn 0.8631 -0.0208 0.5047
vn -0.4030 -0.0652 -0.9129
vn -0.3938 0.1885 -0.8997
vn -0.3912 0.2472 -0.8865
vn -0.6900 -0.4918 0.5311
vn -0.8628 0.1296 0.4887
vn -0.7235 -0.2308 0.6506
vn 0.1235 0.1206 -0.9850
vn 0.0173 0.9998 0.0099
vn 0.9750 -0.0565 0.2149
vn 0.3066 -0.0629 -0.9498
usemtl Shape.9213
s off
f 11//1 14//1 17//1
f 3//2 2//2 5//2
f 5//3 2//3 9//3
f 1//4 7//4 9//4
f 9//5 7//5 10//5
f 5//6 9//6 10//6
f 7//7 4//7 12//7
f 10//8 7//8 12//8
f 4//9 7//9 13//9
f 7//10 1//10 13//10
f 8//11 4//11 13//11
f 6//12 8//12 13//12
f 2//13 3//13 14//13
f 11//14 2//14 14//14
f 9//15 2//15 15//15
f 1//16 9//16 15//16
f 2//17 11//17 15//17
f 11//18 6//18 15//18
f 13//19 1//19 15//19
f 6//20 13//20 15//20
f 3//21 5//21 16//21
f 8//22 3//22 16//22
f 4//23 8//23 16//23
f 5//24 10//24 16//24
f 12//25 4//25 16//25
f 10//26 12//26 16//26
f 3//27 8//27 17//27
f 8//28 6//28 17//28
f 6//29 11//29 17//29
f 14//30 3//30 17//30
