# Blender v2.79 (sub 0) OBJ File: ''
# www.blender.org
mtllib 102707_link_3_24.mtl
o Shape_IndexedFaceSet.024_Shape_IndexedFaceSet.6287
v 0.201879 0.120811 -0.021151
v 0.185609 0.086113 -0.040919
v 0.185853 0.100106 -0.039820
v 0.185248 0.104183 0.042990
v 0.203626 0.086827 0.024614
v 0.190002 0.135070 -0.002146
v 0.204259 0.116053 0.042990
v 0.201879 0.085166 -0.030662
v 0.186022 0.133037 -0.019410
v 0.190002 0.085166 0.016851
v 0.185248 0.116053 0.042990
v 0.197130 0.127933 -0.028285
v 0.184879 0.084199 -0.017048
v 0.194753 0.104183 -0.040165
v 0.197130 0.132691 -0.016404
v 0.204259 0.085166 0.007349
v 0.204259 0.104183 0.042990
v 0.190002 0.123185 -0.035410
vn 0.5486 0.3295 -0.7684
vn -0.2142 -0.8080 0.5489
vn 0.0000 0.0000 1.0000
vn 0.0000 0.9215 0.3883
vn -0.8413 0.5241 0.1322
vn -0.9994 0.0197 -0.0290
vn -0.0075 -0.9968 -0.0801
vn -0.9994 0.0221 -0.0273
vn -0.8930 -0.4254 0.1471
vn -1.0000 0.0000 0.0061
vn -0.9997 0.0231 -0.0061
vn -0.0749 0.0794 -0.9940
vn 0.8923 0.1164 -0.4362
vn 0.5104 -0.2237 -0.8303
vn 0.8822 0.1370 -0.4505
vn 0.9276 0.3735 -0.0067
vn 0.5778 0.8013 0.1551
vn 0.0665 0.9890 -0.1318
vn 0.8899 0.4235 -0.1696
vn 0.1285 0.9206 -0.3687
vn 0.9986 0.0394 -0.0341
vn 0.9979 0.0167 -0.0625
vn 0.0653 -0.9931 0.0979
vn 0.0541 -0.9985 -0.0034
vn 0.0173 -0.9995 0.0259
vn 0.0000 -0.7270 0.6866
vn 1.0000 0.0000 0.0000
vn 0.9955 -0.0835 0.0445
vn -0.9008 0.2321 -0.3670
vn -0.0343 0.8472 -0.5302
vn -0.1333 0.2091 -0.9688
usemtl Shape.6291
s off
f 12//1 14//1 18//1
f 5//2 4//2 10//2
f 4//3 7//3 11//3
f 7//4 6//4 11//4
f 6//5 9//5 11//5
f 3//6 2//6 13//6
f 2//7 8//7 13//7
f 9//8 3//8 13//8
f 10//9 4//9 13//9
f 4//10 11//10 13//10
f 11//11 9//11 13//11
f 2//12 3//12 14//12
f 1//13 8//13 14//13
f 8//14 2//14 14//14
f 12//15 1//15 14//15
f 7//16 1//16 15//16
f 6//17 7//17 15//17
f 9//18 6//18 15//18
f 1//19 12//19 15//19
f 12//20 9//20 15//20
f 1//21 7//21 16//21
f 8//22 1//22 16//22
f 5//23 10//23 16//23
f 13//24 8//24 16//24
f 10//25 13//25 16//25
f 4//26 5//26 17//26
f 7//3 4//3 17//3
f 16//27 7//27 17//27
f 5//28 16//28 17//28
f 3//29 9//29 18//29
f 9//30 12//30 18//30
f 14//31 3//31 18//31
