# Blender v2.79 (sub 0) OBJ File: ''
# www.blender.org
mtllib 102707_link_4_109.mtl
o Shape_IndexedFaceSet.109_Shape_IndexedFaceSet.9156
v -0.030088 -0.404426 -0.001733
v -0.023565 -0.410947 -0.164742
v -0.036611 -0.397896 -0.145180
v 0.029037 -0.325605 -0.165854
v 0.030288 -0.413151 -0.011227
v -0.036611 -0.326183 -0.164742
v 0.028593 -0.404426 -0.164742
v -0.037397 -0.411969 0.000232
v -0.036611 -0.326183 -0.145180
vn -0.6025 0.6888 0.4031
vn 0.1991 0.8535 0.4816
vn -0.8632 -0.1329 -0.4870
vn -0.0169 -0.0026 -0.9999
vn 0.0018 -0.0141 -0.9999
vn 0.9999 -0.0058 -0.0114
vn 0.1239 -0.9906 -0.0577
vn -0.7543 -0.6531 -0.0673
vn 0.1678 0.0931 0.9814
vn -0.0188 -0.9998 -0.0078
vn -1.0000 -0.0015 -0.0056
vn -1.0000 0.0092 0.0000
vn 0.1401 0.8719 0.4692
vn -0.0088 1.0000 0.0000
usemtl Shape.9163
s off
f 8//1 1//1 9//1
f 4//2 1//2 5//2
f 2//3 3//3 6//3
f 4//4 2//4 6//4
f 2//5 4//5 7//5
f 4//6 5//6 7//6
f 5//7 2//7 7//7
f 3//8 2//8 8//8
f 5//9 1//9 8//9
f 2//10 5//10 8//10
f 6//11 3//11 8//11
f 6//12 8//12 9//12
f 1//13 4//13 9//13
f 4//14 6//14 9//14
