# Blender v2.79 (sub 0) OBJ File: ''
# www.blender.org
mtllib 102707_link_1_0.mtl
o Shape_IndexedFaceSet_Shape_IndexedFaceSet.4457
v -0.436121 0.728780 -0.512104
v -0.361490 0.740740 -0.361079
v -0.363975 0.743230 -0.361079
v -0.361490 0.743230 -0.560225
v -0.360057 0.725432 -0.558623
v -0.421224 0.725802 -0.363587
v -0.431180 0.743230 -0.493027
v -0.361490 0.728292 -0.361079
v -0.403798 0.745720 -0.361079
v -0.431180 0.725802 -0.547784
v -0.413754 0.745720 -0.545296
v -0.361490 0.745720 -0.550293
v -0.431180 0.735761 -0.418365
v -0.421224 0.735761 -0.557757
v -0.436158 0.725802 -0.450750
v -0.361598 0.725830 -0.567442
v -0.433665 0.738249 -0.532856
v -0.416246 0.740740 -0.363587
v -0.406283 0.725802 -0.361079
v -0.386379 0.745720 -0.361079
v -0.388872 0.740740 -0.562713
v -0.436158 0.733273 -0.453218
v -0.423709 0.743230 -0.420873
v -0.421224 0.745720 -0.522904
v -0.389176 0.726072 -0.564929
vn -0.0884 0.1506 -0.9846
vn 0.0000 0.0000 1.0000
vn 1.0000 0.0000 0.0073
vn 0.0000 1.0000 -0.0000
vn 0.7077 0.7063 0.0186
vn 0.9967 0.0785 -0.0197
vn 0.9976 0.0697 0.0018
vn -0.0232 0.9697 -0.2431
vn -0.0039 -1.0000 0.0007
vn -0.0052 -1.0000 -0.0003
vn -0.6911 -0.7219 -0.0355
vn -0.9841 -0.0564 0.1686
vn 0.9835 0.0640 -0.1690
vn -0.0118 -0.9990 -0.0430
vn -0.9903 -0.0369 -0.1341
vn -0.8157 0.3703 -0.4445
vn -0.5063 0.7957 -0.3324
vn -0.2258 0.0752 0.9713
vn -0.9246 0.3081 0.2241
vn -0.0003 -1.0000 0.0018
vn 0.0555 -0.9983 0.0149
vn -0.1655 0.0206 0.9860
vn 0.1105 0.9938 0.0145
vn -0.0539 0.9371 -0.3449
vn -0.2078 0.8211 -0.5316
vn 0.0491 0.3824 -0.9227
vn -0.7667 0.6388 0.0639
vn -1.0000 -0.0002 -0.0006
vn -0.9894 0.0456 0.1381
vn -0.9763 0.2158 -0.0171
vn -0.8946 0.4469 -0.0001
vn -0.6930 0.7173 0.0718
vn -0.3855 0.9183 0.0901
vn -0.6814 0.7220 0.1202
vn -0.4645 0.8818 -0.0813
vn -0.4240 0.8945 -0.1415
vn -0.1874 0.9821 0.0194
vn -0.1817 0.9832 0.0196
vn -0.3279 -0.4844 -0.8111
vn -0.0131 -0.9988 -0.0479
vn -0.1723 0.1506 -0.9735
usemtl Shape.4462
s off
f 21//1 16//1 25//1
f 2//2 3//2 8//2
f 5//3 2//3 8//3
f 8//2 3//2 9//2
f 11//4 9//4 12//4
f 3//5 2//5 12//5
f 5//6 4//6 12//6
f 2//7 5//7 12//7
f 4//8 11//8 12//8
f 5//9 6//9 15//9
f 10//10 5//10 15//10
f 1//11 10//11 15//11
f 6//12 13//12 15//12
f 4//13 5//13 16//13
f 5//14 10//14 16//14
f 10//15 1//15 17//15
f 14//16 10//16 17//16
f 11//17 14//17 17//17
f 6//18 9//18 18//18
f 13//19 6//19 18//19
f 6//20 5//20 19//20
f 5//21 8//21 19//21
f 9//22 6//22 19//22
f 8//2 9//2 19//2
f 9//2 3//2 20//2
f 12//4 9//4 20//4
f 3//23 12//23 20//23
f 11//24 4//24 21//24
f 14//25 11//25 21//25
f 4//26 16//26 21//26
f 13//27 7//27 22//27
f 1//28 15//28 22//28
f 15//29 13//29 22//29
f 17//30 1//30 22//30
f 7//31 17//31 22//31
f 7//32 13//32 23//32
f 18//33 9//33 23//33
f 13//34 18//34 23//34
f 9//4 11//4 24//4
f 17//35 7//35 24//35
f 11//36 17//36 24//36
f 7//37 23//37 24//37
f 23//38 9//38 24//38
f 10//39 14//39 25//39
f 16//40 10//40 25//40
f 14//41 21//41 25//41
