# Blender v2.79 (sub 0) OBJ File: ''
# www.blender.org
mtllib 102707_link_4_167.mtl
o Shape_IndexedFaceSet.167_Shape_IndexedFaceSet.9214
v 0.276439 0.272258 -0.255251
v 0.338779 0.234054 -0.461635
v 0.340991 0.274520 -0.463693
v 0.010479 0.275002 -0.216436
v 0.009868 0.233194 -0.188133
v 0.222041 0.235987 -0.212822
v 0.338743 0.235765 -0.352231
v 0.204061 0.272600 -0.204610
v 0.012694 0.233514 -0.217774
v 0.359863 0.272808 -0.414907
v 0.009027 0.275166 -0.187499
v 0.364136 0.234973 -0.455505
v 0.277722 0.235721 -0.260239
v 0.325381 0.272342 -0.321689
vn 0.8040 -0.0526 0.5922
vn 0.0157 0.9998 0.0157
vn 0.1162 -0.1627 0.9798
vn 0.5709 0.0975 0.8152
vn -0.5989 -0.0080 -0.8008
vn -0.5990 -0.0062 -0.8007
vn -0.9942 -0.0500 -0.0953
vn -0.0069 -0.9999 -0.0115
vn -0.0029 1.0000 -0.0058
vn -0.9986 -0.0193 -0.0500
vn 0.0145 0.9998 0.0151
vn 0.0872 -0.0133 0.9961
vn 0.2367 -0.0622 -0.9696
vn 0.0324 -0.9994 0.0156
vn 0.8466 0.4308 -0.3124
vn 0.9604 -0.1461 0.2373
vn 0.0127 -0.9998 0.0121
vn 0.0160 -0.9996 0.0244
vn 0.6460 -0.0809 0.7590
vn 0.0243 -0.9996 0.0156
vn 0.8233 -0.1552 0.5460
vn 0.0224 0.9996 0.0178
vn 0.0397 0.9990 0.0197
vn 0.9365 0.0526 0.3467
usemtl Shape.9221
s off
f 1//1 13//1 14//1
f 1//2 3//2 8//2
f 5//3 6//3 8//3
f 6//4 1//4 8//4
f 3//5 2//5 9//5
f 4//6 3//6 9//6
f 5//7 4//7 9//7
f 2//8 5//8 9//8
f 3//9 4//9 11//9
f 4//10 5//10 11//10
f 8//11 3//11 11//11
f 5//12 8//12 11//12
f 2//13 3//13 12//13
f 7//14 2//14 12//14
f 3//15 10//15 12//15
f 10//16 7//16 12//16
f 5//17 2//17 13//17
f 6//18 5//18 13//18
f 1//19 6//19 13//19
f 2//20 7//20 13//20
f 13//21 7//21 14//21
f 3//22 1//22 14//22
f 10//23 3//23 14//23
f 7//24 10//24 14//24
