# Blender v2.79 (sub 0) OBJ File: ''
# www.blender.org
mtllib 102707_link_1_1.mtl
o Shape_IndexedFaceSet.001_Shape_IndexedFaceSet.4458
v -0.182213 0.745720 -0.537833
v -0.350038 0.726028 -0.567840
v -0.360976 0.725827 -0.567461
v 0.001995 0.728292 -0.361079
v -0.361440 0.740740 -0.361079
v 0.001047 0.725854 -0.569674
v 0.001995 0.740740 -0.361079
v -0.361440 0.728292 -0.361079
v 0.001995 0.745720 -0.550280
v -0.361440 0.745720 -0.550280
v -0.309170 0.735761 -0.570219
v 0.001995 0.740740 -0.565224
v -0.321623 0.743230 -0.562747
v 0.001995 0.725802 -0.557752
v -0.361440 0.725802 -0.555254
v 0.001995 0.735761 -0.570219
v -0.361440 0.745720 -0.537833
v -0.361440 0.735761 -0.567722
v 0.001995 0.745720 -0.540310
v 0.001995 0.743230 -0.560249
vn 0.0035 0.8942 -0.4476
vn -0.0032 -0.8415 -0.5402
vn 0.0000 0.9996 0.0282
vn 0.0000 0.0000 1.0000
vn 1.0000 0.0000 -0.0000
vn -1.0000 0.0000 0.0000
vn 0.0000 1.0000 0.0000
vn -0.0325 -0.1066 -0.9938
vn -0.0052 -0.2167 -0.9762
vn 0.0000 0.9806 -0.1959
vn 0.0000 -1.0000 -0.0044
vn 0.0000 -0.9999 0.0128
vn -0.0000 -1.0000 -0.0020
vn 0.0001 -0.9999 0.0127
vn 0.0000 -0.0549 -0.9985
vn 0.0000 0.7072 -0.7070
vn 0.0000 0.7082 -0.7060
vn 0.9919 -0.0993 -0.0793
vn -0.0477 -0.0285 -0.9985
vn -0.1004 0.8640 -0.4933
vn -0.0351 0.6769 -0.7352
vn -0.9981 -0.0476 -0.0380
vn 0.0004 0.9996 0.0278
vn 0.0019 0.9702 -0.2423
usemtl Shape.4463
s off
f 12//1 13//1 20//1
f 3//2 2//2 6//2
f 1//3 5//3 7//3
f 5//4 4//4 7//4
f 4//4 5//4 8//4
f 7//5 4//5 9//5
f 8//6 5//6 10//6
f 1//7 9//7 10//7
f 2//8 3//8 11//8
f 6//9 2//9 11//9
f 9//5 4//5 12//5
f 10//10 9//10 13//10
f 3//11 6//11 14//11
f 12//5 4//5 14//5
f 4//12 8//12 15//12
f 8//6 10//6 15//6
f 3//13 14//13 15//13
f 14//14 4//14 15//14
f 6//15 11//15 16//15
f 11//16 13//16 16//16
f 13//17 12//17 16//17
f 14//18 6//18 16//18
f 12//5 14//5 16//5
f 5//3 1//3 17//3
f 1//7 10//7 17//7
f 10//6 5//6 17//6
f 11//19 3//19 18//19
f 10//20 13//20 18//20
f 13//21 11//21 18//21
f 3//22 15//22 18//22
f 15//6 10//6 18//6
f 1//23 7//23 19//23
f 9//7 1//7 19//7
f 7//5 9//5 19//5
f 9//5 12//5 20//5
f 13//24 9//24 20//24
