# Blender v2.79 (sub 0) OBJ File: ''
# www.blender.org
mtllib 102707_link_4_117.mtl
o Shape_IndexedFaceSet.117_Shape_IndexedFaceSet.9164
v 0.115548 -0.154001 0.001883
v 0.282886 -0.032767 0.037389
v 0.282886 -0.039294 0.037389
v 0.113379 -0.045808 -0.066937
v 0.106877 -0.169694 -0.066937
v 0.054701 -0.032767 -0.053876
v 0.139455 -0.137084 0.037389
v 0.191585 -0.169694 0.037389
v 0.061226 -0.169694 -0.053876
v 0.191585 -0.032767 -0.040845
v 0.224186 -0.032767 0.037389
v 0.263289 -0.091460 0.030853
v 0.061226 -0.111002 -0.034330
v 0.237213 -0.052349 -0.008269
v 0.061226 -0.169694 -0.066937
v 0.067751 -0.032767 -0.040845
vn -0.6497 0.1167 0.7512
vn 0.0000 0.0000 1.0000
vn -0.4220 -0.6746 0.6056
vn -0.4317 -0.6662 0.6081
vn -0.4209 -0.6792 0.6012
vn 0.0000 -1.0000 0.0000
vn 0.3189 -0.0167 -0.9476
vn -0.0000 1.0000 -0.0000
vn 0.0545 0.8183 -0.5723
vn 0.6168 -0.6072 -0.5008
vn 0.3493 -0.2445 0.9046
vn -0.9888 -0.0471 0.1415
vn -0.6982 -0.2262 0.6793
vn 0.7070 0.0000 -0.7072
vn 0.6308 0.2452 -0.7362
vn 0.5249 -0.1657 -0.8349
vn 0.6117 -0.3171 -0.7247
vn 0.7207 -0.1871 -0.6675
vn 0.0000 0.0000 -1.0000
vn -0.1988 0.0837 -0.9765
vn -0.9989 -0.0476 0.0000
vn -0.4204 0.3415 0.8406
vn -0.7017 0.1170 0.7028
usemtl Shape.9171
s off
f 13//1 7//1 16//1
f 3//2 2//2 7//2
f 3//2 7//2 8//2
f 7//3 1//3 8//3
f 1//4 7//4 9//4
f 8//5 1//5 9//5
f 5//6 8//6 9//6
f 5//7 4//7 10//7
f 6//8 2//8 10//8
f 4//9 6//9 10//9
f 2//8 6//8 11//8
f 7//2 2//2 11//2
f 8//10 5//10 12//10
f 3//11 8//11 12//11
f 6//12 9//12 13//12
f 9//13 7//13 13//13
f 2//14 3//14 14//14
f 10//15 2//15 14//15
f 5//16 10//16 14//16
f 12//17 5//17 14//17
f 3//18 12//18 14//18
f 4//19 5//19 15//19
f 6//20 4//20 15//20
f 5//6 9//6 15//6
f 9//21 6//21 15//21
f 11//8 6//8 16//8
f 7//22 11//22 16//22
f 6//23 13//23 16//23
