# Blender v2.79 (sub 0) OBJ File: ''
# www.blender.org
mtllib 102707_link_0_3.mtl
o Shape_IndexedFaceSet.003_Shape_IndexedFaceSet.3960
v -0.397190 0.580232 -0.473178
v -0.378887 0.536418 -0.449884
v -0.378887 0.536418 -0.416063
v -0.403293 0.536982 -0.447113
v -0.403293 0.562492 -0.410506
v -0.384436 0.586894 -0.431588
v -0.383325 0.541968 -0.483169
v -0.402736 0.587442 -0.448777
v -0.401629 0.555282 -0.482055
v -0.403293 0.537536 -0.410506
v -0.378333 0.561379 -0.413285
v -0.387208 0.586341 -0.463752
v -0.397744 0.536424 -0.480391
v -0.385543 0.562492 -0.482612
v -0.403293 0.573022 -0.475949
v -0.396633 0.580785 -0.422711
v -0.375558 0.540308 -0.421047
v -0.382769 0.575800 -0.417727
v -0.381661 0.536424 -0.479277
v -0.384990 0.540856 -0.410514
v -0.399964 0.588554 -0.438800
v -0.388318 0.590778 -0.453204
v -0.388318 0.568590 -0.482612
v -0.392197 0.566365 -0.410514
v -0.403293 0.585223 -0.460974
v -0.396079 0.554175 -0.484833
v -0.381661 0.577460 -0.425496
v -0.378333 0.551397 -0.411621
v -0.400518 0.566919 -0.481498
v -0.392197 0.536424 -0.414948
v -0.389425 0.585782 -0.467630
v -0.375558 0.536418 -0.417719
v -0.403293 0.540861 -0.456539
v -0.386097 0.550296 -0.485390
v -0.379997 0.537530 -0.466523
v -0.401072 0.588554 -0.455425
v -0.388318 0.577465 -0.477063
v -0.399964 0.585782 -0.432145
v -0.386654 0.590220 -0.439365
v -0.397190 0.544187 -0.483719
v -0.387208 0.585782 -0.428267
v -0.401072 0.583563 -0.467630
v -0.385543 0.589113 -0.444899
v -0.389425 0.561944 -0.484833
v -0.400518 0.574134 -0.477620
v -0.392197 0.590778 -0.447120
v -0.399964 0.544746 -0.481498
v -0.390533 0.588560 -0.462088
v -0.380551 0.563040 -0.412178
v -0.384436 0.538637 -0.482612
v -0.401629 0.586889 -0.438800
v -0.384436 0.567477 -0.465966
v -0.376669 0.544741 -0.413285
v -0.383325 0.580791 -0.422161
v -0.398854 0.536424 -0.443235
v -0.397190 0.586335 -0.431038
v -0.401072 0.559719 -0.483162
v -0.386654 0.538637 -0.410514
v -0.380551 0.572469 -0.416620
v -0.382769 0.544741 -0.482055
v -0.393861 0.579684 -0.421047
v -0.380551 0.555282 -0.411064
v -0.376115 0.536418 -0.430481
v -0.384990 0.555287 -0.484833
vn 0.9636 0.1435 -0.2256
vn -1.0000 0.0000 0.0000
vn 0.0000 -1.0000 -0.0002
vn 0.0004 0.0000 1.0000
vn 0.0007 0.0002 1.0000
vn -0.9969 0.0720 0.0324
vn 0.9859 0.1541 -0.0658
vn 0.0247 -0.9534 0.3005
vn 0.0000 -1.0000 0.0000
vn -0.9217 -0.3588 -0.1477
vn -0.9934 -0.0593 -0.0983
vn -0.4665 0.8840 0.0311
vn -0.7602 0.6444 -0.0825
vn 0.9292 0.2669 -0.2555
vn 0.7588 0.3453 -0.5523
vn 0.6493 0.6066 -0.4587
vn -0.0583 0.7454 -0.6641
vn -0.6234 0.5782 0.5264
vn -0.0941 -0.1000 -0.9905
vn 0.0766 0.9245 0.3735
vn -0.7957 0.4696 -0.3826
vn -0.1518 0.7969 -0.5847
vn -0.4047 0.8464 -0.3461
vn 0.8065 0.5705 -0.1551
vn 0.9649 0.2600 -0.0369
vn 0.7902 0.6117 0.0363
vn 0.5989 0.7998 -0.0398
vn -0.1310 0.3338 -0.9335
vn -0.0418 0.0358 -0.9985
vn -0.5844 0.3842 -0.7148
vn -0.1438 0.4685 -0.8717
vn -0.1054 0.5272 -0.8432
vn -0.1375 0.6311 -0.7634
vn -0.3568 0.6694 -0.6516
vn -0.5784 0.5770 -0.5766
vn -0.2582 0.9660 0.0172
vn -0.1543 0.9831 -0.0984
vn -0.1163 0.9812 0.1537
vn 0.0531 0.9980 0.0339
vn -0.9465 -0.2750 -0.1690
vn -0.9745 -0.1622 -0.1552
vn -0.6346 -0.2658 -0.7257
vn -0.6359 -0.1406 -0.7589
vn 0.4121 0.8545 -0.3161
vn 0.3938 0.8509 -0.3478
vn -0.1326 0.9689 -0.2089
vn -0.1654 0.8680 -0.4682
vn -0.2332 0.9001 -0.3681
vn 0.5241 0.1400 0.8400
vn 0.0398 -0.8170 -0.5753
vn 0.6101 -0.3244 -0.7229
vn 0.1444 -0.2098 -0.9670
vn -0.0888 -0.3871 -0.9178
vn -0.0175 -0.2341 -0.9721
vn -0.9716 0.2044 0.1191
vn -0.7023 0.7023 0.1168
vn -0.8763 0.3891 0.2840
vn -0.6783 0.6783 0.2825
vn 0.9811 0.1574 -0.1124
vn 0.9833 0.1491 -0.1042
vn 0.9834 0.1477 -0.1050
vn 0.9815 0.1571 -0.1098
vn 0.9827 0.1525 -0.1050
vn 0.9914 0.0991 0.0853
vn 0.8544 0.0854 0.5126
vn 0.3700 -0.1372 0.9188
vn 0.9921 0.0816 0.0954
vn 0.2699 0.8225 0.5007
vn -0.0003 -1.0000 0.0000
vn -0.1376 -0.9904 0.0150
vn -0.1216 -0.9926 -0.0036
vn -0.0004 -1.0000 0.0001
vn -0.0912 -0.9956 0.0215
vn -0.3649 0.7633 0.5331
vn -0.3198 0.8747 0.3643
vn -0.1053 0.9456 0.3079
vn -0.1088 0.8238 0.5563
vn -0.0509 0.9282 0.3686
vn -0.9376 0.0313 -0.3464
vn -0.7712 0.1991 -0.6046
vn -0.6006 -0.1218 -0.7902
vn -0.3771 -0.0611 -0.9241
vn -0.1818 0.2347 -0.9549
vn -0.1673 0.1433 -0.9754
vn 0.0595 -0.8954 0.4413
vn 0.0005 -0.0004 1.0000
vn 0.3683 -0.5624 0.7403
vn 0.4315 -0.3236 0.8421
vn 0.4522 -0.3716 0.8108
vn 0.2257 0.4392 0.8696
vn 0.9465 0.3171 0.0600
vn 0.9813 0.1918 -0.0149
vn 0.6104 0.3376 0.7165
vn 0.2434 0.4134 0.8774
vn 0.5784 0.5769 0.5768
vn 0.9016 0.4039 0.1552
vn 0.9106 -0.0166 -0.4130
vn 0.9869 0.0860 -0.1362
vn 0.9825 0.1501 -0.1103
vn 0.9832 0.1477 -0.1069
vn -0.2257 0.5962 0.7705
vn -0.2058 0.5911 0.7799
vn -0.0184 0.6188 0.7854
vn -0.0557 0.7875 0.6138
vn 0.0092 0.6647 0.7471
vn -0.0134 0.7700 0.6379
vn 0.0645 0.0182 0.9978
vn 0.2022 -0.0249 0.9790
vn 0.1791 0.1398 0.9738
vn 0.4454 0.1273 0.8862
vn 0.0042 -1.0000 -0.0006
vn 0.9984 -0.0373 -0.0436
vn 0.9757 -0.1889 -0.1109
vn 0.9887 0.1086 -0.1031
vn 0.6071 0.2763 -0.7451
vn 0.5632 -0.0328 -0.8257
vn 0.3614 0.2408 -0.9008
vn 0.1243 0.0828 -0.9888
vn 0.8499 0.0406 -0.5253
usemtl Shape.3963
s off
f 14//1 60//1 64//1
f 5//2 4//2 10//2
f 4//2 5//2 15//2
f 2//3 13//3 19//3
f 5//4 10//4 20//4
f 5//5 20//5 24//5
f 5//6 8//6 25//6
f 15//2 5//2 25//2
f 11//7 17//7 27//7
f 3//8 10//8 30//8
f 3//9 2//9 32//9
f 13//10 4//10 33//10
f 4//2 15//2 33//2
f 15//11 9//11 33//11
f 8//12 21//12 36//12
f 25//13 8//13 36//13
f 12//14 14//14 37//14
f 14//15 23//15 37//15
f 31//16 12//16 37//16
f 1//17 31//17 37//17
f 5//18 16//18 38//18
f 26//19 34//19 40//19
f 6//20 39//20 41//20
f 15//21 25//21 42//21
f 31//22 1//22 42//22
f 25//23 36//23 42//23
f 12//24 22//24 43//24
f 6//25 27//25 43//25
f 39//26 6//26 43//26
f 22//27 39//27 43//27
f 29//28 23//28 44//28
f 34//29 26//29 44//29
f 29//30 15//30 45//30
f 23//31 29//31 45//31
f 37//32 23//32 45//32
f 1//33 37//33 45//33
f 42//34 1//34 45//34
f 15//35 42//35 45//35
f 36//36 21//36 46//36
f 22//37 36//37 46//37
f 21//38 39//38 46//38
f 39//39 22//39 46//39
f 13//40 33//40 47//40
f 33//41 9//41 47//41
f 40//42 13//42 47//42
f 9//43 40//43 47//43
f 22//44 12//44 48//44
f 12//45 31//45 48//45
f 36//46 22//46 48//46
f 31//47 42//47 48//47
f 42//48 36//48 48//48
f 28//49 11//49 49//49
f 19//50 13//50 50//50
f 7//51 19//51 50//51
f 34//52 7//52 50//52
f 13//53 40//53 50//53
f 40//54 34//54 50//54
f 8//55 5//55 51//55
f 21//56 8//56 51//56
f 5//57 38//57 51//57
f 38//58 21//58 51//58
f 14//59 12//59 52//59
f 27//60 17//60 52//60
f 17//61 35//61 52//61
f 12//62 43//62 52//62
f 43//63 27//63 52//63
f 17//64 11//64 53//64
f 11//65 28//65 53//65
f 28//66 20//66 53//66
f 32//67 17//67 53//67
f 6//68 41//68 54//68
f 2//69 3//69 55//69
f 10//70 4//70 55//70
f 13//69 2//69 55//69
f 4//71 13//71 55//71
f 3//72 30//72 55//72
f 30//73 10//73 55//73
f 38//74 16//74 56//74
f 21//75 38//75 56//75
f 39//76 21//76 56//76
f 16//77 41//77 56//77
f 41//78 39//78 56//78
f 9//79 15//79 57//79
f 15//80 29//80 57//80
f 40//81 9//81 57//81
f 26//82 40//82 57//82
f 29//83 44//83 57//83
f 44//84 26//84 57//84
f 10//85 3//85 58//85
f 20//86 10//86 58//86
f 3//87 32//87 58//87
f 53//88 20//88 58//88
f 32//89 53//89 58//89
f 18//90 24//90 59//90
f 27//91 6//91 59//91
f 11//92 27//92 59//92
f 49//93 11//93 59//93
f 24//94 49//94 59//94
f 54//95 18//95 59//95
f 6//96 54//96 59//96
f 19//97 7//97 60//97
f 35//98 19//98 60//98
f 14//99 52//99 60//99
f 52//100 35//100 60//100
f 16//101 5//101 61//101
f 5//102 24//102 61//102
f 24//103 18//103 61//103
f 41//104 16//104 61//104
f 18//105 54//105 61//105
f 54//106 41//106 61//106
f 24//107 20//107 62//107
f 20//108 28//108 62//108
f 49//109 24//109 62//109
f 28//110 49//110 62//110
f 2//111 19//111 63//111
f 32//9 2//9 63//9
f 17//112 32//112 63//112
f 19//113 35//113 63//113
f 35//114 17//114 63//114
f 23//115 14//115 64//115
f 7//116 34//116 64//116
f 44//117 23//117 64//117
f 34//118 44//118 64//118
f 60//119 7//119 64//119
