# Blender v2.79 (sub 0) OBJ File: ''
# www.blender.org
mtllib 102707_link_3_57.mtl
o Shape_IndexedFaceSet.057_Shape_IndexedFaceSet.6320
v 0.047407 0.070911 0.777303
v 0.047407 0.078038 0.777303
v -0.035748 0.070911 0.779684
v -0.035748 0.092293 0.824823
v 0.049785 0.092293 0.824823
v -0.033370 0.066157 0.824823
v 0.049785 0.066157 0.822453
v -0.035748 0.092293 0.812946
v 0.049785 0.066157 0.784440
v -0.035748 0.078038 0.779684
v 0.049785 0.092293 0.810565
v -0.035748 0.066157 0.786810
v -0.023868 0.087539 0.829579
v -0.035748 0.070911 0.829579
v 0.035527 0.070911 0.829579
vn 0.0000 -0.7073 0.7070
vn -0.0286 0.0000 -0.9996
vn -1.0000 0.0000 0.0000
vn 0.0000 1.0000 0.0000
vn 0.9487 0.0000 -0.3161
vn 1.0000 0.0000 0.0000
vn 0.0000 -1.0000 0.0000
vn -0.0113 0.9191 -0.3939
vn -0.0109 0.9194 -0.3932
vn 0.9847 0.1231 -0.1232
vn -0.0159 -0.8318 -0.5549
vn -0.0153 -0.8345 -0.5508
vn 0.0000 0.7073 0.7070
vn -0.8702 -0.4897 0.0544
vn -0.2908 0.2077 0.9340
vn 0.0000 0.0000 1.0000
vn 0.4236 -0.0818 0.9021
vn 0.0165 -0.8162 0.5775
vn 0.0515 0.1840 0.9816
usemtl Shape.6324
s off
f 14//1 6//1 15//1
f 2//2 1//2 3//2
f 3//3 4//3 8//3
f 4//4 5//4 8//4
f 1//5 2//5 9//5
f 5//6 7//6 9//6
f 7//7 6//7 9//7
f 2//2 3//2 10//2
f 8//8 2//8 10//8
f 3//3 8//3 10//3
f 2//9 8//9 11//9
f 8//4 5//4 11//4
f 9//10 2//10 11//10
f 5//6 9//6 11//6
f 3//11 1//11 12//11
f 4//3 3//3 12//3
f 1//12 9//12 12//12
f 9//7 6//7 12//7
f 5//13 4//13 13//13
f 4//3 12//3 14//3
f 12//14 6//14 14//14
f 13//15 4//15 14//15
f 13//16 14//16 15//16
f 7//17 5//17 15//17
f 6//18 7//18 15//18
f 5//19 13//19 15//19
