# Blender v2.79 (sub 0) OBJ File: ''
# www.blender.org
mtllib 102707_link_4_29.mtl
o Shape_IndexedFaceSet.029_Shape_IndexedFaceSet.9076
v -0.378091 0.492780 -0.549445
v 0.061148 0.664875 -0.542931
v 0.061148 0.462780 -0.575524
v -0.362566 0.658361 -0.575524
v -0.354466 0.469554 -0.521567
v -0.401700 0.671411 -0.523366
v 0.061148 0.462780 -0.536411
v -0.323433 0.462780 -0.575524
v 0.061148 0.658361 -0.575524
v 0.061148 0.638797 -0.536411
v -0.351943 0.457166 -0.521963
v -0.384834 0.464662 -0.523837
v -0.406813 0.649005 -0.536848
v -0.381197 0.650259 -0.521724
v 0.046165 0.664843 -0.561659
v -0.362566 0.593154 -0.575524
vn -0.6581 0.0000 -0.7529
vn 1.0000 0.0000 0.0000
vn 0.0000 0.0000 -1.0000
vn 0.0444 0.2423 0.9692
vn 0.0357 0.0000 0.9994
vn 0.0353 -0.0248 0.9991
vn 0.0136 -0.9999 0.0000
vn 0.0000 -0.9946 -0.1042
vn -0.2059 -0.9558 -0.2098
vn -0.5768 -0.4701 -0.6681
vn -0.0672 -0.0455 0.9967
vn -0.6270 0.5017 -0.5960
vn -0.9110 -0.1361 -0.3893
vn -0.8860 -0.0733 0.4579
vn 0.0359 0.1119 0.9931
vn 0.0333 0.0058 0.9994
vn -0.0896 -0.0096 0.9959
vn -0.0729 -0.0099 0.9973
vn 0.0136 0.9998 -0.0126
vn -0.0070 0.9688 -0.2476
vn 0.2360 0.9529 -0.1904
vn 0.0000 0.9059 -0.4235
vn -0.4906 -0.1473 -0.8588
vn -0.7072 -0.0733 -0.7032
usemtl Shape.9083
s off
f 13//1 4//1 16//1
f 3//2 2//2 7//2
f 4//3 3//3 8//3
f 2//2 3//2 9//2
f 3//3 4//3 9//3
f 2//4 6//4 10//4
f 5//5 7//5 10//5
f 7//2 2//2 10//2
f 7//6 5//6 11//6
f 3//7 7//7 11//7
f 8//8 3//8 11//8
f 8//9 11//9 12//9
f 1//10 8//10 12//10
f 11//11 5//11 12//11
f 6//12 4//12 13//12
f 1//13 12//13 13//13
f 12//14 6//14 13//14
f 10//15 6//15 14//15
f 5//16 10//16 14//16
f 6//17 12//17 14//17
f 12//18 5//18 14//18
f 6//19 2//19 15//19
f 4//20 6//20 15//20
f 2//21 9//21 15//21
f 9//22 4//22 15//22
f 8//23 1//23 16//23
f 4//3 8//3 16//3
f 1//24 13//24 16//24
