# Blender v2.79 (sub 0) OBJ File: ''
# www.blender.org
mtllib 102707_link_4_6.mtl
o Shape_IndexedFaceSet.006_Shape_IndexedFaceSet.9053
v -0.225756 -0.646762 0.148939
v 0.068227 -0.466233 0.172231
v 0.237240 -0.560898 0.174314
v 0.064335 -0.444611 0.147530
v 0.244509 -0.637090 0.148539
v -0.244707 -0.636675 0.173951
v -0.082220 -0.450089 0.174314
v 0.225793 -0.647272 0.173678
v -0.232218 -0.560898 0.148237
v -0.056776 -0.448982 0.148094
v -0.225696 -0.554369 0.174314
v 0.241436 -0.579404 0.148700
v 0.080721 -0.450089 0.167791
v 0.225688 -0.647227 0.148879
v -0.225949 -0.646842 0.173622
vn -0.0010 -1.0000 -0.0033
vn 0.0200 0.0577 0.9981
vn 0.8183 -0.1126 0.5636
vn 0.0004 -0.0074 1.0000
vn -0.0007 -0.0082 -1.0000
vn -0.0002 -0.0055 -1.0000
vn -0.8079 -0.0656 -0.5857
vn -0.4838 0.7579 -0.4375
vn -0.0360 0.9993 0.0072
vn -0.0049 0.0064 -1.0000
vn -0.0001 -0.0044 1.0000
vn 0.0000 0.0000 1.0000
vn -0.9578 0.2204 0.1844
vn -0.5870 0.8077 -0.0554
vn 0.5490 0.7176 -0.4285
vn 0.0091 0.0033 -1.0000
vn 0.9908 0.0524 0.1244
vn 0.0965 0.1938 0.9763
vn 0.5669 0.7863 -0.2459
vn 0.0389 0.2369 0.9708
vn 0.0101 0.9673 0.2533
vn -0.0002 -0.0332 -0.9994
vn 0.4741 -0.8804 -0.0036
vn -0.0010 -1.0000 -0.0018
vn -0.4766 -0.8791 -0.0066
vn -0.0002 -0.0326 0.9995
usemtl Shape.9060
s off
f 1//1 14//1 15//1
f 3//2 2//2 7//2
f 5//3 3//3 8//3
f 3//4 6//4 8//4
f 5//5 1//5 9//5
f 4//6 5//6 9//6
f 1//7 6//7 9//7
f 9//8 7//8 10//8
f 7//9 4//9 10//9
f 4//10 9//10 10//10
f 6//11 3//11 11//11
f 3//12 7//12 11//12
f 9//13 6//13 11//13
f 7//14 9//14 11//14
f 4//15 3//15 12//15
f 5//16 4//16 12//16
f 3//17 5//17 12//17
f 2//18 3//18 13//18
f 3//19 4//19 13//19
f 7//20 2//20 13//20
f 4//21 7//21 13//21
f 1//22 5//22 14//22
f 5//23 8//23 14//23
f 14//24 8//24 15//24
f 6//25 1//25 15//25
f 8//26 6//26 15//26
