# Blender v2.79 (sub 0) OBJ File: ''
# www.blender.org
mtllib 102707_link_4_0.mtl
o Shape_IndexedFaceSet_Shape_IndexedFaceSet.9047
v -0.124662 -0.609065 -0.428547
v 0.022072 -0.613081 -0.164778
v -0.173532 -0.606558 -0.164778
v -0.199604 -0.652200 -0.164778
v 0.022072 -0.652200 -0.503757
v 0.022072 -0.652200 -0.164778
v 0.025142 -0.605977 -0.487691
v -0.088777 -0.645677 -0.477668
v -0.219181 -0.606558 -0.190867
v -0.046127 -0.607783 -0.513859
v -0.199604 -0.639154 -0.256090
v -0.049671 -0.652200 -0.497217
v 0.017979 -0.607332 -0.523687
v -0.036612 -0.645677 -0.516801
vn 0.1585 -0.3887 -0.9076
vn 0.0000 0.0000 1.0000
vn 0.0000 -1.0000 0.0000
vn 0.0333 0.9992 0.0223
vn 1.0000 0.0000 0.0095
vn 0.9978 -0.0663 0.0000
vn -0.4774 0.2727 0.8353
vn -0.0008 1.0000 0.0013
vn -0.7249 0.1812 -0.6646
vn -0.0488 0.9984 -0.0299
vn -0.0200 0.9997 -0.0145
vn -0.8625 -0.2775 -0.4232
vn -0.3228 -0.9370 -0.1339
vn -0.9044 -0.4224 -0.0604
vn -0.9130 0.1820 -0.3650
vn -0.2096 -0.9732 -0.0945
vn 0.9807 0.0027 -0.1953
vn -0.0124 0.9993 -0.0351
vn -0.5977 -0.0882 -0.7968
vn -0.0305 -0.9421 -0.3341
vn -0.3841 -0.7683 -0.5120
vn -0.1517 0.0386 -0.9877
usemtl Shape.9054
s off
f 13//1 5//1 14//1
f 2//2 3//2 4//2
f 2//2 4//2 6//2
f 4//3 5//3 6//3
f 3//4 2//4 7//4
f 2//5 6//5 7//5
f 6//6 5//6 7//6
f 4//7 3//7 9//7
f 3//8 7//8 9//8
f 8//9 1//9 10//9
f 1//10 9//10 10//10
f 9//11 7//11 10//11
f 1//12 8//12 11//12
f 8//13 4//13 11//13
f 4//14 9//14 11//14
f 9//15 1//15 11//15
f 5//3 4//3 12//3
f 4//16 8//16 12//16
f 7//17 5//17 13//17
f 10//18 7//18 13//18
f 8//19 10//19 14//19
f 5//20 12//20 14//20
f 12//21 8//21 14//21
f 10//22 13//22 14//22
