# Blender v2.79 (sub 0) OBJ File: ''
# www.blender.org
mtllib 102707_link_3_8.mtl
o Shape_IndexedFaceSet.008_Shape_IndexedFaceSet.6271
v 0.175750 0.116056 0.052512
v 0.156731 0.104176 0.042999
v 0.156731 0.101802 0.045380
v 0.204259 0.104176 0.042999
v 0.156731 0.089921 0.090517
v 0.204259 0.111303 0.090517
v 0.156731 0.104176 0.090517
v 0.201882 0.097051 0.090517
v 0.204259 0.116056 0.042999
v 0.156731 0.116056 0.045380
v 0.159108 0.089921 0.085768
vn 0.1555 -0.9848 0.0778
vn 0.0000 -0.7081 -0.7061
vn -1.0000 0.0000 0.0000
vn 0.0000 0.0000 1.0000
vn 0.9861 -0.1645 0.0247
vn 0.0000 0.0000 -1.0000
vn 0.0332 0.9945 0.0995
vn 1.0000 0.0000 0.0000
vn -0.0642 0.9832 0.1711
vn -0.1435 0.9571 0.2519
vn -0.0491 0.1963 -0.9793
vn 0.0000 1.0000 0.0000
vn 0.0336 -0.9583 -0.2839
vn -0.4533 -0.8620 -0.2269
vn 0.1777 -0.9745 -0.1372
usemtl Shape.6275
s off
f 8//1 5//1 11//1
f 3//2 2//2 4//2
f 2//3 3//3 5//3
f 5//4 6//4 7//4
f 2//3 5//3 7//3
f 4//5 6//5 8//5
f 6//4 5//4 8//4
f 4//6 2//6 9//6
f 1//7 6//7 9//7
f 6//8 4//8 9//8
f 6//9 1//9 10//9
f 7//10 6//10 10//10
f 2//3 7//3 10//3
f 9//11 2//11 10//11
f 1//12 9//12 10//12
f 3//13 4//13 11//13
f 5//14 3//14 11//14
f 4//15 8//15 11//15
