# Blender v2.79 (sub 0) OBJ File: ''
# www.blender.org
mtllib 102707_link_4_4.mtl
o Shape_IndexedFaceSet.004_Shape_IndexedFaceSet.9051
v 0.269798 0.671402 -0.190818
v 0.253059 0.464347 -0.210052
v -0.298468 0.663174 -0.209970
v -0.254589 0.464334 -0.210055
v -0.180043 0.651837 -0.171269
v 0.106755 0.462801 -0.177787
v 0.302672 0.656577 -0.209916
v 0.171996 0.651837 -0.171269
v -0.134385 0.469329 -0.177787
v -0.088728 0.625764 -0.164747
v -0.271296 0.625764 -0.184309
v 0.224141 0.469329 -0.190818
v -0.271296 0.671402 -0.190818
v 0.289383 0.619236 -0.190818
v 0.204557 0.677930 -0.203858
v -0.245224 0.462801 -0.197340
v 0.165448 0.658365 -0.171269
v -0.290881 0.619236 -0.190818
vn -0.2767 -0.1205 0.9534
vn 0.0000 0.0004 -1.0000
vn 0.0001 0.0007 -1.0000
vn -0.0022 -0.0824 0.9966
vn 0.0294 -0.0446 0.9986
vn -0.0874 -0.0574 0.9945
vn -0.1226 -0.0660 0.9903
vn 0.0932 -0.9208 0.3787
vn 0.1141 -0.0735 0.9907
vn -0.1789 0.1389 0.9740
vn 0.5603 0.2104 0.8011
vn 0.9521 -0.2459 0.1818
vn 0.1824 0.0685 0.9808
vn 0.5129 -0.2232 0.8289
vn 0.1467 -0.0638 0.9871
vn 0.1707 0.8987 -0.4039
vn 0.0032 0.2867 -0.9580
vn 0.0000 0.8942 0.4476
vn -0.0228 0.9299 -0.3671
vn 0.0000 -0.9928 -0.1197
vn 0.0021 -0.9993 -0.0382
vn -0.0243 -0.8987 0.4379
vn -0.1668 -0.1051 0.9804
vn 0.1620 0.1625 0.9733
vn -0.0043 0.2284 0.9736
vn 0.0227 0.0228 0.9995
vn 0.0000 0.8320 0.5548
vn -0.0128 0.6763 0.7365
vn -0.9709 -0.2142 -0.1068
vn -0.6061 0.2276 0.7621
vn -0.3520 0.1322 0.9266
vn -0.7931 -0.2545 0.5534
usemtl Shape.9058
s off
f 16//1 11//1 18//1
f 3//2 2//2 4//2
f 2//3 3//3 7//3
f 9//4 6//4 10//4
f 6//5 8//5 10//5
f 5//6 9//6 10//6
f 9//7 5//7 11//7
f 6//8 2//8 12//8
f 8//9 6//9 12//9
f 11//10 5//10 13//10
f 7//11 1//11 14//11
f 2//12 7//12 14//12
f 1//13 8//13 14//13
f 12//14 2//14 14//14
f 8//15 12//15 14//15
f 1//16 7//16 15//16
f 7//17 3//17 15//17
f 13//18 1//18 15//18
f 3//19 13//19 15//19
f 4//20 2//20 16//20
f 2//21 6//21 16//21
f 6//22 9//22 16//22
f 9//23 11//23 16//23
f 8//24 1//24 17//24
f 5//25 10//25 17//25
f 10//26 8//26 17//26
f 1//27 13//27 17//27
f 13//28 5//28 17//28
f 3//29 4//29 18//29
f 13//30 3//30 18//30
f 11//31 13//31 18//31
f 4//32 16//32 18//32
