# Blender v2.79 (sub 0) OBJ File: ''
# www.blender.org
mtllib 102707_link_2_38.mtl
o Shape_IndexedFaceSet.038_Shape_IndexedFaceSet.1406
v 0.214771 0.105854 -0.038496
v 0.241591 0.118048 0.010277
v 0.241591 0.105854 0.010277
v 0.200133 0.130242 -0.026302
v 0.226953 0.105854 0.010277
v 0.212332 0.130242 -0.038496
v 0.222075 0.130242 0.010277
v 0.200133 0.105854 -0.031181
v 0.239152 0.130242 0.007835
v 0.201042 0.129707 -0.039863
v 0.229392 0.113171 -0.016549
v 0.207454 0.105854 -0.043375
vn -0.8473 -0.1529 -0.5087
vn 0.0000 -1.0000 0.0000
vn 0.0000 0.0000 1.0000
vn 0.0000 1.0000 0.0000
vn -0.8530 -0.1024 0.5117
vn -0.8280 -0.1656 0.5357
vn 0.1381 0.2210 0.9655
vn -0.0422 0.9982 -0.0422
vn -0.9976 0.0135 -0.0674
vn 0.8380 -0.2923 -0.4608
vn 0.9103 0.0000 -0.4140
vn 0.8167 0.0817 -0.5713
vn 0.8996 0.0946 -0.4263
vn 0.8451 0.2156 -0.4892
vn 0.5539 0.0554 -0.8307
vn 0.1103 0.1737 -0.9786
usemtl Shape.1424
s off
f 8//1 10//1 12//1
f 1//2 3//2 5//2
f 3//3 2//3 5//3
f 6//4 4//4 7//4
f 5//3 2//3 7//3
f 1//2 5//2 8//2
f 7//5 4//5 8//5
f 5//6 7//6 8//6
f 6//4 7//4 9//4
f 7//7 2//7 9//7
f 4//8 6//8 10//8
f 8//9 4//9 10//9
f 3//10 1//10 11//10
f 2//11 3//11 11//11
f 1//12 6//12 11//12
f 9//13 2//13 11//13
f 6//14 9//14 11//14
f 6//15 1//15 12//15
f 1//2 8//2 12//2
f 10//16 6//16 12//16
