# Blender v2.79 (sub 0) OBJ File: ''
# www.blender.org
mtllib 102707_link_3_72.mtl
o Shape_IndexedFaceSet.072_Shape_IndexedFaceSet.6335
v 0.092573 0.068533 0.639480
v 0.092573 0.080409 0.639480
v 0.049794 0.068533 0.720270
v 0.116326 0.082790 0.646614
v 0.049794 0.082790 0.684612
v 0.073572 0.078035 0.708376
v 0.135328 0.063778 0.641861
v 0.049794 0.066159 0.691745
v 0.113942 0.073284 0.675130
v 0.090198 0.066159 0.698870
v 0.052186 0.082790 0.706004
v 0.137711 0.073284 0.639480
v 0.099691 0.063778 0.639480
v 0.056936 0.066159 0.717882
v 0.049794 0.070908 0.682240
v 0.092431 0.083936 0.674558
v 0.111567 0.063778 0.672750
v 0.059312 0.075660 0.720270
v 0.118701 0.082790 0.639480
v 0.128202 0.066159 0.658492
vn 0.5192 -0.7011 0.4887
vn -1.0000 0.0000 0.0000
vn 0.6268 0.3029 0.7179
vn -0.9575 0.2678 0.1071
vn 0.0000 0.0000 -1.0000
vn 0.4712 0.8242 0.3141
vn 0.0644 -0.2576 -0.9641
vn -0.2904 -0.9536 0.0794
vn -0.0371 -0.9993 0.0101
vn -0.7070 0.0000 -0.7073
vn -0.7153 0.1368 -0.6853
vn -0.4949 -0.7409 -0.4540
vn -0.4549 -0.7966 -0.3980
vn 0.4041 0.8360 0.3712
vn 0.4138 0.8527 0.3189
vn -0.0262 0.9997 0.0029
vn 0.1810 0.9468 0.2661
vn 0.0000 -1.0000 0.0000
vn 0.0960 -0.9811 0.1680
vn -0.0336 -0.9994 0.0120
vn 0.6009 0.2281 0.7660
vn -0.4912 0.6559 0.5732
vn 0.1613 0.9127 0.3756
vn 0.2160 -0.2885 0.9328
vn 0.4695 -0.3239 0.8214
vn -0.0899 0.9864 -0.1372
vn 0.4424 0.8847 0.1473
vn 0.0783 0.9966 0.0261
vn -0.0419 0.9971 -0.0639
vn 0.7209 -0.1416 0.6785
vn 0.9053 -0.1253 0.4058
vn 0.7804 0.3469 0.5203
vn 0.3712 -0.8836 0.2856
usemtl Shape.6339
s off
f 10//1 17//1 20//1
f 3//2 5//2 8//2
f 9//3 6//3 10//3
f 5//4 3//4 11//4
f 1//5 2//5 12//5
f 4//6 9//6 12//6
f 1//5 12//5 13//5
f 12//7 7//7 13//7
f 3//8 8//8 14//8
f 8//9 13//9 14//9
f 2//10 1//10 15//10
f 5//11 2//11 15//11
f 8//2 5//2 15//2
f 1//12 13//12 15//12
f 13//13 8//13 15//13
f 6//14 9//14 16//14
f 9//15 4//15 16//15
f 5//16 11//16 16//16
f 11//17 6//17 16//17
f 13//18 7//18 17//18
f 10//19 14//19 17//19
f 14//20 13//20 17//20
f 10//21 6//21 18//21
f 11//22 3//22 18//22
f 6//23 11//23 18//23
f 3//24 14//24 18//24
f 14//25 10//25 18//25
f 2//26 5//26 19//26
f 12//5 2//5 19//5
f 4//27 12//27 19//27
f 16//28 4//28 19//28
f 5//29 16//29 19//29
f 9//30 10//30 20//30
f 7//31 12//31 20//31
f 12//32 9//32 20//32
f 17//33 7//33 20//33
