# Blender v2.79 (sub 0) OBJ File: ''
# www.blender.org
mtllib 102707_link_1_29.mtl
o Shape_IndexedFaceSet.029_Shape_IndexedFaceSet.4486
v -0.423708 0.708367 -0.557773
v -0.329108 0.725796 -0.557773
v -0.329108 0.666053 -0.557773
v -0.329108 0.725796 -0.570219
v -0.373932 0.666053 -0.570219
v -0.423708 0.666053 -0.547813
v -0.403801 0.725796 -0.547813
v -0.391352 0.725796 -0.567725
v -0.329108 0.666053 -0.570219
v -0.400801 0.663066 -0.546693
v -0.427234 0.724917 -0.548143
v -0.411259 0.666053 -0.560258
v -0.371446 0.720813 -0.570219
v -0.423708 0.725796 -0.557773
vn -0.9390 0.0000 -0.3438
vn 1.0000 0.0000 0.0000
vn 0.0000 1.0000 0.0000
vn 0.0000 0.0000 -1.0000
vn 0.0000 -0.9920 -0.1260
vn 0.1527 0.0000 0.9883
vn 0.1321 0.0240 0.9909
vn 0.0416 -0.9991 0.0000
vn -0.0147 0.0171 0.9997
vn -0.9660 -0.0593 -0.2518
vn -0.0485 0.0027 0.9988
vn -0.6974 -0.1642 -0.6976
vn -0.2809 -0.0263 -0.9594
vn -0.2577 -0.0348 -0.9656
vn -0.0479 -0.9826 -0.1795
vn -0.1224 -0.9849 -0.1225
vn -0.0379 0.3220 -0.9460
vn -0.1229 0.0056 -0.9924
vn -0.2940 0.0000 -0.9558
vn -0.0385 0.9963 0.0769
usemtl Shape.4491
s off
f 1//1 11//1 14//1
f 2//2 3//2 4//2
f 2//3 4//3 7//3
f 7//3 4//3 8//3
f 4//2 3//2 9//2
f 5//4 4//4 9//4
f 5//5 9//5 10//5
f 3//6 2//6 10//6
f 2//7 7//7 10//7
f 9//8 3//8 10//8
f 10//9 7//9 11//9
f 1//10 6//10 11//10
f 6//11 10//11 11//11
f 6//12 1//12 12//12
f 1//13 8//13 12//13
f 8//14 5//14 12//14
f 5//15 10//15 12//15
f 10//16 6//16 12//16
f 4//4 5//4 13//4
f 8//17 4//17 13//17
f 5//18 8//18 13//18
f 7//3 8//3 14//3
f 8//19 1//19 14//19
f 11//20 7//20 14//20
