# Blender v2.79 (sub 0) OBJ File: ''
# www.blender.org
mtllib 102707_link_4_69.mtl
o Shape_IndexedFaceSet.069_Shape_IndexedFaceSet.9116
v -0.056172 -0.443522 0.669863
v 0.009032 -0.430483 0.728546
v 0.009032 -0.254478 0.708985
v -0.056172 -0.254478 0.702459
v 0.009032 -0.254478 0.669863
v -0.056172 -0.254478 0.650302
v -0.049643 -0.450050 0.722020
v 0.009032 -0.443522 0.689424
v -0.049643 -0.332726 0.650302
vn 0.4245 -0.0932 -0.9006
vn -0.0990 0.1099 0.9890
vn 1.0000 0.0000 0.0000
vn 0.0000 1.0000 0.0000
vn -1.0000 -0.0000 0.0000
vn -0.1409 0.0939 0.9856
vn -0.9924 -0.0210 0.1216
vn 0.2707 -0.9133 0.3044
vn 0.0387 -0.9909 -0.1289
vn -0.7768 -0.0648 -0.6264
vn 0.2873 0.0240 -0.9576
vn 0.2825 -0.1829 -0.9417
usemtl Shape.9123
s off
f 5//1 8//1 9//1
f 2//2 3//2 4//2
f 3//3 2//3 5//3
f 4//4 3//4 5//4
f 1//5 4//5 6//5
f 4//4 5//4 6//4
f 2//6 4//6 7//6
f 4//7 1//7 7//7
f 5//3 2//3 8//3
f 2//8 7//8 8//8
f 7//9 1//9 8//9
f 1//10 6//10 9//10
f 6//11 5//11 9//11
f 8//12 1//12 9//12
