# Blender v2.79 (sub 0) OBJ File: ''
# www.blender.org
mtllib 102707_link_3_90.mtl
o Shape_IndexedFaceSet.090_Shape_IndexedFaceSet.6353
v -0.092788 0.066155 0.698882
v -0.085661 0.078037 0.694131
v -0.085661 0.078037 0.691754
v -0.097543 0.073282 0.694131
v -0.085661 0.066155 0.691754
vn -0.1962 0.0000 -0.9806
vn -0.3715 0.9284 0.0000
vn -0.1832 0.4577 0.8700
vn -0.5145 -0.6861 -0.5144
vn 0.7002 -0.1401 0.7001
vn 1.0000 0.0000 0.0000
usemtl Shape.6357
s off
f 4//1 3//1 5//1
f 2//2 3//2 4//2
f 1//3 2//3 4//3
f 1//4 4//4 5//4
f 2//5 1//5 5//5
f 3//6 2//6 5//6
