# Blender v2.79 (sub 0) OBJ File: ''
# www.blender.org
mtllib 102707_link_3_2.mtl
o Shape_IndexedFaceSet.002_Shape_IndexedFaceSet.6265
v 0.156731 0.101796 0.090522
v -0.130812 0.101796 0.045380
v -0.057125 0.099426 0.047757
v -0.088030 0.082793 0.088145
v -0.130812 0.101796 0.088145
v 0.156731 0.113679 0.045380
v 0.123434 0.085170 0.088145
v -0.130812 0.113679 0.054885
v 0.156731 0.101796 0.045380
v 0.156731 0.108924 0.073888
v -0.130812 0.087547 0.090522
v -0.064246 0.116059 0.045380
v 0.085436 0.082793 0.088145
v 0.156731 0.089924 0.090522
v 0.156731 0.113679 0.057263
v 0.147218 0.104174 0.088145
v -0.130812 0.099426 0.090522
v -0.130812 0.113679 0.045380
v -0.038126 0.097052 0.052512
v -0.130812 0.104174 0.083389
v 0.128191 0.116059 0.045380
v -0.126055 0.085170 0.088145
v 0.054532 0.099426 0.047757
vn 0.0040 -0.9236 -0.3834
vn -0.0169 -0.9199 -0.3918
vn -1.0000 0.0000 0.0000
vn 0.0000 -0.7081 -0.7061
vn 0.0000 0.0000 -1.0000
vn 1.0000 0.0000 0.0000
vn 0.0591 -0.9451 -0.3214
vn -0.0000 -0.4472 0.8944
vn 0.0028 -0.3415 0.9399
vn 0.1544 -0.9555 -0.2513
vn 0.0000 0.0000 1.0000
vn 0.0416 -0.6642 0.7464
vn -0.0023 0.9614 0.2750
vn -0.0019 0.9731 0.2303
vn 0.1302 0.9113 0.3905
vn -0.0050 0.9497 0.3131
vn -0.0057 0.6954 0.7186
vn -0.0061 0.7081 0.7061
vn -0.0357 0.9994 0.0000
vn 0.0000 -0.9284 -0.3715
vn -0.0076 0.8944 0.4472
vn -0.0054 0.9486 0.3163
vn 0.0831 0.9965 0.0000
vn -0.0000 0.9805 0.1964
vn -0.0583 -0.9326 -0.3561
vn -0.5312 -0.8080 -0.2550
vn -0.0470 -0.7518 0.6577
vn 0.0000 -0.7082 -0.7061
vn 0.0123 -0.9212 -0.3888
vn 0.0000 -0.8947 -0.4467
usemtl Shape.6269
s off
f 13//1 19//1 23//1
f 2//2 3//2 4//2
f 2//3 5//3 8//3
f 3//4 2//4 9//4
f 2//5 6//5 9//5
f 6//6 1//6 9//6
f 1//6 6//6 10//6
f 5//3 2//3 11//3
f 6//5 2//5 12//5
f 9//7 7//7 13//7
f 11//8 4//8 13//8
f 11//9 13//9 14//9
f 9//6 1//6 14//6
f 7//10 9//10 14//10
f 1//11 11//11 14//11
f 13//12 7//12 14//12
f 10//6 6//6 15//6
f 8//13 10//13 15//13
f 12//14 8//14 15//14
f 1//15 10//15 16//15
f 10//16 8//16 16//16
f 11//11 1//11 17//11
f 5//3 11//3 17//3
f 1//17 16//17 17//17
f 16//18 5//18 17//18
f 2//3 8//3 18//3
f 12//5 2//5 18//5
f 8//19 12//19 18//19
f 4//2 3//2 19//2
f 13//20 4//20 19//20
f 8//3 5//3 20//3
f 5//21 16//21 20//21
f 16//22 8//22 20//22
f 6//5 12//5 21//5
f 15//23 6//23 21//23
f 12//24 15//24 21//24
f 2//25 4//25 22//25
f 11//26 2//26 22//26
f 4//27 11//27 22//27
f 3//28 9//28 23//28
f 9//29 13//29 23//29
f 19//30 3//30 23//30
