# Blender v2.79 (sub 0) OBJ File: ''
# www.blender.org
mtllib 102707_link_4_102.mtl
o Shape_IndexedFaceSet.102_Shape_IndexedFaceSet.9149
v 0.348098 0.469335 -0.516818
v 0.398744 0.664554 -0.403342
v 0.386313 0.661878 -0.404847
v 0.380685 0.462780 -0.399486
v 0.413286 0.599689 -0.516818
v 0.387207 0.671411 -0.516818
v 0.341576 0.488879 -0.399486
v 0.393721 0.469335 -0.516818
v 0.413286 0.638797 -0.419047
v 0.367656 0.638797 -0.399486
v 0.413286 0.664875 -0.516818
v 0.374178 0.638797 -0.516818
v 0.341576 0.462780 -0.399486
v 0.406765 0.664875 -0.399486
vn 0.9775 0.2037 0.0543
vn -0.2191 0.9723 0.0810
vn 0.0000 0.0000 -1.0000
vn 0.0000 -0.9984 -0.0558
vn 0.9872 -0.1482 0.0593
vn 0.9803 -0.1705 0.0994
vn -0.7713 0.6346 0.0479
vn -0.0000 0.0000 1.0000
vn 1.0000 0.0000 0.0000
vn -0.9852 0.1516 -0.0800
vn -0.9274 0.3705 -0.0516
vn -0.9837 0.1711 -0.0547
vn -0.9985 0.0000 -0.0555
vn -0.2394 0.8728 0.4253
vn -0.0723 0.9951 0.0675
vn 0.8866 -0.1144 0.4481
vn -0.2874 0.4310 0.8554
vn 0.2431 0.9699 0.0135
usemtl Shape.9156
s off
f 9//1 11//1 14//1
f 3//2 2//2 6//2
f 5//3 1//3 6//3
f 4//4 1//4 8//4
f 1//3 5//3 8//3
f 8//5 5//5 9//5
f 4//6 8//6 9//6
f 3//7 6//7 10//7
f 7//8 4//8 10//8
f 5//3 6//3 11//3
f 9//9 5//9 11//9
f 6//3 1//3 12//3
f 1//10 7//10 12//10
f 10//11 6//11 12//11
f 7//12 10//12 12//12
f 1//4 4//4 13//4
f 4//8 7//8 13//8
f 7//13 1//13 13//13
f 2//14 3//14 14//14
f 6//15 2//15 14//15
f 4//16 9//16 14//16
f 3//17 10//17 14//17
f 10//8 4//8 14//8
f 11//18 6//18 14//18
