# Blender v2.79 (sub 0) OBJ File: ''
# www.blender.org
mtllib 102707_link_4_39.mtl
o Shape_IndexedFaceSet.039_Shape_IndexedFaceSet.9086
v 0.172051 -0.450050 0.591577
v 0.191595 -0.450050 0.350366
v 0.222236 -0.445866 0.356922
v 0.126418 -0.254478 0.545920
v 0.230723 -0.254478 0.383003
v 0.126418 -0.450050 0.578528
v 0.132933 -0.254478 0.630694
v 0.198110 -0.254478 0.350366
v 0.126418 -0.430483 0.656822
v 0.211149 -0.450050 0.467746
v 0.185070 -0.423955 0.350366
v 0.191595 -0.254478 0.506804
v 0.185070 -0.306650 0.350366
v 0.230723 -0.300121 0.350366
v 0.224188 -0.450050 0.402532
v 0.198110 -0.443522 0.519883
v 0.126418 -0.339236 0.545920
v 0.139458 -0.450050 0.650283
v 0.126418 -0.254478 0.630694
vn 0.0000 0.1468 0.9892
vn 0.0000 -1.0000 0.0000
vn 0.0000 1.0000 -0.0000
vn -1.0000 0.0000 0.0000
vn -0.9349 -0.2338 -0.2671
vn -0.0000 0.0000 -1.0000
vn 0.8997 0.0948 0.4260
vn -0.9141 0.2285 -0.3351
vn -0.9578 0.0000 -0.2873
vn 0.2163 -0.0564 -0.9747
vn 0.6313 0.4511 -0.6308
vn 0.1550 -0.9832 -0.0968
vn 0.9805 -0.0132 0.1960
vn 0.9970 -0.0602 -0.0482
vn 0.9987 -0.0293 0.0410
vn 0.8529 -0.4472 0.2693
vn 0.9703 0.0076 0.2417
vn 0.9367 0.0562 0.3456
vn 0.9521 0.0536 0.3009
vn -0.9636 -0.0754 -0.2563
vn 0.8717 0.0776 0.4839
vn -0.8002 -0.5819 0.1454
vn 0.5629 0.1009 0.8204
usemtl Shape.9093
s off
f 9//1 7//1 19//1
f 2//2 1//2 6//2
f 5//3 4//3 7//3
f 4//3 5//3 8//3
f 4//4 6//4 9//4
f 1//2 2//2 10//2
f 2//5 6//5 11//5
f 8//6 2//6 11//6
f 7//7 1//7 12//7
f 5//3 7//3 12//3
f 4//8 8//8 13//8
f 11//9 4//9 13//9
f 8//6 11//6 13//6
f 3//10 2//10 14//10
f 2//6 8//6 14//6
f 8//11 5//11 14//11
f 2//12 3//12 15//12
f 10//2 2//2 15//2
f 5//13 10//13 15//13
f 3//14 14//14 15//14
f 14//15 5//15 15//15
f 1//16 10//16 16//16
f 10//17 5//17 16//17
f 12//18 1//18 16//18
f 5//19 12//19 16//19
f 6//4 4//4 17//4
f 11//20 6//20 17//20
f 4//9 11//9 17//9
f 6//2 1//2 18//2
f 1//21 7//21 18//21
f 9//22 6//22 18//22
f 7//23 9//23 18//23
f 7//3 4//3 19//3
f 4//4 9//4 19//4
