# Blender v2.79 (sub 0) OBJ File: ''
# www.blender.org
mtllib 102707_link_0_2.mtl
o Shape_IndexedFaceSet.002_Shape_IndexedFaceSet.3959
v -0.388316 0.515895 -0.450987
v -0.375003 0.534753 -0.419938
v -0.375560 0.536416 -0.417724
v -0.383324 0.536418 -0.480953
v -0.397743 0.536416 -0.442690
v -0.376668 0.518671 -0.454877
v -0.396635 0.530870 -0.477063
v -0.389424 0.523109 -0.425490
v -0.391643 0.536416 -0.414952
v -0.376114 0.519780 -0.435476
v -0.393305 0.518671 -0.460974
v -0.379443 0.525881 -0.471512
v -0.398297 0.536416 -0.478174
v -0.391089 0.518671 -0.436034
v -0.381106 0.536418 -0.478174
v -0.376668 0.528652 -0.421607
v -0.375003 0.522552 -0.440462
v -0.387205 0.519226 -0.463753
v -0.393862 0.525881 -0.473739
v -0.386099 0.516453 -0.440462
v -0.387762 0.534198 -0.414952
v -0.394416 0.520889 -0.460422
v -0.376668 0.517560 -0.446566
v -0.391643 0.516453 -0.445456
v -0.381106 0.523663 -0.470408
v -0.391089 0.525881 -0.423827
v -0.386097 0.521445 -0.427710
v -0.375003 0.523663 -0.428814
v -0.375003 0.535307 -0.422717
v -0.378887 0.518117 -0.457649
v -0.382770 0.533644 -0.479836
v -0.378887 0.528652 -0.469298
v -0.396635 0.528097 -0.472077
v -0.396080 0.535307 -0.480394
v -0.384989 0.526986 -0.421048
v -0.393305 0.522000 -0.468739
v -0.389424 0.518117 -0.434366
v -0.390535 0.516453 -0.455435
v -0.389978 0.526988 -0.421048
v -0.392751 0.517562 -0.450436
v -0.381660 0.528097 -0.475401
v -0.377224 0.534196 -0.417166
v -0.391643 0.520889 -0.433814
v -0.392751 0.536416 -0.418282
v -0.379443 0.521445 -0.465967
v -0.397743 0.535307 -0.446566
v -0.387205 0.536416 -0.413835
v -0.394970 0.531981 -0.478726
v -0.376668 0.519780 -0.457097
v -0.376668 0.523109 -0.428262
v -0.384433 0.518671 -0.433807
v -0.375560 0.519224 -0.447118
v -0.382214 0.516453 -0.448773
v -0.378333 0.517560 -0.441573
v -0.375003 0.529204 -0.422159
v -0.391643 0.518117 -0.461532
v -0.395526 0.524772 -0.470408
v -0.376114 0.536418 -0.431593
v -0.389424 0.515895 -0.444352
v -0.376114 0.522552 -0.451546
v -0.397189 0.536416 -0.439352
v -0.375003 0.520889 -0.434917
v -0.386099 0.517008 -0.457097
v -0.392197 0.518117 -0.443800
vn -0.9460 -0.2949 0.1343
vn -0.0001 1.0000 0.0000
vn -0.6793 -0.6319 0.3732
vn 1.0000 0.0000 0.0000
vn 0.9655 0.2555 0.0509
vn 0.3817 -0.9161 -0.1225
vn 0.7781 -0.0947 -0.6210
vn 0.8356 -0.1932 -0.5142
vn 0.9700 -0.0005 -0.2430
vn -0.9329 -0.3146 -0.1750
vn -0.0967 0.8484 -0.5204
vn -0.7450 -0.3384 -0.5749
vn -0.0080 -0.3749 -0.9270
vn 0.0381 -0.7714 0.6353
vn 0.0438 -0.8493 -0.5261
vn 0.0234 -0.7885 -0.6146
vn -0.6155 -0.6869 0.3863
vn -0.5037 -0.8338 0.2259
vn -0.1082 -0.8665 0.4873
vn -0.5471 -0.8349 -0.0607
vn -0.3165 -0.5538 0.7701
vn -0.7571 -0.4437 0.4795
vn -0.5847 -0.6458 0.4910
vn -0.0003 -0.7532 0.6577
vn -0.0003 -0.6456 0.7637
vn -0.8941 -0.4478 -0.0001
vn -0.5677 -0.8213 -0.0566
vn 0.4463 -0.6439 -0.6214
vn 0.0445 -0.7445 -0.6661
vn 0.7213 -0.3387 -0.6042
vn 0.1645 -0.5991 0.7836
vn 0.1734 -0.6051 0.7771
vn -0.8156 -0.4982 0.2943
vn -0.9048 -0.3012 0.3011
vn 0.5311 -0.6617 -0.5293
vn 0.1129 -0.8714 -0.4775
vn 0.5971 -0.7302 -0.3321
vn 0.1540 -0.9138 -0.3759
vn -0.9984 -0.0545 0.0156
vn -0.9820 -0.1884 0.0106
vn -0.9675 -0.2511 0.0289
vn -0.9546 -0.2864 0.0820
vn -0.9568 -0.2834 0.0651
vn -0.2245 -0.3928 0.8918
vn 0.3168 0.0010 0.9485
vn 0.1805 -0.4782 0.8595
vn -0.2890 -0.6369 -0.7148
vn -0.4093 -0.5145 -0.7535
vn -0.0193 -0.4533 -0.8911
vn 0.0092 -0.6319 -0.7750
vn 0.0137 -0.6227 -0.7823
vn 0.9786 -0.0342 -0.2029
vn 0.6655 -0.6677 -0.3335
vn 0.8368 -0.4276 -0.3420
vn 0.4072 -0.8170 0.4083
vn 0.1931 -0.7539 0.6279
vn 0.1720 -0.7712 0.6129
vn 0.0721 -0.9515 0.2991
vn 0.0526 -0.9035 0.4254
vn 0.2026 -0.8831 0.4231
vn 0.1808 -0.8757 0.4478
vn 0.8181 -0.5700 -0.0762
vn 0.9631 -0.2409 -0.1204
vn 0.2310 -0.9683 -0.0949
vn 0.4574 -0.8761 0.1525
vn 0.1814 -0.9434 0.2775
vn 0.1738 -0.9465 0.2719
vn 0.1506 -0.9861 0.0704
vn 0.1733 -0.9832 0.0578
vn 0.9325 -0.1343 0.3354
vn 0.6788 -0.3459 0.6478
vn 0.4207 -0.5411 0.7281
vn 0.4230 -0.6963 0.5799
vn 0.4238 -0.6961 0.5796
vn -0.4017 -0.8417 -0.3608
vn -0.0156 -0.8817 -0.4715
vn -0.3655 -0.9127 -0.1826
vn -0.5700 -0.6509 -0.5015
vn -0.8987 -0.4331 -0.0685
vn -0.8838 -0.4089 -0.2274
vn -0.9451 -0.3262 -0.0218
vn -0.6481 -0.6999 -0.3001
vn -0.5118 -0.7054 -0.4905
vn 0.0000 1.0000 0.0000
vn 0.8258 0.5629 -0.0329
vn 0.9815 0.1602 -0.1052
vn 0.9827 0.1532 -0.1038
vn -0.0001 1.0000 0.0001
vn 0.0000 1.0000 0.0001
vn -0.0899 -0.9722 0.2163
vn -0.3333 -0.9203 0.2048
vn -0.1851 -0.9822 -0.0309
vn -0.2317 -0.9724 -0.0257
vn 0.0859 -0.9962 0.0143
vn 0.1077 -0.9929 0.0504
vn 0.9856 0.1374 -0.0988
vn 0.9837 0.1473 -0.1031
vn 0.9891 0.0662 -0.1318
vn 0.9945 0.0329 -0.0997
vn 0.9938 0.0201 -0.1092
vn -0.9465 -0.2820 0.1571
vn -0.9443 -0.2704 0.1875
vn -0.9464 -0.2542 0.1993
vn 0.6730 -0.7310 0.1127
vn 0.5738 -0.7456 0.3389
vn 0.8373 -0.5456 0.0362
vn 0.9941 -0.1040 -0.0312
vn 0.1185 -0.9360 -0.3316
vn 0.0649 -0.9856 -0.1560
vn 0.1367 -0.9821 -0.1293
vn 0.1409 -0.9813 -0.1312
vn 0.0723 -0.9426 -0.3261
vn 0.0206 -0.9636 -0.2667
vn -0.8792 -0.4496 0.1575
vn -0.9501 -0.2942 0.1039
vn -0.9051 -0.4108 0.1099
vn -0.9096 -0.3846 0.1572
usemtl Shape.3962
s off
f 43//1 5//1 64//1
f 5//2 4//2 13//2
f 14//3 8//3 26//3
f 17//4 2//4 28//4
f 3//5 2//5 29//5
f 2//4 17//4 29//4
f 6//6 23//6 30//6
f 4//7 15//7 31//7
f 15//8 12//8 31//8
f 12//9 15//9 32//9
f 13//10 7//10 33//10
f 13//11 4//11 34//11
f 7//12 13//12 34//12
f 4//13 31//13 34//13
f 8//14 27//14 35//14
f 25//15 18//15 36//15
f 19//16 25//16 36//16
f 8//17 14//17 37//17
f 14//18 24//18 37//18
f 27//19 8//19 37//19
f 24//20 11//20 38//20
f 21//21 9//21 39//21
f 9//22 26//22 39//22
f 26//23 8//23 39//23
f 8//24 35//24 39//24
f 35//25 21//25 39//25
f 22//26 11//26 40//26
f 11//27 24//27 40//27
f 12//28 25//28 41//28
f 25//29 19//29 41//29
f 31//30 12//30 41//30
f 21//31 35//31 42//31
f 35//32 16//32 42//32
f 14//33 26//33 43//33
f 26//34 9//34 44//34
f 25//35 12//35 45//35
f 18//36 25//36 45//36
f 6//37 30//37 45//37
f 30//38 18//38 45//38
f 5//39 13//39 46//39
f 13//40 33//40 46//40
f 33//41 22//41 46//41
f 40//42 5//42 46//42
f 22//43 40//43 46//43
f 9//44 21//44 47//44
f 42//45 3//45 47//45
f 21//46 42//46 47//46
f 19//47 7//47 48//47
f 7//48 34//48 48//48
f 34//49 31//49 48//49
f 41//50 19//50 48//50
f 31//51 41//51 48//51
f 12//52 32//52 49//52
f 6//53 45//53 49//53
f 45//54 12//54 49//54
f 10//55 28//55 50//55
f 16//56 35//56 50//56
f 35//57 27//57 50//57
f 37//58 20//58 51//58
f 27//59 37//59 51//59
f 10//60 50//60 51//60
f 50//61 27//61 51//61
f 23//62 6//62 52//62
f 6//63 49//63 52//63
f 30//64 23//64 53//64
f 23//65 10//65 54//65
f 10//66 51//66 54//66
f 51//67 20//67 54//67
f 20//68 53//68 54//68
f 53//69 23//69 54//69
f 2//70 3//70 55//70
f 28//4 2//4 55//4
f 3//71 42//71 55//71
f 42//72 16//72 55//72
f 16//73 50//73 55//73
f 50//74 28//74 55//74
f 11//75 36//75 56//75
f 36//76 18//76 56//76
f 38//77 11//77 56//77
f 7//78 19//78 57//78
f 11//79 22//79 57//79
f 33//80 7//80 57//80
f 22//81 33//81 57//81
f 36//82 11//82 57//82
f 19//83 36//83 57//83
f 4//2 5//2 58//2
f 15//84 4//84 58//84
f 3//85 29//85 58//85
f 32//86 15//86 58//86
f 29//87 32//87 58//87
f 44//88 9//88 58//88
f 47//89 3//89 58//89
f 9//89 47//89 58//89
f 20//90 37//90 59//90
f 37//91 24//91 59//91
f 38//92 1//92 59//92
f 24//93 38//93 59//93
f 1//94 53//94 59//94
f 53//95 20//95 59//95
f 29//96 17//96 60//96
f 32//97 29//97 60//97
f 49//98 32//98 60//98
f 17//99 52//99 60//99
f 52//100 49//100 60//100
f 5//101 43//101 61//101
f 43//102 26//102 61//102
f 26//103 44//103 61//103
f 58//2 5//2 61//2
f 44//2 58//2 61//2
f 10//104 23//104 62//104
f 17//4 28//4 62//4
f 28//105 10//105 62//105
f 23//106 52//106 62//106
f 52//107 17//107 62//107
f 18//108 30//108 63//108
f 1//109 38//109 63//109
f 53//110 1//110 63//110
f 30//111 53//111 63//111
f 56//112 18//112 63//112
f 38//113 56//113 63//113
f 24//114 14//114 64//114
f 5//115 40//115 64//115
f 40//116 24//116 64//116
f 14//117 43//117 64//117
