# Blender v2.79 (sub 0) OBJ File: ''
# www.blender.org
mtllib 102707_link_4_35.mtl
o Shape_IndexedFaceSet.035_Shape_IndexedFaceSet.9082
v -0.095281 -0.254478 0.219948
v -0.173538 -0.450050 0.193887
v -0.173538 -0.450050 0.232990
v 0.016565 -0.451053 0.185748
v -0.139231 -0.245385 0.164166
v -0.175185 -0.252714 0.246746
v 0.011870 -0.439628 0.166587
v -0.082253 -0.254478 0.167803
v -0.088758 -0.443522 0.167803
v -0.173538 -0.254478 0.200404
v -0.166997 -0.430483 0.239507
v -0.160492 -0.280573 0.246040
vn 0.2751 -0.0538 0.9599
vn -0.0053 -1.0000 0.0000
vn -1.0000 -0.0083 0.0000
vn 0.0602 0.9916 0.1142
vn 0.0704 0.0423 -0.9966
vn 0.8643 0.4542 0.2159
vn 0.1551 0.9871 0.0387
vn 0.8904 0.4523 0.0515
vn -0.0177 -0.9548 -0.2966
vn -0.2865 -0.0905 -0.9538
vn 0.0269 -0.8557 -0.5168
vn -0.0113 -0.0212 -0.9997
vn -0.7289 0.0228 -0.6843
vn -0.9994 0.0012 -0.0356
vn -0.3020 0.9522 -0.0470
vn 0.2218 -0.3741 0.9005
vn -0.6083 -0.0602 0.7914
vn -0.0319 -0.0421 0.9986
vn 0.3571 0.0408 0.9332
vn 0.3175 0.1437 0.9373
usemtl Shape.9089
s off
f 11//1 4//1 12//1
f 3//2 2//2 4//2
f 2//3 3//3 6//3
f 1//4 5//4 6//4
f 7//5 5//5 8//5
f 1//6 4//6 8//6
f 5//7 1//7 8//7
f 4//8 7//8 8//8
f 4//9 2//9 9//9
f 2//10 5//10 9//10
f 7//11 4//11 9//11
f 5//12 7//12 9//12
f 5//13 2//13 10//13
f 2//14 6//14 10//14
f 6//15 5//15 10//15
f 3//16 4//16 11//16
f 6//17 3//17 11//17
f 6//18 11//18 12//18
f 4//19 1//19 12//19
f 1//20 6//20 12//20
