# Blender v2.79 (sub 0) OBJ File: ''
# www.blender.org
mtllib 102707_link_3_33.mtl
o Shape_IndexedFaceSet.033_Shape_IndexedFaceSet.6296
v -0.254386 0.118431 0.568181
v -0.256765 0.097048 0.325837
v -0.256765 0.097048 0.373356
v -0.275772 0.118431 0.463604
v -0.275772 0.101804 0.568181
v -0.275772 0.113679 0.325837
v -0.254386 0.111303 0.342467
v -0.254386 0.106556 0.568181
v -0.275772 0.101804 0.325837
v -0.275772 0.118431 0.561016
v -0.263892 0.113679 0.325837
v -0.254386 0.099428 0.427994
v -0.254386 0.118431 0.534872
vn 0.3000 0.9533 -0.0353
vn -0.2427 -0.9701 0.0000
vn -1.0000 -0.0000 0.0000
vn 0.0000 0.0000 1.0000
vn 1.0000 0.0000 0.0000
vn 0.0000 0.0000 -1.0000
vn -0.0000 1.0000 0.0000
vn -0.2941 0.3782 0.8778
vn 0.0000 0.9994 -0.0345
vn 0.8321 0.3566 -0.4247
vn 0.7072 -0.7070 0.0000
vn 0.1344 -0.9902 0.0373
vn 0.9897 -0.1421 -0.0197
vn 0.2166 -0.9750 0.0496
vn 0.0889 0.9957 -0.0267
usemtl Shape.6300
s off
f 7//1 11//1 13//1
f 2//2 3//2 5//2
f 5//3 4//3 6//3
f 1//4 5//4 8//4
f 7//5 1//5 8//5
f 2//2 5//2 9//2
f 6//6 2//6 9//6
f 5//3 6//3 9//3
f 1//7 4//7 10//7
f 5//8 1//8 10//8
f 4//3 5//3 10//3
f 2//6 6//6 11//6
f 6//9 4//9 11//9
f 7//10 2//10 11//10
f 3//11 2//11 12//11
f 5//12 3//12 12//12
f 2//13 7//13 12//13
f 7//5 8//5 12//5
f 8//14 5//14 12//14
f 4//7 1//7 13//7
f 1//5 7//5 13//5
f 11//15 4//15 13//15
