# Blender v2.79 (sub 0) OBJ File: ''
# www.blender.org
mtllib 102707_link_4_96.mtl
o Shape_IndexedFaceSet.096_Shape_IndexedFaceSet.9143
v -0.414791 0.606203 -0.490749
v -0.388187 0.663204 -0.410633
v -0.382189 0.462780 -0.406018
v -0.349588 0.482364 -0.523350
v -0.375679 0.658361 -0.523350
v -0.349588 0.501929 -0.406018
v -0.388700 0.462780 -0.523350
v -0.414791 0.658361 -0.523350
v -0.369156 0.638797 -0.406018
v -0.414791 0.645332 -0.425570
v -0.349588 0.462780 -0.406018
v -0.388700 0.462780 -0.432094
v -0.408268 0.664875 -0.406018
vn -0.9586 0.2823 0.0376
vn 0.0000 0.0000 -1.0000
vn -0.9698 -0.1294 -0.2070
vn 0.7816 0.6208 0.0601
vn 0.9887 0.1466 -0.0305
vn 0.0000 0.0000 1.0000
vn 0.9897 0.1415 -0.0236
vn -1.0000 0.0000 0.0000
vn 1.0000 0.0000 0.0000
vn 0.0000 -1.0000 0.0000
vn 0.4428 -0.8844 -0.1476
vn -0.9839 -0.1790 0.0000
vn -0.9599 -0.1458 0.2397
vn -0.9858 -0.1440 0.0864
vn 0.0750 0.9966 -0.0345
vn 0.0000 0.9985 -0.0554
vn 0.2373 0.3560 0.9039
vn -0.9014 -0.1163 0.4170
usemtl Shape.9150
s off
f 8//1 10//1 13//1
f 5//2 4//2 7//2
f 5//2 7//2 8//2
f 7//3 1//3 8//3
f 5//4 2//4 9//4
f 4//5 5//5 9//5
f 3//6 6//6 9//6
f 6//7 4//7 9//7
f 8//8 1//8 10//8
f 6//6 3//6 11//6
f 4//9 6//9 11//9
f 3//10 7//10 11//10
f 7//11 4//11 11//11
f 1//12 7//12 12//12
f 7//10 3//10 12//10
f 3//13 10//13 12//13
f 10//14 1//14 12//14
f 2//15 5//15 13//15
f 5//16 8//16 13//16
f 9//17 2//17 13//17
f 3//6 9//6 13//6
f 10//18 3//18 13//18
