# Blender v2.79 (sub 0) OBJ File: ''
# www.blender.org
mtllib 857_link_0_28.mtl
o Shape_IndexedFaceSet.028_Shape_IndexedFaceSet.4582
v -0.093933 0.125304 -0.248250
v -0.075717 0.104049 -0.319616
v -0.074195 0.104049 -0.319616
v -0.089379 0.104049 -0.226997
v -0.074195 0.142011 -0.226997
v -0.101530 0.104049 -0.284681
v -0.096973 0.114684 -0.226997
v -0.089379 0.108608 -0.304420
v -0.074195 0.131380 -0.228511
v -0.074195 0.104049 -0.299859
v -0.086345 0.137455 -0.228511
v -0.075717 0.119240 -0.290747
v -0.098488 0.104049 -0.233063
v -0.093933 0.128344 -0.226997
v -0.096973 0.105572 -0.299859
v -0.101530 0.108608 -0.260400
v -0.077237 0.140491 -0.233063
v -0.089379 0.117720 -0.281644
v -0.100007 0.111648 -0.272549
vn -0.9220 0.3867 -0.0188
vn 0.0000 -1.0000 0.0000
vn 0.0000 0.0000 1.0000
vn 0.3324 -0.1330 0.9337
vn 1.0000 0.0000 0.0000
vn 0.8641 -0.4701 0.1801
vn 0.0000 0.8850 -0.4657
vn 0.8981 0.4070 -0.1668
vn -0.2173 0.8638 -0.4545
vn -0.5154 -0.3680 0.7739
vn -0.7726 0.6285 -0.0899
vn -0.2453 0.3542 0.9024
vn -0.2200 -0.9619 -0.1626
vn -0.5850 0.4640 -0.6652
vn -0.9526 -0.2990 0.0561
vn -0.9900 0.0714 0.1221
vn -0.9719 0.2163 0.0932
vn -0.3436 0.9370 -0.0625
vn 0.2054 0.9201 -0.3336
vn -0.3216 0.8857 -0.3348
vn -0.5782 0.7751 -0.2549
vn -0.3310 0.8761 -0.3505
vn -0.6019 0.7571 -0.2540
vn -0.5109 0.7982 -0.3193
vn -0.4308 0.8537 -0.2925
vn -0.8565 0.5110 -0.0731
vn -0.8447 0.4949 -0.2039
vn -0.6664 0.7087 -0.2317
vn -0.9601 0.2748 -0.0516
usemtl Shape.4591
s off
f 16//1 14//1 19//1
f 2//2 3//2 4//2
f 2//2 4//2 6//2
f 4//3 5//3 7//3
f 5//4 4//4 9//4
f 3//5 5//5 9//5
f 4//2 3//2 10//2
f 3//5 9//5 10//5
f 9//6 4//6 10//6
f 3//7 2//7 12//7
f 5//8 3//8 12//8
f 2//9 8//9 12//9
f 6//2 4//2 13//2
f 4//10 7//10 13//10
f 7//3 5//3 14//3
f 11//11 1//11 14//11
f 5//12 11//12 14//12
f 2//13 6//13 15//13
f 8//14 2//14 15//14
f 6//15 13//15 16//15
f 13//16 7//16 16//16
f 7//17 14//17 16//17
f 11//18 5//18 17//18
f 5//19 12//19 17//19
f 17//20 12//20 18//20
f 1//21 11//21 18//21
f 12//22 8//22 18//22
f 15//23 1//23 18//23
f 8//24 15//24 18//24
f 11//25 17//25 18//25
f 14//26 1//26 19//26
f 15//27 6//27 19//27
f 1//28 15//28 19//28
f 6//29 16//29 19//29
