# Blender v2.79 (sub 0) OBJ File: ''
# www.blender.org
mtllib 857_link_0_89.mtl
o Shape_IndexedFaceSet.089_Shape_IndexedFaceSet.4643
v -0.069636 0.190609 -0.056885
v -0.052934 0.195167 -0.018933
v -0.057493 0.195167 -0.018933
v -0.052934 0.181499 -0.040195
v -0.063562 0.195167 -0.078153
v -0.071155 0.181499 -0.070554
v -0.052934 0.181499 -0.058403
v -0.071155 0.195167 -0.078153
v -0.063562 0.181499 -0.078153
v -0.065080 0.181499 -0.050810
v -0.052934 0.195167 -0.035639
v -0.066600 0.195167 -0.038677
vn -0.8972 -0.3448 0.2760
vn 0.0000 -0.8412 0.5407
vn 0.0000 1.0000 0.0000
vn 1.0000 0.0000 0.0000
vn 0.0000 -1.0000 0.0000
vn -0.9957 0.0449 0.0807
vn -0.6584 -0.3657 -0.6579
vn 0.8806 0.0000 -0.4739
vn 0.0000 0.0000 -1.0000
vn -0.3842 -0.8119 0.4396
vn 0.8995 0.3745 -0.2249
vn -0.9722 -0.1299 0.1946
vn -0.9734 0.1997 0.1123
vn -0.8209 -0.4274 0.3787
usemtl Shape.4652
s off
f 6//1 10//1 12//1
f 2//2 3//2 4//2
f 3//3 2//3 5//3
f 2//4 4//4 7//4
f 4//5 6//5 7//5
f 3//3 5//3 8//3
f 6//6 1//6 8//6
f 6//7 8//7 9//7
f 5//8 7//8 9//8
f 7//5 6//5 9//5
f 8//9 5//9 9//9
f 4//10 3//10 10//10
f 6//5 4//5 10//5
f 5//3 2//3 11//3
f 7//11 5//11 11//11
f 2//4 7//4 11//4
f 1//12 6//12 12//12
f 8//13 1//13 12//13
f 3//3 8//3 12//3
f 10//14 3//14 12//14
