# Blender v2.79 (sub 0) OBJ File: ''
# www.blender.org
mtllib 857_link_0_4.mtl
o Shape_IndexedFaceSet.004_Shape_IndexedFaceSet.4558
v 0.054889 0.154164 -0.096384
v -0.002819 0.120757 -0.143449
v -0.002819 0.120757 -0.140411
v -0.002819 0.154164 -0.103974
v 0.054889 0.135943 -0.141930
v -0.002819 0.151122 -0.091827
v 0.048811 0.123795 -0.141930
v -0.002819 0.129871 -0.143449
v 0.053370 0.154164 -0.113089
v 0.038180 0.152640 -0.091827
v 0.054889 0.125315 -0.143449
v -0.002819 0.154164 -0.090302
v 0.019968 0.120757 -0.141930
v 0.054889 0.151122 -0.097903
v -0.002819 0.138974 -0.129783
v 0.026035 0.152640 -0.090302
v -0.001299 0.154164 -0.105493
v 0.053370 0.145047 -0.128264
vn -0.0714 0.8550 -0.5137
vn -1.0000 0.0000 0.0000
vn 0.0000 1.0000 -0.0000
vn 0.9713 0.2208 -0.0883
vn 1.0000 -0.0000 -0.0000
vn 0.0000 0.0000 -1.0000
vn 0.0112 0.1415 -0.9899
vn 0.0000 -1.0000 0.0000
vn 0.0900 -0.8547 0.5112
vn 0.0509 -0.6441 -0.7632
vn 0.0908 -0.8618 -0.4991
vn 0.2739 -0.4297 0.8605
vn 0.1093 -0.8512 0.5133
vn 0.3226 -0.8235 0.4666
vn 0.0166 -0.8479 0.5299
vn 0.0660 0.8481 0.5257
vn 0.0472 0.8930 0.4475
vn -0.0237 -0.4480 0.8937
vn 0.0348 -0.8521 0.5222
vn 0.0651 -0.8524 0.5188
vn -0.4521 0.7687 -0.4524
vn -0.0774 0.8475 -0.5251
vn -0.0722 0.8263 -0.5585
vn 0.4503 0.7654 -0.4598
vn -0.0748 0.8299 -0.5528
usemtl Shape.4567
s off
f 17//1 9//1 18//1
f 2//2 3//2 4//2
f 4//2 3//2 6//2
f 2//2 4//2 8//2
f 4//3 1//3 9//3
f 1//4 5//4 9//4
f 5//5 1//5 11//5
f 2//6 8//6 11//6
f 8//7 5//7 11//7
f 1//3 4//3 12//3
f 4//2 6//2 12//2
f 3//8 2//8 13//8
f 7//9 10//9 13//9
f 2//10 11//10 13//10
f 11//11 7//11 13//11
f 1//12 10//12 14//12
f 10//13 7//13 14//13
f 11//5 1//5 14//5
f 7//14 11//14 14//14
f 8//2 4//2 15//2
f 6//15 3//15 16//15
f 10//16 1//16 16//16
f 1//17 12//17 16//17
f 12//18 6//18 16//18
f 3//19 13//19 16//19
f 13//20 10//20 16//20
f 4//3 9//3 17//3
f 15//21 4//21 17//21
f 15//22 17//22 18//22
f 5//23 8//23 18//23
f 9//24 5//24 18//24
f 8//25 15//25 18//25
