# Blender v2.79 (sub 0) OBJ File: ''
# www.blender.org
mtllib 857_link_0_70.mtl
o Shape_IndexedFaceSet.070_Shape_IndexedFaceSet.4624
v -0.065080 0.214906 -0.044756
v -0.054455 0.195169 -0.107001
v -0.052934 0.195169 -0.107001
v -0.057493 0.195169 -0.038676
v -0.052934 0.222499 -0.038676
v -0.071155 0.195169 -0.085737
v -0.066600 0.195169 -0.038676
v -0.066600 0.196689 -0.097884
v -0.052934 0.211870 -0.040201
v -0.066600 0.211870 -0.038676
v -0.055973 0.222499 -0.040201
v -0.054455 0.201245 -0.096366
v -0.052934 0.195169 -0.084219
v -0.071155 0.195169 -0.069049
vn -0.9889 0.0000 0.1483
vn 0.0000 -1.0000 0.0000
vn 0.0000 0.0000 1.0000
vn -0.2843 -0.9324 -0.2233
vn -0.7423 0.6401 -0.1982
vn 0.6483 -0.1081 0.7537
vn 1.0000 -0.0000 -0.0000
vn -0.9257 0.3758 -0.0438
vn -0.5386 0.8016 -0.2595
vn -0.6820 0.7081 0.1831
vn -0.3885 0.4995 0.7743
vn 0.0000 0.8683 -0.4961
vn 0.7436 0.6208 -0.2483
vn -0.2550 0.8396 -0.4797
vn 0.1729 0.9227 -0.3445
vn -0.2915 0.8920 -0.3454
vn 0.9624 -0.2539 0.0963
vn -0.9648 0.2631 0.0000
usemtl Shape.4633
s off
f 7//1 10//1 14//1
f 2//2 3//2 4//2
f 2//2 4//2 6//2
f 6//2 4//2 7//2
f 4//3 5//3 7//3
f 2//4 6//4 8//4
f 6//5 1//5 8//5
f 5//6 4//6 9//6
f 3//7 5//7 9//7
f 1//8 6//8 10//8
f 7//3 5//3 10//3
f 8//9 1//9 11//9
f 1//10 10//10 11//10
f 10//11 5//11 11//11
f 3//12 2//12 12//12
f 5//13 3//13 12//13
f 2//14 8//14 12//14
f 11//15 5//15 12//15
f 8//16 11//16 12//16
f 4//2 3//2 13//2
f 3//7 9//7 13//7
f 9//17 4//17 13//17
f 6//2 7//2 14//2
f 10//18 6//18 14//18
