# Blender v2.79 (sub 0) OBJ File: ''
# www.blender.org
mtllib 857_link_0_40.mtl
o Shape_IndexedFaceSet.040_Shape_IndexedFaceSet.4594
v -0.052922 0.073673 -0.365180
v -0.019529 0.040266 -0.392506
v -0.019529 0.041790 -0.392506
v 0.000218 0.072152 -0.359104
v -0.062045 0.041790 -0.369735
v 0.000218 0.040266 -0.383392
v 0.000218 0.070635 -0.372765
v -0.062045 0.072152 -0.351507
v -0.062045 0.052418 -0.377320
v -0.062045 0.040266 -0.380358
v 0.000218 0.041790 -0.392506
v -0.031663 0.055456 -0.383392
v -0.019529 0.073673 -0.369735
v -0.062045 0.073673 -0.362142
v -0.039257 0.041790 -0.389468
v 0.000218 0.073673 -0.359104
v -0.013452 0.050900 -0.387947
v -0.055963 0.061525 -0.374282
v -0.059004 0.040266 -0.371252
v -0.057481 0.072152 -0.351507
v -0.062045 0.073673 -0.351507
vn 0.0000 0.0000 1.0000
vn 1.0000 0.0000 0.0000
vn -1.0000 -0.0000 0.0000
vn 0.0000 -1.0000 -0.0000
vn 0.0000 0.0000 -1.0000
vn 0.0759 -0.9835 -0.1644
vn -0.1039 0.6400 -0.7614
vn 0.0000 1.0000 0.0000
vn -0.1522 0.0000 -0.9883
vn -0.1430 -0.8537 -0.5007
vn -0.3746 0.2249 -0.8995
vn -0.1348 0.4641 -0.8754
vn 0.1161 0.9696 -0.2156
vn 0.0000 0.4475 -0.8943
vn 0.1006 0.5619 -0.8211
vn -0.0925 0.4943 -0.8644
vn -0.0249 0.6203 -0.7840
vn -0.0421 0.6171 -0.7857
vn -0.1371 0.6157 -0.7759
vn -0.4206 0.5272 -0.7383
vn -0.2479 0.6199 -0.7445
vn -0.2469 0.4510 -0.8577
vn -0.1971 0.4876 -0.8505
vn 0.1309 -0.5559 0.8209
vn 0.1609 -0.5980 0.7851
vn -0.3913 -0.9109 0.1307
vn 0.1112 -0.5238 0.8446
vn 0.0000 -0.5147 0.8574
vn 0.1305 0.0000 0.9914
vn 0.1138 0.3416 0.9329
usemtl Shape.4603
s off
f 8//1 20//1 21//1
f 4//2 6//2 7//2
f 5//3 8//3 9//3
f 2//4 6//4 10//4
f 5//3 9//3 10//3
f 2//5 3//5 11//5
f 6//6 2//6 11//6
f 7//2 6//2 11//2
f 12//7 1//7 13//7
f 9//3 8//3 14//3
f 13//8 1//8 14//8
f 3//9 2//9 15//9
f 2//10 10//10 15//10
f 10//11 9//11 15//11
f 12//12 3//12 15//12
f 4//2 7//2 16//2
f 7//13 13//13 16//13
f 13//8 14//8 16//8
f 11//14 3//14 17//14
f 7//15 11//15 17//15
f 3//16 12//16 17//16
f 13//17 7//17 17//17
f 12//18 13//18 17//18
f 1//19 12//19 18//19
f 9//20 14//20 18//20
f 14//21 1//21 18//21
f 15//22 9//22 18//22
f 12//23 15//23 18//23
f 4//24 5//24 19//24
f 6//25 4//25 19//25
f 10//4 6//4 19//4
f 5//26 10//26 19//26
f 5//27 4//27 20//27
f 8//28 5//28 20//28
f 4//29 16//29 20//29
f 20//30 16//30 21//30
f 14//3 8//3 21//3
f 16//8 14//8 21//8
