# Blender v2.79 (sub 0) OBJ File: ''
# www.blender.org
mtllib 857_link_0_119.mtl
o Shape_IndexedFaceSet.119_Shape_IndexedFaceSet.4673
v 0.010854 0.239207 0.066115
v 0.042732 0.246800 0.047896
v 0.044259 0.245278 0.046377
v -0.004333 0.224021 0.044858
v 0.035141 0.219469 0.046377
v -0.004333 0.246800 0.058521
v -0.004333 0.220985 0.057002
v 0.029067 0.246800 0.044858
v 0.027549 0.228578 0.058521
v -0.004333 0.246800 0.066115
v 0.027549 0.246800 0.060040
v 0.044259 0.227059 0.044858
v -0.004333 0.216427 0.044858
v -0.004333 0.228578 0.064595
v 0.039697 0.231614 0.052451
v 0.010854 0.225543 0.061557
v 0.013894 0.216427 0.047896
vn 0.0770 -0.8213 0.5652
vn -1.0000 -0.0000 -0.0000
vn 0.1395 0.7661 -0.6274
vn 0.0000 1.0000 0.0000
vn -0.3310 0.4854 -0.8092
vn 0.3717 -0.0771 0.9251
vn 0.1753 0.3506 0.9200
vn 0.1073 0.0826 -0.9908
vn -0.0000 0.0000 -1.0000
vn 0.0572 -0.2616 -0.9635
vn -0.0415 -0.0831 0.9957
vn 0.7322 0.0572 0.6787
vn 0.4813 -0.5298 0.6983
vn 0.6209 0.1088 0.7763
vn 0.4604 -0.0737 0.8846
vn 0.8443 -0.0445 0.5340
vn 0.5485 -0.5294 0.6472
vn 0.2242 -0.3084 0.9245
vn 0.2490 -0.6936 0.6759
vn 0.1255 -0.3139 0.9411
vn 0.0001 -0.7071 0.7071
vn -0.0585 -0.9346 0.3508
vn 0.0856 -0.8539 -0.5133
vn 0.1562 -0.8052 0.5721
usemtl Shape.4682
s off
f 16//1 7//1 17//1
f 6//2 4//2 7//2
f 2//3 3//3 8//3
f 6//4 2//4 8//4
f 4//5 6//5 8//5
f 2//4 6//4 10//4
f 6//2 7//2 10//2
f 1//6 9//6 11//6
f 2//4 10//4 11//4
f 10//7 1//7 11//7
f 8//8 3//8 12//8
f 4//9 8//9 12//9
f 7//2 4//2 13//2
f 4//9 12//9 13//9
f 12//10 5//10 13//10
f 1//11 10//11 14//11
f 10//2 7//2 14//2
f 3//12 2//12 15//12
f 9//13 5//13 15//13
f 2//14 11//14 15//14
f 11//15 9//15 15//15
f 12//16 3//16 15//16
f 5//17 12//17 15//17
f 9//18 1//18 16//18
f 5//19 9//19 16//19
f 1//20 14//20 16//20
f 14//21 7//21 16//21
f 7//22 13//22 17//22
f 13//23 5//23 17//23
f 5//24 16//24 17//24
