# Blender v2.79 (sub 0) OBJ File: ''
# www.blender.org
mtllib 857_link_0_103.mtl
o Shape_IndexedFaceSet.103_Shape_IndexedFaceSet.4657
v 0.006282 0.199722 0.005371
v -0.033191 0.198204 0.000815
v -0.033191 0.198204 0.002334
v 0.033628 0.198204 0.000815
v -0.033191 0.199722 0.000815
vn 0.0000 0.0000 -1.0000
vn 0.0000 -1.0000 0.0000
vn 0.0082 -0.9329 0.3600
vn 0.0223 0.9809 -0.1931
vn -0.0813 0.7050 0.7045
vn -1.0000 0.0000 0.0000
usemtl Shape.4666
s off
f 4//1 2//1 5//1
f 3//2 2//2 4//2
f 1//3 3//3 4//3
f 1//4 4//4 5//4
f 3//5 1//5 5//5
f 2//6 3//6 5//6
