# Blender v2.79 (sub 0) OBJ File: ''
# www.blender.org
mtllib 857_link_0_36.mtl
o Shape_IndexedFaceSet.036_Shape_IndexedFaceSet.4590
v 0.056403 0.178462 -0.067527
v 0.053364 0.154164 -0.110040
v 0.053364 0.155683 -0.110040
v 0.003266 0.173902 -0.067527
v 0.047288 0.166313 -0.067527
v 0.003266 0.154164 -0.087271
v 0.003266 0.155683 -0.102445
v 0.056403 0.154164 -0.093335
v 0.003266 0.164795 -0.067527
v 0.056403 0.172385 -0.081195
v 0.056403 0.167830 -0.067527
v 0.003266 0.166313 -0.084233
v 0.023004 0.154164 -0.087271
v 0.053364 0.178462 -0.069046
v 0.003266 0.154164 -0.102445
v 0.056403 0.155683 -0.110040
vn 1.0000 -0.0000 0.0000
vn 0.0000 0.0000 1.0000
vn -1.0000 -0.0000 -0.0000
vn -0.1499 0.0000 -0.9887
vn 0.0000 -1.0000 -0.0000
vn 0.1455 -0.8743 0.4630
vn -0.0762 0.8611 -0.5026
vn -0.0708 0.8664 -0.4942
vn 0.0813 -0.8904 0.4479
vn 0.0299 -0.8673 0.4969
vn 0.0000 -0.8805 0.4741
vn -0.0843 0.9821 0.1686
vn 0.1990 0.8955 -0.3981
vn -0.0950 0.9063 -0.4117
vn -0.0747 0.8843 -0.4610
vn 0.0000 0.0000 -1.0000
vn 0.4456 -0.8915 -0.0811
vn 0.0000 0.8654 -0.5011
usemtl Shape.4599
s off
f 10//1 8//1 16//1
f 1//2 4//2 5//2
f 6//3 4//3 7//3
f 3//4 2//4 7//4
f 6//5 2//5 8//5
f 5//2 4//2 9//2
f 4//3 6//3 9//3
f 1//1 8//1 10//1
f 1//2 5//2 11//2
f 8//1 1//1 11//1
f 5//6 8//6 11//6
f 7//3 4//3 12//3
f 3//7 7//7 12//7
f 10//8 3//8 12//8
f 8//9 5//9 13//9
f 6//5 8//5 13//5
f 5//10 9//10 13//10
f 9//11 6//11 13//11
f 4//12 1//12 14//12
f 1//13 10//13 14//13
f 12//14 4//14 14//14
f 10//15 12//15 14//15
f 2//5 6//5 15//5
f 6//3 7//3 15//3
f 7//4 2//4 15//4
f 2//16 3//16 16//16
f 8//17 2//17 16//17
f 3//18 10//18 16//18
