# Blender v2.79 (sub 0) OBJ File: ''
# www.blender.org
mtllib 857_link_0_115.mtl
o Shape_IndexedFaceSet.115_Shape_IndexedFaceSet.4669
v 0.042740 0.243763 0.012965
v -0.037741 0.242244 0.008409
v -0.040772 0.242244 0.009928
v 0.042740 0.242244 0.012965
v -0.042303 0.243763 0.012965
v 0.035140 0.243763 0.008409
vn -0.0196 0.9424 -0.3339
vn 0.0000 -1.0000 -0.0000
vn 0.0000 0.0000 1.0000
vn -0.2685 0.8006 -0.5357
vn -0.0160 -0.8975 0.4408
vn 0.0196 -0.9382 -0.3454
vn 0.5142 0.0000 -0.8577
vn 0.0000 1.0000 0.0000
usemtl Shape.4678
s off
f 2//1 5//1 6//1
f 3//2 2//2 4//2
f 4//3 1//3 5//3
f 2//4 3//4 5//4
f 3//5 4//5 5//5
f 4//6 2//6 6//6
f 1//7 4//7 6//7
f 5//8 1//8 6//8
