# Blender v2.79 (sub 0) OBJ File: ''
# www.blender.org
mtllib 857_link_0_117.mtl
o Shape_IndexedFaceSet.117_Shape_IndexedFaceSet.4671
v 0.035142 0.211872 0.032705
v 0.047294 0.246793 0.037259
v 0.050326 0.243758 0.034222
v -0.001300 0.245275 0.012968
v -0.001300 0.224025 0.044853
v 0.053370 0.211872 0.012968
v -0.001300 0.211872 0.019041
v 0.051851 0.240722 0.012968
v 0.044256 0.224025 0.044853
v -0.001300 0.246793 0.037259
v 0.044256 0.246793 0.044853
v -0.001300 0.214914 0.044853
v 0.033624 0.246793 0.016004
v 0.057926 0.220989 0.014488
v 0.029067 0.211872 0.012968
v 0.030580 0.246793 0.044853
v -0.001300 0.211872 0.038779
v 0.026046 0.216432 0.044853
v 0.051851 0.227061 0.034222
v 0.051851 0.211872 0.020561
v 0.057926 0.230093 0.012968
v 0.004775 0.246793 0.012968
v -0.001300 0.237683 0.012968
v 0.042731 0.216432 0.037259
vn 0.6041 -0.6209 0.4995
vn -1.0000 -0.0000 0.0000
vn 0.0000 -1.0000 0.0000
vn 0.6777 0.7332 -0.0561
vn -0.0000 0.0000 -1.0000
vn 0.8115 0.4858 0.3246
vn 0.0000 0.0000 1.0000
vn 0.0000 1.0000 0.0000
vn 0.2833 0.9416 -0.1822
vn -0.2204 0.3086 0.9253
vn 0.0496 -0.8930 0.4472
vn 0.0656 -0.9171 0.3933
vn 0.8753 0.0799 0.4769
vn 0.8137 0.0000 0.5813
vn 0.8679 -0.3322 0.3694
vn 0.8690 -0.4633 0.1738
vn 0.7944 -0.4061 0.4516
vn 0.8682 0.4962 -0.0086
vn 0.5500 -0.1375 -0.8237
vn 0.9545 0.0872 0.2853
vn 0.9587 0.0469 0.2807
vn -0.2420 0.9684 -0.0605
vn 0.0813 0.6302 -0.7722
vn -0.1911 -0.2248 -0.9555
vn 0.2197 -0.8478 0.4827
vn 0.2939 -0.7048 0.6457
vn 0.2872 -0.8726 0.3951
usemtl Shape.4680
s off
f 20//1 9//1 24//1
f 5//2 4//2 7//2
f 6//3 1//3 7//3
f 2//4 3//4 8//4
f 6//5 4//5 8//5
f 4//2 5//2 10//2
f 3//6 2//6 11//6
f 5//7 9//7 11//7
f 2//8 10//8 11//8
f 5//2 7//2 12//2
f 9//7 5//7 12//7
f 2//9 8//9 13//9
f 10//8 2//8 13//8
f 4//5 6//5 15//5
f 6//3 7//3 15//3
f 10//10 5//10 16//10
f 5//7 11//7 16//7
f 11//8 10//8 16//8
f 7//3 1//3 17//3
f 12//2 7//2 17//2
f 12//11 17//11 18//11
f 9//7 12//7 18//7
f 17//12 1//12 18//12
f 3//13 11//13 19//13
f 11//14 9//14 19//14
f 14//15 19//15 20//15
f 1//3 6//3 20//3
f 6//16 14//16 20//16
f 19//17 9//17 20//17
f 8//18 3//18 21//18
f 6//5 8//5 21//5
f 14//19 6//19 21//19
f 3//20 19//20 21//20
f 19//21 14//21 21//21
f 8//5 4//5 22//5
f 4//22 10//22 22//22
f 13//23 8//23 22//23
f 10//8 13//8 22//8
f 7//2 4//2 23//2
f 4//5 15//5 23//5
f 15//24 7//24 23//24
f 18//25 1//25 24//25
f 9//26 18//26 24//26
f 1//27 20//27 24//27
