# Blender v2.79 (sub 0) OBJ File: ''
# www.blender.org
mtllib 857_link_0_45.mtl
o Shape_IndexedFaceSet.045_Shape_IndexedFaceSet.4599
v -0.065085 0.052397 -0.208758
v -0.083304 -0.012886 -0.228495
v -0.083304 -0.012886 -0.219387
v -0.083304 0.084307 -0.208758
v -0.057492 -0.012886 -0.208758
v -0.081785 0.035710 -0.228495
v -0.071155 -0.012886 -0.208758
v -0.059011 0.025093 -0.210277
v -0.081785 -0.009841 -0.230016
v -0.083304 0.055442 -0.208758
v -0.081785 0.072138 -0.216351
v -0.065085 0.052397 -0.210277
v -0.083304 0.049372 -0.225457
v -0.057492 0.000785 -0.210277
v -0.081785 0.023561 -0.230016
vn 0.6528 0.0408 -0.7564
vn -1.0000 0.0000 0.0000
vn 0.0000 0.0000 1.0000
vn 0.0000 -1.0000 0.0000
vn 0.4635 0.0539 0.8844
vn 0.4977 -0.5734 -0.6508
vn -0.6540 -0.1163 0.7475
vn 0.8684 0.4958 0.0000
vn 0.9761 0.2171 0.0000
vn 0.6587 0.1465 -0.7380
vn 0.7127 0.4332 -0.5517
vn -0.7258 0.2967 -0.6207
vn 0.5984 0.2367 -0.7654
vn 0.5908 0.2653 -0.7619
vn 0.8703 0.0544 0.4895
vn 0.6502 -0.0839 -0.7551
vn 0.6306 0.0000 -0.7761
vn 0.6484 0.0946 -0.7554
vn -0.7076 0.0000 -0.7066
vn -0.9082 0.0204 -0.4181
vn -0.6552 0.0938 -0.7496
usemtl Shape.4608
s off
f 8//1 14//1 15//1
f 2//2 3//2 4//2
f 1//3 4//3 5//3
f 3//4 2//4 5//4
f 5//3 4//3 7//3
f 3//4 5//4 7//4
f 1//5 5//5 8//5
f 5//6 2//6 9//6
f 4//2 3//2 10//2
f 3//7 7//7 10//7
f 7//3 4//3 10//3
f 4//8 1//8 12//8
f 1//9 8//9 12//9
f 8//10 6//10 12//10
f 11//11 4//11 12//11
f 2//2 4//2 13//2
f 4//12 11//12 13//12
f 12//13 6//13 13//13
f 11//14 12//14 13//14
f 8//15 5//15 14//15
f 5//16 9//16 14//16
f 14//17 9//17 15//17
f 6//18 8//18 15//18
f 9//19 2//19 15//19
f 2//20 13//20 15//20
f 13//21 6//21 15//21
