# Blender v2.79 (sub 0) OBJ File: ''
# www.blender.org
mtllib 857_link_0_72.mtl
o Shape_IndexedFaceSet.072_Shape_IndexedFaceSet.4626
v 0.026031 0.195170 -0.117633
v 0.050333 0.222498 -0.038669
v 0.047295 0.224018 -0.038669
v -0.002819 0.217944 -0.040194
v 0.050333 0.195170 -0.087250
v -0.002819 0.225535 -0.046263
v -0.002819 0.195170 -0.099411
v -0.002819 0.196690 -0.120675
v 0.050333 0.213388 -0.040194
v 0.044256 0.201243 -0.100928
v 0.029064 0.222498 -0.052339
v 0.050333 0.196690 -0.107005
v 0.019970 0.196690 -0.119150
v -0.002819 0.227055 -0.038669
v 0.041218 0.225535 -0.040194
v 0.016926 0.207317 -0.093334
v 0.048814 0.199727 -0.075129
v 0.050333 0.210354 -0.075129
v 0.044256 0.214907 -0.038669
v -0.002819 0.195170 -0.120675
vn 0.0668 0.0000 -0.9978
vn -1.0000 0.0000 -0.0000
vn 0.0000 -1.0000 0.0000
vn 1.0000 -0.0000 0.0000
vn 0.0955 -0.9925 -0.0764
vn 0.1855 0.8664 -0.4637
vn 0.1052 0.9228 -0.3708
vn 0.3248 0.4848 -0.8121
vn 0.0000 0.0000 1.0000
vn 0.1316 0.9227 -0.3625
vn 0.0384 0.9597 -0.2784
vn 0.0483 0.7978 0.6010
vn 0.0270 0.9802 -0.1962
vn -0.0013 0.9324 -0.3614
vn 0.0219 0.9354 -0.3529
vn 0.0253 0.9255 -0.3780
vn 0.0923 0.9246 -0.3697
vn -0.0861 -0.9299 0.3576
vn -0.0783 -0.9364 0.3422
vn -0.0795 -0.9272 0.3660
vn 0.0830 -0.9293 0.3598
vn 0.4288 0.8571 -0.2855
vn 0.2826 0.8816 -0.3779
vn 0.3031 0.9004 -0.3122
vn 0.1509 0.9204 -0.3606
vn 0.2020 -0.1617 0.9659
vn -0.0715 -0.8346 0.5462
vn -0.0426 -0.1649 0.9854
vn 0.0909 -0.4981 -0.8624
usemtl Shape.4635
s off
f 8//1 13//1 20//1
f 4//2 6//2 7//2
f 1//3 5//3 7//3
f 7//2 6//2 8//2
f 5//4 2//4 9//4
f 5//5 1//5 12//5
f 2//4 5//4 12//4
f 10//6 12//6 13//6
f 11//7 10//7 13//7
f 12//8 1//8 13//8
f 2//9 3//9 14//9
f 6//2 4//2 14//2
f 10//10 11//10 15//10
f 11//11 6//11 15//11
f 14//12 3//12 15//12
f 6//13 14//13 15//13
f 8//14 6//14 16//14
f 6//15 11//15 16//15
f 13//16 8//16 16//16
f 11//17 13//17 16//17
f 4//18 7//18 17//18
f 7//19 5//19 17//19
f 9//20 4//20 17//20
f 5//21 9//21 17//21
f 3//22 2//22 18//22
f 2//4 12//4 18//4
f 12//23 10//23 18//23
f 15//24 3//24 18//24
f 10//25 15//25 18//25
f 9//26 2//26 19//26
f 4//27 9//27 19//27
f 2//9 14//9 19//9
f 14//28 4//28 19//28
f 1//3 7//3 20//3
f 7//2 8//2 20//2
f 13//29 1//29 20//29
