# Blender v2.79 (sub 0) OBJ File: ''
# www.blender.org
mtllib 857_link_0_27.mtl
o Shape_IndexedFaceSet.027_Shape_IndexedFaceSet.4581
v 0.082221 0.104047 -0.182942
v 0.082221 0.087344 -0.208752
v 0.048819 0.087344 -0.190535
v 0.085255 0.104047 -0.208752
v 0.048819 0.104047 -0.181425
v 0.060970 0.087344 -0.182942
v 0.091329 0.087344 -0.207232
v 0.048819 0.096454 -0.175346
v 0.073109 0.102528 -0.175346
v 0.079182 0.087344 -0.190535
v 0.092855 0.104047 -0.208752
v 0.048819 0.104047 -0.175346
v 0.048819 0.090383 -0.190535
v 0.048819 0.087344 -0.181425
vn 0.1033 -0.5521 0.8274
vn 0.0000 1.0000 0.0000
vn 0.0000 -1.0000 0.0000
vn -1.0000 0.0000 0.0000
vn 0.1314 -0.5256 0.8405
vn 0.7470 -0.3830 0.5434
vn 0.3050 -0.6098 0.7315
vn 0.6224 -0.4149 0.6637
vn 0.0000 0.0000 -1.0000
vn 0.9235 -0.0497 0.3805
vn 0.1637 -0.1042 -0.9810
vn 0.0000 0.0000 1.0000
vn 0.0602 0.9625 0.2647
vn -0.4788 0.0000 -0.8779
vn -0.4710 0.0856 -0.8780
vn -0.5294 0.4706 -0.7059
usemtl Shape.4590
s off
f 6//1 8//1 14//1
f 1//2 4//2 5//2
f 3//3 2//3 6//3
f 6//3 2//3 7//3
f 5//4 3//4 8//4
f 8//5 6//5 9//5
f 7//6 1//6 10//6
f 6//3 7//3 10//3
f 9//7 6//7 10//7
f 1//8 9//8 10//8
f 2//9 4//9 11//9
f 4//2 1//2 11//2
f 1//10 7//10 11//10
f 7//11 2//11 11//11
f 1//2 5//2 12//2
f 5//4 8//4 12//4
f 8//12 9//12 12//12
f 9//13 1//13 12//13
f 2//14 3//14 13//14
f 4//15 2//15 13//15
f 5//16 4//16 13//16
f 3//4 5//4 13//4
f 3//3 6//3 14//3
f 8//4 3//4 14//4
