# Blender v2.79 (sub 0) OBJ File: ''
# www.blender.org
mtllib 857_link_0_111.mtl
o Shape_IndexedFaceSet.111_Shape_IndexedFaceSet.4665
v 0.033628 0.245281 0.012965
v -0.008889 0.243763 0.008409
v -0.028630 0.243763 0.009928
v -0.008889 0.245281 0.008409
v -0.034710 0.245281 0.012965
vn -0.1073 0.7867 -0.6080
vn 0.0146 -0.9816 0.1904
vn -0.0767 0.0000 -0.9971
vn 0.1065 0.0000 -0.9943
vn 0.0000 1.0000 -0.0000
vn 0.0000 -0.8945 0.4471
usemtl Shape.4674
s off
f 4//1 3//1 5//1
f 3//2 2//2 1//2
f 2//3 3//3 4//3
f 1//4 2//4 4//4
f 1//5 4//5 5//5
f 3//6 1//6 5//6
