# Blender v2.79 (sub 0) OBJ File: ''
# www.blender.org
mtllib 857_link_0_25.mtl
o Shape_IndexedFaceSet.025_Shape_IndexedFaceSet.4579
v 0.076149 0.052415 -0.205714
v 0.024516 -0.015923 -0.195089
v 0.026036 -0.015923 -0.196608
v 0.026036 0.052415 -0.193573
v 0.032113 0.049365 -0.185976
v 0.048819 -0.014398 -0.195089
v 0.054885 -0.015923 -0.208756
v 0.059443 0.044816 -0.208756
v 0.068553 -0.015923 -0.208756
v 0.024516 -0.012879 -0.187497
v 0.057924 0.052415 -0.195089
v 0.024516 0.052415 -0.185976
v 0.077669 0.052415 -0.208756
v 0.024516 0.028106 -0.195089
v 0.062482 -0.015923 -0.202679
v 0.032113 -0.015923 -0.189018
v 0.054885 0.012935 -0.208756
v 0.047300 0.049365 -0.190536
v 0.062482 0.052415 -0.208756
v 0.067034 0.050890 -0.199643
vn 0.5615 -0.0757 0.8240
vn 0.0000 -1.0000 0.0000
vn 0.0000 0.0000 -1.0000
vn -0.0000 1.0000 -0.0000
vn -1.0000 -0.0000 0.0000
vn -0.0093 -0.0233 0.9997
vn 0.2201 0.5482 0.8069
vn 0.8882 -0.1185 0.4438
vn -0.7069 -0.0000 -0.7073
vn -0.3969 0.0818 -0.9142
vn -0.9779 0.0734 -0.1957
vn 0.7032 -0.1094 0.7025
vn -0.2851 -0.8897 0.3567
vn 0.1784 -0.0458 0.9829
vn 0.3105 -0.6536 0.6903
vn -0.3881 0.0000 -0.9216
vn -0.4030 0.0177 -0.9150
vn -0.3867 0.0553 -0.9206
vn 0.2644 0.3935 0.8805
vn 0.4067 -0.0554 0.9119
vn 0.2873 -0.0446 0.9568
vn 0.3457 -0.0586 0.9365
vn -0.3801 0.1520 -0.9124
vn 0.4629 0.3941 0.7940
vn 0.4383 -0.0597 0.8968
vn 0.4782 -0.0724 0.8753
usemtl Shape.4588
s off
f 15//1 1//1 20//1
f 2//2 3//2 7//2
f 7//3 8//3 9//3
f 2//2 7//2 9//2
f 1//4 4//4 11//4
f 2//5 10//5 12//5
f 10//6 5//6 12//6
f 11//4 4//4 12//4
f 5//7 11//7 12//7
f 4//4 1//4 13//4
f 9//3 8//3 13//3
f 1//8 9//8 13//8
f 3//9 2//9 14//9
f 4//10 8//10 14//10
f 2//5 12//5 14//5
f 12//11 4//11 14//11
f 2//2 9//2 15//2
f 9//12 1//12 15//12
f 10//13 2//13 16//13
f 5//14 10//14 16//14
f 2//2 15//2 16//2
f 15//15 6//15 16//15
f 7//16 3//16 17//16
f 8//3 7//3 17//3
f 3//17 14//17 17//17
f 14//18 8//18 17//18
f 11//19 5//19 18//19
f 6//20 11//20 18//20
f 5//21 16//21 18//21
f 16//22 6//22 18//22
f 8//23 4//23 19//23
f 4//4 13//4 19//4
f 13//3 8//3 19//3
f 1//24 11//24 20//24
f 11//25 6//25 20//25
f 6//26 15//26 20//26
