# Blender v2.79 (sub 0) OBJ File: ''
# www.blender.org
mtllib 857_link_0_95.mtl
o Shape_IndexedFaceSet.095_Shape_IndexedFaceSet.4649
v -0.063564 0.195167 -0.026515
v -0.046859 0.210351 0.000812
v -0.046859 0.199725 0.000812
v -0.046859 0.195167 -0.028034
v -0.066601 0.211872 -0.038669
v -0.060526 0.211872 0.000812
v -0.057486 0.211872 -0.038669
v -0.066601 0.195167 -0.038669
v -0.057486 0.204278 0.000812
v -0.052935 0.195167 -0.011339
v -0.057486 0.195167 -0.038669
vn 0.0000 0.0000 -1.0000
vn 1.0000 0.0000 0.0000
vn 0.0000 0.0000 1.0000
vn 0.8805 0.4195 -0.2208
vn 0.1106 0.9938 0.0085
vn 0.0000 1.0000 0.0000
vn 0.0000 -1.0000 0.0000
vn -0.9884 0.0000 0.1521
vn -0.9475 -0.2150 0.2368
vn -0.8815 -0.3529 0.3137
vn 0.3941 -0.9078 0.1434
vn -0.5311 -0.7613 0.3720
vn -0.3463 -0.8082 0.4763
vn 0.7074 0.0000 -0.7068
usemtl Shape.4658
s off
f 8//1 7//1 11//1
f 2//2 3//2 4//2
f 3//3 2//3 6//3
f 2//4 4//4 7//4
f 6//5 2//5 7//5
f 5//6 6//6 7//6
f 4//7 1//7 8//7
f 6//8 5//8 8//8
f 1//9 6//9 8//9
f 5//1 7//1 8//1
f 6//10 1//10 9//10
f 3//3 6//3 9//3
f 4//11 3//11 10//11
f 1//7 4//7 10//7
f 9//12 1//12 10//12
f 3//13 9//13 10//13
f 7//14 4//14 11//14
f 4//7 8//7 11//7
