# Blender v2.79 (sub 0) OBJ File: ''
# www.blender.org
mtllib 857_link_0_44.mtl
o Shape_IndexedFaceSet.044_Shape_IndexedFaceSet.4598
v -0.096973 -0.012886 -0.237610
v -0.084825 0.104037 -0.208758
v -0.084825 0.104037 -0.210278
v -0.083306 -0.012886 -0.220908
v -0.090900 0.104037 -0.237610
v -0.093937 0.091883 -0.210278
v -0.083306 -0.002242 -0.233049
v -0.098492 0.104037 -0.237610
v -0.100011 0.056964 -0.236087
v -0.083306 0.058474 -0.208758
v -0.087864 -0.012886 -0.222427
v -0.083306 0.044832 -0.228493
v -0.087864 -0.012886 -0.237610
v -0.096973 -0.012886 -0.234568
v -0.093937 0.104037 -0.210278
v -0.092418 0.084295 -0.208758
v -0.083306 0.084295 -0.213317
v -0.100011 0.084295 -0.236087
vn -0.9734 0.0000 0.2291
vn -0.0000 1.0000 0.0000
vn 0.0000 0.0000 -1.0000
vn -0.5815 -0.0076 -0.8135
vn 1.0000 0.0000 0.0000
vn -0.0000 -1.0000 0.0000
vn -0.3121 -0.1595 0.9366
vn 0.8894 0.0440 -0.4549
vn 0.9240 -0.2876 -0.2521
vn 0.6861 0.0178 -0.7273
vn -0.9609 -0.0358 0.2746
vn -0.9991 -0.0435 0.0000
vn -0.0000 0.0000 1.0000
vn -0.4132 -0.1458 0.8989
vn -0.8804 -0.0827 0.4669
vn -0.7940 -0.1210 0.5957
vn -0.1642 0.0632 0.9844
vn -0.7073 0.0000 0.7069
vn 0.9971 0.0767 0.0000
vn 0.9705 0.1079 -0.2157
vn 0.9821 0.0327 0.1854
vn 0.9690 0.0887 -0.2308
vn -0.7080 0.0000 -0.7062
vn -0.9825 0.0882 0.1637
usemtl Shape.4607
s off
f 9//1 15//1 18//1
f 2//2 3//2 5//2
f 5//3 1//3 8//3
f 2//2 5//2 8//2
f 8//4 1//4 9//4
f 4//5 7//5 10//5
f 1//6 4//6 11//6
f 4//7 10//7 11//7
f 7//8 5//8 12//8
f 10//5 7//5 12//5
f 4//6 1//6 13//6
f 1//3 5//3 13//3
f 7//9 4//9 13//9
f 5//10 7//10 13//10
f 6//11 9//11 14//11
f 9//12 1//12 14//12
f 1//6 11//6 14//6
f 2//2 8//2 15//2
f 9//1 6//1 15//1
f 10//13 2//13 16//13
f 11//14 10//14 16//14
f 6//15 14//15 16//15
f 14//16 11//16 16//16
f 2//17 15//17 16//17
f 15//18 6//18 16//18
f 3//19 2//19 17//19
f 5//20 3//20 17//20
f 2//21 10//21 17//21
f 12//22 5//22 17//22
f 10//5 12//5 17//5
f 8//23 9//23 18//23
f 15//24 8//24 18//24
