# Blender v2.79 (sub 0) OBJ File: ''
# www.blender.org
mtllib 857_link_0_15.mtl
o Shape_IndexedFaceSet.015_Shape_IndexedFaceSet.4569
v 0.068557 0.181500 -0.128268
v -0.007372 0.181500 -0.154080
v -0.021021 0.181500 -0.152564
v -0.014961 0.192129 -0.131308
v -0.069639 0.181500 -0.128268
v 0.035144 0.190609 -0.128268
v 0.026027 0.183019 -0.151045
v -0.046845 0.189091 -0.128268
v -0.046845 0.183019 -0.144971
v 0.057924 0.183019 -0.138901
v -0.007372 0.183019 -0.154080
v 0.019939 0.190609 -0.134345
v 0.041218 0.181500 -0.146489
vn 0.2839 0.6027 -0.7458
vn 0.0000 -1.0000 0.0000
vn 0.0000 0.0000 1.0000
vn -0.0144 0.7788 0.6271
vn -0.1361 -0.9525 -0.2724
vn -0.1212 0.9329 -0.3391
vn -0.2987 0.8969 -0.3261
vn 0.2610 0.9573 -0.1242
vn -0.1104 0.0000 -0.9939
vn 0.0905 0.0000 -0.9959
vn -0.1552 0.7235 -0.6727
vn -0.0914 0.9137 -0.3960
vn 0.0356 0.9954 -0.0891
vn 0.1420 0.9239 -0.3553
vn 0.1397 0.9197 -0.3670
vn 0.0366 0.9147 -0.4024
vn 0.0084 0.9294 -0.3690
vn 0.0889 -0.8176 -0.5689
vn 0.2538 -0.8891 -0.3808
usemtl Shape.4578
s off
f 7//1 10//1 13//1
f 3//2 2//2 1//2
f 3//2 1//2 5//2
f 5//3 1//3 6//3
f 6//4 4//4 8//4
f 5//3 6//3 8//3
f 3//5 5//5 9//5
f 8//6 4//6 9//6
f 5//7 8//7 9//7
f 6//8 1//8 10//8
f 2//9 3//9 11//9
f 7//10 2//10 11//10
f 3//11 9//11 11//11
f 9//12 4//12 11//12
f 4//13 6//13 12//13
f 6//14 10//14 12//14
f 10//15 7//15 12//15
f 7//16 11//16 12//16
f 11//17 4//17 12//17
f 1//2 2//2 13//2
f 2//18 7//18 13//18
f 10//19 1//19 13//19
