# Blender v2.79 (sub 0) OBJ File: ''
# www.blender.org
mtllib 11477_link_1_1.mtl
o Shape_IndexedFaceSet.001_Shape_IndexedFaceSet.5652
v -0.527341 -0.192219 -0.199904
v -0.210473 -0.080039 -0.254175
v -0.129032 -0.080050 -0.219922
v -0.647338 -0.080039 -0.198493
v -0.647338 -0.097190 -0.249898
v -0.129032 -0.169994 -0.245607
v -0.129032 -0.165704 -0.194209
v -0.647338 -0.174274 -0.232761
v -0.634495 -0.165704 -0.185640
v -0.133364 -0.097179 -0.202785
v -0.129032 -0.101469 -0.258460
v -0.527419 -0.187123 -0.237045
v -0.583072 -0.080039 -0.254175
v -0.129032 -0.178553 -0.237038
v -0.510244 -0.152855 -0.185640
v -0.378963 -0.190157 -0.196869
v -0.655951 -0.169983 -0.198493
v -0.129032 -0.080050 -0.258460
v -0.129032 -0.178553 -0.207069
v -0.651618 -0.084341 -0.249898
v -0.379391 -0.188501 -0.231431
v -0.223316 -0.122888 -0.254175
v -0.565948 -0.080039 -0.198493
v -0.574510 -0.088620 -0.254175
v -0.133364 -0.148564 -0.194209
v -0.638776 -0.148564 -0.185640
v -0.643057 -0.178553 -0.198493
v -0.525992 -0.191676 -0.224044
v -0.129032 -0.088620 -0.207069
v -0.643057 -0.169983 -0.237045
v -0.524531 -0.187147 -0.192484
v -0.647338 -0.178553 -0.228469
v -0.206141 -0.169994 -0.245607
v -0.249053 -0.092911 -0.258467
v -0.375075 -0.190204 -0.216245
v -0.617319 -0.097190 -0.194209
v -0.651618 -0.092911 -0.198493
v -0.651618 -0.161424 -0.237045
v -0.379301 -0.185076 -0.193727
v -0.643057 -0.127179 -0.245614
v -0.643057 -0.174274 -0.189932
v -0.163331 -0.080050 -0.215638
v -0.150488 -0.174274 -0.198500
v -0.648733 -0.081623 -0.244968
vn -0.6817 0.7316 -0.0045
vn 1.0000 -0.0000 0.0000
vn -0.0000 1.0000 0.0000
vn 0.0152 -0.7074 -0.7066
vn 0.0167 -0.1618 0.9867
vn 0.0001 1.0000 0.0000
vn -0.0000 1.0000 -0.0026
vn -0.0610 -0.0203 -0.9979
vn 0.0167 -0.7758 -0.6308
vn 0.0000 1.0000 0.0002
vn -0.0524 -0.0523 -0.9973
vn -0.0175 -0.1794 -0.9836
vn 0.0227 0.0057 0.9997
vn 0.0205 0.1646 0.9861
vn 0.0000 0.0000 1.0000
vn 0.0038 -0.9437 -0.3309
vn 0.0262 0.4368 0.8992
vn 0.5456 0.1379 0.8266
vn 0.5451 0.1380 0.8269
vn -0.0968 -0.6532 -0.7510
vn -0.0001 -0.8255 0.5643
vn -0.1006 -0.7046 -0.7025
vn -0.1171 -0.9930 0.0167
vn -0.5518 -0.8302 0.0788
vn -0.0903 -0.9430 -0.3203
vn -0.1065 -0.9939 -0.0283
vn 0.0000 -0.1844 -0.9829
vn 0.0000 -0.4471 -0.8945
vn -0.0037 -0.1803 -0.9836
vn -0.0163 -0.1847 -0.9827
vn 0.0001 0.0000 -1.0000
vn -0.0094 0.0882 -0.9961
vn -0.0107 -0.1507 -0.9885
vn -0.0134 -0.0133 -0.9998
vn -0.0151 -0.1544 -0.9879
vn 0.0138 -0.9999 0.0052
vn 0.0473 -0.9989 0.0000
vn 0.0469 -0.9988 0.0118
vn 0.0367 -0.9919 -0.1217
vn 0.0109 -0.9997 -0.0219
vn 0.0157 -0.9931 -0.1158
vn 0.0174 0.1848 0.9826
vn 0.0000 0.2423 0.9702
vn 0.0174 0.1930 0.9810
vn 0.0054 0.1623 0.9867
vn -0.0376 0.1797 0.9830
vn -0.9476 0.3151 0.0525
vn -0.9984 0.0561 0.0094
vn -0.3764 0.1252 0.9180
vn -0.6266 0.0352 0.7786
vn -0.4427 -0.1475 -0.8844
vn -0.9931 -0.0193 -0.1159
vn -0.4081 -0.4082 -0.8166
vn -0.8175 -0.4078 -0.4066
vn -0.9308 -0.3206 -0.1758
vn 0.0166 -0.1905 0.9815
vn 0.0422 -0.5234 0.8510
vn 0.0118 -0.2485 0.9686
vn 0.0148 -0.5252 0.8509
vn -0.0407 -0.1470 -0.9883
vn -0.0210 -0.1810 -0.9833
vn -0.0291 -0.1962 -0.9801
vn -0.2598 -0.1728 -0.9501
vn -0.1926 -0.1926 -0.9622
vn -0.3706 -0.0926 0.9242
vn -0.5627 -0.0441 0.8255
vn -0.0997 -0.8900 0.4449
vn -0.5110 -0.7689 0.3843
vn -0.0268 -0.4261 0.9043
vn -0.0754 -0.8097 0.5820
vn 0.0000 1.0000 0.0003
vn 0.0691 0.8300 0.5534
vn 0.0277 0.7600 0.6493
vn 0.0430 -0.5312 0.8461
vn 0.1398 -0.7005 0.6999
vn 0.0613 -0.8232 0.5644
vn -0.0288 0.9990 -0.0332
vn -0.0837 0.8926 -0.4431
usemtl Shape.5660
s off
f 20//1 4//1 44//1
f 6//2 3//2 7//2
f 3//2 6//2 11//2
f 4//3 2//3 13//3
f 6//2 7//2 14//2
f 12//4 6//4 14//4
f 9//5 7//5 15//5
f 2//6 3//6 18//6
f 3//2 11//2 18//2
f 13//7 2//7 18//7
f 14//2 7//2 19//2
f 13//8 5//8 20//8
f 12//9 14//9 21//9
f 3//10 2//10 23//10
f 2//3 4//3 23//3
f 5//11 13//11 24//11
f 22//12 12//12 24//12
f 15//13 7//13 25//13
f 10//14 15//14 25//14
f 9//15 15//15 26//15
f 12//16 21//16 28//16
f 7//2 3//2 29//2
f 23//17 10//17 29//17
f 25//18 7//18 29//18
f 10//19 25//19 29//19
f 12//20 8//20 30//20
f 1//21 16//21 31//21
f 8//22 12//22 32//22
f 1//23 27//23 32//23
f 27//24 17//24 32//24
f 12//25 28//25 32//25
f 28//26 1//26 32//26
f 11//27 6//27 33//27
f 6//28 12//28 33//28
f 22//29 11//29 33//29
f 12//30 22//30 33//30
f 18//31 11//31 34//31
f 13//32 18//32 34//32
f 11//33 22//33 34//33
f 24//34 13//34 34//34
f 22//35 24//35 34//35
f 16//36 1//36 35//36
f 14//37 19//37 35//37
f 19//38 16//38 35//38
f 21//39 14//39 35//39
f 1//40 28//40 35//40
f 28//41 21//41 35//41
f 15//42 10//42 36//42
f 23//43 4//43 36//43
f 10//44 23//44 36//44
f 26//45 15//45 36//45
f 4//46 26//46 36//46
f 4//47 20//47 37//47
f 20//48 17//48 37//48
f 26//49 4//49 37//49
f 17//50 26//50 37//50
f 20//51 5//51 38//51
f 17//52 20//52 38//52
f 30//53 8//53 38//53
f 8//54 32//54 38//54
f 32//55 17//55 38//55
f 7//56 9//56 39//56
f 16//57 7//57 39//57
f 9//58 31//58 39//58
f 31//59 16//59 39//59
f 5//60 24//60 40//60
f 24//61 12//61 40//61
f 12//62 30//62 40//62
f 38//63 5//63 40//63
f 30//64 38//64 40//64
f 9//65 26//65 41//65
f 26//66 17//66 41//66
f 27//67 1//67 41//67
f 17//68 27//68 41//68
f 31//69 9//69 41//69
f 1//70 31//70 41//70
f 3//71 23//71 42//71
f 29//72 3//72 42//72
f 23//73 29//73 42//73
f 7//74 16//74 43//74
f 19//75 7//75 43//75
f 16//76 19//76 43//76
f 4//77 13//77 44//77
f 13//78 20//78 44//78
