# Blender v2.79 (sub 0) OBJ File: ''
# www.blender.org
mtllib 11477_link_1_3.mtl
o Shape_IndexedFaceSet.003_Shape_IndexedFaceSet.5654
v 0.359323 -0.195679 -0.211352
v 0.299316 -0.067187 -0.228488
v -0.129032 -0.178559 -0.207066
v 0.633465 -0.165704 -0.258458
v 0.620634 -0.075778 -0.219916
v -0.129032 -0.075766 -0.262736
v -0.129032 -0.101477 -0.202788
v -0.086159 -0.174282 -0.245608
v 0.620634 -0.080055 -0.275594
v 0.509225 -0.182836 -0.202780
v 0.406422 -0.187113 -0.254180
v -0.129032 -0.067187 -0.219924
v 0.496394 -0.067200 -0.275594
v 0.624861 -0.148571 -0.207066
v -0.124654 -0.157138 -0.194216
v 0.633465 -0.067200 -0.224202
v 0.629163 -0.178547 -0.249894
v -0.129032 -0.178559 -0.237036
v -0.129032 -0.067187 -0.262736
v 0.453597 -0.148571 -0.202780
v 0.633465 -0.169980 -0.211352
v 0.637465 -0.067967 -0.262412
v 0.522057 -0.191402 -0.207066
v 0.500818 -0.191514 -0.244914
v 0.089482 -0.080042 -0.267030
v -0.111822 -0.131439 -0.254172
v -0.129032 -0.169993 -0.198502
v -0.103293 -0.088621 -0.207066
v -0.086159 -0.101477 -0.202788
v 0.582063 -0.071489 -0.219916
v 0.637768 -0.174270 -0.224202
v 0.517755 -0.187113 -0.254180
v -0.129032 -0.169993 -0.245608
v 0.637768 -0.080055 -0.271316
v 0.637768 -0.101477 -0.219916
v 0.629163 -0.127175 -0.267030
v 0.059517 -0.140005 -0.198502
v 0.509225 -0.161414 -0.202780
v -0.004716 -0.144282 -0.254172
v 0.607727 -0.080055 -0.275594
v 0.008115 -0.067187 -0.267030
v 0.624861 -0.178547 -0.219916
v 0.629563 -0.068582 -0.270533
v 0.637768 -0.174270 -0.249894
v 0.637768 -0.148571 -0.211352
v -0.120427 -0.080042 -0.262736
vn -0.0203 -0.1284 -0.9915
vn -1.0000 -0.0000 -0.0000
vn 0.0000 1.0000 0.0012
vn 0.0000 1.0000 -0.0001
vn 0.2002 0.1816 0.9628
vn -0.0350 -0.9994 0.0000
vn -0.0313 -0.8230 -0.5672
vn -0.0000 1.0000 0.0000
vn 0.0246 0.1752 0.9842
vn 0.0847 -0.1628 0.9830
vn 0.0072 0.9998 -0.0193
vn 0.0984 -0.3235 0.9411
vn -0.0228 -0.9759 -0.2172
vn -0.0229 -0.9731 -0.2291
vn 0.0266 -0.9996 -0.0120
vn 0.0984 -0.9938 -0.0523
vn -0.0186 -0.7069 0.7071
vn -0.0000 -0.3163 0.9487
vn -0.7575 0.0408 0.6515
vn -0.0073 -0.5552 0.8317
vn -0.0031 -0.4512 0.8924
vn -0.0744 0.4458 0.8920
vn 0.0000 0.1522 0.9883
vn 0.0000 0.3157 0.9488
vn 0.0095 0.3271 0.9449
vn 0.0437 0.3934 0.9183
vn 0.0041 0.6817 0.7316
vn 0.0205 0.1843 0.9827
vn 0.0031 0.5172 0.8559
vn 0.0166 0.1905 0.9815
vn 0.0753 -0.5706 -0.8178
vn 0.0000 -0.9033 -0.4290
vn 0.0846 -0.9511 -0.2972
vn -0.0229 -0.2289 -0.9732
vn -0.0706 -0.7056 -0.7051
vn -0.0886 -0.1781 -0.9800
vn 1.0000 0.0000 0.0000
vn 0.9856 0.1363 0.1004
vn 0.9998 0.0192 0.0080
vn 0.0040 -0.2167 -0.9762
vn 0.0000 -0.2096 -0.9778
vn 0.4031 -0.1556 -0.9018
vn 0.2401 -0.1313 -0.9618
vn 0.0131 0.1076 0.9941
vn 0.0095 0.1458 0.9893
vn 0.0143 0.1637 0.9864
vn 0.0370 0.0000 0.9993
vn 0.0135 0.0000 0.9999
vn 0.0249 0.1077 0.9939
vn 0.0139 0.0602 0.9981
vn -0.0178 -0.1710 -0.9851
vn -0.0201 -0.1678 -0.9856
vn -0.0225 -0.2162 -0.9761
vn -0.0247 -0.2062 -0.9782
vn 0.0000 0.0000 -1.0000
vn -0.0163 -0.1666 -0.9859
vn -0.0164 -0.1417 -0.9898
vn 0.0000 -0.1788 -0.9839
vn -0.0077 -0.1822 -0.9832
vn 0.0000 1.0000 -0.0002
vn -0.0313 0.0000 -0.9995
vn -0.0174 -0.1103 -0.9937
vn 0.1263 -0.9918 0.0181
vn 0.1728 -0.7777 0.6044
vn 0.3283 -0.9434 0.0471
vn 0.4065 -0.8170 0.4089
vn 0.0391 0.3777 -0.9251
vn 0.0137 0.9960 -0.0888
vn 0.2356 0.2329 -0.9435
vn 0.6105 0.4796 -0.6303
vn 0.2965 -0.5966 -0.7457
vn 0.4451 -0.8955 0.0000
vn 0.8319 -0.1230 -0.5411
vn 0.3109 0.1643 0.9361
vn 0.3145 -0.0632 0.9471
vn 0.9121 -0.1833 0.3666
vn 0.4067 0.1634 0.8988
vn -0.0885 -0.1781 -0.9800
vn -0.0202 -0.1676 -0.9856
vn -0.0278 -0.0559 -0.9981
usemtl Shape.5662
s off
f 41//1 25//1 46//1
f 6//2 3//2 7//2
f 6//2 7//2 12//2
f 2//3 12//3 16//3
f 13//4 2//4 16//4
f 5//5 14//5 16//5
f 1//6 3//6 18//6
f 3//2 6//2 18//2
f 8//7 11//7 18//7
f 12//8 2//8 19//8
f 6//2 12//2 19//2
f 14//9 5//9 20//9
f 14//10 10//10 21//10
f 13//11 16//11 22//11
f 21//12 10//12 23//12
f 1//13 18//13 24//13
f 18//14 11//14 24//14
f 23//15 1//15 24//15
f 17//16 23//16 24//16
f 3//17 1//17 27//17
f 7//2 3//2 27//2
f 10//18 15//18 27//18
f 15//19 7//19 27//19
f 1//20 23//20 27//20
f 23//21 10//21 27//21
f 12//22 7//22 28//22
f 7//23 15//23 29//23
f 28//24 7//24 29//24
f 28//25 29//25 30//25
f 5//26 16//26 30//26
f 16//27 12//27 30//27
f 20//28 5//28 30//28
f 12//29 28//29 30//29
f 29//30 20//30 30//30
f 4//31 17//31 32//31
f 24//32 11//32 32//32
f 17//33 24//33 32//33
f 11//34 8//34 33//34
f 18//2 6//2 33//2
f 8//35 18//35 33//35
f 6//36 26//36 33//36
f 31//37 34//37 35//37
f 22//38 16//38 35//38
f 34//39 22//39 35//39
f 4//40 32//40 36//40
f 32//41 11//41 36//41
f 34//42 4//42 36//42
f 9//43 34//43 36//43
f 15//44 20//44 37//44
f 29//45 15//45 37//45
f 20//46 29//46 37//46
f 10//47 14//47 38//47
f 15//48 10//48 38//48
f 14//49 20//49 38//49
f 20//50 15//50 38//50
f 25//51 11//51 39//51
f 26//52 25//52 39//52
f 11//53 33//53 39//53
f 33//54 26//54 39//54
f 13//55 9//55 40//55
f 11//56 25//56 40//56
f 25//57 13//57 40//57
f 9//58 36//58 40//58
f 36//59 11//59 40//59
f 2//60 13//60 41//60
f 19//8 2//8 41//8
f 6//61 19//61 41//61
f 13//62 25//62 41//62
f 23//63 17//63 42//63
f 21//64 23//64 42//64
f 17//65 31//65 42//65
f 31//66 21//66 42//66
f 9//67 13//67 43//67
f 13//68 22//68 43//68
f 34//69 9//69 43//69
f 22//70 34//70 43//70
f 17//71 4//71 44//71
f 31//72 17//72 44//72
f 4//73 34//73 44//73
f 34//37 31//37 44//37
f 16//74 14//74 45//74
f 14//75 21//75 45//75
f 21//76 31//76 45//76
f 31//37 35//37 45//37
f 35//77 16//77 45//77
f 26//78 6//78 46//78
f 25//79 26//79 46//79
f 6//80 41//80 46//80
