# Blender v2.79 (sub 0) OBJ File: ''
# www.blender.org
mtllib 102648_link_4_19.mtl
o Shape_IndexedFaceSet.019_Shape_IndexedFaceSet.16789
v -0.127363 -0.097142 0.602095
v -0.020088 0.013583 0.795172
v -0.020091 0.061213 0.781539
v -0.120442 0.072218 0.746050
v -0.014869 0.082831 0.692093
v -0.016719 -0.116413 0.665681
v -0.121293 -0.093727 0.720020
v -0.127363 0.082831 0.639593
v -0.018340 -0.098408 0.756069
v -0.120507 -0.033032 0.765858
v -0.018502 0.091296 0.755906
v -0.053943 -0.020573 0.796096
v -0.119854 0.097835 0.662087
v -0.119854 -0.104654 0.602095
v -0.081245 0.081032 0.760732
v -0.081031 -0.066232 0.766129
v -0.019293 -0.034492 0.796604
v -0.122881 0.089767 0.720548
vn -0.3739 0.7470 0.5498
vn 0.9997 -0.0120 0.0203
vn -0.1116 -0.9750 0.1922
vn -0.9983 -0.0265 0.0522
vn -0.9989 -0.0095 0.0455
vn 0.9953 0.0267 0.0930
vn -0.4335 0.1669 0.8855
vn 0.2779 0.7537 -0.5955
vn 0.1739 0.9775 -0.1198
vn 0.5306 0.1065 -0.8409
vn -0.7061 -0.7058 0.0568
vn -0.1668 -0.9820 0.0890
vn 0.1999 0.1999 -0.9592
vn 0.4148 0.1944 -0.8889
vn -0.2315 0.2677 0.9353
vn -0.0478 0.6493 0.7590
vn -0.2383 0.2615 0.9353
vn -0.3840 0.2098 0.8992
vn -0.2607 -0.7119 0.6521
vn -0.4535 -0.5334 0.7140
vn -0.3235 -0.3775 0.8677
vn -0.1953 -0.4545 0.8691
vn 0.9994 -0.0070 0.0345
vn 0.9968 0.0188 0.0775
vn 0.9984 0.0116 0.0553
vn -0.0027 0.0297 0.9996
vn -0.1389 -0.5319 0.8354
vn -0.9937 0.0213 0.1097
vn -0.9985 0.0011 0.0552
vn -0.9018 0.4320 0.0129
vn -0.0597 0.9893 0.1334
vn -0.1270 0.9338 0.3346
usemtl Shape.16803
s off
f 4//1 15//1 18//1
f 6//2 5//2 9//2
f 7//3 6//3 9//3
f 1//4 7//4 10//4
f 8//5 1//5 10//5
f 3//6 2//6 11//6
f 4//7 10//7 12//7
f 5//8 8//8 13//8
f 11//9 5//9 13//9
f 5//10 6//10 14//10
f 7//11 1//11 14//11
f 6//12 7//12 14//12
f 1//13 8//13 14//13
f 8//14 5//14 14//14
f 2//15 3//15 15//15
f 3//16 11//16 15//16
f 12//17 2//17 15//17
f 4//18 12//18 15//18
f 7//19 9//19 16//19
f 10//20 7//20 16//20
f 12//21 10//21 16//21
f 12//22 16//22 17//22
f 9//23 5//23 17//23
f 11//24 2//24 17//24
f 5//25 11//25 17//25
f 2//26 12//26 17//26
f 16//27 9//27 17//27
f 10//28 4//28 18//28
f 8//29 10//29 18//29
f 13//30 8//30 18//30
f 11//31 13//31 18//31
f 15//32 11//32 18//32
