# Blender v2.79 (sub 0) OBJ File: ''
# www.blender.org
mtllib 102648_link_2_0.mtl
o Shape_IndexedFaceSet_Shape_IndexedFaceSet.9179
v -0.269004 0.185994 0.172455
v 0.294679 0.163102 0.308010
v 0.288890 0.163105 0.347766
v -0.237309 0.131304 0.247263
v -0.061704 0.177354 0.684755
v 0.105279 0.206150 0.065921
v 0.067815 0.134190 -0.023322
v 0.105279 0.134190 0.641600
v 0.050569 0.211904 0.500556
v -0.228686 0.139944 0.537996
v -0.179745 0.209027 0.376730
v -0.179745 0.165855 -0.000315
v 0.229088 0.134181 0.106219
v 0.208929 0.191748 0.486122
v -0.107731 0.211904 0.114865
v -0.289163 0.174486 0.394022
v 0.223320 0.185994 0.086070
v -0.234454 0.137058 0.071636
v 0.154220 0.211913 0.276131
v 0.007337 0.183117 -0.026179
v 0.148451 0.177354 0.624381
v 0.252102 0.139944 0.460257
v 0.119669 0.128427 0.365227
v -0.061704 0.134190 0.670395
v -0.303554 0.142821 0.290492
v -0.168208 0.191757 0.566791
v -0.050167 0.217658 0.183958
v 0.269347 0.188880 0.310568
v 0.174379 0.168732 0.005473
v -0.093340 0.134190 -0.020464
v -0.139427 0.197510 0.031337
v 0.007337 0.128418 0.126368
v -0.015617 0.203264 0.592656
v 0.056338 0.148575 0.699263
v -0.171122 0.165855 0.627239
v -0.125036 0.128427 0.388307
v 0.263638 0.134181 0.307710
v 0.007337 0.217658 0.417028
v 0.266492 0.148575 0.126368
v 0.079351 0.188871 0.644457
v 0.197392 0.160092 0.584010
v -0.266090 0.171609 0.106219
v -0.240163 0.200396 0.296280
v -0.257468 0.134181 0.414171
v -0.113499 0.148575 0.679040
v 0.203161 0.142821 0.028480
v 0.145537 0.206150 0.471761
v -0.303554 0.174486 0.281846
v 0.283738 0.177354 0.218468
v 0.223320 0.197510 0.172455
v -0.076095 0.209027 0.523562
v 0.252102 0.177363 0.457400
v 0.079351 0.217658 0.255982
v 0.018874 0.209027 0.057275
v 0.021787 0.157224 -0.040613
v -0.096254 0.217658 0.330790
v -0.205613 0.197510 0.100504
v 0.125378 0.194634 0.019907
v -0.248845 0.185994 0.457327
v 0.292420 0.142821 0.290419
v -0.188368 0.131304 0.086070
v 0.047655 0.131304 0.604232
v 0.188770 0.134190 0.546642
v -0.076095 0.171618 -0.031968
vn -0.1204 -0.2405 -0.9631
vn -0.8597 -0.4427 0.2549
vn -0.1935 -0.9805 -0.0353
vn 0.7145 0.6918 0.1040
vn -0.3959 -0.7083 -0.5845
vn 0.0233 -0.9993 -0.0291
vn 0.0249 -0.9996 -0.0117
vn -0.0007 -0.9992 -0.0388
vn -0.1100 0.9698 0.2178
vn 0.0483 -0.9587 0.2802
vn -0.8298 0.3520 0.4330
vn -0.2854 0.8858 0.3658
vn 0.0000 -1.0000 0.0000
vn 0.0374 -0.9993 -0.0064
vn 0.0701 0.9970 0.0324
vn 0.2159 0.9569 0.1941
vn 0.0712 0.9871 0.1438
vn -0.0014 0.9628 0.2701
vn 0.3041 0.7021 0.6439
vn 0.1134 0.7772 0.6190
vn 0.5424 -0.5823 0.6056
vn 0.6333 -0.0139 0.7737
vn -0.7763 -0.0857 -0.6245
vn -0.8251 -0.5081 -0.2471
vn -0.1145 0.9932 -0.0206
vn -0.0870 -0.9940 0.0665
vn -0.1738 -0.9848 -0.0040
vn -0.6282 -0.7566 0.1812
vn -0.0410 -0.9991 0.0123
vn -0.0378 -0.9989 0.0289
vn -0.2225 -0.9451 0.2395
vn -0.1182 0.0156 0.9929
vn -0.0827 -0.7149 0.6943
vn -0.6587 -0.4934 0.5681
vn -0.4162 0.6163 0.6686
vn 0.1196 -0.9816 -0.1490
vn 0.3525 -0.3712 -0.8590
vn 0.7592 0.3646 -0.5391
vn 0.7817 0.3360 -0.5255
vn 0.4616 -0.8515 -0.2486
vn 0.0703 0.9970 0.0325
vn 0.2091 0.9763 0.0560
vn 0.1853 0.9820 0.0372
vn 0.1014 0.9853 0.1374
vn 0.1823 0.9690 0.1668
vn -0.9913 0.0347 0.1272
vn -0.7532 0.6351 -0.1711
vn -0.9766 -0.0566 -0.2074
vn -0.3742 0.9271 -0.0207
vn -0.3876 0.9205 0.0497
vn 0.7142 0.6995 0.0241
vn 0.7726 0.5503 -0.3166
vn 0.1884 0.9735 -0.1298
vn 0.1229 0.9909 -0.0558
vn 0.1975 0.9803 -0.0046
vn 0.3573 0.9320 -0.0608
vn 0.3961 0.9102 -0.1213
vn -0.1388 0.9855 0.0980
vn -0.0065 0.9960 0.0888
vn -0.1030 0.9797 0.1719
vn -0.0093 0.9973 0.0735
vn 0.4720 0.8315 0.2930
vn 0.9487 0.0241 0.3152
vn 0.6845 0.7161 0.1366
vn 0.3831 0.9163 0.1169
vn 0.5506 0.7616 0.3418
vn 0.9160 0.0305 0.4000
vn 0.0893 0.9948 -0.0481
vn 0.0683 0.9972 0.0305
vn 0.0000 1.0000 0.0000
vn -0.0110 0.9972 -0.0739
vn -0.0469 0.9872 -0.1523
vn -0.0214 0.9556 -0.2937
vn 0.0387 0.9977 -0.0551
vn 0.0290 0.9982 -0.0522
vn 0.2954 -0.1212 -0.9477
vn 0.2005 0.5600 -0.8038
vn -0.0139 -0.6180 -0.7861
vn -0.1139 0.9933 -0.0204
vn -0.0724 0.9971 -0.0227
vn -0.0741 0.9959 0.0523
vn -0.0407 0.9980 0.0489
vn -0.3810 0.8497 -0.3645
vn -0.1269 0.9844 -0.1215
vn -0.3954 0.8425 -0.3660
vn -0.4016 0.8911 -0.2112
vn -0.2404 0.9690 -0.0567
vn -0.1397 0.9894 -0.0392
vn 0.1924 0.9685 -0.1583
vn 0.3384 0.8569 -0.3890
vn 0.1880 0.7249 -0.6627
vn 0.0544 0.9740 -0.2200
vn 0.0238 0.9538 -0.2994
vn -0.2066 0.9732 0.1010
vn -0.7818 0.4672 0.4130
vn -0.4948 0.8071 0.3220
vn -0.2368 0.9688 0.0739
vn -0.3647 0.9290 0.0634
vn 0.9633 -0.2290 0.1403
vn 0.8847 -0.4197 0.2029
vn 0.2623 -0.9639 -0.0450
vn 0.3198 -0.9456 0.0599
vn 0.4019 -0.9107 -0.0955
vn 0.9925 -0.0047 -0.1220
vn 0.9839 -0.0827 -0.1584
vn -0.1132 -0.9930 -0.0344
vn -0.0901 -0.9902 -0.1072
vn -0.0077 -0.9994 -0.0340
vn -0.0185 -0.9998 -0.0056
vn -0.0134 -0.9999 -0.0067
vn 0.0105 -0.9981 0.0609
vn -0.0123 -0.9997 0.0232
vn 0.0012 -0.9999 0.0124
vn 0.1566 -0.9864 0.0491
vn 0.0457 -0.9989 0.0143
vn 0.5745 -0.7288 0.3726
vn 0.4802 -0.7689 0.4222
vn 0.0319 -0.9991 0.0280
vn 0.0289 -0.9994 0.0207
vn -0.2800 -0.1618 -0.9463
vn -0.2112 0.8124 -0.5435
vn -0.0907 0.8867 -0.4534
vn -0.0060 0.4843 -0.8749
usemtl Shape.9187
s off
f 55//1 30//1 64//1
f 10//2 16//2 25//2
f 18//3 4//3 25//3
f 3//4 2//4 28//4
f 18//5 12//5 30//5
f 7//6 13//6 32//6
f 13//7 23//7 32//7
f 30//8 7//8 32//8
f 26//9 5//9 33//9
f 24//10 8//10 34//10
f 16//11 10//11 35//11
f 5//12 26//12 35//12
f 32//13 23//13 36//13
f 23//14 13//14 37//14
f 9//15 19//15 38//15
f 21//16 14//16 40//16
f 9//17 33//17 40//17
f 33//18 5//18 40//18
f 34//19 21//19 40//19
f 5//20 34//20 40//20
f 34//21 8//21 41//21
f 21//22 34//22 41//22
f 12//23 18//23 42//23
f 18//24 25//24 42//24
f 11//25 15//25 43//25
f 24//26 10//26 44//26
f 25//27 4//27 44//27
f 10//28 25//28 44//28
f 4//29 36//29 44//29
f 36//30 24//30 44//30
f 10//31 24//31 45//31
f 34//32 5//32 45//32
f 24//33 34//33 45//33
f 35//34 10//34 45//34
f 5//35 35//35 45//35
f 13//36 7//36 46//36
f 7//37 29//37 46//37
f 29//38 17//38 46//38
f 17//39 39//39 46//39
f 39//40 13//40 46//40
f 19//41 9//41 47//41
f 14//42 28//42 47//42
f 28//43 19//43 47//43
f 9//44 40//44 47//44
f 40//45 14//45 47//45
f 25//46 16//46 48//46
f 1//47 42//47 48//47
f 42//48 25//48 48//48
f 43//49 1//49 48//49
f 16//50 43//50 48//50
f 28//51 2//51 49//51
f 39//52 17//52 49//52
f 17//53 6//53 50//53
f 6//54 19//54 50//54
f 19//55 28//55 50//55
f 28//56 49//56 50//56
f 49//57 17//57 50//57
f 11//58 26//58 51//58
f 33//59 9//59 51//59
f 26//60 33//60 51//60
f 9//61 38//61 51//61
f 14//62 21//62 52//62
f 22//63 3//63 52//63
f 3//64 28//64 52//64
f 28//65 14//65 52//65
f 21//66 41//66 52//66
f 41//67 22//67 52//67
f 19//68 6//68 53//68
f 38//69 19//69 53//69
f 27//70 38//70 53//70
f 15//71 27//71 54//71
f 31//72 15//72 54//72
f 20//73 31//73 54//73
f 53//74 6//74 54//74
f 27//75 53//75 54//75
f 29//76 7//76 55//76
f 20//77 29//77 55//77
f 7//78 30//78 55//78
f 15//79 11//79 56//79
f 27//80 15//80 56//80
f 38//70 27//70 56//70
f 11//81 51//81 56//81
f 51//82 38//82 56//82
f 31//83 12//83 57//83
f 15//84 31//84 57//84
f 12//85 42//85 57//85
f 42//86 1//86 57//86
f 1//87 43//87 57//87
f 43//88 15//88 57//88
f 6//89 17//89 58//89
f 17//90 29//90 58//90
f 29//91 20//91 58//91
f 54//92 6//92 58//92
f 20//93 54//93 58//93
f 26//94 11//94 59//94
f 16//95 35//95 59//95
f 35//96 26//96 59//96
f 11//97 43//97 59//97
f 43//98 16//98 59//98
f 2//99 3//99 60//99
f 3//100 22//100 60//100
f 37//101 13//101 60//101
f 22//102 37//102 60//102
f 13//103 39//103 60//103
f 49//104 2//104 60//104
f 39//105 49//105 60//105
f 4//106 18//106 61//106
f 18//107 30//107 61//107
f 30//108 32//108 61//108
f 36//109 4//109 61//109
f 32//110 36//110 61//110
f 8//111 24//111 62//111
f 24//112 36//112 62//112
f 36//113 23//113 62//113
f 37//114 22//114 63//114
f 23//115 37//115 63//115
f 22//116 41//116 63//116
f 41//117 8//117 63//117
f 8//118 62//118 63//118
f 62//119 23//119 63//119
f 30//120 12//120 64//120
f 12//121 31//121 64//121
f 31//122 20//122 64//122
f 20//123 55//123 64//123
