# Blender v2.79 (sub 0) OBJ File: ''
# www.blender.org
mtllib 102648_link_4_17.mtl
o Shape_IndexedFaceSet.017_Shape_IndexedFaceSet.16787
v -0.090761 -0.259012 0.601414
v 0.082244 -0.189867 0.644195
v 0.062139 -0.189534 0.659499
v -0.127363 -0.202161 0.339590
v 0.090125 -0.262138 0.339590
v 0.090125 -0.202161 0.347153
v -0.121051 -0.189326 0.618007
v -0.127363 -0.262138 0.339590
v 0.083773 -0.259948 0.596791
v 0.090125 -0.187150 0.474618
v -0.036156 -0.259782 0.645566
v -0.127363 -0.187150 0.452130
v -0.043332 -0.189287 0.674672
v -0.119595 -0.259460 0.560785
v 0.027025 -0.259764 0.645498
v 0.060107 -0.202161 0.339590
vn 0.0117 0.9935 -0.1130
vn 0.0000 0.0000 -1.0000
vn 0.0298 0.9994 0.0174
vn 1.0000 -0.0000 -0.0000
vn 0.9989 -0.0095 0.0463
vn 0.9987 -0.0451 0.0250
vn -0.5749 -0.4175 0.7037
vn 0.0000 -1.0000 0.0077
vn -1.0000 0.0000 0.0000
vn -0.0010 0.9999 0.0100
vn 0.0043 0.9999 0.0135
vn -0.5481 -0.3663 0.7520
vn -0.0104 0.9999 0.0135
vn -0.7294 -0.4415 0.5225
vn -0.0539 -0.9973 0.0492
vn -0.0168 -0.9998 0.0127
vn -0.9980 -0.0512 0.0373
vn -0.9979 -0.0536 0.0357
vn 0.5459 -0.4177 0.7263
vn 0.5818 -0.4470 0.6795
vn 0.0042 -1.0000 0.0086
vn 0.0003 -1.0000 0.0078
vn 0.1369 -0.2591 0.9561
vn 0.0011 -0.3815 0.9244
vn 0.2425 0.1214 -0.9625
vn 0.0295 0.9927 -0.1169
vn 0.0000 0.9912 -0.1322
usemtl Shape.16801
s off
f 12//1 10//1 16//1
f 4//2 5//2 8//2
f 3//3 2//3 10//3
f 5//4 6//4 10//4
f 2//5 9//5 10//5
f 9//6 5//6 10//6
f 7//7 1//7 11//7
f 8//8 5//8 11//8
f 4//9 8//9 12//9
f 10//10 12//10 13//10
f 3//11 10//11 13//11
f 7//12 11//12 13//12
f 12//13 7//13 13//13
f 1//14 7//14 14//14
f 11//15 1//15 14//15
f 8//16 11//16 14//16
f 7//17 12//17 14//17
f 12//18 8//18 14//18
f 2//19 3//19 15//19
f 9//20 2//20 15//20
f 5//21 9//21 15//21
f 11//22 5//22 15//22
f 3//23 13//23 15//23
f 13//24 11//24 15//24
f 5//2 4//2 16//2
f 6//25 5//25 16//25
f 10//26 6//26 16//26
f 4//27 12//27 16//27
