# Blender v2.79 (sub 0) OBJ File: ''
# www.blender.org
mtllib 102648_link_4_3.mtl
o Shape_IndexedFaceSet.003_Shape_IndexedFaceSet.16773
v -0.171544 -0.692210 0.506717
v 0.224221 -0.650127 0.256885
v 0.215626 -0.606649 0.314433
v -0.064034 -0.486090 -0.168012
v -0.036690 -0.482173 0.675125
v -0.128100 -0.705936 -0.169225
v -0.216315 -0.484172 0.206586
v 0.092724 -0.699549 0.607323
v 0.175223 -0.687160 -0.181295
v 0.209679 -0.483718 0.264049
v -0.225542 -0.672225 -0.055648
v 0.129785 -0.483956 0.567328
v 0.088034 -0.533515 -0.183339
v -0.043868 -0.687225 0.688291
v -0.159112 -0.483873 0.531449
v -0.231311 -0.686156 0.278506
v 0.183228 -0.705273 0.031037
v -0.189562 -0.650514 -0.180256
v 0.201312 -0.621046 -0.095687
v -0.127542 -0.705428 0.497214
v 0.187050 -0.685877 0.444119
v 0.065672 -0.621423 0.673377
v 0.224277 -0.679089 0.010917
v -0.130559 -0.621223 0.611997
v 0.054146 -0.489886 -0.153442
v -0.202236 -0.483987 0.394021
v -0.194935 -0.621111 -0.154250
v 0.109174 -0.679606 0.628451
v -0.220718 -0.698980 0.050689
v -0.239105 -0.613950 0.206359
v 0.029316 -0.481992 0.675796
v -0.195131 -0.671703 0.466400
v 0.179886 -0.484237 0.436914
v 0.201562 -0.484180 0.199370
v 0.085192 -0.706202 -0.170328
v 0.133635 -0.705130 0.454169
v 0.206869 -0.699411 0.256839
v -0.239442 -0.635738 0.046713
v 0.165973 -0.606695 0.516998
v 0.173555 -0.621188 -0.177324
v 0.036655 -0.680287 0.690266
v -0.102004 -0.483037 0.628163
v -0.094359 -0.686487 0.655724
v -0.180242 -0.693103 -0.175262
v 0.223503 -0.628308 0.011728
v -0.042610 -0.705232 0.595517
v 0.080847 -0.481902 0.639387
v -0.183300 -0.704928 0.270807
v -0.216516 -0.613880 0.379554
v -0.043956 -0.606850 0.689337
v -0.239361 -0.679212 0.046785
v -0.166392 -0.678984 0.546079
v -0.224057 -0.505604 0.256878
v 0.193120 -0.699683 -0.072395
v 0.194839 -0.606692 0.422952
v -0.224750 -0.635710 -0.054527
v 0.224163 -0.599467 0.242472
v -0.194775 -0.585081 0.458773
v 0.137532 -0.621216 0.582953
v 0.224117 -0.679031 0.242474
v -0.028736 -0.699303 0.663580
v 0.150273 -0.692593 0.536360
v -0.014697 -0.562810 0.691051
v -0.087524 -0.577694 0.657678
vn -0.5782 0.0217 0.8156
vn -0.0004 1.0000 -0.0053
vn -0.0621 0.1212 -0.9907
vn -0.0044 -0.0158 -0.9999
vn 0.9814 -0.0510 0.1851
vn 0.9675 -0.0656 -0.2442
vn 0.1155 0.6210 -0.7753
vn -0.0106 0.9999 -0.0002
vn -0.7019 0.6511 -0.2887
vn -0.5691 0.4840 -0.6648
vn -0.8141 -0.5457 0.1987
vn 0.9787 0.1166 0.1690
vn 0.0033 1.0000 -0.0076
vn 0.0359 0.9989 -0.0312
vn 0.6530 0.7020 -0.2842
vn -0.0051 -0.4807 -0.8769
vn -0.0012 -1.0000 0.0008
vn 0.0071 -1.0000 0.0012
vn 0.1147 -0.9933 0.0138
vn 0.9260 0.1273 0.3555
vn 0.1341 0.0629 -0.9890
vn 0.9459 0.0433 -0.3217
vn 0.7773 0.5705 -0.2653
vn 0.6948 0.6578 -0.2909
vn 0.3922 -0.8016 0.4513
vn 0.6459 -0.1013 0.7567
vn 0.3731 0.0813 0.9242
vn -0.8555 0.1178 0.5042
vn -0.0149 0.9999 0.0023
vn -0.0282 0.9996 0.0080
vn -0.2505 -0.9537 0.1664
vn -0.0076 -0.4508 -0.8926
vn -0.0148 -0.1197 -0.9927
vn -0.9214 -0.2377 -0.3075
vn -0.2312 -0.9706 -0.0667
vn -0.7015 -0.6981 -0.1438
vn 0.9794 0.0181 -0.2011
vn 0.9458 0.3013 -0.1209
vn 0.9196 0.3560 -0.1659
vn 0.0007 -1.0000 0.0014
vn 0.0018 -1.0000 0.0016
vn 0.0379 -0.9982 0.0465
vn -0.0032 1.0000 -0.0030
vn -0.0004 1.0000 -0.0050
vn 0.7624 0.0737 0.6428
vn -0.0027 1.0000 -0.0014
vn 0.5716 0.1350 0.8093
vn 0.0458 0.9989 0.0109
vn 0.0889 0.9955 0.0320
vn -0.3538 -0.9328 0.0679
vn -0.2741 -0.9595 0.0654
vn -0.0121 -0.9999 0.0008
vn -0.0987 -0.9951 -0.0101
vn -0.3589 -0.9327 0.0358
vn -0.9914 0.0222 0.1293
vn -0.9785 -0.0707 0.1939
vn -0.5421 -0.0115 0.8402
vn -0.7059 -0.6939 -0.1426
vn -0.7280 -0.6856 0.0047
vn -0.9966 -0.0752 0.0324
vn -0.9910 -0.0021 -0.1338
vn -1.0000 -0.0019 0.0024
vn -0.8998 0.0659 0.4314
vn -0.8494 -0.4567 0.2646
vn -0.5760 -0.7492 0.3271
vn -0.8347 -0.1002 0.5415
vn -0.8794 0.4716 0.0656
vn -0.9754 0.2120 -0.0598
vn -0.9892 0.1457 -0.0178
vn -0.9886 0.0772 0.1289
vn -0.9855 0.0925 0.1422
vn 0.8487 -0.4912 -0.1960
vn 0.1881 -0.9717 -0.1427
vn 0.1001 -0.9940 -0.0441
vn 0.3708 -0.9286 -0.0147
vn 0.5955 -0.8030 -0.0242
vn 0.9811 -0.0463 0.1879
vn 0.9774 0.0980 0.1873
vn 0.9559 -0.0156 0.2934
vn 0.9527 0.0830 0.2924
vn -0.9617 0.0292 -0.2726
vn -0.8903 0.4058 -0.2068
vn -0.9585 0.0693 -0.2764
vn -0.9893 0.0259 -0.1436
vn -0.9473 0.2895 -0.1374
vn 0.9920 0.0356 0.1212
vn 0.9869 0.0998 0.1270
vn 1.0000 0.0012 0.0001
vn 0.9916 0.1276 -0.0188
vn 0.9999 0.0153 -0.0048
vn -0.9472 0.1204 0.2971
vn -0.9683 0.0801 0.2366
vn -0.9664 0.0265 0.2556
vn -0.9275 0.0622 0.3685
vn -0.9391 0.0340 0.3418
vn 0.9058 0.0980 0.4122
vn 0.8237 0.1098 0.5563
vn 0.7960 0.0809 0.5999
vn 0.9799 -0.0918 0.1770
vn 1.0000 -0.0039 0.0007
vn 0.7995 -0.5871 0.1270
vn 0.7636 -0.6457 0.0007
vn 0.0643 -0.8805 0.4697
vn 0.1441 -0.9380 0.3153
vn -0.2182 -0.9228 0.3174
vn -0.2075 -0.9653 0.1588
vn 0.0349 -0.9962 0.0797
vn -0.1271 -0.9856 0.1118
vn 0.5154 -0.7862 0.3409
vn 0.2388 -0.9660 0.0990
vn 0.3007 -0.9500 0.0840
vn 0.4411 -0.8906 0.1110
vn 0.9275 -0.0876 0.3634
vn 0.9015 -0.1120 0.4181
vn 0.9216 -0.0830 0.3791
vn -0.0105 0.1910 0.9815
vn -0.0231 -0.0168 0.9996
vn 0.1946 0.0786 0.9777
vn -0.2427 0.1238 0.9622
vn -0.0389 -0.0130 0.9992
vn -0.5776 0.1612 0.8003
vn -0.7636 0.0829 0.6404
vn -0.7437 0.0347 0.6676
vn -0.5263 0.1265 0.8408
usemtl Shape.16787
s off
f 43//1 50//1 64//1
f 4//2 7//2 10//2
f 4//3 13//3 18//3
f 13//4 9//4 18//4
f 2//5 3//5 21//5
f 9//6 19//6 23//6
f 13//7 4//7 25//7
f 5//8 7//8 26//8
f 7//9 4//9 27//9
f 4//10 18//10 27//10
f 16//11 1//11 32//11
f 3//12 10//12 33//12
f 4//13 10//13 34//13
f 25//14 4//14 34//14
f 13//15 25//15 34//15
f 6//16 9//16 35//16
f 20//17 6//17 35//17
f 35//18 17//18 36//18
f 36//19 17//19 37//19
f 33//20 12//20 39//20
f 9//21 13//21 40//21
f 19//22 9//22 40//22
f 34//23 19//23 40//23
f 13//24 34//24 40//24
f 8//25 28//25 41//25
f 28//26 22//26 41//26
f 22//27 31//27 41//27
f 15//28 24//28 42//28
f 5//29 26//29 42//29
f 26//30 15//30 42//30
f 1//31 20//31 43//31
f 9//32 6//32 44//32
f 18//33 9//33 44//33
f 11//34 18//34 44//34
f 6//35 29//35 44//35
f 29//36 11//36 44//36
f 23//37 19//37 45//37
f 34//38 10//38 45//38
f 19//39 34//39 45//39
f 20//40 35//40 46//40
f 35//41 36//41 46//41
f 36//42 8//42 46//42
f 7//43 5//43 47//43
f 10//44 7//44 47//44
f 22//45 28//45 47//45
f 5//46 31//46 47//46
f 31//47 22//47 47//47
f 33//48 10//48 47//48
f 12//49 33//49 47//49
f 1//50 16//50 48//50
f 20//51 1//51 48//51
f 6//52 20//52 48//52
f 29//53 6//53 48//53
f 16//54 29//54 48//54
f 30//55 16//55 49//55
f 16//56 32//56 49//56
f 43//57 14//57 50//57
f 11//58 29//58 51//58
f 29//59 16//59 51//59
f 16//60 30//60 51//60
f 38//61 11//61 51//61
f 30//62 38//62 51//62
f 24//63 15//63 52//63
f 32//64 1//64 52//64
f 1//65 43//65 52//65
f 43//66 24//66 52//66
f 26//67 7//67 53//67
f 7//68 38//68 53//68
f 38//69 30//69 53//69
f 30//70 49//70 53//70
f 49//71 26//71 53//71
f 9//72 23//72 54//72
f 35//73 9//73 54//73
f 17//74 35//74 54//74
f 37//75 17//75 54//75
f 23//76 37//76 54//76
f 21//77 3//77 55//77
f 3//78 33//78 55//78
f 39//79 21//79 55//79
f 33//80 39//80 55//80
f 18//81 11//81 56//81
f 7//82 27//82 56//82
f 27//83 18//83 56//83
f 11//84 38//84 56//84
f 38//85 7//85 56//85
f 3//86 2//86 57//86
f 10//87 3//87 57//87
f 2//88 23//88 57//88
f 45//89 10//89 57//89
f 23//90 45//90 57//90
f 15//91 26//91 58//91
f 26//92 49//92 58//92
f 49//93 32//93 58//93
f 52//94 15//94 58//94
f 32//95 52//95 58//95
f 39//96 12//96 59//96
f 12//97 47//97 59//97
f 47//98 28//98 59//98
f 2//99 21//99 60//99
f 23//100 2//100 60//100
f 21//101 37//101 60//101
f 37//102 23//102 60//102
f 41//103 14//103 61//103
f 8//104 41//104 61//104
f 14//105 43//105 61//105
f 43//106 20//106 61//106
f 46//107 8//107 61//107
f 20//108 46//108 61//108
f 28//109 8//109 62//109
f 8//110 36//110 62//110
f 36//111 37//111 62//111
f 37//112 21//112 62//112
f 21//113 39//113 62//113
f 59//114 28//114 62//114
f 39//115 59//115 62//115
f 31//116 5//116 63//116
f 14//117 41//117 63//117
f 41//118 31//118 63//118
f 5//119 50//119 63//119
f 50//120 14//120 63//120
f 5//121 42//121 64//121
f 42//122 24//122 64//122
f 24//123 43//123 64//123
f 50//124 5//124 64//124
