# Blender v2.79 (sub 0) OBJ File: ''
# www.blender.org
mtllib 100484_link_1_7.mtl
o Shape_IndexedFaceSet.007_Shape_IndexedFaceSet.8656
v -0.264926 0.455948 -0.644202
v -0.633306 0.632575 -0.344960
v -0.633306 0.655602 -0.360271
v -0.441441 -0.510986 -0.344960
v -0.345462 -0.527445 -0.330577
v -0.257270 0.686227 -0.613483
v -0.364688 0.663199 -0.644234
v -0.257270 -0.510986 -0.506081
v -0.579560 0.693943 -0.337240
v -0.238662 -0.528726 -0.430566
v -0.610261 0.647887 -0.398678
v -0.303285 -0.480243 -0.490770
v -0.464448 0.693943 -0.544423
v -0.259487 0.694508 -0.650125
v -0.510501 -0.157852 -0.344960
v -0.272620 -0.510986 -0.506081
v -0.372381 0.525032 -0.613515
v -0.615770 0.694111 -0.339294
v -0.257270 0.647887 -0.605828
v -0.264926 0.624859 -0.667233
v -0.264926 0.701658 -0.621171
v -0.625612 0.678630 -0.383302
v -0.310979 0.686227 -0.659545
v -0.456755 -0.441902 -0.344960
v -0.564209 0.148870 -0.344960
v -0.341680 0.494407 -0.628859
vn -0.2678 -0.1235 -0.9555
vn -0.1463 -0.9787 -0.1437
vn 0.9982 0.0064 -0.0589
vn 0.0000 -0.1414 -0.9900
vn -0.1530 -0.9751 -0.1603
vn 0.0000 -0.9735 -0.2287
vn -0.5511 -0.1400 -0.8226
vn -0.6560 -0.3120 -0.6873
vn -0.6984 -0.1180 -0.7059
vn -0.6215 -0.1369 -0.7714
vn -0.9112 0.2281 0.3430
vn -0.0567 -0.0054 0.9984
vn 0.6457 0.1279 0.7528
vn 0.6455 0.1495 0.7490
vn 0.6794 0.1186 0.7241
vn 0.9530 0.0593 0.2972
vn 0.6307 -0.1048 -0.7689
vn 0.9690 -0.0283 -0.2454
vn 0.9756 -0.0226 -0.2183
vn 0.5406 0.5744 0.6146
vn 0.8842 0.4643 0.0514
vn 0.0029 0.9995 0.0304
vn -0.0543 0.9977 -0.0409
vn -0.7071 0.0006 -0.7071
vn -0.7071 0.0014 -0.7071
vn -0.9220 0.3804 0.0724
vn -0.3324 0.9105 -0.2460
vn -0.4495 0.6222 -0.6409
vn -0.2478 -0.0648 -0.9666
vn 0.1400 0.2259 -0.9640
vn -0.1074 0.9603 -0.2573
vn -0.1275 0.9637 -0.2345
vn -0.1538 -0.0341 0.9875
vn -0.7005 -0.1553 -0.6965
vn -0.1495 -0.0283 0.9884
vn -0.7074 -0.1339 -0.6940
vn -0.7013 -0.1333 -0.7003
vn -0.7000 -0.1338 -0.7015
vn -0.9683 -0.1383 -0.2080
vn -0.1419 -0.0248 0.9896
vn -0.7851 -0.1375 -0.6040
vn -0.2103 -0.0300 0.9772
vn -0.1370 -0.0232 0.9903
vn -0.8232 -0.1353 -0.5513
vn -0.8915 -0.1346 -0.4325
vn -0.2586 -0.1346 -0.9566
vn -0.4131 -0.1383 -0.9001
vn -0.2568 -0.1306 -0.9576
usemtl Shape.8671
s off
f 7//1 20//1 26//1
f 5//2 4//2 10//2
f 6//3 10//3 14//3
f 1//4 8//4 16//4
f 10//5 4//5 16//5
f 8//6 10//6 16//6
f 12//7 7//7 16//7
f 4//8 12//8 16//8
f 11//9 7//9 17//9
f 7//10 12//10 17//10
f 3//11 2//11 18//11
f 5//12 9//12 18//12
f 9//13 5//13 19//13
f 6//14 9//14 19//14
f 5//15 10//15 19//15
f 10//16 6//16 19//16
f 8//17 1//17 20//17
f 10//18 8//18 20//18
f 14//19 10//19 20//19
f 9//20 6//20 21//20
f 6//21 14//21 21//21
f 18//22 9//22 21//22
f 13//23 18//23 21//23
f 7//24 11//24 22//24
f 13//25 7//25 22//25
f 3//26 18//26 22//26
f 18//27 13//27 22//27
f 7//28 13//28 23//28
f 20//29 7//29 23//29
f 14//30 20//30 23//30
f 21//31 14//31 23//31
f 13//32 21//32 23//32
f 4//33 5//33 24//33
f 12//34 4//34 24//34
f 5//35 15//35 24//35
f 15//36 11//36 24//36
f 11//37 17//37 24//37
f 17//38 12//38 24//38
f 2//39 3//39 25//39
f 15//40 5//40 25//40
f 11//41 15//41 25//41
f 18//42 2//42 25//42
f 5//43 18//43 25//43
f 22//44 11//44 25//44
f 3//45 22//45 25//45
f 1//46 16//46 26//46
f 16//47 7//47 26//47
f 20//48 1//48 26//48
