# Blender v2.79 (sub 0) OBJ File: ''
# www.blender.org
mtllib 100484_link_1_27.mtl
o Shape_IndexedFaceSet.027_Shape_IndexedFaceSet.8676
v 0.525614 -0.526336 0.100251
v 0.525614 -0.534017 0.100251
v 0.249315 -0.526336 0.092558
v 0.248784 -0.526159 0.400146
v 0.249315 -0.595411 0.092558
v 0.272358 -0.610754 0.399556
v 0.502571 -0.618435 0.092558
v 0.464936 -0.530107 0.267163
v 0.341459 -0.572386 0.399556
v 0.460720 -0.599035 0.252709
v 0.326070 -0.610754 0.399556
v 0.345211 -0.530091 0.387039
v 0.494863 -0.618435 0.138625
v 0.471847 -0.618435 0.107914
vn 0.0000 -1.0000 0.0000
vn 0.0000 1.0000 -0.0006
vn -1.0000 0.0000 -0.0017
vn -0.9615 -0.2684 0.0588
vn 0.3167 0.0000 -0.9485
vn 0.0278 0.0763 -0.9967
vn 0.0000 0.0000 -1.0000
vn 0.9398 0.0000 0.3417
vn 0.0414 0.9984 0.0376
vn 0.7474 -0.1798 0.6396
vn 0.9311 -0.1286 0.3415
vn 0.0000 -0.0070 1.0000
vn 0.0053 -0.0021 1.0000
vn 0.7172 -0.2877 0.6347
vn 0.0471 0.9978 0.0469
vn 0.1405 0.2695 0.9527
vn 0.7001 0.1448 0.6992
vn 0.9487 -0.2734 0.1587
vn 0.9296 -0.1969 0.3117
vn 0.0000 -0.9996 0.0294
vn 0.3620 -0.8950 0.2605
vn -0.0999 -0.9941 -0.0422
vn -0.0891 -0.9799 -0.1782
vn -0.0184 -0.9997 0.0138
usemtl Shape.8691
s off
f 7//1 13//1 14//1
f 1//2 3//2 4//2
f 4//3 3//3 5//3
f 4//4 5//4 6//4
f 1//5 2//5 7//5
f 3//6 1//6 7//6
f 5//7 3//7 7//7
f 2//8 1//8 8//8
f 1//9 4//9 8//9
f 8//10 9//10 10//10
f 2//11 8//11 10//11
f 4//12 6//12 11//12
f 9//13 4//13 11//13
f 10//14 9//14 11//14
f 8//15 4//15 12//15
f 4//16 9//16 12//16
f 9//17 8//17 12//17
f 7//18 2//18 13//18
f 2//19 10//19 13//19
f 11//20 6//20 13//20
f 10//21 11//21 13//21
f 6//22 5//22 14//22
f 5//23 7//23 14//23
f 13//24 6//24 14//24
