# Blender v2.79 (sub 0) OBJ File: ''
# www.blender.org
mtllib 100484_link_1_8.mtl
o Shape_IndexedFaceSet.008_Shape_IndexedFaceSet.8657
v -0.080706 0.655602 -0.720952
v -0.262488 -0.520481 -0.430287
v -0.247923 -0.524682 -0.437556
v 0.051078 0.189785 -0.609404
v -0.011658 -0.503270 -0.575169
v -0.257233 0.678630 -0.613506
v -0.257233 -0.487958 -0.513795
v 0.028376 -0.519031 -0.508593
v -0.257233 0.609547 -0.667229
v 0.019066 0.655602 -0.736310
v 0.019066 0.693943 -0.682587
v 0.011385 -0.449499 -0.582876
v -0.195812 0.686227 -0.690265
v -0.034674 0.394580 -0.697944
v -0.226509 0.647887 -0.613506
v -0.103749 -0.510986 -0.552161
v -0.255517 0.694128 -0.651138
v -0.218828 -0.510986 -0.521446
v -0.014143 0.687634 -0.725437
v -0.011658 0.647887 -0.736338
v -0.026993 -0.441902 -0.582876
v -0.249552 -0.234651 -0.552189
vn -0.2577 -0.1351 -0.9567
vn 0.2102 -0.6029 0.7696
vn 0.2572 0.1280 0.9578
vn -1.0000 0.0037 -0.0047
vn -0.9977 -0.0093 -0.0664
vn 0.9975 0.0574 -0.0410
vn 0.9558 -0.0712 -0.2853
vn 0.7427 -0.3957 -0.5403
vn 0.8677 -0.0743 -0.4915
vn -0.2740 -0.0687 -0.9593
vn -0.2575 -0.1298 -0.9575
vn 0.2238 0.1443 0.9639
vn 0.1488 0.1487 0.9776
vn 0.2246 0.2245 0.9482
vn 0.2406 0.1544 0.9583
vn -0.0150 -0.9904 -0.1373
vn 0.0208 -0.9700 -0.2421
vn -0.9990 0.0268 -0.0345
vn 0.0444 0.9230 0.3822
vn -0.5244 0.1694 -0.8344
vn -0.3921 -0.8766 -0.2791
vn -0.5327 -0.7767 -0.3360
vn -0.0472 -0.9831 -0.1769
vn 0.5113 0.6995 -0.4992
vn -0.1858 0.2531 -0.9494
vn -0.0147 0.9908 -0.1345
vn -0.0635 0.9550 -0.2897
vn -0.0077 -0.1386 -0.9903
vn 0.0355 -0.1377 -0.9898
vn -0.2291 -0.1255 -0.9653
vn -0.1840 0.2493 -0.9508
vn -0.0645 0.2602 -0.9634
vn -0.2246 -0.1765 -0.9583
vn -0.2553 -0.1416 -0.9564
vn -0.0570 -0.1384 -0.9887
vn -0.1374 -0.1362 -0.9811
vn -0.3588 -0.1292 -0.9244
vn -0.2602 -0.1327 -0.9564
vn -0.2715 -0.1362 -0.9528
vn -0.2568 -0.1340 -0.9571
usemtl Shape.8672
s off
f 21//1 18//1 22//1
f 2//2 3//2 8//2
f 4//3 2//3 8//3
f 2//4 6//4 9//4
f 7//5 2//5 9//5
f 4//6 10//6 11//6
f 4//7 8//7 12//7
f 8//8 5//8 12//8
f 10//9 4//9 12//9
f 1//10 9//10 13//10
f 9//11 1//11 14//11
f 2//12 4//12 15//12
f 6//13 2//13 15//13
f 11//14 6//14 15//14
f 4//15 11//15 15//15
f 8//16 3//16 16//16
f 5//17 8//17 16//17
f 9//18 6//18 17//18
f 6//19 11//19 17//19
f 13//20 9//20 17//20
f 3//21 2//21 18//21
f 2//22 7//22 18//22
f 16//23 3//23 18//23
f 11//24 10//24 19//24
f 1//25 13//25 19//25
f 17//26 11//26 19//26
f 13//27 17//27 19//27
f 12//28 5//28 20//28
f 10//29 12//29 20//29
f 14//30 1//30 20//30
f 1//31 19//31 20//31
f 19//32 10//32 20//32
f 5//33 16//33 21//33
f 16//34 18//34 21//34
f 20//35 5//35 21//35
f 14//36 20//36 21//36
f 7//37 9//37 22//37
f 9//38 14//38 22//38
f 18//39 7//39 22//39
f 14//40 21//40 22//40
