# Blender v2.79 (sub 0) OBJ File: ''
# www.blender.org
mtllib 100484_link_1_16.mtl
o Shape_IndexedFaceSet.016_Shape_IndexedFaceSet.8665
v -0.000612 -0.592480 0.105525
v 0.249462 -0.526297 0.399730
v 0.259819 -0.598177 0.411913
v 0.249315 -0.526336 0.092558
v -0.011634 -0.526336 0.399556
v -0.011634 -0.526336 0.092558
v -0.000612 -0.592480 0.386589
v 0.238292 -0.592480 0.105525
vn 0.0000 -0.1924 -0.9813
vn 0.9898 0.1425 -0.0005
vn -0.0007 0.1670 0.9860
vn -0.0001 1.0000 0.0000
vn 0.0000 1.0000 -0.0001
vn -0.9864 -0.1644 0.0000
vn -0.0219 -0.9998 0.0000
vn -0.0992 -0.2073 0.9732
vn 0.0000 -0.9998 -0.0186
vn 0.9814 -0.1777 -0.0723
usemtl Shape.8680
s off
f 1//1 4//1 8//1
f 2//2 3//2 4//2
f 3//3 2//3 5//3
f 5//4 2//4 6//4
f 2//5 4//5 6//5
f 4//1 1//1 6//1
f 1//6 5//6 6//6
f 1//7 3//7 7//7
f 5//6 1//6 7//6
f 3//8 5//8 7//8
f 3//9 1//9 8//9
f 4//10 3//10 8//10
