####
#
# OBJ File Generated by Meshlab
#
####
# Object 100484_link_0_1.obj
#
# Vertices: 19
# Faces: 34
#
####
mtllib ./100484_link_0_1.obj.mtl

vn 0.194079 -0.788346 -0.583818
v -0.568473 0.368762 0.409842
vn -0.590040 0.156290 -0.792102
v -0.736758 0.514463 0.313601
vn -0.660001 0.694522 -0.286423
v -0.725057 0.535067 0.325509
vn -0.590888 -0.463910 0.660029
v -0.632307 0.397921 0.494369
vn 0.600320 0.784915 0.153378
v -0.560068 0.467935 0.469755
vn 0.743744 0.331443 -0.580509
v -0.662198 0.548925 0.300299
vn -0.292496 -0.760019 -0.580360
v -0.686676 0.478713 0.299776
vn 0.133534 0.931498 0.338350
v -0.701622 0.569034 0.386834
vn 0.988717 0.028654 -0.147029
v -0.560275 0.386759 0.465964
vn -0.349786 -0.895804 -0.274197
v -0.622884 0.373094 0.483920
vn -0.905955 -0.120769 0.405783
v -0.747042 0.509677 0.368566
vn 0.812411 0.070723 -0.578780
v -0.642020 0.471958 0.304148
vn 0.219034 0.622283 0.751524
v -0.583958 0.448437 0.508320
vn -0.553739 0.474031 0.684593
v -0.725826 0.543404 0.396804
vn -0.341745 -0.929831 -0.136470
v -0.581869 0.365584 0.467784
vn -0.680875 -0.723569 -0.113391
v -0.747898 0.471333 0.334102
vn 0.368020 0.917507 0.150802
v -0.686399 0.561861 0.330431
vn 0.938072 0.013782 -0.346166
v -0.550668 0.429500 0.476542
vn -0.618884 0.122489 0.775873
v -0.638534 0.427673 0.507277
# 19 vertices, 0 vertices normals


usemtl material_0
f 13//13 14//14 19//19
f 2//2 3//3 6//6
f 2//2 6//6 7//7
f 3//3 2//2 11//11
f 1//1 7//7 12//12
f 7//7 6//6 12//12
f 9//9 1//1 12//12
f 6//6 9//9 12//12
f 4//4 9//9 13//13
f 8//8 3//3 14//14
f 3//3 11//11 14//14
f 13//13 8//8 14//14
f 7//7 1//1 15//15
f 1//1 9//9 15//15
f 9//9 4//4 15//15
f 4//4 10//10 15//15
f 10//10 7//7 15//15
f 2//2 7//7 16//16
f 10//10 4//4 16//16
f 7//7 10//10 16//16
f 11//11 2//2 16//16
f 4//4 11//11 16//16
f 6//6 3//3 17//17
f 5//5 6//6 17//17
f 3//3 8//8 17//17
f 8//8 13//13 17//17
f 13//13 5//5 17//17
f 6//6 5//5 18//18
f 9//9 6//6 18//18
f 5//5 13//13 18//18
f 13//13 9//9 18//18
f 11//11 4//4 19//19
f 4//4 13//13 19//19
f 14//14 11//11 19//19
# 34 faces, 0 coords texture

# End of File
