# Blender v2.79 (sub 0) OBJ File: ''
# www.blender.org
mtllib 100484_link_1_12.mtl
o Shape_IndexedFaceSet.012_Shape_IndexedFaceSet.8661
v 0.468976 -0.525368 -0.109358
v 0.556316 -0.510986 -0.030227
v 0.640719 0.686227 -0.106991
v 0.694448 0.601831 -0.106991
v 0.633051 0.655484 0.084881
v 0.540979 -0.441784 0.092558
v 0.717478 0.655484 0.008116
v 0.540979 -0.495555 -0.106991
v 0.694448 0.686227 0.092558
v 0.460604 -0.524712 0.101727
v 0.717478 0.655484 -0.045580
v 0.563985 -0.449499 0.008116
v 0.640719 0.686227 0.092558
v 0.685074 0.690432 -0.105144
v 0.525641 -0.510986 0.092558
v 0.671418 0.471379 0.084881
v 0.556316 -0.503270 -0.045580
v 0.579346 -0.357388 -0.022550
v 0.717478 0.686227 0.008116
vn 0.0663 0.9976 0.0181
vn 0.0025 0.0016 -1.0000
vn 0.3771 -0.8906 -0.2544
vn 0.0349 -0.0049 -0.9994
vn 0.1544 -0.9880 0.0092
vn -0.9893 0.1403 -0.0397
vn -0.9894 0.1443 -0.0164
vn 0.1315 -0.0179 0.9912
vn -0.9703 0.2420 0.0000
vn -0.9221 0.1399 0.3608
vn -0.0000 0.0076 1.0000
vn 0.0392 0.0250 -0.9989
vn 0.8980 0.1039 -0.4276
vn -0.0944 0.9955 0.0000
vn -0.0000 0.9998 0.0213
vn 0.2134 -0.9755 0.0533
vn 0.1462 -0.0324 0.9887
vn 0.9361 -0.2626 0.2339
vn 0.9387 -0.2081 0.2748
vn 0.7736 -0.1053 0.6249
vn 0.9475 -0.1123 0.2993
vn 0.9530 -0.1338 0.2719
vn 0.9576 -0.1330 0.2556
vn 0.8033 -0.5322 -0.2675
vn 0.9574 -0.1339 -0.2559
vn 0.9606 -0.1336 -0.2435
vn 0.9837 -0.1368 -0.1170
vn 0.9908 -0.1351 0.0000
vn 0.9877 -0.1503 0.0434
vn 0.9871 -0.1371 0.0826
vn 0.9869 -0.1443 -0.0725
vn 0.9648 0.0000 0.2631
vn 1.0000 0.0000 0.0000
vn 0.8796 0.4128 -0.2363
usemtl Shape.8676
s off
f 14//1 9//1 19//1
f 1//2 3//2 4//2
f 2//3 1//3 8//3
f 1//4 4//4 8//4
f 1//5 2//5 10//5
f 3//6 1//6 10//6
f 5//7 3//7 10//7
f 6//8 9//8 10//8
f 3//9 5//9 13//9
f 5//10 10//10 13//10
f 10//11 9//11 13//11
f 4//12 3//12 14//12
f 11//13 4//13 14//13
f 3//14 13//14 14//14
f 13//15 9//15 14//15
f 10//16 2//16 15//16
f 6//17 10//17 15//17
f 2//18 12//18 15//18
f 12//19 6//19 15//19
f 9//20 6//20 16//20
f 7//21 9//21 16//21
f 6//22 12//22 16//22
f 12//23 7//23 16//23
f 2//24 8//24 17//24
f 8//25 4//25 17//25
f 4//26 11//26 17//26
f 17//27 11//27 18//27
f 11//28 7//28 18//28
f 12//29 2//29 18//29
f 7//30 12//30 18//30
f 2//31 17//31 18//31
f 9//32 7//32 19//32
f 7//33 11//33 19//33
f 11//34 14//34 19//34
