# Blender v2.79 (sub 0) OBJ File: ''
# www.blender.org
mtllib 9968_link_1_1.mtl
o Shape_IndexedFaceSet.001_Shape_IndexedFaceSet.17841
v -0.608003 0.649511 -0.433371
v -0.011637 0.730330 -0.372969
v 0.597222 0.640485 -0.361140
v 0.599183 0.703436 -0.428514
v -0.612450 0.640485 -0.361140
v -0.612450 0.726247 -0.410789
v 0.597375 0.641113 -0.423978
v 0.597222 0.726247 -0.388237
v -0.614180 0.632086 -0.419574
v -0.612450 0.694638 -0.437886
v 0.592775 0.667572 -0.437886
v -0.617018 0.717222 -0.383722
v 0.016368 0.721392 -0.365486
v 0.601790 0.726247 -0.410789
v -0.616982 0.631849 -0.370390
v 0.367043 0.712709 -0.428856
v -0.617018 0.717222 -0.424341
v 0.597222 0.708186 -0.379207
v -0.612450 0.672095 -0.437886
v -0.617018 0.726247 -0.392752
v -0.603435 0.694638 -0.374685
v -0.617018 0.640485 -0.428856
v -0.612450 0.708186 -0.433371
v 0.606357 0.672095 -0.374685
v 0.606357 0.712699 -0.424341
v 0.583760 0.694638 -0.374685
v -0.608003 0.708186 -0.379207
v -0.036069 0.730278 -0.372999
vn -0.0289 0.7070 0.7066
vn 0.0074 -0.9999 -0.0100
vn 0.0000 0.0536 0.9986
vn 0.0229 0.6830 0.7301
vn 0.0000 0.9942 -0.1073
vn 0.0067 1.0000 0.0014
vn 0.0000 -0.7310 0.6824
vn 0.0071 -1.0000 -0.0044
vn -0.9176 0.0609 0.3927
vn 0.0114 0.2509 -0.9679
vn 0.0049 0.2199 -0.9755
vn 0.0009 0.7949 -0.6068
vn 0.0000 0.8323 -0.5543
vn 0.0313 0.4470 0.8940
vn -0.0007 -0.1962 -0.9806
vn -0.0000 0.0000 -1.0000
vn -0.7352 0.6517 -0.1862
vn -1.0000 0.0000 0.0000
vn -0.0250 0.2465 0.9688
vn 0.0031 -0.7410 -0.6715
vn 0.0034 -0.4501 -0.8930
vn 0.0038 -0.4648 -0.8854
vn -0.9261 -0.3732 -0.0546
vn -1.0000 -0.0003 0.0006
vn -0.9365 0.0206 -0.3502
vn -0.2368 -0.2351 -0.9427
vn -0.8923 -0.0000 -0.4514
vn 0.0029 0.3162 -0.9487
vn -0.0000 0.7069 -0.7073
vn -0.7809 0.1975 -0.5926
vn 0.9606 -0.2778 -0.0004
vn 0.9582 0.2102 0.1941
vn 0.4754 0.2268 0.8500
vn 0.7980 0.2695 0.5391
vn 0.8616 -0.1106 -0.4954
vn 0.2970 0.1914 -0.9355
vn 0.0173 0.3995 -0.9166
vn 0.0133 0.7094 -0.7047
vn 0.9870 -0.1244 -0.1017
vn 0.9725 0.1803 0.1475
vn 0.0274 0.2490 0.9681
vn 0.0649 0.2573 0.9641
vn 0.0292 0.2902 0.9565
vn -0.2062 0.2649 0.9420
vn -0.0289 0.4236 0.9054
vn -0.1580 0.2643 0.9514
vn -0.0274 0.3082 0.9509
vn -0.0020 0.9971 -0.0754
vn -0.0023 0.6377 0.7703
vn -0.0277 0.5450 0.8380
vn -0.0069 1.0000 -0.0017
usemtl Shape.17850
s off
f 20//1 12//1 28//1
f 7//2 3//2 9//2
f 5//3 3//3 13//3
f 8//4 2//4 13//4
f 6//5 2//5 14//5
f 2//6 8//6 14//6
f 3//7 5//7 15//7
f 9//8 3//8 15//8
f 5//9 12//9 15//9
f 4//10 11//10 16//10
f 11//11 10//11 16//11
f 14//12 16//12 17//12
f 6//13 14//13 17//13
f 8//14 13//14 18//14
f 11//15 1//15 19//15
f 10//16 11//16 19//16
f 6//17 17//17 20//17
f 17//18 12//18 20//18
f 5//19 13//19 21//19
f 7//20 9//20 22//20
f 1//21 11//21 22//21
f 11//22 7//22 22//22
f 9//23 15//23 22//23
f 15//24 12//24 22//24
f 17//25 10//25 22//25
f 12//18 17//18 22//18
f 19//26 1//26 22//26
f 10//27 19//27 22//27
f 16//28 10//28 23//28
f 17//29 16//29 23//29
f 10//30 17//30 23//30
f 3//31 7//31 24//31
f 14//32 8//32 24//32
f 18//33 3//33 24//33
f 8//34 18//34 24//34
f 7//35 11//35 25//35
f 11//36 4//36 25//36
f 4//37 16//37 25//37
f 16//38 14//38 25//38
f 24//39 7//39 25//39
f 14//40 24//40 25//40
f 13//41 3//41 26//41
f 3//42 18//42 26//42
f 18//43 13//43 26//43
f 12//44 5//44 27//44
f 13//45 12//45 27//45
f 5//46 21//46 27//46
f 21//47 13//47 27//47
f 2//48 6//48 28//48
f 13//49 2//49 28//49
f 12//50 13//50 28//50
f 6//51 20//51 28//51
