# Blender v2.79 (sub 0) OBJ File: ''
# www.blender.org
mtllib 1053_link_0_30.mtl
o Shape_IndexedFaceSet.030_Shape_IndexedFaceSet.3687
v 0.144208 0.528304 -0.181904
v 0.155402 0.545105 -0.109122
v 0.155402 0.528304 -0.109122
v 0.141407 0.545105 -0.109122
v 0.135805 0.545105 -0.193111
v 0.135805 0.528304 -0.159507
v 0.152603 0.533905 -0.162311
v 0.141407 0.528304 -0.109122
vn -0.9939 0.0000 0.1105
vn 0.0000 0.0000 1.0000
vn 0.0000 1.0000 0.0000
vn 0.0000 -1.0000 0.0000
vn -0.7661 -0.5749 -0.2874
vn -0.9891 0.1319 0.0660
vn 0.7167 -0.6886 -0.1102
vn 0.9986 0.0000 -0.0526
vn 0.8899 0.1602 -0.4271
vn 0.7472 0.6413 -0.1744
usemtl Shape.3693
s off
f 4//1 6//1 8//1
f 3//2 2//2 4//2
f 4//3 2//3 5//3
f 1//4 3//4 6//4
f 5//5 1//5 6//5
f 4//6 5//6 6//6
f 3//7 1//7 7//7
f 2//8 3//8 7//8
f 1//9 5//9 7//9
f 5//10 2//10 7//10
f 3//2 4//2 8//2
f 6//4 3//4 8//4
