# Blender v2.79 (sub 0) OBJ File: ''
# www.blender.org
mtllib 1053_link_0_45.mtl
o Shape_IndexedFaceSet.045_Shape_IndexedFaceSet.3702
v -0.063004 0.139076 -0.008304
v -0.026612 0.141881 0.011291
v -0.026612 0.136277 0.011291
v -0.029409 0.141881 -0.002705
v -0.032209 0.108286 0.005690
v -0.043410 0.113883 0.011291
v -0.057403 0.141881 0.002890
vn -0.2600 0.1560 0.9529
vn 0.9806 0.0000 -0.1960
vn 0.1795 -0.2526 -0.9508
vn 0.9582 -0.1419 -0.2483
vn 0.3311 -0.2484 0.9103
vn 0.0000 0.0000 1.0000
vn -0.5593 -0.7343 -0.3848
vn -0.8321 -0.2706 0.4841
vn 0.0000 1.0000 0.0000
vn -0.0443 0.9741 -0.2219
usemtl Shape.3708
s off
f 6//1 2//1 7//1
f 2//2 3//2 4//2
f 1//3 4//3 5//3
f 4//4 3//4 5//4
f 5//5 3//5 6//5
f 3//6 2//6 6//6
f 1//7 5//7 6//7
f 1//8 6//8 7//8
f 2//9 4//9 7//9
f 4//10 1//10 7//10
