# Blender v2.79 (sub 0) OBJ File: ''
# www.blender.org
mtllib 1053_link_1_13.mtl
o Shape_IndexedFaceSet.013_Shape_IndexedFaceSet.16592
v -0.110606 -0.905771 -0.254528
v -0.114314 -0.947983 -0.249260
v -0.175752 -0.905660 -0.132819
v -0.165619 -0.908503 -0.225576
v -0.173520 -0.959828 -0.142665
v -0.141945 -0.959828 -0.253217
v -0.189322 -0.908503 -0.158458
v -0.185364 -0.959828 -0.178197
v -0.189322 -0.959828 -0.138708
v -0.122207 -0.963783 -0.253217
v -0.141945 -0.908503 -0.253217
vn -0.7595 0.0000 -0.6505
vn 0.8815 -0.0185 0.4718
vn -0.0696 0.9968 -0.0382
vn 0.8755 -0.0513 0.4806
vn -0.1246 0.9912 -0.0440
vn -0.8583 -0.1284 -0.4968
vn -0.9415 0.0553 -0.3325
vn 0.2396 -0.1641 0.9569
vn -0.8785 0.1716 0.4459
vn -0.9943 -0.0383 -0.0997
vn -0.0709 -0.9975 -0.0071
vn 0.6660 -0.1497 -0.7308
vn 0.7850 -0.4878 0.3818
vn -0.0044 -0.0217 -0.9998
vn -0.1952 -0.9742 -0.1130
vn 0.0101 -0.9991 0.0404
vn -0.0898 0.9930 -0.0769
vn -0.0418 0.0000 -0.9991
usemtl Shape.16599
s off
f 6//1 4//1 11//1
f 2//2 1//2 3//2
f 3//3 1//3 4//3
f 2//4 3//4 5//4
f 3//5 4//5 7//5
f 4//6 6//6 8//6
f 7//7 4//7 8//7
f 5//8 3//8 9//8
f 3//9 7//9 9//9
f 7//10 8//10 9//10
f 9//11 8//11 10//11
f 1//12 2//12 10//12
f 2//13 5//13 10//13
f 6//14 1//14 10//14
f 8//15 6//15 10//15
f 5//16 9//16 10//16
f 4//17 1//17 11//17
f 1//18 6//18 11//18
