# Blender v2.79 (sub 0) OBJ File: ''
# www.blender.org
mtllib 1053_link_0_7.mtl
o Shape_IndexedFaceSet.007_Shape_IndexedFaceSet.3664
v -0.113419 0.561906 -0.109123
v -0.149807 0.561906 -0.109123
v -0.113419 0.561906 -0.204310
v -0.116217 0.533904 -0.201505
v -0.144207 0.533904 -0.109123
v -0.133016 0.559105 -0.201505
v -0.113419 0.547905 -0.109123
v -0.158213 0.533904 -0.125924
v -0.152609 0.559105 -0.145530
v -0.133016 0.533904 -0.204310
v -0.144207 0.536706 -0.184704
vn -0.8637 0.0558 -0.5010
vn 0.0000 1.0000 0.0000
vn 0.0000 0.0000 1.0000
vn -0.1493 0.9872 -0.0571
vn 1.0000 0.0000 0.0000
vn 0.9948 -0.1009 -0.0148
vn 0.4107 -0.9032 0.1244
vn 0.0000 -1.0000 0.0000
vn -0.7592 -0.1518 0.6329
vn -0.1770 0.9823 -0.0620
vn -0.9649 0.2570 0.0545
vn 0.1636 -0.1145 -0.9799
vn -0.1561 0.1093 -0.9817
vn -0.4910 -0.8567 -0.1578
vn -0.9211 0.2184 -0.3224
vn -0.9725 0.0374 -0.2299
usemtl Shape.3670
s off
f 6//1 10//1 11//1
f 2//2 1//2 3//2
f 1//3 2//3 5//3
f 2//4 3//4 6//4
f 3//5 1//5 7//5
f 4//6 3//6 7//6
f 1//3 5//3 7//3
f 5//7 4//7 7//7
f 4//8 5//8 8//8
f 5//9 2//9 8//9
f 2//10 6//10 9//10
f 8//11 2//11 9//11
f 3//12 4//12 10//12
f 6//13 3//13 10//13
f 4//8 8//8 10//8
f 10//14 8//14 11//14
f 9//15 6//15 11//15
f 8//16 9//16 11//16
