# Blender v2.79 (sub 0) OBJ File: ''
# www.blender.org
mtllib 1053_link_0_11.mtl
o Shape_IndexedFaceSet.011_Shape_IndexedFaceSet.3668
v -0.130215 0.545099 -0.030712
v -0.158210 0.480701 -0.109114
v -0.147008 0.480701 -0.109114
v -0.124614 0.480701 -0.022309
v -0.141414 0.545099 -0.109114
v -0.152609 0.542294 -0.075508
v -0.122144 0.549834 -0.051277
v -0.147008 0.480701 -0.053127
v -0.124614 0.480701 -0.044715
v -0.155408 0.545099 -0.109114
v -0.158210 0.483513 -0.089511
v -0.144209 0.486311 -0.109114
v -0.138615 0.545099 -0.041911
v -0.133014 0.489110 -0.027917
v -0.124614 0.533897 -0.025113
vn -0.5232 0.0449 0.8510
vn 0.0000 -1.0000 0.0000
vn 0.0000 0.0000 -1.0000
vn 0.9994 -0.0357 0.0000
vn 0.0000 0.9967 -0.0816
vn -0.5787 -0.8072 0.1158
vn -0.9551 0.0206 0.2956
vn -0.9990 0.0435 -0.0062
vn -0.9933 0.0735 0.0889
vn 0.9489 -0.0451 -0.3124
vn 0.8544 -0.4263 -0.2971
vn 0.9533 -0.0621 -0.2955
vn -0.1954 0.9697 0.1466
vn -0.9234 0.0541 0.3801
vn -0.4452 0.8885 0.1112
vn -0.2436 0.9680 0.0609
vn -0.7469 -0.3841 0.5427
vn -0.7980 0.0698 0.5986
vn -0.8783 0.0314 0.4771
vn 0.9953 0.0051 0.0971
vn 0.7165 0.5637 0.4110
vn -0.6316 0.0701 0.7721
usemtl Shape.3674
s off
f 14//1 4//1 15//1
f 2//2 3//2 4//2
f 3//3 2//3 5//3
f 2//2 4//2 8//2
f 4//2 3//2 9//2
f 7//4 4//4 9//4
f 5//3 2//3 10//3
f 7//5 5//5 10//5
f 2//6 8//6 11//6
f 8//7 6//7 11//7
f 10//8 2//8 11//8
f 6//9 10//9 11//9
f 3//3 5//3 12//3
f 5//10 7//10 12//10
f 9//11 3//11 12//11
f 7//12 9//12 12//12
f 1//13 7//13 13//13
f 6//14 8//14 13//14
f 10//15 6//15 13//15
f 7//16 10//16 13//16
f 8//17 4//17 14//17
f 1//18 13//18 14//18
f 13//19 8//19 14//19
f 4//20 7//20 15//20
f 7//21 1//21 15//21
f 1//22 14//22 15//22
