# Blender v2.79 (sub 0) OBJ File: ''
# www.blender.org
mtllib 1053_link_0_25.mtl
o Shape_IndexedFaceSet.025_Shape_IndexedFaceSet.3682
v 0.105007 0.253925 -0.257507
v 0.144202 0.528268 -0.179126
v 0.130206 0.528268 -0.179126
v 0.147980 0.154672 -0.179195
v 0.149804 0.169947 -0.215521
v 0.100535 0.154427 -0.244733
v 0.105007 0.528268 -0.237920
v 0.102203 0.511451 -0.218325
v 0.163800 0.197952 -0.179126
v 0.135796 0.528268 -0.201534
v 0.127402 0.186729 -0.243520
v 0.130206 0.477853 -0.179126
v 0.102203 0.164282 -0.263123
v 0.161002 0.164282 -0.193130
v 0.113406 0.483447 -0.235116
v 0.141404 0.511451 -0.193130
v 0.144202 0.351869 -0.207125
v 0.116210 0.167133 -0.254719
v 0.102203 0.528268 -0.218325
v 0.149804 0.164282 -0.215521
v 0.155400 0.189543 -0.204321
v 0.121806 0.522639 -0.221121
v 0.163800 0.175541 -0.184726
vn 0.9310 0.0530 -0.3612
vn 0.0000 1.0000 0.0000
vn 0.0000 0.0000 1.0000
vn -0.8091 -0.0446 0.5859
vn -0.8281 -0.0375 0.5594
vn -0.8137 -0.0000 0.5813
vn -0.0033 -0.0004 1.0000
vn -0.2687 0.0686 -0.9608
vn 0.5806 0.0580 -0.8121
vn 0.9277 0.1354 -0.3480
vn 0.7948 0.0524 -0.6046
vn 0.8793 0.0569 -0.4729
vn 0.5084 0.0380 -0.8603
vn 0.6155 0.0542 -0.7863
vn 0.6591 0.0523 -0.7503
vn -0.9980 0.0000 0.0630
vn -0.9963 0.0104 -0.0848
vn -0.9898 0.0174 -0.1416
vn 0.3189 -0.9201 -0.2274
vn 0.7808 0.0000 -0.6247
vn 0.4035 -0.8212 -0.4035
vn 0.4234 -0.8808 -0.2118
vn 0.8944 0.0000 -0.4473
vn 0.7558 -0.0590 -0.6521
vn 0.4130 -0.8117 -0.4130
vn 0.8944 0.0002 -0.4473
vn 0.8966 0.0543 -0.4395
vn 0.8556 0.0501 -0.5152
vn 0.7204 0.3307 -0.6096
vn 0.7193 0.0917 -0.6886
vn 0.7815 0.0545 -0.6216
vn 0.7911 0.0538 -0.6093
vn 0.8046 0.0571 -0.5911
vn 0.9713 0.0576 -0.2306
vn 0.5503 -0.2024 0.8101
vn 0.7800 -0.4871 0.3929
vn 0.9634 0.0577 -0.2618
vn 0.9291 0.0433 -0.3673
usemtl Shape.3688
s off
f 21//1 16//1 23//1
f 3//2 2//2 7//2
f 2//3 3//3 9//3
f 7//2 2//2 10//2
f 6//4 4//4 12//4
f 8//5 6//5 12//5
f 3//6 8//6 12//6
f 9//3 3//3 12//3
f 4//7 9//7 12//7
f 7//8 1//8 13//8
f 1//9 7//9 15//9
f 10//10 2//10 16//10
f 5//11 11//11 17//11
f 10//12 16//12 17//12
f 13//13 1//13 18//13
f 1//14 15//14 18//14
f 15//15 11//15 18//15
f 3//2 7//2 19//2
f 6//16 8//16 19//16
f 8//6 3//6 19//6
f 13//17 6//17 19//17
f 7//18 13//18 19//18
f 4//19 6//19 20//19
f 11//20 5//20 20//20
f 6//21 13//21 20//21
f 14//22 4//22 20//22
f 5//23 14//23 20//23
f 18//24 11//24 20//24
f 13//25 18//25 20//25
f 14//26 5//26 21//26
f 17//27 16//27 21//27
f 5//28 17//28 21//28
f 7//29 10//29 22//29
f 15//30 7//30 22//30
f 11//31 15//31 22//31
f 17//32 11//32 22//32
f 10//33 17//33 22//33
f 2//34 9//34 23//34
f 9//35 4//35 23//35
f 4//36 14//36 23//36
f 16//37 2//37 23//37
f 14//38 21//38 23//38
