# Blender v2.79 (sub 0) OBJ File: ''
# www.blender.org
mtllib 1053_link_0_43.mtl
o Shape_IndexedFaceSet.043_Shape_IndexedFaceSet.3700
v 0.053943 0.163315 -0.285969
v -0.011399 0.150726 -0.293319
v -0.021005 0.155879 -0.235133
v 0.065800 0.144681 -0.240730
v -0.021005 0.164282 -0.293914
v 0.051797 0.144681 -0.288316
v -0.021005 0.144681 -0.235133
v 0.068474 0.152999 -0.230344
v 0.065800 0.164282 -0.268718
v -0.021005 0.144681 -0.291115
v 0.065800 0.147484 -0.282719
v -0.021856 0.164475 -0.283075
v 0.051797 0.158682 -0.291115
vn 0.3959 -0.1800 -0.9005
vn 0.0000 -1.0000 -0.0000
vn -0.0534 -0.0000 0.9986
vn 0.0399 -0.7849 0.6183
vn 0.0203 0.9974 -0.0698
vn 0.0158 0.9596 0.2810
vn -0.1369 -0.1400 -0.9806
vn 0.0354 -0.3914 -0.9195
vn 0.2208 -0.9732 -0.0650
vn 0.9585 -0.2844 -0.0190
vn 0.7291 0.4382 -0.5257
vn 0.9974 0.0465 -0.0558
vn -0.9998 0.0000 0.0177
vn 0.0051 0.9998 -0.0174
vn -0.0268 0.9839 0.1769
vn -0.9969 -0.0111 -0.0781
vn -0.9991 -0.0430 0.0000
vn 0.0371 -0.0176 -0.9992
vn 0.0820 0.7234 -0.6855
vn 0.0588 -0.1957 -0.9789
vn 0.6801 0.3808 -0.6265
usemtl Shape.3706
s off
f 11//1 6//1 13//1
f 6//2 4//2 7//2
f 3//3 7//3 8//3
f 7//4 4//4 8//4
f 1//5 5//5 9//5
f 3//6 8//6 9//6
f 5//7 2//7 10//7
f 2//8 6//8 10//8
f 6//2 7//2 10//2
f 4//9 6//9 11//9
f 8//10 4//10 11//10
f 1//11 9//11 11//11
f 9//12 8//12 11//12
f 7//13 3//13 12//13
f 9//14 5//14 12//14
f 3//15 9//15 12//15
f 5//16 10//16 12//16
f 10//17 7//17 12//17
f 2//18 5//18 13//18
f 5//19 1//19 13//19
f 6//20 2//20 13//20
f 1//21 11//21 13//21
