# Blender v2.79 (sub 0) OBJ File: ''
# www.blender.org
mtllib 1053_link_1_25.mtl
o Shape_IndexedFaceSet.025_Shape_IndexedFaceSet.16604
v -0.114287 -0.951929 0.038982
v -0.007688 -0.904561 0.070561
v -0.007688 -0.932198 0.074506
v -0.007688 -0.955877 0.054770
v -0.088006 -0.902875 0.029848
v -0.094547 -0.904561 0.050825
v -0.051139 -0.959824 0.066612
v -0.098486 -0.963777 0.031084
v -0.005891 -0.903598 0.054834
v -0.118248 -0.904561 0.031084
v -0.039278 -0.904561 0.070561
v -0.007688 -0.959824 0.070561
vn 0.9994 -0.0343 -0.0086
vn -0.4063 -0.0587 0.9119
vn -0.3276 -0.7862 0.5240
vn 0.2571 -0.0638 -0.9643
vn 0.9933 0.0163 0.1145
vn 0.2910 -0.0088 -0.9567
vn -0.0530 0.9966 0.0636
vn -0.6382 0.0744 0.7662
vn -0.5454 -0.1820 -0.8181
vn -0.0401 -0.0134 -0.9991
vn 0.0000 0.1413 0.9900
vn -0.0257 0.9971 0.0721
vn -0.1557 -0.0371 0.9871
vn -0.3363 0.0049 0.9417
vn 0.0000 0.9981 0.0611
vn -0.0060 0.9988 0.0485
vn -0.0896 -0.1408 0.9860
vn -0.0114 -0.9920 0.1256
vn 0.1461 -0.9597 -0.2399
vn 0.9971 -0.0108 0.0754
usemtl Shape.16611
s off
f 4//1 9//1 12//1
f 6//2 1//2 7//2
f 7//3 1//3 8//3
f 5//4 4//4 8//4
f 2//5 3//5 9//5
f 4//6 5//6 9//6
f 6//7 5//7 10//7
f 1//8 6//8 10//8
f 8//9 1//9 10//9
f 5//10 8//10 10//10
f 3//11 2//11 11//11
f 5//12 6//12 11//12
f 7//13 3//13 11//13
f 6//14 7//14 11//14
f 2//15 9//15 11//15
f 9//16 5//16 11//16
f 3//17 7//17 12//17
f 7//18 8//18 12//18
f 8//19 4//19 12//19
f 9//20 3//20 12//20
