# Blender v2.79 (sub 0) OBJ File: ''
# www.blender.org
mtllib 1053_link_1_18.mtl
o Shape_IndexedFaceSet.018_Shape_IndexedFaceSet.16597
v -0.101028 -0.902594 0.041828
v -0.175599 -0.904244 -0.046582
v -0.171786 -0.903623 -0.036543
v -0.007688 -0.876915 -0.028145
v -0.007688 -0.904549 0.035015
v -0.098498 -0.888764 0.046853
v -0.110332 -0.876915 -0.047891
v -0.007688 -0.888764 0.070566
v -0.098498 -0.896655 -0.047891
v -0.165626 -0.888764 -0.020248
v -0.039282 -0.876915 0.011337
v -0.008847 -0.904361 0.069757
v -0.007688 -0.896655 0.003441
v -0.134032 -0.904549 -0.047891
v -0.173520 -0.888764 -0.047891
v -0.145882 -0.896655 0.011337
vn -0.4847 0.7280 0.4848
vn -0.0923 -0.9911 0.0964
vn 1.0000 0.0000 0.0000
vn 0.1877 0.1125 -0.9758
vn -0.9348 -0.0020 0.3552
vn -0.1400 0.9802 0.1401
vn 0.0000 1.0000 0.0000
vn -0.1145 0.9839 0.1373
vn -0.0590 0.9723 0.2260
vn 0.1473 0.9820 0.1179
vn -0.0333 -0.9984 0.0467
vn -0.2832 -0.2813 0.9169
vn -0.2525 -0.0314 0.9671
vn 0.9966 -0.0758 0.0337
vn 0.2870 -0.8123 -0.5077
vn 0.2025 -0.9114 -0.3582
vn 0.0000 0.0000 -1.0000
vn -0.0071 -0.9999 0.0091
vn -0.0035 -1.0000 0.0053
vn 0.1572 -0.9581 -0.2395
vn -0.9506 0.1506 0.2715
vn -0.1841 0.9815 0.0526
vn -0.0320 -0.0800 -0.9963
vn -0.3270 -0.8938 0.3070
vn -0.5691 -0.1868 0.8008
vn -0.8536 -0.1816 0.4882
usemtl Shape.16604
s off
f 6//1 10//1 16//1
f 3//2 2//2 1//2
f 5//3 4//3 8//3
f 7//4 4//4 9//4
f 2//5 3//5 10//5
f 6//6 7//6 10//6
f 4//7 7//7 11//7
f 7//8 6//8 11//8
f 6//9 8//9 11//9
f 8//10 4//10 11//10
f 1//11 2//11 12//11
f 6//12 1//12 12//12
f 8//13 6//13 12//13
f 5//14 8//14 12//14
f 4//3 5//3 13//3
f 9//15 4//15 13//15
f 9//16 13//16 14//16
f 7//17 9//17 14//17
f 12//18 2//18 14//18
f 5//19 12//19 14//19
f 13//20 5//20 14//20
f 2//21 10//21 15//21
f 10//22 7//22 15//22
f 14//23 2//23 15//23
f 7//17 14//17 15//17
f 3//24 1//24 16//24
f 1//25 6//25 16//25
f 10//26 3//26 16//26
