# Blender v2.79 (sub 0) OBJ File: ''
# www.blender.org
mtllib 1053_link_0_29.mtl
o Shape_IndexedFaceSet.029_Shape_IndexedFaceSet.3686
v 0.102206 0.528304 -0.221121
v 0.135801 0.545105 -0.165117
v 0.135801 0.528304 -0.165117
v 0.135801 0.528304 -0.201517
v 0.119000 0.545105 -0.221121
v 0.099406 0.545105 -0.218319
v 0.135801 0.545105 -0.198711
vn 0.0000 1.0000 0.0000
vn 1.0000 0.0000 0.0000
vn 0.0000 -1.0000 0.0000
vn 0.4501 -0.4499 -0.7713
vn -0.8360 -0.2230 0.5015
vn -0.8254 0.0000 0.5646
vn -0.1402 0.1401 -0.9802
vn 0.7961 0.0997 -0.5969
usemtl Shape.3692
s off
f 5//1 2//1 7//1
f 2//2 3//2 4//2
f 3//3 1//3 4//3
f 4//4 1//4 5//4
f 2//1 5//1 6//1
f 1//5 3//5 6//5
f 3//6 2//6 6//6
f 5//7 1//7 6//7
f 2//2 4//2 7//2
f 4//8 5//8 7//8
