# Blender v2.79 (sub 0) OBJ File: ''
# www.blender.org
mtllib 1053_link_0_31.mtl
o Shape_IndexedFaceSet.031_Shape_IndexedFaceSet.3688
v -0.004213 0.312646 0.050492
v -0.066055 0.145136 0.030503
v -0.058084 0.154995 0.030793
v -0.060196 0.444299 0.014093
v 0.001390 0.175485 0.042092
v -0.054599 0.167097 0.050492
v -0.063001 0.433088 0.030901
v 0.001390 0.444299 0.028097
v -0.023762 0.445251 0.042139
v 0.001390 0.158682 0.056096
v 0.001482 0.444706 0.042112
v 0.004438 0.145163 0.045815
v -0.060196 0.424673 0.014093
v -0.021011 0.158682 0.056096
v -0.063001 0.158682 0.044888
v -0.049002 0.441475 0.036488
v -0.009810 0.203498 0.056096
v -0.049002 0.203498 0.050492
v 0.001390 0.209090 0.056096
vn 0.0000 0.0000 1.0000
vn -0.9874 0.0107 -0.1577
vn 0.0109 0.9988 -0.0481
vn 0.0024 0.0632 0.9980
vn 0.0215 0.9993 -0.0292
vn 0.2102 -0.1415 -0.9674
vn 0.2180 -0.0973 -0.9711
vn 0.5749 -0.0425 -0.8171
vn 0.9999 0.0098 -0.0068
vn 0.1110 -0.0606 -0.9920
vn -0.9418 0.0000 -0.3362
vn 0.2059 -0.0589 -0.9768
vn 0.2367 -0.0505 -0.9703
vn 0.2217 0.0000 -0.9751
vn 0.0000 -0.6053 0.7960
vn -0.1396 -0.7523 0.6438
vn -0.9800 0.0101 0.1985
vn -0.5828 0.0414 0.8116
vn -0.1853 -0.6955 0.6942
vn -0.2406 -0.3600 0.9014
vn -0.5823 0.7178 0.3816
vn -0.3983 0.0549 0.9156
vn -0.1917 0.9573 0.2165
vn -0.0584 0.0542 0.9968
vn -0.1415 0.0354 0.9893
vn -0.1586 0.0244 0.9870
vn -0.3569 0.0549 0.9325
vn -0.2263 0.0572 0.9724
vn -0.1414 0.0489 0.9887
vn 0.0955 0.0589 0.9937
vn 0.9588 0.0000 0.2842
vn 0.9769 0.0123 0.2133
vn -0.0263 0.0526 0.9983
usemtl Shape.3694
s off
f 17//1 10//1 19//1
f 4//2 2//2 7//2
f 8//3 4//3 9//3
f 9//4 1//4 11//4
f 8//5 9//5 11//5
f 2//6 3//6 12//6
f 3//7 5//7 12//7
f 5//8 8//8 12//8
f 8//9 11//9 12//9
f 3//10 2//10 13//10
f 2//11 4//11 13//11
f 5//12 3//12 13//12
f 8//13 5//13 13//13
f 4//14 8//14 13//14
f 12//15 10//15 14//15
f 2//16 12//16 14//16
f 7//17 2//17 15//17
f 6//18 7//18 15//18
f 2//19 14//19 15//19
f 14//20 6//20 15//20
f 4//21 7//21 16//21
f 7//22 6//22 16//22
f 9//23 4//23 16//23
f 1//24 9//24 17//24
f 14//1 10//1 17//1
f 14//25 17//25 18//25
f 6//26 14//26 18//26
f 16//27 6//27 18//27
f 9//28 16//28 18//28
f 17//29 9//29 18//29
f 11//30 1//30 19//30
f 10//31 12//31 19//31
f 12//32 11//32 19//32
f 1//33 17//33 19//33
