# Blender v2.79 (sub 0) OBJ File: ''
# www.blender.org
mtllib 1053_link_0_33.mtl
o Shape_IndexedFaceSet.033_Shape_IndexedFaceSet.3690
v 0.174998 0.192287 -0.103509
v 0.141410 0.444299 -0.041910
v 0.127404 0.444299 -0.041910
v 0.144091 0.156248 -0.041337
v 0.147010 0.416257 -0.109114
v 0.161238 0.155232 -0.109926
v 0.161001 0.444299 -0.109114
v 0.169402 0.164302 -0.064322
v 0.158201 0.424673 -0.078301
v 0.158201 0.195111 -0.041910
v 0.127404 0.427496 -0.047515
v 0.174998 0.158682 -0.109114
v 0.147010 0.444299 -0.050317
v 0.141410 0.175485 -0.041910
v 0.147010 0.444299 -0.109114
v 0.172202 0.158682 -0.072723
v 0.161001 0.158682 -0.044712
v 0.161001 0.435856 -0.097911
v 0.163802 0.326681 -0.075512
vn 0.9826 0.0612 0.1752
vn 0.0000 0.0020 1.0000
vn 0.0000 1.0000 0.0000
vn 0.0342 0.0023 0.9994
vn -0.9543 -0.0511 -0.2944
vn 0.9584 0.0470 -0.2816
vn 0.0582 0.0029 -0.9983
vn 0.9211 0.0544 0.3856
vn 0.8310 0.0560 0.5535
vn -0.3230 -0.0168 0.9463
vn -0.9609 -0.1410 -0.2381
vn -0.9867 -0.0514 0.1541
vn -0.9630 -0.0594 -0.2630
vn -0.0570 0.0000 -0.9984
vn 0.0000 0.0028 -1.0000
vn -0.9558 0.0930 -0.2788
vn -0.9529 0.0000 -0.3033
vn 0.1414 -0.9887 0.0500
vn 0.2421 -0.9701 0.0186
vn 0.9970 -0.0128 0.0766
vn 0.9144 0.0393 0.4030
vn 0.2036 -0.0595 0.9772
vn 0.1542 -0.9861 0.0617
vn 0.9246 -0.0920 0.3697
vn 0.9975 0.0563 0.0425
vn 0.9300 0.2936 0.2213
vn 0.9502 0.1921 0.2453
vn 0.9412 0.0632 0.3320
vn 0.9325 0.0567 0.3566
vn 0.9574 0.0526 0.2839
vn 0.9879 0.0518 0.1463
vn 0.9890 0.0537 0.1379
usemtl Shape.3696
s off
f 18//1 9//1 19//1
f 2//2 3//2 4//2
f 3//3 2//3 7//3
f 2//4 4//4 10//4
f 5//5 6//5 11//5
f 7//6 1//6 12//6
f 6//7 7//7 12//7
f 7//3 2//3 13//3
f 10//8 8//8 13//8
f 2//9 10//9 13//9
f 4//10 3//10 14//10
f 6//11 4//11 14//11
f 3//12 11//12 14//12
f 11//13 6//13 14//13
f 6//14 5//14 15//14
f 7//15 6//15 15//15
f 3//3 7//3 15//3
f 11//16 3//16 15//16
f 5//17 11//17 15//17
f 4//18 6//18 16//18
f 6//19 12//19 16//19
f 12//20 1//20 16//20
f 8//21 10//21 17//21
f 10//22 4//22 17//22
f 4//23 16//23 17//23
f 16//24 8//24 17//24
f 1//25 7//25 18//25
f 7//26 13//26 18//26
f 13//27 9//27 18//27
f 9//28 13//28 19//28
f 13//29 8//29 19//29
f 8//30 16//30 19//30
f 16//31 1//31 19//31
f 1//32 18//32 19//32
