# Blender v2.79 (sub 0) OBJ File: ''
# www.blender.org
mtllib 1053_link_0_40.mtl
o Shape_IndexedFaceSet.040_Shape_IndexedFaceSet.3697
v -0.051802 0.122283 -0.243519
v -0.029409 0.141881 -0.237924
v -0.029409 0.139076 -0.237924
v -0.057403 0.141881 -0.226723
v -0.043409 0.141881 -0.249118
v -0.032211 0.108286 -0.243519
v -0.032211 0.113883 -0.251922
vn 0.9953 -0.0808 -0.0538
vn 0.3715 0.0000 0.9284
vn -0.8296 0.2072 -0.5184
vn 0.0000 1.0000 -0.0000
vn 0.3469 -0.1982 0.9167
vn -0.4638 -0.6492 0.6028
vn -0.5111 -0.7154 -0.4765
vn 0.9805 0.0000 -0.1963
vn -0.4210 -0.0779 -0.9037
vn 0.5934 0.3117 -0.7421
usemtl Shape.3703
s off
f 3//1 6//1 7//1
f 3//2 2//2 4//2
f 1//3 4//3 5//3
f 4//4 2//4 5//4
f 3//5 4//5 6//5
f 4//6 1//6 6//6
f 6//7 1//7 7//7
f 2//8 3//8 7//8
f 1//9 5//9 7//9
f 5//10 2//10 7//10
