# Blender v2.79 (sub 0) OBJ File: ''
# www.blender.org
mtllib 1053_link_0_24.mtl
o Shape_IndexedFaceSet.024_Shape_IndexedFaceSet.3681
v 0.043402 0.197952 -0.291125
v 0.102203 0.528268 -0.221132
v 0.102203 0.528268 -0.240729
v 0.102203 0.164282 -0.263121
v 0.035533 0.154500 -0.278600
v 0.037804 0.528268 -0.271514
v 0.099422 0.154299 -0.245286
v 0.037804 0.505858 -0.257523
v 0.076994 0.508637 -0.260318
v 0.093800 0.172727 -0.271514
v 0.037804 0.164282 -0.291125
v 0.102203 0.511451 -0.221132
v 0.046207 0.528268 -0.271514
v 0.057402 0.167133 -0.288315
v 0.037804 0.528268 -0.257523
v 0.102203 0.164282 -0.246327
v 0.082592 0.181135 -0.277119
v 0.079799 0.528268 -0.257523
v 0.037804 0.461036 -0.277119
vn 0.0000 0.0831 -0.9965
vn 1.0000 0.0000 0.0000
vn 0.0000 1.0000 0.0000
vn 0.2307 -0.8640 -0.4476
vn 0.7270 0.0422 -0.6854
vn -0.4618 -0.0563 0.8852
vn -0.4920 0.0000 0.8706
vn -0.4881 -0.0491 0.8714
vn 0.3718 0.0546 -0.9267
vn 0.2412 -0.8185 -0.5215
vn 0.4352 -0.3787 -0.8168
vn 0.1981 -0.7896 -0.5808
vn 0.1453 -0.0242 -0.9891
vn 0.3089 0.0538 -0.9496
vn -1.0000 0.0061 0.0000
vn -0.9942 0.0000 0.1071
vn 0.9633 -0.2684 0.0000
vn 0.5350 -0.0612 0.8427
vn 0.4783 0.0531 -0.8766
vn 0.3804 0.0539 -0.9232
vn 0.4237 -0.0385 -0.9050
vn 0.5989 0.0550 -0.7989
vn 0.4914 0.0536 -0.8693
vn 0.3834 0.0763 -0.9204
vn -0.9955 0.0078 -0.0939
vn -0.9850 0.0081 -0.1723
vn -0.2728 0.0454 -0.9610
vn 0.2014 0.0563 -0.9779
usemtl Shape.3687
s off
f 6//1 13//1 19//1
f 3//2 2//2 4//2
f 2//3 3//3 6//3
f 5//4 4//4 7//4
f 3//5 4//5 10//5
f 4//2 2//2 12//2
f 5//6 7//6 12//6
f 2//7 8//7 12//7
f 8//8 5//8 12//8
f 6//3 3//3 13//3
f 13//9 9//9 14//9
f 4//10 5//10 14//10
f 10//11 4//11 14//11
f 5//12 11//12 14//12
f 11//13 1//13 14//13
f 1//14 13//14 14//14
f 2//3 6//3 15//3
f 6//15 5//15 15//15
f 8//7 2//7 15//7
f 5//16 8//16 15//16
f 7//17 4//17 16//17
f 4//2 12//2 16//2
f 12//18 7//18 16//18
f 9//19 10//19 17//19
f 14//20 9//20 17//20
f 10//21 14//21 17//21
f 3//22 10//22 18//22
f 10//23 9//23 18//23
f 13//3 3//3 18//3
f 9//24 13//24 18//24
f 5//25 6//25 19//25
f 11//26 5//26 19//26
f 1//27 11//27 19//27
f 13//28 1//28 19//28
