# Blender v2.79 (sub 0) OBJ File: ''
# www.blender.org
mtllib 102634_link_1_7.mtl
o Shape_IndexedFaceSet.007_Shape_IndexedFaceSet.1229
v 0.144072 -0.261297 0.593399
v 0.283482 -0.289170 0.354425
v 0.283482 -0.285185 0.346446
v 0.181918 -0.297140 0.344438
v 0.183918 -0.243368 0.344438
v 0.132114 -0.297140 0.605342
v 0.239679 -0.245363 0.471917
v 0.132114 -0.243368 0.487849
v 0.249637 -0.295145 0.483834
v 0.263566 -0.243368 0.344438
v 0.132114 -0.295145 0.481878
v 0.132114 -0.243368 0.585446
v 0.279511 -0.297140 0.344438
v 0.203834 -0.285185 0.551576
v 0.265567 -0.249348 0.404227
v 0.195862 -0.245363 0.539608
v 0.179932 -0.245363 0.344438
v 0.277510 -0.291160 0.406209
v 0.199848 -0.297140 0.551576
v 0.247637 -0.281206 0.483834
v 0.148058 -0.287180 0.601378
v 0.235693 -0.243368 0.471917
v 0.132114 -0.249348 0.479870
v 0.271538 -0.247353 0.344438
v 0.273539 -0.297140 0.406209
v 0.132114 -0.297140 0.485841
v 0.150044 -0.249348 0.583465
v 0.259580 -0.243368 0.404227
v 0.132114 -0.279210 0.605342
v 0.227721 -0.249348 0.495802
v 0.203834 -0.295145 0.551576
v 0.275525 -0.283195 0.408191
v 0.152045 -0.295145 0.597389
v 0.142087 -0.243368 0.583465
v 0.241665 -0.251337 0.473925
v 0.245651 -0.297140 0.483834
v 0.215763 -0.287180 0.535644
v 0.132114 -0.249348 0.593399
v 0.255609 -0.287180 0.467954
v 0.195862 -0.243368 0.533662
v 0.201848 -0.257312 0.539608
v 0.267552 -0.251337 0.396248
v 0.283482 -0.293155 0.344438
v 0.185904 -0.249348 0.551576
v 0.165988 -0.285185 0.585446
v 0.259580 -0.247353 0.420159
v 0.237679 -0.285185 0.501773
v 0.171960 -0.293155 0.581431
v 0.136115 -0.287180 0.607375
v 0.275525 -0.295145 0.410198
vn 0.7069 -0.7044 0.0642
vn 0.0000 0.0000 -1.0000
vn 0.0000 1.0000 0.0000
vn -1.0000 0.0000 0.0000
vn 0.0000 -1.0000 -0.0000
vn -0.4418 0.8828 -0.1596
vn -0.9397 -0.0360 -0.3400
vn -0.8701 0.3944 -0.2956
vn -0.9427 -0.0146 -0.3333
vn -0.7872 -0.5508 -0.2773
vn 0.5920 0.3193 0.7400
vn 0.4421 0.8833 0.1560
vn 0.4469 0.8941 0.0298
vn 0.7036 0.7044 0.0938
vn 0.6755 0.5938 0.4372
vn 0.4284 -0.8559 0.2897
vn 0.9652 0.2340 0.1168
vn 0.9699 0.2119 0.1200
vn 0.1915 -0.9514 0.2412
vn 0.3994 -0.7979 0.4515
vn 0.4921 0.6548 0.5736
vn 0.7836 0.4157 0.4617
vn 0.8109 0.3238 0.4874
vn 0.4284 -0.8559 0.2896
vn 0.4419 -0.8829 0.1588
vn 0.8225 -0.1194 0.5561
vn 0.8005 0.0000 0.5994
vn 0.4361 0.4364 0.7870
vn 0.1185 0.7936 0.5967
vn 0.4073 0.5419 0.7351
vn 0.9411 -0.0355 0.3361
vn 0.9049 0.1298 0.4054
vn 0.9345 0.1528 0.3216
vn 0.8944 0.2914 0.3394
vn 0.4410 0.8509 0.2855
vn 0.4300 0.8592 0.2774
vn 0.2826 0.9094 0.3051
vn 0.7635 0.3825 0.5204
vn 0.7828 0.2918 0.5496
vn 0.9477 0.3043 0.0963
vn 0.8800 0.4636 0.1034
vn 0.9529 0.2811 0.1137
vn 0.9417 0.2958 0.1605
vn 1.0000 0.0000 0.0000
vn 0.9620 -0.2536 0.1012
vn 0.6837 0.1783 -0.7077
vn 0.5739 0.5041 0.6454
vn 0.6668 0.3336 0.6664
vn 0.6669 0.3341 0.6661
vn 0.6114 0.3122 0.7271
vn 0.6297 0.3193 0.7081
vn 0.6326 0.3165 0.7069
vn 0.5886 0.7843 0.1962
vn 0.6959 0.6967 0.1743
vn 0.9044 0.3015 0.3021
vn 0.8631 0.3934 0.3167
vn 0.9007 0.2939 0.3198
vn 0.8993 0.2963 0.3216
vn 0.8559 0.1228 0.5024
vn 0.8012 0.3081 0.5131
vn 0.8386 0.0267 0.5442
vn 0.7936 0.3079 0.5247
vn 0.7930 0.2990 0.5307
vn 0.6836 0.0000 0.7298
vn 0.6281 -0.0736 0.7747
vn 0.5620 -0.5296 0.6353
vn 0.6531 0.1120 0.7490
vn 0.6618 0.1234 0.7395
vn 0.4243 0.3258 0.8449
vn -0.4530 0.0000 0.8915
vn 0.3782 -0.3286 0.8654
vn 0.4380 -0.2176 0.8722
vn 0.3564 0.3567 0.8635
vn 0.2588 0.3587 0.8969
vn 0.9346 -0.1366 0.3286
vn 0.4995 -0.8483 0.1756
vn 0.6425 -0.7638 0.0621
vn 0.9272 -0.3605 0.1013
usemtl Shape.1239
s off
f 13//1 43//1 50//1
f 4//2 5//2 10//2
f 5//3 8//3 10//3
f 6//4 8//4 11//4
f 8//4 6//4 12//4
f 10//3 8//3 12//3
f 6//5 4//5 13//5
f 4//2 10//2 13//2
f 5//2 4//2 17//2
f 8//6 5//6 17//6
f 4//7 11//7 17//7
f 6//5 13//5 19//5
f 10//3 12//3 22//3
f 11//4 8//4 23//4
f 8//8 17//8 23//8
f 17//9 11//9 23//9
f 13//2 10//2 24//2
f 19//5 13//5 25//5
f 4//5 6//5 26//5
f 11//10 4//10 26//10
f 6//4 11//4 26//4
f 1//11 21//11 27//11
f 10//3 22//3 28//3
f 22//12 7//12 28//12
f 24//13 10//13 28//13
f 15//14 24//14 28//14
f 12//4 6//4 29//4
f 7//15 16//15 30//15
f 19//16 9//16 31//16
f 2//17 3//17 32//17
f 18//18 2//18 32//18
f 6//19 19//19 33//19
f 19//20 31//20 33//20
f 22//3 12//3 34//3
f 27//21 16//21 34//21
f 7//22 30//22 35//22
f 30//23 20//23 35//23
f 9//24 19//24 36//24
f 25//25 9//25 36//25
f 19//5 25//5 36//5
f 31//26 9//26 37//26
f 14//27 31//27 37//27
f 1//28 27//28 38//28
f 12//4 29//4 38//4
f 34//29 12//29 38//29
f 27//30 34//30 38//30
f 9//31 18//31 39//31
f 20//32 9//32 39//32
f 18//33 32//33 39//33
f 35//34 20//34 39//34
f 16//35 7//35 40//35
f 7//36 22//36 40//36
f 22//3 34//3 40//3
f 34//37 16//37 40//37
f 30//38 16//38 41//38
f 14//39 37//39 41//39
f 3//40 24//40 42//40
f 24//41 15//41 42//41
f 32//42 3//42 42//42
f 15//43 32//43 42//43
f 3//44 2//44 43//44
f 2//45 18//45 43//45
f 24//46 3//46 43//46
f 13//2 24//2 43//2
f 16//47 27//47 44//47
f 14//48 41//48 44//48
f 41//49 16//49 44//49
f 27//50 21//50 45//50
f 44//51 27//51 45//51
f 14//52 44//52 45//52
f 28//53 7//53 46//53
f 15//54 28//54 46//54
f 32//55 15//55 46//55
f 7//56 35//56 46//56
f 39//57 32//57 46//57
f 35//58 39//58 46//58
f 9//59 20//59 47//59
f 20//60 30//60 47//60
f 37//61 9//61 47//61
f 30//62 41//62 47//62
f 41//63 37//63 47//63
f 31//64 14//64 48//64
f 21//65 33//65 48//65
f 33//66 31//66 48//66
f 45//67 21//67 48//67
f 14//68 45//68 48//68
f 21//69 1//69 49//69
f 29//70 6//70 49//70
f 6//71 33//71 49//71
f 33//72 21//72 49//72
f 1//73 38//73 49//73
f 38//74 29//74 49//74
f 18//75 9//75 50//75
f 9//76 25//76 50//76
f 25//77 13//77 50//77
f 43//78 18//78 50//78
