# Blender v2.79 (sub 0) OBJ File: ''
# www.blender.org
mtllib 102634_link_1_0.mtl
o Shape_IndexedFaceSet_Shape_IndexedFaceSet.1222
v -0.106935 -0.271246 0.210978
v -0.106935 -0.289170 0.210978
v -0.264271 -0.287180 0.362366
v -0.154727 -0.247353 0.362366
v -0.184624 -0.297140 0.111410
v -0.106935 -0.243368 0.085500
v -0.158722 -0.297140 0.362366
v -0.246345 -0.243368 0.362366
v -0.106935 -0.297140 0.075555
v -0.258301 -0.295145 0.242849
v -0.178638 -0.243368 0.123362
v -0.246345 -0.245363 0.246833
v -0.106935 -0.243368 0.203010
v -0.260291 -0.297140 0.362366
v -0.230410 -0.287180 0.161194
v -0.130831 -0.285185 0.077533
v -0.268267 -0.287180 0.316537
v -0.180628 -0.247353 0.117400
v -0.218470 -0.245363 0.167184
v -0.106935 -0.297140 0.203010
v -0.160712 -0.243368 0.352363
v -0.256295 -0.249348 0.330466
v -0.154727 -0.295145 0.362366
v -0.258301 -0.283195 0.240843
v -0.230410 -0.297140 0.171168
v -0.186614 -0.285185 0.109404
v -0.118875 -0.245363 0.083523
v -0.246345 -0.243368 0.266724
v -0.106935 -0.291160 0.069565
v -0.264271 -0.297140 0.318514
v -0.236395 -0.249348 0.209029
v -0.256295 -0.249348 0.314530
v -0.144777 -0.295145 0.085500
v -0.106935 -0.245363 0.209001
v -0.134827 -0.249348 0.089484
v -0.232400 -0.293155 0.165178
v -0.252315 -0.245363 0.350385
v -0.220460 -0.243368 0.181113
v -0.258301 -0.289170 0.234882
v -0.224440 -0.259302 0.167184
v -0.268267 -0.293155 0.318514
v -0.108925 -0.247353 0.079539
v -0.186614 -0.293155 0.109404
v -0.248335 -0.253327 0.238865
v -0.234405 -0.285185 0.171168
v -0.176648 -0.243368 0.362366
v -0.254321 -0.297140 0.236859
v -0.254321 -0.245363 0.316537
v -0.252315 -0.249348 0.362366
v -0.266261 -0.283195 0.338434
v -0.128841 -0.291160 0.075555
v -0.180628 -0.271246 0.109404
v -0.214474 -0.287180 0.141275
v -0.248335 -0.247353 0.250817
v -0.138807 -0.285185 0.081516
v -0.106935 -0.295145 0.209001
v -0.126851 -0.297140 0.079539
v -0.230410 -0.295145 0.163200
vn -0.7558 -0.2022 -0.6228
vn 0.9536 0.0000 0.3010
vn 1.0000 0.0000 -0.0000
vn 0.0000 0.0000 1.0000
vn 0.0000 -1.0000 0.0000
vn -0.0000 1.0000 -0.0000
vn -0.4604 0.8014 -0.3820
vn 0.3802 0.9147 0.1369
vn 0.4421 -0.8854 0.1437
vn -0.1227 0.9648 -0.2324
vn -0.2827 0.8384 -0.4660
vn -0.7453 0.6135 -0.2608
vn -0.9534 0.3017 0.0000
vn 0.9544 0.0227 0.2977
vn 0.6979 0.6795 0.2263
vn -0.3932 0.2511 -0.8845
vn -0.4087 0.5718 -0.7113
vn -0.2357 0.9567 -0.1707
vn -0.5579 0.8066 -0.1952
vn -0.3134 0.9449 -0.0948
vn -0.9847 0.1229 -0.1232
vn -0.8667 -0.3990 -0.2993
vn -0.7521 0.2884 -0.5926
vn -0.7479 0.3203 -0.5813
vn -0.8659 0.3709 -0.3356
vn -0.9202 -0.3677 0.1340
vn -0.7047 -0.7066 0.0640
vn -0.7042 -0.7061 -0.0742
vn -0.9782 -0.1660 -0.1245
vn -0.9920 -0.0397 -0.1201
vn -0.0500 0.8379 -0.5435
vn -0.3206 0.2343 -0.9178
vn 0.9109 0.1305 -0.3913
vn -0.4286 -0.5678 -0.7028
vn -0.8351 0.4791 -0.2703
vn -0.9143 0.2861 -0.2868
vn -0.9028 0.2866 -0.3207
vn -0.9232 0.0538 -0.3805
vn -0.9365 0.0271 -0.3495
vn -0.8727 0.2738 -0.4043
vn -0.8978 0.2954 -0.3267
vn -0.9012 0.2901 -0.3220
vn 0.1720 0.9462 0.2740
vn -0.5221 -0.8505 -0.0636
vn -0.2426 0.9701 0.0000
vn -0.6573 0.7499 -0.0752
vn -0.8961 0.4439 0.0000
vn -0.3546 0.9348 0.0210
vn -0.8173 0.5742 0.0484
vn -0.6889 0.6878 0.2288
vn -0.9300 0.3488 0.1160
vn -0.9564 0.2898 0.0349
vn -0.9958 0.0262 0.0872
vn -0.9959 0.0285 0.0861
vn -0.9456 0.2988 0.1284
vn -0.9447 0.3059 0.1179
vn -0.2848 0.2144 -0.9343
vn -0.2582 0.2033 -0.9444
vn -0.5055 0.0000 -0.8628
vn -0.4958 -0.1514 -0.8551
vn -0.5943 0.2552 -0.7627
vn -0.4914 0.2764 -0.8259
vn -0.7501 0.2777 -0.6001
vn -0.7368 0.2494 -0.6284
vn -0.7715 -0.1546 -0.6172
vn -0.7529 0.0000 -0.6581
vn -0.9494 0.2944 -0.1095
vn -0.9493 0.2946 -0.1094
vn -0.8730 0.4363 -0.2181
vn -0.9406 0.3038 -0.1518
vn -0.7888 0.6080 -0.0903
vn -0.8725 0.4795 -0.0940
vn -0.4336 0.2412 -0.8682
vn -0.4420 0.1458 -0.8851
vn -0.5038 0.0213 -0.8636
vn -0.4925 0.2115 -0.8442
vn -0.4816 0.2408 -0.8426
vn 0.9501 -0.0980 0.2961
vn 0.7120 -0.6663 0.2219
vn -0.1399 -0.7007 -0.6996
vn -0.2424 -0.8650 -0.4393
vn -0.2130 -0.5898 -0.7789
vn -0.3123 -0.5965 -0.7394
vn -0.3022 -0.9247 -0.2315
vn -0.8038 -0.5240 -0.2815
vn -0.6228 -0.5770 -0.5284
vn -0.7048 -0.6651 -0.2468
vn -0.5550 -0.8069 -0.2020
vn -0.7708 -0.1572 -0.6174
usemtl Shape.1232
s off
f 53//1 43//1 58//1
f 2//2 1//2 4//2
f 1//3 2//3 6//3
f 4//4 3//4 7//4
f 3//4 4//4 8//4
f 6//3 2//3 9//3
f 7//5 5//5 9//5
f 8//6 6//6 11//6
f 1//3 6//3 13//3
f 6//6 8//6 13//6
f 7//4 3//4 14//4
f 5//5 7//5 14//5
f 11//7 18//7 19//7
f 9//3 2//3 20//3
f 7//5 9//5 20//5
f 4//8 13//8 21//8
f 13//6 8//6 21//6
f 2//2 4//2 23//2
f 4//4 7//4 23//4
f 7//9 20//9 23//9
f 5//5 14//5 25//5
f 11//10 6//10 27//10
f 18//11 11//11 27//11
f 8//6 11//6 28//6
f 6//3 9//3 29//3
f 25//5 14//5 30//5
f 12//12 19//12 31//12
f 17//13 22//13 32//13
f 4//14 1//14 34//14
f 1//3 13//3 34//3
f 13//15 4//15 34//15
f 27//16 16//16 35//16
f 18//17 27//17 35//17
f 11//18 19//18 38//18
f 19//19 12//19 38//19
f 28//6 11//6 38//6
f 12//20 28//20 38//20
f 17//21 24//21 39//21
f 36//22 10//22 39//22
f 18//23 15//23 40//23
f 19//24 18//24 40//24
f 31//25 19//25 40//25
f 14//26 3//26 41//26
f 30//27 14//27 41//27
f 10//28 30//28 41//28
f 39//29 10//29 41//29
f 17//30 39//30 41//30
f 27//31 6//31 42//31
f 16//32 27//32 42//32
f 6//33 29//33 42//33
f 33//34 5//34 43//34
f 12//35 31//35 44//35
f 39//36 24//36 44//36
f 39//37 44//37 45//37
f 15//38 36//38 45//38
f 36//39 39//39 45//39
f 40//40 15//40 45//40
f 31//41 40//41 45//41
f 44//42 31//42 45//42
f 8//4 4//4 46//4
f 4//43 21//43 46//43
f 21//6 8//6 46//6
f 30//44 10//44 47//44
f 25//5 30//5 47//5
f 8//45 28//45 48//45
f 28//46 12//46 48//46
f 32//47 22//47 48//47
f 37//48 8//48 48//48
f 22//49 37//49 48//49
f 3//4 8//4 49//4
f 8//50 37//50 49//50
f 37//51 22//51 49//51
f 22//52 17//52 50//52
f 41//53 3//53 50//53
f 17//54 41//54 50//54
f 3//55 49//55 50//55
f 49//56 22//56 50//56
f 16//57 42//57 51//57
f 42//58 29//58 51//58
f 43//59 26//59 51//59
f 33//60 43//60 51//60
f 26//61 18//61 52//61
f 18//62 35//62 52//62
f 15//63 18//63 53//63
f 18//64 26//64 53//64
f 36//65 15//65 53//65
f 26//66 43//66 53//66
f 24//67 17//67 54//67
f 17//68 32//68 54//68
f 12//69 44//69 54//69
f 44//70 24//70 54//70
f 48//71 12//71 54//71
f 32//72 48//72 54//72
f 35//73 16//73 55//73
f 16//74 51//74 55//74
f 51//75 26//75 55//75
f 26//76 52//76 55//76
f 52//77 35//77 55//77
f 20//3 2//3 56//3
f 2//78 23//78 56//78
f 23//79 20//79 56//79
f 9//5 5//5 57//5
f 29//80 9//80 57//80
f 5//81 33//81 57//81
f 51//82 29//82 57//82
f 33//83 51//83 57//83
f 5//84 25//84 58//84
f 10//85 36//85 58//85
f 43//86 5//86 58//86
f 47//87 10//87 58//87
f 25//88 47//88 58//88
f 36//89 53//89 58//89
