# Blender v2.79 (sub 0) OBJ File: ''
# www.blender.org
mtllib 102634_link_2_1.mtl
o Shape_IndexedFaceSet.001_Shape_IndexedFaceSet.8250
v -0.028745 0.278280 -0.371004
v 0.436472 0.766645 -0.153697
v 0.393095 0.759971 -0.148091
v -0.415937 0.766753 -0.492157
v 0.436053 0.766406 -0.491917
v -0.429745 0.725171 -0.152993
v 0.396192 0.287943 -0.177078
v -0.374897 0.282264 -0.177316
v 0.394250 0.289111 -0.480055
v -0.375195 0.282078 -0.474643
v -0.415858 0.766708 -0.153654
v -0.400396 0.650718 -0.496731
v -0.365468 0.290410 -0.172608
v 0.394108 0.760596 -0.498148
v -0.364417 0.297052 -0.484728
v -0.431179 0.762387 -0.481176
v 0.438236 0.704399 -0.490416
v 0.379011 0.297048 -0.484731
v -0.381812 0.287818 -0.450522
v 0.385949 0.290486 -0.172658
v 0.395933 0.282032 -0.207545
v 0.402457 0.312176 -0.183084
v 0.403437 0.311656 -0.469131
v 0.413763 0.644360 -0.496211
v -0.381901 0.293840 -0.183043
v -0.427568 0.712092 -0.485906
v 0.025243 0.278656 -0.394933
v -0.412108 0.710613 -0.496647
v -0.431399 0.762507 -0.158437
v 0.049322 0.278465 -0.310879
v 0.429415 0.759990 -0.148041
v 0.396699 0.464997 -0.490585
v -0.381530 0.294057 -0.474744
vn -0.5740 -0.0850 -0.8145
vn 0.0004 1.0000 -0.0007
vn -0.0112 -0.9999 0.0006
vn 0.0001 1.0000 0.0001
vn -0.0067 0.0182 0.9998
vn -0.0040 -0.0457 0.9989
vn -0.3761 -0.0972 0.9215
vn 0.0005 0.7297 -0.6837
vn -0.0007 -0.5583 -0.8297
vn 0.9994 0.0352 -0.0013
vn -0.0000 -0.5076 -0.8616
vn -0.6529 -0.7574 0.0011
vn 0.0062 -0.8605 0.5094
vn 0.0001 -0.5005 0.8657
vn 0.0072 -0.9817 0.1904
vn 0.8581 -0.0968 0.5043
vn 0.9969 -0.0759 0.0192
vn 0.9697 -0.2412 0.0385
vn 0.9767 -0.2144 0.0037
vn 0.8559 -0.1033 -0.5066
vn 0.9285 -0.3709 -0.0154
vn 0.9961 -0.0881 0.0036
vn 0.1458 0.0082 -0.9893
vn 0.0005 -0.0166 -0.9999
vn 0.2630 -0.0141 -0.9647
vn 0.3727 -0.0626 -0.9258
vn -0.7462 -0.1283 0.6533
vn -0.9939 -0.1104 0.0022
vn -0.8580 -0.5135 0.0113
vn -0.9975 -0.0713 -0.0037
vn -0.5905 0.0334 -0.8063
vn -0.9942 -0.1074 -0.0023
vn -0.0037 -0.9997 -0.0241
vn 0.0085 -0.9963 -0.0855
vn 0.0223 -0.9994 -0.0261
vn -0.0068 0.0793 -0.9968
vn -0.0019 0.0010 -1.0000
vn -0.3517 -0.0675 -0.9337
vn -0.5686 0.0270 -0.8222
vn -0.2610 0.9653 0.0002
vn -0.3221 0.1226 0.9387
vn -0.9990 -0.0444 -0.0007
vn -0.2757 0.9612 -0.0005
vn -0.0057 -0.9999 0.0104
vn 0.0009 -0.9995 0.0314
vn 0.0053 -1.0000 -0.0038
vn 0.0120 -0.9999 -0.0057
vn 0.6744 -0.0925 0.7326
vn -0.0014 0.5279 0.8493
vn 0.0001 0.6475 0.7620
vn -0.0013 -0.0500 0.9987
vn 0.3773 -0.0833 0.9223
vn 0.0001 -0.0524 0.9986
vn -0.0002 -0.0339 -0.9994
vn -0.0000 -0.0348 -0.9994
vn 0.2635 -0.0613 -0.9627
vn 0.0004 -0.0314 -0.9995
vn 0.3305 -0.0610 -0.9418
vn -0.4554 -0.2481 -0.8550
vn -0.8761 -0.4644 -0.1298
vn -0.9931 -0.1104 -0.0400
vn -0.4915 -0.0817 -0.8670
usemtl Shape.8261
s off
f 26//1 28//1 33//1
f 4//2 2//2 5//2
f 1//3 8//3 10//3
f 2//4 4//4 11//4
f 6//5 3//5 11//5
f 3//6 6//6 13//6
f 6//7 8//7 13//7
f 4//8 5//8 14//8
f 9//9 10//9 15//9
f 5//10 2//10 17//10
f 9//11 15//11 18//11
f 10//12 8//12 19//12
f 8//13 7//13 20//13
f 13//14 8//14 20//14
f 7//15 8//15 21//15
f 2//16 7//16 22//16
f 17//17 2//17 22//17
f 7//18 21//18 22//18
f 22//19 21//19 23//19
f 9//20 17//20 23//20
f 21//21 9//21 23//21
f 17//22 22//22 23//22
f 14//23 5//23 24//23
f 12//24 14//24 24//24
f 5//25 17//25 24//25
f 17//26 9//26 24//26
f 8//27 6//27 25//27
f 6//28 19//28 25//28
f 19//29 8//29 25//29
f 6//30 16//30 26//30
f 16//31 4//31 26//31
f 19//32 6//32 26//32
f 1//33 10//33 27//33
f 10//34 9//34 27//34
f 9//35 21//35 27//35
f 4//36 14//36 28//36
f 14//37 12//37 28//37
f 12//38 15//38 28//38
f 26//39 4//39 28//39
f 11//40 4//40 29//40
f 6//41 11//41 29//41
f 16//42 6//42 29//42
f 4//43 16//43 29//43
f 8//44 1//44 30//44
f 21//45 8//45 30//45
f 1//46 27//46 30//46
f 27//47 21//47 30//47
f 7//48 2//48 31//48
f 11//49 3//49 31//49
f 2//50 11//50 31//50
f 3//51 13//51 31//51
f 20//52 7//52 31//52
f 13//53 20//53 31//53
f 15//54 12//54 32//54
f 18//55 15//55 32//55
f 9//56 18//56 32//56
f 12//57 24//57 32//57
f 24//58 9//58 32//58
f 15//59 10//59 33//59
f 10//60 19//60 33//60
f 19//61 26//61 33//61
f 28//62 15//62 33//62
