# Blender v2.79 (sub 0) OBJ File: ''
# www.blender.org
mtllib 102634_link_2_2.mtl
o Shape_IndexedFaceSet.002_Shape_IndexedFaceSet.8251
v -0.137557 -0.858454 0.295322
v 0.160959 -0.865173 0.313209
v 0.161771 -0.883293 0.313368
v 0.019327 -0.883911 0.092109
v 0.026254 -0.716719 0.105775
v -0.016213 -0.723348 0.431560
v -0.027918 -0.900532 0.466552
v 0.106815 -0.724397 0.377200
v -0.068893 -0.723962 0.160430
v -0.062367 -0.899401 0.126549
v 0.084714 -0.895311 0.456221
v -0.097588 -0.724493 0.353764
v 0.089093 -0.899550 0.132090
v 0.083347 -0.724480 0.149449
v -0.116169 -0.894460 0.401421
v 0.155842 -0.855378 0.240451
v 0.124409 -0.724351 0.272078
v -0.104101 -0.855378 0.432287
v 0.135865 -0.899618 0.388786
v -0.127055 -0.893924 0.236934
v -0.063192 -0.835596 0.118863
v 0.048577 -0.859078 0.471883
v 0.089876 -0.876843 0.118809
v 0.066561 -0.723323 0.419780
v -0.103501 -0.724429 0.272052
v 0.136440 -0.864805 0.400986
v -0.028251 -0.865574 0.474105
v 0.000817 -0.716189 0.104786
v -0.127620 -0.870788 0.230928
v -0.140021 -0.865116 0.330878
v -0.126379 -0.899367 0.359351
v 0.147598 -0.899649 0.254536
v -0.045926 -0.723097 0.420126
v 0.119762 -0.723361 0.348742
v 0.090076 -0.871110 0.454980
v -0.058124 -0.889497 0.110915
v -0.057156 -0.723936 0.136874
v -0.039531 -0.900189 0.113352
v 0.077736 -0.724156 0.137241
v -0.064296 -0.895713 0.457055
v 0.048913 -0.895077 0.473536
v 0.042742 -0.723769 0.430859
v 0.054974 -0.883407 0.099415
v 0.143861 -0.895087 0.224415
v -0.127120 -0.899840 0.254509
v -0.028055 -0.853483 0.100245
vn -0.4292 0.0921 -0.8985
vn 0.9970 0.0441 -0.0642
vn 0.9071 0.2910 -0.3041
vn 0.9698 0.2413 -0.0357
vn 0.0557 -0.9928 0.1057
vn 0.9622 0.0455 0.2686
vn 0.9466 -0.1204 0.2991
vn 0.7699 -0.2223 0.5982
vn 0.0035 0.2863 0.9581
vn 0.0404 0.0797 -0.9960
vn 0.0201 0.9996 0.0184
vn 0.0028 0.9998 0.0221
vn -0.1422 0.9890 -0.0399
vn -0.0695 0.9976 0.0058
vn -0.9882 -0.0607 -0.1409
vn -0.9290 0.2337 -0.2870
vn -0.9592 0.2110 -0.1884
vn -0.9242 0.2292 0.3054
vn -0.9431 0.0296 0.3312
vn -0.9861 -0.1372 -0.0940
vn -0.9581 0.2778 0.0696
vn -0.9699 0.2427 -0.0217
vn -0.9528 -0.1707 0.2511
vn 0.6449 -0.7622 0.0565
vn 0.0059 -1.0000 0.0007
vn -0.7352 0.3752 0.5645
vn -0.3409 0.2958 0.8924
vn -0.4366 0.2709 0.8579
vn 0.0000 0.9998 0.0219
vn -0.0463 0.9988 0.0150
vn 0.9625 0.2658 0.0549
vn 0.0900 0.9959 -0.0074
vn 0.0246 0.9995 0.0179
vn 0.1241 0.9879 0.0925
vn 0.9423 0.2080 0.2623
vn 0.8768 0.2541 0.4082
vn 0.7033 0.2687 0.6581
vn 0.4298 0.2734 0.8606
vn 0.7172 0.2608 0.6463
vn 0.7594 -0.1356 0.6363
vn -0.8086 -0.3724 -0.4554
vn -0.8658 -0.1454 -0.4787
vn -0.8659 -0.0077 -0.5002
vn -0.4944 0.1644 -0.8535
vn -0.1799 0.9797 -0.0886
vn -0.8860 0.1425 -0.4413
vn -0.8765 0.1225 -0.4655
vn 0.0730 -0.8790 -0.4712
vn 0.0037 -1.0000 -0.0011
vn 0.0055 -1.0000 -0.0034
vn -0.1716 -0.4928 -0.8531
vn -0.3534 -0.7439 -0.5672
vn 0.8900 0.2124 -0.4034
vn 0.2153 0.9738 -0.0731
vn 0.1788 0.9820 -0.0605
vn 0.5311 0.1430 -0.8351
vn 0.8622 0.1277 -0.4901
vn -0.7022 -0.2950 0.6480
vn -0.4743 0.0708 0.8775
vn -0.2726 -0.2057 0.9399
vn -0.1664 -0.9758 0.1422
vn -0.1952 -0.9676 0.1602
vn 0.0581 -0.9893 0.1335
vn -0.0736 -0.2113 0.9747
vn 0.0250 0.0461 0.9986
vn 0.4346 -0.0502 0.8992
vn 0.3882 0.0459 0.9204
vn 0.0135 0.2907 0.9567
vn 0.0078 0.9983 0.0570
vn 0.4003 0.2816 0.8720
vn 0.1993 0.0716 -0.9773
vn 0.1223 -0.8331 -0.5394
vn 0.4661 0.1138 -0.8774
vn 0.4968 -0.4508 -0.7415
vn 0.9608 -0.2237 -0.1638
vn 0.8252 -0.3061 -0.4747
vn 0.8821 -0.0786 -0.4645
vn 0.3851 -0.9042 -0.1847
vn 0.9529 -0.2592 -0.1575
vn -0.5319 -0.8020 -0.2719
vn -0.9763 -0.2039 -0.0722
vn -0.0169 -0.9998 0.0046
vn -0.9313 -0.3641 0.0082
vn -0.0053 -1.0000 -0.0008
vn -0.0515 -0.9982 -0.0295
vn -0.1312 0.0603 -0.9895
vn -0.4175 0.1176 -0.9010
vn -0.2283 -0.0964 -0.9688
usemtl Shape.8262
s off
f 36//1 21//1 46//1
f 2//2 3//2 16//2
f 16//3 14//3 17//3
f 2//4 16//4 17//4
f 11//5 7//5 19//5
f 3//6 2//6 26//6
f 19//7 3//7 26//7
f 11//8 19//8 26//8
f 22//9 6//9 27//9
f 5//10 4//10 28//10
f 24//11 5//11 28//11
f 6//12 24//12 28//12
f 9//13 25//13 28//13
f 25//14 12//14 28//14
f 20//15 1//15 29//15
f 25//16 9//16 29//16
f 1//17 25//17 29//17
f 18//18 12//18 30//18
f 15//19 18//19 30//19
f 1//20 20//20 30//20
f 12//21 25//21 30//21
f 25//22 1//22 30//22
f 15//23 30//23 31//23
f 3//24 19//24 32//24
f 19//25 7//25 32//25
f 12//26 18//26 33//26
f 27//27 6//27 33//27
f 18//28 27//28 33//28
f 6//29 28//29 33//29
f 28//30 12//30 33//30
f 2//31 17//31 34//31
f 17//32 5//32 34//32
f 5//33 24//33 34//33
f 24//34 8//34 34//34
f 26//35 2//35 34//35
f 8//36 26//36 34//36
f 8//37 24//37 35//37
f 24//38 22//38 35//38
f 26//39 8//39 35//39
f 11//40 26//40 35//40
f 10//41 20//41 36//41
f 20//42 29//42 36//42
f 29//43 21//43 36//43
f 28//44 21//44 37//44
f 9//45 28//45 37//45
f 29//46 9//46 37//46
f 21//47 29//47 37//47
f 4//48 13//48 38//48
f 32//49 7//49 38//49
f 13//50 32//50 38//50
f 36//51 4//51 38//51
f 10//52 36//52 38//52
f 14//53 16//53 39//53
f 17//54 14//54 39//54
f 5//55 17//55 39//55
f 23//56 5//56 39//56
f 16//57 23//57 39//57
f 18//58 15//58 40//58
f 27//59 18//59 40//59
f 7//60 27//60 40//60
f 31//61 7//61 40//61
f 15//62 31//62 40//62
f 7//63 11//63 41//63
f 27//64 7//64 41//64
f 22//65 27//65 41//65
f 11//66 35//66 41//66
f 35//67 22//67 41//67
f 6//68 22//68 42//68
f 24//69 6//69 42//69
f 22//70 24//70 42//70
f 4//71 5//71 43//71
f 13//72 4//72 43//72
f 5//73 23//73 43//73
f 23//74 13//74 43//74
f 16//75 3//75 44//75
f 13//76 23//76 44//76
f 23//77 16//77 44//77
f 32//78 13//78 44//78
f 3//79 32//79 44//79
f 20//80 10//80 45//80
f 30//81 20//81 45//81
f 7//82 31//82 45//82
f 31//83 30//83 45//83
f 38//84 7//84 45//84
f 10//85 38//85 45//85
f 28//86 4//86 46//86
f 21//87 28//87 46//87
f 4//88 36//88 46//88
