# Blender v2.79 (sub 0) OBJ File: ''
# www.blender.org
mtllib 102634_link_2_3.mtl
o Shape_IndexedFaceSet.003_Shape_IndexedFaceSet.8252
v -0.008083 -0.279044 -0.327860
v -0.008654 -0.380296 -0.370825
v 0.036782 -0.381620 -0.374797
v 0.039694 -0.388278 -0.071060
v -0.026334 -0.368437 -0.071150
v 0.053369 -0.322059 -0.068964
v 0.048068 -0.289621 -0.362214
v -0.013025 -0.315705 -0.071717
v -0.023648 -0.285914 -0.366198
v 0.056806 -0.360186 -0.353837
v -0.023648 -0.378750 -0.359987
v 0.041773 -0.277827 -0.329837
v -0.006237 -0.387593 -0.073202
v 0.032908 -0.309302 -0.072854
v 0.053356 -0.375554 -0.069025
v 0.050616 -0.384944 -0.372408
v 0.031322 -0.288230 -0.383742
v -0.026666 -0.335429 -0.069872
v -0.023648 -0.360186 -0.378589
v -0.017458 -0.384944 -0.335236
v -0.000447 -0.308186 -0.072717
v 0.050616 -0.285914 -0.329056
vn 0.6752 0.7255 -0.1330
vn -0.6009 0.7928 0.1019
vn -0.0306 0.9859 -0.1643
vn -0.0483 -0.1564 0.9865
vn 0.5083 0.8525 0.1219
vn -0.0371 -0.1189 0.9922
vn 0.9999 -0.0003 0.0121
vn 0.9704 -0.2416 -0.0013
vn -0.0775 -0.7741 -0.6283
vn 0.9165 0.0667 -0.3944
vn 0.6801 -0.7329 0.0165
vn 0.3911 0.8866 -0.2469
vn -0.0180 0.9824 -0.1861
vn 0.1495 -0.0856 -0.9850
vn 0.7891 0.0861 -0.6082
vn -0.0303 0.1138 0.9930
vn -0.8155 0.5722 0.0873
vn -0.9999 -0.0097 -0.0090
vn -0.0301 -0.0390 0.9988
vn -0.0112 -0.0011 0.9999
vn -0.0912 -0.4171 -0.9043
vn -0.5040 -0.6113 -0.6101
vn 0.0292 -0.0936 -0.9952
vn -0.2942 0.1573 -0.9427
vn -0.9999 0.0017 -0.0099
vn -0.9999 -0.0091 -0.0090
vn -0.2300 -0.9561 -0.1818
vn -0.7406 -0.6718 0.0171
vn -0.0145 -0.9999 -0.0095
vn -0.6886 -0.7248 0.0222
vn -0.0813 -0.9855 -0.1488
vn -0.0062 -0.9999 -0.0113
vn -0.5032 0.8568 0.1129
vn -0.0244 0.1718 0.9848
vn -0.0197 0.9933 0.1140
vn 0.0144 0.3126 0.9498
vn 0.0337 0.9919 0.1226
vn 0.9966 0.0827 0.0009
vn 0.9897 0.1120 -0.0886
vn 0.6672 0.7388 0.0956
usemtl Shape.8263
s off
f 7//1 12//1 22//1
f 8//2 1//2 9//2
f 9//3 1//3 12//3
f 4//4 5//4 13//4
f 6//5 12//5 14//5
f 5//6 4//6 15//6
f 10//7 6//7 15//7
f 10//8 15//8 16//8
f 2//9 3//9 16//9
f 7//10 10//10 16//10
f 15//11 4//11 16//11
f 12//12 7//12 17//12
f 9//13 12//13 17//13
f 16//14 3//14 17//14
f 7//15 16//15 17//15
f 6//16 8//16 18//16
f 8//17 9//17 18//17
f 11//18 5//18 18//18
f 5//19 15//19 18//19
f 15//20 6//20 18//20
f 3//21 2//21 19//21
f 2//22 11//22 19//22
f 17//23 3//23 19//23
f 9//24 17//24 19//24
f 18//25 9//25 19//25
f 11//26 18//26 19//26
f 11//27 2//27 20//27
f 5//28 11//28 20//28
f 4//29 13//29 20//29
f 13//30 5//30 20//30
f 2//31 16//31 20//31
f 16//32 4//32 20//32
f 1//33 8//33 21//33
f 8//34 6//34 21//34
f 12//35 1//35 21//35
f 6//36 14//36 21//36
f 14//37 12//37 21//37
f 6//38 10//38 22//38
f 10//39 7//39 22//39
f 12//40 6//40 22//40
