# Blender v2.79 (sub 0) OBJ File: ''
# www.blender.org
mtllib 11405_link_1_0.mtl
o Shape_IndexedFaceSet_Shape_IndexedFaceSet.5437
v 0.680528 -0.250851 0.730712
v -0.697386 -0.255947 -0.257957
v -0.698180 -0.215007 -0.258531
v -0.724958 -0.214958 0.720631
v 0.708047 -0.204326 -0.238151
v 0.661415 -0.282006 -0.222592
v -0.705860 -0.282006 0.683733
v 0.687385 -0.204326 0.730410
v 0.671889 -0.282006 0.694106
v -0.700694 -0.282006 -0.222592
v -0.728875 -0.209884 -0.238047
v -0.739494 -0.209872 0.684076
v 0.668715 -0.255949 -0.258053
v 0.713038 -0.250869 0.690676
v -0.709637 -0.250854 0.730928
v -0.740084 -0.255977 -0.182214
v 0.712485 -0.250863 -0.218816
v -0.740201 -0.255980 0.684513
v 0.692551 -0.204326 -0.253612
v 0.713213 -0.204326 0.699292
v -0.701688 -0.209964 0.728896
v 0.697716 -0.271641 0.709665
v -0.741592 -0.220052 -0.219005
v -0.706960 -0.265988 0.715256
v 0.670065 -0.214979 -0.259029
v 0.688592 -0.271074 -0.208282
v 0.667321 -0.265964 0.719830
v -0.734139 -0.261088 -0.227889
v 0.712537 -0.214924 -0.208464
v 0.654442 -0.265870 -0.246320
v -0.741680 -0.230327 0.695721
v -0.728898 -0.266043 -0.163496
v 0.698373 -0.261041 -0.236921
v -0.683258 -0.275965 0.697625
v -0.724409 -0.255974 0.720257
v 0.710633 -0.255966 0.279221
v -0.734783 -0.209847 0.704952
v 0.701594 -0.250857 0.715711
v -0.714754 -0.220087 -0.254276
v 0.710773 -0.255969 0.668734
v -0.736269 -0.235467 -0.234406
vn -0.7152 0.1084 -0.6905
vn 0.0000 -1.0000 0.0000
vn 0.0002 0.0065 1.0000
vn 0.0000 1.0000 0.0000
vn -0.0065 0.9677 -0.2518
vn 1.0000 -0.0036 -0.0006
vn -0.0013 0.0499 0.9988
vn -0.3543 0.1150 0.9280
vn 0.3747 -0.9271 -0.0043
vn -0.6311 0.7757 -0.0073
vn -0.0004 -0.0140 -0.9999
vn -0.0001 -0.0238 -0.9997
vn -0.0003 0.4538 -0.8911
vn 0.2481 -0.0312 -0.9682
vn 0.3751 -0.9270 -0.0043
vn 0.6440 -0.7650 -0.0069
vn 0.0001 -0.5844 0.8115
vn 0.1286 -0.6510 0.7481
vn 0.0196 -0.8468 0.5316
vn -0.0017 -0.8487 0.5289
vn -0.0023 -0.7195 0.6944
vn -0.3670 -0.7321 -0.5738
vn -0.9818 -0.1544 -0.1105
vn 0.9900 0.0378 -0.1362
vn 0.9258 0.3779 -0.0051
vn 1.0000 -0.0012 -0.0007
vn -0.0008 -0.8050 -0.5933
vn 0.0000 -0.8269 -0.5623
vn -0.0000 -0.7636 -0.6457
vn 0.0889 -0.8113 -0.5778
vn -0.9983 -0.0575 -0.0001
vn -0.9943 0.1069 0.0011
vn -0.9991 -0.0425 -0.0006
vn -0.4971 -0.8677 -0.0028
vn -0.6040 -0.7970 0.0014
vn -0.6688 -0.7434 -0.0001
vn -0.5276 -0.8492 -0.0224
vn -0.6659 -0.7460 -0.0032
vn 0.2469 -0.8044 -0.5403
vn 0.8191 -0.1517 -0.5532
vn 0.6999 -0.1346 -0.7015
vn 0.5493 -0.1835 -0.8152
vn 0.4396 -0.8839 -0.1595
vn 0.6303 -0.7743 -0.0560
vn -0.0030 -0.9152 0.4029
vn -0.0393 -0.8914 0.4516
vn -0.0026 -0.8718 0.4898
vn -0.5820 -0.0152 0.8130
vn -0.5801 -0.7731 0.2564
vn -0.3617 -0.8362 0.4123
vn -0.2249 -0.7198 0.6567
vn -0.8255 -0.0162 0.5642
vn -0.8915 -0.2235 0.3939
vn 0.9211 -0.3892 -0.0006
vn 0.7055 -0.7087 -0.0046
vn -0.0050 1.0000 -0.0001
vn -0.0039 1.0000 -0.0000
vn -0.0039 1.0000 -0.0001
vn -0.0041 0.9999 0.0105
vn -0.3434 0.8081 0.4786
vn -0.8408 0.0398 0.5399
vn -0.9508 0.2236 0.2143
vn 0.5782 -0.0799 0.8120
vn 0.7691 0.0332 0.6383
vn 0.9065 -0.0801 0.4144
vn 0.5482 -0.3263 0.7700
vn 0.8733 -0.2791 0.3993
vn -0.2434 -0.0183 -0.9698
vn -0.3672 0.6095 -0.7027
vn 0.8237 -0.5652 0.0463
vn 0.9145 -0.4047 -0.0003
vn 0.7679 -0.6405 -0.0003
vn -0.8597 0.1805 -0.4778
vn -0.5933 -0.2444 -0.7670
vn -0.9702 -0.1323 -0.2029
vn -0.5829 -0.2015 -0.7872
usemtl Shape.5444
s off
f 11//1 39//1 41//1
f 7//2 6//2 9//2
f 6//2 7//2 10//2
f 1//3 8//3 15//3
f 8//4 5//4 19//4
f 3//5 11//5 19//5
f 5//4 8//4 20//4
f 14//6 17//6 20//6
f 15//7 8//7 21//7
f 4//8 15//8 21//8
f 9//9 6//9 22//9
f 12//10 11//10 23//10
f 2//11 3//11 25//11
f 13//12 2//12 25//12
f 3//13 19//13 25//13
f 19//14 13//14 25//14
f 22//15 6//15 26//15
f 17//16 22//16 26//16
f 1//17 15//17 27//17
f 22//18 1//18 27//18
f 9//19 22//19 27//19
f 24//20 9//20 27//20
f 15//21 24//21 27//21
f 2//22 10//22 28//22
f 16//23 23//23 28//23
f 17//24 5//24 29//24
f 5//25 20//25 29//25
f 20//26 17//26 29//26
f 10//27 2//27 30//27
f 6//28 10//28 30//28
f 2//29 13//29 30//29
f 13//30 6//30 30//30
f 16//31 18//31 31//31
f 12//32 23//32 31//32
f 23//33 16//33 31//33
f 10//34 7//34 32//34
f 7//35 18//35 32//35
f 18//36 16//36 32//36
f 28//37 10//37 32//37
f 16//38 28//38 32//38
f 6//39 13//39 33//39
f 5//40 17//40 33//40
f 19//41 5//41 33//41
f 13//42 19//42 33//42
f 26//43 6//43 33//43
f 17//44 26//44 33//44
f 7//45 9//45 34//45
f 24//46 7//46 34//46
f 9//47 24//47 34//47
f 15//48 4//48 35//48
f 18//49 7//49 35//49
f 7//50 24//50 35//50
f 24//51 15//51 35//51
f 4//52 31//52 35//52
f 31//53 18//53 35//53
f 17//54 14//54 36//54
f 22//55 17//55 36//55
f 11//56 12//56 37//56
f 8//57 19//57 37//57
f 19//58 11//58 37//58
f 21//59 8//59 37//59
f 4//60 21//60 37//60
f 31//61 4//61 37//61
f 12//62 31//62 37//62
f 8//63 1//63 38//63
f 20//64 8//64 38//64
f 14//65 20//65 38//65
f 1//66 22//66 38//66
f 22//67 14//67 38//67
f 3//68 2//68 39//68
f 11//69 3//69 39//69
f 14//70 22//70 40//70
f 36//71 14//71 40//71
f 22//72 36//72 40//72
f 23//73 11//73 41//73
f 2//74 28//74 41//74
f 28//75 23//75 41//75
f 39//76 2//76 41//76
