# Blender v2.79 (sub 0) OBJ File: ''
# www.blender.org
mtllib 10098_link_1_1.mtl
o Shape_IndexedFaceSet.001_Shape_IndexedFaceSet.1144
v -0.701490 0.238687 -0.222037
v -0.619075 0.632868 -0.231506
v -0.369319 0.589112 -0.163288
v 0.198170 0.249226 -0.262897
v 0.209843 0.625183 -0.250071
v 0.188930 0.253193 -0.194620
v -0.625050 0.560261 -0.262720
v -0.658812 0.235981 -0.178003
v 0.229112 0.554775 -0.178003
v -0.621448 0.249461 -0.262846
v -0.665029 0.595763 -0.188351
v 0.212265 0.616745 -0.193521
v 0.196616 0.560314 -0.262726
v -0.688182 0.590642 -0.250789
v -0.663673 0.299732 -0.173091
v -0.627602 0.625282 -0.250080
v -0.694796 0.239510 -0.246114
v -0.615177 0.616667 -0.193530
v -0.702403 0.567939 -0.231761
v 0.214053 0.626946 -0.212422
v -0.655667 0.594030 -0.183876
v -0.684425 0.562137 -0.197957
v -0.653859 0.294849 -0.173091
v 0.206933 0.605283 -0.184423
v -0.657710 0.245434 -0.259207
v -0.663673 0.353717 -0.173091
v -0.666441 0.625226 -0.231680
v -0.627824 0.611742 -0.253868
v -0.702818 0.238117 -0.236626
v -0.621730 0.627043 -0.212430
v -0.659140 0.563669 -0.259358
v -0.639182 0.235981 -0.178003
v -0.701533 0.562875 -0.241411
v -0.685231 0.239476 -0.197927
v 0.198872 0.611416 -0.253795
v -0.678272 0.308986 -0.255122
v -0.379134 0.584190 -0.163288
v -0.382063 0.610174 -0.184381
v -0.648522 0.609312 -0.188487
v -0.701189 0.514410 -0.222032
v -0.692946 0.595430 -0.231589
v -0.690992 0.575605 -0.250627
v -0.673344 0.566492 -0.188431
v -0.650489 0.627157 -0.245683
v -0.530273 0.249226 -0.262897
v -0.175134 0.627269 -0.212418
vn -0.0005 0.9564 0.2920
vn 0.9607 -0.0204 -0.2768
vn 0.9803 -0.1384 0.1407
vn 0.6815 0.0038 -0.7318
vn 0.0082 0.9988 -0.0477
vn 0.9819 0.1492 -0.1168
vn 0.9149 0.3127 0.2553
vn 0.0226 -0.0580 0.9981
vn -0.0397 -0.0798 0.9960
vn 0.0324 0.1400 0.9896
vn 0.0115 0.6184 0.7858
vn 0.5578 0.3411 0.7566
vn 0.0023 -0.9135 -0.4068
vn -0.0000 0.1695 -0.9855
vn 0.0000 0.2694 -0.9630
vn -0.1426 0.2688 -0.9526
vn -0.1136 -0.9923 0.0491
vn 0.0082 -0.9903 -0.1385
vn -0.9959 -0.0001 0.0907
vn -0.1544 0.9507 0.2688
vn -0.0982 -0.0007 -0.9952
vn -0.0997 -0.0009 -0.9950
vn -0.0805 0.1647 -0.9831
vn -0.1149 0.1863 -0.9758
vn 0.0220 -0.9979 0.0610
vn 0.0216 -0.0778 0.9967
vn 0.0000 -0.0832 0.9965
vn 0.0000 -0.9993 -0.0364
vn 0.0109 -0.9988 -0.0482
vn -0.7632 -0.0065 -0.6462
vn -0.9958 0.0026 -0.0911
vn -0.2961 -0.9270 0.2300
vn -0.6076 -0.1070 0.7870
vn -0.7552 0.0000 0.6555
vn -0.7596 0.0020 0.6504
vn 0.1244 0.1655 -0.9783
vn 0.0002 0.2610 -0.9653
vn 0.0002 0.1722 -0.9851
vn -0.3262 -0.0448 -0.9442
vn -0.1989 -0.0014 -0.9800
vn 0.0220 -0.0439 0.9988
vn -0.0687 0.1370 0.9882
vn 0.0215 -0.0543 0.9983
vn -0.0114 -0.0230 0.9997
vn -0.0344 0.0000 0.9994
vn -0.0725 0.0471 0.9963
vn 0.0030 0.7085 0.7057
vn -0.0082 0.7051 0.7090
vn -0.0001 0.8145 0.5802
vn -0.0236 0.6359 0.7714
vn -0.0627 0.3150 0.9470
vn -0.3302 0.4108 0.8498
vn -0.5541 0.6799 0.4804
vn -0.1116 0.8543 0.5077
vn -0.2145 0.8843 0.4148
vn -0.9916 0.0011 0.1297
vn -0.8761 0.0669 0.4774
vn -0.8291 0.0009 0.5591
vn -0.8226 0.0021 0.5686
vn -0.7987 0.3141 0.5133
vn -0.8264 0.2812 0.4878
vn -0.7055 0.6265 -0.3313
vn -0.6738 0.6007 0.4304
vn -0.8947 0.3276 -0.3037
vn -0.9154 0.3165 -0.2486
vn -0.2514 0.0366 -0.9672
vn -0.7373 0.1306 -0.6628
vn -0.6564 -0.0027 -0.7545
vn -0.4565 -0.0068 -0.8897
vn -0.2631 0.0037 -0.9648
vn -0.4111 0.1143 0.9044
vn -0.6821 0.1918 0.7057
vn -0.3261 0.0532 0.9438
vn -0.6572 0.0244 0.7533
vn 0.0002 0.9274 -0.3741
vn 0.0001 0.9201 -0.3918
vn -0.1571 0.2940 -0.9428
vn -0.1590 0.9863 -0.0451
vn -0.5486 0.6413 -0.5365
vn -0.0006 0.0004 -1.0000
vn 0.0000 0.0005 -1.0000
vn -0.0000 0.0006 -1.0000
vn 0.0000 -0.6974 -0.7167
vn -0.0021 -0.6599 -0.7514
vn -0.0001 0.8729 0.4879
vn 0.0008 0.9645 0.2642
vn 0.0007 0.8800 0.4750
vn -0.0005 0.8765 0.4814
usemtl Shape.1145
s off
f 2//1 30//1 46//1
f 4//2 5//2 9//2
f 6//3 4//3 9//3
f 5//4 4//4 13//4
f 5//5 2//5 20//5
f 9//6 5//6 20//6
f 12//7 9//7 20//7
f 6//8 9//8 23//8
f 15//9 8//9 23//9
f 3//10 9//10 24//10
f 12//11 3//11 24//11
f 9//12 12//12 24//12
f 4//13 17//13 25//13
f 13//14 7//14 28//14
f 16//15 5//15 28//15
f 14//16 16//16 28//16
f 8//17 1//17 29//17
f 17//18 4//18 29//18
f 1//19 19//19 29//19
f 2//20 27//20 30//20
f 7//21 10//21 31//21
f 10//22 25//22 31//22
f 28//23 7//23 31//23
f 14//24 28//24 31//24
f 4//25 6//25 32//25
f 6//26 23//26 32//26
f 23//27 8//27 32//27
f 8//28 29//28 32//28
f 29//29 4//29 32//29
f 17//30 29//30 33//30
f 29//31 19//31 33//31
f 1//32 8//32 34//32
f 8//33 15//33 34//33
f 15//34 26//34 34//34
f 26//35 22//35 34//35
f 5//36 13//36 35//36
f 28//37 5//37 35//37
f 13//38 28//38 35//38
f 25//39 17//39 36//39
f 31//40 25//40 36//40
f 9//41 3//41 37//41
f 3//42 21//42 37//42
f 23//43 9//43 37//43
f 15//44 23//44 37//44
f 26//45 15//45 37//45
f 21//46 26//46 37//46
f 3//47 12//47 38//47
f 18//48 3//48 38//48
f 12//49 18//49 38//49
f 3//50 18//50 39//50
f 21//51 3//51 39//51
f 11//52 21//52 39//52
f 27//53 11//53 39//53
f 18//54 30//54 39//54
f 30//55 27//55 39//55
f 19//56 1//56 40//56
f 22//57 19//57 40//57
f 1//58 34//58 40//58
f 34//59 22//59 40//59
f 22//60 11//60 41//60
f 19//61 22//61 41//61
f 27//62 14//62 41//62
f 11//63 27//63 41//63
f 14//64 33//64 41//64
f 33//65 19//65 41//65
f 14//66 31//66 42//66
f 33//67 14//67 42//67
f 17//68 33//68 42//68
f 36//69 17//69 42//69
f 31//70 36//70 42//70
f 21//71 11//71 43//71
f 11//72 22//72 43//72
f 26//73 21//73 43//73
f 22//74 26//74 43//74
f 2//75 5//75 44//75
f 5//76 16//76 44//76
f 16//77 14//77 44//77
f 27//78 2//78 44//78
f 14//79 27//79 44//79
f 10//80 7//80 45//80
f 13//81 4//81 45//81
f 7//82 13//82 45//82
f 4//83 25//83 45//83
f 25//84 10//84 45//84
f 18//85 12//85 46//85
f 20//86 2//86 46//86
f 12//87 20//87 46//87
f 30//88 18//88 46//88
