# Blender v2.79 (sub 0) OBJ File: ''
# www.blender.org
mtllib 102669_link_0_3.mtl
o Shape_IndexedFaceSet.003_Shape_IndexedFaceSet.5894
v 0.140626 -0.083506 0.643011
v 0.298212 -0.089414 0.355444
v 0.298212 -0.089414 0.343613
v 0.010575 -0.091385 0.471710
v 0.010575 -0.081535 0.319951
v 0.010575 -0.091385 0.706096
v 0.274562 -0.081535 0.331782
v 0.010575 -0.081535 0.682397
v 0.122888 -0.091385 0.319989
v 0.264707 -0.089413 0.524817
v 0.288358 -0.091385 0.319951
v 0.252882 -0.081535 0.491365
v 0.116975 -0.091385 0.684362
v 0.010575 -0.087443 0.319951
v 0.191812 -0.081535 0.593760
v 0.207580 -0.089413 0.615457
v 0.270620 -0.081535 0.319951
v 0.288358 -0.091385 0.379105
v 0.103179 -0.081535 0.660776
v 0.113033 -0.089413 0.686366
v 0.280474 -0.089413 0.481500
v 0.276533 -0.081535 0.365309
v 0.028313 -0.091385 0.426353
v 0.051964 -0.089413 0.700124
v 0.294271 -0.089414 0.319951
v 0.053934 -0.081535 0.674535
v 0.223347 -0.089413 0.593798
vn 0.2385 0.9555 0.1736
vn -1.0000 0.0000 0.0000
vn -0.0000 1.0000 0.0000
vn 0.0000 -1.0000 0.0000
vn 0.1961 -0.9806 0.0000
vn 0.0000 0.0000 -1.0000
vn -0.0002 -0.0162 -0.9999
vn 0.2382 0.9608 0.1421
vn 0.1755 0.9594 0.2208
vn 0.0339 -0.9992 0.0190
vn 0.1376 0.9736 0.1819
vn 0.1859 0.9508 0.2478
vn 0.5597 0.3604 0.7462
vn 0.1611 0.9590 0.2332
vn 0.3099 0.9441 0.1128
vn 0.2890 -0.9565 0.0407
vn 0.0669 -0.9975 0.0244
vn 0.3416 0.9399 0.0000
vn 0.3246 0.9457 -0.0191
vn 0.3615 0.9310 0.0509
vn 0.2922 0.9548 0.0548
vn -0.0663 -0.9975 -0.0259
vn -0.0350 -0.9989 -0.0312
vn 0.0114 0.9234 0.3838
vn 0.1260 -0.7768 0.6170
vn 0.1924 -0.4833 0.8540
vn 0.3410 0.9383 -0.0568
vn 0.3158 -0.9474 -0.0526
vn 0.3143 0.9435 -0.1047
vn 0.0746 0.9608 0.2671
vn 0.0540 0.9532 0.2976
vn 0.0672 0.9521 0.2983
vn 0.0378 -0.9990 0.0227
vn 0.2397 0.9602 0.1437
vn 0.0487 -0.9982 0.0354
usemtl Shape.5898
s off
f 15//1 16//1 27//1
f 5//2 4//2 6//2
f 7//3 5//3 8//3
f 5//2 6//2 8//2
f 6//4 4//4 9//4
f 3//5 2//5 11//5
f 6//4 9//4 11//4
f 7//3 8//3 12//3
f 6//4 11//4 13//4
f 4//2 5//2 14//2
f 5//6 11//6 14//6
f 11//7 9//7 14//7
f 12//3 8//3 15//3
f 10//8 12//8 15//8
f 15//9 1//9 16//9
f 5//3 7//3 17//3
f 11//6 5//6 17//6
f 11//5 2//5 18//5
f 10//10 13//10 18//10
f 13//4 11//4 18//4
f 1//11 15//11 19//11
f 15//3 8//3 19//3
f 16//12 1//12 20//12
f 13//13 16//13 20//13
f 1//14 19//14 20//14
f 12//15 10//15 21//15
f 18//16 2//16 21//16
f 10//17 18//17 21//17
f 2//18 3//18 22//18
f 3//19 7//19 22//19
f 7//3 12//3 22//3
f 21//20 2//20 22//20
f 12//21 21//21 22//21
f 9//4 4//4 23//4
f 4//22 14//22 23//22
f 14//23 9//23 23//23
f 8//24 6//24 24//24
f 6//25 13//25 24//25
f 13//26 20//26 24//26
f 7//27 3//27 25//27
f 3//28 11//28 25//28
f 17//29 7//29 25//29
f 11//6 17//6 25//6
f 19//3 8//3 26//3
f 20//30 19//30 26//30
f 8//31 24//31 26//31
f 24//32 20//32 26//32
f 13//33 10//33 27//33
f 10//34 15//34 27//34
f 16//35 13//35 27//35
