# Blender v2.79 (sub 0) OBJ File: ''
# www.blender.org
mtllib 102669_link_0_17.mtl
o Shape_IndexedFaceSet.017_Shape_IndexedFaceSet.5908
v -0.194306 -0.095326 0.654859
v -0.099752 -0.099266 0.715935
v -0.099752 -0.105175 0.715935
v -0.196273 -0.095326 0.589871
v -0.198239 -0.105175 0.664707
v -0.099752 -0.093356 0.664707
v -0.099752 -0.105175 0.698201
v -0.133256 -0.097297 0.708049
v -0.196273 -0.105175 0.637162
v -0.119469 -0.093356 0.700163
v -0.198239 -0.093356 0.589871
v -0.133256 -0.105175 0.711985
v -0.198239 -0.093356 0.643061
v -0.198239 -0.099266 0.664707
v -0.101738 -0.095326 0.662745
v -0.099752 -0.093356 0.702137
v -0.137200 -0.101234 0.710023
vn -0.5961 0.0000 0.8029
vn 1.0000 0.0000 0.0000
vn 0.0000 -1.0000 0.0000
vn 0.1279 -0.9710 -0.2022
vn -0.1542 0.9649 0.2127
vn 0.5179 0.5169 -0.6816
vn -0.7003 -0.6989 -0.1455
vn -0.9093 -0.4110 -0.0649
vn 0.0000 1.0000 0.0000
vn -0.1171 0.0000 0.9931
vn -0.1540 0.9650 0.2125
vn -1.0000 0.0000 0.0000
vn -0.2189 0.9329 0.2858
vn -0.2934 0.9222 0.2518
vn 0.6016 0.1707 -0.7804
vn 0.2101 -0.9389 -0.2726
vn 0.7843 -0.5850 -0.2064
vn -0.0386 0.9185 0.3934
vn -0.0392 0.9195 0.3911
vn -0.1576 0.5642 0.8104
vn -0.1641 0.3031 0.9387
vn -0.5784 -0.1830 0.7950
vn -0.4096 0.7023 0.5822
usemtl Shape.5912
s off
f 14//1 5//1 17//1
f 2//2 3//2 6//2
f 3//3 5//3 7//3
f 6//2 3//2 7//2
f 4//4 7//4 9//4
f 7//3 5//3 9//3
f 1//5 8//5 10//5
f 6//6 4//6 11//6
f 4//7 9//7 11//7
f 9//8 5//8 11//8
f 10//9 6//9 11//9
f 3//10 2//10 12//10
f 5//3 3//3 12//3
f 1//11 10//11 13//11
f 11//12 5//12 13//12
f 10//9 11//9 13//9
f 8//13 1//13 14//13
f 1//14 13//14 14//14
f 13//12 5//12 14//12
f 4//15 6//15 15//15
f 7//16 4//16 15//16
f 6//17 7//17 15//17
f 2//2 6//2 16//2
f 8//18 2//18 16//18
f 6//9 10//9 16//9
f 10//19 8//19 16//19
f 2//20 8//20 17//20
f 12//21 2//21 17//21
f 5//22 12//22 17//22
f 8//23 14//23 17//23
