# SSTK version 0.8.0
# 15
mtllib original-15.mtl
o mesh43/mesh43-geometry#mesh43-geometry
v -0.070736 -0.193776 0.005882
v 0.123559 -0.193776 0.022868
v 0.065985 -0.193776 0.005882
v -0.128309 -0.193776 0.022868
v 0.167915 -0.193776 0.063967
v -0.172665 -0.193776 0.063967
v 0.201976 -0.193776 0.123032
v -0.206727 -0.193776 0.123032
v 0.223173 -0.193776 0.202173
v -0.227924 -0.193776 0.202173
v 0.228955 -0.193776 0.284107
v -0.233706 -0.193776 0.284107
v 0.211811 -0.193776 0.397856
v -0.216561 -0.193776 0.397856
v 0.179629 -0.193776 0.502693
v -0.184380 -0.193776 0.502693
v 0.146751 -0.193776 0.568951
v -0.151501 -0.193776 0.568951
v 0.105038 -0.193776 0.617781
v -0.109788 -0.193776 0.617781
v 0.068025 -0.193776 0.639468
v -0.072775 -0.193776 0.639468
v -0.002375 -0.193776 0.647500
vn 0 1 0
vn 0 -1 0
usemtl material_0_0
f 1//1 2//1 3//1
f 2//1 1//1 4//1
f 3//2 2//2 1//2
f 4//2 1//2 2//2
f 2//1 4//1 5//1
f 5//2 4//2 2//2
f 5//1 4//1 6//1
f 6//2 4//2 5//2
f 5//1 6//1 7//1
f 7//2 6//2 5//2
f 7//1 6//1 8//1
f 8//2 6//2 7//2
f 7//1 8//1 9//1
f 9//2 8//2 7//2
f 9//1 8//1 10//1
f 10//2 8//2 9//2
f 9//1 10//1 11//1
f 11//2 10//2 9//2
f 11//1 10//1 12//1
f 12//2 10//2 11//2
f 11//1 12//1 13//1
f 13//2 12//2 11//2
f 13//1 12//1 14//1
f 14//2 12//2 13//2
f 13//1 14//1 15//1
f 15//2 14//2 13//2
f 15//1 14//1 16//1
f 16//2 14//2 15//2
f 15//1 16//1 17//1
f 17//2 16//2 15//2
f 17//1 16//1 18//1
f 18//2 16//2 17//2
f 17//1 18//1 19//1
f 19//2 18//2 17//2
f 19//1 18//1 20//1
f 20//2 18//2 19//2
f 19//1 20//1 21//1
f 21//2 20//2 19//2
f 21//1 20//1 22//1
f 22//2 20//2 21//2
f 21//1 22//1 23//1
f 23//2 22//2 21//2
