# Blender v2.79 (sub 0) OBJ File: ''
# www.blender.org
mtllib 102697_link_3_2.mtl
o Shape_IndexedFaceSet.002_Shape_IndexedFaceSet.16311
v 0.311071 0.068285 0.089135
v -0.006959 0.047615 -0.076334
v -0.006959 0.055369 0.078778
v -0.006959 0.088979 -0.065977
v 0.251622 0.042434 0.003825
v 0.305914 0.088979 0.112396
v 0.155948 0.083799 -0.058242
v 0.143039 0.042434 0.112396
v -0.006959 0.076049 0.050329
v 0.305914 0.042434 0.112396
v 0.251622 0.086387 0.001241
v -0.006959 0.042434 0.076193
v 0.161105 0.050193 -0.060826
v 0.254185 0.088979 0.112396
v -0.006959 0.042434 -0.068580
v -0.006959 0.088979 -0.019436
v 0.161105 0.073461 0.112396
v 0.060273 0.076049 -0.076334
v 0.259374 0.052781 -0.001344
v 0.065462 0.088979 -0.065977
v 0.062867 0.045027 -0.073749
v -0.006959 0.070873 0.065855
v 0.313665 0.050193 0.096888
v 0.259374 0.070873 -0.001344
v 0.272282 0.088979 0.040009
v 0.068024 0.042434 -0.068580
v -0.006959 0.070873 -0.078899
v 0.153385 0.073461 -0.063411
v 0.300725 0.086387 0.083947
v 0.057710 0.083799 -0.073749
v 0.151105 0.044338 -0.049735
v 0.151093 0.087149 -0.047565
v 0.316228 0.050193 0.109811
v 0.267125 0.081220 0.016748
v 0.153385 0.070873 0.112396
v 0.292974 0.042434 0.073608
v 0.259374 0.047615 0.001241
v 0.303319 0.055369 0.073608
v 0.063483 0.060711 -0.075646
v 0.311071 0.083799 0.107226
v -0.006959 0.060536 0.076193
v 0.246433 0.081220 -0.006513
v 0.163699 0.073461 -0.058242
v 0.241276 0.042434 -0.003928
v -0.006959 0.078632 -0.076334
v -0.006959 0.073461 0.060686
v 0.122347 0.073461 -0.068580
v 0.261936 0.068285 0.001241
v 0.000824 0.088979 -0.068580
vn -0.0168 0.6077 -0.7940
vn -1.0000 -0.0000 -0.0000
vn 0.0000 -1.0000 0.0000
vn 0.0000 0.0000 1.0000
vn -0.2303 -0.1907 0.9542
vn -0.0000 1.0000 0.0000
vn -0.0916 0.9791 0.1815
vn -0.0102 -0.8314 -0.5555
vn -0.1448 0.8683 0.4745
vn 0.5178 0.0000 -0.8555
vn 0.1143 -0.8376 -0.5342
vn 0.0000 -0.8938 -0.4484
vn 0.3041 0.9421 -0.1413
vn 0.0975 0.7806 -0.6174
vn 0.1085 -0.9162 -0.3858
vn 0.1259 0.9615 -0.2444
vn 0.0778 0.9608 -0.2661
vn 0.0367 0.9968 -0.0716
vn 0.0537 0.9940 -0.0951
vn 0.2431 0.0000 0.9700
vn 0.9793 0.0572 -0.1942
vn 0.5787 -0.8074 -0.1148
vn 0.7033 0.4439 -0.5552
vn 0.6047 0.7056 -0.3694
vn 0.8279 0.3469 -0.4406
vn 0.6304 0.6836 -0.3678
vn -0.2117 0.0770 0.9743
vn 0.5073 -0.8450 -0.1692
vn 0.6468 -0.6782 -0.3489
vn 0.4840 -0.3916 -0.7826
vn 0.4682 -0.8389 -0.2774
vn 0.8406 -0.2424 -0.4845
vn 0.9089 -0.0473 -0.4144
vn 0.8028 -0.3968 -0.4450
vn 0.1358 -0.1242 -0.9829
vn 0.0322 -0.1213 -0.9921
vn 0.0301 -0.1096 -0.9935
vn 0.0409 -0.0362 -0.9985
vn 0.8558 0.3926 -0.3367
vn 0.6010 0.7786 -0.1806
vn 0.9825 0.1414 -0.1213
vn 0.7763 0.1659 0.6081
vn -0.2024 0.6925 0.6924
vn -0.2249 0.4360 0.8714
vn -0.2099 0.6262 0.7509
vn 0.4057 0.6117 -0.6791
vn 0.6037 0.4151 -0.6806
vn 0.5115 0.0383 -0.8584
vn 0.4247 0.3184 -0.8475
vn 0.4475 0.0493 -0.8929
vn 0.4718 0.3537 -0.8076
vn 0.5038 0.2117 -0.8375
vn 0.1567 -0.9247 -0.3469
vn 0.0576 -0.9863 -0.1545
vn 0.3663 -0.7918 -0.4888
vn 0.3745 -0.6881 -0.6215
vn 0.0121 0.3139 -0.9494
vn 0.0123 0.3200 -0.9473
vn -0.1051 0.9648 0.2411
vn -0.1404 0.8853 0.4433
vn 0.1497 0.4122 -0.8987
vn 0.1640 -0.0550 -0.9849
vn 0.1405 0.4335 -0.8902
vn 0.1305 0.3523 -0.9268
vn 0.1392 -0.0965 -0.9855
vn 0.1232 -0.0187 -0.9922
vn 0.7103 0.0000 -0.7039
vn 0.8498 0.2286 -0.4750
vn 0.8088 0.2893 -0.5120
vn 0.8621 -0.0585 -0.5034
vn 0.8712 0.0626 -0.4870
vn 0.0230 0.8212 -0.5702
vn -0.2300 0.6885 -0.6878
usemtl Shape.16321
s off
f 30//1 45//1 49//1
f 2//2 3//2 4//2
f 4//2 3//2 9//2
f 8//3 5//3 10//3
f 6//4 8//4 10//4
f 3//2 2//2 12//2
f 8//5 3//5 12//5
f 5//3 8//3 12//3
f 6//6 4//6 14//6
f 8//4 6//4 14//4
f 12//2 2//2 15//2
f 5//3 12//3 15//3
f 4//2 9//2 16//2
f 14//6 4//6 16//6
f 9//7 14//7 16//7
f 8//4 14//4 17//4
f 4//6 6//6 20//6
f 15//8 2//8 21//8
f 9//2 3//2 22//2
f 17//9 14//9 22//9
f 19//10 13//10 24//10
f 20//6 6//6 25//6
f 5//3 15//3 26//3
f 21//11 13//11 26//11
f 15//12 21//12 26//12
f 2//2 4//2 27//2
f 25//13 6//13 29//13
f 20//14 7//14 30//14
f 26//15 13//15 31//15
f 11//16 7//16 32//16
f 7//17 20//17 32//17
f 20//18 25//18 32//18
f 25//19 11//19 32//19
f 6//20 10//20 33//20
f 23//21 1//21 33//21
f 10//22 23//22 33//22
f 24//23 11//23 34//23
f 11//24 25//24 34//24
f 29//25 1//25 34//25
f 25//26 29//26 34//26
f 3//27 8//27 35//27
f 8//4 17//4 35//4
f 10//3 5//3 36//3
f 23//28 10//28 36//28
f 23//29 36//29 37//29
f 13//30 19//30 37//30
f 36//31 5//31 37//31
f 37//32 19//32 38//32
f 1//33 23//33 38//33
f 23//34 37//34 38//34
f 13//35 21//35 39//35
f 21//36 2//36 39//36
f 2//37 27//37 39//37
f 27//38 18//38 39//38
f 1//39 29//39 40//39
f 29//40 6//40 40//40
f 33//41 1//41 40//41
f 6//42 33//42 40//42
f 22//2 3//2 41//2
f 17//43 22//43 41//43
f 3//44 35//44 41//44
f 35//45 17//45 41//45
f 7//46 11//46 42//46
f 11//47 24//47 42//47
f 24//48 13//48 43//48
f 28//49 7//49 43//49
f 13//50 28//50 43//50
f 7//51 42//51 43//51
f 42//52 24//52 43//52
f 5//3 26//3 44//3
f 31//53 13//53 44//53
f 26//54 31//54 44//54
f 37//55 5//55 44//55
f 13//56 37//56 44//56
f 27//2 4//2 45//2
f 18//57 27//57 45//57
f 30//58 18//58 45//58
f 14//59 9//59 46//59
f 9//2 22//2 46//2
f 22//60 14//60 46//60
f 7//61 28//61 47//61
f 28//62 13//62 47//62
f 30//63 7//63 47//63
f 18//64 30//64 47//64
f 13//65 39//65 47//65
f 39//66 18//66 47//66
f 19//67 24//67 48//67
f 34//68 1//68 48//68
f 24//69 34//69 48//69
f 38//70 19//70 48//70
f 1//71 38//71 48//71
f 4//6 20//6 49//6
f 20//72 30//72 49//72
f 45//73 4//73 49//73
