# Blender v2.79 (sub 0) OBJ File: ''
# www.blender.org
mtllib 102697_link_1_7.mtl
o Shape_IndexedFaceSet.007_Shape_IndexedFaceSet.14054
v -0.007853 0.714034 -0.237692
v -0.274096 0.716323 -0.197742
v -0.274096 0.635794 -0.233824
v -0.001949 0.610797 -0.183853
v -0.271834 0.715446 -0.238733
v -0.001949 0.669107 -0.239379
v -0.001949 0.691326 -0.172749
v -0.274096 0.610797 -0.172749
v -0.274096 0.699641 -0.178305
v -0.004746 0.619143 -0.161630
v -0.001949 0.638573 -0.225490
v -0.262961 0.635794 -0.164416
v -0.274096 0.610797 -0.192186
v -0.001949 0.713534 -0.186631
v -0.274096 0.669107 -0.239379
v -0.215756 0.699641 -0.175527
v -0.007517 0.635794 -0.161630
v -0.229635 0.710755 -0.183853
v -0.271299 0.621921 -0.164416
v -0.001949 0.613585 -0.167194
v -0.001949 0.705198 -0.178305
v -0.271299 0.641351 -0.236601
v -0.001949 0.613585 -0.189409
v -0.271299 0.616364 -0.203275
v -0.224094 0.610797 -0.169971
v -0.001949 0.635794 -0.222712
v -0.251853 0.716323 -0.194964
v -0.240744 0.669107 -0.169971
v -0.254650 0.619143 -0.164416
v -0.274096 0.630237 -0.164416
v -0.274096 0.710755 -0.186631
vn -0.0310 0.8674 0.4967
vn 0.0041 0.0381 -0.9993
vn 1.0000 0.0000 0.0000
vn -1.0000 0.0000 0.0000
vn 0.0000 -1.0000 0.0000
vn 0.9846 0.1336 -0.1125
vn -0.9972 0.0495 -0.0561
vn 0.0000 0.0139 -0.9999
vn 0.5974 0.0994 0.7957
vn -0.0051 0.1968 0.9804
vn -0.0392 0.5673 0.8226
vn 0.9049 0.0303 0.4246
vn 0.0024 0.3718 0.9283
vn 0.0000 0.7067 0.7075
vn -0.0050 0.5955 0.8033
vn 0.0319 -0.4596 -0.8876
vn 0.0333 -0.4138 -0.9098
vn -0.5465 -0.1377 -0.8261
vn 0.0000 -0.0996 -0.9950
vn -0.3169 -0.8132 -0.4882
vn 0.0137 -0.8950 -0.4459
vn 0.0190 -0.8429 -0.5378
vn 0.0139 -0.8937 -0.4485
vn 0.0103 -0.9862 0.1650
vn 0.0000 -0.7075 0.7067
vn 0.0289 -0.7067 -0.7069
vn 0.0226 -0.8318 -0.5547
vn 0.0054 0.9997 -0.0225
vn 0.0027 0.9998 -0.0212
vn 0.0109 0.9999 0.0085
vn -0.0053 0.8897 0.4565
vn -0.0590 0.2024 0.9775
vn -0.0464 0.2155 0.9754
vn -0.0107 0.1714 0.9851
vn -0.0086 0.1858 0.9825
vn -0.0969 -0.5810 0.8081
vn -0.0111 -0.0667 0.9977
vn -0.0419 -0.6554 0.7542
vn -0.0091 -0.5769 0.8167
vn -0.0975 0.1953 0.9759
vn -0.0104 -0.0017 0.9999
vn -0.0109 0.0218 0.9997
vn -0.7605 -0.2558 0.5968
vn -0.0105 -0.0035 0.9999
vn -0.0499 0.5988 0.7993
vn -0.0559 0.8926 0.4473
usemtl Shape.14062
s off
f 18//1 27//1 31//1
f 5//2 1//2 6//2
f 4//3 6//3 7//3
f 2//4 3//4 8//4
f 2//4 8//4 9//4
f 6//3 4//3 11//3
f 8//4 3//4 13//4
f 4//5 8//5 13//5
f 6//6 1//6 14//6
f 7//3 6//3 14//3
f 3//4 2//4 15//4
f 2//7 5//7 15//7
f 5//8 6//8 15//8
f 10//9 7//9 17//9
f 7//10 16//10 17//10
f 9//11 16//11 18//11
f 4//3 7//3 20//3
f 7//12 10//12 20//12
f 7//3 14//3 21//3
f 16//13 7//13 21//13
f 14//14 18//14 21//14
f 18//15 16//15 21//15
f 11//16 3//16 22//16
f 6//17 11//17 22//17
f 3//18 15//18 22//18
f 15//19 6//19 22//19
f 11//3 4//3 23//3
f 13//20 3//20 24//20
f 4//21 13//21 24//21
f 3//22 23//22 24//22
f 23//23 4//23 24//23
f 8//5 4//5 25//5
f 4//24 20//24 25//24
f 20//25 10//25 25//25
f 3//26 11//26 26//26
f 23//27 3//27 26//27
f 11//3 23//3 26//3
f 1//28 5//28 27//28
f 5//29 2//29 27//29
f 14//30 1//30 27//30
f 18//31 14//31 27//31
f 9//32 12//32 28//32
f 16//33 9//33 28//33
f 12//34 17//34 28//34
f 17//35 16//35 28//35
f 19//36 8//36 29//36
f 10//37 19//37 29//37
f 8//38 25//38 29//38
f 25//39 10//39 29//39
f 9//4 8//4 30//4
f 12//40 9//40 30//40
f 10//41 17//41 30//41
f 17//42 12//42 30//42
f 8//43 19//43 30//43
f 19//44 10//44 30//44
f 2//4 9//4 31//4
f 9//45 18//45 31//45
f 27//46 2//46 31//46
