# Blender v2.79 (sub 0) OBJ File: ''
# www.blender.org
mtllib 102697_link_4_18.mtl
o Shape_IndexedFaceSet.018_Shape_IndexedFaceSet.7504
v -0.076686 0.125411 -0.567035
v -0.435460 0.376741 -0.509427
v -0.437486 0.376701 -0.502098
v -0.083159 0.626102 -0.530239
v -0.372091 0.612785 -0.567035
v -0.094402 0.149858 -0.517111
v -0.372091 0.125411 -0.552252
v -0.386876 0.627551 -0.500569
v -0.326129 0.108844 -0.497345
v -0.076686 0.620168 -0.567035
v -0.094813 0.596613 -0.517152
v -0.327773 0.125411 -0.567035
v -0.439222 0.611388 -0.501785
v -0.392851 0.128093 -0.500919
v -0.418047 0.376817 -0.537197
v -0.404414 0.627063 -0.537367
v -0.394250 0.612785 -0.559637
v -0.357342 0.221439 -0.567035
v -0.429607 0.608037 -0.523285
v -0.413652 0.238295 -0.516495
v -0.372091 0.612785 -0.500569
vn 0.0604 0.0119 0.9981
vn 0.9403 -0.0128 0.3400
vn 0.1923 -0.8527 0.4858
vn 0.9849 0.0000 0.1733
vn 0.0000 0.0000 -1.0000
vn 0.7460 0.0007 0.6660
vn 0.0920 0.3733 0.9231
vn 0.0850 0.0002 0.9964
vn 0.0000 -0.9729 -0.2313
vn -0.0764 -0.9705 -0.2289
vn -0.9638 -0.0068 -0.2665
vn -0.0243 0.0034 0.9997
vn -0.0467 -0.0017 0.9989
vn -0.0550 -0.0051 0.9985
vn -0.2737 -0.9599 -0.0605
vn 0.0033 0.9999 -0.0148
vn 0.0065 0.9874 -0.1581
vn -0.0223 0.8912 -0.4531
vn -0.2953 0.9468 0.1282
vn -0.1974 0.7818 -0.5914
vn -0.3149 -0.0970 -0.9441
vn -0.5359 -0.0475 -0.8430
vn -0.3167 -0.0119 -0.9485
vn -0.5041 -0.0312 -0.8631
vn -0.9129 -0.0013 -0.4081
vn -0.8472 -0.0104 -0.5312
vn -0.6842 0.6092 -0.4009
vn -0.6695 0.4478 -0.5927
vn -0.7172 0.0061 -0.6968
vn -0.9546 -0.1369 -0.2646
vn -0.9822 -0.1760 0.0662
vn -0.9080 -0.2216 -0.3556
vn -0.8423 -0.1057 -0.5285
vn -0.8057 -0.1125 -0.5815
vn 0.0070 0.0070 1.0000
vn 0.0633 0.0633 0.9960
usemtl Shape.7510
s off
f 9//1 11//1 21//1
f 1//2 4//2 6//2
f 1//3 6//3 9//3
f 4//4 1//4 10//4
f 1//5 5//5 10//5
f 6//6 4//6 11//6
f 4//7 8//7 11//7
f 9//8 6//8 11//8
f 5//5 1//5 12//5
f 1//9 9//9 12//9
f 9//10 7//10 12//10
f 2//11 3//11 13//11
f 9//12 8//12 13//12
f 3//13 9//13 13//13
f 9//14 3//14 14//14
f 7//15 9//15 14//15
f 8//16 4//16 16//16
f 4//17 10//17 16//17
f 10//18 5//18 16//18
f 13//19 8//19 16//19
f 16//20 5//20 17//20
f 5//5 12//5 18//5
f 12//21 7//21 18//21
f 7//22 15//22 18//22
f 17//23 5//23 18//23
f 15//24 17//24 18//24
f 2//25 13//25 19//25
f 15//26 2//26 19//26
f 13//27 16//27 19//27
f 16//28 17//28 19//28
f 17//29 15//29 19//29
f 3//30 2//30 20//30
f 14//31 3//31 20//31
f 7//32 14//32 20//32
f 2//33 15//33 20//33
f 15//34 7//34 20//34
f 8//35 9//35 21//35
f 11//36 8//36 21//36
