# Blender v2.79 (sub 0) OBJ File: ''
# www.blender.org
mtllib 102697_link_4_9.mtl
o Shape_IndexedFaceSet.009_Shape_IndexedFaceSet.7495
v 0.137541 -0.162715 0.725588
v 0.314801 -0.162715 0.356298
v 0.314801 -0.170125 0.356298
v 0.093205 -0.317833 0.319352
v 0.097920 -0.180161 0.328469
v 0.107306 -0.332596 0.612684
v 0.187826 -0.325339 0.298621
v 0.093205 -0.170125 0.747773
v 0.248296 -0.207052 0.540943
v 0.211356 -0.162715 0.319352
v 0.178166 -0.330756 0.404305
v 0.218753 -0.170125 0.644316
v 0.285236 -0.229205 0.319352
v 0.093205 -0.317833 0.636935
v 0.270465 -0.221825 0.437612
v 0.100601 -0.162715 0.747773
v 0.314801 -0.177489 0.319352
v 0.255671 -0.162715 0.577805
v 0.144777 -0.329177 0.533562
v 0.300008 -0.170125 0.444993
v 0.167106 -0.177489 0.696023
vn 0.4474 -0.5368 0.7153
vn -0.2080 0.0717 -0.9755
vn -0.9993 0.0350 -0.0121
vn -0.0000 1.0000 0.0000
vn -0.1007 0.1401 -0.9850
vn -0.1062 -0.9933 -0.0449
vn -0.0919 -0.9940 -0.0593
vn 0.7142 -0.5692 0.4074
vn 0.6992 -0.7144 0.0273
vn -0.7231 -0.6907 0.0000
vn -1.0000 -0.0000 0.0000
vn 0.8485 -0.5108 0.1379
vn 0.7357 -0.6641 0.1333
vn 0.4579 -0.4571 0.7625
vn -0.7076 0.7062 -0.0249
vn -0.1550 0.9871 -0.0401
vn 1.0000 0.0000 0.0000
vn 0.1315 0.9205 -0.3681
vn 0.0177 0.1239 -0.9921
vn 0.8639 -0.4939 0.0984
vn 0.4256 -0.2433 -0.8716
vn 0.3939 0.8636 0.3148
vn 0.7978 -0.4584 0.3917
vn 0.7154 -0.6253 0.3118
vn 0.2486 -0.9656 0.0760
vn 0.7316 -0.6351 0.2478
vn 0.7185 -0.6680 0.1938
vn 0.9864 0.0000 0.1645
vn 0.8506 -0.5063 0.1419
vn 0.8250 -0.5071 0.2495
vn 0.6314 0.7569 0.1685
vn 0.8619 -0.4012 0.3101
vn 0.4477 -0.5362 0.7156
vn 0.7074 0.0013 0.7068
vn 0.6321 -0.5415 0.5543
vn 0.5310 -0.5507 0.6440
usemtl Shape.7501
s off
f 8//1 14//1 21//1
f 4//2 5//2 7//2
f 5//3 4//3 8//3
f 1//4 2//4 10//4
f 7//5 5//5 10//5
f 6//6 4//6 11//6
f 4//7 7//7 11//7
f 6//8 9//8 12//8
f 11//9 7//9 13//9
f 4//10 6//10 14//10
f 8//11 4//11 14//11
f 13//12 3//12 15//12
f 11//13 13//13 15//13
f 8//14 1//14 16//14
f 5//15 8//15 16//15
f 1//4 10//4 16//4
f 10//16 5//16 16//16
f 2//17 3//17 17//17
f 10//18 2//18 17//18
f 7//19 10//19 17//19
f 3//20 13//20 17//20
f 13//21 7//21 17//21
f 2//4 1//4 18//4
f 1//22 12//22 18//22
f 12//23 9//23 18//23
f 9//24 6//24 19//24
f 6//25 11//25 19//25
f 15//26 9//26 19//26
f 11//27 15//27 19//27
f 3//28 2//28 20//28
f 15//29 3//29 20//29
f 9//30 15//30 20//30
f 2//31 18//31 20//31
f 18//32 9//32 20//32
f 1//33 8//33 21//33
f 12//34 1//34 21//34
f 6//35 12//35 21//35
f 14//36 6//36 21//36
