# Blender v2.79 (sub 0) OBJ File: ''
# www.blender.org
mtllib 102697_link_4_27.mtl
o Shape_IndexedFaceSet.027_Shape_IndexedFaceSet.7513
v -0.446014 0.420823 -0.441449
v -0.386939 0.620230 -0.500537
v -0.342602 0.420823 -0.301139
v -0.386858 0.419641 -0.501638
v -0.440894 0.611089 -0.490663
v -0.401678 0.420823 -0.308537
v -0.423836 0.612870 -0.360226
v -0.342602 0.620230 -0.315915
v -0.441412 0.430358 -0.491662
v -0.446014 0.620230 -0.448828
v -0.394308 0.627611 -0.301139
v -0.428597 0.627409 -0.493439
v -0.350002 0.635034 -0.315915
v -0.342602 0.627611 -0.301139
v -0.342602 0.420823 -0.315915
v -0.416456 0.420823 -0.338071
vn -0.8942 0.0159 0.4474
vn -0.0008 -1.0000 0.0061
vn 0.9724 0.0017 -0.2335
vn -0.2242 -0.9535 -0.2016
vn -0.9925 0.0035 -0.1222
vn -0.9699 0.0090 0.2435
vn -0.9958 -0.0034 -0.0919
vn -0.7761 0.5821 0.2426
vn -0.1242 -0.0311 0.9918
vn -0.1671 0.0053 -0.9859
vn -0.1794 0.0028 -0.9838
vn -0.2278 0.0060 -0.9737
vn -0.7967 0.5628 -0.2205
vn -0.2736 0.9607 0.0478
vn -0.1565 0.9873 0.0269
vn 0.1508 0.9825 -0.1090
vn 0.8688 0.4485 -0.2098
vn 0.8809 0.4235 -0.2115
vn 1.0000 0.0000 0.0000
vn 0.0000 0.0000 1.0000
vn 0.0000 0.8936 0.4489
vn 0.0267 -0.9996 0.0000
vn 0.9728 0.0000 -0.2318
vn -0.0155 -0.9999 0.0044
vn -0.0106 -0.9999 0.0053
vn -0.9615 -0.0052 0.2749
vn -0.8961 0.0167 0.4436
usemtl Shape.7519
s off
f 6//1 11//1 16//1
f 4//2 3//2 6//2
f 4//3 2//3 8//3
f 4//4 1//4 9//4
f 5//5 9//5 10//5
f 1//6 7//6 10//6
f 9//7 1//7 10//7
f 10//8 7//8 11//8
f 6//9 3//9 11//9
f 2//10 4//10 12//10
f 4//11 9//11 12//11
f 9//12 5//12 12//12
f 5//13 10//13 12//13
f 10//14 11//14 12//14
f 12//15 11//15 13//15
f 2//16 12//16 13//16
f 2//17 13//17 14//17
f 8//18 2//18 14//18
f 3//19 8//19 14//19
f 11//20 3//20 14//20
f 13//21 11//21 14//21
f 3//22 4//22 15//22
f 8//19 3//19 15//19
f 4//23 8//23 15//23
f 1//24 4//24 16//24
f 4//25 6//25 16//25
f 7//26 1//26 16//26
f 11//27 7//27 16//27
