# Blender v2.79 (sub 0) OBJ File: ''
# www.blender.org
mtllib 102697_link_4_30.mtl
o Shape_IndexedFaceSet.030_Shape_IndexedFaceSet.7516
v 0.048885 0.642420 -0.249419
v -0.215341 0.128648 -0.278725
v 0.047248 0.128595 -0.278728
v -0.227699 0.104618 -0.240545
v -0.207942 0.617866 -0.277697
v 0.048885 0.125412 -0.242030
v -0.217005 0.642420 -0.249419
v 0.039861 0.617938 -0.277702
v 0.048885 0.465091 -0.242030
v -0.217005 0.465091 -0.242030
v -0.212095 0.632873 -0.271158
v 0.043993 0.632907 -0.271160
vn -0.0001 0.9156 -0.4021
vn -0.0002 -0.8463 -0.5327
vn 0.9990 -0.0006 -0.0446
vn 0.0742 -0.9932 -0.0895
vn -0.0000 0.0021 -1.0000
vn 1.0000 0.0000 -0.0000
vn 0.0054 0.0000 1.0000
vn 0.0000 0.0416 0.9991
vn -0.7844 0.0258 0.6197
vn 0.0000 0.0041 1.0000
vn -0.9533 0.0107 -0.3018
vn -0.8295 0.0137 -0.5583
vn -0.9738 0.0156 -0.2268
vn -0.0001 0.3994 -0.9168
vn -0.0001 0.4005 -0.9163
vn 0.9746 0.0096 -0.2235
vn 0.0000 0.9161 -0.4009
vn 0.8309 0.0137 -0.5562
usemtl Shape.7522
s off
f 11//1 7//1 12//1
f 2//2 3//2 4//2
f 3//3 1//3 6//3
f 4//4 3//4 6//4
f 3//5 2//5 8//5
f 2//5 5//5 8//5
f 6//6 1//6 9//6
f 4//7 6//7 9//7
f 1//8 7//8 9//8
f 9//8 7//8 10//8
f 7//9 4//9 10//9
f 4//10 9//10 10//10
f 2//11 4//11 11//11
f 5//12 2//12 11//12
f 4//13 7//13 11//13
f 8//14 5//14 11//14
f 8//15 11//15 12//15
f 1//16 3//16 12//16
f 7//17 1//17 12//17
f 3//18 8//18 12//18
