# Blender v2.79 (sub 0) OBJ File: ''
# www.blender.org
mtllib 102697_link_4_17.mtl
o Shape_IndexedFaceSet.017_Shape_IndexedFaceSet.7503
v 0.275045 0.025831 0.594736
v 0.218789 -0.162715 0.319352
v 0.218789 -0.147921 0.319352
v 0.351717 -0.088835 0.319352
v 0.218789 -0.162715 0.651747
v 0.182334 0.042295 0.574547
v 0.256297 0.050344 0.336427
v 0.160530 -0.180125 0.472578
v 0.179370 -0.044971 0.750261
v 0.344325 0.051485 0.319352
v 0.300010 -0.162715 0.459737
v 0.179908 0.052067 0.707266
v 0.255730 -0.081438 0.666454
v 0.233572 0.021942 0.319352
v 0.322168 -0.162715 0.319352
v 0.325249 -0.058106 0.466379
v 0.233572 0.044089 0.681247
v 0.181866 -0.125753 0.725584
v 0.336934 0.044089 0.408025
v 0.314776 -0.125753 0.467156
v 0.351717 -0.066688 0.363732
v 0.178882 -0.157183 0.681290
v 0.233572 -0.081438 0.703416
v 0.240964 -0.029770 0.696041
v 0.280802 -0.034196 0.599993
v 0.178838 0.032332 0.730478
v 0.218789 0.044089 0.703416
vn 0.2149 0.7392 0.6383
vn 0.0000 0.0000 -1.0000
vn -0.9347 0.0000 -0.3554
vn 0.1286 -0.9902 0.0544
vn -0.3440 0.9360 -0.0752
vn -0.9936 0.1094 -0.0262
vn -0.0144 0.9999 -0.0076
vn 0.8273 -0.4394 0.3500
vn -0.7049 0.6818 -0.1959
vn -0.9372 0.0816 -0.3392
vn -0.9597 0.1893 -0.2078
vn -0.1599 0.5994 -0.7843
vn 0.0000 -0.9936 -0.1129
vn 0.1256 -0.9919 0.0198
vn 0.1825 0.9803 0.0759
vn 0.8536 0.4088 0.3229
vn 0.2707 0.9572 0.1024
vn 0.8472 -0.4070 0.3415
vn 0.9196 -0.3678 0.1380
vn 0.9088 -0.3918 0.1434
vn 0.9401 -0.1420 0.3101
vn 0.9551 -0.1449 0.2584
vn 0.9983 0.0526 -0.0262
vn 0.9912 0.0960 0.0906
vn 0.9685 0.0304 0.2472
vn 0.9369 -0.3127 0.1561
vn -0.0533 -0.9921 0.1137
vn -0.9942 -0.0530 0.0932
vn 0.2908 -0.7894 0.5406
vn -0.9915 -0.0652 0.1130
vn 0.7724 -0.4348 0.4630
vn 0.6609 -0.4845 0.5731
vn 0.5432 -0.2299 0.8075
vn 0.9021 0.1697 0.3967
vn 0.8566 -0.0493 0.5135
vn 0.6589 0.0131 0.7521
vn 0.9452 -0.0474 0.3229
vn 0.9503 0.0652 0.3045
vn 0.9390 0.1183 0.3228
vn 0.9189 0.1210 0.3755
vn 0.9235 0.0458 0.3809
vn -0.9980 0.0093 0.0632
vn -0.9975 0.0698 0.0133
vn 0.2124 0.9669 0.1416
vn 0.8167 0.1908 0.5446
vn 0.6399 0.1163 0.7596
vn 0.5027 0.2176 0.8366
usemtl Shape.7509
s off
f 12//1 26//1 27//1
f 2//2 3//2 4//2
f 3//3 2//3 8//3
f 4//2 3//2 10//2
f 5//4 8//4 11//4
f 7//5 6//5 12//5
f 6//6 8//6 12//6
f 10//7 7//7 12//7
f 5//8 11//8 13//8
f 6//9 7//9 14//9
f 3//10 8//10 14//10
f 8//11 6//11 14//11
f 10//2 3//2 14//2
f 7//12 10//12 14//12
f 2//2 4//2 15//2
f 8//13 2//13 15//13
f 11//14 8//14 15//14
f 10//15 12//15 17//15
f 17//16 1//16 19//16
f 10//17 17//17 19//17
f 13//18 11//18 20//18
f 15//19 4//19 20//19
f 11//20 15//20 20//20
f 16//21 13//21 20//21
f 16//22 20//22 21//22
f 4//23 10//23 21//23
f 10//24 19//24 21//24
f 19//25 16//25 21//25
f 20//26 4//26 21//26
f 8//27 5//27 22//27
f 9//28 8//28 22//28
f 5//29 18//29 22//29
f 18//30 9//30 22//30
f 5//31 13//31 23//31
f 18//32 5//32 23//32
f 9//33 18//33 23//33
f 1//34 17//34 24//34
f 23//35 13//35 24//35
f 9//36 23//36 24//36
f 13//37 16//37 25//37
f 16//38 19//38 25//38
f 19//39 1//39 25//39
f 1//40 24//40 25//40
f 24//41 13//41 25//41
f 8//42 9//42 26//42
f 12//43 8//43 26//43
f 17//44 12//44 27//44
f 24//45 17//45 27//45
f 9//46 24//46 27//46
f 26//47 9//47 27//47
