# Blender v2.79 (sub 0) OBJ File: ''
# www.blender.org
mtllib 102697_link_4_15.mtl
o Shape_IndexedFaceSet.015_Shape_IndexedFaceSet.7501
v 0.359108 -0.029757 0.311929
v 0.231236 -0.111647 -0.024494
v 0.226176 -0.000239 -0.109068
v 0.240959 0.044097 0.319352
v 0.237941 -0.123571 0.331859
v 0.351716 0.036705 0.193753
v 0.328368 -0.101234 0.152790
v 0.233567 0.051490 -0.086884
v 0.334687 -0.113875 0.308428
v 0.332911 0.050809 0.299842
v 0.263108 -0.118395 0.001769
v 0.315258 -0.024122 0.076881
v 0.226176 -0.118395 0.178950
v 0.255729 0.058882 0.319352
v 0.351716 0.029330 0.319352
v 0.270499 0.051490 -0.020415
v 0.232189 0.050863 0.105142
v 0.359108 -0.066684 0.282406
v 0.233567 -0.000239 -0.109068
v 0.233567 -0.118395 -0.035177
v 0.339081 -0.064597 0.163163
v 0.315158 -0.080425 0.093888
v 0.226176 0.036705 -0.101646
vn 0.7232 0.2722 -0.6347
vn 0.2444 -0.1111 0.9633
vn 0.0978 -0.9952 -0.0082
vn 0.4437 -0.8916 -0.0904
vn -0.9975 -0.0658 -0.0270
vn -0.9967 0.0237 0.0775
vn -0.0756 0.0755 0.9943
vn 0.2333 0.7578 0.6094
vn 0.2311 -0.0928 0.9685
vn 0.9924 0.1232 0.0072
vn 0.7336 0.6784 0.0398
vn 0.0204 0.0664 0.9976
vn 0.3405 0.9380 -0.0644
vn 0.9321 0.1064 -0.3461
vn 0.0363 0.9991 -0.0202
vn 0.0997 0.9949 -0.0173
vn -0.9976 0.0540 0.0425
vn -0.7065 0.7058 0.0512
vn -0.3284 0.9445 0.0007
vn 0.9985 0.0344 -0.0431
vn 0.8978 -0.2750 0.3439
vn 0.8681 -0.4907 -0.0751
vn 0.8558 0.2039 -0.4755
vn 0.9165 0.0293 -0.3989
vn -0.9821 -0.1401 -0.1258
vn 0.0179 -0.9997 -0.0143
vn -0.9597 -0.2791 -0.0331
vn -0.2906 -0.9568 -0.0100
vn 0.0000 -0.5302 -0.8479
vn 0.7275 -0.3638 -0.5817
vn 0.9591 -0.0347 -0.2811
vn 0.9834 -0.0724 -0.1664
vn 0.9583 -0.2335 -0.1650
vn 0.8627 -0.3840 -0.3291
vn 0.8863 -0.1790 -0.4270
vn 0.9022 -0.1262 -0.4125
vn 0.9475 -0.0940 -0.3057
vn 0.9399 -0.1956 -0.2799
vn -1.0000 -0.0000 0.0000
vn -0.8925 0.4511 -0.0049
vn -0.9986 0.0467 0.0258
vn 0.0000 0.1970 -0.9804
usemtl Shape.7507
s off
f 8//1 19//1 23//1
f 1//2 5//2 9//2
f 9//3 5//3 11//3
f 7//4 9//4 11//4
f 3//5 2//5 13//5
f 5//6 4//6 13//6
f 4//7 5//7 14//7
f 10//8 14//8 15//8
f 5//9 1//9 15//9
f 1//10 6//10 15//10
f 6//11 10//11 15//11
f 14//12 5//12 15//12
f 10//13 6//13 16//13
f 6//14 12//14 16//14
f 8//15 14//15 16//15
f 14//16 10//16 16//16
f 13//17 4//17 17//17
f 4//18 14//18 17//18
f 14//19 8//19 17//19
f 6//20 1//20 18//20
f 1//21 9//21 18//21
f 9//22 7//22 18//22
f 8//23 16//23 19//23
f 16//24 12//24 19//24
f 2//25 3//25 20//25
f 11//26 5//26 20//26
f 13//27 2//27 20//27
f 5//28 13//28 20//28
f 3//29 19//29 20//29
f 19//30 11//30 20//30
f 12//31 6//31 21//31
f 6//32 18//32 21//32
f 18//33 7//33 21//33
f 7//34 11//34 22//34
f 11//35 19//35 22//35
f 19//36 12//36 22//36
f 12//37 21//37 22//37
f 21//38 7//38 22//38
f 3//39 13//39 23//39
f 17//40 8//40 23//40
f 13//41 17//41 23//41
f 19//42 3//42 23//42
