# Blender v2.79 (sub 0) OBJ File: ''
# www.blender.org
mtllib 822_link_1_1.mtl
o Shape_IndexedFaceSet.001_Shape_IndexedFaceSet.10748
v -0.064689 -0.372522 -0.385387
v -0.026875 -0.099960 -0.086258
v 0.062164 -0.139325 -0.090953
v 0.060403 -0.000905 -0.389734
v 0.143342 -0.372384 -0.241608
v -0.136397 -0.001892 -0.290705
v -0.112494 -0.370269 -0.174349
v 0.131587 -0.002329 -0.200138
v 0.104793 -0.371125 -0.358013
v 0.010943 -0.372020 -0.117049
v -0.090857 -0.002302 -0.151114
v 0.140003 -0.001137 -0.294690
v -0.064588 -0.001909 -0.385169
v -0.128345 -0.371536 -0.316856
v 0.022348 -0.372660 -0.400663
v 0.048708 -0.002030 -0.124530
v 0.116237 -0.371392 -0.173925
v -0.136014 -0.002407 -0.222784
v -0.059215 -0.142959 -0.090684
v -0.140131 -0.372166 -0.245385
v 0.057913 -0.187073 -0.082110
v -0.101856 -0.002830 -0.358131
v -0.007951 -0.001114 -0.400978
v -0.027630 -0.210391 -0.082079
v 0.113105 -0.001719 -0.347482
v 0.135052 -0.371405 -0.305526
v -0.053055 -0.371513 -0.128710
v -0.120257 -0.003429 -0.185415
v -0.101882 -0.371362 -0.358160
v 0.143369 -0.001726 -0.241607
v 0.063595 -0.371455 -0.388331
v 0.074446 -0.370329 -0.136922
v -0.030463 -0.002558 -0.121138
v -0.030657 -0.372702 -0.396882
v -0.128317 -0.371497 -0.200244
v 0.094219 -0.001665 -0.150796
v -0.116946 -0.002759 -0.339381
v 0.082493 -0.002498 -0.377159
v 0.134986 -0.371312 -0.207802
v 0.143300 -0.372330 -0.271803
v -0.136523 -0.372423 -0.294528
v -0.140237 -0.001841 -0.268022
v 0.044465 -0.108638 -0.088499
v 0.022353 -0.001444 -0.400699
v 0.119855 -0.269718 -0.339272
v -0.082216 -0.369483 -0.144854
v -0.079536 -0.002299 -0.377334
v 0.123510 -0.003155 -0.185329
v -0.007951 -0.373030 -0.400976
v -0.045793 -0.001526 -0.393030
v 0.131588 -0.002327 -0.316968
v 0.018996 -0.218114 -0.082110
v 0.037277 -0.371497 -0.121168
v -0.128289 -0.029041 -0.316824
v -0.116969 -0.371423 -0.339400
v 0.082513 -0.371695 -0.377193
v 0.041209 -0.372310 -0.396558
v 0.094098 -0.372238 -0.150917
v 0.037293 -0.002566 -0.121113
v 0.143213 -0.001930 -0.275561
v -0.079531 -0.371836 -0.377326
v 0.123808 -0.371440 -0.185187
v -0.120370 -0.370887 -0.185361
v 0.101091 -0.002930 -0.361855
vn 0.6354 0.0001 -0.7722
vn -0.4621 0.2603 0.8478
vn -0.1855 0.0384 0.9819
vn -0.0100 0.0379 0.9992
vn 0.0410 0.9987 -0.0319
vn -0.0103 -0.9999 0.0133
vn -0.1756 -0.2480 0.9527
vn -0.1365 0.9870 0.0845
vn -0.7566 0.1069 0.6450
vn -0.4243 0.2914 0.8574
vn -0.0058 0.9998 0.0202
vn -0.9674 -0.0047 0.2532
vn -0.0190 -0.9996 0.0198
vn -0.9214 0.0045 0.3886
vn -0.0011 1.0000 0.0033
vn -0.0035 1.0000 0.0079
vn 0.0590 0.9978 0.0313
vn 0.0195 0.9998 0.0099
vn -0.7790 0.0001 -0.6270
vn 0.2007 0.9518 -0.2320
vn 0.4948 0.0010 -0.8690
vn 0.9708 -0.0001 0.2400
vn 0.9619 0.0032 0.2733
vn 0.9713 -0.0060 -0.2377
vn 0.0664 -0.9968 -0.0436
vn 1.0000 -0.0001 -0.0014
vn -0.0033 -1.0000 0.0050
vn -0.0260 0.9995 0.0149
vn -0.9957 0.0054 0.0930
vn -0.0034 1.0000 0.0021
vn -0.0093 0.9999 -0.0038
vn -0.0025 1.0000 0.0035
vn -0.0035 1.0000 0.0054
vn -0.9860 0.0021 -0.1669
vn -0.9973 -0.0048 -0.0732
vn 0.3665 0.1378 0.9202
vn 0.0420 0.0883 0.9952
vn 0.5214 0.2352 0.8202
vn 0.4806 0.2636 0.8364
vn 0.0117 0.9959 -0.0894
vn 0.7785 0.0004 -0.6277
vn 0.8657 -0.0363 -0.4993
vn -0.6929 -0.1004 0.7140
vn -0.5354 -0.1446 0.8321
vn -0.1872 -0.9579 0.2177
vn -0.4863 -0.1712 0.8569
vn -0.4643 0.0006 -0.8857
vn -0.0435 0.9985 -0.0332
vn -0.6522 0.0001 -0.7581
vn -0.0510 0.9980 -0.0381
vn -0.0874 0.9934 -0.0741
vn 0.8142 0.0348 0.5795
vn 0.7608 0.1015 0.6410
vn 0.3031 0.9279 0.2171
vn -0.0249 -0.9980 -0.0580
vn -0.1774 -0.0000 -0.9841
vn 0.0123 -0.9999 -0.0090
vn 0.0062 -1.0000 -0.0018
vn -0.0017 -1.0000 0.0037
vn -0.0111 -0.9999 -0.0077
vn 0.0103 -0.0001 -0.9999
vn 0.0092 -0.0000 -1.0000
vn -0.3859 0.0006 -0.9226
vn -0.0300 0.9993 -0.0230
vn -0.0125 0.9999 -0.0074
vn -0.3200 -0.0032 -0.9474
vn -0.2056 0.0018 -0.9786
vn 0.3021 0.9390 -0.1643
vn 0.9355 -0.0022 -0.3533
vn 0.8554 0.0057 -0.5180
vn 0.9066 -0.0046 -0.4220
vn -0.0357 -0.2195 0.9750
vn 0.0006 -0.0007 1.0000
vn 0.3857 -0.2323 0.8929
vn 0.1549 -0.2264 0.9616
vn 0.1778 -0.2229 0.9585
vn -0.9251 0.0807 -0.3711
vn -0.8935 0.0002 -0.4491
vn -0.9540 0.0034 -0.2997
vn -0.9390 0.0002 -0.3439
vn -0.0812 -0.9943 -0.0685
vn -0.8928 0.0001 -0.4505
vn -0.7793 0.0001 -0.6267
vn -0.2414 -0.9621 -0.1267
vn -0.0656 -0.9965 -0.0508
vn 0.5074 0.0001 -0.8617
vn 0.0610 -0.9973 -0.0412
vn 0.0243 -0.9995 -0.0200
vn 0.3450 -0.0006 -0.9386
vn 0.0226 -0.9996 -0.0187
vn 0.2769 0.0033 -0.9609
vn 0.2127 -0.0001 -0.9771
vn 0.1187 -0.9677 -0.2225
vn 0.7179 -0.1148 0.6866
vn 0.5569 -0.1915 0.8082
vn 0.0016 -1.0000 0.0025
vn -0.0011 -1.0000 0.0036
vn 0.0337 -0.9954 0.0892
vn 0.1974 -0.8953 0.3993
vn -0.0003 0.3371 0.9415
vn 0.0001 0.9879 0.1552
vn 0.0661 0.2973 0.9525
vn 0.2606 0.2998 0.9177
vn 0.2792 0.9602 -0.0071
vn 0.9862 -0.0014 -0.1656
vn 1.0000 0.0002 -0.0046
vn -0.0888 -0.9929 -0.0790
vn -0.4773 -0.0000 -0.8788
vn -0.6509 -0.0000 -0.7591
vn 0.8298 -0.0153 0.5579
vn 0.8965 -0.0009 0.4431
vn 0.1492 -0.9865 0.0682
vn 0.8433 0.0009 0.5375
vn 0.8779 0.0009 0.4789
vn 0.0766 -0.9961 0.0432
vn 0.1394 -0.9854 0.0979
vn -0.8125 -0.0239 0.5825
vn -0.1389 -0.9782 0.1542
vn -0.8404 0.0003 0.5420
vn -0.0790 -0.9934 0.0829
vn -0.8821 0.0003 0.4710
vn 0.7672 0.0010 -0.6414
vn 0.2709 0.9136 -0.3034
vn 0.6524 -0.0013 -0.7578
usemtl Shape.10764
s off
f 56//1 38//1 64//1
f 2//2 11//2 19//2
f 2//3 19//3 24//3
f 21//4 2//4 24//4
f 4//5 12//5 25//5
f 20//6 10//6 27//6
f 10//7 24//7 27//7
f 11//8 18//8 28//8
f 19//9 11//9 28//9
f 11//10 2//10 33//10
f 16//11 11//11 33//11
f 18//12 20//12 35//12
f 20//13 27//13 35//13
f 28//14 18//14 35//14
f 12//15 4//15 36//15
f 11//16 16//16 36//16
f 8//17 30//17 36//17
f 30//18 12//18 36//18
f 22//19 29//19 37//19
f 4//20 25//20 38//20
f 31//21 4//21 38//21
f 5//22 30//22 39//22
f 30//23 8//23 39//23
f 26//24 12//24 40//24
f 9//25 26//25 40//25
f 30//26 5//26 40//26
f 10//27 20//27 41//27
f 18//28 11//28 42//28
f 20//29 18//29 42//29
f 4//30 23//30 42//30
f 23//31 6//31 42//31
f 36//32 4//32 42//32
f 11//33 36//33 42//33
f 6//34 41//34 42//34
f 41//35 20//35 42//35
f 21//36 3//36 43//36
f 2//37 21//37 43//37
f 3//38 36//38 43//38
f 36//39 16//39 43//39
f 23//40 4//40 44//40
f 9//41 25//41 45//41
f 26//42 9//42 45//42
f 19//43 7//43 46//43
f 24//44 19//44 46//44
f 7//45 27//45 46//45
f 27//46 24//46 46//46
f 13//47 1//47 47//47
f 6//48 13//48 47//48
f 29//49 22//49 47//49
f 37//50 6//50 47//50
f 22//51 37//51 47//51
f 3//52 21//52 48//52
f 36//53 3//53 48//53
f 8//54 36//54 48//54
f 1//55 34//55 49//55
f 34//56 23//56 49//56
f 15//57 40//57 49//57
f 40//58 5//58 49//58
f 10//59 41//59 49//59
f 41//60 1//60 49//60
f 44//61 15//61 49//61
f 23//62 44//62 49//62
f 1//63 13//63 50//63
f 13//64 6//64 50//64
f 6//65 23//65 50//65
f 34//66 1//66 50//66
f 23//67 34//67 50//67
f 25//68 12//68 51//68
f 12//69 26//69 51//69
f 45//70 25//70 51//70
f 26//71 45//71 51//71
f 24//72 10//72 52//72
f 21//73 24//73 52//73
f 32//74 21//74 53//74
f 52//75 10//75 53//75
f 21//76 52//76 53//76
f 6//77 37//77 54//77
f 37//78 14//78 54//78
f 41//79 6//79 54//79
f 14//80 41//80 54//80
f 29//81 1//81 55//81
f 14//82 37//82 55//82
f 37//83 29//83 55//83
f 41//84 14//84 55//84
f 1//85 41//85 55//85
f 31//86 38//86 56//86
f 9//87 40//87 56//87
f 56//88 40//88 57//88
f 4//89 31//89 57//89
f 40//90 15//90 57//90
f 44//91 4//91 57//91
f 15//92 44//92 57//92
f 31//93 56//93 57//93
f 17//94 21//94 58//94
f 21//95 32//95 58//95
f 49//96 5//96 58//96
f 10//97 49//97 58//97
f 53//98 10//98 58//98
f 32//99 53//99 58//99
f 33//100 2//100 59//100
f 16//101 33//101 59//101
f 2//102 43//102 59//102
f 43//103 16//103 59//103
f 12//104 30//104 60//104
f 40//105 12//105 60//105
f 30//106 40//106 60//106
f 1//107 29//107 61//107
f 47//108 1//108 61//108
f 29//109 47//109 61//109
f 21//110 17//110 62//110
f 39//111 8//111 62//111
f 5//112 39//112 62//112
f 48//113 21//113 62//113
f 8//114 48//114 62//114
f 58//115 5//115 62//115
f 17//116 58//116 62//116
f 7//117 19//117 63//117
f 27//118 7//118 63//118
f 19//119 28//119 63//119
f 35//120 27//120 63//120
f 28//121 35//121 63//121
f 25//122 9//122 64//122
f 38//123 25//123 64//123
f 9//124 56//124 64//124
