# Blender v2.79 (sub 0) OBJ File: ''
# www.blender.org
mtllib 822_link_1_2.mtl
o Shape_IndexedFaceSet.002_Shape_IndexedFaceSet.10749
v 0.067507 0.003973 -0.132797
v -0.011658 0.007749 -0.400447
v -0.011653 0.015292 -0.400400
v -0.152076 0.034614 -0.222135
v 0.159036 0.034614 -0.276506
v -0.140177 0.003940 -0.245873
v 0.061777 0.034614 -0.120998
v 0.127602 0.003998 -0.324957
v -0.128733 0.034614 -0.346514
v 0.085120 0.034614 -0.393194
v -0.075940 0.003939 -0.140063
v 0.143464 0.022940 -0.179342
v -0.097815 0.004057 -0.362221
v -0.109306 0.034614 -0.148212
v 0.143391 0.003922 -0.242100
v 0.067762 0.003915 -0.385881
v -0.082283 0.030231 -0.387634
v -0.030596 0.003942 -0.121169
v -0.120511 0.004034 -0.185870
v 0.116086 0.026565 -0.369919
v 0.131777 0.034614 -0.175454
v -0.136232 0.003959 -0.291168
v -0.039306 0.034614 -0.128773
v 0.123758 0.004009 -0.185773
v -0.132618 0.030722 -0.346514
v 0.147349 0.034614 -0.323187
v -0.023764 0.034614 -0.393194
v -0.045650 0.003957 -0.393086
v -0.101504 0.022940 -0.140464
v -0.136480 0.026614 -0.181580
v -0.151072 0.022819 -0.257245
v 0.022272 0.003951 -0.400711
v 0.037388 0.003941 -0.121159
v 0.145611 0.022794 -0.320851
v -0.086024 0.022778 -0.387662
v 0.093173 0.026533 -0.137556
vn 0.6080 0.3757 0.6994
vn -0.0000 1.0000 0.0000
vn 0.9290 -0.3544 0.1063
vn -0.0001 -1.0000 0.0000
vn 0.0029 -1.0000 -0.0015
vn -0.0000 -1.0000 0.0001
vn -0.0056 -1.0000 0.0034
vn 0.4618 -0.4440 -0.7679
vn 0.4974 -0.7176 -0.4876
vn 0.7249 0.6606 0.1955
vn -0.0748 0.2199 0.9727
vn 0.4945 -0.6930 0.5246
vn 0.0031 -1.0000 0.0026
vn 0.6365 -0.7383 0.2230
vn -0.7016 0.7003 -0.1317
vn -0.5327 0.5317 -0.6584
vn -0.6643 -0.6550 -0.3601
vn 0.5407 0.6904 -0.4806
vn 0.0000 0.3494 -0.9370
vn -0.1118 0.2850 -0.9520
vn -0.0927 0.9736 -0.2085
vn -0.0003 -1.0000 -0.0003
vn -0.0005 -1.0000 -0.0005
vn -0.0040 -1.0000 -0.0036
vn -0.3443 -0.4458 0.8263
vn -0.5201 -0.6891 0.5046
vn -0.2430 0.4184 0.8751
vn -0.2139 0.1774 0.9606
vn -0.8377 -0.4982 0.2239
vn -0.6591 0.6482 0.3813
vn -0.7668 -0.5902 0.2522
vn -0.7627 -0.0841 0.6413
vn -0.6552 -0.5598 0.5073
vn -0.8897 -0.4398 0.1223
vn -0.8439 -0.5314 -0.0737
vn -0.9110 0.3823 -0.1545
vn -0.9186 -0.3289 -0.2190
vn -0.0071 0.0062 -1.0000
vn 0.0426 0.1546 -0.9871
vn 0.2874 -0.3727 -0.8824
vn -0.0818 -0.6803 -0.7283
vn -0.0003 -1.0000 -0.0016
vn 0.3463 -0.2800 0.8954
vn -0.0000 -1.0000 0.0002
vn 0.0017 -1.0000 0.0016
vn -0.0001 -0.0051 1.0000
vn 0.8322 -0.5441 -0.1069
vn 0.7300 -0.6690 -0.1397
vn 0.6897 -0.5608 -0.4581
vn 0.9529 -0.1873 -0.2386
vn 0.8275 -0.2235 -0.5151
vn -0.1682 0.0063 -0.9857
vn -0.1600 0.0840 -0.9835
vn -0.6009 0.3044 -0.7391
vn -0.6318 -0.4549 -0.6276
vn -0.1949 -0.1382 -0.9710
vn -0.3895 -0.6464 -0.6561
vn 0.3957 -0.2646 0.8794
vn 0.5433 -0.4717 0.6945
vn 0.4869 0.6093 0.6259
usemtl Shape.10765
s off
f 12//1 21//1 36//1
f 5//2 4//2 7//2
f 4//2 5//2 9//2
f 9//2 5//2 10//2
f 7//2 4//2 14//2
f 5//3 12//3 15//3
f 11//4 6//4 16//4
f 8//5 15//5 16//5
f 15//6 11//6 16//6
f 6//7 11//7 19//7
f 16//8 10//8 20//8
f 8//9 16//9 20//9
f 5//2 7//2 21//2
f 12//10 5//10 21//10
f 7//2 14//2 23//2
f 18//11 7//11 23//11
f 12//12 1//12 24//12
f 1//13 15//13 24//13
f 15//14 12//14 24//14
f 4//15 9//15 25//15
f 9//16 17//16 25//16
f 13//17 22//17 25//17
f 10//2 5//2 26//2
f 20//18 10//18 26//18
f 10//19 3//19 27//19
f 9//2 10//2 27//2
f 3//20 17//20 27//20
f 17//21 9//21 27//21
f 16//22 6//22 28//22
f 6//23 22//23 28//23
f 22//24 13//24 28//24
f 11//25 18//25 29//25
f 19//26 11//26 29//26
f 23//27 14//27 29//27
f 18//28 23//28 29//28
f 4//29 6//29 30//29
f 14//30 4//30 30//30
f 6//31 19//31 30//31
f 29//32 14//32 30//32
f 19//33 29//33 30//33
f 6//34 4//34 31//34
f 22//35 6//35 31//35
f 4//36 25//36 31//36
f 25//37 22//37 31//37
f 2//38 3//38 32//38
f 3//39 10//39 32//39
f 10//40 16//40 32//40
f 28//41 2//41 32//41
f 16//42 28//42 32//42
f 1//43 7//43 33//43
f 11//44 15//44 33//44
f 15//45 1//45 33//45
f 7//46 18//46 33//46
f 18//44 11//44 33//44
f 5//47 15//47 34//47
f 15//48 8//48 34//48
f 8//49 20//49 34//49
f 26//50 5//50 34//50
f 20//51 26//51 34//51
f 3//52 2//52 35//52
f 17//53 3//53 35//53
f 25//54 17//54 35//54
f 13//55 25//55 35//55
f 2//56 28//56 35//56
f 28//57 13//57 35//57
f 7//58 1//58 36//58
f 1//59 12//59 36//59
f 21//60 7//60 36//60
