# Blender v2.79 (sub 0) OBJ File: ''
# www.blender.org
mtllib 822_link_0_27.mtl
o Shape_IndexedFaceSet.027_Shape_IndexedFaceSet.10662
v 0.068617 0.068991 -0.180867
v 0.073587 0.044186 -0.133739
v 0.066139 0.044186 -0.128776
v 0.066139 0.083876 -0.158534
v 0.028931 0.041705 -0.136220
v 0.028931 0.083876 -0.146146
v 0.073587 0.041705 -0.156053
v 0.028931 0.041705 -0.118844
v 0.073587 0.083876 -0.180867
v 0.028931 0.066510 -0.156053
v 0.038858 0.071472 -0.136220
v 0.031413 0.083876 -0.158534
vn -0.9744 0.1114 -0.1952
vn 0.4705 0.5293 0.7060
vn -0.3009 -0.6710 -0.6776
vn 0.0000 -1.0000 0.0000
vn 0.1091 -0.9805 0.1637
vn -1.0000 -0.0000 0.0000
vn 0.0917 -0.9897 0.1100
vn 0.8880 0.3517 0.2962
vn 0.0000 1.0000 0.0000
vn 1.0000 0.0000 0.0000
vn 0.8352 -0.2789 -0.4739
vn -0.4098 -0.5696 -0.7124
vn 0.3566 0.5604 0.7475
vn 0.2220 0.7113 0.6669
vn 0.2037 0.4420 0.8736
vn -0.1583 0.5366 0.8289
vn -0.4624 0.1544 -0.8731
vn -0.5275 -0.0458 -0.8483
usemtl Shape.10671
s off
f 10//1 6//1 12//1
f 3//2 2//2 4//2
f 5//3 1//3 7//3
f 5//4 7//4 8//4
f 2//5 3//5 8//5
f 6//6 5//6 8//6
f 7//7 2//7 8//7
f 4//8 2//8 9//8
f 6//9 4//9 9//9
f 2//10 7//10 9//10
f 7//11 1//11 9//11
f 1//12 5//12 10//12
f 5//6 6//6 10//6
f 3//13 4//13 11//13
f 4//14 6//14 11//14
f 8//15 3//15 11//15
f 6//16 8//16 11//16
f 6//9 9//9 12//9
f 9//17 1//17 12//17
f 1//18 10//18 12//18
