# Blender v2.79 (sub 0) OBJ File: ''
# www.blender.org
mtllib 822_link_0_32.mtl
o Shape_IndexedFaceSet.032_Shape_IndexedFaceSet.10667
v -0.030622 0.041705 -0.381850
v 0.014035 0.083876 -0.366965
v 0.014035 0.083876 -0.376888
v 0.014035 0.041705 -0.401694
v -0.028135 0.083876 -0.374407
v -0.030622 0.044186 -0.401694
v 0.014035 0.044186 -0.381850
v -0.030622 0.066510 -0.362003
v -0.008294 0.073953 -0.386808
v 0.014035 0.066510 -0.366965
v -0.030622 0.083876 -0.362003
v -0.000854 0.044186 -0.404174
vn -0.0724 0.4890 -0.8693
vn 1.0000 0.0000 0.0000
vn 0.0000 1.0000 0.0000
vn -0.0550 -0.9908 -0.1239
vn 0.0550 -0.9908 0.1239
vn -1.0000 0.0000 -0.0000
vn 0.0347 -0.6244 0.7804
vn -0.0389 0.7489 -0.6615
vn -0.2175 0.5622 -0.7979
vn 0.1104 0.0000 0.9939
vn 0.0921 -0.5524 0.8285
vn -0.9621 0.1929 -0.1929
vn 0.2223 0.4943 -0.8404
vn -0.0462 -0.8311 -0.5542
vn 0.1398 0.5248 -0.8397
usemtl Shape.10676
s off
f 6//1 9//1 12//1
f 3//2 2//2 4//2
f 2//3 3//3 5//3
f 4//4 1//4 6//4
f 4//2 2//2 7//2
f 1//5 4//5 7//5
f 6//6 1//6 8//6
f 1//7 7//7 8//7
f 5//8 3//8 9//8
f 6//9 5//9 9//9
f 7//2 2//2 10//2
f 2//10 8//10 10//10
f 8//11 7//11 10//11
f 2//3 5//3 11//3
f 5//12 6//12 11//12
f 8//10 2//10 11//10
f 6//6 8//6 11//6
f 3//13 4//13 12//13
f 4//14 6//14 12//14
f 9//15 3//15 12//15
