# Blender v2.79 (sub 0) OBJ File: ''
# www.blender.org
mtllib 822_link_1_4.mtl
o Shape_IndexedFaceSet.004_Shape_IndexedFaceSet.10751
v 0.061347 -0.073060 0.132426
v -0.059354 -0.153551 0.040995
v -0.058250 -0.152749 0.052698
v -0.027637 -0.015948 0.131817
v -0.014770 -0.167213 0.132363
v 0.060657 -0.120033 0.042313
v 0.032699 -0.197329 0.041257
v 0.013819 -0.077655 0.043174
v -0.058292 -0.112905 0.132417
v 0.053380 -0.137892 0.131818
v 0.030681 -0.015948 0.135719
v -0.031532 -0.194848 0.069617
v -0.054363 -0.112885 0.042040
v 0.017760 -0.181439 0.106941
v 0.061785 -0.153106 0.041459
v -0.058367 -0.076624 0.132474
v -0.024670 -0.081352 0.043443
v -0.004030 -0.205604 0.040807
v -0.008189 -0.008168 0.131817
v -0.047558 -0.142007 0.132551
v 0.042403 -0.091519 0.042675
v 0.046285 -0.173735 0.078160
v 0.028458 -0.163163 0.132013
v 0.061590 -0.112920 0.132610
v -0.051138 -0.174647 0.041708
v 0.030681 -0.015948 0.131817
v -0.046533 -0.045234 0.131602
vn -0.9223 0.3428 -0.1783
vn -0.9711 -0.2136 0.1062
vn -0.0698 -0.9059 0.4176
vn 0.9991 0.0347 -0.0258
vn -0.9999 -0.0021 0.0125
vn -0.0667 0.0446 0.9968
vn -0.0353 -0.0016 0.9994
vn -0.9879 0.1236 -0.0933
vn -0.0124 0.0561 -0.9984
vn -0.6297 0.6142 -0.4757
vn 0.2081 -0.9388 0.2745
vn -0.0058 -0.9386 0.3449
vn 0.0038 0.0077 -1.0000
vn 0.0132 -0.0041 -0.9999
vn -0.0658 0.1646 0.9842
vn -0.3043 0.7608 -0.5732
vn -0.0788 0.7750 -0.6271
vn -0.9249 -0.3404 0.1696
vn -0.0300 -0.0065 0.9995
vn -0.0092 -0.0194 0.9998
vn -0.5408 -0.7069 0.4558
vn 0.0009 0.0256 -0.9997
vn -0.0010 0.0340 -0.9994
vn 0.0216 0.0265 -0.9994
vn 0.0038 0.0209 -0.9998
vn 0.5275 -0.7905 0.3112
vn 0.8346 -0.5491 0.0438
vn 0.9010 -0.4062 0.1522
vn 0.0105 -0.0253 0.9996
vn 0.0815 -0.8216 0.5641
vn 0.6683 -0.6564 0.3501
vn 0.5426 -0.7719 0.3312
vn 0.1165 0.0053 0.9932
vn 1.0000 0.0061 -0.0005
vn 0.9393 -0.3132 0.1401
vn 0.0206 -0.0255 0.9995
vn 0.0598 -0.0513 0.9969
vn -0.9272 -0.3573 0.1120
vn -0.0554 -0.0553 -0.9969
vn -0.5396 -0.8151 -0.2109
vn -0.9080 -0.3817 0.1729
vn -0.8327 -0.5098 0.2160
vn 0.8554 0.4567 -0.2446
vn 0.8810 0.4731 0.0000
vn 0.1963 0.9806 0.0000
vn 0.1593 0.7958 -0.5843
vn 0.7932 0.5120 -0.3297
vn 0.3475 0.7373 -0.5794
vn -0.7951 0.5154 -0.3198
vn -0.1295 0.0763 0.9886
usemtl Shape.10767
s off
f 13//1 16//1 27//1
f 2//2 3//2 9//2
f 5//3 12//3 14//3
f 6//4 1//4 15//4
f 2//5 9//5 16//5
f 11//6 4//6 16//6
f 9//7 11//7 16//7
f 13//8 2//8 16//8
f 8//9 13//9 17//9
f 13//10 4//10 17//10
f 7//11 14//11 18//11
f 14//12 12//12 18//12
f 2//13 15//13 18//13
f 15//14 7//14 18//14
f 4//15 11//15 19//15
f 17//16 4//16 19//16
f 8//17 17//17 19//17
f 9//18 3//18 20//18
f 11//19 9//19 20//19
f 5//20 11//20 20//20
f 12//21 5//21 20//21
f 2//22 13//22 21//22
f 13//23 8//23 21//23
f 6//24 15//24 21//24
f 15//25 2//25 21//25
f 14//26 7//26 22//26
f 7//27 15//27 22//27
f 15//28 10//28 22//28
f 11//29 5//29 23//29
f 5//30 14//30 23//30
f 22//31 10//31 23//31
f 14//32 22//32 23//32
f 1//33 11//33 24//33
f 15//34 1//34 24//34
f 10//35 15//35 24//35
f 11//36 23//36 24//36
f 23//37 10//37 24//37
f 3//38 2//38 25//38
f 2//39 18//39 25//39
f 18//40 12//40 25//40
f 20//41 3//41 25//41
f 12//42 20//42 25//42
f 1//43 6//43 26//43
f 11//44 1//44 26//44
f 19//45 11//45 26//45
f 8//46 19//46 26//46
f 6//47 21//47 26//47
f 21//48 8//48 26//48
f 4//49 13//49 27//49
f 16//50 4//50 27//50
