# Blender v2.79 (sub 0) OBJ File: ''
# www.blender.org
mtllib 822_link_0_13.mtl
o Shape_IndexedFaceSet.013_Shape_IndexedFaceSet.10648
v 0.078553 0.039215 -0.396718
v 0.152985 0.034262 -0.307422
v 0.152985 0.026817 -0.307422
v 0.105848 0.051622 -0.309911
v 0.073587 0.021854 -0.386798
v 0.125690 0.036743 -0.361990
v 0.073587 0.054103 -0.371910
v 0.125690 0.054103 -0.314871
v 0.110814 0.021854 -0.376879
v 0.140573 0.021854 -0.307422
v 0.073587 0.054103 -0.352079
v 0.143052 0.021854 -0.332239
v 0.088478 0.054103 -0.364470
v 0.073587 0.021854 -0.399216
v 0.145531 0.036743 -0.329751
v 0.073587 0.031780 -0.371910
v 0.095931 0.036743 -0.389278
v 0.108335 0.054103 -0.307422
vn 0.0000 1.0000 0.0000
vn 0.0000 0.0000 1.0000
vn 0.0000 -1.0000 0.0000
vn -1.0000 0.0000 0.0000
vn 0.7910 -0.2191 -0.5712
vn 0.3710 -0.9279 0.0371
vn 0.2327 0.8538 -0.4658
vn 0.4185 0.8522 -0.3140
vn -0.8824 0.3041 -0.3591
vn 0.9485 0.0000 -0.3166
vn 0.6043 0.7885 -0.1141
vn 0.4898 0.8181 -0.3014
vn 0.9306 -0.0959 -0.3533
vn 0.8504 -0.0541 -0.5234
vn -0.5818 -0.6364 0.5064
vn -0.5493 -0.6953 0.4635
vn -0.7169 -0.4630 0.5212
vn 0.6746 0.0617 -0.7356
vn 0.3205 0.8186 -0.4766
vn 0.4036 0.8022 -0.4401
vn 0.3958 0.0189 -0.9182
vn 0.5045 -0.1959 -0.8409
vn 0.2950 0.6638 0.6873
vn -0.4089 -0.4087 0.8159
vn -0.7774 0.1724 0.6049
usemtl Shape.10657
s off
f 8//1 11//1 18//1
f 3//2 2//2 10//2
f 5//3 9//3 10//3
f 7//4 5//4 11//4
f 8//1 7//1 11//1
f 9//5 6//5 12//5
f 3//6 10//6 12//6
f 10//3 9//3 12//3
f 1//7 7//7 13//7
f 7//1 8//1 13//1
f 8//8 6//8 13//8
f 7//9 1//9 14//9
f 5//4 7//4 14//4
f 9//3 5//3 14//3
f 2//10 3//10 15//10
f 8//11 2//11 15//11
f 6//12 8//12 15//12
f 3//13 12//13 15//13
f 12//14 6//14 15//14
f 10//15 4//15 16//15
f 5//16 10//16 16//16
f 4//17 11//17 16//17
f 11//4 5//4 16//4
f 6//18 9//18 17//18
f 1//19 13//19 17//19
f 13//20 6//20 17//20
f 14//21 1//21 17//21
f 9//22 14//22 17//22
f 2//23 8//23 18//23
f 10//2 2//2 18//2
f 4//24 10//24 18//24
f 11//25 4//25 18//25
