# Blender v2.79 (sub 0) OBJ File: ''
# www.blender.org
mtllib 100486_link_1_44.mtl
o Shape_IndexedFaceSet.044_Shape_IndexedFaceSet.17872
v 0.447121 0.418309 -0.451630
v 0.550681 0.595019 -0.258857
v 0.552832 0.298440 -0.254245
v 0.425939 0.298440 -0.381149
v 0.425939 0.594566 -0.388189
v 0.552832 0.587503 -0.310667
v 0.433015 0.587503 -0.451630
v 0.510529 0.298440 -0.261326
v 0.581059 0.425402 -0.268387
v 0.440060 0.298440 -0.430490
v 0.538726 0.432465 -0.345908
v 0.517575 0.594566 -0.254245
v 0.425939 0.425402 -0.465772
v 0.531681 0.298440 -0.310667
v 0.475318 0.580469 -0.416390
v 0.433015 0.559309 -0.367048
v 0.573983 0.580469 -0.254245
v 0.496469 0.432465 -0.402310
vn 0.7990 0.0572 -0.5986
vn 0.0992 0.9901 -0.0992
vn 0.1591 0.9779 -0.1353
vn 0.0000 -1.0000 -0.0000
vn 0.8784 0.0285 -0.4771
vn -0.0125 0.9999 0.0085
vn -0.1651 -0.0197 0.9861
vn -1.0000 0.0000 0.0000
vn 0.5655 0.0471 -0.8234
vn -0.9917 0.0535 -0.1166
vn -0.9456 -0.1804 -0.2706
vn 0.5042 -0.1787 -0.8449
vn 0.9090 -0.2400 -0.3408
vn 0.8578 -0.1724 -0.4842
vn 0.6444 0.0537 -0.7628
vn 0.4562 0.8009 -0.3878
vn 0.8030 0.0617 -0.5928
vn -0.9443 0.0078 0.3291
vn -0.8169 -0.0090 0.5767
vn -0.8133 0.1704 0.5564
vn -0.8008 0.0047 0.5989
vn 0.5410 0.8352 -0.0987
vn 0.6025 -0.0452 0.7969
vn 0.9368 0.0739 -0.3420
vn 0.1160 0.4641 0.8782
vn 0.0000 0.0000 1.0000
vn 0.7204 -0.1614 -0.6745
vn 0.7780 -0.2024 -0.5948
vn 0.7848 -0.1959 -0.5880
vn 0.7018 0.0326 -0.7116
usemtl Shape.17878
s off
f 15//1 11//1 18//1
f 5//2 2//2 7//2
f 2//3 6//3 7//3
f 4//4 3//4 8//4
f 3//4 4//4 10//4
f 6//5 9//5 11//5
f 2//6 5//6 12//6
f 8//7 3//7 12//7
f 4//8 5//8 13//8
f 7//9 1//9 13//9
f 5//10 7//10 13//10
f 10//11 4//11 13//11
f 1//12 10//12 13//12
f 9//13 3//13 14//13
f 3//4 10//4 14//4
f 11//14 9//14 14//14
f 1//15 7//15 15//15
f 7//16 6//16 15//16
f 6//17 11//17 15//17
f 5//18 4//18 16//18
f 4//19 8//19 16//19
f 12//20 5//20 16//20
f 8//21 12//21 16//21
f 6//22 2//22 17//22
f 3//23 9//23 17//23
f 9//24 6//24 17//24
f 2//25 12//25 17//25
f 12//26 3//26 17//26
f 10//27 1//27 18//27
f 14//28 10//28 18//28
f 11//29 14//29 18//29
f 1//30 15//30 18//30
