####
#
# OBJ File Generated by Meshlab
#
####
# Object 100486_link_0_3.obj
#
# Vertices: 23
# Faces: 42
#
####
mtllib ./100486_link_0_3.obj.mtl

vn -0.244771 -0.611842 -0.752154
v -0.509795 -0.133334 0.376154
vn 0.707947 -0.301701 0.638583
v -0.408110 -0.143480 0.501570
vn 0.412793 -0.547985 0.727540
v -0.411098 -0.156322 0.498793
vn 0.598217 -0.417451 -0.684011
v -0.384512 -0.157935 0.418722
vn 0.105859 0.984143 -0.142324
v -0.484934 -0.031268 0.374926
vn -0.915361 0.400890 0.037436
v -0.519639 -0.058735 0.436813
vn 0.497108 0.784604 0.370513
v -0.385926 -0.099906 0.484263
vn -0.452328 -0.883546 0.121432
v -0.478773 -0.185256 0.464699
vn 0.412922 -0.095170 -0.905781
v -0.489555 -0.065500 0.346709
vn 0.123704 -0.816559 -0.563852
v -0.411774 -0.185961 0.440372
vn -0.880142 -0.188617 0.435631
v -0.515444 -0.120367 0.457549
vn 0.174724 0.915326 0.362837
v -0.494957 -0.029277 0.410493
vn 0.873713 -0.020284 -0.486019
v -0.364628 -0.122471 0.427562
vn -0.399116 -0.247962 -0.882735
v -0.505394 -0.091458 0.356630
vn 0.195504 0.674033 0.712361
v -0.436258 -0.101222 0.516391
vn -0.991005 -0.096302 -0.092928
v -0.533848 -0.109237 0.417687
vn 0.570781 0.348502 -0.743475
v -0.483772 -0.042433 0.361336
vn -0.564823 -0.795186 -0.220577
v -0.503093 -0.153596 0.406426
vn 0.783257 0.620332 -0.041188
v -0.366474 -0.105490 0.448959
vn -0.427142 0.002081 0.904182
v -0.467503 -0.127223 0.517468
vn 0.329199 -0.827664 0.454533
v -0.415194 -0.171987 0.480666
vn -0.408461 -0.582095 0.703083
v -0.478010 -0.160547 0.502328
vn -0.480013 0.527845 0.700691
v -0.493833 -0.068032 0.474931
# 23 vertices, 0 vertices normals


usemtl material_0
f 20//20 15//15 23//23
f 2//2 3//3 4//4
f 5//5 6//6 12//12
f 7//7 5//5 12//12
f 2//2 4//4 13//13
f 6//6 5//5 14//14
f 9//9 4//4 14//14
f 4//4 10//10 14//14
f 10//10 1//1 14//14
f 2//2 7//7 15//15
f 7//7 12//12 15//15
f 11//11 6//6 16//16
f 6//6 14//14 16//16
f 14//14 1//1 16//16
f 4//4 9//9 17//17
f 13//13 4//4 17//17
f 14//14 5//5 17//17
f 9//9 14//14 17//17
f 10//10 8//8 18//18
f 1//1 10//10 18//18
f 8//8 11//11 18//18
f 16//16 1//1 18//18
f 11//11 16//16 18//18
f 7//7 2//2 19//19
f 5//5 7//7 19//19
f 2//2 13//13 19//19
f 13//13 17//17 19//19
f 17//17 5//5 19//19
f 3//3 2//2 20//20
f 2//2 15//15 20//20
f 4//4 3//3 21//21
f 10//10 4//4 21//21
f 8//8 10//10 21//21
f 11//11 8//8 22//22
f 3//3 20//20 22//22
f 20//20 11//11 22//22
f 21//21 3//3 22//22
f 8//8 21//21 22//22
f 6//6 11//11 23//23
f 12//12 6//6 23//23
f 15//15 12//12 23//23
f 11//11 20//20 23//23
# 42 faces, 0 coords texture

# End of File
