# Blender v2.79 (sub 0) OBJ File: ''
# www.blender.org
mtllib 100486_link_1_14.mtl
o Shape_IndexedFaceSet.014_Shape_IndexedFaceSet.17842
v 0.487201 -0.777433 -0.388322
v 0.518647 -0.723339 -0.259863
v 0.517591 -0.766243 -0.261296
v 0.418888 -0.723943 -0.388196
v 0.517591 -0.723943 -0.331787
v 0.433004 -0.780350 -0.388196
v 0.522952 -0.783413 -0.285303
v 0.468240 -0.723943 -0.395250
vn -0.1414 -0.0354 -0.9893
vn -0.7895 -0.0011 0.6137
vn -0.8046 -0.2013 0.5587
vn 0.9704 -0.0319 0.2395
vn 0.9268 -0.1758 -0.3318
vn 0.9968 0.0779 -0.0153
vn 0.0534 -0.9957 -0.0763
vn -0.5090 -0.7499 0.4226
vn -0.0006 1.0000 -0.0042
vn 0.7740 0.1964 -0.6019
vn 0.0110 0.9999 -0.0086
vn 0.0045 -0.1269 -0.9919
usemtl Shape.17848
s off
f 6//1 4//1 8//1
f 3//2 2//2 4//2
f 3//3 4//3 6//3
f 2//4 3//4 7//4
f 1//5 5//5 7//5
f 5//6 2//6 7//6
f 6//7 1//7 7//7
f 3//8 6//8 7//8
f 4//9 2//9 8//9
f 5//10 1//10 8//10
f 2//11 5//11 8//11
f 1//12 6//12 8//12
