# Blender v2.79 (sub 0) OBJ File: ''
# www.blender.org
mtllib 100486_link_1_18.mtl
o Shape_IndexedFaceSet.018_Shape_IndexedFaceSet.17846
v 0.429226 -0.751131 -0.443715
v 0.527822 0.123512 -0.245970
v 0.554668 0.098511 -0.251641
v 0.436425 0.116714 -0.436716
v 0.433008 -0.723943 -0.367028
v 0.556372 -0.746429 -0.264067
v 0.425939 0.086913 -0.381150
v 0.527140 0.115674 -0.323287
v 0.510540 -0.723943 -0.261315
v 0.534289 -0.748792 -0.315988
v 0.419915 -0.746963 -0.446270
v 0.458910 -0.749350 -0.414532
v 0.510540 0.086913 -0.261315
v 0.554425 -0.733987 -0.251992
v 0.542241 0.115565 -0.300622
v 0.424673 0.095002 -0.432186
v 0.425939 -0.723943 -0.381150
v 0.433008 0.086913 -0.367028
v 0.451622 0.116012 -0.421453
v 0.556627 0.111026 -0.263756
v 0.517584 -0.723943 -0.254245
vn -0.2313 -0.6960 0.6798
vn -0.6256 0.7305 0.2737
vn 0.1377 0.9853 -0.1011
vn -0.4360 -0.8412 0.3198
vn -0.4040 -0.8612 0.3085
vn -0.0681 -0.9949 0.0743
vn 0.2669 0.0056 -0.9637
vn -0.4586 -0.8302 0.3169
vn 0.7011 -0.0001 -0.7131
vn 0.2117 -0.9647 -0.1565
vn 0.7943 0.0014 -0.6076
vn -0.8064 -0.0000 0.5914
vn 0.2063 -0.0005 0.9785
vn 0.9872 -0.0004 0.1595
vn 0.1586 0.9822 -0.1010
vn 0.9202 -0.0015 -0.3913
vn 0.8322 0.0022 -0.5545
vn -0.8663 0.4896 0.0991
vn -0.3878 0.0176 -0.9216
vn -0.9997 0.0052 0.0256
vn -0.8942 0.0000 0.4476
vn -0.6222 -0.7182 0.3115
vn -0.9957 0.0000 0.0921
vn -0.6861 0.6414 0.3434
vn -0.7994 0.1316 0.5863
vn 0.1830 0.9735 -0.1374
vn 0.7086 0.0003 -0.7056
vn 0.7926 0.0018 -0.6097
vn 0.6013 0.5052 0.6191
vn 0.9872 -0.0004 0.1593
vn 0.3796 0.9245 -0.0343
vn 0.9316 -0.0001 -0.3635
vn -0.3875 -0.8371 0.3861
vn -0.6648 0.0007 0.7470
vn -0.7084 0.0000 0.7058
vn -0.0635 -0.0090 0.9979
usemtl Shape.17852
s off
f 6//1 14//1 21//1
f 2//2 4//2 7//2
f 4//3 2//3 8//3
f 5//4 1//4 9//4
f 1//5 6//5 9//5
f 6//6 1//6 10//6
f 4//7 1//7 11//7
f 1//8 5//8 11//8
f 1//9 4//9 12//9
f 10//10 1//10 12//10
f 8//11 10//11 12//11
f 5//12 9//12 13//12
f 3//13 2//13 14//13
f 6//14 3//14 14//14
f 8//15 2//15 15//15
f 6//16 10//16 15//16
f 10//17 8//17 15//17
f 7//18 4//18 16//18
f 4//19 11//19 16//19
f 11//20 7//20 16//20
f 5//21 7//21 17//21
f 11//22 5//22 17//22
f 7//23 11//23 17//23
f 2//24 7//24 18//24
f 7//21 5//21 18//21
f 13//25 2//25 18//25
f 5//12 13//12 18//12
f 4//26 8//26 19//26
f 12//27 4//27 19//27
f 8//28 12//28 19//28
f 2//29 3//29 20//29
f 3//30 6//30 20//30
f 15//31 2//31 20//31
f 6//32 15//32 20//32
f 9//33 6//33 21//33
f 2//34 13//34 21//34
f 13//35 9//35 21//35
f 14//36 2//36 21//36
