####
#
# OBJ File Generated by Meshlab
#
####
# Object 100486_link_0_0.obj
#
# Vertices: 28
# Faces: 52
#
####
mtllib ./100486_link_0_0.obj.mtl

vn -0.234572 -0.544772 -0.805109
v -0.612183 0.265761 0.001285
vn 0.125463 0.325019 0.937348
v -0.558309 0.247256 0.190377
vn 0.351033 0.668391 0.655766
v -0.541434 0.266912 0.177968
vn -0.401176 0.823478 0.401176
v -0.598039 0.398569 0.036153
vn 0.989276 0.145441 -0.013422
v -0.519686 0.355043 -0.015027
vn 0.593578 -0.719907 0.359720
v -0.556135 0.175310 0.149835
vn -0.902246 -0.030873 0.430114
v -0.636059 0.220146 0.162324
vn -0.884609 0.042726 -0.464372
v -0.624767 0.354713 -0.017398
vn 0.926078 0.359494 0.114643
v -0.533582 0.383198 0.015421
vn -0.730818 -0.678349 0.075816
v -0.612499 0.164440 0.139026
vn 0.962335 0.017458 0.271305
v -0.530376 0.215683 0.171407
vn -0.065278 -0.537960 -0.840439
v -0.561058 0.330199 -0.047142
vn -0.700454 0.508322 0.500972
v -0.629713 0.298687 0.126710
vn -0.175452 -0.754837 -0.632010
v -0.586603 0.148085 0.111296
vn -0.817013 0.576371 0.016931
v -0.621331 0.381021 0.010221
vn -0.951589 -0.270035 -0.146834
v -0.646979 0.241363 0.080031
vn -0.331490 0.008254 0.943423
v -0.599128 0.242439 0.186209
vn 0.362161 0.769851 0.525517
v -0.562247 0.400084 0.036715
vn 0.862964 -0.425270 -0.272835
v -0.516000 0.184275 0.143605
vn -0.978660 0.190266 0.077616
v -0.649720 0.283872 0.092920
vn -0.157897 -0.394372 -0.905284
v -0.593112 0.343143 -0.038324
vn 0.781834 -0.392762 -0.484225
v -0.536645 0.336545 -0.036810
vn 0.025520 0.773773 -0.632949
v -0.560434 0.385144 -0.028240
vn -0.108389 0.694388 0.711391
v -0.590357 0.291203 0.163320
vn -0.557509 -0.549566 0.622223
v -0.611766 0.191253 0.164778
vn 0.862646 0.358481 0.356838
v -0.518350 0.245871 0.170399
vn 0.720050 -0.536625 -0.439956
v -0.548012 0.151312 0.103221
vn -0.761743 -0.467830 -0.448200
v -0.628136 0.232610 0.046672
# 28 vertices, 0 vertices normals


usemtl material_0
f 10//10 16//16 28//28
f 2//2 6//6 11//11
f 5//5 9//9 11//11
f 6//6 10//10 14//14
f 13//13 4//4 15//15
f 6//6 2//2 17//17
f 13//13 7//7 17//17
f 2//2 3//3 18//18
f 5//5 11//11 19//19
f 11//11 6//6 19//19
f 7//7 13//13 20//20
f 15//15 8//8 20//20
f 13//13 15//15 20//20
f 8//8 16//16 20//20
f 16//16 7//7 20//20
f 1//1 8//8 21//21
f 14//14 1//1 21//21
f 12//12 14//14 21//21
f 5//5 19//19 22//22
f 19//19 6//6 22//22
f 9//9 5//5 23//23
f 8//8 15//15 23//23
f 15//15 4//4 23//23
f 4//4 18//18 23//23
f 18//18 9//9 23//23
f 21//21 8//8 23//23
f 12//12 21//21 23//23
f 22//22 12//12 23//23
f 5//5 22//22 23//23
f 4//4 13//13 24//24
f 17//17 2//2 24//24
f 13//13 17//17 24//24
f 2//2 18//18 24//24
f 18//18 4//4 24//24
f 10//10 6//6 25//25
f 16//16 10//10 25//25
f 7//7 16//16 25//25
f 6//6 17//17 25//25
f 17//17 7//7 25//25
f 3//3 2//2 26//26
f 2//2 11//11 26//26
f 11//11 9//9 26//26
f 18//18 3//3 26//26
f 9//9 18//18 26//26
f 6//6 14//14 27//27
f 14//14 12//12 27//27
f 22//22 6//6 27//27
f 12//12 22//22 27//27
f 8//8 1//1 28//28
f 1//1 14//14 28//28
f 14//14 10//10 28//28
f 16//16 8//8 28//28
# 52 faces, 0 coords texture

# End of File
