# Blender v2.79 (sub 0) OBJ File: ''
# www.blender.org
mtllib 100486_link_1_74.mtl
o Shape_IndexedFaceSet.074_Shape_IndexedFaceSet.17902
v 0.637467 0.418309 -0.028615
v 0.574017 0.601629 0.119454
v 0.566964 0.397153 0.119454
v 0.581070 0.566362 -0.028615
v 0.623354 0.425395 0.119454
v 0.630407 0.587519 -0.028615
v 0.581070 0.397153 -0.028615
v 0.616308 0.587519 0.119454
v 0.625116 0.388631 0.018710
v 0.637467 0.460621 0.034868
v 0.566964 0.559317 0.091249
v 0.588116 0.594544 -0.028615
vn 0.0000 0.0000 -1.0000
vn 0.0000 0.0000 1.0000
vn 0.3163 0.9482 0.0301
vn 0.9660 -0.2371 0.1034
vn 0.4247 -0.8480 0.3169
vn 0.3147 -0.8390 -0.4440
vn -0.1728 -0.9848 -0.0165
vn 0.9833 -0.1515 0.1010
vn 0.9987 0.0417 -0.0278
vn 0.9824 0.0427 0.1817
vn 0.9903 0.1023 0.0943
vn -0.9803 0.0338 0.1944
vn -0.9684 0.2284 -0.1005
vn -0.9954 -0.0165 -0.0948
vn -0.9931 0.0000 -0.1169
vn -0.9649 0.2413 -0.1034
vn 0.1638 0.9860 -0.0316
usemtl Shape.17908
s off
f 6//1 4//1 12//1
f 2//2 3//2 5//2
f 1//1 4//1 6//1
f 4//1 1//1 7//1
f 2//2 5//2 8//2
f 6//3 2//3 8//3
f 1//4 5//4 9//4
f 5//5 3//5 9//5
f 7//6 1//6 9//6
f 3//7 7//7 9//7
f 5//8 1//8 10//8
f 1//9 6//9 10//9
f 8//10 5//10 10//10
f 6//11 8//11 10//11
f 3//12 2//12 11//12
f 2//13 4//13 11//13
f 7//14 3//14 11//14
f 4//15 7//15 11//15
f 4//16 2//16 12//16
f 2//17 6//17 12//17
