# Blender v2.79 (sub 0) OBJ File: ''
# www.blender.org
mtllib 100486_link_1_7.mtl
o Shape_IndexedFaceSet.007_Shape_IndexedFaceSet.17835
v -0.532462 -0.772785 -0.206504
v -0.455437 -0.730998 -0.254194
v -0.455437 -0.766244 -0.254194
v -0.518872 -0.730998 -0.028615
v -0.532974 -0.780350 -0.028615
v -0.547076 -0.730998 -0.148509
v -0.462488 -0.780350 -0.360008
v -0.575279 -0.780350 -0.028615
v -0.462488 -0.730998 -0.338826
v -0.561177 -0.730998 -0.028615
v -0.497743 -0.759191 -0.310604
vn -0.7245 0.2719 -0.6334
vn 0.9627 0.0000 0.2707
vn 0.9175 -0.2622 0.2990
vn 0.0000 1.0000 0.0000
vn 0.9978 0.0000 -0.0665
vn 0.4289 -0.8987 0.0912
vn 0.0000 0.0000 1.0000
vn -0.9720 -0.0144 -0.2346
vn -0.3890 -0.9117 -0.1324
vn 0.0000 -1.0000 -0.0000
vn 0.9959 0.0356 -0.0830
vn -0.9554 0.2730 -0.1124
vn -0.9482 0.0908 -0.3044
vn -0.7807 -0.5309 -0.3297
vn -0.7359 0.5928 -0.3271
usemtl Shape.17841
s off
f 9//1 7//1 11//1
f 3//2 2//2 4//2
f 3//3 4//3 5//3
f 4//4 2//4 6//4
f 2//5 3//5 7//5
f 3//6 5//6 7//6
f 5//7 4//7 8//7
f 6//8 1//8 8//8
f 1//9 7//9 8//9
f 7//10 5//10 8//10
f 6//4 2//4 9//4
f 2//11 7//11 9//11
f 4//4 6//4 10//4
f 8//7 4//7 10//7
f 6//12 8//12 10//12
f 1//13 6//13 11//13
f 7//14 1//14 11//14
f 6//15 9//15 11//15
