# Blender v2.79 (sub 0) OBJ File: ''
# www.blender.org
mtllib 100486_link_1_6.mtl
o Shape_IndexedFaceSet.006_Shape_IndexedFaceSet.17834
v -0.400423 -0.733611 -0.402005
v -0.293254 -0.775662 -0.510127
v -0.293254 -0.764059 -0.509063
v -0.159287 -0.759191 -0.515111
v -0.370807 -0.780350 -0.395288
v -0.153646 -0.729959 -0.524851
v -0.349616 -0.730998 -0.395288
v -0.265060 -0.730998 -0.522180
v -0.413112 -0.780350 -0.423486
v -0.187533 -0.780350 -0.522180
vn 0.0000 -1.0000 0.0000
vn -0.1338 0.0574 0.9893
vn 0.4976 -0.2137 0.8407
vn 0.5429 0.1693 0.8225
vn -0.0095 0.9999 -0.0063
vn -0.4954 0.0793 -0.8650
vn -0.0472 0.9984 -0.0314
vn -0.5861 0.0740 -0.8068
vn -0.5403 -0.2259 0.8106
vn -0.5933 0.4635 -0.6582
vn -0.5875 0.1888 -0.7869
vn 0.3956 -0.7190 0.5714
vn 0.4708 -0.3593 -0.8057
vn -0.0236 -0.0371 -0.9990
vn -0.1195 -0.1877 -0.9749
vn -0.0593 -0.9890 -0.1356
usemtl Shape.17840
s off
f 5//1 9//1 10//1
f 1//2 5//2 7//2
f 5//3 4//3 7//3
f 4//4 6//4 7//4
f 7//5 6//5 8//5
f 2//6 3//6 8//6
f 1//7 7//7 8//7
f 3//8 2//8 9//8
f 5//9 1//9 9//9
f 1//10 8//10 9//10
f 8//11 3//11 9//11
f 4//12 5//12 10//12
f 6//13 4//13 10//13
f 8//14 6//14 10//14
f 2//15 8//15 10//15
f 9//16 2//16 10//16
