# Blender v2.79 (sub 0) OBJ File: ''
# www.blender.org
mtllib 100486_link_1_38.mtl
o Shape_IndexedFaceSet.038_Shape_IndexedFaceSet.17866
v -0.133820 0.583144 -0.576646
v -0.245649 0.109622 -0.523440
v -0.250937 0.086913 -0.479885
v -0.250937 0.594576 -0.479885
v -0.131083 0.086913 -0.529242
v -0.250937 0.446449 -0.550376
v -0.145197 0.129235 -0.592678
v -0.138146 0.552254 -0.522197
v -0.250937 0.143342 -0.550376
v -0.250937 0.587522 -0.536287
v -0.145197 0.580468 -0.585622
v -0.236835 0.086913 -0.479885
v -0.131083 0.594576 -0.536287
v -0.236835 0.552254 -0.479885
v -0.131083 0.580468 -0.585622
v -0.145197 0.453553 -0.592678
v -0.136434 0.148436 -0.587642
v -0.138146 0.086913 -0.522197
vn 0.3941 0.0000 0.9191
vn -0.1944 -0.8599 -0.4720
vn -1.0000 0.0000 0.0000
vn -0.1917 -0.8356 -0.5148
vn -0.8736 -0.3800 -0.3042
vn -0.3621 -0.6158 -0.6998
vn -0.3714 0.0000 -0.9285
vn -0.4161 0.0904 -0.9048
vn 0.0000 0.0000 1.0000
vn 0.0000 -1.0000 0.0000
vn 0.4149 0.2243 0.8818
vn 0.8861 0.0064 0.4635
vn -0.0583 0.9906 -0.1239
vn -0.0567 0.9641 -0.2595
vn -0.0119 0.9623 -0.2718
vn 0.3907 0.1302 0.9113
vn 0.0000 0.9583 -0.2857
vn 0.0383 0.9608 -0.2747
vn 1.0000 0.0000 -0.0000
vn -0.3739 0.0515 -0.9260
vn 0.4472 0.0000 -0.8945
vn 0.0000 0.0555 -0.9985
vn 0.8717 -0.2953 -0.3910
vn 0.9945 -0.0118 -0.1036
vn 0.5018 -0.0022 -0.8650
vn 0.7062 0.0000 0.7080
usemtl Shape.17872
s off
f 8//1 12//1 18//1
f 3//2 2//2 5//2
f 3//3 4//3 6//3
f 5//4 2//4 7//4
f 2//5 3//5 9//5
f 3//3 6//3 9//3
f 7//6 2//6 9//6
f 6//7 7//7 9//7
f 6//3 4//3 10//3
f 6//8 10//8 11//8
f 4//9 3//9 12//9
f 3//10 5//10 12//10
f 4//11 8//11 13//11
f 8//12 5//12 13//12
f 10//13 4//13 13//13
f 11//14 10//14 13//14
f 1//15 11//15 13//15
f 8//16 4//16 14//16
f 4//9 12//9 14//9
f 12//1 8//1 14//1
f 11//17 1//17 15//17
f 1//18 13//18 15//18
f 13//19 5//19 15//19
f 7//7 6//7 16//7
f 6//20 11//20 16//20
f 15//21 7//21 16//21
f 11//22 15//22 16//22
f 5//23 7//23 17//23
f 15//24 5//24 17//24
f 7//25 15//25 17//25
f 5//26 8//26 18//26
f 12//10 5//10 18//10
