# Blender v2.79 (sub 0) OBJ File: ''
# www.blender.org
mtllib 100486_link_1_16.mtl
o Shape_IndexedFaceSet.016_Shape_IndexedFaceSet.17844
v 0.270859 -0.750638 -0.543093
v 0.039940 -0.742402 -0.594813
v 0.067692 -0.750816 -0.595781
v 0.281901 0.111939 -0.535250
v 0.256706 -0.723865 -0.501032
v 0.045190 0.072811 -0.557424
v 0.165028 0.072811 -0.578578
v 0.256706 0.072811 -0.501032
v 0.045190 -0.723865 -0.557424
v 0.045190 0.072811 -0.592680
v 0.203328 -0.752622 -0.573308
v 0.277875 -0.748779 -0.498166
v 0.059303 -0.082376 -0.550382
v 0.270819 0.072811 -0.501032
v 0.214390 0.072811 -0.564475
v 0.172984 -0.749001 -0.580580
v 0.066370 -0.723865 -0.550382
v 0.241155 -0.752670 -0.558188
v 0.059303 0.072811 -0.592680
vn 0.0000 0.8264 -0.5631
vn -0.1812 0.7109 0.6795
vn -0.2432 -0.8550 0.4581
vn -0.9903 -0.0000 0.1391
vn -0.0340 0.0028 -0.9994
vn -1.0000 0.0064 0.0000
vn -0.1631 0.9866 0.0000
vn 0.9880 -0.0112 -0.1538
vn -0.1342 0.0000 0.9910
vn -0.2125 -0.8538 0.4753
vn -0.2425 -0.0000 0.9701
vn -0.2576 0.0204 0.9660
vn -0.4465 -0.0000 0.8948
vn 0.0000 0.6583 0.7528
vn 0.9482 0.0093 0.3177
vn 0.0000 0.0035 1.0000
vn 0.2669 0.2372 -0.9341
vn 0.2747 0.0066 -0.9615
vn 0.1428 0.0038 -0.9897
vn 0.1272 -0.5675 -0.8135
vn 0.2336 0.0046 -0.9723
vn -0.2497 -0.1014 0.9630
vn -0.2597 -0.5677 0.7812
vn -0.2510 -0.0028 0.9680
vn -0.3155 -0.0035 0.9489
vn 0.4529 0.0023 -0.8916
vn -0.0218 -0.9984 0.0514
vn 0.0514 -0.9981 0.0333
vn -0.0284 -0.9962 0.0820
vn 0.3944 0.0058 -0.9189
vn 0.3712 0.0050 -0.9286
vn 0.1082 0.5749 -0.8110
vn 0.1322 0.0051 -0.9912
vn 0.0000 0.0038 -1.0000
usemtl Shape.17850
s off
f 10//1 4//1 19//1
f 4//2 6//2 8//2
f 2//3 3//3 9//3
f 6//4 2//4 9//4
f 3//5 2//5 10//5
f 2//6 6//6 10//6
f 6//7 4//7 10//7
f 1//8 4//8 12//8
f 8//9 5//9 12//9
f 9//10 3//10 12//10
f 5//11 8//11 13//11
f 8//12 6//12 13//12
f 6//13 9//13 13//13
f 4//14 8//14 14//14
f 12//15 4//15 14//15
f 8//16 12//16 14//16
f 7//17 4//17 15//17
f 11//18 7//18 15//18
f 3//19 7//19 16//19
f 11//20 3//20 16//20
f 7//21 11//21 16//21
f 12//22 5//22 17//22
f 9//23 12//23 17//23
f 5//24 13//24 17//24
f 13//25 9//25 17//25
f 4//26 1//26 18//26
f 3//27 11//27 18//27
f 1//28 12//28 18//28
f 12//29 3//29 18//29
f 15//30 4//30 18//30
f 11//31 15//31 18//31
f 4//32 7//32 19//32
f 7//33 3//33 19//33
f 3//34 10//34 19//34
