# Blender v2.79 (sub 0) OBJ File: ''
# www.blender.org
mtllib 100486_link_1_48.mtl
o Shape_IndexedFaceSet.048_Shape_IndexedFaceSet.17876
v -0.413087 0.143325 0.422653
v -0.194566 0.277287 0.528383
v -0.194566 0.171560 0.556611
v -0.363741 0.079862 0.373287
v -0.363741 0.277287 0.373287
v -0.194566 0.079862 0.493140
v -0.377847 0.277287 0.422653
v -0.286230 0.079862 0.493140
v -0.201619 0.277287 0.486070
v -0.286230 0.157433 0.521349
v -0.441299 0.122203 0.373287
v -0.413087 0.277287 0.380357
v -0.201619 0.122203 0.556611
v -0.272124 0.277287 0.500192
v -0.398981 0.079862 0.401496
v -0.293283 0.122203 0.514297
vn -0.5658 -0.4421 0.6961
vn 1.0000 0.0000 0.0000
vn -0.0000 1.0000 0.0000
vn 0.0000 -1.0000 0.0000
vn 0.5711 0.0000 -0.8209
vn 0.9860 0.0293 -0.1643
vn 0.5781 -0.0086 -0.8159
vn -0.6171 0.1623 0.7700
vn -0.0000 0.0000 -1.0000
vn -0.7531 0.1981 0.6274
vn -0.1415 0.0707 -0.9874
vn -0.8843 0.1406 0.4452
vn 0.9699 -0.1386 0.2002
vn 0.0000 -0.8319 0.5549
vn -0.3656 0.0522 0.9293
vn -0.3313 0.2434 0.9116
vn -0.3787 0.2039 0.9028
vn -0.5786 0.2073 0.7888
vn -0.4111 -0.7531 -0.5136
vn -0.7380 -0.3553 0.5737
vn -0.6112 -0.0359 0.7907
vn -0.3713 -0.4638 0.8044
vn -0.4171 -0.0974 0.9036
vn -0.6048 -0.3696 0.7054
usemtl Shape.17882
s off
f 15//1 8//1 16//1
f 2//2 3//2 6//2
f 2//3 5//3 7//3
f 4//4 6//4 8//4
f 4//5 5//5 9//5
f 5//3 2//3 9//3
f 2//6 6//6 9//6
f 6//7 4//7 9//7
f 7//8 1//8 10//8
f 5//9 4//9 11//9
f 1//10 7//10 12//10
f 7//3 5//3 12//3
f 5//11 11//11 12//11
f 11//12 1//12 12//12
f 6//13 3//13 13//13
f 8//14 6//14 13//14
f 3//15 10//15 13//15
f 3//16 2//16 14//16
f 2//3 7//3 14//3
f 10//17 3//17 14//17
f 7//18 10//18 14//18
f 4//4 8//4 15//4
f 11//19 4//19 15//19
f 1//20 11//20 15//20
f 10//21 1//21 16//21
f 8//22 13//22 16//22
f 13//23 10//23 16//23
f 1//24 15//24 16//24
