# Blender v2.79 (sub 0) OBJ File: ''
# www.blender.org
mtllib 100486_link_1_33.mtl
o Shape_IndexedFaceSet.033_Shape_IndexedFaceSet.17861
v 0.429944 -0.748239 0.429065
v 0.280176 0.112957 0.526548
v 0.302358 0.115528 0.519517
v 0.432977 0.086913 0.359185
v 0.277884 -0.723943 0.479035
v 0.432977 -0.723943 0.359185
v 0.445001 0.111797 0.414071
v 0.287498 -0.751065 0.526764
v 0.277884 0.086913 0.479035
v 0.332516 0.116182 0.504505
v 0.332790 -0.748694 0.503838
v 0.444255 -0.745096 0.414299
v 0.274938 -0.738675 0.524286
v 0.423180 0.115985 0.436494
vn 0.6099 -0.0020 0.7925
vn -0.6115 -0.0000 -0.7913
vn 0.9768 0.0000 -0.2140
vn 0.3019 0.0028 0.9533
vn -0.2076 -0.9211 -0.3293
vn -0.3227 -0.8494 -0.4176
vn -0.3396 0.8316 -0.4395
vn 0.4456 -0.0002 0.8952
vn 0.4516 -0.0005 0.8922
vn 0.1402 -0.9743 0.1763
vn -0.1360 -0.9339 -0.3306
vn 0.7181 -0.0004 0.6959
vn 0.9796 -0.0009 -0.2008
vn -0.1949 -0.0014 0.9808
vn -0.6476 -0.7112 -0.2737
vn -0.9990 0.0060 0.0449
vn -0.9979 -0.0000 -0.0650
vn -0.1988 0.9380 -0.2841
vn -0.2510 0.8951 -0.3684
vn 0.7166 -0.0004 0.6975
vn -0.2030 0.9078 -0.3671
vn -0.0683 0.9932 -0.0939
vn 0.6001 -0.0004 0.7999
usemtl Shape.17867
s off
f 11//1 1//1 14//1
f 5//2 4//2 6//2
f 6//3 4//3 7//3
f 3//4 2//4 8//4
f 6//5 1//5 8//5
f 5//6 6//6 8//6
f 2//7 4//7 9//7
f 4//2 5//2 9//2
f 3//8 8//8 10//8
f 10//9 8//9 11//9
f 8//10 1//10 11//10
f 1//11 6//11 12//11
f 7//12 1//12 12//12
f 6//13 7//13 12//13
f 8//14 2//14 13//14
f 5//15 8//15 13//15
f 2//16 9//16 13//16
f 9//17 5//17 13//17
f 2//18 3//18 14//18
f 4//19 2//19 14//19
f 1//20 7//20 14//20
f 7//21 4//21 14//21
f 3//22 10//22 14//22
f 10//23 11//23 14//23
