# Blender v2.79 (sub 0) OBJ File: ''
# www.blender.org
mtllib 100486_link_1_55.mtl
o Shape_IndexedFaceSet.055_Shape_IndexedFaceSet.17883
v -0.462496 0.305491 -0.331783
v -0.518051 0.590116 -0.143403
v -0.538240 0.593296 -0.140904
v -0.462496 0.587485 -0.352917
v -0.561168 0.432445 -0.169656
v -0.497743 0.305491 -0.148522
v -0.455425 0.587485 -0.261275
v -0.532970 0.305491 -0.134379
v -0.504793 0.432445 -0.310626
v -0.455425 0.305491 -0.254215
v -0.540020 0.580441 -0.204910
v -0.504793 0.573398 -0.134379
v -0.455425 0.460589 -0.367037
v -0.532970 0.305491 -0.176716
v -0.561168 0.467632 -0.134379
v -0.497743 0.587485 -0.303566
v -0.497743 0.495835 -0.141462
v -0.554119 0.587485 -0.155559
vn -0.7930 0.5290 -0.3021
vn 0.1631 0.9845 0.0647
vn 0.0630 0.9980 -0.0049
vn 0.0000 -1.0000 0.0000
vn -0.9276 0.0442 -0.3710
vn 0.1893 0.5784 0.7935
vn 0.6460 0.6893 0.3279
vn 0.3723 -0.0392 0.9273
vn 0.9950 0.0640 -0.0768
vn -0.7153 -0.1237 -0.6877
vn -0.7595 0.0300 -0.6498
vn 0.9937 -0.0659 -0.0906
vn 1.0000 0.0000 -0.0000
vn -0.9762 -0.2168 0.0000
vn -0.8864 -0.2282 -0.4028
vn -0.9129 -0.1825 -0.3651
vn -0.9711 -0.1689 0.1685
vn -0.1461 0.0779 0.9862
vn 0.0000 0.0000 1.0000
vn -0.0764 0.9956 -0.0546
vn -0.8121 0.0633 -0.5800
vn -0.9191 0.0595 -0.3896
vn 0.9283 -0.0138 0.3717
vn 0.9408 0.0085 0.3388
vn 0.9288 0.0509 0.3670
vn 0.5121 -0.0318 0.8583
vn -0.9566 0.0692 -0.2832
vn -0.9975 0.0499 -0.0497
vn -0.7008 0.1639 0.6943
vn -0.2601 0.9605 -0.0991
usemtl Shape.17889
s off
f 16//1 11//1 18//1
f 3//2 2//2 7//2
f 4//3 3//3 7//3
f 1//4 6//4 8//4
f 6//4 1//4 10//4
f 9//5 5//5 11//5
f 2//6 3//6 12//6
f 7//7 2//7 12//7
f 8//8 6//8 12//8
f 4//9 7//9 13//9
f 1//10 9//10 13//10
f 9//11 4//11 13//11
f 10//12 1//12 13//12
f 7//13 10//13 13//13
f 1//4 8//4 14//4
f 8//14 5//14 14//14
f 9//15 1//15 14//15
f 5//16 9//16 14//16
f 5//17 8//17 15//17
f 12//18 3//18 15//18
f 8//19 12//19 15//19
f 3//20 4//20 16//20
f 4//21 9//21 16//21
f 9//22 11//22 16//22
f 6//23 10//23 17//23
f 10//24 7//24 17//24
f 7//25 12//25 17//25
f 12//26 6//26 17//26
f 11//27 5//27 18//27
f 5//28 15//28 18//28
f 15//29 3//29 18//29
f 3//30 16//30 18//30
