####
#
# OBJ File Generated by Meshlab
#
####
# Object 100486_link_0_1.obj
#
# Vertices: 29
# Faces: 54
#
####
mtllib ./100486_link_0_1.obj.mtl

vn 0.319482 -0.637585 -0.701011
v -0.566216 0.131462 0.110571
vn -0.345432 0.326853 0.879684
v -0.563394 0.096890 0.323288
vn 0.319540 0.507199 0.800402
v -0.529995 0.100742 0.324742
vn 0.234773 0.955254 0.179918
v -0.568551 0.238653 0.138399
vn 0.849432 -0.367294 -0.378895
v -0.501245 0.037062 0.282338
vn -0.793274 -0.605931 -0.059704
v -0.626098 0.089884 0.221092
vn -0.905117 0.416061 -0.087502
v -0.624697 0.229457 0.142304
vn 0.063348 -0.883845 -0.463470
v -0.564933 0.001825 0.256025
vn 0.964253 0.062432 -0.257523
v -0.518051 0.217035 0.119548
vn -0.615573 -0.283050 -0.735495
v -0.605559 0.176525 0.105110
vn 0.985422 0.115621 0.124798
v -0.490404 0.095604 0.304185
vn -0.691792 0.243791 0.679698
v -0.603800 0.110923 0.291977
vn 0.550292 -0.513840 -0.658139
v -0.547345 0.172049 0.095478
vn -0.256487 0.878408 0.403255
v -0.601692 0.248034 0.190881
vn 0.539834 -0.733024 -0.413830
v -0.528087 0.025390 0.277879
vn -0.450470 -0.485528 0.749226
v -0.584361 0.051053 0.303725
vn -0.745975 -0.574946 -0.336093
v -0.598531 0.063721 0.195152
vn -0.965375 0.135644 0.222825
v -0.633881 0.156149 0.218769
vn -0.936616 -0.215302 -0.276398
v -0.632540 0.130818 0.181114
vn 0.940295 -0.213890 0.264759
v -0.499984 0.064819 0.300598
vn 0.815249 0.544524 0.197135
v -0.522987 0.241052 0.139413
vn 0.194868 0.718033 0.668173
v -0.580415 0.191534 0.253078
vn 0.615736 0.020071 -0.787697
v -0.531634 0.191877 0.102839
vn 0.089568 -0.715711 -0.692629
v -0.586855 0.116724 0.127790
vn -0.751011 0.435036 0.496714
v -0.616430 0.178666 0.238614
vn -0.590720 -0.706952 0.388933
v -0.570426 0.031401 0.292747
vn -0.947418 -0.153633 0.280706
v -0.622929 0.085983 0.260967
vn -0.556873 0.330354 -0.762075
v -0.614704 0.201660 0.114832
vn 0.162774 0.783674 0.599466
v -0.507321 0.119370 0.307991
# 29 vertices, 0 vertices normals


usemtl material_0
f 11//11 21//21 29//29
f 1//1 10//10 13//13
f 4//4 7//7 14//14
f 1//1 13//13 15//15
f 13//13 5//5 15//15
f 3//3 2//2 16//16
f 2//2 12//12 16//16
f 17//17 6//6 19//19
f 10//10 17//17 19//19
f 18//18 7//7 19//19
f 5//5 9//9 20//20
f 11//11 3//3 20//20
f 15//15 5//5 20//20
f 3//3 16//16 20//20
f 9//9 4//4 21//21
f 20//20 9//9 21//21
f 11//11 20//20 21//21
f 2//2 3//3 22//22
f 3//3 4//4 22//22
f 12//12 2//2 22//22
f 4//4 14//14 22//22
f 4//4 9//9 23//23
f 9//9 5//5 23//23
f 5//5 13//13 23//23
f 13//13 10//10 23//23
f 10//10 1//1 24//24
f 1//1 15//15 24//24
f 15//15 8//8 24//24
f 8//8 17//17 24//24
f 17//17 10//10 24//24
f 14//14 7//7 25//25
f 7//7 18//18 25//25
f 18//18 12//12 25//25
f 12//12 22//22 25//25
f 22//22 14//14 25//25
f 8//8 15//15 26//26
f 16//16 6//6 26//26
f 17//17 8//8 26//26
f 6//6 17//17 26//26
f 15//15 20//20 26//26
f 20//20 16//16 26//26
f 6//6 16//16 27//27
f 16//16 12//12 27//27
f 12//12 18//18 27//27
f 19//19 6//6 27//27
f 18//18 19//19 27//27
f 7//7 4//4 28//28
f 19//19 7//7 28//28
f 10//10 19//19 28//28
f 4//4 23//23 28//28
f 23//23 10//10 28//28
f 4//4 3//3 29//29
f 3//3 11//11 29//29
f 21//21 4//4 29//29
# 54 faces, 0 coords texture

# End of File
