# Blender v2.79 (sub 0) OBJ File: ''
# www.blender.org
mtllib 100486_link_1_51.mtl
o Shape_IndexedFaceSet.051_Shape_IndexedFaceSet.17879
v 0.277886 0.086925 0.479033
v 0.440041 0.157408 0.450860
v 0.440041 0.136278 0.450860
v 0.432962 0.213829 0.359222
v 0.291997 0.213829 0.521330
v 0.440041 0.086925 0.359222
v 0.291997 0.086925 0.521330
v 0.277886 0.213829 0.479033
v 0.277886 0.136278 0.549541
v 0.440041 0.213829 0.415606
v 0.440041 0.086925 0.415606
v 0.341345 0.171507 0.521330
v 0.355440 0.129235 0.514287
vn 0.4127 -0.0141 0.9107
vn 1.0000 0.0000 0.0000
vn -0.5939 -0.0331 -0.8038
vn 0.0000 -1.0000 0.0000
vn -0.6114 0.0000 -0.7913
vn 0.0000 1.0000 0.0000
vn -0.9116 0.2765 0.3041
vn -0.8644 -0.4120 0.2884
vn -1.0000 0.0000 0.0000
vn 0.9907 0.0553 -0.1244
vn 0.2493 0.2907 0.9238
vn 0.4811 0.5610 0.6737
vn 0.5630 0.4379 0.7009
vn 0.5999 0.0000 0.8001
vn 0.3524 -0.3865 0.8523
vn 0.5499 -0.4855 0.6796
vn 0.4681 -0.5927 0.6554
vn 0.5857 0.0606 0.8082
usemtl Shape.17885
s off
f 12//1 9//1 13//1
f 2//2 3//2 6//2
f 1//3 4//3 6//3
f 1//4 6//4 7//4
f 4//5 1//5 8//5
f 5//6 4//6 8//6
f 5//7 8//7 9//7
f 1//8 7//8 9//8
f 8//9 1//9 9//9
f 4//6 5//6 10//6
f 2//2 6//2 10//2
f 6//10 4//10 10//10
f 6//2 3//2 11//2
f 7//4 6//4 11//4
f 5//11 9//11 12//11
f 10//12 5//12 12//12
f 2//13 10//13 12//13
f 3//14 2//14 13//14
f 9//15 7//15 13//15
f 11//16 3//16 13//16
f 7//17 11//17 13//17
f 2//18 12//18 13//18
