# Blender v2.79 (sub 0) OBJ File: ''
# www.blender.org
mtllib 100486_link_1_37.mtl
o Shape_IndexedFaceSet.037_Shape_IndexedFaceSet.17865
v -0.335550 0.566361 -0.409365
v -0.250949 0.086913 -0.472847
v -0.342602 0.129235 -0.486918
v -0.342602 0.086913 -0.409365
v -0.250949 0.594576 -0.479850
v -0.342602 0.580468 -0.479850
v -0.258009 0.122181 -0.543332
v -0.250949 0.580468 -0.536277
v -0.293267 0.446449 -0.529222
v -0.321447 0.086913 -0.416420
v -0.258009 0.524039 -0.465779
v -0.341328 0.594479 -0.431803
v -0.279164 0.594576 -0.522154
v -0.252625 0.096327 -0.513694
v -0.300292 0.129235 -0.522154
vn -0.4013 -0.7251 -0.5596
vn -1.0000 0.0000 -0.0000
vn 1.0000 0.0000 -0.0000
vn -0.2209 0.0184 -0.9751
vn -0.6918 0.0113 -0.7220
vn 0.3164 -0.0047 0.9486
vn -0.0000 -1.0000 0.0000
vn 0.6187 0.0937 0.7801
vn 0.8802 0.0065 0.4745
vn 0.5903 0.0055 0.8072
vn 0.6249 -0.0025 0.7807
vn -0.9639 0.0142 0.2660
vn 0.3658 0.6253 0.6894
vn -0.9997 0.0036 0.0254
vn 0.3418 0.9117 -0.2279
vn -0.4128 0.0826 -0.9071
vn -0.5666 0.0930 -0.8187
vn -0.0008 1.0000 0.0005
vn -0.3669 0.8956 -0.2514
vn -0.1498 -0.9648 -0.2162
vn -0.4206 -0.7964 -0.4346
vn 0.9991 -0.0054 -0.0422
vn 0.9819 -0.0122 -0.1890
vn -0.4491 -0.0100 -0.8934
vn -0.6399 -0.0029 -0.7684
vn -0.4253 -0.7473 -0.5106
usemtl Shape.17871
s off
f 7//1 14//1 15//1
f 3//2 4//2 6//2
f 5//3 2//3 8//3
f 8//4 7//4 9//4
f 3//5 6//5 9//5
f 1//6 4//6 10//6
f 4//7 2//7 10//7
f 5//8 1//8 11//8
f 2//9 5//9 11//9
f 1//10 10//10 11//10
f 10//11 2//11 11//11
f 4//12 1//12 12//12
f 1//13 5//13 12//13
f 6//14 4//14 12//14
f 5//15 8//15 13//15
f 8//16 9//16 13//16
f 9//17 6//17 13//17
f 12//18 5//18 13//18
f 6//19 12//19 13//19
f 2//20 4//20 14//20
f 4//21 3//21 14//21
f 8//22 2//22 14//22
f 7//23 8//23 14//23
f 9//24 7//24 15//24
f 3//25 9//25 15//25
f 14//26 3//26 15//26
