# Blender v2.79 (sub 0) OBJ File: ''
# www.blender.org
mtllib 693_link_0_27.mtl
o Shape_IndexedFaceSet.027_Shape_IndexedFaceSet.15648
v -0.015614 0.244679 -0.506409
v -0.014660 0.206526 -0.481617
v -0.014660 0.215105 -0.484480
v -0.025150 0.180797 -0.484480
v -0.024196 0.142644 -0.481617
v -0.025150 0.219870 -0.507365
v -0.014660 0.234182 -0.507365
v -0.024196 0.198895 -0.507365
v -0.015614 0.181756 -0.481617
v -0.025150 0.216054 -0.498778
v -0.025150 0.142644 -0.482575
v -0.025150 0.170310 -0.481617
v -0.016568 0.217962 -0.487341
v -0.018476 0.239905 -0.505454
v -0.014660 0.239905 -0.500688
v -0.014660 0.190335 -0.481617
v -0.017523 0.200803 -0.481617
v -0.016568 0.241813 -0.503549
v -0.014660 0.244679 -0.507365
vn 1.0000 0.0000 0.0000
vn 0.8387 -0.2267 -0.4952
vn 0.0000 0.0000 -1.0000
vn 0.0000 0.0000 1.0000
vn 0.9068 -0.1990 -0.3715
vn -1.0000 0.0000 -0.0000
vn 0.6743 -0.3074 -0.6715
vn -0.9891 -0.0450 -0.1401
vn -0.7084 -0.0244 0.7054
vn -0.7091 0.2972 -0.6394
vn -0.9439 0.3017 0.1341
vn -0.3997 0.5015 0.7673
vn 0.9767 -0.1086 -0.1850
vn -0.5347 0.2675 0.8016
vn -0.8001 0.2255 0.5559
vn -0.7251 0.1814 0.6643
vn -0.6527 0.2722 0.7071
vn -0.7964 0.2308 0.5591
vn -0.7752 0.3550 0.5225
vn -0.8141 0.3562 0.4587
vn -0.8018 0.5342 0.2679
vn -0.2427 0.7245 0.6451
vn -0.5613 0.4652 0.6845
vn -0.6782 0.2867 -0.6767
vn 0.5036 0.7028 0.5025
usemtl Shape.15662
s off
f 15//1 7//1 19//1
f 3//1 2//1 7//1
f 7//2 5//2 8//2
f 6//3 7//3 8//3
f 2//4 5//4 9//4
f 5//5 7//5 9//5
f 6//6 4//6 10//6
f 4//6 6//6 11//6
f 8//7 5//7 11//7
f 6//8 8//8 11//8
f 5//4 2//4 12//4
f 4//6 11//6 12//6
f 11//9 5//9 12//9
f 1//10 6//10 14//10
f 6//11 10//11 14//11
f 3//1 7//1 15//1
f 13//12 3//12 15//12
f 7//1 2//1 16//1
f 2//4 9//4 16//4
f 9//13 7//13 16//13
f 2//14 3//14 17//14
f 10//15 4//15 17//15
f 12//4 2//4 17//4
f 4//16 12//16 17//16
f 3//17 13//17 17//17
f 13//18 10//18 17//18
f 10//19 13//19 18//19
f 14//20 10//20 18//20
f 1//21 14//21 18//21
f 15//22 1//22 18//22
f 13//23 15//23 18//23
f 6//24 1//24 19//24
f 7//3 6//3 19//3
f 1//25 15//25 19//25
