# Blender v2.79 (sub 0) OBJ File: ''
# www.blender.org
mtllib 693_link_1_135.mtl
o Shape_IndexedFaceSet.135_Shape_IndexedFaceSet.564
v -0.058265 0.216030 -0.419276
v 0.086693 0.260521 -0.417659
v 0.079268 0.238491 -0.391905
v -0.124002 0.258529 -0.392533
v 0.083522 0.204573 -0.391905
v -0.077605 0.204573 -0.391905
v 0.070800 0.208819 -0.421587
v -0.098151 0.258028 -0.420688
v -0.098794 0.242732 -0.421587
v 0.081610 0.259199 -0.421319
v -0.094540 0.259696 -0.391905
v -0.115749 0.234250 -0.396150
v -0.036427 0.209443 -0.418964
v -0.077605 0.204573 -0.396150
v 0.083522 0.208819 -0.413103
vn 0.5512 -0.1139 -0.8266
vn 0.9236 0.1158 0.3654
vn 0.0000 0.0000 1.0000
vn -0.0247 -0.1233 -0.9921
vn -0.7341 0.0706 -0.6753
vn -0.0073 0.9437 -0.3307
vn 0.0010 0.0051 -1.0000
vn -0.0039 0.0588 -0.9983
vn 0.0907 0.7437 0.6623
vn -0.0211 -0.0065 0.9998
vn -0.0125 0.9983 -0.0563
vn -0.0384 0.9979 -0.0530
vn -0.2868 -0.2358 0.9285
vn -0.7894 -0.1810 -0.5865
vn -0.0250 -0.1298 -0.9912
vn -0.0112 -0.9736 -0.2281
vn 0.0000 -1.0000 0.0000
vn 0.0038 -0.9897 -0.1432
vn -0.3918 -0.6510 -0.6502
vn -0.6141 -0.7893 0.0000
vn -0.5096 -0.6549 -0.5580
vn -0.2279 -0.7831 -0.5786
vn 0.9980 -0.0623 -0.0125
vn 0.1299 -0.9722 -0.1947
vn 0.5991 -0.1067 -0.7935
usemtl Shape.573
s off
f 7//1 10//1 15//1
f 2//2 3//2 5//2
f 5//3 3//3 6//3
f 7//4 1//4 9//4
f 4//5 8//5 9//5
f 8//6 2//6 10//6
f 7//7 9//7 10//7
f 9//8 8//8 10//8
f 3//9 2//9 11//9
f 6//3 3//3 11//3
f 4//10 6//10 11//10
f 2//11 8//11 11//11
f 8//12 4//12 11//12
f 6//13 4//13 12//13
f 4//14 9//14 12//14
f 1//15 7//15 13//15
f 13//16 7//16 14//16
f 5//17 6//17 14//17
f 7//18 5//18 14//18
f 9//19 1//19 14//19
f 6//20 12//20 14//20
f 12//21 9//21 14//21
f 1//22 13//22 14//22
f 2//23 5//23 15//23
f 5//24 7//24 15//24
f 10//25 2//25 15//25
