# Blender v2.79 (sub 0) OBJ File: ''
# www.blender.org
mtllib 693_link_1_118.mtl
o Shape_IndexedFaceSet.118_Shape_IndexedFaceSet.547
v 0.058065 0.539555 0.180529
v -0.115747 0.535314 0.146610
v -0.115747 0.535314 0.150854
v 0.134381 0.535314 0.146610
v -0.115747 0.539555 0.146610
v -0.030934 0.535314 0.184773
v 0.134381 0.539555 0.146610
v -0.047902 0.539555 0.180529
vn 0.0000 0.7074 0.7069
vn 0.0000 -1.0000 0.0000
vn -1.0000 0.0000 0.0000
vn 0.0000 0.0000 -1.0000
vn 0.0580 -0.9662 0.2514
vn 0.4061 0.0000 0.9138
vn 0.0000 1.0000 -0.0000
vn -0.3332 0.6669 0.6665
vn -0.3245 -0.4863 0.8113
usemtl Shape.556
s off
f 6//1 1//1 8//1
f 3//2 2//2 4//2
f 2//3 3//3 5//3
f 4//4 2//4 5//4
f 3//2 4//2 6//2
f 4//5 1//5 6//5
f 1//6 4//6 7//6
f 5//7 1//7 7//7
f 4//4 5//4 7//4
f 1//7 5//7 8//7
f 5//8 3//8 8//8
f 3//9 6//9 8//9
