# Blender v2.79 (sub 0) OBJ File: ''
# www.blender.org
mtllib 693_link_1_117.mtl
o Shape_IndexedFaceSet.117_Shape_IndexedFaceSet.546
v 0.181014 0.539557 0.125402
v 0.142865 0.535317 0.070285
v -0.001264 0.535317 0.091494
v 0.160660 0.560934 0.069744
v -0.001264 0.548035 0.146603
v 0.193244 0.560135 0.144747
v 0.138622 0.535317 0.146603
v 0.197987 0.535317 0.078779
v -0.001264 0.535317 0.146603
v 0.196524 0.560038 0.072433
v 0.138622 0.560753 0.146603
v -0.001264 0.548035 0.129638
v -0.001264 0.539557 0.091494
v 0.189500 0.548035 0.146603
vn -0.0000 0.0000 1.0000
vn 0.0000 -1.0000 -0.0000
vn 0.1731 -0.9732 0.1515
vn -1.0000 -0.0000 0.0000
vn 0.0728 -0.0716 -0.9948
vn 0.0250 0.9997 -0.0002
vn 0.1479 -0.2377 -0.9600
vn 0.9965 0.0706 0.0451
vn 0.0115 0.9999 0.0057
vn -0.0878 0.9959 -0.0228
vn -0.0905 0.9959 0.0000
vn -0.1456 0.0000 -0.9893
vn -0.1429 0.0784 -0.9866
vn -0.1561 0.9642 -0.2143
vn 0.2329 -0.9315 0.2793
vn 0.3659 -0.9053 0.2156
vn 0.9486 -0.2676 0.1689
vn 0.0352 0.1409 0.9894
usemtl Shape.555
s off
f 11//1 7//1 14//1
f 3//2 2//2 7//2
f 7//2 2//2 8//2
f 1//3 7//3 8//3
f 5//4 3//4 9//4
f 7//1 5//1 9//1
f 3//2 7//2 9//2
f 2//5 4//5 10//5
f 4//6 6//6 10//6
f 8//7 2//7 10//7
f 6//8 8//8 10//8
f 6//9 4//9 11//9
f 5//1 7//1 11//1
f 3//4 5//4 12//4
f 11//10 4//10 12//10
f 5//11 11//11 12//11
f 2//12 3//12 13//12
f 4//13 2//13 13//13
f 3//4 12//4 13//4
f 12//14 4//14 13//14
f 7//15 1//15 14//15
f 1//16 8//16 14//16
f 8//17 6//17 14//17
f 6//18 11//18 14//18
