# Blender v2.79 (sub 0) OBJ File: ''
# www.blender.org
mtllib 693_link_0_67.mtl
o Shape_IndexedFaceSet.067_Shape_IndexedFaceSet.15688
v 0.025388 0.190318 -0.474941
v 0.006324 0.178873 -0.472082
v 0.016812 0.162681 -0.472082
v 0.006324 0.192224 -0.475895
v 0.031113 0.157902 -0.475895
v 0.031113 0.166487 -0.471128
v 0.010137 0.194131 -0.471128
v 0.030157 0.142644 -0.471128
v 0.006324 0.208442 -0.475895
v 0.031113 0.182686 -0.475895
v 0.006324 0.178873 -0.471128
v 0.009183 0.208442 -0.474941
v 0.030157 0.142644 -0.472082
v 0.006324 0.194131 -0.471128
vn -0.3018 0.3013 0.9045
vn -0.3903 -0.2528 -0.8853
vn 0.2877 0.2183 0.9325
vn 0.9966 -0.0400 0.0720
vn 0.0000 0.0000 1.0000
vn -1.0000 -0.0000 -0.0000
vn -0.0000 0.0000 -1.0000
vn 1.0000 0.0000 0.0000
vn 0.4725 0.2488 0.8455
vn -0.8393 -0.5437 0.0000
vn -0.8270 -0.5440 0.1420
vn 0.2956 0.2643 0.9180
vn 0.5656 0.5057 -0.6515
vn 0.3028 0.2914 -0.9074
vn -0.3714 -0.2473 -0.8949
vn -0.2963 -0.2140 -0.9308
vn -0.8323 -0.5543 0.0000
vn 0.9980 -0.0625 0.0000
vn 0.0000 0.2575 0.9663
usemtl Shape.15702
s off
f 12//1 9//1 14//1
f 3//2 2//2 4//2
f 6//3 1//3 7//3
f 5//4 6//4 8//4
f 6//5 7//5 8//5
f 4//6 2//6 9//6
f 5//7 4//7 9//7
f 6//8 5//8 10//8
f 1//9 6//9 10//9
f 5//7 9//7 10//7
f 2//10 3//10 11//10
f 3//11 8//11 11//11
f 8//5 7//5 11//5
f 9//6 2//6 11//6
f 7//12 1//12 12//12
f 1//13 10//13 12//13
f 10//14 9//14 12//14
f 3//15 4//15 13//15
f 4//16 5//16 13//16
f 8//17 3//17 13//17
f 5//18 8//18 13//18
f 11//5 7//5 14//5
f 9//6 11//6 14//6
f 7//19 12//19 14//19
