# Blender v2.79 (sub 0) OBJ File: ''
# www.blender.org
mtllib 693_link_0_88.mtl
o Shape_IndexedFaceSet.088_Shape_IndexedFaceSet.15709
v -0.007990 0.240862 -0.535019
v -0.023242 0.168391 -0.535019
v -0.023242 0.168391 -0.534065
v 0.006319 0.237998 -0.535019
v -0.016567 0.169351 -0.535973
v -0.017519 0.213196 -0.535973
v 0.006319 0.247527 -0.535973
v 0.006319 0.238942 -0.534065
v -0.009888 0.238942 -0.534065
v -0.017519 0.168391 -0.534065
v -0.018471 0.212251 -0.534065
v 0.005364 0.249447 -0.534065
v -0.008933 0.238942 -0.535973
v -0.022288 0.179840 -0.535973
v 0.006319 0.237998 -0.535973
vn 1.0000 0.0000 0.0000
vn 0.0000 0.0000 -1.0000
vn 0.0000 0.0000 1.0000
vn 0.0000 -1.0000 0.0000
vn 0.9045 -0.3057 0.2975
vn 0.0700 -0.9047 -0.4202
vn 0.9031 -0.3052 0.3020
vn -0.9058 0.2913 -0.3077
vn -0.3211 0.5824 -0.7468
vn 0.9223 0.0838 0.3772
vn -0.5014 0.7280 0.4676
vn -0.3036 0.5394 -0.7854
vn -0.7458 0.5518 -0.3733
vn -0.8569 0.2858 -0.4289
vn -0.9965 0.0830 0.0000
vn -0.1310 -0.0715 -0.9888
vn -0.9829 0.1069 0.1501
vn -0.9114 0.1303 -0.3902
vn 0.9487 -0.3163 0.0000
usemtl Shape.15723
s off
f 7//1 4//1 15//1
f 5//2 6//2 7//2
f 4//1 7//1 8//1
f 3//3 8//3 9//3
f 3//4 2//4 10//4
f 5//5 4//5 10//5
f 2//6 5//6 10//6
f 4//7 8//7 10//7
f 8//3 3//3 10//3
f 9//8 6//8 11//8
f 3//3 9//3 11//3
f 7//9 1//9 12//9
f 8//10 7//10 12//10
f 1//11 9//11 12//11
f 9//3 8//3 12//3
f 7//2 6//2 13//2
f 1//12 7//12 13//12
f 9//13 1//13 13//13
f 6//14 9//14 13//14
f 2//15 3//15 14//15
f 5//16 2//16 14//16
f 6//2 5//2 14//2
f 3//17 11//17 14//17
f 11//18 6//18 14//18
f 4//19 5//19 15//19
f 5//2 7//2 15//2
