# Blender v2.79 (sub 0) OBJ File: ''
# www.blender.org
mtllib 693_link_0_131.mtl
o Shape_IndexedFaceSet.131_Shape_IndexedFaceSet.15752
v 0.025386 0.237990 -0.532158
v 0.008227 0.241806 -0.533112
v 0.008227 0.241806 -0.532158
v 0.033972 0.162687 -0.533112
v 0.033017 0.163634 -0.532158
v 0.033017 0.215108 -0.533112
v 0.037788 0.182708 -0.532158
v 0.019671 0.246570 -0.533112
v 0.008227 0.252299 -0.532158
v 0.037788 0.162687 -0.533112
vn 0.4634 0.0422 -0.8851
vn 0.0000 0.0000 1.0000
vn -0.9532 -0.3023 0.0000
vn -0.7992 -0.2600 -0.5419
vn 0.0000 0.0000 -1.0000
vn 0.3556 0.0798 0.9312
vn 0.4113 0.1744 -0.8947
vn -1.0000 -0.0000 0.0000
vn 0.1983 0.2378 0.9508
vn -0.0377 0.0905 -0.9952
vn 0.0000 -0.7097 0.7045
vn 0.1869 -0.0468 0.9813
usemtl Shape.15766
s off
f 6//1 7//1 10//1
f 1//2 3//2 5//2
f 3//3 2//3 5//3
f 2//4 4//4 5//4
f 4//5 2//5 6//5
f 1//2 5//2 7//2
f 6//6 1//6 7//6
f 6//5 2//5 8//5
f 1//7 6//7 8//7
f 3//2 1//2 9//2
f 2//8 3//8 9//8
f 1//9 8//9 9//9
f 8//10 2//10 9//10
f 5//11 4//11 10//11
f 4//5 6//5 10//5
f 7//12 5//12 10//12
