# Blender v2.79 (sub 0) OBJ File: ''
# www.blender.org
mtllib 693_link_1_0.mtl
o Shape_IndexedFaceSet_Shape_IndexedFaceSet.429
v 0.063425 0.304445 -0.423802
v 0.071508 0.301083 -0.423649
v 0.053829 0.259693 -0.455502
v -0.064879 0.306336 -0.425834
v 0.079690 0.225148 -0.423505
v -0.064879 0.246982 -0.447023
v -0.093101 0.251568 -0.422621
v -0.009758 0.297858 -0.442784
v 0.053829 0.213071 -0.434312
v 0.108950 0.255459 -0.430073
v -0.006145 0.242568 -0.455683
v 0.070785 0.310580 -0.425834
v -0.022480 0.204573 -0.430073
v -0.047923 0.263927 -0.451263
v 0.042584 0.208404 -0.422973
v -0.073367 0.221538 -0.425834
v -0.098810 0.272415 -0.425834
v 0.106830 0.251608 -0.422741
v 0.032620 0.310580 -0.434312
v 0.075039 0.234260 -0.442784
v -0.067708 0.295028 -0.422934
v 0.113204 0.272415 -0.425834
v 0.087761 0.221538 -0.425834
v -0.031860 0.208751 -0.423098
vn -0.1209 -0.1838 0.9755
vn 0.0769 0.2291 0.9704
vn -0.0102 0.3254 0.9455
vn -0.1630 -0.5023 -0.8492
vn 0.0169 -0.5638 -0.8257
vn -0.0287 0.2726 -0.9617
vn -0.2004 0.4437 -0.8735
vn -0.1521 -0.0940 -0.9839
vn -0.0356 0.1352 -0.9902
vn 0.0889 -0.9490 -0.3025
vn -0.6445 -0.3508 -0.6794
vn -0.2544 -0.5674 -0.7832
vn -0.6528 -0.2868 -0.7011
vn -0.3663 0.3664 -0.8553
vn -0.4132 0.1906 -0.8905
vn 0.0507 -0.0808 0.9954
vn 0.0006 -0.0063 1.0000
vn 0.0607 0.4052 -0.9122
vn -0.0901 0.7422 -0.6641
vn -0.0310 0.9898 0.1394
vn 0.1942 0.4450 -0.8742
vn 0.4092 -0.1116 -0.9056
vn 0.1086 -0.3707 -0.9224
vn 0.0950 -0.4501 -0.8879
vn 0.0029 0.0523 0.9986
vn -0.0116 0.2511 0.9679
vn -0.3078 0.3079 0.9003
vn -0.1678 0.1051 0.9802
vn 0.0042 0.0214 0.9998
vn 0.0006 0.0069 1.0000
vn 0.4234 0.1183 -0.8982
vn 0.2109 0.2344 0.9490
vn 0.3455 0.3841 -0.8562
vn 0.1259 0.1080 0.9861
vn 0.9530 -0.2723 0.1326
vn 0.1439 -0.2889 0.9465
vn 0.2696 -0.9547 -0.1256
vn 0.1814 -0.2138 0.9599
vn 0.8456 -0.5326 -0.0352
vn 0.3322 -0.6176 -0.7129
vn 0.5392 -0.4275 -0.7256
vn -0.0017 -0.0136 0.9999
vn -0.0049 -0.8607 0.5090
vn -0.3002 -0.9404 0.1596
usemtl Shape.438
s off
f 7//1 16//1 24//1
f 1//2 2//2 12//2
f 4//3 1//3 12//3
f 6//4 11//4 13//4
f 11//5 9//5 13//5
f 8//6 3//6 14//6
f 4//7 8//7 14//7
f 11//8 6//8 14//8
f 3//9 11//9 14//9
f 13//10 9//10 15//10
f 7//11 6//11 16//11
f 6//12 13//12 16//12
f 6//13 7//13 17//13
f 4//14 14//14 17//14
f 14//15 6//15 17//15
f 15//16 5//16 18//16
f 7//17 15//17 18//17
f 3//18 8//18 19//18
f 8//19 4//19 19//19
f 4//20 12//20 19//20
f 12//21 3//21 19//21
f 3//22 10//22 20//22
f 11//23 3//23 20//23
f 9//24 11//24 20//24
f 2//25 1//25 21//25
f 1//26 4//26 21//26
f 4//27 17//27 21//27
f 17//28 7//28 21//28
f 18//29 2//29 21//29
f 7//30 18//30 21//30
f 10//31 3//31 22//31
f 12//32 2//32 22//32
f 3//33 12//33 22//33
f 2//34 18//34 22//34
f 18//35 10//35 22//35
f 5//36 15//36 23//36
f 15//37 9//37 23//37
f 18//38 5//38 23//38
f 10//39 18//39 23//39
f 9//40 20//40 23//40
f 20//41 10//41 23//41
f 15//42 7//42 24//42
f 13//43 15//43 24//43
f 16//44 13//44 24//44
