# Blender v2.79 (sub 0) OBJ File: ''
# www.blender.org
mtllib 693_link_2_37.mtl
o Shape_IndexedFaceSet.037_Shape_IndexedFaceSet.11829
v 0.235873 -0.122733 0.300283
v 0.230838 -0.001881 0.436279
v 0.235873 -0.027072 0.411079
v 0.205657 -0.142900 0.436279
v 0.220771 -0.001881 0.300283
v 0.205657 -0.142900 0.300283
v 0.210700 -0.001881 0.436279
v 0.225803 -0.142900 0.436279
v 0.240916 -0.001881 0.300283
v 0.240916 -0.062327 0.350669
v 0.230838 -0.117694 0.436279
v 0.210700 -0.001881 0.395970
v 0.225803 -0.142900 0.300283
vn 0.0000 -1.0000 0.0000
vn 0.0000 0.0000 -1.0000
vn 0.0000 0.0000 1.0000
vn -0.0000 1.0000 0.0000
vn -0.9994 0.0357 0.0000
vn 0.9895 0.1244 0.0733
vn 0.9979 -0.0416 -0.0500
vn 0.9973 0.0467 0.0560
vn 0.9806 0.0000 0.1959
vn 0.9797 -0.1957 0.0435
vn 0.9923 -0.1171 0.0411
vn 0.9947 -0.0277 0.0992
vn -0.9889 0.1060 -0.1041
vn 0.8947 -0.4467 0.0000
usemtl Shape.11838
s off
f 8//1 6//1 13//1
f 5//2 1//2 6//2
f 4//3 2//3 7//3
f 2//4 5//4 7//4
f 6//5 4//5 7//5
f 2//3 4//3 8//3
f 4//1 6//1 8//1
f 2//6 3//6 9//6
f 1//2 5//2 9//2
f 5//4 2//4 9//4
f 1//7 9//7 10//7
f 9//8 3//8 10//8
f 3//9 2//9 11//9
f 8//10 1//10 11//10
f 2//3 8//3 11//3
f 1//11 10//11 11//11
f 10//12 3//12 11//12
f 5//13 6//13 12//13
f 7//4 5//4 12//4
f 6//5 7//5 12//5
f 6//2 1//2 13//2
f 1//14 8//14 13//14
