# Blender v2.79 (sub 0) OBJ File: ''
# www.blender.org
mtllib 693_link_2_104.mtl
o Shape_IndexedFaceSet.104_Shape_IndexedFaceSet.11896
v -0.246531 0.090214 -0.287199
v -0.208759 0.115802 -0.314379
v -0.237589 0.114625 -0.029210
v -0.252691 0.113979 -0.278931
v -0.237589 0.088800 -0.037220
v -0.212463 0.088829 -0.349117
v -0.257735 0.088800 -0.047306
v -0.257735 0.113979 -0.047306
v -0.258510 0.090931 -0.230953
v -0.232555 0.093838 -0.037220
vn 0.7062 -0.7057 0.0568
vn -0.4482 0.7286 -0.5180
vn -0.8751 -0.0598 -0.4802
vn 0.0000 -1.0000 -0.0001
vn -0.4314 -0.2673 0.8617
vn -0.0560 -0.9984 -0.0085
vn -0.0328 0.9995 0.0008
vn -0.0422 0.9991 -0.0009
vn -0.6682 0.0000 0.7439
vn -1.0000 0.0000 0.0042
vn -0.9627 -0.1790 -0.2028
vn -0.1114 -0.9937 -0.0111
vn -0.9790 0.2028 -0.0213
vn 0.9752 0.1979 0.0994
vn 0.2842 -0.2840 0.9157
vn 0.9735 -0.2190 0.0662
usemtl Shape.11905
s off
f 5//1 6//1 10//1
f 4//2 2//2 6//2
f 1//3 4//3 6//3
f 6//4 5//4 7//4
f 5//5 3//5 7//5
f 1//6 6//6 7//6
f 3//7 2//7 8//7
f 2//8 4//8 8//8
f 7//9 3//9 8//9
f 7//10 8//10 9//10
f 4//11 1//11 9//11
f 1//12 7//12 9//12
f 8//13 4//13 9//13
f 2//14 3//14 10//14
f 3//15 5//15 10//15
f 6//16 2//16 10//16
