# Blender v2.79 (sub 0) OBJ File: ''
# www.blender.org
mtllib 693_link_2_103.mtl
o Shape_IndexedFaceSet.103_Shape_IndexedFaceSet.11895
v 0.205668 0.078725 0.451287
v 0.271127 0.088797 -0.042218
v 0.271127 0.078725 -0.042218
v 0.170399 0.088797 0.441285
v 0.250974 0.073687 -0.097570
v 0.170399 0.073687 0.461413
v 0.250974 0.088797 -0.097570
v 0.225792 0.088797 0.355680
v 0.266089 0.073687 0.023322
v 0.170399 0.088797 0.516827
v 0.170399 0.073687 0.536955
v 0.236856 0.075206 0.267933
vn 0.0926 -0.9956 0.0172
vn 0.9397 0.0000 -0.3421
vn -0.9724 -0.1867 -0.1402
vn -0.0000 1.0000 -0.0000
vn -0.9890 0.0000 -0.1479
vn 0.9971 0.0000 0.0766
vn 0.3555 -0.9336 -0.0444
vn 0.0000 -1.0000 0.0000
vn 0.9811 0.1577 0.1118
vn -1.0000 -0.0000 0.0000
vn 0.6065 0.7672 0.2085
vn 0.8023 0.4774 0.3584
vn 0.9381 -0.3042 0.1654
vn 0.9920 0.0439 0.1183
vn 0.3065 -0.9493 0.0703
usemtl Shape.11904
s off
f 11//1 9//1 12//1
f 2//2 3//2 5//2
f 4//3 5//3 6//3
f 4//4 2//4 7//4
f 5//5 4//5 7//5
f 2//2 5//2 7//2
f 2//4 4//4 8//4
f 3//6 2//6 9//6
f 5//7 3//7 9//7
f 6//8 5//8 9//8
f 2//9 8//9 9//9
f 4//10 6//10 10//10
f 1//11 8//11 10//11
f 8//4 4//4 10//4
f 6//8 9//8 11//8
f 1//12 10//12 11//12
f 10//10 6//10 11//10
f 8//13 1//13 12//13
f 9//14 8//14 12//14
f 1//15 11//15 12//15
