# Blender v2.79 (sub 0) OBJ File: ''
# www.blender.org
mtllib 693_link_2_134.mtl
o Shape_IndexedFaceSet.134_Shape_IndexedFaceSet.11926
v 0.084772 0.083759 0.597455
v 0.099879 0.083759 0.547096
v 0.009219 0.073687 0.577306
v 0.009219 0.088797 0.567244
v 0.109956 0.073687 0.592416
vn 0.0336 -0.9740 -0.2239
vn -0.2109 -0.5418 -0.8136
vn -0.2837 0.5315 0.7981
vn 0.0594 0.9981 0.0178
vn -0.1122 -0.6545 0.7477
vn 0.3888 0.9139 0.1166
usemtl Shape.11935
s off
f 3//1 2//1 5//1
f 2//2 3//2 4//2
f 3//3 1//3 4//3
f 1//4 2//4 4//4
f 1//5 3//5 5//5
f 2//6 1//6 5//6
