# Blender v2.79 (sub 0) OBJ File: ''
# www.blender.org
mtllib 693_link_2_33.mtl
o Shape_IndexedFaceSet.033_Shape_IndexedFaceSet.11825
v -0.051621 -0.268491 0.417923
v 0.074682 -0.198306 0.441314
v 0.155289 -0.203357 0.441314
v 0.164385 -0.222724 0.415363
v -0.150488 -0.222767 0.415405
v -0.121729 -0.248670 0.441314
v 0.109909 -0.253699 0.441314
v -0.141888 -0.203357 0.441314
v 0.109909 -0.268808 0.416134
v -0.061282 -0.273859 0.421172
v 0.155289 -0.248670 0.431239
v -0.061282 -0.198306 0.436275
v -0.116697 -0.263779 0.416134
v 0.054494 -0.268808 0.431239
vn -0.0348 -0.6737 0.7382
vn 0.0507 0.8088 -0.5859
vn 0.0000 0.0000 1.0000
vn -0.7808 -0.3473 0.5194
vn -0.0001 -0.0166 -0.9999
vn -0.0106 -0.5038 -0.8638
vn 0.9185 -0.0858 0.3860
vn 0.2341 -0.2110 0.9490
vn 0.4764 -0.5743 -0.6657
vn 0.2048 -0.8393 0.5036
vn 0.0237 0.7677 -0.6403
vn -0.0002 0.6495 -0.7604
vn -0.0197 0.8462 0.5325
vn -0.0870 0.8109 -0.5786
vn -0.7548 -0.6180 0.2200
vn -0.0107 -0.4802 -0.8771
vn -0.0004 -0.0181 -0.9998
vn -0.0125 -0.5012 -0.8652
vn -0.1991 -0.8574 0.4747
vn -0.0114 -0.5255 0.8507
vn 0.1389 -0.8492 0.5095
vn 0.0328 -0.9922 0.1204
usemtl Shape.11834
s off
f 6//1 10//1 14//1
f 2//2 3//2 4//2
f 3//3 2//3 6//3
f 3//3 6//3 7//3
f 6//3 2//3 8//3
f 5//4 6//4 8//4
f 5//5 4//5 9//5
f 1//6 9//6 10//6
f 4//7 3//7 11//7
f 3//8 7//8 11//8
f 9//9 4//9 11//9
f 7//10 9//10 11//10
f 2//11 4//11 12//11
f 4//12 5//12 12//12
f 8//13 2//13 12//13
f 5//14 8//14 12//14
f 6//15 5//15 13//15
f 9//16 1//16 13//16
f 5//17 9//17 13//17
f 1//18 10//18 13//18
f 10//19 6//19 13//19
f 7//20 6//20 14//20
f 9//21 7//21 14//21
f 10//22 9//22 14//22
