# Blender v2.79 (sub 0) OBJ File: ''
# www.blender.org
mtllib 693_link_2_82.mtl
o Shape_IndexedFaceSet.082_Shape_IndexedFaceSet.11874
v -0.261715 0.047325 -0.197587
v -0.222486 -0.001862 -0.374643
v -0.222486 0.008215 -0.374643
v -0.242621 0.008215 -0.198391
v -0.217446 0.048502 -0.319235
v -0.262774 -0.001862 -0.253799
v -0.252693 0.048502 -0.299091
v -0.217446 -0.001862 -0.329298
v -0.247657 0.048502 -0.193351
v -0.262044 -0.001051 -0.196270
v -0.222486 0.048502 -0.364563
v -0.247657 -0.001862 -0.324275
vn -0.8978 0.1069 -0.4273
vn -0.9890 0.1202 -0.0865
vn 0.9939 0.0000 -0.1105
vn 0.9807 -0.0383 0.1916
vn 0.9942 0.0211 -0.1058
vn 0.0000 -1.0000 0.0000
vn 0.9683 0.0920 0.2324
vn -0.0846 0.9964 0.0040
vn 0.0000 1.0000 0.0000
vn -0.9999 0.0071 0.0126
vn 0.4391 -0.8854 0.1526
vn 0.0230 -0.9996 0.0138
vn -0.2905 0.0280 0.9565
vn 0.1565 -0.1033 0.9823
vn 0.9935 0.0276 -0.1105
vn -0.9017 0.1179 -0.4160
vn -0.8945 0.0000 -0.4470
vn -0.9777 0.0071 -0.2097
usemtl Shape.11883
s off
f 11//1 3//1 12//1
f 6//2 1//2 7//2
f 2//3 3//3 8//3
f 5//4 4//4 8//4
f 3//5 5//5 8//5
f 6//6 2//6 8//6
f 4//7 5//7 9//7
f 7//8 1//8 9//8
f 5//9 7//9 9//9
f 1//10 6//10 10//10
f 8//11 4//11 10//11
f 6//12 8//12 10//12
f 9//13 1//13 10//13
f 4//14 9//14 10//14
f 5//15 3//15 11//15
f 7//9 5//9 11//9
f 7//16 11//16 12//16
f 3//17 2//17 12//17
f 2//6 6//6 12//6
f 6//18 7//18 12//18
