# Blender v2.79 (sub 0) OBJ File: ''
# www.blender.org
mtllib 693_link_2_12.mtl
o Shape_IndexedFaceSet.012_Shape_IndexedFaceSet.11804
v 0.210674 -0.329322 -0.485488
v 0.136433 -0.728331 -0.580149
v 0.250983 -0.737173 -0.470362
v 0.240905 -0.706975 -0.535832
v 0.135141 -0.329322 -0.510671
v 0.150263 -0.359560 -0.540867
v 0.135141 -0.717041 -0.561016
v 0.185527 -0.339388 -0.470362
v 0.271137 -0.686843 -0.470362
v 0.170405 -0.712028 -0.581154
v 0.135141 -0.339388 -0.540867
v 0.225796 -0.364573 -0.475419
v 0.245937 -0.732160 -0.530798
v 0.225796 -0.495510 -0.510671
v 0.170405 -0.515682 -0.555970
v 0.135141 -0.606235 -0.576119
v 0.215719 -0.324269 -0.470362
v 0.245937 -0.722094 -0.470362
v 0.155295 -0.324269 -0.530798
v 0.245937 -0.586103 -0.500603
v 0.170405 -0.329322 -0.480454
v 0.150263 -0.737173 -0.581154
v 0.271137 -0.732160 -0.475419
v 0.135141 -0.732160 -0.566050
v 0.150263 -0.495510 -0.561016
v 0.271137 -0.686843 -0.475419
vn 0.9102 0.0000 -0.4142
vn 0.0000 0.0000 1.0000
vn -1.0000 -0.0000 0.0000
vn 0.5428 -0.0590 -0.8378
vn 0.7806 0.1625 -0.6035
vn 0.5321 0.1077 -0.8398
vn 0.5968 0.1367 -0.7907
vn 0.8831 0.2690 -0.3844
vn 0.7849 0.1200 0.6079
vn -0.6249 -0.2091 0.7521
vn 0.2969 0.2226 -0.9286
vn -0.4844 0.8300 -0.2767
vn 0.6332 0.1720 -0.7547
vn 0.5638 0.1513 -0.8120
vn 0.5923 0.1508 -0.7915
vn -0.1235 0.9846 0.1235
vn 0.4090 0.8158 -0.4089
vn 0.8298 0.1240 -0.5441
vn 0.8555 0.1346 -0.5000
vn -0.6475 -0.0981 0.7557
vn -0.1468 0.9742 0.1713
vn -0.2413 0.4819 0.8423
vn -0.6327 -0.1020 0.7676
vn -0.5952 -0.0939 0.7981
vn 0.0996 -0.9909 -0.0905
vn 0.4492 -0.3599 -0.8177
vn -0.0518 0.0324 -0.9981
vn -0.0419 0.0336 -0.9986
vn 0.2669 -0.1069 0.9578
vn 0.2168 -0.9712 -0.0987
vn -0.6235 -0.2470 0.7418
vn -0.9956 -0.0075 -0.0933
vn -0.5328 -0.8030 -0.2669
vn -0.1691 -0.9735 0.1538
vn 0.1919 0.1439 -0.9708
vn 0.3519 0.1191 -0.9284
vn 0.3671 0.1364 -0.9201
vn 0.1846 0.1080 -0.9769
vn 0.0312 0.1309 -0.9909
vn 0.9902 0.1393 0.0000
vn 0.8800 0.0823 -0.4678
vn 0.8758 0.1011 -0.4720
vn 0.9085 0.1278 -0.3978
vn 1.0000 0.0000 0.0000
usemtl Shape.11813
s off
f 23//1 13//1 26//1
f 8//2 3//2 9//2
f 7//3 5//3 11//3
f 10//4 4//4 13//4
f 1//5 12//5 14//5
f 4//6 10//6 15//6
f 14//7 4//7 15//7
f 7//3 11//3 16//3
f 8//2 9//2 17//2
f 12//8 1//8 17//8
f 9//9 12//9 17//9
f 7//10 3//10 18//10
f 3//2 8//2 18//2
f 6//11 11//11 19//11
f 11//12 5//12 19//12
f 1//13 14//13 19//13
f 15//14 6//14 19//14
f 14//15 15//15 19//15
f 5//16 17//16 19//16
f 17//17 1//17 19//17
f 4//18 14//18 20//18
f 14//19 12//19 20//19
f 5//20 7//20 21//20
f 17//21 5//21 21//21
f 8//22 17//22 21//22
f 7//23 18//23 21//23
f 18//24 8//24 21//24
f 13//25 3//25 22//25
f 10//26 13//26 22//26
f 2//27 16//27 22//27
f 16//28 10//28 22//28
f 9//29 3//29 23//29
f 3//30 13//30 23//30
f 3//31 7//31 24//31
f 16//32 2//32 24//32
f 7//3 16//3 24//3
f 2//33 22//33 24//33
f 22//34 3//34 24//34
f 11//35 6//35 25//35
f 15//36 10//36 25//36
f 6//37 15//37 25//37
f 10//38 16//38 25//38
f 16//39 11//39 25//39
f 12//40 9//40 26//40
f 13//41 4//41 26//41
f 4//42 20//42 26//42
f 20//43 12//43 26//43
f 9//44 23//44 26//44
