# Blender v2.79 (sub 0) OBJ File: ''
# www.blender.org
mtllib 693_link_2_125.mtl
o Shape_IndexedFaceSet.125_Shape_IndexedFaceSet.11917
v -0.212396 0.053541 -0.379688
v -0.136868 0.073687 -0.389763
v -0.136868 0.068648 -0.389763
v -0.226600 0.074902 -0.305051
v -0.217433 0.048502 -0.319256
v -0.202323 0.073687 -0.379688
v -0.151970 0.048502 -0.394809
vn -0.2320 0.1160 -0.9658
vn 0.6865 0.0000 0.7272
vn -0.9555 -0.2765 -0.1027
vn 0.6723 -0.1559 0.7237
vn -0.0026 0.9998 -0.0171
vn -0.8571 0.4286 -0.2858
vn 0.3169 0.0000 -0.9485
vn -0.1054 -0.9902 -0.0914
vn 0.6103 -0.5899 0.5288
vn -0.1461 0.2779 -0.9494
usemtl Shape.11926
s off
f 1//1 6//1 7//1
f 3//2 2//2 4//2
f 4//3 1//3 5//3
f 3//4 4//4 5//4
f 4//5 2//5 6//5
f 1//6 4//6 6//6
f 2//7 3//7 7//7
f 5//8 1//8 7//8
f 3//9 5//9 7//9
f 6//10 2//10 7//10
