# Blender v2.79 (sub 0) OBJ File: ''
# www.blender.org
mtllib 693_link_0_103.mtl
o Shape_IndexedFaceSet.103_Shape_IndexedFaceSet.15724
v 0.030157 0.194129 -0.477802
v 0.007276 0.195090 -0.476850
v 0.007276 0.195090 -0.475896
v 0.029202 0.165530 -0.475896
v 0.031109 0.165530 -0.478756
v 0.007276 0.218932 -0.478756
v 0.010137 0.211300 -0.475896
v 0.033970 0.176021 -0.475896
v 0.036835 0.168400 -0.478756
v 0.007276 0.201760 -0.478756
v 0.030157 0.194129 -0.478756
v 0.012999 0.215111 -0.477802
v 0.028250 0.190334 -0.475896
v 0.035877 0.165530 -0.475896
vn 0.3590 -0.7162 -0.5985
vn -0.8032 -0.5957 0.0000
vn -0.7023 -0.5361 -0.4683
vn -1.0000 -0.0000 0.0000
vn -0.5594 0.0987 0.8230
vn 0.0000 0.0000 1.0000
vn 0.0000 0.0000 -1.0000
vn 0.9208 0.2273 0.3169
vn -0.3854 -0.2535 -0.8872
vn 0.9679 0.2512 0.0000
vn 0.1023 0.3825 0.9183
vn 0.7741 0.6331 0.0000
vn 0.3737 0.3448 -0.8611
vn 0.4775 0.1908 0.8577
vn 0.2866 0.2476 0.9255
vn 0.3414 0.2792 0.8975
vn 0.0000 -1.0000 0.0000
vn 0.8768 0.1594 0.4536
usemtl Shape.15738
s off
f 5//1 9//1 14//1
f 3//2 2//2 4//2
f 4//3 2//3 5//3
f 2//4 3//4 6//4
f 6//5 3//5 7//5
f 3//6 4//6 7//6
f 7//6 4//6 8//6
f 5//7 6//7 9//7
f 1//8 8//8 9//8
f 5//9 2//9 10//9
f 2//4 6//4 10//4
f 6//7 5//7 10//7
f 9//7 6//7 11//7
f 1//10 9//10 11//10
f 6//11 7//11 12//11
f 1//12 11//12 12//12
f 11//13 6//13 12//13
f 8//14 1//14 13//14
f 7//6 8//6 13//6
f 12//15 7//15 13//15
f 1//16 12//16 13//16
f 4//17 5//17 14//17
f 8//6 4//6 14//6
f 9//18 8//18 14//18
