# Blender v2.79 (sub 0) OBJ File: ''
# www.blender.org
mtllib 693_link_2_53.mtl
o Shape_IndexedFaceSet.053_Shape_IndexedFaceSet.11845
v 0.150260 -0.288970 0.209628
v 0.215731 -0.122752 0.300283
v 0.215731 -0.122752 0.290193
v 0.215731 -0.198328 0.224740
v 0.195583 -0.213394 0.300283
v 0.145215 -0.228509 0.300283
v 0.210685 -0.147955 0.209628
v 0.145215 -0.253696 0.214668
v 0.145215 -0.258723 0.300283
v 0.195583 -0.238581 0.209628
v 0.215731 -0.178169 0.300283
v 0.160338 -0.283910 0.214668
v 0.210685 -0.122752 0.290193
vn -0.8470 0.5100 -0.1500
vn 1.0000 0.0000 0.0000
vn 0.0000 0.0000 1.0000
vn 0.9936 0.0739 -0.0854
vn -0.2412 0.1034 -0.9649
vn -1.0000 0.0000 0.0000
vn -0.9901 -0.1404 -0.0082
vn 0.7415 -0.1236 -0.6595
vn 0.0000 0.0000 -1.0000
vn 0.8599 -0.4918 0.1367
vn 0.8666 -0.4821 0.1286
vn 0.2941 -0.9016 0.3172
vn 0.6339 -0.7044 0.3192
vn 0.5762 -0.5183 -0.6319
vn 0.7874 -0.5939 0.1650
vn 0.0000 1.0000 0.0000
vn -0.7682 0.5122 0.3842
vn 0.0000 0.9544 -0.2986
vn -0.8426 0.5140 -0.1608
usemtl Shape.11854
s off
f 8//1 6//1 13//1
f 3//2 2//2 4//2
f 5//3 2//3 6//3
f 3//4 4//4 7//4
f 7//5 1//5 8//5
f 6//6 8//6 9//6
f 5//3 6//3 9//3
f 8//7 1//7 9//7
f 7//8 4//8 10//8
f 1//9 7//9 10//9
f 4//2 2//2 11//2
f 2//3 5//3 11//3
f 5//10 10//10 11//10
f 10//11 4//11 11//11
f 9//12 1//12 12//12
f 5//13 9//13 12//13
f 1//14 10//14 12//14
f 10//15 5//15 12//15
f 2//16 3//16 13//16
f 6//17 2//17 13//17
f 3//18 7//18 13//18
f 7//19 8//19 13//19
