# Blender v2.79 (sub 0) OBJ File: ''
# www.blender.org
mtllib 693_link_1_99.mtl
o Shape_IndexedFaceSet.099_Shape_IndexedFaceSet.528
v -0.107290 0.560756 0.570638
v -0.077592 0.556516 0.532476
v -0.077592 0.560756 0.532476
v 0.113204 0.556516 0.570638
v 0.083505 0.560756 0.532476
v 0.113204 0.560756 0.570638
v -0.107290 0.556516 0.570638
v 0.083505 0.556516 0.532476
vn 0.0000 0.0000 -1.0000
vn -0.7892 0.0000 -0.6142
vn 0.0000 1.0000 -0.0000
vn 0.0000 0.0000 1.0000
vn 0.7892 0.0000 -0.6142
vn -0.7892 0.0000 -0.6141
vn 0.0000 -1.0000 0.0000
usemtl Shape.537
s off
f 2//1 5//1 8//1
f 3//2 2//2 1//2
f 3//3 1//3 5//3
f 2//1 3//1 5//1
f 1//4 4//4 6//4
f 5//3 1//3 6//3
f 4//5 5//5 6//5
f 1//6 2//6 7//6
f 2//7 4//7 7//7
f 4//4 1//4 7//4
f 4//7 2//7 8//7
f 5//5 4//5 8//5
