# Blender v2.79 (sub 0) OBJ File: ''
# www.blender.org
mtllib 693_link_2_87.mtl
o Shape_IndexedFaceSet.087_Shape_IndexedFaceSet.11879
v 0.250981 0.003177 -0.349487
v 0.135141 0.043459 -0.414946
v 0.133965 0.048972 -0.415887
v 0.235869 0.048502 -0.314228
v 0.210675 0.048502 -0.394793
v 0.160335 -0.001862 -0.409908
v 0.240910 -0.001862 -0.314228
v 0.200604 -0.001862 -0.414946
v 0.261063 0.048502 -0.319267
v 0.185530 0.048502 -0.414946
v 0.135141 0.043459 -0.409908
vn -0.6853 -0.0686 0.7250
vn -0.1677 -0.2005 -0.9652
vn 0.7862 0.0876 -0.6118
vn -0.1222 -0.1782 -0.9764
vn 0.2033 -0.9757 -0.0814
vn 0.0000 -1.0000 0.0000
vn 0.0008 1.0000 0.0039
vn 0.8180 0.1819 -0.5457
vn 0.0075 1.0000 -0.0050
vn 0.9145 -0.3447 0.2119
vn 0.1961 0.0196 0.9804
vn 0.0093 0.9999 -0.0116
vn 0.6147 0.1840 -0.7670
vn 0.0183 0.0055 -0.9998
vn -0.9780 -0.2086 0.0000
vn -0.5993 0.5263 0.6032
vn -0.8740 -0.4859 0.0000
vn -0.7039 -0.3913 0.5928
usemtl Shape.11888
s off
f 7//1 4//1 11//1
f 2//2 3//2 6//2
f 5//3 1//3 8//3
f 6//4 3//4 8//4
f 1//5 7//5 8//5
f 7//6 6//6 8//6
f 3//7 4//7 9//7
f 1//8 5//8 9//8
f 5//9 3//9 9//9
f 7//10 1//10 9//10
f 4//11 7//11 9//11
f 3//12 5//12 10//12
f 5//13 8//13 10//13
f 8//14 3//14 10//14
f 3//15 2//15 11//15
f 4//16 3//16 11//16
f 2//17 6//17 11//17
f 6//18 7//18 11//18
