# Blender v2.79 (sub 0) OBJ File: ''
# www.blender.org
mtllib 693_link_1_106.mtl
o Shape_IndexedFaceSet.106_Shape_IndexedFaceSet.535
v 0.045343 0.598916 0.752963
v -0.128492 0.586199 0.719054
v -0.128492 0.586199 0.723300
v 0.142886 0.586199 0.719054
v 0.041093 0.586199 0.782652
v -0.056371 0.603157 0.719054
v -0.043673 0.590441 0.778400
v 0.074988 0.603157 0.719054
v 0.104713 0.590441 0.757203
v -0.026725 0.603157 0.736018
v -0.103044 0.590441 0.748736
v -0.043673 0.586199 0.778400
v 0.041093 0.590441 0.782652
vn -0.0142 0.9593 0.2822
vn 0.0000 -1.0000 0.0000
vn -0.2289 0.9735 0.0000
vn 0.0000 0.0000 -1.0000
vn 0.1749 -0.9439 0.2800
vn 0.1217 0.9662 0.2272
vn 0.2401 0.9615 0.1334
vn 0.0242 0.9892 0.1448
vn 0.0000 1.0000 -0.0000
vn -0.2249 0.9723 0.0629
vn -0.1203 0.9631 0.2408
vn -0.1249 0.9679 0.2183
vn -0.0501 0.0000 0.9987
vn -0.2691 -0.8695 0.4142
vn -0.4470 0.0000 0.8946
vn 0.1152 0.9507 0.2879
vn 0.3714 0.0000 0.9285
vn -0.0077 0.9619 0.2735
usemtl Shape.544
s off
f 10//1 7//1 13//1
f 3//2 2//2 4//2
f 3//2 4//2 5//2
f 2//3 3//3 6//3
f 4//4 2//4 6//4
f 4//4 6//4 8//4
f 5//5 4//5 9//5
f 8//6 1//6 9//6
f 4//7 8//7 9//7
f 1//8 8//8 10//8
f 8//9 6//9 10//9
f 6//10 3//10 11//10
f 7//11 10//11 11//11
f 10//12 6//12 11//12
f 3//2 5//2 12//2
f 5//13 7//13 12//13
f 11//14 3//14 12//14
f 7//15 11//15 12//15
f 7//13 5//13 13//13
f 9//16 1//16 13//16
f 5//17 9//17 13//17
f 1//18 10//18 13//18
