# Blender v2.79 (sub 0) OBJ File: ''
# www.blender.org
mtllib 693_link_0_46.mtl
o Shape_IndexedFaceSet.046_Shape_IndexedFaceSet.15667
v 0.023484 0.252302 -0.506410
v 0.007273 0.238961 -0.493063
v 0.027295 0.217032 -0.494017
v 0.024437 0.238010 -0.492107
v 0.007273 0.257072 -0.507365
v 0.028252 0.237054 -0.507365
v 0.008228 0.258979 -0.501643
v 0.007273 0.247536 -0.492107
v 0.028252 0.229426 -0.492107
v 0.014902 0.261837 -0.506410
v 0.028252 0.246580 -0.507365
v 0.028252 0.216071 -0.492107
v 0.020623 0.244673 -0.494017
v 0.007273 0.262793 -0.507365
v 0.027295 0.235147 -0.506410
v 0.028252 0.244673 -0.503547
v 0.007273 0.238961 -0.492107
vn 0.0000 0.0000 1.0000
vn -0.5823 -0.5039 -0.6381
vn -1.0000 0.0000 -0.0000
vn 0.0000 0.0000 -1.0000
vn 1.0000 0.0000 -0.0000
vn 0.7124 0.6412 -0.2850
vn 0.7153 -0.4110 -0.5652
vn 0.2389 0.6098 0.7557
vn 0.2102 0.3787 0.9013
vn 0.2619 0.6208 0.7389
vn -0.8162 0.4086 0.4086
vn 0.0357 0.8343 0.5502
vn 0.1451 0.1878 -0.9714
vn -0.5010 -0.4887 -0.7143
vn 0.2887 -0.5406 -0.7902
vn -0.2926 -0.3067 -0.9057
vn 0.8036 0.3572 0.4760
vn 0.6527 0.5875 0.4784
vn 0.7583 0.5832 0.2913
vn 0.6617 0.5306 0.5297
vn 0.6361 0.5797 0.5092
vn -0.7385 -0.6743 0.0000
vn -0.7369 -0.6754 0.0294
usemtl Shape.15681
s off
f 12//1 8//1 17//1
f 3//2 2//2 5//2
f 5//3 2//3 8//3
f 4//1 8//1 9//1
f 6//4 5//4 11//4
f 9//5 6//5 11//5
f 10//6 1//6 11//6
f 3//7 6//7 12//7
f 9//1 8//1 12//1
f 6//5 9//5 12//5
f 7//8 8//8 13//8
f 8//9 4//9 13//9
f 10//10 7//10 13//10
f 5//3 8//3 14//3
f 8//11 7//11 14//11
f 7//12 10//12 14//12
f 11//4 5//4 14//4
f 10//13 11//13 14//13
f 3//14 5//14 15//14
f 6//15 3//15 15//15
f 5//16 6//16 15//16
f 4//17 9//17 16//17
f 1//18 10//18 16//18
f 11//19 1//19 16//19
f 9//5 11//5 16//5
f 13//20 4//20 16//20
f 10//21 13//21 16//21
f 2//22 3//22 17//22
f 8//3 2//3 17//3
f 3//23 12//23 17//23
