# Blender v2.79 (sub 0) OBJ File: ''
# www.blender.org
mtllib 693_link_1_162.mtl
o Shape_IndexedFaceSet.162_Shape_IndexedFaceSet.591
v -0.094559 0.632841 0.443427
v -0.099099 0.628675 0.418438
v 0.121684 0.632841 0.417991
v 0.121684 0.628600 0.443427
v 0.121684 0.628600 0.417991
v -0.103050 0.632841 0.417991
v 0.121684 0.632841 0.443427
v -0.094559 0.628600 0.443427
vn -0.9485 0.0000 0.3166
vn 1.0000 0.0000 0.0000
vn 0.0000 0.0000 -1.0000
vn 0.0000 1.0000 0.0000
vn -0.0020 -0.1086 -0.9941
vn 0.0000 0.0000 1.0000
vn -0.0003 -1.0000 -0.0029
vn 0.0000 -1.0000 0.0000
vn -0.7264 -0.6749 0.1299
usemtl Shape.600
s off
f 1//1 6//1 8//1
f 3//2 4//2 5//2
f 3//3 5//3 6//3
f 1//4 3//4 6//4
f 5//5 2//5 6//5
f 3//4 1//4 7//4
f 1//6 4//6 7//6
f 4//2 3//2 7//2
f 4//6 1//6 8//6
f 2//7 5//7 8//7
f 5//8 4//8 8//8
f 6//9 2//9 8//9
