# Blender v2.79 (sub 0) OBJ File: ''
# www.blender.org
mtllib 693_link_1_130.mtl
o Shape_IndexedFaceSet.130_Shape_IndexedFaceSet.559
v 0.141278 0.556491 0.642599
v -0.115762 0.552275 0.621521
v -0.132732 0.552275 0.638479
v 0.142886 0.552275 0.642723
v -0.132732 0.556516 0.642723
v 0.123497 0.556473 0.621734
v 0.125916 0.552275 0.621521
v -0.113014 0.556467 0.621763
vn -0.0000 1.0000 -0.0024
vn 0.0000 -1.0000 0.0000
vn 0.0005 0.0296 0.9996
vn -0.0109 -0.7073 0.7068
vn 0.0001 1.0000 -0.0009
vn 0.7519 0.2691 -0.6018
vn 0.0000 0.0507 -0.9987
vn 0.6883 0.4264 -0.5869
vn -0.6312 0.4502 -0.6316
vn -0.5998 0.5660 -0.5656
vn -0.0001 0.0577 -0.9983
usemtl Shape.568
s off
f 5//1 6//1 8//1
f 3//2 2//2 4//2
f 4//3 1//3 5//3
f 3//4 4//4 5//4
f 5//5 1//5 6//5
f 4//2 2//2 7//2
f 1//6 4//6 7//6
f 2//7 6//7 7//7
f 6//8 1//8 7//8
f 2//9 3//9 8//9
f 3//10 5//10 8//10
f 6//11 2//11 8//11
