# Blender v2.79 (sub 0) OBJ File: ''
# www.blender.org
mtllib 693_link_0_80.mtl
o Shape_IndexedFaceSet.080_Shape_IndexedFaceSet.15701
v -0.002263 -0.177768 -0.480663
v 0.002505 -0.080526 -0.471128
v 0.002505 -0.054764 -0.473989
v -0.002263 -0.044285 -0.476848
v -0.002263 -0.175846 -0.471128
v 0.001551 -0.175846 -0.479709
v 0.002505 -0.041402 -0.480663
v -0.002263 -0.041402 -0.480663
v 0.002505 -0.126257 -0.471128
v -0.002263 -0.102444 -0.471128
v -0.000356 -0.167263 -0.471128
v -0.000356 -0.041402 -0.475895
v 0.002505 -0.041402 -0.475895
v -0.000356 -0.087200 -0.471128
vn -0.5471 0.0867 0.8326
vn -1.0000 -0.0000 0.0000
vn 0.4062 -0.8958 0.1806
vn 0.2467 -0.0086 -0.9690
vn 1.0000 0.0000 0.0000
vn 0.0000 0.0000 -1.0000
vn 0.0000 0.0000 1.0000
vn 0.9977 -0.0076 -0.0673
vn 0.8955 -0.1990 0.3980
vn 0.9578 -0.0668 0.2797
vn -0.1451 0.1092 0.9834
vn -0.8333 0.4410 0.3333
vn 0.0000 1.0000 0.0000
vn 0.0000 0.1412 0.9900
vn -0.6162 0.0771 0.7838
vn -0.2348 0.1006 0.9668
usemtl Shape.15715
s off
f 12//1 4//1 14//1
f 4//2 1//2 5//2
f 5//3 1//3 6//3
f 6//4 1//4 7//4
f 3//5 2//5 7//5
f 1//2 4//2 8//2
f 7//6 1//6 8//6
f 2//7 5//7 9//7
f 6//8 7//8 9//8
f 7//5 2//5 9//5
f 4//2 5//2 10//2
f 5//7 2//7 10//7
f 5//9 6//9 11//9
f 9//7 5//7 11//7
f 6//10 9//10 11//10
f 2//11 3//11 12//11
f 8//12 4//12 12//12
f 7//13 8//13 12//13
f 3//5 7//5 13//5
f 12//14 3//14 13//14
f 7//13 12//13 13//13
f 10//7 2//7 14//7
f 4//15 10//15 14//15
f 2//16 12//16 14//16
