# Blender v2.79 (sub 0) OBJ File: ''
# www.blender.org
mtllib 693_link_1_140.mtl
o Shape_IndexedFaceSet.140_Shape_IndexedFaceSet.569
v 0.019918 0.386900 -0.239255
v -0.118222 0.391444 -0.299679
v -0.090309 0.357228 -0.268934
v 0.019918 0.357228 -0.298607
v -0.115771 0.357228 -0.239255
v -0.111408 0.409868 -0.282537
v 0.019918 0.357228 -0.239255
v -0.081981 0.408220 -0.298746
v -0.043703 0.386900 -0.239255
v -0.043703 0.357228 -0.294371
v 0.019918 0.374190 -0.277411
v -0.121262 0.410160 -0.301009
v -0.077599 0.378429 -0.239255
v 0.019918 0.386900 -0.251985
vn 0.3652 0.8327 -0.4162
vn -0.4849 -0.7693 -0.4160
vn 0.0000 -1.0000 0.0000
vn 1.0000 0.0000 0.0000
vn 0.0000 0.0000 1.0000
vn 0.1281 0.9828 0.1327
vn 0.0000 0.8833 0.4687
vn -0.3098 -0.7628 -0.5676
vn -0.0636 -0.2869 -0.9558
vn 0.3646 0.7270 -0.5818
vn -0.0102 -0.0725 -0.9973
vn -0.9851 -0.1638 -0.0528
vn -0.7974 0.4213 0.4320
vn 0.0632 0.1235 -0.9903
vn 0.0499 0.9987 -0.0109
vn -0.3409 0.6138 0.7121
vn -0.1807 0.7232 0.6665
vn 0.2048 0.9788 0.0000
usemtl Shape.578
s off
f 11//1 8//1 14//1
f 2//2 3//2 5//2
f 3//3 4//3 5//3
f 4//4 1//4 7//4
f 1//5 5//5 7//5
f 5//3 4//3 7//3
f 6//6 1//6 8//6
f 5//5 1//5 9//5
f 1//7 6//7 9//7
f 3//8 2//8 10//8
f 4//3 3//3 10//3
f 2//9 4//9 10//9
f 1//4 4//4 11//4
f 4//10 8//10 11//10
f 4//11 2//11 12//11
f 2//12 5//12 12//12
f 5//13 6//13 12//13
f 8//14 4//14 12//14
f 6//15 8//15 12//15
f 6//16 5//16 13//16
f 5//5 9//5 13//5
f 9//17 6//17 13//17
f 8//18 1//18 14//18
f 1//4 11//4 14//4
