# Blender v2.79 (sub 0) OBJ File: ''
# www.blender.org
mtllib 693_link_0_16.mtl
o Shape_IndexedFaceSet.016_Shape_IndexedFaceSet.15637
v -0.018476 0.238946 -0.522624
v -0.036593 0.133118 -0.520716
v -0.036593 0.133118 -0.517855
v -0.023246 0.133118 -0.530251
v -0.022291 0.211295 -0.530251
v -0.016567 0.231318 -0.517855
v -0.027056 0.212242 -0.517855
v -0.016567 0.226551 -0.530251
v -0.031822 0.133118 -0.517855
v -0.028964 0.145513 -0.530251
v -0.031822 0.180792 -0.522624
v -0.016567 0.202709 -0.529296
v -0.026104 0.213199 -0.524528
v -0.016567 0.241808 -0.517855
v -0.027056 0.176026 -0.530251
v -0.032776 0.177930 -0.517855
v -0.028964 0.133118 -0.530251
v -0.029914 0.134076 -0.519763
v -0.017522 0.236084 -0.526435
v -0.036593 0.136938 -0.520716
v -0.031822 0.176983 -0.523578
v -0.018476 0.239893 -0.517855
v -0.027056 0.212242 -0.520716
vn -0.9551 0.2964 0.0000
vn 0.0000 -1.0000 0.0000
vn 0.0000 0.0000 1.0000
vn -0.0000 0.0000 -1.0000
vn 0.9660 -0.0960 0.2401
vn 0.4886 -0.0349 -0.8718
vn 1.0000 0.0000 0.0000
vn -0.7808 0.0000 -0.6247
vn 0.8321 -0.1248 0.5404
vn 0.7342 -0.4506 0.5079
vn 0.7304 -0.1135 0.6735
vn -0.6261 0.2349 -0.7435
vn -0.8570 0.2856 -0.4290
vn -0.7694 0.2392 -0.5922
vn 0.1872 0.8074 -0.5595
vn 0.9543 0.1884 -0.2319
vn -1.0000 0.0000 0.0000
vn -0.8014 0.0501 -0.5961
vn -0.9901 0.0843 0.1126
vn -0.9855 0.1013 -0.1364
vn -0.8092 0.1126 -0.5766
vn -0.8619 0.1232 -0.4918
vn -0.8016 0.1083 -0.5880
vn -0.8088 0.0545 -0.5855
vn -0.9343 0.0866 -0.3458
vn -0.7014 0.6992 -0.1388
vn -0.9428 0.2913 -0.1623
vn -0.9665 0.1587 -0.2015
vn -0.9864 0.1644 0.0000
vn -0.9825 0.1552 -0.1034
vn -0.9516 0.3015 -0.0599
usemtl Shape.15651
s off
f 7//1 22//1 23//1
f 3//2 2//2 4//2
f 3//3 6//3 7//3
f 4//4 5//4 8//4
f 3//2 4//2 9//2
f 6//3 3//3 9//3
f 5//4 4//4 10//4
f 6//5 4//5 12//5
f 4//6 8//6 12//6
f 8//7 6//7 12//7
f 7//3 6//3 14//3
f 6//7 8//7 14//7
f 5//4 10//4 15//4
f 3//3 7//3 16//3
f 4//2 2//2 17//2
f 2//8 10//8 17//8
f 10//4 4//4 17//4
f 4//9 6//9 18//9
f 9//10 4//10 18//10
f 6//11 9//11 18//11
f 8//12 5//12 19//12
f 13//13 1//13 19//13
f 5//14 13//14 19//14
f 1//15 14//15 19//15
f 14//16 8//16 19//16
f 2//17 3//17 20//17
f 10//8 2//8 20//8
f 15//18 10//18 20//18
f 3//19 16//19 20//19
f 16//20 11//20 20//20
f 13//21 5//21 21//21
f 11//22 13//22 21//22
f 5//23 15//23 21//23
f 15//24 20//24 21//24
f 20//25 11//25 21//25
f 14//26 1//26 22//26
f 7//3 14//3 22//3
f 1//27 13//27 23//27
f 13//28 11//28 23//28
f 16//29 7//29 23//29
f 11//30 16//30 23//30
f 22//31 1//31 23//31
