# Blender v2.79 (sub 0) OBJ File: ''
# www.blender.org
mtllib 693_link_0_59.mtl
o Shape_IndexedFaceSet.059_Shape_IndexedFaceSet.15680
v -0.003219 0.218932 -0.480663
v -0.026103 0.157901 -0.481617
v -0.026103 0.157901 -0.479710
v 0.005366 0.203672 -0.478756
v -0.016566 0.196043 -0.478756
v 0.005366 0.211302 -0.481617
v -0.015612 0.203672 -0.481617
v -0.018470 0.159812 -0.478756
v -0.020380 0.158860 -0.481617
v 0.005366 0.219884 -0.478756
v 0.005366 0.222746 -0.481617
v -0.023242 0.176975 -0.480663
v -0.025145 0.160764 -0.478756
v 0.005366 0.203672 -0.479710
vn 0.8057 -0.4463 -0.3894
vn -0.5015 0.3581 0.7876
vn -0.0000 0.0000 -1.0000
vn 0.0000 0.0000 1.0000
vn 0.1653 -0.9862 0.0000
vn 0.2187 -0.9602 0.1735
vn -0.2345 0.2157 0.9479
vn 1.0000 0.0000 -0.0000
vn -0.2068 0.2274 -0.9516
vn -0.2292 0.6882 0.6884
vn -0.9889 0.1483 0.0000
vn -0.5299 0.1215 -0.8393
vn -0.8717 0.2639 0.4130
vn -0.0432 -0.3028 0.9521
vn -0.8900 0.1549 0.4288
vn -0.6738 0.1639 0.7205
vn 0.8787 -0.4775 0.0000
vn 0.4428 -0.2174 -0.8699
usemtl Shape.15694
s off
f 8//1 9//1 14//1
f 5//2 1//2 7//2
f 6//3 2//3 7//3
f 4//4 5//4 8//4
f 3//5 2//5 9//5
f 2//3 6//3 9//3
f 8//6 3//6 9//6
f 1//7 5//7 10//7
f 5//4 4//4 10//4
f 4//8 6//8 10//8
f 10//8 6//8 11//8
f 7//9 1//9 11//9
f 6//3 7//3 11//3
f 1//10 10//10 11//10
f 2//11 3//11 12//11
f 7//12 2//12 12//12
f 5//13 7//13 12//13
f 3//14 8//14 13//14
f 8//4 5//4 13//4
f 12//15 3//15 13//15
f 5//16 12//16 13//16
f 6//8 4//8 14//8
f 4//17 8//17 14//17
f 9//18 6//18 14//18
