# Blender v2.79 (sub 0) OBJ File: ''
# www.blender.org
mtllib 693_link_0_93.mtl
o Shape_IndexedFaceSet.093_Shape_IndexedFaceSet.15714
v -0.026105 0.155991 -0.478756
v -0.034686 0.069216 -0.481617
v -0.034686 0.069216 -0.480663
v -0.027058 0.074945 -0.478756
v -0.021338 0.156946 -0.481617
v -0.030869 0.138820 -0.481617
v -0.032776 0.098792 -0.478756
v -0.028962 0.069216 -0.481617
v -0.020383 0.156946 -0.478756
v -0.032776 0.069216 -0.478756
v -0.027058 0.157901 -0.481617
v -0.033729 0.108315 -0.480663
v -0.028962 0.142631 -0.478756
v -0.028009 0.069216 -0.480663
vn 0.0000 -1.0000 -0.0000
vn 0.0000 0.0000 -1.0000
vn 0.0000 0.0000 1.0000
vn -0.7065 0.0000 0.7077
vn -0.1340 0.8030 0.5807
vn 0.1644 0.9849 -0.0549
vn -0.9997 0.0245 0.0000
vn -0.6260 0.0343 -0.7790
vn -0.8490 0.0208 0.5280
vn -0.7293 0.0634 0.6813
vn -0.9128 0.1823 0.3656
vn -0.8866 0.1896 0.4219
vn -0.8830 0.0971 0.4592
vn 0.7061 -0.0614 -0.7054
vn 0.9662 -0.0786 -0.2456
vn 0.9459 -0.0754 -0.3157
vn 0.3483 -0.3476 0.8706
usemtl Shape.15728
s off
f 10//1 8//1 14//1
f 5//2 2//2 6//2
f 4//3 1//3 7//3
f 3//1 2//1 8//1
f 2//2 5//2 8//2
f 1//3 4//3 9//3
f 7//4 3//4 10//4
f 4//3 7//3 10//3
f 3//1 8//1 10//1
f 5//2 6//2 11//2
f 1//5 9//5 11//5
f 9//6 5//6 11//6
f 2//7 3//7 12//7
f 6//8 2//8 12//8
f 3//9 7//9 12//9
f 12//10 7//10 13//10
f 7//3 1//3 13//3
f 11//11 6//11 13//11
f 1//12 11//12 13//12
f 6//13 12//13 13//13
f 8//14 5//14 14//14
f 9//15 4//15 14//15
f 5//16 9//16 14//16
f 4//17 10//17 14//17
