# Blender v2.79 (sub 0) OBJ File: ''
# www.blender.org
mtllib 693_link_2_138.mtl
o Shape_IndexedFaceSet.138_Shape_IndexedFaceSet.11930
v 0.160323 0.108941 -0.399851
v 0.004182 0.088800 -0.445178
v 0.004182 0.098874 -0.445178
v 0.004182 0.108941 -0.404886
v 0.140160 0.088800 -0.384735
v 0.125055 0.088800 -0.425026
v 0.069695 0.113979 -0.430061
v 0.114991 0.113979 -0.384735
v 0.004182 0.088800 -0.419991
v 0.185510 0.088800 -0.384735
v 0.004182 0.113979 -0.435096
vn -0.0746 0.9836 0.1640
vn -1.0000 0.0000 -0.0000
vn 0.0000 -1.0000 0.0000
vn 0.1645 0.0000 -0.9864
vn 0.1772 0.1967 -0.9643
vn 0.2994 0.4952 -0.8156
vn 0.0828 0.9931 -0.0827
vn -0.1689 -0.1688 0.9711
vn -0.2031 -0.5875 0.7833
vn 0.5533 0.0688 -0.8302
vn 0.2762 0.7735 0.5705
vn 0.0000 0.0000 1.0000
vn 0.0638 0.5540 -0.8301
vn 0.0000 1.0000 0.0000
usemtl Shape.11939
s off
f 4//1 8//1 11//1
f 3//2 2//2 4//2
f 5//3 2//3 6//3
f 2//4 3//4 6//4
f 6//5 3//5 7//5
f 1//6 6//6 7//6
f 1//7 7//7 8//7
f 4//8 5//8 8//8
f 4//2 2//2 9//2
f 5//9 4//9 9//9
f 2//3 5//3 9//3
f 5//3 6//3 10//3
f 6//10 1//10 10//10
f 1//11 8//11 10//11
f 8//12 5//12 10//12
f 3//2 4//2 11//2
f 7//13 3//13 11//13
f 8//14 7//14 11//14
