# Blender v2.79 (sub 0) OBJ File: ''
# www.blender.org
mtllib 693_link_2_14.mtl
o Shape_IndexedFaceSet.014_Shape_IndexedFaceSet.11806
v 0.271226 -0.730206 -0.461718
v 0.281208 -0.324269 -0.248760
v 0.266103 -0.324269 -0.248760
v 0.271142 -0.732160 -0.248760
v 0.256030 -0.334375 -0.399821
v 0.291285 -0.712028 -0.379669
v 0.256030 -0.732160 -0.455221
v 0.291285 -0.732160 -0.248760
v 0.256030 -0.324269 -0.304161
v 0.276170 -0.324269 -0.339431
v 0.281208 -0.722094 -0.460254
v 0.286243 -0.339388 -0.253814
v 0.261068 -0.591156 -0.470340
v 0.261068 -0.334375 -0.399821
v 0.256030 -0.737173 -0.470340
v 0.266103 -0.560918 -0.248760
v 0.291285 -0.581050 -0.258847
v 0.256030 -0.616301 -0.399821
v 0.291285 -0.732160 -0.374637
v 0.261068 -0.324269 -0.253814
v 0.256030 -0.550852 -0.460254
vn -0.8429 0.0291 -0.5373
vn 0.0000 0.0000 1.0000
vn 0.0000 1.0000 0.0000
vn -1.0000 -0.0000 0.0000
vn -0.1809 0.9780 -0.1033
vn 0.9901 0.0521 -0.1303
vn 0.7350 0.0182 0.6779
vn 0.9421 0.3312 -0.0523
vn 0.9929 0.0499 -0.1080
vn 0.9107 0.1094 -0.3983
vn 0.0000 0.9863 -0.1651
vn 0.9626 0.0899 -0.2557
vn -0.9740 -0.2150 0.0713
vn 0.0000 -0.9997 0.0226
vn 0.5822 -0.6220 -0.5236
vn 0.3786 -0.0131 -0.9255
vn 1.0000 0.0000 0.0000
vn 0.9727 0.0155 0.2317
vn 0.9995 0.0213 -0.0231
vn -0.9967 -0.0349 0.0730
vn -0.9966 -0.0293 0.0772
vn -0.9968 -0.0247 0.0755
vn 0.6365 -0.7537 -0.1635
vn 0.9923 -0.0301 -0.1203
vn 0.1408 -0.9900 0.0000
vn 0.4726 -0.8719 -0.1284
vn -0.7084 0.0000 0.7058
vn -0.9949 -0.0190 0.0996
vn 0.1848 0.2603 -0.9477
vn 0.0000 0.2689 -0.9632
usemtl Shape.11815
s off
f 13//1 15//1 21//1
f 2//2 3//2 4//2
f 2//2 4//2 8//2
f 3//3 2//3 9//3
f 5//4 7//4 9//4
f 9//3 2//3 10//3
f 5//5 9//5 10//5
f 10//6 6//6 11//6
f 2//7 8//7 12//7
f 10//8 2//8 12//8
f 6//9 10//9 12//9
f 11//10 13//10 14//10
f 5//11 10//11 14//11
f 10//12 11//12 14//12
f 4//13 7//13 15//13
f 7//4 5//4 15//4
f 8//14 4//14 15//14
f 11//15 1//15 15//15
f 13//16 11//16 15//16
f 4//2 3//2 16//2
f 8//17 6//17 17//17
f 12//18 8//18 17//18
f 6//19 12//19 17//19
f 7//20 4//20 18//20
f 9//4 7//4 18//4
f 4//21 16//21 18//21
f 16//22 9//22 18//22
f 6//17 8//17 19//17
f 1//23 11//23 19//23
f 11//24 6//24 19//24
f 8//25 15//25 19//25
f 15//26 1//26 19//26
f 3//3 9//3 20//3
f 16//27 3//27 20//27
f 9//28 16//28 20//28
f 14//29 13//29 21//29
f 5//30 14//30 21//30
f 15//4 5//4 21//4
