# Blender v2.79 (sub 0) OBJ File: ''
# www.blender.org
mtllib 693_link_1_178.mtl
o Shape_IndexedFaceSet.178_Shape_IndexedFaceSet.607
v -0.103831 0.538614 0.681914
v 0.098186 0.603363 0.685799
v 0.100033 0.604056 0.681810
v 0.137909 0.537557 0.701389
v -0.140194 0.585167 0.701447
v 0.154736 0.549306 0.681515
v 0.155106 0.585223 0.701482
v -0.135449 0.593003 0.681580
v -0.124929 0.537215 0.701496
v -0.052859 0.603007 0.700871
v -0.157284 0.561017 0.681206
v 0.093727 0.535364 0.682077
v 0.168879 0.581353 0.681381
v 0.172103 0.560996 0.701793
v -0.077318 0.603802 0.681881
v 0.071206 0.603139 0.700907
v -0.111342 0.533656 0.701369
v -0.156986 0.556932 0.701747
v 0.124779 0.533943 0.701290
v -0.155435 0.581424 0.681321
vn -0.9954 0.0900 0.0323
vn 0.2251 0.9370 0.2670
vn -0.1875 0.9282 0.3213
vn -0.0002 -0.0321 -0.9995
vn -0.3441 -0.8345 -0.4303
vn 0.0002 -0.0409 -0.9992
vn 0.3132 0.9492 0.0319
vn 0.0008 -0.0045 -1.0000
vn 0.5654 -0.8247 -0.0088
vn -0.0001 0.0128 0.9999
vn 0.0004 -0.0179 0.9998
vn 0.8012 -0.3556 -0.4812
vn 0.7447 0.5277 0.4087
vn -0.0004 0.0302 -0.9995
vn -0.0014 0.9990 0.0437
vn -0.1773 0.9470 0.2680
vn 0.1163 0.9681 0.2221
vn 0.1927 0.9138 0.3576
vn -0.0001 0.0315 0.9995
vn -0.0011 0.9989 0.0463
vn -0.0003 0.0339 0.9994
vn -0.2424 -0.9136 -0.3264
vn -0.0157 -0.9674 -0.2526
vn -0.5181 -0.8403 -0.1596
vn -0.0003 0.0108 0.9999
vn 0.0000 -0.0127 0.9999
vn 0.2533 -0.9114 -0.3243
vn 0.0004 -0.0290 0.9996
vn 0.2015 -0.8976 -0.3921
vn 0.0004 -0.0342 0.9994
vn 0.0012 -0.9971 -0.0757
vn -0.0001 0.0225 -0.9997
vn -0.4916 0.8438 0.2154
vn 0.0002 0.0195 -0.9998
vn 0.0002 0.0056 -1.0000
vn -0.7499 0.4511 0.4840
usemtl Shape.616
s off
f 11//1 18//1 20//1
f 3//2 2//2 7//2
f 8//3 5//3 10//3
f 6//4 1//4 11//4
f 1//5 9//5 11//5
f 1//6 6//6 12//6
f 3//7 7//7 13//7
f 6//8 11//8 13//8
f 4//9 6//9 14//9
f 7//10 5//10 14//10
f 9//11 4//11 14//11
f 6//12 13//12 14//12
f 13//13 7//13 14//13
f 3//14 8//14 15//14
f 10//15 3//15 15//15
f 8//16 10//16 15//16
f 2//17 3//17 16//17
f 7//18 2//18 16//18
f 5//19 7//19 16//19
f 3//20 10//20 16//20
f 10//21 5//21 16//21
f 9//22 1//22 17//22
f 1//23 12//23 17//23
f 11//24 9//24 18//24
f 14//25 5//25 18//25
f 9//26 14//26 18//26
f 6//27 4//27 19//27
f 4//28 9//28 19//28
f 12//29 6//29 19//29
f 9//30 17//30 19//30
f 17//31 12//31 19//31
f 8//32 3//32 20//32
f 5//33 8//33 20//33
f 3//34 13//34 20//34
f 13//35 11//35 20//35
f 18//36 5//36 20//36
