# Blender v2.79 (sub 0) OBJ File: ''
# www.blender.org
mtllib 693_link_1_22.mtl
o Shape_IndexedFaceSet.022_Shape_IndexedFaceSet.451
v -0.209045 0.285136 -0.065403
v -0.251460 0.204573 -0.124767
v -0.234485 0.204573 -0.124767
v -0.168370 0.314554 -0.126993
v -0.209045 0.230016 -0.065403
v -0.217537 0.293604 -0.124767
v -0.157526 0.311316 -0.064991
v -0.238722 0.234260 -0.069645
v -0.196343 0.310580 -0.086613
v -0.158174 0.306336 -0.073887
v -0.238722 0.251226 -0.095085
v -0.242968 0.213071 -0.082371
v -0.251460 0.221538 -0.124767
v -0.187869 0.310580 -0.065403
v -0.230257 0.208827 -0.124767
v -0.217537 0.221538 -0.065403
vn -0.4087 -0.4083 0.8162
vn 0.0000 -0.0202 -0.9998
vn -0.8027 0.5635 0.1952
vn -0.3924 0.9014 -0.1831
vn 0.9734 0.1623 -0.1618
vn 0.8211 -0.5215 0.2321
vn -0.8162 0.5441 0.1944
vn -0.8330 0.4603 0.3070
vn 0.0000 -0.9805 0.1965
vn -0.9754 0.0697 0.2093
vn -0.0268 0.0000 -0.9996
vn -0.0565 0.0266 -0.9980
vn -0.9041 0.4256 -0.0377
vn -0.9553 0.2459 0.1640
vn -0.9805 0.0000 0.1964
vn -0.0250 0.9981 0.0565
vn -0.0139 0.0115 0.9998
vn -0.7348 0.6115 0.2936
vn -0.0897 0.9953 0.0358
vn 0.0514 -0.0511 -0.9974
vn 0.7093 -0.7049 -0.0018
vn 0.8362 -0.4945 -0.2371
vn 0.8235 -0.5594 -0.0946
vn 0.7065 -0.7077 0.0005
vn -0.0086 0.0011 1.0000
vn 0.0138 -0.0138 0.9998
vn -0.1822 0.0243 0.9830
vn 0.1686 -0.9594 0.2260
usemtl Shape.460
s off
f 8//1 12//1 16//1
f 3//2 2//2 4//2
f 6//3 1//3 9//3
f 4//4 6//4 9//4
f 4//5 7//5 10//5
f 7//6 5//6 10//6
f 1//7 6//7 11//7
f 8//8 1//8 11//8
f 2//9 3//9 12//9
f 12//10 8//10 13//10
f 4//11 2//11 13//11
f 6//12 4//12 13//12
f 11//13 6//13 13//13
f 8//14 11//14 13//14
f 2//15 12//15 13//15
f 7//16 4//16 14//16
f 1//17 7//17 14//17
f 9//18 1//18 14//18
f 4//19 9//19 14//19
f 3//20 4//20 15//20
f 5//21 3//21 15//21
f 4//22 10//22 15//22
f 10//23 5//23 15//23
f 3//24 5//24 16//24
f 7//25 1//25 16//25
f 5//26 7//26 16//26
f 1//27 8//27 16//27
f 12//28 3//28 16//28
