# Blender v2.79 (sub 0) OBJ File: ''
# www.blender.org
mtllib 693_link_1_181.mtl
o Shape_IndexedFaceSet.181_Shape_IndexedFaceSet.610
v -0.158174 0.548025 0.748743
v -0.006895 0.528207 0.886682
v -0.004502 0.511351 0.889333
v 0.000368 0.530771 0.717218
v -0.001284 0.581957 0.812304
v -0.145443 0.581957 0.727540
v -0.104241 0.513830 0.758815
v -0.120011 0.548025 0.829288
v -0.001284 0.581957 0.744523
v -0.006217 0.512139 0.724515
v -0.111132 0.514499 0.822601
v -0.147060 0.540152 0.727085
v -0.069132 0.581957 0.719048
v -0.030969 0.569228 0.837745
v -0.039446 0.509873 0.884407
v -0.158174 0.573469 0.719048
v -0.111518 0.569228 0.803863
v -0.060655 0.539564 0.871695
v -0.001284 0.548025 0.875916
v -0.131014 0.521226 0.796504
v -0.093020 0.521203 0.853485
v -0.136965 0.556506 0.799643
v -0.096767 0.521302 0.728326
v -0.120011 0.581957 0.761456
v -0.014015 0.526842 0.892899
v -0.127021 0.528891 0.815406
v -0.119422 0.513781 0.788965
v -0.026731 0.577710 0.820796
v -0.153742 0.547906 0.723959
vn -0.1605 -0.4849 -0.8597
vn 0.9995 0.0323 0.0000
vn 0.0000 1.0000 0.0000
vn 0.9414 -0.3372 -0.0114
vn 0.3130 0.4549 -0.8337
vn 0.0430 -0.9991 -0.0052
vn -0.0239 -0.9995 -0.0191
vn -0.0030 0.0316 -0.9995
vn -0.0722 0.7575 -0.6489
vn -0.2209 0.8219 0.5250
vn -0.2857 0.7808 0.5557
vn 0.6576 0.2073 0.7243
vn 0.9966 -0.0805 0.0191
vn 0.9998 0.0162 0.0086
vn 0.0250 0.8820 0.4705
vn -0.1555 0.8072 0.5694
vn -0.6487 -0.7589 -0.0570
vn -0.4122 -0.8098 0.4175
vn -0.4973 0.0162 0.8675
vn -0.5559 0.1738 0.8128
vn -0.8813 0.3588 0.3074
vn -0.6634 0.6777 0.3172
vn -0.4649 0.8163 0.3428
vn -0.4552 0.7527 0.4757
vn -0.0739 -0.3409 -0.9372
vn -0.1081 -0.9591 -0.2615
vn -0.3283 -0.8957 -0.3000
vn -0.4511 0.8259 0.3382
vn 0.6207 0.2071 0.7563
vn -0.1213 -0.2928 0.9484
vn -0.3842 0.1176 0.9157
vn 0.6131 0.2360 0.7540
vn -0.1473 0.6711 0.7266
vn -0.8883 -0.3285 0.3209
vn -0.7090 -0.5886 0.3884
vn -0.7513 -0.1844 0.6336
vn -0.6916 -0.5059 0.5154
vn -0.9121 -0.1018 0.3970
vn -0.8718 -0.0351 0.4886
vn -0.3995 -0.8941 -0.2026
vn -0.0293 -0.9994 -0.0164
vn -0.1046 -0.9934 0.0470
vn -0.4719 -0.8713 0.1349
vn -0.5780 -0.8113 -0.0876
vn 0.0001 0.8943 0.4475
vn -0.1710 0.8975 0.4064
vn -0.0912 0.9728 0.2131
vn -0.1561 0.9370 0.3125
vn -0.7256 -0.6763 -0.1265
vn -0.9646 -0.2002 -0.1715
vn -0.0649 -0.1991 -0.9778
vn -0.0768 -0.3196 -0.9444
usemtl Shape.619
s off
f 23//1 12//1 29//1
f 5//2 4//2 9//2
f 6//3 5//3 9//3
f 4//4 3//4 10//4
f 9//5 4//5 13//5
f 6//3 9//3 13//3
f 10//6 3//6 15//6
f 7//7 10//7 15//7
f 13//8 4//8 16//8
f 6//9 13//9 16//9
f 14//10 17//10 18//10
f 17//11 8//11 18//11
f 2//12 3//12 19//12
f 3//13 4//13 19//13
f 4//14 5//14 19//14
f 5//15 14//15 19//15
f 14//16 18//16 19//16
f 1//17 12//17 20//17
f 11//18 15//18 21//18
f 15//19 18//19 21//19
f 18//20 8//20 21//20
f 16//21 1//21 22//21
f 6//22 16//22 22//22
f 17//23 6//23 22//23
f 8//24 17//24 22//24
f 4//25 10//25 23//25
f 10//26 7//26 23//26
f 7//27 12//27 23//27
f 5//3 6//3 24//3
f 6//28 17//28 24//28
f 3//29 2//29 25//29
f 15//30 3//30 25//30
f 18//31 15//31 25//31
f 2//32 19//32 25//32
f 19//33 18//33 25//33
f 1//34 20//34 26//34
f 20//35 11//35 26//35
f 21//36 8//36 26//36
f 11//37 21//37 26//37
f 22//38 1//38 26//38
f 8//39 22//39 26//39
f 12//40 7//40 27//40
f 7//41 15//41 27//41
f 15//42 11//42 27//42
f 11//43 20//43 27//43
f 20//44 12//44 27//44
f 14//45 5//45 28//45
f 17//46 14//46 28//46
f 5//47 24//47 28//47
f 24//48 17//48 28//48
f 12//49 1//49 29//49
f 1//50 16//50 29//50
f 16//51 4//51 29//51
f 4//52 23//52 29//52
