# Blender v2.79 (sub 0) OBJ File: ''
# www.blender.org
mtllib 693_link_0_133.mtl
o Shape_IndexedFaceSet.133_Shape_IndexedFaceSet.15754
v 0.021576 0.245610 -0.532158
v -0.028010 0.129306 -0.532158
v -0.027056 0.111195 -0.532158
v 0.037787 0.090211 -0.532158
v -0.012747 0.237020 -0.532158
v 0.038741 0.176942 -0.532158
v -0.025149 0.090211 -0.532158
v -0.021333 0.207463 -0.532158
v 0.004425 0.254215 -0.532158
v 0.033971 0.213210 -0.532158
v 0.041603 0.133127 -0.532158
v -0.026102 0.169347 -0.532158
v -0.004168 0.249447 -0.532158
v 0.040649 0.105480 -0.532158
v 0.028247 0.232268 -0.532158
v 0.012983 0.252305 -0.532158
v 0.041603 0.144574 -0.532158
v -0.020379 0.213210 -0.532158
v 0.036833 0.195068 -0.532158
v -0.028010 0.137895 -0.532158
v -0.025149 0.179832 -0.532158
v -0.026102 0.094032 -0.532158
v 0.039695 0.095943 -0.532158
v -0.008938 0.243699 -0.532158
v 0.009167 0.254215 -0.532158
v 0.017753 0.249447 -0.532158
v 0.023484 0.242768 -0.532158
v 0.040649 0.156969 -0.532158
v -0.016563 0.225589 -0.532158
v -0.010839 0.240841 -0.532158
v 0.000609 0.252305 -0.532158
v -0.006069 0.247520 -0.532158
v 0.029201 0.229394 -0.532158
v 0.025385 0.238931 -0.532158
v 0.014898 0.251325 -0.532158
vn 0.0003 0.0000 1.0000
vn -0.0000 0.0000 -1.0000
vn -0.0001 0.0000 -1.0000
vn 0.0001 0.0000 -1.0000
vn 0.0003 0.0000 -1.0000
vn 0.0004 0.0000 -1.0000
usemtl Shape.15768
s off
f 27//1 15//1 34//1
f 3//2 2//2 1//2
f 3//2 1//2 4//2
f 1//2 2//2 5//2
f 4//2 1//2 6//2
f 3//2 4//2 7//2
f 5//2 2//2 8//2
f 1//2 5//2 9//2
f 6//2 1//2 10//2
f 4//2 6//2 11//2
f 8//2 2//2 12//2
f 9//2 5//2 13//2
f 4//2 11//2 14//2
f 10//2 1//2 15//2
f 1//2 9//2 16//2
f 11//2 6//2 17//2
f 5//2 8//2 18//2
f 6//3 10//3 19//3
f 12//3 2//3 20//3
f 8//4 12//4 21//4
f 3//2 7//2 22//2
f 4//4 14//4 23//4
f 13//2 5//2 24//2
f 16//2 9//2 25//2
f 1//2 16//2 26//2
f 15//2 1//2 27//2
f 17//2 6//2 28//2
f 5//2 18//2 29//2
f 24//5 5//5 30//5
f 9//2 13//2 31//2
f 13//2 24//2 32//2
f 10//6 15//6 33//6
f 26//4 16//4 35//4
