# Blender v2.79 (sub 0) OBJ File: ''
# www.blender.org
mtllib 693_link_1_139.mtl
o Shape_IndexedFaceSet.139_Shape_IndexedFaceSet.568
v -0.153928 0.408101 -0.239255
v -0.158165 0.357228 -0.298607
v -0.158165 0.395376 -0.298607
v -0.113370 0.392098 -0.301969
v -0.115771 0.408101 -0.298607
v -0.149687 0.357228 -0.290130
v -0.115771 0.403858 -0.277411
v -0.158165 0.408101 -0.285888
v -0.159441 0.409632 -0.237469
vn -0.9993 0.0272 -0.0272
vn -0.0748 0.0000 -0.9972
vn -0.0591 0.1967 -0.9787
vn 0.5059 -0.6986 -0.5059
vn 0.7044 -0.6109 0.3614
vn 0.9894 0.1425 0.0285
vn 0.5500 -0.5672 0.6130
vn -0.2076 0.6915 -0.6919
vn -0.0096 0.9994 -0.0319
vn -0.9998 0.0000 -0.0209
vn -0.5408 -0.6442 0.5409
vn 0.0335 -0.7053 0.7081
vn 0.3279 0.9173 0.2260
vn 0.2954 0.9368 0.1875
usemtl Shape.577
s off
f 8//1 3//1 9//1
f 2//2 3//2 4//2
f 4//3 3//3 5//3
f 2//4 4//4 6//4
f 6//5 4//5 7//5
f 4//6 5//6 7//6
f 1//7 6//7 7//7
f 5//8 3//8 8//8
f 5//9 8//9 9//9
f 3//10 2//10 9//10
f 2//11 6//11 9//11
f 6//12 1//12 9//12
f 1//13 7//13 9//13
f 7//14 5//14 9//14
