# Blender v2.79 (sub 0) OBJ File: ''
# www.blender.org
mtllib 693_link_2_62.mtl
o Shape_IndexedFaceSet.062_Shape_IndexedFaceSet.11854
v -0.247652 0.134130 0.063590
v -0.151962 0.139166 0.426205
v -0.151962 0.134130 0.426205
v -0.232537 0.139166 -0.037144
v -0.192269 0.144202 0.330460
v -0.151962 0.144202 0.345564
v -0.252690 0.144202 -0.037144
v -0.232537 0.134130 -0.027030
v -0.207355 0.134130 0.285105
v -0.151962 0.134130 0.355633
v -0.247652 0.144202 0.058556
vn -0.8517 0.4945 0.1735
vn -0.9217 0.0000 0.3880
vn -0.0233 0.9978 0.0623
vn 1.0000 0.0000 0.0000
vn 0.2419 0.9682 -0.0637
vn -0.0000 1.0000 0.0000
vn 0.0000 -1.0000 0.0000
vn -0.2183 -0.8736 -0.4350
vn -0.4178 -0.9059 -0.0697
vn -0.9028 -0.2437 0.3544
vn 0.9594 -0.1993 -0.1994
vn 0.9042 -0.3824 -0.1904
vn -0.9983 0.0263 0.0526
vn -0.9799 0.0891 0.1783
usemtl Shape.11863
s off
f 9//1 5//1 11//1
f 3//2 2//2 5//2
f 5//3 2//3 6//3
f 2//4 3//4 6//4
f 6//5 4//5 7//5
f 5//6 6//6 7//6
f 3//7 1//7 8//7
f 7//8 4//8 8//8
f 1//9 7//9 8//9
f 1//7 3//7 9//7
f 3//10 5//10 9//10
f 6//4 3//4 10//4
f 4//11 6//11 10//11
f 3//7 8//7 10//7
f 8//12 4//12 10//12
f 7//13 1//13 11//13
f 5//6 7//6 11//6
f 1//14 9//14 11//14
