# Blender v2.79 (sub 0) OBJ File: ''
# www.blender.org
mtllib 693_link_0_128.mtl
o Shape_IndexedFaceSet.128_Shape_IndexedFaceSet.15749
v -0.013703 0.057773 -0.533112
v -0.027057 0.125469 -0.533112
v -0.027057 0.142637 -0.533112
v 0.004412 0.061592 -0.533112
v -0.019427 0.162669 -0.533112
v -0.021330 0.059683 -0.533112
v -0.025147 0.162669 -0.533112
v 0.004412 0.057773 -0.533112
v -0.025147 0.092108 -0.533112
v -0.026102 0.155985 -0.533112
v -0.026102 0.105467 -0.533112
v -0.022288 0.066357 -0.533112
v -0.020379 0.058728 -0.533112
vn 0.0000 0.0000 -1.0000
vn 0.0000 0.0000 1.0000
vn -0.0001 0.0000 1.0000
usemtl Shape.15763
s off
f 6//1 1//1 13//1
f 3//2 1//2 4//2
f 3//2 4//2 5//2
f 1//2 2//2 6//2
f 3//2 5//2 7//2
f 4//2 1//2 8//2
f 6//2 2//2 9//2
f 3//3 7//3 10//3
f 9//2 2//2 11//2
f 6//2 9//2 12//2
f 3//2 2//2 1//2
