# Blender v2.79 (sub 0) OBJ File: ''
# www.blender.org
mtllib 693_link_0_26.mtl
o Shape_IndexedFaceSet.026_Shape_IndexedFaceSet.15647
v -0.028965 0.202715 -0.503549
v -0.025150 0.166490 -0.481617
v -0.025150 0.176025 -0.484480
v -0.036593 0.140740 -0.489249
v -0.032778 0.136922 -0.507365
v -0.025150 0.136922 -0.482575
v -0.025150 0.194129 -0.507365
v -0.036593 0.144559 -0.507365
v -0.026105 0.215104 -0.499733
v -0.032778 0.179820 -0.495920
v -0.025150 0.217025 -0.507365
v -0.030871 0.136922 -0.481617
v -0.026105 0.176025 -0.484480
v -0.032778 0.178871 -0.507365
v -0.036593 0.136922 -0.507365
v -0.030871 0.148377 -0.507365
v -0.031824 0.180784 -0.494017
v -0.031824 0.141705 -0.482575
v -0.036593 0.136922 -0.489249
v -0.036593 0.146472 -0.492109
v -0.027057 0.213206 -0.507365
v -0.025150 0.213206 -0.498778
vn -0.2045 0.3559 0.9119
vn 1.0000 0.0000 0.0000
vn 0.0000 0.0000 -1.0000
vn -0.9759 0.1951 0.0979
vn 0.1651 -0.0319 0.9858
vn 0.0000 -1.0000 -0.0000
vn 0.0000 0.2876 0.9578
vn -0.9870 0.1600 -0.0133
vn -1.0000 0.0000 0.0000
vn 0.9439 -0.1571 -0.2904
vn 0.9539 -0.1193 -0.2753
vn -0.9123 0.1538 0.3794
vn -0.9125 0.2105 0.3508
vn -0.7811 0.2270 0.5817
vn -0.8070 0.1659 0.5667
vn -0.4526 0.0876 0.8874
vn -0.6682 0.1518 0.7284
vn -0.8137 0.1633 0.5578
vn -0.8136 0.0000 0.5814
vn -0.7995 -0.0392 0.5994
vn -0.9490 0.1408 0.2822
vn -0.9936 0.1126 -0.0093
vn -0.9938 0.1105 -0.0139
vn -0.9765 0.2035 0.0712
vn -0.8947 0.4467 0.0005
vn -0.9856 0.1642 -0.0413
vn 0.8156 0.5287 0.2351
vn 0.0000 0.3589 0.9334
usemtl Shape.15661
s off
f 9//1 13//1 22//1
f 3//2 2//2 6//2
f 3//2 6//2 7//2
f 7//3 5//3 8//3
f 9//4 1//4 10//4
f 3//2 7//2 11//2
f 7//3 8//3 11//3
f 6//5 2//5 12//5
f 5//6 6//6 12//6
f 2//7 3//7 13//7
f 10//8 1//8 14//8
f 11//3 8//3 14//3
f 4//9 8//9 15//9
f 8//3 5//3 15//3
f 5//6 12//6 15//6
f 6//10 5//10 16//10
f 5//3 7//3 16//3
f 7//11 6//11 16//11
f 10//12 4//12 17//12
f 9//13 10//13 17//13
f 13//14 9//14 17//14
f 13//15 17//15 18//15
f 12//16 2//16 18//16
f 2//17 13//17 18//17
f 17//18 4//18 18//18
f 18//19 4//19 19//19
f 4//9 15//9 19//9
f 15//6 12//6 19//6
f 12//20 18//20 19//20
f 8//9 4//9 20//9
f 4//21 10//21 20//21
f 10//22 14//22 20//22
f 14//23 8//23 20//23
f 1//24 9//24 21//24
f 9//25 11//25 21//25
f 14//26 1//26 21//26
f 11//3 14//3 21//3
f 3//2 11//2 22//2
f 11//27 9//27 22//27
f 13//28 3//28 22//28
