# Blender v2.79 (sub 0) OBJ File: ''
# www.blender.org
mtllib 693_link_0_109.mtl
o Shape_IndexedFaceSet.109_Shape_IndexedFaceSet.15730
v 0.013948 -0.165364 -0.472082
v 0.015855 -0.130092 -0.471128
v 0.015855 -0.130092 -0.475895
v 0.012042 -0.130092 -0.471128
v 0.015855 -0.175861 -0.475895
v 0.015855 -0.175861 -0.471128
v 0.014901 -0.175861 -0.475895
v 0.012995 -0.130092 -0.473988
vn -0.9484 -0.0263 -0.3160
vn 0.0000 1.0000 0.0000
vn 1.0000 0.0000 0.0000
vn 0.0000 0.0000 1.0000
vn -0.6776 -0.0564 0.7333
vn 0.0000 -1.0000 0.0000
vn -0.9928 -0.0507 -0.1085
vn 0.0000 0.0000 -1.0000
vn -0.9682 -0.1583 0.1938
vn -0.5547 0.0116 -0.8320
usemtl Shape.15744
s off
f 7//1 4//1 8//1
f 2//2 3//2 4//2
f 3//3 2//3 5//3
f 2//4 4//4 6//4
f 4//5 1//5 6//5
f 5//3 2//3 6//3
f 5//6 6//6 7//6
f 1//7 4//7 7//7
f 3//8 5//8 7//8
f 6//9 1//9 7//9
f 4//2 3//2 8//2
f 3//10 7//10 8//10
