# Blender v2.79 (sub 0) OBJ File: ''
# www.blender.org
mtllib 693_link_2_1.mtl
o Shape_IndexedFaceSet.001_Shape_IndexedFaceSet.11793
v 0.059573 -0.334305 0.184427
v -0.143896 -0.324579 0.149573
v 0.160325 -0.324232 0.149176
v 0.059573 -0.359486 0.149176
v -0.081421 -0.324232 0.189467
v -0.106624 -0.354445 0.154216
v 0.120024 -0.324232 0.184427
v 0.120024 -0.354445 0.154216
vn 0.5260 -0.6013 0.6014
vn -0.0013 0.0037 -1.0000
vn -0.0011 1.0000 -0.0069
vn -0.0071 -0.8137 0.5812
vn -0.0357 -0.1968 -0.9798
vn -0.4721 -0.4736 0.7435
vn -0.0298 -0.7483 0.6627
vn 0.0000 1.0000 0.0000
vn 0.0247 -0.1484 0.9886
vn 0.0194 -0.8136 0.5812
vn 0.1039 -0.2969 -0.9492
vn 0.1170 -0.7022 0.7023
usemtl Shape.11802
s off
f 3//1 7//1 8//1
f 2//2 3//2 4//2
f 3//3 2//3 5//3
f 4//4 1//4 6//4
f 2//5 4//5 6//5
f 5//6 2//6 6//6
f 1//7 5//7 6//7
f 3//8 5//8 7//8
f 5//9 1//9 7//9
f 1//10 4//10 8//10
f 4//11 3//11 8//11
f 7//12 1//12 8//12
