# Blender v2.79 (sub 0) OBJ File: ''
# www.blender.org
mtllib 693_link_1_151.mtl
o Shape_IndexedFaceSet.151_Shape_IndexedFaceSet.580
v -0.111507 0.552275 0.210212
v -0.141213 0.548035 0.184775
v -0.141213 0.548035 0.189016
v 0.164087 0.548035 0.184775
v -0.141213 0.552275 0.184775
v 0.142839 0.548035 0.210212
v 0.164087 0.552275 0.189016
v -0.111507 0.548035 0.210212
v 0.142839 0.552275 0.210212
vn 0.0000 1.0000 0.0000
vn 0.0000 -1.0000 0.0000
vn -0.5179 0.6050 0.6048
vn -1.0000 0.0000 0.0000
vn 0.0000 0.0000 -1.0000
vn 0.6461 -0.5398 0.5397
vn 0.0098 0.7072 -0.7070
vn -0.5808 0.0000 0.8140
vn 0.0000 0.0000 1.0000
vn 0.7062 0.0000 0.7080
usemtl Shape.589
s off
f 7//1 1//1 9//1
f 3//2 2//2 4//2
f 3//3 1//3 5//3
f 2//4 3//4 5//4
f 4//5 2//5 5//5
f 3//2 4//2 6//2
f 6//6 4//6 7//6
f 5//1 1//1 7//1
f 4//7 5//7 7//7
f 1//8 3//8 8//8
f 6//9 1//9 8//9
f 3//2 6//2 8//2
f 1//9 6//9 9//9
f 6//10 7//10 9//10
