# Blender v2.79 (sub 0) OBJ File: ''
# www.blender.org
mtllib 693_link_2_64.mtl
o Shape_IndexedFaceSet.064_Shape_IndexedFaceSet.11856
v 0.054562 0.139166 0.531980
v 0.170399 0.139166 0.431255
v 0.161853 0.134664 0.432057
v 0.003928 0.144533 0.484389
v 0.009219 0.134130 0.491668
v 0.165335 0.139166 0.345651
v 0.135137 0.144202 0.481581
v 0.170399 0.144202 0.345651
v 0.170399 0.134130 0.355720
v 0.085194 0.134534 0.519844
vn 0.0037 -1.0000 0.0044
vn -0.6652 0.1703 0.7270
vn -0.5065 -0.6522 -0.5640
vn 0.0048 0.9942 0.1070
vn 0.2208 0.9736 0.0573
vn -0.5379 0.5409 -0.6467
vn 0.0025 1.0000 0.0007
vn 0.4696 -0.8809 0.0587
vn -0.2692 -0.9087 -0.3191
vn 1.0000 0.0000 0.0000
vn 0.5752 -0.5784 -0.5785
vn 0.4566 -0.7959 0.3975
vn -0.0688 -0.9775 0.1995
vn 0.3558 0.6837 0.6372
vn 0.4613 -0.7907 0.4024
vn 0.0111 -0.9999 0.0082
usemtl Shape.11865
s off
f 5//1 9//1 10//1
f 1//2 4//2 5//2
f 5//3 4//3 6//3
f 4//4 1//4 7//4
f 7//5 2//5 8//5
f 6//6 4//6 8//6
f 4//7 7//7 8//7
f 2//8 3//8 9//8
f 5//9 6//9 9//9
f 8//10 2//10 9//10
f 6//11 8//11 9//11
f 3//12 2//12 10//12
f 1//13 5//13 10//13
f 7//14 1//14 10//14
f 2//15 7//15 10//15
f 9//16 3//16 10//16
