# Blender v2.79 (sub 0) OBJ File: ''
# www.blender.org
mtllib 693_link_2_114.mtl
o Shape_IndexedFaceSet.114_Shape_IndexedFaceSet.11906
v -0.006629 0.114084 0.561244
v -0.151955 0.129089 0.365763
v -0.003198 0.135235 0.500301
v -0.086475 0.134129 0.526936
v -0.151955 0.113986 0.396009
v -0.106605 0.113986 0.537012
v -0.005892 0.113986 0.521898
v -0.156999 0.134129 0.436293
v -0.146911 0.113986 0.486614
v -0.156999 0.134129 0.365763
v -0.005892 0.134129 0.542031
v -0.071373 0.119022 0.557144
vn 0.0070 0.6918 0.7220
vn 0.0000 -1.0000 -0.0000
vn 0.5320 -0.6358 -0.5592
vn 0.9941 -0.1068 0.0189
vn 0.3593 -0.8349 -0.4169
vn 0.0004 -1.0000 0.0025
vn -0.0106 0.9999 0.0083
vn -0.5272 0.7378 0.4216
vn -0.5208 0.7514 0.4052
vn -0.9391 -0.3397 0.0523
vn 0.5482 0.5487 -0.6312
vn -0.6665 -0.6670 -0.3331
vn -0.0072 1.0000 0.0000
vn -0.9700 -0.2429 0.0000
vn 0.9975 0.0257 0.0651
vn -0.0049 0.9996 0.0262
vn -0.0901 0.8720 0.4811
vn -0.4243 0.7070 0.5657
vn -0.0947 -0.9141 0.3944
usemtl Shape.11915
s off
f 1//1 11//1 12//1
f 6//2 5//2 7//2
f 2//3 3//3 7//3
f 3//4 1//4 7//4
f 5//5 2//5 7//5
f 1//6 6//6 7//6
f 4//7 3//7 8//7
f 6//8 4//8 9//8
f 5//2 6//2 9//2
f 4//9 8//9 9//9
f 8//10 5//10 9//10
f 3//11 2//11 10//11
f 2//12 5//12 10//12
f 8//13 3//13 10//13
f 5//14 8//14 10//14
f 1//15 3//15 11//15
f 3//16 4//16 11//16
f 11//17 4//17 12//17
f 4//18 6//18 12//18
f 6//19 1//19 12//19
