# Blender v2.79 (sub 0) OBJ File: ''
# www.blender.org
mtllib 693_link_0_9.mtl
o Shape_IndexedFaceSet.009_Shape_IndexedFaceSet.15630
v 0.050184 0.092102 -0.483525
v 0.046372 0.066355 -0.507365
v 0.046372 0.087332 -0.507365
v 0.042556 0.067313 -0.481617
v 0.050184 0.066355 -0.482575
v 0.051137 0.073984 -0.507365
v 0.043511 0.092102 -0.481617
v 0.051137 0.092102 -0.507365
v 0.051137 0.089237 -0.484480
v 0.050184 0.066355 -0.507365
v 0.047323 0.092102 -0.507365
v 0.049230 0.084474 -0.481617
v 0.042556 0.066355 -0.482575
v 0.051137 0.075894 -0.485435
v 0.043511 0.092102 -0.483525
vn -0.9987 0.0357 -0.0357
vn -0.0000 0.0000 -1.0000
vn 0.0000 1.0000 -0.0000
vn 0.9519 0.3040 0.0381
vn 1.0000 0.0000 0.0000
vn 0.0000 -1.0000 0.0000
vn 0.9923 -0.1240 0.0000
vn 0.1188 -0.0462 0.9918
vn 0.2693 0.2019 0.9417
vn 0.0000 0.0000 1.0000
vn 0.7856 0.0559 0.6162
vn 0.8219 0.0132 0.5694
vn -0.9884 0.0000 -0.1521
vn 0.0000 -0.7071 0.7071
vn 0.9953 -0.0969 0.0084
vn 0.9655 -0.0186 0.2597
vn -0.9993 0.0385 0.0000
vn -0.9689 0.1932 -0.1549
vn -0.9916 0.0322 -0.1254
usemtl Shape.15644
s off
f 13//1 4//1 15//1
f 2//2 3//2 6//2
f 6//2 3//2 8//2
f 7//3 1//3 8//3
f 8//4 1//4 9//4
f 6//5 8//5 9//5
f 5//6 2//6 10//6
f 2//2 6//2 10//2
f 6//7 5//7 10//7
f 8//2 3//2 11//2
f 7//3 8//3 11//3
f 4//8 5//8 12//8
f 1//9 7//9 12//9
f 7//10 4//10 12//10
f 9//11 1//11 12//11
f 5//12 9//12 12//12
f 3//13 2//13 13//13
f 5//14 4//14 13//14
f 2//6 5//6 13//6
f 5//15 6//15 14//15
f 9//16 5//16 14//16
f 6//5 9//5 14//5
f 4//17 7//17 15//17
f 11//18 3//18 15//18
f 7//3 11//3 15//3
f 3//19 13//19 15//19
