# Blender v2.79 (sub 0) OBJ File: ''
# www.blender.org
mtllib 693_link_2_86.mtl
o Shape_IndexedFaceSet.086_Shape_IndexedFaceSet.11878
v 0.175409 0.048502 -0.419997
v 0.019309 -0.001862 -0.495547
v 0.019309 0.003177 -0.495547
v 0.019309 0.043459 -0.445185
v 0.155277 -0.001862 -0.414956
v 0.145202 -0.001862 -0.455251
v 0.079741 0.048502 -0.465317
v 0.019309 -0.001862 -0.470350
v 0.125052 0.048502 -0.414956
v 0.019309 0.048502 -0.470350
v 0.190547 -0.001862 -0.414956
v 0.079741 0.003177 -0.485473
vn 0.3972 0.3729 -0.8385
vn -1.0000 0.0000 -0.0000
vn 0.0000 -1.0000 0.0000
vn -0.3355 -0.4573 0.8236
vn -0.2644 -0.1587 0.9513
vn -0.0000 1.0000 0.0000
vn 0.0726 0.4846 -0.8717
vn -0.1024 0.9754 0.1955
vn 0.6591 0.1239 -0.7417
vn 0.0988 0.1285 0.9868
vn 0.0000 0.0000 1.0000
vn 0.1644 0.0000 -0.9864
vn 0.1511 -0.8685 -0.4721
vn 0.4156 0.3410 -0.8432
vn 0.1506 0.4017 -0.9033
usemtl Shape.11887
s off
f 7//1 1//1 12//1
f 3//2 2//2 4//2
f 5//3 2//3 6//3
f 4//2 2//2 8//2
f 5//4 4//4 8//4
f 2//3 5//3 8//3
f 4//5 5//5 9//5
f 1//6 7//6 9//6
f 9//6 7//6 10//6
f 3//2 4//2 10//2
f 7//7 3//7 10//7
f 4//8 9//8 10//8
f 5//3 6//3 11//3
f 6//9 1//9 11//9
f 1//10 9//10 11//10
f 9//11 5//11 11//11
f 2//12 3//12 12//12
f 6//13 2//13 12//13
f 1//14 6//14 12//14
f 3//15 7//15 12//15
