# Blender v2.79 (sub 0) OBJ File: ''
# www.blender.org
mtllib 693_link_1_146.mtl
o Shape_IndexedFaceSet.146_Shape_IndexedFaceSet.575
v -0.001295 0.573477 0.078776
v -0.115760 0.560756 0.053324
v -0.115327 0.577653 0.053549
v -0.115760 0.573477 0.112688
v -0.001295 0.577717 0.053324
v -0.107278 0.577717 0.112688
v -0.005541 0.569236 0.066056
v -0.107278 0.560756 0.066056
v -0.001295 0.569236 0.053324
vn 0.0738 -0.9961 -0.0492
vn -0.9997 0.0257 -0.0055
vn -0.0020 0.0134 -0.9999
vn -0.0006 1.0000 -0.0010
vn -0.4463 0.8929 0.0598
vn 0.2470 -0.4941 0.8336
vn 0.0917 0.9823 0.1636
vn 0.0857 -0.9534 0.2893
vn -0.3000 -0.9328 0.1999
vn 0.0798 -0.9579 0.2758
vn 0.0830 -0.9962 0.0277
vn 1.0000 0.0000 -0.0000
vn 0.0000 0.0000 -1.0000
vn 0.4421 -0.8848 0.1474
usemtl Shape.584
s off
f 8//1 2//1 9//1
f 3//2 2//2 4//2
f 2//3 3//3 5//3
f 5//4 3//4 6//4
f 3//5 4//5 6//5
f 4//6 1//6 6//6
f 1//7 5//7 6//7
f 1//8 4//8 7//8
f 4//9 2//9 8//9
f 7//10 4//10 8//10
f 7//11 8//11 9//11
f 5//12 1//12 9//12
f 2//13 5//13 9//13
f 1//14 7//14 9//14
