# Blender v2.79 (sub 0) OBJ File: ''
# www.blender.org
mtllib 693_link_0_69.mtl
o Shape_IndexedFaceSet.069_Shape_IndexedFaceSet.15690
v -0.007031 0.162669 -0.469220
v 0.009179 0.184600 -0.468267
v 0.010132 0.183645 -0.468267
v 0.009179 0.184600 -0.469220
v 0.023484 0.162669 -0.469220
v -0.007031 0.162669 -0.468267
v 0.023484 0.162669 -0.468267
v 0.002506 0.182692 -0.468267
vn -0.9028 0.4300 0.0000
vn 0.7078 0.7064 0.0000
vn 0.0000 0.0000 -1.0000
vn 0.8044 0.5247 -0.2786
vn 0.0000 0.0000 1.0000
vn 0.0000 -1.0000 0.0000
vn 0.8436 0.5370 0.0000
vn -0.2749 0.9615 0.0000
vn -0.1767 0.1306 -0.9756
usemtl Shape.15704
s off
f 1//1 6//1 8//1
f 2//2 3//2 4//2
f 1//3 4//3 5//3
f 4//4 3//4 5//4
f 3//5 2//5 6//5
f 1//6 5//6 6//6
f 5//7 3//7 7//7
f 3//5 6//5 7//5
f 6//6 5//6 7//6
f 2//8 4//8 8//8
f 4//9 1//9 8//9
f 6//5 2//5 8//5
