# Blender v2.79 (sub 0) OBJ File: ''
# www.blender.org
mtllib 693_link_1_33.mtl
o Shape_IndexedFaceSet.033_Shape_IndexedFaceSet.462
v -0.166656 0.454738 -0.018780
v -0.196336 0.399625 -0.116287
v -0.175133 0.399625 -0.116287
v -0.145453 0.399625 -0.006043
v -0.179991 0.456767 -0.120657
v -0.145453 0.454738 -0.035725
v -0.196336 0.454738 -0.095065
v -0.179367 0.399625 -0.056923
v -0.145453 0.399625 -0.044220
v -0.145453 0.454738 0.002441
v -0.175133 0.437781 -0.116287
v -0.153940 0.403872 -0.010285
v -0.187849 0.446262 -0.065395
v -0.194992 0.453282 -0.113150
vn -0.2711 0.9576 -0.0972
vn 0.0000 -1.0000 0.0000
vn 0.0000 -0.0763 -0.9971
vn -0.0769 0.9966 0.0299
vn 1.0000 0.0000 0.0000
vn -0.0229 0.9995 0.0229
vn 0.0586 0.9983 0.0000
vn 0.6688 0.0000 -0.7435
vn 0.9171 0.1497 -0.3694
vn 0.9247 0.0000 -0.3808
vn 0.9331 0.0548 -0.3553
vn -0.5573 -0.7426 0.3714
vn -0.8647 -0.1354 0.4837
vn -0.7062 -0.0587 0.7056
vn -0.4953 -0.1322 0.8586
vn -0.9639 -0.0957 0.2484
vn -0.8834 0.3186 0.3437
vn -0.9541 -0.1240 0.2727
vn -0.9009 -0.0866 0.4253
vn -0.4583 0.0633 -0.8865
vn -0.9966 0.0294 -0.0764
usemtl Shape.471
s off
f 7//1 5//1 14//1
f 2//2 3//2 4//2
f 3//3 2//3 5//3
f 1//4 5//4 7//4
f 2//2 4//2 8//2
f 4//2 3//2 9//2
f 6//5 4//5 9//5
f 5//6 1//6 10//6
f 6//7 5//7 10//7
f 4//5 6//5 10//5
f 3//8 5//8 11//8
f 5//9 6//9 11//9
f 9//10 3//10 11//10
f 6//11 9//11 11//11
f 8//12 4//12 12//12
f 1//13 8//13 12//13
f 10//14 1//14 12//14
f 4//15 10//15 12//15
f 7//16 2//16 13//16
f 1//17 7//17 13//17
f 2//18 8//18 13//18
f 8//19 1//19 13//19
f 5//20 2//20 14//20
f 2//21 7//21 14//21
