# Blender v2.79 (sub 0) OBJ File: ''
# www.blender.org
mtllib 693_link_0_24.mtl
o Shape_IndexedFaceSet.024_Shape_IndexedFaceSet.15645
v 0.051139 0.098770 -0.516899
v 0.040649 0.065402 -0.517854
v 0.045419 0.065402 -0.517854
v 0.046369 0.065402 -0.507367
v 0.047323 0.122618 -0.507367
v 0.045419 0.121660 -0.517854
v 0.051139 0.073987 -0.507367
v 0.051139 0.122618 -0.507367
v 0.051139 0.122618 -0.517854
v 0.050184 0.065402 -0.513085
v 0.040649 0.068269 -0.516899
v 0.048276 0.075892 -0.517854
v 0.046369 0.087339 -0.507367
v 0.050184 0.065402 -0.507367
vn 0.9939 -0.1106 0.0000
vn 0.0000 -1.0000 0.0000
vn 0.0000 0.0000 -1.0000
vn -0.0000 0.0000 1.0000
vn 1.0000 0.0000 0.0000
vn -0.1649 0.9845 -0.0600
vn 0.0000 1.0000 0.0000
vn 0.9936 -0.0405 -0.1052
vn -0.8669 -0.1575 0.4729
vn -0.9658 0.0819 -0.2458
vn -0.9813 0.0907 0.1699
vn 0.5468 -0.0335 -0.8366
vn 0.8474 -0.0842 -0.5242
vn 0.6946 -0.1892 -0.6941
vn -0.8575 0.0000 0.5146
vn -0.8775 0.0237 0.4791
usemtl Shape.15659
s off
f 10//1 7//1 14//1
f 2//2 3//2 4//2
f 3//3 2//3 6//3
f 5//4 4//4 7//4
f 5//4 7//4 8//4
f 7//5 1//5 8//5
f 8//5 1//5 9//5
f 6//6 5//6 9//6
f 3//3 6//3 9//3
f 5//7 8//7 9//7
f 4//2 3//2 10//2
f 1//8 7//8 10//8
f 2//9 4//9 11//9
f 6//10 2//10 11//10
f 5//11 6//11 11//11
f 9//12 1//12 12//12
f 3//3 9//3 12//3
f 1//13 10//13 12//13
f 10//14 3//14 12//14
f 4//4 5//4 13//4
f 11//15 4//15 13//15
f 5//16 11//16 13//16
f 7//4 4//4 14//4
f 4//2 10//2 14//2
