# Blender v2.79 (sub 0) OBJ File: ''
# www.blender.org
mtllib 693_link_2_75.mtl
o Shape_IndexedFaceSet.075_Shape_IndexedFaceSet.11867
v 0.014253 -0.117708 -0.540868
v -0.041146 -0.001867 -0.465343
v -0.051224 -0.001867 -0.465343
v -0.051224 -0.188229 -0.520725
v 0.019292 -0.188229 -0.530796
v -0.051224 -0.178149 -0.545900
v 0.019292 -0.006907 -0.500590
v -0.051224 -0.001867 -0.490518
v 0.019292 -0.011946 -0.475415
v 0.019292 -0.193269 -0.555989
v -0.005902 -0.067347 -0.525756
v 0.022584 -0.202203 -0.538177
v -0.051224 -0.193269 -0.545900
v -0.005902 -0.178149 -0.555989
vn -0.1378 -0.2297 -0.9635
vn 0.0000 -0.2849 0.9586
vn -1.0000 0.0000 -0.0000
vn -0.0000 1.0000 0.0000
vn 0.0674 0.9974 -0.0270
vn 0.1104 -0.2886 0.9511
vn 0.1350 -0.2970 0.9453
vn 0.1926 0.9622 0.1926
vn 0.8130 0.1659 -0.5581
vn 0.1329 0.3333 -0.9334
vn -0.2950 0.2864 -0.9116
vn -0.0992 0.4174 -0.9033
vn 0.1270 -0.4397 0.8891
vn 0.6550 -0.2265 0.7209
vn 0.9999 0.0162 0.0032
vn 0.9862 0.0472 -0.1586
vn -0.0627 -0.8967 -0.4382
vn -0.1379 -0.9712 0.1944
vn -0.2173 0.0000 -0.9761
vn 0.1216 0.2026 -0.9717
vn -0.0655 0.2627 -0.9627
vn -0.2100 0.2574 -0.9432
usemtl Shape.11876
s off
f 10//1 13//1 14//1
f 2//2 3//2 4//2
f 4//3 3//3 6//3
f 3//4 2//4 8//4
f 6//3 3//3 8//3
f 2//5 7//5 8//5
f 2//6 4//6 9//6
f 4//7 5//7 9//7
f 7//8 2//8 9//8
f 1//9 7//9 10//9
f 7//10 1//10 11//10
f 6//11 8//11 11//11
f 8//12 7//12 11//12
f 5//13 4//13 12//13
f 9//14 5//14 12//14
f 7//15 9//15 12//15
f 10//16 7//16 12//16
f 10//17 12//17 13//17
f 4//3 6//3 13//3
f 12//18 4//18 13//18
f 13//19 6//19 14//19
f 1//20 10//20 14//20
f 11//21 1//21 14//21
f 6//22 11//22 14//22
