# Blender v2.79 (sub 0) OBJ File: ''
# www.blender.org
mtllib 693_link_0_58.mtl
o Shape_IndexedFaceSet.058_Shape_IndexedFaceSet.15679
v 0.026345 0.066353 -0.483526
v 0.014903 0.057774 -0.498782
v 0.007273 0.057774 -0.488294
v 0.007273 0.065400 -0.485435
v 0.026345 0.061588 -0.481617
v 0.026345 0.064447 -0.497826
v 0.007273 0.061588 -0.481617
v 0.026345 0.059681 -0.498782
v 0.016809 0.063493 -0.498782
v 0.014903 0.057774 -0.486387
v 0.017759 0.066353 -0.481617
v 0.007273 0.064447 -0.488294
v 0.007273 0.057774 -0.484480
v 0.018713 0.057774 -0.491151
vn 0.2381 -0.9524 0.1904
vn 1.0000 0.0000 -0.0000
vn -1.0000 0.0000 -0.0000
vn 0.0784 0.1961 -0.9775
vn -0.0782 0.9776 -0.1955
vn 0.0000 0.0000 -1.0000
vn 0.0000 -1.0000 0.0000
vn 0.2021 0.3642 0.9091
vn -0.0399 0.9897 -0.1375
vn -0.0294 0.9908 -0.1321
vn -0.3061 0.6737 0.6726
vn 0.0000 0.0000 1.0000
vn -0.8087 0.0000 -0.5883
vn -0.7082 0.2360 -0.6654
vn -0.2452 0.9197 -0.3066
vn 0.0000 -0.6003 0.7997
vn 0.1111 -0.8889 0.4444
vn 0.1638 -0.9831 -0.0818
vn 0.3377 -0.9355 0.1039
usemtl Shape.15693
s off
f 5//1 10//1 14//1
f 1//2 5//2 6//2
f 4//3 3//3 7//3
f 6//2 5//2 8//2
f 6//4 8//4 9//4
f 4//5 6//5 9//5
f 8//6 2//6 9//6
f 3//7 2//7 10//7
f 5//8 1//8 11//8
f 6//9 4//9 11//9
f 1//10 6//10 11//10
f 4//11 7//11 11//11
f 7//12 5//12 11//12
f 2//13 3//13 12//13
f 3//3 4//3 12//3
f 9//14 2//14 12//14
f 4//15 9//15 12//15
f 7//3 3//3 13//3
f 5//16 7//16 13//16
f 3//7 10//7 13//7
f 10//17 5//17 13//17
f 2//18 8//18 14//18
f 8//19 5//19 14//19
f 10//7 2//7 14//7
