# Blender v2.79 (sub 0) OBJ File: ''
# www.blender.org
mtllib 693_link_1_96.mtl
o Shape_IndexedFaceSet.096_Shape_IndexedFaceSet.525
v 0.130148 0.564996 0.328933
v -0.132732 0.560756 0.282299
v -0.132732 0.560756 0.290786
v 0.155607 0.560756 0.282299
v -0.132732 0.564996 0.282299
v -0.103040 0.560756 0.328933
v 0.155607 0.564996 0.282299
v -0.103040 0.564996 0.328933
v 0.130148 0.560756 0.328933
vn 0.0000 0.0000 1.0000
vn 0.0000 -1.0000 0.0000
vn -1.0000 0.0000 0.0000
vn 0.0000 0.0000 -1.0000
vn 0.8777 0.0000 0.4792
vn 0.0000 1.0000 0.0000
vn -0.5745 0.7322 0.3658
vn -0.7891 0.0000 0.6142
usemtl Shape.534
s off
f 1//1 6//1 9//1
f 3//2 2//2 4//2
f 2//3 3//3 5//3
f 4//4 2//4 5//4
f 3//2 4//2 6//2
f 1//5 4//5 7//5
f 5//6 1//6 7//6
f 4//4 5//4 7//4
f 1//6 5//6 8//6
f 5//7 3//7 8//7
f 3//8 6//8 8//8
f 6//1 1//1 8//1
f 4//5 1//5 9//5
f 6//2 4//2 9//2
