# Blender v2.79 (sub 0) OBJ File: ''
# www.blender.org
mtllib 693_link_0_91.mtl
o Shape_IndexedFaceSet.091_Shape_IndexedFaceSet.15712
v 0.026345 0.233223 -0.533112
v 0.006319 0.240850 -0.534065
v 0.006319 0.240850 -0.533112
v 0.033017 0.164585 -0.533112
v 0.037788 0.178890 -0.534065
v 0.022525 0.241808 -0.534065
v 0.032062 0.166500 -0.534065
v 0.037788 0.178890 -0.533112
v 0.010136 0.250401 -0.533112
v 0.033017 0.212247 -0.534065
v 0.006319 0.250401 -0.534065
vn 0.2203 0.4155 -0.8825
vn 0.0000 0.0000 1.0000
vn 0.0000 0.0000 -1.0000
vn -0.9449 -0.3272 0.0000
vn -0.9085 -0.3180 0.2713
vn 0.4498 -0.2079 -0.8686
vn 0.9486 -0.3164 0.0000
vn 0.2129 0.2009 0.9562
vn 0.7487 0.2657 -0.6073
vn 0.3881 0.0817 0.9180
vn 0.9899 0.1416 0.0000
vn -1.0000 0.0000 0.0000
vn -0.2411 0.0964 0.9657
usemtl Shape.15726
s off
f 9//1 6//1 11//1
f 1//2 3//2 4//2
f 5//3 2//3 6//3
f 3//4 2//4 7//4
f 4//5 3//5 7//5
f 5//6 4//6 7//6
f 2//3 5//3 7//3
f 1//2 4//2 8//2
f 4//7 5//7 8//7
f 3//2 1//2 9//2
f 1//8 6//8 9//8
f 5//3 6//3 10//3
f 6//9 1//9 10//9
f 1//10 8//10 10//10
f 8//11 5//11 10//11
f 2//12 3//12 11//12
f 6//3 2//3 11//3
f 3//13 9//13 11//13
