# Blender v2.79 (sub 0) OBJ File: ''
# www.blender.org
mtllib 693_link_0_6.mtl
o Shape_IndexedFaceSet.006_Shape_IndexedFaceSet.15627
v 0.011083 0.112120 -0.455870
v -0.008938 0.066363 -0.458730
v -0.007028 0.065402 -0.458730
v 0.004414 0.066363 -0.453010
v 0.026345 0.068271 -0.458730
v 0.005370 0.134054 -0.458730
v -0.005122 0.106401 -0.457776
v 0.008230 0.084480 -0.453010
v 0.019669 0.103538 -0.457776
v 0.005370 0.099728 -0.453963
v -0.006075 0.070180 -0.455870
v 0.026345 0.068271 -0.457776
v 0.005370 0.134054 -0.457776
v 0.009177 0.066363 -0.453010
v 0.018716 0.065402 -0.458730
v 0.010130 0.131192 -0.458730
v 0.003461 0.076853 -0.453010
v -0.005122 0.106401 -0.458730
v 0.010130 0.077807 -0.453010
v 0.010130 0.131192 -0.457776
v -0.007982 0.086388 -0.457776
v 0.008230 0.099728 -0.453963
vn 0.0697 0.1159 0.9908
vn -0.3101 -0.6163 0.7239
vn 0.0000 0.0000 -1.0000
vn -0.3665 -0.3661 0.8554
vn 0.9826 0.1860 0.0000
vn -0.9350 0.3547 0.0000
vn -0.2794 0.1060 0.9543
vn 0.0000 -0.9862 0.1657
vn 0.0000 0.0000 1.0000
vn 0.2384 -0.8113 0.5338
vn 0.3520 -0.9360 0.0000
vn 0.3661 0.0943 -0.9258
vn 0.5153 0.8570 0.0000
vn -0.3041 0.0650 0.9504
vn -0.0766 0.0479 0.9959
vn -0.2713 -0.0246 0.9622
vn -0.3239 0.0582 0.9443
vn 0.3135 0.0593 0.9477
vn 0.2697 -0.0225 0.9627
vn 0.3189 0.1100 0.9414
vn 0.9453 0.3261 0.0000
vn -0.7068 0.0000 0.7074
vn -0.4107 0.0587 0.9099
vn -0.7060 0.0673 -0.7050
vn -0.9899 0.1415 0.0000
vn 0.2912 0.0797 0.9533
vn 0.0000 0.0624 0.9981
vn 0.0000 0.1104 0.9939
vn 0.2141 0.0609 0.9749
vn 0.2954 0.0670 0.9530
vn 0.1880 0.1070 0.9763
usemtl Shape.15641
s off
f 20//1 13//1 22//1
f 2//2 3//2 4//2
f 3//3 2//3 5//3
f 5//3 2//3 6//3
f 2//4 4//4 11//4
f 5//5 9//5 12//5
f 6//6 7//6 13//6
f 7//7 10//7 13//7
f 4//8 3//8 14//8
f 8//9 4//9 14//9
f 12//10 14//10 15//10
f 3//3 5//3 15//3
f 5//11 12//11 15//11
f 14//8 3//8 15//8
f 5//3 6//3 16//3
f 9//12 5//12 16//12
f 6//13 13//13 16//13
f 4//9 8//9 17//9
f 10//14 7//14 17//14
f 8//15 10//15 17//15
f 11//16 4//16 17//16
f 7//17 11//17 17//17
f 6//3 2//3 18//3
f 7//6 6//6 18//6
f 12//18 9//18 19//18
f 8//9 14//9 19//9
f 14//19 12//19 19//19
f 1//20 9//20 20//20
f 9//21 16//21 20//21
f 16//13 13//13 20//13
f 2//22 11//22 21//22
f 11//23 7//23 21//23
f 18//24 2//24 21//24
f 7//25 18//25 21//25
f 9//26 1//26 22//26
f 10//27 8//27 22//27
f 13//28 10//28 22//28
f 8//29 19//29 22//29
f 19//30 9//30 22//30
f 1//31 20//31 22//31
