# Blender v2.79 (sub 0) OBJ File: ''
# www.blender.org
mtllib 693_link_1_102.mtl
o Shape_IndexedFaceSet.102_Shape_IndexedFaceSet.531
v 0.121684 0.552275 0.642723
v -0.094569 0.548035 0.621521
v -0.111531 0.548035 0.638479
v -0.094569 0.552275 0.621521
v 0.096208 0.548035 0.621521
v -0.111531 0.552275 0.642723
v 0.121684 0.548035 0.642723
v 0.096208 0.552275 0.621521
vn 0.0000 0.0000 -1.0000
vn -0.7070 0.0000 -0.7072
vn 0.0000 -1.0000 0.0000
vn -0.6621 0.5302 -0.5297
vn 0.0000 1.0000 -0.0000
vn 0.6397 0.0000 -0.7686
vn 0.0000 0.0000 1.0000
vn -0.0129 -0.7074 0.7067
usemtl Shape.540
s off
f 5//1 4//1 8//1
f 2//2 3//2 4//2
f 3//3 2//3 5//3
f 2//1 4//1 5//1
f 4//4 3//4 6//4
f 1//5 4//5 6//5
f 5//6 1//6 7//6
f 3//3 5//3 7//3
f 1//7 6//7 7//7
f 6//8 3//8 7//8
f 4//5 1//5 8//5
f 1//6 5//6 8//6
