# Blender v2.79 (sub 0) OBJ File: ''
# www.blender.org
mtllib 693_link_0_8.mtl
o Shape_IndexedFaceSet.008_Shape_IndexedFaceSet.15629
v -0.029918 0.083520 -0.481617
v -0.036593 0.067309 -0.507365
v -0.031826 0.067309 -0.507365
v -0.036593 0.083520 -0.507365
v -0.036593 0.067309 -0.483525
v -0.029918 0.067309 -0.481617
v -0.036593 0.083520 -0.483525
v -0.032780 0.081611 -0.507365
v -0.035638 0.067309 -0.481617
vn -0.8942 0.0000 0.4476
vn 0.0000 0.0000 -1.0000
vn 0.0000 -1.0000 0.0000
vn -1.0000 0.0000 0.0000
vn 0.9973 0.0000 -0.0739
vn 0.0000 1.0000 0.0000
vn 0.9912 0.0661 -0.1151
vn 0.4447 0.8882 -0.1153
vn 0.0000 0.0000 1.0000
vn -0.2735 0.0965 0.9570
usemtl Shape.15643
s off
f 7//1 5//1 9//1
f 3//2 2//2 4//2
f 2//3 3//3 5//3
f 4//4 2//4 5//4
f 3//5 1//5 6//5
f 5//3 3//3 6//3
f 1//6 4//6 7//6
f 4//4 5//4 7//4
f 1//7 3//7 8//7
f 3//2 4//2 8//2
f 4//8 1//8 8//8
f 6//9 1//9 9//9
f 5//3 6//3 9//3
f 1//10 7//10 9//10
