# Blender v2.79 (sub 0) OBJ File: ''
# www.blender.org
mtllib 693_link_2_30.mtl
o Shape_IndexedFaceSet.030_Shape_IndexedFaceSet.11822
v 0.205662 -0.324228 -0.445176
v 0.250990 -0.001867 -0.289034
v 0.245945 -0.001867 -0.289034
v 0.210702 -0.011964 -0.409897
v 0.250990 -0.309113 -0.419976
v 0.245945 -0.314099 -0.354514
v 0.250990 -0.001867 -0.349493
v 0.205662 -0.022030 -0.374693
v 0.210702 -0.309113 -0.480436
v 0.205662 -0.001867 -0.404876
v 0.250990 -0.324228 -0.359573
v 0.245945 -0.268818 -0.339432
v 0.230837 -0.001867 -0.384735
v 0.205662 -0.324228 -0.480436
v 0.240909 -0.324228 -0.440117
v 0.205662 -0.173082 -0.404876
vn -0.8995 -0.0856 0.4284
vn -0.0000 1.0000 0.0000
vn 1.0000 0.0000 0.0000
vn -0.8476 0.4412 0.2947
vn -1.0000 -0.0000 -0.0000
vn -0.4519 0.2060 -0.8679
vn -0.7329 -0.5588 0.3881
vn 0.3021 -0.3012 0.9044
vn 0.0000 -0.1855 0.9826
vn -0.8993 -0.1382 0.4150
vn -0.8941 -0.0831 0.4400
vn 0.8406 -0.1158 0.5291
vn 0.8625 0.1131 -0.4932
vn 0.7400 0.1554 -0.6545
vn 0.5118 0.5735 -0.6397
vn -0.5648 0.1883 -0.8035
vn 0.0000 -1.0000 0.0000
vn 0.8888 -0.4446 -0.1112
vn 0.8513 0.1146 -0.5121
vn 0.8158 0.1226 -0.5652
vn 0.7302 -0.2435 -0.6384
vn -0.9091 -0.1073 0.4026
usemtl Shape.11831
s off
f 12//1 8//1 16//1
f 3//2 2//2 7//2
f 2//3 5//3 7//3
f 3//2 7//2 10//2
f 8//4 3//4 10//4
f 1//5 8//5 10//5
f 4//6 9//6 10//6
f 5//3 2//3 11//3
f 6//7 1//7 11//7
f 6//8 11//8 12//8
f 2//9 3//9 12//9
f 1//10 6//10 12//10
f 3//11 8//11 12//11
f 11//12 2//12 12//12
f 7//13 5//13 13//13
f 9//14 4//14 13//14
f 10//2 7//2 13//2
f 4//15 10//15 13//15
f 1//5 10//5 14//5
f 10//16 9//16 14//16
f 11//17 1//17 14//17
f 11//17 14//17 15//17
f 5//18 11//18 15//18
f 13//19 5//19 15//19
f 9//20 13//20 15//20
f 14//21 9//21 15//21
f 8//5 1//5 16//5
f 1//22 12//22 16//22
