# Blender v2.79 (sub 0) OBJ File: ''
# www.blender.org
mtllib 693_link_0_20.mtl
o Shape_IndexedFaceSet.020_Shape_IndexedFaceSet.15641
v -0.026102 0.059680 -0.507367
v -0.032773 0.062540 -0.517854
v -0.033729 0.063493 -0.516899
v 0.006319 0.062540 -0.517854
v 0.006319 0.057773 -0.517854
v 0.004410 0.062540 -0.507367
v -0.035639 0.064448 -0.507367
v 0.006319 0.057773 -0.507367
v -0.029914 0.059680 -0.517854
v -0.026102 0.064448 -0.517854
v -0.019424 0.064448 -0.507367
v -0.034678 0.060634 -0.510227
v -0.019424 0.058727 -0.516899
v -0.000359 0.057773 -0.507367
vn -0.0379 -0.9990 -0.0241
vn 0.0000 0.0000 -1.0000
vn -0.0000 0.0000 1.0000
vn 1.0000 0.0000 0.0000
vn 0.9154 0.3666 0.1666
vn -0.1731 0.6051 -0.7771
vn -0.1388 0.9822 -0.1262
vn 0.0000 1.0000 0.0000
vn 0.0798 0.9967 0.0145
vn 0.0587 0.9976 -0.0374
vn -0.8104 -0.4879 -0.3244
vn -0.3096 -0.6192 0.7217
vn -0.9769 -0.1074 -0.1850
vn -0.6668 -0.6666 -0.3331
vn -0.1255 -0.9911 0.0456
vn -0.0485 -0.9210 -0.3866
vn -0.0935 -0.9950 0.0340
vn 0.0000 -1.0000 0.0000
vn -0.0738 -0.9961 0.0479
usemtl Shape.15655
s off
f 13//1 5//1 14//1
f 2//2 4//2 5//2
f 1//3 6//3 7//3
f 5//4 4//4 8//4
f 6//3 1//3 8//3
f 4//5 6//5 8//5
f 2//2 5//2 9//2
f 2//6 3//6 10//6
f 4//2 2//2 10//2
f 3//7 7//7 10//7
f 10//8 7//8 11//8
f 6//9 4//9 11//9
f 7//3 6//3 11//3
f 4//10 10//10 11//10
f 3//11 2//11 12//11
f 1//12 7//12 12//12
f 7//13 3//13 12//13
f 2//14 9//14 12//14
f 9//15 1//15 12//15
f 9//16 5//16 13//16
f 1//17 9//17 13//17
f 8//3 1//3 14//3
f 5//18 8//18 14//18
f 1//19 13//19 14//19
