# Blender v2.79 (sub 0) OBJ File: ''
# www.blender.org
mtllib 693_link_1_173.mtl
o Shape_IndexedFaceSet.173_Shape_IndexedFaceSet.602
v -0.139198 0.562461 0.622229
v 0.121451 0.612857 0.630220
v 0.129449 0.609117 0.641675
v 0.159844 0.560763 0.621521
v -0.135893 0.558374 0.642059
v -0.145450 0.607391 0.621521
v 0.146593 0.558309 0.642082
v -0.111881 0.609239 0.641726
v 0.163379 0.602210 0.622109
v 0.173300 0.590242 0.642250
v -0.159440 0.590255 0.642283
v -0.104743 0.613214 0.622470
v -0.126237 0.558720 0.622309
v -0.162236 0.577939 0.621791
v -0.086727 0.612491 0.641517
v 0.123658 0.613372 0.622413
v 0.174768 0.573941 0.642340
v 0.176007 0.577969 0.621829
vn 0.9929 0.0898 0.0776
vn 0.0021 0.0140 -0.9999
vn 0.0002 0.0310 0.9995
vn 0.3690 0.8675 0.3337
vn -0.3240 0.8252 0.4628
vn 0.0001 0.0291 0.9996
vn -0.1434 0.9784 0.1488
vn -0.2733 -0.9501 -0.1503
vn 0.0068 -0.9934 -0.1142
vn -0.0002 -0.9998 -0.0176
vn -0.5549 -0.8282 -0.0782
vn -0.0013 -0.0084 -1.0000
vn -0.7272 -0.5400 0.4238
vn -0.8560 0.4863 -0.1755
vn -0.0035 -0.0335 -0.9994
vn -0.0025 -0.0317 -0.9995
vn 0.0147 0.9535 0.3011
vn 0.0002 0.0623 0.9981
vn -0.1254 0.9798 0.1558
vn -0.0007 0.9993 0.0386
vn 0.2543 0.9576 0.1351
vn 0.2692 0.9543 0.1299
vn 0.0025 0.0361 -0.9993
vn -0.0004 0.1633 -0.9866
vn 0.0018 0.9978 0.0663
vn 0.4736 -0.8570 0.2030
vn -0.0001 -0.0164 0.9999
vn -0.0005 -0.0074 1.0000
vn 0.0001 0.0055 1.0000
vn 0.0044 0.0138 -0.9999
vn 0.8748 0.4576 -0.1590
vn 0.7267 -0.6810 -0.0898
usemtl Shape.611
s off
f 10//1 17//1 18//1
f 4//2 6//2 9//2
f 3//3 8//3 10//3
f 9//4 3//4 10//4
f 8//5 6//5 11//5
f 10//6 8//6 11//6
f 6//7 8//7 12//7
f 5//8 1//8 13//8
f 4//9 7//9 13//9
f 7//10 5//10 13//10
f 1//11 5//11 14//11
f 6//12 4//12 14//12
f 5//13 11//13 14//13
f 11//14 6//14 14//14
f 13//15 1//15 14//15
f 4//16 13//16 14//16
f 3//17 2//17 15//17
f 8//18 3//18 15//18
f 12//19 8//19 15//19
f 12//20 15//20 16//20
f 2//21 3//21 16//21
f 3//22 9//22 16//22
f 9//23 6//23 16//23
f 6//24 12//24 16//24
f 15//25 2//25 16//25
f 7//26 4//26 17//26
f 5//27 7//27 17//27
f 11//28 5//28 17//28
f 10//29 11//29 17//29
f 4//30 9//30 18//30
f 9//31 10//31 18//31
f 17//32 4//32 18//32
