# Blender v2.79 (sub 0) OBJ File: ''
# www.blender.org
mtllib 693_link_2_35.mtl
o Shape_IndexedFaceSet.035_Shape_IndexedFaceSet.11827
v 0.110724 -0.046933 0.580769
v -0.131130 -0.196895 0.580811
v 0.114971 -0.268787 0.672982
v -0.005102 -0.101697 0.748050
v -0.022168 0.004970 0.573573
v 0.061741 -0.287497 0.581689
v -0.085397 -0.276414 0.663111
v -0.094651 -0.139476 0.719669
v 0.117418 -0.153659 0.714928
v 0.149699 -0.172704 0.580628
v -0.096538 -0.057277 0.642817
v 0.065520 -0.050121 0.672488
v -0.036119 -0.319179 0.637779
v -0.126271 -0.100183 0.585666
v -0.107984 -0.209853 0.700565
v -0.044117 -0.288950 0.580711
v -0.056249 -0.047211 0.678038
v 0.041698 -0.125697 0.747161
v 0.135130 -0.107669 0.657917
v 0.040922 0.005502 0.573282
v -0.136827 -0.142947 0.637779
v 0.155289 -0.173082 0.622662
v 0.139138 -0.220832 0.581167
v 0.052711 -0.313265 0.624267
v 0.013793 -0.039764 0.677301
v 0.055989 -0.106698 0.742957
v -0.122165 -0.226268 0.580348
v -0.064909 -0.144605 0.737086
v -0.115351 -0.234808 0.672624
v -0.096749 -0.047575 0.581237
v 0.149463 -0.129213 0.580768
v 0.122633 -0.196132 0.705665
v -0.081952 -0.287645 0.629516
v 0.095387 -0.287663 0.629519
v 0.023558 -0.298126 0.581024
v -0.047118 -0.111563 0.742722
v 0.108200 -0.059188 0.630062
v -0.136242 -0.133997 0.580661
v 0.093696 -0.125453 0.728924
v -0.010928 -0.001867 0.602524
v -0.141888 -0.173082 0.622645
v -0.120437 -0.201403 0.687025
v 0.133314 -0.210825 0.686953
v 0.052520 -0.312639 0.638938
v -0.005351 -0.317262 0.614869
v 0.078300 -0.144585 0.737034
v -0.080296 -0.125424 0.728924
v 0.108227 -0.078037 0.663111
vn 0.5339 0.6257 0.5687
vn -0.0217 -0.5279 0.8490
vn -0.0239 -0.4964 0.8678
vn -0.4529 0.8478 0.2758
vn -0.0044 -0.0239 -0.9997
vn -0.8331 0.3675 0.4135
vn -0.8972 0.4127 0.1569
vn 0.9278 0.0910 0.3617
vn 0.0361 -0.0191 -0.9992
vn 0.9302 -0.3628 0.0554
vn 0.9681 -0.2139 -0.1307
vn -0.0740 0.7601 0.6456
vn 0.2155 0.8736 0.4364
vn 0.0941 0.1471 0.9846
vn 0.1159 0.7318 0.6716
vn 0.2085 0.7487 0.6293
vn -0.0140 -0.0232 -0.9996
vn -0.0181 -0.4792 0.8775
vn -0.5177 -0.1314 0.8454
vn -0.0021 -0.4611 0.8874
vn -0.0643 -0.1619 0.9847
vn -0.5539 -0.5431 0.6311
vn -0.5620 0.8168 0.1306
vn -0.8663 0.4929 0.0806
vn 0.9036 0.4255 0.0491
vn 0.1632 0.0769 -0.9836
vn 0.0733 0.0036 -0.9973
vn 0.9913 0.0058 -0.1318
vn 0.9650 0.2363 0.1133
vn -0.5796 -0.7889 0.2043
vn -0.4856 -0.7988 -0.3551
vn -0.5669 -0.7083 -0.4206
vn -0.7928 -0.5979 0.1186
vn -0.8408 -0.5413 0.0120
vn 0.7974 -0.5950 -0.1009
vn 0.5912 -0.6896 -0.4183
vn 0.5118 -0.7787 -0.3627
vn 0.0012 -0.0256 -0.9997
vn 0.0289 -0.0414 -0.9987
vn 0.0190 -0.0266 -0.9995
vn 0.2451 -0.8516 -0.4634
vn -0.2461 0.6695 0.7008
vn -0.0982 -0.1157 0.9884
vn 0.8126 0.5545 0.1795
vn 0.5695 0.7904 0.2257
vn 0.4964 0.8039 0.3276
vn -0.9600 0.2781 0.0337
vn -0.0808 -0.0089 -0.9967
vn -0.0558 -0.0051 -0.9984
vn -0.1561 0.0779 -0.9847
vn -0.6286 0.2920 -0.7208
vn 0.7582 0.3719 0.5356
vn 0.5258 0.6272 0.5746
vn -0.3258 0.8840 0.3353
vn -0.0071 0.9726 0.2325
vn -0.0882 0.8764 0.4733
vn 0.1091 0.9007 0.4204
vn -0.9537 -0.2898 -0.0803
vn -0.9279 -0.3713 0.0342
vn -0.9754 -0.0798 -0.2054
vn -0.9873 0.1584 0.0147
vn -0.7473 -0.0385 0.6633
vn -0.8836 0.1310 0.4495
vn -0.7883 -0.3409 0.5123
vn -0.9487 0.0005 0.3163
vn -0.9483 -0.2359 0.2122
vn 0.9363 -0.3271 0.1280
vn 0.9279 0.0799 0.3641
vn 0.6544 -0.3665 0.6614
vn 0.8679 -0.0018 0.4968
vn 0.0377 -0.6457 0.7626
vn 0.0729 -0.9964 0.0435
vn 0.5205 -0.8436 0.1319
vn 0.5100 -0.8591 0.0433
vn -0.2609 -0.8677 -0.4231
vn 0.0675 -0.9977 0.0072
vn -0.1089 -0.8226 -0.5581
vn 0.1277 -0.9061 -0.4033
vn 0.0111 -0.4557 0.8900
vn 0.2710 0.0091 0.9625
vn 0.1473 -0.4186 0.8961
vn 0.4638 -0.1340 0.8757
vn 0.4879 -0.0227 0.8726
vn 0.3831 0.0818 0.9201
vn -0.7500 0.4424 0.4916
vn -0.6227 0.5522 0.5544
vn -0.5105 -0.0441 0.8588
vn -0.5072 0.5741 0.6428
vn -0.4055 0.0628 0.9119
vn 0.7250 0.5985 0.3408
vn 0.5604 0.7196 0.4100
vn 0.6743 0.5204 0.5238
usemtl Shape.11836
s off
f 12//1 39//1 48//1
f 3//2 7//2 13//2
f 7//3 3//3 15//3
f 5//4 11//4 17//4
f 16//5 5//5 20//5
f 8//6 11//6 21//6
f 11//7 14//7 21//7
f 19//8 9//8 22//8
f 20//9 10//9 23//9
f 22//10 3//10 23//10
f 10//11 22//11 23//11
f 17//12 4//12 25//12
f 12//13 20//13 25//13
f 4//14 18//14 26//14
f 25//15 4//15 26//15
f 12//16 25//16 26//16
f 5//17 16//17 27//17
f 15//18 3//18 28//18
f 8//19 15//19 28//19
f 3//20 18//20 28//20
f 18//21 4//21 28//21
f 7//22 15//22 29//22
f 11//23 5//23 30//23
f 14//24 11//24 30//24
f 1//25 19//25 31//25
f 20//26 1//26 31//26
f 10//27 20//27 31//27
f 22//28 10//28 31//28
f 19//29 22//29 31//29
f 13//30 7//30 33//30
f 16//31 13//31 33//31
f 27//32 16//32 33//32
f 7//33 29//33 33//33
f 29//34 27//34 33//34
f 23//35 3//35 34//35
f 6//36 23//36 34//36
f 24//37 6//37 34//37
f 16//38 20//38 35//38
f 23//39 6//39 35//39
f 20//40 23//40 35//40
f 6//41 24//41 35//41
f 4//42 17//42 36//42
f 28//43 4//43 36//43
f 19//44 1//44 37//44
f 1//45 20//45 37//45
f 20//46 12//46 37//46
f 21//47 14//47 38//47
f 27//48 2//48 38//48
f 5//49 27//49 38//49
f 30//50 5//50 38//50
f 14//51 30//51 38//51
f 9//52 19//52 39//52
f 12//53 26//53 39//53
f 5//54 17//54 40//54
f 20//55 5//55 40//55
f 17//56 25//56 40//56
f 25//57 20//57 40//57
f 2//58 27//58 41//58
f 27//59 29//59 41//59
f 38//60 2//60 41//60
f 21//61 38//61 41//61
f 15//62 8//62 42//62
f 8//63 21//63 42//63
f 29//64 15//64 42//64
f 21//65 41//65 42//65
f 41//66 29//66 42//66
f 3//67 22//67 43//67
f 22//68 9//68 43//68
f 32//69 3//69 43//69
f 9//70 32//70 43//70
f 3//71 13//71 44//71
f 13//72 24//72 44//72
f 34//73 3//73 44//73
f 24//74 34//74 44//74
f 13//75 16//75 45//75
f 24//76 13//76 45//76
f 16//77 35//77 45//77
f 35//78 24//78 45//78
f 18//79 3//79 46//79
f 26//80 18//80 46//80
f 3//81 32//81 46//81
f 32//82 9//82 46//82
f 9//83 39//83 46//83
f 39//84 26//84 46//84
f 11//85 8//85 47//85
f 17//86 11//86 47//86
f 8//87 28//87 47//87
f 36//88 17//88 47//88
f 28//89 36//89 47//89
f 19//90 37//90 48//90
f 37//91 12//91 48//91
f 39//92 19//92 48//92
