# Blender v2.79 (sub 0) OBJ File: ''
# www.blender.org
mtllib 693_link_0_126.mtl
o Shape_IndexedFaceSet.126_Shape_IndexedFaceSet.15747
v 0.030159 0.083520 -0.533112
v 0.007273 0.057778 -0.534065
v 0.007273 0.057778 -0.533112
v 0.031113 0.058730 -0.534065
v 0.031113 0.058730 -0.533112
v 0.031113 0.083520 -0.534065
v 0.007273 0.061591 -0.534065
vn -0.5604 0.6093 -0.5610
vn 0.0399 -0.9992 0.0000
vn 0.0000 0.0000 1.0000
vn 0.0000 0.0000 -1.0000
vn 0.7065 0.0272 0.7072
vn 1.0000 0.0000 0.0000
vn -0.2631 0.2339 0.9360
vn -1.0000 0.0000 0.0000
usemtl Shape.15761
s off
f 1//1 6//1 7//1
f 3//2 2//2 4//2
f 1//3 3//3 5//3
f 3//2 4//2 5//2
f 4//4 2//4 6//4
f 1//5 5//5 6//5
f 5//6 4//6 6//6
f 3//7 1//7 7//7
f 2//8 3//8 7//8
f 6//4 2//4 7//4
