# Blender v2.79 (sub 0) OBJ File: ''
# www.blender.org
mtllib 693_link_2_117.mtl
o Shape_IndexedFaceSet.117_Shape_IndexedFaceSet.11909
v 0.120024 0.204646 0.285206
v 0.140171 0.149244 0.466469
v 0.130094 0.149244 0.476550
v 0.069661 0.144203 0.466469
v 0.076985 0.198368 0.398908
v 0.140171 0.144203 0.400992
v 0.140171 0.204646 0.340603
v 0.069661 0.204646 0.340603
v 0.069661 0.149244 0.511832
v 0.135133 0.199605 0.270085
v 0.089815 0.179459 0.451372
vn -0.2170 0.9002 0.3775
vn 0.0766 -0.9941 0.0765
vn 0.0703 -0.9946 0.0757
vn 1.0000 0.0000 -0.0000
vn 0.0000 1.0000 0.0000
vn 0.0000 0.9943 0.1071
vn 0.0643 -0.9918 0.1102
vn -1.0000 -0.0000 0.0000
vn -0.8531 0.4964 0.1606
vn -0.3314 -0.8734 -0.3569
vn 0.2367 0.9678 -0.0861
vn 0.9956 -0.0663 -0.0664
vn -0.7256 -0.1960 -0.6596
vn -0.4722 -0.7946 -0.3816
vn 0.3866 0.8374 0.3864
vn 0.3938 0.8413 0.3703
vn 0.1786 0.9388 0.2947
vn 0.2942 0.8121 0.5039
usemtl Shape.11918
s off
f 5//1 9//1 11//1
f 2//2 3//2 6//2
f 3//3 4//3 6//3
f 2//4 6//4 7//4
f 7//5 1//5 8//5
f 5//6 7//6 8//6
f 4//7 3//7 9//7
f 8//8 4//8 9//8
f 5//9 8//9 9//9
f 6//10 4//10 10//10
f 1//11 7//11 10//11
f 7//12 6//12 10//12
f 8//13 1//13 10//13
f 4//14 8//14 10//14
f 3//15 2//15 11//15
f 2//16 7//16 11//16
f 7//17 5//17 11//17
f 9//18 3//18 11//18
