# Blender v2.79 (sub 0) OBJ File: ''
# www.blender.org
mtllib 693_link_1_150.mtl
o Shape_IndexedFaceSet.150_Shape_IndexedFaceSet.579
v -0.110722 0.547065 0.182811
v 0.138431 0.604543 0.183063
v 0.172541 0.603147 0.184773
v 0.165462 0.545910 0.147880
v -0.136324 0.596924 0.148234
v -0.148168 0.601484 0.183621
v -0.160950 0.549580 0.147673
v 0.142833 0.543795 0.184773
v 0.180980 0.594668 0.150854
v -0.182154 0.569430 0.184215
v 0.202250 0.577710 0.146610
v 0.082022 0.603674 0.148842
v 0.195466 0.569465 0.184109
v -0.181667 0.577643 0.147216
v -0.132716 0.543795 0.180529
v 0.176742 0.543795 0.150854
v -0.082876 0.603739 0.148803
v -0.146442 0.546046 0.147961
v -0.129771 0.604945 0.183304
v -0.183399 0.581805 0.184337
v 0.189458 0.552286 0.167810
v -0.182037 0.561207 0.147180
v 0.197866 0.581807 0.184344
vn 0.9723 -0.1916 0.1338
vn -0.0089 -0.0909 0.9958
vn 0.6176 0.7853 -0.0427
vn 0.0464 0.2969 -0.9538
vn 0.0457 0.9939 -0.1006
vn 0.0928 0.9711 -0.2197
vn -0.3752 0.8951 -0.2409
vn -0.0016 0.0564 -0.9984
vn -0.0132 -0.5108 0.8596
vn -0.4359 -0.8724 0.2210
vn -0.0617 -0.2577 0.9643
vn 0.1985 -0.2673 -0.9430
vn 0.0000 -1.0000 -0.0000
vn -0.0000 0.0835 -0.9965
vn 0.0003 0.0869 -0.9962
vn -0.0003 -0.0824 -0.9966
vn -0.2372 -0.9709 0.0328
vn -0.0005 -0.8158 -0.5783
vn -0.0064 -0.9978 -0.0663
vn 0.0017 0.7913 0.6114
vn -0.0042 0.1131 0.9936
vn -0.1847 0.9650 -0.1862
vn 0.0015 0.9996 -0.0278
vn -0.1218 0.9723 -0.1996
vn 0.0004 0.9994 -0.0344
vn -0.0038 0.0432 0.9991
vn -0.0013 0.0006 1.0000
vn -0.0025 -0.0101 0.9999
vn -0.4860 0.8657 -0.1197
vn 0.3521 -0.7061 0.6144
vn 0.9154 -0.3949 0.0788
vn 0.7544 -0.6006 -0.2650
vn 0.2653 -0.9270 0.2652
vn 0.0002 -0.0421 -0.9991
vn -0.4775 -0.8580 0.1890
vn 0.0002 -0.0402 -0.9992
vn -0.0016 0.0022 -1.0000
vn -0.9948 -0.1003 0.0191
vn -0.9985 0.0226 -0.0491
vn 0.0119 -0.0060 0.9999
vn 0.6443 0.7648 -0.0082
vn 0.0242 -0.0237 0.9994
usemtl Shape.588
s off
f 13//1 11//1 23//1
f 1//2 8//2 10//2
f 9//3 3//3 11//3
f 9//4 11//4 12//4
f 2//5 3//5 12//5
f 3//6 9//6 12//6
f 6//7 5//7 14//7
f 5//8 11//8 14//8
f 8//9 1//9 15//9
f 10//10 7//10 15//10
f 1//11 10//11 15//11
f 4//12 11//12 16//12
f 8//13 15//13 16//13
f 11//14 5//14 17//14
f 12//15 11//15 17//15
f 7//16 4//16 18//16
f 15//17 7//17 18//17
f 4//18 16//18 18//18
f 16//19 15//19 18//19
f 3//20 2//20 19//20
f 6//21 3//21 19//21
f 5//22 6//22 19//22
f 2//23 12//23 19//23
f 17//24 5//24 19//24
f 12//25 17//25 19//25
f 3//26 6//26 20//26
f 8//27 3//27 20//27
f 10//28 8//28 20//28
f 6//29 14//29 20//29
f 13//30 8//30 21//30
f 11//31 13//31 21//31
f 16//32 11//32 21//32
f 8//33 16//33 21//33
f 4//34 7//34 22//34
f 7//35 10//35 22//35
f 11//36 4//36 22//36
f 14//37 11//37 22//37
f 10//38 20//38 22//38
f 20//39 14//39 22//39
f 3//40 8//40 23//40
f 11//41 3//41 23//41
f 8//42 13//42 23//42
