# Blender v2.79 (sub 0) OBJ File: ''
# www.blender.org
mtllib 693_link_2_88.mtl
o Shape_IndexedFaceSet.088_Shape_IndexedFaceSet.11880
v 0.275054 0.046908 -0.192282
v 0.240916 -0.001862 -0.314218
v 0.266097 -0.001862 -0.314218
v 0.240916 0.048502 -0.314218
v 0.261059 -0.001862 -0.188296
v 0.256031 0.048502 -0.198379
v 0.261059 0.048502 -0.314218
v 0.276171 -0.001862 -0.258788
v 0.276171 0.048502 -0.253772
v 0.276171 -0.001862 -0.188296
vn 0.9995 0.0244 0.0188
vn 0.0000 0.0000 -1.0000
vn 0.0000 -1.0000 -0.0000
vn -0.9852 -0.0668 0.1576
vn -0.9916 0.0000 0.1294
vn -0.2891 0.1601 0.9438
vn 0.0000 1.0000 -0.0000
vn 0.0748 0.9968 0.0272
vn 0.9656 0.0966 -0.2414
vn 0.9837 0.0178 -0.1788
vn 1.0000 0.0000 0.0000
vn 0.0000 0.0815 0.9967
usemtl Shape.11889
s off
f 9//1 1//1 10//1
f 3//2 2//2 4//2
f 2//3 3//3 5//3
f 2//4 5//4 6//4
f 4//5 2//5 6//5
f 5//6 1//6 6//6
f 3//2 4//2 7//2
f 4//7 6//7 7//7
f 5//3 3//3 8//3
f 6//8 1//8 9//8
f 7//7 6//7 9//7
f 3//9 7//9 9//9
f 8//10 3//10 9//10
f 8//11 9//11 10//11
f 1//12 5//12 10//12
f 5//3 8//3 10//3
