# Blender v2.79 (sub 0) OBJ File: ''
# www.blender.org
mtllib 693_link_0_129.mtl
o Shape_IndexedFaceSet.129_Shape_IndexedFaceSet.15750
v 0.040649 0.115940 -0.533112
v 0.004412 0.057773 -0.533112
v 0.027294 0.057773 -0.533112
v 0.033974 0.162669 -0.533112
v 0.034921 0.059683 -0.533112
v 0.039695 0.157895 -0.533112
v 0.004412 0.061592 -0.533112
v 0.039695 0.098793 -0.533112
v 0.040649 0.148356 -0.533112
v 0.036832 0.071141 -0.533112
v 0.037783 0.162669 -0.533112
v 0.033974 0.058728 -0.533112
v 0.038737 0.161714 -0.533112
vn 0.0000 0.0000 1.0000
vn 0.0000 0.0000 -1.0000
vn -0.0001 0.0000 -1.0000
vn 0.0001 0.0000 -1.0000
usemtl Shape.15764
s off
f 5//1 3//1 12//1
f 3//2 2//2 1//2
f 1//2 2//2 4//2
f 3//2 1//2 5//2
f 1//2 4//2 6//2
f 4//2 2//2 7//2
f 5//2 1//2 8//2
f 1//3 6//3 9//3
f 5//2 8//2 10//2
f 6//2 4//2 11//2
f 6//4 11//4 13//4
