# Blender v2.79 (sub 0) OBJ File: ''
# www.blender.org
mtllib 693_link_2_28.mtl
o Shape_IndexedFaceSet.028_Shape_IndexedFaceSet.11820
v -0.126778 -0.248652 0.239796
v -0.192257 -0.324211 0.068586
v -0.187213 -0.324211 0.068586
v -0.192257 -0.173146 0.194504
v -0.192257 -0.198320 0.300283
v -0.131822 -0.263768 0.295225
v -0.126778 -0.319172 0.134108
v -0.187213 -0.147971 0.300283
v -0.192257 -0.324211 0.108888
v -0.187213 -0.243614 0.108888
v -0.131822 -0.324211 0.174364
v -0.126778 -0.233589 0.300283
v -0.187213 -0.173146 0.194504
v -0.126778 -0.263768 0.199539
v -0.172099 -0.228551 0.295225
vn -0.5985 -0.6845 0.4162
vn -1.0000 0.0000 0.0000
vn -0.9947 0.0997 0.0237
vn 0.0000 -1.0000 0.0000
vn 0.0000 0.4472 -0.8944
vn -0.9714 0.1520 -0.1823
vn 0.6820 0.3271 -0.6542
vn 0.1885 -0.9771 -0.0987
vn 0.9758 -0.1955 0.0978
vn -0.4361 -0.8049 0.4025
vn -0.0816 -0.1515 0.9851
vn 1.0000 -0.0000 0.0000
vn 0.9795 -0.1792 0.0923
vn 0.0000 0.0000 1.0000
vn 0.8094 0.5713 -0.1360
vn 0.0000 0.9728 -0.2315
vn 0.0000 0.7721 -0.6355
vn 0.8124 0.5658 -0.1409
vn 0.7710 0.4917 -0.4047
vn 0.7744 0.4829 -0.4089
vn 0.8201 0.5357 -0.2012
vn -0.3096 -0.3541 0.8825
vn -0.7445 -0.5578 0.3669
usemtl Shape.11829
s off
f 9//1 6//1 15//1
f 4//2 2//2 5//2
f 4//3 5//3 8//3
f 2//4 3//4 9//4
f 5//2 2//2 9//2
f 3//5 2//5 10//5
f 2//6 4//6 10//6
f 7//7 3//7 10//7
f 3//8 7//8 11//8
f 7//9 6//9 11//9
f 9//4 3//4 11//4
f 6//10 9//10 11//10
f 5//11 6//11 12//11
f 7//12 1//12 12//12
f 6//13 7//13 12//13
f 8//14 5//14 12//14
f 8//15 12//15 13//15
f 4//16 8//16 13//16
f 10//17 4//17 13//17
f 12//18 1//18 13//18
f 10//19 13//19 14//19
f 1//12 7//12 14//12
f 7//20 10//20 14//20
f 13//21 1//21 14//21
f 6//22 5//22 15//22
f 5//23 9//23 15//23
