# Blender v2.79 (sub 0) OBJ File: ''
# www.blender.org
mtllib 693_link_0_49.mtl
o Shape_IndexedFaceSet.049_Shape_IndexedFaceSet.15670
v 0.033974 0.213200 -0.490198
v 0.028254 0.186503 -0.482572
v 0.038740 0.138829 -0.482572
v 0.028254 0.213200 -0.493059
v 0.029208 0.208434 -0.481618
v 0.039696 0.197941 -0.493059
v 0.039696 0.167449 -0.481618
v 0.039696 0.175074 -0.493059
v 0.028254 0.226552 -0.493059
v 0.039696 0.138829 -0.481618
v 0.039696 0.185550 -0.487339
v 0.038740 0.175074 -0.493059
v 0.028254 0.186503 -0.481618
v 0.028254 0.215106 -0.484480
v 0.029208 0.226552 -0.492105
vn -0.6248 0.4683 0.6248
vn -0.8569 -0.1885 -0.4798
vn 1.0000 0.0000 0.0000
vn 0.0000 0.0000 -1.0000
vn -1.0000 0.0000 0.0000
vn 0.0000 0.0000 1.0000
vn 0.6894 -0.2181 -0.6908
vn 0.7944 0.2228 0.5650
vn 0.8437 0.2250 0.4874
vn 0.7623 0.1951 0.6172
vn -0.7108 -0.1955 -0.6757
vn 0.0000 -0.2779 -0.9606
vn -0.9767 -0.2148 0.0000
vn -0.6964 -0.1671 0.6979
vn -0.9164 0.0399 0.3984
vn 0.7265 0.3443 0.5948
vn 0.9382 0.3422 0.0512
vn 0.6804 0.2721 -0.6804
vn 0.6719 0.3710 0.6410
usemtl Shape.15684
s off
f 9//1 14//1 15//1
f 3//2 2//2 4//2
f 6//3 7//3 8//3
f 4//4 6//4 8//4
f 4//5 2//5 9//5
f 6//4 4//4 9//4
f 7//6 5//6 10//6
f 8//3 7//3 10//3
f 3//7 8//7 10//7
f 1//8 5//8 11//8
f 6//9 1//9 11//9
f 5//10 7//10 11//10
f 7//3 6//3 11//3
f 3//11 4//11 12//11
f 8//12 3//12 12//12
f 4//4 8//4 12//4
f 2//13 3//13 13//13
f 9//5 2//5 13//5
f 3//14 10//14 13//14
f 10//6 5//6 13//6
f 9//5 13//5 14//5
f 13//15 5//15 14//15
f 5//16 1//16 15//16
f 1//17 6//17 15//17
f 6//18 9//18 15//18
f 14//19 5//19 15//19
