# Blender v2.79 (sub 0) OBJ File: ''
# www.blender.org
mtllib 693_link_2_60.mtl
o Shape_IndexedFaceSet.060_Shape_IndexedFaceSet.11852
v 0.245952 0.144202 -0.304155
v 0.084789 0.134130 -0.394809
v 0.084789 0.139166 -0.394809
v 0.084789 0.139166 -0.314235
v 0.252707 0.134326 -0.281217
v 0.160341 0.134130 -0.384717
v 0.084789 0.144202 -0.314235
v 0.170399 0.144202 -0.374648
v 0.084789 0.134130 -0.334373
v 0.230814 0.144202 -0.278971
vn -0.2347 0.0000 0.9721
vn -1.0000 0.0000 0.0000
vn 0.1324 0.0000 -0.9912
vn 0.5196 -0.7185 -0.4624
vn 0.6814 0.0496 -0.7303
vn 0.1442 0.6239 -0.7681
vn -0.0000 1.0000 0.0000
vn -0.0440 0.9971 -0.0623
vn -0.0755 -0.9674 0.2419
vn 0.0000 -1.0000 0.0000
vn 0.0008 -1.0000 0.0012
vn 0.4193 0.8722 0.2520
vn -0.1744 -0.5693 0.8034
usemtl Shape.11861
s off
f 7//1 4//1 10//1
f 3//2 2//2 4//2
f 2//3 3//3 6//3
f 1//4 5//4 6//4
f 3//2 4//2 7//2
f 1//5 6//5 8//5
f 6//6 3//6 8//6
f 7//7 1//7 8//7
f 3//8 7//8 8//8
f 4//2 2//2 9//2
f 5//9 4//9 9//9
f 2//10 6//10 9//10
f 6//11 5//11 9//11
f 5//12 1//12 10//12
f 4//13 5//13 10//13
f 1//7 7//7 10//7
