# Blender v2.79 (sub 0) OBJ File: ''
# www.blender.org
mtllib 693_link_0_147.mtl
o Shape_IndexedFaceSet.147_Shape_IndexedFaceSet.15768
v 0.035879 0.116885 -0.465406
v 0.018716 0.128335 -0.466360
v 0.018716 0.128335 -0.465406
v 0.032064 0.069216 -0.466360
v 0.033972 0.129293 -0.466360
v 0.036835 0.069216 -0.465406
v 0.036835 0.069216 -0.466360
v 0.032064 0.069216 -0.465406
v 0.033972 0.129293 -0.465406
vn -0.0627 0.9980 0.0000
vn -0.9754 -0.2202 0.0000
vn 0.0000 0.0000 -1.0000
vn 0.0000 0.0000 1.0000
vn 0.5868 0.0280 -0.8093
vn 0.9998 0.0201 0.0000
vn 0.0000 -1.0000 0.0000
vn 0.9884 0.1519 0.0000
usemtl Shape.15782
s off
f 5//1 3//1 9//1
f 3//2 2//2 4//2
f 2//1 3//1 5//1
f 4//3 2//3 5//3
f 1//4 3//4 6//4
f 5//5 1//5 7//5
f 4//3 5//3 7//3
f 1//6 6//6 7//6
f 6//7 4//7 7//7
f 3//2 4//2 8//2
f 6//4 3//4 8//4
f 4//7 6//7 8//7
f 3//4 1//4 9//4
f 1//8 5//8 9//8
