# Blender v2.79 (sub 0) OBJ File: ''
# www.blender.org
mtllib 693_link_2_32.mtl
o Shape_IndexedFaceSet.032_Shape_IndexedFaceSet.11824
v 0.261065 -0.324228 0.023177
v 0.261065 -0.324228 -0.218517
v 0.261065 -0.001867 -0.218517
v 0.281210 -0.324228 -0.218517
v 0.245953 -0.001867 0.219674
v 0.281210 -0.001867 -0.163096
v 0.245953 -0.324228 -0.027110
v 0.245953 -0.006916 -0.032113
v 0.250991 -0.052259 0.229766
v 0.276168 -0.324228 -0.092580
v 0.245953 -0.319179 0.043318
v 0.281210 -0.082457 -0.218517
v 0.281210 -0.273835 -0.153004
v 0.266097 -0.314099 0.013128
v 0.276171 -0.001867 -0.218517
v 0.250991 -0.027079 0.229766
v 0.245953 -0.062325 0.224676
vn -0.7107 0.0000 0.7035
vn 0.0000 0.0000 -1.0000
vn 0.0000 -1.0000 0.0000
vn -0.0000 1.0000 0.0000
vn -1.0000 0.0000 0.0000
vn -0.9967 0.0000 -0.0808
vn -0.5026 0.8644 -0.0173
vn -0.9969 -0.0012 -0.0787
vn -0.2315 -0.9703 0.0696
vn 0.6636 -0.4368 0.6074
vn 1.0000 0.0000 0.0000
vn 0.9979 -0.0519 0.0399
vn 0.9967 -0.0032 0.0805
vn 0.9404 -0.1829 0.2866
vn 0.9317 -0.3423 0.1216
vn 0.9950 -0.0228 0.0970
vn 0.9940 0.0621 -0.0904
vn 0.9692 0.2294 0.0893
vn 0.9970 0.0029 0.0769
vn 0.9969 0.0000 0.0787
vn 0.3109 -0.5482 0.7764
vn -0.8455 0.0440 0.5321
usemtl Shape.11833
s off
f 9//1 16//1 17//1
f 2//2 3//2 4//2
f 1//3 2//3 4//3
f 3//4 5//4 6//4
f 2//3 1//3 7//3
f 7//5 5//5 8//5
f 3//6 2//6 8//6
f 5//7 3//7 8//7
f 2//8 7//8 8//8
f 1//3 4//3 10//3
f 7//9 1//9 11//9
f 5//5 7//5 11//5
f 1//10 9//10 11//10
f 4//2 3//2 12//2
f 6//11 4//11 12//11
f 4//11 6//11 13//11
f 10//12 4//12 13//12
f 9//13 10//13 13//13
f 9//14 1//14 14//14
f 1//15 10//15 14//15
f 10//16 9//16 14//16
f 3//4 6//4 15//4
f 12//2 3//2 15//2
f 6//17 12//17 15//17
f 6//18 5//18 16//18
f 13//19 6//19 16//19
f 9//20 13//20 16//20
f 5//5 11//5 17//5
f 11//21 9//21 17//21
f 16//22 5//22 17//22
