# Blender v2.79 (sub 0) OBJ File: ''
# www.blender.org
mtllib 693_link_2_68.mtl
o Shape_IndexedFaceSet.068_Shape_IndexedFaceSet.11860
v -0.257737 0.184494 -0.062352
v -0.177147 0.149244 0.350652
v -0.182187 0.149244 0.350652
v -0.177147 0.204646 0.224715
v -0.237589 0.144203 -0.097632
v -0.177147 0.199605 0.134014
v -0.233379 0.206323 -0.110073
v -0.232541 0.144203 0.164203
v -0.242614 0.204646 0.018257
v -0.177147 0.144203 0.259951
v -0.257737 0.144203 -0.097632
v -0.257737 0.204646 -0.097632
v -0.197294 0.189535 0.224715
v -0.217442 0.149244 0.229761
v -0.252696 0.144203 0.008164
vn 0.0000 -1.0000 0.0000
vn 0.0000 0.9153 0.4027
vn 1.0000 0.0000 -0.0000
vn 0.9678 -0.1109 -0.2260
vn 0.3389 0.9394 -0.0522
vn -0.0336 0.9994 0.0106
vn -0.9748 0.1741 0.1394
vn 0.0000 -0.9985 0.0555
vn 0.9221 -0.3543 -0.1559
vn -0.0872 -0.9949 0.0504
vn 0.0000 -0.1964 -0.9805
vn -0.9671 0.2209 0.1262
vn -0.0644 0.9979 0.0084
vn -1.0000 0.0000 0.0000
vn -0.4549 0.0000 -0.8906
vn -0.5701 0.7602 0.3116
vn -0.5894 0.7859 0.1869
vn -0.8606 0.4582 0.2224
vn -0.7623 -0.6078 0.2223
vn -0.9325 0.3063 0.1912
vn -0.8534 0.4579 0.2489
vn -0.9868 0.0996 0.1275
vn -0.9980 -0.0416 0.0476
usemtl Shape.11869
s off
f 11//1 8//1 15//1
f 3//2 2//2 4//2
f 4//3 2//3 6//3
f 6//4 5//4 7//4
f 4//5 6//5 7//5
f 4//6 7//6 9//6
f 1//7 8//7 9//7
f 2//8 3//8 10//8
f 6//3 2//3 10//3
f 5//9 6//9 10//9
f 3//10 8//10 10//10
f 8//1 5//1 10//1
f 7//11 5//11 11//11
f 5//1 8//1 11//1
f 1//12 9//12 12//12
f 9//13 7//13 12//13
f 11//14 1//14 12//14
f 7//15 11//15 12//15
f 3//16 4//16 13//16
f 4//17 9//17 13//17
f 13//18 9//18 14//18
f 8//19 3//19 14//19
f 9//20 8//20 14//20
f 3//21 13//21 14//21
f 8//22 1//22 15//22
f 1//23 11//23 15//23
