# Blender v2.79 (sub 0) OBJ File: ''
# www.blender.org
mtllib 693_link_2_90.mtl
o Shape_IndexedFaceSet.090_Shape_IndexedFaceSet.11882
v -0.142275 0.047858 0.576205
v -0.174717 -0.006207 0.537436
v -0.172110 0.038420 0.491697
v -0.141361 -0.002741 0.552728
v -0.172110 0.033387 0.567222
v -0.156999 -0.001862 0.572261
v -0.167072 0.048502 0.486657
vn -0.8879 0.4590 0.0306
vn 0.3637 -0.6770 -0.6398
vn -0.9980 0.0626 0.0042
vn -0.8370 -0.2927 0.4624
vn 0.0605 -0.9938 0.0932
vn 0.7459 -0.2692 0.6093
vn -0.2932 0.0110 0.9560
vn 0.5067 -0.5745 -0.6428
vn 0.9546 0.1394 -0.2633
vn -0.4650 0.8749 0.1351
usemtl Shape.11891
s off
f 3//1 5//1 7//1
f 2//2 3//2 4//2
f 3//3 2//3 5//3
f 5//4 2//4 6//4
f 2//5 4//5 6//5
f 4//6 1//6 6//6
f 1//7 5//7 6//7
f 4//8 3//8 7//8
f 1//9 4//9 7//9
f 5//10 1//10 7//10
