# Blender v2.79 (sub 0) OBJ File: ''
# www.blender.org
mtllib 693_link_0_99.mtl
o Shape_IndexedFaceSet.099_Shape_IndexedFaceSet.15720
v 0.044462 0.088284 -0.475896
v 0.037790 0.063494 -0.478756
v 0.044462 0.063494 -0.478756
v 0.040650 0.093056 -0.478756
v 0.037790 0.063494 -0.475896
v 0.038743 0.093056 -0.475896
v 0.045416 0.065404 -0.475896
v 0.046371 0.090194 -0.478756
vn 0.9592 -0.0686 -0.2742
vn 0.0000 0.0000 -1.0000
vn 0.0000 -1.0000 0.0000
vn -0.9995 0.0322 0.0000
vn -0.8293 0.0802 -0.5530
vn -0.0000 0.0000 1.0000
vn 0.2114 -0.8439 0.4931
vn 0.4287 0.8570 0.2859
vn 0.4667 0.5593 0.6851
vn 0.8205 0.0342 0.5706
usemtl Shape.15734
s off
f 7//1 3//1 8//1
f 3//2 2//2 4//2
f 2//3 3//3 5//3
f 2//4 5//4 6//4
f 4//5 2//5 6//5
f 5//6 1//6 6//6
f 1//6 5//6 7//6
f 5//7 3//7 7//7
f 3//2 4//2 8//2
f 4//8 6//8 8//8
f 6//9 1//9 8//9
f 1//10 7//10 8//10
