# Blender v2.79 (sub 0) OBJ File: ''
# www.blender.org
mtllib 693_link_0_56.mtl
o Shape_IndexedFaceSet.056_Shape_IndexedFaceSet.15677
v 0.005365 0.057773 -0.489244
v 0.007273 -0.039490 -0.473992
v 0.007273 -0.041402 -0.473992
v 0.001552 -0.034723 -0.475897
v 0.002506 -0.041402 -0.480665
v 0.001552 0.057773 -0.485430
v 0.007273 0.054909 -0.483523
v 0.007273 -0.036626 -0.479712
v 0.001552 0.057773 -0.490200
v 0.007273 0.051094 -0.488291
v 0.002506 0.022475 -0.487337
v 0.004412 -0.022326 -0.475897
v 0.001552 0.052996 -0.484476
v 0.001552 -0.041402 -0.475897
vn -1.0000 -0.0000 -0.0000
vn -0.3159 0.0000 0.9488
vn 1.0000 0.0000 -0.0000
vn 0.3316 0.8832 0.3316
vn 0.6678 -0.5714 -0.4771
vn 0.0000 1.0000 0.0000
vn 0.9501 0.2436 -0.1949
vn 0.2426 -0.0688 -0.9677
vn 0.2390 -0.0721 -0.9683
vn 0.2899 -0.0994 -0.9519
vn -0.6515 -0.0788 -0.7545
vn 0.3594 -0.0908 -0.9287
vn -0.2685 0.0619 0.9613
vn -0.0598 0.1003 0.9932
vn -0.1970 0.1036 0.9749
vn -0.2231 0.1909 0.9559
vn -0.3887 0.0897 0.9170
vn 0.0000 -1.0000 0.0000
vn -0.9802 -0.0283 -0.1961
usemtl Shape.15691
s off
f 4//1 9//1 14//1
f 3//2 2//2 4//2
f 2//3 3//3 7//3
f 1//4 6//4 7//4
f 3//5 5//5 8//5
f 7//3 3//3 8//3
f 6//6 1//6 9//6
f 4//1 6//1 9//1
f 1//7 7//7 10//7
f 7//3 8//3 10//3
f 9//8 1//8 10//8
f 9//9 10//9 11//9
f 8//10 5//10 11//10
f 5//11 9//11 11//11
f 10//12 8//12 11//12
f 4//13 2//13 12//13
f 2//14 7//14 12//14
f 12//15 7//15 13//15
f 6//1 4//1 13//1
f 7//16 6//16 13//16
f 4//17 12//17 13//17
f 3//2 4//2 14//2
f 5//18 3//18 14//18
f 9//19 5//19 14//19
