# Blender v2.79 (sub 0) OBJ File: ''
# www.blender.org
mtllib 102652_link_1_16.mtl
o Shape_IndexedFaceSet.016_Shape_IndexedFaceSet.12287
v 0.318172 -0.522523 -0.292838
v 0.113298 0.109128 -0.279882
v 0.122030 -0.536677 -0.002937
v 0.122030 -0.536677 -0.295529
v 0.326038 -0.520753 -0.006489
v 0.325454 0.073715 -0.291178
v 0.135130 -0.309432 -0.021498
v 0.321534 -0.025623 -0.000463
v 0.120283 0.088169 -0.298004
v 0.321534 0.088169 -0.140496
v 0.330291 -0.209419 -0.000463
v 0.324576 -0.499866 -0.289906
v 0.310045 -0.532150 -0.005075
v 0.120311 0.116742 -0.273313
v 0.309537 -0.530322 -0.292528
v 0.330291 -0.200661 -0.096750
vn 0.9999 -0.0151 -0.0063
vn -0.9999 -0.0135 0.0000
vn -0.9770 0.0727 0.2003
vn -0.2506 0.0932 0.9636
vn 0.0140 -0.0039 -0.9999
vn -0.9346 -0.0040 -0.3556
vn 0.0334 0.0024 -0.9994
vn 0.9981 0.0476 0.0386
vn -0.0111 -0.0005 0.9999
vn 0.9990 0.0398 0.0222
vn 0.9628 -0.2689 -0.0248
vn 0.4240 -0.0027 -0.9056
vn 0.0241 -0.9997 0.0000
vn 0.1026 -0.0207 0.9945
vn 0.0117 -0.0150 0.9998
vn -0.8013 0.2835 0.5269
vn -0.6431 0.3728 0.6688
vn -0.0011 0.6538 -0.7566
vn 0.0711 0.6521 -0.7548
vn 0.1971 0.9764 -0.0885
vn -0.2927 0.7421 0.6030
vn 0.0180 -0.0596 -0.9981
vn 0.6699 -0.7423 -0.0138
vn 0.0340 -0.9994 -0.0064
vn 0.5800 -0.8146 -0.0062
vn 0.9999 -0.0136 -0.0012
vn 0.9998 0.0188 0.0017
vn 0.9996 -0.0016 -0.0271
usemtl Shape.12291
s off
f 5//1 12//1 16//1
f 3//2 2//2 4//2
f 2//3 3//3 7//3
f 7//4 3//4 8//4
f 1//5 4//5 9//5
f 4//6 2//6 9//6
f 6//7 1//7 9//7
f 10//8 8//8 11//8
f 8//9 3//9 11//9
f 6//10 10//10 11//10
f 5//11 1//11 12//11
f 1//12 6//12 12//12
f 3//13 4//13 13//13
f 5//14 11//14 13//14
f 11//15 3//15 13//15
f 2//16 7//16 14//16
f 7//17 8//17 14//17
f 9//18 2//18 14//18
f 6//19 9//19 14//19
f 10//20 6//20 14//20
f 8//21 10//21 14//21
f 4//22 1//22 15//22
f 1//23 5//23 15//23
f 13//24 4//24 15//24
f 5//25 13//25 15//25
f 11//26 5//26 16//26
f 6//27 11//27 16//27
f 12//28 6//28 16//28
