# Blender v2.79 (sub 0) OBJ File: ''
# www.blender.org
mtllib 102652_link_1_21.mtl
o Shape_IndexedFaceSet.021_Shape_IndexedFaceSet.12292
v 0.341240 0.155400 0.506631
v 0.321509 0.044413 0.445848
v 0.137765 0.044413 0.568340
v 0.323106 0.048333 0.572217
v 0.243894 0.156163 0.585535
v 0.330291 0.149428 0.577116
v 0.321509 0.140659 0.498376
v 0.136045 0.043475 0.578289
v 0.321509 0.061919 0.445848
v 0.137765 0.053172 0.568340
v 0.330931 0.044064 0.445412
v 0.251517 0.149428 0.559602
vn -0.6180 0.6974 -0.3628
vn 0.9862 -0.0772 0.1466
vn 0.0868 0.9914 0.0975
vn 0.0926 -0.0548 0.9942
vn -0.0705 -0.9919 -0.1057
vn 0.0348 -0.0973 0.9946
vn -0.5547 0.0000 -0.8321
vn -0.0664 0.5537 -0.8300
vn -0.5024 0.4798 -0.7193
vn -0.9854 0.0000 -0.1704
vn -0.6535 0.5954 0.4673
vn 0.9897 -0.1276 0.0654
vn -0.0398 -0.9972 -0.0629
vn 0.0271 -0.9990 0.0353
vn -0.0462 0.0000 -0.9989
vn 0.6082 0.3385 -0.7180
vn -0.2444 0.9186 -0.3104
vn -0.3596 0.7735 -0.5219
vn -0.5123 0.5451 -0.6637
usemtl Shape.12296
s off
f 10//1 5//1 12//1
f 4//2 1//2 6//2
f 1//3 5//3 6//3
f 5//4 4//4 6//4
f 3//5 2//5 8//5
f 4//6 5//6 8//6
f 2//7 3//7 9//7
f 7//8 1//8 9//8
f 7//9 9//9 10//9
f 3//10 8//10 10//10
f 8//11 5//11 10//11
f 9//7 3//7 10//7
f 1//12 4//12 11//12
f 8//13 2//13 11//13
f 4//14 8//14 11//14
f 2//15 9//15 11//15
f 9//16 1//16 11//16
f 5//17 1//17 12//17
f 1//18 7//18 12//18
f 7//19 10//19 12//19
