# Blender v2.79 (sub 0) OBJ File: ''
# www.blender.org
mtllib 102652_link_1_7.mtl
o Shape_IndexedFaceSet.007_Shape_IndexedFaceSet.12278
v 0.059947 -0.391943 0.211306
v -0.050754 -0.536677 0.006936
v -0.056448 -0.454030 -0.003577
v -0.057451 -0.389659 0.214531
v -0.050754 -0.536677 0.202167
v 0.054997 -0.536677 0.006936
v 0.054997 -0.536677 0.202167
v 0.059554 -0.454292 -0.001478
vn 0.9994 -0.0347 0.0083
vn -0.9976 -0.0687 0.0000
vn -0.9989 -0.0463 0.0091
vn 0.0000 -0.1262 -0.9920
vn 0.0000 -1.0000 0.0000
vn 0.0262 -0.0639 0.9976
vn 0.0000 -0.0838 0.9965
vn 0.0073 0.9591 -0.2830
vn 0.0109 0.9596 -0.2812
vn 0.0178 -0.1026 -0.9946
vn 0.9985 -0.0552 0.0000
usemtl Shape.12282
s off
f 1//1 7//1 8//1
f 3//2 2//2 5//2
f 4//3 3//3 5//3
f 2//4 3//4 6//4
f 5//5 2//5 6//5
f 5//5 6//5 7//5
f 1//6 4//6 7//6
f 4//7 5//7 7//7
f 3//8 4//8 8//8
f 4//9 1//9 8//9
f 6//10 3//10 8//10
f 7//11 6//11 8//11
