# Blender v2.79 (sub 0) OBJ File: ''
# www.blender.org
mtllib 102652_link_1_3.mtl
o Shape_IndexedFaceSet.003_Shape_IndexedFaceSet.12274
v -0.069907 0.053431 0.684118
v -0.063512 0.061916 0.594534
v -0.511927 0.053095 0.216597
v -0.067461 -0.536677 0.213742
v -0.074643 -0.518771 0.537602
v -0.378528 -0.524362 0.244619
v -0.404764 0.061916 0.515806
v -0.075577 -0.227630 0.280416
v -0.194784 -0.524362 0.507090
v -0.431045 0.061916 0.218329
v -0.212289 0.044361 0.655876
v -0.483563 0.035613 0.375878
v -0.326055 -0.524362 0.384641
v -0.350374 -0.532463 0.217101
v -0.075859 -0.359960 0.222625
v -0.334786 -0.025621 0.559575
v -0.133536 -0.506807 0.542096
v -0.071985 -0.530674 0.521756
v -0.509799 0.053109 0.305867
v -0.256076 -0.506807 0.472084
v -0.282313 0.061916 0.620823
v -0.142311 0.018118 0.673355
v -0.291043 -0.533110 0.419600
v -0.361022 -0.498119 0.332109
v -0.448551 0.061916 0.454558
v -0.256076 -0.069360 0.603344
v -0.299774 -0.506807 0.428316
v -0.413540 0.035613 0.498327
v -0.367288 -0.523769 0.217235
v -0.184601 -0.211354 0.225057
v -0.079443 -0.203392 0.299674
v -0.194784 -0.471875 0.524522
v -0.448551 -0.034369 0.410883
v -0.194784 0.061916 0.664545
v -0.326055 0.035613 0.585817
v -0.238570 -0.498119 0.489517
v -0.483563 0.061916 0.384641
v -0.492293 0.009370 0.332109
v -0.074986 -0.260767 0.263263
v -0.369797 -0.078108 0.507090
v -0.422270 0.000622 0.472084
vn -0.8436 -0.2218 0.4891
vn 0.0193 0.0194 -0.9996
vn -0.0000 1.0000 -0.0000
vn 0.0758 0.0537 -0.9957
vn 0.0235 -0.2482 0.9684
vn -0.1153 -0.7924 0.5990
vn 0.9974 -0.0227 0.0690
vn 0.9998 -0.0161 0.0150
vn 0.9757 -0.0619 0.2102
vn -0.1112 -0.8035 0.5849
vn -0.9743 -0.2240 0.0233
vn -0.0257 -0.2429 0.9697
vn -0.3176 -0.2350 0.9186
vn -0.3673 -0.9199 0.1376
vn -0.0149 -0.9999 0.0012
vn -0.2201 -0.9735 0.0614
vn 0.0020 -0.9998 0.0195
vn -0.0716 -0.9816 0.1769
vn -0.5248 -0.5678 0.6342
vn -0.8221 -0.4787 0.3081
vn -0.4792 -0.2093 0.8524
vn -0.6909 -0.4235 0.5860
vn -0.6407 -0.4246 0.6397
vn -0.8082 -0.1143 0.5778
vn -0.0118 -0.0041 -0.9999
vn -0.8995 -0.2259 -0.3741
vn -0.0120 -0.0079 -0.9999
vn -0.4489 -0.8702 -0.2031
vn 0.2303 0.1841 -0.9556
vn 0.7099 0.5041 -0.4919
vn 0.5767 0.5916 -0.5634
vn 0.5659 0.5663 -0.5992
vn -0.4119 -0.2872 0.8648
vn -0.3915 -0.2394 0.8885
vn -0.4313 -0.2362 0.8708
vn -0.8812 -0.2359 0.4097
vn -0.8591 -0.2390 0.4525
vn -0.8665 -0.2062 0.4545
vn 0.0522 0.9938 0.0979
vn -0.4469 0.0038 0.8946
vn -0.1539 0.0144 0.9880
vn -0.2976 -0.1674 0.9399
vn -0.6877 -0.2009 0.6976
vn -0.6493 0.0722 0.7571
vn -0.5282 -0.2149 0.8215
vn -0.5526 -0.2349 0.7997
vn -0.5382 -0.4020 0.7408
vn -0.6238 -0.2374 0.7447
vn -0.4951 -0.2739 0.8246
vn -0.5146 -0.2396 0.8233
vn -0.6114 -0.2365 0.7552
vn -0.1076 0.9936 -0.0340
vn -0.3396 0.9405 0.0079
vn -0.9395 -0.1083 0.3250
vn -0.8844 -0.1475 0.4429
vn -0.9432 -0.2389 0.2310
vn -0.9337 -0.1927 0.3018
vn -0.9157 -0.2369 0.3247
vn -0.9349 -0.2418 0.2596
vn 0.9964 0.0404 -0.0739
vn 0.9920 0.0716 -0.1041
vn 0.4717 0.4120 -0.7796
vn 0.9865 0.0546 -0.1546
vn 0.4550 0.3906 -0.8002
vn 0.4417 0.3368 -0.8316
vn -0.6980 -0.2168 0.6824
vn -0.6817 -0.2373 0.6921
vn -0.6873 -0.2383 0.6862
vn -0.7011 -0.2174 0.6791
vn -0.7408 -0.2365 0.6287
vn -0.7866 -0.2390 0.5694
vn -0.8200 -0.1981 0.5369
vn -0.7808 -0.2383 0.5775
vn -0.8369 -0.2357 0.4941
usemtl Shape.12278
s off
f 25//1 33//1 41//1
f 4//2 3//2 10//2
f 7//3 2//3 10//3
f 4//4 10//4 15//4
f 5//5 1//5 17//5
f 9//6 5//6 17//6
f 2//7 1//7 18//7
f 4//8 2//8 18//8
f 1//9 5//9 18//9
f 5//10 9//10 18//10
f 3//11 6//11 19//11
f 2//3 7//3 21//3
f 17//12 1//12 22//12
f 11//13 17//13 22//13
f 13//14 6//14 23//14
f 14//15 4//15 23//15
f 6//16 14//16 23//16
f 4//17 18//17 23//17
f 18//18 9//18 23//18
f 9//19 20//19 23//19
f 6//20 13//20 24//20
f 7//3 10//3 25//3
f 11//21 21//21 26//21
f 13//22 23//22 27//22
f 23//23 20//23 27//23
f 7//24 25//24 28//24
f 3//25 4//25 29//25
f 6//26 3//26 29//26
f 4//27 14//27 29//27
f 14//28 6//28 29//28
f 15//29 10//29 30//29
f 2//30 8//30 31//30
f 10//31 2//31 31//31
f 8//32 10//32 31//32
f 9//33 17//33 32//33
f 17//34 11//34 32//34
f 11//35 26//35 32//35
f 12//36 24//36 33//36
f 24//37 13//37 33//37
f 25//38 12//38 33//38
f 1//39 2//39 34//39
f 2//3 21//3 34//3
f 21//40 11//40 34//40
f 22//41 1//41 34//41
f 11//42 22//42 34//42
f 7//43 16//43 35//43
f 21//44 7//44 35//44
f 26//45 21//45 35//45
f 26//46 35//46 36//46
f 20//47 9//47 36//47
f 16//48 20//48 36//48
f 9//49 32//49 36//49
f 32//50 26//50 36//50
f 35//51 16//51 36//51
f 10//52 3//52 37//52
f 3//53 19//53 37//53
f 19//54 12//54 37//54
f 25//3 10//3 37//3
f 12//55 25//55 37//55
f 19//56 6//56 38//56
f 12//57 19//57 38//57
f 24//58 12//58 38//58
f 6//59 24//59 38//59
f 2//60 4//60 39//60
f 8//61 2//61 39//61
f 10//62 8//62 39//62
f 4//63 15//63 39//63
f 30//64 10//64 39//64
f 15//65 30//65 39//65
f 16//66 7//66 40//66
f 20//67 16//67 40//67
f 27//68 20//68 40//68
f 7//69 28//69 40//69
f 28//70 27//70 40//70
f 13//71 27//71 41//71
f 28//72 25//72 41//72
f 27//73 28//73 41//73
f 33//74 13//74 41//74
