####
#
# OBJ File Generated by Meshlab
#
####
# Object 100461_link_0_16.obj
#
# Vertices: 34
# Faces: 64
#
####
mtllib ./100461_link_0_16.obj.mtl

vn 0.032572 -0.719539 -0.693688
v 0.128595 0.120034 0.587071
vn -0.079351 0.285532 -0.955079
v 0.125964 0.137372 0.585782
vn -0.662194 -0.569422 -0.487091
v -0.053228 0.101370 0.636304
vn -0.735460 0.662526 -0.141979
v -0.051159 0.190787 0.688903
vn 0.696705 0.650565 0.302269
v 0.171608 0.195353 0.714714
vn 0.348115 -0.910588 0.222813
v 0.169880 0.053051 0.702466
vn -0.912952 -0.345138 0.217712
v -0.049171 0.062381 0.732661
vn 0.573890 -0.199518 0.794256
v 0.167972 0.111459 0.766100
vn 0.468519 0.563735 -0.680216
v 0.168652 0.176610 0.630651
vn 0.723320 -0.322172 -0.610748
v 0.172127 0.076206 0.648398
vn -0.347127 0.617216 0.706078
v -0.044165 0.164519 0.765173
vn -0.338607 0.639241 -0.690446
v -0.053873 0.148225 0.637250
vn -0.433575 -0.887252 -0.157473
v -0.049533 0.056907 0.686021
vn 0.943092 0.195590 0.268926
v 0.175642 0.159305 0.747590
vn 0.262029 -0.646358 0.716633
v 0.110025 0.071615 0.773156
vn 0.047144 0.877219 -0.477769
v 0.164121 0.207015 0.659669
vn -0.676119 -0.124824 0.726142
v -0.046918 0.102561 0.765799
vn -0.260575 0.874983 0.408051
v -0.049225 0.185418 0.729871
vn -0.129365 0.733950 -0.666770
v -0.046859 0.184113 0.643836
vn -0.114665 0.166519 0.979348
v 0.012522 0.144202 0.796256
vn -0.101801 -0.443511 -0.890469
v -0.052247 0.080778 0.646665
vn 0.219659 -0.670643 -0.708511
v 0.169565 0.102169 0.624279
vn 0.113215 -0.879642 0.461966
v 0.066898 0.045532 0.750886
vn 0.020522 0.861021 0.508155
v 0.118202 0.195601 0.765645
vn 0.037224 -0.175113 0.983844
v 0.099045 0.101468 0.787819
vn 0.055943 -0.946247 -0.318570
v 0.124470 0.035203 0.667099
vn -0.055315 -0.992636 0.107764
v -0.009706 0.027051 0.722993
vn 0.811350 -0.473285 0.343092
v 0.177274 0.078451 0.725301
vn -0.040819 0.983111 0.178401
v 0.136605 0.232244 0.698536
vn 0.074210 0.726140 -0.683530
v 0.153118 0.159432 0.596811
vn -0.075077 -0.635613 -0.768349
v -0.037884 0.046931 0.650099
vn 0.263444 0.195969 0.944560
v 0.127501 0.162011 0.782689
vn -0.253667 0.188416 -0.948764
v -0.026318 0.129211 0.602685
vn -0.162820 -0.535955 0.828397
v -0.019185 0.057739 0.774482
# 34 vertices, 0 vertices normals


usemtl material_0
f 25//25 17//17 34//34
f 4//4 3//3 7//7
f 9//9 5//5 10//10
f 3//3 4//4 12//12
f 7//7 3//3 13//13
f 10//10 5//5 14//14
f 5//5 9//9 16//16
f 4//4 7//7 17//17
f 4//4 17//17 18//18
f 17//17 11//11 18//18
f 12//12 4//4 19//19
f 9//9 12//12 19//19
f 4//4 16//16 19//19
f 16//16 9//9 19//19
f 11//11 17//17 20//20
f 13//13 3//3 21//21
f 3//3 1//1 22//22
f 9//9 10//10 22//22
f 21//21 3//3 22//22
f 10//10 21//21 22//22
f 14//14 5//5 24//24
f 5//5 18//18 24//24
f 18//18 11//11 24//24
f 11//11 20//20 24//24
f 15//15 8//8 25//25
f 20//20 17//17 25//25
f 10//10 6//6 26//26
f 13//13 26//26 27//27
f 7//7 13//13 27//27
f 6//6 23//23 27//27
f 23//23 7//7 27//27
f 26//26 6//6 27//27
f 6//6 10//10 28//28
f 14//14 8//8 28//28
f 10//10 14//14 28//28
f 8//8 15//15 28//28
f 23//23 6//6 28//28
f 15//15 23//23 28//28
f 16//16 4//4 29//29
f 5//5 16//16 29//29
f 4//4 18//18 29//29
f 18//18 5//5 29//29
f 1//1 2//2 30//30
f 12//12 9//9 30//30
f 22//22 1//1 30//30
f 9//9 22//22 30//30
f 21//21 10//10 31//31
f 13//13 21//21 31//31
f 10//10 26//26 31//31
f 26//26 13//13 31//31
f 8//8 14//14 32//32
f 14//14 24//24 32//32
f 24//24 20//20 32//32
f 25//25 8//8 32//32
f 20//20 25//25 32//32
f 2//2 1//1 33//33
f 1//1 3//3 33//33
f 3//3 12//12 33//33
f 30//30 2//2 33//33
f 12//12 30//30 33//33
f 17//17 7//7 34//34
f 7//7 23//23 34//34
f 23//23 15//15 34//34
f 15//15 25//25 34//34
# 64 faces, 0 coords texture

# End of File
