# Blender v2.79 (sub 0) OBJ File: ''
# www.blender.org
mtllib 100461_link_1_0.mtl
o Shape_IndexedFaceSet_Shape_IndexedFaceSet.15543
v -0.475592 -0.756465 -0.461579
v -0.014654 0.432540 -0.000528
v -0.017152 0.428033 -0.663460
v -0.667207 0.430899 -0.001455
v -0.014870 -0.672137 -0.000748
v -0.018294 -0.749088 -0.662339
v -0.653871 -0.763038 -0.003115
v -0.436013 0.392650 -0.499923
v -0.617933 0.210204 -0.265883
v -0.268462 -0.285885 -0.615272
v -0.010100 -0.775837 -0.574011
v -0.645592 -0.723930 -0.161414
v -0.576143 -0.775837 0.004108
v -0.212096 0.288755 -0.637755
v -0.335827 -0.736468 -0.574880
v -0.581186 -0.295493 -0.344719
v -0.570079 0.395084 -0.344720
v -0.436498 0.295257 -0.512003
v -0.150519 -0.740372 -0.645934
v -0.657534 0.205910 -0.149588
v -0.569762 -0.758872 -0.333373
v -0.668971 -0.288166 -0.069258
v -0.347299 0.228453 -0.579109
v -0.505142 0.300294 -0.446258
v -0.152512 -0.276302 -0.654273
v -0.019806 0.317882 -0.672603
v -0.436097 -0.295097 -0.511227
v -0.268539 0.401116 -0.603757
v -0.482778 0.402660 -0.457688
v -0.643981 0.408744 -0.162375
v -0.640083 -0.296915 -0.209750
v -0.664968 -0.749808 -0.003819
v -0.473119 -0.733463 -0.470706
v -0.577177 -0.736389 -0.333479
v -0.335615 -0.758915 -0.567478
v -0.674287 0.328706 -0.006348
v -0.581351 0.272674 -0.344723
v -0.347299 -0.295312 -0.578288
v -0.210981 -0.729694 -0.628869
v -0.657308 -0.299465 -0.149726
v -0.513839 -0.295113 -0.433489
v -0.060094 -0.299542 -0.666662
v -0.640070 0.288479 -0.209755
v -0.164649 0.409132 -0.641764
v -0.140154 0.229512 -0.655686
v -0.347299 0.395227 -0.567627
v -0.212195 -0.296893 -0.637537
v -0.065489 -0.760568 -0.650345
v -0.631060 -0.729287 -0.208704
v -0.617851 -0.285913 -0.265905
v -0.380529 -0.283905 -0.555246
v -0.557819 -0.283883 -0.377891
v -0.648191 -0.740220 -0.148241
v -0.290754 0.302303 -0.605232
vn -0.4212 0.1081 -0.9005
vn -0.0025 1.0000 -0.0068
vn 1.0000 0.0056 -0.0038
vn 1.0000 -0.0002 0.0084
vn 0.9957 -0.0011 -0.0927
vn -0.0014 0.0045 1.0000
vn 0.0087 -0.0002 1.0000
vn 0.1803 -0.9676 0.1765
vn -0.1575 -0.9861 -0.0525
vn -0.0522 -0.9973 -0.0511
vn 0.9641 -0.0012 -0.2655
vn -0.6917 -0.0014 -0.7221
vn -0.0986 0.9900 -0.1012
vn -0.6557 0.0961 -0.7488
vn -0.7903 0.1052 -0.6037
vn -0.6874 0.0694 -0.7230
vn -0.2758 0.9460 -0.1701
vn -0.3522 0.9118 -0.2111
vn -0.0895 -0.0022 0.9960
vn -0.0972 -0.0285 0.9949
vn -0.5898 -0.2423 -0.7703
vn -0.7762 -0.2587 -0.5750
vn -0.7858 -0.1533 -0.5992
vn -0.5857 -0.2588 -0.7681
vn -0.0710 -0.9950 -0.0708
vn -0.0529 -0.9972 -0.0527
vn -0.9929 0.0036 -0.1192
vn -0.9854 0.0756 -0.1526
vn -0.9851 0.0556 -0.1628
vn -0.5418 -0.0027 0.8405
vn -1.0000 -0.0086 0.0002
vn -0.8072 0.0743 -0.5856
vn -0.4229 -0.0180 -0.9060
vn -0.4246 -0.0014 -0.9054
vn -0.3958 -0.0231 -0.9181
vn -0.3658 -0.2946 -0.8828
vn -0.3148 -0.4323 -0.8450
vn -0.9897 -0.0004 -0.1434
vn -0.9612 -0.0004 -0.2758
vn -0.9608 -0.0189 -0.2765
vn -0.7071 -0.0048 -0.7071
vn -0.7071 -0.0056 -0.7071
vn -0.1245 -0.0211 -0.9920
vn -0.1374 -0.0184 -0.9903
vn -0.0000 -0.0096 -1.0000
vn -0.1331 -0.0009 -0.9911
vn -0.9169 0.1201 -0.3806
vn -0.9759 0.0518 -0.2121
vn -0.9303 0.0000 -0.3669
vn -0.9604 0.0000 -0.2787
vn -0.9153 0.0291 -0.4016
vn -0.9101 0.0838 -0.4058
vn -0.1557 0.0854 -0.9841
vn -0.3489 0.1065 -0.9311
vn -0.1580 0.9580 -0.2393
vn -0.1666 0.9527 -0.2544
vn -0.2394 0.0031 -0.9709
vn -0.1397 0.0006 -0.9902
vn -0.1764 0.0521 -0.9829
vn -0.2042 0.0479 -0.9777
vn -0.6054 0.1009 -0.7895
vn -0.5730 0.0563 -0.8176
vn -0.5600 0.4134 -0.7180
vn -0.2227 0.9151 -0.3363
vn -0.3680 -0.0003 -0.9298
vn -0.2699 -0.0003 -0.9629
vn -0.2640 -0.0185 -0.9643
vn -0.3712 -0.0196 -0.9283
vn -0.2748 -0.0200 -0.9613
vn 0.1530 -0.9418 -0.2994
vn -0.1386 -0.3840 -0.9129
vn -0.0544 -0.9860 -0.1577
vn -0.2062 -0.7245 -0.6577
vn -0.9563 -0.0207 -0.2915
vn -0.8837 -0.2932 -0.3649
vn -0.9183 -0.0236 -0.3952
vn -0.9298 -0.0001 -0.3681
vn -0.9074 -0.0190 -0.4198
vn -0.9071 -0.0001 -0.4210
vn -0.9067 -0.0003 -0.4218
vn -0.9282 -0.0203 -0.3715
vn -0.6004 0.0017 -0.7997
vn -0.6208 -0.0015 -0.7840
vn -0.6046 -0.0252 -0.7961
vn -0.6183 -0.0204 -0.7857
vn -0.5746 -0.0213 -0.8182
vn -0.5701 -0.0013 -0.8216
vn -0.8137 -0.0222 -0.5809
vn -0.7963 -0.0253 -0.6044
vn -0.8175 -0.0002 -0.5759
vn -0.8000 0.0019 -0.6000
vn -0.7845 -0.0018 -0.6202
vn -0.7861 -0.0206 -0.6177
vn -0.5508 -0.8209 -0.1506
vn -0.7562 -0.6412 -0.1304
vn -0.9928 -0.0252 -0.1170
vn -0.9756 -0.0209 -0.2184
vn -0.9899 -0.0209 -0.1405
vn -0.8489 -0.4230 -0.3170
vn -0.9554 -0.0779 -0.2848
vn -0.3819 0.0013 -0.9242
vn -0.4190 -0.0004 -0.9080
vn -0.3661 0.0961 -0.9256
vn -0.4823 0.0602 -0.8739
usemtl Shape.15555
s off
f 46//1 28//1 54//1
f 2//2 3//2 4//2
f 3//3 2//3 11//3
f 2//4 5//4 11//4
f 6//5 3//5 11//5
f 2//6 4//6 13//6
f 5//7 2//7 13//7
f 11//8 5//8 13//8
f 13//9 7//9 21//9
f 11//10 13//10 21//10
f 3//11 6//11 26//11
f 24//12 18//12 27//12
f 4//13 3//13 29//13
f 8//14 18//14 29//14
f 24//15 17//15 29//15
f 18//16 24//16 29//16
f 4//17 29//17 30//17
f 29//18 17//18 30//18
f 13//19 4//19 32//19
f 7//20 13//20 32//20
f 15//21 1//21 33//21
f 1//22 21//22 34//22
f 33//23 1//23 34//23
f 1//24 15//24 35//24
f 21//25 1//25 35//25
f 11//26 21//26 35//26
f 20//27 22//27 36//27
f 4//28 30//28 36//28
f 30//29 20//29 36//29
f 32//30 4//30 36//30
f 22//31 32//31 36//31
f 17//32 24//32 37//32
f 10//33 15//33 38//33
f 23//34 10//34 38//34
f 15//35 10//35 39//35
f 35//36 15//36 39//36
f 19//37 35//37 39//37
f 22//38 20//38 40//38
f 20//39 31//39 40//39
f 31//40 12//40 40//40
f 24//41 27//41 41//41
f 27//42 33//42 41//42
f 6//43 19//43 42//43
f 19//44 25//44 42//44
f 26//45 6//45 42//45
f 25//46 26//46 42//46
f 30//47 17//47 43//47
f 20//48 30//48 43//48
f 9//49 31//49 43//49
f 31//50 20//50 43//50
f 37//51 9//51 43//51
f 17//52 37//52 43//52
f 3//53 26//53 44//53
f 14//54 28//54 44//54
f 29//55 3//55 44//55
f 28//56 29//56 44//56
f 25//57 14//57 45//57
f 26//58 25//58 45//58
f 44//59 26//59 45//59
f 14//60 44//60 45//60
f 18//61 8//61 46//61
f 23//62 18//62 46//62
f 8//63 29//63 46//63
f 29//64 28//64 46//64
f 10//65 14//65 47//65
f 14//66 25//66 47//66
f 25//67 19//67 47//67
f 39//68 10//68 47//68
f 19//69 39//69 47//69
f 6//70 11//70 48//70
f 19//71 6//71 48//71
f 11//72 35//72 48//72
f 35//73 19//73 48//73
f 12//74 31//74 49//74
f 34//75 21//75 49//75
f 34//76 49//76 50//76
f 31//77 9//77 50//77
f 16//78 34//78 50//78
f 9//79 37//79 50//79
f 37//80 16//80 50//80
f 49//81 31//81 50//81
f 18//82 23//82 51//82
f 27//83 18//83 51//83
f 15//84 33//84 51//84
f 33//85 27//85 51//85
f 38//86 15//86 51//86
f 23//87 38//87 51//87
f 34//88 16//88 52//88
f 33//89 34//89 52//89
f 16//90 37//90 52//90
f 37//91 24//91 52//91
f 24//92 41//92 52//92
f 41//93 33//93 52//93
f 21//94 7//94 53//94
f 7//95 32//95 53//95
f 32//96 22//96 53//96
f 40//97 12//97 53//97
f 22//98 40//98 53//98
f 49//99 21//99 53//99
f 12//100 49//100 53//100
f 14//101 10//101 54//101
f 10//102 23//102 54//102
f 28//103 14//103 54//103
f 23//104 46//104 54//104
