####
#
# OBJ File Generated by Meshlab
#
####
# Object 100461_link_0_5.obj
#
# Vertices: 39
# Faces: 74
#
####
mtllib ./100461_link_0_5.obj.mtl

vn -0.338752 -0.937198 -0.083112
v -0.491105 0.111350 0.553889
vn 0.359160 0.920212 -0.155606
v -0.535691 0.316764 0.498270
vn 0.300133 0.951418 0.068729
v -0.549250 0.341196 0.534937
vn 0.408824 0.493924 0.767400
v -0.295998 0.217421 0.650975
vn -0.231331 -0.008097 0.972841
v -0.460716 0.200763 0.682198
vn 0.547852 -0.511746 -0.661796
v -0.266152 0.119862 0.628821
vn 0.220983 -0.047680 -0.974111
v -0.463356 0.206578 0.455360
vn -0.558492 -0.118636 -0.820982
v -0.605797 0.218695 0.498470
vn 0.017279 -0.265581 0.963934
v -0.439266 0.131203 0.668630
vn 0.705426 0.241521 -0.666365
v -0.251494 0.162156 0.628093
vn 0.361482 0.733300 0.575849
v -0.384487 0.243929 0.668301
vn 0.235023 0.392476 -0.889228
v -0.487580 0.288845 0.469600
vn 0.005621 -0.783951 -0.620797
v -0.519247 0.148948 0.479374
vn 0.156907 -0.399430 0.903236
v -0.348468 0.099064 0.647140
vn -0.612450 0.530532 0.586039
v -0.573723 0.287258 0.594817
vn -0.755668 -0.489323 0.435348
v -0.580805 0.182995 0.591363
vn -0.751824 0.491515 -0.439515
v -0.602772 0.275609 0.507782
vn 0.597745 0.122793 -0.792227
v -0.461221 0.240663 0.456718
vn -0.656527 -0.753297 -0.038938
v -0.580597 0.155034 0.548179
vn -0.225983 0.550151 0.803906
v -0.477642 0.261392 0.654220
vn -0.722139 0.136949 0.678056
v -0.585211 0.241141 0.603280
vn -0.558567 -0.318533 0.765859
v -0.514129 0.166687 0.647063
vn 0.370377 -0.690586 -0.621218
v -0.302125 0.081001 0.618740
vn -0.452311 -0.810301 0.372596
v -0.501544 0.120422 0.609591
vn 0.217748 -0.425827 -0.878212
v -0.496659 0.171173 0.463735
vn -0.514336 -0.679965 -0.522595
v -0.566394 0.177981 0.485641
vn -0.243856 -0.918628 0.310896
v -0.398452 0.108161 0.655000
vn 0.307806 0.942524 0.130017
v -0.333307 0.233731 0.660101
vn -0.104537 -0.985605 -0.132872
v -0.395044 0.083495 0.582434
vn 0.608720 0.704065 -0.365721
v -0.260126 0.206548 0.635659
vn 0.872109 -0.432016 -0.229756
v -0.253880 0.138654 0.627392
vn -0.699201 0.712993 0.052521
v -0.574379 0.314925 0.514739
vn -0.489365 0.165787 0.856175
v -0.498410 0.229212 0.661778
vn 0.097446 0.407621 0.907937
v -0.417803 0.240657 0.675680
vn -0.978026 -0.049128 0.202612
v -0.635188 0.234043 0.535766
vn 0.436212 -0.501941 -0.746843
v -0.476465 0.184690 0.457677
vn 0.651178 0.507192 -0.564556
v -0.465855 0.260926 0.461898
vn 0.321987 0.926461 -0.194924
v -0.498916 0.298765 0.479265
vn -0.132137 0.825610 0.548550
v -0.535001 0.309898 0.590305
# 39 vertices, 0 vertices normals


usemtl material_0
f 20//20 34//34 39//39
f 2//2 3//3 11//11
f 9//9 4//4 11//11
f 7//7 8//8 12//12
f 4//4 9//9 14//14
f 12//12 8//8 17//17
f 10//10 7//7 18//18
f 7//7 12//12 18//18
f 16//16 8//8 19//19
f 15//15 17//17 21//21
f 9//9 5//5 22//22
f 21//21 16//16 22//22
f 6//6 14//14 23//23
f 19//19 1//1 24//24
f 16//16 19//19 24//24
f 9//9 22//22 24//24
f 22//22 16//16 24//24
f 8//8 7//7 25//25
f 6//6 23//23 25//25
f 23//23 13//13 25//25
f 13//13 1//1 26//26
f 1//1 19//19 26//26
f 19//19 8//8 26//26
f 8//8 25//25 26//26
f 25//25 13//13 26//26
f 14//14 9//9 27//27
f 9//9 24//24 27//27
f 24//24 1//1 27//27
f 4//4 2//2 28//28
f 2//2 11//11 28//28
f 11//11 4//4 28//28
f 1//1 13//13 29//29
f 13//13 23//23 29//29
f 23//23 14//14 29//29
f 14//14 27//27 29//29
f 27//27 1//1 29//29
f 4//4 10//10 30//30
f 10//10 12//12 30//30
f 10//10 4//4 31//31
f 7//7 10//10 31//31
f 4//4 14//14 31//31
f 14//14 6//6 31//31
f 3//3 2//2 32//32
f 17//17 15//15 32//32
f 2//2 17//17 32//32
f 5//5 20//20 33//33
f 20//20 15//15 33//33
f 15//15 21//21 33//33
f 22//22 5//5 33//33
f 21//21 22//22 33//33
f 5//5 9//9 34//34
f 9//9 11//11 34//34
f 20//20 5//5 34//34
f 8//8 16//16 35//35
f 17//17 8//8 35//35
f 16//16 21//21 35//35
f 21//21 17//17 35//35
f 6//6 25//25 36//36
f 25//25 7//7 36//36
f 31//31 6//6 36//36
f 7//7 31//31 36//36
f 12//12 10//10 37//37
f 10//10 18//18 37//37
f 18//18 12//12 37//37
f 2//2 4//4 38//38
f 17//17 2//2 38//38
f 12//12 17//17 38//38
f 4//4 30//30 38//38
f 30//30 12//12 38//38
f 11//11 3//3 39//39
f 15//15 20//20 39//39
f 3//3 32//32 39//39
f 32//32 15//15 39//39
f 34//34 11//11 39//39
# 74 faces, 0 coords texture

# End of File
