# Blender v2.79 (sub 0) OBJ File: ''
# www.blender.org
mtllib 102630_link_1_60.mtl
o Shape_IndexedFaceSet.060_Shape_IndexedFaceSet.16506
v -0.349228 0.108176 0.037173
v -0.335237 0.125679 0.048818
v 0.247471 0.113963 0.048816
v -0.346880 0.102251 0.048816
v 0.247471 0.102251 0.037104
v -0.336685 0.125739 0.037072
v 0.247471 0.102251 0.048816
v 0.247471 0.113963 0.037104
v -0.346880 0.102251 0.037104
v -0.347368 0.125578 0.048767
vn -0.6566 0.4655 -0.5934
vn 0.0201 0.9998 0.0026
vn 0.0000 0.0000 1.0000
vn -0.0000 -0.0001 1.0000
vn 0.0000 -1.0000 0.0000
vn 1.0000 0.0000 0.0000
vn 0.0202 0.9998 0.0000
vn 0.0001 0.0000 -1.0000
vn -0.9297 -0.3684 0.0000
vn 0.0000 -0.0014 -1.0000
vn -0.0157 0.0054 -0.9999
vn -0.0042 0.0020 1.0000
vn -0.9820 -0.0202 0.1878
vn -0.0084 0.9999 0.0061
usemtl Shape.16524
s off
f 6//1 1//1 10//1
f 2//2 3//2 6//2
f 3//3 2//3 7//3
f 2//4 4//4 7//4
f 4//5 5//5 7//5
f 5//6 3//6 7//6
f 3//6 5//6 8//6
f 6//7 3//7 8//7
f 5//8 6//8 8//8
f 4//9 1//9 9//9
f 5//5 4//5 9//5
f 6//10 5//10 9//10
f 1//11 6//11 9//11
f 4//12 2//12 10//12
f 1//13 4//13 10//13
f 2//14 6//14 10//14
