# Blender v2.79 (sub 0) OBJ File: ''
# www.blender.org
mtllib 102630_link_1_22.mtl
o Shape_IndexedFaceSet.022_Shape_IndexedFaceSet.16468
v 0.109862 0.125668 0.596333
v 0.142055 0.146170 0.610974
v 0.139587 0.104308 0.609192
v 0.142055 0.122753 0.572915
v 0.092297 0.105183 0.610974
v 0.142055 0.102251 0.581703
v 0.106937 0.137378 0.608046
v 0.139130 0.137378 0.584632
v 0.139130 0.108111 0.572915
v 0.089368 0.119821 0.608046
v 0.104007 0.102251 0.610974
v 0.112792 0.140310 0.610974
vn -0.2448 0.1428 0.9590
vn 0.9936 -0.0626 0.0939
vn 1.0000 0.0000 0.0000
vn 0.9074 0.3579 -0.2202
vn -0.4850 0.4856 -0.7272
vn -0.4905 0.5520 -0.6743
vn -0.3149 -0.8347 -0.4518
vn 0.8919 -0.1782 -0.4157
vn -0.5374 0.3231 -0.7790
vn -0.5297 0.5300 -0.6622
vn -0.5556 0.1110 -0.8240
vn -0.5969 -0.2705 -0.7553
vn 0.0526 -0.0456 0.9976
vn -0.0000 0.0000 1.0000
vn 0.0615 -0.9949 0.0800
vn -0.2316 -0.9250 -0.3011
vn -0.1878 0.9378 -0.2921
vn -0.2649 0.8928 -0.3643
vn -0.5777 0.5781 0.5763
usemtl Shape.16486
s off
f 10//1 5//1 12//1
f 2//2 3//2 6//2
f 4//3 2//3 6//3
f 2//4 4//4 8//4
f 4//5 1//5 8//5
f 1//6 7//6 8//6
f 6//7 5//7 9//7
f 4//8 6//8 9//8
f 1//9 4//9 10//9
f 7//10 1//10 10//10
f 4//11 9//11 10//11
f 9//12 5//12 10//12
f 3//13 2//13 11//13
f 2//14 5//14 11//14
f 6//15 3//15 11//15
f 5//16 6//16 11//16
f 5//14 2//14 12//14
f 2//17 8//17 12//17
f 8//18 7//18 12//18
f 7//19 10//19 12//19
