# Blender v2.79 (sub 0) OBJ File: ''
# www.blender.org
mtllib 102630_link_1_2.mtl
o Shape_IndexedFaceSet.002_Shape_IndexedFaceSet.16448
v 0.127431 0.102251 0.048812
v 0.074723 0.099323 0.031251
v 0.074723 0.099323 0.034181
v 0.344092 0.099323 0.034181
v 0.344092 0.099323 0.057594
v 0.341113 0.102251 0.031251
v 0.343164 0.102241 0.057503
v 0.174286 0.099323 0.057594
v 0.074723 0.102251 0.031251
v 0.174286 0.102251 0.057594
vn 0.0000 0.0000 1.0000
vn 0.0000 -1.0000 0.0000
vn 0.0077 -0.7034 -0.7108
vn 0.9530 0.3031 0.0000
vn 0.7276 0.6837 -0.0566
vn -0.1837 -0.5967 0.7812
vn -0.2292 0.6885 0.6880
vn -1.0000 0.0000 0.0000
vn 0.0000 0.0000 -1.0000
vn -0.0000 1.0000 0.0000
vn 0.0005 0.0313 0.9995
vn 0.0001 1.0000 0.0004
vn -0.1842 0.0000 0.9829
usemtl Shape.16466
s off
f 8//1 5//1 10//1
f 3//2 2//2 4//2
f 3//2 4//2 5//2
f 4//3 2//3 6//3
f 5//4 4//4 7//4
f 4//5 6//5 7//5
f 1//6 3//6 8//6
f 3//2 5//2 8//2
f 3//7 1//7 9//7
f 2//8 3//8 9//8
f 6//9 2//9 9//9
f 1//10 6//10 9//10
f 6//10 1//10 10//10
f 5//11 7//11 10//11
f 7//12 6//12 10//12
f 1//13 8//13 10//13
