# Blender v2.79 (sub 0) OBJ File: ''
# www.blender.org
mtllib 102630_link_2_14.mtl
o Shape_IndexedFaceSet.014_Shape_IndexedFaceSet.4360
v -0.271080 -0.212328 0.384156
v -0.098566 -0.001497 0.741944
v -0.246168 0.002222 0.342219
v -0.088906 -0.425190 0.338153
v -0.366953 -0.020674 0.352181
v -0.089043 0.013014 0.618922
v -0.296645 -0.007903 0.607788
v -0.106485 -0.223970 0.363682
v -0.117719 -0.404062 0.358630
v -0.354158 -0.001457 0.480042
v -0.197208 0.021511 0.714090
v -0.194413 -0.007903 0.703636
v -0.200797 -0.327353 0.358630
v -0.197920 0.016952 0.480955
v -0.245516 -0.014268 0.658879
v -0.283849 -0.205962 0.352181
v -0.104950 -0.199637 0.563031
v -0.366953 -0.001457 0.409721
v -0.322209 -0.020674 0.550249
v -0.341363 -0.046217 0.460888
v -0.143284 -0.007903 0.729200
v -0.181618 -0.320987 0.390566
v -0.364634 -0.004992 0.355550
v -0.098566 -0.007903 0.741944
v -0.334978 -0.097344 0.365002
v -0.277465 -0.059029 0.575813
v -0.124130 -0.225100 0.531171
v -0.341363 -0.001457 0.524761
v -0.226388 -0.295404 0.358630
vn -0.6990 -0.5599 0.4450
vn -0.0785 -0.0194 -0.9967
vn 0.3816 0.1491 -0.9122
vn 0.7754 0.4355 -0.4573
vn 0.9803 0.1067 -0.1661
vn 0.1904 0.9731 0.1295
vn -0.6657 -0.7209 -0.1928
vn 0.2861 0.9373 -0.1990
vn 0.0611 0.9979 -0.0197
vn -0.7093 -0.1155 0.6954
vn -0.4653 -0.6308 0.6209
vn -0.6021 -0.3176 0.7326
vn -0.1434 -0.0643 -0.9876
vn -0.0152 -0.7065 0.7075
vn -0.1968 0.9798 0.0358
vn -0.1003 0.9948 -0.0191
vn -0.8473 -0.4715 0.2445
vn -0.9263 -0.3369 0.1685
vn -0.8135 -0.4894 0.3142
vn -0.4207 -0.3390 0.8415
vn -0.5934 -0.6427 0.4845
vn -0.5151 -0.6226 0.5891
vn -0.1225 0.2257 -0.9665
vn -0.0697 0.9942 -0.0813
vn -0.9862 0.1571 -0.0525
vn -0.0795 0.9945 -0.0683
vn 0.9970 0.0000 0.0772
vn 0.9966 -0.0443 0.0696
vn -0.2718 0.0000 0.9624
vn 0.4048 -0.6310 0.6618
vn -0.2741 -0.0084 0.9617
vn -0.2049 -0.6641 0.7190
vn -0.8993 -0.4033 -0.1692
vn -0.9232 -0.3646 0.1218
vn -0.8829 -0.4361 0.1738
vn -0.9191 -0.3699 0.1360
vn -0.6148 -0.5709 0.5441
vn -0.7161 -0.5430 0.4387
vn -0.6374 -0.5866 0.4997
vn -0.5826 -0.6005 0.5477
vn -0.3880 -0.6469 0.6565
vn -0.2519 -0.6764 0.6922
vn -0.3399 -0.6498 0.6798
vn -0.2811 -0.6600 0.6967
vn -0.6148 0.6885 0.3846
vn -0.2467 0.9665 0.0706
vn -0.8564 -0.2696 0.4403
vn -0.8949 -0.3654 0.2561
vn -0.8458 -0.4369 0.3062
vn -0.4810 -0.3853 -0.7875
vn -0.4524 -0.3498 -0.8204
vn -0.8266 -0.5146 0.2276
vn -0.7654 -0.5258 0.3711
vn -0.7165 -0.5496 0.4296
usemtl Shape.4365
s off
f 13//1 26//1 29//1
f 3//2 4//2 5//2
f 4//3 3//3 8//3
f 3//4 6//4 8//4
f 6//5 4//5 8//5
f 2//6 6//6 11//6
f 4//7 9//7 13//7
f 6//8 3//8 14//8
f 11//9 6//9 14//9
f 11//10 7//10 15//10
f 9//11 12//11 15//11
f 12//12 11//12 15//12
f 5//13 4//13 16//13
f 9//14 4//14 17//14
f 10//15 11//15 18//15
f 11//16 14//16 18//16
f 16//17 1//17 20//17
f 10//18 18//18 20//18
f 1//19 19//19 20//19
f 11//20 12//20 21//20
f 13//21 9//21 22//21
f 9//22 15//22 22//22
f 3//23 5//23 23//23
f 14//24 3//24 23//24
f 5//25 18//25 23//25
f 18//26 14//26 23//26
f 6//27 2//27 24//27
f 4//28 6//28 24//28
f 2//29 11//29 24//29
f 17//30 4//30 24//30
f 11//31 21//31 24//31
f 21//32 17//32 24//32
f 5//33 16//33 25//33
f 18//34 5//34 25//34
f 16//35 20//35 25//35
f 20//36 18//36 25//36
f 15//37 7//37 26//37
f 7//38 19//38 26//38
f 13//39 22//39 26//39
f 22//40 15//40 26//40
f 12//41 9//41 27//41
f 9//42 17//42 27//42
f 21//43 12//43 27//43
f 17//44 21//44 27//44
f 7//45 11//45 28//45
f 11//46 10//46 28//46
f 19//47 7//47 28//47
f 10//48 20//48 28//48
f 20//49 19//49 28//49
f 4//50 13//50 29//50
f 16//51 4//51 29//51
f 1//52 16//52 29//52
f 19//53 1//53 29//53
f 26//54 19//54 29//54
