# Blender v2.79 (sub 0) OBJ File: ''
# www.blender.org
mtllib 102630_link_2_45.mtl
o Shape_IndexedFaceSet.045_Shape_IndexedFaceSet.4391
v -0.258309 -0.199584 -0.069612
v -0.258309 -0.320984 -0.069612
v -0.264695 -0.308203 -0.069612
v -0.213574 -0.320984 0.179630
v -0.283873 -0.186803 0.179630
v -0.258309 -0.320984 0.179630
v -0.219974 -0.301806 -0.069612
v -0.283873 -0.257079 -0.069612
v -0.251916 -0.212365 0.179630
v -0.283873 -0.257079 0.179630
v -0.283873 -0.186803 -0.069612
v -0.213574 -0.308203 0.173238
v -0.219974 -0.320984 -0.069612
v -0.264695 -0.186803 0.179630
v -0.264695 -0.186803 -0.069612
vn 0.8945 0.4472 0.0000
vn -0.0000 0.0000 -1.0000
vn -0.8946 -0.4470 0.0000
vn 0.0000 -1.0000 0.0000
vn 0.0000 0.0000 1.0000
vn -0.9285 -0.3714 0.0047
vn -0.9363 -0.3512 0.0000
vn -1.0000 0.0000 0.0000
vn 0.9362 0.3511 -0.0154
vn 0.9283 0.3717 -0.0048
vn 0.7850 0.2771 0.5541
vn 0.9997 0.0000 -0.0263
vn 0.9996 -0.0128 -0.0257
vn 0.0000 1.0000 0.0000
vn 0.8946 0.4470 -0.0000
usemtl Shape.4396
s off
f 14//1 9//1 15//1
f 1//2 2//2 3//2
f 3//3 2//3 6//3
f 2//4 4//4 6//4
f 4//5 5//5 6//5
f 2//2 1//2 7//2
f 1//2 3//2 8//2
f 5//5 4//5 9//5
f 3//6 6//6 10//6
f 6//5 5//5 10//5
f 8//7 3//7 10//7
f 5//8 8//8 10//8
f 1//2 8//2 11//2
f 8//8 5//8 11//8
f 7//9 1//9 12//9
f 1//10 9//10 12//10
f 9//11 4//11 12//11
f 4//4 2//4 13//4
f 2//2 7//2 13//2
f 7//12 12//12 13//12
f 12//13 4//13 13//13
f 5//5 9//5 14//5
f 11//14 5//14 14//14
f 11//14 14//14 15//14
f 9//15 1//15 15//15
f 1//2 11//2 15//2
