# Blender v2.79 (sub 0) OBJ File: ''
# www.blender.org
mtllib 102630_link_1_37.mtl
o Shape_IndexedFaceSet.037_Shape_IndexedFaceSet.16483
v 0.133289 0.102251 0.133726
v 0.185984 0.119819 0.212780
v 0.185984 0.111035 0.212780
v 0.185984 0.113963 0.133726
v 0.130360 0.125674 0.136658
v 0.185984 0.102251 0.133726
v 0.185984 0.125674 0.168865
v 0.185984 0.102251 0.198139
v 0.159622 0.125674 0.133726
v 0.127425 0.108107 0.136658
v 0.183049 0.125674 0.206914
v 0.183049 0.119819 0.212780
v 0.183049 0.105179 0.206914
v 0.127425 0.122746 0.136658
vn -0.6808 0.5184 0.5174
vn 1.0000 0.0000 0.0000
vn 0.0000 0.0000 -1.0000
vn 0.0000 -1.0000 0.0000
vn -0.0991 0.1114 -0.9888
vn 0.3884 0.8742 -0.2914
vn -0.0000 1.0000 -0.0000
vn 0.8636 0.4997 0.0666
vn 0.0000 0.0000 1.0000
vn 0.0000 0.7078 0.7064
vn -0.2712 -0.9366 0.2218
vn 0.5638 -0.7082 0.4249
vn -0.5412 -0.7410 0.3976
vn -0.7439 -0.2486 0.6203
vn -0.7661 -0.2390 0.5966
vn -0.1097 0.1099 -0.9879
vn -0.4472 0.0000 -0.8944
vn -0.6241 0.6256 0.4681
vn -0.8074 0.0000 0.5900
usemtl Shape.16501
s off
f 12//1 11//1 14//1
f 2//2 3//2 4//2
f 4//2 3//2 6//2
f 1//3 4//3 6//3
f 2//2 4//2 7//2
f 1//4 6//4 8//4
f 6//2 3//2 8//2
f 4//3 1//3 9//3
f 1//5 5//5 9//5
f 7//6 4//6 9//6
f 5//7 7//7 9//7
f 2//8 7//8 11//8
f 7//7 5//7 11//7
f 3//9 2//9 12//9
f 2//10 11//10 12//10
f 1//11 8//11 13//11
f 8//12 3//12 13//12
f 10//13 1//13 13//13
f 3//14 12//14 13//14
f 12//15 10//15 13//15
f 5//16 1//16 14//16
f 1//17 10//17 14//17
f 11//18 5//18 14//18
f 10//19 12//19 14//19
