# Blender v2.79 (sub 0) OBJ File: ''
# www.blender.org
mtllib 102630_link_1_32.mtl
o Shape_IndexedFaceSet.032_Shape_IndexedFaceSet.16478
v -0.349827 0.128602 0.057599
v -0.311768 0.146170 0.239131
v -0.311768 0.134458 0.239131
v -0.349827 0.128602 0.239131
v -0.326409 0.146170 0.057599
v -0.335182 0.122746 0.057599
v -0.311768 0.134458 0.057599
v -0.335182 0.122746 0.239131
v -0.338110 0.140314 0.239131
v -0.349827 0.122746 0.239131
v -0.311768 0.146170 0.057599
v -0.349827 0.122746 0.057599
v -0.335182 0.143242 0.057599
v -0.326409 0.146170 0.227403
vn -0.3166 0.9486 0.0000
vn -0.0000 0.0000 1.0000
vn 0.0000 0.0000 -1.0000
vn 1.0000 0.0000 0.0000
vn 0.4474 -0.8944 0.0000
vn -1.0000 0.0000 0.0000
vn 0.0000 -1.0000 0.0000
vn 0.0000 1.0000 0.0000
vn -0.7070 0.7072 0.0000
vn -0.7070 0.7073 0.0000
vn -0.4416 0.8972 0.0073
vn -0.2095 0.9422 0.2615
usemtl Shape.16496
s off
f 5//1 13//1 14//1
f 3//2 2//2 4//2
f 1//3 5//3 6//3
f 6//3 5//3 7//3
f 2//4 3//4 7//4
f 3//5 6//5 7//5
f 3//2 4//2 8//2
f 6//5 3//5 8//5
f 4//2 2//2 9//2
f 4//6 1//6 10//6
f 8//2 4//2 10//2
f 6//7 8//7 10//7
f 5//8 2//8 11//8
f 7//3 5//3 11//3
f 2//4 7//4 11//4
f 1//3 6//3 12//3
f 10//6 1//6 12//6
f 6//7 10//7 12//7
f 1//9 4//9 13//9
f 5//3 1//3 13//3
f 4//10 9//10 13//10
f 13//11 9//11 14//11
f 2//8 5//8 14//8
f 9//12 2//12 14//12
