# Blender v2.79 (sub 0) OBJ File: ''
# www.blender.org
mtllib 102630_link_1_27.mtl
o Shape_IndexedFaceSet.027_Shape_IndexedFaceSet.16473
v 0.347020 0.122746 0.435302
v 0.323597 0.102251 0.303558
v 0.323597 0.143242 0.303558
v 0.347020 0.102251 0.303558
v 0.324660 0.104112 0.429322
v 0.323597 0.143242 0.435302
v 0.344092 0.131530 0.303558
v 0.344092 0.102251 0.435302
v 0.332380 0.143242 0.432349
v 0.332380 0.143242 0.303558
v 0.344092 0.131530 0.435302
v 0.347020 0.125672 0.303558
v 0.347020 0.102251 0.423567
vn 0.9611 -0.1373 0.2398
vn 0.0000 0.0000 -1.0000
vn -0.9996 -0.0285 0.0089
vn -1.0000 0.0000 0.0000
vn 0.0000 -1.0000 0.0000
vn -0.1001 -0.9949 0.0156
vn -0.3040 -0.1520 0.9405
vn 0.0000 0.0000 1.0000
vn 0.0000 1.0000 0.0000
vn 0.7071 0.7071 0.0000
vn 0.2783 0.4871 0.8278
vn 1.0000 0.0000 0.0000
vn 0.9487 0.3162 0.0070
vn 0.8945 0.4471 0.0000
usemtl Shape.16491
s off
f 1//1 8//1 13//1
f 2//2 3//2 4//2
f 2//3 5//3 6//3
f 3//4 2//4 6//4
f 4//2 3//2 7//2
f 2//5 4//5 8//5
f 5//6 2//6 8//6
f 6//7 5//7 8//7
f 1//8 6//8 8//8
f 3//9 6//9 9//9
f 9//10 7//10 10//10
f 7//2 3//2 10//2
f 3//9 9//9 10//9
f 6//8 1//8 11//8
f 9//11 6//11 11//11
f 7//10 9//10 11//10
f 1//12 4//12 12//12
f 4//2 7//2 12//2
f 11//13 1//13 12//13
f 7//14 11//14 12//14
f 4//12 1//12 13//12
f 8//5 4//5 13//5
