# Blender v2.79 (sub 0) OBJ File: ''
# www.blender.org
mtllib 102630_link_2_43.mtl
o Shape_IndexedFaceSet.043_Shape_IndexedFaceSet.4389
v 0.278507 0.017711 0.141313
v 0.292982 0.021133 0.337594
v 0.214632 0.024107 0.345770
v 0.233767 -0.053036 0.347016
v 0.176265 0.024107 0.134915
v 0.259323 -0.052583 0.134915
v 0.214632 -0.052583 0.134915
v 0.272124 -0.052583 0.345770
v 0.297690 0.004934 0.307421
v 0.278507 0.024107 0.141313
v 0.272124 -0.046187 0.173263
v 0.176265 0.017711 0.141313
v 0.291284 0.017711 0.186039
v 0.297690 0.011322 0.345770
vn 0.9812 0.1905 -0.0317
vn 0.0000 0.0000 -1.0000
vn 0.0000 -1.0000 -0.0021
vn 0.0118 -0.9999 -0.0007
vn 0.0392 0.9992 0.0122
vn -0.0000 1.0000 -0.0000
vn 0.3164 0.0000 -0.9486
vn 0.0623 0.0675 -0.9958
vn 0.9340 -0.2300 -0.2734
vn 0.5209 -0.8530 -0.0316
vn 0.9098 -0.4147 -0.0154
vn -0.9543 -0.2337 0.1864
vn -0.9684 0.1763 0.1762
vn -0.8164 -0.4084 -0.4083
vn -0.8721 -0.4831 0.0776
vn 0.9615 0.0000 -0.2747
vn 0.5164 0.8560 -0.0251
vn 0.9364 -0.2273 -0.2675
vn 0.9591 -0.2717 -0.0792
vn 0.1024 0.6654 0.7395
vn 0.0026 0.0168 0.9999
vn 0.0326 -0.0130 0.9994
vn 0.9267 -0.3707 0.0618
vn 0.9077 0.4192 -0.0196
usemtl Shape.4394
s off
f 9//1 13//1 14//1
f 5//2 6//2 7//2
f 6//3 4//3 7//3
f 4//4 6//4 8//4
f 3//5 2//5 10//5
f 5//6 3//6 10//6
f 1//7 6//7 10//7
f 6//8 5//8 10//8
f 6//9 1//9 11//9
f 8//10 6//10 11//10
f 9//11 8//11 11//11
f 4//12 3//12 12//12
f 3//13 5//13 12//13
f 5//14 7//14 12//14
f 7//15 4//15 12//15
f 1//16 10//16 13//16
f 10//17 2//17 13//17
f 11//18 1//18 13//18
f 9//19 11//19 13//19
f 2//20 3//20 14//20
f 3//21 4//21 14//21
f 4//22 8//22 14//22
f 8//23 9//23 14//23
f 13//24 2//24 14//24
