# Blender v2.79 (sub 0) OBJ File: ''
# www.blender.org
mtllib 102630_link_1_41.mtl
o Shape_IndexedFaceSet.041_Shape_IndexedFaceSet.16487
v 0.218203 0.140314 0.678281
v 0.329453 0.143242 0.452899
v 0.329453 0.140314 0.452899
v 0.218203 0.143242 0.435352
v 0.200624 0.143242 0.687080
v 0.218203 0.140314 0.435352
v 0.288456 0.143242 0.596311
v 0.200624 0.140314 0.508524
v 0.288456 0.140314 0.596311
v 0.329453 0.143242 0.435352
v 0.200624 0.143242 0.508524
v 0.200624 0.140314 0.687080
v 0.320663 0.140314 0.517322
v 0.329453 0.140314 0.435352
v 0.232831 0.143242 0.666575
v 0.320663 0.143242 0.517322
vn 0.9260 0.0000 0.3776
vn 0.0000 1.0000 -0.0000
vn 0.0000 -1.0000 0.0000
vn -0.9723 0.0000 -0.2336
vn 1.0000 0.0000 0.0000
vn 0.0000 0.0000 -1.0000
vn -1.0000 0.0000 0.0000
vn 0.4476 0.0000 0.8942
vn 0.9908 0.0000 0.1352
vn 0.4422 0.5676 0.6945
vn 0.4881 -0.7660 0.4183
vn 0.7841 0.0000 0.6207
usemtl Shape.16505
s off
f 7//1 13//1 16//1
f 2//2 4//2 5//2
f 3//3 1//3 6//3
f 2//2 5//2 7//2
f 6//3 1//3 8//3
f 4//4 6//4 8//4
f 1//3 3//3 9//3
f 2//5 3//5 10//5
f 4//2 2//2 10//2
f 6//6 4//6 10//6
f 5//2 4//2 11//2
f 8//7 5//7 11//7
f 4//4 8//4 11//4
f 1//8 5//8 12//8
f 8//3 1//3 12//3
f 5//7 8//7 12//7
f 3//9 2//9 13//9
f 9//3 3//3 13//3
f 7//1 9//1 13//1
f 3//3 6//3 14//3
f 10//5 3//5 14//5
f 6//6 10//6 14//6
f 5//10 1//10 15//10
f 7//2 5//2 15//2
f 1//11 9//11 15//11
f 9//12 7//12 15//12
f 2//2 7//2 16//2
f 13//9 2//9 16//9
