# Blender v2.79 (sub 0) OBJ File: ''
# www.blender.org
mtllib 102630_link_1_30.mtl
o Shape_IndexedFaceSet.030_Shape_IndexedFaceSet.16476
v 0.218191 0.146170 -0.097581
v 0.215263 0.119819 -0.100509
v 0.215263 0.119819 -0.097581
v 0.215263 0.146170 -0.100509
v 0.218191 0.119819 -0.100509
vn 0.0000 0.0000 -1.0000
vn -1.0000 0.0000 0.0000
vn -0.7049 0.0783 0.7049
vn 0.7049 0.0783 -0.7049
vn 0.7049 -0.0783 0.7049
vn 0.0000 -1.0000 0.0000
usemtl Shape.16494
s off
f 2//1 4//1 5//1
f 2//2 3//2 4//2
f 3//3 1//3 4//3
f 4//4 1//4 5//4
f 1//5 3//5 5//5
f 3//6 2//6 5//6
