# Blender v2.79 (sub 0) OBJ File: ''
# www.blender.org
mtllib 102630_link_1_102.mtl
o Shape_IndexedFaceSet.102_Shape_IndexedFaceSet.16548
v 0.244561 0.122742 0.678287
v 0.347009 0.116895 0.452899
v 0.314797 0.134458 0.435302
v 0.238697 0.105179 0.435302
v 0.259193 0.105179 0.660715
v 0.347009 0.105179 0.435302
v 0.238697 0.134458 0.672438
v 0.329440 0.134458 0.523166
v 0.238697 0.116895 0.435302
v 0.303091 0.108111 0.605084
v 0.238697 0.108111 0.681200
v 0.294311 0.134458 0.605084
v 0.238697 0.134458 0.628506
v 0.332366 0.105179 0.531952
v 0.341146 0.134458 0.435302
v 0.335293 0.122742 0.523166
v 0.303091 0.122742 0.602171
v 0.247487 0.105179 0.675351
v 0.250414 0.122742 0.672438
v 0.344072 0.128597 0.449986
v 0.338219 0.116895 0.517316
v 0.344072 0.105179 0.470472
vn 0.9514 -0.2490 0.1812
vn 0.0000 0.0000 -1.0000
vn 0.0000 -1.0000 -0.0000
vn 0.0000 1.0000 0.0000
vn -1.0000 0.0000 0.0000
vn -0.3013 0.3009 0.9048
vn -0.2240 0.9706 -0.0882
vn 0.2302 -0.9643 0.1308
vn 0.9723 0.1947 -0.1296
vn 0.7913 0.5086 0.3393
vn 0.8405 0.4199 0.3426
vn -0.3096 -0.9508 0.0113
vn 0.5417 -0.0500 0.8391
vn 0.5772 0.5773 0.5776
vn 0.7854 -0.0204 0.6187
vn 0.6106 0.6107 0.5042
vn 0.7945 0.1186 0.5956
vn 0.7295 0.4107 0.5469
vn 0.7807 -0.0265 0.6244
vn 0.7069 -0.0005 0.7073
vn 0.9703 0.2170 -0.1068
vn 0.7643 0.6367 0.1018
vn 0.8856 0.4424 0.1416
vn 0.9341 0.3290 0.1384
vn 0.9284 0.0004 0.3716
vn 0.9232 0.0751 0.3770
vn 0.9226 0.0855 0.3761
vn 0.9535 0.2717 0.1301
vn 0.9888 -0.1240 0.0826
vn 0.9898 -0.0455 0.1351
usemtl Shape.16566
s off
f 21//1 14//1 22//1
f 4//2 3//2 6//2
f 5//3 4//3 6//3
f 3//4 7//4 8//4
f 3//2 4//2 9//2
f 4//5 7//5 9//5
f 1//6 7//6 11//6
f 7//5 4//5 11//5
f 8//4 7//4 12//4
f 7//4 3//4 13//4
f 3//7 9//7 13//7
f 9//5 7//5 13//5
f 5//3 6//3 14//3
f 10//8 5//8 14//8
f 2//9 6//9 15//9
f 6//2 3//2 15//2
f 3//4 8//4 15//4
f 8//10 12//10 17//10
f 16//11 8//11 17//11
f 4//3 5//3 18//3
f 11//12 4//12 18//12
f 1//13 11//13 18//13
f 7//14 1//14 19//14
f 5//15 10//15 19//15
f 12//16 7//16 19//16
f 10//17 17//17 19//17
f 17//18 12//18 19//18
f 18//19 5//19 19//19
f 1//20 18//20 19//20
f 2//21 15//21 20//21
f 15//22 8//22 20//22
f 8//23 16//23 20//23
f 20//24 16//24 21//24
f 10//25 14//25 21//25
f 17//26 10//26 21//26
f 16//27 17//27 21//27
f 2//28 20//28 21//28
f 6//29 2//29 22//29
f 14//3 6//3 22//3
f 2//30 21//30 22//30
