# Blender v2.79 (sub 0) OBJ File: ''
# www.blender.org
mtllib 102630_link_1_42.mtl
o Shape_IndexedFaceSet.042_Shape_IndexedFaceSet.16488
v -0.215138 0.113963 -0.106365
v -0.200500 0.157882 -0.103437
v -0.174151 0.125682 -0.103437
v -0.171641 0.124511 -0.106532
v -0.218070 0.157882 -0.106365
v -0.218070 0.116895 -0.103437
vn -0.7298 -0.0487 -0.6820
vn 0.7215 0.5904 0.3618
vn 0.2074 -0.8474 0.4888
vn -0.0038 -0.0003 -1.0000
vn 0.1601 0.2275 -0.9605
vn -0.1640 0.0703 0.9840
vn 0.1269 -0.6345 0.7625
vn 0.0000 0.0000 1.0000
usemtl Shape.16506
s off
f 5//1 1//1 6//1
f 2//2 3//2 4//2
f 3//3 1//3 4//3
f 4//4 1//4 5//4
f 2//5 4//5 5//5
f 2//6 5//6 6//6
f 1//7 3//7 6//7
f 3//8 2//8 6//8
