# Blender v2.79 (sub 0) OBJ File: ''
# www.blender.org
mtllib 102630_link_1_95.mtl
o Shape_IndexedFaceSet.095_Shape_IndexedFaceSet.16541
v 0.080579 0.105179 -0.018527
v 0.346854 0.125439 -0.004055
v 0.080579 0.116889 -0.003887
v 0.346617 0.125421 -0.018346
v 0.344042 0.105179 -0.018527
v 0.080579 0.105179 -0.003887
v 0.080579 0.116889 -0.018527
v 0.346969 0.105179 -0.003887
v 0.336507 0.125781 -0.003811
vn 0.0239 0.0084 0.9997
vn -1.0000 0.0000 0.0000
vn 0.0000 -1.0000 0.0000
vn 0.0000 0.0000 -1.0000
vn 0.0004 0.0089 -1.0000
vn 0.9998 0.0055 -0.0166
vn 0.9733 -0.1221 -0.1946
vn 0.0000 -0.0037 1.0000
vn 0.0330 0.9995 -0.0018
vn -0.0003 0.0000 1.0000
vn -0.0347 0.9994 0.0000
vn -0.0320 0.9984 -0.0470
usemtl Shape.16559
s off
f 8//1 2//1 9//1
f 3//2 1//2 6//2
f 1//3 5//3 6//3
f 1//2 3//2 7//2
f 5//4 1//4 7//4
f 4//5 5//5 7//5
f 4//6 2//6 8//6
f 5//7 4//7 8//7
f 6//3 5//3 8//3
f 6//8 8//8 9//8
f 2//9 4//9 9//9
f 3//10 6//10 9//10
f 7//11 3//11 9//11
f 4//12 7//12 9//12
