# Blender v2.79 (sub 0) OBJ File: ''
# www.blender.org
mtllib 102630_link_2_13.mtl
o Shape_IndexedFaceSet.013_Shape_IndexedFaceSet.4359
v -0.207173 -0.327415 0.179630
v -0.188001 -0.512721 -0.069612
v -0.141153 -0.518025 -0.076507
v -0.213554 -0.321016 -0.069612
v -0.104930 -0.499904 0.179630
v -0.251899 -0.333814 0.179630
v -0.168843 -0.512721 0.166821
v -0.258310 -0.321016 -0.069612
v -0.194397 -0.499904 0.064548
v -0.104644 -0.513080 0.180096
v -0.200777 -0.448788 0.179630
v -0.258310 -0.327415 -0.069612
v -0.213554 -0.321016 0.179630
v -0.188001 -0.512721 0.083724
v -0.245518 -0.359372 0.147669
v -0.188001 -0.384930 -0.069612
v -0.104930 -0.499904 0.173238
vn 0.9193 0.3676 -0.1405
vn 0.0000 0.0350 -0.9994
vn 0.0618 0.0366 0.9974
vn -0.0099 -0.9997 0.0207
vn -0.1956 -0.2857 0.9382
vn -0.0069 -0.0031 1.0000
vn -0.1517 -0.0576 -0.9867
vn -0.0588 0.0000 -0.9983
vn -0.9997 0.0000 0.0257
vn -0.9349 -0.3547 -0.0107
vn 0.7081 0.7061 0.0000
vn 0.0000 1.0000 0.0000
vn -0.3161 0.9470 0.0568
vn 0.0056 0.0056 1.0000
vn -0.0007 0.0020 1.0000
vn -0.1125 -0.9937 0.0000
vn -0.0632 -0.9979 0.0146
vn -0.8948 -0.4465 0.0000
vn -0.8604 -0.4695 0.1984
vn -0.9038 -0.4018 0.1475
vn -0.9645 -0.2634 0.0180
vn -0.9389 -0.3443 0.0046
vn -0.9075 -0.3973 0.1365
vn -0.9261 -0.3724 0.0600
vn 0.7051 0.2819 -0.6507
vn 0.8601 0.5101 -0.0089
vn 0.8602 0.5099 0.0000
vn 0.9998 0.0217 0.0000
vn 0.9889 -0.0513 -0.1397
vn 0.9287 0.3351 -0.1590
usemtl Shape.4364
s off
f 16//1 4//1 17//1
f 4//2 3//2 8//2
f 5//3 1//3 10//3
f 7//4 3//4 10//4
f 7//5 10//5 11//5
f 10//6 6//6 11//6
f 3//7 2//7 12//7
f 8//8 3//8 12//8
f 6//9 8//9 12//9
f 2//10 9//10 12//10
f 1//11 4//11 13//11
f 4//12 8//12 13//12
f 8//13 6//13 13//13
f 10//14 1//14 13//14
f 6//15 10//15 13//15
f 2//16 3//16 14//16
f 3//17 7//17 14//17
f 9//18 2//18 14//18
f 7//19 11//19 14//19
f 11//20 6//20 14//20
f 6//21 12//21 15//21
f 12//22 9//22 15//22
f 14//23 6//23 15//23
f 9//24 14//24 15//24
f 3//25 4//25 16//25
f 4//26 1//26 17//26
f 1//27 5//27 17//27
f 5//28 10//28 17//28
f 10//29 3//29 17//29
f 3//30 16//30 17//30
