# Blender v2.79 (sub 0) OBJ File: ''
# www.blender.org
mtllib 102630_link_2_58.mtl
o Shape_IndexedFaceSet.058_Shape_IndexedFaceSet.4404
v -0.287178 -0.005146 0.343865
v -0.264694 -0.078146 0.179647
v -0.219965 -0.078146 0.179647
v -0.231894 -0.000164 0.176740
v -0.219965 -0.078146 0.352165
v -0.283864 -0.001457 0.179647
v -0.251681 0.000017 0.355480
v -0.264694 -0.078146 0.352165
v -0.296647 -0.007852 0.256338
v -0.229296 0.003735 0.211514
v -0.296647 -0.001457 0.320211
v -0.271081 -0.078146 0.281857
v -0.219965 -0.065362 0.352165
vn 0.8925 0.4254 0.1498
vn -0.0000 -0.0373 -0.9993
vn 0.0000 -1.0000 0.0000
vn -0.0555 -0.0139 -0.9984
vn 0.0000 -0.0424 0.9991
vn -0.3125 0.0117 0.9498
vn -0.9545 -0.2386 -0.1790
vn 0.9850 0.1473 -0.0901
vn -0.0308 0.9936 -0.1091
vn -0.0472 0.9987 0.0185
vn -0.2144 0.9484 0.2337
vn -0.9129 -0.2439 0.3274
vn -0.7386 0.6708 -0.0672
vn -0.0900 0.9959 -0.0082
vn -0.9312 -0.3598 -0.0582
vn -0.9318 -0.3530 0.0846
vn -0.9431 -0.3310 0.0331
vn 1.0000 0.0000 0.0000
vn 0.1040 0.0000 0.9946
vn 0.9931 0.1165 -0.0086
usemtl Shape.4409
s off
f 10//1 7//1 13//1
f 3//2 2//2 4//2
f 2//3 3//3 5//3
f 4//4 2//4 6//4
f 5//5 7//5 8//5
f 2//3 5//3 8//3
f 7//6 1//6 8//6
f 6//7 2//7 9//7
f 3//8 4//8 10//8
f 4//9 6//9 10//9
f 7//10 10//10 11//10
f 1//11 7//11 11//11
f 8//12 1//12 11//12
f 6//13 9//13 11//13
f 10//14 6//14 11//14
f 2//3 8//3 12//3
f 9//15 2//15 12//15
f 8//16 11//16 12//16
f 11//17 9//17 12//17
f 5//18 3//18 13//18
f 7//19 5//19 13//19
f 3//20 10//20 13//20
