# Blender v2.79 (sub 0) OBJ File: ''
# www.blender.org
mtllib 102630_link_2_40.mtl
o Shape_IndexedFaceSet.040_Shape_IndexedFaceSet.4386
v 0.201828 -0.097346 0.134894
v 0.206261 -0.008635 0.100689
v 0.087899 -0.006328 -0.010647
v 0.201828 -0.027046 0.019878
v 0.118750 -0.276219 0.134894
v 0.157088 -0.301801 0.115699
v 0.099576 -0.052599 -0.044031
v 0.201828 -0.148481 0.064575
v 0.112370 -0.301801 0.026271
v 0.093185 -0.308189 0.070967
v 0.144316 -0.193171 0.134894
v 0.201828 -0.186754 0.134894
v 0.157088 -0.020629 -0.018460
v 0.093185 -0.295412 0.013486
v 0.163469 -0.116511 0.007093
v 0.131544 -0.301801 0.045432
v 0.157088 -0.301801 0.134894
v 0.093675 -0.021956 -0.043223
v 0.118750 -0.103735 -0.024853
v 0.195426 -0.103735 0.032664
v 0.144316 -0.308189 0.077360
v 0.118750 -0.301801 0.134894
v 0.099576 -0.314606 0.026271
v 0.093185 -0.276219 0.070967
v 0.169871 -0.142064 0.134894
vn -0.6579 0.3290 0.6774
vn 0.9985 -0.0186 -0.0505
vn -0.0000 0.0000 1.0000
vn -0.7653 0.2356 0.5991
vn 0.9917 0.0000 0.1285
vn 0.9995 -0.0278 -0.0151
vn 0.9266 -0.3303 -0.1798
vn 0.1807 0.9684 -0.1721
vn 0.3261 0.9177 -0.2270
vn -0.9998 -0.0186 -0.0041
vn 0.6288 -0.1609 -0.7607
vn 0.9320 -0.3624 0.0000
vn 0.1404 0.9022 -0.4079
vn 0.3604 0.0939 -0.9280
vn -0.9866 -0.0314 -0.1599
vn -0.7624 -0.1301 -0.6339
vn 0.4701 -0.1499 -0.8698
vn 0.3171 -0.2265 -0.9210
vn 0.4843 -0.2333 -0.8433
vn 0.5217 -0.2289 -0.8218
vn 0.5360 -0.1839 -0.8239
vn 0.9147 -0.1396 -0.3792
vn 0.6571 -0.1770 -0.7327
vn 0.6643 -0.2559 -0.7023
vn 0.7782 -0.2870 -0.5586
vn 0.6818 -0.2639 -0.6823
vn 0.9060 -0.3458 -0.2442
vn 0.8485 -0.3381 -0.4071
vn 0.4473 -0.8944 0.0000
vn -0.9285 0.0000 0.3713
vn -0.0794 -0.9883 0.1305
vn 0.4083 -0.4080 -0.8166
vn -0.9284 -0.3628 -0.0807
vn 0.5774 -0.5769 -0.5778
vn 0.5261 -0.7685 -0.3642
vn 0.0222 -0.9942 0.1055
vn 0.0000 -0.9931 0.1171
vn -0.9244 0.0937 0.3697
vn -0.9979 0.0000 0.0646
vn -0.4723 0.3375 0.8142
vn -0.6382 0.3499 0.6858
usemtl Shape.4391
s off
f 3//1 11//1 25//1
f 4//2 2//2 8//2
f 5//3 1//3 11//3
f 3//4 5//4 11//4
f 2//5 1//5 12//5
f 1//3 5//3 12//3
f 8//6 2//6 12//6
f 6//7 8//7 12//7
f 3//8 2//8 13//8
f 2//9 4//9 13//9
f 10//10 3//10 14//10
f 13//11 4//11 15//11
f 12//3 5//3 17//3
f 6//12 12//12 17//12
f 3//13 13//13 18//13
f 13//14 7//14 18//14
f 14//15 3//15 18//15
f 7//16 14//16 18//16
f 7//17 13//17 19//17
f 14//18 7//18 19//18
f 9//19 14//19 19//19
f 15//20 9//20 19//20
f 13//21 15//21 19//21
f 4//22 8//22 20//22
f 15//23 4//23 20//23
f 9//24 15//24 20//24
f 8//25 16//25 20//25
f 16//26 9//26 20//26
f 8//27 6//27 21//27
f 16//28 8//28 21//28
f 6//29 17//29 21//29
f 5//30 10//30 22//30
f 17//3 5//3 22//3
f 22//31 10//31 23//31
f 14//32 9//32 23//32
f 10//33 14//33 23//33
f 9//34 16//34 23//34
f 16//35 21//35 23//35
f 21//36 17//36 23//36
f 17//37 22//37 23//37
f 5//38 3//38 24//38
f 3//39 10//39 24//39
f 10//30 5//30 24//30
f 1//40 2//40 25//40
f 2//41 3//41 25//41
f 11//3 1//3 25//3
