# Blender v2.79 (sub 0) OBJ File: ''
# www.blender.org
mtllib 102630_link_1_17.mtl
o Shape_IndexedFaceSet.017_Shape_IndexedFaceSet.16463
v -0.112665 0.146170 0.092727
v -0.051184 0.125668 0.092727
v -0.051184 0.105183 0.092727
v -0.111304 0.145198 0.058960
v -0.112665 0.105183 0.119074
v -0.109753 0.104331 0.060511
v -0.052929 0.144924 0.059344
v -0.053601 0.103977 0.060016
v -0.109728 0.128600 0.116149
v -0.051184 0.140310 0.081028
v -0.112665 0.102251 0.110294
v -0.051184 0.146170 0.069317
v -0.054115 0.102251 0.089802
v -0.106803 0.116898 0.119074
v -0.106803 0.140310 0.104438
vn 0.1851 0.8788 0.4398
vn -0.0090 -0.0383 -0.9992
vn 0.0065 -0.0165 -0.9998
vn -0.9610 0.1496 0.2327
vn 1.0000 0.0000 -0.0000
vn 0.3251 0.5903 0.7388
vn -0.9991 -0.0159 -0.0398
vn -1.0000 0.0000 0.0000
vn -0.9974 -0.0401 -0.0600
vn -0.0111 0.9995 -0.0292
vn 0.0055 0.9922 -0.1249
vn 0.9965 -0.0412 -0.0721
vn 0.9853 -0.0190 -0.1700
vn 0.2389 -0.7950 0.5575
vn 0.7206 -0.6928 -0.0277
vn -0.0068 -0.9983 -0.0580
vn 0.1102 -0.9427 0.3148
vn -0.0149 -0.9990 -0.0426
vn 0.4281 0.0000 0.9037
vn 0.3865 -0.1934 0.9018
vn 0.3664 0.3108 0.8770
vn -0.3122 0.1562 0.9371
vn -0.4553 0.6839 0.5701
vn 0.2993 0.6363 0.7110
vn 0.1459 0.9120 0.3833
usemtl Shape.16481
s off
f 10//1 12//1 15//1
f 6//2 4//2 8//2
f 4//3 7//3 8//3
f 1//4 5//4 9//4
f 2//5 3//5 10//5
f 9//6 2//6 10//6
f 1//7 4//7 11//7
f 5//8 1//8 11//8
f 4//9 6//9 11//9
f 4//10 1//10 12//10
f 7//11 4//11 12//11
f 3//12 8//12 12//12
f 8//13 7//13 12//13
f 10//5 3//5 12//5
f 3//14 5//14 13//14
f 8//15 3//15 13//15
f 6//16 8//16 13//16
f 5//17 11//17 13//17
f 11//18 6//18 13//18
f 3//19 2//19 14//19
f 5//20 3//20 14//20
f 2//21 9//21 14//21
f 9//22 5//22 14//22
f 1//23 9//23 15//23
f 9//24 10//24 15//24
f 12//25 1//25 15//25
