# Blender v2.79 (sub 0) OBJ File: ''
# www.blender.org
mtllib 102630_link_1_7.mtl
o Shape_IndexedFaceSet.007_Shape_IndexedFaceSet.16453
v -0.150750 0.134451 0.575843
v -0.343663 0.108624 0.475000
v -0.346884 0.119821 0.473365
v -0.311747 0.102251 0.575843
v -0.206373 0.102251 0.473365
v -0.314279 0.144332 0.477654
v -0.297114 0.143238 0.575843
v -0.150750 0.102251 0.575843
v -0.226388 0.143713 0.479099
v -0.174162 0.146170 0.575843
v -0.338105 0.102251 0.473365
v -0.332252 0.134451 0.526059
v -0.204346 0.125545 0.477687
v -0.332252 0.140310 0.473365
v -0.147804 0.119821 0.567046
v -0.338105 0.111042 0.528978
v -0.314148 0.122823 0.573377
v -0.323453 0.143238 0.517301
v -0.144877 0.105183 0.572904
v -0.284899 0.144402 0.571718
v -0.209952 0.133523 0.478007
v -0.335159 0.102251 0.517301
v -0.159530 0.140310 0.572904
v -0.338105 0.119821 0.528978
v -0.144877 0.125668 0.572904
v -0.302967 0.140310 0.575843
v -0.343958 0.125668 0.488021
vn -0.8991 0.3966 0.1851
vn 0.0000 0.0000 1.0000
vn 0.0000 -1.0000 0.0000
vn 0.0075 0.9995 -0.0294
vn -0.5457 -0.2727 -0.7923
vn -0.0000 0.0000 -1.0000
vn 0.0167 0.6934 -0.7203
vn 0.8455 0.0254 -0.5334
vn -0.9593 -0.2598 0.1104
vn -0.8743 -0.0441 0.4834
vn -0.2132 0.9767 -0.0224
vn -0.6617 0.7452 0.0829
vn 0.4475 0.0000 0.8943
vn 0.3585 -0.9130 -0.1946
vn 0.8506 -0.0397 -0.5243
vn -0.0233 0.9781 0.2069
vn -0.0161 0.9999 0.0043
vn -0.0520 0.9985 0.0155
vn -0.0824 0.9959 0.0371
vn 0.1786 0.1644 -0.9701
vn 0.0459 0.1518 -0.9873
vn 0.0474 0.1817 -0.9822
vn -0.7463 -0.6637 0.0500
vn -0.8882 -0.4457 0.1114
vn -0.7235 -0.6268 0.2893
vn 0.4089 0.8168 0.4069
vn 0.3291 0.9226 -0.2011
vn 0.5982 0.7115 -0.3687
vn 0.4847 0.8157 -0.3159
vn -0.9878 0.0000 0.1559
vn -0.8147 0.4081 0.4120
vn -0.8801 0.0000 0.4749
vn 0.8434 0.1057 -0.5269
vn 0.8945 0.0000 -0.4470
vn 0.6836 0.5974 -0.4193
vn 0.7215 0.5251 -0.4513
vn -0.7925 0.4484 0.4134
vn -0.3252 0.0750 0.9426
vn -0.4386 0.8767 0.1973
vn -0.5593 0.7948 0.2355
vn -0.8118 0.5798 -0.0692
vn -0.7414 0.6670 0.0742
vn -0.9825 0.1029 0.1551
usemtl Shape.16471
s off
f 24//1 12//1 27//1
f 4//2 1//2 7//2
f 1//2 4//2 8//2
f 4//3 5//3 8//3
f 7//2 1//2 10//2
f 9//4 6//4 10//4
f 2//5 3//5 11//5
f 5//3 4//3 11//3
f 3//6 5//6 11//6
f 5//6 3//6 14//6
f 6//7 9//7 14//7
f 5//8 13//8 15//8
f 3//9 2//9 16//9
f 16//10 4//10 17//10
f 6//11 14//11 18//11
f 14//12 12//12 18//12
f 1//13 8//13 19//13
f 8//14 5//14 19//14
f 5//15 15//15 19//15
f 7//16 10//16 20//16
f 10//17 6//17 20//17
f 6//18 18//18 20//18
f 18//19 7//19 20//19
f 13//20 5//20 21//20
f 5//21 14//21 21//21
f 14//22 9//22 21//22
f 2//23 11//23 22//23
f 11//3 4//3 22//3
f 16//24 2//24 22//24
f 4//25 16//25 22//25
f 10//26 1//26 23//26
f 9//27 10//27 23//27
f 1//28 21//28 23//28
f 21//29 9//29 23//29
f 3//30 16//30 24//30
f 17//31 12//31 24//31
f 16//32 17//32 24//32
f 15//33 13//33 25//33
f 1//13 19//13 25//13
f 19//34 15//34 25//34
f 21//35 1//35 25//35
f 13//36 21//36 25//36
f 4//2 7//2 26//2
f 12//37 17//37 26//37
f 17//38 4//38 26//38
f 7//39 18//39 26//39
f 18//40 12//40 26//40
f 14//41 3//41 27//41
f 12//42 14//42 27//42
f 3//43 24//43 27//43
