# Blender v2.79 (sub 0) OBJ File: ''
# www.blender.org
mtllib 102630_link_2_11.mtl
o Shape_IndexedFaceSet.011_Shape_IndexedFaceSet.4357
v 0.361602 0.113578 -0.676708
v 0.342435 0.024115 -0.689453
v 0.336941 0.062661 -0.679877
v 0.380763 0.024115 0.339400
v 0.338720 0.109418 0.290968
v 0.393541 0.094391 -0.683030
v 0.393541 0.094391 0.339400
v 0.342435 0.024115 0.339400
v 0.393541 0.049677 -0.670284
v 0.338501 0.109758 -0.640196
v 0.367985 0.113578 0.339400
v 0.374112 0.025339 -0.675560
v 0.336046 0.049677 0.339400
v 0.393541 0.049677 0.313806
v 0.336518 0.100260 -0.687440
v 0.380763 0.107176 -0.683030
v 0.387152 0.036901 -0.676708
v 0.380763 0.107176 0.339400
v 0.393541 0.056070 -0.689453
v 0.336453 0.087736 -0.694933
vn 0.0506 -0.0810 -0.9954
vn 0.0000 -1.0000 0.0000
vn 0.0000 0.0000 1.0000
vn 1.0000 0.0000 0.0000
vn -0.1625 0.9867 0.0004
vn -0.1422 0.9898 0.0009
vn 0.0393 -0.9992 -0.0015
vn -0.9901 -0.1405 -0.0027
vn -0.9702 -0.2425 0.0000
vn -0.7994 0.3995 0.4487
vn 0.9391 -0.1707 0.2983
vn 0.8945 -0.4471 0.0000
vn -0.4071 0.8986 -0.1636
vn -0.9792 0.2029 0.0003
vn -0.9989 0.0462 0.0018
vn 0.7073 0.7069 0.0000
vn 0.3163 0.9487 -0.0020
vn -0.0280 0.6587 -0.7519
vn 0.8944 -0.4473 -0.0000
vn 0.6632 -0.7485 -0.0052
vn 0.4479 0.8941 0.0000
vn 0.3506 -0.5608 -0.7501
vn 0.9114 -0.3903 -0.1302
vn 0.4673 -0.5922 -0.6565
vn -0.9842 -0.1048 -0.1427
vn -0.9998 -0.0201 -0.0011
vn -1.0000 0.0053 -0.0002
vn 0.1806 0.1805 -0.9669
vn 0.0053 0.5134 -0.8581
vn 0.1832 0.1625 -0.9695
usemtl Shape.4362
s off
f 19//1 2//1 20//1
f 2//2 4//2 8//2
f 4//3 7//3 8//3
f 6//4 7//4 9//4
f 5//5 1//5 10//5
f 1//6 5//6 11//6
f 8//3 7//3 11//3
f 4//7 2//7 12//7
f 3//8 2//8 13//8
f 2//9 8//9 13//9
f 11//10 5//10 13//10
f 8//3 11//3 13//3
f 7//11 4//11 14//11
f 4//12 9//12 14//12
f 9//4 7//4 14//4
f 10//13 1//13 15//13
f 5//14 10//14 15//14
f 13//15 5//15 15//15
f 7//16 6//16 16//16
f 1//17 11//17 16//17
f 15//18 1//18 16//18
f 9//19 4//19 17//19
f 4//20 12//20 17//20
f 11//3 7//3 18//3
f 7//16 16//16 18//16
f 16//21 11//21 18//21
f 6//4 9//4 19//4
f 12//22 2//22 19//22
f 9//23 17//23 19//23
f 17//24 12//24 19//24
f 2//25 3//25 20//25
f 3//26 13//26 20//26
f 13//27 15//27 20//27
f 16//28 6//28 20//28
f 15//29 16//29 20//29
f 6//30 19//30 20//30
