# Blender v2.79 (sub 0) OBJ File: ''
# www.blender.org
mtllib 102630_link_1_68.mtl
o Shape_IndexedFaceSet.068_Shape_IndexedFaceSet.16514
v 0.323597 0.116891 0.013681
v -0.030683 0.105179 0.007825
v -0.030683 0.105179 0.022464
v 0.323597 0.105179 0.007825
v -0.001344 0.116891 0.007825
v 0.336482 0.114176 0.022997
v -0.030683 0.113963 0.022464
v 0.323597 0.105179 0.022464
v 0.337715 0.117357 0.007241
v 0.001534 0.116891 0.013681
v -0.030683 0.113963 0.007825
vn -0.0017 0.0175 -0.9998
vn 0.0000 -1.0000 0.0000
vn -1.0000 0.0000 0.0000
vn -0.0015 0.0000 1.0000
vn 0.0000 -0.0591 0.9982
vn 0.5725 -0.8199 0.0000
vn 0.0000 -0.0479 -0.9989
vn 0.6474 -0.7554 -0.1018
vn 0.0599 0.9775 0.2020
vn -0.0000 0.9601 0.2798
vn -0.0798 0.9960 0.0392
vn -0.0010 0.9498 0.3129
vn -0.0000 0.9974 0.0722
vn -0.0014 1.0000 0.0007
vn -0.0993 0.9951 0.0000
vn -0.0016 0.0000 -1.0000
usemtl Shape.16532
s off
f 5//1 9//1 11//1
f 3//2 2//2 4//2
f 2//3 3//3 7//3
f 3//4 6//4 7//4
f 3//2 4//2 8//2
f 6//5 3//5 8//5
f 4//6 6//6 8//6
f 4//7 2//7 9//7
f 6//8 4//8 9//8
f 1//9 6//9 9//9
f 6//10 1//10 10//10
f 5//11 7//11 10//11
f 7//12 6//12 10//12
f 1//13 9//13 10//13
f 9//14 5//14 10//14
f 2//3 7//3 11//3
f 7//15 5//15 11//15
f 9//16 2//16 11//16
