# Blender v2.79 (sub 0) OBJ File: ''
# www.blender.org
mtllib 102630_link_2_54.mtl
o Shape_IndexedFaceSet.054_Shape_IndexedFaceSet.4400
v 0.272127 -0.174008 0.134873
v 0.265736 -0.180399 -0.075982
v 0.265736 -0.167618 -0.075982
v 0.272127 -0.180399 -0.075982
v 0.265736 -0.180399 0.134873
vn 0.0000 -1.0000 0.0000
vn 0.0000 0.0000 -1.0000
vn 0.8943 0.4472 -0.0136
vn 0.7069 -0.7069 0.0214
vn -0.7065 0.7065 0.0428
vn -1.0000 0.0000 0.0000
usemtl Shape.4405
s off
f 2//1 4//1 5//1
f 2//2 3//2 4//2
f 3//3 1//3 4//3
f 4//4 1//4 5//4
f 1//5 3//5 5//5
f 3//6 2//6 5//6
