# Blender v2.79 (sub 0) OBJ File: ''
# www.blender.org
mtllib 102630_link_2_34.mtl
o Shape_IndexedFaceSet.034_Shape_IndexedFaceSet.4380
v 0.105966 -0.167641 0.435283
v 0.107267 -0.329751 0.369631
v 0.054834 -0.122911 0.646158
v -0.009068 -0.282616 0.345806
v -0.003590 -0.317324 0.459588
v -0.009068 -0.116491 0.575802
v 0.099570 -0.289015 0.249929
v 0.105966 -0.122911 0.633321
v -0.014086 -0.336566 0.399423
v -0.009068 -0.135688 0.639720
v 0.100026 -0.316478 0.436601
v 0.105966 -0.116491 0.524722
v 0.099570 -0.314569 0.262728
v 0.105966 -0.276237 0.262728
v 0.037268 -0.314174 0.459207
v 0.099570 -0.276237 0.262728
v -0.009068 -0.199595 0.454366
v -0.008032 -0.118391 0.642589
v -0.005492 -0.308809 0.352163
v 0.093175 -0.154864 0.607800
v 0.099570 -0.186818 0.403324
v 0.022888 -0.148465 0.626960
vn 0.1278 -0.7001 0.7025
vn -0.9280 -0.2761 0.2502
vn -0.9998 0.0184 0.0055
vn 0.9752 -0.1717 0.1395
vn 0.1048 -0.9733 0.2042
vn 0.0726 -0.9536 0.2923
vn 0.9999 0.0104 -0.0060
vn 1.0000 0.0058 0.0003
vn 0.0207 -0.9896 -0.1420
vn 0.9999 0.0108 -0.0068
vn 0.9371 -0.1564 -0.3122
vn 0.9820 -0.1639 -0.0940
vn 0.0760 -0.9485 0.3076
vn -0.5029 0.6117 -0.6107
vn 0.0000 0.7077 -0.7065
vn -0.9981 0.0504 -0.0345
vn -0.9978 0.0527 -0.0403
vn -0.3825 0.7625 -0.5218
vn -0.4552 0.7073 -0.5409
vn 0.0570 0.9722 0.2271
vn -0.0674 -0.1593 0.9849
vn -0.9982 0.0570 0.0171
vn 0.0125 0.9995 0.0282
vn 0.0443 0.9973 0.0590
vn -0.6472 -0.2621 -0.7158
vn -0.9375 -0.1975 -0.2865
vn -0.6178 -0.3521 -0.7031
vn -0.4725 -0.7198 -0.5086
vn 0.1835 -0.6573 0.7310
vn 0.3787 -0.6654 0.6433
vn 0.2171 -0.7055 0.6747
vn -0.1212 0.8617 -0.4928
vn -0.2137 0.8501 -0.4812
vn 0.1229 0.8399 -0.5286
vn -0.2924 0.8069 -0.5132
vn 0.0000 0.8438 -0.5367
vn 0.0506 -0.6395 0.7671
vn 0.0020 -0.7041 0.7101
vn 0.0611 -0.7075 0.7041
vn 0.1298 -0.6942 0.7080
usemtl Shape.4385
s off
f 15//1 20//1 22//1
f 9//2 5//2 10//2
f 6//3 9//3 10//3
f 2//4 8//4 11//4
f 9//5 2//5 11//5
f 5//6 9//6 11//6
f 2//7 1//7 12//7
f 8//8 2//8 12//8
f 2//9 9//9 13//9
f 1//10 2//10 14//10
f 13//11 7//11 14//11
f 2//12 13//12 14//12
f 5//13 11//13 15//13
f 7//14 4//14 16//14
f 14//15 7//15 16//15
f 9//16 6//16 17//16
f 4//17 9//17 17//17
f 6//18 16//18 17//18
f 16//19 4//19 17//19
f 3//20 8//20 18//20
f 10//21 3//21 18//21
f 6//22 10//22 18//22
f 12//23 6//23 18//23
f 8//24 12//24 18//24
f 4//25 7//25 19//25
f 9//26 4//26 19//26
f 7//27 13//27 19//27
f 13//28 9//28 19//28
f 8//29 3//29 20//29
f 11//30 8//30 20//30
f 15//31 11//31 20//31
f 12//32 1//32 21//32
f 6//33 12//33 21//33
f 1//34 14//34 21//34
f 16//35 6//35 21//35
f 14//36 16//36 21//36
f 3//37 10//37 22//37
f 10//38 5//38 22//38
f 5//39 15//39 22//39
f 20//40 3//40 22//40
