# Blender v2.79 (sub 0) OBJ File: ''
# www.blender.org
mtllib 102630_link_1_101.mtl
o Shape_IndexedFaceSet.101_Shape_IndexedFaceSet.16547
v 0.206484 0.134458 0.444138
v 0.237912 0.117014 0.679604
v 0.237887 0.111409 0.679456
v 0.200624 0.119819 0.710528
v 0.200624 0.105179 0.444138
v 0.238687 0.105179 0.435329
v 0.238687 0.134458 0.675347
v 0.235758 0.134458 0.435329
v 0.203552 0.105179 0.707564
v 0.200624 0.134458 0.701692
v 0.237654 0.105974 0.675340
v 0.200624 0.128597 0.455829
v 0.203552 0.125674 0.435329
v 0.200624 0.108111 0.710528
v 0.238687 0.116895 0.435329
v 0.203552 0.105179 0.435329
v 0.218198 0.105179 0.698783
vn 0.4848 -0.3333 0.8086
vn 0.9892 -0.0083 0.1462
vn 0.9994 -0.0339 0.0041
vn 0.0000 1.0000 0.0000
vn 0.0000 -1.0000 0.0000
vn -1.0000 -0.0000 0.0000
vn 0.5098 0.4446 0.7365
vn 0.9989 -0.0462 0.0045
vn -0.7233 0.6903 -0.0165
vn -0.1981 0.7263 -0.6583
vn 0.0000 0.0000 -1.0000
vn -0.8577 0.4774 -0.1906
vn -0.9855 0.0757 -0.1516
vn -0.7036 -0.7105 0.0078
vn 1.0000 0.0000 0.0000
vn 0.9863 0.1645 -0.0120
vn -0.9490 0.0000 -0.3154
vn 0.7039 -0.0219 0.7100
vn 0.6394 0.1554 0.7531
vn 0.6366 0.1587 0.7547
vn 0.6932 -0.4538 0.5599
vn 0.0450 -0.9990 0.0035
vn 0.5556 0.0000 0.8314
usemtl Shape.16565
s off
f 14//1 9//1 17//1
f 2//2 3//2 7//2
f 3//3 6//3 7//3
f 1//4 7//4 8//4
f 5//5 6//5 9//5
f 5//6 4//6 10//6
f 7//4 1//4 10//4
f 4//7 7//7 10//7
f 6//8 3//8 11//8
f 10//9 1//9 12//9
f 5//6 10//6 12//6
f 1//10 8//10 13//10
f 8//11 6//11 13//11
f 12//12 1//12 13//12
f 5//13 12//13 13//13
f 4//6 5//6 14//6
f 5//14 9//14 14//14
f 7//15 6//15 15//15
f 6//11 8//11 15//11
f 8//16 7//16 15//16
f 6//5 5//5 16//5
f 5//17 13//17 16//17
f 13//11 6//11 16//11
f 3//18 2//18 17//18
f 2//19 7//19 17//19
f 7//20 4//20 17//20
f 9//5 6//5 17//5
f 11//21 3//21 17//21
f 6//22 11//22 17//22
f 4//23 14//23 17//23
