# Blender v2.79 (sub 0) OBJ File: ''
# www.blender.org
mtllib 102630_link_1_78.mtl
o Shape_IndexedFaceSet.078_Shape_IndexedFaceSet.16524
v -0.326258 0.131674 -0.071257
v 0.300077 0.166665 -0.071230
v -0.302936 0.166665 -0.071230
v 0.294197 0.166665 -0.077085
v 0.315441 0.125820 -0.077065
v -0.320052 0.128948 -0.077028
v 0.316960 0.128801 -0.071262
v -0.299996 0.166665 -0.077085
v 0.317717 0.149095 -0.077085
v -0.320512 0.154953 -0.074157
vn -0.1985 0.1041 -0.9746
vn -0.0000 -0.0008 1.0000
vn -0.0000 1.0000 0.0000
vn -0.0044 -0.9060 0.4232
vn -0.0040 -0.8891 0.4578
vn -0.0001 -0.0015 -1.0000
vn 0.5130 0.6867 -0.5151
vn 0.4990 0.2218 0.8378
vn 0.9739 -0.0954 -0.2059
vn 0.0000 0.0000 -1.0000
vn -0.0000 -0.0009 -1.0000
vn -0.2811 0.1867 0.9413
vn -0.6625 0.0706 -0.7458
vn -0.5066 0.8238 -0.2544
usemtl Shape.16542
s off
f 8//1 6//1 10//1
f 1//2 2//2 3//2
f 3//3 2//3 4//3
f 5//4 1//4 6//4
f 2//2 1//2 7//2
f 1//5 5//5 7//5
f 3//3 4//3 8//3
f 5//6 6//6 8//6
f 4//7 2//7 9//7
f 2//8 7//8 9//8
f 7//9 5//9 9//9
f 8//10 4//10 9//10
f 5//11 8//11 9//11
f 1//12 3//12 10//12
f 6//13 1//13 10//13
f 3//14 8//14 10//14
