# Blender v2.79 (sub 0) OBJ File: ''
# www.blender.org
mtllib 102630_link_2_15.mtl
o Shape_IndexedFaceSet.015_Shape_IndexedFaceSet.4361
v -0.092146 -0.589384 0.186043
v -0.009068 -0.321027 0.460825
v -0.015462 -0.321027 0.460825
v -0.092146 -0.442445 0.249929
v -0.009068 -0.563804 0.179630
v -0.098540 -0.327422 0.441640
v -0.009068 -0.627756 0.186043
v -0.009068 -0.321027 0.403298
v -0.098540 -0.321027 0.377727
v -0.098540 -0.512702 0.179630
v -0.047428 -0.621330 0.186043
v -0.041026 -0.333817 0.454412
v -0.098540 -0.582989 0.179630
v -0.092146 -0.512702 0.179630
v -0.098540 -0.487122 0.288326
v -0.009068 -0.327422 0.460825
vn -0.0130 -0.6750 0.7377
vn 1.0000 0.0000 -0.0000
vn 0.0000 1.0000 0.0000
vn -0.0991 0.9901 0.0991
vn 0.1918 0.7163 -0.6709
vn -0.2438 0.6970 -0.6744
vn -1.0000 -0.0000 -0.0000
vn -0.2214 -0.0459 0.9741
vn -0.2320 -0.6610 0.7137
vn -0.1133 -0.6766 0.7276
vn 0.0214 -0.0998 -0.9948
vn 0.0000 0.0000 -1.0000
vn -0.5663 -0.7927 -0.2259
vn -0.0352 -0.2104 -0.9770
vn 0.2618 0.6827 -0.6822
vn 0.3847 0.6254 -0.6789
vn 0.0000 0.7073 -0.7069
vn -0.4590 -0.6425 0.6137
vn -0.3510 -0.6485 0.6755
vn -0.8164 -0.4331 0.3820
vn 0.0000 0.0000 1.0000
vn -0.1627 -0.1627 0.9732
usemtl Shape.4366
s off
f 12//1 7//1 16//1
f 5//2 2//2 7//2
f 3//3 2//3 8//3
f 2//2 5//2 8//2
f 6//4 3//4 9//4
f 3//3 8//3 9//3
f 8//5 4//5 9//5
f 9//6 4//6 10//6
f 6//7 9//7 10//7
f 3//8 6//8 12//8
f 6//9 11//9 12//9
f 11//10 7//10 12//10
f 5//11 7//11 13//11
f 10//12 5//12 13//12
f 6//7 10//7 13//7
f 11//13 1//13 13//13
f 7//14 11//14 13//14
f 4//15 8//15 14//15
f 8//16 5//16 14//16
f 5//12 10//12 14//12
f 10//17 4//17 14//17
f 1//18 11//18 15//18
f 11//19 6//19 15//19
f 13//20 1//20 15//20
f 6//7 13//7 15//7
f 2//21 3//21 16//21
f 7//2 2//2 16//2
f 3//22 12//22 16//22
