# Blender v2.79 (sub 0) OBJ File: ''
# www.blender.org
mtllib 102630_link_1_3.mtl
o Shape_IndexedFaceSet.003_Shape_IndexedFaceSet.16449
v 0.176111 0.118316 0.166973
v 0.349948 0.108107 0.300608
v 0.344090 0.099323 0.057599
v 0.209417 0.102252 0.303545
v 0.346146 0.116794 0.058946
v 0.188937 0.099323 0.060536
v 0.204835 0.116717 0.301109
v 0.338232 0.099323 0.274247
v 0.185984 0.113962 0.057599
v 0.345936 0.116771 0.301873
v 0.185984 0.102252 0.203949
v 0.347011 0.102252 0.303545
v 0.185984 0.102252 0.057599
v 0.335295 0.116891 0.057599
v 0.203558 0.105182 0.297647
v 0.347040 0.113754 0.061962
vn 0.9301 -0.0818 -0.3582
vn 0.0000 -1.0000 0.0000
vn -0.0196 -0.9997 0.0137
vn 0.0090 1.0000 0.0001
vn 0.9075 0.4201 0.0008
vn -0.0004 0.9999 0.0120
vn -0.0054 0.1644 0.9864
vn -0.0796 -0.9967 0.0187
vn 0.8928 -0.4505 -0.0052
vn 0.2926 -0.9562 0.0079
vn 0.0000 -0.9950 0.0995
vn 0.5522 0.1356 0.8226
vn 0.0000 0.1144 0.9934
vn -0.0132 -0.7146 -0.6994
vn -0.9960 0.0000 -0.0899
vn 0.0000 0.0000 -1.0000
vn -0.8520 -0.5236 0.0000
vn -0.7042 -0.7100 0.0000
vn 0.0089 1.0000 -0.0000
vn 0.1235 0.0618 -0.9904
vn -0.0196 0.9989 -0.0415
vn -0.9767 0.0452 0.2097
vn -0.7334 -0.1196 0.6692
vn -0.9684 -0.1652 0.1868
vn -0.5436 -0.8295 0.1279
vn 0.9806 -0.1954 -0.0166
vn 0.9607 0.2774 -0.0051
usemtl Shape.16467
s off
f 3//1 5//1 16//1
f 6//2 3//2 8//2
f 4//3 6//3 8//3
f 5//4 1//4 10//4
f 2//5 5//5 10//5
f 1//6 7//6 10//6
f 7//7 4//7 10//7
f 6//8 4//8 11//8
f 3//9 2//9 12//9
f 8//10 3//10 12//10
f 4//11 8//11 12//11
f 2//12 10//12 12//12
f 10//13 4//13 12//13
f 3//14 6//14 13//14
f 1//15 9//15 13//15
f 9//16 3//16 13//16
f 11//17 1//17 13//17
f 6//18 11//18 13//18
f 1//19 5//19 14//19
f 5//20 3//20 14//20
f 9//21 1//21 14//21
f 3//16 9//16 14//16
f 7//22 1//22 15//22
f 4//23 7//23 15//23
f 1//24 11//24 15//24
f 11//25 4//25 15//25
f 2//26 3//26 16//26
f 5//27 2//27 16//27
