# Blender v2.79 (sub 0) OBJ File: ''
# www.blender.org
mtllib 102630_link_1_84.mtl
o Shape_IndexedFaceSet.084_Shape_IndexedFaceSet.16530
v -0.334541 0.140454 -0.059487
v 0.311841 0.166665 -0.053662
v 0.301178 0.166217 -0.059418
v 0.330388 0.140391 -0.059501
v -0.325135 0.140822 -0.053775
v -0.314648 0.166665 -0.053662
v 0.320860 0.140879 -0.053788
v -0.318888 0.160636 -0.059450
v 0.329442 0.154952 -0.053662
v 0.317708 0.163733 -0.059518
vn 0.6073 0.3294 -0.7230
vn -0.0001 -0.9979 0.0644
vn -0.0000 0.9970 -0.0776
vn -0.5139 0.2049 0.8330
vn 0.0001 -0.9964 0.0853
vn -0.7887 0.6118 -0.0595
vn -0.0062 0.6948 -0.7192
vn 0.0000 0.0000 1.0000
vn -0.0001 -0.0043 1.0000
vn 0.4793 -0.2997 0.8249
vn 0.0000 -0.0090 1.0000
vn 0.1384 0.9341 -0.3291
vn -0.0000 -0.0007 -1.0000
vn -0.0003 0.0383 -0.9993
vn -0.0001 0.0019 -1.0000
vn 0.5488 0.8247 0.1369
usemtl Shape.16548
s off
f 9//1 4//1 10//1
f 1//2 4//2 5//2
f 2//3 3//3 6//3
f 1//4 5//4 6//4
f 5//5 4//5 7//5
f 1//6 6//6 8//6
f 6//7 3//7 8//7
f 2//8 6//8 9//8
f 6//9 5//9 9//9
f 7//10 4//10 9//10
f 5//11 7//11 9//11
f 3//12 2//12 10//12
f 4//13 1//13 10//13
f 8//14 3//14 10//14
f 1//15 8//15 10//15
f 2//16 9//16 10//16
