# Blender v2.79 (sub 0) OBJ File: ''
# www.blender.org
mtllib 102630_link_2_59.mtl
o Shape_IndexedFaceSet.059_Shape_IndexedFaceSet.4405
v -0.162448 -0.308205 0.326618
v -0.194437 -0.314667 0.281798
v -0.194399 -0.308205 0.281883
v -0.195805 -0.316856 0.355275
v -0.194500 -0.263317 0.352405
v -0.162448 -0.314606 0.352181
vn 0.0888 0.0512 0.9947
vn 0.8138 0.0029 -0.5812
vn -0.9998 0.0061 -0.0184
vn 0.6004 0.6750 -0.4288
vn -0.9996 0.0235 -0.0164
vn 0.4726 -0.8549 -0.2141
vn 0.0646 -0.9975 -0.0285
vn 0.8409 0.5249 0.1314
usemtl Shape.4410
s off
f 5//1 4//1 6//1
f 1//2 2//2 3//2
f 3//3 2//3 4//3
f 1//4 3//4 5//4
f 3//5 4//5 5//5
f 2//6 1//6 6//6
f 4//7 2//7 6//7
f 1//8 5//8 6//8
