# Blender v2.79 (sub 0) OBJ File: ''
# www.blender.org
mtllib 102630_link_1_13.mtl
o Shape_IndexedFaceSet.013_Shape_IndexedFaceSet.16459
v 0.343964 0.105179 0.007826
v -0.340923 0.102251 -0.003887
v -0.329242 0.102251 -0.003887
v -0.346831 0.102251 0.022464
v 0.346952 0.102251 0.022464
v 0.341044 0.102251 0.001971
vn 0.8908 -0.3748 -0.2568
vn 0.0000 0.9701 -0.2426
vn 0.0000 -1.0000 0.0000
vn -0.0043 1.0000 -0.0010
vn -0.0000 0.9806 0.1961
vn 0.0039 0.8936 -0.4488
usemtl Shape.16477
s off
f 1//1 5//1 6//1
f 3//2 2//2 1//2
f 2//3 3//3 4//3
f 1//4 2//4 4//4
f 1//5 4//5 5//5
f 4//3 3//3 5//3
f 5//3 3//3 6//3
f 3//6 1//6 6//6
