# Blender v2.79 (sub 0) OBJ File: ''
# www.blender.org
mtllib 102630_link_2_35.mtl
o Shape_IndexedFaceSet.035_Shape_IndexedFaceSet.4381
v 0.035669 -0.014250 0.748378
v 0.110879 -0.122496 0.520778
v 0.105966 0.024107 0.601450
v -0.009068 0.024107 0.627000
v -0.009068 -0.116491 0.582270
v 0.105966 -0.116491 0.639786
v 0.105966 0.017707 0.761164
v -0.009068 0.017707 0.773951
v -0.001869 -0.107693 0.652549
v 0.067614 0.024107 0.773951
v 0.067614 0.017707 0.773951
vn 0.3163 0.0000 0.9487
vn -0.1916 0.4682 -0.8626
vn -0.4278 0.2740 -0.8613
vn -0.0247 -0.9985 0.0494
vn 0.9995 0.0328 0.0013
vn 0.9983 -0.0391 0.0432
vn -1.0000 -0.0000 -0.0000
vn 0.0233 -0.7203 0.6933
vn -0.0653 -0.9893 0.1305
vn -0.9772 -0.1741 0.1219
vn -0.0892 -0.6954 0.7130
vn -0.0000 1.0000 -0.0000
vn 0.1772 0.9834 0.0394
vn -0.0831 0.9956 0.0434
vn -0.0000 0.0000 1.0000
vn 0.1115 -0.6865 0.7185
vn 0.2400 -0.6512 0.7200
vn 0.0000 -0.6248 0.7808
usemtl Shape.4386
s off
f 7//1 10//1 11//1
f 3//2 2//2 4//2
f 4//3 2//3 5//3
f 5//4 2//4 6//4
f 2//5 3//5 7//5
f 6//6 2//6 7//6
f 4//7 5//7 8//7
f 6//8 1//8 9//8
f 5//9 6//9 9//9
f 8//10 5//10 9//10
f 1//11 8//11 9//11
f 3//12 4//12 10//12
f 7//13 3//13 10//13
f 4//14 8//14 10//14
f 10//15 8//15 11//15
f 1//16 6//16 11//16
f 6//17 7//17 11//17
f 8//18 1//18 11//18
