# Blender v2.79 (sub 0) OBJ File: ''
# www.blender.org
mtllib 102630_link_1_91.mtl
o Shape_IndexedFaceSet.091_Shape_IndexedFaceSet.16537
v -0.346699 0.140231 -0.018606
v -0.007327 0.163732 -0.024381
v -0.019026 0.163732 -0.021456
v -0.007327 0.108118 -0.018527
v -0.344957 0.108908 -0.027186
v -0.323440 0.163732 -0.027311
v -0.007327 0.108118 -0.027311
v -0.346634 0.108633 -0.018608
v -0.314648 0.163732 -0.018527
v -0.007327 0.160803 -0.018527
v -0.349247 0.128752 -0.027222
v -0.343930 0.149092 -0.018527
vn -0.9478 0.2972 -0.1157
vn -0.0000 1.0000 0.0000
vn 1.0000 0.0000 0.0000
vn 0.0093 0.0526 -0.9986
vn -0.0004 -0.0021 -1.0000
vn -0.0015 -1.0000 0.0000
vn -0.0024 -0.9995 -0.0325
vn 0.1112 0.8888 0.4447
vn 0.0069 0.7207 0.6932
vn 0.0000 0.0000 1.0000
vn -0.0008 -0.0020 -1.0000
vn -0.9582 -0.0020 0.2860
vn -0.9588 -0.2076 -0.1941
vn -0.0281 -0.0001 0.9996
vn -0.0002 -0.0020 1.0000
vn -0.4082 0.8164 0.4085
vn -0.6011 0.4418 -0.6659
usemtl Shape.16555
s off
f 11//1 1//1 12//1
f 3//2 2//2 6//2
f 2//3 4//3 7//3
f 6//4 2//4 7//4
f 5//5 6//5 7//5
f 7//6 4//6 8//6
f 5//7 7//7 8//7
f 3//2 6//2 9//2
f 2//8 3//8 10//8
f 4//3 2//3 10//3
f 3//9 9//9 10//9
f 9//10 4//10 10//10
f 6//11 5//11 11//11
f 8//12 1//12 11//12
f 5//13 8//13 11//13
f 1//14 8//14 12//14
f 8//15 4//15 12//15
f 4//10 9//10 12//10
f 9//16 6//16 12//16
f 6//17 11//17 12//17
