# Blender v2.79 (sub 0) OBJ File: ''
# www.blender.org
mtllib 1011_link_2_20.mtl
o Shape_IndexedFaceSet.020_Shape_IndexedFaceSet.18243
v 0.155694 0.049852 0.520861
v 0.115157 0.010929 0.137450
v 0.112584 0.071411 0.122171
v 0.198795 0.146841 0.122171
v 0.112584 0.136047 0.634050
v 0.171847 0.146841 0.634050
v 0.112584 0.022903 0.634050
v 0.144925 0.146841 0.122171
v 0.188018 0.082149 0.122171
v 0.171847 0.103709 0.628638
v 0.139532 0.017513 0.122171
v 0.182625 0.098319 0.477770
v 0.177240 0.060632 0.224587
v 0.123370 0.146841 0.634050
v 0.139532 0.039072 0.628638
v 0.198795 0.136047 0.192219
v 0.123370 0.017513 0.493955
v 0.150309 0.028293 0.256905
v 0.123370 0.006747 0.122171
v 0.193402 0.098319 0.170673
v 0.166463 0.082149 0.623227
v 0.166463 0.044462 0.122171
v 0.177240 0.146841 0.574775
v 0.177240 0.082149 0.461586
vn 0.9268 -0.3705 0.0618
vn 0.0000 0.0000 1.0000
vn -0.9990 -0.0435 -0.0041
vn -1.0000 -0.0000 -0.0000
vn 0.0000 0.0000 -1.0000
vn -0.9179 0.3936 -0.0497
vn -0.0000 1.0000 0.0000
vn 0.2520 -0.1205 0.9602
vn -0.7071 0.7065 -0.0298
vn 0.2732 -0.1366 0.9522
vn 0.5239 -0.8487 0.0730
vn 0.6600 -0.7502 0.0409
vn 0.7847 -0.6189 0.0345
vn 0.7289 -0.6834 0.0409
vn 0.5543 -0.8321 0.0222
vn -0.8874 -0.1480 -0.4365
vn -0.4244 -0.9052 0.0196
vn -0.1226 -0.9920 0.0287
vn 0.5478 -0.8363 0.0242
vn 0.9849 -0.1641 -0.0546
vn 0.9290 -0.3696 0.0201
vn 0.9913 -0.1302 -0.0201
vn 0.9864 -0.1608 0.0346
vn 0.9625 -0.2599 0.0780
vn 0.6676 -0.3337 0.6656
vn 0.8497 -0.5218 0.0752
vn 0.8680 -0.4964 -0.0130
vn 0.7769 -0.6294 0.0176
vn 0.7073 -0.7069 -0.0000
vn 0.9958 -0.0114 0.0906
vn 0.9968 -0.0342 0.0724
vn 0.9544 0.2950 0.0455
vn 0.9984 -0.0018 0.0563
vn 0.8672 -0.4959 0.0450
vn 0.9344 -0.3547 0.0322
vn 0.9379 -0.3453 0.0329
vn 0.8767 -0.4776 0.0584
usemtl Shape.18253
s off
f 12//1 21//1 24//1
f 6//2 5//2 7//2
f 3//3 2//3 7//3
f 5//4 3//4 7//4
f 4//5 3//5 8//5
f 3//6 5//6 8//6
f 6//7 4//7 8//7
f 3//5 4//5 9//5
f 6//8 7//8 10//8
f 3//5 9//5 11//5
f 5//2 6//2 14//2
f 8//9 5//9 14//9
f 6//7 8//7 14//7
f 10//10 7//10 15//10
f 15//11 7//11 17//11
f 15//12 17//12 18//12
f 13//13 1//13 18//13
f 1//14 15//14 18//14
f 11//15 18//15 19//15
f 2//16 3//16 19//16
f 7//17 2//17 19//17
f 3//5 11//5 19//5
f 17//18 7//18 19//18
f 18//19 17//19 19//19
f 9//20 4//20 20//20
f 13//21 9//21 20//21
f 4//22 16//22 20//22
f 16//23 12//23 20//23
f 12//24 10//24 21//24
f 10//25 15//25 21//25
f 15//26 1//26 21//26
f 11//5 9//5 22//5
f 9//27 13//27 22//27
f 13//28 18//28 22//28
f 18//29 11//29 22//29
f 4//7 6//7 23//7
f 6//30 10//30 23//30
f 10//31 12//31 23//31
f 16//32 4//32 23//32
f 12//33 16//33 23//33
f 1//34 13//34 24//34
f 13//35 20//35 24//35
f 20//36 12//36 24//36
f 21//37 1//37 24//37
