# Blender v2.79 (sub 0) OBJ File: ''
# www.blender.org
mtllib 1011_link_2_19.mtl
o Shape_IndexedFaceSet.019_Shape_IndexedFaceSet.18242
v -0.167655 0.092929 0.623227
v -0.119178 0.006750 0.122171
v -0.108392 0.006750 0.122171
v -0.140733 0.157619 0.122171
v -0.108392 0.136041 0.634050
v -0.192934 0.154698 0.132083
v -0.113785 0.022907 0.634050
v -0.167655 0.044471 0.122171
v -0.173048 0.157619 0.628638
v -0.108392 0.071410 0.122171
v -0.121765 0.165454 0.452446
v -0.194603 0.114492 0.181446
v -0.156878 0.049847 0.493955
v -0.108392 0.017516 0.580136
v -0.194603 0.157619 0.267678
v -0.178433 0.098320 0.510089
v -0.151502 0.028298 0.203042
v -0.119178 0.157619 0.634050
v -0.178433 0.066019 0.235360
v -0.146117 0.049847 0.634050
v -0.189210 0.092929 0.122171
v -0.119178 0.022907 0.612454
v -0.173048 0.136041 0.634050
v -0.162271 0.071410 0.596320
v -0.140733 0.039080 0.601681
v -0.194603 0.125259 0.122171
v -0.189210 0.092929 0.208403
vn -0.9283 -0.3718 0.0000
vn -0.0000 0.0000 -1.0000
vn 1.0000 0.0000 0.0000
vn 0.9684 0.2474 -0.0312
vn 0.9345 0.3506 -0.0620
vn 0.0000 -0.9997 0.0235
vn 0.9934 -0.0474 0.1041
vn -0.0601 0.9979 -0.0222
vn -0.0554 0.9983 -0.0205
vn -0.1258 0.9920 0.0075
vn -0.9950 -0.0891 0.0446
vn -0.6137 -0.7887 -0.0351
vn -0.7819 -0.6226 0.0317
vn 0.0000 0.0000 1.0000
vn 0.8945 0.4471 0.0065
vn -0.0043 0.9991 0.0432
vn -0.8165 -0.5765 0.0320
vn -0.9136 -0.4064 -0.0096
vn -0.3721 -0.9277 0.0306
vn -0.2742 -0.9592 0.0685
vn -0.5042 -0.8631 0.0284
vn -0.6321 -0.7586 0.1579
vn -0.9981 0.0149 0.0596
vn -0.9975 -0.0423 0.0562
vn -0.9856 -0.1451 0.0870
vn -0.0970 0.2421 0.9654
vn -0.7774 -0.2429 0.5802
vn -0.9417 -0.3282 0.0741
vn -0.8942 -0.4453 0.0467
vn -0.9156 -0.3994 0.0470
vn -0.8989 -0.4118 0.1495
vn -0.8501 -0.5226 0.0653
vn -0.7182 -0.6948 0.0382
vn -0.8058 -0.5890 0.0619
vn -0.6118 -0.7901 0.0379
vn -0.6392 -0.7553 0.1449
vn -0.1940 0.3229 -0.9263
vn -0.9980 0.0612 -0.0136
vn -1.0000 0.0000 0.0000
vn -0.9859 -0.1645 -0.0299
vn -0.9797 -0.1969 0.0385
vn -0.9407 -0.3370 0.0396
vn -0.9701 -0.2426 0.0000
usemtl Shape.18252
s off
f 21//1 19//1 27//1
f 3//2 2//2 4//2
f 4//2 2//2 8//2
f 3//2 4//2 10//2
f 5//3 3//3 10//3
f 5//4 10//4 11//4
f 10//5 4//5 11//5
f 2//6 3//6 14//6
f 3//3 5//3 14//3
f 5//7 7//7 14//7
f 4//8 6//8 15//8
f 11//9 4//9 15//9
f 9//10 11//10 15//10
f 15//11 12//11 16//11
f 8//12 2//12 17//12
f 13//13 8//13 17//13
f 7//14 5//14 18//14
f 5//15 11//15 18//15
f 11//16 9//16 18//16
f 8//17 13//17 19//17
f 7//14 18//14 20//14
f 4//2 8//2 21//2
f 8//18 19//18 21//18
f 2//19 14//19 22//19
f 14//20 7//20 22//20
f 17//21 2//21 22//21
f 7//22 20//22 22//22
f 9//23 15//23 23//23
f 15//24 16//24 23//24
f 16//25 1//25 23//25
f 18//26 9//26 23//26
f 1//27 20//27 23//27
f 20//14 18//14 23//14
f 1//28 16//28 24//28
f 19//29 13//29 24//29
f 16//30 19//30 24//30
f 20//31 1//31 24//31
f 13//32 20//32 24//32
f 13//33 17//33 25//33
f 20//34 13//34 25//34
f 17//35 22//35 25//35
f 22//36 20//36 25//36
f 6//37 4//37 26//37
f 15//38 6//38 26//38
f 12//39 15//39 26//39
f 4//2 21//2 26//2
f 21//40 12//40 26//40
f 16//41 12//41 27//41
f 19//42 16//42 27//42
f 12//43 21//43 27//43
