# Blender v2.79 (sub 0) OBJ File: ''
# www.blender.org
mtllib 1011_link_0_19.mtl
o Shape_IndexedFaceSet.019_Shape_IndexedFaceSet.16001
v -0.016459 0.264094 -0.261118
v -0.017927 0.260874 -0.234327
v -0.017927 0.457894 -0.230872
v 0.059848 0.265782 -0.198281
v 0.071941 0.457894 -0.196301
v -0.017927 0.457894 -0.275792
v 0.054656 0.267798 -0.261965
v 0.051190 0.457894 -0.275792
v 0.040827 0.264345 -0.196301
v 0.040827 0.457894 -0.196301
v 0.071941 0.454423 -0.255048
v -0.014146 0.278667 -0.266112
v 0.061570 0.278173 -0.255048
v 0.047732 0.267798 -0.265420
v -0.017927 0.423296 -0.275792
v -0.017927 0.264345 -0.230872
v 0.062234 0.277724 -0.199221
v 0.061570 0.426748 -0.268875
v 0.051190 0.264345 -0.261965
v 0.044284 0.260874 -0.196301
v 0.047732 0.433671 -0.275792
v 0.071941 0.440595 -0.196301
vn 0.0000 0.0000 1.0000
vn -1.0000 -0.0000 0.0000
vn 0.0000 1.0000 0.0000
vn -0.5071 -0.0000 0.8619
vn 0.2204 0.9737 -0.0575
vn 0.8545 -0.5122 -0.0859
vn -0.0452 -0.3174 -0.9472
vn -0.0006 -0.0668 -0.9978
vn -0.9983 -0.0144 -0.0564
vn 0.0000 0.0000 -1.0000
vn -0.8292 -0.0589 -0.5559
vn 0.9803 -0.1969 -0.0132
vn 0.7114 0.0821 -0.6979
vn 0.7504 -0.0613 -0.6582
vn 0.8442 -0.0497 -0.5338
vn 0.4457 -0.0582 -0.8933
vn 0.4296 -0.0570 -0.9012
vn 0.0022 -0.9929 -0.1192
vn 0.7035 -0.7062 -0.0797
vn -0.0062 -0.7104 -0.7038
vn 0.4074 -0.4090 -0.8165
vn -0.3975 -0.6473 0.6503
vn -0.4527 -0.4508 0.7693
vn 0.0303 -0.9983 -0.0496
vn 0.2985 -0.9542 -0.0190
vn 0.4006 -0.0572 -0.9145
vn 0.0099 -0.0624 -0.9980
vn 1.0000 0.0000 0.0000
vn 0.9982 -0.0587 -0.0138
vn 0.5669 -0.0485 0.8224
vn 0.9982 -0.0593 -0.0123
vn 0.1325 -0.0204 0.9910
usemtl Shape.16010
s off
f 5//1 20//1 22//1
f 2//2 3//2 6//2
f 3//3 5//3 6//3
f 6//3 5//3 8//3
f 9//1 5//1 10//1
f 5//3 3//3 10//3
f 3//4 9//4 10//4
f 8//5 5//5 11//5
f 4//6 7//6 13//6
f 1//7 12//7 14//7
f 14//8 12//8 15//8
f 1//9 2//9 15//9
f 2//2 6//2 15//2
f 6//10 8//10 15//10
f 12//11 1//11 15//11
f 3//2 2//2 16//2
f 9//4 3//4 16//4
f 4//12 13//12 17//12
f 8//13 11//13 18//13
f 13//14 7//14 18//14
f 11//15 13//15 18//15
f 7//16 14//16 18//16
f 14//17 8//17 18//17
f 2//18 1//18 19//18
f 7//19 4//19 19//19
f 1//20 14//20 19//20
f 14//21 7//21 19//21
f 5//1 9//1 20//1
f 16//22 2//22 20//22
f 9//23 16//23 20//23
f 2//24 19//24 20//24
f 19//25 4//25 20//25
f 8//26 14//26 21//26
f 14//27 15//27 21//27
f 15//10 8//10 21//10
f 11//28 5//28 22//28
f 13//29 11//29 22//29
f 4//30 17//30 22//30
f 17//31 13//31 22//31
f 20//32 4//32 22//32
