# Blender v2.79 (sub 0) OBJ File: ''
# www.blender.org
mtllib 1011_link_2_50.mtl
o Shape_IndexedFaceSet.050_Shape_IndexedFaceSet.18273
v -0.097596 -0.004052 0.122165
v 0.022580 0.055687 0.575036
v -0.105832 0.090014 0.580152
v -0.102990 0.012115 0.569429
v 0.020959 0.039047 0.122165
v 0.020959 0.006723 0.558571
v -0.108383 0.065989 0.122165
v 0.015965 -0.010884 0.139431
v -0.059868 -0.014837 0.122165
v -0.114941 0.092750 0.544560
v -0.108383 0.001340 0.122165
v -0.076035 0.006723 0.569429
v -0.108383 0.012115 0.510106
v -0.102990 0.071382 0.197643
v 0.020959 0.055214 0.515491
v -0.016770 0.006723 0.569429
vn 0.0000 -0.9988 0.0481
vn 0.9995 -0.0323 -0.0024
vn 0.0000 0.0000 -1.0000
vn 0.9947 -0.1021 -0.0076
vn 0.0426 -0.9982 0.0414
vn -0.2747 -0.9610 0.0314
vn 0.2256 -0.3385 -0.9135
vn 0.2585 0.9660 0.0081
vn -0.9677 -0.0687 0.2424
vn -0.9999 0.0000 -0.0155
vn -0.0275 -0.1373 0.9901
vn -0.1960 -0.9798 0.0401
vn -0.3311 -0.9431 0.0301
vn -0.9888 -0.1188 0.0899
vn -0.9966 -0.0820 0.0023
vn -0.4470 -0.8942 0.0248
vn 0.2032 0.9755 -0.0842
vn 0.2221 0.9736 -0.0523
vn -0.0925 0.9936 -0.0644
vn 0.7726 0.6343 -0.0261
vn 0.2633 0.9646 -0.0148
vn 0.2581 0.9653 -0.0397
vn 0.0075 -0.1197 0.9928
vn 0.2625 -0.3154 0.9120
vn 0.0135 -0.9988 0.0468
vn 0.0000 -0.1277 0.9918
usemtl Shape.18283
s off
f 12//1 9//1 16//1
f 5//2 2//2 6//2
f 5//3 1//3 7//3
f 5//4 6//4 8//4
f 8//5 6//5 9//5
f 4//6 1//6 9//6
f 1//3 5//3 9//3
f 5//7 8//7 9//7
f 3//8 2//8 10//8
f 4//9 3//9 10//9
f 10//10 7//10 11//10
f 7//3 1//3 11//3
f 3//11 4//11 12//11
f 4//12 9//12 12//12
f 1//13 4//13 13//13
f 4//14 10//14 13//14
f 10//15 11//15 13//15
f 11//16 1//16 13//16
f 5//17 7//17 14//17
f 10//18 5//18 14//18
f 7//19 10//19 14//19
f 2//20 5//20 15//20
f 10//21 2//21 15//21
f 5//22 10//22 15//22
f 2//23 3//23 16//23
f 6//24 2//24 16//24
f 9//25 6//25 16//25
f 3//26 12//26 16//26
