# Blender v2.79 (sub 0) OBJ File: ''
# www.blender.org
mtllib 1011_link_2_5.mtl
o Shape_IndexedFaceSet.005_Shape_IndexedFaceSet.18228
v -0.140727 -0.047190 -0.233598
v -0.192098 -0.051687 -0.237168
v -0.093524 -0.049532 -0.377220
v -0.095164 -0.214955 -0.237787
v -0.191186 -0.224278 -0.238464
v -0.173052 -0.047190 -0.357502
v -0.093369 -0.228343 -0.377440
v -0.092216 -0.165730 -0.233598
v -0.189209 -0.230407 -0.292873
v -0.092216 -0.047190 -0.330557
v -0.173052 -0.230407 -0.357502
v -0.194611 -0.047190 -0.255146
v -0.194611 -0.230407 -0.249762
v -0.145881 -0.054663 -0.368175
v -0.095004 -0.220296 -0.247740
v -0.178434 -0.047190 -0.341338
v -0.145875 -0.222732 -0.368027
vn -0.3609 -0.0008 -0.9326
vn -0.0686 -0.0079 0.9976
vn -0.0395 -0.0162 0.9991
vn 0.0012 -0.0849 0.9964
vn -0.0000 1.0000 0.0000
vn 0.0169 0.9986 -0.0506
vn 0.9996 0.0009 -0.0281
vn 0.8398 0.3437 0.4202
vn 1.0000 -0.0048 -0.0059
vn -0.1019 0.9616 0.2548
vn -0.9922 -0.0037 -0.1243
vn -0.9559 -0.0073 0.2937
vn 0.0273 -0.9996 0.0055
vn 0.0000 -1.0000 0.0000
vn -0.9902 0.0041 0.1394
vn -0.1948 0.4983 -0.8448
vn -0.1703 0.0011 -0.9854
vn -0.3656 -0.0000 -0.9308
vn 0.0819 -0.8776 0.4723
vn 0.9967 -0.0640 0.0504
vn 0.9983 -0.0552 0.0160
vn 0.0807 -0.8862 0.4563
vn 0.0995 -0.9930 0.0629
vn -0.9488 -0.0000 -0.3159
vn -0.9701 -0.0071 -0.2425
vn -0.9828 0.0090 -0.1845
vn -0.2041 -0.4614 -0.8634
vn -0.1766 -0.0009 -0.9843
usemtl Shape.18238
s off
f 11//1 14//1 17//1
f 1//2 2//2 5//2
f 1//3 5//3 8//3
f 5//4 4//4 8//4
f 6//5 1//5 10//5
f 3//6 6//6 10//6
f 7//7 3//7 10//7
f 1//8 8//8 10//8
f 8//9 7//9 10//9
f 2//10 1//10 12//10
f 1//5 6//5 12//5
f 12//11 9//11 13//11
f 5//12 2//12 13//12
f 11//13 7//13 13//13
f 9//14 11//14 13//14
f 2//15 12//15 13//15
f 6//16 3//16 14//16
f 3//17 7//17 14//17
f 11//18 6//18 14//18
f 4//19 5//19 15//19
f 8//20 4//20 15//20
f 7//21 8//21 15//21
f 5//22 13//22 15//22
f 13//23 7//23 15//23
f 6//24 11//24 16//24
f 11//25 9//25 16//25
f 12//5 6//5 16//5
f 9//26 12//26 16//26
f 7//27 11//27 17//27
f 14//28 7//28 17//28
