# Blender v2.79 (sub 0) OBJ File: ''
# www.blender.org
mtllib 1011_link_2_46.mtl
o Shape_IndexedFaceSet.046_Shape_IndexedFaceSet.18269
v -0.194202 0.189766 0.053291
v -0.023313 0.221834 0.089536
v -0.022155 0.168401 0.089782
v -0.024159 0.174094 0.052486
v -0.193305 0.152775 0.089489
v -0.178432 0.216900 0.089782
v -0.024393 0.221408 0.052536
v -0.140707 0.152230 0.052061
v -0.178432 0.216900 0.052061
v -0.145995 0.145979 0.093148
v -0.194004 0.152481 0.052196
v -0.027552 0.168401 0.052061
vn 0.1402 -0.9814 -0.1313
vn -0.9444 0.2179 0.2461
vn 0.9993 0.0215 -0.0294
vn 0.9986 0.0050 -0.0529
vn -0.0318 0.9995 0.0000
vn -0.8646 0.5025 0.0000
vn -0.0292 0.9995 -0.0107
vn 0.0262 0.0052 0.9996
vn -0.0753 0.0129 0.9971
vn 0.0001 0.0474 0.9989
vn -0.0050 -0.9885 -0.1510
vn -0.9998 -0.0059 0.0188
vn -0.1263 0.0285 -0.9916
vn -0.0025 -0.0015 -1.0000
vn -0.1430 -0.9897 0.0105
vn 0.8565 -0.5013 -0.1225
vn 0.1216 0.0017 -0.9926
vn 0.0028 0.0088 -1.0000
vn 0.0000 0.0000 -1.0000
vn 0.1774 -0.9838 -0.0254
usemtl Shape.18279
s off
f 10//1 8//1 12//1
f 1//2 5//2 6//2
f 2//3 3//3 7//3
f 3//4 4//4 7//4
f 6//5 2//5 9//5
f 1//6 6//6 9//6
f 2//7 7//7 9//7
f 3//8 2//8 10//8
f 6//9 5//9 10//9
f 2//10 6//10 10//10
f 8//11 10//11 11//11
f 5//12 1//12 11//12
f 1//13 9//13 11//13
f 9//14 8//14 11//14
f 10//15 5//15 11//15
f 4//16 3//16 12//16
f 7//17 4//17 12//17
f 9//18 7//18 12//18
f 8//19 9//19 12//19
f 3//20 10//20 12//20
