# Blender v2.79 (sub 0) OBJ File: ''
# www.blender.org
mtllib 1011_link_1_1.mtl
o Shape_IndexedFaceSet.001_Shape_IndexedFaceSet.3962
v -0.025612 -0.140419 -0.644165
v 0.028236 -0.121098 -0.521306
v 0.028236 -0.133516 -0.521306
v 0.028236 -0.132137 -0.648325
v -0.003522 -0.101772 -0.645547
v -0.025612 -0.119720 -0.521306
v -0.007663 -0.156988 -0.521306
v 0.013044 -0.155604 -0.645547
v 0.011665 -0.103151 -0.521306
v 0.021326 -0.110054 -0.648312
v 0.019948 -0.151463 -0.521306
v -0.024233 -0.116957 -0.646930
v -0.013188 -0.104529 -0.521306
v -0.009041 -0.155604 -0.646930
v -0.024233 -0.143181 -0.521306
v 0.026852 -0.141797 -0.646930
v -0.015945 -0.152842 -0.644165
v -0.013188 -0.107292 -0.649695
v 0.011665 -0.103151 -0.645547
v 0.021326 -0.108676 -0.524071
v 0.026852 -0.116957 -0.645547
v 0.008902 -0.156988 -0.521306
v -0.020092 -0.110054 -0.645547
v -0.026996 -0.132132 -0.645547
v -0.026996 -0.134894 -0.521306
v 0.000620 -0.154225 -0.649695
v -0.004900 -0.101772 -0.521306
v 0.006140 -0.156988 -0.646930
v -0.021465 -0.111433 -0.521306
v -0.015945 -0.152842 -0.521306
v 0.026852 -0.141797 -0.521306
v 0.022710 -0.148701 -0.644165
v 0.007524 -0.101772 -0.573780
v -0.026996 -0.125239 -0.645547
v 0.025473 -0.139035 -0.649695
v -0.024233 -0.132132 -0.648312
v -0.011810 -0.104529 -0.646930
v -0.021465 -0.147322 -0.644165
v -0.006284 -0.156988 -0.644165
v -0.025612 -0.118336 -0.644165
v -0.026996 -0.125239 -0.521306
v 0.010281 -0.105913 -0.649695
v 0.028230 -0.137656 -0.645547
v 0.028236 -0.122477 -0.644165
v 0.026852 -0.116957 -0.521306
v -0.010426 -0.103151 -0.584828
v 0.013044 -0.103151 -0.575163
v 0.021326 -0.108676 -0.583446
v -0.011810 -0.155604 -0.524071
v 0.004761 -0.101772 -0.646930
v 0.015806 -0.154225 -0.521306
v 0.019948 -0.151463 -0.642782
v 0.025473 -0.144560 -0.521306
v -0.021465 -0.147322 -0.521306
v 0.019948 -0.150085 -0.648312
v 0.006140 -0.101772 -0.521306
v -0.017329 -0.107292 -0.524071
v -0.013188 -0.104529 -0.583446
v 0.018564 -0.107292 -0.646930
v 0.028230 -0.137656 -0.521306
v 0.026852 -0.125239 -0.649695
vn 0.9369 0.1566 -0.3127
vn 1.0000 0.0000 0.0000
vn -0.0000 0.0000 1.0000
vn -0.5848 0.4816 -0.6527
vn -0.9487 -0.3163 0.0035
vn -0.9862 -0.1653 -0.0037
vn 0.0000 -1.0000 0.0000
vn 0.1974 -0.9803 -0.0043
vn -0.0704 -0.7724 -0.6312
vn 0.0000 1.0000 0.0000
vn -1.0000 0.0000 0.0000
vn 0.7843 -0.1973 -0.5882
vn 0.0000 0.0000 -1.0000
vn -0.3123 0.0862 -0.9461
vn -0.6884 -0.2297 -0.6880
vn -0.2409 -0.2117 -0.9472
vn -0.0751 -0.0221 -0.9969
vn -0.6103 0.0718 -0.7889
vn -0.7074 0.0000 -0.7068
vn -0.1327 0.7334 -0.6667
vn -0.5483 0.7122 -0.4384
vn -0.8572 -0.5150 -0.0020
vn -0.4854 -0.4854 -0.7272
vn -0.7071 -0.7071 0.0000
vn -0.5191 -0.3119 -0.7958
vn -0.3979 -0.3084 -0.8640
vn -0.3935 -0.9169 -0.0666
vn -0.0841 -0.9221 -0.3777
vn -0.8340 0.5306 -0.1513
vn -0.8943 0.4475 0.0050
vn -0.8323 0.5543 -0.0030
vn -0.9106 0.2487 -0.3301
vn -0.9805 0.1966 0.0000
vn -0.0001 0.0000 1.0000
vn -0.9700 0.2432 0.0027
vn 1.0000 -0.0011 -0.0000
vn 0.9140 -0.1832 -0.3621
vn 0.9488 -0.3157 0.0000
vn 0.9701 0.2426 -0.0027
vn 0.5071 0.5578 0.6571
vn 0.9484 0.3170 0.0000
vn 0.8318 0.5551 0.0000
vn -0.2161 0.9764 -0.0024
vn -0.3156 0.9489 0.0069
vn -0.3135 0.9495 -0.0141
vn 0.4992 0.8664 0.0128
vn 0.2413 0.9705 -0.0047
vn 0.2438 0.9698 0.0062
vn 0.7832 0.6217 -0.0132
vn 0.5550 0.8319 0.0000
vn -0.4368 -0.8726 0.2184
vn -0.5554 -0.8316 0.0000
vn -0.3944 -0.9189 -0.0076
vn -0.3144 -0.9493 -0.0035
vn -0.1147 0.7173 -0.6872
vn 0.1973 0.9803 -0.0075
vn -0.0309 0.5262 -0.8498
vn 0.2703 0.7573 -0.5945
vn 0.3716 -0.9284 0.0020
vn 0.7071 -0.7071 0.0000
vn 0.5149 -0.8572 -0.0019
vn 0.5548 -0.8320 0.0000
vn 0.0001 0.0000 1.0000
vn 0.8947 -0.4466 0.0000
vn 0.8572 -0.5150 -0.0019
vn 0.7807 -0.6249 0.0035
vn -0.8314 -0.5557 0.0000
vn 0.2726 -0.6814 -0.6792
vn 0.1692 -0.5075 -0.8449
vn 0.7552 -0.5774 -0.3103
vn 0.6070 -0.3901 -0.6924
vn 0.1078 -0.1763 -0.9784
vn 0.5617 -0.8028 -0.2001
vn 0.6473 -0.7396 -0.1843
vn 0.2422 0.9702 0.0064
vn -0.6291 0.7541 0.1885
vn -0.7075 0.7067 0.0000
vn -0.5563 0.8309 -0.0121
vn -0.4464 0.8948 0.0000
vn -0.4503 0.8928 -0.0098
vn -0.5550 0.8318 0.0000
vn -0.5995 0.8004 -0.0046
vn 0.3216 0.7351 -0.5968
vn 0.3335 0.6669 -0.6664
vn 0.5131 0.8583 -0.0101
vn 0.7032 0.7108 -0.0151
vn 0.5509 0.8345 -0.0058
vn 1.0000 -0.0014 0.0000
vn 0.7095 0.3156 -0.6301
vn 0.5504 -0.0550 -0.8331
vn 0.1793 0.1538 -0.9717
vn 0.9447 0.1297 -0.3012
usemtl Shape.3965
s off
f 21//1 44//1 61//1
f 2//2 3//2 4//2
f 3//3 2//3 6//3
f 3//3 6//3 7//3
f 6//3 2//3 9//3
f 3//3 7//3 11//3
f 6//3 9//3 13//3
f 7//3 6//3 15//3
f 11//3 7//3 22//3
f 18//4 12//4 23//4
f 1//5 15//5 25//5
f 15//3 6//3 25//3
f 24//6 1//6 25//6
f 13//3 9//3 27//3
f 22//7 7//7 28//7
f 8//8 22//8 28//8
f 14//9 26//9 28//9
f 6//3 13//3 29//3
f 7//3 15//3 30//3
f 3//3 11//3 31//3
f 5//10 27//10 33//10
f 24//11 25//11 34//11
f 4//12 16//12 35//12
f 26//13 18//13 35//13
f 12//14 18//14 36//14
f 1//15 24//15 36//15
f 26//16 14//16 36//16
f 18//17 26//17 36//17
f 34//18 12//18 36//18
f 24//19 34//19 36//19
f 5//20 18//20 37//20
f 18//21 23//21 37//21
f 15//22 1//22 38//22
f 14//23 17//23 38//23
f 17//24 30//24 38//24
f 1//25 36//25 38//25
f 36//26 14//26 38//26
f 17//27 14//27 39//27
f 28//7 7//7 39//7
f 14//28 28//28 39//28
f 23//29 12//29 40//29
f 6//30 29//30 40//30
f 29//31 23//31 40//31
f 12//32 34//32 40//32
f 40//33 34//33 41//33
f 25//34 6//34 41//34
f 34//11 25//11 41//11
f 6//35 40//35 41//35
f 35//13 18//13 42//13
f 4//36 3//36 43//36
f 16//37 4//37 43//37
f 31//38 16//38 43//38
f 2//2 4//2 44//2
f 21//39 2//39 44//39
f 9//3 2//3 45//3
f 20//40 9//40 45//40
f 2//41 21//41 45//41
f 21//42 20//42 45//42
f 27//43 5//43 46//43
f 13//44 27//44 46//44
f 5//45 37//45 46//45
f 9//46 20//46 47//46
f 19//47 33//47 47//47
f 33//48 9//48 47//48
f 21//49 10//49 48//49
f 20//42 21//42 48//42
f 47//50 20//50 48//50
f 7//51 30//51 49//51
f 30//52 17//52 49//52
f 17//53 39//53 49//53
f 39//54 7//54 49//54
f 18//55 5//55 50//55
f 5//10 33//10 50//10
f 33//56 19//56 50//56
f 42//57 18//57 50//57
f 19//58 42//58 50//58
f 11//3 22//3 51//3
f 22//59 8//59 51//59
f 32//60 11//60 52//60
f 51//61 8//61 52//61
f 11//62 51//62 52//62
f 31//63 11//63 53//63
f 16//64 31//64 53//64
f 32//65 16//65 53//65
f 11//66 32//66 53//66
f 30//3 15//3 54//3
f 15//67 38//67 54//67
f 38//24 30//24 54//24
f 8//68 28//68 55//68
f 28//69 26//69 55//69
f 16//70 32//70 55//70
f 35//71 16//71 55//71
f 26//72 35//72 55//72
f 52//73 8//73 55//73
f 32//74 52//74 55//74
f 27//3 9//3 56//3
f 9//75 33//75 56//75
f 33//10 27//10 56//10
f 29//76 13//76 57//76
f 23//77 29//77 57//77
f 37//78 23//78 58//78
f 13//79 46//79 58//79
f 46//80 37//80 58//80
f 57//81 13//81 58//81
f 23//82 57//82 58//82
f 42//83 19//83 59//83
f 10//84 42//84 59//84
f 19//85 47//85 59//85
f 48//86 10//86 59//86
f 47//87 48//87 59//87
f 3//63 31//63 60//63
f 43//88 3//88 60//88
f 31//38 43//38 60//38
f 10//89 21//89 61//89
f 4//90 35//90 61//90
f 42//91 10//91 61//91
f 35//13 42//13 61//13
f 44//92 4//92 61//92
