# Blender v2.79 (sub 0) OBJ File: ''
# www.blender.org
mtllib 1011_link_2_14.mtl
o Shape_IndexedFaceSet.014_Shape_IndexedFaceSet.18237
v 0.180215 0.209943 -0.274552
v 0.074863 0.092927 -0.282072
v 0.074863 0.092927 -0.276674
v 0.198117 -0.045684 -0.190963
v 0.124419 0.201578 -0.194036
v 0.185878 -0.041655 -0.280167
v 0.150288 -0.047147 -0.190455
v 0.195286 0.199216 -0.193056
v 0.080262 0.200697 -0.282072
v 0.139515 -0.047147 -0.282072
v 0.117980 0.087552 -0.190455
v 0.189343 0.197417 -0.278792
v 0.074863 0.162990 -0.276674
v 0.170301 0.211049 -0.207933
v 0.175646 0.211689 -0.280273
v 0.139515 -0.047147 -0.244344
v 0.085648 0.206098 -0.276674
vn -0.0618 0.9981 0.0043
vn -0.9080 -0.4191 0.0000
vn 0.1199 -0.9909 -0.0612
vn 0.0305 -0.9995 -0.0036
vn 0.0000 0.0000 -1.0000
vn 0.0105 0.0025 0.9999
vn -0.8795 -0.2109 0.4267
vn -0.0128 0.0321 0.9994
vn 0.0209 0.0088 0.9997
vn 0.9905 -0.0136 -0.1365
vn 0.7953 0.6025 -0.0678
vn 0.9975 0.0109 -0.0694
vn -1.0000 0.0000 0.0000
vn -0.8376 0.0420 -0.5446
vn -0.8786 0.1886 0.4388
vn -0.8944 0.0000 0.4473
vn -0.8688 0.0645 0.4909
vn 0.0182 0.7972 0.6035
vn 0.4055 0.9130 0.0452
vn 0.0409 0.0012 -0.9992
vn 0.0184 0.0044 -0.9998
vn 0.1117 0.0041 -0.9937
vn 0.6913 0.6260 -0.3610
vn 0.3214 0.9464 0.0321
vn -0.9081 -0.3773 0.1815
vn 0.0000 -1.0000 0.0000
vn -0.8172 0.4094 0.4058
vn -0.1626 0.9781 0.1298
vn -0.0727 0.7404 -0.6682
usemtl Shape.18247
s off
f 14//1 15//1 17//1
f 3//2 2//2 10//2
f 6//3 4//3 10//3
f 4//4 7//4 10//4
f 2//5 9//5 10//5
f 7//6 4//6 11//6
f 3//7 7//7 11//7
f 8//8 5//8 11//8
f 4//9 8//9 11//9
f 4//10 6//10 12//10
f 1//11 8//11 12//11
f 8//12 4//12 12//12
f 2//13 3//13 13//13
f 9//14 2//14 13//14
f 5//15 9//15 13//15
f 3//16 11//16 13//16
f 11//17 5//17 13//17
f 5//18 8//18 14//18
f 8//19 1//19 14//19
f 6//20 10//20 15//20
f 10//21 9//21 15//21
f 12//22 6//22 15//22
f 1//23 12//23 15//23
f 14//24 1//24 15//24
f 7//25 3//25 16//25
f 3//2 10//2 16//2
f 10//26 7//26 16//26
f 9//27 5//27 17//27
f 5//28 14//28 17//28
f 15//29 9//29 17//29
