# Blender v2.79 (sub 0) OBJ File: ''
# www.blender.org
mtllib 1011_link_0_17.mtl
o Shape_IndexedFaceSet.017_Shape_IndexedFaceSet.15999
v 0.027006 0.457876 -0.396777
v 0.030464 0.278174 -0.369125
v -0.017927 0.457876 -0.369125
v 0.030464 0.457876 -0.369125
v 0.030464 0.285088 -0.393318
v -0.011012 0.457876 -0.396777
v -0.017927 0.281640 -0.393318
v -0.017927 0.281640 -0.369125
v -0.017927 0.457876 -0.393318
v 0.016637 0.402567 -0.396777
v 0.030464 0.457876 -0.393318
vn 1.0000 0.0000 0.0000
vn 0.0000 1.0000 -0.0000
vn 0.0000 0.0000 1.0000
vn 0.0684 -0.9593 -0.2741
vn -0.0714 -0.9974 0.0000
vn -1.0000 -0.0000 0.0000
vn -0.4474 -0.0000 -0.8943
vn 0.0960 -0.0180 -0.9952
vn 0.0000 0.0000 -1.0000
vn 0.0021 -0.0292 -0.9996
vn -0.0364 -0.0182 -0.9992
vn 0.7072 0.0000 -0.7070
usemtl Shape.16008
s off
f 4//1 5//1 11//1
f 1//2 3//2 4//2
f 3//3 2//3 4//3
f 4//1 2//1 5//1
f 3//2 1//2 6//2
f 5//4 2//4 7//4
f 2//3 3//3 8//3
f 7//5 2//5 8//5
f 3//6 7//6 8//6
f 3//2 6//2 9//2
f 7//6 3//6 9//6
f 6//7 7//7 9//7
f 1//8 5//8 10//8
f 6//9 1//9 10//9
f 5//10 7//10 10//10
f 7//11 6//11 10//11
f 1//2 4//2 11//2
f 5//12 1//12 11//12
