# Blender v2.79 (sub 0) OBJ File: ''
# www.blender.org
mtllib 1011_link_2_34.mtl
o Shape_IndexedFaceSet.034_Shape_IndexedFaceSet.18257
v 0.047934 -0.796268 -0.233569
v 0.195799 -0.717018 -0.170019
v 0.192874 -0.718572 -0.226328
v 0.037149 -0.715439 -0.228170
v 0.150280 -0.807056 -0.168905
v 0.187990 -0.793930 -0.231411
v 0.152304 -0.712981 -0.167170
v 0.042533 -0.774709 -0.212004
v 0.192829 -0.788844 -0.171133
v 0.191408 -0.716560 -0.232778
v 0.144896 -0.807056 -0.233569
v 0.144954 -0.745069 -0.162376
v 0.042533 -0.737007 -0.212004
v 0.037149 -0.715439 -0.233569
v 0.031765 -0.790887 -0.228170
v 0.180982 -0.802794 -0.215893
vn 0.2873 -0.8818 -0.3739
vn 0.9979 -0.0405 -0.0507
vn 0.9954 -0.0595 -0.0749
vn 0.8870 0.4581 -0.0587
vn 0.9708 -0.0470 -0.2353
vn 0.0925 0.9957 0.0008
vn -0.1106 -0.9938 0.0092
vn 0.0561 -0.0201 -0.9982
vn 0.0768 0.1301 0.9885
vn -0.4016 -0.1300 0.9065
vn 0.1604 -0.0219 0.9868
vn 0.0931 -0.0964 0.9910
vn -0.4198 0.4749 0.7734
vn -0.4103 0.2260 0.8835
vn -0.4361 0.0000 0.8999
vn -0.0213 0.9998 0.0000
vn 0.0075 0.9987 -0.0500
vn 0.0000 0.0000 -1.0000
vn 0.0052 0.0061 -1.0000
vn -0.2402 -0.9449 0.2225
vn -0.4457 -0.4667 0.7639
vn -0.9173 0.0655 0.3928
vn -0.8323 0.0000 0.5544
vn -0.9975 0.0712 0.0000
vn -0.3295 -0.0440 -0.9431
vn 0.3951 -0.9015 0.1764
vn 0.7765 -0.6300 -0.0092
vn 0.1222 -0.9925 -0.0102
usemtl Shape.18267
s off
f 11//1 6//1 16//1
f 3//2 2//2 9//2
f 6//3 3//3 9//3
f 2//4 3//4 10//4
f 3//5 6//5 10//5
f 7//6 2//6 10//6
f 5//7 1//7 11//7
f 10//8 6//8 11//8
f 2//9 7//9 12//9
f 8//10 5//10 12//10
f 9//11 2//11 12//11
f 5//12 9//12 12//12
f 7//13 4//13 13//13
f 12//14 7//14 13//14
f 8//15 12//15 13//15
f 4//16 7//16 14//16
f 7//17 10//17 14//17
f 11//18 1//18 14//18
f 10//19 11//19 14//19
f 1//20 5//20 15//20
f 5//21 8//21 15//21
f 13//22 4//22 15//22
f 8//23 13//23 15//23
f 4//24 14//24 15//24
f 14//25 1//25 15//25
f 9//26 5//26 16//26
f 6//27 9//27 16//27
f 5//28 11//28 16//28
