# Blender v2.79 (sub 0) OBJ File: ''
# www.blender.org
mtllib 102701_link_2_42.mtl
o Shape_IndexedFaceSet.042_Shape_IndexedFaceSet.10147
v 0.011668 0.809393 -0.409048
v 0.012398 0.803550 -0.437901
v 0.012033 0.804280 -0.437901
v 0.014224 0.809393 -0.434614
v 0.014224 0.803550 -0.409048
v 0.012033 0.803550 -0.410147
v 0.014224 0.809393 -0.409048
v 0.012033 0.809393 -0.437901
v 0.013494 0.803550 -0.434247
v 0.011668 0.805376 -0.437901
v 0.011668 0.805011 -0.409048
v 0.013494 0.806836 -0.437901
v 0.014224 0.805376 -0.422563
v 0.014224 0.808297 -0.434614
v 0.013494 0.809393 -0.437901
v 0.013128 0.803550 -0.437901
vn 0.9795 -0.1091 -0.1691
vn 0.0000 -1.0000 0.0000
vn -0.8944 -0.4472 -0.0118
vn 0.0000 1.0000 0.0000
vn 0.0000 0.0000 1.0000
vn 1.0000 0.0000 0.0000
vn 0.0000 0.0000 -1.0000
vn -0.9487 -0.3160 -0.0083
vn -0.9958 0.0905 -0.0126
vn -0.0001 0.0000 -1.0000
vn -0.3528 -0.6172 0.7033
vn -1.0000 0.0000 0.0000
vn -0.9707 -0.2402 -0.0030
vn 0.9774 -0.2096 -0.0283
vn 0.9872 -0.1547 -0.0375
vn 0.9762 0.0000 -0.2168
vn 0.9824 -0.1587 -0.0984
usemtl Shape.10156
s off
f 12//1 14//1 16//1
f 2//2 5//2 6//2
f 3//3 2//3 6//3
f 4//4 1//4 7//4
f 1//5 5//5 7//5
f 5//6 4//6 7//6
f 2//7 3//7 8//7
f 1//4 4//4 8//4
f 5//2 2//2 9//2
f 3//8 6//8 10//8
f 1//9 8//9 10//9
f 8//10 3//10 10//10
f 5//5 1//5 11//5
f 6//11 5//11 11//11
f 1//12 10//12 11//12
f 10//13 6//13 11//13
f 2//7 8//7 12//7
f 4//6 5//6 13//6
f 5//14 9//14 13//14
f 13//15 9//15 14//15
f 12//16 4//16 14//16
f 4//6 13//6 14//6
f 8//4 4//4 15//4
f 12//7 8//7 15//7
f 4//16 12//16 15//16
f 9//2 2//2 16//2
f 2//7 12//7 16//7
f 14//17 9//17 16//17
