# Blender v2.79 (sub 0) OBJ File: ''
# www.blender.org
mtllib 102701_link_2_21.mtl
o Shape_IndexedFaceSet.021_Shape_IndexedFaceSet.10126
v 0.028469 0.802090 -0.482455
v 0.036136 0.808662 -0.455067
v 0.036136 0.807931 -0.455067
v 0.036136 0.804646 -0.479167
v 0.028103 0.808662 -0.482455
v 0.028103 0.801725 -0.463838
v 0.036136 0.801725 -0.456532
v 0.028103 0.809393 -0.463471
v 0.036136 0.809028 -0.478072
v 0.036136 0.801725 -0.478072
v 0.028469 0.801360 -0.481727
v 0.035407 0.809393 -0.455437
v 0.035407 0.802455 -0.455798
v 0.031391 0.801360 -0.462376
v 0.028103 0.803185 -0.463104
v 0.033945 0.807566 -0.480632
v 0.028103 0.802820 -0.482824
v 0.033945 0.802820 -0.480632
v 0.032850 0.801360 -0.479537
v 0.033216 0.809028 -0.480265
v 0.036136 0.809393 -0.459088
v 0.029565 0.807931 -0.482455
v 0.028103 0.809393 -0.466392
v 0.028834 0.801360 -0.464199
v 0.035407 0.805011 -0.455437
v 0.028103 0.807566 -0.463104
v 0.035771 0.808662 -0.479167
vn 0.4091 0.4088 -0.8158
vn 1.0000 0.0000 0.0000
vn -1.0000 -0.0000 0.0000
vn -0.4525 0.0000 0.8918
vn -0.3882 -0.8168 0.4268
vn 0.5999 -0.1838 0.7786
vn -0.6844 -0.3275 0.6514
vn -0.5706 -0.5799 -0.5814
vn -0.9672 -0.2535 -0.0146
vn 0.6765 -0.2585 -0.6896
vn 0.3133 -0.6707 -0.6723
vn 0.5558 0.0000 -0.8313
vn 0.3368 -0.2848 -0.8975
vn 0.1104 -0.9939 0.0000
vn 0.0695 -0.9976 0.0059
vn 0.0000 -1.0000 0.0000
vn 0.3492 -0.7156 -0.6050
vn 0.3152 -0.7093 -0.6306
vn 0.6672 0.7328 0.1332
vn 0.0000 1.0000 0.0000
vn 0.0315 0.0630 -0.9975
vn 0.3842 0.0000 -0.9232
vn 0.3511 -0.0329 -0.9358
vn 0.2872 0.5744 -0.7666
vn 0.3805 0.3991 -0.8342
vn -0.0520 0.9976 -0.0454
vn 0.0155 0.9997 -0.0206
vn 0.0175 0.9997 -0.0192
vn -0.2916 -0.9012 0.3205
vn -0.4430 -0.8965 0.0092
vn -0.1040 -0.9838 0.1459
vn -0.4526 0.0000 0.8917
vn 0.0577 -0.1396 0.9885
vn -0.7240 0.0000 0.6898
vn -0.7087 -0.0987 0.6986
vn -0.7333 0.1339 0.6666
vn 0.9364 0.0851 -0.3406
vn 0.6046 0.0549 -0.7947
vn 0.2925 0.8734 -0.3894
usemtl Shape.10135
s off
f 16//1 20//1 27//1
f 2//2 3//2 4//2
f 4//2 3//2 7//2
f 5//3 6//3 8//3
f 2//2 4//2 9//2
f 4//2 7//2 10//2
f 3//4 2//4 12//4
f 6//5 7//5 13//5
f 7//6 3//6 13//6
f 8//3 6//3 15//3
f 6//7 13//7 15//7
f 6//3 5//3 17//3
f 1//8 11//8 17//8
f 11//9 6//9 17//9
f 4//10 10//10 18//10
f 11//11 1//11 18//11
f 16//12 4//12 18//12
f 1//13 17//13 18//13
f 10//14 7//14 19//14
f 7//15 14//15 19//15
f 14//16 11//16 19//16
f 18//17 10//17 19//17
f 11//18 18//18 19//18
f 2//2 9//2 21//2
f 12//19 2//19 21//19
f 8//20 12//20 21//20
f 17//21 5//21 22//21
f 16//22 18//22 22//22
f 18//23 17//23 22//23
f 5//24 20//24 22//24
f 20//25 16//25 22//25
f 5//3 8//3 23//3
f 20//26 5//26 23//26
f 9//27 20//27 23//27
f 21//28 9//28 23//28
f 8//20 21//20 23//20
f 7//29 6//29 24//29
f 6//30 11//30 24//30
f 14//31 7//31 24//31
f 11//16 14//16 24//16
f 3//32 12//32 25//32
f 13//33 3//33 25//33
f 12//34 15//34 25//34
f 15//35 13//35 25//35
f 12//36 8//36 26//36
f 8//3 15//3 26//3
f 15//34 12//34 26//34
f 9//37 4//37 27//37
f 4//38 16//38 27//38
f 20//39 9//39 27//39
