# Blender v2.79 (sub 0) OBJ File: ''
# www.blender.org
mtllib 102701_link_2_13.mtl
o Shape_IndexedFaceSet.013_Shape_IndexedFaceSet.10118
v 0.019338 0.814871 -0.415993
v 0.017512 0.809393 -0.449582
v 0.018973 0.809393 -0.449582
v 0.017512 0.809393 -0.415261
v 0.022624 0.813045 -0.415261
v 0.017877 0.814871 -0.449582
v 0.022624 0.814506 -0.449582
v 0.017512 0.813775 -0.415261
v 0.022624 0.813045 -0.449582
v 0.018973 0.809393 -0.415261
v 0.022624 0.814506 -0.415261
v 0.017877 0.814871 -0.415261
v 0.017512 0.813775 -0.449582
v 0.019338 0.814871 -0.449582
vn 0.0000 0.0000 -1.0000
vn 0.0000 -1.0000 0.0000
vn -1.0000 0.0000 0.0000
vn 0.0000 0.0000 1.0000
vn 0.7072 -0.7070 0.0000
vn 1.0000 0.0000 0.0000
vn 0.1104 0.9939 0.0000
vn 0.0000 1.0000 0.0000
vn -0.9488 0.3160 0.0000
vn 0.0758 0.9856 0.1513
usemtl Shape.10127
s off
f 7//1 6//1 14//1
f 2//2 3//2 4//2
f 3//1 2//1 6//1
f 3//1 6//1 7//1
f 2//3 4//3 8//3
f 4//4 5//4 8//4
f 5//5 3//5 9//5
f 7//6 5//6 9//6
f 3//1 7//1 9//1
f 4//2 3//2 10//2
f 5//4 4//4 10//4
f 3//5 5//5 10//5
f 7//7 1//7 11//7
f 5//6 7//6 11//6
f 8//4 5//4 11//4
f 8//4 11//4 12//4
f 1//8 6//8 12//8
f 6//9 8//9 12//9
f 11//10 1//10 12//10
f 6//1 2//1 13//1
f 2//3 8//3 13//3
f 8//9 6//9 13//9
f 6//8 1//8 14//8
f 1//7 7//7 14//7
