# Blender v2.79 (sub 0) OBJ File: ''
# www.blender.org
mtllib 102701_link_2_30.mtl
o Shape_IndexedFaceSet.030_Shape_IndexedFaceSet.10135
v -0.020106 0.809394 -0.452510
v -0.014263 0.813046 -0.457256
v -0.014263 0.809394 -0.457256
v -0.019741 0.813046 -0.445936
v -0.018645 0.813046 -0.455795
v -0.022298 0.809394 -0.445936
v -0.019741 0.809394 -0.445936
v -0.022298 0.813046 -0.446303
v -0.016821 0.809394 -0.458354
v -0.016821 0.813046 -0.458354
v -0.014263 0.809394 -0.458354
v -0.021932 0.813046 -0.448128
v -0.014263 0.813046 -0.458354
v -0.021932 0.809394 -0.448128
vn -0.9805 0.0000 -0.1966
vn 0.9001 0.0000 0.4356
vn 0.0000 1.0000 0.0000
vn 0.0000 -1.0000 -0.0000
vn 0.0000 0.0000 1.0000
vn -0.1414 0.0990 0.9850
vn -0.8680 -0.0916 -0.4879
vn -0.8143 0.0000 -0.5804
vn 0.0000 1.0000 -0.0001
vn 1.0000 0.0000 0.0000
vn 0.0000 0.0000 -1.0000
vn -0.9190 0.0133 -0.3940
vn -0.9862 -0.0165 -0.1647
vn -0.9231 0.0000 -0.3846
usemtl Shape.10144
s off
f 8//1 12//1 14//1
f 3//2 2//2 4//2
f 4//3 2//3 5//3
f 1//4 3//4 6//4
f 3//2 4//2 7//2
f 6//4 3//4 7//4
f 4//5 6//5 7//5
f 4//3 5//3 8//3
f 6//6 4//6 8//6
f 3//4 1//4 9//4
f 1//7 5//7 9//7
f 9//8 5//8 10//8
f 5//9 2//9 10//9
f 2//10 3//10 11//10
f 3//4 9//4 11//4
f 9//11 10//11 11//11
f 5//12 1//12 12//12
f 8//3 5//3 12//3
f 10//3 2//3 13//3
f 2//10 11//10 13//10
f 11//11 10//11 13//11
f 1//4 6//4 14//4
f 6//13 8//13 14//13
f 12//14 1//14 14//14
