# Blender v2.79 (sub 0) OBJ File: ''
# www.blender.org
mtllib 102701_link_2_18.mtl
o Shape_IndexedFaceSet.018_Shape_IndexedFaceSet.10123
v 0.011668 0.806106 -0.437901
v 0.014589 0.802089 -0.466018
v 0.013859 0.802455 -0.466018
v 0.013129 0.809393 -0.466018
v 0.014955 0.802820 -0.437901
v 0.013129 0.809393 -0.437901
v 0.011668 0.809393 -0.466018
v 0.013129 0.802455 -0.437901
v 0.011668 0.806106 -0.466018
v 0.014955 0.802820 -0.466018
v 0.012033 0.809393 -0.437901
v 0.013493 0.809027 -0.464923
v 0.012399 0.803551 -0.450687
v 0.014955 0.802089 -0.437901
v 0.013493 0.808662 -0.437901
v 0.011668 0.805376 -0.437901
v 0.012764 0.803551 -0.466018
v 0.011668 0.809393 -0.457254
vn 0.0000 1.0000 0.0000
vn 0.0000 0.0000 -1.0000
vn 0.0000 0.0000 1.0000
vn -0.4482 -0.8939 -0.0116
vn -1.0000 0.0000 0.0000
vn 0.7090 0.7052 0.0000
vn 0.9388 0.2608 -0.2249
vn 0.9734 0.2293 0.0000
vn -0.1965 -0.9805 0.0026
vn 0.8941 -0.4477 -0.0116
vn 1.0000 0.0000 0.0000
vn 0.8951 0.4457 0.0060
vn 0.9701 0.2428 0.0033
vn 0.0001 0.0000 1.0000
vn -0.8943 -0.4473 0.0127
vn -0.9471 -0.3210 -0.0083
vn -0.7073 -0.7067 -0.0184
vn -0.7271 -0.6863 -0.0173
vn -0.9188 -0.3941 -0.0219
vn -0.9937 0.1103 0.0187
usemtl Shape.10132
s off
f 11//1 7//1 18//1
f 2//2 3//2 4//2
f 1//3 5//3 6//3
f 4//2 3//2 7//2
f 6//1 4//1 7//1
f 3//4 2//4 8//4
f 5//3 1//3 8//3
f 1//5 7//5 9//5
f 7//2 3//2 9//2
f 2//2 4//2 10//2
f 1//3 6//3 11//3
f 6//1 7//1 11//1
f 4//6 6//6 12//6
f 10//7 4//7 12//7
f 5//8 10//8 12//8
f 8//9 2//9 14//9
f 5//3 8//3 14//3
f 2//10 10//10 14//10
f 10//11 5//11 14//11
f 6//3 5//3 15//3
f 12//12 6//12 15//12
f 5//13 12//13 15//13
f 8//14 1//14 16//14
f 1//5 9//5 16//5
f 13//15 8//15 16//15
f 9//16 13//16 16//16
f 3//17 8//17 17//17
f 9//2 3//2 17//2
f 8//18 13//18 17//18
f 13//19 9//19 17//19
f 7//5 1//5 18//5
f 1//20 11//20 18//20
