# Blender v2.79 (sub 0) OBJ File: ''
# www.blender.org
mtllib 102701_link_3_2.mtl
o Shape_IndexedFaceSet.002_Shape_IndexedFaceSet.15106
v 0.089824 -0.516123 -0.488218
v 0.073695 0.017402 -0.240058
v 0.110903 -0.164351 -0.334382
v 0.107163 -0.590257 -0.238188
v -0.115350 -0.596468 -0.268412
v -0.065687 0.028632 -0.451570
v -0.094356 -0.450549 -0.503337
v -0.063901 0.020749 -0.238407
v 0.104279 -0.222224 -0.509973
v 0.076428 0.029457 -0.451735
v -0.100316 -0.179010 -0.487247
v -0.088945 -0.567256 -0.460585
v 0.125441 -0.595334 -0.277134
v -0.087871 -0.588324 -0.239142
v -0.078762 -0.266343 -0.524169
v -0.101554 -0.236669 -0.252723
v 0.106264 -0.565129 -0.452540
v 0.090132 -0.376693 -0.525488
v -0.101318 -0.141206 -0.370629
v 0.110994 -0.237157 -0.254113
v 0.110810 -0.171725 -0.479939
v 0.111590 -0.434781 -0.495270
v -0.072317 -0.458209 -0.510880
v 0.090236 -0.229147 -0.518242
v -0.101450 -0.486876 -0.480947
v -0.079446 -0.383957 -0.525270
v 0.099859 -0.568343 -0.460860
v -0.106437 -0.594864 -0.244218
v 0.111370 -0.149208 -0.443825
v -0.100591 -0.229812 -0.502097
v -0.101262 -0.141281 -0.444043
v -0.080387 -0.519174 -0.489525
v -0.027194 -0.014003 -0.464707
v 0.090126 -0.273535 -0.525478
v 0.097226 -0.450036 -0.510338
v -0.078954 -0.229623 -0.517130
v -0.101030 -0.559433 -0.443923
v 0.110773 -0.149969 -0.356268
v 0.111051 -0.251807 -0.502023
vn 0.7967 -0.0199 -0.6041
vn 0.0121 0.0037 0.9999
vn 0.0250 0.9981 0.0572
vn -0.0058 0.9993 0.0370
vn -0.0049 -0.0010 1.0000
vn -0.9770 0.2126 0.0160
vn -0.9989 0.0371 0.0280
vn -0.9844 0.1379 0.1097
vn 0.9828 0.1372 0.1233
vn 0.5372 0.0322 0.8428
vn 0.9987 0.0381 0.0335
vn 0.9057 0.0093 0.4238
vn 0.8150 0.2147 -0.5383
vn 0.9893 -0.0804 -0.1220
vn 0.3976 0.2484 -0.8833
vn -0.3814 -0.2110 -0.9000
vn 0.0069 -0.1896 -0.9818
vn -0.0059 -0.9885 -0.1511
vn -0.0006 -0.9894 -0.1453
vn 0.6329 -0.7485 -0.1981
vn 0.8123 -0.2114 -0.5436
vn 0.0175 -0.9904 0.1373
vn 0.0070 -0.9980 0.0636
vn -0.0098 -0.5955 0.8033
vn -0.2668 0.0093 0.9637
vn -0.9386 0.0210 0.3444
vn -0.5132 0.0274 0.8578
vn 0.9741 0.1847 -0.1303
vn 0.9994 0.0209 -0.0285
vn -0.9992 0.0164 -0.0374
vn -0.5821 0.2310 -0.7796
vn -0.9978 -0.0021 -0.0664
vn -0.9408 -0.0247 -0.3381
vn -0.7988 -0.0192 -0.6013
vn -0.7020 0.0107 -0.7121
vn -0.9992 0.0168 -0.0366
vn -0.9626 0.1931 -0.1897
vn -0.9788 0.2049 -0.0010
vn -0.9995 0.0306 -0.0008
vn 0.0132 -0.3321 -0.9431
vn -0.3918 -0.2575 -0.8833
vn -0.6932 -0.2752 -0.6661
vn -0.6944 -0.2763 -0.6645
vn 0.0151 -0.4617 -0.8869
vn -0.0042 -0.5151 -0.8571
vn -0.0028 0.2921 -0.9564
vn 0.0164 0.2499 -0.9681
vn 0.7384 0.0001 -0.6744
vn 0.4490 0.1427 -0.8820
vn -0.0008 0.1609 -0.9870
vn -0.0073 0.0094 -0.9999
vn -0.0013 0.0001 -1.0000
vn 0.7532 -0.0624 -0.6548
vn 0.0184 -0.3192 -0.9475
vn 0.0128 -0.2011 -0.9795
vn 0.4995 -0.3248 -0.8031
vn 0.8058 -0.2131 -0.5524
vn -0.0070 0.1882 -0.9821
vn -0.5565 0.2312 -0.7980
vn -0.5648 0.1525 -0.8110
vn -0.0550 0.2483 -0.9671
vn -0.0071 0.2378 -0.9713
vn -0.7118 -0.6733 -0.2001
vn -0.9943 -0.0528 -0.0923
vn -0.8357 -0.2534 -0.4872
vn 0.9838 0.1524 0.0943
vn 0.9794 0.2003 0.0241
vn 0.9992 0.0361 0.0178
vn 0.9813 0.1923 0.0084
vn 0.9994 0.0342 0.0071
vn 0.7551 -0.0033 -0.6556
vn 0.9183 0.1078 -0.3810
vn 0.9990 0.0145 -0.0417
vn 0.9980 0.0006 -0.0629
usemtl Shape.15114
s off
f 22//1 18//1 39//1
f 4//2 2//2 8//2
f 8//3 2//3 10//3
f 6//4 8//4 10//4
f 4//5 8//5 14//5
f 8//6 6//6 19//6
f 5//7 16//7 19//7
f 16//8 8//8 19//8
f 3//9 2//9 20//9
f 2//10 4//10 20//10
f 13//11 3//11 20//11
f 4//12 13//12 20//12
f 9//13 10//13 21//13
f 13//14 17//14 22//14
f 10//15 9//15 24//15
f 23//16 7//16 26//16
f 18//17 23//17 26//17
f 5//18 12//18 27//18
f 13//19 5//19 27//19
f 17//20 13//20 27//20
f 22//21 17//21 27//21
f 13//22 4//22 28//22
f 5//23 13//23 28//23
f 4//24 14//24 28//24
f 14//25 8//25 28//25
f 16//26 5//26 28//26
f 8//27 16//27 28//27
f 21//28 10//28 29//28
f 13//29 21//29 29//29
f 5//30 11//30 30//30
f 11//31 6//31 30//31
f 25//32 5//32 30//32
f 7//33 25//33 30//33
f 26//34 7//34 30//34
f 15//35 26//35 30//35
f 11//36 5//36 31//36
f 6//37 11//37 31//37
f 19//38 6//38 31//38
f 5//39 19//39 31//39
f 23//40 1//40 32//40
f 7//41 23//41 32//41
f 25//42 7//42 32//42
f 12//43 25//43 32//43
f 1//44 27//44 32//44
f 27//45 12//45 32//45
f 6//46 10//46 33//46
f 10//47 24//47 33//47
f 9//48 18//48 34//48
f 24//49 9//49 34//49
f 15//50 24//50 34//50
f 26//51 15//51 34//51
f 18//52 26//52 34//52
f 18//53 22//53 35//53
f 1//54 23//54 35//54
f 23//55 18//55 35//55
f 27//56 1//56 35//56
f 22//57 27//57 35//57
f 24//58 15//58 36//58
f 30//59 6//59 36//59
f 15//60 30//60 36//60
f 6//61 33//61 36//61
f 33//62 24//62 36//62
f 12//63 5//63 37//63
f 5//64 25//64 37//64
f 25//65 12//65 37//65
f 2//66 3//66 38//66
f 10//67 2//67 38//67
f 3//68 13//68 38//68
f 29//69 10//69 38//69
f 13//70 29//70 38//70
f 18//71 9//71 39//71
f 9//72 21//72 39//72
f 21//73 13//73 39//73
f 13//74 22//74 39//74
