# Blender v2.79 (sub 0) OBJ File: ''
# www.blender.org
mtllib 102701_link_2_22.mtl
o Shape_IndexedFaceSet.022_Shape_IndexedFaceSet.10127
v 0.040886 0.803916 -0.475516
v 0.045999 0.808663 -0.437901
v 0.045268 0.809028 -0.441557
v 0.036138 0.801725 -0.455800
v 0.036138 0.809393 -0.458714
v 0.045999 0.801725 -0.445209
v 0.045999 0.808663 -0.467848
v 0.036504 0.809028 -0.478070
v 0.040886 0.803185 -0.437901
v 0.045999 0.801725 -0.469674
v 0.036138 0.801725 -0.477710
v 0.040886 0.809393 -0.437901
v 0.045999 0.802090 -0.437901
v 0.038695 0.801360 -0.452516
v 0.044172 0.808663 -0.472597
v 0.036138 0.809393 -0.454702
v 0.040886 0.801360 -0.474054
v 0.041980 0.809393 -0.448128
v 0.041980 0.801725 -0.441921
v 0.036504 0.807931 -0.478807
v 0.036870 0.801360 -0.475884
v 0.043442 0.802820 -0.473325
v 0.036504 0.803185 -0.478807
v 0.036138 0.803185 -0.454702
v 0.041250 0.802455 -0.438274
v 0.043077 0.809393 -0.437901
v 0.045999 0.803916 -0.470038
v 0.040156 0.801360 -0.451419
v 0.042346 0.802090 -0.474054
v 0.036138 0.802455 -0.478434
v 0.037234 0.809028 -0.477345
vn 0.0321 0.9993 -0.0177
vn 0.4467 0.8947 0.0000
vn 1.0000 0.0000 0.0000
vn -1.0000 0.0000 0.0000
vn -0.0000 0.0000 1.0000
vn 0.0000 1.0000 0.0000
vn -0.9623 0.0000 0.2720
vn 0.0712 -0.9975 0.0000
vn 0.0408 -0.9979 0.0498
vn -0.2944 -0.9476 0.1239
vn 0.6261 0.0453 -0.7784
vn 0.5263 0.4742 -0.7058
vn -0.4462 -0.8949 0.0000
vn -0.1567 -0.9876 0.0122
vn 0.1076 -0.9657 -0.2362
vn 0.0000 -1.0000 -0.0000
vn 0.6539 0.0126 -0.7565
vn 0.6005 0.0000 -0.7996
vn -0.9428 -0.2004 0.2665
vn -0.9623 0.0000 0.2719
vn -0.8059 -0.5333 0.2572
vn -0.1058 -0.4938 0.8631
vn -0.3042 -0.9439 0.1281
vn -0.0893 -0.9799 0.1783
vn 0.2421 0.9691 0.0483
vn 0.1487 0.9888 -0.0096
vn 0.1182 0.9929 -0.0127
vn 0.9208 0.1634 -0.3542
vn 0.7928 -0.0232 -0.6090
vn 0.8011 -0.0981 -0.5905
vn 0.0603 -0.9982 0.0020
vn 0.0271 -0.9991 0.0332
vn -0.0337 -0.9984 0.0448
vn 0.4082 -0.8164 -0.4085
vn 0.3715 -0.7431 -0.5566
vn 0.6102 -0.1369 -0.7803
vn 0.6796 -0.4194 -0.6018
vn 0.6094 -0.1379 -0.7808
vn 0.4490 -0.5748 -0.6841
vn -0.9982 0.0567 -0.0199
vn -0.9941 0.0603 -0.0898
vn -0.7137 0.0000 -0.7004
vn 0.4176 -0.6398 -0.6452
vn 0.0184 0.9997 -0.0185
vn 0.1645 0.9724 -0.1657
vn 0.0712 0.9971 -0.0274
vn 0.0668 0.9975 -0.0233
usemtl Shape.10136
s off
f 5//1 18//1 31//1
f 3//2 2//2 7//2
f 2//3 6//3 7//3
f 7//3 6//3 10//3
f 4//4 5//4 11//4
f 9//5 2//5 12//5
f 6//3 2//3 13//3
f 2//5 9//5 13//5
f 5//4 4//4 16//4
f 12//6 5//6 16//6
f 9//7 12//7 16//7
f 10//8 6//8 17//8
f 5//6 12//6 18//6
f 6//9 13//9 19//9
f 4//10 14//10 19//10
f 15//11 1//11 20//11
f 8//12 15//12 20//12
f 4//13 11//13 21//13
f 14//14 4//14 21//14
f 11//15 17//15 21//15
f 17//16 14//16 21//16
f 1//17 15//17 22//17
f 20//18 1//18 23//18
f 4//19 9//19 24//19
f 16//4 4//4 24//4
f 9//20 16//20 24//20
f 9//21 4//21 25//21
f 13//22 9//22 25//22
f 4//23 19//23 25//23
f 19//24 13//24 25//24
f 2//25 3//25 26//25
f 3//26 7//26 26//26
f 12//5 2//5 26//5
f 7//27 18//27 26//27
f 18//6 12//6 26//6
f 7//3 10//3 27//3
f 15//28 7//28 27//28
f 22//29 15//29 27//29
f 10//30 22//30 27//30
f 17//31 6//31 28//31
f 14//16 17//16 28//16
f 6//32 19//32 28//32
f 19//33 14//33 28//33
f 10//34 17//34 29//34
f 17//35 11//35 29//35
f 1//36 22//36 29//36
f 22//37 10//37 29//37
f 23//38 1//38 29//38
f 23//39 29//39 30//39
f 5//40 8//40 30//40
f 11//4 5//4 30//4
f 8//41 20//41 30//41
f 20//42 23//42 30//42
f 29//43 11//43 30//43
f 8//44 5//44 31//44
f 15//45 8//45 31//45
f 7//46 15//46 31//46
f 18//47 7//47 31//47
