# Blender v2.79 (sub 0) OBJ File: ''
# www.blender.org
mtllib 102701_link_2_33.mtl
o Shape_IndexedFaceSet.033_Shape_IndexedFaceSet.10138
v 0.009111 0.813046 -0.438626
v 0.011668 0.814507 -0.409417
v 0.002902 0.814507 -0.409417
v 0.004363 0.814507 -0.445936
v 0.002902 0.813046 -0.409417
v 0.011668 0.814507 -0.445936
v 0.011668 0.813046 -0.409417
v 0.002902 0.813411 -0.440817
v 0.011668 0.813046 -0.440088
v 0.002902 0.814141 -0.445936
v 0.011668 0.813776 -0.445936
v 0.005825 0.813411 -0.443373
v 0.002902 0.814507 -0.444471
v 0.004729 0.813046 -0.423298
vn -0.0880 -0.9961 -0.0116
vn 0.0000 1.0000 0.0000
vn 0.0000 0.0000 1.0000
vn 0.0000 -1.0000 0.0000
vn 1.0000 0.0000 0.0000
vn -1.0000 0.0000 0.0000
vn 0.0000 0.0000 -1.0000
vn -0.0418 -0.9980 -0.0478
vn -0.0314 -0.9980 -0.0550
vn -0.1225 -0.9825 -0.1401
vn -0.0405 -0.9722 -0.2308
vn 0.0077 -0.9923 -0.1239
vn -0.2362 0.9427 -0.2355
vn -0.0533 -0.9985 -0.0152
usemtl Shape.10147
s off
f 5//1 8//1 14//1
f 3//2 2//2 4//2
f 2//3 3//3 5//3
f 4//2 2//2 6//2
f 5//4 1//4 7//4
f 2//3 5//3 7//3
f 6//5 2//5 7//5
f 5//6 3//6 8//6
f 7//4 1//4 9//4
f 6//5 7//5 9//5
f 4//7 6//7 10//7
f 8//6 3//6 10//6
f 10//7 6//7 11//7
f 6//5 9//5 11//5
f 1//8 8//8 12//8
f 9//9 1//9 12//9
f 8//10 10//10 12//10
f 10//11 11//11 12//11
f 11//12 9//12 12//12
f 3//2 4//2 13//2
f 10//6 3//6 13//6
f 4//13 10//13 13//13
f 1//4 5//4 14//4
f 8//14 1//14 14//14
