# Blender v2.79 (sub 0) OBJ File: ''
# www.blender.org
mtllib 102701_link_2_35.mtl
o Shape_IndexedFaceSet.035_Shape_IndexedFaceSet.10140
v 0.025548 0.812680 -0.468213
v 0.037232 0.812680 -0.453608
v 0.037232 0.809394 -0.453608
v 0.022626 0.809759 -0.466752
v 0.034310 0.809394 -0.461639
v 0.037232 0.812680 -0.457990
v 0.022626 0.812680 -0.466752
v 0.022992 0.809394 -0.469309
v 0.032484 0.812680 -0.463465
v 0.027739 0.809394 -0.467117
v 0.037232 0.809394 -0.457990
v 0.036866 0.809394 -0.453608
v 0.022626 0.812680 -0.469309
v 0.036866 0.812680 -0.453608
v 0.022626 0.809394 -0.467117
v 0.027739 0.812680 -0.467117
vn 0.6099 0.0000 -0.7925
vn 0.0000 1.0000 0.0000
vn 1.0000 0.0000 0.0000
vn 0.0000 -1.0000 0.0000
vn 0.7543 0.0557 -0.6541
vn 0.4191 -0.0233 -0.9076
vn 0.6387 -0.0708 -0.7662
vn 0.7806 0.0000 -0.6251
vn 0.0000 0.0000 1.0000
vn -0.6783 0.0000 0.7348
vn -1.0000 0.0000 0.0000
vn 0.3509 0.0391 -0.9356
vn -0.5571 -0.5873 0.5871
vn -0.9804 -0.1092 -0.1637
vn 0.4474 0.0000 -0.8943
usemtl Shape.10149
s off
f 9//1 10//1 16//1
f 1//2 2//2 6//2
f 2//3 3//3 6//3
f 2//2 1//2 7//2
f 5//4 3//4 8//4
f 6//5 5//5 9//5
f 1//2 6//2 9//2
f 8//6 1//6 10//6
f 5//4 8//4 10//4
f 9//7 5//7 10//7
f 3//4 5//4 11//4
f 6//3 3//3 11//3
f 5//8 6//8 11//8
f 3//9 2//9 12//9
f 7//10 4//10 12//10
f 8//4 3//4 12//4
f 7//2 1//2 13//2
f 4//11 7//11 13//11
f 1//12 8//12 13//12
f 2//2 7//2 14//2
f 12//9 2//9 14//9
f 7//10 12//10 14//10
f 12//13 4//13 15//13
f 8//4 12//4 15//4
f 4//11 13//11 15//11
f 13//14 8//14 15//14
f 1//2 9//2 16//2
f 10//15 1//15 16//15
