# Blender v2.79 (sub 0) OBJ File: ''
# www.blender.org
mtllib 102701_link_2_20.mtl
o Shape_IndexedFaceSet.020_Shape_IndexedFaceSet.10125
v 0.020433 0.803185 -0.485381
v 0.028103 0.805740 -0.463467
v 0.028103 0.803185 -0.463467
v 0.028103 0.802455 -0.482822
v 0.027737 0.809027 -0.482093
v 0.020433 0.809393 -0.468216
v 0.020433 0.801724 -0.468216
v 0.020433 0.808662 -0.485012
v 0.028103 0.809393 -0.463836
v 0.028103 0.801724 -0.464201
v 0.020433 0.801724 -0.484647
v 0.028103 0.801724 -0.482093
v 0.028103 0.808297 -0.482822
v 0.020799 0.803916 -0.467120
v 0.023355 0.807932 -0.485012
v 0.023355 0.809027 -0.484285
v 0.023355 0.802820 -0.485012
v 0.021529 0.809393 -0.467120
v 0.027737 0.805740 -0.463467
v 0.028103 0.809393 -0.466756
v 0.027007 0.805012 -0.483553
v 0.021164 0.802455 -0.467120
v 0.020433 0.809393 -0.470042
vn 0.0101 0.9997 -0.0236
vn 1.0000 0.0000 0.0000
vn -1.0000 0.0000 0.0000
vn 0.0000 -1.0000 0.0000
vn -0.9485 0.0000 0.3167
vn 0.0168 0.0672 -0.9976
vn 0.3234 0.5234 -0.7883
vn 0.2983 0.7451 -0.5964
vn 0.1369 0.5480 -0.8252
vn 0.0567 -0.4482 -0.8921
vn 0.2627 -0.6813 -0.6832
vn 0.2065 -0.7569 -0.6200
vn 0.1253 0.0000 -0.9921
vn 0.0000 1.0000 0.0000
vn -0.7040 0.0938 0.7040
vn -0.4780 0.0637 0.8760
vn 0.0000 0.0000 1.0000
vn 0.0000 0.1005 0.9949
vn -0.4515 -0.0647 0.8899
vn -0.4429 0.1339 0.8865
vn 0.8802 0.4735 -0.0323
vn 0.0121 0.9996 -0.0241
vn 0.5548 0.0000 -0.8320
vn 0.4139 0.0640 -0.9081
vn 0.4122 -0.0827 -0.9073
vn 0.3710 0.0000 -0.9286
vn -0.3897 -0.4134 0.8229
vn -0.3508 -0.6540 0.6702
vn -0.4535 -0.1133 0.8840
vn -0.7544 -0.1885 0.6288
vn -0.1119 0.9925 -0.0485
usemtl Shape.10134
s off
f 20//1 16//1 23//1
f 2//2 3//2 4//2
f 6//3 1//3 7//3
f 1//3 6//3 8//3
f 2//2 4//2 9//2
f 4//2 3//2 10//2
f 10//4 7//4 11//4
f 7//3 1//3 11//3
f 4//2 10//2 12//2
f 10//4 11//4 12//4
f 9//2 4//2 13//2
f 6//5 7//5 14//5
f 1//6 8//6 15//6
f 13//7 15//7 16//7
f 5//8 13//8 16//8
f 15//9 8//9 16//9
f 11//10 1//10 17//10
f 4//11 12//11 17//11
f 12//12 11//12 17//12
f 1//13 15//13 17//13
f 9//14 6//14 18//14
f 6//15 14//15 18//15
f 18//16 14//16 19//16
f 3//17 2//17 19//17
f 2//18 9//18 19//18
f 14//19 3//19 19//19
f 9//20 18//20 19//20
f 6//14 9//14 20//14
f 13//21 5//21 20//21
f 9//2 13//2 20//2
f 5//22 16//22 20//22
f 13//23 4//23 21//23
f 15//24 13//24 21//24
f 4//25 17//25 21//25
f 17//26 15//26 21//26
f 10//27 3//27 22//27
f 7//28 10//28 22//28
f 3//29 14//29 22//29
f 14//30 7//30 22//30
f 8//3 6//3 23//3
f 16//31 8//31 23//31
f 6//14 20//14 23//14
