# Blender v2.79 (sub 0) OBJ File: ''
# www.blender.org
mtllib 102701_link_2_24.mtl
o Shape_IndexedFaceSet.024_Shape_IndexedFaceSet.10129
v 0.020433 0.809393 -0.409048
v 0.018607 0.801360 -0.436074
v 0.016781 0.801725 -0.437901
v 0.016781 0.802090 -0.409048
v 0.017512 0.809393 -0.437901
v 0.020433 0.802090 -0.409048
v 0.017512 0.809393 -0.409048
v 0.018972 0.809393 -0.437901
v 0.019337 0.801725 -0.435707
v 0.018607 0.801360 -0.409418
v 0.018972 0.801725 -0.437901
v 0.016781 0.802820 -0.437901
v 0.020433 0.809393 -0.410147
v 0.019337 0.801360 -0.423653
v 0.016781 0.801725 -0.412336
v 0.016781 0.802820 -0.409048
vn -0.9939 0.1105 0.0000
vn 0.0000 0.0000 1.0000
vn 0.0000 1.0000 0.0000
vn 0.0000 0.0000 -1.0000
vn -0.1960 -0.9806 0.0000
vn 0.0000 -0.4521 0.8920
vn 0.0000 -0.9806 -0.1958
vn 0.4774 -0.8751 -0.0794
vn 0.9864 0.0000 -0.1641
vn -1.0000 0.0000 0.0000
vn 1.0000 0.0000 0.0000
vn 0.9991 -0.0062 -0.0410
vn 0.9981 0.0325 -0.0525
vn 0.4578 -0.8886 -0.0269
vn 0.7303 -0.6828 -0.0207
vn 0.0000 -1.0000 0.0000
vn 0.3678 -0.9297 0.0189
vn -0.3511 -0.9306 0.1033
usemtl Shape.10138
s off
f 7//1 12//1 16//1
f 1//2 4//2 6//2
f 4//2 1//2 7//2
f 1//3 5//3 7//3
f 5//3 1//3 8//3
f 3//4 5//4 8//4
f 3//5 2//5 10//5
f 6//6 4//6 10//6
f 2//7 3//7 11//7
f 3//4 8//4 11//4
f 9//8 2//8 11//8
f 8//9 9//9 11//9
f 3//10 4//10 12//10
f 5//4 3//4 12//4
f 7//1 5//1 12//1
f 1//11 6//11 13//11
f 8//3 1//3 13//3
f 6//12 9//12 13//12
f 9//13 8//13 13//13
f 2//14 9//14 14//14
f 9//15 6//15 14//15
f 10//16 2//16 14//16
f 6//17 10//17 14//17
f 4//10 3//10 15//10
f 3//5 10//5 15//5
f 10//18 4//18 15//18
f 4//2 7//2 16//2
f 12//10 4//10 16//10
