# Blender v2.79 (sub 0) OBJ File: ''
# www.blender.org
mtllib 102701_link_3_6.mtl
o Shape_IndexedFaceSet.006_Shape_IndexedFaceSet.15110
v 0.321324 -0.009501 0.390251
v 0.112463 -0.228318 -0.019805
v 0.121449 0.137347 0.700295
v 0.119750 0.140138 -0.091759
v 0.122842 -0.181129 0.589877
v 0.308995 0.123424 0.069193
v 0.285080 -0.123379 0.176565
v 0.272724 0.132566 0.541384
v 0.243135 -0.038104 -0.054295
v 0.235542 -0.067319 0.603949
v 0.235349 -0.166239 0.404029
v 0.300653 -0.059828 0.065232
v 0.324458 0.132160 0.311370
v 0.121685 -0.045713 0.707031
v 0.228224 0.133132 -0.075766
v 0.329935 -0.016350 0.195327
v 0.220795 0.103366 0.646439
v 0.298171 -0.094048 0.381463
v 0.121474 -0.144868 -0.085295
v 0.155448 -0.205517 0.449684
v 0.228225 -0.182252 0.232266
v 0.235536 -0.140382 0.026502
v 0.278400 -0.023801 0.540915
v 0.199185 -0.139765 0.580141
v 0.316385 0.116159 0.428898
v 0.205726 -0.068106 -0.078832
v 0.280198 -0.023288 -0.007983
v 0.183060 -0.000480 0.680134
v 0.277364 -0.094263 0.473024
v 0.124919 -0.207854 0.510579
v 0.330449 0.115205 0.202002
v 0.138797 -0.105153 0.669063
v 0.329189 -0.009301 0.347490
v 0.121256 0.122351 0.716307
v 0.313027 -0.080459 0.212752
v 0.277540 -0.136734 0.325601
v 0.235463 -0.161099 0.087226
v 0.220789 -0.090255 -0.053818
v 0.250273 -0.001386 0.605462
v 0.279522 0.115820 0.545965
v 0.280409 0.118485 -0.009295
v 0.302761 0.133357 0.065468
v 0.191769 -0.198502 0.355196
v 0.308648 -0.008900 0.062885
v 0.192281 -0.167504 0.534352
v 0.330404 0.115138 0.340528
v 0.220731 0.134647 0.626744
v 0.271765 -0.103423 0.042871
v 0.307190 -0.016607 0.455078
v 0.220715 -0.030580 -0.080093
v 0.249430 -0.137074 0.467085
v 0.206109 -0.074969 0.635920
v 0.235625 0.021053 -0.073271
v 0.121230 -0.007540 0.716405
v 0.160371 0.120226 0.695881
v 0.265133 -0.075004 -0.006027
v 0.242438 -0.109212 0.546211
v 0.323173 -0.001632 0.136207
v 0.220809 -0.000987 0.645815
v 0.319842 -0.052162 0.339654
v 0.306281 -0.045166 0.439243
v 0.122508 -0.121150 0.666278
vn 0.5118 -0.6240 0.5905
vn -0.9998 0.0202 0.0022
vn -0.9889 -0.0093 -0.1480
vn 0.6547 0.7417 0.1459
vn -0.9860 -0.1641 0.0295
vn 0.1450 -0.9888 0.0347
vn 0.9834 -0.0170 0.1808
vn -0.9998 0.0170 0.0039
vn 0.8791 -0.4564 -0.1376
vn 0.9515 -0.2834 -0.1195
vn 0.6288 -0.7762 0.0463
vn 0.7058 -0.7079 -0.0277
vn 0.8403 -0.5421 -0.0061
vn 0.8787 -0.4758 0.0391
vn 0.5398 -0.8364 -0.0950
vn 0.6826 -0.7273 -0.0720
vn 0.6236 -0.7401 -0.2518
vn 0.5146 -0.5631 -0.6467
vn 0.6208 -0.6088 -0.4939
vn 0.6787 -0.2970 -0.6717
vn 0.4942 -0.4814 -0.7239
vn 0.8694 -0.2046 0.4499
vn 0.8630 0.4250 0.2730
vn 0.8602 0.0433 0.5081
vn 0.9137 -0.0220 0.4058
vn 0.0355 0.9994 0.0017
vn 0.0701 0.9968 -0.0386
vn 0.8598 0.4991 -0.1080
vn 0.7439 0.6654 -0.0624
vn 0.8495 0.4075 -0.3350
vn 0.6172 0.7156 -0.3269
vn 0.2498 -0.9680 0.0241
vn 0.4949 -0.8597 0.1264
vn 0.5540 -0.8307 0.0545
vn 0.3846 -0.9230 -0.0080
vn 0.9268 -0.1611 -0.3393
vn 0.9392 0.0139 -0.3430
vn 0.9283 -0.0048 -0.3717
vn 0.5074 -0.8468 0.1595
vn 0.4753 -0.7825 0.4024
vn 0.4096 -0.8612 0.3010
vn 0.4529 -0.8703 0.1937
vn 0.8470 0.5158 0.1284
vn 0.9438 0.3305 0.0005
vn 1.0000 -0.0039 0.0003
vn 0.9999 -0.0095 0.0053
vn 0.9876 -0.0009 0.1567
vn 0.0297 0.9996 0.0035
vn 0.0331 0.9994 0.0030
vn 0.0588 0.9982 0.0115
vn 0.7720 0.4391 0.4595
vn 0.7998 0.3210 0.5073
vn 0.8585 -0.4877 -0.1583
vn 0.7706 -0.6146 -0.1685
vn 0.7433 -0.6334 -0.2152
vn 0.9773 -0.0262 0.2102
vn 0.9538 -0.0068 0.3003
vn 0.9484 -0.0191 0.3165
vn 0.1471 0.0194 -0.9889
vn 0.0777 -0.0221 -0.9967
vn 0.6776 -0.2933 -0.6744
vn 0.1656 -0.0991 -0.9812
vn 0.8115 -0.5549 0.1831
vn 0.7328 -0.6651 0.1440
vn 0.7936 -0.5880 0.1563
vn 0.6354 -0.7451 0.2027
vn 0.6889 -0.5138 0.5113
vn 0.5555 -0.2905 0.7791
vn 0.5338 -0.3407 0.7739
vn 0.5542 -0.5763 0.6007
vn 0.7917 -0.0932 -0.6038
vn 0.7901 0.0386 -0.6118
vn 0.8238 -0.0065 -0.5668
vn 0.3990 0.0059 -0.9169
vn 0.7312 -0.1225 -0.6711
vn -0.9997 -0.0160 0.0167
vn 0.5127 -0.1990 0.8352
vn -0.9999 0.0002 0.0118
vn 0.4629 0.0006 0.8864
vn 0.6363 0.0190 0.7712
vn 0.3696 0.6760 0.6375
vn 0.3949 0.7676 0.5049
vn 0.6436 0.4088 0.6471
vn 0.5074 -0.0170 0.8616
vn 0.8832 -0.2717 -0.3824
vn 0.7933 -0.2520 -0.5542
vn 0.6934 -0.5472 -0.4688
vn 0.7429 -0.3237 -0.5860
vn 0.8545 -0.3904 -0.3428
vn 0.7352 -0.5380 -0.4124
vn 0.8697 -0.3443 0.3537
vn 0.7239 -0.5144 0.4597
vn 0.8723 -0.3459 0.3456
vn 0.6943 -0.6571 0.2934
vn 0.7905 -0.5525 0.2644
vn 0.6945 -0.6572 0.2928
vn 0.9703 -0.1842 -0.1568
vn 0.9871 0.0274 -0.1578
vn 0.9936 0.0019 -0.1132
vn 0.9711 -0.1606 -0.1765
vn 0.9808 0.0067 -0.1950
vn 0.6727 -0.0043 0.7399
vn 0.8076 -0.0034 0.5897
vn 0.7920 -0.1903 0.5801
vn 0.7427 -0.2316 0.6283
vn 0.6536 -0.2265 0.7222
vn 0.9764 -0.2156 0.0148
vn 0.9672 -0.2538 0.0047
vn 0.9051 -0.4227 0.0457
vn 0.8984 -0.3893 0.2032
vn 0.8969 -0.3137 0.3119
vn 0.9701 -0.1651 0.1777
vn 0.9705 -0.1397 0.1963
vn 0.9348 -0.1946 0.2972
vn 0.9604 -0.2364 0.1474
vn 0.9313 -0.3320 0.1501
vn -0.9994 -0.0302 0.0194
vn -0.9996 -0.0205 0.0178
vn 0.4504 -0.7013 0.5525
vn 0.2992 -0.4510 0.8409
usemtl Shape.15118
s off
f 24//1 32//1 62//1
f 2//2 3//2 4//2
f 2//3 4//3 19//3
f 13//4 8//4 25//4
f 5//5 2//5 30//5
f 2//6 20//6 30//6
f 25//7 1//7 33//7
f 3//8 2//8 34//8
f 7//9 12//9 35//9
f 12//10 16//10 35//10
f 11//11 21//11 36//11
f 21//12 7//12 36//12
f 7//13 35//13 36//13
f 35//14 18//14 36//14
f 21//15 2//15 37//15
f 7//16 21//16 37//16
f 2//17 22//17 37//17
f 2//18 19//18 38//18
f 22//19 2//19 38//19
f 26//20 9//20 38//20
f 19//21 26//21 38//21
f 10//22 23//22 39//22
f 25//23 8//23 40//23
f 17//24 39//24 40//24
f 39//25 23//25 40//25
f 4//26 13//26 42//26
f 15//27 4//27 42//27
f 31//28 6//28 42//28
f 13//29 31//29 42//29
f 6//30 41//30 42//30
f 41//31 15//31 42//31
f 20//32 2//32 43//32
f 11//33 20//33 43//33
f 21//34 11//34 43//34
f 2//35 21//35 43//35
f 12//36 27//36 44//36
f 41//37 6//37 44//37
f 27//38 41//38 44//38
f 20//39 11//39 45//39
f 24//40 5//40 45//40
f 5//41 30//41 45//41
f 30//42 20//42 45//42
f 13//43 25//43 46//43
f 31//44 13//44 46//44
f 16//45 31//45 46//45
f 33//46 16//46 46//46
f 25//47 33//47 46//47
f 4//48 3//48 47//48
f 13//49 4//49 47//49
f 8//50 13//50 47//50
f 40//51 8//51 47//51
f 17//52 40//52 47//52
f 12//53 7//53 48//53
f 7//54 37//54 48//54
f 37//55 22//55 48//55
f 1//56 25//56 49//56
f 25//57 40//57 49//57
f 40//58 23//58 49//58
f 4//59 15//59 50//59
f 19//60 4//60 50//60
f 9//61 26//61 50//61
f 26//62 19//62 50//62
f 18//63 29//63 51//63
f 11//64 36//64 51//64
f 36//65 18//65 51//65
f 45//66 11//66 51//66
f 24//67 10//67 52//67
f 28//68 14//68 52//68
f 14//69 32//69 52//69
f 32//70 24//70 52//70
f 27//71 9//71 53//71
f 15//72 41//72 53//72
f 41//73 27//73 53//73
f 50//74 15//74 53//74
f 9//75 50//75 53//75
f 2//76 14//76 54//76
f 14//77 28//77 54//77
f 34//78 2//78 54//78
f 34//79 54//79 55//79
f 28//80 17//80 55//80
f 3//81 34//81 55//81
f 47//82 3//82 55//82
f 17//83 47//83 55//83
f 54//84 28//84 55//84
f 27//85 12//85 56//85
f 9//86 27//86 56//86
f 22//87 38//87 56//87
f 38//88 9//88 56//88
f 12//89 48//89 56//89
f 48//90 22//90 56//90
f 23//91 10//91 57//91
f 10//92 24//92 57//92
f 29//93 23//93 57//93
f 24//94 45//94 57//94
f 51//95 29//95 57//95
f 45//96 51//96 57//96
f 16//97 12//97 58//97
f 6//98 31//98 58//98
f 31//99 16//99 58//99
f 12//100 44//100 58//100
f 44//101 6//101 58//101
f 17//102 28//102 59//102
f 39//103 17//103 59//103
f 10//104 39//104 59//104
f 52//105 10//105 59//105
f 28//106 52//106 59//106
f 16//107 33//107 60//107
f 35//108 16//108 60//108
f 18//109 35//109 60//109
f 29//110 18//110 61//110
f 23//111 29//111 61//111
f 33//112 1//112 61//112
f 1//113 49//113 61//113
f 49//114 23//114 61//114
f 60//115 33//115 61//115
f 18//116 60//116 61//116
f 2//117 5//117 62//117
f 14//118 2//118 62//118
f 5//119 24//119 62//119
f 32//120 14//120 62//120
