# Blender v2.79 (sub 0) OBJ File: ''
# www.blender.org
mtllib 102701_link_2_46.mtl
o Shape_IndexedFaceSet.046_Shape_IndexedFaceSet.10151
v -0.000022 0.812680 -0.407223
v -0.012071 0.811584 -0.414892
v -0.012071 0.813046 -0.414892
v 0.002901 0.813046 -0.409049
v 0.002901 0.809394 -0.409049
v -0.006957 0.809394 -0.410145
v -0.008783 0.809394 -0.414892
v -0.006957 0.813046 -0.410145
v -0.008783 0.813046 -0.414892
v 0.002901 0.809394 -0.407589
v -0.010244 0.809394 -0.412700
v -0.001848 0.809759 -0.407953
v 0.002901 0.813046 -0.407589
v -0.011339 0.813046 -0.413430
v -0.010974 0.809394 -0.414892
vn 0.0000 -1.0000 0.0000
vn 0.0000 0.0000 -1.0000
vn 0.4473 0.0000 -0.8944
vn 0.0000 1.0000 -0.0000
vn 0.0000 1.0000 0.0001
vn 1.0000 0.0000 0.0000
vn -0.3877 0.0120 0.9217
vn -0.3943 0.0000 0.9190
vn -0.0895 -0.1885 0.9780
vn -0.1001 -0.9171 0.3859
vn -0.0800 0.9478 0.3087
vn 0.1242 0.0000 0.9923
vn -0.8942 0.0000 0.4477
vn -0.5998 0.0000 0.8001
vn -0.8240 -0.1372 0.5497
vn -0.6135 -0.0262 0.7893
vn -0.8569 -0.4293 0.2854
usemtl Shape.10160
s off
f 7//1 11//1 15//1
f 2//2 3//2 7//2
f 4//3 5//3 7//3
f 5//1 6//1 7//1
f 4//4 3//4 8//4
f 3//5 4//5 9//5
f 7//2 3//2 9//2
f 4//3 7//3 9//3
f 5//6 4//6 10//6
f 6//1 5//1 10//1
f 7//1 6//1 11//1
f 1//7 8//7 12//7
f 8//8 6//8 12//8
f 10//9 1//9 12//9
f 6//10 10//10 12//10
f 4//4 8//4 13//4
f 8//11 1//11 13//11
f 1//12 10//12 13//12
f 10//6 4//6 13//6
f 3//13 2//13 14//13
f 8//5 3//5 14//5
f 6//14 8//14 14//14
f 2//15 11//15 14//15
f 11//16 6//16 14//16
f 2//2 7//2 15//2
f 11//17 2//17 15//17
