# Blender v2.79 (sub 0) OBJ File: ''
# www.blender.org
mtllib 1370_link_0_42.mtl
o Shape_IndexedFaceSet.042_Shape_IndexedFaceSet.3536
v 0.097461 0.398216 0.043235
v -0.009966 0.248588 0.031723
v 0.004098 0.360576 0.016697
v -0.008105 0.395713 0.069248
v 0.101306 0.286962 0.039398
v 0.001547 0.290799 0.066245
v 0.101306 0.398216 0.024048
v 0.093627 0.256263 0.020206
v 0.028406 0.398216 0.070082
v -0.009966 0.398216 0.047058
v 0.024572 0.248588 0.039398
v -0.009966 0.290799 0.066245
v 0.101306 0.306149 0.043235
v -0.009966 0.355990 0.020206
v 0.020738 0.260100 0.020206
v 0.101306 0.306149 0.020206
v 0.082115 0.248588 0.024048
vn -0.0221 -0.4208 -0.9069
vn 0.0000 1.0000 -0.0000
vn -0.1648 0.5812 -0.7969
vn -0.0706 0.9905 0.1177
vn 0.2182 -0.4362 0.8730
vn 0.0000 -0.0357 0.9994
vn -0.0209 -0.0282 0.9994
vn -1.0000 -0.0000 -0.0000
vn -0.9962 0.0152 0.0853
vn 0.0000 -0.5367 0.8438
vn -0.1695 -0.6239 0.7629
vn 0.2483 -0.1900 0.9499
vn 0.9797 0.0409 0.1963
vn 1.0000 0.0000 0.0000
vn 0.3623 0.0151 0.9319
vn 0.2375 -0.0939 0.9668
vn -0.3597 0.5007 -0.7874
vn -0.0019 -0.0352 -0.9994
vn -0.3159 -0.1012 -0.9434
vn -0.2198 -0.0704 -0.9730
vn 0.0593 0.0416 -0.9974
vn 0.9771 -0.1504 -0.1504
vn 0.0332 -0.0051 -0.9994
vn 0.5658 -0.5342 0.6281
vn 0.2291 -0.4581 0.8589
vn 0.0000 -1.0000 0.0000
vn -0.0656 -0.6128 -0.7875
usemtl Shape.3541
s off
f 15//1 8//1 17//1
f 1//2 7//2 9//2
f 9//2 7//2 10//2
f 7//3 3//3 10//3
f 4//4 9//4 10//4
f 5//5 6//5 11//5
f 6//6 9//6 12//6
f 9//7 4//7 12//7
f 10//8 2//8 12//8
f 4//9 10//9 12//9
f 11//10 6//10 12//10
f 2//11 11//11 12//11
f 6//12 5//12 13//12
f 7//13 1//13 13//13
f 5//14 7//14 13//14
f 1//15 9//15 13//15
f 9//16 6//16 13//16
f 2//8 10//8 14//8
f 10//17 3//17 14//17
f 3//18 8//18 15//18
f 2//19 14//19 15//19
f 14//20 3//20 15//20
f 3//21 7//21 16//21
f 7//14 5//14 16//14
f 5//22 8//22 16//22
f 8//23 3//23 16//23
f 8//24 5//24 17//24
f 5//25 11//25 17//25
f 11//26 2//26 17//26
f 2//27 15//27 17//27
