# Blender v2.79 (sub 0) OBJ File: ''
# www.blender.org
mtllib 1370_link_0_12.mtl
o Shape_IndexedFaceSet.012_Shape_IndexedFaceSet.3506
v -0.082857 0.563211 0.822134
v 0.032220 0.605409 0.802954
v 0.032220 0.605409 0.795278
v 0.047588 0.563211 0.825971
v -0.091682 0.561311 0.793723
v -0.059835 0.597735 0.818294
v 0.047588 0.563211 0.806794
v -0.105863 0.582393 0.795278
v 0.016883 0.590064 0.829811
v 0.047588 0.582393 0.795278
v 0.047588 0.597735 0.818294
v -0.079007 0.593897 0.795278
v 0.009214 0.605409 0.818294
v -0.102029 0.578556 0.814457
v -0.059835 0.582393 0.825971
v 0.028401 0.563211 0.829811
vn -0.0479 -0.0206 0.9986
vn 0.0136 -0.9999 0.0000
vn 0.0101 0.0068 -0.9999
vn 1.0000 0.0000 0.0000
vn 0.0872 -0.5128 -0.8541
vn 0.4468 0.8947 0.0000
vn 0.2978 0.2072 0.9319
vn 0.7799 0.5208 -0.3471
vn -0.0051 0.0497 -0.9988
vn -0.0245 0.0572 -0.9981
vn -0.3879 0.9055 0.1721
vn 0.0000 1.0000 0.0000
vn -0.0643 0.5783 0.8133
vn 0.1881 0.9407 0.2821
vn 0.1270 0.6352 0.7618
vn -0.1024 0.9895 -0.1024
vn -0.1102 0.9912 -0.0735
vn -0.6643 -0.7032 0.2534
vn -0.8267 -0.5600 0.0532
vn -0.4191 0.8705 0.2579
vn -0.0892 0.4457 0.8907
vn -0.2723 0.1363 0.9525
vn -0.2738 0.4304 0.8601
vn -0.0047 -0.9977 0.0682
vn 0.0063 -0.9995 0.0316
vn 0.1956 0.0839 0.9771
vn -0.0684 -0.1161 0.9909
usemtl Shape.3511
s off
f 9//1 15//1 16//1
f 4//2 5//2 7//2
f 5//3 3//3 10//3
f 4//4 7//4 10//4
f 7//5 5//5 10//5
f 3//6 2//6 11//6
f 9//7 4//7 11//7
f 10//8 3//8 11//8
f 4//4 10//4 11//4
f 3//9 5//9 12//9
f 5//10 8//10 12//10
f 8//11 6//11 12//11
f 2//12 3//12 13//12
f 6//13 9//13 13//13
f 11//14 2//14 13//14
f 9//15 11//15 13//15
f 3//16 12//16 13//16
f 12//17 6//17 13//17
f 5//18 1//18 14//18
f 8//19 5//19 14//19
f 6//20 8//20 14//20
f 9//21 6//21 15//21
f 14//22 1//22 15//22
f 6//23 14//23 15//23
f 1//24 5//24 16//24
f 5//25 4//25 16//25
f 4//26 9//26 16//26
f 15//27 1//27 16//27
