# Blender v2.79 (sub 0) OBJ File: ''
# www.blender.org
mtllib 1370_link_1_12.mtl
o Shape_IndexedFaceSet.012_Shape_IndexedFaceSet.7763
v 0.024535 -0.166482 -0.619691
v 0.035456 -0.279756 -0.537780
v 0.035456 -0.293421 -0.537780
v 0.020438 -0.296153 -0.544618
v 0.031357 -0.133688 -0.612862
v 0.035456 -0.274307 -0.561008
v 0.035456 -0.133688 -0.623788
v 0.020438 -0.133688 -0.623788
v 0.020438 -0.272933 -0.573291
v 0.028628 -0.286597 -0.537780
v 0.020438 -0.137812 -0.633349
v 0.027265 -0.275665 -0.569193
v 0.035456 -0.140545 -0.607408
v 0.023169 -0.297512 -0.552813
v 0.020438 -0.290688 -0.544618
v 0.027265 -0.137812 -0.630617
v 0.035456 -0.233347 -0.580120
v 0.032723 -0.281131 -0.537780
v 0.035456 -0.285222 -0.551447
v 0.024535 -0.133688 -0.633349
v 0.023169 -0.253819 -0.581486
v 0.023169 -0.289313 -0.541887
v 0.021804 -0.296153 -0.555545
v 0.024535 -0.282489 -0.566462
vn -0.1056 -0.6077 -0.7871
vn 1.0000 0.0000 0.0000
vn 0.0000 1.0000 0.0000
vn -1.0000 0.0000 0.0000
vn 0.0000 0.0000 1.0000
vn -0.3382 -0.3384 0.8781
vn -0.6656 0.3385 0.6652
vn 0.7172 0.6428 0.2691
vn 0.0903 -0.9772 0.1921
vn 0.3462 -0.3627 -0.8652
vn 0.5260 -0.3461 -0.7768
vn 0.6624 -0.3049 -0.6843
vn 0.6983 -0.3027 -0.6486
vn 0.6947 -0.2887 -0.6589
vn -0.5144 0.3854 0.7661
vn -0.2196 0.4364 0.8725
vn -0.3982 0.4133 0.8189
vn 0.6750 -0.6327 -0.3795
vn -0.6788 0.6743 -0.2909
vn 0.3485 -0.3463 -0.8710
vn 0.6574 -0.0623 -0.7509
vn 0.2192 -0.3939 -0.8926
vn 0.1001 -0.4041 -0.9092
vn 0.4906 -0.3557 -0.7955
vn 0.3426 -0.4111 -0.8448
vn -0.5655 -0.1010 0.8185
vn -0.6674 0.3376 0.6638
vn -0.7071 0.0000 0.7071
vn -0.7458 0.2999 0.5948
vn -0.9808 -0.1514 -0.1226
vn -0.6211 -0.7799 -0.0776
vn 0.5796 -0.5762 -0.5762
vn 0.6549 -0.4917 -0.5739
vn 0.3152 -0.4586 -0.8308
vn 0.6561 -0.4973 -0.5677
vn 0.6195 -0.5580 -0.5522
usemtl Shape.7773
s off
f 23//1 9//1 24//1
f 2//2 3//2 6//2
f 2//2 6//2 7//2
f 5//3 7//3 8//3
f 4//4 8//4 9//4
f 3//5 2//5 10//5
f 4//6 3//6 10//6
f 5//7 8//7 10//7
f 9//4 8//4 11//4
f 7//8 5//8 13//8
f 2//2 7//2 13//2
f 3//9 4//9 14//9
f 8//4 4//4 15//4
f 1//10 11//10 16//10
f 12//11 1//11 16//11
f 12//12 16//12 17//12
f 7//2 6//2 17//2
f 6//13 12//13 17//13
f 16//14 7//14 17//14
f 10//5 2//5 18//5
f 5//15 10//15 18//15
f 2//16 13//16 18//16
f 13//17 5//17 18//17
f 6//2 3//2 19//2
f 3//18 14//18 19//18
f 8//3 7//3 20//3
f 11//19 8//19 20//19
f 16//20 11//20 20//20
f 7//21 16//21 20//21
f 11//22 1//22 21//22
f 9//23 11//23 21//23
f 1//24 12//24 21//24
f 12//25 9//25 21//25
f 4//26 10//26 22//26
f 10//27 8//27 22//27
f 15//28 4//28 22//28
f 8//29 15//29 22//29
f 4//30 9//30 23//30
f 14//31 4//31 23//31
f 14//32 23//32 24//32
f 12//33 6//33 24//33
f 9//34 12//34 24//34
f 6//35 19//35 24//35
f 19//36 14//36 24//36
