# Blender v2.79 (sub 0) OBJ File: ''
# www.blender.org
mtllib 1370_link_2_61.mtl
o Shape_IndexedFaceSet.061_Shape_IndexedFaceSet.8660
v -0.112841 0.005485 0.596188
v -0.167937 -0.049610 0.450983
v -0.167937 -0.044600 0.115372
v -0.102821 -0.019548 0.140423
v -0.105403 0.018382 0.103571
v -0.167937 -0.019548 0.601238
v -0.102821 -0.014557 0.631340
v -0.167937 -0.019548 0.115372
v -0.157911 -0.044600 0.631340
v -0.102821 0.005485 0.631340
v -0.100638 0.017695 0.108800
v -0.157911 -0.044600 0.115372
v -0.137871 -0.004530 0.631340
v -0.107831 -0.019548 0.631340
v -0.167937 -0.044600 0.631340
vn 0.0000 0.0000 1.0000
vn -1.0000 0.0000 0.0000
vn -0.1854 0.0000 -0.9827
vn -0.5186 0.8550 0.0000
vn 0.4251 -0.9051 0.0015
vn -0.0869 0.9959 0.0248
vn 0.5825 -0.5457 -0.6025
vn 0.9983 -0.0580 0.0006
vn 1.0000 0.0000 0.0042
vn 0.1171 0.9928 0.0237
vn 0.0000 -0.9999 -0.0149
vn 0.4144 -0.9101 -0.0012
vn 0.5405 -0.5671 -0.6215
vn 0.0000 -0.1842 -0.9829
vn -0.3480 0.9373 0.0193
vn -0.4553 0.8903 0.0106
vn -0.2739 0.9586 0.0781
vn 0.7057 -0.7084 0.0072
vn 0.4474 -0.8943 0.0046
vn 0.0000 -0.9996 0.0278
vn -0.7156 0.5369 0.4468
usemtl Shape.8675
s off
f 9//1 13//1 15//1
f 3//2 2//2 6//2
f 5//3 3//3 8//3
f 3//2 6//2 8//2
f 6//4 5//4 8//4
f 2//5 4//5 9//5
f 9//1 7//1 10//1
f 5//6 1//6 10//6
f 4//7 5//7 11//7
f 7//8 4//8 11//8
f 10//9 7//9 11//9
f 5//10 10//10 11//10
f 2//11 3//11 12//11
f 4//12 2//12 12//12
f 5//13 4//13 12//13
f 3//14 5//14 12//14
f 1//15 5//15 13//15
f 5//16 6//16 13//16
f 9//1 10//1 13//1
f 10//17 1//17 13//17
f 4//18 7//18 14//18
f 9//19 4//19 14//19
f 7//1 9//1 14//1
f 6//2 2//2 15//2
f 2//20 9//20 15//20
f 13//21 6//21 15//21
