# Blender v2.79 (sub 0) OBJ File: ''
# www.blender.org
mtllib 1370_link_2_11.mtl
o Shape_IndexedFaceSet.011_Shape_IndexedFaceSet.8610
v 0.147665 -0.750926 -0.014882
v 0.162694 0.255963 -0.004854
v 0.137645 0.255963 -0.004854
v 0.217051 0.247265 -0.084346
v 0.217787 -0.745899 -0.054936
v 0.212768 -0.740873 -0.090013
v 0.195486 -0.065084 -0.009126
v 0.167688 -0.740873 -0.004854
v 0.217787 0.250936 -0.054936
v 0.132635 0.245910 -0.004854
v 0.137645 -0.745899 -0.004854
v 0.217787 -0.054797 -0.044933
v 0.167688 0.255963 -0.039923
v 0.132635 0.035386 -0.004854
vn -0.7498 -0.0048 -0.6617
vn -0.0093 -0.9900 -0.1405
vn 0.9898 -0.0035 -0.1421
vn 0.7055 -0.0245 0.7082
vn 0.0000 0.0000 1.0000
vn 0.2690 -0.8938 0.3588
vn 0.1357 0.0007 0.9907
vn 0.9997 0.0000 -0.0250
vn 0.6744 0.0591 0.7360
vn -0.7365 -0.1538 -0.6587
vn 0.1378 -0.8234 0.5504
vn 0.8498 -0.0076 0.5271
vn 1.0000 0.0000 -0.0000
vn 0.8465 0.0174 0.5322
vn 0.0000 1.0000 0.0000
vn -0.6682 0.0072 -0.7439
vn 0.1042 0.9944 0.0148
vn 0.0619 0.9902 -0.1251
vn -0.7103 0.3540 -0.6085
vn -0.7078 0.0035 -0.7064
vn -0.7283 0.0000 -0.6853
usemtl Shape.8625
s off
f 6//1 11//1 14//1
f 5//2 1//2 6//2
f 4//3 5//3 6//3
f 5//4 7//4 8//4
f 2//5 3//5 8//5
f 1//6 5//6 8//6
f 7//7 2//7 8//7
f 5//8 4//8 9//8
f 2//9 7//9 9//9
f 8//5 3//5 10//5
f 8//5 10//5 11//5
f 6//10 1//10 11//10
f 1//11 8//11 11//11
f 7//12 5//12 12//12
f 5//13 9//13 12//13
f 9//14 7//14 12//14
f 3//15 2//15 13//15
f 4//16 6//16 13//16
f 2//17 9//17 13//17
f 9//18 4//18 13//18
f 10//19 3//19 13//19
f 6//20 10//20 13//20
f 10//21 6//21 14//21
f 11//5 10//5 14//5
