# Blender v2.79 (sub 0) OBJ File: ''
# www.blender.org
mtllib 1370_link_1_79.mtl
o Shape_IndexedFaceSet.079_Shape_IndexedFaceSet.7830
v -0.027353 -0.296167 -0.476337
v -0.034180 -0.300268 -0.513202
v -0.034180 -0.283885 -0.513202
v -0.025989 -0.300268 -0.513202
v -0.024622 -0.271594 -0.494087
v -0.032814 -0.277056 -0.489996
v -0.032814 -0.300268 -0.481801
v -0.024622 -0.300268 -0.474971
v -0.025989 -0.282521 -0.513202
v -0.024622 -0.272964 -0.485899
v -0.031448 -0.272964 -0.496811
v -0.024622 -0.283885 -0.500913
v -0.031448 -0.279787 -0.511833
v -0.031448 -0.274325 -0.488627
vn -0.2548 0.9539 0.1586
vn 0.0000 0.0000 -1.0000
vn -0.9991 -0.0000 0.0435
vn 0.0000 -1.0000 0.0000
vn -0.9984 0.0188 0.0532
vn -0.6312 -0.1682 0.7571
vn 0.0932 0.3700 0.9244
vn 1.0000 0.0000 0.0000
vn -0.9602 0.2783 -0.0254
vn 0.9978 -0.0565 -0.0357
vn 0.9939 0.0000 -0.1106
vn 0.9929 0.0578 -0.1040
vn -0.0585 0.3512 -0.9345
vn 0.2887 0.8221 -0.4906
vn -0.7570 0.5949 -0.2702
vn -0.0177 0.9103 -0.4135
vn -0.7643 0.2014 0.6126
vn -0.8496 0.1756 0.4974
vn -0.2540 0.9539 0.1596
vn -0.4077 0.3885 0.8263
vn -0.9057 0.4182 0.0695
usemtl Shape.7840
s off
f 5//1 11//1 14//1
f 2//2 3//2 4//2
f 3//3 2//3 7//3
f 2//4 4//4 7//4
f 6//5 3//5 7//5
f 7//4 4//4 8//4
f 1//6 7//6 8//6
f 4//2 3//2 9//2
f 1//7 8//7 10//7
f 8//8 5//8 10//8
f 3//9 6//9 11//9
f 8//10 4//10 12//10
f 5//8 8//8 12//8
f 4//11 9//11 12//11
f 9//12 5//12 12//12
f 9//13 3//13 13//13
f 5//14 9//14 13//14
f 3//15 11//15 13//15
f 11//16 5//16 13//16
f 7//17 1//17 14//17
f 6//18 7//18 14//18
f 10//19 5//19 14//19
f 1//20 10//20 14//20
f 11//21 6//21 14//21
