# Blender v2.79 (sub 0) OBJ File: ''
# www.blender.org
mtllib 1370_link_0_13.mtl
o Shape_IndexedFaceSet.013_Shape_IndexedFaceSet.3507
v -0.222865 0.303522 -0.324050
v -0.125949 0.262008 -0.438316
v -0.125857 0.265466 -0.438429
v -0.109728 0.313796 -0.413369
v -0.220992 0.248580 -0.317449
v -0.220992 0.290774 -0.352004
v -0.140429 0.313796 -0.424883
v -0.204700 0.317077 -0.311079
v -0.109728 0.252417 -0.428701
v -0.224822 0.252417 -0.352004
v -0.144271 0.252417 -0.432555
v -0.217150 0.313796 -0.344332
v -0.109728 0.306122 -0.440227
v -0.236349 0.279276 -0.321291
v -0.144271 0.279276 -0.432555
v -0.121242 0.248580 -0.436373
v -0.232494 0.248580 -0.328963
v -0.109728 0.260091 -0.424883
vn 1.0000 -0.0000 0.0000
vn 0.0089 0.9997 -0.0238
vn -0.2886 -0.0236 -0.9572
vn -0.6833 0.3309 -0.6508
vn -0.0740 0.9948 -0.0705
vn -0.6671 0.7233 0.1784
vn -0.0312 -0.0318 -0.9990
vn 0.1025 0.9565 -0.2733
vn -0.7170 0.4585 0.5250
vn -0.2834 -0.0218 0.9588
vn -0.9039 0.0903 -0.4182
vn -0.8739 0.4860 -0.0001
vn -0.8983 0.2664 -0.3494
vn -0.6882 0.2296 -0.6882
vn -0.7171 0.0716 -0.6933
vn -0.3039 0.0000 -0.9527
vn -0.7071 0.0000 -0.7071
vn -0.2614 0.0611 -0.9633
vn -0.3851 0.2409 -0.8909
vn 0.2059 -0.9632 0.1727
vn -0.1934 -0.2066 -0.9591
vn 0.1392 -0.0939 -0.9858
vn 0.5851 -0.1702 -0.7929
vn -0.2354 -0.9430 -0.2354
vn -0.6838 -0.2566 0.6831
vn -0.9461 -0.0385 -0.3214
vn 0.0000 -1.0000 0.0000
vn -0.1932 -0.9605 -0.2001
vn 0.7228 -0.1449 0.6757
vn 0.6884 -0.2278 0.6886
vn 0.6733 -0.3294 0.6620
usemtl Shape.3512
s off
f 9//1 4//1 18//1
f 4//2 7//2 8//2
f 3//3 2//3 11//3
f 7//4 6//4 12//4
f 8//5 7//5 12//5
f 1//6 8//6 12//6
f 2//7 3//7 13//7
f 7//8 4//8 13//8
f 4//1 9//1 13//1
f 8//9 1//9 14//9
f 5//10 8//10 14//10
f 6//11 10//11 14//11
f 1//12 12//12 14//12
f 12//13 6//13 14//13
f 6//14 7//14 15//14
f 10//15 6//15 15//15
f 3//16 11//16 15//16
f 11//17 10//17 15//17
f 13//18 3//18 15//18
f 7//19 13//19 15//19
f 9//20 5//20 16//20
f 11//21 2//21 16//21
f 2//22 13//22 16//22
f 13//23 9//23 16//23
f 10//24 11//24 17//24
f 5//25 14//25 17//25
f 14//26 10//26 17//26
f 16//27 5//27 17//27
f 11//28 16//28 17//28
f 4//29 8//29 18//29
f 8//30 5//30 18//30
f 5//31 9//31 18//31
