# Blender v2.79 (sub 0) OBJ File: ''
# www.blender.org
mtllib 1370_link_2_2.mtl
o Shape_IndexedFaceSet.002_Shape_IndexedFaceSet.8601
v 0.007377 0.030541 0.160448
v -0.087787 0.025531 0.115372
v -0.087787 0.025531 0.120389
v -0.027672 0.055587 0.115372
v 0.077523 0.025531 0.115372
v 0.037442 0.050577 0.120389
v -0.032672 0.025531 0.155439
vn 0.0000 -1.0000 0.0000
vn -0.4472 0.8944 0.0000
vn 0.0000 0.0000 -1.0000
vn 0.0321 0.8841 0.4663
vn 0.4601 0.6064 0.6486
vn 0.0984 0.3445 -0.9336
vn -0.3412 0.7719 0.5365
vn -0.1721 0.7982 0.5773
vn 0.0898 -0.9648 0.2470
usemtl Shape.8616
s off
f 3//1 5//1 7//1
f 2//2 3//2 4//2
f 3//1 2//1 5//1
f 2//3 4//3 5//3
f 4//4 1//4 6//4
f 1//5 5//5 6//5
f 5//6 4//6 6//6
f 4//7 3//7 7//7
f 1//8 4//8 7//8
f 5//9 1//9 7//9
