# Blender v2.79 (sub 0) OBJ File: ''
# www.blender.org
mtllib 1370_link_1_84.mtl
o Shape_IndexedFaceSet.084_Shape_IndexedFaceSet.7835
v 0.024533 -0.103651 -0.647008
v -0.005506 -0.133688 -0.640181
v -0.005506 -0.133688 -0.631996
v -0.005506 -0.098188 -0.645644
v 0.024533 -0.130957 -0.622435
v 0.023165 -0.133688 -0.634727
v 0.024533 -0.099554 -0.636092
v -0.004139 -0.107751 -0.652471
v 0.008152 -0.098188 -0.651104
v 0.023165 -0.126860 -0.623805
v -0.004139 -0.132319 -0.630632
v 0.024533 -0.098188 -0.647008
v 0.024533 -0.133688 -0.622435
v -0.005506 -0.099554 -0.652471
v -0.002775 -0.132319 -0.641548
v 0.017702 -0.106385 -0.648372
vn 0.2129 -0.4024 -0.8904
vn -1.0000 -0.0000 0.0000
vn 0.0000 -1.0000 0.0000
vn 1.0000 0.0000 -0.0000
vn -0.2599 0.4070 0.8756
vn 0.2661 0.3844 0.8840
vn -0.7905 0.2198 0.5717
vn -0.2947 0.3748 0.8790
vn -0.2778 0.2199 0.9351
vn 0.0056 0.9922 0.1242
vn 0.2426 0.0000 -0.9701
vn 0.0000 1.0000 0.0000
vn 0.9898 -0.0901 -0.1102
vn -0.2547 -0.5430 0.8002
vn -0.2749 0.0000 0.9615
vn -0.8972 -0.1496 -0.4155
vn -0.0782 0.9776 -0.1956
vn 0.0980 0.0163 -0.9951
vn 0.1110 -0.8043 -0.5837
vn -0.2384 -0.4056 -0.8824
vn 0.1934 -0.3896 -0.9005
vn 0.3223 -0.3708 -0.8710
vn 0.2210 -0.0668 -0.9730
vn 0.1898 -0.1043 -0.9763
usemtl Shape.7845
s off
f 6//1 15//1 16//1
f 2//2 3//2 4//2
f 3//3 2//3 6//3
f 5//4 1//4 7//4
f 7//5 4//5 10//5
f 5//6 7//6 10//6
f 4//7 3//7 11//7
f 10//8 4//8 11//8
f 5//9 10//9 11//9
f 7//4 1//4 12//4
f 4//10 7//10 12//10
f 1//11 9//11 12//11
f 9//12 4//12 12//12
f 1//4 5//4 13//4
f 3//3 6//3 13//3
f 6//13 1//13 13//13
f 11//14 3//14 13//14
f 5//15 11//15 13//15
f 2//2 4//2 14//2
f 8//16 2//16 14//16
f 4//17 9//17 14//17
f 9//18 8//18 14//18
f 6//19 2//19 15//19
f 2//20 8//20 15//20
f 15//21 8//21 16//21
f 1//22 6//22 16//22
f 9//23 1//23 16//23
f 8//24 9//24 16//24
