# Blender v2.79 (sub 0) OBJ File: ''
# www.blender.org
mtllib 1370_link_2_30.mtl
o Shape_IndexedFaceSet.030_Shape_IndexedFaceSet.8629
v 0.121488 -0.164651 0.951231
v 0.017421 -0.059629 0.921891
v -0.007636 -0.169836 0.956942
v 0.022432 -0.079672 0.971979
v 0.132627 -0.139760 0.916881
v -0.007636 -0.169836 0.936917
v 0.107556 -0.109738 0.951937
v -0.007636 -0.084678 0.916881
v 0.122604 -0.164809 0.916881
v -0.007636 -0.079672 0.971979
v 0.107556 -0.169836 0.961953
v 0.057498 -0.069651 0.916881
v 0.037452 -0.069651 0.956942
v -0.007636 -0.109738 0.971979
v 0.097561 -0.124743 0.966963
vn 0.0417 -0.0417 0.9983
vn 0.8722 0.2156 0.4391
vn -1.0000 -0.0000 0.0000
vn -0.1395 -0.2268 -0.9639
vn 0.9280 -0.3713 0.0319
vn 0.0000 0.0000 -1.0000
vn -0.6990 0.7122 -0.0647
vn 0.0000 -1.0000 0.0000
vn 0.0225 -0.9944 -0.1034
vn 0.3595 -0.9330 0.0160
vn 0.6758 0.7242 -0.1369
vn -0.0580 0.2512 -0.9662
vn 0.3716 0.5572 0.7426
vn 0.0000 0.8321 0.5546
vn -0.1002 0.9400 0.3260
vn 0.2556 0.9583 0.1279
vn 0.4942 0.8334 0.2473
vn 0.0000 0.0000 1.0000
vn -0.0422 -0.2425 0.9692
vn 0.0327 -0.1032 0.9941
vn 0.7291 0.1765 0.6612
vn 0.3663 0.5252 0.7681
vn 0.5990 0.0439 0.7996
usemtl Shape.8644
s off
f 4//1 14//1 15//1
f 1//2 5//2 7//2
f 6//3 3//3 8//3
f 6//4 8//4 9//4
f 5//5 1//5 9//5
f 8//6 5//6 9//6
f 2//7 8//7 10//7
f 8//3 3//3 10//3
f 3//8 6//8 11//8
f 6//9 9//9 11//9
f 9//10 1//10 11//10
f 7//11 5//11 12//11
f 8//12 2//12 12//12
f 5//6 8//6 12//6
f 4//13 7//13 13//13
f 10//14 4//14 13//14
f 2//15 10//15 13//15
f 12//16 2//16 13//16
f 7//17 12//17 13//17
f 10//3 3//3 14//3
f 4//18 10//18 14//18
f 3//19 11//19 14//19
f 14//20 11//20 15//20
f 1//21 7//21 15//21
f 7//22 4//22 15//22
f 11//23 1//23 15//23
