# Blender v2.79 (sub 0) OBJ File: ''
# www.blender.org
mtllib 1370_link_0_30.mtl
o Shape_IndexedFaceSet.030_Shape_IndexedFaceSet.3524
v 0.047588 0.601573 0.795278
v 0.051555 0.581510 0.821867
v 0.051888 0.602210 0.072028
v -0.056010 0.582392 0.100851
v -0.057163 0.582135 0.803003
v 0.047588 0.582392 0.100851
v -0.034996 0.606220 0.076523
v -0.036814 0.605413 0.787529
v -0.056010 0.601573 0.131575
v 0.030885 0.606290 0.074416
v -0.056010 0.597738 0.795278
v 0.028402 0.605413 0.795278
v -0.058751 0.597941 0.082481
v -0.056010 0.601573 0.568787
v 0.032235 0.605413 0.749123
v -0.032980 0.605413 0.795278
vn 0.0000 1.0000 0.0012
vn 0.9794 0.2016 0.0060
vn -0.0057 -1.0000 -0.0004
vn 0.9755 -0.2199 -0.0056
vn 0.0000 -0.8240 -0.5666
vn 0.0000 -1.0000 -0.0012
vn -0.0299 0.3858 -0.9221
vn -0.1504 0.4476 0.8815
vn 0.1600 0.7993 0.5793
vn -0.0312 -0.7652 -0.6430
vn -0.9845 -0.1755 -0.0017
vn -0.0668 -0.4494 -0.8909
vn -0.3400 0.9391 -0.0505
vn -0.9971 0.0756 0.0039
vn -0.9743 0.2251 0.0038
vn -0.2027 0.9793 0.0006
vn -0.2159 0.9764 0.0000
vn -0.3657 0.9306 0.0158
vn -0.7982 0.6024 0.0000
vn 0.2362 0.9717 0.0023
vn 0.1908 0.9816 0.0009
vn 0.1962 0.9804 0.0163
vn 0.0153 0.9999 0.0013
vn -0.0023 1.0000 0.0011
vn -0.0010 1.0000 0.0011
vn -0.1498 0.4496 0.8806
vn -0.3124 0.9373 0.1546
vn 0.0000 0.7437 0.6685
usemtl Shape.3529
s off
f 12//1 10//1 16//1
f 1//2 2//2 3//2
f 4//3 2//3 5//3
f 3//4 2//4 6//4
f 4//5 3//5 6//5
f 2//6 4//6 6//6
f 3//7 7//7 10//7
f 5//8 2//8 11//8
f 2//9 1//9 12//9
f 3//10 4//10 13//10
f 4//11 5//11 13//11
f 7//12 3//12 13//12
f 9//13 7//13 13//13
f 5//14 11//14 13//14
f 13//15 11//15 14//15
f 8//16 7//16 14//16
f 7//17 9//17 14//17
f 11//18 8//18 14//18
f 9//19 13//19 14//19
f 1//20 3//20 15//20
f 3//21 10//21 15//21
f 12//22 1//22 15//22
f 10//23 12//23 15//23
f 7//24 8//24 16//24
f 10//25 7//25 16//25
f 11//26 2//26 16//26
f 8//27 11//27 16//27
f 2//28 12//28 16//28
