# Blender v2.79 (sub 0) OBJ File: ''
# www.blender.org
mtllib 1370_link_0_36.mtl
o Shape_IndexedFaceSet.036_Shape_IndexedFaceSet.3530
v 0.212565 0.302286 -0.344311
v 0.102024 0.254294 -0.439515
v 0.193372 0.306120 -0.313612
v 0.220252 0.248580 -0.317469
v 0.147361 0.252419 -0.421045
v 0.097469 0.260092 -0.424864
v 0.097469 0.309965 -0.417202
v 0.120506 0.309965 -0.432538
v 0.216408 0.263932 -0.351986
v 0.208734 0.256259 -0.313612
v 0.212985 0.308009 -0.317769
v 0.128168 0.283100 -0.436395
v 0.227927 0.279272 -0.313612
v 0.112819 0.248580 -0.424864
v 0.220252 0.248580 -0.332818
v 0.212565 0.309965 -0.336636
v 0.116663 0.260092 -0.444070
v 0.101326 0.309965 -0.440213
v 0.193372 0.309965 -0.313612
vn 0.1197 0.9878 0.0997
vn -0.7318 -0.1035 0.6736
vn -0.6944 -0.2139 0.6871
vn 0.6747 0.2899 -0.6788
vn 0.6994 0.2070 -0.6841
vn 0.6981 0.0808 -0.7114
vn 0.9256 0.1612 -0.3423
vn 0.0000 0.0000 1.0000
vn 0.2072 -0.1728 0.9629
vn 0.1477 -0.8797 -0.4520
vn -0.5950 -0.7933 0.1290
vn -0.4079 -0.8168 0.4080
vn -0.5207 -0.6943 0.4968
vn 0.6421 -0.5304 -0.5536
vn 0.9631 -0.0799 -0.2571
vn 0.9701 -0.2426 0.0000
vn 0.1252 -0.9813 -0.1462
vn 0.0000 -1.0000 0.0000
vn 0.5932 0.5691 -0.5694
vn 0.0000 1.0000 0.0000
vn 0.9270 0.2651 -0.2652
vn 0.8852 0.4644 0.0284
vn 0.1738 -0.8412 -0.5121
vn 0.5950 -0.0296 -0.8032
vn 0.2983 0.1645 -0.9402
vn -0.9565 -0.0156 -0.2912
vn -0.9859 0.0254 -0.1653
vn 0.3613 0.2327 -0.9029
vn -0.2914 -0.0156 -0.9565
vn -0.7338 0.0000 0.6794
vn 0.2247 0.2529 0.9410
usemtl Shape.3535
s off
f 11//1 16//1 19//1
f 6//2 3//2 7//2
f 3//3 6//3 10//3
f 8//4 1//4 12//4
f 1//5 9//5 12//5
f 9//6 5//6 12//6
f 9//7 1//7 13//7
f 3//8 10//8 13//8
f 10//9 4//9 13//9
f 2//10 5//10 14//10
f 6//11 2//11 14//11
f 4//12 10//12 14//12
f 10//13 6//13 14//13
f 5//14 9//14 15//14
f 9//15 13//15 15//15
f 13//16 4//16 15//16
f 14//17 5//17 15//17
f 4//18 14//18 15//18
f 1//19 8//19 16//19
f 8//20 7//20 16//20
f 13//21 1//21 16//21
f 11//22 13//22 16//22
f 5//23 2//23 17//23
f 12//24 5//24 17//24
f 12//25 17//25 18//25
f 2//26 6//26 18//26
f 6//27 7//27 18//27
f 7//20 8//20 18//20
f 8//28 12//28 18//28
f 17//29 2//29 18//29
f 7//30 3//30 19//30
f 3//8 13//8 19//8
f 13//31 11//31 19//31
f 16//20 7//20 19//20
