# Blender v2.79 (sub 0) OBJ File: ''
# www.blender.org
mtllib 1370_link_1_77.mtl
o Shape_IndexedFaceSet.077_Shape_IndexedFaceSet.7828
v 0.043648 -0.074981 -0.573280
v 0.027266 -0.083173 -0.537780
v 0.027266 -0.073611 -0.541880
v 0.024533 -0.080438 -0.550074
v 0.043648 -0.133688 -0.537780
v 0.036819 -0.133688 -0.540511
v 0.043648 -0.080438 -0.555530
v 0.024533 -0.105014 -0.537780
v 0.042281 -0.128219 -0.550074
v 0.043648 -0.120027 -0.537780
v 0.036819 -0.073611 -0.550074
v 0.024533 -0.073611 -0.551440
v 0.042281 -0.079074 -0.571915
v 0.032728 -0.090006 -0.537780
v 0.043648 -0.133688 -0.547339
v 0.024533 -0.076345 -0.540511
v 0.043648 -0.073611 -0.559620
v 0.024533 -0.105014 -0.539145
v 0.035453 -0.132312 -0.537780
v 0.042281 -0.073611 -0.573280
vn 0.0000 1.0000 -0.0000
vn 1.0000 0.0000 0.0000
vn 0.0000 0.0000 1.0000
vn 0.7512 0.2700 0.6023
vn -1.0000 0.0000 0.0000
vn -0.7379 -0.2741 -0.6167
vn 0.4422 0.3535 0.8243
vn 0.7451 0.2710 0.6094
vn 0.6031 0.3767 0.7031
vn 0.0000 -1.0000 0.0000
vn -0.6246 -0.4685 -0.6247
vn 0.2845 -0.3875 -0.8769
vn 0.1995 -0.3980 -0.8954
vn 0.0660 0.3932 0.9171
vn -0.6040 0.0756 0.7934
vn -0.6472 0.7396 0.1850
vn 0.7680 0.3291 0.5494
vn -0.7381 -0.2742 -0.6165
vn -0.7487 -0.2925 -0.5949
vn -0.1530 -0.9112 0.3826
vn -0.9285 -0.3714 0.0000
vn -0.8920 -0.3698 -0.2598
vn -0.7700 -0.1252 -0.6257
vn -0.2361 -0.2356 -0.9428
vn -0.7616 -0.1571 -0.6287
vn 0.7061 0.7046 -0.0707
usemtl Shape.7838
s off
f 12//1 17//1 20//1
f 5//2 1//2 7//2
f 5//3 2//3 8//3
f 2//3 5//3 10//3
f 5//2 7//2 10//2
f 10//4 7//4 11//4
f 4//5 8//5 12//5
f 3//1 11//1 12//1
f 9//6 4//6 13//6
f 3//7 2//7 14//7
f 2//3 10//3 14//3
f 10//8 11//8 14//8
f 11//9 3//9 14//9
f 1//2 5//2 15//2
f 5//10 6//10 15//10
f 6//11 9//11 15//11
f 13//12 1//12 15//12
f 9//13 13//13 15//13
f 2//14 3//14 16//14
f 8//15 2//15 16//15
f 3//16 12//16 16//16
f 12//5 8//5 16//5
f 7//2 1//2 17//2
f 11//17 7//17 17//17
f 12//1 11//1 17//1
f 8//5 4//5 18//5
f 4//18 9//18 18//18
f 9//19 6//19 18//19
f 6//20 5//20 19//20
f 5//3 8//3 19//3
f 8//21 18//21 19//21
f 18//22 6//22 19//22
f 4//23 12//23 20//23
f 1//24 13//24 20//24
f 13//25 4//25 20//25
f 17//26 1//26 20//26
