# Blender v2.79 (sub 0) OBJ File: ''
# www.blender.org
mtllib 1370_link_1_56.mtl
o Shape_IndexedFaceSet.056_Shape_IndexedFaceSet.7807
v -0.025988 -0.416320 -0.473609
v -0.025988 -0.348057 -0.470877
v -0.024622 -0.354895 -0.487257
v -0.032814 -0.348057 -0.491356
v -0.032814 -0.406758 -0.470877
v -0.032814 -0.348057 -0.470877
v -0.025988 -0.375375 -0.491356
v -0.024622 -0.419051 -0.470877
v -0.032814 -0.363088 -0.491356
v -0.024622 -0.350795 -0.491356
v -0.024622 -0.375375 -0.491356
v -0.024622 -0.394471 -0.470877
v -0.031448 -0.404027 -0.474974
vn -0.5762 -0.3201 -0.7520
vn 0.0000 0.0000 1.0000
vn 0.0000 1.0000 0.0000
vn -1.0000 -0.0000 0.0000
vn -0.8243 -0.5493 -0.1370
vn -0.0000 0.0000 -1.0000
vn 0.9966 0.0586 0.0586
vn 0.3152 0.9432 -0.1051
vn 1.0000 0.0000 0.0000
vn 0.0000 -0.3977 -0.9175
vn 0.6933 -0.3059 -0.6525
vn 0.9971 0.0293 0.0709
vn 0.0001 0.0000 1.0000
vn -0.7598 -0.3948 -0.5165
vn -0.5543 -0.3310 -0.7637
vn -0.8815 -0.2005 -0.4276
usemtl Shape.7817
s off
f 9//1 7//1 13//1
f 5//2 2//2 6//2
f 2//3 4//3 6//3
f 4//4 5//4 6//4
f 5//5 1//5 8//5
f 2//2 5//2 8//2
f 5//4 4//4 9//4
f 4//6 7//6 9//6
f 2//7 3//7 10//7
f 4//8 2//8 10//8
f 7//6 4//6 10//6
f 3//9 8//9 10//9
f 10//9 8//9 11//9
f 1//10 7//10 11//10
f 8//11 1//11 11//11
f 7//6 10//6 11//6
f 3//12 2//12 12//12
f 8//9 3//9 12//9
f 2//13 8//13 12//13
f 1//14 5//14 13//14
f 7//15 1//15 13//15
f 5//16 9//16 13//16
