# Blender v2.79 (sub 0) OBJ File: ''
# www.blender.org
mtllib 1370_link_1_52.mtl
o Shape_IndexedFaceSet.052_Shape_IndexedFaceSet.7803
v 0.028632 -0.266127 -0.481800
v 0.024534 -0.245654 -0.468149
v 0.023167 -0.245654 -0.468149
v 0.038186 -0.237459 -0.495450
v 0.039552 -0.266127 -0.481800
v 0.039552 -0.237459 -0.481800
v 0.023167 -0.237459 -0.477705
v 0.038186 -0.266127 -0.495450
v 0.023167 -0.262032 -0.468149
v 0.029995 -0.238829 -0.470878
v 0.023167 -0.260668 -0.477705
v 0.027263 -0.260668 -0.468149
v 0.039552 -0.237459 -0.495450
v 0.039552 -0.253840 -0.480436
v 0.023167 -0.237459 -0.469513
v 0.039552 -0.266127 -0.495450
vn 0.0000 0.0000 -1.0000
vn 0.0000 1.0000 0.0000
vn 0.0000 -1.0000 0.0000
vn -0.7633 0.0000 -0.6460
vn 0.0000 0.0000 1.0000
vn 0.0000 -0.9578 0.2873
vn -1.0000 0.0000 0.0000
vn -0.7633 -0.3634 -0.5342
vn -0.7383 -0.6677 -0.0953
vn 0.2632 -0.7905 0.5531
vn 0.3763 0.0684 0.9240
vn 1.0000 0.0000 0.0000
vn 0.7480 0.0551 0.6614
vn 0.7258 -0.0759 0.6837
vn 0.7071 -0.0001 0.7071
vn 0.0000 0.1642 0.9864
vn 0.2301 0.1970 0.9530
vn 0.2489 0.9099 0.3319
usemtl Shape.7813
s off
f 8//1 13//1 16//1
f 6//2 4//2 7//2
f 5//3 1//3 8//3
f 7//4 4//4 8//4
f 2//5 3//5 9//5
f 1//6 5//6 9//6
f 3//7 7//7 9//7
f 8//8 1//8 11//8
f 7//4 8//4 11//4
f 1//9 9//9 11//9
f 9//7 7//7 11//7
f 2//5 9//5 12//5
f 9//10 5//10 12//10
f 10//11 2//11 12//11
f 6//12 5//12 13//12
f 4//2 6//2 13//2
f 8//1 4//1 13//1
f 5//12 6//12 14//12
f 6//13 10//13 14//13
f 12//14 5//14 14//14
f 10//15 12//15 14//15
f 3//16 2//16 15//16
f 6//2 7//2 15//2
f 7//7 3//7 15//7
f 2//17 10//17 15//17
f 10//18 6//18 15//18
f 5//3 8//3 16//3
f 13//12 5//12 16//12
