# Blender v2.79 (sub 0) OBJ File: ''
# www.blender.org
mtllib 1370_link_2_19.mtl
o Shape_IndexedFaceSet.019_Shape_IndexedFaceSet.8618
v 0.113356 -0.286246 0.113427
v -0.002627 -0.455354 0.060269
v 0.017415 -0.455354 0.060269
v 0.112585 -0.310125 0.060269
v -0.002627 -0.365227 0.115372
v 0.062487 -0.420278 0.085317
v 0.117599 -0.380208 0.065279
v 0.002386 -0.405263 0.115372
v 0.097557 -0.345184 0.115372
v -0.005979 -0.428500 0.058732
v 0.112585 -0.280060 0.095334
v 0.057486 -0.445332 0.060269
v -0.002627 -0.365227 0.110361
v 0.117599 -0.315136 0.115372
vn 0.9921 0.0952 -0.0816
vn 0.0000 -0.7400 0.6727
vn -0.9724 -0.1218 0.1991
vn 0.1675 -0.7063 0.6878
vn 0.2975 -0.4713 0.8303
vn 0.6002 -0.5226 0.6055
vn 0.0000 0.0000 1.0000
vn 0.0000 -0.0571 -0.9984
vn -0.9769 -0.1115 0.1824
vn -0.5347 0.7924 0.2937
vn 0.1784 -0.7133 0.6778
vn 0.6224 -0.6120 0.4879
vn 0.1473 -0.0600 -0.9873
vn 0.0117 -0.0469 -0.9988
vn 0.0218 -0.0089 -0.9997
vn -0.5400 0.5491 -0.6379
vn -0.9986 0.0529 0.0000
vn -0.5944 0.8041 0.0000
vn -0.5427 0.6377 -0.5467
vn -0.0264 0.0633 0.9976
vn 0.9943 0.0651 -0.0846
vn 0.6749 -0.4501 0.5847
vn 0.9893 0.1458 0.0077
usemtl Shape.8633
s off
f 4//1 11//1 14//1
f 2//2 3//2 8//2
f 5//3 2//3 8//3
f 3//4 6//4 8//4
f 8//5 6//5 9//5
f 6//6 7//6 9//6
f 5//7 8//7 9//7
f 3//8 2//8 10//8
f 2//9 5//9 10//9
f 5//10 1//10 11//10
f 6//11 3//11 12//11
f 7//12 6//12 12//12
f 4//13 7//13 12//13
f 3//14 10//14 12//14
f 10//15 4//15 12//15
f 4//16 10//16 13//16
f 10//17 5//17 13//17
f 5//18 11//18 13//18
f 11//19 4//19 13//19
f 1//20 5//20 14//20
f 7//21 4//21 14//21
f 5//7 9//7 14//7
f 9//22 7//22 14//22
f 11//23 1//23 14//23
