# Blender v2.79 (sub 0) OBJ File: ''
# www.blender.org
mtllib 1370_link_0_75.mtl
o Shape_IndexedFaceSet.075_Shape_IndexedFaceSet.3569
v 0.231767 0.336824 -0.359651
v 0.231767 0.309965 -0.317454
v 0.227929 0.313804 -0.332804
v 0.220258 0.336824 -0.328966
v 0.247112 0.336824 -0.313612
v 0.243271 0.309965 -0.317454
vn 0.9448 -0.0901 -0.3149
vn -0.9304 -0.3349 0.1489
vn -0.9076 -0.2457 -0.3404
vn 0.0000 1.0000 -0.0000
vn -0.4902 0.1574 0.8573
vn 0.0000 -0.1416 0.9899
vn 0.3864 -0.7268 -0.5679
vn 0.0000 -0.9701 -0.2426
usemtl Shape.3574
s off
f 1//1 5//1 6//1
f 3//2 2//2 4//2
f 1//3 3//3 4//3
f 1//4 4//4 5//4
f 4//5 2//5 5//5
f 5//6 2//6 6//6
f 3//7 1//7 6//7
f 2//8 3//8 6//8
