# Blender v2.79 (sub 0) OBJ File: ''
# www.blender.org
mtllib 1370_link_2_12.mtl
o Shape_IndexedFaceSet.012_Shape_IndexedFaceSet.8611
v 0.257632 -0.743357 -0.233930
v 0.217789 -0.089785 -0.054977
v 0.247770 0.248866 -0.234015
v 0.267875 0.250838 -0.195200
v 0.237823 -0.740873 -0.080007
v 0.217789 -0.745899 -0.100041
v 0.217789 0.250936 -0.100041
v 0.242834 -0.745899 -0.235286
v 0.267875 -0.720766 -0.190187
v 0.237823 0.240883 -0.080007
v 0.267875 0.250838 -0.225260
v 0.222800 -0.740873 -0.059973
v 0.267875 -0.745899 -0.225260
v 0.222800 0.250936 -0.059973
v 0.262869 0.250838 -0.235286
v 0.232817 0.245910 -0.069981
v 0.267875 -0.650690 -0.230255
v 0.257858 -0.750926 -0.170152
v 0.217789 0.255963 -0.090033
v 0.218159 -0.743486 -0.080969
v 0.232817 -0.740873 -0.069981
v 0.247840 -0.730819 -0.115080
v 0.252847 0.015378 -0.135115
vn 0.9662 0.0004 0.2578
vn -1.0000 0.0000 -0.0000
vn -0.9833 -0.0000 -0.1821
vn -0.9758 0.0051 -0.2185
vn 1.0000 0.0000 0.0000
vn 0.1911 -0.8578 -0.4772
vn 0.7060 0.0000 0.7082
vn 0.0916 -0.0018 -0.9958
vn -0.0841 0.0017 -0.9965
vn 0.8947 0.0000 0.4467
vn 0.8937 0.3625 0.2645
vn 0.5890 0.7841 0.1958
vn 0.7068 0.0000 0.7074
vn 0.6397 -0.0403 -0.7676
vn 0.3631 -0.0032 -0.9317
vn 0.8947 0.0025 -0.4467
vn -0.1824 -0.9826 -0.0338
vn 0.9588 -0.1647 0.2315
vn 0.0764 -0.9905 0.1147
vn 0.0339 -0.9958 -0.0847
vn 0.9638 -0.2169 0.1554
vn -0.8893 0.4087 -0.2053
vn 0.1018 0.9948 0.0000
vn -0.9858 0.0169 0.1672
vn 0.3167 0.9427 0.1049
vn -0.1355 0.9878 -0.0769
vn 0.0435 0.9988 -0.0217
vn -0.9998 -0.0013 0.0196
vn -0.9761 -0.0092 0.2169
vn -0.0102 -0.9920 0.1257
vn 0.3671 -0.9119 0.1833
vn 0.1313 -0.9826 0.1314
vn 0.9632 -0.1188 0.2410
vn 0.9616 0.0000 0.2746
vn 0.9653 0.0005 0.2610
vn 0.9689 0.0013 0.2473
vn 0.9676 0.0027 0.2527
usemtl Shape.8626
s off
f 22//1 9//1 23//1
f 6//2 2//2 7//2
f 6//3 7//3 8//3
f 7//4 3//4 8//4
f 4//5 9//5 11//5
f 8//6 1//6 13//6
f 11//5 9//5 13//5
f 2//7 12//7 14//7
f 1//8 8//8 15//8
f 8//9 3//9 15//9
f 5//10 10//10 16//10
f 10//11 4//11 16//11
f 4//12 14//12 16//12
f 14//13 12//13 16//13
f 13//14 1//14 17//14
f 11//5 13//5 17//5
f 1//15 15//15 17//15
f 15//16 11//16 17//16
f 6//17 8//17 18//17
f 9//18 5//18 18//18
f 12//19 6//19 18//19
f 8//20 13//20 18//20
f 13//21 9//21 18//21
f 3//22 7//22 19//22
f 7//2 2//2 19//2
f 4//23 11//23 19//23
f 2//24 14//24 19//24
f 14//25 4//25 19//25
f 15//26 3//26 19//26
f 11//27 15//27 19//27
f 2//28 6//28 20//28
f 12//29 2//29 20//29
f 6//30 12//30 20//30
f 5//10 16//10 21//10
f 16//13 12//13 21//13
f 18//31 5//31 21//31
f 12//32 18//32 21//32
f 5//33 9//33 22//33
f 10//34 5//34 22//34
f 10//35 22//35 23//35
f 9//36 4//36 23//36
f 4//37 10//37 23//37
