# Blender v2.79 (sub 0) OBJ File: ''
# www.blender.org
mtllib 1370_link_2_24.mtl
o Shape_IndexedFaceSet.024_Shape_IndexedFaceSet.8623
v -0.052719 -0.280050 0.706481
v -0.012648 -0.355176 0.866750
v -0.062740 -0.345152 0.906817
v -0.001616 -0.335724 0.910187
v -0.002627 -0.295082 0.706481
v -0.062740 -0.330127 0.731545
v -0.063205 -0.320148 0.908367
v -0.002627 -0.340143 0.736566
v -0.062740 -0.280050 0.721543
v -0.042692 -0.355176 0.891795
v -0.007640 -0.290074 0.711521
v -0.053977 -0.320267 0.913108
v -0.002906 -0.354827 0.905888
v -0.032683 -0.335135 0.721543
vn -0.1034 -0.9871 -0.1223
vn -0.9998 -0.0185 -0.0016
vn 1.0000 -0.0038 -0.0057
vn -0.8275 -0.1100 -0.5506
vn -1.0000 -0.0005 -0.0026
vn -0.4900 -0.8685 -0.0745
vn -0.1016 -0.9873 -0.1218
vn 0.7607 0.6373 0.1234
vn 0.2392 0.7972 -0.5542
vn 0.2009 0.9705 0.1336
vn 0.2093 0.9589 0.1917
vn -0.4567 -0.0635 0.8873
vn -0.0947 0.9734 0.2087
vn 0.2876 0.9353 0.2062
vn 0.3555 -0.9312 -0.0802
vn 0.9978 -0.0665 -0.0041
vn -0.1390 -0.8993 0.4146
vn 0.0062 -1.0000 0.0074
vn -0.0233 -0.2373 0.9712
vn -0.0102 -0.2189 0.9757
vn -0.0877 -0.2923 -0.9523
vn -0.3481 -0.3630 -0.8643
vn 0.3075 -0.5284 -0.7914
vn -0.2038 -0.9708 -0.1263
usemtl Shape.8638
s off
f 8//1 10//1 14//1
f 6//2 3//2 7//2
f 5//3 4//3 8//3
f 1//4 6//4 9//4
f 6//5 7//5 9//5
f 3//6 6//6 10//6
f 8//7 2//7 10//7
f 4//8 5//8 11//8
f 5//9 1//9 11//9
f 1//10 9//10 11//10
f 11//11 9//11 12//11
f 7//12 3//12 12//12
f 9//13 7//13 12//13
f 4//14 11//14 12//14
f 2//15 8//15 13//15
f 8//16 4//16 13//16
f 3//17 10//17 13//17
f 10//18 2//18 13//18
f 12//19 3//19 13//19
f 4//20 12//20 13//20
f 1//21 5//21 14//21
f 6//22 1//22 14//22
f 5//23 8//23 14//23
f 10//24 6//24 14//24
