# Blender v2.79 (sub 0) OBJ File: ''
# www.blender.org
mtllib 1370_link_0_29.mtl
o Shape_IndexedFaceSet.029_Shape_IndexedFaceSet.3523
v -0.094379 0.563207 0.100851
v -0.056010 0.597739 0.795278
v -0.067526 0.597739 0.795278
v -0.066361 0.599050 0.074498
v -0.105884 0.582386 0.795278
v -0.059072 0.578495 0.806997
v -0.056010 0.582386 0.100851
v -0.109728 0.578560 0.100851
v -0.109262 0.563506 0.789249
v -0.090567 0.563136 0.796701
v -0.109728 0.563207 0.100851
v -0.102051 0.586223 0.212125
v -0.054685 0.598591 0.083720
v -0.053930 0.582534 0.822173
v -0.067526 0.574723 0.100851
v -0.071359 0.597739 0.630168
v -0.090536 0.563207 0.139256
v -0.078702 0.595068 0.070620
v -0.090536 0.590063 0.795278
vn -0.3638 0.9315 0.0010
vn 0.0000 1.0000 0.0018
vn -0.9846 0.1747 0.0045
vn -1.0000 0.0000 0.0007
vn 0.0000 -1.0000 -0.0001
vn -0.0200 -0.9998 0.0004
vn -0.7065 0.7077 0.0000
vn 0.0383 0.9993 0.0013
vn 0.4452 -0.6674 -0.5969
vn 0.9964 -0.0845 -0.0029
vn 0.0000 0.8705 0.4921
vn 0.6207 -0.7841 -0.0016
vn -0.4502 -0.1975 0.8708
vn -0.3388 -0.4471 0.8278
vn 0.4086 -0.9069 0.1029
vn 0.9903 0.1390 0.0020
vn 0.5540 -0.8325 -0.0022
vn 0.4445 -0.6679 -0.5969
vn -0.0731 0.9973 0.0017
vn 0.0011 -1.0000 -0.0001
vn 0.4383 -0.8988 -0.0001
vn 0.3938 -0.9183 -0.0394
vn 0.4468 -0.8946 -0.0006
vn 0.0000 -0.6883 -0.7254
vn -0.6979 0.0000 -0.7162
vn -0.4894 0.8717 -0.0263
vn 0.3132 -0.7302 -0.6072
vn 0.4104 -0.6790 -0.6087
vn -0.3069 0.9517 -0.0005
vn -0.3533 0.9355 0.0002
vn -0.4474 0.8944 0.0029
vn -0.2597 0.7785 0.5714
vn -0.3393 0.6783 0.6517
vn -0.3164 0.9486 0.0073
usemtl Shape.3528
s off
f 16//1 12//1 19//1
f 3//2 2//2 4//2
f 5//3 8//3 9//3
f 9//4 8//4 11//4
f 1//5 10//5 11//5
f 10//6 9//6 11//6
f 8//7 5//7 12//7
f 4//8 2//8 13//8
f 7//9 4//9 13//9
f 7//10 13//10 14//10
f 2//11 3//11 14//11
f 6//12 7//12 14//12
f 5//13 9//13 14//13
f 9//14 10//14 14//14
f 10//15 6//15 14//15
f 13//16 2//16 14//16
f 7//17 6//17 15//17
f 4//18 7//18 15//18
f 3//19 4//19 16//19
f 10//20 1//20 17//20
f 6//21 10//21 17//21
f 1//22 15//22 17//22
f 15//23 6//23 17//23
f 1//24 11//24 18//24
f 11//25 8//25 18//25
f 8//26 12//26 18//26
f 15//27 1//27 18//27
f 4//28 15//28 18//28
f 16//29 4//29 18//29
f 12//30 16//30 18//30
f 12//31 5//31 19//31
f 14//32 3//32 19//32
f 5//33 14//33 19//33
f 3//34 16//34 19//34
