# Blender v2.79 (sub 0) OBJ File: ''
# www.blender.org
mtllib 1370_link_0_58.mtl
o Shape_IndexedFaceSet.058_Shape_IndexedFaceSet.3552
v -0.104776 0.332388 0.002951
v -0.009966 0.394379 0.001021
v -0.009966 0.390535 0.004855
v -0.013804 0.329150 0.008695
v -0.105890 0.379030 -0.045023
v -0.105890 0.394379 -0.022001
v -0.013804 0.390535 -0.018155
v -0.109728 0.329150 -0.018155
v -0.052191 0.352181 0.016369
v -0.109728 0.394379 -0.045023
v -0.009966 0.329150 0.016369
v -0.109728 0.336825 0.004855
v -0.013804 0.379030 -0.018155
v -0.075188 0.329150 0.016369
v -0.017642 0.371349 0.016369
vn 0.0000 0.0000 1.0000
vn -0.1675 0.6962 0.6980
vn 0.2372 -0.4748 -0.8475
vn 0.0000 1.0000 0.0000
vn 0.0990 0.9717 -0.2146
vn 0.2716 0.0679 -0.9600
vn -0.8359 -0.2090 -0.5075
vn 1.0000 0.0000 -0.0000
vn 0.0000 -1.0000 -0.0000
vn -0.5887 -0.7668 0.2558
vn -0.2847 0.4209 0.8613
vn -0.9765 0.1411 0.1628
vn -1.0000 0.0000 0.0000
vn 0.2488 -0.4591 -0.8528
vn 0.9806 0.0000 -0.1963
vn 0.2801 0.0000 -0.9600
vn 0.9854 -0.0390 -0.1660
vn 0.8695 -0.2341 -0.4349
vn -0.1927 -0.9621 0.1928
vn -0.2546 0.2542 0.9331
vn -0.3635 -0.6793 0.6376
vn -0.2020 0.5621 0.8020
vn -0.2525 0.4551 0.8539
vn 0.7118 0.1295 0.6903
usemtl Shape.3557
s off
f 9//1 11//1 15//1
f 3//2 2//2 6//2
f 5//3 4//3 8//3
f 6//4 2//4 10//4
f 2//5 7//5 10//5
f 7//6 5//6 10//6
f 5//7 8//7 10//7
f 2//8 3//8 11//8
f 8//9 4//9 11//9
f 8//10 1//10 12//10
f 9//11 6//11 12//11
f 6//12 10//12 12//12
f 10//13 8//13 12//13
f 4//14 5//14 13//14
f 7//15 2//15 13//15
f 5//16 7//16 13//16
f 2//17 11//17 13//17
f 11//18 4//18 13//18
f 1//19 8//19 14//19
f 8//9 11//9 14//9
f 11//1 9//1 14//1
f 9//20 12//20 14//20
f 12//21 1//21 14//21
f 3//22 6//22 15//22
f 6//23 9//23 15//23
f 11//24 3//24 15//24
