# Blender v2.79 (sub 0) OBJ File: ''
# www.blender.org
mtllib 1370_link_1_28.mtl
o Shape_IndexedFaceSet.028_Shape_IndexedFaceSet.7779
v -0.006873 -0.380838 -0.440833
v -0.004141 -0.416311 -0.412165
v -0.005508 -0.416311 -0.412165
v -0.023255 -0.464106 -0.413532
v -0.024622 -0.378114 -0.439467
v -0.024622 -0.440890 -0.412165
v -0.004141 -0.356249 -0.439467
v -0.004141 -0.439528 -0.413532
v -0.024622 -0.401320 -0.440833
v -0.009604 -0.367187 -0.435372
v -0.024622 -0.464106 -0.412165
v -0.004141 -0.380838 -0.439467
v -0.010969 -0.360356 -0.440833
v -0.023255 -0.405416 -0.439467
v -0.023255 -0.419046 -0.420357
v -0.004141 -0.439528 -0.412165
v -0.006873 -0.443624 -0.413532
v -0.009604 -0.420408 -0.412165
v -0.005508 -0.365825 -0.434005
vn -0.4018 0.3660 0.8394
vn 0.0000 0.0000 1.0000
vn 1.0000 0.0000 -0.0000
vn -1.0000 0.0000 0.0000
vn -0.6729 -0.3073 -0.6729
vn 0.4472 0.0000 -0.8944
vn 0.1757 0.0351 -0.9838
vn 0.0000 0.0000 -1.0000
vn -0.1736 0.0579 -0.9831
vn -0.5302 0.4623 0.7108
vn -0.4494 0.5013 0.7394
vn 0.2608 -0.2260 -0.9386
vn -0.2848 -0.3875 -0.8768
vn 0.4224 -0.3285 -0.8448
vn -0.6596 0.2998 0.6892
vn -0.4791 0.3581 0.8014
vn 0.6092 -0.5076 0.6092
vn 0.5183 -0.3457 -0.7822
vn 0.4510 -0.3607 -0.8164
vn 0.4582 -0.3563 -0.8143
vn 0.8319 -0.5549 0.0000
vn 0.7457 -0.5965 0.2968
vn -0.0001 0.0000 1.0000
vn -0.4595 0.3369 0.8218
vn -0.4545 0.3560 0.8165
vn 0.0000 0.3970 0.9178
vn 0.5941 0.3329 0.7323
vn -0.4186 0.4943 0.7618
vn -0.3691 0.3690 0.8530
usemtl Shape.7789
s off
f 10//1 18//1 19//1
f 2//2 3//2 6//2
f 7//3 2//3 8//3
f 6//4 5//4 9//4
f 2//2 6//2 11//2
f 9//5 4//5 11//5
f 6//4 9//4 11//4
f 1//6 7//6 12//6
f 7//3 8//3 12//3
f 7//7 1//7 13//7
f 1//8 9//8 13//8
f 9//9 5//9 13//9
f 5//10 10//10 13//10
f 10//11 7//11 13//11
f 9//12 1//12 14//12
f 4//13 9//13 14//13
f 1//14 12//14 14//14
f 5//15 6//15 15//15
f 10//16 5//16 15//16
f 8//3 2//3 16//3
f 2//2 11//2 16//2
f 11//17 4//17 16//17
f 12//18 8//18 17//18
f 4//19 14//19 17//19
f 14//20 12//20 17//20
f 8//21 16//21 17//21
f 16//22 4//22 17//22
f 6//23 3//23 18//23
f 15//24 6//24 18//24
f 10//25 15//25 18//25
f 3//26 2//26 19//26
f 2//27 7//27 19//27
f 7//28 10//28 19//28
f 18//29 3//29 19//29
