# Blender v2.79 (sub 0) OBJ File: ''
# www.blender.org
mtllib 1370_link_2_27.mtl
o Shape_IndexedFaceSet.027_Shape_IndexedFaceSet.8626
v -0.132871 -0.254988 0.931907
v -0.007636 -0.174853 0.956951
v -0.007636 -0.174853 0.936915
v -0.007636 -0.254988 0.921885
v -0.122844 -0.174853 0.936915
v -0.117830 -0.249975 0.946928
v -0.012650 -0.249975 0.946928
v -0.122844 -0.174853 0.956951
v -0.126876 -0.258060 0.920541
v -0.117830 -0.199899 0.956951
vn 0.0000 0.0000 1.0000
vn 1.0000 0.0000 0.0000
vn 0.0000 1.0000 0.0000
vn 0.9725 -0.0934 0.2134
vn 0.0000 -0.9486 0.3166
vn -0.9923 0.1242 0.0000
vn 0.0063 0.1843 -0.9828
vn -0.8601 0.1383 -0.4910
vn 0.0000 0.1931 -0.9812
vn 0.0230 -0.9794 0.2007
vn 0.0072 -0.9644 0.2644
vn -0.6746 -0.1449 0.7238
vn 0.0305 -0.1342 0.9905
vn 0.0000 -0.1963 0.9806
vn -0.6862 -0.1374 0.7143
usemtl Shape.8641
s off
f 2//1 8//1 10//1
f 3//2 2//2 4//2
f 2//3 3//3 5//3
f 4//4 2//4 7//4
f 6//5 1//5 7//5
f 5//6 1//6 8//6
f 2//3 5//3 8//3
f 3//7 4//7 9//7
f 1//8 5//8 9//8
f 5//9 3//9 9//9
f 4//10 7//10 9//10
f 7//11 1//11 9//11
f 1//12 6//12 10//12
f 7//13 2//13 10//13
f 6//14 7//14 10//14
f 8//15 1//15 10//15
