# Blender v2.79 (sub 0) OBJ File: ''
# www.blender.org
mtllib 1370_link_1_51.mtl
o Shape_IndexedFaceSet.051_Shape_IndexedFaceSet.7802
v 0.021801 -0.083185 -0.537778
v -0.000043 -0.233353 -0.462690
v -0.002775 -0.233353 -0.462690
v 0.021801 -0.233353 -0.480442
v -0.002775 -0.085903 -0.537770
v -0.002775 -0.065418 -0.536410
v 0.023167 -0.219697 -0.474980
v -0.002775 -0.233353 -0.472253
v 0.023165 -0.103652 -0.537778
v 0.005419 -0.076356 -0.532316
v 0.004053 -0.222431 -0.466792
v 0.023165 -0.109121 -0.524120
v 0.023167 -0.234728 -0.470886
v 0.021801 -0.107746 -0.536410
v 0.023167 -0.234728 -0.479075
v 0.023165 -0.083185 -0.536410
v -0.002775 -0.218338 -0.468151
v 0.001326 -0.068153 -0.535043
v 0.020435 -0.226508 -0.470886
v -0.002775 -0.234728 -0.470886
v 0.021801 -0.156868 -0.502274
v 0.008149 -0.069528 -0.536410
vn 0.2728 0.7251 0.6323
vn -1.0000 -0.0000 -0.0000
vn -0.0077 0.0662 -0.9978
vn -0.0003 -0.0000 -1.0000
vn 0.0000 -0.9862 0.1654
vn -0.2912 -0.3894 -0.8738
vn -0.2964 -0.3878 -0.8728
vn -0.1771 -0.2584 -0.9497
vn 0.2921 -0.3892 -0.8736
vn 0.4485 -0.3653 -0.8157
vn 1.0000 0.0000 0.0000
vn 0.7074 0.0471 -0.7053
vn 1.0000 0.0003 0.0006
vn 0.0000 0.3418 0.9398
vn 0.0200 0.3449 0.9384
vn 0.0610 0.4047 0.9124
vn 0.2042 0.3991 0.8939
vn -0.0326 0.4074 0.9127
vn 0.2910 0.2388 0.9264
vn 0.3368 0.1119 0.9349
vn 0.6202 0.2061 0.7568
vn -0.2300 -0.6862 -0.6902
vn -0.1883 -0.7802 -0.5966
vn 0.0000 -1.0000 0.0000
vn 0.3080 0.3870 0.8691
vn 0.3872 0.3744 0.8425
vn 0.3151 0.3874 0.8664
vn 0.3128 0.3852 0.8682
vn 0.3390 0.3810 0.8602
vn 0.0595 0.1582 -0.9856
vn 0.3205 0.3896 0.8634
vn 0.5588 0.6144 -0.5571
vn 0.3629 0.3990 0.8421
vn 0.2588 0.4185 0.8706
usemtl Shape.7812
s off
f 6//1 18//1 22//1
f 5//2 3//2 6//2
f 1//3 5//3 6//3
f 3//2 5//2 8//2
f 5//4 1//4 9//4
f 2//5 3//5 13//5
f 4//6 8//6 14//6
f 8//7 5//7 14//7
f 5//8 9//8 14//8
f 9//9 4//9 14//9
f 4//10 9//10 15//10
f 7//11 13//11 15//11
f 9//12 1//12 16//12
f 12//13 7//13 16//13
f 15//11 9//11 16//11
f 7//11 15//11 16//11
f 3//14 2//14 17//14
f 6//2 3//2 17//2
f 2//15 11//15 17//15
f 17//16 11//16 18//16
f 11//17 10//17 18//17
f 6//18 17//18 18//18
f 11//19 2//19 19//19
f 2//20 13//20 19//20
f 13//21 7//21 19//21
f 3//2 8//2 20//2
f 8//22 4//22 20//22
f 13//5 3//5 20//5
f 4//23 15//23 20//23
f 15//24 13//24 20//24
f 10//25 11//25 21//25
f 7//26 12//26 21//26
f 12//27 10//27 21//27
f 11//28 19//28 21//28
f 19//29 7//29 21//29
f 1//30 6//30 22//30
f 10//31 12//31 22//31
f 16//32 1//32 22//32
f 12//33 16//33 22//33
f 18//34 10//34 22//34
