# Blender v2.79 (sub 0) OBJ File: ''
# www.blender.org
mtllib 1370_link_1_67.mtl
o Shape_IndexedFaceSet.067_Shape_IndexedFaceSet.7818
v -0.056022 -0.088630 -0.625160
v -0.034183 -0.062693 -0.591030
v -0.034183 -0.072247 -0.591030
v -0.064219 -0.088630 -0.591030
v -0.034183 -0.088630 -0.631990
v -0.057389 -0.069518 -0.599225
v -0.038281 -0.079070 -0.627893
v -0.056022 -0.088630 -0.591030
v -0.064219 -0.077704 -0.591030
v -0.045105 -0.076338 -0.622432
v -0.053293 -0.065422 -0.592403
v -0.043741 -0.087261 -0.634723
v -0.056022 -0.084529 -0.623796
v -0.062849 -0.079070 -0.603322
v -0.034183 -0.081800 -0.631990
v -0.034183 -0.087261 -0.625160
v -0.049201 -0.066788 -0.600594
v -0.064219 -0.087261 -0.599225
v -0.051926 -0.080434 -0.623796
v -0.034183 -0.062693 -0.592403
v -0.058753 -0.088630 -0.621063
vn -0.9687 0.0395 -0.2449
vn 0.0000 0.0000 1.0000
vn 0.0000 -1.0000 0.0000
vn 1.0000 0.0000 0.0000
vn -0.0981 0.1964 0.9756
vn -0.7438 0.6668 0.0462
vn -0.0726 -0.9700 -0.2321
vn -0.2427 0.7116 -0.6593
vn -0.6121 0.2496 -0.7504
vn -0.7157 0.5775 -0.3927
vn -0.8285 0.5389 -0.1522
vn 0.2749 0.0000 -0.9615
vn -0.2087 0.7046 -0.6782
vn 0.5661 -0.7546 0.3319
vn 0.3459 -0.9200 0.1844
vn -0.3495 0.8326 -0.4297
vn -0.3474 0.8812 -0.3205
vn -1.0000 -0.0000 -0.0000
vn -0.9871 0.1043 -0.1216
vn -0.3940 0.8043 -0.4449
vn -0.2893 0.6994 -0.6536
vn -0.5071 0.5073 -0.6968
vn -0.6395 0.6397 -0.4264
vn 0.0258 0.9066 -0.4213
vn -0.1414 0.9900 0.0000
vn 0.1632 0.8885 -0.4289
vn -0.0283 0.9139 -0.4050
vn -0.1376 0.9635 -0.2294
vn -0.8183 0.1814 -0.5455
vn -0.8670 0.3267 -0.3762
vn -0.6711 -0.7312 -0.1221
usemtl Shape.7828
s off
f 18//1 14//1 21//1
f 3//2 2//2 4//2
f 4//3 1//3 5//3
f 2//4 3//4 5//4
f 3//2 4//2 8//2
f 4//3 5//3 8//3
f 4//2 2//2 9//2
f 9//5 2//5 11//5
f 6//6 9//6 11//6
f 5//7 1//7 12//7
f 10//8 7//8 12//8
f 12//9 1//9 13//9
f 6//10 13//10 14//10
f 9//11 6//11 14//11
f 2//4 5//4 15//4
f 5//12 12//12 15//12
f 12//13 7//13 15//13
f 5//4 3//4 16//4
f 3//14 8//14 16//14
f 8//15 5//15 16//15
f 10//16 6//16 17//16
f 6//17 11//17 17//17
f 4//18 9//18 18//18
f 9//19 14//19 18//19
f 6//20 10//20 19//20
f 10//21 12//21 19//21
f 12//22 13//22 19//22
f 13//23 6//23 19//23
f 7//24 10//24 20//24
f 11//25 2//25 20//25
f 2//4 15//4 20//4
f 15//26 7//26 20//26
f 10//27 17//27 20//27
f 17//28 11//28 20//28
f 1//3 4//3 21//3
f 13//29 1//29 21//29
f 14//30 13//30 21//30
f 4//31 18//31 21//31
