# Blender v2.79 (sub 0) OBJ File: ''
# www.blender.org
mtllib 1370_link_0_72.mtl
o Shape_IndexedFaceSet.072_Shape_IndexedFaceSet.3566
v -0.040662 0.348335 -0.444070
v 0.005380 0.367520 -0.440233
v 0.028401 0.356012 -0.440233
v 0.005380 0.352174 -0.451744
v 0.032241 0.348335 -0.440233
vn 0.4101 0.2052 -0.8886
vn 0.2873 0.5748 -0.7662
vn -0.1804 0.5902 -0.7868
vn 0.0187 -0.9346 -0.3553
vn -0.0524 -0.0734 0.9959
vn 0.0000 0.0000 1.0000
usemtl Shape.3571
s off
f 4//1 3//1 5//1
f 2//2 3//2 4//2
f 1//3 2//3 4//3
f 1//4 4//4 5//4
f 2//5 1//5 5//5
f 3//6 2//6 5//6
