# Blender v2.79 (sub 0) OBJ File: ''
# www.blender.org
mtllib 1370_link_0_0.mtl
o Shape_IndexedFaceSet_Shape_IndexedFaceSet.3494
v 0.013051 0.521000 0.085435
v -0.032988 0.517163 0.077761
v -0.032988 0.517163 0.081598
v 0.024567 0.517163 0.077761
v -0.032988 0.521000 0.077761
vn 0.0000 0.0000 -1.0000
vn 0.0000 -1.0000 0.0000
vn 0.0324 -0.8737 0.4854
vn 0.0618 0.9267 -0.3707
vn -0.1171 0.7022 0.7023
vn -1.0000 0.0000 0.0000
usemtl Shape.3499
s off
f 4//1 2//1 5//1
f 3//2 2//2 4//2
f 1//3 3//3 4//3
f 1//4 4//4 5//4
f 3//5 1//5 5//5
f 2//6 3//6 5//6
