# Blender v2.79 (sub 0) OBJ File: ''
# www.blender.org
mtllib 1370_link_2_37.mtl
o Shape_IndexedFaceSet.037_Shape_IndexedFaceSet.8636
v -0.182965 -0.029588 0.681389
v -0.203003 -0.164826 0.115372
v -0.182965 -0.164826 0.115372
v -0.167937 -0.024577 0.115372
v -0.172946 -0.164826 0.676383
v -0.203003 -0.059653 0.676383
v -0.208012 -0.069661 0.115372
v -0.203003 -0.159802 0.661310
v -0.168422 -0.031163 0.689431
v -0.197993 -0.044620 0.115372
v -0.167937 -0.049631 0.115372
v -0.208012 -0.114718 0.270712
v -0.167937 -0.049631 0.696462
v -0.177956 -0.024577 0.165484
v -0.172946 -0.024577 0.691400
v -0.208012 -0.124739 0.115372
v -0.203003 -0.054642 0.521100
v -0.187975 -0.163057 0.674438
vn -0.1455 -0.1637 0.9757
vn 0.0000 0.0000 -1.0000
vn 0.0000 -1.0000 -0.0000
vn 0.9914 -0.1293 -0.0177
vn -0.9995 0.0290 0.0084
vn -0.9999 -0.0019 0.0126
vn 0.9996 0.0267 0.0012
vn 1.0000 0.0000 0.0000
vn 0.9991 -0.0434 0.0000
vn -0.7072 0.7070 0.0000
vn -0.5514 0.8269 -0.1102
vn -0.7398 0.4034 0.5385
vn 0.8252 0.5647 0.0072
vn -0.5109 0.0710 0.8567
vn 0.6898 0.2734 0.6705
vn -0.4507 0.8926 0.0043
vn 0.0000 1.0000 -0.0000
vn -0.9923 -0.1240 0.0011
vn -1.0000 0.0000 0.0000
vn -0.9975 -0.0711 0.0046
vn -0.8334 0.5525 0.0178
vn -0.9845 0.1754 0.0057
vn -0.7966 0.6045 0.0051
vn -0.9284 0.3715 -0.0023
vn -0.1177 -0.9930 0.0063
vn -0.6673 -0.1108 0.7365
vn -0.2192 -0.9756 0.0090
vn -0.4765 -0.0857 0.8750
usemtl Shape.8651
s off
f 5//1 13//1 18//1
f 3//2 2//2 4//2
f 2//3 3//3 5//3
f 4//2 2//2 7//2
f 4//2 7//2 10//2
f 3//2 4//2 11//2
f 5//4 3//4 11//4
f 6//5 7//5 12//5
f 8//6 6//6 12//6
f 4//7 9//7 13//7
f 11//8 4//8 13//8
f 5//9 11//9 13//9
f 10//10 1//10 14//10
f 4//11 10//11 14//11
f 1//12 6//12 15//12
f 9//13 4//13 15//13
f 6//14 13//14 15//14
f 13//15 9//15 15//15
f 14//16 1//16 15//16
f 4//17 14//17 15//17
f 7//2 2//2 16//2
f 2//18 8//18 16//18
f 12//19 7//19 16//19
f 8//20 12//20 16//20
f 6//21 1//21 17//21
f 7//22 6//22 17//22
f 1//23 10//23 17//23
f 10//24 7//24 17//24
f 2//25 5//25 18//25
f 6//26 8//26 18//26
f 8//27 2//27 18//27
f 13//28 6//28 18//28
