# Blender v2.79 (sub 0) OBJ File: ''
# www.blender.org
mtllib 1370_link_2_39.mtl
o Shape_IndexedFaceSet.039_Shape_IndexedFaceSet.8638
v -0.077769 -0.054628 0.846716
v -0.132861 -0.129743 0.706481
v -0.112822 -0.129743 0.706481
v -0.127860 -0.129743 0.916834
v -0.062740 -0.099695 0.916834
v -0.062740 -0.049625 0.706481
v -0.132861 -0.089679 0.766611
v -0.062740 -0.074660 0.706481
v -0.062740 -0.074660 0.916834
v -0.097817 -0.129743 0.916834
v -0.147899 -0.124739 0.841712
v -0.112822 -0.079672 0.851720
v -0.067758 -0.039609 0.786648
v -0.082788 -0.054628 0.706481
v -0.102827 -0.059641 0.786648
v -0.127860 -0.099695 0.706481
v -0.147899 -0.114724 0.761607
v -0.087789 -0.084676 0.916834
v -0.107812 -0.129743 0.726538
vn 0.6502 -0.7590 -0.0342
vn 0.0000 -1.0000 0.0000
vn 0.0000 0.0000 -1.0000
vn 1.0000 0.0000 -0.0000
vn 0.0000 0.0000 1.0000
vn -0.2644 -0.9644 0.0063
vn -0.7962 0.5935 0.1177
vn -0.7904 0.5601 0.2481
vn 0.0901 0.9626 0.2557
vn 0.9682 0.2484 0.0296
vn -0.2399 0.9613 -0.1351
vn -0.4948 0.8662 -0.0695
vn -0.7347 0.6719 0.0940
vn -0.5577 0.8135 0.1648
vn -0.4916 0.8606 0.1332
vn -0.6613 0.7406 -0.1190
vn -0.6963 0.6964 -0.1739
vn -0.8224 -0.5645 -0.0706
vn -0.8611 0.5045 0.0631
vn -0.9412 0.1566 -0.2994
vn -0.8324 0.5313 -0.1577
vn -0.3510 0.8778 0.3260
vn -0.5347 0.8017 0.2672
vn -0.7079 0.6294 0.3205
vn 0.7276 -0.6615 -0.1817
vn 0.7577 -0.6481 -0.0771
usemtl Shape.8653
s off
f 5//1 10//1 19//1
f 2//2 3//2 4//2
f 3//3 2//3 6//3
f 3//3 6//3 8//3
f 6//4 5//4 8//4
f 4//5 5//5 9//5
f 5//4 6//4 9//4
f 4//2 3//2 10//2
f 5//5 4//5 10//5
f 2//6 4//6 11//6
f 7//7 11//7 12//7
f 11//8 4//8 12//8
f 1//9 9//9 13//9
f 9//10 6//10 13//10
f 6//3 2//3 14//3
f 13//11 6//11 14//11
f 13//12 14//12 15//12
f 7//13 12//13 15//13
f 12//14 1//14 15//14
f 1//15 13//15 15//15
f 14//16 7//16 15//16
f 14//3 2//3 16//3
f 7//17 14//17 16//17
f 2//18 11//18 17//18
f 11//19 7//19 17//19
f 16//20 2//20 17//20
f 7//21 16//21 17//21
f 9//22 1//22 18//22
f 4//5 9//5 18//5
f 1//23 12//23 18//23
f 12//24 4//24 18//24
f 3//25 8//25 19//25
f 8//26 5//26 19//26
f 10//2 3//2 19//2
