# Blender v2.79 (sub 0) OBJ File: ''
# www.blender.org
mtllib 1370_link_2_35.mtl
o Shape_IndexedFaceSet.035_Shape_IndexedFaceSet.8634
v -0.127862 0.255963 0.010178
v -0.172946 0.075625 -0.004854
v -0.172946 0.075625 0.000160
v -0.126341 0.069541 0.036573
v -0.147902 0.245936 0.025199
v -0.137884 0.075625 -0.004854
v -0.172946 0.245936 -0.004854
v -0.137884 0.245936 -0.004854
v -0.127862 0.075625 0.005169
v -0.127862 0.255963 0.025199
v -0.142893 0.075625 0.030204
vn -0.7070 -0.0000 0.7072
vn -0.1294 -0.9916 0.0000
vn 0.0000 -0.9894 -0.1453
vn -1.0000 0.0000 0.0000
vn -0.7681 0.0188 0.6401
vn 0.0000 0.0000 -1.0000
vn -0.0000 0.8319 -0.5549
vn 0.8271 0.0156 -0.5618
vn 0.9988 0.0013 -0.0481
vn 0.1957 -0.9610 -0.1956
vn 0.7071 0.0000 -0.7071
vn 1.0000 0.0082 0.0000
vn -0.0303 0.0606 0.9977
vn -0.2171 0.9761 0.0000
vn -0.4193 0.8379 0.3494
vn -0.4564 -0.7637 0.4565
vn -0.3536 0.0171 0.9352
usemtl Shape.8649
s off
f 5//1 3//1 11//1
f 3//2 2//2 4//2
f 4//3 2//3 6//3
f 2//4 3//4 7//4
f 3//5 5//5 7//5
f 6//6 2//6 7//6
f 6//6 7//6 8//6
f 7//7 1//7 8//7
f 8//8 1//8 9//8
f 1//9 4//9 9//9
f 4//10 6//10 9//10
f 6//11 8//11 9//11
f 4//12 1//12 10//12
f 5//13 4//13 10//13
f 1//14 7//14 10//14
f 7//15 5//15 10//15
f 3//16 4//16 11//16
f 4//17 5//17 11//17
