# Blender v2.79 (sub 0) OBJ File: ''
# www.blender.org
mtllib 1370_link_0_35.mtl
o Shape_IndexedFaceSet.035_Shape_IndexedFaceSet.3529
v 0.001547 0.290794 -0.470922
v 0.100736 0.351481 -0.399692
v 0.097469 0.348335 -0.424894
v 0.097469 0.252421 -0.428727
v -0.006129 0.344488 -0.428727
v 0.001547 0.252421 -0.451737
v 0.097469 0.252421 -0.447898
v -0.006129 0.344488 -0.455570
v 0.097469 0.313789 -0.440225
v -0.002443 0.255697 -0.468465
v 0.093626 0.340651 -0.401870
v 0.013067 0.348335 -0.451737
v 0.013067 0.252421 -0.470922
v 0.085939 0.271607 -0.451737
v -0.006129 0.252421 -0.459410
vn -0.2506 -0.8732 -0.4180
vn 0.9995 -0.0330 0.0000
vn 0.0000 -1.0000 0.0000
vn 0.9889 0.0602 -0.1357
vn 0.9958 0.0114 -0.0908
vn -0.8101 0.0512 -0.5841
vn 0.1400 -0.2828 0.9489
vn -0.2607 -0.0229 0.9651
vn -0.2605 -0.2545 0.9313
vn -0.2230 -0.2927 0.9298
vn 0.0410 0.9908 -0.1290
vn -0.0896 0.9918 0.0910
vn 0.1312 0.2898 -0.9480
vn -0.1965 0.9805 0.0000
vn 0.2791 0.3895 -0.8777
vn 0.2358 0.2646 -0.9351
vn -0.1666 -0.0500 -0.9848
vn 0.2582 0.1880 -0.9476
vn 0.4730 0.1093 -0.8743
vn 0.2364 0.0710 -0.9691
vn 0.2630 -0.0349 -0.9642
vn -0.6881 -0.2294 0.6884
vn -1.0000 -0.0000 0.0000
vn -0.9280 0.0155 -0.3722
usemtl Shape.3534
s off
f 10//1 13//1 15//1
f 2//2 4//2 7//2
f 4//3 6//3 7//3
f 3//4 2//4 9//4
f 2//5 7//5 9//5
f 8//6 1//6 10//6
f 4//7 2//7 11//7
f 2//8 5//8 11//8
f 5//9 6//9 11//9
f 6//10 4//10 11//10
f 2//11 3//11 12//11
f 5//12 2//12 12//12
f 1//13 8//13 12//13
f 8//14 5//14 12//14
f 3//15 9//15 12//15
f 9//16 1//16 12//16
f 7//3 6//3 13//3
f 10//17 1//17 13//17
f 1//18 9//18 14//18
f 9//19 7//19 14//19
f 13//20 1//20 14//20
f 7//21 13//21 14//21
f 6//22 5//22 15//22
f 5//23 8//23 15//23
f 8//24 10//24 15//24
f 13//3 6//3 15//3
