# Blender v2.79 (sub 0) OBJ File: ''
# www.blender.org
mtllib 1370_link_0_20.mtl
o Shape_IndexedFaceSet.020_Shape_IndexedFaceSet.3514
v -0.236342 0.636086 -0.060371
v -0.259371 0.398239 -0.110242
v -0.259371 0.398239 -0.106409
v -0.209496 0.432770 -0.064213
v -0.232514 0.640312 -0.107889
v -0.240180 0.398239 -0.060371
v -0.204261 0.638252 -0.059069
v -0.255527 0.636086 -0.098735
v -0.240180 0.398239 -0.110242
v -0.251689 0.425109 -0.075725
v -0.255527 0.636086 -0.110242
v -0.213334 0.398239 -0.060371
v -0.247851 0.636086 -0.071888
v -0.203854 0.639998 -0.062792
v -0.236342 0.501830 -0.110242
vn 0.8439 -0.0142 -0.5364
vn 0.0000 -1.0000 0.0000
vn -0.0406 0.0007 0.9992
vn -0.9999 0.0162 0.0000
vn -0.9091 -0.1728 0.3790
vn -0.9717 0.0081 0.2362
vn -0.1806 0.9836 0.0000
vn 0.0000 0.0000 -1.0000
vn 0.8461 -0.0349 0.5318
vn 0.0000 -0.0054 1.0000
vn 0.8707 -0.1489 -0.4687
vn -0.7073 0.0114 0.7068
vn -0.1625 0.9856 0.0465
vn -0.7972 0.0035 0.6037
vn -0.9614 0.0125 0.2749
vn 0.9950 -0.0277 0.0958
vn -0.0781 0.9059 0.4163
vn -0.1107 0.9877 0.1106
vn -0.1032 0.9920 0.0725
vn 0.8423 -0.0312 -0.5381
vn 0.0991 0.0142 -0.9950
vn 0.8506 -0.0196 -0.5254
usemtl Shape.3519
s off
f 5//1 14//1 15//1
f 3//2 2//2 6//2
f 1//3 6//3 7//3
f 2//4 3//4 8//4
f 6//2 2//2 9//2
f 3//5 6//5 10//5
f 8//6 3//6 10//6
f 2//4 8//4 11//4
f 8//7 5//7 11//7
f 9//8 2//8 11//8
f 4//9 7//9 12//9
f 7//10 6//10 12//10
f 9//11 4//11 12//11
f 6//2 9//2 12//2
f 6//12 1//12 13//12
f 5//13 8//13 13//13
f 10//14 6//14 13//14
f 8//15 10//15 13//15
f 7//16 4//16 14//16
f 1//17 7//17 14//17
f 13//18 1//18 14//18
f 5//19 13//19 14//19
f 4//20 9//20 15//20
f 11//21 5//21 15//21
f 9//8 11//8 15//8
f 14//22 4//22 15//22
