# Blender v2.79 (sub 0) OBJ File: ''
# www.blender.org
mtllib 1370_link_0_25.mtl
o Shape_IndexedFaceSet.025_Shape_IndexedFaceSet.3519
v 0.270134 0.394379 -0.202339
v 0.239445 0.636062 -0.079556
v 0.243278 0.636062 -0.087248
v 0.247210 0.639367 -0.196128
v 0.220259 0.394379 -0.083402
v 0.243278 0.394379 -0.079556
v 0.270134 0.636062 -0.190813
v 0.215446 0.640476 -0.085286
v 0.250943 0.394379 -0.202339
v 0.270134 0.394379 -0.186979
v 0.270134 0.636062 -0.202339
v 0.216285 0.636698 -0.079233
v 0.251084 0.638285 -0.203469
v 0.220259 0.394379 -0.079556
v 0.216426 0.547835 -0.083402
vn -0.9997 -0.0250 0.0000
vn 0.8949 0.0142 0.4460
vn 0.0000 -1.0000 0.0000
vn 0.9680 0.0080 0.2510
vn 0.1617 0.9836 0.0805
vn 0.1593 0.9864 0.0413
vn 0.1360 0.9903 0.0291
vn -0.9613 -0.0077 -0.2754
vn 0.9701 0.0038 0.2425
vn 1.0000 0.0000 0.0000
vn 0.1427 0.9898 0.0000
vn 0.0140 0.0002 0.9999
vn 0.0307 0.8498 0.5262
vn 0.0000 -0.0046 -1.0000
vn -0.8845 -0.0017 -0.4665
vn 0.1203 0.9893 -0.0823
vn 0.0592 0.0000 -0.9982
vn 0.0000 -0.0013 1.0000
vn -0.9509 -0.0160 0.3090
vn -0.9680 -0.0242 -0.2497
vn -0.9654 -0.0155 -0.2602
vn -0.9911 -0.0078 0.1325
usemtl Shape.3524
s off
f 5//1 14//1 15//1
f 3//2 2//2 6//2
f 5//3 1//3 6//3
f 3//4 6//4 7//4
f 2//5 3//5 8//5
f 3//6 7//6 8//6
f 7//7 4//7 8//7
f 1//3 5//3 9//3
f 8//8 4//8 9//8
f 6//3 1//3 10//3
f 7//9 6//9 10//9
f 1//10 7//10 10//10
f 4//11 7//11 11//11
f 7//10 1//10 11//10
f 6//12 2//12 12//12
f 2//13 8//13 12//13
f 1//14 9//14 13//14
f 9//15 4//15 13//15
f 4//16 11//16 13//16
f 11//17 1//17 13//17
f 5//3 6//3 14//3
f 6//18 12//18 14//18
f 14//19 12//19 15//19
f 9//20 5//20 15//20
f 8//21 9//21 15//21
f 12//22 8//22 15//22
