# Blender v2.79 (sub 0) OBJ File: ''
# www.blender.org
mtllib 1370_link_1_63.mtl
o Shape_IndexedFaceSet.063_Shape_IndexedFaceSet.7814
v 0.013608 -0.331687 -0.470875
v 0.001321 -0.350769 -0.440839
v -0.001410 -0.350769 -0.440839
v 0.013608 -0.398577 -0.442206
v -0.001410 -0.311209 -0.469505
v 0.014975 -0.308467 -0.469505
v 0.014975 -0.372623 -0.440839
v -0.001410 -0.300268 -0.462678
v -0.001410 -0.373990 -0.442206
v 0.009512 -0.300268 -0.468141
v 0.014975 -0.398577 -0.440839
v -0.001410 -0.300268 -0.470875
v 0.014975 -0.331687 -0.470875
v 0.010879 -0.300268 -0.470875
v 0.002686 -0.311209 -0.458582
v 0.002686 -0.315299 -0.470875
v -0.001410 -0.373990 -0.440839
vn 0.0000 0.0000 1.0000
vn 0.0000 0.3969 0.9179
vn -1.0000 -0.0000 0.0000
vn 0.6433 0.3123 0.6990
vn 1.0000 0.0000 0.0000
vn 0.0000 1.0000 0.0000
vn 0.0000 -0.3939 -0.9191
vn 0.6740 -0.3026 -0.6739
vn 0.0000 0.0000 -1.0000
vn 0.7930 0.4624 0.3965
vn 0.4117 0.0537 -0.9097
vn 0.5307 0.3315 0.7800
vn 0.1636 0.3990 0.9022
vn 0.5460 0.3315 0.7694
vn 0.3997 0.4489 0.7992
vn -0.5088 -0.3391 -0.7912
vn -0.5493 -0.3355 -0.7653
vn -0.5762 -0.3259 -0.7495
vn -0.4149 -0.1130 -0.9028
vn -0.8534 -0.5213 0.0000
vn -0.6396 -0.4263 0.6397
usemtl Shape.7824
s off
f 11//1 3//1 17//1
f 2//1 3//1 7//1
f 3//2 2//2 8//2
f 5//3 3//3 8//3
f 3//3 5//3 9//3
f 7//4 6//4 10//4
f 7//1 3//1 11//1
f 6//5 7//5 11//5
f 5//3 8//3 12//3
f 8//6 10//6 12//6
f 4//7 1//7 13//7
f 11//8 4//8 13//8
f 6//5 11//5 13//5
f 1//9 12//9 13//9
f 13//9 12//9 14//9
f 10//10 6//10 14//10
f 12//6 10//6 14//6
f 6//11 13//11 14//11
f 2//12 7//12 15//12
f 8//13 2//13 15//13
f 7//14 10//14 15//14
f 10//15 8//15 15//15
f 1//16 4//16 16//16
f 4//17 9//17 16//17
f 9//18 5//18 16//18
f 12//9 1//9 16//9
f 5//19 12//19 16//19
f 3//3 9//3 17//3
f 9//20 4//20 17//20
f 4//21 11//21 17//21
