# Blender v2.79 (sub 0) OBJ File: ''
# www.blender.org
mtllib 1370_link_1_5.mtl
o Shape_IndexedFaceSet.005_Shape_IndexedFaceSet.7756
v -0.032813 -0.328949 -0.466773
v -0.015066 -0.365800 -0.440839
v -0.015066 -0.358976 -0.443570
v -0.025985 -0.395846 -0.470875
v -0.032813 -0.395846 -0.440839
v -0.015066 -0.301633 -0.470875
v -0.015066 -0.387648 -0.442206
v -0.032813 -0.395846 -0.470875
v -0.015066 -0.322125 -0.470875
v -0.031447 -0.318030 -0.469505
v -0.028716 -0.379449 -0.440839
v -0.019162 -0.308476 -0.466773
v -0.021893 -0.395846 -0.440839
v -0.032813 -0.323480 -0.470875
v -0.032813 -0.386283 -0.442206
v -0.021893 -0.354872 -0.447666
v -0.024619 -0.308476 -0.469505
vn -0.4652 0.3545 0.8111
vn 1.0000 0.0000 -0.0000
vn -1.0000 0.0000 0.0000
vn 0.0000 -1.0000 0.0000
vn 0.0000 0.0000 -1.0000
vn 0.9380 -0.1389 -0.3175
vn -0.0000 0.0000 1.0000
vn 0.1828 0.4227 0.8877
vn 0.7558 -0.6466 -0.1030
vn 0.2650 -0.0602 0.9624
vn -0.9544 0.1792 0.2389
vn -0.7949 0.2390 0.5577
vn -0.4928 0.1231 0.8614
vn -0.6904 0.2805 0.6668
vn -0.3165 0.3525 0.8807
vn -0.3378 0.3378 0.8785
vn -0.2983 0.3784 0.8763
vn -0.4164 0.3671 0.8318
vn -0.4905 0.3506 0.7978
vn -0.3489 0.6266 0.6969
vn -0.3137 0.2548 -0.9147
vn -0.4509 0.3223 -0.8324
usemtl Shape.7766
s off
f 11//1 16//1 17//1
f 3//2 2//2 6//2
f 6//2 2//2 7//2
f 5//3 1//3 8//3
f 4//4 5//4 8//4
f 6//5 4//5 8//5
f 4//5 6//5 9//5
f 7//6 4//6 9//6
f 6//2 7//2 9//2
f 5//7 2//7 11//7
f 3//8 6//8 12//8
f 5//4 4//4 13//4
f 2//7 5//7 13//7
f 4//9 7//9 13//9
f 7//10 2//10 13//10
f 8//3 1//3 14//3
f 6//5 8//5 14//5
f 1//11 10//11 14//11
f 1//3 5//3 15//3
f 10//12 1//12 15//12
f 5//13 11//13 15//13
f 11//14 10//14 15//14
f 2//15 3//15 16//15
f 11//16 2//16 16//16
f 3//17 12//17 16//17
f 16//18 12//18 17//18
f 10//19 11//19 17//19
f 12//20 6//20 17//20
f 6//21 14//21 17//21
f 14//22 10//22 17//22
