# Blender v2.79 (sub 0) OBJ File: ''
# www.blender.org
mtllib 1370_link_0_65.mtl
o Shape_IndexedFaceSet.065_Shape_IndexedFaceSet.3559
v 0.247112 0.398216 -0.321298
v 0.204909 0.336824 -0.382671
v 0.204909 0.398216 -0.382671
v 0.227923 0.398216 -0.313619
v 0.239432 0.336824 -0.351974
v 0.227923 0.336824 -0.313619
v 0.204909 0.348344 -0.351974
v 0.247112 0.336824 -0.313619
v 0.235595 0.398216 -0.355814
v 0.204909 0.398216 -0.355814
vn -0.8773 0.0368 0.4785
vn 0.0000 1.0000 -0.0000
vn 0.0000 -1.0000 0.0000
vn -1.0000 0.0000 0.0000
vn -0.7255 -0.6443 0.2418
vn -0.8575 0.0000 0.5145
vn 0.3691 0.1154 0.9222
vn 0.9802 -0.0246 -0.1963
vn 0.0000 0.0000 1.0000
vn 0.6586 0.0000 -0.7525
vn 0.9478 0.0395 -0.3163
vn 0.6645 -0.0052 -0.7473
usemtl Shape.3564
s off
f 7//1 4//1 10//1
f 1//2 3//2 4//2
f 2//3 5//3 6//3
f 3//4 2//4 7//4
f 2//5 6//5 7//5
f 6//6 4//6 7//6
f 1//7 4//7 8//7
f 5//8 1//8 8//8
f 6//3 5//3 8//3
f 4//9 6//9 8//9
f 3//2 1//2 9//2
f 2//10 3//10 9//10
f 1//11 5//11 9//11
f 5//12 2//12 9//12
f 4//2 3//2 10//2
f 3//4 7//4 10//4
