# Blender v2.79 (sub 0) OBJ File: ''
# www.blender.org
mtllib 1370_link_0_71.mtl
o Shape_IndexedFaceSet.071_Shape_IndexedFaceSet.3565
v -0.117407 0.352174 -0.382685
v -0.170223 0.356896 -0.426070
v -0.221001 0.398216 -0.351995
v -0.221001 0.325313 -0.351995
v -0.140433 0.398216 -0.432550
v -0.148111 0.394370 -0.348153
v -0.109728 0.325313 -0.432550
v -0.167270 0.325313 -0.348153
v -0.109728 0.394370 -0.382685
v -0.221001 0.398216 -0.382685
v -0.213322 0.332992 -0.386519
v -0.136599 0.379020 -0.348153
v -0.159624 0.344509 -0.432550
v -0.109728 0.325313 -0.409526
v -0.170303 0.393124 -0.426655
v -0.109728 0.386691 -0.405693
v -0.221001 0.340663 -0.348153
v -0.221001 0.340663 -0.382685
vn -0.6552 0.0000 -0.7555
vn 0.0000 -1.0000 0.0000
vn 0.0476 0.9977 0.0476
vn 0.0497 0.9972 0.0552
vn -1.0000 0.0000 0.0000
vn 0.0000 1.0000 0.0000
vn -0.1824 -0.9504 -0.2520
vn 0.0000 0.0000 1.0000
vn 0.6557 -0.3745 0.6556
vn 0.5978 0.4484 0.6645
vn 0.8113 -0.1476 0.5657
vn 0.0000 0.0000 -1.0000
vn -0.3007 -0.7817 -0.5464
vn 0.6590 -0.4290 0.6178
vn 0.8936 -0.1626 0.4184
vn 1.0000 -0.0000 0.0000
vn -0.2260 0.9031 -0.3652
vn -0.5341 -0.0148 -0.8453
vn -0.2051 0.0733 -0.9760
vn 0.6894 0.2904 -0.6636
vn 0.5348 0.8015 -0.2675
vn -0.0490 0.0665 0.9966
vn -0.0692 -0.2422 0.9678
vn -0.7450 -0.5966 -0.2984
vn -0.6207 -0.1263 -0.7738
vn -0.6058 -0.2251 -0.7631
vn -0.6470 -0.0137 -0.7624
usemtl Shape.3570
s off
f 10//1 15//1 18//1
f 4//2 7//2 8//2
f 5//3 3//3 9//3
f 3//4 6//4 9//4
f 4//5 3//5 10//5
f 3//6 5//6 10//6
f 7//7 4//7 11//7
f 6//8 8//8 12//8
f 8//9 1//9 12//9
f 9//10 6//10 12//10
f 1//11 9//11 12//11
f 5//12 7//12 13//12
f 7//13 11//13 13//13
f 1//14 8//14 14//14
f 8//2 7//2 14//2
f 9//15 1//15 14//15
f 7//16 9//16 14//16
f 10//17 5//17 15//17
f 13//18 2//18 15//18
f 5//19 13//19 15//19
f 7//20 5//20 16//20
f 5//21 9//21 16//21
f 9//16 7//16 16//16
f 3//5 4//5 17//5
f 6//22 3//22 17//22
f 4//23 8//23 17//23
f 8//8 6//8 17//8
f 4//5 10//5 18//5
f 11//24 4//24 18//24
f 2//25 13//25 18//25
f 13//26 11//26 18//26
f 15//27 2//27 18//27
