# Blender v2.79 (sub 0) OBJ File: ''
# www.blender.org
mtllib 1370_link_2_72.mtl
o Shape_IndexedFaceSet.072_Shape_IndexedFaceSet.8671
v -0.142893 -0.355167 0.060269
v -0.167933 -0.214943 0.060269
v -0.171820 -0.220826 0.058641
v -0.142893 -0.214943 -0.004854
v -0.172946 -0.450339 -0.004854
v -0.127862 -0.450339 0.005174
v -0.127862 -0.214943 0.030206
v -0.172946 -0.234992 -0.004854
v -0.127862 -0.305115 0.060269
v -0.172946 -0.270042 0.060269
v -0.127862 -0.450339 0.025209
v -0.127862 -0.214943 0.005174
v -0.152906 -0.450339 0.020205
v -0.142893 -0.450339 -0.004854
vn 0.0000 -1.0000 -0.0000
vn 0.0000 1.0000 -0.0000
vn -0.8144 0.5692 -0.1126
vn -0.5427 0.8136 -0.2087
vn -0.0000 0.0000 -1.0000
vn 0.0000 0.0000 1.0000
vn 0.5799 0.2577 0.7729
vn 1.0000 0.0000 0.0000
vn -0.4366 0.0397 0.8988
vn -0.9997 0.0233 0.0125
vn -1.0000 0.0000 0.0000
vn 0.6157 -0.1849 0.7659
vn 0.5550 0.0000 -0.8319
vn -0.6580 -0.2323 0.7163
vn -0.7618 -0.2201 0.6092
vn -0.1824 -0.3651 0.9129
usemtl Shape.8686
s off
f 6//1 5//1 14//1
f 4//2 2//2 7//2
f 3//3 2//3 8//3
f 2//4 4//4 8//4
f 4//5 5//5 8//5
f 2//6 1//6 9//6
f 7//7 2//7 9//7
f 6//8 7//8 9//8
f 1//6 2//6 10//6
f 2//9 3//9 10//9
f 3//10 8//10 10//10
f 8//11 5//11 10//11
f 5//1 6//1 11//1
f 9//12 1//12 11//12
f 6//8 9//8 11//8
f 6//13 4//13 12//13
f 4//2 7//2 12//2
f 7//8 6//8 12//8
f 1//14 10//14 13//14
f 10//15 5//15 13//15
f 11//16 1//16 13//16
f 5//1 11//1 13//1
f 5//5 4//5 14//5
f 4//13 6//13 14//13
