# Blender v2.79 (sub 0) OBJ File: ''
# www.blender.org
mtllib 1370_link_2_86.mtl
o Shape_IndexedFaceSet.086_Shape_IndexedFaceSet.8685
v 0.137628 -0.039590 0.626330
v 0.157662 -0.024563 0.696448
v 0.142641 -0.024563 0.701464
v 0.157662 -0.049610 0.696448
v 0.097561 -0.029575 0.701464
v 0.156531 -0.025035 0.627744
v 0.117606 -0.024563 0.626330
vn 0.0124 0.9999 -0.0071
vn 0.3167 0.0000 0.9485
vn -0.3192 -0.9466 -0.0441
vn 0.0205 -0.1845 0.9826
vn 0.9999 0.0000 -0.0165
vn 0.5989 -0.7508 -0.2784
vn 0.0369 0.0491 -0.9981
vn -0.0000 1.0000 0.0000
vn -0.5870 -0.7822 -0.2088
vn -0.1104 0.9932 0.0368
usemtl Shape.8700
s off
f 2//1 6//1 7//1
f 2//2 3//2 4//2
f 1//3 4//3 5//3
f 4//4 3//4 5//4
f 2//5 4//5 6//5
f 4//6 1//6 6//6
f 6//7 1//7 7//7
f 3//8 2//8 7//8
f 1//9 5//9 7//9
f 5//10 3//10 7//10
