# Blender v2.79 (sub 0) OBJ File: ''
# www.blender.org
mtllib 9748_link_0_0.mtl
o Shape_IndexedFaceSet_Shape_IndexedFaceSet.15827
v 0.681335 0.556375 -0.510226
v 0.677111 0.539798 -0.493719
v 0.685427 -0.179945 -0.125663
v -0.642258 0.527401 -0.539254
v -0.625758 -0.146791 -0.096678
v -0.650574 0.552195 -0.501951
v 0.677111 -0.117889 -0.113185
v 0.681335 0.531437 -0.539254
v -0.642258 -0.179945 -0.129779
v 0.201505 0.204720 -0.357198
v 0.673019 -0.167476 -0.138055
v -0.625758 0.469452 -0.452299
v 0.681335 -0.155079 -0.096678
v -0.220377 0.204720 -0.357198
v -0.639099 -0.165456 -0.100491
v -0.644208 0.544646 -0.532976
v 0.677111 0.448767 -0.493719
v -0.642258 -0.117889 -0.167040
v 0.664703 0.312256 -0.361314
v -0.638166 -0.088914 -0.129779
v -0.658890 0.312256 -0.369589
v -0.654666 0.494318 -0.514428
v 0.689651 0.328762 -0.415125
v -0.654666 -0.080626 -0.138055
v 0.193188 0.262596 -0.390299
v 0.674091 0.544172 -0.532690
v 0.677006 -0.171190 -0.107631
v 0.685427 -0.014461 -0.175272
v -0.588533 0.556375 -0.506110
v -0.638166 0.126302 -0.253909
v 0.664703 0.469452 -0.452299
v -0.646350 0.519040 -0.481327
v 0.673019 -0.088914 -0.129779
v -0.654159 -0.164981 -0.106448
v 0.673019 0.390890 -0.460617
v -0.490941 0.551702 -0.520105
v 0.681335 -0.134394 -0.104953
v -0.652409 -0.168197 -0.123393
v 0.640423 0.551849 -0.520187
v 0.685427 -0.155079 -0.142214
v 0.275954 0.184179 -0.344807
v 0.689651 0.192323 -0.336488
v -0.174836 0.233622 -0.373749
v 0.681335 0.481777 -0.460617
v -0.588533 0.539798 -0.493675
v -0.642258 -0.117889 -0.113185
v -0.654666 0.122122 -0.253909
v 0.673019 0.519040 -0.481327
v -0.633942 0.390890 -0.406850
v 0.681335 0.212937 -0.357198
v -0.646350 0.262596 -0.386140
v 0.073198 0.262596 -0.390299
v -0.651675 0.527764 -0.524585
v -0.497451 0.556375 -0.506110
v 0.668927 0.018622 -0.245633
v -0.651503 -0.147255 -0.107287
v -0.646350 -0.039254 -0.158764
vn -0.1948 0.4907 0.8493
vn 0.0022 -0.7038 -0.7104
vn 0.0000 -0.5074 -0.8617
vn -0.0013 -0.1993 0.9799
vn -0.0010 0.3420 -0.9397
vn 0.0015 -0.4825 -0.8759
vn -0.0005 -0.5148 -0.8573
vn -0.0084 -0.4996 -0.8662
vn -0.0002 -0.5076 -0.8616
vn -0.9971 0.0604 0.0468
vn 0.9994 0.0269 -0.0231
vn 0.0011 -0.4877 -0.8730
vn 0.0052 -0.4959 -0.8684
vn 0.5964 0.6088 -0.5231
vn 0.0004 0.4583 -0.8888
vn -0.0014 -0.8998 0.4363
vn 0.6249 -0.5468 0.5573
vn -0.0015 -0.8963 0.4435
vn 0.0020 -0.5626 0.8267
vn 0.9932 0.0334 0.1115
vn -0.0818 0.9644 -0.2514
vn -0.0000 0.5009 0.8655
vn -0.0000 0.5052 0.8630
vn 0.0319 0.5001 0.8654
vn -0.0000 0.4970 0.8678
vn 0.0001 0.4999 0.8661
vn -0.0000 0.4996 0.8662
vn -0.3649 0.0712 0.9283
vn -0.2060 -0.8681 0.4517
vn -0.9998 0.0023 0.0221
vn 0.0058 -0.4968 -0.8679
vn -0.0010 0.9463 -0.3233
vn -0.0105 0.9242 -0.3817
vn 0.0014 0.4466 0.8947
vn 0.0024 0.3714 0.9285
vn 0.2531 0.4829 0.8383
vn 0.9811 0.0719 0.1797
vn -0.7503 -0.3403 -0.5667
vn -0.7579 -0.3335 -0.5607
vn -0.9886 -0.0790 -0.1281
vn -0.7420 -0.6685 0.0502
vn -0.9940 -0.0602 -0.0912
vn 0.0206 0.8757 -0.4824
vn 0.0004 0.8527 -0.5224
vn -0.0001 0.9107 -0.4132
vn -0.0001 0.8776 -0.4793
vn 0.2648 -0.5343 -0.8027
vn 0.0053 -0.5024 -0.8646
vn 0.0067 -0.4986 -0.8668
vn 0.9990 0.0128 0.0425
vn 0.9933 0.0575 0.0998
vn 0.9907 -0.0754 -0.1132
vn 0.7736 -0.3164 -0.5490
vn -0.0026 -0.4939 -0.8695
vn 0.0000 -0.4969 -0.8678
vn 0.0000 -0.4965 -0.8681
vn 0.7340 0.3761 0.5655
vn 0.0956 0.4985 0.8616
vn 0.9846 0.0968 0.1455
vn 0.2397 0.4854 0.8408
vn 0.9814 0.1018 0.1629
vn 0.0000 0.5553 0.8316
vn -0.0079 0.5274 0.8495
vn -0.0000 0.4959 0.8684
vn -0.0249 0.4995 0.8660
vn -0.6525 0.3832 0.6537
vn -0.8224 0.2822 0.4939
vn -0.2752 0.4823 0.8317
vn 0.0805 0.4992 0.8628
vn 0.0442 0.5001 0.8648
vn 0.0340 0.5007 0.8650
vn 0.0000 0.5126 0.8586
vn 0.0000 0.5112 0.8594
vn -0.0000 0.5008 0.8656
vn -0.0001 0.5004 0.8658
vn -0.0114 0.5016 0.8650
vn -0.0241 0.5006 0.8654
vn 0.3332 -0.4679 -0.8186
vn 0.6539 -0.3754 -0.6568
vn 0.0642 -0.4992 -0.8641
vn 0.0678 -0.4989 -0.8640
vn 0.2078 -0.4917 -0.8456
vn 0.6604 -0.3733 -0.6516
vn -0.0781 -0.4981 -0.8636
vn -0.3840 -0.4577 -0.8019
vn -0.6065 -0.4017 -0.6862
vn 0.0000 -0.4903 -0.8716
vn -0.0007 -0.4916 -0.8708
vn 0.0000 -0.4960 -0.8683
vn -0.9245 0.2807 -0.2580
vn -0.8360 0.1018 -0.5392
vn -0.9963 0.0782 -0.0359
vn -0.8393 -0.0879 -0.5366
vn 0.0025 0.7053 0.7089
vn 0.0017 0.6733 0.7394
vn 0.0000 1.0000 -0.0005
vn 0.0000 0.7053 0.7089
vn 0.0151 -0.5002 -0.8658
vn 0.0077 -0.5003 -0.8658
vn 0.0078 -0.5001 -0.8659
vn -0.3806 0.1005 0.9193
vn -0.8922 0.1538 0.4247
vn -0.3688 0.2932 0.8821
vn -0.5521 0.3278 0.7666
vn -0.0536 0.4995 0.8646
vn -0.0420 0.4994 0.8654
vn -0.2627 0.4736 0.8407
vn -0.2927 0.4744 0.8302
usemtl Shape.15844
s off
f 32//1 47//1 57//1
f 3//2 9//2 11//2
f 10//3 11//3 14//3
f 13//4 5//4 15//4
f 8//5 4//5 16//5
f 4//6 8//6 17//6
f 11//7 9//7 18//7
f 4//8 14//8 18//8
f 14//9 11//9 18//9
f 21//10 6//10 22//10
f 8//11 1//11 23//11
f 4//12 17//12 25//12
f 17//13 10//13 25//13
f 1//14 8//14 26//14
f 8//15 16//15 26//15
f 9//16 3//16 27//16
f 3//17 13//17 27//17
f 15//18 9//18 27//18
f 13//19 15//19 27//19
f 13//20 3//20 28//20
f 16//21 6//21 29//21
f 12//22 19//22 31//22
f 12//23 31//23 32//23
f 7//24 19//24 33//24
f 20//25 7//25 33//25
f 19//26 30//26 33//26
f 30//27 20//27 33//27
f 15//28 5//28 34//28
f 9//29 15//29 34//29
f 24//30 21//30 34//30
f 10//31 17//31 35//31
f 29//32 1//32 36//32
f 16//33 29//33 36//33
f 7//34 5//34 37//34
f 5//35 13//35 37//35
f 28//36 7//36 37//36
f 13//37 28//37 37//37
f 18//38 9//38 38//38
f 22//39 18//39 38//39
f 21//40 22//40 38//40
f 9//41 34//41 38//41
f 34//42 21//42 38//42
f 1//43 26//43 39//43
f 26//44 16//44 39//44
f 36//45 1//45 39//45
f 16//46 36//46 39//46
f 3//47 11//47 40//47
f 11//48 10//48 41//48
f 10//49 35//49 41//49
f 28//50 3//50 42//50
f 23//51 28//51 42//51
f 3//52 40//52 42//52
f 40//53 23//53 42//53
f 14//54 4//54 43//54
f 10//55 14//55 43//55
f 25//56 10//56 43//56
f 1//57 2//57 44//57
f 2//58 7//58 44//58
f 23//59 1//59 44//59
f 7//60 28//60 44//60
f 28//61 23//61 44//61
f 2//62 6//62 45//62
f 6//63 32//63 45//63
f 5//64 7//64 46//64
f 7//25 20//25 46//25
f 20//65 30//65 46//65
f 6//66 21//66 47//66
f 21//67 24//67 47//67
f 32//68 6//68 47//68
f 7//69 2//69 48//69
f 19//70 7//70 48//70
f 31//71 19//71 48//71
f 32//23 31//23 48//23
f 2//72 45//72 48//72
f 45//73 32//73 48//73
f 19//74 12//74 49//74
f 30//75 19//75 49//75
f 12//76 32//76 49//76
f 32//77 30//77 49//77
f 17//78 8//78 50//78
f 8//79 23//79 50//79
f 11//80 35//80 50//80
f 35//81 17//81 50//81
f 40//82 11//82 50//82
f 23//83 40//83 50//83
f 4//84 18//84 51//84
f 22//85 4//85 51//85
f 18//86 22//86 51//86
f 4//87 25//87 52//87
f 43//88 4//88 52//88
f 25//89 43//89 52//89
f 6//90 16//90 53//90
f 16//91 4//91 53//91
f 22//92 6//92 53//92
f 4//93 22//93 53//93
f 2//94 1//94 54//94
f 6//95 2//95 54//95
f 1//96 29//96 54//96
f 29//97 6//97 54//97
f 35//98 11//98 55//98
f 11//99 41//99 55//99
f 41//100 35//100 55//100
f 34//101 5//101 56//101
f 24//102 34//102 56//102
f 5//103 46//103 56//103
f 46//104 24//104 56//104
f 30//105 32//105 57//105
f 46//106 30//106 57//106
f 24//107 46//107 57//107
f 47//108 24//108 57//108
