####
#
# OBJ File Generated by Meshlab
#
####
# Object 100446_link_0_2.obj
#
# Vertices: 17
# Faces: 30
#
####
mtllib ./100446_link_0_2.obj.mtl

vn 0.964256 -0.226576 0.137382
v -0.390696 0.628033 -0.012461
vn -0.596442 -0.769894 -0.226982
v -0.490846 0.590746 -0.027248
vn -0.496647 -0.833528 0.242017
v -0.488612 0.592613 0.005112
vn -0.019090 0.999682 -0.016498
v -0.444615 0.685320 -0.012573
vn 0.517525 0.752824 0.406723
v -0.421769 0.665166 0.024050
vn 0.389758 -0.656422 0.645909
v -0.441351 0.586027 0.017272
vn 0.099126 -0.510621 -0.854073
v -0.456150 0.585611 -0.045737
vn 0.253941 0.150341 -0.955464
v -0.430111 0.672977 -0.046162
vn -0.209907 0.060973 0.975818
v -0.484842 0.614661 0.041697
vn -0.272005 0.678767 0.682121
v -0.442924 0.684421 0.003191
vn 0.772152 0.229312 -0.592618
v -0.409747 0.647501 -0.047575
vn 0.458154 -0.847316 -0.268608
v -0.430132 0.579630 -0.024799
vn -0.742184 0.465105 0.482535
v -0.518081 0.642064 0.008633
vn -0.302156 0.021271 -0.953021
v -0.498195 0.619345 -0.060379
vn 0.509743 -0.197838 0.837271
v -0.413555 0.650535 0.025855
vn -0.903785 0.362411 -0.227663
v -0.523135 0.630863 -0.023211
vn -0.456425 0.734533 -0.502133
v -0.446765 0.688299 -0.040650
# 17 vertices, 0 vertices normals


usemtl material_0
f 16//16 4//4 17//17
f 3//3 2//2 7//7
f 3//3 6//6 9//9
f 5//5 4//4 10//10
f 9//9 5//5 10//10
f 5//5 1//1 11//11
f 4//4 5//5 11//11
f 8//8 4//4 11//11
f 7//7 8//8 11//11
f 6//6 3//3 12//12
f 1//1 6//6 12//12
f 3//3 7//7 12//12
f 11//11 1//1 12//12
f 7//7 11//11 12//12
f 3//3 9//9 13//13
f 10//10 4//4 13//13
f 9//9 10//10 13//13
f 7//7 2//2 14//14
f 8//8 7//7 14//14
f 1//1 5//5 15//15
f 6//6 1//1 15//15
f 5//5 9//9 15//15
f 9//9 6//6 15//15
f 2//2 3//3 16//16
f 3//3 13//13 16//16
f 13//13 4//4 16//16
f 14//14 2//2 16//16
f 14//14 16//16 17//17
f 4//4 8//8 17//17
f 8//8 14//14 17//17
# 30 faces, 0 coords texture

# End of File
