####
#
# OBJ File Generated by Meshlab
#
####
# Object 100446_link_0_1.obj
#
# Vertices: 24
# Faces: 44
#
####
mtllib ./100446_link_0_1.obj.mtl

vn 0.962337 -0.068632 -0.263052
v -0.403973 0.517815 -0.029098
vn -0.902452 -0.309572 0.299575
v -0.506931 0.455628 -0.022392
vn -0.883787 -0.406864 -0.231047
v -0.508033 0.455050 -0.001332
vn -0.945827 0.322362 0.038665
v -0.497750 0.636489 -0.016130
vn 0.099543 0.186613 0.977378
v -0.435498 0.617222 0.040843
vn 0.027285 0.142035 -0.989486
v -0.442815 0.614550 -0.068884
vn 0.613963 -0.512252 0.600540
v -0.445728 0.456298 0.017604
vn -0.392663 -0.179798 -0.901936
v -0.483809 0.459263 -0.055711
vn -0.292024 0.054783 0.954841
v -0.491934 0.527609 0.049569
vn 0.802555 0.596188 0.021583
v -0.430373 0.632663 -0.007044
vn 0.730780 -0.216711 -0.647300
v -0.443461 0.461090 -0.054805
vn -0.734656 0.449134 0.508487
v -0.490802 0.635627 0.010701
vn -0.239998 0.365826 -0.899206
v -0.476380 0.633596 -0.041273
vn -0.122175 -0.470952 0.873658
v -0.482110 0.456657 0.024137
vn 0.975981 -0.156725 0.151321
v -0.408358 0.482754 0.007213
vn -0.407345 -0.026922 -0.912877
v -0.520416 0.482966 -0.051870
vn 0.785742 0.243267 -0.568709
v -0.421444 0.626296 -0.039831
vn -0.952369 0.009725 0.304794
v -0.523922 0.485104 0.022394
vn 0.882925 -0.011405 0.469376
v -0.408152 0.596819 0.026715
vn -0.241193 0.566123 0.788245
v -0.468359 0.636081 0.023451
vn 0.258914 -0.154153 0.953520
v -0.445973 0.488143 0.049102
vn 0.378323 -0.918072 -0.118391
v -0.443660 0.452562 -0.022049
vn -0.984389 0.161580 -0.069785
v -0.521960 0.597672 -0.042769
vn 0.026490 -0.091438 -0.995458
v -0.450682 0.488431 -0.074960
# 24 vertices, 0 vertices normals


usemtl material_0
f 11//11 8//8 24//24
f 2//2 3//3 4//4
f 10//10 4//4 12//12
f 6//6 8//8 13//13
f 4//4 10//10 13//13
f 5//5 9//9 14//14
f 1//1 10//10 15//15
f 8//8 2//2 16//16
f 13//13 8//8 16//16
f 10//10 1//1 17//17
f 1//1 11//11 17//17
f 11//11 6//6 17//17
f 6//6 13//13 17//17
f 13//13 10//10 17//17
f 4//4 3//3 18//18
f 12//12 4//4 18//18
f 9//9 12//12 18//18
f 3//3 14//14 18//18
f 14//14 9//9 18//18
f 10//10 5//5 19//19
f 7//7 15//15 19//19
f 15//15 10//10 19//19
f 9//9 5//5 20//20
f 5//5 10//10 20//20
f 12//12 9//9 20//20
f 10//10 12//12 20//20
f 14//14 7//7 21//21
f 5//5 14//14 21//21
f 19//19 5//5 21//21
f 7//7 19//19 21//21
f 3//3 2//2 22//22
f 2//2 8//8 22//22
f 11//11 1//1 22//22
f 8//8 11//11 22//22
f 14//14 3//3 22//22
f 7//7 14//14 22//22
f 15//15 7//7 22//22
f 1//1 15//15 22//22
f 2//2 4//4 23//23
f 4//4 13//13 23//23
f 16//16 2//2 23//23
f 13//13 16//16 23//23
f 8//8 6//6 24//24
f 6//6 11//11 24//24
# 44 faces, 0 coords texture

# End of File
