# Blender v2.79 (sub 0) OBJ File: ''
# www.blender.org
mtllib 100462_link_1_25.mtl
o Shape_IndexedFaceSet.025_Shape_IndexedFaceSet.5969
v -0.136564 0.295800 0.575445
v -0.325508 -0.657190 0.378650
v -0.324891 -0.653892 0.449881
v -0.330138 0.465135 0.489703
v -0.120844 0.405688 0.520480
v -0.119911 -0.658878 0.489225
v -0.309211 0.421386 0.426335
v -0.120844 -0.653892 0.544025
v -0.274596 0.464752 0.533355
v -0.238578 -0.653892 0.504789
v -0.188393 0.464984 0.567884
v -0.302507 -0.661863 0.385780
v -0.324891 0.437084 0.426335
v -0.124043 0.419977 0.572369
v -0.127238 -0.662442 0.481324
v -0.136564 -0.622496 0.544025
v -0.128714 0.437084 0.520480
v -0.262109 -0.567391 0.496934
v -0.140555 0.463772 0.580245
vn 0.9371 0.3478 0.0303
vn -0.9999 -0.0050 0.0089
vn 0.9999 0.0004 0.0170
vn -0.6178 -0.0309 0.7858
vn -0.3715 -0.0357 0.9277
vn -0.0127 0.9996 0.0249
vn -0.2129 -0.9760 0.0470
vn 0.3028 0.0375 -0.9523
vn 0.4492 0.0362 -0.8927
vn -0.0643 -0.9928 0.1010
vn -0.9964 0.0042 -0.0844
vn 0.0435 0.0435 -0.9981
vn 0.4420 -0.0224 0.8967
vn 0.9981 0.0014 0.0612
vn 0.7284 0.0207 -0.6848
vn 0.3548 -0.9305 0.0907
vn -0.0465 -0.9891 0.1396
vn 0.4785 0.0293 -0.8776
vn -0.0560 -0.9937 0.0966
vn -0.0681 -0.0341 0.9971
vn -0.3123 -0.1564 0.9370
vn -0.3487 -0.0372 0.9365
vn 0.4517 0.1132 -0.8849
vn 0.1848 0.9042 -0.3850
vn 0.3972 0.3967 -0.8276
vn 0.9700 0.2431 -0.0072
vn -0.5672 -0.0359 0.8228
vn -0.5355 -0.0692 0.8417
vn -0.4362 -0.0370 0.8991
vn 0.0465 0.9955 -0.0824
vn 0.3936 -0.0169 0.9191
vn -0.2308 -0.0333 0.9724
vn -0.2508 -0.0332 0.9675
vn 0.1834 0.9106 -0.3703
usemtl Shape.5976
s off
f 14//1 17//1 19//1
f 2//2 3//2 4//2
f 6//3 5//3 8//3
f 4//4 3//4 9//4
f 9//5 10//5 11//5
f 4//6 9//6 11//6
f 3//7 2//7 12//7
f 2//8 7//8 12//8
f 7//9 5//9 12//9
f 10//10 3//10 12//10
f 2//11 4//11 13//11
f 7//12 2//12 13//12
f 1//13 8//13 14//13
f 8//14 5//14 14//14
f 5//15 6//15 15//15
f 6//16 8//16 15//16
f 8//17 10//17 15//17
f 12//18 5//18 15//18
f 10//19 12//19 15//19
f 8//20 1//20 16//20
f 10//21 8//21 16//21
f 11//22 10//22 16//22
f 5//23 7//23 17//23
f 13//24 4//24 17//24
f 7//25 13//25 17//25
f 14//26 5//26 17//26
f 9//27 3//27 18//27
f 3//28 10//28 18//28
f 10//29 9//29 18//29
f 4//30 11//30 19//30
f 1//31 14//31 19//31
f 16//32 1//32 19//32
f 11//33 16//33 19//33
f 17//34 4//34 19//34
