# Blender v2.79 (sub 0) OBJ File: ''
# www.blender.org
mtllib 100462_link_1_33.mtl
o Shape_IndexedFaceSet.033_Shape_IndexedFaceSet.5977
v 0.248018 0.656828 -0.617553
v 0.036154 0.437084 -0.601851
v 0.036154 0.437084 -0.554791
v 0.263701 0.437084 -0.546940
v 0.255859 0.680353 -0.499849
v 0.044572 0.678905 -0.607381
v 0.075404 0.476367 -0.648942
v 0.248018 0.437084 -0.499849
v 0.044017 0.664669 -0.554791
v 0.036154 0.633278 -0.656808
v 0.232314 0.484209 -0.617553
v 0.263701 0.664669 -0.609702
v 0.122495 0.656828 -0.648942
v 0.036154 0.633278 -0.554791
v 0.260983 0.685196 -0.509387
v 0.059699 0.688195 -0.554791
v 0.185245 0.484209 -0.633240
v 0.169541 0.437084 -0.586149
v 0.051858 0.664669 -0.656808
vn 0.1553 0.6985 -0.6985
vn 0.0000 -1.0000 0.0000
vn -1.0000 -0.0000 0.0000
vn -0.6629 -0.2020 -0.7210
vn 0.4640 -0.0422 -0.8848
vn 0.8706 -0.1308 -0.4743
vn 0.2182 0.4372 -0.8725
vn -0.2510 -0.0000 0.9680
vn -0.2442 0.0079 0.9697
vn -0.2550 0.0639 0.9648
vn -0.9685 0.2426 0.0555
vn -0.9834 0.1814 0.0000
vn 0.9481 -0.0374 0.3158
vn 0.8865 -0.0286 0.4618
vn 0.9996 0.0071 0.0256
vn 0.0614 0.9782 -0.1985
vn -0.2592 0.1728 0.9502
vn -0.8239 0.5492 0.1400
vn -0.0805 0.9055 0.4166
vn 0.0574 0.9802 -0.1897
vn 0.3160 -0.0288 -0.9483
vn 0.1440 -0.0376 -0.9889
vn 0.2426 -0.0001 -0.9701
vn 0.0710 -0.7943 -0.6034
vn 0.2551 -0.7481 -0.6126
vn 0.1481 -0.7233 -0.6745
vn 0.2177 -0.7252 -0.6532
vn -0.8654 0.4329 -0.2523
vn 0.0666 -0.0333 -0.9972
vn 0.0596 0.9615 -0.2682
vn 0.1076 -0.0281 -0.9938
usemtl Shape.5984
s off
f 12//1 13//1 19//1
f 3//2 2//2 4//2
f 3//2 4//2 8//2
f 2//3 3//3 10//3
f 7//4 2//4 10//4
f 11//5 1//5 12//5
f 4//6 11//6 12//6
f 12//7 1//7 13//7
f 3//8 8//8 14//8
f 8//9 5//9 14//9
f 5//10 9//10 14//10
f 9//11 6//11 14//11
f 6//12 10//12 14//12
f 10//3 3//3 14//3
f 8//13 4//13 15//13
f 5//14 8//14 15//14
f 4//15 12//15 15//15
f 12//16 6//16 15//16
f 9//17 5//17 16//17
f 6//18 9//18 16//18
f 5//19 15//19 16//19
f 15//20 6//20 16//20
f 1//21 11//21 17//21
f 7//22 13//22 17//22
f 13//23 1//23 17//23
f 4//2 2//2 18//2
f 2//24 7//24 18//24
f 11//25 4//25 18//25
f 7//26 17//26 18//26
f 17//27 11//27 18//27
f 10//28 6//28 19//28
f 7//29 10//29 19//29
f 6//30 12//30 19//30
f 13//31 7//31 19//31
