####
#
# OBJ File Generated by Meshlab
#
####
# Object 100462_link_0_15.obj
#
# Vertices: 37
# Faces: 70
#
####
mtllib ./100462_link_0_15.obj.mtl

vn 0.046936 -0.949791 0.309343
v -0.035964 -0.195103 0.597904
vn -0.116516 0.988255 0.098871
v -0.143587 0.008323 0.580590
vn 0.128572 0.573814 -0.808830
v -0.142543 0.007883 0.573756
vn 0.607521 0.648315 -0.458918
v 0.022451 -0.039734 0.572891
vn 0.827474 0.067355 0.557450
v 0.016455 -0.080510 0.655188
vn -0.951754 -0.123562 0.280885
v -0.194631 -0.120321 0.636269
vn -0.783467 -0.268050 -0.560650
v -0.186644 -0.103040 0.518563
vn 0.595819 -0.398407 -0.697332
v 0.018557 -0.122012 0.534530
vn -0.691562 0.610084 0.386704
v -0.187892 -0.036992 0.621403
vn -0.081377 0.596446 -0.798517
v -0.182021 -0.046248 0.520808
vn -0.139199 -0.570327 -0.809537
v -0.186012 -0.153240 0.552332
vn 0.829572 -0.354275 0.431624
v 0.015392 -0.136074 0.647049
vn 0.507723 0.746491 0.430080
v 0.021881 -0.040154 0.618027
vn 0.308503 0.481340 -0.820450
v 0.020996 -0.079944 0.533550
vn -0.137578 -0.921788 0.362464
v -0.129701 -0.181498 0.617271
vn 0.291210 -0.554916 -0.779272
v 0.017647 -0.153497 0.558881
vn -0.347406 0.077438 0.934512
v -0.163333 -0.096211 0.675933
vn -0.204433 -0.358443 0.910893
v -0.111980 -0.125975 0.677264
vn 0.092748 -0.799785 0.593078
v -0.076087 -0.166065 0.655832
vn -0.586884 0.709258 -0.390538
v -0.185965 -0.025849 0.559367
vn 0.390344 -0.818311 0.421899
v 0.015423 -0.161114 0.614464
vn -0.505267 0.271856 0.819024
v -0.190900 -0.069549 0.643250
vn 0.071140 0.007690 -0.997437
v -0.156266 -0.067670 0.489327
vn -0.279589 -0.549724 -0.787168
v -0.188627 -0.124144 0.528087
vn -0.012899 0.258800 0.965845
v -0.048293 -0.087437 0.687945
vn -0.732188 -0.665970 0.142774
v -0.193135 -0.146971 0.604102
vn -0.259470 -0.946740 -0.190678
v -0.136184 -0.184024 0.567124
vn 0.186807 0.564528 -0.803997
v 0.023055 -0.053195 0.550085
vn 0.045234 0.736437 0.674992
v -0.045569 -0.042292 0.671052
vn -0.100597 0.810427 0.577139
v -0.156306 0.003231 0.604035
vn 0.254390 -0.355677 0.899322
v -0.038093 -0.125646 0.684769
vn 0.254894 0.960284 0.113507
v 0.001349 -0.008010 0.601798
vn 0.189144 -0.688264 -0.700369
v -0.015630 -0.191271 0.569955
vn 0.117681 0.807707 0.577720
v 0.011325 -0.037222 0.648570
vn -0.386521 -0.644576 0.659639
v -0.152336 -0.154409 0.652967
vn 0.093306 0.874643 -0.475703
v -0.177667 -0.020627 0.529041
vn -0.118061 0.432524 0.893859
v -0.131006 -0.049353 0.671344
# 37 vertices, 0 vertices normals


usemtl material_0
f 29//29 9//9 37//37
f 4//4 5//5 8//8
f 7//7 6//6 9//9
f 8//8 5//5 12//12
f 5//5 4//4 13//13
f 4//4 8//8 14//14
f 8//8 12//12 16//16
f 17//17 6//6 18//18
f 2//2 3//3 20//20
f 3//3 4//4 20//20
f 7//7 9//9 20//20
f 10//10 7//7 20//20
f 15//15 1//1 21//21
f 16//16 12//12 21//21
f 12//12 19//19 21//21
f 19//19 15//15 21//21
f 9//9 6//6 22//22
f 6//6 17//17 22//22
f 8//8 7//7 23//23
f 7//7 10//10 23//23
f 14//14 8//8 23//23
f 10//10 14//14 23//23
f 6//6 7//7 24//24
f 7//7 8//8 24//24
f 8//8 16//16 24//24
f 16//16 11//11 24//24
f 17//17 18//18 25//25
f 22//22 17//17 25//25
f 6//6 24//24 26//26
f 24//24 11//11 26//26
f 1//1 15//15 27//27
f 26//26 11//11 27//27
f 15//15 26//26 27//27
f 4//4 14//14 28//28
f 14//14 10//10 28//28
f 2//2 20//20 30//30
f 20//20 9//9 30//30
f 12//12 5//5 31//31
f 19//19 12//12 31//31
f 18//18 19//19 31//31
f 5//5 25//25 31//31
f 25//25 18//18 31//31
f 3//3 2//2 32//32
f 4//4 3//3 32//32
f 13//13 4//4 32//32
f 2//2 30//30 32//32
f 30//30 13//13 32//32
f 11//11 16//16 33//33
f 21//21 1//1 33//33
f 16//16 21//21 33//33
f 1//1 27//27 33//33
f 27//27 11//11 33//33
f 5//5 13//13 34//34
f 29//29 5//5 34//34
f 9//9 29//29 34//34
f 13//13 30//30 34//34
f 30//30 9//9 34//34
f 18//18 6//6 35//35
f 15//15 19//19 35//35
f 19//19 18//18 35//35
f 26//26 15//15 35//35
f 6//6 26//26 35//35
f 20//20 4//4 36//36
f 10//10 20//20 36//36
f 4//4 28//28 36//36
f 28//28 10//10 36//36
f 9//9 22//22 37//37
f 25//25 5//5 37//37
f 22//22 25//25 37//37
f 5//5 29//29 37//37
# 70 faces, 0 coords texture

# End of File
