####
#
# OBJ File Generated by Meshlab
#
####
# Object 100462_link_0_19.obj
#
# Vertices: 35
# Faces: 66
#
####
mtllib ./100462_link_0_19.obj.mtl

vn -0.102418 -0.199084 0.974616
v 0.252925 -0.065913 0.671319
vn -0.289914 0.795970 0.531395
v 0.242973 -0.062291 0.671453
vn -0.169511 -0.971737 0.164294
v 0.243600 -0.171956 0.606632
vn 0.787100 0.446549 -0.425520
v 0.308744 -0.027228 0.546242
vn -0.992993 0.113022 0.034509
v 0.174866 -0.018466 0.583862
vn 0.748809 -0.657413 -0.084221
v 0.321021 -0.131728 0.563591
vn -0.811969 -0.441464 0.381857
v 0.194114 -0.136923 0.611914
vn -0.926095 -0.369167 -0.077873
v 0.186839 -0.135542 0.539369
vn 0.304915 -0.515942 -0.800519
v 0.275421 -0.131722 0.499319
vn 0.049089 0.686647 -0.725332
v 0.247663 -0.017747 0.496835
vn 0.741354 0.044348 0.669647
v 0.302622 -0.099406 0.644167
vn 0.811270 0.528309 0.250460
v 0.305512 -0.021944 0.595158
vn -0.901790 0.204491 0.380734
v 0.182463 -0.039203 0.624643
vn -0.791699 0.260574 -0.552552
v 0.185078 -0.042246 0.515677
vn 0.277237 0.947105 -0.161652
v 0.238694 0.015458 0.543605
vn 0.355217 0.860233 0.365814
v 0.264383 0.000925 0.624261
vn -0.632160 -0.308746 0.710668
v 0.193828 -0.103898 0.638218
vn 0.119698 -0.949980 -0.288461
v 0.275180 -0.161270 0.540618
vn 0.576857 0.023057 -0.816520
v 0.281357 -0.093612 0.489032
vn 0.193308 -0.685747 0.701700
v 0.280053 -0.144608 0.636890
vn 0.399638 0.369315 0.838985
v 0.277862 -0.044903 0.653455
vn -0.254509 -0.061870 -0.965089
v 0.214915 -0.096961 0.482154
vn 0.827896 -0.167601 -0.535255
v 0.311969 -0.121286 0.526149
vn -0.359470 0.893478 0.269219
v 0.216361 0.009201 0.605742
vn 0.543374 -0.826348 0.147962
v 0.291687 -0.156898 0.595515
vn 0.169631 0.304597 -0.937255
v 0.260228 -0.047391 0.483938
vn 0.898940 -0.190876 0.394302
v 0.322186 -0.115251 0.613565
vn -0.402523 -0.903160 -0.149257
v 0.190878 -0.143972 0.558459
vn -0.078498 -0.363852 0.928143
v 0.262064 -0.114249 0.662846
vn -0.280068 -0.742333 -0.608690
v 0.229274 -0.142009 0.499489
vn -0.539634 0.764026 -0.353638
v 0.199454 0.002195 0.543631
vn -0.787225 -0.257844 -0.560173
v 0.177649 -0.102510 0.515387
vn -0.408113 0.078011 0.909592
v 0.191449 -0.067265 0.639806
vn -0.235117 0.460139 0.856149
v 0.222892 -0.014326 0.645760
vn 0.989812 0.126107 -0.066095
v 0.333106 -0.104682 0.572956
# 35 vertices, 0 vertices normals


usemtl material_0
f 12//12 27//27 35//35
f 7//7 5//5 8//8
f 5//5 7//7 13//13
f 8//8 5//5 14//14
f 4//4 10//10 15//15
f 12//12 4//4 15//15
f 12//12 15//15 16//16
f 13//13 7//7 17//17
f 7//7 3//3 20//20
f 2//2 1//1 21//21
f 11//11 12//12 21//21
f 12//12 16//16 21//21
f 19//19 9//9 22//22
f 6//6 18//18 23//23
f 18//18 9//9 23//23
f 19//19 4//4 23//23
f 9//9 19//19 23//23
f 5//5 13//13 24//24
f 16//16 15//15 24//24
f 3//3 18//18 25//25
f 18//18 6//6 25//25
f 20//20 3//3 25//25
f 10//10 4//4 26//26
f 14//14 10//10 26//26
f 4//4 19//19 26//26
f 22//22 14//14 26//26
f 19//19 22//22 26//26
f 12//12 11//11 27//27
f 11//11 20//20 27//27
f 25//25 6//6 27//27
f 20//20 25//25 27//27
f 3//3 7//7 28//28
f 7//7 8//8 28//28
f 18//18 3//3 28//28
f 8//8 18//18 28//28
f 17//17 7//7 29//29
f 7//7 20//20 29//29
f 20//20 11//11 29//29
f 21//21 1//1 29//29
f 11//11 21//21 29//29
f 18//18 8//8 30//30
f 9//9 18//18 30//30
f 22//22 9//9 30//30
f 14//14 5//5 31//31
f 10//10 14//14 31//31
f 15//15 10//10 31//31
f 5//5 24//24 31//31
f 24//24 15//15 31//31
f 8//8 14//14 32//32
f 14//14 22//22 32//32
f 30//30 8//8 32//32
f 22//22 30//30 32//32
f 1//1 2//2 33//33
f 13//13 17//17 33//33
f 2//2 21//21 33//33
f 29//29 1//1 33//33
f 17//17 29//29 33//33
f 21//21 16//16 34//34
f 24//24 13//13 34//34
f 16//16 24//24 34//34
f 13//13 33//33 34//34
f 33//33 21//21 34//34
f 4//4 12//12 35//35
f 23//23 4//4 35//35
f 6//6 23//23 35//35
f 27//27 6//6 35//35
# 66 faces, 0 coords texture

# End of File
