# Blender v2.79 (sub 0) OBJ File: ''
# www.blender.org
mtllib 100462_link_1_23.mtl
o Shape_IndexedFaceSet.023_Shape_IndexedFaceSet.5967
v -0.552516 -0.465406 0.057458
v -0.497591 0.437084 0.190837
v -0.554279 0.464324 0.195735
v -0.578808 0.462446 -0.009884
v -0.456780 -0.660341 0.169282
v -0.489181 -0.656995 -0.007332
v -0.513299 -0.653892 0.190837
v -0.528983 0.437084 -0.005324
v -0.544668 -0.653892 -0.005324
v -0.578853 0.462865 0.096840
v -0.454294 -0.657934 0.197598
v -0.544668 -0.598895 0.088839
v -0.521124 0.295800 -0.005324
v -0.576071 0.272092 -0.005324
v -0.521124 -0.606691 0.182983
v -0.497591 0.421386 0.175128
v -0.544668 -0.653892 0.073148
v -0.576071 0.280101 0.073148
vn -0.9926 -0.0334 0.1170
vn 0.4282 0.9017 -0.0593
vn 0.4577 0.8861 -0.0733
vn 0.0938 0.0052 -0.9956
vn -0.0561 -0.9984 -0.0086
vn -0.0365 -0.0052 -0.9993
vn -0.0435 0.9990 -0.0039
vn 0.0907 0.0097 0.9958
vn -0.1144 -0.0085 0.9934
vn -0.0785 -0.9927 0.0913
vn 0.9832 0.0333 -0.1797
vn 0.0949 0.0053 -0.9955
vn -0.9992 -0.0339 -0.0232
vn -0.7747 -0.0263 -0.6318
vn -0.9999 -0.0144 -0.0004
vn -0.7972 -0.0319 0.6028
vn -0.9698 -0.0329 0.2415
vn -0.9702 -0.0330 0.2399
vn 0.9753 0.1562 -0.1561
vn 0.9985 0.0392 -0.0392
vn 0.9952 0.0380 -0.0906
vn 0.9871 0.0381 -0.1552
vn 0.9845 0.0548 -0.1665
vn -0.1030 -0.9943 0.0275
vn -0.9991 -0.0416 0.0000
vn -0.0732 -0.9973 0.0000
vn -0.9597 -0.1165 0.2558
vn -0.9692 -0.0676 0.2368
vn -0.9899 -0.0329 0.1376
vn -0.9995 -0.0316 0.0032
vn -0.9999 -0.0154 0.0016
vn -0.9948 -0.0334 0.0958
usemtl Shape.5974
s off
f 17//1 12//1 18//1
f 3//2 2//2 4//2
f 4//3 2//3 8//3
f 6//4 4//4 8//4
f 6//5 5//5 9//5
f 4//6 6//6 9//6
f 3//7 4//7 10//7
f 2//8 3//8 11//8
f 3//9 7//9 11//9
f 7//10 5//10 11//10
f 5//11 6//11 13//11
f 6//12 8//12 13//12
f 9//13 1//13 14//13
f 4//14 9//14 14//14
f 10//15 4//15 14//15
f 7//16 3//16 15//16
f 3//17 10//17 15//17
f 10//18 12//18 15//18
f 8//19 2//19 16//19
f 2//20 11//20 16//20
f 11//21 5//21 16//21
f 5//22 13//22 16//22
f 13//23 8//23 16//23
f 5//24 7//24 17//24
f 1//25 9//25 17//25
f 9//26 5//26 17//26
f 7//27 15//27 17//27
f 15//28 12//28 17//28
f 12//29 10//29 18//29
f 14//30 1//30 18//30
f 10//31 14//31 18//31
f 1//32 17//32 18//32
