# Blender v2.79 (sub 0) OBJ File: ''
# www.blender.org
mtllib 100462_link_1_13.mtl
o Shape_IndexedFaceSet.013_Shape_IndexedFaceSet.5957
v 0.538451 0.703895 0.198765
v 0.410383 0.783012 0.477346
v 0.397174 0.437084 0.387052
v 0.522728 0.484243 0.410571
v 0.539999 0.433042 0.179310
v 0.522728 0.782360 0.371328
v 0.397174 0.774524 0.402742
v 0.405029 0.484243 0.520471
v 0.530596 0.774524 0.206593
v 0.412884 0.437084 0.457676
v 0.412884 0.633265 0.520471
v 0.529910 0.659462 0.389664
v 0.530596 0.492078 0.183008
v 0.399645 0.799523 0.469112
v 0.534820 0.796494 0.273622
v 0.545281 0.479563 0.166695
v 0.436435 0.798067 0.465504
v 0.397174 0.735274 0.394880
v 0.532016 0.482474 0.383835
v 0.522728 0.798067 0.253698
v 0.533073 0.791931 0.326410
vn 0.9981 0.0079 0.0609
vn -0.0214 -0.9998 0.0048
vn 0.4641 -0.8569 0.2244
vn -0.8896 -0.4117 0.1979
vn 0.5176 -0.6519 0.5543
vn 0.6820 -0.0360 0.7304
vn 0.7394 0.0498 0.6715
vn -0.8211 -0.0955 -0.5627
vn -0.9993 -0.0018 0.0379
vn -0.9981 -0.0071 0.0613
vn -0.3048 0.2589 0.9166
vn -0.9181 0.0484 0.3933
vn 0.9874 0.1211 -0.1019
vn 0.3658 0.1426 -0.9197
vn -0.7716 -0.0834 -0.6306
vn -0.7195 0.0578 -0.6921
vn 0.9995 0.0285 0.0132
vn 0.2642 0.2710 0.9256
vn 0.7415 0.1412 0.6559
vn 0.7276 0.1212 0.6752
vn 0.1041 0.4973 0.8613
vn -1.0000 0.0000 0.0000
vn -0.8216 0.1119 -0.5589
vn -0.8386 0.0143 -0.5445
vn -0.8197 0.0477 -0.5709
vn 0.4822 -0.8471 0.2235
vn 0.9446 0.0004 0.3281
vn 0.9935 -0.0960 0.0620
vn -0.6303 0.6472 -0.4288
vn -0.4971 0.8179 -0.2896
vn 0.5736 0.7670 -0.2876
vn 0.0412 0.9990 0.0168
vn 0.0776 0.9965 0.0316
vn 0.9658 0.0926 0.2422
vn 0.9992 0.0212 0.0349
vn 0.4643 0.8384 0.2856
vn 0.1928 0.9770 0.0908
vn 0.9975 0.0096 0.0699
usemtl Shape.5964
s off
f 19//1 16//1 21//1
f 3//2 5//2 10//2
f 5//3 4//3 10//3
f 8//4 3//4 10//4
f 4//5 8//5 10//5
f 8//6 4//6 11//6
f 11//7 4//7 12//7
f 5//8 3//8 13//8
f 7//9 3//9 14//9
f 3//10 8//10 14//10
f 11//11 2//11 14//11
f 8//12 11//12 14//12
f 1//13 9//13 15//13
f 9//14 1//14 16//14
f 5//15 13//15 16//15
f 13//16 9//16 16//16
f 1//17 15//17 16//17
f 2//18 11//18 17//18
f 12//19 6//19 17//19
f 11//20 12//20 17//20
f 14//21 2//21 17//21
f 3//22 7//22 18//22
f 7//23 9//23 18//23
f 13//24 3//24 18//24
f 9//25 13//25 18//25
f 4//26 5//26 19//26
f 12//27 4//27 19//27
f 5//28 16//28 19//28
f 9//29 7//29 20//29
f 7//30 14//30 20//30
f 15//31 9//31 20//31
f 14//32 17//32 20//32
f 17//33 15//33 20//33
f 6//34 12//34 21//34
f 16//35 15//35 21//35
f 17//36 6//36 21//36
f 15//37 17//37 21//37
f 12//38 19//38 21//38
