# Blender v2.79 (sub 0) OBJ File: ''
# www.blender.org
mtllib 100462_link_1_4.mtl
o Shape_IndexedFaceSet.004_Shape_IndexedFaceSet.5948
v -0.183676 0.774524 -0.523369
v -0.473981 0.484243 -0.429210
v -0.340576 0.437084 -0.413497
v -0.364133 0.476371 -0.523369
v -0.160119 0.437084 -0.523369
v -0.429928 0.798172 -0.415821
v -0.332734 0.790232 -0.523369
v -0.356291 0.782360 -0.413497
v -0.450456 0.633265 -0.460603
v -0.160119 0.507786 -0.515518
v -0.379816 0.437084 -0.460603
v -0.473009 0.654869 -0.416518
v -0.426899 0.790232 -0.444901
v -0.183676 0.774524 -0.515518
v -0.466066 0.476451 -0.416339
v -0.395531 0.484243 -0.507667
v -0.285683 0.437084 -0.523369
v -0.215075 0.790232 -0.515518
v -0.371740 0.658757 -0.515827
vn -0.5828 0.0415 -0.8116
vn 0.0000 0.0000 -1.0000
vn 0.8451 0.0590 -0.5313
vn 0.5177 -0.0944 0.8503
vn 0.4854 0.0221 0.8740
vn 0.0000 -1.0000 0.0000
vn -0.0306 0.0043 0.9995
vn -0.8815 0.0400 -0.4706
vn -0.8382 0.1774 -0.5157
vn -0.2322 0.9319 -0.2786
vn -0.6308 0.1704 -0.7570
vn -0.9425 0.2842 -0.1758
vn 0.9961 0.0880 0.0000
vn 0.5098 0.0450 0.8591
vn -0.0230 -0.0010 0.9997
vn -0.4926 -0.8449 -0.2085
vn -0.2952 -0.9232 0.2459
vn -0.8601 -0.0330 0.5090
vn -0.0259 -0.0000 0.9997
vn -0.7066 -0.0373 -0.7066
vn -0.5149 -0.6854 -0.5149
vn -0.4517 -0.7011 -0.5517
vn -0.3717 -0.7423 -0.5575
vn 0.0563 0.5341 -0.8435
vn 0.0046 0.9976 -0.0695
vn 0.1880 0.9245 0.3316
vn 0.4474 0.8943 0.0000
vn 0.3685 0.7367 0.5670
vn -0.2799 0.0280 -0.9596
vn -0.5976 0.1319 -0.7909
vn -0.4435 0.0186 -0.8961
usemtl Shape.5955
s off
f 16//1 9//1 19//1
f 4//2 1//2 5//2
f 1//2 4//2 7//2
f 5//3 1//3 10//3
f 3//4 5//4 10//4
f 8//5 3//5 10//5
f 5//6 3//6 11//6
f 8//7 6//7 12//7
f 9//8 2//8 12//8
f 9//9 12//9 13//9
f 6//10 7//10 13//10
f 7//11 9//11 13//11
f 12//12 6//12 13//12
f 10//13 1//13 14//13
f 8//14 10//14 14//14
f 3//15 8//15 15//15
f 2//16 11//16 15//16
f 11//17 3//17 15//17
f 12//18 2//18 15//18
f 8//19 12//19 15//19
f 2//20 9//20 16//20
f 11//21 2//21 16//21
f 4//22 11//22 16//22
f 4//2 5//2 17//2
f 11//23 4//23 17//23
f 5//6 11//6 17//6
f 1//24 7//24 18//24
f 7//25 6//25 18//25
f 6//26 8//26 18//26
f 14//27 1//27 18//27
f 8//28 14//28 18//28
f 7//29 4//29 19//29
f 9//30 7//30 19//30
f 4//31 16//31 19//31
