# Blender v2.79 (sub 0) OBJ File: ''
# www.blender.org
mtllib 100462_link_1_7.mtl
o Shape_IndexedFaceSet.007_Shape_IndexedFaceSet.5951
v 0.284812 0.652794 -0.590685
v 0.389325 0.452828 -0.405648
v 0.381458 0.452828 -0.405648
v 0.389325 0.782360 -0.421377
v 0.263745 0.758817 -0.499850
v 0.263745 0.437084 -0.492014
v 0.373615 0.476371 -0.546902
v 0.389325 0.790232 -0.507666
v 0.267769 0.478340 -0.588210
v 0.271612 0.798067 -0.578302
v 0.389325 0.437084 -0.476304
v 0.339744 0.651215 -0.566481
v 0.310838 0.476371 -0.586138
v 0.279455 0.437084 -0.546902
v 0.263745 0.790232 -0.507666
v 0.381458 0.782360 -0.421377
v 0.386584 0.797923 -0.470009
v 0.382630 0.660079 -0.535284
v 0.310838 0.798067 -0.562593
vn 0.5770 0.1410 -0.8044
vn 0.0000 0.0477 0.9989
vn -0.5931 0.0196 0.8049
vn 1.0000 0.0000 0.0000
vn -0.4662 0.0330 -0.8841
vn 0.0000 -0.9761 0.2175
vn -0.0268 -0.9763 0.2146
vn 0.0472 -0.0188 -0.9987
vn 0.4038 0.0360 -0.9141
vn 0.5300 0.0077 -0.8480
vn -0.8432 -0.4805 -0.2413
vn 0.0000 -1.0000 0.0000
vn 0.3303 -0.7916 -0.5140
vn 0.0017 -0.7073 -0.7069
vn 0.3278 -0.7857 -0.5245
vn -1.0000 0.0000 0.0000
vn -0.9991 -0.0019 -0.0426
vn -0.9939 0.0153 -0.1090
vn -0.5597 0.0395 0.8277
vn -0.5708 0.1982 0.7968
vn 0.9707 0.2391 0.0218
vn -0.0926 0.9907 0.0996
vn -0.1473 0.9464 0.2873
vn 0.0000 0.9524 0.3048
vn 0.9856 -0.0150 -0.1684
vn 0.9716 -0.0328 -0.2345
vn 0.5851 0.0226 -0.8107
vn 0.5650 0.1328 -0.8144
vn 0.3694 0.1122 -0.9225
vn 0.4035 0.1035 -0.9091
vn 0.2214 0.9585 -0.1796
vn -0.0009 1.0000 0.0023
usemtl Shape.5958
s off
f 8//1 18//1 19//1
f 3//2 2//2 4//2
f 3//3 5//3 6//3
f 4//4 2//4 8//4
f 1//5 9//5 10//5
f 2//6 3//6 11//6
f 3//7 6//7 11//7
f 8//4 2//4 11//4
f 9//8 1//8 13//8
f 1//9 12//9 13//9
f 12//10 7//10 13//10
f 6//11 9//11 14//11
f 11//12 6//12 14//12
f 7//13 11//13 14//13
f 9//14 13//14 14//14
f 13//15 7//15 14//15
f 6//16 5//16 15//16
f 9//17 6//17 15//17
f 10//18 9//18 15//18
f 3//2 4//2 16//2
f 5//19 3//19 16//19
f 15//20 5//20 16//20
f 4//21 8//21 17//21
f 10//22 15//22 17//22
f 15//23 16//23 17//23
f 16//24 4//24 17//24
f 8//25 11//25 18//25
f 11//26 7//26 18//26
f 7//27 12//27 18//27
f 18//28 12//28 19//28
f 1//29 10//29 19//29
f 12//30 1//30 19//30
f 17//31 8//31 19//31
f 10//32 17//32 19//32
