# Blender v2.79 (sub 0) OBJ File: ''
# www.blender.org
mtllib 100462_link_1_40.mtl
o Shape_IndexedFaceSet.040_Shape_IndexedFaceSet.5984
v 0.232341 0.688256 0.504819
v 0.232341 0.727503 0.504819
v 0.036131 0.782411 0.559761
v 0.036131 0.688256 0.606824
v 0.255896 0.688256 0.559761
v 0.255896 0.798105 0.520515
v 0.036131 0.798105 0.630374
v 0.193082 0.758869 0.606824
v 0.043983 0.688256 0.551907
v 0.255896 0.798105 0.575432
v 0.051857 0.805952 0.591128
v 0.255896 0.782411 0.504819
v 0.169526 0.688256 0.591128
v 0.043983 0.751022 0.630374
vn 0.1090 -0.3611 0.9261
vn 0.0000 -1.0000 0.0000
vn -1.0000 0.0000 0.0000
vn -0.2425 0.0000 -0.9701
vn -0.2537 0.0594 -0.9655
vn -0.9875 -0.0706 -0.1412
vn 1.0000 0.0000 0.0000
vn 0.5036 -0.1220 0.8553
vn 0.2261 0.3616 0.9045
vn -0.1557 0.8260 -0.5418
vn -0.7170 0.6805 -0.1512
vn 0.0384 0.9993 0.0000
vn 0.0541 0.9748 0.2166
vn -0.0000 0.0000 -1.0000
vn -0.2412 0.1035 -0.9649
vn 0.8957 -0.2241 -0.3840
vn -0.1741 0.6964 -0.6963
vn 0.3249 -0.3072 0.8945
vn 0.1640 -0.2659 0.9499
vn -0.7826 -0.1305 0.6087
vn 0.1546 0.0258 0.9876
usemtl Shape.5991
s off
f 4//1 13//1 14//1
f 4//2 1//2 5//2
f 3//3 4//3 7//3
f 2//4 1//4 9//4
f 3//5 2//5 9//5
f 4//6 3//6 9//6
f 1//2 4//2 9//2
f 5//7 6//7 10//7
f 8//8 5//8 10//8
f 7//9 8//9 10//9
f 6//10 3//10 11//10
f 3//11 7//11 11//11
f 10//12 6//12 11//12
f 7//13 10//13 11//13
f 1//14 2//14 12//14
f 2//15 3//15 12//15
f 5//16 1//16 12//16
f 3//17 6//17 12//17
f 6//7 5//7 12//7
f 4//2 5//2 13//2
f 5//18 8//18 13//18
f 13//19 8//19 14//19
f 7//20 4//20 14//20
f 8//21 7//21 14//21
