####
#
# OBJ File Generated by Meshlab
#
####
# Object 100468_link_0_17.obj
#
# Vertices: 15
# Faces: 26
#
####
mtllib ./100468_link_0_17.obj.mtl

vn 0.651550 -0.677999 -0.340295
v 0.493327 0.057332 0.357940
vn -0.803663 0.488011 0.340546
v 0.378281 0.060241 0.401149
vn -0.990012 0.139653 0.019348
v 0.387851 0.065032 0.420235
vn -0.356085 0.922452 -0.149282
v 0.467740 0.148259 0.344057
vn 0.658000 0.358133 0.662402
v 0.497270 0.138031 0.397072
vn 0.553763 -0.274560 0.786107
v 0.448426 0.042480 0.433513
vn -0.199182 -0.686248 -0.699564
v 0.405990 0.031880 0.365105
vn -0.191967 -0.075118 -0.978522
v 0.472256 0.127659 0.325719
vn -0.290258 0.656114 0.696610
v 0.402422 0.120781 0.446997
vn -0.570233 0.808398 -0.146039
v 0.473412 0.159147 0.368307
vn 0.903177 -0.299524 0.307500
v 0.513676 0.094326 0.378429
vn -0.710715 0.258794 -0.654148
v 0.366677 0.072925 0.358954
vn 0.210569 -0.976900 -0.036434
v 0.446594 0.022788 0.392520
vn 0.513559 -0.227967 -0.827217
v 0.492880 0.097489 0.332310
vn 0.118836 -0.211469 0.970133
v 0.411962 0.058447 0.437549
# 15 vertices, 0 vertices normals


usemtl material_0
f 13//13 6//6 15//15
f 2//2 3//3 4//4
f 3//3 2//2 7//7
f 4//4 3//3 10//10
f 5//5 4//4 10//10
f 3//3 9//9 10//10
f 9//9 5//5 10//10
f 5//5 6//6 11//11
f 2//2 4//4 12//12
f 7//7 2//2 12//12
f 4//4 8//8 12//12
f 8//8 7//7 12//12
f 3//3 7//7 13//13
f 11//11 6//6 13//13
f 1//1 11//11 13//13
f 4//4 5//5 14//14
f 8//8 4//4 14//14
f 7//7 8//8 14//14
f 5//5 11//11 14//14
f 11//11 1//1 14//14
f 1//1 13//13 14//14
f 13//13 7//7 14//14
f 6//6 5//5 15//15
f 9//9 3//3 15//15
f 5//5 9//9 15//15
f 3//3 13//13 15//15
# 26 faces, 0 coords texture

# End of File
