# Blender v2.79 (sub 0) OBJ File: ''
# www.blender.org
mtllib 100468_link_1_9.mtl
o Shape_IndexedFaceSet.009_Shape_IndexedFaceSet.4310
v -0.408712 0.856418 -0.348354
v -0.521671 0.419580 -0.213369
v -0.521671 0.434772 -0.228447
v -0.315047 -0.729184 -0.356818
v -0.446267 0.842023 -0.213369
v -0.423640 -0.732538 -0.204591
v -0.401032 -0.719080 -0.349099
v -0.476417 -0.719080 -0.228447
v -0.363321 0.849309 -0.341553
v -0.461352 0.842023 -0.333993
v -0.521671 0.842023 -0.205808
v -0.499044 0.434772 -0.281213
v -0.446267 0.419580 -0.349099
v -0.475533 -0.705817 -0.207008
v -0.461352 -0.719080 -0.266149
v -0.468894 0.434772 -0.326461
v -0.325609 -0.651179 -0.341553
v -0.506586 0.834427 -0.258617
v -0.446267 0.849309 -0.349099
v -0.498165 0.855423 -0.206644
v -0.370863 0.842023 -0.326461
v -0.483959 -0.643583 -0.213369
vn -0.9858 -0.1216 0.1159
vn -0.1258 -0.9858 -0.1115
vn 0.1503 0.0142 -0.9885
vn -1.0000 -0.0000 -0.0000
vn -0.0898 -0.0036 -0.9960
vn -0.4169 -0.7652 0.4906
vn -0.4980 -0.0155 0.8670
vn -0.0477 -0.0022 0.9989
vn -0.1600 -0.9802 -0.1163
vn -0.9280 -0.0364 -0.3708
vn -0.2104 -0.9740 -0.0841
vn -0.9185 -0.0351 -0.3939
vn -0.8317 -0.0344 -0.5542
vn -0.8322 0.0052 -0.5545
vn -0.7165 -0.0285 -0.6970
vn -0.8082 -0.0360 -0.5877
vn 0.8089 0.0149 0.5878
vn 0.8141 -0.0034 0.5807
vn -0.9608 0.0154 -0.2767
vn -0.8580 0.0128 -0.5136
vn -0.9191 0.0049 -0.3941
vn 0.0186 0.0064 -0.9998
vn -0.0587 0.0000 -0.9983
vn -0.7076 0.0000 -0.7066
vn -0.7073 0.0000 -0.7069
vn -0.6039 0.7463 -0.2799
vn -0.6543 0.6834 -0.3238
vn 0.1304 0.0074 0.9914
vn 0.1401 0.9855 0.0953
vn 0.2710 0.9350 0.2285
vn 0.0339 0.0029 0.9994
vn -0.1828 0.9771 -0.1085
vn -0.4895 0.8452 -0.2146
vn 0.8898 0.0228 0.4557
vn 0.7996 0.2766 0.5331
vn 0.8319 0.0196 0.5546
vn 0.8700 0.0214 0.4926
vn -0.9987 -0.0354 -0.0357
vn -0.9561 -0.0375 -0.2905
vn -0.7148 -0.0254 0.6988
usemtl Shape.4313
s off
f 8//1 14//1 22//1
f 4//2 6//2 7//2
f 4//3 1//3 9//3
f 3//4 2//4 11//4
f 4//5 7//5 13//5
f 8//6 6//6 14//6
f 11//7 2//7 14//7
f 6//8 11//8 14//8
f 7//9 6//9 15//9
f 8//10 3//10 15//10
f 6//11 8//11 15//11
f 3//12 12//12 15//12
f 15//13 12//13 16//13
f 12//14 10//14 16//14
f 13//15 7//15 16//15
f 7//16 15//16 16//16
f 5//17 6//17 17//17
f 6//18 4//18 17//18
f 3//19 11//19 18//19
f 10//20 12//20 18//20
f 12//21 3//21 18//21
f 1//22 4//22 19//22
f 4//23 13//23 19//23
f 16//24 10//24 19//24
f 13//25 16//25 19//25
f 18//26 11//26 19//26
f 10//27 18//27 19//27
f 6//28 5//28 20//28
f 9//29 1//29 20//29
f 5//30 9//30 20//30
f 11//31 6//31 20//31
f 1//32 19//32 20//32
f 19//33 11//33 20//33
f 4//34 9//34 21//34
f 9//35 5//35 21//35
f 5//36 17//36 21//36
f 17//37 4//37 21//37
f 2//38 3//38 22//38
f 3//39 8//39 22//39
f 14//40 2//40 22//40
