# Blender v2.79 (sub 0) OBJ File: ''
# www.blender.org
mtllib 100468_link_1_36.mtl
o Shape_IndexedFaceSet.036_Shape_IndexedFaceSet.4337
v 0.079215 0.408470 -0.534621
v 0.194771 0.389536 -0.447150
v 0.074106 0.857030 -0.492398
v 0.202313 0.849542 -0.447150
v 0.194771 0.434788 -0.522550
v 0.074106 0.842008 -0.552702
v 0.081648 0.389536 -0.484855
v 0.202313 0.849542 -0.515007
v 0.074106 0.427300 -0.552702
v 0.104288 0.834427 -0.552702
v 0.202313 0.389536 -0.447150
v 0.187216 0.389536 -0.507464
v 0.134445 0.434788 -0.545169
v 0.187216 0.593192 -0.447150
v 0.157059 0.842008 -0.537626
v 0.074106 0.389536 -0.492398
vn 0.0000 -1.0000 0.0000
vn 0.0583 0.9983 0.0000
vn 0.0140 0.9703 -0.2417
vn -1.0000 -0.0000 0.0000
vn 0.0000 0.0000 -1.0000
vn 0.0000 0.0000 1.0000
vn 1.0000 0.0000 0.0000
vn 0.9939 -0.0161 -0.1091
vn 0.0636 -0.6822 -0.7284
vn 0.9427 -0.2360 -0.2360
vn 0.1250 -0.0093 -0.9921
vn 0.1685 -0.5076 -0.8450
vn 0.3292 -0.3476 -0.8779
vn -0.3317 0.0195 0.9432
vn -0.3162 -0.0117 0.9486
vn -0.3524 0.0094 0.9358
vn 0.4460 0.0082 -0.8950
vn 0.0840 0.8829 -0.4621
vn 0.1457 0.5800 -0.8015
vn 0.3511 -0.0022 -0.9363
vn 0.2744 0.0026 -0.9616
vn -0.7072 -0.0000 0.7071
vn -0.7797 -0.5306 -0.3323
vn -0.0552 -0.9086 -0.4141
usemtl Shape.4340
s off
f 12//1 7//1 16//1
f 3//2 4//2 8//2
f 6//3 3//3 8//3
f 3//4 6//4 9//4
f 9//5 6//5 10//5
f 4//6 2//6 11//6
f 2//1 7//1 11//1
f 8//7 4//7 11//7
f 5//8 8//8 11//8
f 1//9 9//9 12//9
f 5//10 11//10 12//10
f 11//1 7//1 12//1
f 9//11 10//11 13//11
f 12//12 9//12 13//12
f 5//13 12//13 13//13
f 2//6 4//6 14//6
f 4//14 3//14 14//14
f 7//15 2//15 14//15
f 3//16 7//16 14//16
f 8//17 5//17 15//17
f 6//18 8//18 15//18
f 10//19 6//19 15//19
f 5//20 13//20 15//20
f 13//21 10//21 15//21
f 7//22 3//22 16//22
f 9//23 1//23 16//23
f 3//4 9//4 16//4
f 1//24 12//24 16//24
