# Blender v2.79 (sub 0) OBJ File: ''
# www.blender.org
mtllib 100468_link_1_15.mtl
o Shape_IndexedFaceSet.015_Shape_IndexedFaceSet.4316
v -0.220016 0.366911 -0.499943
v -0.204924 0.366911 -0.507461
v -0.016403 0.366911 -0.492403
v -0.220016 0.849506 -0.447151
v -0.197388 0.849506 -0.530081
v -0.016403 0.427321 -0.560253
v -0.001310 0.849506 -0.499943
v -0.220016 0.366911 -0.447151
v -0.182274 0.434872 -0.537621
v -0.046567 0.841955 -0.560253
v -0.001310 0.382062 -0.545161
v -0.220016 0.849506 -0.515001
v -0.204924 0.826901 -0.447151
v -0.001310 0.841955 -0.560253
v -0.220016 0.434872 -0.522541
v -0.152131 0.427321 -0.545161
v -0.152131 0.834403 -0.545161
v -0.001310 0.366911 -0.499943
v -0.204924 0.366911 -0.447151
v -0.069196 0.366911 -0.537621
v -0.005203 0.855702 -0.536414
v -0.046567 0.434872 -0.560253
v -0.204924 0.857057 -0.454702
vn -0.0354 0.9940 -0.1031
vn 0.0000 -1.0000 0.0000
vn -1.0000 -0.0000 0.0000
vn 0.2502 0.0073 0.9682
vn 0.2318 0.1548 0.9604
vn 0.0000 0.0000 1.0000
vn 0.0000 0.0000 -1.0000
vn 0.6694 -0.0244 -0.7425
vn 1.0000 0.0000 0.0000
vn -0.4274 -0.2853 -0.8579
vn -0.3565 -0.2771 -0.8922
vn -0.3710 0.0034 -0.9286
vn -0.5545 0.0151 -0.8320
vn -0.3017 -0.3009 -0.9047
vn -0.3144 0.0058 -0.9493
vn -0.1578 0.4196 -0.8939
vn -0.2427 -0.0000 -0.9701
vn -0.1415 -0.0000 -0.9899
vn 0.4469 0.0000 0.8946
vn 0.2334 0.0000 0.9724
vn -0.0322 -0.3258 -0.9449
vn -0.2000 -0.3870 -0.9001
vn 0.1737 -0.9338 -0.3129
vn -0.0434 0.8962 -0.4414
vn 0.9395 0.3398 -0.0426
vn 0.0000 0.8663 -0.4996
vn -0.0734 -0.2930 -0.9533
vn -0.1164 -0.2787 -0.9533
vn 0.2096 0.4494 0.8684
vn -0.4474 0.8943 0.0000
vn -0.0709 0.9918 -0.1064
vn 0.0720 0.9846 0.1596
usemtl Shape.4319
s off
f 21//1 5//1 23//1
f 1//2 2//2 3//2
f 1//2 3//2 8//2
f 4//3 1//3 8//3
f 1//3 4//3 12//3
f 3//4 7//4 13//4
f 7//5 4//5 13//5
f 4//6 8//6 13//6
f 6//7 10//7 14//7
f 11//8 6//8 14//8
f 7//9 11//9 14//9
f 2//10 1//10 15//10
f 9//11 2//11 15//11
f 5//12 9//12 15//12
f 1//3 12//3 15//3
f 12//13 5//13 15//13
f 2//14 9//14 16//14
f 9//15 5//15 17//15
f 5//16 10//16 17//16
f 16//17 9//17 17//17
f 10//18 16//18 17//18
f 3//2 2//2 18//2
f 7//19 3//19 18//19
f 11//9 7//9 18//9
f 8//2 3//2 19//2
f 3//20 13//20 19//20
f 13//6 8//6 19//6
f 6//21 11//21 20//21
f 2//22 16//22 20//22
f 18//2 2//2 20//2
f 11//23 18//23 20//23
f 10//24 5//24 21//24
f 7//25 14//25 21//25
f 14//26 10//26 21//26
f 10//7 6//7 22//7
f 16//18 10//18 22//18
f 6//27 20//27 22//27
f 20//28 16//28 22//28
f 4//29 7//29 23//29
f 12//30 4//30 23//30
f 5//31 12//31 23//31
f 7//32 21//32 23//32
