####
#
# OBJ File Generated by Meshlab
#
####
# Object 100468_link_0_0.obj
#
# Vertices: 19
# Faces: 34
#
####
mtllib ./100468_link_0_0.obj.mtl

vn -0.374347 0.333159 -0.865373
v -0.639436 0.566973 -0.034192
vn 0.414663 0.360236 0.835634
v -0.596906 0.456100 0.186354
vn 0.030625 0.679471 0.733063
v -0.607393 0.475308 0.182150
vn 0.681194 0.608601 0.406914
v -0.575408 0.613675 0.027602
vn 0.527111 -0.592640 -0.609041
v -0.564370 0.375996 0.108950
vn -0.965486 0.173169 0.194549
v -0.666992 0.569905 0.048029
vn -0.805612 -0.509451 -0.302405
v -0.641201 0.393560 0.135011
vn 0.697751 -0.358347 -0.620267
v -0.580835 0.579872 -0.028531
vn 0.992572 -0.060722 -0.105418
v -0.538216 0.425135 0.150413
vn -0.870409 -0.295545 0.393752
v -0.640244 0.425895 0.164158
vn -0.267707 0.728895 0.630115
v -0.639150 0.600153 0.054596
vn -0.091597 -0.678510 -0.728858
v -0.634818 0.530775 -0.026985
vn -0.017718 -0.795791 -0.605311
v -0.607387 0.387381 0.135795
vn -0.970573 -0.155319 -0.184022
v -0.665115 0.556481 0.004705
vn -0.522037 0.817045 -0.244776
v -0.640287 0.614236 0.003250
vn 0.563654 0.266730 0.781760
v -0.567650 0.440977 0.175619
vn -0.711518 0.347647 0.610642
v -0.643232 0.463676 0.169469
vn 0.084115 0.751099 -0.654809
v -0.589236 0.606628 -0.009034
vn 0.855104 -0.510543 0.090238
v -0.575300 0.398975 0.152285
# 19 vertices, 0 vertices normals


usemtl material_0
f 16//16 10//10 19//19
f 3//3 2//2 4//4
f 8//8 4//4 9//9
f 3//3 4//4 11//11
f 1//1 8//8 12//12
f 12//12 8//8 13//13
f 8//8 5//5 13//13
f 10//10 7//7 13//13
f 7//7 12//12 13//13
f 10//10 6//6 14//14
f 7//7 10//10 14//14
f 1//1 12//12 14//14
f 12//12 7//7 14//14
f 11//11 4//4 15//15
f 6//6 11//11 15//15
f 14//14 6//6 15//15
f 1//1 14//14 15//15
f 4//4 2//2 16//16
f 9//9 4//4 16//16
f 2//2 10//10 16//16
f 2//2 3//3 17//17
f 10//10 2//2 17//17
f 6//6 10//10 17//17
f 3//3 11//11 17//17
f 11//11 6//6 17//17
f 8//8 1//1 18//18
f 4//4 8//8 18//18
f 1//1 15//15 18//18
f 15//15 4//4 18//18
f 5//5 8//8 19//19
f 8//8 9//9 19//19
f 13//13 5//5 19//19
f 10//10 13//13 19//19
f 9//9 16//16 19//19
# 34 faces, 0 coords texture

# End of File
