# Blender v2.79 (sub 0) OBJ File: ''
# www.blender.org
mtllib 100468_link_1_5.mtl
o Shape_IndexedFaceSet.005_Shape_IndexedFaceSet.4306
v -0.016393 -0.771860 0.322121
v -0.008826 -0.794496 0.465375
v -0.013098 -0.727203 0.494075
v 0.367082 -0.726824 0.322638
v 0.338034 -0.794496 0.322121
v -0.004820 -0.735757 0.327339
v 0.142034 -0.786948 0.472913
v 0.222273 -0.732739 0.436633
v -0.022674 -0.725513 0.459437
v 0.285250 -0.794496 0.389996
v 0.345601 -0.726621 0.359827
v 0.120367 -0.731138 0.477455
v 0.028861 -0.779401 0.495561
v 0.368229 -0.779401 0.329676
v 0.292780 -0.779401 0.397534
vn 0.5466 -0.5761 0.6077
vn 0.0005 0.0074 -1.0000
vn -0.0630 -0.9863 -0.1525
vn -0.0161 0.1481 -0.9888
vn -0.9806 -0.1950 0.0210
vn -0.9520 -0.1692 0.2549
vn -0.9347 0.3215 -0.1513
vn -0.0250 0.9964 -0.0806
vn 0.0000 -1.0000 0.0000
vn 0.0413 -0.9861 0.1611
vn 0.0151 0.9989 0.0446
vn 0.0018 1.0000 -0.0044
vn 0.3719 0.0690 0.9257
vn 0.1270 0.9516 0.2798
vn 0.0446 0.9913 0.1235
vn -0.4867 -0.3687 0.7920
vn 0.0242 -0.9059 0.4228
vn 0.1263 0.1295 0.9835
vn 0.1960 -0.0037 0.9806
vn 0.2971 -0.1203 -0.9472
vn 0.3697 -0.8835 0.2875
vn 0.8630 0.0855 0.4980
vn 0.6624 -0.1368 0.7365
vn 0.4489 -0.0682 0.8910
vn 0.3928 -0.5601 0.7294
vn 0.5240 0.0813 0.8478
usemtl Shape.4309
s off
f 10//1 14//1 15//1
f 1//2 4//2 5//2
f 2//3 1//3 5//3
f 4//4 1//4 6//4
f 1//5 2//5 9//5
f 2//6 3//6 9//6
f 6//7 1//7 9//7
f 4//8 6//8 9//8
f 2//9 5//9 10//9
f 7//10 2//10 10//10
f 9//11 3//11 11//11
f 4//12 9//12 11//12
f 7//13 8//13 12//13
f 8//14 11//14 12//14
f 11//15 3//15 12//15
f 3//16 2//16 13//16
f 2//17 7//17 13//17
f 12//18 3//18 13//18
f 7//19 12//19 13//19
f 5//20 4//20 14//20
f 10//21 5//21 14//21
f 4//22 11//22 14//22
f 14//23 11//23 15//23
f 8//24 7//24 15//24
f 7//25 10//25 15//25
f 11//26 8//26 15//26
