####
#
# OBJ File Generated by Meshlab
#
####
# Object 100468_link_0_22.obj
#
# Vertices: 16
# Faces: 28
#
####
mtllib ./100468_link_0_22.obj.mtl

vn 0.279304 -0.481117 -0.830973
v 0.602793 0.539647 -0.032974
vn -0.204783 0.602512 0.771391
v 0.587015 0.435715 0.189411
vn 0.262082 0.652993 0.710572
v 0.604923 0.462301 0.173885
vn -0.840718 0.536606 0.072445
v 0.547261 0.586496 -0.000344
vn -0.491227 -0.794349 -0.357360
v 0.560052 0.375420 0.146239
vn 0.866575 -0.389212 -0.312349
v 0.627527 0.373044 0.128554
vn 0.908727 0.346305 0.233000
v 0.630801 0.591664 0.029949
vn -0.233982 -0.688358 -0.686597
v 0.557731 0.520042 -0.033437
vn -0.668543 0.333672 0.664615
v 0.543235 0.414783 0.176150
vn -0.399031 0.675341 0.620233
v 0.561312 0.606293 0.010266
vn 0.950441 -0.128600 0.283062
v 0.615203 0.404102 0.170358
vn 0.026222 -0.814507 -0.579561
v 0.584776 0.369280 0.143125
vn 0.970045 0.056239 -0.236325
v 0.614810 0.565497 -0.018053
vn -0.736300 -0.311365 -0.600761
v 0.538066 0.550042 -0.022183
vn -0.996340 -0.080448 -0.028897
v 0.508537 0.409632 0.127383
vn -0.071623 0.884802 0.460429
v 0.584414 0.595752 0.005594
# 16 vertices, 0 vertices normals


usemtl material_0
f 7//7 13//13 16//16
f 9//9 2//2 10//10
f 4//4 9//9 10//10
f 3//3 2//2 11//11
f 7//7 3//3 11//11
f 2//2 9//9 11//11
f 9//9 5//5 11//11
f 1//1 6//6 12//12
f 8//8 1//1 12//12
f 5//5 8//8 12//12
f 11//11 5//5 12//12
f 6//6 11//11 12//12
f 1//1 4//4 13//13
f 6//6 1//1 13//13
f 11//11 6//6 13//13
f 7//7 11//11 13//13
f 4//4 1//1 14//14
f 1//1 8//8 14//14
f 8//8 5//5 14//14
f 9//9 4//4 15//15
f 5//5 9//9 15//15
f 4//4 14//14 15//15
f 14//14 5//5 15//15
f 2//2 3//3 16//16
f 3//3 7//7 16//16
f 10//10 2//2 16//16
f 4//4 10//10 16//16
f 13//13 4//4 16//16
# 28 faces, 0 coords texture

# End of File
