# Blender v2.79 (sub 0) OBJ File: ''
# www.blender.org
mtllib 100468_link_1_28.mtl
o Shape_IndexedFaceSet.028_Shape_IndexedFaceSet.4329
v -0.227596 0.849492 0.495538
v -0.417038 0.397573 0.327962
v -0.363274 0.857051 0.322121
v -0.197392 0.381994 0.427670
v -0.235123 0.427298 0.495538
v -0.408533 0.841981 0.382460
v -0.197392 0.849492 0.435199
v -0.363274 0.381994 0.322121
v -0.310538 0.427298 0.457822
v -0.446216 0.849492 0.329668
v -0.197392 0.841981 0.503067
v -0.408533 0.434857 0.382460
v -0.287909 0.841981 0.472915
v -0.220045 0.381994 0.480444
v -0.378353 0.381994 0.382460
v -0.205571 0.440184 0.497119
v -0.446216 0.419787 0.329668
v -0.325567 0.857051 0.442746
v -0.333118 0.841981 0.442746
v -0.434602 0.848877 0.325285
v -0.201459 0.856720 0.478226
v -0.204967 0.834423 0.427670
v -0.348196 0.381994 0.329668
vn -0.0000 -1.0000 0.0000
vn -0.2409 0.0043 0.9705
vn 1.0000 0.0000 0.0000
vn -0.8139 0.0000 0.5810
vn -0.3519 0.0063 0.9360
vn -0.4473 -0.0081 0.8944
vn -0.4084 -0.4080 0.8166
vn -0.2847 -0.9560 -0.0712
vn -0.5902 -0.3369 0.7336
vn -0.4460 -0.5310 0.7205
vn 0.9906 -0.0222 0.1352
vn -0.0474 -0.0138 0.9988
vn 0.8696 -0.3233 0.3733
vn 0.0764 -0.2922 0.9533
vn -0.1374 -0.1048 -0.9850
vn -0.5873 -0.7862 0.1922
vn -0.6909 -0.3945 0.6058
vn -0.0882 0.9957 0.0276
vn -0.4583 0.7739 0.4372
vn -0.3468 0.5912 0.7282
vn -0.5348 0.2680 0.8014
vn -0.6098 -0.0044 0.7925
vn -0.6244 0.0000 0.7811
vn -0.5551 0.0000 0.8318
vn -0.5959 0.2986 0.7455
vn -0.0443 0.0000 -0.9990
vn -0.1214 0.8867 -0.4461
vn -0.0941 -0.0076 -0.9955
vn -0.3531 0.0000 -0.9356
vn 0.1470 0.9776 -0.1503
vn 0.0907 0.8629 0.4972
vn 0.9464 0.3210 0.0355
vn -0.0780 0.9564 0.2816
vn 0.0029 1.0000 -0.0009
vn 0.5556 0.0093 -0.8314
vn 0.5627 0.1254 -0.8171
vn 0.6932 0.0116 -0.7207
vn 0.5449 0.0040 -0.8385
vn 0.4476 0.0000 -0.8942
usemtl Shape.4332
s off
f 4//1 8//1 23//1
f 1//2 5//2 11//2
f 4//3 7//3 11//3
f 6//4 10//4 12//4
f 5//5 1//5 13//5
f 9//6 5//6 13//6
f 8//1 4//1 14//1
f 5//7 9//7 14//7
f 2//8 8//8 15//8
f 9//9 12//9 15//9
f 8//1 14//1 15//1
f 14//10 9//10 15//10
f 4//11 11//11 16//11
f 11//12 5//12 16//12
f 14//13 4//13 16//13
f 5//14 14//14 16//14
f 8//15 2//15 17//15
f 12//4 10//4 17//4
f 2//16 15//16 17//16
f 15//17 12//17 17//17
f 3//18 10//18 18//18
f 10//19 6//19 18//19
f 13//20 1//20 18//20
f 13//21 18//21 19//21
f 12//22 9//22 19//22
f 6//23 12//23 19//23
f 9//24 13//24 19//24
f 18//25 6//25 19//25
f 3//26 8//26 20//26
f 10//27 3//27 20//27
f 8//28 17//28 20//28
f 17//29 10//29 20//29
f 7//30 3//30 21//30
f 1//31 11//31 21//31
f 11//32 7//32 21//32
f 18//33 1//33 21//33
f 3//34 18//34 21//34
f 4//35 3//35 22//35
f 3//36 7//36 22//36
f 7//37 4//37 22//37
f 3//38 4//38 23//38
f 8//39 3//39 23//39
