# Blender v2.79 (sub 0) OBJ File: ''
# www.blender.org
mtllib 100468_link_1_37.mtl
o Shape_IndexedFaceSet.037_Shape_IndexedFaceSet.4338
v -0.137071 -0.062972 0.525727
v -0.126958 0.400320 0.505640
v -0.129052 -0.734067 0.434783
v -0.197385 -0.726621 0.465400
v -0.197385 0.359369 0.488012
v -0.159691 0.359369 0.442777
v -0.129517 -0.726621 0.480460
v -0.197507 -0.728578 0.412399
v -0.189838 0.261252 0.427696
v -0.129517 0.238609 0.450318
v -0.152151 -0.062972 0.525727
v -0.175114 -0.735954 0.410820
v -0.195167 0.323884 0.437464
v -0.159691 -0.726621 0.480460
v -0.135890 -0.735152 0.425840
v -0.129517 -0.070520 0.518175
v -0.129517 0.359369 0.457870
vn 0.4467 0.0558 -0.8930
vn -0.4078 0.8475 -0.3398
vn 0.9999 -0.0025 0.0106
vn -1.0000 -0.0000 0.0023
vn 0.9988 0.0013 -0.0499
vn 0.3615 0.0321 -0.9318
vn 0.0000 0.0433 0.9991
vn -0.7168 -0.0145 0.6971
vn -0.2732 0.0565 0.9603
vn 0.0000 -0.0681 0.9977
vn -0.3104 -0.9499 0.0358
vn -0.0651 0.0159 -0.9978
vn -0.5813 0.6537 -0.4844
vn -0.9989 0.0033 -0.0462
vn -0.0057 0.1536 -0.9881
vn -0.8342 0.0150 -0.5512
vn 0.0000 -0.9870 0.1609
vn -0.3704 -0.0590 0.9270
vn -0.0580 -0.9877 0.1452
vn -0.0334 -0.9896 0.1400
vn 0.7938 0.0101 -0.6081
vn 0.3580 0.0211 -0.9335
vn 0.3572 0.0211 -0.9338
vn -0.0287 -0.9894 0.1420
vn 0.7143 0.0147 0.6997
vn 0.9979 -0.0037 0.0645
vn 0.6852 -0.0418 0.7272
vn 0.3139 0.7125 -0.6276
vn 0.9984 0.0035 -0.0565
usemtl Shape.4341
s off
f 10//1 6//1 17//1
f 5//2 2//2 6//2
f 3//3 2//3 7//3
f 4//4 5//4 8//4
f 2//5 3//5 10//5
f 9//6 6//6 10//6
f 1//7 2//7 11//7
f 5//8 4//8 11//8
f 2//9 5//9 11//9
f 7//10 1//10 11//10
f 4//11 8//11 12//11
f 8//12 9//12 12//12
f 5//13 6//13 13//13
f 8//14 5//14 13//14
f 6//15 9//15 13//15
f 9//16 8//16 13//16
f 3//17 7//17 14//17
f 11//18 4//18 14//18
f 7//10 11//10 14//10
f 4//19 12//19 14//19
f 14//20 12//20 15//20
f 10//21 3//21 15//21
f 9//22 10//22 15//22
f 12//23 9//23 15//23
f 3//24 14//24 15//24
f 2//25 1//25 16//25
f 7//26 2//26 16//26
f 1//27 7//27 16//27
f 6//28 2//28 17//28
f 2//29 10//29 17//29
