# Blender v2.79 (sub 0) OBJ File: ''
# www.blender.org
mtllib 102708_link_3_43.mtl
o Shape_IndexedFaceSet.043_Shape_IndexedFaceSet.866
v 0.055769 -0.313766 0.003645
v 0.123029 -0.261451 0.145643
v 0.115552 -0.253978 0.145643
v 0.048293 -0.313766 0.145643
v 0.045258 -0.251550 0.127138
v 0.093789 -0.267606 -0.002618
v 0.109879 -0.316172 -0.002069
v 0.115552 -0.313766 0.145643
v 0.042472 -0.318423 0.087592
vn 0.0523 -0.9985 0.0143
vn 0.0000 0.0000 1.0000
vn -0.2368 0.2664 0.9343
vn 0.0607 0.9931 -0.1002
vn 0.6971 0.6974 -0.1664
vn -0.7460 0.5671 -0.3492
vn -0.1070 -0.0467 -0.9932
vn 0.9314 0.3064 -0.1964
vn 0.9893 -0.1414 -0.0357
vn -0.9806 0.1285 -0.1482
vn -0.9947 -0.0184 0.1012
vn -0.0510 -0.9967 -0.0634
vn 0.0000 -0.9968 0.0800
usemtl Shape.870
s off
f 7//1 8//1 9//1
f 2//2 3//2 4//2
f 4//3 3//3 5//3
f 5//4 3//4 6//4
f 3//5 2//5 6//5
f 1//6 5//6 6//6
f 1//7 6//7 7//7
f 6//8 2//8 7//8
f 2//2 4//2 8//2
f 7//9 2//9 8//9
f 5//10 1//10 9//10
f 4//11 5//11 9//11
f 1//12 7//12 9//12
f 8//13 4//13 9//13
