# Blender v2.79 (sub 0) OBJ File: ''
# www.blender.org
mtllib 102708_link_2_3.mtl
o Shape_IndexedFaceSet.003_Shape_IndexedFaceSet.17155
v 0.299439 0.062487 0.302706
v 0.152228 0.060796 0.253608
v 0.152228 0.074328 0.253608
v 0.213155 0.060796 0.388987
v 0.304522 0.079406 0.388987
v 0.282524 0.079406 0.253608
v 0.304522 0.055715 0.388987
v 0.216544 0.079406 0.388987
v 0.280830 0.055715 0.253608
v 0.159007 0.055715 0.253608
v 0.157312 0.079406 0.253608
v 0.218224 0.055715 0.388987
v 0.307912 0.074328 0.355142
v 0.294371 0.076018 0.277302
v 0.307912 0.057410 0.366963
v 0.285898 0.057410 0.255304
v 0.213155 0.074328 0.388987
v 0.304522 0.079406 0.353446
v 0.307912 0.077711 0.388987
v 0.294371 0.059101 0.277302
v 0.292676 0.055715 0.289149
v 0.287592 0.074328 0.255304
v 0.214850 0.057410 0.388987
v 0.153938 0.077711 0.253608
v 0.292676 0.079406 0.280695
v 0.307912 0.059101 0.358521
v 0.307912 0.057410 0.383898
vn 1.0000 -0.0000 0.0000
vn -0.9119 0.0000 0.4104
vn 0.0000 0.0000 -1.0000
vn 0.0000 0.0000 1.0000
vn -0.0000 1.0000 0.0000
vn 0.0000 -1.0000 0.0000
vn 0.9842 0.0492 -0.1701
vn 0.8443 0.5184 -0.1356
vn 0.4472 0.8944 0.0000
vn 0.8387 0.5418 -0.0542
vn 0.9807 0.0000 -0.1956
vn 0.5594 -0.8147 -0.1528
vn 0.2716 -0.9619 -0.0322
vn 0.3499 -0.9295 -0.1166
vn 0.6677 -0.7356 -0.1147
vn 0.2980 -0.0213 -0.9543
vn 0.7250 0.6327 -0.2720
vn 0.3270 -0.0327 -0.9444
vn 0.9557 0.0000 -0.2945
vn 0.9315 -0.0933 -0.3516
vn -0.8296 -0.4153 0.3733
vn -0.5808 -0.7749 0.2493
vn -0.4405 -0.8768 0.1927
vn -0.4405 0.8768 0.1927
vn -0.8282 0.4186 0.3727
vn -0.7781 0.5193 0.3533
vn 0.7241 0.6341 -0.2714
vn 0.8257 0.5478 -0.1345
vn 0.9878 -0.0337 -0.1520
vn 0.9586 -0.2357 -0.1598
vn 0.7624 -0.6345 -0.1271
vn 0.4472 -0.8944 0.0000
vn 0.8446 -0.1302 0.5193
usemtl Shape.17166
s off
f 15//1 19//1 27//1
f 3//2 2//2 4//2
f 2//3 3//3 6//3
f 5//4 4//4 7//4
f 4//4 5//4 8//4
f 5//5 6//5 8//5
f 2//3 6//3 9//3
f 9//6 7//6 10//6
f 2//3 9//3 10//3
f 6//3 3//3 11//3
f 8//5 6//5 11//5
f 7//4 4//4 12//4
f 10//6 7//6 12//6
f 13//7 1//7 14//7
f 3//2 4//2 17//2
f 4//4 8//4 17//4
f 6//5 5//5 18//5
f 13//8 14//8 18//8
f 5//4 7//4 19//4
f 15//1 13//1 19//1
f 18//9 5//9 19//9
f 13//10 18//10 19//10
f 14//11 1//11 20//11
f 16//12 20//12 21//12
f 7//6 9//6 21//6
f 15//13 7//13 21//13
f 9//14 16//14 21//14
f 20//15 15//15 21//15
f 9//16 6//16 22//16
f 6//17 14//17 22//17
f 16//18 9//18 22//18
f 14//19 20//19 22//19
f 20//20 16//20 22//20
f 4//21 2//21 23//21
f 2//22 10//22 23//22
f 12//4 4//4 23//4
f 10//23 12//23 23//23
f 11//3 3//3 24//3
f 8//24 11//24 24//24
f 3//25 17//25 24//25
f 17//26 8//26 24//26
f 14//27 6//27 25//27
f 6//5 18//5 25//5
f 18//28 14//28 25//28
f 1//29 13//29 26//29
f 13//1 15//1 26//1
f 20//30 1//30 26//30
f 15//31 20//31 26//31
f 7//32 15//32 27//32
f 19//33 7//33 27//33
