# Blender v2.79 (sub 0) OBJ File: ''
# www.blender.org
mtllib 102708_link_3_58.mtl
o Shape_IndexedFaceSet.058_Shape_IndexedFaceSet.881
v 0.063240 -0.134412 0.810791
v -0.048864 -0.261422 0.736058
v -0.033897 -0.268901 0.736058
v 0.063240 -0.171791 0.736058
v -0.048864 -0.097032 0.773438
v -0.041380 -0.104511 0.825741
v 0.040810 -0.268901 0.743537
v 0.063240 -0.097032 0.773438
v -0.048864 -0.171791 0.736058
v -0.018951 -0.216580 0.780899
v 0.048283 -0.097032 0.825741
v 0.063240 -0.253978 0.736058
v 0.025864 -0.156850 0.810791
vn 0.1812 -0.3018 0.9360
vn 0.0000 0.0000 -1.0000
vn -0.9901 -0.0312 0.1372
vn 1.0000 0.0000 0.0000
vn 0.0000 0.4472 -0.8944
vn -1.0000 0.0000 -0.0000
vn -0.2872 -0.5747 0.7663
vn -0.5201 -0.4050 0.7520
vn -0.0769 -0.6361 0.7678
vn -0.0822 0.9849 0.1526
vn 0.9271 0.2649 0.2651
vn 0.0000 1.0000 0.0000
vn 0.0836 -0.5440 -0.8349
vn 0.5363 -0.4474 0.7157
vn 0.2799 -0.4663 0.8391
vn -0.0968 -0.3864 0.9172
vn 0.0970 -0.5027 0.8590
vn 0.0208 -0.2498 0.9681
usemtl Shape.885
s off
f 1//1 11//1 13//1
f 3//2 2//2 4//2
f 5//3 2//3 6//3
f 1//4 4//4 8//4
f 4//5 5//5 8//5
f 4//2 2//2 9//2
f 5//5 4//5 9//5
f 2//6 5//6 9//6
f 2//7 3//7 10//7
f 6//8 2//8 10//8
f 3//9 7//9 10//9
f 5//10 6//10 11//10
f 1//11 8//11 11//11
f 8//12 5//12 11//12
f 3//2 4//2 12//2
f 4//4 1//4 12//4
f 7//13 3//13 12//13
f 1//14 7//14 12//14
f 7//15 1//15 13//15
f 6//16 10//16 13//16
f 10//17 7//17 13//17
f 11//18 6//18 13//18
