# Blender v2.79 (sub 0) OBJ File: ''
# www.blender.org
mtllib 102708_link_3_33.mtl
o Shape_IndexedFaceSet.033_Shape_IndexedFaceSet.856
v -0.168448 0.059914 0.765951
v -0.286320 -0.072070 0.419882
v -0.198339 0.052434 0.414693
v -0.153495 -0.074611 0.698668
v -0.302967 0.052434 0.452116
v -0.228231 -0.074611 0.676264
v -0.252564 -0.082349 0.398894
v -0.213292 0.097276 0.668772
v -0.163333 0.066985 0.646449
v -0.280537 0.067358 0.414693
v -0.198339 -0.022290 0.414693
v -0.245833 0.044431 0.647709
v -0.198339 0.104755 0.608980
v -0.160986 -0.074611 0.765951
v -0.288014 -0.074611 0.481977
v -0.205830 0.044955 0.736056
v -0.153495 0.067358 0.758460
v -0.163223 -0.010921 0.594553
v -0.285211 0.002411 0.531306
v -0.302967 -0.044711 0.414693
v -0.213292 0.067358 0.414693
v -0.205830 -0.022290 0.736056
vn -0.9110 0.0000 0.4125
vn -0.5128 0.8578 0.0347
vn 0.2797 0.0000 -0.9601
vn 0.7515 -0.6174 -0.2324
vn -0.8642 0.4246 0.2698
vn 0.7971 0.5830 -0.1570
vn -0.4267 0.9044 0.0064
vn 0.0583 -0.9983 0.0065
vn -0.0421 -0.9986 0.0316
vn -0.3178 -0.9470 -0.0474
vn -0.1257 -0.9913 0.0387
vn -0.6399 0.5706 0.5147
vn -0.8473 0.3697 0.3814
vn -0.2166 0.8736 0.4358
vn 0.2183 0.9601 0.1747
vn 0.7650 0.6403 -0.0693
vn 0.4381 0.0243 0.8986
vn 0.9928 -0.0466 0.1105
vn 0.9824 0.1046 -0.1550
vn 0.9815 0.0000 -0.1916
vn 0.9726 -0.1467 -0.1806
vn 0.9968 0.0312 -0.0741
vn 0.9944 0.0597 -0.0875
vn -0.9392 -0.0577 0.3385
vn -0.9529 0.1095 0.2828
vn -0.9447 -0.1518 0.2907
vn -0.9800 -0.0808 0.1819
vn -0.5647 -0.4720 -0.6770
vn -0.8737 0.1749 -0.4539
vn -0.2627 0.0526 -0.9634
vn -0.8496 -0.5255 -0.0447
vn -0.9818 -0.0682 0.1771
vn 0.0829 0.0831 -0.9931
vn 0.0000 0.1049 -0.9945
vn 0.6939 0.6953 -0.1872
vn 0.0000 0.9820 -0.1890
vn -0.9222 -0.0442 0.3842
vn -0.5801 -0.0322 0.8139
vn -0.7568 -0.3244 0.5674
vn -0.6246 0.0000 0.7810
usemtl Shape.860
s off
f 16//1 12//1 22//1
f 5//2 8//2 10//2
f 7//3 3//3 11//3
f 4//4 7//4 11//4
f 8//5 5//5 12//5
f 9//6 3//6 13//6
f 10//7 8//7 13//7
f 7//8 4//8 14//8
f 6//9 7//9 14//9
f 2//10 7//10 15//10
f 7//11 6//11 15//11
f 1//12 8//12 16//12
f 8//13 12//13 16//13
f 8//14 1//14 17//14
f 13//15 8//15 17//15
f 9//16 13//16 17//16
f 1//17 14//17 17//17
f 14//18 4//18 17//18
f 3//19 9//19 18//19
f 11//20 3//20 18//20
f 4//21 11//21 18//21
f 17//22 4//22 18//22
f 9//23 17//23 18//23
f 6//24 12//24 19//24
f 12//25 5//25 19//25
f 15//26 6//26 19//26
f 15//27 19//27 20//27
f 7//28 2//28 20//28
f 5//29 10//29 20//29
f 10//30 7//30 20//30
f 2//31 15//31 20//31
f 19//32 5//32 20//32
f 3//33 7//33 21//33
f 7//34 10//34 21//34
f 13//35 3//35 21//35
f 10//36 13//36 21//36
f 12//37 6//37 22//37
f 14//38 1//38 22//38
f 6//39 14//39 22//39
f 1//40 16//40 22//40
