# Blender v2.79 (sub 0) OBJ File: ''
# www.blender.org
mtllib 102708_link_0_1.mtl
o Shape_IndexedFaceSet.001_Shape_IndexedFaceSet.8659
v 0.264024 0.469434 -0.020859
v 0.335515 0.526389 -0.018535
v 0.335515 0.526389 -0.023184
v 0.215766 0.526389 -0.023184
v 0.227394 0.526389 -0.015629
v 0.307031 0.478151 -0.016210
v 0.295404 0.473497 -0.025509
v 0.239022 0.483380 -0.016210
v 0.227394 0.506048 -0.025509
v 0.326208 0.526389 -0.015629
v 0.324462 0.497331 -0.025509
v 0.237275 0.483380 -0.024347
v 0.225659 0.526389 -0.024928
v 0.220420 0.507209 -0.016791
v 0.270999 0.478731 -0.015629
v 0.330276 0.503721 -0.016791
v 0.333769 0.520579 -0.024928
v 0.277962 0.468268 -0.017373
v 0.265185 0.471756 -0.025509
v 0.319234 0.486287 -0.023766
v 0.224487 0.496751 -0.023184
v 0.247743 0.475824 -0.016791
v 0.293071 0.470595 -0.023184
v 0.216938 0.526389 -0.016791
v 0.333769 0.511277 -0.022603
v 0.316327 0.497912 -0.015629
v 0.247157 0.475244 -0.023184
v 0.234368 0.484541 -0.018535
v 0.279696 0.468854 -0.024347
v 0.334343 0.526389 -0.024347
v 0.320980 0.489195 -0.016791
v 0.220420 0.509530 -0.024928
v 0.307031 0.476404 -0.018535
v 0.275066 0.470015 -0.016210
v 0.236701 0.497906 -0.015629
v 0.332608 0.512437 -0.016210
v 0.307031 0.476985 -0.024347
v 0.293657 0.471175 -0.016791
v 0.327955 0.497912 -0.022603
v 0.217513 0.513023 -0.019116
v 0.224487 0.496751 -0.017954
v 0.241929 0.484541 -0.025509
v 0.219845 0.511271 -0.016210
v 0.260531 0.470595 -0.017373
v 0.218099 0.526389 -0.024928
v 0.318648 0.488028 -0.025509
v 0.261106 0.471175 -0.024928
v 0.295978 0.482219 -0.015629
v 0.334929 0.526389 -0.016791
v 0.219259 0.507789 -0.022603
v 0.324462 0.495590 -0.016210
v 0.326794 0.497912 -0.024928
v 0.229141 0.493849 -0.016210
v 0.228554 0.495010 -0.024928
v 0.334343 0.514765 -0.017373
v 0.252396 0.475244 -0.016210
v 0.229141 0.507209 -0.025509
v 0.234368 0.484541 -0.022603
v 0.316913 0.484546 -0.016791
v 0.259945 0.470009 -0.020279
v 0.245996 0.475824 -0.018535
v 0.324462 0.499653 -0.025509
v 0.327369 0.496751 -0.019116
v 0.275641 0.468268 -0.023184
vn -0.0749 -0.7609 -0.6445
vn 0.0000 1.0000 0.0000
vn 0.0000 0.0000 -1.0000
vn 0.0000 0.0000 1.0000
vn 0.8714 -0.1190 -0.4760
vn -0.4729 -0.5958 0.6492
vn 0.0171 -0.2968 -0.9548
vn 0.1332 -0.9898 -0.0500
vn 0.1513 -0.6893 -0.7085
vn 0.7044 0.0014 -0.7098
vn 0.0053 0.0990 -0.9951
vn 0.0516 -0.0179 0.9985
vn 0.2808 -0.7274 -0.6262
vn 0.4082 -0.9084 -0.0908
vn 0.6067 -0.7910 -0.0791
vn 0.1790 -0.9812 0.0726
vn 0.3641 -0.7446 0.5595
vn 0.3694 -0.9279 0.0503
vn 0.0408 -0.1604 0.9862
vn 0.0575 -0.4854 0.8724
vn -0.9809 -0.0735 0.1798
vn -0.7773 -0.6291 0.0000
vn -0.9061 -0.3743 0.1970
vn -0.1104 0.0170 0.9937
vn -0.0465 -0.0152 0.9988
vn -0.8188 -0.1932 0.5406
vn -0.8108 -0.1340 0.5698
vn -0.0864 -0.6474 0.7572
vn -0.0891 -0.0123 -0.9959
vn -0.5967 -0.0822 -0.7982
vn 0.1806 -0.2890 -0.9401
vn 0.4527 -0.5501 -0.7017
vn -0.2287 -0.4043 -0.8856
vn -0.0418 -0.5444 -0.8378
vn -0.1101 -0.2003 -0.9735
vn -0.1663 -0.2797 -0.9456
vn 0.0355 -0.0461 0.9983
vn 0.0214 -0.0841 0.9962
vn 0.0087 -0.0625 0.9980
vn 0.1321 0.0193 0.9911
vn -0.8240 -0.1716 -0.5400
vn -0.7332 -0.3156 -0.6024
vn -0.9616 -0.1869 -0.2010
vn -0.9038 -0.4281 0.0000
vn -0.9157 -0.3841 0.1179
vn 0.0554 -0.0554 0.9969
vn 0.6307 -0.4036 0.6628
vn 0.2920 -0.1412 0.9460
vn 0.0626 -0.0303 0.9976
vn 0.2597 -0.0799 -0.9624
vn 0.6189 -0.1905 -0.7620
vn 0.7582 -0.5309 -0.3786
vn 0.8337 -0.3627 -0.4163
vn 0.2787 -0.1742 -0.9445
vn 0.6001 -0.4560 -0.6572
vn -0.4860 -0.4587 0.7439
vn -0.0509 -0.0480 0.9975
vn -0.4854 -0.2808 0.8280
vn -0.5544 -0.4810 0.6792
vn -0.3372 -0.1799 0.9241
vn -0.0596 -0.0318 0.9977
vn -0.5028 -0.4149 -0.7583
vn -0.1147 -0.0642 -0.9913
vn -0.4737 -0.2654 -0.8398
vn -0.0917 -0.0619 -0.9939
vn -0.1923 -0.1923 -0.9623
vn 0.9950 -0.1003 0.0000
vn 0.9928 -0.1159 -0.0317
vn 0.9334 -0.3373 0.1225
vn 0.7419 -0.2402 0.6260
vn 0.9460 -0.0636 0.3179
vn 0.6189 -0.0704 0.7823
vn -0.1503 -0.2471 0.9573
vn -0.0172 -0.0745 0.9971
vn -0.0269 -0.0442 0.9987
vn -0.0234 -0.0418 0.9989
vn -0.1687 -0.5067 0.8454
vn -0.0889 -0.3853 0.9185
vn 0.0016 0.0306 -0.9995
vn 0.0000 0.0303 -0.9995
vn -0.0146 0.0219 -0.9997
vn -0.5835 -0.5025 -0.6380
vn -0.5444 -0.7222 -0.4267
vn 0.7499 -0.6560 0.0858
vn 0.4837 -0.6997 0.5258
vn 0.6339 -0.7732 0.0179
vn 0.1621 -0.1620 0.9734
vn 0.2583 -0.2260 0.9393
vn -0.1181 -0.9826 0.1436
vn -0.1291 -0.9667 0.2210
vn -0.1729 -0.9443 -0.2800
vn -0.3016 -0.9043 -0.3021
vn -0.5141 -0.6858 0.5150
vn -0.3421 -0.8749 0.3428
vn -0.5887 -0.8070 -0.0463
vn -0.5998 -0.8001 0.0000
vn -0.3826 -0.9237 0.0197
vn -0.3454 -0.9040 0.2519
vn 0.0623 0.0000 -0.9981
vn 0.0021 0.0268 -0.9996
vn 0.9178 -0.3953 0.0376
vn 0.7723 -0.6315 0.0700
vn 0.7340 -0.4698 0.4904
vn 0.8013 -0.5948 -0.0634
vn 0.9168 -0.3988 0.0213
vn -0.0925 -0.9950 0.0369
vn 0.1284 -0.9904 -0.0513
vn -0.1535 -0.9435 -0.2936
usemtl Shape.8668
s off
f 47//1 29//1 64//1
f 2//2 3//2 4//2
f 2//2 4//2 5//2
f 2//2 5//2 10//2
f 7//3 9//3 11//3
f 4//2 3//2 13//2
f 10//4 5//4 15//4
f 9//3 7//3 19//3
f 5//2 4//2 24//2
f 17//5 3//5 25//5
f 10//4 15//4 26//4
f 22//6 8//6 28//6
f 19//7 7//7 29//7
f 23//8 18//8 29//8
f 7//9 23//9 29//9
f 13//2 3//2 30//2
f 3//10 17//10 30//10
f 17//11 13//11 30//11
f 15//4 5//4 35//4
f 10//12 26//12 36//12
f 23//13 7//13 37//13
f 33//14 23//14 37//14
f 20//15 33//15 37//15
f 18//16 23//16 38//16
f 33//17 6//17 38//17
f 23//18 33//18 38//18
f 6//19 34//19 38//19
f 34//20 18//20 38//20
f 24//21 4//21 40//21
f 21//22 28//22 41//22
f 14//23 40//23 41//23
f 9//3 19//3 42//3
f 5//24 24//24 43//24
f 35//25 5//25 43//25
f 40//26 14//26 43//26
f 24//27 40//27 43//27
f 18//28 34//28 44//28
f 4//2 13//2 45//2
f 9//29 32//29 45//29
f 32//30 4//30 45//30
f 7//3 11//3 46//3
f 37//31 7//31 46//31
f 20//32 37//32 46//32
f 27//33 12//33 47//33
f 19//34 29//34 47//34
f 42//35 19//35 47//35
f 12//36 42//36 47//36
f 6//37 26//37 48//37
f 26//4 15//4 48//4
f 34//38 6//38 48//38
f 15//39 34//39 48//39
f 2//2 10//2 49//2
f 10//40 36//40 49//40
f 4//41 32//41 50//41
f 32//42 21//42 50//42
f 40//43 4//43 50//43
f 21//44 41//44 50//44
f 41//45 40//45 50//45
f 26//46 6//46 51//46
f 31//47 16//47 51//47
f 16//48 36//48 51//48
f 36//49 26//49 51//49
f 11//50 17//50 52//50
f 17//51 25//51 52//51
f 39//52 20//52 52//52
f 25//53 39//53 52//53
f 46//54 11//54 52//54
f 20//55 46//55 52//55
f 28//56 8//56 53//56
f 8//57 35//57 53//57
f 14//58 41//58 53//58
f 41//59 28//59 53//59
f 43//60 14//60 53//60
f 35//61 43//61 53//61
f 12//62 21//62 54//62
f 32//63 9//63 54//63
f 21//64 32//64 54//64
f 9//65 42//65 54//65
f 42//66 12//66 54//66
f 3//67 2//67 55//67
f 25//68 3//68 55//68
f 16//69 25//69 55//69
f 36//70 16//70 55//70
f 2//71 49//71 55//71
f 49//72 36//72 55//72
f 8//73 22//73 56//73
f 34//74 15//74 56//74
f 35//75 8//75 56//75
f 15//76 35//76 56//76
f 22//77 44//77 56//77
f 44//78 34//78 56//78
f 11//3 9//3 57//3
f 13//79 17//79 57//79
f 45//80 13//80 57//80
f 9//81 45//81 57//81
f 21//82 12//82 58//82
f 12//83 27//83 58//83
f 28//22 21//22 58//22
f 20//84 31//84 59//84
f 6//85 33//85 59//85
f 33//86 20//86 59//86
f 51//87 6//87 59//87
f 31//88 51//88 59//88
f 1//89 18//89 60//89
f 18//90 44//90 60//90
f 47//91 1//91 60//91
f 27//92 47//92 60//92
f 22//93 28//93 61//93
f 44//94 22//94 61//94
f 58//95 27//95 61//95
f 28//96 58//96 61//96
f 27//97 60//97 61//97
f 60//98 44//98 61//98
f 17//99 11//99 62//99
f 11//3 57//3 62//3
f 57//100 17//100 62//100
f 25//101 16//101 63//101
f 31//102 20//102 63//102
f 16//103 31//103 63//103
f 20//104 39//104 63//104
f 39//105 25//105 63//105
f 18//106 1//106 64//106
f 29//107 18//107 64//107
f 1//108 47//108 64//108
