# Blender v2.79 (sub 0) OBJ File: ''
# www.blender.org
mtllib 102708_link_2_4.mtl
o Shape_IndexedFaceSet.004_Shape_IndexedFaceSet.17156
v -0.291131 0.065870 0.493932
v -0.148989 0.074328 0.781562
v -0.148989 0.060796 0.781562
v -0.201456 0.070942 0.388987
v -0.206527 0.055715 0.388987
v -0.294507 0.079406 0.389025
v -0.292812 0.055715 0.389025
v -0.148989 0.079406 0.630965
v -0.253908 0.079406 0.620820
v -0.243751 0.055715 0.646144
v -0.148989 0.055715 0.632656
v -0.208222 0.079406 0.388987
v -0.186227 0.079406 0.740944
v -0.164232 0.055715 0.761272
v -0.284365 0.077711 0.536241
v -0.282669 0.057410 0.537893
v -0.198065 0.067561 0.734181
v -0.248822 0.076018 0.646144
v -0.299593 0.062487 0.429605
v -0.148989 0.077711 0.778181
v -0.196385 0.057410 0.732490
v -0.247127 0.060796 0.649564
v -0.299593 0.074328 0.429605
v -0.148989 0.060796 0.624202
v -0.203151 0.059101 0.388987
v -0.284365 0.069251 0.541275
v -0.292812 0.055715 0.446551
v -0.154075 0.055715 0.771417
v -0.194689 0.076018 0.737563
v -0.294507 0.079406 0.438097
v -0.162537 0.079406 0.764654
v -0.297898 0.060796 0.389025
v -0.148989 0.074328 0.624202
v -0.203151 0.076018 0.390716
v -0.157466 0.059101 0.774799
v -0.280974 0.055715 0.532859
v -0.231898 0.077711 0.674926
v -0.201456 0.064180 0.388987
v -0.148989 0.057410 0.778181
v -0.280974 0.062487 0.551458
v -0.275903 0.079406 0.554840
v -0.299593 0.069251 0.399170
v -0.154075 0.076018 0.778181
v -0.236984 0.074328 0.668201
v -0.296202 0.057410 0.438097
v -0.257284 0.076018 0.622472
v -0.218380 0.059101 0.698636
v -0.250517 0.057410 0.636037
v -0.286045 0.062487 0.529439
v -0.297898 0.076018 0.389025
v -0.148989 0.057410 0.627583
v -0.194689 0.060796 0.737563
vn -0.8401 -0.1601 0.5183
vn 1.0000 0.0000 0.0000
vn 0.0000 1.0000 0.0000
vn 0.0000 -1.0000 0.0000
vn 0.0000 0.0000 -1.0000
vn -0.1362 -0.9862 0.0941
vn -0.9915 0.0000 0.1304
vn 0.6985 -0.6964 -0.1649
vn -0.9890 0.0554 0.1374
vn -0.9870 0.0823 0.1383
vn -0.7755 0.6247 0.0909
vn -0.7065 0.7077 0.0000
vn 0.1129 0.9935 0.0114
vn -0.4851 0.7279 0.4847
vn -0.0004 -0.0004 -1.0000
vn -0.0004 -0.0000 -1.0000
vn 0.9352 0.2832 -0.2127
vn 0.9760 0.0000 -0.2177
vn 0.9039 0.3731 -0.2090
vn 0.5340 0.4269 -0.7298
vn 0.5830 0.7998 -0.1427
vn -0.4089 -0.8159 0.4088
vn -0.4080 -0.8165 0.4085
vn -0.5774 -0.8126 0.0792
vn -0.1949 0.9746 0.1098
vn -0.4360 0.8764 0.2048
vn -0.4538 0.8418 0.2923
vn 0.3028 -0.9530 0.0111
vn -0.3898 -0.6507 0.6517
vn -0.3481 -0.8137 0.4656
vn -0.5881 0.7847 0.1960
vn -0.2943 0.9546 0.0469
vn -1.0000 0.0000 0.0000
vn -0.9871 -0.1562 -0.0347
vn -0.5536 0.0000 0.8328
vn -0.2290 0.6881 0.6885
vn -0.2896 0.8700 0.3991
vn -0.4860 0.7264 0.4860
vn -0.6193 -0.0327 0.7845
vn -0.7071 0.0004 0.7071
vn -0.8808 0.0083 0.4734
vn -0.8476 0.1330 0.5136
vn -0.8266 0.3131 0.4676
vn -0.8286 0.2536 0.4991
vn -0.9080 -0.4005 0.1231
vn -0.4472 -0.8944 0.0000
vn -0.6008 -0.7952 0.0815
vn -0.7065 -0.7072 -0.0244
vn -0.8231 -0.5677 -0.0107
vn -0.6375 0.7399 0.2147
vn -0.6327 0.7407 0.2262
vn -0.9412 -0.0292 0.3365
vn -0.9379 0.1773 0.2980
vn -0.9443 -0.0518 0.3249
vn -0.9486 0.0007 0.3163
vn -0.5387 -0.7830 0.3109
vn -0.6491 -0.6717 0.3571
vn -0.8625 -0.0464 0.5040
vn -0.8626 -0.0471 0.5037
vn -0.6659 -0.6672 0.3339
vn -0.4369 -0.8880 0.1436
vn -0.4472 -0.8823 0.1465
vn -0.8450 -0.4575 0.2768
vn -0.8983 -0.3169 0.3044
vn -0.9879 -0.0781 0.1341
vn -0.9087 -0.3989 0.1233
vn -0.9899 -0.0019 0.1416
vn -0.9398 -0.2645 0.2164
vn -0.9636 -0.1490 0.2219
vn -0.0004 0.0004 -1.0000
vn -0.7068 0.7074 -0.0001
vn -0.9800 0.1964 -0.0328
vn -0.9863 0.0000 -0.1648
vn 0.8070 -0.5601 -0.1872
vn 0.9525 -0.2152 -0.2156
vn 0.9269 -0.3093 -0.2126
vn -0.7077 0.0000 0.7065
vn -0.5990 -0.5590 0.5734
vn -0.7072 0.0000 0.7070
vn -0.7937 -0.3489 0.4982
usemtl Shape.17167
s off
f 17//1 47//1 52//1
f 2//2 3//2 8//2
f 8//3 6//3 9//3
f 7//4 5//4 10//4
f 8//2 3//2 11//2
f 10//4 5//4 11//4
f 4//5 5//5 12//5
f 6//3 8//3 12//3
f 8//3 9//3 13//3
f 10//4 11//4 14//4
f 2//2 8//2 20//2
f 10//6 14//6 21//6
f 19//7 1//7 23//7
f 8//2 11//2 24//2
f 5//5 4//5 25//5
f 11//8 5//8 25//8
f 23//9 1//9 26//9
f 15//10 23//10 26//10
f 7//4 10//4 27//4
f 14//4 11//4 28//4
f 9//3 6//3 30//3
f 23//11 15//11 30//11
f 6//12 23//12 30//12
f 8//3 13//3 31//3
f 20//13 8//13 31//13
f 13//14 29//14 31//14
f 5//15 7//15 32//15
f 12//16 5//16 32//16
f 4//17 8//17 33//17
f 24//18 4//18 33//18
f 8//2 24//2 33//2
f 8//19 4//19 34//19
f 4//20 12//20 34//20
f 12//21 8//21 34//21
f 21//22 14//22 35//22
f 14//23 28//23 35//23
f 27//4 10//4 36//4
f 16//24 27//24 36//24
f 13//25 9//25 37//25
f 9//26 18//26 37//26
f 29//27 13//27 37//27
f 4//18 24//18 38//18
f 25//5 4//5 38//5
f 11//2 3//2 39//2
f 28//28 11//28 39//28
f 3//29 35//29 39//29
f 35//30 28//30 39//30
f 15//31 9//31 41//31
f 9//3 30//3 41//3
f 30//32 15//32 41//32
f 19//33 23//33 42//33
f 32//34 19//34 42//34
f 3//35 2//35 43//35
f 2//36 20//36 43//36
f 20//37 31//37 43//37
f 31//38 29//38 43//38
f 35//39 3//39 43//39
f 29//40 35//40 43//40
f 18//41 22//41 44//41
f 17//42 29//42 44//42
f 37//43 18//43 44//43
f 29//44 37//44 44//44
f 16//45 19//45 45//45
f 7//46 27//46 45//46
f 27//47 16//47 45//47
f 32//48 7//48 45//48
f 19//49 32//49 45//49
f 9//50 15//50 46//50
f 18//51 9//51 46//51
f 22//52 18//52 46//52
f 15//53 26//53 46//53
f 40//54 22//54 46//54
f 26//55 40//55 46//55
f 10//56 21//56 47//56
f 22//57 10//57 47//57
f 17//58 44//58 47//58
f 44//59 22//59 47//59
f 10//60 22//60 48//60
f 36//61 10//61 48//61
f 16//62 36//62 48//62
f 40//63 16//63 48//63
f 22//64 40//64 48//64
f 1//65 19//65 49//65
f 19//66 16//66 49//66
f 26//67 1//67 49//67
f 16//68 40//68 49//68
f 40//69 26//69 49//69
f 6//70 12//70 50//70
f 23//71 6//71 50//71
f 12//16 32//16 50//16
f 42//72 23//72 50//72
f 32//73 42//73 50//73
f 24//2 11//2 51//2
f 11//74 25//74 51//74
f 38//75 24//75 51//75
f 25//76 38//76 51//76
f 29//77 17//77 52//77
f 21//78 35//78 52//78
f 35//79 29//79 52//79
f 47//80 21//80 52//80
