# Blender v2.79 (sub 0) OBJ File: ''
# www.blender.org
mtllib 102708_link_3_1.mtl
o Shape_IndexedFaceSet.001_Shape_IndexedFaceSet.824
v -0.175910 -0.657552 -0.078557
v -0.131079 -0.433388 0.003637
v -0.168437 -0.433388 0.003637
v -0.176536 -0.430260 -0.079704
v -0.121385 -0.537441 -0.081620
v -0.138552 -0.650047 0.003637
v -0.175910 -0.642564 0.003637
v -0.120699 -0.422466 -0.074358
v -0.131079 -0.642564 -0.078557
v -0.185187 -0.458332 -0.081029
vn -0.9989 -0.0464 0.0085
vn 0.9875 -0.0341 0.1539
vn 0.0000 0.0000 1.0000
vn -0.1933 -0.9652 0.1760
vn 0.0000 0.9903 0.1387
vn -0.1429 0.9884 0.0510
vn 0.0865 0.0623 -0.9943
vn 0.9914 -0.0141 0.1300
vn 0.0100 -0.0300 -0.9995
vn 0.9926 -0.0891 0.0821
vn 0.3165 -0.9468 -0.0574
vn -0.9519 0.2885 0.1033
vn -0.0261 -0.0136 -0.9996
vn 0.0356 0.0362 -0.9987
vn -0.9823 0.0351 0.1840
usemtl Shape.828
s off
f 1//1 7//1 10//1
f 5//2 2//2 6//2
f 2//3 3//3 6//3
f 6//3 3//3 7//3
f 1//4 6//4 7//4
f 3//5 2//5 8//5
f 4//6 3//6 8//6
f 5//7 4//7 8//7
f 2//8 5//8 8//8
f 1//9 5//9 9//9
f 5//10 6//10 9//10
f 6//11 1//11 9//11
f 3//12 4//12 10//12
f 5//13 1//13 10//13
f 4//14 5//14 10//14
f 7//15 3//15 10//15
