# Blender v2.79 (sub 0) OBJ File: ''
# www.blender.org
mtllib 102708_link_3_29.mtl
o Shape_IndexedFaceSet.029_Shape_IndexedFaceSet.852
v -0.048864 -0.261428 0.197964
v -0.273072 -0.074621 0.250263
v -0.273072 -0.074621 0.257747
v -0.160968 -0.313766 0.197964
v -0.213267 -0.067138 0.145643
v -0.160968 -0.313766 0.145643
v -0.033501 -0.211643 0.137962
v -0.063854 -0.313766 0.257747
v -0.220751 -0.067138 0.257747
v -0.145578 -0.317431 0.259413
v -0.153528 -0.067138 0.153127
v -0.059852 -0.301680 0.151137
v -0.235697 -0.171815 0.257747
v -0.250643 -0.074621 0.197964
vn -0.7907 -0.1677 -0.5888
vn -0.0514 -0.0109 -0.9986
vn 0.9376 0.1087 0.3302
vn -0.1416 0.9899 0.0000
vn -0.1403 0.9901 -0.0094
vn 0.7011 0.4501 0.5530
vn 0.6972 0.4436 0.5631
vn 0.0198 0.0126 0.9997
vn -0.2317 -0.9728 0.0000
vn 0.0440 -0.9983 -0.0381
vn -0.0009 0.0064 1.0000
vn 0.1217 0.2031 -0.9716
vn 0.0000 1.0000 0.0000
vn 0.7079 0.5403 0.4549
vn 0.0732 -0.1653 -0.9835
vn 0.1237 -0.9865 -0.1072
vn 0.9599 -0.2803 0.0043
vn -0.9334 -0.3589 0.0000
vn -0.9188 -0.3649 -0.1504
vn -0.8849 -0.4658 0.0000
vn -0.0488 -0.0187 0.9986
vn -0.8375 -0.5163 0.1790
vn -0.4399 0.8780 -0.1886
vn -0.8898 -0.2502 -0.3816
usemtl Shape.856
s off
f 5//1 6//1 14//1
f 6//2 5//2 7//2
f 7//3 1//3 8//3
f 2//4 3//4 9//4
f 5//5 2//5 9//5
f 1//6 7//6 9//6
f 8//7 1//7 9//7
f 8//8 9//8 10//8
f 4//9 6//9 10//9
f 6//10 8//10 10//10
f 9//11 3//11 10//11
f 7//12 5//12 11//12
f 5//13 9//13 11//13
f 9//14 7//14 11//14
f 6//15 7//15 12//15
f 8//16 6//16 12//16
f 7//17 8//17 12//17
f 3//18 2//18 13//18
f 2//19 6//19 13//19
f 6//20 4//20 13//20
f 10//21 3//21 13//21
f 4//22 10//22 13//22
f 2//23 5//23 14//23
f 6//24 2//24 14//24
