# Blender v2.79 (sub 0) OBJ File: ''
# www.blender.org
mtllib 102708_link_3_5.mtl
o Shape_IndexedFaceSet.005_Shape_IndexedFaceSet.828
v -0.481757 0.666679 -0.072086
v -0.483242 0.749076 -0.569191
v -0.527175 0.747455 -0.078565
v -0.527175 0.463488 -0.078565
v -0.527175 0.747455 -0.564347
v -0.489522 0.460663 -0.073712
v -0.482392 0.754604 -0.079175
v -0.489812 0.463488 -0.564347
v -0.527175 0.463488 -0.571797
v -0.482338 0.672704 -0.579296
vn -0.2781 0.0252 -0.9602
vn -0.1412 -0.0000 0.9900
vn -1.0000 0.0000 0.0000
vn -0.1281 -0.0030 0.9918
vn 0.0007 0.0804 0.9968
vn -0.0381 0.9992 -0.0112
vn -0.1576 0.9875 0.0000
vn 0.9993 -0.0377 -0.0008
vn 0.0011 -1.0000 -0.0058
vn -0.0748 -0.9972 0.0000
vn -0.1134 0.1290 -0.9851
vn 1.0000 0.0071 -0.0011
vn 0.9999 0.0121 -0.0019
vn 0.9994 -0.0358 -0.0016
vn 0.1950 -0.0768 -0.9778
usemtl Shape.832
s off
f 9//1 5//1 10//1
f 1//2 3//2 4//2
f 4//3 3//3 5//3
f 1//4 4//4 6//4
f 3//5 1//5 7//5
f 2//6 5//6 7//6
f 5//7 3//7 7//7
f 1//8 6//8 8//8
f 8//9 6//9 9//9
f 4//3 5//3 9//3
f 6//10 4//10 9//10
f 5//11 2//11 10//11
f 7//12 1//12 10//12
f 2//13 7//13 10//13
f 1//14 8//14 10//14
f 8//15 9//15 10//15
