# Blender v2.79 (sub 0) OBJ File: ''
# www.blender.org
mtllib 102708_link_2_6.mtl
o Shape_IndexedFaceSet.006_Shape_IndexedFaceSet.17158
v 0.164088 0.074328 0.779853
v 0.309606 0.070942 0.394103
v 0.309606 0.065870 0.394103
v 0.213152 0.076018 0.389026
v 0.155617 0.055715 0.646205
v 0.236832 0.055715 0.680005
v 0.218232 0.055715 0.389026
v 0.279143 0.079406 0.578528
v 0.155617 0.079406 0.642833
v 0.299447 0.055715 0.485463
v 0.304526 0.079406 0.388987
v 0.155617 0.055715 0.776481
v 0.221623 0.079406 0.703688
v 0.304526 0.055715 0.388987
v 0.216543 0.079406 0.389026
v 0.155617 0.079406 0.776481
v 0.277440 0.059101 0.597095
v 0.302823 0.076018 0.487169
v 0.238520 0.070942 0.688493
v 0.184392 0.060796 0.761248
v 0.213152 0.060796 0.389026
v 0.155617 0.074328 0.634344
v 0.306215 0.065870 0.475308
v 0.280831 0.077711 0.583606
v 0.182689 0.072635 0.764659
v 0.238520 0.060796 0.686788
v 0.238520 0.076018 0.686788
v 0.182689 0.079406 0.757876
v 0.275751 0.055715 0.590351
v 0.170856 0.057410 0.773109
v 0.299447 0.079406 0.488835
v 0.275751 0.074328 0.602173
v 0.304526 0.059101 0.473641
v 0.282519 0.059101 0.580234
v 0.155617 0.057410 0.641127
v 0.306215 0.077711 0.436392
v 0.155617 0.064180 0.784970
v 0.255448 0.079406 0.641089
v 0.223311 0.057410 0.707099
v 0.299447 0.072635 0.507441
v 0.309606 0.062487 0.390692
v 0.181001 0.055715 0.757876
v 0.225000 0.062487 0.707099
v 0.241912 0.065870 0.681710
v 0.306215 0.057410 0.429647
v 0.306215 0.070942 0.473641
v 0.302823 0.059101 0.487169
v 0.307903 0.077711 0.392398
v 0.177624 0.064180 0.769698
vn 0.5633 -0.1542 0.8117
vn 0.0000 -1.0000 -0.0000
vn -0.0000 1.0000 0.0000
vn -1.0000 0.0000 0.0000
vn -0.0004 0.0000 -1.0000
vn -0.6968 0.6975 -0.1673
vn -0.0004 0.0004 -1.0000
vn -0.6969 -0.6968 -0.1697
vn -0.0005 -0.0005 -1.0000
vn -0.9114 0.3532 -0.2113
vn -0.9736 0.0000 -0.2283
vn 0.9991 0.0000 0.0417
vn 0.6937 -0.6486 0.3133
vn 0.7933 0.1939 0.5772
vn 0.6859 0.5150 0.5141
vn 0.3153 0.8307 0.4588
vn 0.5399 0.5957 0.5946
vn 0.5356 0.7516 0.3849
vn 0.5728 -0.7810 0.2487
vn 0.7370 0.6575 0.1565
vn 0.5094 0.8528 0.1153
vn 0.9081 0.1333 0.3969
vn 0.5972 -0.7906 0.1349
vn 0.6597 -0.7248 0.1987
vn 0.9575 0.0100 0.2884
vn 0.9620 0.0383 0.2702
vn -0.7996 -0.5696 -0.1901
vn -0.9708 -0.0893 -0.2228
vn 0.3820 0.9240 0.0194
vn 0.7239 0.6863 0.0712
vn -0.0557 0.4862 0.8721
vn 0.2288 -0.6893 0.6874
vn 0.4195 0.8937 0.1589
vn 0.3909 0.8959 0.2112
vn 0.7444 0.5907 0.3113
vn 0.7608 0.5625 0.3235
vn 0.6314 -0.6878 0.3581
vn 0.9282 0.3096 0.2062
vn 0.9748 -0.0539 0.2167
vn 0.9711 0.0456 0.2343
vn 1.0000 0.0000 0.0000
vn 0.3182 0.0000 -0.9480
vn 0.9982 -0.0420 0.0417
vn 0.9662 -0.2531 0.0488
vn 0.1538 -0.9655 0.2099
vn 0.5704 -0.6832 0.4559
vn 0.2707 -0.9429 0.1941
vn 0.5721 -0.6831 0.4539
vn 0.8066 0.0108 0.5910
vn 0.7996 -0.0572 0.5978
vn 0.8252 -0.0936 0.5571
vn 0.7927 -0.2637 0.5496
vn 0.7767 -0.2584 0.5744
vn 0.8962 -0.2060 0.3928
vn 0.8650 -0.0831 0.4948
vn 0.9209 -0.0275 0.3889
vn 0.9142 0.0799 0.3974
vn 0.4046 -0.9142 0.0213
vn 0.6379 -0.7682 0.0540
vn 0.8009 -0.5987 -0.0083
vn 0.9598 -0.2767 0.0475
vn 0.9990 0.0140 0.0426
vn 0.9727 0.2282 0.0415
vn 0.9093 0.4094 0.0744
vn 0.9708 0.1508 0.1868
vn 0.9792 0.0634 0.1929
vn 0.6835 -0.7248 0.0860
vn 0.9558 -0.2681 0.1203
vn 0.9705 -0.1153 0.2117
vn 0.6633 -0.7342 0.1447
vn 0.9669 0.2526 0.0371
vn 0.4350 0.9003 0.0167
vn 0.9240 0.1431 -0.3547
vn 0.7396 0.1561 -0.6547
vn 0.6349 0.0777 0.7686
vn 0.7634 -0.0750 0.6415
vn 0.6674 -0.3311 0.6671
vn 0.5690 -0.0615 0.8200
usemtl Shape.17169
s off
f 37//1 30//1 49//1
f 6//2 5//2 7//2
f 6//2 7//2 10//2
f 9//3 8//3 11//3
f 5//2 6//2 12//2
f 9//4 5//4 12//4
f 8//3 9//3 13//3
f 10//2 7//2 14//2
f 4//5 11//5 14//5
f 4//6 9//6 15//6
f 11//7 4//7 15//7
f 9//3 11//3 15//3
f 9//4 12//4 16//4
f 13//3 9//3 16//3
f 7//8 5//8 21//8
f 4//5 14//5 21//5
f 14//9 7//9 21//9
f 5//4 9//4 22//4
f 9//10 4//10 22//10
f 4//11 21//11 22//11
f 3//12 2//12 23//12
f 6//13 17//13 26//13
f 25//14 19//14 27//14
f 25//15 27//15 28//15
f 16//16 1//16 28//16
f 13//3 16//3 28//3
f 1//17 25//17 28//17
f 27//18 13//18 28//18
f 6//2 10//2 29//2
f 17//19 6//19 29//19
f 11//3 8//3 31//3
f 24//20 18//20 31//20
f 8//21 24//21 31//21
f 27//22 19//22 32//22
f 29//23 10//23 34//23
f 17//24 29//24 34//24
f 32//25 17//25 34//25
f 24//26 32//26 34//26
f 21//27 5//27 35//27
f 5//4 22//4 35//4
f 22//28 21//28 35//28
f 11//29 31//29 36//29
f 31//30 18//30 36//30
f 1//31 16//31 37//31
f 16//4 12//4 37//4
f 12//32 30//32 37//32
f 8//3 13//3 38//3
f 24//33 8//33 38//33
f 13//34 27//34 38//34
f 32//35 24//35 38//35
f 27//36 32//36 38//36
f 6//37 26//37 39//37
f 18//38 24//38 40//38
f 34//39 23//39 40//39
f 24//40 34//40 40//40
f 2//41 3//41 41//41
f 14//42 11//42 41//42
f 3//43 23//43 41//43
f 23//44 33//44 41//44
f 12//2 6//2 42//2
f 30//45 12//45 42//45
f 20//46 30//46 42//46
f 6//47 39//47 42//47
f 39//48 20//48 42//48
f 19//49 25//49 43//49
f 25//50 20//50 43//50
f 26//51 19//51 43//51
f 39//52 26//52 43//52
f 20//53 39//53 43//53
f 26//54 17//54 44//54
f 19//55 26//55 44//55
f 17//56 32//56 44//56
f 32//57 19//57 44//57
f 10//58 14//58 45//58
f 33//59 10//59 45//59
f 14//60 41//60 45//60
f 41//61 33//61 45//61
f 23//62 2//62 46//62
f 2//63 36//63 46//63
f 36//64 18//64 46//64
f 18//65 40//65 46//65
f 40//66 23//66 46//66
f 10//67 33//67 47//67
f 33//68 23//68 47//68
f 23//69 34//69 47//69
f 34//70 10//70 47//70
f 36//71 2//71 48//71
f 11//72 36//72 48//72
f 2//73 41//73 48//73
f 41//74 11//74 48//74
f 25//75 1//75 49//75
f 20//76 25//76 49//76
f 30//77 20//77 49//77
f 1//78 37//78 49//78
