# Blender v2.79 (sub 0) OBJ File: ''
# www.blender.org
mtllib 102708_link_3_20.mtl
o Shape_IndexedFaceSet.020_Shape_IndexedFaceSet.843
v -0.025251 -0.318512 0.728346
v -0.108710 -0.335506 0.634440
v -0.105440 -0.375099 0.644247
v 0.063224 -0.351125 0.638901
v 0.055741 -0.373544 0.736058
v 0.063224 -0.313766 0.638901
v -0.101163 -0.373544 0.706158
v -0.101163 -0.313766 0.698682
v 0.063224 -0.313766 0.728573
v 0.066849 -0.374862 0.691372
v -0.101163 -0.313766 0.638901
v -0.063800 -0.373544 0.728573
vn -0.0018 -0.9996 0.0290
vn 0.0034 -0.2402 -0.9707
vn 0.0259 0.0000 -0.9997
vn -0.9954 -0.0648 0.0704
vn -0.9936 0.0140 0.1120
vn -0.0093 0.1254 0.9921
vn 0.0000 1.0000 0.0000
vn -0.0521 0.9567 0.2863
vn 0.1150 -0.9021 -0.4160
vn 0.9976 0.0000 -0.0689
vn 0.9659 -0.0905 0.2428
vn 0.9982 0.0592 0.0000
vn 0.0000 0.2010 -0.9796
vn -0.9447 0.3279 0.0000
vn -0.0624 0.0478 0.9969
vn -0.0157 -0.9995 0.0262
vn -0.3400 0.2419 0.9088
vn -0.5115 0.1066 0.8526
vn -0.0042 -0.9998 0.0205
usemtl Shape.847
s off
f 10//1 5//1 12//1
f 3//2 2//2 4//2
f 4//3 2//3 6//3
f 2//4 3//4 7//4
f 2//5 7//5 8//5
f 1//6 5//6 9//6
f 6//7 8//7 9//7
f 8//8 1//8 9//8
f 3//9 4//9 10//9
f 4//10 6//10 10//10
f 9//11 5//11 10//11
f 6//12 9//12 10//12
f 6//13 2//13 11//13
f 2//14 8//14 11//14
f 8//7 6//7 11//7
f 5//15 1//15 12//15
f 7//16 3//16 12//16
f 1//17 8//17 12//17
f 8//18 7//18 12//18
f 3//19 10//19 12//19
