# Blender v2.79 (sub 0) OBJ File: ''
# www.blender.org
mtllib 102708_link_3_63.mtl
o Shape_IndexedFaceSet.063_Shape_IndexedFaceSet.886
v -0.050031 -0.322167 0.081886
v 0.040819 -0.381022 0.190485
v 0.040819 -0.403450 0.190485
v 0.043693 -0.342997 -0.000582
v -0.067651 -0.400097 0.010631
v -0.086232 -0.403450 0.190485
v -0.086232 -0.313775 0.190485
v 0.040819 -0.313775 0.175524
v 0.040819 -0.403450 0.003645
v -0.076095 -0.366813 -0.005609
v 0.018396 -0.313775 0.070912
v -0.059454 -0.342281 -0.005059
vn 0.0226 0.9282 -0.3714
vn 0.9999 0.0000 0.0150
vn 0.0000 0.0000 1.0000
vn 0.9999 0.0035 0.0157
vn 0.1142 0.2157 0.9697
vn 0.9989 -0.0475 0.0000
vn 0.0000 -1.0000 0.0000
vn -0.0323 -0.9992 -0.0220
vn -0.9508 -0.2918 -0.1037
vn -0.9987 0.0000 -0.0516
vn 0.0562 -0.0723 -0.9958
vn -0.0712 -0.4519 -0.8892
vn -0.1402 0.9825 -0.1226
vn 0.5794 0.8055 -0.1242
vn 0.0000 1.0000 -0.0000
vn -0.3240 0.9288 -0.1798
vn 0.0433 -0.0070 -0.9990
vn -0.8102 0.5539 -0.1917
vn -0.1517 0.9665 -0.2071
usemtl Shape.890
s off
f 11//1 4//1 12//1
f 2//2 3//2 4//2
f 3//3 2//3 6//3
f 6//3 2//3 7//3
f 2//4 4//4 8//4
f 7//5 2//5 8//5
f 4//6 3//6 9//6
f 3//7 6//7 9//7
f 6//8 5//8 9//8
f 5//9 6//9 10//9
f 6//10 7//10 10//10
f 4//11 9//11 10//11
f 9//12 5//12 10//12
f 1//13 7//13 11//13
f 8//14 4//14 11//14
f 7//15 8//15 11//15
f 7//16 1//16 12//16
f 4//17 10//17 12//17
f 10//18 7//18 12//18
f 1//19 11//19 12//19
