# Blender v2.79 (sub 0) OBJ File: ''
# www.blender.org
mtllib 100444_link_1_0.mtl
o Shape_IndexedFaceSet_Shape_IndexedFaceSet.15554
v -0.615982 -0.538082 -0.317607
v -0.075947 -0.530342 -0.686215
v -0.122706 -0.522284 -0.680250
v -0.012732 -0.514302 -0.059668
v -0.696475 -0.497417 -0.050240
v -0.618848 -0.555788 -0.044092
v 0.004040 -0.555788 -0.658614
v -0.002943 -0.497448 -0.694297
v 0.004040 -0.547366 -0.044092
v -0.507925 -0.498603 -0.483316
v -0.391582 -0.555788 -0.557629
v -0.630312 -0.495612 -0.030115
v -0.096959 -0.505287 -0.103037
v -0.660937 -0.555788 -0.170467
v -0.245135 -0.498217 -0.653524
v 0.006690 -0.496645 -0.626888
v -0.623572 -0.498111 -0.324171
v -0.206404 -0.555788 -0.641836
v -0.568314 -0.555788 -0.372437
v -0.669382 -0.555788 -0.044092
v -0.381443 -0.498350 -0.588279
v -0.523237 -0.522384 -0.467125
v -0.681810 -0.522280 -0.161662
v -0.246566 -0.530281 -0.649669
vn -0.4300 -0.0888 -0.8985
vn -0.1219 0.0269 -0.9922
vn 0.1334 -0.5055 -0.8525
vn 0.0135 -0.9998 0.0137
vn 0.0000 -1.0000 0.0000
vn 0.0563 0.4487 0.8919
vn 0.0031 -0.2257 0.9742
vn 0.0364 0.9902 0.1351
vn -0.1619 0.2394 -0.9573
vn 0.9894 0.0317 -0.1418
vn 0.9990 -0.0451 0.0006
vn 0.8823 0.4686 0.0448
vn 0.0890 0.9954 0.0340
vn 0.0210 0.9996 0.0206
vn -0.0051 0.9999 -0.0112
vn -0.0245 0.9997 -0.0091
vn -0.0477 -0.7995 -0.5988
vn -0.5946 -0.7564 -0.2727
vn -0.2900 -0.0339 0.9564
vn 0.0000 -0.2262 0.9741
vn -0.0051 1.0000 -0.0072
vn -0.0053 0.9999 -0.0090
vn -0.0115 0.9999 -0.0114
vn -0.0085 0.9999 -0.0087
vn -0.8131 -0.2414 -0.5297
vn -0.8030 0.1195 -0.5839
vn -0.7447 -0.4335 -0.5074
vn -0.5165 -0.7002 -0.4929
vn -0.6344 -0.1122 -0.7648
vn -0.5910 -0.2961 -0.7504
vn -0.8413 -0.4426 -0.3103
vn -0.9046 -0.2306 -0.3585
vn -0.8323 0.5075 -0.2228
vn -0.9058 -0.4230 -0.0248
vn -0.8541 -0.5170 -0.0571
vn -0.1880 -0.4419 -0.8772
vn -0.2319 -0.1059 -0.9670
vn -0.1774 -0.5333 -0.8271
vn -0.3029 -0.6815 -0.6661
vn -0.4556 -0.3552 -0.8163
usemtl Shape.15571
s off
f 21//1 15//1 24//1
f 2//2 3//2 8//2
f 7//3 2//3 8//3
f 6//4 7//4 9//4
f 7//5 6//5 11//5
f 9//6 4//6 12//6
f 6//7 9//7 12//7
f 12//8 4//8 13//8
f 11//5 6//5 14//5
f 8//9 3//9 15//9
f 7//10 8//10 16//10
f 9//11 7//11 16//11
f 4//12 9//12 16//12
f 13//13 4//13 16//13
f 12//14 13//14 16//14
f 8//15 15//15 16//15
f 5//16 12//16 17//16
f 2//17 7//17 18//17
f 7//5 11//5 18//5
f 14//18 1//18 19//18
f 11//5 14//5 19//5
f 12//19 5//19 20//19
f 6//20 12//20 20//20
f 14//5 6//5 20//5
f 12//21 16//21 21//21
f 16//22 15//22 21//22
f 10//23 17//23 21//23
f 17//24 12//24 21//24
f 1//25 17//25 22//25
f 17//26 10//26 22//26
f 19//27 1//27 22//27
f 11//28 19//28 22//28
f 10//29 21//29 22//29
f 21//30 11//30 22//30
f 1//31 14//31 23//31
f 17//32 1//32 23//32
f 5//33 17//33 23//33
f 20//34 5//34 23//34
f 14//35 20//35 23//35
f 3//36 2//36 24//36
f 15//37 3//37 24//37
f 2//38 18//38 24//38
f 18//39 11//39 24//39
f 11//40 21//40 24//40
