# Blender v2.79 (sub 0) OBJ File: ''
# www.blender.org
mtllib 100444_link_1_2.mtl
o Shape_IndexedFaceSet.002_Shape_IndexedFaceSet.15556
v -0.576732 -0.555788 0.351535
v -0.024073 -0.497118 0.685228
v -0.129240 -0.497729 0.677641
v -0.629194 -0.495679 -0.058768
v -0.021148 -0.547366 -0.044092
v -0.021148 -0.555788 0.662989
v -0.669385 -0.555788 -0.044020
v -0.021148 -0.505287 0.023304
v -0.601050 -0.497980 0.358563
v -0.334714 -0.538107 0.600931
v -0.692346 -0.497794 0.089871
v -0.007729 -0.495706 0.623941
v -0.454400 -0.498239 0.526723
v -0.664499 -0.530352 0.213354
v -0.425270 -0.555788 0.519880
v -0.273808 -0.505287 -0.044020
v -0.697295 -0.497367 -0.037792
v -0.677796 -0.555788 0.031764
v -0.130623 -0.555788 0.654672
v -0.517100 -0.530294 0.461181
v -0.317576 -0.497957 0.617980
v -0.121517 -0.530398 0.676991
v -0.618853 -0.555788 -0.044020
v -0.021148 -0.555788 0.620974
vn 0.0000 -1.0000 0.0000
vn -0.0177 0.9998 0.0067
vn -0.0073 0.9998 0.0211
vn 0.9654 -0.0490 0.2563
vn 0.0180 0.9997 -0.0163
vn 0.9991 0.0367 -0.0229
vn -0.0065 1.0000 0.0060
vn -0.0074 0.9999 0.0080
vn -0.8072 -0.3931 0.4403
vn -0.8756 0.3804 0.2978
vn 0.0475 0.2866 -0.9569
vn 0.0318 0.9924 -0.1193
vn 0.1397 0.8399 -0.5244
vn -0.2933 -0.0383 -0.9553
vn -0.0235 0.9997 0.0043
vn -0.9601 -0.2772 0.0363
vn -0.4936 -0.8556 0.1560
vn -0.9292 -0.3505 0.1171
vn -0.9019 -0.4202 -0.1001
vn -0.1833 -0.8977 0.4006
vn -0.7699 -0.3857 0.5084
vn -0.7473 0.1288 0.6519
vn -0.5754 -0.3679 0.7304
vn -0.4908 -0.7511 0.4416
vn -0.5703 -0.3909 0.7225
vn -0.0077 0.9998 0.0203
vn -0.5510 -0.1158 0.8265
vn -0.0717 -0.0368 0.9967
vn 0.0413 -0.3523 0.9350
vn -0.0577 -0.6474 0.7600
vn -0.2535 -0.5858 0.7698
vn -0.3007 -0.0900 0.9495
vn -0.3170 -0.2529 0.9141
vn 0.0032 -0.2378 -0.9713
vn 0.0000 -0.2383 -0.9712
vn 0.9760 -0.2180 0.0000
vn 0.9760 -0.2178 -0.0028
vn 0.0141 -0.9998 -0.0127
usemtl Shape.15573
s off
f 6//1 23//1 24//1
f 6//1 1//1 7//1
f 9//2 4//2 11//2
f 3//3 2//3 12//3
f 2//4 6//4 12//4
f 8//5 4//5 12//5
f 5//6 8//6 12//6
f 4//7 9//7 12//7
f 12//8 9//8 13//8
f 1//9 9//9 14//9
f 9//10 11//10 14//10
f 1//1 6//1 15//1
f 5//11 4//11 16//11
f 4//12 8//12 16//12
f 8//13 5//13 16//13
f 4//14 7//14 17//14
f 11//15 4//15 17//15
f 11//16 17//16 18//16
f 7//1 1//1 18//1
f 1//17 14//17 18//17
f 14//18 11//18 18//18
f 17//19 7//19 18//19
f 15//1 6//1 19//1
f 10//20 15//20 19//20
f 9//21 1//21 20//21
f 13//22 9//22 20//22
f 10//23 13//23 20//23
f 1//24 15//24 20//24
f 15//25 10//25 20//25
f 3//26 12//26 21//26
f 12//8 13//8 21//8
f 13//27 10//27 21//27
f 2//28 3//28 22//28
f 6//29 2//29 22//29
f 19//30 6//30 22//30
f 10//31 19//31 22//31
f 3//32 21//32 22//32
f 21//33 10//33 22//33
f 4//34 5//34 23//34
f 7//35 4//35 23//35
f 6//1 7//1 23//1
f 12//36 6//36 24//36
f 5//37 12//37 24//37
f 23//38 5//38 24//38
