# Blender v2.79 (sub 0) OBJ File: ''
# www.blender.org
mtllib 100444_link_1_1.mtl
o Shape_IndexedFaceSet.001_Shape_IndexedFaceSet.15555
v 0.515591 -0.498579 -0.451688
v 0.017064 -0.530369 -0.688307
v 0.011782 -0.497529 -0.693393
v 0.004109 -0.513703 -0.044092
v 0.652346 -0.555788 -0.044092
v 0.619393 -0.495847 -0.032738
v 0.004109 -0.555788 -0.658614
v 0.004109 -0.547366 -0.044092
v 0.332466 -0.555788 -0.574470
v -0.012141 -0.495462 -0.628209
v 0.646265 -0.530336 -0.227883
v 0.308999 -0.498239 -0.621186
v 0.534460 -0.555788 -0.389214
v 0.105173 -0.505287 -0.044092
v 0.684029 -0.497041 -0.046044
v 0.458908 -0.530244 -0.513689
v 0.159818 -0.538151 -0.664156
v 0.573382 -0.498291 -0.380389
v 0.627047 -0.555788 -0.212507
v 0.560690 -0.538084 -0.388062
v 0.128895 -0.497777 -0.682465
v 0.309119 -0.522334 -0.620357
v 0.647253 -0.498126 -0.227409
v 0.610225 -0.555788 -0.044092
vn -0.0026 -0.1857 0.9826
vn -0.8145 -0.2145 -0.5390
vn -0.0185 0.0000 0.9998
vn 0.0000 -1.0000 -0.0000
vn -0.9366 -0.0803 -0.3412
vn -0.9651 -0.2618 0.0036
vn -0.9996 -0.0000 0.0278
vn -0.0268 0.3219 0.9464
vn -0.0188 0.9996 0.0206
vn -0.0829 0.9960 0.0334
vn 0.1997 -0.0753 0.9770
vn 0.8749 -0.4750 -0.0947
vn 0.5938 0.3528 -0.7231
vn 0.3595 -0.8468 -0.3920
vn 0.0649 -0.7719 -0.6324
vn 0.0923 -0.9283 -0.3603
vn 0.0083 0.9999 -0.0081
vn 0.0148 0.9998 -0.0160
vn 0.0089 0.9999 -0.0095
vn 0.0166 0.9998 -0.0092
vn 0.7585 -0.6416 -0.1139
vn 0.5448 -0.7885 -0.2854
vn 0.7652 -0.1389 -0.6286
vn 0.5107 -0.7268 -0.4592
vn 0.7710 -0.1255 -0.6244
vn 0.8698 -0.1896 -0.4555
vn 0.6550 -0.6860 -0.3168
vn 0.0917 -0.1380 -0.9862
vn 0.0049 0.9995 -0.0299
vn 0.0091 0.9998 -0.0191
vn 0.1414 -0.3170 -0.9378
vn 0.2952 -0.1978 -0.9347
vn 0.5790 -0.0252 -0.8149
vn 0.4412 -0.6033 -0.6643
vn 0.2666 -0.7092 -0.6527
vn 0.3219 -0.0310 -0.9463
vn 0.9797 -0.0271 -0.1985
vn 0.9003 -0.0212 -0.4347
vn 0.0175 0.9998 -0.0095
vn 0.0000 -0.1861 0.9825
vn -0.0139 -0.9998 0.0137
usemtl Shape.15572
s off
f 6//1 8//1 24//1
f 3//2 2//2 7//2
f 6//3 4//3 8//3
f 5//4 7//4 9//4
f 3//5 7//5 10//5
f 7//6 8//6 10//6
f 8//7 4//7 10//7
f 5//4 9//4 13//4
f 4//8 6//8 14//8
f 6//9 10//9 14//9
f 10//10 4//10 14//10
f 6//11 5//11 15//11
f 5//12 11//12 15//12
f 12//13 1//13 16//13
f 13//14 9//14 16//14
f 7//15 2//15 17//15
f 9//16 7//16 17//16
f 10//17 6//17 18//17
f 1//18 12//18 18//18
f 12//19 10//19 18//19
f 6//20 15//20 18//20
f 11//21 5//21 19//21
f 5//4 13//4 19//4
f 19//22 13//22 20//22
f 16//23 1//23 20//23
f 13//24 16//24 20//24
f 1//25 18//25 20//25
f 18//26 11//26 20//26
f 11//27 19//27 20//27
f 2//28 3//28 21//28
f 3//29 10//29 21//29
f 10//30 12//30 21//30
f 17//31 2//31 21//31
f 17//32 21//32 22//32
f 12//33 16//33 22//33
f 16//34 9//34 22//34
f 9//35 17//35 22//35
f 21//36 12//36 22//36
f 15//37 11//37 23//37
f 11//38 18//38 23//38
f 18//39 15//39 23//39
f 5//40 6//40 24//40
f 7//4 5//4 24//4
f 8//41 7//41 24//41
