# Blender v2.79 (sub 0) OBJ File: ''
# www.blender.org
mtllib 100444_link_1_17.mtl
o Shape_IndexedFaceSet.017_Shape_IndexedFaceSet.15571
v 0.635532 0.732322 0.275850
v 0.462743 -0.510851 0.397498
v 0.471332 -0.512727 0.379989
v 0.610283 -0.480022 0.334758
v 0.568711 -0.506090 0.230184
v 0.467177 0.740744 0.393698
v 0.559748 0.732322 0.402120
v 0.568176 0.749167 0.233755
v 0.638341 -0.440949 0.239091
v 0.559748 -0.480022 0.402120
v 0.633659 0.734766 0.235711
v 0.643961 -0.480022 0.250583
v 0.610283 0.732322 0.334758
v 0.559748 0.732322 0.242161
v 0.477245 0.736431 0.400376
v 0.559955 -0.510420 0.238413
v 0.576587 0.723899 0.385275
v 0.643961 0.740744 0.242161
v 0.627104 -0.480022 0.301084
v 0.601854 0.749167 0.334758
v 0.475588 0.732322 0.376853
vn -0.8374 0.1579 -0.5232
vn -0.8977 0.0018 -0.4406
vn 0.2838 -0.9287 0.2387
vn 0.2902 -0.9319 0.2177
vn 0.0305 0.0029 -0.9995
vn 0.1290 -0.0023 -0.9916
vn 0.3263 -0.2232 -0.9185
vn -0.5514 0.0045 0.8342
vn 0.0322 0.8610 0.5076
vn -0.0470 -0.0018 0.9989
vn -0.0211 -0.0000 0.9998
vn 0.2742 -0.9489 0.1562
vn -0.6853 0.0018 -0.7283
vn 0.3526 -0.9289 -0.1136
vn -0.8476 0.0015 -0.5306
vn -0.7082 0.0020 -0.7060
vn 0.7999 -0.0028 0.6001
vn 0.7072 0.0000 0.7070
vn 0.8319 0.0000 0.5549
vn 0.7430 0.3706 0.5574
vn 0.1535 0.5904 -0.7924
vn 0.5308 -0.0003 -0.8475
vn 0.8941 -0.0031 -0.4478
vn 0.9700 0.0017 0.2431
vn 0.9486 -0.0000 0.3166
vn 0.9191 0.0018 0.3940
vn 0.8946 0.0000 0.4469
vn 0.2919 -0.9453 0.1458
vn 0.3244 -0.9397 0.1083
vn 0.0619 0.9585 0.2784
vn -0.0545 0.9983 0.0182
vn 0.8350 0.4178 0.3579
vn 0.7426 0.3716 0.5571
vn 0.1146 0.9927 -0.0382
vn 0.8111 0.4866 0.3246
vn -0.8943 0.0019 -0.4475
vn -0.8333 0.1993 -0.5157
vn -0.8481 0.0016 -0.5299
usemtl Shape.15588
s off
f 8//1 14//1 21//1
f 3//2 2//2 6//2
f 2//3 3//3 10//3
f 3//4 4//4 10//4
f 5//5 8//5 11//5
f 9//6 5//6 11//6
f 5//7 9//7 12//7
f 6//8 2//8 15//8
f 7//9 6//9 15//9
f 2//10 10//10 15//10
f 10//11 7//11 15//11
f 4//12 3//12 16//12
f 8//13 5//13 16//13
f 5//14 12//14 16//14
f 3//15 14//15 16//15
f 14//16 8//16 16//16
f 10//17 4//17 17//17
f 7//18 10//18 17//18
f 4//19 13//19 17//19
f 13//20 7//20 17//20
f 11//21 8//21 18//21
f 9//22 11//22 18//22
f 12//23 9//23 18//23
f 1//24 12//24 18//24
f 12//25 1//25 19//25
f 1//26 13//26 19//26
f 13//27 4//27 19//27
f 4//28 16//28 19//28
f 16//29 12//29 19//29
f 6//30 7//30 20//30
f 8//31 6//31 20//31
f 13//32 1//32 20//32
f 7//33 13//33 20//33
f 18//34 8//34 20//34
f 1//35 18//35 20//35
f 3//36 6//36 21//36
f 6//37 8//37 21//37
f 14//38 3//38 21//38
