####
#
# OBJ File Generated by Meshlab
#
####
# Object 100444_link_0_9.obj
#
# Vertices: 13
# Faces: 22
#
####
mtllib ./100444_link_0_9.obj.mtl

vn -0.448192 0.018572 -0.893744
v 0.158358 0.327582 0.604003
vn 0.681424 0.731545 0.022438
v 0.296723 0.406789 0.651747
vn 0.503089 0.098043 0.858656
v 0.297223 0.390100 0.675660
vn 0.796453 -0.486257 -0.359468
v 0.305725 0.317749 0.612288
vn 0.176531 -0.185400 0.966677
v 0.292747 0.318502 0.664158
vn -0.258990 0.584436 -0.768999
v 0.289726 0.368353 0.582920
vn -0.280360 0.391543 0.876409
v 0.210497 0.385662 0.660328
vn -0.119525 0.829206 -0.546014
v 0.289074 0.401698 0.616308
vn -0.330705 -0.281802 0.900678
v 0.173640 0.325072 0.654737
vn -0.505161 0.755364 -0.417419
v 0.171898 0.356327 0.651611
vn 0.357051 -0.338063 -0.870763
v 0.296838 0.341096 0.597956
vn -0.143982 -0.827797 -0.542237
v 0.189174 0.285532 0.623227
vn 0.098987 -0.882272 0.460216
v 0.271118 0.279725 0.654603
# 13 vertices, 0 vertices normals


usemtl material_0
f 9//9 12//12 13//13
f 2//2 3//3 4//4
f 4//4 3//3 5//5
f 3//3 2//2 7//7
f 5//5 3//3 7//7
f 7//7 2//2 8//8
f 5//5 7//7 9//9
f 9//9 7//7 10//10
f 6//6 1//1 10//10
f 8//8 6//6 10//10
f 7//7 8//8 10//10
f 1//1 9//9 10//10
f 2//2 4//4 11//11
f 1//1 6//6 11//11
f 8//8 2//2 11//11
f 6//6 8//8 11//11
f 9//9 1//1 12//12
f 11//11 4//4 12//12
f 1//1 11//11 12//12
f 4//4 5//5 13//13
f 5//5 9//9 13//13
f 12//12 4//4 13//13
# 22 faces, 0 coords texture

# End of File
