# Blender v2.79 (sub 0) OBJ File: ''
# www.blender.org
mtllib 100444_link_1_3.mtl
o Shape_IndexedFaceSet.003_Shape_IndexedFaceSet.15557
v 0.377481 -0.484338 0.575546
v -0.021148 -0.547361 0.402178
v -0.021148 -0.555794 0.620995
v 0.525993 -0.555794 0.402178
v 0.483671 -0.475047 0.382778
v -0.025370 -0.479486 0.622034
v 0.189560 -0.529297 0.659599
v -0.021148 -0.513706 0.402178
v 0.026001 -0.482010 0.689086
v 0.088314 -0.555794 0.663074
v 0.475555 -0.538944 0.503179
v 0.546950 -0.481708 0.408679
v 0.012629 -0.538944 0.696760
v 0.196247 -0.483299 0.660985
v 0.467082 -0.555794 0.477914
v 0.272767 -0.542100 0.615109
v -0.012179 -0.481206 0.684050
v 0.509218 -0.530526 0.477914
v -0.021148 -0.555794 0.663074
vn -0.6684 -0.1258 0.7331
vn -0.0154 -0.9991 -0.0385
vn -0.0036 -0.2354 -0.9719
vn -0.9985 -0.0552 -0.0021
vn -0.0384 0.0000 -0.9993
vn -0.9998 -0.0000 -0.0192
vn -0.0813 0.9846 -0.1548
vn 0.0000 -1.0000 0.0000
vn 0.0694 0.9939 0.0861
vn 0.3764 -0.0252 -0.9261
vn 0.1918 -0.6348 0.7485
vn 0.0383 0.9969 0.0692
vn 0.4243 -0.0888 0.9011
vn 0.1628 0.0941 0.9822
vn 0.2083 -0.0597 0.9762
vn 0.4772 -0.7965 0.3712
vn 0.2720 -0.8402 0.4691
vn 0.4390 -0.1950 0.8771
vn 0.2179 -0.7508 0.6236
vn 0.4681 -0.2730 0.8404
vn 0.1492 -0.9405 0.3052
vn 0.0039 0.9996 0.0269
vn -0.1257 0.1615 0.9788
vn 0.0150 0.9989 0.0452
vn 0.0151 0.9989 0.0454
vn 0.4778 -0.7961 0.3714
vn 0.5982 0.0126 0.8012
vn 0.6300 0.4301 0.6466
vn 0.9118 -0.2840 0.2967
vn -0.9985 -0.0552 0.0000
vn 0.0000 -0.8944 0.4474
vn -0.9761 0.0585 0.2092
usemtl Shape.15574
s off
f 13//1 17//1 19//1
f 3//2 2//2 4//2
f 4//3 2//3 5//3
f 2//4 3//4 6//4
f 5//5 2//5 8//5
f 2//6 6//6 8//6
f 6//7 5//7 8//7
f 3//8 4//8 10//8
f 5//9 1//9 12//9
f 4//10 5//10 12//10
f 10//11 7//11 13//11
f 1//12 5//12 14//12
f 7//13 1//13 14//13
f 9//14 13//14 14//14
f 13//15 7//15 14//15
f 10//8 4//8 15//8
f 4//16 11//16 15//16
f 15//17 11//17 16//17
f 1//18 7//18 16//18
f 7//19 10//19 16//19
f 11//20 1//20 16//20
f 10//21 15//21 16//21
f 5//22 6//22 17//22
f 13//23 9//23 17//23
f 14//24 5//24 17//24
f 9//25 14//25 17//25
f 11//26 4//26 18//26
f 1//27 11//27 18//27
f 12//28 1//28 18//28
f 4//29 12//29 18//29
f 6//30 3//30 19//30
f 3//8 10//8 19//8
f 10//31 13//31 19//31
f 17//32 6//32 19//32
