####
#
# OBJ File Generated by Meshlab
#
####
# Object 100444_link_0_1.obj
#
# Vertices: 46
# Faces: 88
#
####
mtllib ./100444_link_0_1.obj.mtl

vn -0.066501 -0.944484 -0.321756
v -0.001582 0.221575 0.714259
vn 0.383622 0.666046 -0.639701
v 0.369277 0.395190 0.649521
vn 0.202930 0.922897 0.327233
v 0.347334 0.414171 0.640540
vn 0.013739 0.512963 0.858301
v 0.079976 0.364255 0.783430
vn -0.422535 0.816177 -0.394106
v -0.085855 0.361610 0.674220
vn 0.217989 -0.395930 -0.892032
v 0.339888 0.304405 0.618813
vn -0.665717 -0.279275 -0.691973
v -0.084761 0.286643 0.654737
vn 0.271834 -0.718476 0.640233
v 0.143815 0.254739 0.770547
vn -0.927717 0.066453 0.367322
v -0.083611 0.325975 0.767642
vn 0.550907 0.087100 0.830009
v 0.327497 0.348946 0.743025
vn -0.181067 0.587471 -0.788728
v 0.211481 0.384786 0.595298
vn -0.637225 -0.517568 0.571024
v -0.081256 0.259785 0.749350
vn -0.017430 -0.199532 -0.979736
v 0.173348 0.308508 0.599367
vn -0.276912 0.958982 0.060603
v -0.089490 0.366810 0.708731
vn 0.070464 -0.246822 0.966496
v 0.127785 0.297605 0.797818
vn 0.255044 -0.917718 0.304543
v 0.287063 0.262240 0.696469
vn -0.227170 -0.195032 -0.954126
v -0.089469 0.313118 0.645261
vn 0.061043 -0.967591 -0.245033
v 0.111881 0.229965 0.707417
vn 0.168437 0.735079 0.656725
v 0.243224 0.380590 0.753677
vn -0.154888 0.943904 -0.291642
v 0.242111 0.430087 0.647105
vn -0.180719 -0.911471 -0.369543
v -0.083993 0.243978 0.706768
vn 0.818899 -0.410586 0.401029
v 0.334488 0.294046 0.717621
vn -0.170957 -0.458265 0.872219
v -0.053450 0.288613 0.801778
vn 0.945539 -0.191003 0.263579
v 0.386092 0.355048 0.648281
vn -0.021224 -0.853335 -0.520930
v -0.021816 0.253996 0.641556
vn -0.202057 0.783840 0.587169
v -0.050902 0.348450 0.788489
vn 0.154384 0.278209 0.948032
v 0.132298 0.342012 0.789404
vn 0.296387 -0.284222 0.911796
v 0.149148 0.292012 0.792257
vn -0.026965 -0.659979 0.750800
v 0.101761 0.249064 0.773104
vn 0.799151 -0.600820 -0.019322
v 0.363922 0.315921 0.645582
vn 0.433738 0.715499 0.547661
v 0.329836 0.387901 0.730123
vn -0.055296 0.216835 0.974641
v 0.010972 0.317569 0.803680
vn -0.075434 0.977730 0.195841
v 0.244375 0.430290 0.684417
vn -0.257632 0.509497 -0.820999
v -0.072477 0.343744 0.622920
vn 0.155972 -0.957736 0.241691
v 0.130842 0.240432 0.748096
vn 0.031718 0.868720 0.494286
v 0.169078 0.385542 0.760525
vn -0.058204 0.907299 0.416438
v 0.080245 0.401826 0.725849
vn -0.088009 -0.009128 -0.996078
v 0.194917 0.362990 0.590470
vn 0.075040 -0.930039 -0.359717
v 0.257386 0.255182 0.666761
vn 0.350725 -0.593086 0.724735
v 0.316574 0.287365 0.722365
vn 0.062242 0.454433 -0.888604
v 0.230546 0.403575 0.616157
vn -0.075754 -0.895256 0.439066
v -0.038962 0.226770 0.747974
vn 0.303325 -0.134445 0.943355
v 0.286843 0.332610 0.757604
vn -0.053651 -0.483927 -0.873462
v 0.188271 0.278633 0.615140
vn 0.946897 0.284146 0.150492
v 0.380060 0.375101 0.652478
vn 0.501503 -0.861201 -0.082630
v 0.322538 0.269687 0.674033
# 46 vertices, 0 vertices normals


usemtl material_0
f 22//22 40//40 46//46
f 5//5 7//7 9//9
f 9//9 7//7 12//12
f 5//5 9//9 14//14
f 7//7 5//5 17//17
f 13//13 7//7 17//17
f 2//2 3//3 19//19
f 5//5 14//14 20//20
f 12//12 7//7 21//21
f 18//18 1//1 21//21
f 9//9 12//12 23//23
f 10//10 22//22 24//24
f 21//21 7//7 25//25
f 14//14 9//9 26//26
f 10//10 19//19 27//27
f 15//15 8//8 28//28
f 27//27 15//15 28//28
f 8//8 15//15 29//29
f 23//23 12//12 29//29
f 15//15 23//23 29//29
f 6//6 24//24 30//30
f 24//24 22//22 30//30
f 2//2 19//19 31//31
f 19//19 10//10 31//31
f 9//9 23//23 32//32
f 23//23 15//15 32//32
f 4//4 26//26 32//32
f 26//26 9//9 32//32
f 15//15 27//27 32//32
f 27//27 4//4 32//32
f 3//3 20//20 33//33
f 20//20 14//14 33//33
f 5//5 11//11 34//34
f 17//17 5//5 34//34
f 11//11 17//17 34//34
f 16//16 8//8 35//35
f 8//8 29//29 35//35
f 19//19 3//3 36//36
f 26//26 4//4 36//36
f 4//4 27//27 36//36
f 27//27 19//19 36//36
f 14//14 26//26 37//37
f 3//3 33//33 37//37
f 33//33 14//14 37//37
f 36//36 3//3 37//37
f 26//26 36//36 37//37
f 17//17 11//11 38//38
f 13//13 17//17 38//38
f 18//18 21//21 39//39
f 25//25 6//6 39//39
f 21//21 25//25 39//39
f 16//16 35//35 39//39
f 35//35 18//18 39//39
f 8//8 16//16 40//40
f 22//22 10//10 40//40
f 28//28 8//8 40//40
f 3//3 2//2 41//41
f 2//2 6//6 41//41
f 11//11 5//5 41//41
f 6//6 13//13 41//41
f 20//20 3//3 41//41
f 5//5 20//20 41//41
f 38//38 11//11 41//41
f 13//13 38//38 41//41
f 1//1 18//18 42//42
f 21//21 1//1 42//42
f 12//12 21//21 42//42
f 29//29 12//12 42//42
f 18//18 35//35 42//42
f 35//35 29//29 42//42
f 10//10 27//27 43//43
f 27//27 28//28 43//43
f 40//40 10//10 43//43
f 28//28 40//40 43//43
f 13//13 6//6 44//44
f 7//7 13//13 44//44
f 6//6 25//25 44//44
f 25//25 7//7 44//44
f 6//6 2//2 45//45
f 24//24 6//6 45//45
f 10//10 24//24 45//45
f 2//2 31//31 45//45
f 31//31 10//10 45//45
f 6//6 30//30 46//46
f 30//30 22//22 46//46
f 39//39 6//6 46//46
f 16//16 39//39 46//46
f 40//40 16//16 46//46
# 88 faces, 0 coords texture

# End of File
