####
#
# OBJ File Generated by Meshlab
#
####
# Object 100444_link_0_10.obj
#
# Vertices: 33
# Faces: 62
#
####
mtllib ./100444_link_0_10.obj.mtl

vn 0.542553 0.199002 0.816109
v 0.407836 0.387948 0.699227
vn 0.065639 -0.767266 -0.637961
v 0.432651 0.393768 0.513006
vn -0.401664 0.331807 -0.853563
v 0.387755 0.400603 0.489082
vn -0.737255 -0.661653 0.136637
v 0.252146 0.304066 0.641526
vn -0.294701 0.919363 0.260620
v 0.257650 0.428473 0.645443
vn 0.302114 -0.945021 -0.125149
v 0.434316 0.309247 0.599536
vn 0.558809 0.828915 -0.025142
v 0.442191 0.455020 0.565647
vn -0.201573 -0.689661 -0.695511
v 0.249785 0.343197 0.572766
vn 0.720712 0.577734 0.383142
v 0.452713 0.427536 0.635538
vn 0.210128 -0.826689 0.521949
v 0.360883 0.303207 0.675769
vn -0.646664 0.215156 0.731802
v 0.256496 0.390585 0.674056
vn -0.318396 0.294047 -0.901199
v 0.400290 0.465401 0.526450
vn 0.983929 0.005152 0.178486
v 0.469416 0.368948 0.644516
vn 0.568937 -0.237452 -0.787355
v 0.448845 0.370392 0.528541
vn -0.815694 0.134655 -0.562594
v 0.232912 0.394174 0.612467
vn -0.245086 0.181871 0.952290
v 0.335796 0.407557 0.698783
vn -0.401010 -0.560817 -0.724344
v 0.249055 0.323536 0.605698
vn -0.311142 -0.300034 0.901759
v 0.262648 0.317820 0.667759
vn 0.121907 -0.116537 0.985676
v 0.388813 0.361400 0.705975
vn 0.051032 -0.991105 -0.122908
v 0.337531 0.286462 0.656915
vn -0.184132 0.538901 -0.821998
v 0.432805 0.422127 0.517323
vn 0.597900 -0.635182 0.488937
v 0.451808 0.330529 0.645728
vn -0.210788 0.922066 0.324595
v 0.323292 0.450856 0.652171
vn 0.930273 -0.351159 -0.106203
v 0.455381 0.336821 0.594148
vn 0.207327 0.590025 0.780312
v 0.377814 0.416068 0.693923
vn -0.027779 -0.836128 -0.547831
v 0.309829 0.299581 0.580590
vn -0.557011 0.633625 -0.536897
v 0.231676 0.367451 0.597349
vn -0.088171 0.976368 0.197309
v 0.383409 0.476310 0.553354
vn -0.557563 0.696058 -0.452356
v 0.266048 0.431732 0.602170
vn 0.589902 0.430408 0.683202
v 0.455500 0.408602 0.650131
vn 0.133249 -0.506226 0.852045
v 0.373230 0.330453 0.703603
vn 0.211084 0.900803 0.379471
v 0.405533 0.456676 0.648270
vn 0.198301 -0.867477 -0.456246
v 0.455036 0.354113 0.553514
# 33 vertices, 0 vertices normals


usemtl material_0
f 20//20 26//26 33//33
f 3//3 2//2 8//8
f 7//7 9//9 13//13
f 7//7 13//13 14//14
f 4//4 11//11 15//15
f 11//11 5//5 15//15
f 8//8 2//2 17//17
f 2//2 14//14 17//17
f 4//4 15//15 17//17
f 11//11 4//4 18//18
f 16//16 11//11 18//18
f 16//16 18//18 19//19
f 13//13 1//1 19//19
f 6//6 10//10 20//20
f 18//18 4//4 20//20
f 10//10 18//18 20//20
f 2//2 3//3 21//21
f 12//12 7//7 21//21
f 14//14 2//2 21//21
f 7//7 14//14 21//21
f 15//15 12//12 21//21
f 10//10 6//6 22//22
f 13//13 19//19 22//22
f 7//7 5//5 23//23
f 5//5 11//11 23//23
f 11//11 16//16 23//23
f 14//14 13//13 24//24
f 22//22 6//6 24//24
f 13//13 22//22 24//24
f 16//16 19//19 25//25
f 19//19 1//1 25//25
f 23//23 16//16 25//25
f 4//4 17//17 26//26
f 17//17 14//14 26//26
f 20//20 4//4 26//26
f 3//3 8//8 27//27
f 8//8 17//17 27//27
f 17//17 15//15 27//27
f 21//21 3//3 27//27
f 15//15 21//21 27//27
f 5//5 7//7 28//28
f 7//7 12//12 28//28
f 15//15 5//5 29//29
f 12//12 15//15 29//29
f 5//5 28//28 29//29
f 28//28 12//12 29//29
f 1//1 13//13 30//30
f 13//13 9//9 30//30
f 25//25 1//1 30//30
f 9//9 25//25 30//30
f 18//18 10//10 31//31
f 19//19 18//18 31//31
f 10//10 22//22 31//31
f 22//22 19//19 31//31
f 9//9 7//7 32//32
f 7//7 23//23 32//32
f 25//25 9//9 32//32
f 23//23 25//25 32//32
f 6//6 20//20 33//33
f 24//24 6//6 33//33
f 14//14 24//24 33//33
f 26//26 14//14 33//33
# 62 faces, 0 coords texture

# End of File
