####
#
# OBJ File Generated by Meshlab
#
####
# Object 100444_link_0_6.obj
#
# Vertices: 13
# Faces: 22
#
####
mtllib ./100444_link_0_6.obj.mtl

vn 0.201443 -0.793324 -0.574506
v -0.337467 0.291687 0.552338
vn -0.107293 0.962309 0.249899
v -0.403433 0.425599 0.601613
vn -0.394339 -0.350308 0.849577
v -0.403528 0.313746 0.618941
vn -0.766074 -0.296921 -0.570060
v -0.405528 0.338031 0.548596
vn 0.869156 0.250463 -0.426424
v -0.293611 0.342524 0.609550
vn -0.785802 0.111381 0.608366
v -0.412338 0.382968 0.632338
vn -0.437711 0.819612 -0.369655
v -0.401020 0.400571 0.569414
vn 0.240541 0.412952 0.878414
v -0.325517 0.394084 0.626808
vn 0.345049 -0.544005 0.764853
v -0.304213 0.313638 0.617805
vn 0.329327 0.273735 -0.903666
v -0.401305 0.368732 0.537043
vn -0.267809 -0.962014 0.052983
v -0.373162 0.269948 0.593550
vn 0.539895 0.572111 -0.617415
v -0.301274 0.403915 0.579978
vn 0.575607 0.101943 -0.811347
v -0.292784 0.315399 0.558971
# 13 vertices, 0 vertices normals


usemtl material_0
f 10//10 5//5 13//13
f 4//4 3//3 6//6
f 6//6 2//2 7//7
f 4//4 6//6 7//7
f 2//2 6//6 8//8
f 6//6 3//3 8//8
f 7//7 2//2 8//8
f 8//8 3//3 9//9
f 5//5 8//8 9//9
f 4//4 7//7 10//10
f 4//4 1//1 11//11
f 3//3 4//4 11//11
f 1//1 9//9 11//11
f 9//9 3//3 11//11
f 8//8 5//5 12//12
f 7//7 8//8 12//12
f 5//5 10//10 12//12
f 10//10 7//7 12//12
f 1//1 4//4 13//13
f 9//9 1//1 13//13
f 5//5 9//9 13//13
f 4//4 10//10 13//13
# 22 faces, 0 coords texture

# End of File
