# Blender v2.79 (sub 0) OBJ File: ''
# www.blender.org
mtllib 100444_link_1_18.mtl
o Shape_IndexedFaceSet.018_Shape_IndexedFaceSet.15572
v 0.079874 0.740744 0.688355
v -0.025796 -0.503419 0.620381
v 0.202505 -0.510401 0.576009
v 0.105135 -0.480022 0.688355
v 0.223006 0.740744 0.578921
v -0.021148 0.740744 0.621022
v 0.223006 0.732322 0.663099
v -0.017366 0.721962 0.686790
v 0.223006 -0.480022 0.663099
v 0.012550 -0.480022 0.696777
v 0.225044 -0.490283 0.577938
v 0.054660 0.723899 0.696777
v 0.197720 0.723899 0.578921
v -0.009225 -0.419995 0.683422
v 0.197720 0.723899 0.671522
v 0.054660 -0.480022 0.696777
v -0.019277 0.739746 0.679299
vn -0.1373 0.3719 0.9180
vn -0.1908 0.0012 -0.9816
vn 0.0000 1.0000 0.0000
vn 0.0759 0.9922 0.0993
vn 0.0674 -0.9469 0.3144
vn 0.0844 0.0009 -0.9964
vn 1.0000 0.0017 0.0002
vn 0.6571 -0.7463 0.1057
vn 0.9997 0.0000 0.0239
vn -0.1375 0.0048 0.9905
vn -0.0016 0.0024 -1.0000
vn -0.1888 0.0016 -0.9820
vn -0.1647 0.2472 -0.9549
vn -0.9646 -0.0077 0.2637
vn -0.8498 -0.1998 0.4877
vn -0.5354 -0.0063 0.8446
vn 0.1826 0.3649 0.9130
vn 0.2095 -0.0024 0.9778
vn 0.3160 0.0000 0.9487
vn 0.1738 0.0004 0.9848
vn 0.1693 0.2261 0.9593
vn 0.0231 -0.9625 0.2704
vn 0.0502 -0.9523 0.3010
vn 0.0000 -0.9562 0.2928
vn 0.1646 0.0000 0.9864
vn 0.0000 0.0000 1.0000
vn -0.9995 0.0037 0.0322
vn -0.0117 0.9998 0.0175
vn -0.9723 -0.0060 0.2338
vn -0.0819 0.5411 0.8370
usemtl Shape.15589
s off
f 8//1 12//1 17//1
f 3//2 2//2 6//2
f 1//3 5//3 6//3
f 5//4 1//4 7//4
f 4//5 3//5 9//5
f 3//6 5//6 11//6
f 5//7 7//7 11//7
f 9//8 3//8 11//8
f 7//9 9//9 11//9
f 8//10 10//10 12//10
f 5//11 3//11 13//11
f 3//12 6//12 13//12
f 6//13 5//13 13//13
f 8//14 2//14 14//14
f 2//15 10//15 14//15
f 10//16 8//16 14//16
f 7//17 1//17 15//17
f 4//18 9//18 15//18
f 9//19 7//19 15//19
f 12//20 4//20 15//20
f 1//21 12//21 15//21
f 2//22 3//22 16//22
f 3//23 4//23 16//23
f 10//24 2//24 16//24
f 4//25 12//25 16//25
f 12//26 10//26 16//26
f 6//27 2//27 17//27
f 1//28 6//28 17//28
f 2//29 8//29 17//29
f 12//30 1//30 17//30
