####
#
# OBJ File Generated by Meshlab
#
####
# Object 100444_link_0_7.obj
#
# Vertices: 35
# Faces: 66
#
####
mtllib ./100444_link_0_7.obj.mtl

vn 0.898000 -0.186298 -0.398609
v -0.197890 0.318537 0.613093
vn -0.968727 0.081212 -0.234463
v -0.472415 0.355000 0.602859
vn -0.455690 0.270298 -0.848107
v -0.463836 0.372711 0.606098
vn 0.152365 0.351319 0.923775
v -0.248264 0.337049 0.760598
vn -0.075912 -0.996257 0.041334
v -0.268101 0.234531 0.702512
vn 0.273757 0.901229 -0.335920
v -0.325452 0.428952 0.602565
vn -0.393691 -0.649903 -0.650103
v -0.439793 0.298520 0.588027
vn -0.032411 -0.188575 -0.981524
v -0.299011 0.304441 0.563414
vn 0.532366 0.832310 0.154420
v -0.207775 0.383523 0.668776
vn -0.659882 -0.083515 0.746713
v -0.458390 0.344072 0.680640
vn 0.689936 -0.680750 -0.246106
v -0.207909 0.261161 0.683653
vn -0.314751 0.766859 0.559337
v -0.438000 0.414770 0.656396
vn -0.205690 -0.708001 0.675593
v -0.278928 0.255051 0.737274
vn -0.516661 -0.615150 0.595527
v -0.451152 0.285999 0.652515
vn 0.069386 0.371844 -0.925698
v -0.320999 0.396478 0.572769
vn 0.868858 0.245367 0.429977
v -0.208320 0.345070 0.730961
vn -0.345546 0.190946 0.918770
v -0.301779 0.327442 0.753138
vn 0.272675 -0.820744 -0.502024
v -0.206856 0.281012 0.622104
vn 0.108240 0.942603 0.315886
v -0.285443 0.414205 0.671823
vn 0.789532 0.347081 -0.506136
v -0.190043 0.355427 0.625336
vn 0.414307 0.194388 -0.889136
v -0.284181 0.343344 0.554687
vn 0.480899 -0.674590 0.560058
v -0.218311 0.266431 0.723075
vn -0.136699 0.578175 0.804380
v -0.320628 0.374449 0.727428
vn -0.517582 0.383977 0.764637
v -0.442229 0.387228 0.678101
vn 0.082393 -0.839728 -0.536720
v -0.404723 0.268688 0.582248
vn -0.227534 0.682644 -0.694425
v -0.366736 0.400616 0.588686
vn -0.328435 -0.365720 0.870850
v -0.285426 0.290105 0.758239
vn 0.096825 0.831932 0.546365
v -0.254896 0.388028 0.724402
vn 0.481251 0.741518 -0.467492
v -0.201161 0.380520 0.634355
vn -0.081030 -0.979192 -0.186058
v -0.270115 0.233156 0.667359
vn -0.274703 -0.961395 0.016072
v -0.411758 0.265190 0.650304
vn -0.165890 0.986073 0.011851
v -0.441563 0.423405 0.629879
vn 0.583817 -0.279829 0.762137
v -0.213239 0.305501 0.740887
vn -0.947839 -0.316881 -0.034466
v -0.474143 0.300813 0.623783
vn 0.076568 0.994659 -0.069210
v -0.329970 0.428854 0.628302
# 35 vertices, 0 vertices normals


usemtl material_0
f 32//32 19//19 35//35
f 2//2 3//3 7//7
f 7//7 3//3 8//8
f 3//3 2//2 10//10
f 8//8 3//3 15//15
f 11//11 1//1 16//16
f 8//8 1//1 18//18
f 1//1 11//11 18//18
f 16//16 1//1 20//20
f 9//9 16//16 20//20
f 1//1 8//8 21//21
f 8//8 15//15 21//21
f 20//20 1//1 21//21
f 15//15 20//20 21//21
f 5//5 11//11 22//22
f 13//13 5//5 22//22
f 4//4 16//16 23//23
f 17//17 4//4 23//23
f 3//3 10//10 24//24
f 12//12 3//3 24//24
f 10//10 17//17 24//24
f 23//23 12//12 24//24
f 17//17 23//23 24//24
f 7//7 8//8 25//25
f 8//8 18//18 25//25
f 18//18 11//11 25//25
f 15//15 3//3 26//26
f 6//6 15//15 26//26
f 10//10 14//14 27//27
f 14//14 13//13 27//27
f 4//4 17//17 27//27
f 17//17 10//10 27//27
f 16//16 9//9 28//28
f 9//9 19//19 28//28
f 12//12 23//23 28//28
f 23//23 16//16 28//28
f 6//6 9//9 29//29
f 15//15 6//6 29//29
f 20//20 15//15 29//29
f 9//9 20//20 29//29
f 5//5 7//7 30//30
f 11//11 5//5 30//30
f 7//7 25//25 30//30
f 25//25 11//11 30//30
f 7//7 5//5 31//31
f 5//5 13//13 31//31
f 14//14 7//7 31//31
f 13//13 14//14 31//31
f 3//3 12//12 32//32
f 26//26 3//3 32//32
f 28//28 19//19 32//32
f 12//12 28//28 32//32
f 16//16 4//4 33//33
f 11//11 16//16 33//33
f 22//22 11//11 33//33
f 13//13 22//22 33//33
f 27//27 13//13 33//33
f 4//4 27//27 33//33
f 2//2 7//7 34//34
f 10//10 2//2 34//34
f 7//7 14//14 34//34
f 14//14 10//10 34//34
f 9//9 6//6 35//35
f 19//19 9//9 35//35
f 6//6 26//26 35//35
f 26//26 32//32 35//35
# 66 faces, 0 coords texture

# End of File
