####
#
# OBJ File Generated by Meshlab
#
####
# Object 100444_link_0_5.obj
#
# Vertices: 29
# Faces: 54
#
####
mtllib ./100444_link_0_5.obj.mtl

vn 0.510953 0.321622 -0.797174
v -0.476560 0.414839 0.422687
vn 0.602092 0.000963 0.798426
v -0.370133 0.383010 0.632722
vn 0.702632 -0.534911 0.469232
v -0.379546 0.312150 0.618468
vn -0.926566 -0.181342 0.329532
v -0.569828 0.379121 0.579850
vn -0.944075 0.295562 -0.146169
v -0.546548 0.457493 0.493873
vn -0.801974 -0.592293 -0.077629
v -0.550961 0.331784 0.527948
vn 0.847098 0.152275 -0.509153
v -0.343939 0.361491 0.542950
vn -0.374289 0.510352 0.774241
v -0.483576 0.395648 0.647626
vn -0.260922 -0.626068 0.734819
v -0.453658 0.302968 0.640369
vn 0.743589 0.442200 -0.501533
v -0.353392 0.406126 0.575526
vn -0.868693 -0.168824 -0.465694
v -0.545750 0.373238 0.449970
vn 0.679089 -0.088909 -0.728651
v -0.360571 0.323842 0.541700
vn -0.399135 0.764829 0.505696
v -0.550962 0.427278 0.571375
vn 0.349119 0.644467 -0.680278
v -0.527683 0.443511 0.458269
vn 0.379950 0.708031 0.595257
v -0.389613 0.437714 0.610334
vn 0.014204 -0.981093 -0.193016
v -0.437984 0.274749 0.567343
vn -0.271279 -0.234547 0.933486
v -0.476517 0.347036 0.660256
vn -0.637363 -0.670461 0.379803
v -0.556543 0.325767 0.570975
vn -0.020040 0.613284 0.789608
v -0.457841 0.394041 0.654201
vn 0.468763 0.648089 -0.600201
v -0.502060 0.481787 0.474756
vn 0.311060 -0.445340 -0.839591
v -0.485692 0.337976 0.450695
vn 0.298318 -0.253284 -0.920246
v -0.527893 0.396503 0.439168
vn 0.321259 -0.850219 -0.417038
v -0.362562 0.307998 0.552556
vn -0.627884 0.238209 0.740958
v -0.546753 0.398616 0.608203
vn -0.135390 -0.876272 -0.462404
v -0.522126 0.317733 0.480154
vn -0.262601 -0.917657 0.298239
v -0.435114 0.274460 0.612132
vn -0.189981 0.797017 0.573298
v -0.416001 0.446141 0.600387
vn -0.139583 0.930548 0.338521
v -0.502830 0.482749 0.515967
vn 0.492631 0.860653 -0.128807
v -0.382453 0.441337 0.588864
# 29 vertices, 0 vertices normals


usemtl material_0
f 28//28 15//15 29//29
f 4//4 5//5 6//6
f 2//2 3//3 7//7
f 3//3 2//2 9//9
f 2//2 7//7 10//10
f 6//6 5//5 11//11
f 7//7 3//3 12//12
f 5//5 4//4 13//13
f 7//7 1//1 14//14
f 10//10 7//7 14//14
f 11//11 5//5 14//14
f 2//2 10//10 15//15
f 9//9 2//2 17//17
f 4//4 9//9 17//17
f 4//4 6//6 18//18
f 6//6 9//9 18//18
f 9//9 4//4 18//18
f 13//13 8//8 19//19
f 2//2 15//15 19//19
f 17//17 2//2 19//19
f 8//8 17//17 19//19
f 14//14 5//5 20//20
f 10//10 14//14 20//20
f 1//1 7//7 22//22
f 7//7 12//12 22//22
f 14//14 1//1 22//22
f 11//11 14//14 22//22
f 21//21 11//11 22//22
f 12//12 21//21 22//22
f 12//12 3//3 23//23
f 3//3 16//16 23//23
f 21//21 12//12 23//23
f 13//13 4//4 24//24
f 8//8 13//13 24//24
f 17//17 8//8 24//24
f 4//4 17//17 24//24
f 6//6 11//11 25//25
f 16//16 6//6 25//25
f 11//11 21//21 25//25
f 23//23 16//16 25//25
f 21//21 23//23 25//25
f 3//3 9//9 26//26
f 9//9 6//6 26//26
f 16//16 3//3 26//26
f 6//6 16//16 26//26
f 13//13 19//19 27//27
f 19//19 15//15 27//27
f 5//5 13//13 28//28
f 20//20 5//5 28//28
f 13//13 27//27 28//28
f 27//27 15//15 28//28
f 15//15 10//10 29//29
f 10//10 20//20 29//29
f 20//20 28//28 29//29
# 54 faces, 0 coords texture

# End of File
