# SSTK version 0.8.0
# 13
mtllib original-13.mtl
o mesh31/mesh31-geometry#mesh31-geometry
v -0.070284 -0.200806 0.035929
v 0.117592 -0.200806 0.052353
v 0.061920 -0.200806 0.035929
v -0.125956 -0.200806 0.052353
v 0.160483 -0.200806 0.092095
v -0.168847 -0.200806 0.092095
v 0.193419 -0.200806 0.149208
v -0.201783 -0.200806 0.149208
v 0.213916 -0.200806 0.225735
v -0.222280 -0.200806 0.225735
v 0.219507 -0.200806 0.304963
v -0.227871 -0.200806 0.304963
v 0.202929 -0.200806 0.414955
v -0.211293 -0.200806 0.414955
v 0.171810 -0.200806 0.516328
v -0.180175 -0.200806 0.516328
v 0.140018 -0.200806 0.580397
v -0.148382 -0.200806 0.580397
v 0.099682 -0.200806 0.627615
v -0.108047 -0.200806 0.627615
v 0.063892 -0.200806 0.648585
v -0.072256 -0.200806 0.648585
v -0.004182 -0.200806 0.656352
vt 0.433554 0.270063
vt 0.437385 0.313885
vt 0.433554 0.300899
vt 0.437385 0.257077
vt 0.446655 0.323889
vt 0.446655 0.247073
vt 0.459976 0.331571
vt 0.459976 0.239391
vt 0.477826 0.336352
vt 0.477826 0.23461
vt 0.496306 0.337656
vt 0.496306 0.233306
vt 0.521961 0.333789
vt 0.521961 0.237173
vt 0.545606 0.326531
vt 0.545606 0.244431
vt 0.56055 0.319115
vt 0.56055 0.251847
vt 0.571564 0.309707
vt 0.571564 0.261255
vt 0.576455 0.301359
vt 0.576455 0.269603
vt 0.578266 0.285481
vn 0 1 0
vn 0 -1 0
usemtl material_0_0
f 1/1/1 2/2/1 3/3/1
f 2/2/1 1/1/1 4/4/1
f 3/3/2 2/2/2 1/1/2
f 4/4/2 1/1/2 2/2/2
f 2/2/1 4/4/1 5/5/1
f 5/5/2 4/4/2 2/2/2
f 5/5/1 4/4/1 6/6/1
f 6/6/2 4/4/2 5/5/2
f 5/5/1 6/6/1 7/7/1
f 7/7/2 6/6/2 5/5/2
f 7/7/1 6/6/1 8/8/1
f 8/8/2 6/6/2 7/7/2
f 7/7/1 8/8/1 9/9/1
f 9/9/2 8/8/2 7/7/2
f 9/9/1 8/8/1 10/10/1
f 10/10/2 8/8/2 9/9/2
f 9/9/1 10/10/1 11/11/1
f 11/11/2 10/10/2 9/9/2
f 11/11/1 10/10/1 12/12/1
f 12/12/2 10/10/2 11/11/2
f 11/11/1 12/12/1 13/13/1
f 13/13/2 12/12/2 11/11/2
f 13/13/1 12/12/1 14/14/1
f 14/14/2 12/12/2 13/13/2
f 13/13/1 14/14/1 15/15/1
f 15/15/2 14/14/2 13/13/2
f 15/15/1 14/14/1 16/16/1
f 16/16/2 14/14/2 15/15/2
f 15/15/1 16/16/1 17/17/1
f 17/17/2 16/16/2 15/15/2
f 17/17/1 16/16/1 18/18/1
f 18/18/2 16/16/2 17/17/2
f 17/17/1 18/18/1 19/19/1
f 19/19/2 18/18/2 17/17/2
f 19/19/1 18/18/1 20/20/1
f 20/20/2 18/18/2 19/19/2
f 19/19/1 20/20/1 21/21/1
f 21/21/2 20/20/2 19/19/2
f 21/21/1 20/20/1 22/22/1
f 22/22/2 20/20/2 21/21/2
f 21/21/1 22/22/1 23/23/1
f 23/23/2 22/22/2 21/21/2
