# Blender v2.79 (sub 0) OBJ File: ''
# www.blender.org
mtllib 100441_link_1_34.mtl
o Shape_IndexedFaceSet.034_Shape_IndexedFaceSet.8501
v 0.515284 -0.662763 0.080170
v 0.483481 -0.726378 -0.068294
v 0.462271 -0.705161 -0.089503
v 0.515284 -0.662763 -0.089503
v 0.472879 -0.662763 0.080170
v 0.504676 -0.726378 0.080170
v 0.515284 -0.726378 -0.068294
v 0.462271 -0.662763 -0.089503
v 0.472879 -0.715766 0.080170
vn -0.3163 -0.9476 0.0451
vn 0.0000 1.0000 0.0000
vn 0.0000 0.0000 1.0000
vn 0.9839 -0.1641 0.0703
vn 0.0000 -0.7070 -0.7072
vn 0.2452 -0.3066 -0.9197
vn 1.0000 0.0000 0.0000
vn 0.0000 -1.0000 0.0000
vn 0.0000 0.0000 -1.0000
vn -0.9981 0.0000 0.0624
vn -0.7072 -0.7070 0.0000
usemtl Shape.8506
s off
f 2//1 6//1 9//1
f 1//2 4//2 5//2
f 1//3 5//3 6//3
f 1//4 6//4 7//4
f 2//5 3//5 7//5
f 3//6 4//6 7//6
f 4//7 1//7 7//7
f 6//8 2//8 7//8
f 4//9 3//9 8//9
f 5//2 4//2 8//2
f 3//10 5//10 8//10
f 3//11 2//11 9//11
f 5//10 3//10 9//10
f 6//3 5//3 9//3
