####
#
# OBJ File Generated by Meshlab
#
####
# Object 100441_link_0_8.obj
#
# Vertices: 21
# Faces: 38
#
####
mtllib ./100441_link_0_8.obj.mtl

vn 0.383276 0.397151 0.833889
v 0.469037 0.082416 -0.516539
vn 0.835952 0.172198 -0.521087
v 0.483157 0.067894 -0.519458
vn -0.226771 -0.276523 0.933868
v 0.368909 -0.011594 -0.467447
vn -0.593917 0.668460 0.447686
v 0.181220 -0.018600 -0.578331
vn -0.093898 0.335449 -0.937367
v 0.319796 0.051780 -0.619640
vn 0.635936 -0.352763 -0.686399
v 0.447154 -0.015500 -0.589595
vn -0.348188 0.888698 0.298296
v 0.415582 0.089002 -0.501846
vn -0.343761 -0.870473 0.352286
v 0.217333 -0.060780 -0.581222
vn 0.398777 -0.693571 0.599946
v 0.430473 -0.023400 -0.489397
vn 0.405960 0.111809 -0.907025
v 0.382554 0.029426 -0.626498
vn -0.370593 0.651526 -0.661948
v 0.261227 0.039895 -0.610599
vn -0.219250 0.352931 0.909598
v 0.360477 0.049117 -0.470098
vn 0.014418 -0.453181 -0.891302
v 0.334439 -0.053542 -0.612497
vn 0.087088 -0.995032 0.048242
v 0.346454 -0.083015 -0.557493
vn 0.667130 -0.170900 0.725073
v 0.478320 0.010354 -0.511092
vn -0.883447 -0.444444 0.148292
v 0.182510 -0.035712 -0.577532
vn -0.478004 0.823036 0.306796
v 0.207423 0.026549 -0.589596
vn 0.526325 -0.839088 -0.137523
v 0.434845 -0.053803 -0.543687
vn 0.771377 0.180268 -0.610312
v 0.494973 0.049091 -0.525785
vn -0.141287 -0.758159 0.636579
v 0.372588 -0.055054 -0.496918
vn 0.074743 0.912388 -0.402445
v 0.447048 0.101920 -0.568144
# 21 vertices, 0 vertices normals


usemtl material_0
f 11//11 7//7 21//21
f 1//1 7//7 12//12
f 7//7 4//4 12//12
f 5//5 10//10 13//13
f 10//10 6//6 13//13
f 11//11 5//5 13//13
f 8//8 13//13 14//14
f 2//2 1//1 15//15
f 3//3 9//9 15//15
f 1//1 12//12 15//15
f 12//12 3//3 15//15
f 8//8 3//3 16//16
f 4//4 11//11 16//16
f 3//3 12//12 16//16
f 12//12 4//4 16//16
f 13//13 8//8 16//16
f 11//11 13//13 16//16
f 4//4 7//7 17//17
f 11//11 4//4 17//17
f 7//7 11//11 17//17
f 13//13 6//6 18//18
f 9//9 14//14 18//18
f 14//14 13//13 18//18
f 6//6 15//15 18//18
f 15//15 9//9 18//18
f 10//10 2//2 19//19
f 6//6 10//10 19//19
f 2//2 15//15 19//19
f 15//15 6//6 19//19
f 3//3 8//8 20//20
f 9//9 3//3 20//20
f 14//14 9//9 20//20
f 8//8 14//14 20//20
f 1//1 2//2 21//21
f 7//7 1//1 21//21
f 2//2 10//10 21//21
f 10//10 5//5 21//21
f 5//5 11//11 21//21
# 38 faces, 0 coords texture

# End of File
