# Blender v2.79 (sub 0) OBJ File: ''
# www.blender.org
mtllib 100441_link_1_31.mtl
o Shape_IndexedFaceSet.031_Shape_IndexedFaceSet.8498
v 0.812184 0.556737 0.027146
v 0.642563 0.387101 0.037747
v 0.642563 0.387101 0.048356
v 0.674389 0.567366 -0.025876
v 0.822793 0.440124 -0.004658
v 0.655234 0.389528 -0.025027
v 0.700382 0.588532 0.044625
v 0.812184 0.450753 0.048356
v 0.769789 0.577954 -0.025876
v 0.706196 0.387101 0.037747
v 0.844011 0.524931 0.005950
v 0.695587 0.387101 -0.025876
v 0.769789 0.577954 0.048356
v 0.844011 0.514343 0.037747
vn 0.1958 0.0653 0.9785
vn -0.9848 0.1739 0.0000
vn -0.9757 0.1042 -0.1929
vn -0.9267 0.2708 0.2604
vn -0.1068 0.9624 -0.2496
vn 0.0000 -1.0000 0.0000
vn 0.4771 -0.8384 0.2636
vn 0.1506 -0.4014 0.9034
vn 0.6244 0.7559 -0.1968
vn 0.4024 0.0138 -0.9154
vn -0.0610 -0.9968 -0.0509
vn -0.0212 -0.0025 -0.9998
vn 0.1947 -0.0757 -0.9779
vn 0.0000 0.0000 -1.0000
vn 0.3932 -0.9171 -0.0656
vn -0.0487 0.0325 0.9983
vn -0.0000 0.0000 1.0000
vn 0.4475 0.8943 0.0000
vn 0.1507 0.9886 0.0000
vn 0.8808 -0.3981 0.2561
vn 0.7570 0.6199 0.2064
vn 0.9694 -0.2328 -0.0775
vn 0.5776 0.5778 0.5766
usemtl Shape.8503
s off
f 13//1 8//1 14//1
f 2//2 3//2 4//2
f 2//3 4//3 6//3
f 4//4 3//4 7//4
f 4//5 7//5 9//5
f 3//6 2//6 10//6
f 5//7 8//7 10//7
f 8//8 3//8 10//8
f 9//9 1//9 11//9
f 5//10 9//10 11//10
f 2//11 6//11 12//11
f 6//12 4//12 12//12
f 9//13 5//13 12//13
f 4//14 9//14 12//14
f 10//6 2//6 12//6
f 5//15 10//15 12//15
f 7//16 3//16 13//16
f 3//17 8//17 13//17
f 1//18 9//18 13//18
f 9//19 7//19 13//19
f 8//20 5//20 14//20
f 11//21 1//21 14//21
f 5//22 11//22 14//22
f 1//23 13//23 14//23
