# Blender v2.79 (sub 0) OBJ File: ''
# www.blender.org
mtllib 100441_link_1_29.mtl
o Shape_IndexedFaceSet.029_Shape_IndexedFaceSet.8496
v -0.746611 0.556786 -0.185019
v -0.513354 0.546178 -0.428783
v -0.513354 0.524960 -0.428783
v -0.675095 0.522272 -0.072269
v -0.693609 0.599192 -0.089550
v -0.566380 0.599192 -0.513603
v -0.587628 0.535576 -0.481795
v -0.513354 0.599192 -0.460590
v -0.746611 0.599192 -0.163814
v -0.704233 0.546178 -0.312249
v -0.513354 0.546178 -0.566709
v -0.757259 0.546178 -0.089550
v -0.672408 0.524960 -0.291044
v -0.619430 0.588576 -0.460590
v -0.672408 0.567366 -0.089550
v -0.524002 0.524960 -0.513603
v -0.746611 0.599192 -0.089550
v -0.598205 0.546178 -0.492398
v -0.513354 0.599192 -0.545410
v -0.714833 0.524960 -0.132007
vn -0.0482 -0.9988 -0.0129
vn 0.9107 0.0000 0.4131
vn 1.0000 0.0000 0.0000
vn -0.0000 1.0000 0.0000
vn -0.9321 0.1620 -0.3240
vn -0.9931 0.0525 -0.1049
vn -0.6517 -0.7424 -0.1552
vn -0.4245 -0.8738 -0.2373
vn -0.3742 0.9071 -0.1928
vn -0.8465 0.3768 -0.3762
vn 0.9029 0.1059 0.4167
vn 0.4459 0.2970 0.8444
vn 0.8847 0.2399 0.3998
vn 0.7716 0.5140 0.3748
vn 0.0130 -0.9999 -0.0016
vn 0.7711 -0.6293 -0.0968
vn -0.3446 -0.8459 -0.4071
vn -0.0188 -0.9997 -0.0125
vn -0.2397 -0.9576 -0.1598
vn 0.0000 0.2192 0.9757
vn -0.1948 0.0391 0.9801
vn -0.9804 0.1969 0.0000
vn -0.5088 -0.8071 -0.2995
vn -0.3812 -0.8156 -0.4353
vn -0.6559 0.0942 -0.7489
vn -0.7137 0.1552 -0.6831
vn -0.8607 -0.0508 -0.5066
vn -0.4863 0.3257 -0.8108
vn -0.3069 -0.9378 0.1620
vn -0.5442 -0.8289 -0.1296
vn -0.4884 -0.8628 -0.1303
usemtl Shape.8501
s off
f 13//1 4//1 20//1
f 3//2 2//2 4//2
f 2//3 3//3 8//3
f 6//4 5//4 8//4
f 5//4 6//4 9//4
f 1//5 9//5 10//5
f 8//3 3//3 11//3
f 9//6 1//6 12//6
f 1//7 10//7 12//7
f 10//8 7//8 13//8
f 9//9 6//9 14//9
f 10//10 9//10 14//10
f 4//11 2//11 15//11
f 5//12 4//12 15//12
f 2//13 8//13 15//13
f 8//14 5//14 15//14
f 3//15 4//15 16//15
f 11//16 3//16 16//16
f 7//17 11//17 16//17
f 4//18 13//18 16//18
f 13//19 7//19 16//19
f 4//20 5//20 17//20
f 5//4 9//4 17//4
f 12//21 4//21 17//21
f 9//22 12//22 17//22
f 7//23 10//23 18//23
f 11//24 7//24 18//24
f 6//25 11//25 18//25
f 14//26 6//26 18//26
f 10//27 14//27 18//27
f 6//4 8//4 19//4
f 11//28 6//28 19//28
f 8//3 11//3 19//3
f 4//29 12//29 20//29
f 12//30 10//30 20//30
f 10//31 13//31 20//31
