# Blender v2.79 (sub 0) OBJ File: ''
# www.blender.org
mtllib 100441_link_1_23.mtl
o Shape_IndexedFaceSet.023_Shape_IndexedFaceSet.8490
v -0.364846 -0.726378 -0.312200
v -0.099826 -0.705161 -0.513686
v -0.184637 -0.705161 -0.492476
v -0.363085 -0.660719 -0.283834
v -0.068006 -0.726378 -0.471265
v -0.057389 -0.662763 -0.471265
v -0.375463 -0.662763 -0.365236
v -0.333026 -0.726378 -0.397041
v -0.099826 -0.662763 -0.513686
v -0.311824 -0.673363 -0.428845
v -0.174020 -0.726378 -0.481860
v -0.057389 -0.715766 -0.513686
v -0.364846 -0.705161 -0.290990
v -0.375463 -0.715766 -0.365236
vn -0.9733 -0.1623 0.1624
vn 0.5203 -0.0868 0.8496
vn 0.0000 -1.0000 -0.0000
vn -0.2426 0.0000 -0.9701
vn 0.0041 1.0000 -0.0041
vn -0.0125 0.9997 -0.0232
vn -0.1800 0.9251 -0.3343
vn -0.4857 -0.2986 -0.8216
vn -0.3677 0.2943 -0.8821
vn -0.2074 -0.5188 -0.8294
vn -0.3897 -0.5606 -0.7306
vn 0.9661 -0.1612 0.2015
vn 0.0000 0.0000 -1.0000
vn 0.6152 0.4926 -0.6155
vn -0.1543 -0.6174 -0.7713
vn 0.0237 -0.9712 -0.2370
vn 0.3544 -0.6611 0.6613
vn 0.5045 -0.1567 0.8491
vn -0.9886 0.0150 0.1499
vn -0.9899 0.0000 0.1416
vn -0.3261 -0.9374 -0.1223
vn -0.7069 0.0000 -0.7073
vn -0.6193 -0.2067 -0.7574
usemtl Shape.8495
s off
f 1//1 13//1 14//1
f 4//2 5//2 6//2
f 5//3 1//3 8//3
f 2//4 3//4 9//4
f 4//5 6//5 9//5
f 7//6 4//6 9//6
f 7//7 9//7 10//7
f 3//8 8//8 10//8
f 9//9 3//9 10//9
f 3//10 2//10 11//10
f 8//11 3//11 11//11
f 5//3 8//3 11//3
f 6//12 5//12 12//12
f 2//13 9//13 12//13
f 9//14 6//14 12//14
f 11//15 2//15 12//15
f 5//16 11//16 12//16
f 1//17 5//17 13//17
f 5//18 4//18 13//18
f 4//19 7//19 13//19
f 13//20 7//20 14//20
f 8//21 1//21 14//21
f 7//22 10//22 14//22
f 10//23 8//23 14//23
