####
#
# OBJ File Generated by Meshlab
#
####
# Object 100441_link_0_23.obj
#
# Vertices: 12
# Faces: 20
#
####
mtllib ./100441_link_0_23.obj.mtl

vn -0.961976 0.147123 -0.230124
v 0.700028 0.613441 -0.034373
vn -0.764170 -0.418995 0.490396
v 0.723923 0.609728 0.012546
vn 0.080806 -0.905539 -0.416497
v 0.797010 0.556648 -0.066357
vn -0.300919 0.466611 -0.831698
v 0.749796 0.644864 -0.073147
vn 0.650060 -0.582484 0.487990
v 0.817183 0.579207 0.015158
vn 0.124995 0.983028 -0.134282
v 0.794862 0.676785 -0.008590
vn -0.612271 -0.685176 -0.394535
v 0.747020 0.567562 -0.062428
vn 0.614990 0.531326 -0.582649
v 0.830279 0.630921 -0.074580
vn -0.171388 -0.547478 0.819081
v 0.756174 0.571366 0.017168
vn -0.390633 0.660897 0.640797
v 0.743823 0.652848 0.005459
vn 0.675903 0.219157 0.703652
v 0.823251 0.646293 0.005690
vn 0.832240 -0.281939 -0.477375
v 0.824970 0.576801 -0.067987
# 12 vertices, 0 vertices normals


usemtl material_0
f 8//8 11//11 12//12
f 2//2 1//1 7//7
f 4//4 3//3 7//7
f 1//1 4//4 7//7
f 4//4 6//6 8//8
f 3//3 5//5 9//9
f 2//2 7//7 9//9
f 7//7 3//3 9//9
f 1//1 2//2 10//10
f 4//4 1//1 10//10
f 6//6 4//4 10//10
f 2//2 9//9 10//10
f 10//10 9//9 11//11
f 8//8 6//6 11//11
f 9//9 5//5 11//11
f 6//6 10//10 11//11
f 3//3 4//4 12//12
f 5//5 3//3 12//12
f 4//4 8//8 12//12
f 11//11 5//5 12//12
# 20 faces, 0 coords texture

# End of File
