# Blender v2.79 (sub 0) OBJ File: ''
# www.blender.org
mtllib 100441_link_1_28.mtl
o Shape_IndexedFaceSet.028_Shape_IndexedFaceSet.8495
v -0.587595 0.524960 -0.428835
v -0.513374 0.408314 -0.386368
v -0.513374 0.387101 -0.386368
v -0.714821 0.493140 -0.089503
v -0.640599 0.387101 -0.301515
v -0.661797 0.524960 -0.089503
v -0.640599 0.387101 -0.089503
v -0.513374 0.524960 -0.428835
v -0.523982 0.387101 -0.471221
v -0.672406 0.524960 -0.280463
v -0.693603 0.387101 -0.121323
v -0.513374 0.514340 -0.503081
v -0.714821 0.524960 -0.131970
v -0.555789 0.418921 -0.450048
v -0.640599 0.408314 -0.089503
v -0.513374 0.514340 -0.418228
vn 0.9128 0.1175 0.3912
vn 0.0000 0.0000 1.0000
vn 0.9191 0.0000 0.3939
vn 0.0000 -1.0000 0.0000
vn 1.0000 0.0000 0.0000
vn 0.0000 1.0000 0.0000
vn -0.8615 -0.1236 -0.4925
vn -0.4842 -0.3389 0.8066
vn -0.9445 -0.1755 -0.2778
vn 0.0000 0.9899 -0.1416
vn 0.9859 -0.1131 -0.1233
vn -0.4329 0.7214 0.5405
vn -0.9798 -0.1601 -0.1199
vn -0.9481 -0.1668 -0.2708
vn -0.8443 -0.1504 -0.5143
vn -0.7524 -0.4081 -0.5170
vn -0.7105 -0.0731 -0.6998
vn -0.6397 -0.1361 -0.7565
vn 0.8506 0.3716 0.3720
vn 0.9011 0.1638 0.4016
usemtl Shape.8500
s off
f 15//1 2//1 16//1
f 6//2 4//2 7//2
f 3//3 2//3 7//3
f 5//4 3//4 7//4
f 2//5 3//5 8//5
f 1//6 6//6 8//6
f 3//4 5//4 9//4
f 1//7 5//7 10//7
f 6//6 1//6 10//6
f 7//8 4//8 11//8
f 5//4 7//4 11//4
f 10//9 5//9 11//9
f 1//10 8//10 12//10
f 8//5 3//5 12//5
f 3//11 9//11 12//11
f 4//12 6//12 13//12
f 6//6 10//6 13//6
f 11//13 4//13 13//13
f 10//14 11//14 13//14
f 5//15 1//15 14//15
f 9//16 5//16 14//16
f 1//17 12//17 14//17
f 12//18 9//18 14//18
f 6//2 7//2 15//2
f 7//3 2//3 15//3
f 2//5 8//5 16//5
f 8//19 6//19 16//19
f 6//20 15//20 16//20
