# Blender v2.79 (sub 0) OBJ File: ''
# www.blender.org
mtllib 100441_link_1_22.mtl
o Shape_IndexedFaceSet.022_Shape_IndexedFaceSet.8489
v -0.460312 -0.726378 -0.227310
v -0.373053 -0.661624 -0.284711
v -0.375521 -0.715766 -0.280345
v -0.470918 -0.662763 0.037713
v -0.513354 -0.662763 -0.110755
v -0.513354 -0.726378 0.037713
v -0.417930 -0.662763 -0.322742
v -0.481524 -0.726378 0.027075
v -0.375521 -0.726378 -0.333342
v -0.512654 -0.663086 0.035720
v -0.513354 -0.715766 -0.089556
v -0.449707 -0.715766 -0.269746
vn -0.9347 -0.1320 -0.3301
vn 0.9567 -0.0202 0.2903
vn -0.0060 1.0000 0.0017
vn -0.0184 0.9998 -0.0083
vn 0.9271 -0.2068 0.3125
vn 0.0000 -1.0000 -0.0000
vn 0.3101 -0.2069 0.9279
vn 0.9990 -0.0448 0.0090
vn 0.5584 0.4845 -0.6734
vn 0.5552 -0.8155 0.1633
vn -0.0078 1.0000 0.0022
vn -0.0479 0.0320 0.9983
vn -0.9999 0.0112 0.0048
vn -0.3834 -0.9204 -0.0767
vn -1.0000 0.0000 -0.0000
vn -0.9035 0.1350 -0.4067
vn -0.3931 -0.8641 -0.3143
vn -0.6436 -0.3126 -0.6986
vn -0.8786 -0.3630 -0.3103
usemtl Shape.8494
s off
f 11//1 5//1 12//1
f 3//2 2//2 4//2
f 4//3 2//3 5//3
f 5//4 2//4 7//4
f 3//5 4//5 8//5
f 6//6 1//6 8//6
f 4//7 6//7 8//7
f 2//8 3//8 9//8
f 7//9 2//9 9//9
f 8//6 1//6 9//6
f 3//10 8//10 9//10
f 4//11 5//11 10//11
f 6//12 4//12 10//12
f 5//13 6//13 10//13
f 1//14 6//14 11//14
f 6//15 5//15 11//15
f 5//16 7//16 12//16
f 9//17 1//17 12//17
f 7//18 9//18 12//18
f 1//19 11//19 12//19
