####
#
# OBJ File Generated by Meshlab
#
####
# Object 102352_link_0_26.obj
#
# Vertices: 14
# Faces: 24
#
####
mtllib ./102352_link_0_26.obj.mtl

vn -0.358805 -0.307203 -0.881411
v 0.746335 0.544978 -0.095932
vn 0.835067 -0.046131 0.548211
v 0.812234 0.614727 0.039079
vn 0.168760 0.860236 0.481158
v 0.812560 0.635965 0.025633
vn -0.772369 0.112736 0.625089
v 0.751574 0.619634 0.036128
vn -0.898190 -0.360483 0.251608
v 0.760851 0.522074 0.021387
vn 0.871618 -0.488421 -0.041556
v 0.808243 0.509708 -0.044719
vn 0.424583 0.385242 -0.819340
v 0.815113 0.634875 -0.084545
vn -0.961665 0.249951 -0.112803
v 0.754264 0.645061 -0.074133
vn 0.841766 -0.242360 0.482381
v 0.803363 0.530992 0.030809
vn -0.875584 -0.460705 -0.145268
v 0.752546 0.514525 -0.056236
vn -0.249013 0.940488 0.231247
v 0.762283 0.649694 -0.005917
vn 0.644630 -0.285568 -0.709157
v 0.804560 0.553653 -0.091048
vn -0.450900 0.168807 -0.876466
v 0.759344 0.613094 -0.093359
vn 0.965388 0.260664 -0.008941
v 0.808702 0.655416 -0.047882
# 14 vertices, 0 vertices normals


usemtl material_0
f 12//12 7//7 14//14
f 2//2 3//3 4//4
f 5//5 4//4 8//8
f 2//2 4//4 9//9
f 4//4 5//5 9//9
f 5//5 6//6 9//9
f 6//6 5//5 10//10
f 5//5 8//8 10//10
f 4//4 3//3 11//11
f 8//8 4//4 11//11
f 6//6 10//10 12//12
f 10//10 1//1 12//12
f 8//8 7//7 13//13
f 1//1 10//10 13//13
f 10//10 8//8 13//13
f 7//7 12//12 13//13
f 12//12 1//1 13//13
f 3//3 2//2 14//14
f 7//7 8//8 14//14
f 2//2 9//9 14//14
f 9//9 6//6 14//14
f 11//11 3//3 14//14
f 8//8 11//11 14//14
f 6//6 12//12 14//14
# 24 faces, 0 coords texture

# End of File
