####
#
# OBJ File Generated by Meshlab
#
####
# Object 102352_link_0_6.obj
#
# Vertices: 20
# Faces: 36
#
####
mtllib ./102352_link_0_6.obj.mtl

vn -0.809305 -0.075224 -0.582552
v -0.375167 -0.040290 0.511406
vn 0.943676 -0.200397 0.263280
v -0.243674 -0.054207 0.672484
vn -0.176695 0.231204 0.956725
v -0.277199 -0.050628 0.699693
vn 0.146946 0.983937 0.101368
v -0.368875 0.052732 0.573452
vn 0.855846 0.199557 -0.477184
v -0.229366 -0.034077 0.544658
vn -0.702257 -0.687977 0.183094
v -0.396101 -0.089614 0.600007
vn 0.568610 -0.822470 0.015023
v -0.250167 -0.126235 0.602158
vn -0.708347 0.547828 0.445116
v -0.387597 -0.007682 0.638759
vn 0.440772 0.778101 0.447526
v -0.242886 0.007281 0.626623
vn -0.233978 -0.674067 0.700633
v -0.272144 -0.096652 0.681137
vn 0.231047 -0.407744 -0.883381
v -0.240329 -0.082502 0.542368
vn -0.189035 -0.814142 -0.549033
v -0.386248 -0.087956 0.546580
vn 0.202274 0.278354 -0.938938
v -0.368726 -0.002448 0.512412
vn 0.420988 0.811195 -0.405871
v -0.238288 0.015668 0.569756
vn -0.539754 -0.331932 0.773619
v -0.396170 -0.046632 0.640072
vn 0.044569 -0.931394 0.361275
v -0.257923 -0.124653 0.632355
vn -0.483108 0.700506 0.525260
v -0.380801 0.034175 0.596713
vn -0.055502 0.649886 -0.758002
v -0.369337 0.034146 0.549157
vn 0.316557 0.698512 0.641773
v -0.241704 -0.028924 0.664270
vn 0.013207 -0.808092 -0.588908
v -0.245342 -0.122807 0.582190
# 20 vertices, 0 vertices normals


usemtl material_0
f 12//12 11//11 20//20
f 5//5 2//2 7//7
f 1//1 6//6 8//8
f 2//2 3//3 10//10
f 5//5 7//7 11//11
f 6//6 1//1 12//12
f 7//7 6//6 12//12
f 1//1 11//11 12//12
f 11//11 1//1 13//13
f 5//5 11//11 13//13
f 4//4 9//9 14//14
f 9//9 5//5 14//14
f 3//3 8//8 15//15
f 8//8 6//6 15//15
f 10//10 3//3 15//15
f 6//6 10//10 15//15
f 6//6 7//7 16//16
f 7//7 2//2 16//16
f 2//2 10//10 16//16
f 10//10 6//6 16//16
f 1//1 8//8 17//17
f 9//9 4//4 17//17
f 13//13 1//1 18//18
f 5//5 13//13 18//18
f 4//4 14//14 18//18
f 14//14 5//5 18//18
f 1//1 17//17 18//18
f 17//17 4//4 18//18
f 3//3 2//2 19//19
f 2//2 5//5 19//19
f 8//8 3//3 19//19
f 5//5 9//9 19//19
f 17//17 8//8 19//19
f 9//9 17//17 19//19
f 11//11 7//7 20//20
f 7//7 12//12 20//20
# 36 faces, 0 coords texture

# End of File
