####
#
# OBJ File Generated by Meshlab
#
####
# Object 102352_link_0_5.obj
#
# Vertices: 25
# Faces: 46
#
####
mtllib ./102352_link_0_5.obj.mtl

vn 0.378651 -0.086784 -0.921462
v -0.457706 0.052239 0.401136
vn 0.867400 -0.154615 0.472981
v -0.340818 -0.023893 0.639407
vn 0.508071 0.636037 0.580793
v -0.336274 -0.002727 0.635804
vn -0.952381 0.154377 0.262942
v -0.554409 0.085137 0.544894
vn -0.340828 -0.881402 -0.327059
v -0.408693 -0.106984 0.542661
vn 0.584837 0.786607 -0.198029
v -0.318395 0.044167 0.557221
vn 0.211115 0.954675 0.209823
v -0.524838 0.141518 0.481738
vn -0.898712 -0.357269 -0.254313
v -0.555233 0.000322 0.463242
vn 0.418563 -0.639431 -0.644928
v -0.329304 -0.053988 0.511652
vn -0.627664 -0.418085 0.656691
v -0.425824 -0.045188 0.642256
vn -0.745974 -0.609992 0.267269
v -0.561617 0.003311 0.501697
vn 0.220485 0.718797 -0.659330
v -0.521022 0.095598 0.418782
vn 0.754138 -0.585351 0.297725
v -0.345164 -0.086913 0.594283
vn 0.772875 0.400868 -0.491904
v -0.313161 -0.008373 0.511488
vn -0.567488 -0.386480 -0.727042
v -0.533441 0.049621 0.415507
vn 0.534963 0.647841 -0.542326
v -0.516895 0.134776 0.450069
vn 0.373078 0.753343 0.541560
v -0.328867 0.033150 0.601694
vn -0.441682 -0.812309 0.380882
v -0.415932 -0.100956 0.595107
vn -0.696284 -0.165159 0.698506
v -0.561462 0.045627 0.544046
vn 0.196055 -0.759161 -0.620675
v -0.349705 -0.101106 0.552135
vn -0.258659 0.878820 0.400962
v -0.542393 0.131152 0.502459
vn -0.301119 0.232662 0.924768
v -0.405605 -0.002163 0.655920
vn 0.147940 -0.549105 0.822556
v -0.365711 -0.064001 0.649711
vn 0.050296 0.775729 0.629059
v -0.526941 0.101733 0.568877
vn 0.033808 -0.628228 -0.777295
v -0.546658 0.007149 0.448231
# 25 vertices, 0 vertices normals


usemtl material_0
f 9//9 20//20 25//25
f 3//3 2//2 9//9
f 4//4 8//8 11//11
f 8//8 5//5 11//11
f 9//9 2//2 13//13
f 3//3 9//9 14//14
f 9//9 1//1 14//14
f 1//1 12//12 14//14
f 8//8 4//4 15//15
f 1//1 9//9 15//15
f 12//12 1//1 15//15
f 7//7 6//6 16//16
f 12//12 7//7 16//16
f 6//6 14//14 16//16
f 14//14 12//12 16//16
f 6//6 7//7 17//17
f 3//3 14//14 17//17
f 14//14 6//6 17//17
f 11//11 5//5 18//18
f 10//10 11//11 18//18
f 4//4 11//11 19//19
f 11//11 10//10 19//19
f 9//9 13//13 20//20
f 18//18 5//5 20//20
f 13//13 18//18 20//20
f 7//7 12//12 21//21
f 15//15 4//4 21//21
f 12//12 15//15 21//21
f 17//17 7//7 21//21
f 3//3 17//17 21//21
f 2//2 3//3 22//22
f 4//4 19//19 22//22
f 19//19 10//10 22//22
f 13//13 2//2 23//23
f 10//10 18//18 23//23
f 18//18 13//13 23//23
f 2//2 22//22 23//23
f 22//22 10//10 23//23
f 3//3 21//21 24//24
f 21//21 4//4 24//24
f 22//22 3//3 24//24
f 4//4 22//22 24//24
f 5//5 8//8 25//25
f 8//8 15//15 25//25
f 15//15 9//9 25//25
f 20//20 5//5 25//25
# 46 faces, 0 coords texture

# End of File
