####
#
# OBJ File Generated by Meshlab
#
####
# Object 102352_link_0_2.obj
#
# Vertices: 23
# Faces: 42
#
####
mtllib ./102352_link_0_2.obj.mtl

vn -0.711816 -0.505543 -0.487590
v -0.817894 0.450560 -0.002303
vn 0.296801 0.590266 0.750663
v -0.708476 0.451882 0.208649
vn -0.122479 0.621720 0.773604
v -0.770609 0.452131 0.214503
vn -0.214012 0.974343 0.069678
v -0.783894 0.595902 0.012324
vn 0.822368 -0.450389 -0.347650
v -0.664981 0.328115 0.150748
vn 0.867992 0.408343 -0.282570
v -0.715613 0.578122 0.003326
vn -0.123530 -0.365238 0.922682
v -0.787364 0.344127 0.192066
vn 0.341739 -0.557868 -0.756306
v -0.711002 0.469995 -0.019553
vn -0.974332 0.094783 0.204192
v -0.845834 0.554390 0.047867
vn 0.142282 -0.866755 -0.478007
v -0.743633 0.307958 0.166959
vn 0.802030 0.206214 0.560556
v -0.686828 0.425083 0.199370
vn -0.788485 0.228146 0.571174
v -0.796986 0.422580 0.200315
vn 0.279442 0.822235 0.495825
v -0.728884 0.616491 0.038789
vn -0.838820 -0.187858 -0.510970
v -0.815566 0.485227 -0.006622
vn -0.524286 -0.745364 -0.411773
v -0.795054 0.322005 0.132666
vn 0.927309 0.144103 0.345446
v -0.676627 0.367954 0.193956
vn 0.241044 -0.602464 -0.760878
v -0.736260 0.455497 -0.026749
vn 0.985122 0.147574 -0.088073
v -0.684196 0.493000 -0.003744
vn -0.073532 -0.407293 -0.910333
v -0.782253 0.455787 -0.024730
vn -0.978550 -0.203193 0.033963
v -0.823938 0.353456 0.163081
vn -0.902866 -0.087720 -0.420878
v -0.829531 0.525280 -0.002650
vn -0.497345 0.733903 0.462640
v -0.827534 0.586831 0.037592
vn 0.259871 -0.927481 -0.268786
v -0.701251 0.325026 0.173527
# 23 vertices, 0 vertices normals


usemtl material_0
f 10//10 17//17 23//23
f 3//3 2//2 4//4
f 2//2 3//3 7//7
f 6//6 2//2 11//11
f 2//2 7//7 11//11
f 7//7 3//3 12//12
f 4//4 2//2 13//13
f 2//2 6//6 13//13
f 6//6 4//4 13//13
f 10//10 7//7 15//15
f 14//14 1//1 15//15
f 6//6 11//11 16//16
f 11//11 7//7 16//16
f 6//6 8//8 17//17
f 5//5 8//8 18//18
f 8//8 6//6 18//18
f 16//16 5//5 18//18
f 6//6 16//16 18//18
f 4//4 6//6 19//19
f 1//1 14//14 19//19
f 14//14 4//4 19//19
f 15//15 1//1 19//19
f 10//10 15//15 19//19
f 6//6 17//17 19//19
f 17//17 10//10 19//19
f 7//7 12//12 20//20
f 12//12 9//9 20//20
f 15//15 7//7 20//20
f 14//14 15//15 20//20
f 4//4 14//14 21//21
f 20//20 9//9 21//21
f 14//14 20//20 21//21
f 3//3 4//4 22//22
f 12//12 3//3 22//22
f 9//9 12//12 22//22
f 4//4 21//21 22//22
f 21//21 9//9 22//22
f 8//8 5//5 23//23
f 7//7 10//10 23//23
f 5//5 16//16 23//23
f 16//16 7//7 23//23
f 17//17 8//8 23//23
# 42 faces, 0 coords texture

# End of File
