####
#
# OBJ File Generated by Meshlab
#
####
# Object 102352_link_0_14.obj
#
# Vertices: 23
# Faces: 42
#
####
mtllib ./102352_link_0_14.obj.mtl

vn 0.040125 -0.995470 0.086196
v -0.780577 0.472038 -0.035714
vn -0.396976 -0.874208 -0.279589
v -0.807939 0.491334 -0.049042
vn -0.582445 0.451696 0.675817
v -0.818162 0.614746 0.040119
vn 0.882676 -0.330445 0.334200
v -0.721517 0.514703 0.039397
vn 0.372555 -0.441324 -0.816356
v -0.712341 0.549025 -0.098467
vn -0.651071 0.362581 -0.666815
v -0.816178 0.603770 -0.105553
vn 0.160427 0.754833 0.635996
v -0.711159 0.639150 0.021488
vn -0.324179 -0.650938 0.686431
v -0.802575 0.512934 0.040530
vn -0.575353 0.796209 0.187138
v -0.816258 0.654069 -0.008477
vn 0.882384 0.122980 -0.454174
v -0.713427 0.604321 -0.104564
vn -0.891626 -0.253240 -0.375331
v -0.840138 0.541836 -0.079140
vn 0.522744 -0.697933 -0.489518
v -0.712366 0.508374 -0.054126
vn 0.879207 -0.205044 0.430061
v -0.706928 0.560602 0.054727
vn 0.165069 0.975486 -0.145532
v -0.711380 0.657592 -0.052368
vn -0.595853 0.668860 -0.444505
v -0.814412 0.645278 -0.078533
vn -0.005466 -0.755119 -0.655565
v -0.804304 0.518638 -0.099717
vn -0.994219 -0.021790 0.105132
v -0.846322 0.519860 -0.008888
vn -0.112088 0.037627 0.992986
v -0.792179 0.585902 0.080040
vn 0.182817 0.588137 0.787828
v -0.708980 0.603523 0.047663
vn 0.895064 0.437842 0.084591
v -0.712046 0.656261 -0.011770
vn 0.711809 -0.646963 0.273435
v -0.707631 0.499272 -0.004060
vn 0.097982 0.694572 -0.712720
v -0.710817 0.643198 -0.085151
vn -0.092013 -0.095307 -0.991186
v -0.805824 0.551025 -0.119834
# 23 vertices, 0 vertices normals


usemtl material_0
f 16//16 11//11 23//23
f 2//2 1//1 8//8
f 3//3 7//7 9//9
f 1//1 2//2 12//12
f 5//5 10//10 12//12
f 8//8 4//4 13//13
f 4//4 10//10 13//13
f 10//10 6//6 15//15
f 9//9 14//14 15//15
f 2//2 11//11 16//16
f 12//12 2//2 16//16
f 5//5 12//12 16//16
f 2//2 8//8 17//17
f 8//8 3//3 17//17
f 3//3 9//9 17//17
f 11//11 2//2 17//17
f 6//6 11//11 17//17
f 15//15 6//6 17//17
f 9//9 15//15 17//17
f 3//3 8//8 18//18
f 8//8 13//13 18//18
f 18//18 13//13 19//19
f 7//7 3//3 19//19
f 13//13 7//7 19//19
f 3//3 18//18 19//19
f 9//9 7//7 20//20
f 7//7 13//13 20//20
f 13//13 10//10 20//20
f 10//10 14//14 20//20
f 14//14 9//9 20//20
f 8//8 1//1 21//21
f 4//4 8//8 21//21
f 10//10 4//4 21//21
f 1//1 12//12 21//21
f 12//12 10//10 21//21
f 14//14 10//10 22//22
f 10//10 15//15 22//22
f 15//15 14//14 22//22
f 10//10 5//5 23//23
f 6//6 10//10 23//23
f 11//11 6//6 23//23
f 5//5 16//16 23//23
# 42 faces, 0 coords texture

# End of File
