# Blender v2.79 (sub 0) OBJ File: ''
# www.blender.org
mtllib 102692_link_3_33.mtl
o Shape_IndexedFaceSet.033_Shape_IndexedFaceSet.9554
v 0.470682 0.335194 -0.190104
v 0.286196 0.111175 -0.190104
v 0.286196 0.111175 -0.157157
v 0.286196 0.335194 -0.190104
v 0.468862 0.113385 -0.215883
v 0.424556 0.335194 -0.157157
v 0.424556 0.111175 -0.157157
v 0.431130 0.335194 -0.216468
v 0.294280 0.325377 -0.159756
v 0.470682 0.111175 -0.190104
v 0.431130 0.111175 -0.216468
v 0.468533 0.332584 -0.215777
v 0.450906 0.335194 -0.170348
vn 0.5811 -0.0204 0.8136
vn -1.0000 0.0000 0.0000
vn -0.0000 1.0000 0.0000
vn 0.0000 -1.0000 0.0000
vn 0.0000 0.0000 1.0000
vn -0.1790 0.0000 -0.9839
vn -0.9623 0.0396 0.2691
vn -0.0209 0.0129 0.9997
vn -0.0775 0.9424 0.3255
vn 0.9975 0.0000 -0.0704
vn 0.0155 0.0000 -0.9999
vn 0.0596 -0.9942 -0.0894
vn 0.9965 0.0015 -0.0836
vn 0.0712 0.9917 -0.1068
vn 0.0185 0.0005 -0.9998
vn 0.4476 0.0000 0.8942
vn 0.7067 0.0000 0.7075
usemtl Shape.9563
s off
f 7//1 10//1 13//1
f 2//2 3//2 4//2
f 1//3 4//3 6//3
f 3//4 2//4 7//4
f 6//5 3//5 7//5
f 2//6 4//6 8//6
f 4//3 1//3 8//3
f 4//7 3//7 9//7
f 3//8 6//8 9//8
f 6//9 4//9 9//9
f 5//10 1//10 10//10
f 7//4 2//4 10//4
f 2//6 8//6 11//6
f 8//11 5//11 11//11
f 5//12 10//12 11//12
f 10//4 2//4 11//4
f 1//13 5//13 12//13
f 8//14 1//14 12//14
f 5//15 8//15 12//15
f 1//3 6//3 13//3
f 6//16 7//16 13//16
f 10//17 1//17 13//17
