# Blender v2.79 (sub 0) OBJ File: ''
# www.blender.org
mtllib 102692_link_3_98.mtl
o Shape_IndexedFaceSet.098_Shape_IndexedFaceSet.9619
v 0.150340 -0.627837 -0.067387
v -0.068437 -0.652044 -0.151827
v -0.068889 -0.628114 -0.152134
v -0.146353 -0.653092 -0.045988
v 0.160667 -0.653272 -0.045223
v -0.144551 -0.627291 -0.046640
v 0.081911 -0.652247 -0.152693
v 0.082421 -0.627901 -0.153040
v 0.159661 -0.627044 -0.045587
vn -0.0008 1.0000 -0.0074
vn -0.8050 -0.0228 -0.5928
vn -0.8117 0.0420 -0.5825
vn -0.0014 -0.9999 -0.0109
vn 0.7917 -0.1857 -0.5820
vn -0.0006 -1.0000 -0.0091
vn -0.0060 -0.0129 -0.9999
vn -0.0015 1.0000 -0.0088
vn 0.7833 -0.0253 -0.6211
vn -0.0058 -0.0141 -0.9999
vn 0.9187 0.0298 -0.3939
vn -0.0025 0.0138 0.9999
vn -0.0035 0.0255 0.9997
vn 0.0968 0.9923 -0.0775
usemtl Shape.9628
s off
f 8//1 6//1 9//1
f 3//2 2//2 4//2
f 3//3 4//3 6//3
f 4//4 2//4 7//4
f 1//5 5//5 7//5
f 5//6 4//6 7//6
f 2//7 3//7 8//7
f 3//8 6//8 8//8
f 1//9 7//9 8//9
f 7//10 2//10 8//10
f 5//11 1//11 9//11
f 4//12 5//12 9//12
f 6//13 4//13 9//13
f 1//14 8//14 9//14
