# Blender v2.79 (sub 0) OBJ File: ''
# www.blender.org
mtllib 102692_link_3_41.mtl
o Shape_IndexedFaceSet.041_Shape_IndexedFaceSet.9562
v 0.174156 -0.712610 0.402971
v 0.312538 -0.785076 0.290991
v 0.187340 -0.692836 0.238275
v 0.220293 -0.692836 0.409589
v 0.259817 -0.804850 0.409589
v 0.272986 -0.804850 0.231674
v 0.233463 -0.692836 0.231674
v 0.292755 -0.778492 0.409589
v 0.213708 -0.745563 0.231674
v 0.305939 -0.771897 0.238275
v 0.167557 -0.692836 0.409589
v 0.286170 -0.811457 0.317340
v 0.305939 -0.771897 0.297574
vn 0.7371 0.6757 0.0000
vn 0.0000 1.0000 -0.0000
vn 0.0000 0.0000 1.0000
vn -0.8937 -0.4315 -0.1233
vn -0.7309 -0.6815 -0.0377
vn -0.7062 -0.7061 -0.0523
vn -0.1415 0.0530 -0.9885
vn 0.0000 0.0000 -1.0000
vn 0.7089 -0.6582 -0.2533
vn 0.1463 0.0516 -0.9879
vn -0.9533 -0.2813 -0.1101
vn -0.5116 -0.4213 0.7489
vn -0.3204 -0.9470 -0.0237
vn 0.6174 -0.7714 -0.1545
vn 0.7745 -0.6112 0.1631
vn 0.6083 -0.7602 0.2282
vn 0.7138 0.6984 0.0528
vn 0.9111 0.3911 0.1303
vn 0.7573 0.6406 0.1268
vn 0.8942 0.4477 0.0000
usemtl Shape.9571
s off
f 10//1 7//1 13//1
f 3//2 4//2 7//2
f 4//3 5//3 8//3
f 1//4 3//4 9//4
f 5//5 1//5 9//5
f 6//6 5//6 9//6
f 3//7 7//7 9//7
f 7//8 6//8 9//8
f 2//9 6//9 10//9
f 6//10 7//10 10//10
f 3//11 1//11 11//11
f 4//2 3//2 11//2
f 5//3 4//3 11//3
f 1//12 5//12 11//12
f 5//13 6//13 12//13
f 6//14 2//14 12//14
f 2//15 8//15 12//15
f 8//16 5//16 12//16
f 7//17 4//17 13//17
f 8//18 2//18 13//18
f 4//19 8//19 13//19
f 2//20 10//20 13//20
