# Blender v2.79 (sub 0) OBJ File: ''
# www.blender.org
mtllib 102692_link_1_2.mtl
o Shape_IndexedFaceSet.002_Shape_IndexedFaceSet.15852
v 0.011787 0.668670 -0.333561
v 0.011787 0.666381 -0.180259
v 0.011787 0.680114 -0.168818
v 0.460388 0.680114 -0.333561
v 0.459317 0.666192 -0.335919
v 0.011787 0.680114 -0.333561
v 0.419185 0.680114 -0.168818
v 0.426030 0.666381 -0.161964
v 0.011787 0.666381 -0.161964
v 0.467233 0.677824 -0.196287
v 0.469813 0.666441 -0.332810
v 0.469642 0.666446 -0.194496
v 0.421481 0.675535 -0.164249
v 0.462640 0.680114 -0.198571
v 0.011787 0.675535 -0.164249
v 0.467233 0.677824 -0.333561
v 0.421481 0.670959 -0.161964
v 0.464937 0.666381 -0.184846
vn 0.4444 0.5872 0.6765
vn -1.0000 -0.0000 -0.0000
vn -0.0056 -0.9999 -0.0149
vn 0.0000 1.0000 0.0000
vn -0.0053 0.0000 -1.0000
vn 0.0000 0.1670 -0.9860
vn -0.0004 -1.0000 0.0000
vn 0.0000 -1.0000 0.0011
vn 0.9783 0.2073 0.0012
vn 0.0237 -0.9997 0.0001
vn 0.0000 0.7063 0.7079
vn 0.3584 0.7433 0.5649
vn 0.2572 0.8904 0.3756
vn 0.0544 0.1627 -0.9852
vn 0.2840 0.0011 -0.9588
vn 0.9753 0.2211 0.0000
vn 0.3173 0.9483 -0.0053
vn 0.4462 0.8949 0.0000
vn 0.0000 0.0000 1.0000
vn 0.4100 0.4075 0.8160
vn -0.0027 0.2422 0.9702
vn 0.0000 0.4467 0.8947
vn 0.0007 -1.0000 0.0012
vn 0.8694 0.2511 0.4256
vn 0.0152 -0.9999 0.0007
vn 0.4593 0.4232 0.7810
usemtl Shape.15859
s off
f 10//1 13//1 18//1
f 1//2 2//2 3//2
f 2//3 1//3 5//3
f 1//2 3//2 6//2
f 3//4 4//4 6//4
f 5//5 1//5 6//5
f 4//6 5//6 6//6
f 4//4 3//4 7//4
f 3//2 2//2 9//2
f 2//7 5//7 9//7
f 5//8 8//8 9//8
f 11//9 10//9 12//9
f 5//10 11//10 12//10
f 7//11 3//11 13//11
f 10//12 7//12 13//12
f 4//4 7//4 14//4
f 7//13 10//13 14//13
f 3//2 9//2 15//2
f 13//11 3//11 15//11
f 5//14 4//14 16//14
f 11//15 5//15 16//15
f 10//16 11//16 16//16
f 4//17 14//17 16//17
f 14//18 10//18 16//18
f 9//19 8//19 17//19
f 8//20 13//20 17//20
f 15//21 9//21 17//21
f 13//22 15//22 17//22
f 8//23 5//23 18//23
f 12//24 10//24 18//24
f 5//25 12//25 18//25
f 13//26 8//26 18//26
