# Blender v2.79 (sub 0) OBJ File: ''
# www.blender.org
mtllib 102692_link_3_143.mtl
o Shape_IndexedFaceSet.143_Shape_IndexedFaceSet.9664
v -0.027638 -0.628747 0.573476
v -0.186803 -0.653149 0.351783
v -0.177556 -0.652246 0.391361
v 0.089712 -0.654059 0.516713
v -0.135570 -0.626935 0.350278
v -0.074102 -0.652054 0.583840
v 0.085063 -0.626625 0.495445
v -0.143335 -0.628483 0.453396
v 0.077620 -0.652879 0.590644
v -0.142155 -0.653295 0.350278
v 0.015284 -0.628201 0.583634
v -0.076273 -0.646705 0.594076
v -0.010391 -0.646705 0.620471
v -0.181695 -0.633525 0.383233
vn -0.8472 0.2946 0.4420
vn -0.0716 -0.9967 0.0395
vn -0.0086 -0.9999 0.0089
vn -0.0061 -0.9999 0.0150
vn 0.9488 0.2776 0.1507
vn -0.0033 -1.0000 -0.0000
vn -0.0337 0.0084 -0.9994
vn 0.5138 -0.4695 -0.7180
vn 0.5447 -0.1361 -0.8275
vn -0.0087 0.9999 0.0110
vn -0.0171 0.9997 0.0187
vn -0.0133 0.9998 0.0140
vn 0.3270 0.9041 0.2749
vn -0.5459 -0.7845 0.2942
vn -0.2457 0.9395 0.2388
vn -0.1616 0.9006 0.4035
vn -0.0128 -0.9860 0.1663
vn -0.1035 0.9159 0.3879
vn 0.2473 0.7857 0.5670
vn -0.1713 -0.8876 0.4275
vn -0.9668 -0.1145 0.2285
vn -0.4212 0.7986 -0.4299
vn -0.1383 0.9904 0.0045
vn -0.8945 -0.0037 0.4470
usemtl Shape.9673
s off
f 12//1 8//1 14//1
f 3//2 2//2 6//2
f 2//3 4//3 6//3
f 6//4 4//4 9//4
f 4//5 7//5 9//5
f 4//6 2//6 10//6
f 2//7 5//7 10//7
f 7//8 4//8 10//8
f 5//9 7//9 10//9
f 7//10 5//10 11//10
f 8//11 1//11 11//11
f 5//12 8//12 11//12
f 9//13 7//13 11//13
f 3//14 6//14 12//14
f 1//15 8//15 12//15
f 1//16 12//16 13//16
f 6//17 9//17 13//17
f 11//18 1//18 13//18
f 9//19 11//19 13//19
f 12//20 6//20 13//20
f 2//21 3//21 14//21
f 5//22 2//22 14//22
f 8//23 5//23 14//23
f 3//24 12//24 14//24
