# Blender v2.79 (sub 0) OBJ File: ''
# www.blender.org
mtllib 102692_link_3_135.mtl
o Shape_IndexedFaceSet.135_Shape_IndexedFaceSet.9656
v -0.181725 -0.139270 0.297558
v -0.208084 -0.119486 0.297558
v -0.201492 -0.000892 0.297558
v -0.251394 -0.016550 0.512491
v -0.175127 -0.126065 0.495232
v -0.244772 0.012667 0.305559
v -0.181725 -0.014081 0.501830
v -0.234428 -0.093123 0.363482
v -0.175127 -0.086528 0.297558
v -0.249725 -0.018370 0.291600
v -0.214661 -0.093123 0.501830
v -0.244756 0.012633 0.493785
v -0.194908 0.012282 0.501830
v -0.241019 -0.079949 0.317353
v -0.181725 -0.139270 0.376659
v -0.175127 -0.060197 0.501830
vn 0.0827 -0.0993 0.9916
vn 0.9920 -0.1241 -0.0248
vn 0.9532 0.2935 -0.0733
vn -0.0637 -0.0848 -0.9944
vn -0.0381 0.4149 -0.9091
vn -0.9868 0.1614 -0.0088
vn 0.0715 -0.0089 -0.9974
vn 0.1104 0.0340 -0.9933
vn -0.8873 -0.4433 0.1268
vn -0.9751 0.2219 0.0001
vn 0.0070 1.0000 0.0002
vn 0.2863 0.9555 -0.0709
vn 0.8929 0.4465 -0.0576
vn 0.1483 0.0741 0.9862
vn -0.1286 0.5557 0.8213
vn -0.7825 -0.6193 -0.0651
vn -0.9510 -0.3054 0.0487
vn -0.7507 -0.3424 -0.5650
vn -0.9898 -0.1426 -0.0063
vn -0.6003 -0.7998 0.0000
vn 0.8945 -0.4470 0.0000
vn -0.6632 -0.7477 0.0340
vn -0.6235 -0.7724 0.1207
vn -0.6692 -0.7369 0.0956
vn 0.1505 0.0215 0.9884
vn 1.0000 0.0000 0.0000
vn 0.9898 0.1416 -0.0183
vn 0.0822 -0.0987 0.9917
usemtl Shape.9665
s off
f 11//1 5//1 16//1
f 5//2 1//2 9//2
f 3//3 7//3 9//3
f 1//4 2//4 10//4
f 6//5 3//5 10//5
f 4//6 6//6 10//6
f 9//7 1//7 10//7
f 3//8 9//8 10//8
f 4//9 8//9 11//9
f 6//10 4//10 12//10
f 6//11 12//11 13//11
f 3//12 6//12 13//12
f 7//13 3//13 13//13
f 4//14 7//14 13//14
f 12//15 4//15 13//15
f 2//16 8//16 14//16
f 8//17 4//17 14//17
f 10//18 2//18 14//18
f 4//19 10//19 14//19
f 2//20 1//20 15//20
f 1//21 5//21 15//21
f 8//22 2//22 15//22
f 5//23 11//23 15//23
f 11//24 8//24 15//24
f 7//25 4//25 16//25
f 5//26 9//26 16//26
f 9//27 7//27 16//27
f 4//28 11//28 16//28
