# Blender v2.79 (sub 0) OBJ File: ''
# www.blender.org
mtllib 102692_link_3_57.mtl
o Shape_IndexedFaceSet.057_Shape_IndexedFaceSet.9578
v -0.413526 0.499268 -0.167714
v -0.450361 0.437804 -0.450128
v -0.405754 0.433979 -0.460479
v -0.405748 0.546189 -0.460517
v -0.458494 0.546087 -0.196738
v -0.458494 0.434067 -0.196738
v -0.396268 0.428538 -0.192922
v -0.458494 0.546087 -0.447067
v -0.396268 0.551616 -0.192922
v -0.458494 0.434067 -0.447067
v -0.400372 0.436290 -0.163173
v -0.400318 0.543967 -0.162894
vn 0.9906 -0.0009 0.1369
vn -0.2261 -0.0003 -0.9741
vn -0.5423 0.0000 0.8402
vn 0.9994 -0.0001 -0.0354
vn -0.2471 0.0088 -0.9690
vn -1.0000 0.0000 0.0000
vn 0.9994 0.0000 -0.0354
vn -0.0070 0.9998 -0.0200
vn -0.0885 0.9961 0.0000
vn -0.2391 -0.2485 -0.9387
vn -0.0068 -0.9998 -0.0201
vn -0.0885 -0.9961 0.0000
vn -0.3522 0.0000 -0.9359
vn -0.4985 -0.0417 0.8659
vn -0.1004 -0.9661 0.2379
vn -0.5006 0.0548 0.8639
vn -0.1002 0.9673 0.2329
vn 0.9910 0.0000 0.1337
vn -0.3360 -0.0023 0.9419
usemtl Shape.9587
s off
f 11//1 7//1 12//1
f 3//2 2//2 4//2
f 1//3 5//3 6//3
f 3//4 4//4 7//4
f 4//5 2//5 8//5
f 6//6 5//6 8//6
f 7//7 4//7 9//7
f 4//8 8//8 9//8
f 8//9 5//9 9//9
f 2//10 3//10 10//10
f 3//11 7//11 10//11
f 7//12 6//12 10//12
f 8//13 2//13 10//13
f 6//6 8//6 10//6
f 1//14 6//14 11//14
f 6//15 7//15 11//15
f 5//16 1//16 12//16
f 9//17 5//17 12//17
f 7//18 9//18 12//18
f 1//19 11//19 12//19
