# Blender v2.79 (sub 0) OBJ File: ''
# www.blender.org
mtllib 102692_link_3_43.mtl
o Shape_IndexedFaceSet.043_Shape_IndexedFaceSet.9564
v -0.003785 -0.811457 0.692947
v -0.069686 -0.804850 0.666586
v 0.038321 -0.689949 0.605222
v -0.069686 -0.692836 0.659988
v -0.070610 -0.691795 0.579717
v 0.035755 -0.791683 0.666586
v -0.003785 -0.785076 0.719322
v 0.035755 -0.692836 0.679766
v -0.069686 -0.804850 0.692947
v 0.029160 -0.804850 0.712725
v -0.016965 -0.712610 0.692947
v -0.063091 -0.771897 0.699544
v -0.063091 -0.699443 0.580931
vn 0.0789 -0.6316 -0.7712
vn -0.0200 0.9997 0.0132
vn 0.1082 -0.8663 -0.4876
vn -0.0072 0.9992 0.0385
vn 0.9994 -0.0046 0.0342
vn -0.0998 -0.9950 0.0000
vn -1.0000 -0.0082 0.0000
vn -0.9999 0.0034 0.0116
vn -0.1642 -0.5474 0.8206
vn 0.3162 -0.9232 -0.2183
vn 0.9905 -0.0182 0.1364
vn 0.3313 0.2483 0.9103
vn -0.0893 -0.8905 0.4462
vn 0.0987 0.3562 0.9292
vn -0.1212 0.7537 0.6460
vn -0.9213 0.1097 0.3729
vn -0.3379 -0.1193 0.9336
vn -0.2435 0.2923 0.9248
vn -0.3793 0.3885 0.8398
vn -0.4433 -0.5484 -0.7090
vn 0.2263 0.0683 -0.9717
vn 0.2455 -0.5052 -0.8273
usemtl Shape.9573
s off
f 6//1 2//1 13//1
f 4//2 3//2 5//2
f 1//3 2//3 6//3
f 3//4 4//4 8//4
f 6//5 3//5 8//5
f 2//6 1//6 9//6
f 5//7 2//7 9//7
f 4//8 5//8 9//8
f 7//9 9//9 10//9
f 1//10 6//10 10//10
f 6//11 8//11 10//11
f 8//12 7//12 10//12
f 9//13 1//13 10//13
f 7//14 8//14 11//14
f 8//15 4//15 11//15
f 4//16 9//16 12//16
f 9//17 7//17 12//17
f 7//18 11//18 12//18
f 11//19 4//19 12//19
f 2//20 5//20 13//20
f 5//21 3//21 13//21
f 3//22 6//22 13//22
