# Blender v2.79 (sub 0) OBJ File: ''
# www.blender.org
mtllib 102692_link_3_108.mtl
o Shape_IndexedFaceSet.108_Shape_IndexedFaceSet.9629
v -0.135570 -0.007468 -0.157146
v -0.049925 0.018883 -0.038536
v -0.148757 0.018883 -0.038536
v -0.149905 -0.041184 -0.077633
v -0.048285 0.026576 -0.159114
v -0.049925 -0.020647 -0.157146
v -0.049925 -0.020647 -0.038536
v -0.096056 -0.040419 -0.157146
v -0.109477 0.026359 -0.158724
v -0.148757 -0.020647 -0.038536
v -0.148757 0.012297 -0.117601
v -0.135570 -0.040419 -0.157146
vn -0.9486 0.0000 -0.3163
vn -0.0000 0.9980 0.0637
vn 0.0000 0.0000 1.0000
vn 0.9999 0.0000 0.0136
vn 0.9994 -0.0347 0.0000
vn 0.3939 -0.9191 0.0000
vn 0.0181 -0.0423 -0.9989
vn 0.1623 -0.9816 0.1005
vn -0.0032 0.9981 0.0611
vn -0.9996 0.0000 0.0294
vn -0.0000 -0.8853 0.4650
vn -0.9998 0.0202 -0.0017
vn -0.7003 0.5172 -0.4920
vn -0.4055 0.9109 -0.0759
vn 0.0000 -1.0000 -0.0096
vn 0.0000 -0.0294 -0.9996
vn -0.0063 -0.0212 -0.9998
vn -0.0604 0.0000 -0.9982
vn -0.9778 -0.1116 -0.1774
usemtl Shape.9638
s off
f 11//1 1//1 12//1
f 3//2 2//2 5//2
f 2//3 3//3 7//3
f 5//4 2//4 7//4
f 6//5 5//5 7//5
f 6//6 7//6 8//6
f 5//7 6//7 8//7
f 7//8 4//8 8//8
f 3//9 5//9 9//9
f 3//10 4//10 10//10
f 7//3 3//3 10//3
f 4//11 7//11 10//11
f 4//12 3//12 11//12
f 9//13 1//13 11//13
f 3//14 9//14 11//14
f 8//15 4//15 12//15
f 5//16 8//16 12//16
f 9//17 5//17 12//17
f 1//18 9//18 12//18
f 4//19 11//19 12//19
