# Blender v2.79 (sub 0) OBJ File: ''
# www.blender.org
mtllib 102692_link_3_44.mtl
o Shape_IndexedFaceSet.044_Shape_IndexedFaceSet.9565
v 0.200501 -0.765325 0.607307
v 0.088490 -0.699443 0.567751
v 0.035755 -0.804850 0.673170
v 0.048954 -0.699443 0.679767
v 0.207080 -0.811457 0.567751
v 0.128027 -0.798267 0.686364
v 0.160964 -0.692836 0.567751
v 0.035755 -0.692836 0.607307
v 0.035755 -0.804850 0.706142
v 0.114848 -0.699443 0.646808
v 0.233458 -0.798267 0.574348
v 0.035755 -0.692836 0.673170
v 0.121428 -0.771897 0.686364
v 0.187303 -0.804850 0.567751
v 0.174124 -0.811457 0.633668
v 0.048954 -0.765325 0.706142
vn 0.2759 0.3572 0.8923
vn 0.0000 0.0000 -1.0000
vn -0.5790 -0.4133 -0.7028
vn -0.0873 0.9571 -0.2762
vn -1.0000 -0.0000 0.0000
vn 0.6662 0.6029 0.4390
vn 0.7275 0.0427 0.6848
vn 0.7943 0.5608 0.2338
vn 0.2043 0.0794 -0.9757
vn 0.0000 1.0000 0.0000
vn 0.2185 0.8726 0.4368
vn 0.1352 0.9777 0.1606
vn 0.6892 0.1725 0.7037
vn 0.3954 0.4675 0.7906
vn 0.6251 0.4170 0.6599
vn -0.5034 -0.4720 -0.7237
vn -0.2884 -0.8631 -0.4145
vn -0.0556 -0.9981 -0.0278
vn -0.0477 -0.9989 0.0000
vn 0.1421 -0.9238 0.3555
vn 0.7150 -0.1898 0.6729
vn 0.3980 -0.8955 0.1990
vn 0.2139 -0.0714 0.9742
vn -0.2678 0.3581 0.8945
vn -0.6457 0.2156 0.7325
vn 0.2683 0.0672 0.9610
usemtl Shape.9574
s off
f 13//1 4//1 16//1
f 5//2 2//2 7//2
f 2//3 3//3 8//3
f 7//4 2//4 8//4
f 8//5 3//5 9//5
f 1//6 7//6 10//6
f 1//7 6//7 11//7
f 7//8 1//8 11//8
f 5//9 7//9 11//9
f 7//10 8//10 12//10
f 8//5 9//5 12//5
f 4//11 10//11 12//11
f 10//12 7//12 12//12
f 6//13 1//13 13//13
f 10//14 4//14 13//14
f 1//15 10//15 13//15
f 3//16 2//16 14//16
f 5//17 3//17 14//17
f 2//2 5//2 14//2
f 3//18 5//18 15//18
f 9//19 3//19 15//19
f 6//20 9//20 15//20
f 11//21 6//21 15//21
f 5//22 11//22 15//22
f 9//23 6//23 16//23
f 4//24 12//24 16//24
f 12//25 9//25 16//25
f 6//26 13//26 16//26
