# Blender v2.79 (sub 0) OBJ File: ''
# www.blender.org
mtllib 102692_link_3_137.mtl
o Shape_IndexedFaceSet.137_Shape_IndexedFaceSet.9658
v -0.069678 -0.205158 0.752286
v 0.042345 -0.139276 0.824741
v 0.022564 -0.139276 0.831339
v -0.082866 -0.139276 0.745701
v 0.042345 -0.198572 0.706167
v 0.042345 -0.205158 0.765440
v -0.082866 -0.205158 0.686386
v -0.082866 -0.145868 0.804974
v 0.042345 -0.139276 0.765440
v -0.010394 -0.145868 0.831339
vn -0.1726 0.8631 0.4745
vn 0.0000 1.0000 0.0000
vn 1.0000 0.0000 0.0000
vn 0.2406 -0.6494 0.7214
vn 0.0819 0.6668 -0.7407
vn 0.0696 -0.9915 -0.1102
vn 0.0000 -1.0000 0.0000
vn -0.0894 0.9899 0.1101
vn -0.9128 -0.3654 0.1827
vn -1.0000 0.0000 0.0000
vn 0.1108 0.7026 -0.7029
vn -0.0744 -0.7702 0.6334
vn 0.1360 -0.6799 0.7206
vn -0.2527 -0.6735 0.6946
usemtl Shape.9667
s off
f 3//1 8//1 10//1
f 3//2 2//2 4//2
f 5//3 2//3 6//3
f 2//4 3//4 6//4
f 4//5 5//5 7//5
f 5//6 6//6 7//6
f 6//7 1//7 7//7
f 3//8 4//8 8//8
f 7//9 1//9 8//9
f 4//10 7//10 8//10
f 4//2 2//2 9//2
f 5//11 4//11 9//11
f 2//3 5//3 9//3
f 1//12 6//12 10//12
f 6//13 3//13 10//13
f 8//14 1//14 10//14
