# Blender v2.79 (sub 0) OBJ File: ''
# www.blender.org
mtllib 102692_link_1_8.mtl
o Shape_IndexedFaceSet.008_Shape_IndexedFaceSet.15858
v -0.409372 0.666387 -0.486952
v -0.462307 0.589022 -0.447247
v -0.459722 0.664076 -0.457198
v -0.441576 0.667871 -0.445024
v -0.423113 0.581693 -0.486949
v -0.439124 0.652644 -0.486949
v -0.450566 0.590861 -0.445749
v -0.457432 0.586277 -0.468632
v -0.406458 0.668329 -0.484069
v -0.439124 0.586277 -0.486949
v -0.459722 0.648060 -0.466349
v -0.462247 0.648386 -0.447292
v -0.432269 0.666381 -0.486949
v -0.420828 0.586277 -0.484654
v -0.455147 0.581693 -0.445749
v -0.462013 0.590861 -0.464066
v -0.456944 0.665378 -0.446237
vn -0.1995 0.0014 0.9799
vn 0.7374 -0.1197 -0.6647
vn 0.7408 -0.0927 0.6652
vn -0.0000 -0.0000 -1.0000
vn -0.0001 0.0000 -1.0000
vn -0.2654 -0.9269 -0.2653
vn -0.9883 0.0756 -0.1322
vn -0.0001 0.0001 -1.0000
vn -0.0003 0.8295 -0.5585
vn -0.0695 0.9963 -0.0508
vn -0.7009 0.3539 -0.6193
vn -0.7003 0.3495 -0.6225
vn 0.8281 -0.1412 -0.5425
vn 0.7785 -0.1407 0.6117
vn 0.0246 -0.0123 0.9996
vn -0.7063 -0.7044 -0.0706
vn -0.2193 -0.9606 -0.1705
vn -0.2039 0.0009 0.9790
vn 0.6465 -0.5739 0.5027
vn 0.7203 -0.3599 0.5930
vn -0.7459 -0.6605 -0.0853
vn -0.7070 0.0000 -0.7072
vn -0.7073 -0.0027 -0.7069
vn -0.7072 0.0001 -0.7071
vn -0.9998 0.0010 -0.0174
vn -0.9907 0.0344 -0.1319
vn -0.9380 0.2800 0.2045
vn -0.1641 0.9836 -0.0752
vn -0.1544 0.9856 -0.0693
vn -0.0793 0.0041 0.9968
usemtl Shape.15865
s off
f 12//1 15//1 17//1
f 5//2 1//2 9//2
f 4//3 7//3 9//3
f 1//4 5//4 10//4
f 6//5 1//5 10//5
f 5//6 8//6 10//6
f 3//7 11//7 12//7
f 1//8 6//8 13//8
f 9//9 1//9 13//9
f 4//10 9//10 13//10
f 11//11 3//11 13//11
f 6//12 11//12 13//12
f 5//13 9//13 14//13
f 9//14 7//14 14//14
f 7//15 4//15 15//15
f 2//16 8//16 15//16
f 8//17 5//17 15//17
f 12//18 2//18 15//18
f 5//19 14//19 15//19
f 14//20 7//20 15//20
f 8//21 2//21 16//21
f 6//22 10//22 16//22
f 10//23 8//23 16//23
f 11//24 6//24 16//24
f 2//25 12//25 16//25
f 12//26 11//26 16//26
f 3//27 12//27 17//27
f 13//28 3//28 17//28
f 4//29 13//29 17//29
f 15//30 4//30 17//30
