# Blender v2.79 (sub 0) OBJ File: ''
# www.blender.org
mtllib 102692_link_0_0.mtl
o Shape_IndexedFaceSet_Shape_IndexedFaceSet.1738
v -0.267816 0.493133 -0.174485
v -0.269335 0.485922 -0.148650
v -0.270096 0.485922 -0.148650
v -0.268196 0.470339 -0.173345
v -0.266676 0.473763 -0.151693
v -0.267056 0.502636 -0.152454
v -0.269715 0.502636 -0.172965
v -0.270096 0.470725 -0.172965
v -0.266676 0.502636 -0.173345
v -0.270096 0.502636 -0.150173
v -0.270096 0.471101 -0.150173
v -0.267056 0.471101 -0.172586
v -0.267436 0.471860 -0.149791
v -0.267436 0.495412 -0.149791
v -0.270096 0.472622 -0.174104
v -0.266676 0.499971 -0.162325
v -0.267816 0.471483 -0.174104
v -0.268956 0.502636 -0.174104
v -0.267056 0.484401 -0.149412
v -0.268576 0.497315 -0.149035
v -0.266676 0.496553 -0.173345
v -0.268576 0.471860 -0.149035
v -0.267816 0.471101 -0.150173
v -0.266676 0.472622 -0.153592
v -0.268196 0.479083 -0.148650
v -0.267436 0.470339 -0.170305
v -0.269335 0.470339 -0.167644
v -0.270096 0.477939 -0.148650
v -0.268576 0.502636 -0.150173
v -0.270096 0.498074 -0.149035
v -0.270096 0.502636 -0.151690
v -0.267056 0.471483 -0.152831
v -0.268956 0.487436 -0.174488
vn -0.5537 0.0210 -0.8325
vn 0.0000 1.0000 0.0000
vn -1.0000 0.0000 0.0000
vn -0.2661 -0.4962 -0.8264
vn 0.9993 0.0141 0.0347
vn 1.0000 0.0000 0.0000
vn 0.9970 0.0750 0.0181
vn 0.6855 -0.5467 -0.4808
vn -0.2399 -0.4801 -0.8438
vn 0.3149 0.0757 -0.9461
vn 0.0000 1.0000 -0.0001
vn -0.8317 0.0316 -0.5543
vn 0.9955 0.0156 0.0933
vn 0.9407 -0.0387 0.3371
vn 0.9668 0.0420 0.2520
vn 0.6067 0.0483 0.7934
vn 0.7071 0.0000 -0.7071
vn 0.7250 -0.0121 -0.6886
vn 0.8911 -0.0268 -0.4529
vn 0.0000 -0.8319 0.5549
vn 0.4536 -0.5713 0.6840
vn 0.9997 -0.0155 -0.0188
vn 0.0000 0.0000 1.0000
vn 0.6853 -0.0427 0.7270
vn 0.4607 0.0283 0.8871
vn 0.1434 0.0239 0.9894
vn 0.5512 -0.0733 0.8312
vn 0.6181 -0.7708 -0.1545
vn -0.2068 -0.9775 -0.0413
vn -0.5285 -0.8488 0.0140
vn 0.0000 -0.9991 0.0436
vn 0.0000 -1.0000 0.0000
vn 0.0544 -0.9978 0.0388
vn -0.5283 -0.1846 0.8288
vn 0.0331 -0.0549 0.9979
vn 0.8216 0.1586 0.5475
vn 0.7063 0.1481 0.6923
vn 0.1039 0.2080 0.9726
vn 0.0000 0.0317 0.9995
vn 0.0163 0.0327 0.9993
vn 0.0000 0.2420 0.9703
vn -0.9998 0.0134 -0.0179
vn 0.9606 -0.2345 0.1492
vn 0.8448 -0.5078 0.1686
vn 0.9635 -0.2294 0.1378
vn 0.9498 -0.3128 0.0060
vn 0.9045 -0.4264 0.0082
vn 0.5617 -0.8263 0.0419
vn 0.0902 -0.0175 -0.9958
vn -0.0125 -0.0250 -0.9996
vn -0.1226 0.0251 -0.9921
usemtl Shape.1767
s off
f 15//1 18//1 33//1
f 7//2 6//2 9//2
f 6//2 7//2 10//2
f 8//3 3//3 10//3
f 3//3 8//3 11//3
f 4//4 8//4 15//4
f 8//3 10//3 15//3
f 6//5 5//5 16//5
f 5//6 9//6 16//6
f 9//7 6//7 16//7
f 12//8 4//8 17//8
f 4//9 15//9 17//9
f 9//10 1//10 18//10
f 7//11 9//11 18//11
f 15//12 7//12 18//12
f 5//13 6//13 19//13
f 13//14 5//14 19//14
f 6//15 14//15 19//15
f 19//16 14//16 20//16
f 1//17 9//17 21//17
f 9//6 5//6 21//6
f 17//18 1//18 21//18
f 12//19 17//19 21//19
f 22//20 11//20 23//20
f 13//21 22//21 23//21
f 21//6 5//6 24//6
f 12//22 21//22 24//22
f 2//23 3//23 25//23
f 13//24 19//24 25//24
f 19//25 20//25 25//25
f 20//26 2//26 25//26
f 22//27 13//27 25//27
f 4//28 12//28 26//28
f 8//29 4//29 27//29
f 11//30 8//30 27//30
f 23//31 11//31 27//31
f 4//32 26//32 27//32
f 26//33 23//33 27//33
f 3//3 11//3 28//3
f 11//34 22//34 28//34
f 25//23 3//23 28//23
f 22//35 25//35 28//35
f 6//2 10//2 29//2
f 14//36 6//36 29//36
f 20//37 14//37 29//37
f 20//38 29//38 30//38
f 3//39 2//39 30//39
f 10//3 3//3 30//3
f 2//40 20//40 30//40
f 29//41 10//41 30//41
f 10//2 7//2 31//2
f 7//42 15//42 31//42
f 15//3 10//3 31//3
f 5//43 13//43 32//43
f 13//44 23//44 32//44
f 24//45 5//45 32//45
f 12//46 24//46 32//46
f 26//47 12//47 32//47
f 23//48 26//48 32//48
f 1//49 17//49 33//49
f 17//50 15//50 33//50
f 18//51 1//51 33//51
