# Blender v2.79 (sub 0) OBJ File: ''
# www.blender.org
mtllib 102692_link_3_63.mtl
o Shape_IndexedFaceSet.063_Shape_IndexedFaceSet.9584
v -0.159580 -0.595459 0.111690
v -0.227837 -0.297462 0.244837
v -0.267377 -0.297462 0.244837
v -0.161958 -0.607134 0.244837
v -0.208088 -0.297462 0.106473
v -0.194908 -0.607134 0.113056
v -0.247607 -0.323834 0.106473
v -0.201498 -0.593948 0.238227
v -0.161958 -0.580763 0.244837
v -0.155357 -0.580763 0.106473
v -0.201498 -0.607134 0.172357
v -0.267377 -0.304070 0.225048
v -0.221246 -0.297462 0.231644
v -0.254197 -0.297462 0.119639
v -0.221246 -0.475336 0.106473
vn -0.9743 -0.1695 -0.1481
vn 0.0000 0.0000 1.0000
vn 0.0000 1.0000 0.0000
vn 0.3101 -0.9475 -0.0775
vn -0.1849 -0.0630 0.9807
vn 0.9820 0.1828 0.0469
vn 0.9604 -0.2786 -0.0073
vn 0.0810 -0.3540 -0.9317
vn 0.0000 0.0000 -1.0000
vn 0.9989 0.0000 0.0477
vn 0.0000 -1.0000 0.0000
vn -0.3386 -0.9226 0.1847
vn -0.9746 -0.2195 0.0439
vn -0.9733 -0.2179 0.0728
vn 0.8758 0.2037 0.4375
vn 0.9727 0.2083 0.1023
vn -0.2539 0.3805 -0.8892
vn -0.9490 0.2992 -0.0999
vn -0.9763 -0.1710 -0.1328
vn -0.1164 -0.0727 -0.9905
vn -0.9738 -0.2000 -0.1082
vn -0.9759 -0.1951 -0.0978
usemtl Shape.9593
s off
f 14//1 7//1 15//1
f 2//2 3//2 4//2
f 3//3 2//3 5//3
f 1//4 4//4 6//4
f 4//5 3//5 8//5
f 2//2 4//2 9//2
f 5//6 9//6 10//6
f 4//7 1//7 10//7
f 1//8 6//8 10//8
f 7//9 5//9 10//9
f 9//10 4//10 10//10
f 6//11 4//11 11//11
f 4//12 8//12 11//12
f 11//13 8//13 12//13
f 8//14 3//14 12//14
f 5//3 2//3 13//3
f 2//15 9//15 13//15
f 9//16 5//16 13//16
f 3//3 5//3 14//3
f 5//17 7//17 14//17
f 12//18 3//18 14//18
f 12//19 14//19 15//19
f 10//20 6//20 15//20
f 7//9 10//9 15//9
f 6//21 11//21 15//21
f 11//22 12//22 15//22
