# Blender v2.79 (sub 0) OBJ File: ''
# www.blender.org
mtllib 102692_link_3_100.mtl
o Shape_IndexedFaceSet.100_Shape_IndexedFaceSet.9621
v -0.043323 -0.607140 0.152576
v 0.002800 -0.607140 0.152576
v 0.014942 -0.360708 0.220564
v -0.049916 -0.356742 0.271218
v 0.015401 -0.358962 0.413842
v 0.013536 -0.597833 0.266106
v -0.043323 -0.468804 0.152576
v -0.043323 -0.561012 0.264638
v -0.043323 -0.356742 0.383203
v 0.016382 -0.488589 0.150988
v 0.006364 -0.505262 0.360200
v -0.023545 -0.600547 0.264638
v -0.023545 -0.449024 0.389808
v 0.016422 -0.608799 0.164190
v -0.049916 -0.587360 0.165761
v -0.049916 -0.402895 0.350278
v -0.036724 -0.363360 0.225082
v 0.013724 -0.439023 0.161619
v 0.013539 -0.469779 0.381981
vn 0.9991 -0.0284 0.0313
vn 0.0539 0.9985 -0.0091
vn 0.0390 0.9992 -0.0023
vn 0.0000 -0.0134 -0.9999
vn 0.9999 0.0126 -0.0025
vn -0.0266 -0.0000 -0.9996
vn -0.8795 -0.4400 0.1811
vn 0.0243 -0.7117 0.7020
vn -0.3984 -0.5842 0.7071
vn -0.4633 -0.0359 0.8855
vn -0.7864 -0.3934 0.4762
vn 0.0000 -0.9900 -0.1414
vn 0.6406 -0.0836 -0.7633
vn 1.0000 0.0007 0.0034
vn -0.0405 -0.9970 0.0658
vn 0.0683 -0.9917 0.1086
vn -0.8944 0.0000 -0.4472
vn -0.9943 0.0445 -0.0973
vn -0.8956 -0.4114 0.1693
vn -0.9933 0.1002 0.0585
vn -0.8980 -0.1632 0.4086
vn -0.9111 -0.2250 0.3453
vn -1.0000 0.0000 0.0000
vn -0.9918 -0.0902 0.0902
vn -0.0645 0.9850 -0.1598
vn -0.9168 0.2636 -0.3000
vn -0.1673 0.5657 -0.8075
vn 0.9886 0.0803 -0.1271
vn 0.0442 0.2118 -0.9763
vn -0.1002 0.5993 -0.7942
vn 0.7298 -0.4588 0.5070
vn -0.1020 -0.5054 0.8569
vn 0.0477 -0.2767 0.9598
vn 0.9993 -0.0252 0.0293
usemtl Shape.9630
s off
f 6//1 14//1 19//1
f 3//2 4//2 5//2
f 5//3 4//3 9//3
f 2//4 1//4 10//4
f 3//5 5//5 10//5
f 1//6 7//6 10//6
f 8//7 1//7 12//7
f 6//8 11//8 12//8
f 12//9 11//9 13//9
f 5//10 9//10 13//10
f 8//11 12//11 13//11
f 1//12 2//12 14//12
f 2//13 10//13 14//13
f 10//14 5//14 14//14
f 12//15 1//15 14//15
f 6//16 12//16 14//16
f 7//17 1//17 15//17
f 4//18 7//18 15//18
f 1//19 8//19 15//19
f 9//20 4//20 16//20
f 13//21 9//21 16//21
f 8//22 13//22 16//22
f 4//23 15//23 16//23
f 15//24 8//24 16//24
f 4//25 3//25 17//25
f 7//26 4//26 17//26
f 7//27 17//27 18//27
f 3//28 10//28 18//28
f 10//29 7//29 18//29
f 17//30 3//30 18//30
f 11//31 6//31 19//31
f 13//32 11//32 19//32
f 5//33 13//33 19//33
f 14//34 5//34 19//34
