# Blender v2.79 (sub 0) OBJ File: ''
# www.blender.org
mtllib 102692_link_3_55.mtl
o Shape_IndexedFaceSet.055_Shape_IndexedFaceSet.9576
v 0.431167 0.434047 -0.427342
v 0.430839 0.334253 -0.449413
v 0.422746 0.345546 -0.456240
v 0.437489 0.333907 -0.213369
v 0.470700 0.434047 -0.447120
v 0.437516 0.435243 -0.213677
v 0.470700 0.335235 -0.216468
v 0.470700 0.335235 -0.447120
v 0.470700 0.434047 -0.216468
v 0.422658 0.381079 -0.456680
vn 0.1952 0.0000 -0.9808
vn -0.8189 -0.5734 0.0222
vn -0.0028 1.0000 -0.0055
vn 0.0400 -0.9992 0.0000
vn 0.0621 -0.4834 -0.8732
vn 0.0248 -0.9997 -0.0022
vn 1.0000 0.0000 0.0000
vn 0.0839 0.0030 0.9965
vn 0.0360 0.9994 0.0000
vn 0.0929 0.0000 0.9957
vn -0.9982 -0.0017 0.0605
vn -0.3892 0.4934 -0.7779
vn -0.9893 0.1431 0.0286
vn -0.9981 0.0005 0.0609
vn 0.1844 -0.0117 -0.9828
usemtl Shape.9585
s off
f 5//1 8//1 10//1
f 3//2 2//2 4//2
f 5//3 1//3 6//3
f 7//4 4//4 8//4
f 2//5 3//5 8//5
f 4//6 2//6 8//6
f 5//7 7//7 8//7
f 6//8 4//8 9//8
f 5//9 6//9 9//9
f 7//7 5//7 9//7
f 4//10 7//10 9//10
f 3//11 4//11 10//11
f 1//12 5//12 10//12
f 6//13 1//13 10//13
f 4//14 6//14 10//14
f 8//15 3//15 10//15
