# Blender v2.79 (sub 0) OBJ File: ''
# www.blender.org
mtllib 102692_link_3_105.mtl
o Shape_IndexedFaceSet.105_Shape_IndexedFaceSet.9626
v -0.260802 -0.172221 0.297558
v -0.254219 -0.297431 0.119626
v -0.260802 -0.277653 0.126227
v -0.241035 -0.159040 0.119626
v -0.221268 -0.297431 0.297558
v -0.306919 -0.165637 0.297558
v -0.267376 -0.297431 0.271188
v -0.287143 -0.159040 0.126227
v -0.214676 -0.271056 0.119626
v -0.260802 -0.159040 0.284356
v -0.214676 -0.297431 0.159180
v -0.260802 -0.297431 0.297558
v -0.267376 -0.297431 0.211884
vn -0.9697 -0.2129 -0.1201
vn -0.0000 0.0000 1.0000
vn 0.0000 -1.0000 -0.0000
vn -0.9287 -0.2062 -0.3082
vn -0.1417 0.0135 -0.9898
vn 0.0000 0.0000 -1.0000
vn 0.9710 0.2285 0.0698
vn 0.9132 0.2883 0.2879
vn 0.9523 0.2829 0.1143
vn 0.1005 0.7041 0.7030
vn 0.0000 1.0000 0.0000
vn -0.1352 0.9906 0.0225
vn 0.4852 -0.7275 -0.4851
vn 0.9963 0.0712 0.0475
vn -0.9188 -0.3215 0.2291
vn -0.9527 -0.2718 -0.1359
vn -0.9578 -0.2874 0.0000
vn -0.9687 -0.2151 -0.1240
usemtl Shape.9635
s off
f 6//1 8//1 13//1
f 5//2 1//2 6//2
f 2//3 5//3 7//3
f 2//4 3//4 8//4
f 4//5 2//5 8//5
f 2//6 4//6 9//6
f 4//7 5//7 9//7
f 1//8 5//8 10//8
f 5//9 4//9 10//9
f 6//10 1//10 10//10
f 4//11 8//11 10//11
f 8//12 6//12 10//12
f 5//3 2//3 11//3
f 2//13 9//13 11//13
f 9//14 5//14 11//14
f 5//2 6//2 12//2
f 7//3 5//3 12//3
f 6//15 7//15 12//15
f 3//16 2//16 13//16
f 2//3 7//3 13//3
f 7//17 6//17 13//17
f 8//18 3//18 13//18
