# Blender v2.79 (sub 0) OBJ File: ''
# www.blender.org
mtllib 1667_link_1_2.mtl
o Shape_IndexedFaceSet.002_Shape_IndexedFaceSet.766
v -0.018794 -0.006588 0.764985
v 0.065460 0.011645 0.788889
v 0.062364 0.001758 0.788373
v -0.077996 0.003274 0.789638
v -0.033609 -0.036174 0.789638
v 0.050197 -0.031236 0.779776
v 0.025564 0.013141 0.764985
v -0.018794 -0.031236 0.769920
v -0.063195 0.013141 0.774851
vn -0.4940 -0.4090 -0.7673
vn 0.0385 -0.0641 0.9972
vn 0.0049 0.0055 1.0000
vn 0.9282 -0.2777 -0.2478
vn 0.1288 -0.2942 0.9470
vn 0.5139 -0.0006 -0.8578
vn 0.1372 -0.2439 -0.9601
vn -0.5477 -0.6163 -0.5659
vn 0.0315 -0.9749 -0.2205
vn 0.0870 -0.1956 -0.9768
vn -0.0470 0.8520 0.5215
vn 0.0059 0.9986 0.0527
vn -0.1072 0.2411 -0.9646
vn -0.2918 -0.1878 -0.9379
usemtl Shape.785
s off
f 8//1 4//1 9//1
f 3//2 2//2 5//2
f 2//3 4//3 5//3
f 2//4 3//4 6//4
f 3//5 5//5 6//5
f 2//6 6//6 7//6
f 7//7 6//7 8//7
f 5//8 4//8 8//8
f 6//9 5//9 8//9
f 1//10 7//10 8//10
f 4//11 2//11 9//11
f 2//12 7//12 9//12
f 7//13 1//13 9//13
f 1//14 8//14 9//14
