# Blender v2.79 (sub 0) OBJ File: ''
# www.blender.org
mtllib 1667_link_1_57.mtl
o Shape_IndexedFaceSet.057_Shape_IndexedFaceSet.821
v 0.124197 0.126567 0.074571
v 0.074882 0.067388 0.044984
v 0.074882 0.067388 0.074571
v 0.104468 0.146293 0.044984
v 0.104468 0.067388 0.044984
v 0.104468 0.146293 0.074571
vn 0.7071 0.7072 0.0000
vn -0.9363 0.3511 0.0000
vn 0.8320 0.0000 -0.5548
vn 0.6092 -0.5077 0.6092
vn 0.0000 -1.0000 0.0000
vn 0.0000 0.0000 -1.0000
vn 0.0000 0.0000 1.0000
usemtl Shape.840
s off
f 1//1 4//1 6//1
f 2//2 3//2 4//2
f 4//3 1//3 5//3
f 1//4 3//4 5//4
f 3//5 2//5 5//5
f 2//6 4//6 5//6
f 3//7 1//7 6//7
f 4//2 3//2 6//2
