# Blender v2.79 (sub 0) OBJ File: ''
# www.blender.org
mtllib 1667_link_1_42.mtl
o Shape_IndexedFaceSet.042_Shape_IndexedFaceSet.806
v -0.068292 0.161420 0.922524
v -0.013891 0.062462 1.021415
v -0.018824 0.062462 1.021415
v -0.063195 0.047662 0.977027
v -0.068133 0.131487 0.977027
v -0.013891 0.161087 0.947459
v -0.023756 0.151217 0.986893
v -0.013891 0.052603 0.996759
v -0.068133 0.047662 1.006616
v -0.063195 0.161087 0.967190
v -0.058262 0.077262 1.006616
vn -0.4892 0.3475 0.8000
vn 0.0000 0.3625 0.9320
vn 0.9332 0.2155 0.2874
vn 0.3758 -0.3867 -0.8422
vn 1.0000 0.0000 0.0000
vn 0.3831 -0.3822 -0.8409
vn 0.0000 -0.7071 0.7071
vn -0.9790 -0.1221 -0.1634
vn -1.0000 0.0013 0.0036
vn 0.1503 -0.9180 0.3671
vn 0.0935 -0.9955 0.0156
vn -0.9734 0.1998 0.1126
vn 0.0029 1.0000 0.0071
vn 0.1066 0.9579 0.2664
vn -0.3335 0.3851 0.8605
vn -0.2141 0.3437 0.9143
vn -0.3146 0.1049 0.9434
vn -0.7064 0.2356 0.6674
usemtl Shape.825
s off
f 10//1 5//1 11//1
f 3//2 2//2 7//2
f 2//3 6//3 7//3
f 4//4 1//4 8//4
f 6//5 2//5 8//5
f 1//6 6//6 8//6
f 2//7 3//7 9//7
f 1//8 4//8 9//8
f 5//9 1//9 9//9
f 8//10 2//10 9//10
f 4//11 8//11 9//11
f 1//12 5//12 10//12
f 6//13 1//13 10//13
f 7//14 6//14 10//14
f 7//15 10//15 11//15
f 3//16 7//16 11//16
f 9//17 3//17 11//17
f 5//18 9//18 11//18
