# Blender v2.79 (sub 0) OBJ File: ''
# www.blender.org
mtllib 1667_link_0_22.mtl
o Shape_IndexedFaceSet.022_Shape_IndexedFaceSet.12344
v -0.221187 0.411826 -0.116685
v -0.205388 0.718496 -0.072088
v -0.205389 0.718481 -0.077501
v -0.228663 0.705799 -0.101738
v -0.218909 0.718535 -0.128906
v -0.203749 0.411826 -0.074329
v -0.211225 0.414322 -0.124163
v -0.216207 0.449208 -0.074329
v -0.228663 0.563761 -0.126658
v -0.218695 0.705799 -0.076824
v -0.203749 0.424306 -0.089281
v -0.228663 0.705799 -0.126658
v -0.221187 0.411826 -0.126658
v -0.213717 0.411826 -0.074329
v -0.223678 0.414322 -0.124163
v -0.223678 0.593655 -0.089281
v -0.208734 0.434261 -0.114190
v -0.213717 0.411826 -0.126658
vn 0.0000 -0.0073 -1.0000
vn 0.0146 0.9999 -0.0028
vn -0.6104 0.7785 0.1458
vn -0.7128 0.6407 0.2852
vn -0.3402 0.0058 0.9403
vn 1.0000 0.0056 -0.0002
vn 1.0000 0.0053 0.0044
vn 0.9704 -0.1855 -0.1549
vn -0.7939 0.6080 0.0000
vn -1.0000 0.0000 0.0000
vn -0.2246 0.0000 -0.9745
vn 0.0000 -1.0000 0.0000
vn -0.1283 -0.0063 -0.9917
vn 0.0000 -0.0073 1.0000
vn -0.0777 -0.0052 0.9970
vn -0.9791 -0.0652 0.1924
vn -0.7078 -0.7064 0.0000
vn -0.7248 -0.0357 -0.6880
vn -0.8938 -0.4198 0.1576
vn -0.9878 -0.0269 0.1533
vn -0.9284 -0.0000 0.3715
vn -0.9126 -0.0049 0.4089
vn -0.9847 -0.0332 0.1709
vn -0.9873 -0.0303 0.1559
vn 0.9669 0.0214 -0.2543
vn 0.9599 0.0199 -0.2795
vn 0.9815 0.0131 -0.1912
vn 0.9788 -0.0203 -0.2040
vn 0.7041 0.0067 -0.7100
vn 0.7694 -0.6217 -0.1466
usemtl Shape.12354
s off
f 13//1 5//1 18//1
f 2//2 3//2 5//2
f 4//3 2//3 5//3
f 2//4 4//4 10//4
f 8//5 2//5 10//5
f 3//6 2//6 11//6
f 2//7 6//7 11//7
f 6//8 7//8 11//8
f 4//9 5//9 12//9
f 9//10 4//10 12//10
f 5//11 9//11 12//11
f 6//12 1//12 13//12
f 9//13 5//13 13//13
f 6//14 2//14 14//14
f 1//12 6//12 14//12
f 2//15 8//15 14//15
f 14//16 8//16 15//16
f 13//17 1//17 15//17
f 9//18 13//18 15//18
f 1//19 14//19 15//19
f 4//20 9//20 16//20
f 10//21 4//21 16//21
f 8//22 10//22 16//22
f 15//23 8//23 16//23
f 9//24 15//24 16//24
f 5//25 3//25 17//25
f 7//26 5//26 17//26
f 3//27 11//27 17//27
f 11//28 7//28 17//28
f 5//29 7//29 18//29
f 7//30 6//30 18//30
f 6//12 13//12 18//12
