# Blender v2.79 (sub 0) OBJ File: ''
# www.blender.org
mtllib 1667_link_0_31.mtl
o Shape_IndexedFaceSet.031_Shape_IndexedFaceSet.12353
v 0.092780 0.576237 0.057735
v 0.067862 0.409301 0.052747
v 0.067862 0.409301 0.057735
v 0.102748 0.409301 0.037803
v 0.070355 0.566269 0.050268
v 0.102748 0.576237 0.037803
v 0.102748 0.411818 0.047776
v 0.067862 0.576237 0.067705
v 0.097762 0.411818 0.035311
v 0.077830 0.414301 0.060228
v 0.102748 0.576237 0.050268
v 0.070355 0.414301 0.047776
v 0.072848 0.568753 0.067705
v 0.067862 0.576237 0.055240
v 0.100255 0.498995 0.035311
v 0.067862 0.421785 0.062720
vn 0.2137 -0.0404 0.9761
vn 0.0000 -1.0000 0.0000
vn 0.1385 -0.9603 0.2423
vn 1.0000 0.0000 -0.0000
vn -1.0000 0.0000 0.0000
vn 0.0000 1.0000 0.0000
vn -0.2005 -0.8606 -0.4681
vn 0.2287 -0.7595 0.6090
vn 0.5995 -0.0121 0.8003
vn -0.3874 -0.5456 -0.7431
vn 0.4551 -0.0263 0.8901
vn 0.3606 0.2402 0.9013
vn 0.4445 -0.0290 0.8953
vn -0.4240 0.3171 -0.8483
vn -0.8965 0.0066 -0.4430
vn -0.8878 0.0075 -0.4603
vn 0.7070 0.0000 -0.7072
vn -0.3700 0.0419 -0.9281
vn 0.4419 -0.0126 -0.8970
vn -0.4204 0.0149 -0.9072
vn -0.4131 0.0118 -0.9106
vn -0.0462 -0.3704 0.9277
vn -0.0484 -0.0322 0.9983
usemtl Shape.12363
s off
f 10//1 13//1 16//1
f 3//2 2//2 4//2
f 3//3 4//3 7//3
f 4//4 6//4 7//4
f 2//5 3//5 8//5
f 1//6 6//6 8//6
f 4//7 2//7 9//7
f 3//8 7//8 10//8
f 6//6 1//6 11//6
f 1//9 7//9 11//9
f 7//4 6//4 11//4
f 9//10 2//10 12//10
f 7//11 1//11 13//11
f 1//12 8//12 13//12
f 10//13 7//13 13//13
f 6//14 5//14 14//14
f 2//5 8//5 14//5
f 8//6 6//6 14//6
f 12//15 2//15 14//15
f 5//16 12//16 14//16
f 6//17 4//17 15//17
f 5//18 6//18 15//18
f 4//19 9//19 15//19
f 12//20 5//20 15//20
f 9//21 12//21 15//21
f 8//5 3//5 16//5
f 3//22 10//22 16//22
f 13//23 8//23 16//23
