# Blender v2.79 (sub 0) OBJ File: ''
# www.blender.org
mtllib 1667_link_1_56.mtl
o Shape_IndexedFaceSet.056_Shape_IndexedFaceSet.820
v 0.000929 0.013141 0.074571
v 0.104461 0.067388 0.049916
v 0.104461 0.067388 0.044984
v 0.104461 0.013141 0.049916
v 0.094598 0.062455 0.074571
v 0.000929 0.037806 0.054848
v 0.045306 0.013141 0.044984
v 0.069937 0.067388 0.074571
vn -0.4407 0.5606 0.7011
vn 1.0000 0.0000 0.0000
vn 0.2120 -0.4028 0.8904
vn 0.9285 0.0000 0.3714
vn -0.4619 -0.5539 -0.6927
vn 0.0827 -0.0902 -0.9925
vn 0.0000 -1.0000 0.0000
vn -0.1356 0.1478 -0.9797
vn -0.0000 1.0000 0.0000
vn -0.0000 0.0000 1.0000
vn 0.1891 0.9456 0.2649
vn -0.2882 0.8966 -0.3363
usemtl Shape.839
s off
f 6//1 1//1 8//1
f 3//2 2//2 4//2
f 1//3 4//3 5//3
f 4//4 2//4 5//4
f 1//5 6//5 7//5
f 3//6 4//6 7//6
f 4//7 1//7 7//7
f 6//8 3//8 7//8
f 2//9 3//9 8//9
f 1//10 5//10 8//10
f 5//11 2//11 8//11
f 3//12 6//12 8//12
