# Blender v2.79 (sub 0) OBJ File: ''
# www.blender.org
mtllib 1667_link_0_54.mtl
o Shape_IndexedFaceSet.054_Shape_IndexedFaceSet.12376
v -0.069188 0.720777 0.316887
v -0.021848 0.720777 0.344297
v -0.023862 0.695065 0.341860
v -0.066691 0.733238 0.286985
v -0.069188 0.693369 0.299445
v -0.021848 0.733238 0.324353
v -0.021848 0.693369 0.331837
v -0.059216 0.693369 0.329335
v -0.044276 0.733238 0.331837
v -0.044276 0.705830 0.339310
v -0.069188 0.733238 0.304432
vn 0.0000 1.0000 0.0000
vn 0.6336 -0.1427 -0.7604
vn 0.9726 -0.0962 0.2117
vn 0.5419 -0.2814 -0.7919
vn 1.0000 0.0000 0.0000
vn 0.0000 -1.0000 0.0000
vn -0.9299 -0.1974 0.3102
vn -0.0110 -0.9863 0.1647
vn 0.1741 0.8351 0.5218
vn -0.1651 -0.0802 0.9830
vn -0.6211 0.1254 0.7736
vn -0.2972 -0.3536 0.8869
vn -0.5792 0.2144 0.7865
vn -0.3632 0.2451 0.8989
vn -1.0000 -0.0000 0.0000
vn -0.9898 0.0177 -0.1417
vn -0.6141 0.5579 0.5582
usemtl Shape.12386
s off
f 9//1 4//1 11//1
f 4//2 6//2 7//2
f 2//3 3//3 7//3
f 5//4 4//4 7//4
f 6//5 2//5 7//5
f 5//6 7//6 8//6
f 1//7 5//7 8//7
f 7//8 3//8 8//8
f 2//9 6//9 9//9
f 6//1 4//1 9//1
f 3//10 2//10 10//10
f 1//11 8//11 10//11
f 8//12 3//12 10//12
f 9//13 1//13 10//13
f 2//14 9//14 10//14
f 5//15 1//15 11//15
f 4//16 5//16 11//16
f 1//17 9//17 11//17
