# Blender v2.79 (sub 0) OBJ File: ''
# www.blender.org
mtllib 1667_link_0_21.mtl
o Shape_IndexedFaceSet.021_Shape_IndexedFaceSet.12343
v -0.226172 0.411826 -0.146598
v -0.218487 0.718487 -0.123992
v -0.213716 0.484093 -0.186453
v -0.228662 0.705799 -0.188953
v -0.213716 0.411826 -0.126658
v -0.228662 0.705799 -0.126658
v -0.223679 0.424306 -0.188953
v -0.218493 0.718132 -0.191545
v -0.228662 0.416818 -0.164025
v -0.226172 0.474138 -0.126658
v -0.213716 0.424306 -0.188953
v -0.228662 0.583700 -0.188953
v -0.228662 0.553864 -0.126658
v -0.213716 0.464154 -0.126658
v -0.223679 0.414322 -0.126658
v -0.221189 0.409330 -0.161531
vn 0.0000 -0.8776 -0.4793
vn -0.7801 0.6256 0.0000
vn 0.9998 0.0204 -0.0002
vn -0.7719 0.6358 -0.0033
vn -1.0000 -0.0000 0.0000
vn 1.0000 0.0000 0.0000
vn 0.9520 0.0128 -0.3057
vn 0.0000 -0.0088 -1.0000
vn -0.2470 0.0000 -0.9690
vn -0.1775 -0.0055 -0.9841
vn -0.9783 -0.0306 -0.2048
vn -0.2535 0.0000 0.9673
vn -0.1715 -0.0054 0.9852
vn -0.9930 -0.0310 0.1137
vn 0.9998 0.0187 0.0062
vn 0.4878 0.0000 0.8730
vn -0.2403 -0.9590 0.1501
vn -0.0022 -0.0087 1.0000
vn -0.9907 -0.0430 0.1292
vn -0.1476 -0.0062 0.9890
vn -0.9907 -0.0413 0.1294
vn -0.1708 -0.9795 0.1067
vn -0.6854 -0.7201 -0.1083
vn -0.6077 -0.7189 -0.3374
vn 0.7794 -0.6143 -0.1231
usemtl Shape.12353
s off
f 7//1 11//1 16//1
f 2//2 4//2 6//2
f 2//3 3//3 8//3
f 4//4 2//4 8//4
f 6//5 4//5 9//5
f 3//6 5//6 11//6
f 8//7 3//7 11//7
f 7//8 8//8 11//8
f 4//9 8//9 12//9
f 8//10 7//10 12//10
f 9//5 4//5 12//5
f 7//11 9//11 12//11
f 2//12 6//12 13//12
f 6//5 9//5 13//5
f 10//13 2//13 13//13
f 9//14 10//14 13//14
f 3//15 2//15 14//15
f 5//6 3//6 14//6
f 2//16 5//16 14//16
f 1//17 5//17 15//17
f 5//18 2//18 15//18
f 9//19 1//19 15//19
f 2//20 10//20 15//20
f 10//21 9//21 15//21
f 5//22 1//22 16//22
f 1//23 9//23 16//23
f 9//24 7//24 16//24
f 11//25 5//25 16//25
