# Blender v2.79 (sub 0) OBJ File: ''
# www.blender.org
mtllib 1667_link_0_73.mtl
o Shape_IndexedFaceSet.073_Shape_IndexedFaceSet.12395
v 0.081868 0.652926 0.144816
v 0.082813 0.646020 0.144951
v 0.013056 0.611139 0.144951
v 0.013056 0.623603 0.134984
v 0.082592 0.653366 0.135015
v 0.047931 0.611139 0.134984
v 0.013056 0.623603 0.144951
v 0.060380 0.618619 0.144951
v 0.075328 0.631080 0.134984
vn 0.7260 -0.5944 0.3457
vn 0.9875 0.1367 0.0791
vn -0.2178 -0.6095 -0.7622
vn -0.0060 0.0187 0.9998
vn 0.0000 0.0000 1.0000
vn -1.0000 0.0000 0.0000
vn -0.3920 0.9199 0.0123
vn -0.3935 0.9193 0.0000
vn 0.1370 -0.8668 0.4794
vn 0.5837 -0.8019 -0.1272
vn -0.0002 0.0014 -1.0000
vn 0.9225 -0.3003 -0.2426
vn 0.0000 0.0000 -1.0000
usemtl Shape.12405
s off
f 2//1 8//1 9//1
f 1//2 2//2 5//2
f 3//3 4//3 6//3
f 2//4 1//4 7//4
f 3//5 2//5 7//5
f 4//6 3//6 7//6
f 1//7 5//7 7//7
f 5//8 4//8 7//8
f 2//5 3//5 8//5
f 3//9 6//9 8//9
f 8//10 6//10 9//10
f 4//11 5//11 9//11
f 5//12 2//12 9//12
f 6//13 4//13 9//13
