# Blender v2.79 (sub 0) OBJ File: ''
# www.blender.org
mtllib 1667_link_0_71.mtl
o Shape_IndexedFaceSet.071_Shape_IndexedFaceSet.12393
v 0.073528 0.650087 0.122361
v 0.082715 0.718433 0.134566
v 0.083059 0.655391 0.134622
v 0.007514 0.721270 0.135073
v 0.085305 0.720772 0.122526
v 0.008066 0.720772 0.122526
v 0.008066 0.710802 0.134984
v 0.072837 0.651008 0.134984
v 0.008066 0.710802 0.122526
v 0.082284 0.651509 0.122615
vn 0.3882 -0.8839 0.2607
vn 0.9774 0.0055 0.2113
vn 0.0383 0.9794 0.1985
vn 0.0000 0.0023 -1.0000
vn 0.0000 0.9992 -0.0397
vn 0.0349 0.0011 0.9994
vn 0.0069 0.0052 1.0000
vn -0.6782 -0.7347 0.0165
vn -0.0083 -0.0089 0.9999
vn -0.0025 0.0000 -1.0000
vn -0.9990 0.0000 -0.0440
vn -0.6800 -0.7332 0.0000
vn -0.9986 -0.0527 0.0000
vn 0.0294 -0.0026 -0.9996
vn 0.9978 -0.0436 -0.0503
vn 0.1575 -0.9842 0.0804
usemtl Shape.12403
s off
f 3//1 8//1 10//1
f 2//2 3//2 5//2
f 4//3 2//3 5//3
f 5//4 1//4 6//4
f 4//5 5//5 6//5
f 3//6 2//6 8//6
f 2//7 4//7 8//7
f 7//8 1//8 8//8
f 4//9 7//9 8//9
f 6//10 1//10 9//10
f 4//11 6//11 9//11
f 1//12 7//12 9//12
f 7//13 4//13 9//13
f 1//14 5//14 10//14
f 5//15 3//15 10//15
f 8//16 1//16 10//16
