# Blender v2.79 (sub 0) OBJ File: ''
# www.blender.org
mtllib 1667_link_0_2.mtl
o Shape_IndexedFaceSet.002_Shape_IndexedFaceSet.12324
v -0.151424 0.705828 -0.328471
v 0.000556 0.720779 -0.074329
v -0.211218 0.720779 -0.074329
v 0.000556 0.720779 -0.375784
v 0.000556 0.708320 -0.074329
v -0.215157 0.705904 -0.075892
v -0.000447 0.705893 -0.379497
v -0.213691 0.718287 -0.243747
v -0.094103 0.720779 -0.355863
v -0.225700 0.706022 -0.199698
v -0.223671 0.720779 -0.184015
v -0.089135 0.705828 -0.365853
v -0.228639 0.715795 -0.101781
v -0.146434 0.718287 -0.330962
v -0.193774 0.708320 -0.281129
v -0.206228 0.705828 -0.074329
v -0.166350 0.720779 -0.296070
v -0.066701 0.718287 -0.370833
v -0.228639 0.705828 -0.101781
v -0.231157 0.715795 -0.174024
v 0.000556 0.705828 -0.370833
v -0.191279 0.718287 -0.283619
v -0.011898 0.715795 -0.380824
vn -0.1818 -0.0648 -0.9812
vn 0.0000 1.0000 0.0000
vn 0.0000 0.0000 1.0000
vn 1.0000 0.0000 0.0000
vn -0.8457 0.1708 0.5056
vn -0.3288 0.9437 0.0373
vn -0.5143 0.0346 -0.8569
vn -0.1582 -0.9833 -0.0898
vn -0.8475 -0.4045 -0.3437
vn -0.1726 -0.0576 0.9833
vn 0.0000 -1.0000 0.0000
vn -0.1200 0.9909 -0.0614
vn -0.1103 0.9849 -0.1333
vn -0.0549 0.9638 -0.2610
vn -0.4071 0.4141 -0.8141
vn -0.4082 0.4087 -0.8163
vn -0.0064 -1.0000 -0.0022
vn -0.8869 0.0000 0.4619
vn -0.0099 -0.9999 0.0081
vn -0.9670 0.0881 -0.2391
vn -0.6735 0.7253 -0.1428
vn -0.5367 0.8436 0.0187
vn -0.9022 -0.4304 -0.0279
vn -0.9994 0.0000 0.0348
vn 0.9926 -0.0381 -0.1152
vn -0.0004 -1.0000 -0.0075
vn 0.0120 -0.9999 0.0084
vn -0.7176 0.1515 -0.6798
vn -0.7447 0.0197 -0.6672
vn -0.8678 0.0954 -0.4878
vn -0.1373 0.9875 -0.0771
vn -0.1836 0.9675 -0.1739
vn 0.2921 0.2129 -0.9324
vn -0.1451 -0.2944 -0.9446
vn -0.0738 0.7943 -0.6030
usemtl Shape.12334
s off
f 12//1 18//1 23//1
f 3//2 2//2 4//2
f 2//3 3//3 5//3
f 4//4 2//4 5//4
f 3//2 4//2 9//2
f 3//2 9//2 11//2
f 6//5 3//5 13//5
f 3//6 11//6 13//6
f 12//7 1//7 14//7
f 1//8 10//8 15//8
f 10//9 8//9 15//9
f 5//3 3//3 16//3
f 3//10 6//10 16//10
f 1//11 12//11 16//11
f 8//12 11//12 17//12
f 11//2 9//2 17//2
f 9//13 14//13 17//13
f 9//14 4//14 18//14
f 14//15 9//15 18//15
f 12//16 14//16 18//16
f 10//17 1//17 19//17
f 6//18 13//18 19//18
f 16//19 6//19 19//19
f 1//11 16//11 19//11
f 8//20 10//20 20//20
f 11//21 8//21 20//21
f 13//22 11//22 20//22
f 10//23 19//23 20//23
f 19//24 13//24 20//24
f 4//4 5//4 21//4
f 7//25 4//25 21//25
f 12//26 7//26 21//26
f 5//27 16//27 21//27
f 16//11 12//11 21//11
f 14//28 1//28 22//28
f 1//29 15//29 22//29
f 15//30 8//30 22//30
f 8//31 17//31 22//31
f 17//32 14//32 22//32
f 4//33 7//33 23//33
f 7//34 12//34 23//34
f 18//35 4//35 23//35
