# Blender v2.79 (sub 0) OBJ File: ''
# www.blender.org
mtllib 1667_link_0_70.mtl
o Shape_IndexedFaceSet.070_Shape_IndexedFaceSet.12392
v -0.089333 0.652605 0.122811
v 0.008058 0.720772 0.134984
v 0.008058 0.710802 0.134984
v 0.008058 0.720772 0.122526
v -0.089253 0.719119 0.134689
v -0.091615 0.720772 0.122526
v -0.080063 0.650143 0.135138
v -0.079136 0.651008 0.122526
v 0.008058 0.710802 0.122526
v -0.088961 0.652866 0.134652
vn -0.0548 -0.0008 0.9985
vn 1.0000 0.0000 0.0000
vn -0.0172 0.9903 0.1379
vn 0.0000 1.0000 0.0000
vn 0.0017 0.0000 1.0000
vn -0.0031 0.0061 1.0000
vn 0.0000 0.0000 -1.0000
vn -0.0287 -0.0051 -0.9996
vn -0.1564 -0.9845 -0.0790
vn 0.5655 -0.8246 -0.0150
vn 0.5670 -0.8237 0.0000
vn -0.9818 -0.0044 0.1901
vn -0.9989 -0.0333 0.0321
vn -0.2940 -0.9553 0.0303
usemtl Shape.12402
s off
f 7//1 5//1 10//1
f 2//2 3//2 4//2
f 5//3 2//3 6//3
f 2//4 4//4 6//4
f 3//5 2//5 7//5
f 2//6 5//6 7//6
f 6//7 4//7 8//7
f 1//8 6//8 8//8
f 7//9 1//9 8//9
f 7//10 8//10 9//10
f 4//2 3//2 9//2
f 3//11 7//11 9//11
f 8//7 4//7 9//7
f 5//12 6//12 10//12
f 6//13 1//13 10//13
f 1//14 7//14 10//14
