# Blender v2.79 (sub 0) OBJ File: ''
# www.blender.org
mtllib 1667_link_0_56.mtl
o Shape_IndexedFaceSet.056_Shape_IndexedFaceSet.12378
v 0.070354 0.730744 0.229673
v -0.021844 0.715797 0.167378
v -0.021844 0.715797 0.169878
v -0.021844 0.733238 0.189812
v 0.070354 0.728253 0.167378
v 0.070354 0.715797 0.169878
v -0.021844 0.730744 0.229673
v -0.021844 0.728253 0.167378
v 0.070354 0.733238 0.229673
v 0.070354 0.733238 0.189812
v 0.070354 0.720781 0.194800
v -0.021844 0.733238 0.229673
v -0.021844 0.723273 0.204745
vn -0.0038 -0.9778 0.2096
vn -1.0000 -0.0000 0.0000
vn 0.0266 -0.1967 -0.9801
vn 0.0000 -1.0000 0.0000
vn 1.0000 0.0000 0.0000
vn 0.0000 0.9762 -0.2169
vn 0.0000 0.0000 -1.0000
vn 0.0000 0.0000 1.0000
vn 0.0000 1.0000 0.0000
vn 0.0000 -0.9806 0.1961
vn 0.0000 -0.9579 0.2871
vn 0.0036 -0.9615 0.2747
usemtl Shape.12388
s off
f 3//1 11//1 13//1
f 2//2 3//2 4//2
f 2//3 5//3 6//3
f 3//4 2//4 6//4
f 5//5 1//5 6//5
f 4//2 3//2 7//2
f 2//2 4//2 8//2
f 4//6 5//6 8//6
f 5//7 2//7 8//7
f 1//5 5//5 9//5
f 7//8 1//8 9//8
f 5//6 4//6 10//6
f 9//5 5//5 10//5
f 4//9 9//9 10//9
f 6//5 1//5 11//5
f 3//10 6//10 11//10
f 4//2 7//2 12//2
f 9//9 4//9 12//9
f 7//8 9//8 12//8
f 1//11 7//11 13//11
f 7//2 3//2 13//2
f 11//12 1//12 13//12
