# Blender v2.79 (sub 0) OBJ File: ''
# www.blender.org
mtllib 1667_link_0_28.mtl
o Shape_IndexedFaceSet.028_Shape_IndexedFaceSet.12350
v 0.060387 0.703316 -0.370855
v 0.000583 0.501535 -0.368366
v 0.060387 0.496535 -0.358397
v 0.000583 0.703316 -0.370855
v 0.054431 0.710354 -0.357634
v 0.055399 0.504025 -0.370855
v 0.008058 0.703316 -0.380824
v 0.000583 0.546373 -0.365874
v 0.000583 0.504025 -0.378330
v 0.030485 0.501535 -0.360891
v 0.000583 0.703316 -0.380824
v 0.060387 0.703316 -0.358397
v 0.000583 0.675907 -0.368366
v 0.060387 0.499045 -0.368366
v 0.003077 0.636029 -0.380824
vn -0.3199 -0.0119 -0.9474
vn 0.0836 0.8948 -0.4387
vn 0.1871 -0.0047 -0.9823
vn -1.0000 -0.0000 0.0000
vn -0.0407 -0.9694 -0.2422
vn -0.1744 -0.6949 0.6976
vn -0.0841 -0.0059 0.9964
vn -0.2422 -0.0538 0.9687
vn -0.1601 0.0030 0.9871
vn -0.1296 0.9916 0.0000
vn 0.0000 0.9569 -0.2904
vn 1.0000 0.0000 0.0000
vn 0.1271 0.0000 0.9919
vn 0.7633 0.6460 0.0000
vn -0.2483 0.0876 0.9647
vn -0.2070 0.0188 0.9782
vn 0.4377 -0.0110 -0.8991
vn -0.0400 -0.9690 -0.2440
vn 0.1271 -0.3386 -0.9323
vn 0.1585 -0.0117 -0.9873
vn 0.1351 -0.0213 -0.9906
vn 0.0000 0.0000 -1.0000
usemtl Shape.12360
s off
f 9//1 11//1 15//1
f 5//2 1//2 7//2
f 1//3 6//3 7//3
f 4//4 2//4 8//4
f 3//5 2//5 9//5
f 2//4 4//4 9//4
f 2//6 3//6 10//6
f 3//7 5//7 10//7
f 8//8 2//8 10//8
f 5//9 8//9 10//9
f 4//10 5//10 11//10
f 5//11 7//11 11//11
f 9//4 4//4 11//4
f 3//12 1//12 12//12
f 5//13 3//13 12//13
f 1//14 5//14 12//14
f 5//15 4//15 13//15
f 4//4 8//4 13//4
f 8//16 5//16 13//16
f 1//12 3//12 14//12
f 6//17 1//17 14//17
f 3//18 9//18 14//18
f 9//19 6//19 14//19
f 7//20 6//20 15//20
f 6//21 9//21 15//21
f 11//22 7//22 15//22
