# Blender v2.79 (sub 0) OBJ File: ''
# www.blender.org
mtllib 1667_link_0_3.mtl
o Shape_IndexedFaceSet.003_Shape_IndexedFaceSet.12325
v -0.094140 0.718287 0.090131
v -0.218698 0.710813 -0.074329
v -0.213805 0.715683 -0.070660
v 0.000583 0.708322 -0.074329
v -0.094140 0.705828 0.090131
v 0.000583 0.720778 -0.074329
v 0.000583 0.720778 0.087620
v -0.211185 0.720779 -0.074329
v 0.000583 0.708322 0.090131
v -0.216186 0.705828 -0.074329
v -0.191266 0.715795 -0.016987
v -0.089139 0.720779 0.090131
v -0.191266 0.705828 -0.016987
v -0.188776 0.720779 -0.021978
v -0.084159 0.705828 0.077671
vn 0.0000 -1.0000 0.0000
vn 0.0000 0.0000 -1.0000
vn 1.0000 0.0000 0.0000
vn -0.7717 0.5818 0.2570
vn 0.0000 0.0000 1.0000
vn -0.7784 0.5366 0.3258
vn -0.7408 0.0000 0.6717
vn -0.7373 0.6011 0.3084
vn 0.0000 1.0000 0.0000
vn 0.0274 0.1975 0.9799
vn -0.8325 -0.4195 0.3618
vn -0.9021 0.0000 0.4316
vn -0.5229 0.7193 0.4574
vn -0.6993 0.6491 0.2993
vn -0.4146 0.8321 0.3685
vn 0.0263 -0.9994 0.0211
vn 0.0294 -0.9996 0.0000
vn 0.0115 -0.9999 -0.0100
usemtl Shape.12335
s off
f 5//1 10//1 15//1
f 4//2 2//2 6//2
f 4//3 6//3 7//3
f 2//4 3//4 8//4
f 6//2 2//2 8//2
f 1//5 5//5 9//5
f 4//3 7//3 9//3
f 2//2 4//2 10//2
f 3//6 2//6 11//6
f 5//7 1//7 11//7
f 8//8 3//8 11//8
f 7//9 6//9 12//9
f 6//9 8//9 12//9
f 1//5 9//5 12//5
f 9//10 7//10 12//10
f 2//11 10//11 13//11
f 10//1 5//1 13//1
f 5//7 11//7 13//7
f 11//12 2//12 13//12
f 11//13 1//13 14//13
f 8//14 11//14 14//14
f 12//9 8//9 14//9
f 1//15 12//15 14//15
f 9//16 5//16 15//16
f 4//17 9//17 15//17
f 10//18 4//18 15//18
