# Blender v2.79 (sub 0) OBJ File: ''
# www.blender.org
mtllib 1667_link_0_50.mtl
o Shape_IndexedFaceSet.050_Shape_IndexedFaceSet.12372
v -0.069183 0.633566 0.219712
v -0.021849 0.660975 0.316887
v -0.031819 0.660975 0.316887
v -0.071675 0.643532 0.169895
v -0.021849 0.618621 0.167378
v -0.021849 0.631076 0.169895
v -0.071675 0.660975 0.242132
v -0.039292 0.638549 0.269514
v -0.071675 0.658477 0.291964
v -0.051740 0.616123 0.169895
v -0.021849 0.660975 0.289476
v -0.021849 0.636060 0.259562
v -0.071675 0.626098 0.167378
v -0.059217 0.648511 0.286973
v -0.049247 0.623599 0.212233
v -0.039292 0.618621 0.189813
v -0.024341 0.648511 0.296925
vn -0.1388 -0.8625 0.4866
vn 1.0000 -0.0000 0.0000
vn 0.0495 0.1978 -0.9790
vn 0.0000 1.0000 0.0000
vn -1.0000 0.0000 0.0000
vn -0.0935 0.9944 0.0498
vn 0.2357 0.9428 -0.2357
vn 0.2177 0.9488 -0.2291
vn 0.0214 0.1429 -0.9895
vn -0.9220 -0.3746 0.0974
vn -0.4574 -0.8770 0.1469
vn -0.0508 -0.3386 -0.9395
vn -0.5384 -0.8022 0.2580
vn -0.3341 -0.7214 0.6066
vn -0.3841 -0.9051 0.1824
vn 0.0055 -0.9678 0.2516
vn -0.3552 -0.9000 0.2526
vn -0.2199 -0.9339 0.2820
vn 0.0889 -0.9936 0.0691
vn 0.2325 -0.9556 0.1808
vn -0.0886 -0.9800 0.1783
vn 0.0392 -0.9717 0.2331
vn 0.0000 -0.8482 0.5296
vn 0.8126 -0.5346 0.2323
vn 0.0467 -0.9467 0.3186
vn -0.1121 -0.9127 0.3929
usemtl Shape.12382
s off
f 3//1 14//1 17//1
f 2//2 5//2 6//2
f 5//3 4//3 6//3
f 3//4 2//4 7//4
f 7//5 4//5 9//5
f 3//6 7//6 9//6
f 2//2 6//2 11//2
f 6//7 4//7 11//7
f 4//8 7//8 11//8
f 7//4 2//4 11//4
f 5//2 2//2 12//2
f 4//9 5//9 13//9
f 1//10 9//10 13//10
f 9//5 4//5 13//5
f 10//11 1//11 13//11
f 5//12 10//12 13//12
f 9//13 1//13 14//13
f 3//14 9//14 14//14
f 1//15 10//15 15//15
f 12//16 8//16 15//16
f 14//17 1//17 15//17
f 8//18 14//18 15//18
f 10//19 5//19 16//19
f 5//20 12//20 16//20
f 15//21 10//21 16//21
f 12//22 15//22 16//22
f 2//23 3//23 17//23
f 12//24 2//24 17//24
f 8//25 12//25 17//25
f 14//26 8//26 17//26
