# Blender v2.79 (sub 0) OBJ File: ''
# www.blender.org
mtllib 1667_link_1_26.mtl
o Shape_IndexedFaceSet.026_Shape_IndexedFaceSet.790
v 0.183568 -0.786539 -0.281340
v 0.212956 0.402732 -0.167074
v 0.212956 0.402732 -0.181872
v 0.134060 0.402732 -0.300211
v 0.198168 -0.770972 -0.167074
v 0.134060 -0.770972 -0.295288
v 0.153788 0.402732 -0.315009
v 0.219287 -0.790439 -0.194953
v 0.208024 0.234880 -0.236127
v 0.132798 -0.788639 -0.332257
v 0.193236 0.269576 -0.172012
v 0.218761 -0.783074 -0.165396
v 0.134060 0.402732 -0.324869
v 0.217896 0.392737 -0.172012
v 0.198168 0.397792 -0.250894
v 0.193785 -0.789644 -0.266241
v 0.198168 0.402732 -0.167074
v 0.134060 0.141245 -0.295288
v 0.198168 0.106664 -0.255832
v 0.209846 -0.804335 -0.224990
v 0.163652 0.037616 -0.305149
v 0.143924 0.353330 -0.324869
v 0.217896 0.230054 -0.181872
vn 0.9996 0.0017 -0.0285
vn 0.0000 1.0000 0.0000
vn -0.6741 -0.6572 0.3371
vn -0.8944 -0.0021 0.4472
vn -1.0000 0.0011 0.0000
vn 0.8965 0.4431 0.0000
vn 0.7115 0.0045 0.7027
vn 0.9998 0.0008 0.0176
vn 0.2944 0.9467 -0.1308
vn 0.9432 0.2492 -0.2199
vn 0.9700 0.0369 -0.2402
vn 0.5289 -0.6865 -0.4990
vn -0.9009 0.0173 0.4338
vn -0.7075 -0.0000 0.7067
vn 0.0000 0.0014 1.0000
vn -0.0812 -0.0000 0.9967
vn -0.9997 0.0004 0.0232
vn -0.9994 0.0000 0.0341
vn -0.9047 0.0080 0.4259
vn -0.9015 -0.0000 0.4328
vn 0.8225 0.0096 -0.5686
vn 0.8716 0.0083 -0.4901
vn 0.8920 0.0009 -0.4519
vn 0.8284 0.0025 -0.5601
vn 0.9542 -0.0015 -0.2992
vn -0.5868 -0.7472 0.3121
vn -0.4948 -0.7924 0.3567
vn 0.5281 -0.8217 0.2142
vn 0.9316 -0.0023 -0.3635
vn 0.4791 -0.7512 -0.4541
vn 0.7082 -0.0033 -0.7060
vn 0.8172 0.0031 -0.5763
vn 0.8150 0.0064 -0.5794
vn 0.4453 0.0889 -0.8910
vn 0.0309 0.0062 -0.9995
vn 0.6904 -0.0020 -0.7234
vn 0.7070 0.0000 -0.7072
vn 0.9839 0.0036 -0.1787
vn 0.9840 0.0108 -0.1781
usemtl Shape.809
s off
f 14//1 8//1 23//1
f 2//2 3//2 4//2
f 4//2 3//2 7//2
f 5//3 6//3 10//3
f 6//4 5//4 11//4
f 4//2 7//2 13//2
f 10//5 4//5 13//5
f 3//6 2//6 14//6
f 2//7 12//7 14//7
f 12//8 8//8 14//8
f 7//9 3//9 15//9
f 3//10 14//10 15//10
f 14//11 9//11 15//11
f 10//12 1//12 16//12
f 2//2 4//2 17//2
f 4//13 11//13 17//13
f 11//14 5//14 17//14
f 12//15 2//15 17//15
f 5//16 12//16 17//16
f 4//17 10//17 18//17
f 10//18 6//18 18//18
f 11//19 4//19 18//19
f 6//20 11//20 18//20
f 7//21 15//21 19//21
f 15//22 9//22 19//22
f 9//23 16//23 19//23
f 16//24 1//24 19//24
f 9//25 8//25 20//25
f 5//26 10//26 20//26
f 12//27 5//27 20//27
f 8//28 12//28 20//28
f 16//29 9//29 20//29
f 10//30 16//30 20//30
f 1//31 10//31 21//31
f 19//32 1//32 21//32
f 7//33 19//33 21//33
f 13//34 7//34 22//34
f 10//35 13//35 22//35
f 21//36 10//36 22//36
f 7//37 21//37 22//37
f 8//38 9//38 23//38
f 9//39 14//39 23//39
