# Blender v2.79 (sub 0) OBJ File: ''
# www.blender.org
mtllib 1667_link_1_12.mtl
o Shape_IndexedFaceSet.012_Shape_IndexedFaceSet.776
v 0.015718 0.279444 0.119078
v 0.094599 0.239992 0.750190
v 0.094599 0.200539 0.750190
v 0.005849 0.259702 0.750190
v 0.094599 0.200539 0.119078
v 0.094599 0.239992 0.119078
v 0.055150 0.269565 0.750190
v 0.010784 0.254782 0.119078
v 0.005849 0.279444 0.750190
v 0.065010 0.264638 0.119078
v 0.005849 0.279444 0.119078
v 0.084730 0.249855 0.750190
v 0.040364 0.274509 0.750190
v 0.005849 0.259702 0.119078
vn 0.0000 0.0000 -1.0000
vn 0.0000 0.0000 1.0000
vn 1.0000 0.0000 0.0000
vn -0.5547 -0.8321 0.0021
vn -0.5433 -0.8395 0.0000
vn -1.0000 -0.0000 0.0000
vn 0.0000 1.0000 0.0000
vn 0.7069 0.7073 0.0000
vn 0.6400 0.7684 -0.0020
vn 0.5545 0.8322 0.0022
vn 0.1415 0.9899 0.0022
vn 0.2877 0.9577 -0.0037
vn 0.3171 0.9484 -0.0024
vn -0.7060 -0.7082 0.0000
usemtl Shape.795
s off
f 11//1 8//1 14//1
f 3//2 2//2 4//2
f 2//3 3//3 5//3
f 5//1 1//1 6//1
f 2//3 5//3 6//3
f 4//2 2//2 7//2
f 3//4 4//4 8//4
f 1//1 5//1 8//1
f 5//5 3//5 8//5
f 4//2 7//2 9//2
f 6//1 1//1 10//1
f 1//1 8//1 11//1
f 4//6 9//6 11//6
f 9//7 1//7 11//7
f 2//8 6//8 12//8
f 7//2 2//2 12//2
f 6//9 10//9 12//9
f 10//10 7//10 12//10
f 9//2 7//2 13//2
f 1//11 9//11 13//11
f 10//12 1//12 13//12
f 7//13 10//13 13//13
f 8//14 4//14 14//14
f 4//6 11//6 14//6
