# Blender v2.79 (sub 0) OBJ File: ''
# www.blender.org
mtllib 1667_link_1_55.mtl
o Shape_IndexedFaceSet.055_Shape_IndexedFaceSet.819
v -0.058266 0.397794 0.064704
v -0.107585 0.249855 0.044984
v -0.048410 0.249855 0.044984
v -0.080327 0.247971 0.075982
v -0.000027 0.260880 0.074315
v -0.008957 0.397794 0.049916
v -0.102636 0.397794 0.044984
v 0.000909 0.392856 0.074571
v 0.000909 0.264655 0.054848
v -0.043493 0.402732 0.044984
v -0.102636 0.397794 0.049916
vn -0.0832 0.9965 0.0000
vn 0.0000 -0.9982 -0.0607
vn 0.1600 -0.9815 0.1051
vn 0.0000 0.0000 -1.0000
vn -0.1558 0.0969 0.9830
vn 0.0211 -0.0021 0.9998
vn 0.9308 0.0556 -0.3613
vn 0.3138 -0.9348 -0.1662
vn 0.2022 -0.0213 -0.9791
vn 0.9989 -0.0072 0.0466
vn 0.1407 -0.0045 -0.9900
vn 0.0357 0.9628 0.2678
vn 0.1191 0.9816 0.1490
vn -0.7509 0.0031 0.6605
vn -0.3140 0.1172 0.9422
vn -0.9994 0.0334 0.0000
vn -0.0653 0.9784 0.1961
usemtl Shape.838
s off
f 10//1 7//1 11//1
f 2//2 3//2 4//2
f 4//3 3//3 5//3
f 3//4 2//4 7//4
f 1//5 4//5 8//5
f 4//6 5//6 8//6
f 6//7 8//7 9//7
f 5//8 3//8 9//8
f 3//9 6//9 9//9
f 8//10 5//10 9//10
f 6//11 3//11 10//11
f 3//4 7//4 10//4
f 1//12 8//12 10//12
f 8//13 6//13 10//13
f 2//14 4//14 11//14
f 4//15 1//15 11//15
f 7//16 2//16 11//16
f 1//17 10//17 11//17
