# Blender v2.79 (sub 0) OBJ File: ''
# www.blender.org
mtllib 1667_link_1_51.mtl
o Shape_IndexedFaceSet.051_Shape_IndexedFaceSet.815
v 0.114334 0.402732 0.040048
v 0.055163 -0.120127 0.040048
v 0.114334 -0.770972 0.010461
v 0.109599 -0.787536 0.045469
v 0.148853 0.397792 0.010464
v 0.114334 0.392737 0.010461
v 0.149969 -0.784958 0.010053
v 0.129117 0.161006 0.044982
v 0.059058 -0.785520 0.045409
v 0.060097 0.397792 0.040048
v 0.099541 0.402732 0.044982
v 0.140148 -0.789434 0.025180
v 0.060097 -0.770972 0.040048
v 0.135661 -0.800455 0.009594
v 0.143919 0.402732 0.020324
v 0.055163 0.279227 0.040048
vn -0.1248 0.0052 0.9922
vn -0.4472 -0.0000 -0.8944
vn 0.3162 0.0387 0.9479
vn 0.0036 0.0004 1.0000
vn -0.0012 0.0004 1.0000
vn 0.5527 -0.0109 0.8333
vn 0.8390 -0.0016 0.5442
vn -0.4789 -0.0036 -0.8779
vn -0.4600 -0.2779 -0.8433
vn -0.9778 -0.0074 -0.2096
vn -0.0406 -0.0000 -0.9992
vn -0.0000 0.0007 -1.0000
vn 0.0317 0.0004 -0.9995
vn -0.4514 -0.3019 -0.8397
vn -0.0382 -0.9487 0.3139
vn 0.2805 -0.8199 0.4990
vn 0.7050 -0.6587 0.2628
vn -0.1259 0.8603 -0.4940
vn 0.8944 0.0007 0.4472
vn 0.5540 0.0508 0.8310
vn 0.8577 -0.0001 0.5141
vn -0.1546 0.8870 -0.4350
vn 0.0000 1.0000 0.0000
vn -0.1000 0.9786 -0.1800
vn -0.8090 -0.0000 0.5878
vn -0.4774 0.0199 -0.8785
vn -0.1230 0.0045 0.9924
usemtl Shape.834
s off
f 11//1 10//1 16//1
f 3//2 2//2 6//2
f 8//3 1//3 11//3
f 4//4 8//4 11//4
f 9//5 4//5 11//5
f 8//6 4//6 12//6
f 7//7 8//7 12//7
f 2//8 3//8 13//8
f 3//9 9//9 13//9
f 9//10 2//10 13//10
f 3//11 6//11 14//11
f 6//12 5//12 14//12
f 5//13 7//13 14//13
f 9//14 3//14 14//14
f 4//15 9//15 14//15
f 12//16 4//16 14//16
f 7//17 12//17 14//17
f 5//18 6//18 15//18
f 7//19 5//19 15//19
f 1//20 8//20 15//20
f 8//21 7//21 15//21
f 6//22 10//22 15//22
f 11//23 1//23 15//23
f 10//24 11//24 15//24
f 6//2 2//2 16//2
f 2//25 9//25 16//25
f 10//26 6//26 16//26
f 9//27 11//27 16//27
