# Blender v2.79 (sub 0) OBJ File: ''
# www.blender.org
mtllib 1667_link_0_19.mtl
o Shape_IndexedFaceSet.019_Shape_IndexedFaceSet.12341
v 0.074815 0.750097 0.273356
v -0.006893 0.735734 0.237153
v -0.006893 0.745696 0.237153
v -0.006893 0.750679 0.281997
v 0.077823 0.733242 0.281997
v 0.085305 0.733242 0.237153
v 0.077823 0.753173 0.252105
v -0.006893 0.753173 0.252105
v 0.070326 0.752428 0.280320
v 0.082805 0.745696 0.237153
v 0.062878 0.733242 0.281997
v 0.076294 0.732219 0.234851
v -0.006893 0.735734 0.244629
v -0.006893 0.753173 0.281997
vn 0.0225 0.0958 0.9951
vn -1.0000 -0.0000 0.0000
vn 0.0000 0.8944 -0.4473
vn 0.8339 0.3623 0.4163
vn 0.6762 0.7095 0.1984
vn 0.9490 0.2605 0.1778
vn 0.9676 0.1942 0.1614
vn 0.9439 0.2805 0.1742
vn 0.0000 0.0000 1.0000
vn -0.0277 0.0000 -0.9996
vn 0.1082 -0.9940 0.0181
vn 0.2420 0.0486 -0.9690
vn 0.0000 0.1684 -0.9857
vn 0.0000 -0.9998 0.0217
vn -0.0410 -0.9991 0.0100
vn -0.2260 -0.9045 0.3617
vn -0.0422 -0.9991 0.0000
vn 0.0000 1.0000 0.0000
vn 0.0103 0.9995 0.0291
usemtl Shape.12351
s off
f 5//1 9//1 14//1
f 3//2 2//2 4//2
f 3//2 4//2 8//2
f 7//3 3//3 8//3
f 5//4 1//4 9//4
f 1//5 7//5 9//5
f 1//6 5//6 10//6
f 5//7 6//7 10//7
f 3//3 7//3 10//3
f 7//8 1//8 10//8
f 5//9 4//9 11//9
f 2//10 3//10 12//10
f 6//11 5//11 12//11
f 10//12 6//12 12//12
f 3//13 10//13 12//13
f 5//14 11//14 12//14
f 12//15 11//15 13//15
f 4//2 2//2 13//2
f 11//16 4//16 13//16
f 2//17 12//17 13//17
f 4//9 5//9 14//9
f 8//2 4//2 14//2
f 7//18 8//18 14//18
f 9//19 7//19 14//19
